<svg width="104" height="26" viewBox="0 0 104 26" fill="none" xmlns="http://www.w3.org/2000/svg">
<path d="M90.2733 10.7657C89.2733 10.8657 88.1733 11.9657 88.9733 13.1657C90.0733 14.6657 92.5733 12.9657 91.4733 11.4657C91.1733 10.9657 90.6733 10.7657 90.2733 10.7657ZM15.1733 14.1657C14.6733 14.1657 14.1733 14.3657 13.8733 14.9657C12.9733 16.6657 15.6733 18.0657 16.5733 16.4657C17.1733 15.2657 16.1733 14.1657 15.1733 14.1657ZM76.3733 18.0657C75.3733 18.0657 74.4733 18.9657 74.8733 20.0657C75.5733 21.8657 78.4733 20.8657 77.7733 18.9657C77.4733 18.2657 76.8733 18.0657 76.3733 18.0657ZM29.7733 20.0657C29.1733 20.0657 28.5733 20.3657 28.2733 21.1657C27.7733 22.9657 30.6733 23.8657 31.2733 21.9657C31.5733 20.7657 30.6733 20.0657 29.7733 20.0657ZM61.0733 21.9657C60.1733 21.9657 59.3733 22.5657 59.4733 23.6657C59.7733 25.5657 62.8733 25.2657 62.5733 23.2657C62.4733 22.3657 61.7733 21.9657 61.0733 21.9657ZM45.2733 22.6657C44.5733 22.6657 43.8733 23.0657 43.7733 23.9657C43.5733 25.8657 46.7733 26.1657 46.8733 24.1657C46.9733 23.1657 46.0733 22.6657 45.2733 22.6657Z" fill="#6CEAD1"/>
<path d="M2.37296 5.06551C1.97296 5.06551 1.57296 5.26551 1.27296 5.56551C0.0729562 7.06551 2.27296 8.96551 3.57296 7.56551C4.37296 6.56551 3.67296 5.06551 2.37296 5.06551Z" fill="#6CEAD1"/>
<path d="M103.073 9.46582H101.573L101.473 2.06582L94.0734 2.76582L93.9734 1.26582L102.973 0.46582L103.073 9.46582Z" fill="#6CEAD1"/>
</svg>
