<svg width="104" height="26" viewBox="0 0 104 26" fill="none" xmlns="http://www.w3.org/2000/svg">
<path d="M90.2733 15.2343C89.2733 15.1343 88.1733 14.0343 88.9733 12.8343C90.0733 11.3343 92.5733 13.0343 91.4733 14.5343C91.1733 15.0343 90.6733 15.2343 90.2733 15.2343ZM15.1733 11.8343C14.6733 11.8343 14.1733 11.6343 13.8733 11.0343C12.9733 9.33431 15.6733 7.93431 16.5733 9.53431C17.1733 10.7343 16.1733 11.8343 15.1733 11.8343ZM76.3733 7.93431C75.3733 7.93431 74.4733 7.03431 74.8733 5.93431C75.5733 4.13431 78.4733 5.13431 77.7733 7.03431C77.4733 7.73431 76.8733 7.93431 76.3733 7.93431ZM29.7733 5.93431C29.1733 5.93431 28.5733 5.63431 28.2733 4.83431C27.7733 3.03431 30.6733 2.13431 31.2733 4.03431C31.5733 5.23431 30.6733 5.93431 29.7733 5.93431ZM61.0733 4.03431C60.1733 4.03431 59.3733 3.43431 59.4733 2.33431C59.7733 0.434307 62.8733 0.734307 62.5733 2.73431C62.4733 3.63431 61.7733 4.03431 61.0733 4.03431ZM45.2733 3.33431C44.5733 3.33431 43.8733 2.93431 43.7733 2.03431C43.5733 0.134307 46.7733 -0.165693 46.8733 1.83431C46.9733 2.83431 46.0733 3.33431 45.2733 3.33431Z" fill="#6CEAD1"/>
<path d="M2.37302 20.9345C1.97302 20.9345 1.57302 20.7345 1.27302 20.4345C0.0730172 18.9345 2.27302 17.0345 3.57302 18.4345C4.37302 19.4345 3.67302 20.9345 2.37302 20.9345Z" fill="#6CEAD1"/>
<path d="M103.073 16.5342H101.573L101.473 23.9342L94.0734 23.2342L93.9734 24.7342L102.973 25.5342L103.073 16.5342Z" fill="#6CEAD1"/>
</svg>
