<svg width="54" height="34" viewBox="0 0 54 34" fill="none" xmlns="http://www.w3.org/2000/svg">
<path d="M53.3242 1.39068C53.209 1.16028 53.0362 0.987484 52.8634 0.814684C51.9418 0.00828414 50.905 0.181083 49.5226 0.181083C47.2762 0.181083 38.2906 0.0658828 37.657 0.181083C37.4842 0.181083 37.2538 0.238684 37.081 0.238684C36.9658 0.181084 36.793 0.181083 36.6202 0.181083C36.505 0.181083 36.4474 0.181083 36.3322 0.181083C32.473 0.181083 23.4874 0.181083 22.969 0.181083H10.873C10.6426 0.238683 10.4122 0.238683 10.2394 0.296283C8.51137 0.814683 7.41697 1.90908 7.01377 3.69468C5.34337 10.9523 3.61537 18.2099 1.94497 25.4675C1.54177 27.1379 0.850569 28.9235 0.792969 30.5939C0.792969 31.2851 1.02337 31.9763 1.48417 32.4947C1.94497 33.0131 2.69377 33.3011 3.32737 33.3011C3.73057 33.3011 4.13377 33.3011 4.53697 33.3011H29.1322C29.2474 33.2435 29.3626 33.3011 29.4778 33.2435C29.4202 33.2435 29.4202 33.1859 29.3626 33.1859C29.4202 33.1859 29.4202 33.1859 29.4778 33.2435C29.593 33.2435 29.7082 33.2435 29.8234 33.3011H43.705C43.8778 33.2435 44.1082 33.2435 44.281 33.1859C46.009 32.6675 47.1034 31.5155 47.5066 29.7875C47.7946 28.8659 48.9466 23.7395 49.5226 21.1475C50.1562 18.5555 50.7322 15.9059 51.3658 13.3139C51.9994 10.7219 52.5754 8.07228 53.209 5.48028C53.3818 4.67388 53.6698 3.92508 53.7274 3.11868C53.7274 2.94588 53.7274 2.83068 53.7274 2.65788C53.6122 2.13948 53.497 1.73628 53.3242 1.39068Z" fill="#E21435"/>
<path d="M53.6122 2.48506C53.6122 2.65786 53.6122 2.77306 53.6122 2.94586C53.5546 3.75226 53.2666 4.55867 53.0938 5.30747C52.4602 7.89946 51.8842 10.5491 51.2506 13.1411C50.617 15.7331 50.041 18.3827 49.4074 20.9747C48.8314 23.5667 47.6794 28.6931 47.3914 29.6147C46.9882 31.4003 45.8362 32.4947 44.1658 33.0131C43.993 33.0707 43.7626 33.0707 43.5898 33.1283C38.9818 33.1283 34.3162 33.1283 29.7082 33.1283C29.593 33.0707 29.4778 33.0707 29.3626 33.0707C29.305 33.0707 29.305 33.0131 29.2474 33.0131C28.8442 32.8979 28.4986 32.7251 28.2106 32.4371C27.5194 31.7459 27.3466 30.9395 27.5194 30.0179C27.6922 29.0963 27.9226 28.1171 28.153 27.1955C28.2106 26.9075 28.3258 26.6195 28.3258 26.3315C28.5562 26.3315 28.8442 26.3315 29.0746 26.3315C29.1898 26.3315 29.4202 26.3891 29.4778 26.3315C29.5354 26.2739 29.5354 26.1011 29.593 25.9283C29.6506 25.6979 29.7082 25.4099 29.7658 25.1795C29.4202 25.2371 29.1322 25.2371 28.8442 25.2947C28.7866 25.2947 28.6714 25.2947 28.6138 25.2371C28.729 24.7187 28.8442 24.2003 28.9594 23.6819C29.017 23.3363 29.1322 22.9907 29.1898 22.6451C29.2474 22.6451 29.305 22.6451 29.3626 22.6451C30.169 22.6451 31.033 22.6451 31.8394 22.6451C32.5882 22.6451 32.9338 22.3571 33.2218 21.6659C33.337 21.3203 33.3946 20.9747 33.5098 20.6291C33.6826 19.9379 33.8554 19.2467 34.0282 18.4979C33.9706 18.4979 33.913 18.4979 33.8554 18.4979C33.2218 18.4979 32.5882 18.4979 31.9546 18.4979C31.2634 18.4979 30.6298 18.6131 30.0538 19.0739C30.2266 18.2099 30.457 17.3459 30.6298 16.4819C30.8026 16.4819 30.9754 16.4819 31.2058 16.4819C31.4362 16.4819 31.4362 16.4819 31.4362 16.2515C31.5514 15.6755 31.6666 15.0419 31.7818 14.4659C31.897 13.9475 32.0698 13.3715 32.1274 12.8531C32.185 12.4499 32.0698 12.1043 31.6666 11.8739C31.7242 11.8163 31.7242 11.7587 31.7242 11.7587C31.897 11.0099 32.0698 10.2611 32.2426 9.56986C32.6458 7.72666 33.1066 5.88346 33.5098 4.04026C33.625 3.57946 33.6826 3.11867 33.913 2.71547C34.201 2.13947 34.6042 1.56346 35.1226 1.16026C35.4682 0.872265 35.8138 0.641865 36.217 0.469065C36.505 0.353865 36.7354 0.296265 37.0234 0.181065C37.1962 0.181065 37.4266 0.123466 37.5994 0.123466C38.233 0.00826564 47.2186 0.123466 49.465 0.123466C50.8474 0.123466 51.8842 -0.0493352 52.8058 0.757065C52.9786 0.929865 53.1514 1.10266 53.2666 1.33306C53.497 1.73626 53.6122 2.13946 53.6122 2.48506ZM37.2538 18.4979C37.2538 18.4979 37.1962 18.4979 37.2538 18.4979C36.7354 18.4979 36.2746 18.4979 35.7562 18.4979C35.6986 18.4979 35.641 18.5555 35.641 18.6131C35.1802 20.6867 34.6618 22.7027 34.201 24.7763C34.1434 25.0067 34.1434 25.0067 33.9706 25.0067C33.8554 25.0067 33.8554 25.0067 33.7978 25.1219C33.7402 25.3523 33.6826 25.6403 33.625 25.8707C33.5674 25.9859 33.625 26.0435 33.7402 26.0435C34.6618 26.0435 35.5258 26.0435 36.4474 26.0435C36.6778 26.0435 36.6778 26.0435 36.6202 26.2739C36.6202 26.3891 36.6202 26.3891 36.7354 26.3891C37.1386 26.3891 37.5994 26.3891 38.0026 26.3891C38.1178 26.3891 38.1754 26.3315 38.1754 26.2739C38.233 26.0435 38.233 26.0435 38.4058 26.0435C38.6362 26.0435 38.6362 26.0435 38.5786 26.2739C38.521 26.3891 38.5786 26.3891 38.6938 26.3891C39.0394 26.3891 39.385 26.3891 39.673 26.3891C40.249 26.3891 40.6522 26.1587 40.9402 25.6979C41.1706 25.3523 41.3434 25.0643 41.5738 24.7763C41.5738 24.7187 41.6314 24.7187 41.689 24.6611C41.7466 25.0067 41.8618 25.3523 41.9194 25.6979C41.977 25.8707 42.0346 26.0435 42.2074 26.1011C42.4378 26.2163 42.6106 26.3315 42.8986 26.3315C43.129 26.3315 43.3594 26.3315 43.5898 26.3315C43.6474 26.3315 43.705 26.3315 43.705 26.2739C43.7626 25.9283 43.8778 25.6403 43.9354 25.2947C43.9354 25.2371 43.9354 25.1795 43.8778 25.1795C43.7626 25.1795 43.6474 25.1795 43.5322 25.1795C43.3594 25.1795 43.3018 25.1219 43.3018 24.9491C43.2442 24.6035 43.129 24.2003 43.0714 23.8547C43.0714 23.7971 43.0138 23.7395 42.9562 23.7395C42.7834 23.7395 42.553 23.7395 42.3226 23.7395C42.3802 23.6243 42.4954 23.5667 42.553 23.4515C42.6106 23.3363 42.6682 23.3363 42.7834 23.3363C43.3018 23.3363 43.8202 23.3363 44.3386 23.3363C44.4538 23.3363 44.4538 23.3363 44.4538 23.2211C44.5114 22.9907 44.569 22.7603 44.6266 22.5875C44.6842 22.4723 44.6266 22.4147 44.5114 22.4147C44.0506 22.4147 43.5898 22.4147 43.129 22.4147C43.0138 22.4147 43.0138 22.4147 43.0138 22.2995C43.0714 22.1267 43.129 21.8963 43.1866 21.6659C43.1866 21.6083 43.2442 21.5507 43.3018 21.5507C43.7626 21.5507 44.2234 21.5507 44.6842 21.5507C44.7994 21.5507 44.857 21.5507 44.857 21.4355C44.9146 21.2051 44.9722 20.9171 45.0298 20.6867C45.0874 20.5715 45.0298 20.5139 44.9146 20.5715C43.9354 20.5715 43.0138 20.5715 42.0346 20.5715C41.401 20.5715 40.7674 20.5715 40.1914 20.5715C40.1338 20.5715 40.0762 20.5715 40.0762 20.6291C40.0186 20.9171 39.9034 21.2627 39.8458 21.6083C39.9034 21.6083 39.961 21.6083 40.0186 21.6083C40.537 21.6083 40.9978 21.6083 41.5162 21.6083C41.6314 21.6083 41.6314 21.6659 41.6314 21.7235C41.5738 21.8963 41.5162 22.0691 41.5162 22.2995C41.5162 22.4147 41.4586 22.4723 41.3434 22.4723C40.825 22.4723 40.3066 22.4723 39.7882 22.4723C39.7306 22.4723 39.673 22.4723 39.673 22.5875C39.6154 22.8179 39.5578 23.0483 39.5002 23.2787C39.5002 23.3939 39.5002 23.3939 39.6154 23.3939C40.0762 23.3939 40.4794 23.3939 40.9402 23.3939C40.9978 23.3939 40.9978 23.3939 41.0554 23.3939C40.7098 23.9699 40.3642 24.5459 39.961 25.0643C39.8458 25.2371 39.673 25.2947 39.5002 25.3523C39.3274 25.4099 39.1546 25.3523 38.9242 25.3523C38.9818 25.1795 38.9818 25.0643 39.0394 24.8915C38.8666 24.8915 38.7514 24.8915 38.6362 24.8915C38.6362 24.8339 38.6362 24.8339 38.6362 24.7763C39.0394 23.0483 39.4426 21.3779 39.8458 19.6499C39.8458 19.5923 39.9034 19.5347 39.961 19.5347C40.0762 19.5347 40.1914 19.5347 40.3066 19.5347C40.3642 19.5347 40.4218 19.5347 40.4218 19.4771C40.4794 19.1315 40.5946 18.7859 40.6522 18.4979C40.5946 18.4979 40.5946 18.4979 40.537 18.4979C39.8458 18.4979 39.097 18.5555 38.4058 18.5555C38.0602 18.5555 37.7722 18.6707 37.4842 18.8435C37.4266 18.9011 37.3114 18.9587 37.1962 19.0163C37.1962 18.8435 37.1962 18.6707 37.2538 18.4979ZM32.473 16.4819C32.5306 16.4819 32.5306 16.4819 32.5882 16.4819C33.1642 16.4819 33.6826 16.4819 34.2586 16.4819C34.489 16.4819 34.489 16.4819 34.489 16.3091C34.6618 15.5027 34.8346 14.6963 35.0074 13.8899C35.065 13.6595 35.1226 13.6595 35.353 13.6595C35.929 13.6595 36.505 13.6595 37.081 13.5443C38.809 13.2563 40.0186 11.8163 39.961 10.0883C39.961 9.39706 39.5578 8.93626 38.9242 8.70586C38.4634 8.59066 37.945 8.53306 37.4842 8.53306C36.4474 8.53306 35.4106 8.59066 34.4314 8.53306C34.3162 8.53306 34.3162 8.59066 34.3162 8.64826C33.913 10.8371 33.337 12.9683 32.8186 15.0995C32.6458 15.5603 32.5306 16.0211 32.473 16.4819ZM46.7578 14.1203C46.7002 13.3715 46.6426 12.6803 46.6426 11.9315C46.6426 11.7587 46.585 11.7587 46.4698 11.7587C45.9514 11.8739 45.4906 11.9891 44.9722 12.0467C44.857 12.0467 44.7994 12.1043 44.7994 12.2195C44.9146 12.6803 44.9146 13.1987 45.0298 13.6595C45.145 14.5811 45.2602 15.5027 45.3754 16.4243C45.3754 16.4819 45.3754 16.5395 45.3178 16.5971C44.857 17.3459 44.5114 18.0947 43.993 18.8435C43.705 19.2467 43.8202 19.3043 43.2442 19.3043C43.1866 19.3043 43.129 19.3043 43.129 19.3619C43.0714 19.6499 43.0138 19.9379 42.9562 20.2259C42.9562 20.2835 42.9562 20.3411 43.0138 20.3411C43.3018 20.3411 43.5898 20.3411 43.8778 20.3411C44.4538 20.3411 44.857 20.1107 45.145 19.5923C46.009 18.0371 46.9306 16.4819 47.7946 14.9267C48.3706 13.9475 48.9466 12.9683 49.465 11.9891C49.465 11.9315 49.5226 11.9315 49.465 11.8739C49.4074 11.8163 49.4074 11.8163 49.3498 11.8739C48.8314 11.9891 48.313 12.1043 47.737 12.1619C47.6794 12.1619 47.6218 12.2195 47.6218 12.2771C47.3914 12.8531 47.0458 13.4291 46.7578 14.0051C46.873 13.9475 46.8154 14.0051 46.7578 14.1203ZM41.2858 16.2515C41.2858 16.3091 41.2858 16.3091 41.2858 16.3667C41.2282 16.5395 41.2282 16.5395 41.4586 16.5395C41.977 16.5395 42.4954 16.4819 43.0138 16.5395C43.129 16.5395 43.1866 16.4819 43.1866 16.3667C43.2442 16.0211 43.3018 15.6755 43.3594 15.3875C43.5898 14.2355 43.8778 13.1411 44.1082 12.0467C44.1658 11.8739 44.1658 11.8739 43.993 11.8739C43.4746 11.9891 42.9562 12.0467 42.4378 12.1043C42.265 12.1043 42.2074 12.1619 42.2074 12.3347L42.1498 12.2771C41.9194 11.9891 41.6314 11.8163 41.2858 11.8739C40.5946 11.9315 40.0186 12.2771 39.6154 12.7955C39.2122 13.2563 38.9818 13.8899 38.8666 14.5235C38.809 14.8115 38.809 15.1571 38.809 15.4451C38.8666 15.9635 39.1546 16.3091 39.6154 16.4819C40.1338 16.6547 40.7098 16.7123 41.2858 16.2515C41.2282 16.2515 41.2282 16.2515 41.2858 16.2515ZM31.2634 26.3315C31.5514 26.3315 31.8394 26.3315 32.0698 26.3315C32.185 26.3315 32.185 26.3315 32.185 26.2163C32.2426 25.9283 32.3002 25.6403 32.3578 25.3523C32.3578 25.2371 32.3578 25.2371 32.2426 25.2371C31.9546 25.2371 31.6666 25.2947 31.3786 25.2947C31.2058 25.2947 31.1482 25.2371 31.0906 25.0643C31.0906 24.8339 31.0906 24.6035 31.033 24.3731C31.033 24.2579 31.033 24.2579 31.1482 24.2579C31.4362 24.2579 31.6666 24.2579 31.9546 24.2579C32.3578 24.2579 32.6458 24.0275 32.8186 23.6819C32.9338 23.4515 32.9338 23.1635 32.9338 22.9331C32.9338 22.8755 32.8762 22.8755 32.8186 22.8755C32.5306 22.8755 32.185 22.8755 31.897 22.8755C31.8394 22.8755 31.7818 22.9331 31.7818 22.9907C31.7818 23.1059 31.7242 23.2211 31.7242 23.3363C31.6666 23.5091 31.609 23.5667 31.4362 23.5667C31.321 23.5667 31.2058 23.5667 31.1482 23.5667C31.0906 23.5667 31.033 23.5667 31.033 23.4515C31.033 23.3363 31.033 23.2211 31.033 23.1059C31.033 22.9907 31.033 22.9331 30.9178 22.9331C30.5146 22.9331 30.169 22.9331 29.7658 22.9331C29.6506 22.9331 29.6506 22.9331 29.6506 23.0483C29.7082 23.9699 29.7082 24.8339 29.7658 25.7555C29.7658 26.1011 29.881 26.2739 30.2842 26.3315C30.6874 26.3315 30.9754 26.3315 31.2634 26.3315ZM41.4586 18.4979C41.2282 18.4979 40.9978 18.4979 40.7098 18.4979C40.5946 18.4979 40.5946 18.4979 40.5946 18.6131C40.5946 18.9587 40.5946 19.2467 40.6522 19.5923C40.6522 19.9955 40.825 20.2259 41.2858 20.2835C41.689 20.3411 42.1498 20.2835 42.553 20.2835C42.6106 20.2835 42.6106 20.2259 42.6106 20.2259C42.6682 19.9379 42.7258 19.6499 42.841 19.3619C42.841 19.3043 42.841 19.3043 42.7834 19.3043C42.6682 19.3043 42.6106 19.3043 42.4954 19.3043C42.3802 19.3043 42.3226 19.2467 42.3226 19.1315C42.3226 18.9587 42.3226 18.8435 42.3226 18.6707C42.3226 18.5555 42.265 18.5555 42.2074 18.5555C41.977 18.4979 41.689 18.4979 41.4586 18.4979Z" fill="#00737F"/>
<path d="M37.0233 0.180895C36.7353 0.296095 36.5049 0.353695 36.2169 0.468895C35.8137 0.641695 35.4681 0.872096 35.1225 1.1601C34.6041 1.5633 34.2009 2.0817 33.9129 2.7153C33.6825 3.1185 33.6249 3.5793 33.5097 4.0401C33.1065 5.8833 32.6457 7.7265 32.2425 9.5697C32.0697 10.3185 31.8969 11.0673 31.7241 11.7585C31.7241 11.8161 31.7241 11.8737 31.6665 11.8737C31.2633 11.7009 30.8601 11.7585 30.5145 11.8737C30.2265 11.9313 29.9385 12.1041 29.7081 12.2193C29.7081 12.1041 29.7657 12.0465 29.7657 11.9313C29.8233 11.7585 29.7657 11.7009 29.5929 11.7585C29.0745 11.8737 28.5561 11.9313 28.0377 12.0465C27.9225 12.0465 27.8649 12.1041 27.8649 12.2193C27.8073 12.7953 27.6921 13.3713 27.5769 13.8897C27.4041 14.6961 27.2313 15.5601 27.0009 16.3665C26.9433 16.4817 27.0009 16.5393 27.1161 16.5393C27.6345 16.5393 28.0953 16.5393 28.6137 16.5393C28.7289 16.5393 28.7865 16.4817 28.8441 16.3665C29.0169 15.3873 29.2473 14.4081 29.4777 13.4289C29.4777 13.3713 29.4777 13.3137 29.5353 13.3137C29.7081 13.2561 29.8233 13.1985 30.0537 13.1985C30.2265 13.1985 30.3417 13.3137 30.3417 13.4865C30.3417 13.6593 30.3417 13.7745 30.2841 13.9473C30.1689 14.7537 29.9385 15.6177 29.7657 16.4241C29.7081 16.5969 29.7081 16.5969 29.9385 16.5969C30.2265 16.5969 30.4569 16.5969 30.7449 16.5969C30.5721 17.4609 30.3417 18.3249 30.1689 19.1889C30.1113 19.2465 30.0537 19.3041 29.9385 19.3617C29.9961 19.1313 29.9961 18.9585 30.0537 18.7857C30.1113 18.6705 30.0537 18.6705 29.9385 18.6705C29.5353 18.6705 29.1897 18.6705 28.7865 18.6705C28.6713 18.6705 28.6137 18.7281 28.5561 18.8433C28.1529 20.5713 27.7497 22.2993 27.2889 24.0273C27.1161 24.6609 26.9433 25.2945 26.8281 25.9281C26.8281 25.9857 26.8281 26.1009 26.8281 26.1585C26.9433 26.3313 27.1161 26.5041 27.3465 26.5041C27.6921 26.5041 27.9801 26.5041 28.3257 26.5617C28.3257 26.8497 27.6921 29.3265 27.5193 30.2481C27.3465 31.1697 27.5769 31.9761 28.2105 32.6673C28.4985 32.9553 28.8441 33.1281 29.2473 33.2433C29.3049 33.2433 29.3049 33.2433 29.3625 33.3009C29.2473 33.3585 29.1321 33.3009 29.0169 33.3585C24.4089 33.3585 19.7433 33.3585 15.1353 33.3585C15.1353 33.3009 15.0777 33.3585 15.0201 33.3009C14.3865 33.1857 13.8105 32.9553 13.4073 32.4369C12.8313 31.7457 12.7161 30.9393 12.8889 30.1329C13.1193 29.0961 13.3497 28.0593 13.5801 27.0801C14.3289 23.9121 15.0777 20.6865 15.8265 17.5185C16.1721 16.1361 16.4601 14.7537 16.8057 13.3137C16.9785 13.3713 17.0361 13.4865 17.0361 13.6593C17.0361 13.8897 16.9785 14.1777 16.9209 14.4081C16.8057 15.0993 16.6329 15.8481 16.4601 16.5393C16.4601 16.6545 16.4601 16.7121 16.5753 16.6545C17.0937 16.5969 17.5545 16.6545 18.0729 16.6545C18.1881 16.6545 18.2457 16.5969 18.2457 16.4817C18.3609 15.6177 18.5913 14.8113 18.7641 13.9473C18.8217 13.5441 18.9369 13.1985 18.9369 12.7953C18.9369 12.3345 18.5913 11.9889 18.1305 11.9313C17.7849 11.8737 17.4393 11.9889 17.0937 12.0465C17.0937 12.0465 17.0937 12.0465 17.0937 11.9889C17.7273 9.2241 18.3609 6.5169 18.9945 3.7521C19.3977 1.9665 20.5497 0.872096 22.2777 0.296096C22.5081 0.238496 22.6809 0.238495 22.9113 0.180895C23.4297 0.180895 32.4153 0.180895 36.2745 0.180895C36.3897 0.180895 36.4473 0.180895 36.5625 0.180895C36.7353 0.123295 36.9081 0.123295 37.0233 0.180895ZM24.0057 16.5393C24.1785 16.5393 24.3513 16.5393 24.5817 16.4817C25.3881 16.3665 26.0217 15.9633 26.4249 15.2721C26.7705 14.6385 26.9433 13.9473 26.9433 13.2561C26.9433 12.5649 26.5977 12.1041 25.9641 11.9313C25.5609 11.8161 25.1001 11.7585 24.6969 11.8161C23.9481 11.8737 23.3145 12.1617 22.8537 12.7377C22.3353 13.4289 22.1049 14.2353 22.1049 15.0993C22.1049 15.8481 22.5081 16.3089 23.2569 16.4817C23.4873 16.5393 23.7177 16.5393 24.0057 16.5393ZM26.3097 25.1793C26.1369 25.1793 26.0217 25.2369 25.9065 25.2369C25.6185 25.2945 25.3305 25.3521 25.0425 25.2369C24.8697 25.1793 24.8697 25.1793 24.9273 25.0065C25.0425 24.6033 25.1001 24.2001 25.2153 23.8545C25.2153 23.7393 25.2729 23.7393 25.3881 23.7393C25.9065 23.7393 26.3673 23.7393 26.8857 23.7393C27.0009 23.7393 27.0009 23.7393 27.0585 23.6241C27.1161 23.3361 27.1737 23.1057 27.2313 22.8177C27.2889 22.7025 27.2313 22.7025 27.1161 22.7025C26.6553 22.7025 26.1369 22.7025 25.6761 22.7025C25.5609 22.7025 25.5609 22.7025 25.5609 22.5873C25.6185 22.3569 25.6761 22.1841 25.7337 21.9537C25.7337 21.8385 25.7913 21.8385 25.9065 21.8385C26.3673 21.8385 26.8857 21.8385 27.3465 21.8385C27.4617 21.8385 27.4617 21.8385 27.5193 21.7233C27.5769 21.4929 27.6345 21.2049 27.6921 20.9745C27.6921 20.8593 27.6921 20.8593 27.5769 20.8593C27.2889 20.8593 27.0009 20.8593 26.7129 20.8593C25.6761 20.8593 24.6393 20.8593 23.6025 20.8593C23.5449 20.8593 23.4873 20.8593 23.4297 20.9745C23.3721 21.2625 23.3145 21.4929 23.2569 21.7809C23.2569 21.8961 23.2569 21.8961 23.3721 21.8961C23.6025 21.8961 23.8905 21.8961 24.1209 21.8961C24.1785 21.8961 24.2361 21.8961 24.1785 22.0113C24.1209 22.2417 24.0633 22.4721 24.0057 22.7025C24.0057 22.7601 23.9481 22.8177 23.8905 22.8177C23.6601 22.8177 23.3721 22.8177 23.1417 22.8177C23.0841 22.8177 23.0265 22.8177 23.0265 22.9329C22.9689 23.2209 22.9113 23.5089 22.7961 23.7969C22.7961 23.9121 22.7961 23.9121 22.9113 23.9121C23.1417 23.9121 23.4297 23.9121 23.6601 23.9121C23.7753 23.9121 23.7753 23.9121 23.7177 24.0273C23.6025 24.6033 23.4297 25.1793 23.3145 25.6977C23.2569 25.8705 23.3145 25.9857 23.3721 26.1009C23.5449 26.3889 23.7753 26.4465 24.0633 26.4465C24.6969 26.4465 25.3881 26.4465 26.0217 26.4465C26.0793 26.4465 26.1369 26.4465 26.1369 26.3889C26.1369 25.9281 26.1945 25.5825 26.3097 25.1793ZM19.9737 16.4817C20.2617 16.4817 20.4921 16.4817 20.7801 16.4817C20.8953 16.4817 20.9529 16.4241 20.9529 16.3089C20.9529 16.1361 21.0105 15.9633 21.0681 15.7905C21.2985 14.8113 21.4713 13.8321 21.7593 12.9105C21.8169 12.7377 21.7593 12.7377 21.6441 12.7377C21.1257 12.8529 20.5497 12.9105 19.9737 13.0257C19.8585 13.0257 19.8585 13.0833 19.8009 13.1985C19.7433 13.8321 19.5705 14.4657 19.4553 15.0993C19.3401 15.5025 19.1673 15.9057 19.0521 16.3665C18.9945 16.4817 19.0521 16.5393 19.1673 16.5393C19.4553 16.4817 19.6857 16.4817 19.9737 16.4817ZM26.3673 18.4977C25.7913 18.4977 25.2729 18.4977 24.6969 18.4977C24.6393 18.4977 24.6393 18.5553 24.5817 18.6129C24.4665 18.8433 24.3513 19.0737 24.2361 19.3617C24.1209 19.5921 23.9481 19.7649 23.6601 19.7073C23.6025 19.7073 23.5449 19.7073 23.4873 19.7073C23.4297 19.7073 23.3721 19.7073 23.3721 19.8225C23.3145 20.1105 23.2569 20.3409 23.1993 20.6289C23.1993 20.7441 23.1993 20.7441 23.2569 20.7441C23.4873 20.7441 23.7177 20.7441 23.9481 20.7441C24.4089 20.7441 24.7545 20.5713 25.1001 20.2833C25.1577 20.2257 25.2153 20.2257 25.3305 20.2257C26.0217 20.2257 26.7129 20.2257 27.4617 20.2257C27.5769 20.2257 27.5769 20.1681 27.6345 20.1105C27.6921 19.8225 27.7497 19.5921 27.8073 19.3041C27.8073 19.1889 27.8073 19.1889 27.6921 19.1889C27.4041 19.1889 27.1161 19.1889 26.7705 19.1889C26.5401 19.1889 26.3097 19.1889 26.0793 19.1889C26.1945 18.8433 26.2521 18.6705 26.3673 18.4977ZM21.1833 11.2977C20.7801 11.2977 20.3769 11.4129 20.0889 11.7009C19.7433 12.0465 19.8585 12.3921 20.3193 12.5649C20.5497 12.6225 20.7801 12.6225 21.0681 12.5649C21.4137 12.5073 21.7017 12.3345 21.9321 12.1041C22.1625 11.8161 22.0473 11.5281 21.7017 11.3553C21.4713 11.2977 21.2985 11.2977 21.1833 11.2977Z" fill="#0F3F75"/>
<path d="M37.2538 18.498C37.1962 18.6708 37.1962 18.8436 37.1386 19.0164C37.2538 18.9588 37.3114 18.9012 37.4266 18.8436C37.7146 18.6708 38.0026 18.6132 38.3482 18.5556C39.0394 18.498 39.7882 18.498 40.4794 18.498C40.4794 18.498 40.537 18.498 40.5946 18.498C40.537 18.8436 40.4218 19.1892 40.3642 19.4772C40.3642 19.5348 40.3066 19.5348 40.249 19.5348C40.1338 19.5348 40.0186 19.5348 39.9034 19.5348C39.8458 19.5348 39.7882 19.5348 39.7882 19.65C39.385 21.378 38.9818 23.0484 38.5786 24.7764C38.5786 24.834 38.5786 24.834 38.5786 24.8916C38.6938 24.8916 38.8666 24.8916 38.9818 24.8916C38.9242 25.0644 38.9242 25.1796 38.8666 25.3524C39.0394 25.3524 39.2698 25.3524 39.4426 25.3524C39.6154 25.2948 39.7882 25.2372 39.9034 25.0644C40.249 24.4884 40.6522 23.9124 40.9978 23.394C40.9402 23.3364 40.9402 23.394 40.8826 23.394C40.4218 23.394 40.0186 23.394 39.5578 23.394C39.4426 23.394 39.4426 23.3364 39.4426 23.2788C39.5002 23.0484 39.5578 22.818 39.6154 22.5876C39.6154 22.53 39.673 22.4724 39.7306 22.4724C40.249 22.4724 40.7674 22.4724 41.2858 22.4724C41.401 22.4724 41.4586 22.4148 41.4586 22.2996C41.5162 22.1268 41.5162 21.954 41.5738 21.7236C41.5738 21.6084 41.5738 21.6084 41.4586 21.6084C40.9402 21.6084 40.4794 21.6084 39.961 21.6084C39.9034 21.6084 39.8458 21.6084 39.7882 21.6084C39.8458 21.2628 39.961 20.9748 40.0186 20.6292C40.0186 20.5716 40.0762 20.5716 40.1338 20.5716C40.7674 20.5716 41.401 20.5716 41.977 20.5716C42.9562 20.5716 43.8778 20.5716 44.857 20.5716C44.9722 20.5716 45.0298 20.5716 44.9722 20.6868C44.9146 20.9172 44.857 21.2052 44.7994 21.4356C44.7994 21.5508 44.7418 21.5508 44.6266 21.5508C44.1658 21.5508 43.705 21.5508 43.2442 21.5508C43.129 21.5508 43.129 21.6084 43.129 21.666C43.0714 21.8964 43.0138 22.0692 42.9562 22.2996C42.9562 22.4148 42.9562 22.4148 43.0714 22.4148C43.5322 22.4148 43.993 22.4148 44.4538 22.4148C44.569 22.4148 44.6266 22.4724 44.569 22.5876C44.5114 22.818 44.4538 22.9908 44.3962 23.2212C44.3962 23.3364 44.3386 23.3364 44.281 23.3364C43.7626 23.3364 43.2442 23.3364 42.7258 23.3364C42.6106 23.3364 42.553 23.3364 42.4954 23.4516C42.4378 23.5092 42.3802 23.6244 42.265 23.7396C42.4954 23.7396 42.6682 23.7396 42.8986 23.7396C43.0138 23.7396 43.0138 23.7972 43.0138 23.8548C43.0714 24.2004 43.1866 24.6036 43.2442 24.9492C43.2442 25.0644 43.3594 25.1796 43.4746 25.1796C43.5898 25.1796 43.705 25.1796 43.8202 25.1796C43.8778 25.1796 43.9354 25.1796 43.8778 25.2948C43.8202 25.6404 43.705 25.9284 43.6474 26.274C43.6474 26.3316 43.5898 26.3316 43.5322 26.3316C43.3018 26.3316 43.0714 26.3316 42.841 26.3316C42.6106 26.3316 42.3802 26.2164 42.1498 26.1012C41.977 25.986 41.9194 25.8708 41.8618 25.698C41.8042 25.3524 41.689 25.0068 41.6314 24.6612C41.5738 24.6612 41.5738 24.7188 41.5162 24.7764C41.2858 25.0644 41.113 25.41 40.8826 25.698C40.5946 26.1588 40.1914 26.3892 39.6154 26.3892C39.2698 26.3892 38.9242 26.3892 38.6362 26.3892C38.521 26.3892 38.521 26.3892 38.521 26.274C38.5786 26.0436 38.5786 26.0436 38.3482 26.0436C38.1178 26.0436 38.1178 26.0436 38.1178 26.274C38.1178 26.3892 38.0602 26.3892 37.945 26.3892C37.5418 26.3892 37.081 26.3892 36.6778 26.3892C36.5626 26.3892 36.5626 26.3892 36.5626 26.274C36.6202 26.0436 36.6202 26.0436 36.3898 26.0436C35.4682 26.0436 34.6042 26.0436 33.6826 26.0436C33.625 25.986 33.625 25.9284 33.625 25.8132C33.6826 25.5828 33.7402 25.2948 33.7978 25.0644C33.7978 24.9492 33.8554 24.9492 33.9706 24.9492C34.1434 24.9492 34.1434 24.9492 34.201 24.7188C34.6618 22.6452 35.1802 20.6292 35.641 18.5556C35.641 18.498 35.641 18.4404 35.7562 18.4404C36.2746 18.498 36.7354 18.498 37.2538 18.498C37.2538 18.498 37.1962 18.498 37.2538 18.498ZM37.2538 23.682C36.8506 23.682 36.4474 23.682 36.0442 23.682C35.9866 23.682 35.9866 23.7396 35.9866 23.7396C35.929 24.0852 35.8138 24.4308 35.7562 24.7764C35.7562 24.834 35.7562 24.8916 35.8138 24.8916C36.1594 24.8916 36.505 24.8916 36.8506 24.8916C36.9082 24.8916 36.9658 24.8916 36.9658 24.7764C37.081 24.4308 37.1962 24.0852 37.2538 23.682ZM36.217 22.9908C36.6202 22.7604 37.0234 22.5876 37.4842 22.5876C37.5418 22.5876 37.5418 22.53 37.5418 22.53C37.5994 22.242 37.657 21.8964 37.7722 21.6084C37.369 21.6084 36.9658 21.6084 36.6202 21.6084C36.5626 21.6084 36.5626 21.666 36.505 21.7236C36.4474 22.0116 36.3898 22.2996 36.2746 22.5876C36.2746 22.7028 36.217 22.818 36.217 22.9908ZM36.6778 20.9172C36.7354 20.9172 36.7354 20.9172 36.7354 20.9172C37.1386 20.7444 37.4842 20.6292 37.945 20.5716C38.0026 20.5716 38.0026 20.514 38.0602 20.514C38.1178 20.226 38.1754 19.938 38.233 19.7076C38.233 19.65 38.233 19.5924 38.1754 19.5924C37.8298 19.5924 37.4842 19.5924 37.081 19.5924C37.0234 19.5924 36.9658 19.5924 36.9658 19.7076C36.9658 19.8228 36.9082 19.938 36.9082 20.0532C36.8506 20.2836 36.793 20.5716 36.6778 20.9172Z" fill="white"/>
<path d="M32.473 16.482C32.5882 16.0212 32.7034 15.5604 32.8186 15.0996C33.337 12.9684 33.8554 10.7796 34.3162 8.6484C34.3162 8.5908 34.3162 8.5332 34.4314 8.5332C35.4682 8.5908 36.505 8.5332 37.4842 8.5332C37.945 8.5332 38.4634 8.5332 38.9242 8.706C39.5578 8.8788 39.961 9.3972 39.961 10.0884C40.0186 11.8164 38.809 13.314 37.081 13.5444C36.505 13.6596 35.929 13.6596 35.353 13.6596C35.1226 13.6596 35.065 13.7172 35.0074 13.89C34.777 14.6964 34.6618 15.5028 34.489 16.3092C34.4314 16.5396 34.4314 16.5396 34.2586 16.482C33.6826 16.482 33.1642 16.482 32.5882 16.482C32.5306 16.482 32.473 16.482 32.473 16.482ZM35.8138 12.3924C35.9866 12.3924 36.217 12.3924 36.3898 12.3348C37.2538 12.2196 37.8874 11.4132 37.8298 10.5492C37.8298 10.2036 37.5994 9.858 37.3114 9.858C36.8506 9.8004 36.4474 9.7428 35.9866 9.7428C35.929 9.7428 35.929 9.7428 35.929 9.8004C35.8714 10.2612 35.7562 10.722 35.641 11.1828C35.5834 11.586 35.4682 11.9316 35.353 12.3348C35.353 12.45 35.353 12.5076 35.4682 12.45C35.5834 12.3924 35.6986 12.3924 35.8138 12.3924Z" fill="white"/>
<path d="M28.3258 26.3316C27.9802 26.3316 27.6922 26.274 27.3466 26.274C27.1162 26.274 26.9434 26.1012 26.8282 25.9284C26.7706 25.8708 26.7706 25.8132 26.8282 25.698C26.9434 25.0644 27.1162 24.4308 27.289 23.7972C27.6922 22.0692 28.0954 20.3412 28.5562 18.6132C28.6138 18.498 28.6138 18.4404 28.7866 18.4404C29.1898 18.4404 29.5354 18.4404 29.9386 18.4404C30.0538 18.4404 30.1114 18.4404 30.0538 18.5556C29.9962 18.7284 29.9386 18.9588 29.9386 19.1316C30.0538 19.074 30.1114 19.0164 30.169 18.9588C30.745 18.5556 31.3786 18.4404 32.0698 18.3828C32.7034 18.3828 33.337 18.3828 33.9706 18.3828C34.0282 18.3828 34.0858 18.3828 34.1434 18.3828C33.9706 19.074 33.7978 19.7652 33.625 20.514C33.5674 20.8596 33.4522 21.2052 33.337 21.5508C33.1066 22.242 32.7034 22.53 31.9546 22.53C31.1482 22.53 30.2842 22.53 29.4778 22.53C29.4202 22.53 29.3626 22.53 29.305 22.53C29.1898 22.53 29.1898 22.53 29.1898 22.6452C29.1322 22.818 29.1322 22.9908 29.0746 23.1636C28.9594 23.7396 28.7866 24.3156 28.6714 24.8916C28.6714 25.0068 28.6714 25.0644 28.7866 25.122C28.8442 25.1796 28.9594 25.1796 29.017 25.1796C29.305 25.122 29.593 25.122 29.9386 25.0644C29.881 25.3524 29.8234 25.5828 29.7658 25.8132C29.7082 25.9284 29.7658 26.1012 29.6506 26.2164C29.5354 26.274 29.3626 26.2164 29.2474 26.2164C28.8442 26.3316 28.5562 26.3316 28.3258 26.3316ZM29.5354 21.2052C29.4202 21.2052 29.4202 21.2052 29.4202 21.3204C29.4202 21.378 29.4202 21.4932 29.3626 21.5508C29.305 21.666 29.3626 21.7236 29.4778 21.666C30.1114 21.666 30.745 21.666 31.3786 21.666C31.7242 21.666 31.7242 21.666 31.8394 21.3204C31.8394 21.2628 31.8394 21.2052 31.7818 21.2052C30.9754 21.2052 30.2266 21.2052 29.5354 21.2052ZM29.7082 20.6292C29.7082 20.6292 29.7658 20.6292 29.7658 20.5716C30.169 20.3412 30.6298 20.1684 31.1482 20.1684C31.4362 20.1684 31.7242 20.1684 32.0122 20.1684C32.0698 20.1684 32.1274 20.1684 32.1274 20.0532C32.1274 19.938 32.185 19.8228 32.185 19.65C32.185 19.5924 32.185 19.5348 32.1274 19.5348C31.3786 19.5348 30.6298 19.5348 29.881 19.5348C29.8234 19.5348 29.7658 19.5348 29.7658 19.65C29.7082 19.938 29.6506 20.226 29.5354 20.514C29.5354 20.5716 29.5354 20.6292 29.4778 20.6868C29.593 20.6868 29.6506 20.6292 29.7082 20.6292Z" fill="white"/>
<path d="M46.7577 14.1205C46.8153 14.0629 46.8153 13.9477 46.8729 13.8901C47.1609 13.3141 47.5065 12.7957 47.7369 12.1621C47.7369 12.1045 47.7945 12.0469 47.8521 12.0469C48.3705 11.9893 48.8889 11.8741 49.4649 11.7589C49.5225 11.7589 49.5225 11.7589 49.5801 11.7589C49.6377 11.8165 49.5801 11.8741 49.5801 11.8741C49.0041 12.8533 48.4281 13.8325 47.9097 14.8117C47.0457 16.3669 46.1241 17.9221 45.2601 19.4773C44.9721 19.9957 44.5689 20.2261 43.9929 20.2261C43.7049 20.2261 43.4169 20.2261 43.1289 20.2261C43.0713 20.2261 43.0137 20.2261 43.0713 20.1109C43.1289 19.8229 43.1865 19.5349 43.2441 19.2469C43.2441 19.1893 43.3017 19.1893 43.3593 19.1893C43.9353 19.1893 43.8201 19.1317 44.1081 18.7285C44.5689 18.0373 44.9721 17.2309 45.4329 16.4821C45.4905 16.4245 45.4905 16.3669 45.4905 16.3093C45.4329 15.3877 45.2601 14.4661 45.1449 13.5445C45.0873 13.0837 45.0297 12.5653 44.9145 12.1045C44.9145 11.9893 44.9145 11.9317 45.0873 11.9317C45.6057 11.8741 46.0665 11.7589 46.5849 11.6437C46.7577 11.5861 46.7577 11.6437 46.7577 11.8165C46.7001 12.6229 46.7001 13.3717 46.7577 14.1205Z" fill="white"/>
<path d="M41.2858 16.2517C41.2282 16.2517 41.2282 16.2517 41.2858 16.2517C40.7098 16.7125 40.1338 16.7125 39.5578 16.4821C39.097 16.3093 38.809 15.9637 38.7514 15.4453C38.6938 15.1573 38.7514 14.8117 38.809 14.5237C38.9242 13.8901 39.097 13.3141 39.5578 12.7957C40.0186 12.2773 40.537 11.9317 41.2282 11.8741C41.6314 11.8165 41.8618 11.9893 42.0922 12.2773L42.1498 12.3349C42.1498 12.1621 42.2074 12.1045 42.3802 12.1045C42.8986 12.0469 43.417 11.9317 43.9354 11.8741C44.1082 11.8165 44.1082 11.8741 44.0506 12.0469C43.7626 13.1413 43.5322 14.2933 43.3018 15.3877C43.2442 15.7333 43.1866 16.0213 43.129 16.3669C43.129 16.4821 43.0714 16.5397 42.9562 16.5397C42.4378 16.5397 41.9194 16.5397 41.401 16.5397C41.2282 16.5397 41.2282 16.5397 41.2282 16.3669C41.2858 16.3093 41.2858 16.2517 41.2858 16.2517ZM41.9194 13.6597C41.9194 13.6021 41.9194 13.4869 41.8618 13.3717C41.8042 13.1989 41.7466 13.0261 41.5738 12.9685C41.3434 12.9109 41.1706 12.9685 41.0554 13.1413C40.9402 13.2565 40.8826 13.4293 40.7674 13.5445C40.6522 13.8901 40.537 14.2357 40.4794 14.5813C40.4218 14.8117 40.4218 14.9845 40.4218 15.2149C40.4218 15.4453 40.5946 15.6181 40.825 15.6181C41.1706 15.5605 41.401 15.4453 41.5738 15.0997C41.6314 14.9269 41.689 14.8117 41.689 14.6389C41.8042 14.2933 41.8618 14.0053 41.9194 13.6597Z" fill="white"/>
<path d="M29.7082 12.2197C29.9962 12.1045 30.2266 11.9317 30.5146 11.8741C30.9178 11.7589 31.321 11.7589 31.6666 11.8741C32.0122 12.1045 32.1274 12.4501 32.1274 12.8533C32.0698 13.4293 31.897 13.9477 31.7818 14.4661C31.6666 15.0421 31.5514 15.6757 31.4362 16.2517C31.3786 16.4245 31.3786 16.4821 31.2058 16.4821C31.033 16.4821 30.8602 16.4821 30.6298 16.4821C30.3418 16.4821 30.1114 16.4821 29.8234 16.4821C29.6506 16.4821 29.6506 16.4821 29.6506 16.3093C29.8234 15.5029 30.0538 14.6965 30.169 13.8325C30.169 13.6597 30.2266 13.5445 30.2266 13.3717C30.2266 13.1989 30.1114 13.0837 29.9386 13.0837C29.7658 13.0837 29.593 13.1413 29.4202 13.1989C29.3626 13.1989 29.3626 13.2565 29.3626 13.3141C29.1322 14.2933 28.9594 15.2725 28.729 16.2517C28.729 16.3669 28.6714 16.4245 28.4986 16.4245C27.9802 16.4245 27.5194 16.4245 27.001 16.4245C26.8858 16.4245 26.8282 16.4245 26.8858 16.2517C27.0586 15.4453 27.289 14.5813 27.4618 13.7749C27.577 13.1989 27.6922 12.6805 27.7498 12.1045C27.7498 11.9893 27.8074 11.9893 27.9226 11.9317C28.441 11.8741 28.9594 11.7589 29.4778 11.6437C29.6506 11.5861 29.7082 11.6437 29.6506 11.8165C29.7082 11.9893 29.7082 12.1045 29.7082 12.2197C29.6506 12.2197 29.6506 12.2197 29.7082 12.2197C29.6506 12.2197 29.6506 12.2197 29.7082 12.2197Z" fill="white"/>
<path d="M31.2634 26.331C30.9754 26.331 30.6874 26.331 30.3418 26.2734C29.9962 26.2158 29.881 26.1006 29.8234 25.6974C29.7658 24.7758 29.7658 23.9118 29.7082 22.9902C29.7082 22.875 29.7082 22.875 29.8234 22.875C30.2266 22.875 30.5722 22.875 30.9754 22.875C31.0906 22.875 31.1482 22.9326 31.0906 23.0478C31.0906 23.163 31.0906 23.2782 31.0906 23.3934C31.0906 23.451 31.1482 23.5086 31.2058 23.5086C31.321 23.5086 31.4362 23.5086 31.4938 23.5086C31.6666 23.5086 31.7242 23.451 31.7818 23.2782C31.897 23.163 31.897 23.0478 31.897 22.9326C31.897 22.875 31.9546 22.8174 32.0122 22.8174C32.3002 22.8174 32.6458 22.8174 32.9338 22.8174C32.9914 22.8174 33.049 22.8174 33.049 22.875C32.9914 23.1054 32.9914 23.3934 32.9338 23.6238C32.8186 23.9694 32.5306 24.1998 32.0698 24.1998C31.7818 24.1998 31.5514 24.1998 31.2634 24.1998C31.1482 24.1998 31.1482 24.1998 31.1482 24.315C31.1482 24.5454 31.1482 24.7758 31.2058 25.0062C31.2058 25.179 31.321 25.2366 31.4938 25.2366C31.7818 25.2366 32.0698 25.2366 32.3578 25.179C32.473 25.179 32.473 25.179 32.473 25.2942C32.4154 25.5822 32.3578 25.8702 32.3002 26.1582C32.3002 26.2734 32.2426 26.2734 32.185 26.2734C31.7818 26.331 31.5514 26.331 31.2634 26.331Z" fill="white"/>
<path d="M41.4586 18.498C41.689 18.498 41.9194 18.498 42.1498 18.498C42.265 18.498 42.265 18.498 42.265 18.6132C42.265 18.786 42.265 18.9012 42.265 19.074C42.265 19.1892 42.3226 19.2468 42.4378 19.2468C42.553 19.2468 42.6106 19.2468 42.7258 19.2468C42.7834 19.2468 42.841 19.2468 42.7834 19.3044C42.7258 19.5924 42.6682 19.8804 42.553 20.1684C42.553 20.226 42.553 20.226 42.4954 20.226C42.0922 20.226 41.6314 20.2836 41.2282 20.226C40.825 20.1684 40.6522 19.938 40.5946 19.5348C40.5946 19.1892 40.5946 18.9012 40.537 18.5556C40.537 18.4404 40.537 18.4404 40.6522 18.4404C40.9978 18.498 41.2282 18.498 41.4586 18.498Z" fill="white"/>
<path d="M28.6137 25.1799C28.4985 25.1223 28.4985 25.0647 28.4985 24.9495C28.6137 24.3735 28.7865 23.7975 28.9017 23.2215C28.9593 23.0487 28.9593 22.8759 29.0169 22.7031C29.0169 22.6455 29.0745 22.5879 29.1321 22.5879C29.0745 22.9335 28.9593 23.2791 28.9017 23.6247C28.8441 24.2007 28.7289 24.6615 28.6137 25.1799Z" fill="#0F3F75"/>
<path d="M16.4602 12.2197C16.6906 12.1045 16.8634 11.9893 17.0938 11.8741C17.4394 11.7589 17.785 11.7013 18.1306 11.7589C18.5914 11.8165 18.8794 12.1621 18.937 12.6229C18.937 13.0261 18.8218 13.3717 18.7642 13.7749C18.5914 14.6389 18.361 15.4453 18.2458 16.3093C18.2458 16.4245 18.1882 16.4821 18.073 16.4821C17.5546 16.4821 17.0938 16.4821 16.5754 16.4821C16.4602 16.4821 16.4602 16.4245 16.4602 16.3669C16.633 15.6757 16.8058 14.9269 16.921 14.2357C16.9786 14.0053 17.0362 13.7173 17.0362 13.4869C17.0362 13.2565 16.9786 13.1989 16.8058 13.1413C16.5754 13.0837 16.4026 13.1989 16.2298 13.2565C16.1722 13.2565 16.1722 13.3141 16.1722 13.3717C15.9418 14.3509 15.769 15.2725 15.5386 16.2517C15.481 16.4821 15.481 16.4821 15.3082 16.4821C14.8474 16.4821 14.3866 16.4821 13.9258 16.4821C13.753 16.4821 13.753 16.4821 13.8106 16.3093C13.9834 15.5029 14.2138 14.6965 14.3866 13.8901C14.5018 13.3141 14.617 12.7381 14.6746 12.1621C14.6746 12.0469 14.7322 11.9893 14.8474 11.9893C15.3658 11.9317 15.8842 11.8165 16.4602 11.7013C16.633 11.6437 16.633 11.7013 16.633 11.8741C16.5178 11.9893 16.5178 12.1045 16.4602 12.2197Z" fill="white"/>
<path d="M24.0058 16.5399C23.7178 16.5399 23.4874 16.5399 23.257 16.4823C22.5082 16.3095 22.105 15.9063 22.105 15.0999C22.105 14.2359 22.3354 13.4295 22.8538 12.7383C23.3146 12.1623 23.9482 11.8743 24.697 11.8167C25.1578 11.7591 25.561 11.7591 25.9642 11.9319C26.5978 12.1623 26.9434 12.6231 26.9434 13.2567C26.9434 14.0055 26.7706 14.6391 26.425 15.2727C26.0218 15.9639 25.3882 16.3671 24.5818 16.4823C24.3514 16.5399 24.1786 16.5399 24.0058 16.5399ZM25.1578 13.4295C25.1578 13.3143 25.1578 13.2567 25.1578 13.1991C25.1002 12.9687 24.985 12.8535 24.7546 12.8535C24.5818 12.8535 24.4666 12.9111 24.409 13.0263C24.2938 13.1415 24.2362 13.2567 24.1786 13.4295C24.0058 13.7751 23.9482 14.1783 23.8906 14.5239C23.833 14.7543 23.833 14.9271 23.833 15.1575C23.8906 15.5031 24.1786 15.6183 24.4666 15.4455C24.6394 15.3303 24.7546 15.2151 24.8122 15.0423C25.0426 14.5239 25.1578 13.9479 25.1578 13.4295Z" fill="white"/>
<path d="M26.3098 25.1793C26.1946 25.5249 26.137 25.8705 26.0794 26.2161C26.0794 26.2737 26.0218 26.2737 25.9642 26.2737C25.3306 26.2737 24.6394 26.2737 24.0058 26.2737C23.7178 26.2737 23.4874 26.2161 23.3146 25.9281C23.1994 25.8129 23.1994 25.6401 23.257 25.5249C23.3722 24.9489 23.545 24.3729 23.6602 23.8545C23.6602 23.7969 23.6602 23.7393 23.6026 23.7393C23.3722 23.7393 23.0842 23.7393 22.8538 23.7393C22.7962 23.7393 22.7386 23.7393 22.7386 23.6241C22.7962 23.3361 22.8538 23.0481 22.969 22.7601C22.969 22.7025 23.0266 22.6449 23.0842 22.6449C23.3146 22.6449 23.6026 22.6449 23.833 22.6449C23.8906 22.6449 23.9482 22.6449 23.9482 22.5297C24.0058 22.2993 24.0634 22.0689 24.121 21.8385C24.121 21.7233 24.121 21.7233 24.0634 21.7233C23.833 21.7233 23.545 21.7233 23.3146 21.7233C23.257 21.7233 23.1994 21.7233 23.1994 21.6081C23.257 21.3201 23.3146 21.0897 23.3722 20.8017C23.3722 20.6865 23.4298 20.6865 23.545 20.6865C24.5818 20.6865 25.6186 20.6865 26.6554 20.6865C26.9434 20.6865 27.2314 20.6865 27.5194 20.6865C27.6346 20.6865 27.6346 20.7441 27.6346 20.8017C27.577 21.0321 27.5194 21.3201 27.4618 21.5505C27.4618 21.6657 27.4042 21.6657 27.289 21.6657C26.8282 21.6657 26.3098 21.6657 25.849 21.6657C25.7338 21.6657 25.7338 21.6657 25.6762 21.7809C25.6186 22.0113 25.561 22.1841 25.5034 22.4145C25.5034 22.5297 25.5034 22.5297 25.6186 22.5297C26.0794 22.5297 26.5978 22.5297 27.0586 22.5297C27.1738 22.5297 27.1738 22.5297 27.1738 22.6449C27.1162 22.9329 27.0586 23.1633 27.001 23.4513C27.001 23.5665 26.9434 23.5665 26.8282 23.5665C26.3098 23.5665 25.849 23.5665 25.3306 23.5665C25.2154 23.5665 25.2154 23.6241 25.1578 23.6817C25.0426 24.0849 24.985 24.4881 24.8698 24.8337C24.8122 25.0065 24.8698 25.0065 24.985 25.0641C25.273 25.1217 25.561 25.1217 25.849 25.0641C26.0218 25.2369 26.137 25.2369 26.3098 25.1793Z" fill="white"/>
<path d="M19.9737 16.4814C19.6857 16.4814 19.4553 16.4814 19.1673 16.4814C19.0521 16.4814 18.9945 16.4238 19.0521 16.3086C19.1673 15.9054 19.3401 15.5022 19.4553 15.0414C19.5705 14.4078 19.7433 13.7742 19.8009 13.1406C19.8009 13.0254 19.8585 13.0254 19.9737 12.9678C20.5497 12.9102 21.0681 12.795 21.6441 12.6798C21.8169 12.6222 21.8169 12.6798 21.7593 12.8526C21.5289 13.8318 21.2985 14.7534 21.0681 15.7326C21.0105 15.963 20.9529 16.1358 20.9529 16.3086C20.9529 16.4238 20.8953 16.4814 20.7801 16.4814C20.4921 16.4238 20.2041 16.4238 19.9737 16.4814Z" fill="white"/>
<path d="M26.3674 18.498C26.2522 18.6708 26.1946 18.8436 26.0794 19.074C26.3098 19.074 26.5402 19.074 26.7706 19.074C27.0586 19.074 27.3466 19.074 27.6922 19.074C27.8074 19.074 27.8074 19.074 27.8074 19.1892C27.7498 19.4772 27.6922 19.7076 27.6346 19.9956C27.6346 20.1108 27.577 20.1108 27.4618 20.1108C26.7706 20.1108 26.0794 20.1108 25.3306 20.1108C25.2154 20.1108 25.1578 20.1108 25.1002 20.1684C24.7546 20.4564 24.3514 20.6292 23.9482 20.6292C23.7178 20.6292 23.4874 20.6292 23.257 20.6292C23.1994 20.6292 23.1418 20.6292 23.1994 20.514C23.257 20.226 23.3146 19.9956 23.3722 19.7076C23.3722 19.65 23.4298 19.5924 23.4874 19.5924C23.545 19.5924 23.6026 19.5924 23.6602 19.5924C23.9482 19.5924 24.121 19.4772 24.2362 19.2468C24.3514 19.0164 24.4666 18.786 24.5818 18.498C24.5818 18.4404 24.6394 18.3828 24.697 18.3828C25.2154 18.498 25.7914 18.498 26.3674 18.498Z" fill="white"/>
<path d="M21.1834 11.2979C21.3562 11.2979 21.529 11.2979 21.6442 11.3555C21.9898 11.5283 22.0474 11.8163 21.8746 12.1043C21.6442 12.3923 21.3562 12.5075 21.0106 12.5651C20.7802 12.6227 20.5498 12.6227 20.2618 12.5651C19.801 12.3923 19.7434 12.0467 20.0314 11.7011C20.377 11.4131 20.7226 11.2979 21.1834 11.2979Z" fill="white"/>
<path d="M10.2394 8.53319C10.1818 8.82119 10.0666 9.10919 10.009 9.39719C9.72095 10.5492 9.37535 11.7588 9.08735 12.9108C8.97215 13.314 8.91455 13.7172 8.91455 14.1204C8.91455 14.8116 9.26015 15.2148 10.0666 15.1572C10.6426 15.0996 11.1034 14.754 11.3338 14.2356C11.5642 13.7748 11.6218 13.314 11.737 12.7956C12.025 11.4132 12.3706 10.0308 12.6586 8.59079C12.6586 8.53319 12.7162 8.47559 12.7738 8.47559C13.3498 8.53319 13.8682 8.47559 14.4442 8.47559C14.5594 8.47559 14.5594 8.47559 14.5594 8.59079C14.0986 10.2036 13.6954 11.874 13.2922 13.4868C13.177 13.8324 13.0618 14.2356 12.9466 14.5812C12.601 15.33 12.0826 15.8484 11.2762 16.1364C10.1818 16.5396 9.02975 16.5972 7.93535 16.2516C7.82015 16.194 7.64735 16.1364 7.53215 16.0788C6.89855 15.7332 6.66815 15.1572 6.72575 14.466C6.89855 13.1412 7.24415 11.874 7.53215 10.5492C7.64735 9.91559 7.82015 9.22439 7.99295 8.59079C7.99295 8.53319 7.99295 8.47559 8.10815 8.47559C8.79935 8.53319 9.43295 8.47559 10.1242 8.47559C10.1242 8.53319 10.1818 8.53319 10.2394 8.53319Z" fill="white"/>
<path d="M37.2538 23.6816C37.1386 24.0848 37.081 24.4304 37.0234 24.776C37.0234 24.8336 36.9658 24.8912 36.9082 24.8912C36.5626 24.8912 36.217 24.8912 35.8714 24.8912C35.8138 24.8912 35.7562 24.8912 35.8138 24.776C35.8714 24.4304 35.9866 24.0848 36.0442 23.7392C36.0442 23.6816 36.0442 23.6816 36.1018 23.6816C36.505 23.6816 36.8506 23.6816 37.2538 23.6816Z" fill="#00737F"/>
<path d="M36.217 22.9908C36.2746 22.818 36.2746 22.7028 36.3322 22.53C36.3898 22.242 36.4474 21.954 36.5626 21.666C36.5626 21.6084 36.5626 21.5508 36.6778 21.5508C37.081 21.5508 37.4266 21.5508 37.8298 21.5508C37.7722 21.8388 37.657 22.1844 37.5994 22.4724C37.5994 22.53 37.5418 22.53 37.5418 22.53C37.0234 22.6452 36.6202 22.7604 36.217 22.9908Z" fill="#00737F"/>
<path d="M36.6778 20.9176C36.7354 20.572 36.793 20.284 36.9082 19.996C36.9082 19.8808 36.9658 19.7656 36.9658 19.6504C36.9658 19.5928 37.0234 19.5352 37.081 19.5352C37.4266 19.5352 37.7722 19.5352 38.1754 19.5352C38.233 19.5352 38.2906 19.5352 38.233 19.6504C38.1754 19.9384 38.1178 20.2264 38.0602 20.4568C38.0602 20.5144 38.0026 20.5144 37.945 20.5144C37.5418 20.5144 37.1386 20.6872 36.7354 20.86C36.7354 20.9176 36.7354 20.9176 36.6778 20.9176Z" fill="#00737F"/>
<path d="M35.8138 12.3927C35.6986 12.3927 35.5834 12.3927 35.4682 12.3927C35.353 12.3927 35.353 12.3927 35.353 12.2775C35.4682 11.8743 35.5258 11.5287 35.641 11.1255C35.7562 10.6647 35.8714 10.2039 35.929 9.74315C35.929 9.68555 35.929 9.68555 35.9866 9.68555C36.4474 9.74315 36.8506 9.74315 37.3114 9.80075C37.5994 9.85835 37.8298 10.2039 37.8298 10.4919C37.8874 11.3559 37.2538 12.1623 36.3898 12.2775C36.217 12.3351 36.0442 12.3351 35.8138 12.3927Z" fill="#00737F"/>
<path d="M29.881 19.5918C30.6298 19.5918 31.3786 19.5918 32.1274 19.5918C32.185 19.5918 32.185 19.6494 32.185 19.707C32.1274 19.8222 32.1274 19.9374 32.1274 20.1102C32.1274 20.1678 32.0698 20.2254 32.0122 20.2254C31.7242 20.2254 31.4362 20.2254 31.1482 20.2254C30.6298 20.2254 30.2266 20.3406 29.7658 20.6286L29.7082 20.6862C29.7082 20.6286 29.7082 20.571 29.7082 20.5134C29.7658 20.1678 29.8234 19.8798 29.881 19.5918Z" fill="#00737F"/>
<path d="M29.5354 21.2051C30.2842 21.2051 30.9754 21.2051 31.7242 21.2051C31.7818 21.2051 31.7818 21.2627 31.7818 21.3203C31.6666 21.6659 31.6666 21.6659 31.321 21.6659C30.6874 21.6659 30.0538 21.6659 29.4202 21.6659C29.4778 21.5507 29.4778 21.3779 29.5354 21.2051Z" fill="#00737F"/>
<path d="M29.8809 19.5918C29.8233 19.8798 29.7657 20.1678 29.7081 20.4558C29.7081 20.5134 29.7081 20.571 29.7081 20.6286C29.6505 20.6862 29.5929 20.6862 29.5353 20.7438C29.5353 20.6862 29.5353 20.6286 29.5929 20.571C29.6505 20.283 29.7657 19.995 29.8233 19.707C29.7657 19.5918 29.8233 19.5918 29.8809 19.5918Z" fill="#0F3F75"/>
<path d="M29.5354 21.2051C29.5354 21.3779 29.4778 21.4931 29.4778 21.6659C29.3626 21.7235 29.305 21.6659 29.3626 21.5507C29.3626 21.4931 29.4202 21.3779 29.4202 21.3203C29.3626 21.2051 29.4202 21.2051 29.5354 21.2051Z" fill="#0F3F75"/>
<path d="M41.9194 13.6591C41.9194 14.0047 41.8042 14.2927 41.689 14.6383C41.6314 14.8111 41.6314 14.9263 41.5738 15.0991C41.4586 15.3871 41.1706 15.5599 40.825 15.6175C40.5946 15.6175 40.4218 15.5023 40.4218 15.2143C40.4218 14.9839 40.4218 14.8111 40.4794 14.5807C40.537 14.2351 40.6522 13.8895 40.7674 13.5439C40.825 13.3711 40.8826 13.2559 41.0554 13.1407C41.2282 12.9679 41.401 12.9103 41.5738 12.9679C41.8042 13.0255 41.8618 13.1983 41.8618 13.3711C41.8618 13.4863 41.9194 13.5439 41.9194 13.6591Z" fill="#00737F"/>
<path d="M25.1578 13.4295C25.1002 13.9479 24.985 14.5239 24.7546 15.0423C24.697 15.2151 24.5818 15.3303 24.409 15.4455C24.121 15.6183 23.833 15.5031 23.7754 15.1575C23.7178 14.9271 23.7754 14.7543 23.833 14.5239C23.8906 14.1207 24.0058 13.7751 24.121 13.4295C24.1786 13.3143 24.2362 13.1415 24.3514 13.0263C24.4666 12.9111 24.5818 12.8535 24.697 12.8535C24.9274 12.8535 25.0426 12.9687 25.1002 13.1991C25.1578 13.2567 25.1578 13.3143 25.1578 13.4295Z" fill="#0F3F75"/>
</svg>
