<svg width="52" height="17" viewBox="0 0 52 17" fill="none" xmlns="http://www.w3.org/2000/svg">
<path d="M22.3921 16.4884H18.1873L20.8369 0.59082H24.9841L22.3921 16.4884Z" fill="#0066B2"/>
<path d="M14.7312 0.59082L10.872 11.5348L10.296 9.17322L8.62563 2.20362C8.62563 2.20362 8.51043 0.76362 6.66723 0.76362H5.97603H4.19043L8.28003 16.546H12.6L19.1088 0.648419C19.1664 0.590819 14.7312 0.59082 14.7312 0.59082Z" fill="#0066B2"/>
<path d="M47.3329 16.4884H51.0769L47.7937 0.59082H44.4529C42.8977 0.59082 42.5521 1.80042 42.5521 1.80042L36.3889 16.546H40.7089L41.5729 14.1844H46.8721L47.3329 16.4884ZM42.6673 10.9012L44.7985 4.96842L46.0081 10.9012H42.6673Z" fill="#0066B2"/>
<path d="M36.7344 4.44993L37.368 0.993933C37.368 0.993933 35.5248 0.302734 33.6816 0.302734C31.6656 0.302734 26.712 1.16673 26.712 5.60193C26.712 9.74913 32.4144 9.80674 32.4144 11.8803C32.4144 14.0115 27.288 13.6659 25.56 12.2835L24.984 15.8547C24.984 15.8547 26.8272 16.7187 29.6496 16.7187C32.472 16.7187 36.7344 15.2211 36.7344 11.2467C36.7344 7.09954 30.9744 6.75393 30.9744 4.96833C30.8592 3.24033 34.9488 3.41313 36.7344 4.44993Z" fill="#0066B2"/>
<path d="M10.296 9.23084L8.85601 2.08844C8.85601 2.08844 8.74081 0.648438 6.89761 0.648438H0.504011L0.446411 0.878838C0.446411 0.878838 3.49921 1.57004 6.60961 3.93164C9.43201 6.35084 10.296 9.23084 10.296 9.23084Z" fill="#0066B2"/>
</svg>
