<svg width="46" height="36" viewBox="0 0 46 36" fill="none" xmlns="http://www.w3.org/2000/svg">
<path d="M42.2716 26.055C38.8238 25.0076 31.579 22.6508 31.579 22.6508C32.4082 21.4288 35.376 17.3264 35.8997 11.8273H25.2944V8.20493H38.3001V6.02277H25.2944V0C25.2944 0 21.8902 0 20.3627 0C19.6208 0 19.2716 0.392789 19.2716 1.13472C19.2716 2.66224 19.2716 5.97913 19.2716 5.97913L7.05151 6.02277V8.20493H19.2716V11.871H9.27731V13.8786H29.4841C29.4841 15.4497 28.0876 18.8539 26.56 21.036C26.5164 21.0797 25.7308 20.7305 25.6435 20.7305C20.1445 18.6793 14.0344 16.8899 8.09895 18.2429C3.38547 19.334 0.155873 22.6945 0.461376 27.7135C0.766879 32.7761 5.61128 35.3074 10.1502 35.8748C15.431 36.5294 20.5373 34.5655 24.5525 31.2049C24.858 30.9431 28.3931 27.1897 28.4367 27.1897C28.4367 27.1897 37.5581 31.2922 42.708 33.5617C44.061 31.5977 45.1521 29.4592 45.894 27.1461C44.7156 26.797 43.4936 26.4478 42.2716 26.055ZM22.7631 26.5787C20.5373 29.0664 17.875 31.2049 14.6018 32.1214C11.5468 32.9943 7.88073 32.9943 5.17485 31.1613C3.12361 29.7647 2.11982 27.0152 3.16726 24.7021C4.47656 21.8216 7.92437 21.1233 10.7612 21.2543C15.3001 21.4725 20.0136 22.8691 24.0287 25.0076C24.0287 25.0076 22.8504 26.4478 22.7631 26.5787Z" fill="#0AA0E7"/>
</svg>
