<svg width="45" height="28" viewBox="0 0 45 28" fill="none" xmlns="http://www.w3.org/2000/svg">
<path d="M17.1616 14.1727C17.1616 9.91032 19.1776 6.05112 22.288 3.57432C19.984 1.73112 17.0464 0.636719 13.8784 0.636719C6.44803 0.636719 0.400024 6.68472 0.400024 14.1727C0.400024 21.6031 6.44803 27.6511 13.8784 27.6511C17.0464 27.6511 19.984 26.5567 22.288 24.7135C19.1776 22.2367 17.1616 18.4351 17.1616 14.1727Z" fill="#EC041C"/>
<path d="M30.6976 0.636719C27.5296 0.636719 24.592 1.73112 22.288 3.57432C25.3984 6.05112 27.4144 9.85272 27.4144 14.1727C27.4144 18.4351 25.3984 22.2943 22.288 24.7711C24.592 26.6143 27.5296 27.7087 30.6976 27.7087C38.128 27.7087 44.176 21.6607 44.176 14.2303C44.176 6.68472 38.128 0.636719 30.6976 0.636719Z" fill="#F79F1A"/>
<path d="M22.288 24.771C25.1193 24.771 27.4144 20.026 27.4144 14.1726C27.4144 8.31928 25.1193 3.57422 22.288 3.57422C19.4568 3.57422 17.1616 8.31928 17.1616 14.1726C17.1616 20.026 19.4568 24.771 22.288 24.771Z" fill="#FE5F04"/>
</svg>
