<svg width="36" height="42" viewBox="0 0 36 42" fill="none" xmlns="http://www.w3.org/2000/svg">
<path fill-rule="evenodd" clip-rule="evenodd" d="M19.7856 13.2237L35.856 22.5549V29.5245L19.7856 20.1933C19.2672 19.8477 18.6336 19.7325 18 19.7325C17.3664 19.7325 16.7328 19.9053 16.2144 20.1933L0.201599 29.5245V22.5549L16.2144 13.2237C16.7328 12.8781 17.3664 12.7629 18 12.7629C18.6336 12.7053 19.2672 12.8781 19.7856 13.2237ZM2.7936 33.4413L16.0992 25.7229C16.6752 25.3773 17.3088 25.2045 18 25.2045C18.6912 25.2045 19.3248 25.3773 19.9008 25.7229L33.2064 33.4413L19.9008 41.1597C19.3248 41.5053 18.6912 41.6781 18 41.6781C17.3088 41.6781 16.6752 41.5053 16.0992 41.1597L2.7936 33.4413ZM19.7856 0.782089L35.856 10.1133V17.0829L19.7856 7.75169C19.2672 7.40609 18.6336 7.29089 18 7.29089C17.3664 7.29089 16.7328 7.46369 16.2144 7.75169L0.201599 17.0829V10.1133L16.272 0.782089C16.7904 0.494089 17.424 0.321289 18.0576 0.321289C18.6912 0.321289 19.2096 0.494089 19.7856 0.782089Z" fill="#0099FF"/>
</svg>
