<svg width="32" height="41" viewBox="0 0 32 41" fill="none" xmlns="http://www.w3.org/2000/svg">
<path d="M31.8976 27.854C31.8976 34.3628 26.7136 40.8716 15.0784 40.8716C9.66401 40.8716 5.11361 40.3532 1.02401 39.2588V29.8124C3.73121 30.9068 8.22401 32.1164 12.832 32.1164C17.0368 32.1164 19.5712 30.734 19.5712 28.3724C19.5712 25.4924 16.5184 25.3196 15.3664 25.262C1.77281 24.3404 0.275208 16.2764 0.275208 12.878C0.275208 6.9452 4.48001 0.0332031 16.4032 0.0332031C23.3152 0.0332031 27.0016 1.1276 30.2272 2.222L30.4 2.2796V11.3228V11.438L30.2848 11.3804C29.0176 10.8044 27.4624 10.286 27.4624 10.286C24.6976 9.4796 20.896 8.6156 17.9584 8.6156C16.288 8.6156 11.8528 8.6156 11.8528 11.9564C11.8528 14.7212 14.9632 14.9516 16.288 15.0092C26.0224 15.7004 31.8976 20.4812 31.8976 27.854Z" fill="url(#paint0_linear_0_643)"/>
<defs>
<linearGradient id="paint0_linear_0_643" x1="22.9998" y1="0.499634" x2="12.4998" y2="43.4996" gradientUnits="userSpaceOnUse">
<stop stop-color="#821E69"/>
<stop offset="1" stop-color="#4F2556"/>
</linearGradient>
</defs>
</svg>
