<svg width="38" height="44" viewBox="0 0 38 44" fill="none" xmlns="http://www.w3.org/2000/svg">
<path d="M19.9792 1.20597C19.6336 0.975569 19.3456 0.917969 19 0.917969C18.712 0.917969 18.3664 1.03317 18.0208 1.20597C12.5488 4.37397 7.1344 7.54197 1.6048 10.71C4.5424 12.4956 7.48 14.166 10.2448 15.8364C13.0096 14.2812 15.7168 12.6684 18.424 11.1132C18.5968 10.998 18.7696 10.9404 18.8848 10.9404C19.0576 10.9404 19.1728 10.998 19.3456 11.1132C22.1104 12.726 24.8752 14.3388 27.5824 15.894L36.2224 10.7676C30.9232 7.59957 25.3936 4.43157 19.9792 1.20597Z" fill="#09B2E6"/>
<path d="M9.72638 28.1632C9.55358 28.048 9.43838 27.9904 9.38078 27.8752L9.32318 27.9328L9.38078 27.8752C9.26558 27.7024 9.20798 27.472 9.20798 27.2416C9.26558 25.5712 9.26558 23.8432 9.26558 22.1728C9.26558 20.6176 9.26558 19.0624 9.26558 17.5072C6.38558 15.8368 3.44798 14.1088 0.510376 12.3232C0.510376 12.4384 0.510376 12.496 0.510376 12.6112C0.567976 19.0048 0.567976 25.3408 0.510376 31.7344C0.510376 32.2528 0.625576 32.5984 0.855976 32.944H0.913576H0.855976C1.02878 33.1744 1.25918 33.3472 1.54718 33.52C7.07678 36.688 12.6064 39.9136 18.136 43.0816V32.944C15.256 31.3312 12.4912 29.7184 9.72638 28.1632Z" fill="#0D4F8B"/>
<path d="M16.6384 26.8955L26.1424 17.9675C26.0848 17.8523 25.9696 17.7947 25.8544 17.7371C23.6656 16.4699 21.5344 15.2603 19.3456 13.9931C19.2304 13.9355 19.0576 13.8779 18.9424 13.8779L16.6384 26.8955Z" fill="#1C91C9"/>
<path d="M19 22.1726L11.8576 17.9678C11.7424 18.083 11.7424 18.2558 11.7424 18.4286C11.7424 20.9054 11.7424 23.3822 11.7424 25.9166C11.7424 26.147 11.8 26.2622 11.8576 26.3774L19 22.1726Z" fill="#0D4F8B"/>
<path d="M19 13.8779C18.8848 13.8779 18.7696 13.9355 18.5968 13.9931C16.4656 15.2603 14.2768 16.5275 12.088 17.7371C11.9728 17.7947 11.8576 17.9099 11.8 17.9675L18.9424 22.1723V13.8779H19Z" fill="#09B2E6"/>
<path d="M11.8575 26.3777C11.9151 26.4929 12.0303 26.5505 12.1455 26.6081C14.3343 27.8753 16.4655 29.0849 18.6543 30.3521C18.7695 30.4673 18.9423 30.4673 19.0575 30.4673V22.1729L11.8575 26.3777Z" fill="#263D77"/>
<path d="M26.2576 22.1726C26.2576 20.9054 26.2576 19.6382 26.2576 18.4286C26.2576 18.1982 26.2 18.083 26.1424 17.9678L19 22.1726L26.1424 26.3774C26.2576 26.2622 26.2576 26.0894 26.2576 25.9166C26.2576 24.6494 26.2576 23.4398 26.2576 22.1726Z" fill="#0D4F8B"/>
<path d="M19 22.1729V30.4673C19.1152 30.4673 19.2304 30.4097 19.4032 30.3521C21.592 29.0849 23.7232 27.8177 25.912 26.6081C26.0272 26.5505 26.1424 26.4353 26.2 26.3777L19 22.1729Z" fill="#263D77"/>
<path d="M37.5472 12.3799L28.792 17.5639C28.792 20.7895 28.792 24.0727 28.792 27.2983C28.792 27.5863 28.7344 27.7591 28.6192 27.8743C28.5616 27.9895 28.4464 28.1047 28.2736 28.1623C25.5088 29.7751 22.744 31.3303 19.9792 32.9431V43.0807C25.5088 39.8551 30.9808 36.6295 36.568 33.5191C36.856 33.3463 37.0864 33.1735 37.2592 32.9431C37.4896 32.5975 37.6048 32.2519 37.6048 31.7335C37.5472 28.5655 37.6048 25.3975 37.6048 22.2295C37.6048 19.0039 37.6048 15.8359 37.6048 12.6103C37.5472 12.5527 37.5472 12.4375 37.5472 12.3799Z" fill="#263D77"/>
<path d="M37.5472 22.2295C37.5472 19.0039 37.5472 15.8359 37.5472 12.6103C37.5472 12.4951 37.5472 12.4375 37.5472 12.3799L28.792 17.5639C28.792 20.7895 28.792 24.0727 28.792 27.2983C28.792 27.5863 28.7344 27.7591 28.6192 27.8743L37.2016 32.9431C37.432 32.5975 37.5472 32.2519 37.5472 31.7335C37.5472 28.5655 37.5472 25.3975 37.5472 22.2295Z" fill="#0D4F8B"/>
<path d="M27.6976 15.8364L36.3376 10.71C30.8656 7.59957 25.336 4.37397 19.9216 1.20597C19.576 0.975569 19.288 0.917969 18.9424 0.917969V10.9404C19.1152 10.9404 19.2304 10.998 19.4032 11.1132C22.2256 12.726 24.9904 14.2812 27.6976 15.8364Z" fill="#1C91C9"/>
<path d="M1.432 33.4622C6.9616 36.6302 12.4912 39.8558 18.0208 43.0238V32.9438C15.256 31.331 12.4912 29.7182 9.7264 28.163C9.5536 28.0478 9.4384 27.9902 9.3808 27.875L0.798401 32.9438C0.913601 33.1166 1.144 33.2894 1.432 33.4622Z" fill="#263D77"/>
</svg>
