<svg width="36" height="36" viewBox="0 0 36 36" fill="none" xmlns="http://www.w3.org/2000/svg">
<path d="M35.5 18C35.5 27.665 27.665 35.5 18 35.5C8.33502 35.5 0.5 27.665 0.5 18C0.5 8.33502 8.33502 0.5 18 0.5C27.665 0.5 35.5 8.33502 35.5 18Z" stroke="white"/>
<path d="M14.0982 23.0473H11.1745V14.2545H14.0982V23.0473ZM12.6364 13.0545C11.6327 13.0545 11 12.3782 11 11.5273C11 10.6545 11.6545 10 12.6582 10C13.6618 10 14.2727 10.6545 14.2945 11.5273C14.2945 12.3782 13.64 13.0545 12.6364 13.0545ZM24.6364 23.0473H21.7127V18.3564C21.7127 17.1782 21.2982 16.3709 20.2291 16.3709C19.4218 16.3709 18.9418 16.9164 18.7236 17.44C18.6364 17.6364 18.6364 17.8982 18.6364 18.16V23.0691H15.7127C15.7127 23.0691 15.7564 15.1055 15.7127 14.2764H18.6364V15.52C19.0291 14.9309 19.7273 14.0582 21.2764 14.0582C23.1964 14.0582 24.6364 15.3236 24.6364 18.0073V23.0473Z" fill="white"/>
</svg>
