<svg width="36" height="36" viewBox="0 0 36 36" fill="none" xmlns="http://www.w3.org/2000/svg">
<path d="M35.5 18C35.5 27.665 27.665 35.5 18 35.5C8.33502 35.5 0.5 27.665 0.5 18C0.5 8.33502 8.33502 0.5 18 0.5C27.665 0.5 35.5 8.33502 35.5 18Z" stroke="white"/>
<path d="M17.9566 14.0947C15.7966 14.0947 14.0511 15.8402 14.0511 18.0002C14.0511 20.1602 15.7966 21.9056 17.9566 21.9056C20.1166 21.9056 21.8621 20.1602 21.8621 18.0002C21.8621 15.8402 20.1166 14.0947 17.9566 14.0947ZM17.9566 20.2475C16.713 20.2475 15.7093 19.2438 15.7093 18.0002C15.6875 16.7565 16.713 15.7529 17.9566 15.7529C19.2002 15.7529 20.2039 16.7565 20.2039 18.0002C20.2039 19.2438 19.2002 20.2475 17.9566 20.2475Z" fill="white"/>
<path d="M21.9711 13.0693C21.4692 13.0693 21.0547 13.4839 21.0547 13.9857C21.0547 14.4875 21.4692 14.9021 21.9711 14.9021C22.4729 14.9021 22.8874 14.4875 22.8874 13.9857C22.8874 13.4839 22.4729 13.0693 21.9711 13.0693Z" fill="white"/>
<path d="M21.7087 10.4072H14.1815C12.0651 10.4072 10.3633 12.1309 10.3633 14.2254V21.7527C10.3633 23.869 12.0869 25.5927 14.1815 25.5927H21.7087C23.8251 25.5927 25.5269 23.869 25.5269 21.7745V14.2254C25.5269 12.109 23.8033 10.4072 21.7087 10.4072ZM23.8687 21.7527C23.8687 22.9527 22.8869 23.9127 21.7087 23.9127H14.1815C12.9815 23.9127 12.0215 22.9309 12.0215 21.7527V14.2254C12.0215 13.0254 13.0033 12.0654 14.1815 12.0654H21.7087C22.9087 12.0654 23.8687 13.0472 23.8687 14.2254V21.7527Z" fill="white"/>
</svg>
