<svg width="36" height="36" viewBox="0 0 36 36" fill="none" xmlns="http://www.w3.org/2000/svg">
<path d="M35.5 18C35.5 27.665 27.665 35.5 18 35.5C8.33502 35.5 0.5 27.665 0.5 18C0.5 8.33502 8.33502 0.5 18 0.5C27.665 0.5 35.5 8.33502 35.5 18Z" stroke="white"/>
<path d="M23.8291 15.8806C23.8291 16.0116 23.8291 16.1425 23.8291 16.2516C23.8291 20.1143 20.8836 24.5881 15.4945 24.5881C13.8364 24.5881 12.3091 24.1079 11 23.2787C11.2182 23.3005 11.4582 23.3223 11.6982 23.3223C13.0727 23.3223 14.3382 22.864 15.3418 22.0784C14.0545 22.0566 12.9855 21.2055 12.6145 20.0489C12.7891 20.0925 12.9855 20.0925 13.16 20.0925C13.4218 20.0925 13.6836 20.0489 13.9236 19.9834C12.5927 19.7215 11.5673 18.5212 11.5673 17.1246C11.5673 17.1027 11.5673 17.1027 11.5673 17.0809C11.96 17.2991 12.4182 17.4301 12.8982 17.4519C12.1127 16.9282 11.5891 16.0334 11.5891 15.0077C11.5891 14.4621 11.7418 13.9602 11.9818 13.5456C13.4218 15.3132 15.5818 16.4917 18.0036 16.6008C17.96 16.3826 17.9382 16.1643 17.9382 15.9243C17.9382 14.3094 19.2473 13 20.8618 13C21.7127 13 22.4545 13.3492 23 13.9166C23.6764 13.7856 24.2873 13.5456 24.8545 13.1964C24.6364 13.8729 24.1782 14.4621 23.5673 14.8113C24.1564 14.7458 24.7236 14.5931 25.2473 14.353C24.8982 14.9423 24.3964 15.466 23.8291 15.8806Z" fill="white"/>
</svg>
