<svg width="16" height="16" viewBox="0 0 16 16" fill="none" xmlns="http://www.w3.org/2000/svg">
<path d="M14.9 1C15 1 15 1 14.9 1L15 11.9C15 11.9 15 12 14.9 12H4.6C4.3 12 4 12.1 3.8 12.3L2 14.4C1.9 14.5 1.7 14.6 1.5 14.6C1.4 14.6 1.3 14.6 1.2 14.5C1.1 14.4 1 14.2 1 14V1H14.9ZM14.9 0H1C0.4 0 0 0.4 0 1V14C0 14.6 0.3 15.2 0.9 15.4C1.1 15.5 1.4 15.6 1.6 15.6C2.1 15.6 2.5 15.4 2.8 15L4.6 13H14.9C15.5 13 16 12.5 16 11.9V1.1C16 0.5 15.5 0 14.9 0Z" fill="white"/>
<path d="M4.5 4.5H12.5" stroke="white" stroke-miterlimit="10" stroke-linecap="round" stroke-linejoin="round"/>
<path d="M4.5 7.5H10.5" stroke="white" stroke-miterlimit="10" stroke-linecap="round" stroke-linejoin="round"/>
</svg>
