<svg width="16" height="16" viewBox="0 0 16 16" fill="none" xmlns="http://www.w3.org/2000/svg">
<path d="M8 1C11.9 1 15 4.1 15 8C15 11.9 11.9 15 8 15C4.1 15 1 11.9 1 8C1 4.1 4.1 1 8 1ZM8 0C3.6 0 0 3.6 0 8C0 12.4 3.6 16 8 16C12.4 16 16 12.4 16 8C16 3.6 12.4 0 8 0Z" fill="white"/>
<path d="M7.80002 0.700195C7.80002 0.700195 4.40002 2.2002 4.40002 7.9002C4.40002 13.7002 7.90002 15.3002 7.90002 15.3002" stroke="white" stroke-miterlimit="10" stroke-linecap="round" stroke-linejoin="round"/>
<path d="M8.10002 0.700195C8.10002 0.700195 11.5 2.1002 11.5 7.9002C11.5 13.7002 7.90002 15.3002 7.90002 15.3002" stroke="white" stroke-miterlimit="10" stroke-linecap="round" stroke-linejoin="round"/>
<path d="M13.4 2.90039C11.3 5.00039 4.8 5.20039 2.5 2.90039" stroke="white" stroke-miterlimit="10" stroke-linecap="round" stroke-linejoin="round"/>
<path d="M13.4 13.0004C11.3 10.9004 4.8 10.8004 2.5 13.1004" stroke="white" stroke-miterlimit="10" stroke-linecap="round" stroke-linejoin="round"/>
<path d="M2.5 8.5H15.5" stroke="white" stroke-miterlimit="10" stroke-linecap="round" stroke-linejoin="round"/>
</svg>
