<svg width="180" height="31" viewBox="0 0 180 31" fill="none" xmlns="http://www.w3.org/2000/svg">
<path d="M8.75738 0.455078V2.3455H5.55691V20.3045H3.37637V2.3455H0.175903V0.455078H8.75738Z" fill="white"/>
<path d="M16.6706 0.455078H18.8863V20.3045H16.6706V11.3425H12.3799V20.3045H10.1642V0.455078H12.3799V9.45209H16.6706V0.455078Z" fill="white"/>
<path d="M23.2826 18.4141H28.7691V20.3045H21.0669V0.455078H28.5229V2.3455H23.2826V9.03199H27.5733V10.9224H23.2826V18.4141Z" fill="white"/>
<path d="M40.4807 16.1386V12.4628C40.4807 12.1827 40.4104 11.9727 40.3048 11.8676C40.1642 11.7626 39.9531 11.6926 39.6366 11.6926H36.823C34.2908 11.6926 33.0247 10.5023 33.0247 8.12181V3.50078C33.0247 1.15526 34.3611 0 37.0692 0H40.9731C43.6812 0 45.0176 1.15526 45.0176 3.50078V6.16137H40.4455V4.16593C40.4455 3.64081 40.1642 3.36075 39.5663 3.36075H38.476C37.9133 3.36075 37.5968 3.64081 37.5968 4.16593V7.73673C37.5968 8.01679 37.6671 8.22683 37.7726 8.33186C37.9133 8.43688 38.1243 8.5069 38.4408 8.5069H41.1841C42.5557 8.5069 43.5405 8.78696 44.1384 9.38209C44.7363 9.97723 45.0528 10.8174 45.0528 11.9727V16.7687C45.0528 19.1143 43.7163 20.3045 41.0082 20.3045H37.1395C34.4315 20.3045 33.0598 19.1143 33.0598 16.7687V14.1432H37.6319V16.1386C37.6319 16.6637 37.9133 16.9438 38.5112 16.9438H39.6014C40.1993 16.9438 40.4807 16.6637 40.4807 16.1386Z" fill="white"/>
<path d="M57.8898 0V3.36075H54.1267V20.3045H49.5546V3.36075H45.8265V0H57.8898Z" fill="white"/>
<path d="M62.8489 0H67.1396C69.8477 0 71.1842 1.15526 71.1842 3.50078V16.7337C71.1842 19.0793 69.8477 20.2695 67.1396 20.2695H62.8489C60.1408 20.2695 58.7692 19.0793 58.7692 16.7337V3.50078C58.7692 1.15526 60.1408 0 62.8489 0ZM66.6121 16.1386V4.13092C66.6121 3.6058 66.3307 3.32574 65.768 3.32574H64.2205C63.6578 3.32574 63.3413 3.6058 63.3413 4.13092V16.1386C63.3413 16.6637 63.6226 16.9438 64.2205 16.9438H65.768C66.3307 16.9438 66.6121 16.6637 66.6121 16.1386Z" fill="white"/>
<path d="M72.7316 0H81.1372C83.8453 0 85.1817 1.15526 85.1817 3.50078V9.66216C85.1817 12.0077 83.8453 13.1979 81.1372 13.1979H77.3037V20.3045H72.7667V0H72.7316ZM80.5745 9.06702V4.16593C80.5745 3.64081 80.2931 3.36075 79.7304 3.36075H77.2685V9.8722H79.7304C80.2931 9.8722 80.5745 9.59214 80.5745 9.06702Z" fill="white"/>
<path d="M98.5112 0H103.048V20.3045H98.5463V11.9377H94.4314V20.3045H89.9297V0H94.4314V8.57691H98.5463V0H98.5112Z" fill="white"/>
<path d="M112.438 0H117.011V16.7337C117.011 19.0793 115.639 20.2695 112.931 20.2695H108.675C105.967 20.2695 104.631 19.0793 104.631 16.7337V0H109.203V16.1386C109.203 16.6637 109.484 16.9438 110.047 16.9438H111.594C112.157 16.9438 112.474 16.6637 112.474 16.1386V0H112.438Z" fill="white"/>
<path d="M127.175 0H131.36V20.3045H127.245L122.778 8.15682V20.3045H118.628V0H122.778L127.175 12.1127V0Z" fill="white"/>
<path d="M144.373 0V3.36075H140.61V20.3045H136.038V3.36075H132.31V0H144.373Z" fill="white"/>
<path d="M149.93 16.9438H156.471V20.3045H145.358V0H156.225V3.36075H149.93V8.29685H155.276V11.6576H149.93V16.9438Z" fill="white"/>
<path d="M162.204 12.7078V20.3045H157.667V0H166.073C168.781 0 170.117 1.15526 170.117 3.50078V9.17205C170.117 11.0275 169.273 12.1827 167.55 12.5678L171.102 20.3045H166.213L163.013 12.7078H162.204ZM162.204 3.36075V9.48712H164.666C164.947 9.48712 165.193 9.4171 165.299 9.31208C165.44 9.20705 165.475 8.99701 165.475 8.71694V4.16593C165.475 3.64081 165.193 3.36075 164.631 3.36075H162.204Z" fill="white"/>
<path d="M176.518 23.9453H0V26.816H176.518V23.9453Z" fill="white"/>
<path d="M174.9 29.8268C172.439 29.8268 170.434 27.8314 170.434 25.3808C170.434 22.9303 172.439 20.9348 174.9 20.9348C177.362 20.9348 179.367 22.9303 179.367 25.3808C179.367 27.8314 177.362 29.8268 174.9 29.8268Z" fill="#CC2929"/>
<path d="M174.9 21.5999C177.011 21.5999 178.699 23.3153 178.699 25.3807C178.699 27.4812 176.975 29.1616 174.9 29.1616C172.79 29.1616 171.102 27.4462 171.102 25.3807C171.102 23.3153 172.79 21.5999 174.9 21.5999ZM174.9 20.3396C172.087 20.3396 169.801 22.6151 169.801 25.4157C169.801 28.2164 172.087 30.4919 174.9 30.4919C177.714 30.4919 180 28.2164 180 25.4157C180 22.6151 177.714 20.3396 174.9 20.3396Z" fill="white"/>
</svg>
