<svg width="176" height="41" viewBox="0 0 176 41" fill="none" xmlns="http://www.w3.org/2000/svg">
<path d="M23.0448 28.1385C22.6518 28.5318 22.2588 28.8892 21.8658 29.2825C20.5438 29.3182 19.2219 29.3182 18.0071 29.3539C17.4712 29.3539 16.9353 29.3539 16.3993 29.3539C14.9345 29.3539 13.684 29.3182 12.8622 29.2825C12.8265 28.925 12.7908 28.496 12.7908 28.1028C13.5768 28.1743 14.3986 28.21 15.256 28.21C15.792 28.2458 16.2922 28.2458 16.8281 28.2458C19.0075 28.2458 21.187 28.21 23.0448 28.1385Z" fill="white"/>
<path d="M11.576 12.3025C11.576 12.6957 11.5403 13.1247 11.5403 13.5537C10.5756 13.6251 9.75387 13.7324 9.21794 13.8396C8.0389 14.0899 6.85986 14.7691 5.8952 15.5555C5.46645 15.913 5.07344 16.3062 4.75189 16.6637L4.71616 16.6994C3.6443 17.9863 2.82255 19.4877 2.82255 20.8461C2.82255 22.7765 3.6443 24.2422 4.75189 25.3146C4.43033 25.9938 4.18023 26.673 4.00159 27.3879C3.68003 27.1735 3.32275 26.959 3.03692 26.7087C1.21477 25.2788 0 23.134 0 20.8104C0.0357285 18.4868 1.2505 16.3777 3.03692 14.9478C3.28702 14.7333 3.57285 14.5546 3.82295 14.3758C4.35887 14.0541 4.93053 13.7681 5.50218 13.5179C7.5387 12.7315 9.75387 12.4097 11.576 12.3025Z" fill="white"/>
<path d="M22.8662 13.2676C20.8654 13.2318 18.7217 13.2676 16.7209 13.3033C16.185 13.3033 15.6491 13.3391 15.1489 13.3391C14.2556 13.3748 13.4339 13.4106 12.6836 13.4463C12.6836 13.0174 12.7193 12.5884 12.7551 12.1952C13.5411 12.1594 14.1842 12.1952 14.6129 12.1952C14.9345 12.1952 15.5419 12.1952 16.3279 12.1952C16.7924 12.1952 17.3283 12.1952 17.9 12.1952C19.0433 12.1952 20.3652 12.1594 21.7586 12.1594C22.0802 12.5169 22.4732 12.8744 22.8662 13.2676Z" fill="white"/>
<path d="M39.2298 17.2714C38.4438 15.77 37.0861 14.5903 35.5141 13.7324C34.9782 13.4464 34.4065 13.1962 33.7991 13.0174C32.8702 12.6957 31.9055 12.4812 30.9766 12.4097C30.2977 12.3382 29.3331 12.3025 28.2255 12.2667C28.1183 11.1586 27.9754 10.1219 27.7967 9.15671C27.6181 8.26302 27.368 7.33359 27.0464 6.47565C26.8321 5.90369 26.5462 5.33173 26.2604 4.75977C26.046 4.36654 25.8317 4.00907 25.5816 3.65159C23.4736 0.68455 19.7578 -0.244885 16.578 1.471C15.1131 2.25744 13.9341 3.54435 13.1123 5.11724C12.8265 5.65345 12.5764 6.18967 12.3978 6.76163C12.0405 7.72681 11.8261 8.72774 11.7189 9.76442C11.6475 10.4079 11.6117 11.3016 11.576 12.3382C11.576 12.7315 11.5403 13.1604 11.5403 13.5894C11.8976 13.5537 12.2906 13.5179 12.6836 13.5179C12.6836 13.0889 12.7193 12.66 12.7551 12.2667C12.8265 10.9798 12.898 9.9789 13.0052 9.47844C13.1838 8.6205 13.5053 7.83405 13.9341 7.04761C14.0413 6.86887 14.1485 6.69013 14.2556 6.47565C14.4343 6.22541 14.6129 5.97518 14.7916 5.7607C17.0425 3.15113 21.3299 2.57917 24.0452 4.9385C24.1882 5.08149 24.3311 5.22448 24.5097 5.36747C24.8313 5.6892 25.1528 6.11817 25.4744 6.69013C26.1532 7.83405 26.7606 9.54993 27.1179 12.231C25.9389 12.1952 24.6526 12.1952 23.3307 12.1952C22.7947 12.1952 22.2588 12.1952 21.7229 12.1952C22.0802 12.517 22.4732 12.8744 22.8662 13.2677C23.4021 13.2677 23.9738 13.2677 24.5097 13.3034C25.4744 13.3392 26.4033 13.3392 27.2608 13.3749C27.2965 13.8396 27.3323 14.3401 27.368 14.8763C27.4037 15.2695 27.4037 15.6628 27.4394 16.1275C27.4752 16.6279 27.4752 17.1999 27.5109 17.7719C27.5824 19.5235 27.6181 21.5253 27.5824 23.5272C27.5824 24.0634 27.5824 24.6354 27.5466 25.1716C27.5109 26.1368 27.4752 27.0662 27.4394 27.9241C26.9392 27.9599 26.4033 27.9956 25.8674 28.0314C25.5101 28.0671 25.1171 28.0671 24.7241 28.1029C24.2239 28.1386 23.6522 28.1386 23.0806 28.1744C22.6876 28.5676 22.2945 28.9251 21.9015 29.3183C22.4375 29.3183 23.0091 29.2826 23.545 29.2468C24.8313 29.2111 26.0818 29.1396 27.3323 29.0323C27.2608 30.0333 27.1179 30.8912 26.975 31.6419C26.8678 32.2496 26.5105 33.2863 25.9031 34.323C25.5816 34.8592 25.1886 35.4311 24.7241 35.9316C25.4029 36.2533 26.0818 36.4678 26.7963 36.6465C27.2251 35.9316 27.5466 35.1809 27.761 34.3944C28.2969 32.6428 28.4756 30.7482 28.5828 29.0323C28.5828 29.0323 28.5828 28.9966 28.5828 28.9608C29.6546 28.8536 30.655 28.7106 31.5839 28.5319C32.37 28.3889 33.1203 28.1744 33.8706 27.9241C34.5137 27.7097 35.1568 27.4237 35.7999 27.0662C36.2286 26.816 36.6574 26.5657 37.0861 26.2798C40.0159 24.1349 40.9091 20.4529 39.2298 17.2714ZM35.7642 24.7426C35.5855 24.9571 35.4069 25.1358 35.1568 25.3503C34.7638 25.6721 34.2636 26.0295 33.6205 26.387C32.5129 26.959 30.9051 27.4952 28.5828 27.8169C28.6185 26.9232 28.6185 25.5648 28.6542 23.9919C28.6542 23.4915 28.6542 22.9195 28.6542 22.3475C28.6542 21.2751 28.6185 20.1312 28.6185 18.9873C28.6185 18.4511 28.5828 17.8791 28.547 17.3071C28.5113 16.0202 28.4398 14.6976 28.3327 13.4464C29.6903 13.5179 30.7265 13.6251 31.2624 13.7324C32.0841 13.8396 32.8702 14.1614 33.5847 14.5546C33.7991 14.6618 34.0135 14.8048 34.2279 14.9478C34.478 15.0908 34.6923 15.2695 34.9067 15.4483C37.5506 17.7004 38.158 22.0258 35.7642 24.7426Z" fill="white"/>
<path d="M12.6836 25.6364C12.6478 25.1359 12.6478 24.5997 12.6478 24.0635C12.2906 23.6703 11.8976 23.3128 11.5403 22.9553C11.5403 23.5273 11.5403 24.0635 11.5403 24.4925C11.5403 25.2432 11.5403 25.7794 11.5403 26.1011C11.5403 26.5301 11.5403 27.1735 11.5403 27.96C10.6113 27.8885 9.78957 27.7455 9.075 27.6025C8.43189 27.4595 7.36004 27.102 6.28818 26.4586C5.78799 26.1368 5.25206 25.7794 4.78759 25.3147C4.46603 25.9939 4.21593 26.6731 4.03729 27.388C4.71613 27.7812 5.46643 28.103 6.21673 28.3532C8.00315 28.9252 9.89676 29.1039 11.6475 29.2111C11.6832 29.2111 11.7189 29.2111 11.7546 29.2111C11.7546 29.2111 12.1834 29.2469 12.8979 29.2469C12.8622 28.8894 12.8265 28.4604 12.8265 28.0672C12.755 27.3165 12.7193 26.4943 12.6836 25.6364Z" fill="white"/>
<path d="M26.7606 36.6107C26.5463 36.9682 26.2962 37.3257 26.0461 37.6831C24.6169 39.5063 22.4732 40.7217 20.1509 40.7217C17.8285 40.6859 15.7205 39.4348 14.2914 37.6831C14.0413 37.3614 13.8269 37.0397 13.6125 36.718C13.2553 36.1102 12.9694 35.4668 12.7193 34.8233C12.0405 32.9645 11.7189 30.9626 11.6118 29.2825C11.6475 29.2825 11.6832 29.2825 11.7189 29.2825C11.7189 29.2825 12.1477 29.3182 12.8623 29.3182C12.9337 30.2477 13.0409 30.9984 13.1481 31.5346C13.3624 32.5712 13.8984 33.6079 14.5772 34.5016C14.9345 35.0021 15.3632 35.431 15.792 35.8243C15.8634 35.8958 15.9349 35.9673 16.0421 36.0387C17.3283 37.1112 18.8289 37.9334 20.2223 37.9334C22.1874 37.9334 23.6522 37.0754 24.7241 35.9673C25.3672 36.1817 26.0461 36.432 26.7606 36.6107Z" fill="white"/>
<path d="M12.6121 15.9488C12.6121 16.4492 12.5764 16.9855 12.5764 17.4859C13.8984 16.0918 15.3632 14.6261 16.7209 13.3035C16.185 13.3035 15.6491 13.3392 15.1489 13.3392C14.2557 14.2686 13.3624 15.1623 12.6121 15.9488Z" fill="#EA5323"/>
<path d="M7.82453 33.0003C6.85986 32.0352 6.35966 30.3908 6.21675 28.7106C6.21675 28.6034 6.18102 28.4604 6.18102 28.3532C6.14529 27.7455 6.18102 27.102 6.28821 26.4943C6.46685 25.4219 6.78841 24.3852 7.36006 23.5273C7.64589 23.0625 8.14609 22.4191 8.7892 21.6684C9.64668 22.5621 10.6114 23.5273 11.576 24.4924C11.969 24.8857 12.3263 25.2431 12.7193 25.6006C13.6483 26.53 14.5415 27.388 15.3275 28.1744C15.8634 28.2102 16.3636 28.2102 16.8996 28.2102C15.5062 26.8875 14.0413 25.4219 12.6836 24.0635C12.3263 23.6702 11.9333 23.3128 11.576 22.9553C10.8615 22.2046 10.1826 21.4896 9.57523 20.8104C10.1826 20.1312 10.8257 19.3805 11.576 18.6298V17.057C10.8615 17.7719 10.3255 18.3081 10.0397 18.5941C9.71814 18.8801 9.25367 19.3448 8.75347 19.9168C7.89599 18.9516 7.25288 18.2009 6.96705 17.7362C6.53831 17.057 6.21675 16.342 5.96665 15.5913C5.53791 15.9488 5.1449 16.342 4.82334 16.6995C5.21635 17.4502 5.71655 18.2009 6.25248 18.8443C6.64549 19.3448 7.25288 19.9883 7.96745 20.7389C6.89559 21.9901 5.68082 23.563 4.85907 25.3146C4.53751 25.9938 4.28741 26.673 4.10877 27.388C4.00159 27.817 3.93013 28.2459 3.85867 28.6749C3.60857 30.927 4.21596 33.3221 5.85947 34.9665C7.50298 36.6108 9.89678 37.2543 12.1834 37.0041C12.7193 36.9326 13.2195 36.8253 13.7197 36.6823C13.3624 36.0746 13.0766 35.4312 12.8265 34.7877C11.1116 34.895 9.2894 34.5017 7.82453 33.0003Z" fill="#EA5323"/>
<path d="M5.53791 13.5536C5.46645 10.2291 8.0389 6.97611 11.5046 6.72587C11.7547 6.72587 12.0405 6.69013 12.362 6.72587C12.8265 6.76162 13.3267 6.83312 13.8984 7.01185C15.1489 7.36933 16.7566 8.15577 18.7932 9.72866C18.0071 10.5151 17.1139 11.373 16.2564 12.231C16.7209 12.231 17.2568 12.231 17.8285 12.231C18.4716 11.5875 19.1147 11.0156 19.6864 10.4436C20.0437 10.7653 20.4367 11.0871 20.8297 11.4445C21.0798 11.6948 21.3656 11.945 21.6872 12.1952C22.0445 12.517 22.4375 12.8744 22.8305 13.2677C24.2596 14.5903 25.8674 16.1632 27.4395 17.7361C27.4037 17.1641 27.4037 16.6279 27.368 16.0917C26.4748 15.198 25.4744 14.2329 24.474 13.2677C24.081 12.9102 23.688 12.5527 23.295 12.1595C22.366 11.3016 21.4371 10.4794 20.5081 9.69292C21.5085 8.76348 22.3303 8.12003 22.7948 7.7983C23.6165 7.26209 24.5097 6.90461 25.4387 6.65438C25.1171 6.11817 24.7955 5.6892 24.474 5.33172C23.4736 5.79644 22.5089 6.3684 21.6514 7.08335C21.1155 7.51232 20.4367 8.15577 19.6149 8.94222C18.7574 8.22727 17.9 7.58381 17.1139 7.0476C16.3994 6.54714 15.6133 6.08242 14.7559 5.72494C14.2199 5.47471 13.6483 5.26023 13.0766 5.08149C12.6121 4.9385 12.1119 4.83126 11.6475 4.72401C8.11036 4.11631 4.85907 6.08242 3.78721 9.51418C3.32274 11.0513 3.3942 12.7315 3.85867 14.3758C4.3946 14.0899 4.93052 13.8039 5.53791 13.5536Z" fill="#EA5323"/>
<path d="M36.0857 28.4603C36.0143 27.9599 35.9428 27.4951 35.7999 27.0304C35.6212 26.4585 35.4069 25.8865 35.1568 25.3503C34.2993 23.5272 32.9773 21.9543 31.7268 20.5601C31.7268 20.5601 31.6911 20.5244 31.6554 20.4886C32.3342 19.6664 32.9416 18.8442 33.4775 18.0935C34.0492 17.2714 34.5494 16.4134 34.9424 15.4482C35.1925 14.912 35.3712 14.3401 35.5498 13.7323C35.657 13.3749 35.7642 12.9817 35.8356 12.5884C36.443 9.04943 34.4779 5.7964 31.048 4.72398C29.5474 4.25926 27.9039 4.33076 26.2961 4.75973C26.6177 5.33169 26.8678 5.90365 27.0821 6.47561C30.4049 6.43986 33.6205 8.97793 33.8348 12.4454C33.8348 12.6242 33.8348 12.8029 33.8348 13.0174C33.8348 13.4821 33.7634 13.9826 33.6205 14.5545C33.2989 15.8415 32.5486 17.5216 30.9051 19.6664C30.3692 19.0945 29.5474 18.2365 28.5827 17.2713C28.6185 17.8433 28.6185 18.3795 28.6542 18.9515C29.1901 19.5234 29.6903 20.0954 30.1905 20.6316C29.869 21.0248 29.5474 21.4181 29.1544 21.8113C29.0115 21.9543 28.8686 22.133 28.6899 22.3117C28.6899 22.8837 28.6899 23.4199 28.6899 23.9561C29.4402 23.1339 30.1905 22.276 30.8694 21.4538C31.5125 22.2045 32.0484 22.9195 32.4771 23.5629C32.8344 24.0991 33.3704 25.1358 33.6562 26.387C33.7634 26.8517 33.8706 27.3879 33.8706 27.8884C33.9777 29.497 33.5847 31.2844 32.1199 32.75C31.1552 33.7152 29.5117 34.2157 27.8324 34.3587C27.7967 34.3587 27.7967 34.3587 27.761 34.3587C27.1893 34.3944 26.5462 34.3944 25.9031 34.3229C24.7241 34.1799 23.545 33.8224 22.6161 33.2147C22.1516 32.9288 21.58 32.464 20.8654 31.8563C21.5085 31.2486 22.4374 30.3549 23.5808 29.2468C23.938 28.8893 24.3311 28.4961 24.7241 28.1028C25.6173 27.2092 26.5819 26.2082 27.5466 25.1715C27.5466 24.6353 27.5823 24.0991 27.5823 23.5272C26.2247 24.9213 24.6526 26.5657 23.0448 28.1386C22.6518 28.5318 22.2588 28.8893 21.8658 29.2825C21.2227 29.8902 20.5438 30.4979 19.9365 31.0699C19.3291 30.5337 18.686 29.9617 18.0428 29.354C17.5069 29.354 16.971 29.354 16.4351 29.354C17.0067 29.926 17.4355 30.3192 17.6498 30.5694C17.9714 30.8911 18.4001 31.3559 18.9718 31.8921C18.2572 32.4998 17.5784 33.0002 16.971 33.3935C16.4708 33.7152 15.649 34.1442 14.6129 34.4659C14.9702 34.9664 15.3989 35.3953 15.8277 35.7886C17.364 34.9664 18.7217 33.8224 19.9365 32.75C21.2227 33.8582 22.9019 35.1094 24.7241 35.9315C25.4029 36.2533 26.0818 36.4678 26.7963 36.6465C27.1179 36.718 27.4394 36.7895 27.761 36.8252C30.0119 37.0755 32.4057 36.4678 34.0492 34.8234C35.6927 33.1432 36.3358 30.7482 36.0857 28.4603Z" fill="#EA5323"/>
<path d="M12.6121 24.0634C12.2548 23.6702 11.8618 23.3127 11.5045 22.9553C11.5045 21.7041 11.4688 20.2027 11.4688 18.6298V17.0569C11.4688 15.8415 11.4688 14.6618 11.5045 13.5537C11.8618 13.5179 12.2548 13.4822 12.6479 13.4822C12.6121 14.2329 12.5764 15.0908 12.5764 15.9488C12.5764 16.4492 12.5407 16.9854 12.5407 17.4859C12.5764 19.6307 12.5764 21.9186 12.6121 24.0634Z" fill="white"/>
<path d="M172.693 28.6776H46.3573C46.1786 28.6776 46 28.5346 46 28.3201C46 28.1414 46.1429 27.9626 46.3573 27.9626H172.693C172.872 27.9626 173.05 28.1056 173.05 28.3201C173.05 28.5346 172.908 28.6776 172.693 28.6776Z" fill="white"/>
<path d="M172.693 27.2477H46.3573C46.1786 27.2477 46 27.1047 46 26.8902C46 26.7115 46.1429 26.5327 46.3573 26.5327H172.693C172.872 26.5327 173.05 26.6757 173.05 26.8902C173.05 27.1047 172.908 27.2477 172.693 27.2477Z" fill="white"/>
<path d="M53.8602 12.0193H57.3973C58.3263 12.0193 59.0766 12.0908 59.684 12.2695C60.2913 12.4483 60.7915 12.7342 61.1488 13.199C62.1492 14.3786 62.2564 16.1303 61.4704 18.4896C61.2203 19.276 60.8987 19.991 60.5414 20.6344C60.1842 21.2779 59.7911 21.8499 59.3267 22.3861C58.8622 22.9223 58.3263 23.387 57.7546 23.7802C57.2902 24.1019 56.8257 24.3522 56.3255 24.5309C55.8253 24.7097 55.3251 24.8526 54.8249 24.9241C54.3247 24.9956 53.753 25.0314 53.1457 25.0314H49.5728C49.0726 25.0314 48.7511 24.9599 48.5367 24.8169C48.3223 24.6739 48.2509 24.4594 48.2509 24.2092C48.2509 23.959 48.3223 23.6015 48.4652 23.1725L51.6451 13.5922C51.8237 13.0202 52.1095 12.627 52.4311 12.341C52.8241 12.1265 53.2886 12.0193 53.8602 12.0193ZM54.2175 14.0926L51.2878 22.958H53.3243C53.7888 22.958 54.146 22.958 54.3961 22.9223C54.6462 22.8865 54.9321 22.8508 55.2536 22.7435C55.5752 22.6363 55.8253 22.5291 56.1111 22.3503C57.2544 21.5996 58.1476 20.3127 58.755 18.4896C59.1838 17.2027 59.2909 16.2375 59.1123 15.594C58.9337 14.9506 58.5764 14.5574 58.0404 14.3786C57.5045 14.1999 56.8257 14.1284 56.0039 14.1284H54.2175V14.0926Z" fill="white"/>
<path d="M69.8309 20.9203H64.9718C64.7931 21.4565 64.7574 21.957 64.8289 22.3859C64.9003 22.8149 65.1147 23.1366 65.4005 23.3511C65.6864 23.5656 66.0794 23.6729 66.5081 23.6729C66.7939 23.6729 67.0798 23.6371 67.3656 23.5656C67.6514 23.4941 67.9015 23.3869 68.1874 23.2439C68.4732 23.1009 68.7233 22.9579 68.9734 22.7792C69.2235 22.6004 69.545 22.3859 69.9381 22.1C70.1167 21.9927 70.2953 21.957 70.5454 21.957C70.7955 21.957 70.9742 22.0285 71.0814 22.1715C71.1885 22.3144 71.2243 22.4932 71.1171 22.7434C71.0456 22.9579 70.867 23.2081 70.5812 23.5299C70.2953 23.8158 69.9381 24.1018 69.5093 24.3878C69.0806 24.6738 68.5446 24.8883 67.9373 25.067C67.3299 25.2457 66.6868 25.3172 66.0079 25.3172C64.4001 25.3172 63.3283 24.8883 62.7209 23.9946C62.1135 23.1009 62.0778 21.8855 62.578 20.3841C62.8281 19.6691 63.1496 18.9899 63.5784 18.3822C64.0071 17.7745 64.5073 17.2383 65.0432 16.8093C65.6149 16.3804 66.2223 16.0229 66.9369 15.8084C67.6157 15.5582 68.3303 15.4509 69.0806 15.4509C70.0452 15.4509 70.8313 15.6654 71.3672 16.0586C71.9388 16.4519 72.2604 16.9881 72.4033 17.5958C72.5462 18.2392 72.5105 18.8827 72.2604 19.5261C72.046 20.1339 71.7602 20.5271 71.3315 20.7058C71.0099 20.8488 70.474 20.9203 69.8309 20.9203ZM65.4363 19.5619H69.9381C70.1524 18.7397 70.1167 18.0962 69.8666 17.703C69.6165 17.2741 69.152 17.0953 68.5089 17.0953C67.9015 17.0953 67.3299 17.3098 66.7939 17.7388C66.2223 18.132 65.7935 18.7397 65.4363 19.5619Z" fill="white"/>
<path d="M79.2989 23.9232C78.5486 24.3879 77.834 24.7096 77.2266 24.9599C76.5835 25.1744 75.9047 25.3173 75.2259 25.3173C74.5827 25.3173 74.0825 25.2101 73.6538 24.9599C73.2608 24.7096 72.975 24.3879 72.8678 23.9589C72.7606 23.53 72.7606 23.0653 72.9392 22.6005C73.1536 21.9213 73.5466 21.3851 74.154 20.8847C74.7257 20.4199 75.4402 20.0982 76.2263 19.9552C76.4049 19.9195 76.7979 19.848 77.4767 19.705C78.1556 19.5977 78.7272 19.4548 79.1917 19.3475C79.6562 19.2403 80.1921 19.133 80.7638 18.9543C80.9424 18.3108 80.9781 17.8461 80.8352 17.5601C80.6923 17.2742 80.2636 17.0954 79.549 17.0954C78.9059 17.0954 78.4057 17.1669 78.0484 17.3456C77.6554 17.5244 77.2981 17.7746 76.9765 18.1321C76.6193 18.4896 76.4049 18.7041 76.262 18.8113C76.1191 18.9185 75.9047 18.99 75.6189 18.99C75.333 18.99 75.1187 18.9185 74.9758 18.7398C74.8328 18.5611 74.7971 18.3466 74.9043 18.0606C75.0472 17.6316 75.333 17.2027 75.7975 16.8094C76.2262 16.4162 76.8336 16.0587 77.5839 15.8085C78.3342 15.5583 79.1917 15.4153 80.1564 15.4153C81.264 15.4153 82.05 15.5583 82.6217 15.8085C83.1576 16.0587 83.4791 16.452 83.5506 16.9882C83.6221 17.5244 83.5149 18.2751 83.229 19.1688C83.0504 19.7407 82.8718 20.2055 82.7288 20.6344C82.5859 21.0276 82.443 21.4566 82.2644 21.9571C82.1215 22.4218 82.0143 22.8865 82.0143 23.387C82.0143 23.8874 81.9785 24.2092 81.9428 24.3522C81.8714 24.6024 81.657 24.8169 81.3712 25.0314C81.0496 25.2458 80.7638 25.3531 80.4422 25.3531C80.1921 25.3531 79.9777 25.2458 79.7991 24.9956C79.5847 24.7096 79.4418 24.3522 79.2989 23.9232ZM80.2993 20.3842C79.9063 20.5272 79.2989 20.6702 78.5843 20.8132C77.834 20.9561 77.3338 21.0634 77.048 21.1349C76.7622 21.2064 76.4763 21.3494 76.1548 21.5281C75.8332 21.7426 75.6189 21.9928 75.5117 22.3503C75.4045 22.7078 75.4402 23.0295 75.6189 23.2797C75.8332 23.53 76.1548 23.673 76.6193 23.673C77.1195 23.673 77.5839 23.5657 78.0841 23.3512C78.5843 23.1367 78.9773 22.8865 79.2632 22.529C79.6205 22.1716 79.9063 21.5639 80.1921 20.7059L80.2993 20.3842Z" fill="white"/>
<path d="M84.158 23.8158L87.6594 13.2703C87.838 12.7699 88.0524 12.4124 88.3739 12.1622C88.6955 11.9119 89.017 11.8047 89.41 11.8047C89.8031 11.8047 90.0532 11.9119 90.1961 12.1622C90.339 12.4124 90.339 12.7699 90.1603 13.2703L86.659 23.8158C86.4803 24.3163 86.2659 24.6738 85.9444 24.924C85.6228 25.1743 85.3013 25.2815 84.9083 25.2815C84.551 25.2815 84.3009 25.1385 84.158 24.8883C84.0151 24.638 84.0151 24.2806 84.158 23.8158Z" fill="white"/>
<path d="M97.1274 20.9203H92.2684C92.0897 21.4565 92.054 21.957 92.1254 22.3859C92.1969 22.8149 92.4113 23.1366 92.6971 23.3511C92.9829 23.5656 93.3759 23.6729 93.8047 23.6729C94.0905 23.6729 94.3763 23.6371 94.6622 23.5656C94.948 23.4941 95.1981 23.3869 95.4839 23.2439C95.7697 23.1009 96.0198 22.9579 96.2699 22.7792C96.52 22.6004 96.8416 22.3859 97.2346 22.1C97.4133 21.9927 97.5919 21.957 97.842 21.957C98.0921 21.957 98.2707 22.0285 98.3779 22.1715C98.4851 22.3144 98.5208 22.4932 98.4137 22.7434C98.3422 22.9579 98.1636 23.2081 97.8777 23.5299C97.5919 23.8516 97.2346 24.1018 96.8059 24.3878C96.3771 24.6738 95.8412 24.8883 95.2338 25.067C94.6264 25.2457 93.9833 25.3172 93.3045 25.3172C91.6967 25.3172 90.6248 24.8883 90.0175 23.9946C89.4101 23.1009 89.3743 21.8855 89.8745 20.3841C90.1246 19.6691 90.4462 18.9899 90.8749 18.3822C91.3037 17.7745 91.8039 17.2383 92.3398 16.8093C92.9115 16.3804 93.5189 16.0229 94.2334 15.8084C94.9123 15.5582 95.6268 15.4509 96.3771 15.4509C97.3418 15.4509 98.1278 15.6654 98.6637 16.0586C99.2354 16.4519 99.557 16.9881 99.6999 17.5958C99.8428 18.2392 99.8071 18.8827 99.557 19.5261C99.3426 20.1339 99.0568 20.5271 98.628 20.7058C98.3065 20.8488 97.7705 20.9203 97.1274 20.9203ZM92.7328 19.5619H97.2346C97.449 18.7397 97.4133 18.0962 97.1632 17.703C96.9131 17.2741 96.4486 17.0953 95.8055 17.0953C95.1981 17.0953 94.6264 17.3098 94.0905 17.7388C93.5546 18.132 93.0901 18.7397 92.7328 19.5619Z" fill="white"/>
<path d="M103.487 21.7783L102.808 23.8159C102.63 24.3164 102.415 24.6739 102.094 24.9241C101.772 25.1744 101.451 25.2816 101.057 25.2816C100.7 25.2816 100.45 25.1744 100.307 24.9241C100.164 24.6739 100.164 24.3164 100.343 23.8159L102.594 17.0597C102.951 15.9515 103.558 15.4153 104.345 15.4153C104.773 15.4153 105.023 15.5583 105.095 15.8085C105.202 16.0587 105.166 16.452 105.023 16.9524C105.488 16.452 105.917 16.0945 106.31 15.8085C106.703 15.5583 107.167 15.4153 107.703 15.4153C108.239 15.4153 108.703 15.5583 109.096 15.8085C109.489 16.0587 109.632 16.4162 109.489 16.8094C109.382 17.0954 109.204 17.3456 108.918 17.5601C108.632 17.7389 108.382 17.8461 108.132 17.8461C108.025 17.8461 107.846 17.7746 107.524 17.6674C107.203 17.5601 106.917 17.4886 106.667 17.4886C106.31 17.4886 105.988 17.5959 105.666 17.7746C105.381 17.9534 105.095 18.2393 104.845 18.5968C104.595 18.9543 104.345 19.419 104.13 19.9195C103.987 20.4199 103.737 21.0276 103.487 21.7783Z" fill="white"/>
<path d="M113.598 23.673L117.028 13.3777C117.207 12.8415 117.457 12.4482 117.814 12.1623C118.136 11.912 118.529 11.769 118.922 11.769C119.315 11.769 119.601 11.912 119.779 12.1623C119.958 12.4125 119.922 12.8415 119.744 13.3777L116.314 23.673C116.135 24.2092 115.885 24.6024 115.528 24.8884C115.17 25.1386 114.813 25.2816 114.42 25.2816C114.027 25.2816 113.741 25.1386 113.598 24.8884C113.384 24.6024 113.42 24.2092 113.598 23.673Z" fill="white"/>
<path d="M123.745 16.7379L123.638 17.0239C124.245 16.4519 124.888 16.0587 125.496 15.7727C126.103 15.5225 126.746 15.3795 127.425 15.3795C128.068 15.3795 128.604 15.5225 129.033 15.8085C129.462 16.0944 129.712 16.4877 129.783 16.9881C129.855 17.2741 129.855 17.5958 129.783 17.9533C129.712 18.3108 129.605 18.7398 129.426 19.276L127.925 23.7802C127.747 24.2806 127.532 24.6381 127.211 24.8883C126.889 25.1386 126.568 25.2458 126.21 25.2458C125.853 25.2458 125.567 25.1028 125.424 24.8526C125.281 24.6024 125.281 24.2449 125.424 23.7444L126.782 19.7049C127.032 18.9185 127.139 18.275 127.068 17.8818C126.996 17.4529 126.603 17.2384 125.925 17.2384C125.496 17.2384 125.031 17.3814 124.603 17.6316C124.138 17.8818 123.781 18.2393 123.459 18.704C123.209 19.0615 122.923 19.7407 122.602 20.7416L121.601 23.7802C121.423 24.2806 121.208 24.6381 120.887 24.8883C120.565 25.1386 120.244 25.2458 119.851 25.2458C119.493 25.2458 119.243 25.1028 119.1 24.8526C118.957 24.6024 118.957 24.2449 119.1 23.7444L121.423 16.7379C121.566 16.2732 121.78 15.9157 122.066 15.7012C122.352 15.4867 122.673 15.3438 123.031 15.3438C123.245 15.3438 123.424 15.3795 123.566 15.4867C123.709 15.594 123.817 15.737 123.852 15.9515C123.852 16.2017 123.817 16.4519 123.745 16.7379Z" fill="white"/>
<path d="M139.001 22.1C138.787 22.7792 138.429 23.3512 137.929 23.8159C137.429 24.2806 136.822 24.6381 136.107 24.8883C135.357 25.1386 134.535 25.2458 133.606 25.2458C132.713 25.2458 131.998 25.1028 131.462 24.8526C130.927 24.6024 130.569 24.2449 130.391 23.8517C130.212 23.4584 130.212 23.0652 130.319 22.6362C130.391 22.386 130.569 22.1358 130.855 21.957C131.105 21.7783 131.391 21.6711 131.677 21.6711C131.927 21.6711 132.106 21.7426 132.213 21.8498C132.32 21.957 132.391 22.1358 132.427 22.386C132.534 22.815 132.749 23.1367 133.034 23.3512C133.32 23.5657 133.749 23.6729 134.392 23.6729C134.892 23.6729 135.321 23.5657 135.714 23.3512C136.107 23.1367 136.357 22.8865 136.429 22.6005C136.572 22.1715 136.5 21.8498 136.25 21.6711C136 21.4923 135.5 21.2778 134.785 21.0991C133.999 20.8846 133.392 20.6701 132.927 20.4556C132.463 20.2412 132.141 19.9194 131.927 19.562C131.713 19.2045 131.713 18.7398 131.891 18.1678C132.07 17.6673 132.356 17.2384 132.784 16.7737C133.213 16.3447 133.785 15.9872 134.428 15.737C135.107 15.4867 135.821 15.3438 136.643 15.3438C137.286 15.3438 137.858 15.4152 138.322 15.5225C138.787 15.6655 139.144 15.8442 139.43 16.0587C139.716 16.2732 139.894 16.5234 139.966 16.7737C140.073 17.0239 140.073 17.3099 139.966 17.5601C139.859 17.8461 139.716 18.0606 139.466 18.2393C139.215 18.418 138.93 18.4895 138.572 18.4895C138.322 18.4895 138.108 18.418 138.001 18.275C137.858 18.1321 137.751 17.9176 137.608 17.6316C137.501 17.3814 137.358 17.2026 137.143 17.0596C136.929 16.9166 136.607 16.8451 136.179 16.8451C135.714 16.8451 135.321 16.9524 134.964 17.1311C134.607 17.3099 134.392 17.5601 134.285 17.8461C134.214 18.0963 134.249 18.3108 134.392 18.4895C134.571 18.6683 134.821 18.7755 135.142 18.8828C135.464 18.99 135.928 19.133 136.536 19.276C137.25 19.4547 137.786 19.6692 138.215 19.9194C138.608 20.1697 138.894 20.4914 139.037 20.8131C139.144 21.2421 139.144 21.6711 139.001 22.1Z" fill="white"/>
<path d="M144.968 14.2713C144.611 14.2713 144.36 14.1641 144.182 13.9496C144.003 13.7351 143.967 13.4491 144.11 13.0559C144.218 12.6984 144.432 12.4124 144.753 12.1979C145.075 11.9835 145.397 11.8762 145.754 11.8762C146.075 11.8762 146.326 11.9835 146.504 12.1622C146.683 12.3767 146.719 12.6627 146.576 13.0559C146.468 13.4134 146.218 13.7351 145.933 13.9496C145.647 14.1641 145.325 14.2713 144.968 14.2713ZM145.361 16.7736L143.039 23.7801C142.86 24.2806 142.646 24.6381 142.324 24.8883C142.002 25.1385 141.645 25.2458 141.288 25.2458C140.931 25.2458 140.68 25.1028 140.538 24.8526C140.395 24.6023 140.395 24.2449 140.573 23.7444L142.896 16.8094C143.039 16.3447 143.289 15.9514 143.61 15.737C143.932 15.4867 144.253 15.3795 144.611 15.3795C144.968 15.3795 145.218 15.4867 145.397 15.737C145.504 16.0229 145.54 16.3447 145.361 16.7736Z" fill="white"/>
<path d="M156.973 17.167L154.615 24.2093C154.364 25.0315 154.043 25.7107 153.65 26.2826C153.293 26.8546 152.828 27.3551 152.328 27.7125C151.828 28.1058 151.22 28.3917 150.506 28.5705C149.827 28.7492 149.005 28.8564 148.076 28.8564C147.219 28.8564 146.504 28.7492 145.897 28.499C145.289 28.2487 144.896 27.9628 144.646 27.6053C144.396 27.2478 144.36 26.8546 144.468 26.4614C144.575 26.1754 144.753 25.9252 145.004 25.7464C145.289 25.5677 145.539 25.4604 145.825 25.4604C146.183 25.4604 146.468 25.6034 146.611 25.9252C146.683 26.0681 146.79 26.2469 146.861 26.4256C146.933 26.6044 147.076 26.7116 147.183 26.8546C147.326 26.9618 147.505 27.0691 147.719 27.1048C147.933 27.1763 148.219 27.1763 148.541 27.1763C149.184 27.1763 149.72 27.1048 150.113 26.9261C150.541 26.7473 150.863 26.4971 151.113 26.1754C151.363 25.8537 151.542 25.5319 151.685 25.1745C151.828 24.817 152.042 24.245 152.328 23.4586C151.756 23.9948 151.185 24.388 150.613 24.6382C150.006 24.9242 149.398 25.0315 148.684 25.0315C147.862 25.0315 147.183 24.817 146.719 24.4238C146.218 23.9948 145.932 23.4228 145.861 22.6721C145.79 21.9214 145.897 21.0635 146.218 20.0983C146.468 19.3834 146.79 18.7042 147.183 18.1322C147.576 17.5602 148.04 17.0598 148.541 16.6308C149.041 16.2376 149.577 15.9159 150.148 15.7014C150.72 15.4869 151.292 15.3796 151.863 15.3796C152.578 15.3796 153.15 15.5226 153.578 15.7729C154.007 16.0231 154.364 16.4521 154.615 17.024L154.722 16.7023C154.865 16.2733 155.079 15.9516 155.365 15.7371C155.651 15.5226 155.972 15.3796 156.294 15.3796C156.758 15.3796 157.044 15.5226 157.08 15.8444C157.258 16.1661 157.187 16.5951 156.973 17.167ZM148.755 20.2413C148.433 21.2422 148.398 21.9572 148.684 22.4576C148.969 22.9581 149.434 23.2083 150.148 23.2083C150.577 23.2083 150.97 23.1011 151.435 22.8866C151.863 22.6721 152.292 22.3504 152.649 21.9214C153.042 21.4925 153.328 20.9562 153.507 20.3485C153.828 19.3476 153.864 18.5969 153.614 18.025C153.364 17.4887 152.864 17.2028 152.114 17.2028C151.399 17.2028 150.756 17.453 150.148 17.9892C149.541 18.5254 149.077 19.2761 148.755 20.2413Z" fill="white"/>
<path d="M163.261 13.2703L162.082 16.8808C162.511 16.5234 162.904 16.2374 163.297 16.0229C163.654 15.8084 164.047 15.6654 164.44 15.5582C164.833 15.4509 165.262 15.4152 165.655 15.4152C166.298 15.4152 166.798 15.5582 167.191 15.8084C167.584 16.0586 167.834 16.4519 167.977 16.9523C168.048 17.2383 168.084 17.56 168.013 17.9175C167.941 18.275 167.834 18.704 167.691 19.1687L166.155 23.8158C165.976 24.3163 165.762 24.6738 165.44 24.924C165.119 25.1743 164.797 25.2815 164.404 25.2815C163.582 25.2815 163.332 24.781 163.654 23.8158L165.012 19.7049C165.262 18.9184 165.333 18.3465 165.262 17.9175C165.19 17.4885 164.797 17.2741 164.118 17.2741C163.69 17.2741 163.225 17.3813 162.796 17.6315C162.368 17.8818 161.975 18.2035 161.653 18.6325C161.403 18.9899 161.117 19.6334 160.796 20.5628L159.724 23.7801C159.581 24.2448 159.331 24.638 159.009 24.8883C158.688 25.1385 158.366 25.2815 157.973 25.2815C157.151 25.2815 156.901 24.781 157.223 23.8158L160.724 13.2703C160.903 12.7699 161.117 12.4124 161.403 12.1622C161.689 11.9119 162.046 11.8047 162.439 11.8047C162.832 11.8047 163.082 11.9119 163.225 12.1622C163.439 12.4124 163.439 12.7699 163.261 13.2703Z" fill="white"/>
<path d="M171.478 15.6297H171.764L172.264 14.1641C172.407 13.7709 172.514 13.4491 172.586 13.2346C172.693 13.0202 172.8 12.8057 172.943 12.6627C173.086 12.4839 173.265 12.3767 173.479 12.2695C173.693 12.1622 173.908 12.1265 174.158 12.1265C174.479 12.1265 174.73 12.2337 174.908 12.4839C175.015 12.6269 175.087 12.8414 175.051 13.0559C175.015 13.2704 174.944 13.5921 174.801 14.0211L174.265 15.6655H175.158C175.516 15.6655 175.766 15.737 175.873 15.9157C176.016 16.0944 176.016 16.2732 175.944 16.5592C175.837 16.8809 175.623 17.1311 175.337 17.2384C175.015 17.3813 174.622 17.4171 174.122 17.4171H173.658L172.157 21.8855C172.014 22.2788 171.943 22.5647 171.907 22.7792C171.871 22.9937 171.871 23.1367 171.943 23.2797C172.014 23.4227 172.193 23.4584 172.443 23.4584C172.586 23.4584 172.8 23.4227 173.05 23.3869C173.3 23.3512 173.515 23.3154 173.658 23.3154C173.872 23.3154 174.015 23.3869 174.122 23.5657C174.229 23.7087 174.229 23.9231 174.158 24.1376C174.015 24.5308 173.693 24.8168 173.193 25.0313C172.693 25.2458 172.014 25.353 171.192 25.353C170.406 25.353 169.871 25.2101 169.549 24.9598C169.227 24.7096 169.084 24.3521 169.12 23.8874C169.156 23.4227 169.299 22.8507 169.549 22.0643L171.085 17.4171H170.764C170.406 17.4171 170.156 17.3456 170.013 17.1669C169.871 16.9881 169.871 16.7736 169.942 16.5234C170.013 16.2732 170.192 16.0587 170.442 15.88C170.799 15.7012 171.121 15.6297 171.478 15.6297Z" fill="white"/>
</svg>
