<svg width="180" height="42" viewBox="0 0 180 42" fill="none" xmlns="http://www.w3.org/2000/svg">
<path d="M78.3474 4.52905H61.043V9.83342H78.3474V4.52905Z" fill="white"/>
<path d="M72.7819 11.7471H66.6949V36.9645H72.7819V11.7471Z" fill="white"/>
<path d="M86.696 4.52905H80.609V36.9639H86.696V4.52905Z" fill="white"/>
<path d="M92.3466 36.9639L89.3031 26.0074V20.703C90.9553 20.703 91.8248 19.9204 91.9118 18.4421C92.0857 16.3552 92.0857 14.2682 91.9118 12.0943C91.8248 10.616 90.9553 9.83342 89.3031 9.83342V4.52905C92.3466 4.52905 94.5205 5.13775 95.8249 6.35514C97.1292 7.57254 97.9118 9.57255 97.9988 12.4421C97.9988 13.2247 97.9988 13.8334 98.0857 14.4421C98.1727 15.0508 98.0857 15.5726 98.0857 16.1813C98.0857 16.79 98.0857 17.3987 97.9988 18.1813C97.9118 21.5726 96.7814 23.8335 94.8683 24.9639L98.6944 37.0509H92.3466V36.9639Z" fill="white"/>
<path d="M100.522 36.9639L105.044 4.52905H115.565L116.174 9.92037H109.565L109.391 17.4856L108.435 24.8769H111.218L109.826 30.1813H107.826L106.783 36.9639H100.522Z" fill="white"/>
<path d="M113.652 36.964L111.304 17.4856L111.13 11.9204H116.348L119.913 36.964H113.652Z" fill="white"/>
<path d="M127.826 5.39862V36.0944H123.478V5.39862H127.826ZM128.696 4.52905H122.609V36.9639H128.696V4.52905Z" fill="white"/>
<path d="M131.392 36.9641V31.6598C133.131 31.6598 134.001 30.8771 134.001 29.3989C134.175 23.6597 134.175 17.9206 134.001 12.1814C134.001 10.7032 133.044 9.92057 131.392 9.92057V4.61621C134.435 4.61621 136.609 5.22491 138.001 6.52926C139.392 7.83361 140.088 9.92057 140.088 12.8771C140.088 14.7902 140.175 16.5293 140.175 18.1815C140.175 19.8336 140.175 21.5728 140.175 23.225C140.175 24.8771 140.175 26.7032 140.088 28.5293C140.001 31.4858 139.305 33.6598 138.001 34.9641C136.696 36.2685 134.435 36.9641 131.392 36.9641Z" fill="white"/>
<path d="M150 4.52905H143.913V36.9639H150V4.52905Z" fill="white"/>
<path d="M158.696 4.52905H152.696V9.83342H158.696V4.52905Z" fill="white"/>
<path d="M158.348 17.7468H152.696V23.0512H158.348V17.7468Z" fill="white"/>
<path d="M158.696 31.5728H152.696V36.8771H158.696V31.5728Z" fill="white"/>
<path d="M167.913 4.52905H161.826V36.9639H167.913V4.52905Z" fill="white"/>
<path d="M173.651 36.9639L170.608 26.0074V20.703C172.26 20.703 173.129 19.9204 173.216 18.4421C173.39 16.3552 173.39 14.2682 173.216 12.0943C173.129 10.616 172.26 9.83342 170.608 9.83342V4.52905C173.651 4.52905 175.825 5.13775 177.129 6.35514C178.434 7.57254 179.216 9.57255 179.303 12.4421C179.303 13.2247 179.303 13.8334 179.39 14.4421C179.39 15.0508 179.39 15.5726 179.39 16.1813C179.39 16.79 179.39 17.3987 179.303 18.1813C179.216 21.5726 178.086 23.8335 176.173 24.9639L179.999 37.0509H173.651V36.9639Z" fill="white"/>
<path d="M1.77367 37.0259V38.3062H0.869995V31.9051H1.54775L1.62306 32.4323C1.69836 32.357 1.69836 32.2817 1.77367 32.2064C1.84897 32.1311 1.92428 32.0557 1.99959 32.0557C2.07489 31.9804 2.1502 31.9804 2.2255 31.9051C2.30081 31.8298 2.45142 31.8298 2.52673 31.8298C2.60203 31.8298 2.60203 31.8298 2.67734 31.8298C2.75264 31.8298 2.82795 31.8298 2.90326 31.9051C2.97856 31.9804 3.05387 31.9804 3.12918 32.0557C3.20448 32.1311 3.27979 32.2064 3.35509 32.357C3.4304 32.5076 3.4304 32.6582 3.50571 32.8088C3.50571 33.0347 3.58101 33.2606 3.58101 33.4866V34.9174C3.58101 35.2186 3.58101 35.4445 3.50571 35.5951C3.50571 35.8211 3.4304 35.9717 3.35509 36.047C3.27979 36.1223 3.20448 36.2729 3.12918 36.3482C3.05387 36.4235 2.97856 36.4988 2.90326 36.4988C2.82795 36.4988 2.75264 36.5741 2.67734 36.5741C2.60203 36.5741 2.52673 36.5741 2.45142 36.5741C2.30081 36.5741 2.07489 36.5741 1.99959 36.4988C1.84897 36.4235 1.77367 36.3482 1.69836 36.2729L1.77367 37.0259ZM1.77367 35.7457C1.77367 35.8211 1.84897 35.821 1.84897 35.8964C1.84897 35.9717 1.92428 35.9717 1.92428 35.9717C1.92428 35.9717 1.99958 36.047 2.07489 36.047C2.1502 36.047 2.1502 36.047 2.2255 36.047C2.30081 36.047 2.37612 36.047 2.37612 36.047C2.37612 36.047 2.45142 35.9717 2.52673 35.8964C2.60203 35.821 2.60203 35.7457 2.60203 35.5951C2.60203 35.4445 2.60203 35.3692 2.60203 35.1433V33.336C2.60203 33.1853 2.60203 33.0347 2.60203 32.8841C2.60203 32.8088 2.52673 32.6582 2.52673 32.5829C2.52673 32.5076 2.45142 32.5076 2.37612 32.4323C2.30081 32.4323 2.2255 32.4323 2.2255 32.4323C2.1502 32.4323 1.99958 32.4323 1.92428 32.5076C1.84897 32.5829 1.77367 32.6582 1.77367 32.7335V35.7457Z" fill="white"/>
<path d="M5.4632 36.7999C5.23728 36.7999 5.08667 36.7246 4.93605 36.6493C4.78544 36.574 4.63483 36.4234 4.55952 36.2728C4.48422 36.1222 4.33361 35.8962 4.33361 35.6703C4.2583 35.4444 4.2583 35.1432 4.2583 34.7667V33.863C4.2583 33.5618 4.2583 33.2605 4.33361 33.1099C4.40891 32.9593 4.40891 32.7334 4.48422 32.5828C4.55952 32.4322 4.63483 32.2816 4.71014 32.2063C4.78544 32.1309 4.93606 32.0556 5.01136 31.9803C5.08667 31.905 5.23728 31.905 5.31258 31.905C5.38789 31.905 5.5385 31.905 5.61381 31.905C5.76442 31.905 5.91503 31.905 6.06564 31.9803C6.21626 32.0556 6.36687 32.1309 6.44217 32.2063C6.51748 32.2816 6.66809 32.5075 6.7434 32.6581C6.81871 32.884 6.8187 33.1099 6.8187 33.4111C6.8187 33.4865 6.8187 33.6371 6.8187 33.7124C6.8187 33.7877 6.8187 33.9383 6.8187 34.0136C6.8187 34.0889 6.8187 34.2395 6.8187 34.3148C6.8187 34.3901 6.81871 34.4654 6.7434 34.5407H5.16197V34.9926C5.16197 35.2185 5.16197 35.3691 5.16197 35.5197C5.16197 35.6703 5.23728 35.7456 5.23728 35.8962C5.23728 36.0469 5.31259 36.0469 5.38789 36.1222C5.4632 36.1975 5.5385 36.1975 5.61381 36.1975C5.68911 36.1975 5.68912 36.1975 5.76442 36.1975C5.83973 36.1975 5.83973 36.1222 5.91503 36.1222C5.99034 36.0469 5.99034 35.9716 5.99034 35.8962C5.99034 35.8209 5.99034 35.6703 5.99034 35.595V35.4444H6.7434V35.595C6.7434 36.0469 6.66809 36.3481 6.44217 36.574C6.21626 36.6493 5.91503 36.7999 5.4632 36.7999ZM5.99034 33.863V33.7877C5.99034 33.7124 5.99034 33.7124 5.99034 33.6371C5.99034 33.5618 5.99034 33.5618 5.99034 33.4865C5.99034 33.4111 5.99034 33.4112 5.99034 33.3358C5.99034 33.0346 5.99034 32.8087 5.91503 32.6581C5.83973 32.5075 5.76442 32.4322 5.61381 32.4322C5.5385 32.4322 5.4632 32.4322 5.38789 32.5075C5.31259 32.5828 5.31258 32.5828 5.23728 32.6581C5.23728 32.7334 5.16197 32.884 5.16197 32.9593C5.16197 33.0346 5.16197 33.2605 5.16197 33.4865V33.863H5.99034Z" fill="white"/>
<path d="M7.57178 31.905H8.24953L8.32484 32.4322C8.40014 32.3569 8.47545 32.2062 8.55076 32.1309C8.62606 32.0556 8.70137 31.9803 8.77668 31.9803C8.85198 31.905 8.92729 31.905 9.0779 31.905C9.1532 31.905 9.22851 31.905 9.37912 31.905C9.68035 31.905 9.90626 31.9803 10.0569 32.2063C10.2075 32.4322 10.2828 32.7334 10.2828 33.1099V36.7999H9.37912V33.1099C9.37912 32.884 9.37912 32.7334 9.30382 32.6581C9.22851 32.5828 9.15321 32.5075 9.00259 32.5075C8.92729 32.5075 8.85198 32.5075 8.70137 32.5828C8.55076 32.6581 8.55076 32.7334 8.47545 32.8087V36.7246H7.57178V31.905Z" fill="white"/>
<path d="M12.2414 36.7999C12.0155 36.7999 11.8649 36.7246 11.7143 36.6493C11.5636 36.574 11.413 36.4234 11.3377 36.2728C11.2624 36.1222 11.1118 35.8962 11.1118 35.6703C11.0365 35.4444 11.0365 35.1432 11.0365 34.7667V33.863C11.0365 33.5618 11.0365 33.2605 11.1118 33.1099C11.1871 32.9593 11.1871 32.7334 11.2624 32.5828C11.3377 32.4322 11.413 32.2816 11.4883 32.2063C11.5636 32.1309 11.7143 32.0556 11.7896 31.9803C11.8649 31.905 12.0155 31.905 12.0908 31.905C12.1661 31.905 12.3167 31.905 12.392 31.905C12.5426 31.905 12.6932 31.905 12.8438 31.9803C12.9945 32.0556 13.1451 32.1309 13.2204 32.2063C13.2957 32.2816 13.4463 32.5075 13.5216 32.6581C13.5969 32.884 13.5969 33.1099 13.5969 33.4111C13.5969 33.4865 13.5969 33.6371 13.5969 33.7124C13.5969 33.7877 13.5969 33.9383 13.5969 34.0136C13.5969 34.0889 13.5969 34.2395 13.5969 34.3148C13.5969 34.3901 13.5969 34.4654 13.5216 34.5407H11.9402V34.9926C11.9402 35.2185 11.9402 35.3691 11.9402 35.5197C11.9402 35.6703 12.0155 35.7456 12.0155 35.8962C12.0155 36.0469 12.0908 36.0469 12.1661 36.1222C12.2414 36.1975 12.3167 36.1975 12.392 36.1975C12.4673 36.1975 12.4673 36.1975 12.5426 36.1975C12.6179 36.1975 12.6179 36.1222 12.6932 36.1222C12.7685 36.0469 12.7685 35.9716 12.7685 35.8962C12.7685 35.8209 12.7685 35.6703 12.7685 35.595V35.4444H13.5216V35.595C13.5216 36.0469 13.4463 36.3481 13.2204 36.574C12.9945 36.6493 12.6932 36.7999 12.2414 36.7999ZM12.7685 33.863V33.7877C12.7685 33.7124 12.7685 33.7124 12.7685 33.6371C12.7685 33.5618 12.7685 33.5618 12.7685 33.4865C12.7685 33.4111 12.7685 33.4112 12.7685 33.3358C12.7685 33.0346 12.7685 32.8087 12.6932 32.6581C12.6179 32.5075 12.5426 32.4322 12.392 32.4322C12.3167 32.4322 12.2414 32.4322 12.1661 32.5075C12.0908 32.5828 12.0908 32.5828 12.0155 32.6581C12.0155 32.7334 11.9402 32.884 11.9402 32.9593C11.9402 33.0346 11.9402 33.2605 11.9402 33.4865V33.863H12.7685Z" fill="white"/>
<path d="M14.3506 31.905H15.0283L15.1036 32.4322C15.1789 32.3569 15.2542 32.2062 15.3296 32.1309C15.4049 32.0556 15.4802 31.9803 15.5555 31.9803C15.6308 31.905 15.7061 31.905 15.7814 31.905C15.8567 31.905 15.932 31.905 16.0826 31.905C16.3085 31.905 16.4591 31.9803 16.5344 32.0556C16.6851 32.1309 16.7604 32.2816 16.8357 32.4322C16.911 32.3569 16.9863 32.2063 17.0616 32.2063C17.1369 32.1309 17.2122 32.0556 17.2875 32.0556C17.3628 32.0556 17.4381 31.9803 17.5134 31.9803C17.5887 31.9803 17.664 31.9803 17.7393 31.9803C18.0406 31.9803 18.2665 32.0556 18.4171 32.2816C18.5677 32.5075 18.643 32.8087 18.643 33.1852V36.8752H17.7393V33.1099C17.7393 33.0346 17.7393 32.884 17.7393 32.8087C17.7393 32.7334 17.664 32.6581 17.664 32.6581C17.664 32.5828 17.5887 32.5828 17.5134 32.5828C17.4381 32.5828 17.4381 32.5828 17.3628 32.5828C17.2875 32.5828 17.2122 32.5828 17.1369 32.6581C17.0616 32.7334 16.9863 32.8087 16.911 32.884V32.9593V33.0346V36.7999H16.0073V33.1099C16.0073 33.0346 16.0073 32.884 16.0073 32.8087C16.0073 32.7334 15.932 32.6581 15.932 32.6581C15.932 32.6581 15.8567 32.5828 15.7814 32.5828C15.7061 32.5828 15.6308 32.5828 15.6308 32.5828C15.5555 32.5828 15.4802 32.5828 15.4049 32.6581C15.3296 32.7334 15.2542 32.8087 15.1789 32.884V36.7999H14.2753V31.905H14.3506Z" fill="white"/>
<path d="M19.6217 30.3989H20.5254V31.6791V32.2816C20.6007 32.2063 20.6007 32.2063 20.676 32.131C20.7513 32.0557 20.7513 32.0557 20.8266 31.9804C20.9019 31.905 20.9772 31.905 21.0525 31.905C21.1278 31.905 21.2031 31.905 21.3537 31.905C21.429 31.905 21.429 31.905 21.5044 31.905C21.5797 31.905 21.655 31.905 21.7303 31.9804C21.8056 31.9804 21.8809 32.0557 21.9562 32.131C22.0315 32.2063 22.1068 32.2816 22.1821 32.4322C22.2574 32.5828 22.2574 32.7334 22.3327 32.884C22.3327 33.1099 22.408 33.3359 22.408 33.5618V34.9926C22.408 35.2938 22.408 35.5197 22.3327 35.6703C22.3327 35.8963 22.2574 36.0469 22.1821 36.1222C22.1068 36.2728 22.0315 36.3481 21.9562 36.4234C21.8809 36.4987 21.8056 36.574 21.7303 36.574C21.655 36.574 21.5797 36.6493 21.5044 36.6493C21.429 36.6493 21.3537 36.6493 21.2784 36.6493C21.2031 36.6493 21.0525 36.6493 20.9772 36.574C20.9019 36.4987 20.8266 36.4987 20.7513 36.4234C20.676 36.3481 20.6007 36.3481 20.6007 36.2728C20.5254 36.1975 20.5254 36.1222 20.4501 36.1222L20.3748 36.574H19.697V30.3989H19.6217ZM20.5254 35.7457C20.5254 35.821 20.6007 35.821 20.6007 35.8963C20.6007 35.9716 20.676 35.9716 20.676 35.9716C20.676 35.9716 20.7513 36.0469 20.8266 36.0469C20.9019 36.0469 20.9019 36.0469 20.9772 36.0469C21.0525 36.0469 21.1278 36.0469 21.1278 36.0469C21.1278 36.0469 21.2031 35.9716 21.2784 35.8963C21.3537 35.821 21.3537 35.7457 21.3537 35.595C21.3537 35.4444 21.3537 35.3691 21.3537 35.1432V33.3359C21.3537 33.1853 21.3537 33.0346 21.3537 32.884C21.3537 32.8087 21.2784 32.6581 21.2784 32.5828C21.2031 32.5075 21.2031 32.5075 21.1278 32.4322C21.0525 32.4322 20.9772 32.4322 20.9772 32.4322C20.9019 32.4322 20.7513 32.4322 20.676 32.5075C20.6007 32.5828 20.5254 32.6581 20.5254 32.7334V35.7457Z" fill="white"/>
<path d="M23.7626 36.7999C23.612 36.7999 23.4613 36.7999 23.386 36.7246C23.3107 36.6493 23.1601 36.574 23.0848 36.4987C23.0095 36.4234 22.9342 36.2728 22.9342 36.1222C22.8589 35.9716 22.8589 35.8209 22.8589 35.6703C22.8589 35.4444 22.8589 35.2938 22.9342 35.1432C23.0095 34.9926 23.0848 34.842 23.1601 34.6913C23.2354 34.5407 23.386 34.4654 23.5366 34.3901C23.6873 34.3148 23.8379 34.1642 23.9885 34.0889C24.0638 34.0136 24.2144 34.0136 24.2897 33.9383C24.365 33.863 24.5156 33.863 24.5909 33.7877V33.1852C24.5909 33.1099 24.5909 33.0346 24.5909 32.9593C24.5909 32.884 24.5909 32.8087 24.5156 32.7334C24.5156 32.6581 24.4403 32.6581 24.365 32.5828C24.2897 32.5828 24.2144 32.5075 24.1391 32.5075C24.0638 32.5075 23.9885 32.5075 23.9885 32.5075C23.9132 32.5075 23.9132 32.5828 23.8379 32.6581C23.7626 32.7334 23.7626 32.8087 23.7626 32.884C23.7626 32.9593 23.6873 33.1099 23.6873 33.2605V33.4865H23.0095C23.0095 33.4111 23.0095 33.3358 22.9342 33.2605C22.9342 33.1852 22.9342 33.1099 22.9342 33.0346C22.9342 32.884 22.9342 32.7334 23.0095 32.5828C23.0848 32.4322 23.1601 32.3569 23.2354 32.2063C23.3107 32.1309 23.4613 32.0556 23.6119 31.9803C23.7626 31.905 23.9132 31.905 24.1391 31.905C24.365 31.905 24.5909 31.905 24.7415 31.9803C24.8921 32.0556 25.0428 32.1309 25.1181 32.2063C25.1934 32.2816 25.2687 32.4322 25.344 32.5828C25.4193 32.7334 25.4193 32.9593 25.4193 33.1099V36.7246H24.7415L24.6662 36.3481C24.5909 36.4987 24.4403 36.574 24.2897 36.6493C24.1391 36.7246 23.9885 36.7999 23.7626 36.7999ZM24.1391 36.1222C24.2144 36.1222 24.2897 36.1222 24.365 36.0469C24.4403 35.9716 24.5156 35.9716 24.5156 35.8962V34.3901C24.4403 34.3901 24.4403 34.4654 24.365 34.4654C24.2897 34.4654 24.2144 34.5407 24.1391 34.5407C24.0638 34.616 23.9885 34.616 23.9885 34.6913C23.9132 34.7667 23.8379 34.842 23.8379 34.9173C23.7626 34.9926 23.7626 35.0679 23.6873 35.1432C23.6873 35.2185 23.6119 35.3691 23.6119 35.4444C23.6119 35.595 23.6119 35.7456 23.6873 35.8962C23.7626 36.0469 23.9885 36.1222 24.1391 36.1222Z" fill="white"/>
<path d="M26.3235 30.3989H27.2272V34.0889L28.2061 31.9804H29.0345L27.9802 34.1642L29.1851 36.7999H28.2814L27.3025 34.3901V36.7999H26.3988V30.3989H26.3235Z" fill="white"/>
<path d="M31.1425 31.9052H32.0462V37.0261C32.0462 37.252 32.0462 37.4779 31.9709 37.6285C31.8956 37.7791 31.8203 37.9297 31.7449 38.005C31.6696 38.0803 31.519 38.1556 31.4437 38.1556C31.2931 38.1556 31.2178 38.231 31.0672 38.231C30.9919 38.231 30.9166 38.231 30.8413 38.231C30.766 38.231 30.6907 38.2309 30.6154 38.1556V37.6285C30.6154 37.6285 30.6154 37.6285 30.6907 37.6285C30.6907 37.6285 30.6907 37.6285 30.766 37.6285C30.8413 37.6285 30.8413 37.6285 30.9166 37.6285C30.9919 37.6285 30.9919 37.5532 31.0672 37.5532C31.0672 37.4779 31.1425 37.4779 31.1425 37.4026C31.1425 37.3273 31.1425 37.252 31.1425 37.1014V31.9052ZM31.5943 31.2275C31.4437 31.2275 31.2931 31.1522 31.2178 31.0769C31.1425 31.0016 31.0672 30.851 31.0672 30.625C31.0672 30.5497 31.0672 30.3991 31.0672 30.3238C31.0672 30.2485 31.1425 30.1732 31.1425 30.1732C31.2178 30.0979 31.2178 30.0979 31.2931 30.0979C31.3684 30.0979 31.4437 30.0979 31.519 30.0979C31.6696 30.0979 31.8203 30.1732 31.8956 30.2485C31.9709 30.3238 32.0462 30.4744 32.0462 30.7004C32.0462 30.851 31.9709 31.0016 31.8956 31.1522C31.8956 31.1522 31.8202 31.2275 31.5943 31.2275Z" fill="white"/>
<path d="M33.4777 31.2275C33.3271 31.2275 33.1765 31.1522 33.1012 31.0769C33.0259 31.0016 32.9506 30.851 32.9506 30.625C32.9506 30.5497 32.9506 30.3991 32.9506 30.3238C32.9506 30.2485 33.0259 30.1732 33.0259 30.1732C33.1012 30.0979 33.1012 30.0979 33.1765 30.0979C33.2518 30.0979 33.3271 30.0979 33.4024 30.0979C33.553 30.0979 33.7036 30.1732 33.7789 30.2485C33.8542 30.3238 33.9295 30.4744 33.9295 30.7004C33.9295 30.851 33.8542 31.0016 33.7789 31.1522C33.7789 31.1522 33.6283 31.2275 33.4777 31.2275ZM32.9506 31.9052H33.8542V36.7248H32.9506V31.9052Z" fill="white"/>
<path d="M34.9083 32.5831H34.5317V31.9806H34.9836L35.1342 30.7004H35.7366V31.9806H36.4897V32.5831H35.7366V35.6706C35.7366 35.7459 35.7366 35.8966 35.7366 35.8966L35.8119 36.0472C35.8119 36.0472 35.8872 36.1225 35.9626 36.1225C36.0379 36.1225 36.0379 36.1225 36.1132 36.1225C36.1885 36.1225 36.2638 36.1225 36.3391 36.1225C36.4144 36.1225 36.4897 36.0472 36.565 36.0472V36.499C36.4897 36.5743 36.4897 36.6496 36.4144 36.6496C36.3391 36.7249 36.2638 36.7249 36.2638 36.7249C36.1885 36.7249 36.1132 36.8002 36.0379 36.8002C35.9626 36.8002 35.8873 36.8002 35.8119 36.8002C35.6613 36.8002 35.586 36.8002 35.4354 36.7249C35.2848 36.7249 35.2095 36.6496 35.1342 36.5743C35.0589 36.499 34.9836 36.3484 34.9083 36.1978C34.833 36.0472 34.833 35.8212 34.833 35.5953V32.5831H34.9083Z" fill="white"/>
<path d="M37.1676 31.905H38.0713V35.5197C38.0713 35.7456 38.0713 35.8963 38.1466 35.9716C38.2219 36.0469 38.2972 36.1222 38.4478 36.1222C38.5231 36.1222 38.5984 36.1222 38.6737 36.0469C38.749 35.9716 38.8243 35.8962 38.8996 35.8209V31.905H39.8033V36.7246H39.1256L39.0503 36.1975C38.9749 36.2728 38.8996 36.4234 38.8243 36.4987C38.749 36.574 38.6737 36.6493 38.5984 36.6493C38.5231 36.7246 38.4478 36.7246 38.3725 36.7246C38.2972 36.7246 38.2219 36.7246 38.0713 36.7246C37.7701 36.7246 37.5441 36.6493 37.3935 36.4234C37.2429 36.1975 37.1676 35.8962 37.1676 35.5197V31.905Z" fill="white"/>
<path d="M42.2882 30.7756H44.4721V31.4534H43.1919V33.2607H44.1709V33.9385H43.1919V35.9718H44.5474V36.6495H42.2882V30.7756Z" fill="white"/>
<path d="M45.1489 30.7756H46.0526V35.1434C46.0526 35.294 46.0526 35.5199 46.0526 35.5952C46.0526 35.7458 46.1279 35.8211 46.1279 35.8964C46.2032 35.9717 46.2032 36.0471 46.2785 36.0471C46.3538 36.0471 46.4291 36.1224 46.5044 36.1224C46.5797 36.1224 46.655 36.1224 46.7303 36.0471C46.8057 36.0471 46.881 35.9717 46.881 35.8964C46.9563 35.8211 46.9563 35.7458 46.9563 35.5952C46.9563 35.4446 46.9563 35.294 46.9563 35.1434V30.7756H47.8599V34.9175C47.8599 35.2187 47.8599 35.4446 47.7846 35.6705C47.7093 35.8964 47.7093 36.0471 47.634 36.1977C47.5587 36.3483 47.4834 36.4236 47.3328 36.4989C47.1822 36.5742 47.1069 36.6495 47.0316 36.6495C46.9563 36.6495 46.8057 36.7248 46.7303 36.7248C46.655 36.7248 46.5044 36.7248 46.4291 36.7248C46.3538 36.7248 46.2785 36.7248 46.1279 36.7248C46.0526 36.7248 45.902 36.6495 45.8267 36.6495C45.7514 36.5742 45.6007 36.5742 45.5254 36.4989C45.4501 36.4236 45.3748 36.273 45.2995 36.1977C45.2242 36.1224 45.1489 35.8964 45.1489 35.6705C45.0736 35.4446 45.0736 35.2187 45.0736 34.9175V30.7756H45.1489Z" fill="white"/>
<path d="M48.99 30.7756H49.969C50.0443 30.7756 50.1949 30.7756 50.3455 30.7756C50.4961 30.7756 50.6467 30.7756 50.722 30.8509C50.8726 30.8509 50.9479 30.9262 51.0986 31.0015C51.2492 31.0769 51.3245 31.1522 51.3998 31.3028C51.4751 31.4534 51.5504 31.604 51.6257 31.7546C51.701 31.9052 51.701 32.2064 51.701 32.4324V32.583C51.701 33.0348 51.6257 33.4113 51.4751 33.7126C51.3245 34.0138 51.1739 34.2397 50.8726 34.315L51.8516 36.7248H50.8726L50.0443 34.4656H49.8937V36.7248H48.99V30.7756ZM50.0443 33.8632C50.1949 33.8632 50.3455 33.8632 50.4208 33.7879C50.4961 33.7879 50.6467 33.7126 50.722 33.6373C50.7973 33.562 50.8726 33.4113 50.8726 33.336C50.8726 33.2607 50.9479 33.0348 50.9479 32.8089V32.3571C50.9479 32.2064 50.9479 32.0558 50.8726 31.9805C50.7973 31.9052 50.7973 31.7546 50.722 31.6793C50.6467 31.604 50.5714 31.5287 50.4961 31.5287C50.4208 31.5287 50.2702 31.4534 50.1196 31.4534H49.8937V33.8632H50.0443Z" fill="white"/>
<path d="M52.6794 30.7756H53.5831V35.1434C53.5831 35.294 53.5831 35.5199 53.5831 35.5952C53.5831 35.7458 53.6584 35.8211 53.6584 35.8964C53.7337 35.9717 53.7337 36.0471 53.809 36.0471C53.8843 36.0471 53.9596 36.1224 54.0349 36.1224C54.1102 36.1224 54.1856 36.1224 54.2609 36.0471C54.3362 36.0471 54.4115 35.9717 54.4115 35.8964C54.4868 35.8211 54.4868 35.7458 54.4868 35.5952C54.4868 35.4446 54.4868 35.294 54.4868 35.1434V30.7756H55.3905V34.9175C55.3905 35.2187 55.3904 35.4446 55.3151 35.6705C55.2398 35.8964 55.2398 36.0471 55.1645 36.1977C55.0892 36.3483 55.0139 36.4236 54.8633 36.4989C54.7127 36.5742 54.6374 36.6495 54.5621 36.6495C54.4868 36.6495 54.3362 36.7248 54.2609 36.7248C54.1856 36.7248 54.0349 36.7248 53.9596 36.7248C53.8843 36.7248 53.809 36.7248 53.6584 36.7248C53.5831 36.7248 53.4325 36.6495 53.3572 36.6495C53.2819 36.5742 53.1313 36.5742 53.056 36.4989C52.9807 36.4236 52.9054 36.273 52.83 36.1977C52.7547 36.1224 52.6794 35.8964 52.6794 35.6705C52.6041 35.4446 52.6041 35.2187 52.6041 34.9175V30.7756H52.6794Z" fill="white"/>
<path d="M56.2959 35.5199C56.2959 35.3693 56.2959 35.294 56.2959 35.1434C56.2959 35.0681 56.2959 34.9175 56.3712 34.7669H57.0489V35.0681C57.0489 35.2187 57.0489 35.3693 57.0489 35.5199C57.0489 35.6705 57.1242 35.7458 57.1242 35.8211C57.1995 35.8964 57.1995 35.9718 57.2749 36.0471C57.3502 36.1224 57.4255 36.1224 57.5761 36.1224C57.7267 36.1224 57.8773 36.0471 57.9526 35.9718C58.0279 35.8964 58.1032 35.7458 58.1032 35.5952C58.1032 35.5199 58.1032 35.4446 58.1032 35.3693C58.1032 35.294 58.1032 35.2187 58.0279 35.1434C58.0279 35.0681 57.9526 34.9928 57.8773 34.9175C57.802 34.8422 57.7267 34.7669 57.6514 34.6162L56.6724 33.4867C56.5218 33.2607 56.3712 33.0348 56.2959 32.8089C56.2206 32.583 56.1453 32.3571 56.1453 32.1311C56.1453 31.9052 56.1453 31.7546 56.2206 31.604C56.2959 31.4534 56.3712 31.3028 56.5218 31.1522C56.6724 31.0016 56.7477 30.9262 56.9736 30.8509C57.1995 30.7756 57.3502 30.7756 57.5761 30.7756C57.802 30.7756 58.0279 30.7756 58.2538 30.8509C58.4044 30.9262 58.5551 31.0016 58.7057 31.1522C58.781 31.3028 58.8563 31.3781 58.9316 31.5287C59.0069 31.6793 59.0069 31.8299 59.0069 31.9805C59.0069 32.1311 59.0069 32.2064 59.0069 32.3571C59.0069 32.4324 58.9316 32.583 58.9316 32.7336H58.2538V32.4324C58.2538 32.1311 58.1785 31.9052 58.1032 31.6793C58.0279 31.5287 57.8773 31.4534 57.6514 31.4534C57.5008 31.4534 57.3502 31.5287 57.2749 31.604C57.1995 31.6793 57.1242 31.8299 57.1242 31.9805C57.1242 32.0558 57.1242 32.1311 57.1242 32.2065C57.1242 32.2818 57.1242 32.3571 57.1995 32.3571C57.1995 32.4324 57.2749 32.4324 57.2749 32.5077C57.2749 32.583 57.3502 32.583 57.4255 32.6583L58.4797 33.9385C58.7057 34.1644 58.781 34.3903 58.9316 34.6915C59.0822 34.9928 59.0822 35.1434 59.0822 35.4446C59.0822 35.6705 59.0822 35.8211 59.0069 36.0471C58.9316 36.1977 58.8563 36.3483 58.7057 36.4989C58.5551 36.6495 58.4044 36.7248 58.2538 36.8001C58.1032 36.8754 57.8773 36.8754 57.6514 36.8754C57.3502 36.8754 57.1242 36.8754 56.9736 36.8001C56.823 36.7248 56.6724 36.6495 56.5218 36.4989C56.4465 36.3483 56.3712 36.273 56.2959 36.1224C56.2959 35.8211 56.2959 35.6705 56.2959 35.5199Z" fill="white"/>
<path d="M59.8358 30.7756H60.7395C60.8901 30.7756 61.0407 30.7756 61.1913 30.7756C61.3419 30.7756 61.4925 30.7756 61.6432 30.8509C61.7938 30.9262 61.9444 30.9262 62.0197 31.0769C62.1703 31.1522 62.2456 31.3028 62.3962 31.4534C62.5468 31.604 62.5468 31.8299 62.6221 32.0558C62.6974 32.2818 62.6974 32.583 62.6974 32.9595V34.6162C62.6974 34.9928 62.6974 35.2187 62.6221 35.5199C62.5468 35.7458 62.4715 35.9717 62.3962 36.1224C62.3209 36.273 62.1703 36.4236 62.0197 36.4989C61.8691 36.5742 61.7185 36.6495 61.6432 36.7248C61.5679 36.8001 61.3419 36.8001 61.1913 36.8001C61.0407 36.8001 60.8901 36.8001 60.7395 36.8001H59.8358V30.7756ZM60.9654 36.1224C61.116 36.1224 61.2666 36.1224 61.3419 36.0471C61.4172 35.9718 61.5679 35.8964 61.5679 35.8211C61.5679 35.7458 61.6432 35.5952 61.7185 35.3693C61.7185 35.2187 61.7185 34.9928 61.7185 34.6915V32.8089C61.7185 32.5077 61.7185 32.2818 61.7185 32.1311C61.7185 31.9805 61.6432 31.8299 61.5679 31.6793C61.4926 31.5287 61.4172 31.5287 61.3419 31.4534C61.2666 31.3781 61.116 31.3781 60.9654 31.3781H60.7395V36.1224H60.9654Z" fill="white"/>
<path d="M165.304 2.26831H164.434V40.0952H165.304V2.26831Z" fill="white"/>
<path d="M70.1725 14.2683H69.303V41.3119H70.1725V14.2683Z" fill="white"/>
<path d="M26.9575 18.8771V24.9641H22.6097V18.8771H26.9575ZM27.8271 18.0076H21.7401V25.8337H27.8271V18.0076Z" fill="white"/>
<path d="M20.8685 15.3984H14.7815V23.2245H20.8685V15.3984Z" fill="white"/>
<path d="M18.261 13.5723H17.3915V28.5288H18.261V13.5723Z" fill="white"/>
<path d="M6.95733 15.3984H0.870361V20.5288H6.95733V15.3984Z" fill="white"/>
<path d="M4.34796 13.5723H3.47839V24.8766H4.34796V13.5723Z" fill="white"/>
<path d="M33.9139 14.5287V22.3549H29.5661V14.5287H33.9139ZM34.7835 13.6592H28.6965V23.2244H34.7835V13.6592Z" fill="white"/>
<path d="M32.1741 23.1375H31.3046V25.5722H32.1741V23.1375Z" fill="white"/>
<path d="M41.8271 19.4851H35.7401V23.2242H41.8271V19.4851Z" fill="white"/>
<path d="M39.1304 11.833H38.2609V25.5722H39.1304V11.833Z" fill="white"/>
<path d="M55.7382 15.6587H49.6512V20.0065H55.7382V15.6587Z" fill="white"/>
<path d="M53.1308 17.0503H52.2612V22.3547H53.1308V17.0503Z" fill="white"/>
<path d="M62.6938 15.9197H56.6068V24.0067H62.6938V15.9197Z" fill="white"/>
<path d="M60.0864 13.4856H59.2168V26.3552H60.0864V13.4856Z" fill="white"/>
<path d="M47.9132 16.528V17.5715H43.5654V16.528H47.9132ZM48.7828 15.6584H42.6958V18.4411H48.7828V15.6584Z" fill="white"/>
<path d="M46.088 18.4414H45.2184V20.8762H46.088V18.4414Z" fill="white"/>
<path d="M25.305 25.7463H24.4354V28.355H25.305V25.7463Z" fill="white"/>
<path d="M13.0435 15.312V22.2685H8.69562V15.312H13.0435ZM13.913 14.4424H7.82605V23.1381H13.913V14.4424Z" fill="white"/>
<path d="M11.3037 22.7029H10.4341V28.442H11.3037V22.7029Z" fill="white"/>
<path d="M126.088 36.616H125.219V39.6595H126.088V36.616Z" fill="white"/>
<path d="M8.90028 3.51071C8.90028 3.51071 12.0375 3.51071 14.6519 2.31558C14.2784 0.971048 12.5604 0 10.6183 0C8.30271 0 6.51001 1.26983 6.51001 2.91314C6.51001 4.33237 7.92923 5.22872 10.3942 5.45281C10.6183 5.45281 10.7677 5.15402 10.5436 5.00463C9.57255 4.40706 8.90028 3.51071 8.90028 3.51071Z" fill="white"/>
<path d="M12.1862 3.95828L15.3981 2.46436L18.0124 2.61375C18.3859 2.61375 18.4606 3.13662 18.0871 3.28601C17.1908 3.65949 16.4438 4.10767 14.9499 4.10767C13.456 4.10767 12.1862 3.95828 12.1862 3.95828Z" fill="white"/>
<path d="M1.35573 8.44066L0.534072 9.26231C-0.586368 10.3828 0.160592 12.3995 1.8039 12.3995H6.13627L8.37715 11.3538C8.37715 11.3538 7.70489 12.3248 7.92897 12.3995C8.15306 12.4742 9.72168 12.4742 9.87107 12.3995C10.0205 12.3248 11.5891 10.9056 11.5891 10.9056C11.5891 10.9056 11.365 12.3995 11.5891 12.4742C11.8132 12.5489 14.2781 11.4285 14.4275 11.1297C14.5769 10.9803 14.4275 10.084 14.3528 9.33701C14.2781 8.81414 13.83 8.44066 13.3071 8.44066C12.1866 8.51535 10.3192 8.59005 9.2735 9.11292C7.77958 9.85988 7.33141 10.0093 7.33141 10.0093C7.33141 10.0093 6.58445 9.11292 6.13627 9.03823C5.68809 8.96353 5.01583 9.26231 4.41826 9.33701C3.89539 9.41171 3.22313 9.5611 3.07373 9.41171C2.99904 9.26231 3.59661 8.44066 3.44721 8.36596C3.29782 8.29127 2.10269 8.36596 2.10269 8.36596L1.35573 8.44066Z" fill="white"/>
<path d="M3.29854 7.84279C2.92506 7.544 2.92506 6.94644 3.29854 6.72235C4.1202 6.12478 5.53942 5.15373 5.9876 5.07904C6.65986 5.00434 4.64307 7.17052 4.64307 7.17052C4.64307 7.17052 6.73456 5.60191 7.18273 6.12478C7.63091 6.57296 7.25743 7.24522 7.63091 7.39461C8.00439 7.544 11.291 7.99218 11.291 7.99218C11.291 7.99218 4.94185 8.51505 4.0455 8.21627C3.74672 8.06688 3.52263 7.99218 3.29854 7.84279Z" fill="white"/>
<path d="M15.2476 8.36621H21.1486C21.1486 8.36621 21.5968 9.48665 20.327 10.383C19.0571 11.2794 18.3102 11.3541 18.4596 10.9059C18.609 10.4577 18.9077 9.63604 18.2355 10.0095C17.5632 10.383 16.6669 11.4287 16.3681 11.13C16.0693 10.8312 15.3223 10.7565 15.0236 9.93483C14.6501 8.73969 15.2476 8.36621 15.2476 8.36621Z" fill="white"/>
<path d="M16.5193 4.55635H22.0468C22.0468 4.55635 23.1673 3.21182 23.7649 3.51061C24.4371 3.88409 24.3624 4.70574 24.3624 4.70574H31.9814L33.1018 6.19966C33.1018 6.19966 34.5958 6.05027 35.1186 6.49845C35.6415 6.94662 36.3885 7.69358 36.3885 7.69358C36.3885 7.69358 36.3885 6.19966 36.8366 6.19966H39.0028C39.3016 6.19966 39.6004 6.34906 39.7498 6.57314C39.9739 6.79723 40.3474 7.09602 40.9449 7.09602C41.6172 7.09602 42.1401 6.42375 43.8581 6.42375C44.9785 6.42375 46.3977 7.4695 46.3977 7.4695H58.2744V8.36585H41.3931C41.3931 8.36585 43.1111 8.81402 43.1858 8.81402C43.2605 8.81402 47.2194 9.2622 47.2194 9.2622C47.2194 9.2622 47.7423 9.63568 46.8459 9.63568C45.9496 9.63568 41.5425 10.0092 41.5425 10.0092C41.5425 10.0092 41.0943 10.9802 40.198 10.7561C39.2269 10.532 39.451 10.0092 39.1522 10.0092C38.9281 10.0092 33.9982 9.85977 33.9982 9.85977L34.0729 9.3369C34.0729 9.3369 37.9571 8.73933 37.8077 8.66463C37.6583 8.58994 34.7452 8.51524 34.7452 8.51524C34.7452 8.51524 34.8946 7.69358 34.5211 7.69358C34.1476 7.69358 33.6994 7.4695 33.6247 7.69358C33.55 7.91767 33.55 8.44054 33.6247 8.81402C33.6994 9.1875 34.4464 9.1875 33.55 9.71037C32.6537 10.2332 31.3838 10.8308 31.3838 10.8308C31.3838 10.8308 29.2177 10.4573 28.8442 10.6067C28.4707 10.7561 28.2466 10.9802 28.0972 11.1296C27.9478 11.279 30.7863 11.0549 30.861 11.279C30.9357 11.5031 31.0851 11.9513 30.7863 12.1006C30.4875 12.25 29.0683 12.6235 28.0972 12.6235C27.1262 12.6235 26.9021 12.7729 26.678 12.3247C26.4539 11.8766 26.0804 11.5031 26.4539 11.0549C26.8274 10.6067 27.649 9.71037 27.649 9.71037C27.649 9.71037 28.0972 9.3369 27.7984 8.96342C27.4997 8.58994 27.3503 8.36585 27.1262 8.58994C26.9021 8.81402 26.3045 9.2622 25.7069 9.2622C25.1094 9.2622 24.3624 9.56098 24.2877 9.11281C24.213 8.73933 23.8396 8.29115 24.5865 7.91767C25.3335 7.54419 25.6323 7.69358 26.2298 7.54419C26.8274 7.3201 27.649 6.64784 27.8731 6.94662C28.0972 7.3201 28.4707 7.91767 29.143 8.21646C29.7405 8.51524 30.6369 8.88872 30.861 8.51524C31.1598 8.14176 30.114 6.87193 30.4128 6.72254C30.7863 6.57314 31.0104 6.27436 31.3091 6.72254C31.6079 7.17071 31.6826 7.91767 32.1308 7.4695C32.579 7.09602 32.6537 6.12497 32.1308 6.05027C31.6079 5.90088 31.0104 5.75149 30.6369 5.75149C30.2634 5.75149 29.9646 6.12497 29.5164 6.49845C29.143 6.87193 28.5454 7.09602 28.0972 6.72254C27.649 6.34906 27.0515 5.82618 26.4539 6.12497C25.8563 6.42375 25.2588 6.49845 24.8853 6.42375C24.5118 6.27436 24.1383 6.12497 23.7649 6.72254C23.3167 7.3201 23.0179 7.54419 22.3456 7.54419C21.6734 7.54419 17.7892 7.17071 17.4904 7.17071C17.1916 7.17071 17.1169 6.42375 17.7145 6.27436C18.312 6.12497 20.5529 6.12497 20.5529 6.12497C20.5529 6.12497 20.3288 5.67679 20.6276 5.6021C20.9264 5.5274 21.2999 5.6021 21.2999 5.4527C21.3746 5.30331 20.777 5.37801 19.5072 5.4527C18.2374 5.5274 15.3989 5.4527 14.9507 5.4527C14.5026 5.4527 16.5193 4.55635 16.5193 4.55635Z" fill="white"/>
<path d="M13.2317 7.31966C13.3064 7.31966 14.128 7.54375 14.128 7.54375H17.7134C17.7134 7.54375 17.7134 6.19922 15.9954 6.19922C14.2774 6.19922 13.2317 7.31966 13.2317 7.31966Z" fill="white"/>
<path d="M12.3373 5.45276C12.3373 5.45276 14.5035 5.37806 14.6529 5.30337C14.7276 5.22867 15.8481 4.78049 14.6529 4.7058C13.4578 4.55641 11.9639 5.07928 11.9639 5.07928L12.3373 5.45276Z" fill="white"/>
<path d="M10.0178 6.94682C10.0925 6.72273 12.2587 6.57334 12.5575 6.72273C12.8563 6.87212 13.3044 7.17091 12.8563 7.3203C12.4081 7.46969 11.213 7.3203 10.9142 7.3203C10.6154 7.3203 10.0178 6.94682 10.0178 6.94682Z" fill="white"/>
<path d="M22.1954 11.2044C22.1954 11.2044 22.793 9.85991 23.6146 9.63582C24.4363 9.41174 25.7061 9.85991 25.7061 10.0093C25.7808 10.084 25.7061 10.6816 25.4073 11.055C25.1085 11.4285 24.4363 12.1755 22.9424 12.1755C21.4484 12.1755 22.1954 11.2044 22.1954 11.2044Z" fill="white"/>
</svg>
