<svg width="146" height="24" viewBox="0 0 146 24" fill="none" xmlns="http://www.w3.org/2000/svg">
<path d="M17.4995 0.676758L12.0076 10.9624L6.51578 0.676758H3.11827L0 23.2493H4.2818L6.23653 8.12336L12.0076 18.5021L17.8253 8.12336L19.7335 23.2493H24.0153L20.897 0.676758H17.4995Z" fill="#97A1D1"/>
<path d="M39.5136 20.1308C39.3274 20.0377 39.1878 19.805 39.0947 19.4327C39.0016 19.0603 39.0016 18.5018 39.0016 17.6641V13.2892C39.0016 11.7534 38.7689 10.4967 38.3035 9.51937C37.8381 8.58855 37.14 7.89043 36.3022 7.42502C35.4179 7.00614 34.394 6.77344 33.184 6.77344C32.2066 6.77344 31.1827 6.91306 30.2053 7.14577C29.228 7.37847 28.2506 7.7508 27.2732 8.21622L27.6456 11.4741C28.4833 11.0552 29.2745 10.7294 29.9726 10.5433C30.6707 10.3571 31.3689 10.264 32.067 10.264C33.0909 10.264 33.8355 10.4967 34.2544 10.9156C34.6733 11.3345 34.906 11.9861 34.9525 12.9169C34.3475 12.9169 33.6494 13.01 32.8582 13.1496C32.067 13.2892 31.2758 13.4754 30.438 13.7081C29.6468 13.9408 28.8556 14.3131 28.1575 14.732C27.4594 15.1509 26.9009 15.7094 26.482 16.3609C26.0632 17.0125 25.8304 17.8037 25.8304 18.688C25.8304 19.7119 26.0632 20.5962 26.482 21.2943C26.9009 21.9924 27.4594 22.5509 28.1575 22.9698C28.8556 23.3421 29.6468 23.5283 30.5311 23.5283C31.5085 23.5283 32.4393 23.3421 33.3236 23.0163C34.2079 22.6906 34.9525 22.2251 35.4645 21.6201C35.6507 21.9924 35.9299 22.3182 36.2557 22.5975C36.5815 22.8767 37.0003 23.1094 37.4658 23.2491C37.9312 23.3887 38.4897 23.4818 39.0482 23.4818H40.4909L40.8633 20.1773H40.3513C40.0255 20.2704 39.7463 20.2239 39.5136 20.1308ZM34.9991 19.3396C34.5802 19.7585 34.1148 20.0377 33.6028 20.2239C33.0909 20.41 32.6255 20.5031 32.2997 20.5031C31.555 20.5031 30.9965 20.3635 30.6707 20.0377C30.3449 19.7119 30.1588 19.2465 30.1588 18.5949C30.1588 17.9433 30.3915 17.4314 30.9034 17.0125C31.4154 16.5936 32.0204 16.2679 32.8116 16.0817C33.5563 15.849 34.301 15.7559 35.0922 15.7094V19.3396H34.9991Z" fill="#97A1D1"/>
<path d="M52.4985 19.9913C51.8935 20.1775 51.2419 20.2706 50.6369 20.2706C49.1475 20.2706 47.984 19.8052 47.0997 18.8278C46.2154 17.8504 45.7966 16.6404 45.7966 15.2441C45.7966 13.7548 46.2154 12.4982 47.0532 11.5674C47.8909 10.6365 49.101 10.1711 50.6369 10.1711C51.335 10.1711 51.94 10.2642 52.5916 10.4504C53.1966 10.6365 53.7551 10.8227 54.2671 11.102L54.5929 7.89061C54.0809 7.61136 53.4759 7.37865 52.7312 7.14595C51.9866 6.95978 51.1953 6.8667 50.2645 6.8667C48.3563 6.8667 46.7739 7.23903 45.4708 8.03023C44.2142 8.77489 43.2368 9.7988 42.6318 11.102C41.9802 12.3586 41.7009 13.8014 41.7009 15.3372C41.7009 16.8731 42.0267 18.2693 42.6783 19.5259C43.3299 20.7825 44.2607 21.8065 45.5173 22.5511C46.7739 23.2958 48.3098 23.6681 50.1714 23.6681C51.0557 23.6681 51.8935 23.575 52.6847 23.3889C53.4759 23.2027 54.1274 22.97 54.6859 22.6907L54.3136 19.2932C53.7086 19.5725 53.1501 19.8052 52.4985 19.9913Z" fill="#97A1D1"/>
<path d="M62.7835 7.47189C62.0389 7.9373 61.4804 8.35617 61.0615 8.82159L60.9684 7.09956H57.2451V23.2494H61.2477V12.2656C61.4804 11.8002 61.8527 11.4279 62.4112 11.1021C62.9697 10.7763 63.5747 10.6367 64.2729 10.6367C64.5056 10.6367 64.7383 10.6367 64.971 10.6832C65.2037 10.6832 65.4364 10.7298 65.6691 10.8229L65.9483 6.86685C65.7156 6.82031 65.4829 6.82031 65.2502 6.82031C64.3659 6.82031 63.5282 7.05302 62.7835 7.47189Z" fill="#97A1D1"/>
<path d="M79.3062 7.93697C78.0496 7.14577 76.5603 6.77344 74.8382 6.77344C73.0697 6.77344 71.5803 7.14577 70.3703 7.93697C69.1137 8.72817 68.1828 9.75208 67.5313 11.0087C66.8797 12.2653 66.5539 13.7081 66.5539 15.1974C66.5539 16.6867 66.8797 18.083 67.5313 19.3396C68.1828 20.5962 69.1137 21.6201 70.3703 22.3648C71.6269 23.1094 73.1162 23.5283 74.8382 23.5283C76.6068 23.5283 78.0961 23.156 79.3062 22.3648C80.5628 21.6201 81.4936 20.5962 82.1452 19.3396C82.7968 18.083 83.1226 16.6867 83.1226 15.1974C83.1226 13.6615 82.7968 12.2653 82.1452 11.0087C81.4936 9.75208 80.5628 8.72817 79.3062 7.93697ZM77.9565 18.8742C77.2118 19.805 76.1879 20.2704 74.8382 20.2704C73.4885 20.2704 72.4646 19.805 71.72 18.8742C70.9753 17.9433 70.603 16.7333 70.603 15.2439C70.603 13.7081 70.9753 12.498 71.72 11.5206C72.4646 10.5898 73.4885 10.0779 74.8382 10.0779C76.1879 10.0779 77.2118 10.5433 77.9565 11.5206C78.7012 12.498 79.027 13.7081 79.027 15.2439C79.027 16.7333 78.6546 17.9433 77.9565 18.8742Z" fill="#97A1D1"/>
<path d="M98.6673 10.9159C99.3189 10.5436 99.8773 10.0316 100.296 9.47315C100.901 8.58886 101.18 7.47187 101.18 6.16872C101.18 4.40015 100.669 3.05045 99.5981 2.11963C98.5276 1.1888 96.8987 0.723389 94.7578 0.723389H86.2408V23.2959H95.6421C97.9226 23.2959 99.7377 22.7374 101.041 21.6204C102.344 20.5034 102.996 18.921 102.996 16.8732C102.996 15.1977 102.53 13.8015 101.646 12.7776C100.901 11.9398 99.9239 11.3348 98.6673 10.9159ZM90.2898 4.35361H94.0597C95.0371 4.35361 95.8283 4.53977 96.2937 4.95864C96.8056 5.37752 97.0383 6.02909 97.0383 6.95992C97.0383 7.8442 96.8056 8.54232 96.2937 8.91465C95.7817 9.33352 95.0371 9.51969 94.0597 9.51969H90.2898V4.35361ZM97.6899 18.8745C97.0383 19.3399 96.1075 19.5726 94.9905 19.5726H90.3364V13.243H94.9905C96.061 13.243 96.9452 13.4757 97.6434 13.8946C98.3415 14.3134 98.7138 15.1512 98.7138 16.4078C98.7138 17.5713 98.3415 18.4091 97.6899 18.8745Z" fill="#97A1D1"/>
<path d="M116.493 7.84416C115.469 7.19258 114.166 6.91333 112.63 6.91333C110.955 6.91333 109.512 7.28566 108.349 8.03032C107.185 8.77498 106.301 9.79889 105.696 11.0555C105.091 12.3121 104.765 13.6618 104.765 15.1511C104.765 16.687 105.091 18.0832 105.742 19.3864C106.394 20.6895 107.371 21.7135 108.674 22.5047C109.977 23.2959 111.606 23.6682 113.515 23.6682C114.678 23.6682 115.702 23.5286 116.633 23.2959C117.564 23.0632 118.308 22.7839 118.913 22.4581L118.727 19.0606C118.029 19.4795 117.331 19.7587 116.493 20.038C115.702 20.2707 114.818 20.4103 113.887 20.4103C113.096 20.4103 112.351 20.2707 111.653 19.9914C110.955 19.7122 110.396 19.2468 109.884 18.6417C109.419 18.0367 109.093 17.199 108.954 16.2216H119.379C119.472 15.8493 119.518 15.4769 119.565 15.1046C119.611 14.7323 119.611 14.4065 119.611 14.0341C119.611 12.7775 119.332 11.5675 118.82 10.5436C118.308 9.51964 117.564 8.44919 116.493 7.84416ZM109.047 13.336C109.233 12.4052 109.652 11.6605 110.21 11.0555C110.815 10.4505 111.606 10.1712 112.63 10.1712C113.328 10.1712 113.933 10.3574 114.352 10.6832C114.771 11.009 115.097 11.4278 115.283 11.9398C115.469 12.4517 115.562 12.9172 115.562 13.3826H109.047V13.336Z" fill="#97A1D1"/>
<path d="M134.597 20.1308C134.411 20.0377 134.272 19.805 134.178 19.4327C134.085 19.0603 134.085 18.5018 134.085 17.6641V13.2892C134.085 11.7534 133.853 10.4967 133.387 9.51937C132.922 8.58855 132.224 7.89043 131.386 7.42502C130.502 7.00614 129.478 6.77344 128.268 6.77344C127.29 6.77344 126.266 6.91306 125.289 7.14577C124.312 7.37847 123.334 7.7508 122.357 8.21622L122.729 11.4741C123.567 11.0552 124.358 10.7294 125.056 10.5433C125.754 10.3571 126.453 10.264 127.151 10.264C128.175 10.264 128.919 10.4967 129.338 10.9156C129.757 11.3345 129.99 11.9861 130.036 12.9169C129.431 12.9169 128.733 13.01 127.942 13.1496C127.151 13.2892 126.359 13.4754 125.522 13.7081C124.731 13.9408 123.939 14.3131 123.241 14.732C122.543 15.1509 121.985 15.7094 121.566 16.3609C121.147 17.0125 120.914 17.8037 120.914 18.688C120.914 19.7119 121.147 20.5962 121.566 21.2943C121.985 21.9924 122.543 22.5509 123.241 22.9698C123.939 23.3421 124.731 23.5283 125.615 23.5283C126.592 23.5283 127.523 23.3421 128.407 23.0163C129.292 22.6906 130.036 22.2251 130.548 21.6201C130.734 21.9924 131.014 22.3182 131.339 22.5975C131.665 22.8767 132.084 23.1094 132.549 23.2491C133.015 23.3887 133.573 23.4818 134.132 23.4818H135.575L135.947 20.1773H135.435C135.109 20.2704 134.83 20.2239 134.597 20.1308ZM130.083 19.3396C129.664 19.7585 129.199 20.0377 128.687 20.2239C128.175 20.41 127.709 20.5031 127.383 20.5031C126.639 20.5031 126.08 20.3635 125.754 20.0377C125.429 19.7119 125.243 19.2465 125.243 18.5949C125.243 17.9433 125.475 17.4314 125.987 17.0125C126.499 16.5936 127.104 16.2679 127.895 16.0817C128.64 15.849 129.385 15.7559 130.176 15.7094V19.3396H130.083Z" fill="#97A1D1"/>
<path d="M146 10.4037V7.09932H142.463V3.14331L138.461 3.56218V7.09932H136.506L136.134 10.4037H138.414V19.3397C138.414 20.0378 138.554 20.6894 138.88 21.341C139.159 21.9925 139.671 22.5045 140.276 22.9234C140.927 23.3422 141.719 23.5284 142.742 23.5284H145.628L146 20.224H144.883C144.139 20.224 143.58 20.1774 143.254 20.0843C142.929 19.9913 142.696 19.7585 142.603 19.3862C142.51 19.0139 142.463 18.4554 142.463 17.6176V10.4037H146Z" fill="#97A1D1"/>
</svg>
