<svg width="158" height="34" viewBox="0 0 158 34" fill="none" xmlns="http://www.w3.org/2000/svg">
<path d="M4.83387 22.547H17.9281V26.2882H5.35895C2.76635 26.2882 0.666016 24.1879 0.666016 21.5953V6.1381C0.666016 3.54551 2.76635 1.41235 5.35895 1.41235H17.3702V5.15357H4.83387V22.547Z" fill="white"/>
<path d="M36.6344 0.0996094V21.267C36.6344 23.1048 36.7 25.0739 36.7656 26.321H32.729L32.5321 23.4658H32.4665C31.3835 25.4677 29.2176 26.7148 26.625 26.7148C22.3258 26.7148 18.9456 23.072 18.9456 17.5258C18.88 11.4874 22.654 7.94305 26.9859 7.94305C29.4473 7.94305 31.2194 8.9604 32.0071 10.2731H32.0727V0.0996094H36.6344ZM32.0727 15.8193C32.0727 15.4583 32.0399 14.9989 31.9742 14.6379C31.5804 12.8985 30.1036 11.4545 28.0689 11.4545C25.1482 11.4545 23.5073 14.0471 23.5073 17.3617C23.5073 20.6763 25.1482 23.072 28.0033 23.072C29.8739 23.072 31.482 21.7921 31.9086 19.8559C32.0071 19.4621 32.0399 19.0026 32.0399 18.5432V15.8193H32.0727Z" fill="#B5AFAE"/>
<path d="M56.3901 8.33679C56.2917 9.55104 56.226 11.0278 56.226 13.4892V23.6627C56.226 27.4367 55.4712 30.0949 53.5678 31.8015C51.6972 33.4752 49.1046 34.0002 46.6104 34.0002C44.3132 34.0002 41.8847 33.508 40.3751 32.5891L41.3596 29.1104C42.5082 29.7996 44.4445 30.4887 46.6104 30.4887C49.564 30.4887 51.7628 28.9135 51.7628 25.0738V23.5314H51.6972C50.6798 25.1066 48.842 26.1568 46.4792 26.1568C42.016 26.1568 38.8654 22.4484 38.8654 17.3945C38.8654 11.4545 42.7051 7.91016 47.0042 7.91016C49.7609 7.91016 51.369 9.22286 52.2223 10.6997H52.2879L52.452 8.30397H56.3901V8.33679ZM51.6972 15.5239C51.6972 15.0972 51.6644 14.6706 51.5659 14.3096C51.0736 12.6359 49.7937 11.3888 47.8575 11.3888C45.3305 11.3888 43.4599 13.5876 43.4599 17.2632C43.4599 20.3153 45.0024 22.7766 47.8575 22.7766C49.564 22.7766 51.008 21.6936 51.5331 20.0199C51.6644 19.5604 51.73 18.9369 51.73 18.4118V15.5239H51.6972Z" fill="#B5AFAE"/>
<path d="M62.757 15.3926C62.9211 13.5876 64.1353 11.0278 66.9248 11.0278C69.9769 11.0278 70.6989 13.7517 70.6661 15.3926H65.448C65.448 16.5084 65.448 17.4601 65.448 18.5431H74.8011C74.8995 18.1493 74.9652 17.4929 74.9652 16.6397C74.9652 12.7015 73.0618 7.91016 67.2202 7.91016C61.4443 7.91016 58.425 12.6031 58.425 17.5586C58.425 23.0719 61.8381 26.6819 67.6468 26.6819C70.2394 26.6819 72.3726 26.1896 73.915 25.5333L73.2587 22.4156C71.8803 22.9079 70.4035 23.236 68.3032 23.236C65.6778 23.236 63.3477 22.0874 62.8554 19.4292C62.8226 19.1666 62.5601 17.1976 62.757 15.3926Z" fill="#B5AFAE"/>
<path d="M94.5898 15.3926C94.7539 13.5876 95.9682 11.0278 98.7577 11.0278C101.81 11.0278 102.532 13.7517 102.499 15.3926H97.2809C97.2809 16.5084 97.2809 17.4601 97.2809 18.5431H106.634C106.732 18.1493 106.798 17.4929 106.798 16.6397C106.798 12.7015 104.895 7.91016 99.053 7.91016C93.2771 7.91016 90.2579 12.6031 90.2579 17.5586C90.2579 23.0719 93.6709 26.6819 99.4797 26.6819C102.072 26.6819 104.205 26.1896 105.748 25.5333L105.091 22.4156C103.713 22.9079 102.236 23.236 100.136 23.236C97.5106 23.236 95.1805 22.0874 94.6883 19.4292C94.6554 19.1666 94.4257 17.1976 94.5898 15.3926Z" fill="#B5AFAE"/>
<path d="M145.458 15.3926C145.622 13.5876 146.836 11.0278 149.626 11.0278C152.678 11.0278 153.4 13.7517 153.367 15.3926H148.149C148.149 16.5084 148.149 17.4601 148.149 18.5431H157.502C157.6 18.1493 157.666 17.4929 157.666 16.6397C157.666 12.7015 155.762 7.91016 149.921 7.91016C144.145 7.91016 141.126 12.6031 141.126 17.5586C141.126 23.0719 144.539 26.6819 150.348 26.6819C152.94 26.6819 155.073 26.1896 156.616 25.5333L155.959 22.4156C154.581 22.9079 153.104 23.236 151.004 23.236C148.378 23.236 146.048 22.0874 145.556 19.4292C145.49 19.1666 145.261 17.1976 145.458 15.3926Z" fill="#B5AFAE"/>
<path d="M77.1317 22.1201C78.1491 22.7437 80.0853 23.4328 81.7262 23.4328C83.7281 23.4328 84.6142 22.5796 84.6142 21.431C84.6142 20.2167 83.8593 19.5932 81.6606 18.8055C78.1491 17.5913 76.6723 15.6879 76.7051 13.5547C76.7051 10.4042 79.3305 7.94287 83.5312 7.94287C85.5002 7.94287 87.2396 8.43514 88.2897 9.02586L87.4037 12.2092C86.6488 11.7825 85.2049 11.1918 83.5968 11.1918C81.9887 11.1918 81.0698 11.9795 81.0698 13.0953C81.0698 14.2439 81.9231 14.769 84.2203 15.6222C87.5021 16.7708 89.0117 18.4445 89.0117 21.1028C89.0117 24.3846 86.4519 26.7474 81.7262 26.7474C79.5602 26.7474 77.5912 26.2223 76.2456 25.5004L77.1317 22.1201Z" fill="#B5AFAE"/>
<path d="M108.734 13.6861C108.734 11.6186 108.669 9.91204 108.603 8.33679H112.574L112.804 11.0278H112.902C113.69 9.6495 115.626 7.91016 118.612 7.91016C121.73 7.91016 125.012 9.91204 125.012 15.6223V26.2881H120.45V16.1474C120.45 13.5548 119.499 11.6186 117.037 11.6186C115.232 11.6186 113.985 12.8984 113.493 14.2768C113.362 14.6378 113.296 15.1957 113.296 15.7208V26.2881H108.767V13.6861H108.734Z" fill="#B5AFAE"/>
<path d="M128 22.1201C129.017 22.7437 130.953 23.4328 132.594 23.4328C134.596 23.4328 135.482 22.5796 135.482 21.431C135.482 20.2167 134.727 19.5932 132.528 18.8055C129.017 17.5913 127.54 15.6879 127.573 13.5547C127.573 10.4042 130.198 7.94287 134.399 7.94287C136.368 7.94287 138.107 8.43514 139.158 9.02586L138.272 12.2092C137.517 11.7825 136.073 11.1918 134.465 11.1918C132.857 11.1918 131.938 11.9795 131.938 13.0953C131.938 14.2439 132.791 14.769 135.088 15.6222C138.37 16.7708 139.88 18.4445 139.88 21.1028C139.88 24.3846 137.32 26.7474 132.594 26.7474C130.428 26.7474 128.459 26.2223 127.113 25.5004L128 22.1201Z" fill="#B5AFAE"/>
<path d="M7.68849 15.4581C8.77597 15.4581 9.65755 14.5766 9.65755 13.4891C9.65755 12.4016 8.77597 11.52 7.68849 11.52C6.601 11.52 5.71942 12.4016 5.71942 13.4891C5.71942 14.5766 6.601 15.4581 7.68849 15.4581Z" fill="white"/>
<path d="M12.1526 15.4581C13.2401 15.4581 14.1217 14.5766 14.1217 13.4891C14.1217 12.4016 13.2401 11.52 12.1526 11.52C11.0651 11.52 10.1835 12.4016 10.1835 13.4891C10.1835 14.5766 11.0651 15.4581 12.1526 15.4581Z" fill="white"/>
<path d="M16.5826 15.4581C17.6701 15.4581 18.5517 14.5766 18.5517 13.4891C18.5517 12.4016 17.6701 11.52 16.5826 11.52C15.4951 11.52 14.6135 12.4016 14.6135 13.4891C14.6135 14.5766 15.4951 15.4581 16.5826 15.4581Z" fill="white"/>
</svg>
