<svg width="179" height="29" viewBox="0 0 179 29" fill="none" xmlns="http://www.w3.org/2000/svg">
<path d="M28.9562 0H0V28.9562H28.9562V0Z" fill="#3588CB"/>
<path d="M172.758 21.0099C169.66 21.0099 167.303 19.057 167.236 18.9897L168.987 17.0368C168.987 17.0368 170.67 18.3163 172.825 18.3163C173.902 18.3163 174.912 17.9796 174.912 17.3062C174.912 16.5654 174.239 16.2961 172.286 15.69C170.603 15.1513 168.583 14.6126 168.111 12.7944C167.842 11.7169 168.044 10.4375 168.717 9.62939C169.525 8.61929 171.074 8.08057 172.758 8.08057C175.384 8.08057 177.337 9.69673 177.404 9.76407L175.855 11.7843C175.855 11.7843 174.374 10.7068 172.758 10.7068C171.007 10.7068 170.872 11.5149 170.939 11.919C171.141 12.6597 172.286 12.9964 173.162 13.1984C176.259 14.0738 178.01 14.6126 178.01 17.2388C177.875 18.9223 176.394 21.0099 172.758 21.0099Z" fill="white"/>
<path d="M79.4242 8.41724H82.5219C82.5219 8.41724 82.5219 12.9964 82.5219 14.5452C82.5219 14.7472 82.5219 15.2859 82.5892 15.8246C82.7239 17.3735 83.5993 18.3162 85.2155 18.2489C86.899 18.1815 87.6397 17.2388 87.6397 15.6226C87.6397 13.3331 87.6397 8.55192 87.6397 8.55192H90.67C90.67 8.55192 90.67 14.6125 90.67 16.094C90.67 17.1714 90.468 17.8448 90.3333 18.1815C89.5926 20.3364 87.2357 21.2792 84.4074 21.0772C81.3098 20.8078 79.6263 19.1916 79.4916 16.2287C79.3569 13.9391 79.4242 8.41724 79.4242 8.41724Z" fill="white"/>
<path d="M138.482 20.6732C138.482 19.7978 138.482 19.1244 138.482 18.1143C140.098 18.1143 141.646 18.1816 143.195 18.1143C144.879 18.047 146.36 17.4409 146.832 15.6227C147.505 13.2658 146.091 11.313 143.599 11.1109C141.983 11.0436 140.3 11.1109 138.549 11.1109C138.549 10.1682 138.549 9.76414 138.549 8.48467C142.657 8.48467 144.003 8.34999 146.562 8.95605C149.189 9.62946 150.401 12.3904 150.064 15.084C149.727 18.047 147.707 20.2692 144.609 20.6059C142.657 20.8752 140.636 20.6732 138.482 20.6732Z" fill="white"/>
<path d="M108.178 10.9762V8.48465C108.178 8.48465 112.825 8.34997 115.114 8.55199C117 8.68667 118.481 9.62943 118.886 11.6496C119.29 13.6025 118.818 15.1513 117 16.1614C116.865 16.2288 116.327 16.5655 116.327 16.5655C116.327 16.5655 118.01 19.1917 118.953 20.6059C117.673 20.6059 116.663 20.6059 115.519 20.6059C114.71 19.4611 113.902 18.249 112.96 16.9022C110.805 16.9022 109.795 16.9022 108.044 16.9022C108.044 16.0941 108.044 15.4207 108.044 14.5453C109.862 14.5453 108.852 14.5453 113.364 14.5453C114.508 14.5453 115.653 14.3432 115.721 12.8618C115.788 11.2456 114.576 10.9762 113.364 10.9762C110.131 10.9762 108.178 10.9762 108.178 10.9762Z" fill="white"/>
<path d="M45.0135 20.8078C43.8687 20.8078 42.9259 20.8078 41.9158 20.8078C40.2997 16.7674 38.6835 12.727 37 8.48462C38.2795 8.48462 39.2222 8.48462 40.4343 8.48462C41.3771 11.0435 42.3199 13.7371 43.532 16.9695C44.6768 13.8718 45.6195 11.1782 46.6296 8.48462C47.7071 8.48462 48.6498 8.48462 49.9293 8.48462C48.3131 12.6597 46.697 16.7001 45.0135 20.8078Z" fill="white"/>
<path d="M125.62 20.7405H122.253L127.168 8.41724H130.199L135.115 20.6731C135.115 20.6731 132.96 20.6731 131.748 20.6731C130.805 18.1142 128.717 12.323 128.717 12.323L125.62 20.7405Z" fill="white"/>
<path d="M57.404 12.2556C56.2593 15.4206 55.3165 18.0468 54.3737 20.6731C53.229 20.6731 52.2189 20.6731 50.9394 20.6731C52.6229 16.498 54.2391 12.4576 55.8552 8.34985C56.8653 8.34985 57.8081 8.34985 58.8855 8.34985C60.5017 12.3229 62.1178 16.3633 63.8013 20.6057C62.5892 20.6057 61.5791 20.6057 60.5017 20.6057C59.5589 18.0468 58.5488 15.4206 57.404 12.2556Z" fill="white"/>
<path d="M97.6734 20.6058C97.6734 17.4408 97.6734 11.0435 97.6734 11.0435H93.9023C93.9023 11.0435 93.9023 9.36004 93.9023 8.48462C97.404 8.48462 100.906 8.48462 104.475 8.48462C104.475 9.2927 104.475 11.0435 104.475 11.0435H100.771C100.771 11.0435 100.771 17.4408 100.771 20.6058C99.6262 20.6058 98.6835 20.6058 97.6734 20.6058Z" fill="white"/>
<path d="M70.1986 8.48462C70.1986 11.7169 70.1986 14.8146 70.1986 18.1142C72.2862 18.1142 74.3064 18.1142 76.3266 18.1142C76.3266 19.057 76.3266 19.7304 76.3266 20.6058C73.2963 20.6058 70.3333 20.6058 67.1683 20.6058C67.1683 16.5654 67.1683 12.5924 67.1683 8.48462C68.1784 8.48462 69.0539 8.48462 70.1986 8.48462Z" fill="white"/>
<path d="M153.97 10.7742C153.97 9.96614 153.97 9.29274 153.97 8.552C157.135 8.552 160.3 8.552 163.667 8.552C163.667 9.2254 163.734 9.8988 163.801 10.7742C160.502 10.7742 157.269 10.7742 153.97 10.7742Z" fill="white"/>
<path d="M154.037 18.3162C157.269 18.3162 160.367 18.3162 163.667 18.3162C163.667 19.0569 163.667 19.7303 163.667 20.6057C160.569 20.6057 157.337 20.6057 154.037 20.6057C154.037 19.9323 154.037 19.1916 154.037 18.3162Z" fill="white"/>
<path d="M153.97 15.5553C153.97 14.8146 153.97 14.2085 153.97 13.4678C156.663 13.4678 159.222 13.4678 161.916 13.4678C161.916 14.1412 161.916 14.8146 161.916 15.5553C159.29 15.5553 156.731 15.5553 153.97 15.5553Z" fill="white"/>
<path d="M28.9563 28.9562H7.74414L28.9563 0V28.9562Z" fill="#225B96"/>
<path d="M18.7205 28.9562H0V0L12.6599 18.8552L18.7205 28.9562Z" fill="#6DBAFF"/>
<path d="M18.6532 6.2627L14.4108 17.7105L10.1684 6.2627H5.58923L12.2559 23.4344H16.4983L23.2323 6.2627H18.6532Z" fill="white"/>
</svg>
