<svg width="30" height="30" viewBox="0 0 30 30" xmlns="http://www.w3.org/2000/svg"><title>ic_twitter</title><g fill="#FFF" fill-rule="evenodd"><circle opacity=".3" cx="15" cy="15" r="15"/><path d="M24 9.785a7.24 7.24 0 0 1-2.12.595 3.783 3.783 0 0 0 1.623-2.09 7.339 7.339 0 0 1-2.346.918 3.642 3.642 0 0 0-2.695-1.195c-2.04 0-3.693 1.694-3.693 3.78 0 .297.032.586.095.862-3.068-.157-5.789-1.663-7.61-3.95a3.822 3.822 0 0 0-.5 1.9c0 1.312.653 2.47 1.643 3.147a3.627 3.627 0 0 1-1.673-.475v.048c0 1.831 1.274 3.36 2.962 3.708-.31.085-.636.132-.973.132-.238 0-.469-.024-.695-.07.47 1.503 1.833 2.596 3.449 2.626A7.298 7.298 0 0 1 6 21.285a10.26 10.26 0 0 0 5.66 1.702c6.793 0 10.506-5.762 10.506-10.759l-.013-.49A7.474 7.474 0 0 0 24 9.786z" fill-rule="nonzero"/></g></svg>