<svg width="30" height="30" viewBox="0 0 30 30" xmlns="http://www.w3.org/2000/svg"><title>ic_telegramm</title><g fill="#FFF" fill-rule="evenodd"><circle opacity=".3" cx="15" cy="15" r="15"/><path d="M6.318 14.673l4.147 1.576 1.606 5.254a.485.485 0 0 0 .775.238l2.312-1.918a.68.68 0 0 1 .841-.024l4.17 3.081a.486.486 0 0 0 .766-.3l3.054-14.956a.491.491 0 0 0-.654-.565L6.313 13.742a.501.501 0 0 0 .005.931zm5.494.737l8.106-5.082c.146-.09.296.11.17.228l-6.69 6.33a1.42 1.42 0 0 0-.429.844l-.228 1.719c-.03.229-.347.252-.409.03l-.876-3.135a.838.838 0 0 1 .356-.934z" fill-rule="nonzero"/></g></svg>