<svg width="30" height="30" viewBox="0 0 30 30" xmlns="http://www.w3.org/2000/svg"><title>ic_likedin</title><g fill="#FFF" fill-rule="evenodd"><circle opacity=".3" cx="15" cy="15" r="15"/><path d="M22.967 16.695v5.789h-3.422v-5.402c0-1.357-.495-2.283-1.734-2.283-.945 0-1.508.624-1.756 1.228-.09.216-.113.516-.113.818v5.639h-3.424s.046-9.149 0-10.097h3.423v1.432l-.022.032h.022v-.032c.455-.687 1.267-1.669 3.085-1.669 2.253 0 3.941 1.443 3.941 4.545zM8.937 7.52C7.766 7.52 7 8.274 7 9.264c0 .97.744 1.746 1.892 1.746h.023c1.193 0 1.936-.776 1.936-1.746-.023-.99-.743-1.744-1.914-1.744zM7.203 22.484h3.422V12.387H7.203v10.097z" fill-rule="nonzero"/></g></svg>