<?xml version="1.0" encoding="UTF-8"?>
<!-- Generator: Adobe Illustrator 22.0.1, SVG Export Plug-In . SVG Version: 6.00 Build 0)  -->
<svg version="1.1" id="Layer_1" inkscape:version="0.91 r13725" sodipodi:docname="Visa_2006.svg" xmlns:cc="http://creativecommons.org/ns#" xmlns:dc="http://purl.org/dc/elements/1.1/" xmlns:inkscape="http://www.inkscape.org/namespaces/inkscape" xmlns:rdf="http://www.w3.org/1999/02/22-rdf-syntax-ns#" xmlns:sodipodi="http://sodipodi.sourceforge.net/DTD/sodipodi-0.dtd" xmlns:svg="http://www.w3.org/2000/svg" xmlns="http://www.w3.org/2000/svg" xmlns:xlink="http://www.w3.org/1999/xlink" x="0px" y="0px" width="1538.01184px" height="340px" viewBox="0 0 1538.01184 340" enable-background="new 0 0 1538.01184 340" xml:space="preserve">
<sodipodi:namedview bordercolor="#666666" borderopacity="1" gridtolerance="10" guidetolerance="10" id="namedview19" inkscape:current-layer="Layer_1" inkscape:cx="34.690897" inkscape:cy="131.15483" inkscape:pageopacity="0" inkscape:pageshadow="2" inkscape:window-height="705" inkscape:window-maximized="1" inkscape:window-width="1366" inkscape:window-x="-8" inkscape:window-y="-8" inkscape:zoom="0.35355339" objecttolerance="10" pagecolor="#ffffff" showgrid="false">
	</sodipodi:namedview>
<g>
	<path d="M1526.48889,214.91896c0.93286-0.00359,1.85645,0.18112,2.71606,0.5432c0.82715,0.3531,1.57983,0.85997,2.21802,1.49379   c0.63245,0.62195,1.13977,1.35965,1.49402,2.17293c0.73486,1.70461,0.73486,3.63701,0,5.34161   c-0.35535,0.81273-0.8623,1.55029-1.49402,2.17293c-0.64014,0.63133-1.39246,1.13779-2.21802,1.49379   c-0.85852,0.36581-1.78296,0.55066-2.71606,0.5432c-2.82178,0.03522-5.38989-1.62338-6.51855-4.20992   c-0.72974-1.7057-0.72974-3.63591,0-5.34161c0.70789-1.66219,2.04126-2.97916,3.71204-3.66672   C1524.57141,215.0929,1525.52637,214.90805,1526.48889,214.91896z M1526.48889,227.14143   c0.71509,0.01118,1.42432-0.1275,2.08252-0.40739c0.62354-0.27008,1.19165-0.65385,1.67493-1.13171   c2.09485-2.10219,2.09485-5.50282,0-7.60501c-0.48132-0.48035-1.04968-0.86453-1.67493-1.13171   c-0.65869-0.27725-1.36768-0.41595-2.08252-0.40739c-0.72937-0.00967-1.45325,0.12889-2.12744,0.40739   c-2.73608,1.16832-4.00708,4.33342-2.83887,7.06956c0.26514,0.62083,0.64453,1.18642,1.11865,1.66716   c0.49536,0.48436,1.07947,0.86855,1.72021,1.13171c0.67395,0.2796,1.39807,0.41817,2.12744,0.40726V227.14143z    M1526.89648,218.54051c0.67773-0.04753,1.35083,0.14478,1.90112,0.54318c0.45203,0.36086,0.70435,0.91592,0.6792,1.49379   c0.0166,0.49541-0.18152,0.97395-0.54321,1.31282c-0.41504,0.36928-0.93994,0.59196-1.4939,0.63382l2.0824,2.39922h-1.62952   l-1.94653-2.39922h-0.63379v2.39922h-1.35803v-6.38283H1526.89648z M1525.31226,219.71753v1.7202h1.58423   c0.28101,0.08179,0.5791,0.08179,0.86011,0c0.20886-0.1416,0.32874-0.3817,0.31689-0.63382   c0.01184-0.25212-0.10803-0.49222-0.31689-0.63382c-0.28101-0.08177-0.5791-0.08177-0.86011,0L1525.31226,219.71753z    M812.15704,224.87816v-67.9023c0-25.62181-16.34174-42.86899-42.6427-43.09528   c-15.25549-0.98637-29.84027,6.40148-38.07056,19.2843c-7.50116-12.50305-21.23981-19.9021-35.80719-19.2843   c-12.66962-0.61185-24.71967,5.51637-31.68774,16.11546V116.4156H640.3642v108.37208h23.8111V164.8522   c0-18.83159,10.41162-28.7905,26.5271-28.7905s23.58472,10.18533,23.58472,28.56421v60.29729h23.85602v-60.071   c0-18.83159,10.86432-28.7905,26.5271-28.7905c15.66272,0,23.8111,10.18533,23.8111,28.56421v60.29729L812.15704,224.87816z    M945.01929,170.55632v-54.32184h-23.58472v13.17307c-8.15912-10.52864-20.91443-16.45075-34.22278-15.88918   c-30.37488,0-54.32184,23.81112-54.32184,56.90215s23.81116,56.90216,54.32184,56.90216   c13.30835,0.56158,26.06366-5.36053,34.22278-15.88918v13.12775h23.58472V170.55632z M857.28949,170.55632   c0-19.05788,12.44873-34.67546,32.86475-34.67546c19.51056,0,32.63831,14.98376,32.63831,34.67546   s-13.12775,34.67546-32.63831,34.67546c-20.41644,0.18083-32.91052-15.43675-32.91052-34.49463L857.28949,170.55632z    M1449.57861,113.51836c7.97717-0.02528,15.88196,1.51257,23.26794,4.52682c6.89709,2.74831,13.18774,6.82407,18.51477,11.99605   c5.24573,5.15622,9.40234,11.31374,12.22241,18.10728c5.88879,14.51488,5.88879,30.75331,0,45.26819   c-2.81897,6.7941-6.97559,12.95189-12.22241,18.10728c-5.32703,5.17197-11.61768,9.24774-18.51477,11.99605   c-14.96667,5.81628-31.56921,5.81628-46.53589,0c-6.88892-2.73877-13.16626-6.81607-18.46948-11.99605   c-5.21924-5.16893-9.3584-11.32396-12.17712-18.10728c-5.88403-14.51585-5.88403-30.75233,0-45.26819   c2.81982-6.78264,6.95874-12.93767,12.17712-18.10728c5.30322-5.17999,11.58057-9.25727,18.46948-11.99605   c7.39807-2.95221,15.30237-4.4286,23.26733-4.34599L1449.57861,113.51836z M1449.57861,135.83556   c-4.64978-0.05983-9.26526,0.80167-13.58044,2.535c-4.02478,1.61024-7.67603,4.02921-10.72864,7.10715   c-3.09167,3.15488-5.52307,6.89439-7.15234,11.00014c-3.47693,9.07919-3.47693,19.12294,0,28.20213   c1.63452,4.08958,4.06592,7.81335,7.15234,10.95497c3.0614,3.09933,6.72925,5.53419,10.77393,7.15231   c8.65747,3.39442,18.27722,3.39442,26.93457,0c4.05029-1.63304,7.72998-4.06555,10.81921-7.15231   c3.11047-3.13126,5.55847-6.8571,7.19775-10.95497c3.47693-9.07919,3.47693-19.12294,0-28.20213   c-1.63513-4.11348-4.08313-7.8548-7.19775-11.00014c-3.09338-3.07048-6.77283-5.4875-10.81921-7.10715   c-4.27124-1.64824-8.82288-2.44783-13.40002-2.35417L1449.57861,135.83556z M1073.12781,170.73715   c0-33.77003-21.09497-56.90215-51.46991-56.90215c-31.68774,0-53.95978,23.13198-53.95978,56.90215   c0,34.44904,23.13196,56.90216,55.54401,56.90216c16.18378,0.56711,32.00922-4.84773,44.45343-15.21004l-11.54333-17.47346   c-9.0033,7.20357-20.15808,11.18733-31.68774,11.31705c-15.21002,0-29.01691-7.01651-32.41205-26.5271h80.48688   C1073.12781,176.84839,1073.12781,173.90585,1073.12781,170.73715z M992.41467,161.2308   c2.48969-15.66275,11.99603-26.30081,28.79047-26.30081c15.21002,0,24.94281,9.50635,27.43256,26.30081H992.41467z    M1182.54114,125.01625c-13.35315-7.93313-28.70471-11.86136-44.22705-11.31705c-27.4325,0-45.26819,13.12775-45.26819,34.67545   c0,17.69989,13.12781,28.56422,37.3916,31.95935l11.09082,1.58441c12.90137,1.8107,19.05786,5.20581,19.05786,11.31705   c0,8.37465-8.60095,13.12775-24.71643,13.12775c-13.00146,0.41307-25.76172-3.57457-36.2146-11.31705l-11.0907,18.37888   c13.73438,9.60292,30.19092,14.53824,46.94312,14.07835c31.28027,0,49.43286-14.75748,49.43286-35.35446   c0-19.05788-14.30469-29.01694-37.84412-32.41205l-11.09082-1.58441c-10.1853-1.35799-18.37878-3.39511-18.37878-10.63806   c0-7.92194,7.69556-12.72035,20.64221-12.72035c12.10498,0.10043,23.97583,3.34511,34.44897,9.41586L1182.54114,125.01625z    M1285.66211,116.41531h-38.52332V83.55056h-23.81116v32.86475h-22.00024v21.54771h22.00024v49.43294   c0,25.1691,9.73267,40.15286,37.61792,40.15286c10.41504,0.03371,20.62866-2.86891,29.4696-8.37463l-6.79028-20.18959   c-6.32739,3.76895-13.50745,5.87155-20.86853,6.11124c-11.76978,0-15.66272-7.24294-15.66272-18.10728v-48.88974h38.79468   L1285.66211,116.41531z M1367.14478,113.6992c-11.71436-0.3415-22.67627,5.7562-28.56421,15.88918v-13.17307h-23.35828V224.7874   h23.58484v-60.61418c0-18.10728,7.69568-27.88524,23.13196-27.88524c5.04993-0.07417,10.06494,0.84879,14.75757,2.71613   l7.2428-22.2267c-5.3905-1.92786-11.06982-2.92279-16.79468-2.94241V113.6992z"/>
	<g id="_Group_">
		<rect x="196.87125" y="41.90386" fill="#7673C0" width="142.59483" height="256.26328"/>
		<path id="_Path_" fill="#EB001B" d="M205.97015,170.01285c-0.03937-49.99865,22.91302-97.23891,62.24377-128.10895    C197.44881-13.71004,94.99834-1.42747,39.38448,69.33766s-43.3313,173.21552,27.43383,228.82945    c59.0985,46.44522,142.29706,46.44522,201.39563,0C228.87061,267.28726,205.91684,220.02739,205.97015,170.01285z"/>
		<path fill="#00A1DF" d="M516.32892,271.0062v-5.25113h2.12762v-1.0864h-5.3869v1.0864h2.12756v5.25113H516.32892z     M526.78589,271.0062v-6.33752h-1.62958l-1.90137,4.52682l-1.90131-4.52682h-1.67493v6.33752h1.17706v-4.75311l1.7655,4.11942    h1.22217l1.76556-4.11942v4.79843L526.78589,271.0062z"/>
		<path fill="#00A1DF" d="M531.8559,170.01285c-0.00208,90.00342-72.96597,162.96387-162.96939,162.96167    c-36.52997-0.00085-72.00046-12.27512-100.7179-34.85272c70.76514-55.61392,83.0477-158.06432,27.43378-228.82945    c-8.01962-10.20441-17.22937-19.41415-27.43378-27.43376C338.9234-13.76847,441.37613-1.50511,497.0032,69.24966    C519.59033,97.97939,531.86517,133.46729,531.8559,170.01285z"/>
	</g>
</g>
</svg>