<?xml version="1.0" encoding="UTF-8"?>
<!-- Generator: Adobe Illustrator 22.0.1, SVG Export Plug-In . SVG Version: 6.00 Build 0)  -->
<svg version="1.1" id="Layer_1" inkscape:version="0.91 r13725" sodipodi:docname="Visa_2006.svg" xmlns:cc="http://creativecommons.org/ns#" xmlns:dc="http://purl.org/dc/elements/1.1/" xmlns:inkscape="http://www.inkscape.org/namespaces/inkscape" xmlns:rdf="http://www.w3.org/1999/02/22-rdf-syntax-ns#" xmlns:sodipodi="http://sodipodi.sourceforge.net/DTD/sodipodi-0.dtd" xmlns:svg="http://www.w3.org/2000/svg" xmlns="http://www.w3.org/2000/svg" xmlns:xlink="http://www.w3.org/1999/xlink" x="0px" y="0px" width="1880.04602px" height="340px" viewBox="0 0 1880.04602 340" enable-background="new 0 0 1880.04602 340" xml:space="preserve">
<sodipodi:namedview bordercolor="#666666" borderopacity="1" gridtolerance="10" guidetolerance="10" id="namedview19" inkscape:current-layer="Layer_1" inkscape:cx="34.690897" inkscape:cy="131.15483" inkscape:pageopacity="0" inkscape:pageshadow="2" inkscape:window-height="705" inkscape:window-maximized="1" inkscape:window-width="1366" inkscape:window-x="-8" inkscape:window-y="-8" inkscape:zoom="0.35355339" objecttolerance="10" pagecolor="#ffffff" showgrid="false">
	</sodipodi:namedview>
<g id="Layer_2_1_">
	<g id="Layer_1-2">
		<path fill="#231F20" d="M818.28192,224.80318v-67.86578c0-25.60802-16.33301-42.84593-42.61969-43.07215    c-15.24731-0.98579-29.82434,6.39804-38.05011,19.27387c-7.49701-12.49627-21.22833-19.89137-35.7879-19.27389    c-12.66284-0.61156-24.70636,5.51342-31.67072,16.10682v-13.57316h-23.57208v108.40429h23.79828v-60.0386    c0-18.82144,10.40607-28.77509,26.51288-28.77509s23.57208,10.17987,23.57208,28.54887v60.26482h23.6626v-60.0386    c0-18.82144,10.85846-28.77509,26.51288-28.77509s23.79828,10.17987,23.79828,28.54887v60.26482H818.28192z M1170.41479,116.48938    h-38.50256V83.64235h-23.79822v32.84703h-21.98853v21.53609h21.98853v49.36104c0,25.15558,9.72729,40.13129,37.59753,40.13129    c10.40955,0.03366,20.61768-2.86729,29.45386-8.3701l-6.78662-20.17876c-6.32397,3.76694-13.50024,5.86842-20.8573,6.10791    c-11.76343,0-15.65442-7.239-15.65442-18.09753v-48.95384h38.50256L1170.41479,116.48938z M1371.43323,113.77476    c-11.70825-0.34129-22.66406,5.75303-28.54883,15.88058v-13.16595h-23.34583v108.3138h23.5719v-60.71727    c0-18.09753,7.69153-27.87021,23.11963-27.87021c5.04712-0.07303,10.0592,0.84943,14.74951,2.71463l7.23901-22.21474    C1382.83118,114.78883,1377.15491,113.79431,1371.43323,113.77476z M1067.53027,125.08572    c-13.34595-7.92883-28.68933-11.85499-44.20325-11.31096c-27.41779,0-45.24384,13.16595-45.24384,34.65679    c0,17.69034,13.12067,28.54887,37.37146,31.94215l11.08478,1.58353c12.89453,1.80977,19.04761,5.20306,19.04761,11.31097    c0,8.3701-8.59631,13.16595-24.70306,13.16595c-12.99451,0.4128-25.74786-3.57265-36.19513-11.31096L973.966,213.44696    c13.72693,9.59778,30.17474,14.53052,46.91797,14.07083c31.26349,0,49.40631-14.7495,49.40631-35.33545    c0-19.04765-14.297-29.00131-37.82373-32.39459l-11.08484-1.58354c-10.17987-1.3573-18.36902-3.39328-18.36902-10.63229    c0-7.91768,7.69153-12.66827,20.63123-12.66827c11.85559,0.17522,23.47144,3.36722,33.75183,9.27499L1067.53027,125.08572z     M1698.77258,113.77476c-11.70825-0.34129-22.66406,5.75303-28.54895,15.88058v-13.16595h-23.34583v108.3138h23.57202v-60.71727    c0-18.09753,7.69153-27.87021,23.11951-27.87021c5.04712-0.07303,10.0592,0.84943,14.74963,2.71463l7.23901-22.21474    C1710.17053,114.78883,1704.49414,113.79431,1698.77258,113.77476z M1395.23157,170.64627    c0,32.84705,22.89331,56.87152,57.77637,56.87152c14.14478,0.6998,28.04004-3.91579,38.95483-12.93974l-11.31091-19.04765    c-8.14844,6.20537-18.08118,9.61676-28.32275,9.72743c-18.82141,0-32.62073-13.84462-32.62073-34.65678    s13.8446-34.43057,32.62073-34.6568c10.24158,0.11067,20.17432,3.52206,28.32275,9.72743l11.31091-19.04765    c-10.91479-9.02395-24.81006-13.63955-38.95483-12.93974c-34.88306,0-57.77637,24.02449-57.77637,56.87152V170.64627z     M1615.93103,170.64627v-54.29262h-23.57202v13.16595c-8.15466-10.52299-20.9032-16.44192-34.20435-15.88058    c-30.35852,0-54.2926,23.79827-54.2926,56.87151s23.79834,56.87152,54.2926,56.87152    c13.30115,0.56134,26.04968-5.35759,34.20435-15.8806v13.12073h23.57202V170.64627z M1528.24841,170.64627    c0-19.04765,12.44214-34.65678,32.84705-34.65678c19.50012,0,32.62085,14.97572,32.62085,34.65678    s-13.12073,34.6568-32.62085,34.6568C1540.69055,205.30307,1528.24841,189.6487,1528.24841,170.64627z M1243.8457,113.77476    c-31.67078,0-53.93079,23.11961-53.93079,56.87151c0,34.43057,23.11951,56.87152,55.51416,56.87152    c16.17505,0.56673,31.99194-4.8452,44.42944-15.20193l-11.53711-17.46413c-8.99854,7.19966-20.14722,11.18137-31.67065,11.31096    c-15.2019,0-29.00134-7.01279-32.39465-26.51289h80.4436c0.2262-2.94086,0.45251-5.8817,0.45251-9.04878    c0-33.75191-21.08374-56.87151-51.44226-56.87151L1243.8457,113.77476z M1243.39319,134.85838    c15.2019,0,24.92944,9.50121,27.41772,26.28668h-56.14758c2.48828-15.65436,11.98962-26.28668,28.77502-26.28668H1243.39319z     M1834.50403,170.64627V72.9648h-23.5719v56.64531c-8.15479-10.523-20.9032-16.44193-34.20435-15.88059    c-30.35864,0-54.29272,23.79826-54.29272,56.87153s23.79834,56.87149,54.29272,56.87149    c13.30115,0.56134,26.04956-5.35757,34.20435-15.8806v13.12073h23.5719V170.64627z M1862.05762,214.80429    c0.93225-0.00366,1.85547,0.181,2.7146,0.54294c0.82678,0.35291,1.57898,0.85957,2.21692,1.49304    c0.63208,0.62161,1.13892,1.35889,1.49304,2.17172c0.73462,1.70377,0.73462,3.63503,0,5.33878    c-0.3551,0.81229-0.86182,1.54939-1.49304,2.17172c-0.63989,0.63097-1.3916,1.13728-2.21692,1.49306    c-0.85803,0.36559-1.7821,0.5504-2.7146,0.54294c-2.82031,0.0352-5.38721-1.62257-6.51514-4.20767    c-0.72937-1.70486-0.72937-3.63393,0-5.33878c0.70764-1.66127,2.04016-2.97758,3.70996-3.66475    c0.91675-0.38136,1.90308-0.56635,2.89551-0.543H1862.05762z M1862.05762,227.02011    c0.71448,0.01122,1.42346-0.12747,2.08118-0.40718c0.62341-0.2699,1.19092-0.65347,1.67395-1.13109    c2.09387-2.10107,2.09387-5.49991,0-7.60098c-0.48096-0.48015-1.04907-0.86401-1.67395-1.13109    c-0.65857-0.27715-1.36682-0.41577-2.08118-0.40718c-0.72913-0.00966-1.45264,0.12886-2.12646,0.40718    c-2.73474,1.16762-4.005,4.33105-2.8374,7.06572c0.26489,0.62061,0.64417,1.18588,1.11804,1.66635    c0.495,0.48409,1.07874,0.86813,1.71936,1.13109c0.70154,0.29196,1.45728,0.43076,2.2168,0.40718H1862.05762z     M1862.46472,218.42377c0.67761-0.04745,1.3501,0.1447,1.90027,0.54294c0.45166,0.36075,0.70398,0.91557,0.67871,1.49306    c0.0166,0.49516-0.18127,0.97339-0.54297,1.31207c-0.41467,0.369-0.93921,0.59155-1.49292,0.63342l2.08118,2.39792h-1.62878    l-1.94543-2.39792h-0.63342v2.39792h-1.3573v-6.33415L1862.46472,218.42377z M1860.88123,219.60011v1.71927h1.5835    c0.28076,0.0817,0.57898,0.0817,0.85962,0c0.20886-0.14157,0.32886-0.38153,0.31677-0.63342    c0.01208-0.25188-0.10791-0.49185-0.31677-0.63341c-0.28064-0.08171-0.57886-0.08171-0.85962,0L1860.88123,219.60011z     M1746.91211,170.64627c0-19.04765,12.44202-34.65678,32.84705-34.65678c19.50012,0,32.62073,14.97572,32.62073,34.65678    s-13.12061,34.6568-32.62073,34.6568C1759.35413,205.30307,1746.91211,189.6487,1746.91211,170.64627z M951.07269,170.64627    v-54.29262h-23.57202v13.16595c-8.15521-10.43211-20.83868-16.2938-34.06873-15.74485    c-30.35864,0-54.2926,23.79827-54.2926,56.87151s23.79822,56.87152,54.2926,56.87152    c13.30109,0.56134,26.04956-5.35759,34.20435-15.8806v13.12073h23.57208L951.07269,170.64627z M863.39014,170.64627    c0-19.04765,12.44202-34.65678,32.84698-34.65678c19.50012,0,32.62085,14.97572,32.62085,34.65678    s-13.12067,34.6568-32.62085,34.6568c-20.40503,0-32.84705-15.60915-32.84705-34.6568H863.39014z"/>
		<g id="_Group__1_">
			<rect x="203.28224" y="41.88227" fill="#FF5F00" width="142.51813" height="256.12546"/>
			<path id="_Path__1_" fill="#EB001B" d="M212.33101,170.01286c-0.03938-49.97182,22.90067-97.18661,62.21031-128.0401     C203.81424-13.61118,101.41891-1.33524,45.83497,69.39186S2.52696,242.51424,73.25404,298.09821     c59.06682,46.4202,142.22049,46.4202,201.28728,0C235.21918,267.23492,212.27771,220.00056,212.33101,170.01286z"/>
			<path fill="#F79E1B" d="M538.08679,170.01286c-0.00208,89.95494-72.92673,162.87617-162.88168,162.87407     c-36.51038-0.00082-71.9617-12.26849-100.66376-34.83395c70.72708-55.58395,83.00302-157.97925,27.4191-228.70633     c-8.01526-10.19893-17.22018-19.40385-27.4191-27.41911c70.71667-55.59717,173.11426-43.34037,228.71149,27.37633     C525.82782,98.01809,538.09607,133.487,538.08679,170.01286z"/>
			<path fill="#F79E1B" d="M522.43237,270.86142v-5.24832h2.12646v-1.04059h-5.29352v1.08585h2.12646v5.24832L522.43237,270.86142z      M532.88367,270.86142v-6.33417h-1.40253l-1.90021,4.52441l-1.90027-4.52441h-1.67401v6.33417h0.95013v-4.75061l1.76447,4.11719     h1.22162l1.76453-4.11719v4.79584L532.88367,270.86142z"/>
		</g>
	</g>
</g>
</svg>