<?xml version="1.0" encoding="UTF-8"?>
<!-- Generator: Adobe Illustrator 22.0.1, SVG Export Plug-In . SVG Version: 6.00 Build 0)  -->
<svg version="1.1" id="Layer_1" inkscape:version="0.91 r13725" sodipodi:docname="Visa_2006.svg" xmlns:cc="http://creativecommons.org/ns#" xmlns:dc="http://purl.org/dc/elements/1.1/" xmlns:inkscape="http://www.inkscape.org/namespaces/inkscape" xmlns:rdf="http://www.w3.org/1999/02/22-rdf-syntax-ns#" xmlns:sodipodi="http://sodipodi.sourceforge.net/DTD/sodipodi-0.dtd" xmlns:svg="http://www.w3.org/2000/svg" xmlns="http://www.w3.org/2000/svg" xmlns:xlink="http://www.w3.org/1999/xlink" x="0px" y="0px" width="769.66541px" height="340px" viewBox="0 0 769.66541 340" enable-background="new 0 0 769.66541 340" xml:space="preserve">
<sodipodi:namedview bordercolor="#666666" borderopacity="1" gridtolerance="10" guidetolerance="10" id="namedview19" inkscape:current-layer="Layer_1" inkscape:cx="34.690897" inkscape:cy="131.15483" inkscape:pageopacity="0" inkscape:pageshadow="2" inkscape:window-height="705" inkscape:window-maximized="1" inkscape:window-width="1366" inkscape:window-x="-8" inkscape:window-y="-8" inkscape:zoom="0.35355339" objecttolerance="10" pagecolor="#ffffff" showgrid="false">
	</sodipodi:namedview>
<g id="Page-1">
	<g id="skrill-logo-web-1-rgb">
		
			<linearGradient id="Fill-1_1_" gradientUnits="userSpaceOnUse" x1="-80.93439" y1="705.84589" x2="-79.19305" y2="702.51117" gradientTransform="matrix(226.772 0 0 -77.456 18545.1582 54716.37109)">
			<stop offset="0" style="stop-color:#6B195F"/>
			<stop offset="1" style="stop-color:#4C255B"/>
		</linearGradient>
		<path id="Fill-1" fill="url(#Fill-1_1_)" d="M549.91644,102.90941c17.14362,0,31.03931-13.88898,31.03931-31.01593    c0-17.13696-13.89569-31.03928-31.03931-31.03928c-17.12366,0-31.01257,13.90231-31.01257,31.03928    C518.90387,89.02043,532.79279,102.90941,549.91644,102.90941L549.91644,102.90941z M312.19653,119.65955    c-1.40057,3.5181-11.48132,31.99299-35.86124,61.50498V54.9766l-64.95972,12.83855v228.72958h64.95972V225.8427    c18.8143,28.21812,28.10477,70.70204,28.10477,70.70204h77.80826c-7.69644-31.99634-41.36346-90.99364-41.36346-90.99364    c30.21561-38.30888,43.48767-79.12881,45.59851-85.89155H312.19653L312.19653,119.65955z M482.97256,117.27191    c-58.18362,1.86742-87.71893,27.97136-87.71893,79.86244v99.41039h63.4758v-81.06627    c0-31.07262,4.0683-44.39136,40.93994-45.66188v-51.63431C493.46353,116.86508,482.97256,117.27191,482.97256,117.27191    L482.97256,117.27191z M102.43132,144.84645c-7.95657-0.52354-26.37738-1.71404-26.37738-18.29743    c0-20.01147,26.52077-20.01147,36.46815-20.01147c17.49044,0,40.14297,5.16877,56.31956,10.0074    c0,0,9.02365,3.18129,16.70345,6.43929l0.71362,0.19341v-54.8056l-0.98041-0.29012    c-19.09108-6.67937-41.2901-13.10532-82.44682-13.10532c-70.96216,0-96.10571,41.34013-96.10571,76.75452    c0,20.41495,8.75022,68.46114,90.01991,74.00339c6.88947,0.42352,25.17355,1.47726,25.17355,18.61423    c0,14.14909-14.96941,22.49248-40.14631,22.49248c-27.59121,0-54.35542-7.03618-70.61201-13.70891v56.44627    c24.33656,6.37924,51.77103,9.56723,83.92409,9.56723c69.38486,0,100.46082-39.11255,100.46082-77.87833    C195.54582,177.31297,160.77168,148.7547,102.43132,144.84645L102.43132,144.84645z M518.45032,296.54474h62.96228V119.85963    h-62.96228V296.54474z M699.96741,66.24118v230.30356h62.97223V54.9766L699.96741,66.24118L699.96741,66.24118z     M608.08344,66.24118l62.91217-11.26458v241.56813h-62.91217V66.24118L608.08344,66.24118z"/>
	</g>
</g>
</svg>