<?xml version="1.0" encoding="UTF-8"?>
<!-- Generator: Adobe Illustrator 22.0.1, SVG Export Plug-In . SVG Version: 6.00 Build 0)  -->
<svg version="1.1" id="Layer_1" inkscape:version="0.91 r13725" sodipodi:docname="Visa_2006.svg" xmlns:cc="http://creativecommons.org/ns#" xmlns:dc="http://purl.org/dc/elements/1.1/" xmlns:inkscape="http://www.inkscape.org/namespaces/inkscape" xmlns:rdf="http://www.w3.org/1999/02/22-rdf-syntax-ns#" xmlns:sodipodi="http://sodipodi.sourceforge.net/DTD/sodipodi-0.dtd" xmlns:svg="http://www.w3.org/2000/svg" xmlns="http://www.w3.org/2000/svg" xmlns:xlink="http://www.w3.org/1999/xlink" x="0px" y="0px" width="733.9314px" height="340px" viewBox="0 0 733.9314 340" enable-background="new 0 0 733.9314 340" xml:space="preserve">
<sodipodi:namedview bordercolor="#666666" borderopacity="1" gridtolerance="10" guidetolerance="10" id="namedview19" inkscape:current-layer="Layer_1" inkscape:cx="34.690897" inkscape:cy="131.15483" inkscape:pageopacity="0" inkscape:pageshadow="2" inkscape:window-height="705" inkscape:window-maximized="1" inkscape:window-width="1366" inkscape:window-x="-8" inkscape:window-y="-8" inkscape:zoom="0.35355339" objecttolerance="10" pagecolor="#ffffff" showgrid="false">
	</sodipodi:namedview>
<g>
	<polygon fill="#1A1F71" points="297.09177,57.53297 260.59616,283.19449 318.94507,283.19449 355.43753,57.53297  "/>
	<path fill="#1A1F71" d="M473.08627,148.03497c-20.4079-10.3252-32.90607-17.28738-32.90607-27.85191   c0.23932-9.6041,10.57095-19.44115,33.60803-19.44115c18.96896-0.48181,32.90604,4.07777,43.4642,8.64051l5.27747,2.39624   l7.93536-48.72891c-11.50897-4.56596-29.76318-9.60731-52.33441-9.60731c-57.62149,0-98.19803,30.7268-98.44696,74.65681   c-0.47855,32.41148,29.05167,50.41359,51.13797,61.22064c22.57443,11.04312,30.24814,18.25098,30.24814,28.09441   c-0.22974,15.11772-18.24142,22.08624-35.04065,22.08624c-23.29553,0-35.77768-3.59274-54.74664-12.00354l-7.68329-3.6055   l-8.16507,50.65608c13.68503,6.23468,38.89825,11.76746,65.07501,12.00995c61.22382,0,101.08249-30.25137,101.55472-77.06581   C522.297,183.80313,506.70392,164.11949,473.08627,148.03497z"/>
	<path fill="#1A1F71" d="M680.04059,57.53301h-0.00006h-45.13293c-13.91797,0-24.49207,4.07772-30.49701,18.72321   l-86.66992,206.93506h61.22382c0,0,10.07947-27.8519,12.24603-33.85046c6.71649,0,66.27472,0,74.91528,0   c1.67511,7.92258,6.96216,33.85046,6.96216,33.85046h54.02557L680.04059,57.53301z M608.01611,203.25064   c4.80524-12.96397,23.29553-63.13824,23.29553-63.13824c-0.24249,0.48178,4.79565-13.20329,7.67688-21.60448l4.07776,19.44431   c0,0,11.0495,54.01596,13.44897,65.29842C647.39612,203.25064,619.54102,203.25064,608.01611,203.25064z"/>
	<path fill="#1A1F71" d="M211.8609,57.53297h-0.00005l-57.14284,153.87956l-6.24431-31.20857   c-0.00159-0.00545-0.00351-0.01089-0.0051-0.01634l-20.40285-103.6857c-3.35983-14.41258-13.68502-18.49351-26.40971-18.96895   H7.77826l-0.96038,4.55958c22.89655,5.85508,43.37517,14.29239,61.3189,24.78297l52.00641,196.07965h61.70243l91.71449-225.4222   H211.8609z"/>
</g>
</svg>