<?xml version="1.0" encoding="UTF-8" standalone="no"?>
<!-- Created with Inkscape (http://www.inkscape.org/) -->
<svg xmlns:dc="http://purl.org/dc/elements/1.1/" xmlns:cc="http://creativecommons.org/ns#" xmlns:rdf="http://www.w3.org/1999/02/22-rdf-syntax-ns#" xmlns:svg="http://www.w3.org/2000/svg" xmlns="http://www.w3.org/2000/svg" xmlns:sodipodi="http://sodipodi.sourceforge.net/DTD/sodipodi-0.dtd" xmlns:inkscape="http://www.inkscape.org/namespaces/inkscape" width="135.46666mm" height="85.69854mm" viewBox="0 0 135.46666 85.69854" version="1.1" id="svg8" inkscape:version="0.92.1 r15371" sodipodi:docname="delivery-icon.svg"><script xmlns="" type="text/javascript" charset="utf-8" id="zm-extension"/>
  <defs id="defs2"/>
  <sodipodi:namedview id="base" pagecolor="#ffffff" bordercolor="#666666" borderopacity="1.0" inkscape:pageopacity="0.0" inkscape:pageshadow="2" inkscape:zoom="0.49497475" inkscape:cx="-92.841321" inkscape:cy="206.46763" inkscape:document-units="mm" inkscape:current-layer="layer1" showgrid="false" inkscape:window-width="1440" inkscape:window-height="837" inkscape:window-x="-8" inkscape:window-y="-8" inkscape:window-maximized="1"/>
  <metadata id="metadata5">
    <rdf:RDF>
      <cc:Work rdf:about="">
        <dc:format>image/svg+xml</dc:format>
        <dc:type rdf:resource="http://purl.org/dc/dcmitype/StillImage"/>
        <dc:title/>
      </cc:Work>
    </rdf:RDF>
  </metadata>
  <g inkscape:label="Layer 1" inkscape:groupmode="layer" id="layer1" transform="translate(-26.004763,-58.359065)">
    <g id="g4546" transform="matrix(0.26458333,0,0,0.26458333,26.004763,33.461774)">
      <g id="g4489">
        <g id="g4487">
          <path id="path4485" d="m 476.2,231.4 -13.3,-53 c 3.6,-0.8 6.3,-4 6.3,-7.8 V 162 c 0,-18.6 -15.1,-33.7 -33.7,-33.7 h -60.4 v -17.6 c 0,-9.1 -7.4,-16.6 -16.6,-16.6 H 50.8 c -9.1,0 -16.6,7.4 -16.6,16.6 V 256 c 0,4.4 3.6,8 8,8 4.4,0 8,-3.6 8,-8 V 110.6 c 0,-0.3 0.2,-0.5 0.5,-0.5 h 307.8 c 0.3,0 0.5,0.2 0.5,0.5 V 256 c 0,4.4 3.6,8 8,8 4.4,0 8,-3.6 8,-8 v -9.1 h 94.6 c 0,0 0,0 0,0 0,0 0,0 0,0 11.6,0 21.5,7.6 24.9,18.2 h -24.9 c -4.4,0 -8,3.6 -8,8 v 17.1 c 0,13.9 11.3,25.1 25.1,25.1 h 9.1 v 35.3 h -21 c -6.9,-19.9 -25.8,-34.2 -48,-34.2 -22.2,0 -41.1,14.3 -48,34.2 h -3.9 v -60.4 c 0,-4.4 -3.6,-8 -8,-8 -4.4,0 -8,3.6 -8,8 v 60.4 H 192.8 c -6.9,-19.9 -25.8,-34.2 -48,-34.2 -22.2,0 -41.1,14.3 -48,34.2 h -46 c -0.3,0 -0.5,-0.2 -0.5,-0.5 V 332.5 H 85 c 4.4,0 8,-3.6 8,-8 0,-4.4 -3.6,-8 -8,-8 H 8 c -4.4,0 -8,3.6 -8,8 0,4.4 3.6,8 8,8 h 26.2 v 17.6 c 0,9.1 7.4,16.6 16.6,16.6 h 43.3 c 0,0.2 0,0.4 0,0.5 0,28 22.8,50.8 50.8,50.8 28,0 50.8,-22.8 50.8,-50.8 0,-0.2 0,-0.4 0,-0.5 h 180.7 c 0,0.2 0,0.4 0,0.5 0,28 22.8,50.8 50.8,50.8 28,0 50.8,-22.8 50.8,-50.8 0,-0.2 0,-0.4 0,-0.5 h 26 c 4.4,0 8,-3.6 8,-8 v -85.5 c 0,-21.2 -15.6,-38.8 -35.8,-41.8 z m -101,-87.1 h 60.4 c 9.7,0 17.6,7.9 17.6,17.6 v 0.5 h -78 z m 0,86.6 v -52.4 h 71.2 l 13.1,52.4 z m -230.4,171 c -19.2,0 -34.7,-15.6 -34.7,-34.7 0,-19.1 15.6,-34.7 34.7,-34.7 19.1,0 34.7,15.6 34.7,34.7 0,19.1 -15.5,34.7 -34.7,34.7 z m 282.2,0 c -19.2,0 -34.7,-15.6 -34.7,-34.7 0,-19.1 15.6,-34.7 34.7,-34.7 19.2,0 34.7,15.6 34.7,34.7 0,19.1 -15.5,34.7 -34.7,34.7 z m 69,-102.6 h -9.1 c -5,0 -9.1,-4.1 -9.1,-9.1 v -9.1 H 496 Z" inkscape:connector-curvature="0" style="fill:#ff1f00;fill-opacity:1"/>
        </g>
      </g>
      <g id="g4495">
        <g id="g4493">
          <path id="path4491" d="m 144.8,350.6 c -9.1,0 -16.6,7.4 -16.6,16.6 0,9.2 7.4,16.6 16.6,16.6 9.1,0 16.6,-7.4 16.6,-16.6 0,-9.2 -7.4,-16.6 -16.6,-16.6 z" inkscape:connector-curvature="0" style="fill:#ff1f00;fill-opacity:1"/>
        </g>
      </g>
      <g id="g4501">
        <g id="g4499">
          <path id="path4497" d="m 427,350.6 c -9.1,0 -16.6,7.4 -16.6,16.6 0,9.2 7.4,16.6 16.6,16.6 9.2,0 16.6,-7.4 16.6,-16.6 0,-9.2 -7.4,-16.6 -16.6,-16.6 z" inkscape:connector-curvature="0" style="fill:#ff1f00;fill-opacity:1"/>
        </g>
      </g>
      <g id="g4507">
        <g id="g4505">
          <path id="path4503" d="M 333,316.4 H 213.2 c -4.4,0 -8,3.6 -8,8 0,4.4 3.6,8 8,8 H 333 c 4.4,0 8,-3.6 8,-8 0,-4.4 -3.6,-8 -8,-8 z" inkscape:connector-curvature="0" style="fill:#ff1f00;fill-opacity:1"/>
        </g>
      </g>
      <g id="g4513">
        <g id="g4511">
          <path id="path4509" d="M 127.7,282.2 H 25.1 c -4.4,0 -8,3.6 -8,8 0,4.4 3.6,8 8,8 h 102.6 c 4.4,0 8,-3.6 8,-8 0,-4.4 -3.5,-8 -8,-8 z" inkscape:connector-curvature="0" style="fill:#ff1f00;fill-opacity:1"/>
        </g>
      </g>
      <g id="g4519">
        <g id="g4517">
          <path id="path4515" d="m 278.8,173.4 c -3.1,-3.1 -8.2,-3.1 -11.3,0 l -71.3,71.3 -37.1,-37.1 c -3.1,-3.1 -8.2,-3.1 -11.3,0 -3.1,3.1 -3.1,8.2 0,11.3 l 42.8,42.8 c 1.6,1.6 3.6,2.3 5.7,2.3 2.1,0 4.1,-0.8 5.7,-2.3 l 77,-77 c 2.9,-3.1 2.9,-8.2 -0.2,-11.3 z" inkscape:connector-curvature="0" style="fill:#ff1f00;fill-opacity:1"/>
        </g>
      </g>
    </g>
  </g>
</svg>