<?xml version="1.0" encoding="UTF-8" standalone="no"?>
<svg fill="#ff1f00" xmlns="http://www.w3.org/2000/svg" width="95.25mm" height="135.49312mm" viewBox="0 0 95.250002 135.49312"><script xmlns="" type="text/javascript" charset="utf-8" id="zm-extension"/>
<g transform="translate(29.370903,-52.423931)"><g transform="matrix(0.26458333,0,0,0.26458333,-49.479236,52.423931)">
  <path d="M 256,0 C 156.7,0 76,80.7 76,180 c 0,33.5 9.3,66.3 26.9,94.7 L 245.8,505 c 2.7,4.4 7.6,7.1 12.7,7.1 0,0 0.1,0 0.1,0 5.2,0 10.1,-2.8 12.8,-7.3 L 410.6,272.3 C 427.2,244.5 436,212.6 436,180.1 436,80.7 355.3,0 256,0 Z M 384.9,256.8 258.3,468.2 128.4,258.8 C 113.8,235.2 105.8,207.9 105.8,180 105.8,97.3 173.3,29.8 256,29.8 c 82.7,0 150.1,67.5 150.1,150.2 0,27.1 -7.4,53.7 -21.2,76.8 z"/><path d="m 256,90 c -49.6,0 -90,40.4 -90,90 0,49.3 39.7,90 90,90 50.9,0 90,-41.2 90,-90 0,-49.6 -40.4,-90 -90,-90 z m 0,150.2 c -33.3,0 -60.2,-27 -60.2,-60.2 0,-33.1 27.1,-60.2 60.2,-60.2 33.1,0 60.1,27.1 60.1,60.2 0,32.7 -26.3,60.2 -60.1,60.2 z"/>
</g></g>
</svg>