<?xml version="1.0" encoding="UTF-8" standalone="no"?>
<!-- Created with Inkscape (http://www.inkscape.org/) -->
<svg xmlns:dc="http://purl.org/dc/elements/1.1/" xmlns:cc="http://creativecommons.org/ns#" xmlns:rdf="http://www.w3.org/1999/02/22-rdf-syntax-ns#" xmlns:svg="http://www.w3.org/2000/svg" xmlns="http://www.w3.org/2000/svg" xmlns:sodipodi="http://sodipodi.sourceforge.net/DTD/sodipodi-0.dtd" xmlns:inkscape="http://www.inkscape.org/namespaces/inkscape" width="88.900002mm" height="88.900002mm" viewBox="0 0 88.900002 88.900002" version="1.1" id="svg8" inkscape:version="0.92.1 r15371" sodipodi:docname="icon.svg"><script xmlns="" type="text/javascript" charset="utf-8" id="zm-extension"/>
  <defs id="defs2"/>
  <sodipodi:namedview id="base" pagecolor="#ffffff" bordercolor="#666666" borderopacity="1.0" inkscape:pageopacity="0.0" inkscape:pageshadow="2" inkscape:zoom="0.7" inkscape:cx="197.95938" inkscape:cy="117.67532" inkscape:document-units="mm" inkscape:current-layer="g18" showgrid="false" inkscape:window-width="1440" inkscape:window-height="837" inkscape:window-x="-8" inkscape:window-y="-8" inkscape:window-maximized="1"/>
  <metadata id="metadata5">
    <rdf:RDF>
      <cc:Work rdf:about="">
        <dc:format>image/svg+xml</dc:format>
        <dc:type rdf:resource="http://purl.org/dc/dcmitype/StillImage"/>
        <dc:title/>
      </cc:Work>
    </rdf:RDF>
  </metadata>
  <g inkscape:label="Layer 1" inkscape:groupmode="layer" id="layer1" transform="translate(-60.627383,-53.734525)">
    <g id="g18" transform="matrix(0.26458333,0,0,0.26458333,49.012176,42.119318)">
      <g id="g14">
        <path id="path12" d="m 261.5,221.7 h -49.1 c 4.9,-3.8 10.1,-7.3 14.5,-10.7 1.1,-0.8 2.2,-1.7 3.2,-2.6 h 31.4 c 4.5,0 8.1,-3.6 8.1,-8.1 0,-4.5 -3.6,-8.1 -8.1,-8.1 H 245 c 2.2,-3.4 4.2,-7.1 5.6,-11.2 3.6,-10.5 1.8,-22.6 -4.3,-31.8 -15.3,-23.2 -46.8,-21.5 -68.8,-10 -9.2,4.8 -1.1,18.8 8.2,14 10.9,-5.7 23,-8.3 34.9,-4.4 8.1,2.7 14.9,10.1 15.6,18.8 0.8,9.9 -5.2,18.1 -12.1,24.7 h -62 c -4.5,0 -8.1,3.6 -8.1,8.1 0,4.5 3.6,8.1 8.1,8.1 h 41.2 c -3.8,2.8 -7.5,5.6 -10.9,8.8 -1.5,1.4 -2.9,2.9 -4.3,4.4 h -26 c -4.5,0 -8.1,3.6 -8.1,8.1 0,4.5 3.6,8.1 8.1,8.1 h 16.6 c -5.3,14.6 -3.6,31.1 8.2,43.3 16.3,16.9 44.4,12.7 63.4,3.5 9.4,-4.6 1.2,-18.5 -8.2,-14 -14.7,7.2 -41.6,11 -48.6,-8.7 -3.4,-9.5 -1.6,-17.4 2.7,-24.2 h 65.1 c 4.5,0 8.1,-3.6 8.1,-8.1 0.2,-4.4 -3.4,-8 -7.9,-8 z" inkscape:connector-curvature="0" style="fill:#ff1f00;fill-opacity:1"/>
      </g>
      <circle id="circle16" r="160.5" cy="211.89999" cx="211.89999" class="st0" style="fill:none;stroke:#ff1f00;stroke-width:15;stroke-miterlimit:10;stroke-opacity:1"/>
    </g>
  </g>
  <style id="style10" type="text/css">
	.st0{fill:none;stroke:#000000;stroke-width:15;stroke-miterlimit:10;}
</style>
</svg>