<?xml version="1.0" encoding="UTF-8" standalone="no"?>
<!-- Created with Inkscape (http://www.inkscape.org/) -->
<svg xmlns:dc="http://purl.org/dc/elements/1.1/" xmlns:cc="http://creativecommons.org/ns#" xmlns:rdf="http://www.w3.org/1999/02/22-rdf-syntax-ns#" xmlns:svg="http://www.w3.org/2000/svg" xmlns="http://www.w3.org/2000/svg" xmlns:sodipodi="http://sodipodi.sourceforge.net/DTD/sodipodi-0.dtd" xmlns:inkscape="http://www.inkscape.org/namespaces/inkscape" width="125.17895mm" height="125.36112mm" viewBox="0 0 125.17895 125.36112" version="1.1" id="svg8" inkscape:version="0.92.1 r15371" sodipodi:docname="phone-icon.svg"><script xmlns="" type="text/javascript" charset="utf-8" id="zm-extension"/>
  <defs id="defs2"/>
  <sodipodi:namedview id="base" pagecolor="#ffffff" bordercolor="#666666" borderopacity="1.0" inkscape:pageopacity="0.0" inkscape:pageshadow="2" inkscape:zoom="0.7" inkscape:cx="236.44657" inkscape:cy="267.27397" inkscape:document-units="mm" inkscape:current-layer="layer1" showgrid="false" inkscape:window-width="1440" inkscape:window-height="837" inkscape:window-x="-8" inkscape:window-y="-8" inkscape:window-maximized="1"/>
  <metadata id="metadata5">
    <rdf:RDF>
      <cc:Work rdf:about="">
        <dc:format>image/svg+xml</dc:format>
        <dc:type rdf:resource="http://purl.org/dc/dcmitype/StillImage"/>
        <dc:title/>
      </cc:Work>
    </rdf:RDF>
  </metadata>
  <g inkscape:label="Layer 1" inkscape:groupmode="layer" id="layer1" transform="translate(-71.926716,-87.791513)">
    <g id="g4556" transform="matrix(0.26458333,0,0,0.26458333,71.823921,87.793052)">
      <g id="g4554">
        <path id="path4548" d="M 374.5,293.5 C 364.8,283.4 353.1,278 340.7,278 c -12.3,0 -24.1,5.3 -34.2,15.4 l -31.6,31.5 c -2.6,-1.4 -5.2,-2.7 -7.7,-4 -3.6,-1.8 -7,-3.5 -9.9,-5.3 -29.6,-18.8 -56.5,-43.3 -82.3,-75 -12.5,-15.8 -20.9,-29.1 -27,-42.6 8.2,-7.5 15.8,-15.3 23.2,-22.8 2.8,-2.8 5.6,-5.7 8.4,-8.5 21,-21 21,-48.2 0,-69.2 L 152.3,70.2 C 149.2,67.1 146,63.9 143,60.7 137,54.5 130.7,48.1 124.2,42.1 114.5,32.5 102.9,27.4 90.7,27.4 c -12.2,0 -24,5.1 -34,14.7 -0.1,0.1 -0.1,0.1 -0.2,0.2 l -34,34.3 C 9.7,89.4 2.4,105 0.8,123.1 -1.6,152.3 7,179.5 13.6,197.3 29.8,241 54,281.5 90.1,324.9 c 43.8,52.3 96.5,93.6 156.7,122.7 23,10.9 53.7,23.8 88,26 2.1,0.1 4.3,0.2 6.3,0.2 23.1,0 42.5,-8.3 57.7,-24.8 0.1,-0.2 0.3,-0.3 0.4,-0.5 5.2,-6.3 11.2,-12 17.5,-18.1 4.3,-4.1 8.7,-8.4 13,-12.9 9.9,-10.3 15.1,-22.3 15.1,-34.6 0,-12.4 -5.3,-24.3 -15.4,-34.3 z m 35.8,105.3 c -0.1,0 -0.1,0.1 0,0 -3.9,4.2 -7.9,8 -12.2,12.2 -6.5,6.2 -13.1,12.7 -19.3,20 -10.1,10.8 -22,15.9 -37.6,15.9 -1.5,0 -3.1,0 -4.6,-0.1 -29.7,-1.9 -57.3,-13.5 -78,-23.4 C 202,396 152.3,357.1 111,307.8 76.9,266.7 54.1,228.7 39,187.9 29.7,163 26.3,143.6 27.8,125.3 c 1,-11.7 5.5,-21.4 13.8,-29.7 L 75.7,61.5 c 4.9,-4.6 10.1,-7.1 15.2,-7.1 6.3,0 11.4,3.8 14.6,7 0.1,0.1 0.2,0.2 0.3,0.3 6.1,5.7 11.9,11.6 18,17.9 3.1,3.2 6.3,6.4 9.5,9.7 l 27.3,27.3 c 10.6,10.6 10.6,20.4 0,31 -2.9,2.9 -5.7,5.8 -8.6,8.6 -8.4,8.6 -16.4,16.6 -25.1,24.4 -0.2,0.2 -0.4,0.3 -0.5,0.5 -8.6,8.6 -7,17 -5.2,22.7 0.1,0.3 0.2,0.6 0.3,0.9 7.1,17.2 17.1,33.4 32.3,52.7 l 0.1,0.1 c 27.6,34 56.7,60.5 88.8,80.8 4.1,2.6 8.3,4.7 12.3,6.7 3.6,1.8 7,3.5 9.9,5.3 0.4,0.2 0.8,0.5 1.2,0.7 3.4,1.7 6.6,2.5 9.9,2.5 8.3,0 13.5,-5.2 15.2,-6.9 l 34.2,-34.2 c 3.4,-3.4 8.8,-7.5 15.1,-7.5 6.2,0 11.3,3.9 14.4,7.3 0.1,0.1 0.1,0.1 0.2,0.2 l 55.1,55.1 c 10.3,10.2 10.3,20.7 0.1,31.3 z" inkscape:connector-curvature="0" style="fill:#ff1f00;fill-opacity:1"/>
        <path id="path4550" d="m 256.1,112.7 c 26.2,4.4 50,16.8 69,35.8 19,19 31.3,42.8 35.8,69 1.1,6.6 6.8,11.2 13.3,11.2 0.8,0 1.5,-0.1 2.3,-0.2 7.4,-1.2 12.3,-8.2 11.1,-15.6 -5.4,-31.7 -20.4,-60.6 -43.3,-83.5 -22.9,-22.9 -51.8,-37.9 -83.5,-43.3 -7.4,-1.2 -14.3,3.7 -15.6,11 -1.3,7.3 3.5,14.4 10.9,15.6 z" inkscape:connector-curvature="0" style="fill:#ff1f00;fill-opacity:1"/>
        <path id="path4552" d="M 473.3,209 C 464.4,156.8 439.8,109.3 402,71.5 364.2,33.7 316.7,9.1 264.5,0.2 c -7.3,-1.3 -14.2,3.7 -15.5,11 -1.2,7.4 3.7,14.3 11.1,15.6 46.6,7.9 89.1,30 122.9,63.7 33.8,33.8 55.8,76.3 63.7,122.9 1.1,6.6 6.8,11.2 13.3,11.2 0.8,0 1.5,-0.1 2.3,-0.2 7.3,-1.1 12.3,-8.1 11,-15.4 z" inkscape:connector-curvature="0" style="fill:#ff1f00;fill-opacity:1"/>
      </g>
    </g>
  </g>
</svg>