<svg xmlns="http://www.w3.org/2000/svg" viewBox="0 0 101.07 140"><defs><style>.cls-1{fill:#fff;}.cls-2{fill:#c4161c;}</style></defs><title>Монтажная область 21</title><g id="cards"><path class="cls-1" d="M98,0S68.82.79,50.53.79,3,0,3,0A2.94,2.94,0,0,0,0,3V135.9A3.17,3.17,0,0,0,3,139s29.21,1,47.5,1S98,139,98,139a3.17,3.17,0,0,0,3-3.13V3A2.94,2.94,0,0,0,98,0Z"/><path class="cls-2" d="M8,11,9.64,4.89a2.14,2.14,0,0,1,.22-.55.55.55,0,0,1,.49-.25.65.65,0,0,1,.55.2,4,4,0,0,1,.36,1.08L12.93,12a4,4,0,0,0,.29.82.36.36,0,0,0,.32.2l.26,0,.1,0H14q.46,0,.46.5t-.49.57l-.67-.12a3.42,3.42,0,0,0-.64-.06,4.08,4.08,0,0,0-.72.09,4.1,4.1,0,0,1-.62.09.5.5,0,0,1-.36-.16.54.54,0,0,1-.16-.4q0-.51.48-.51h.3q.33,0,.33-.46a2.6,2.6,0,0,0-.09-.6l-.26-1.05a.63.63,0,0,0-.12-.28.41.41,0,0,0-.25,0H9.44q-.3,0-.44.5l-.26,1a2.76,2.76,0,0,0-.1.64q0,.27.26.27h.33q.46,0,.46.52T9.22,14a3.2,3.2,0,0,1-.59-.09A3.24,3.24,0,0,0,8,13.86a3.91,3.91,0,0,0-.75.09,3.67,3.67,0,0,1-.61.09q-.52,0-.52-.54T6.55,13l.23,0L7,13q.23,0,.44-.44A10.2,10.2,0,0,0,8,11ZM11.19,9.2l-.8-3.57L9.47,9.2a.79.79,0,0,0,0,.16q0,.19.28.19H11c.16,0,.25-.06.25-.17A1,1,0,0,0,11.19,9.2Z"/><path class="cls-2" d="M92.9,127.92l-1.68,6.14a2.14,2.14,0,0,1-.22.55.55.55,0,0,1-.49.25.65.65,0,0,1-.55-.2,4,4,0,0,1-.36-1.08L87.93,127a4,4,0,0,0-.29-.82.36.36,0,0,0-.32-.2l-.26,0-.1,0h-.07q-.46,0-.46-.5t.49-.57l.67.12a3.42,3.42,0,0,0,.64.06,4.08,4.08,0,0,0,.72-.09,4.1,4.1,0,0,1,.62-.09.5.5,0,0,1,.36.16.54.54,0,0,1,.16.4q0,.51-.48.51h-.3q-.33,0-.33.46a2.6,2.6,0,0,0,.09.6l.26,1.05a.63.63,0,0,0,.12.28.42.42,0,0,0,.25,0h1.76q.3,0,.44-.5l.26-1a2.77,2.77,0,0,0,.1-.64q0-.27-.26-.27h-.33q-.46,0-.46-.52t.48-.55a3.2,3.2,0,0,1,.59.09,3.24,3.24,0,0,0,.64.09,3.91,3.91,0,0,0,.75-.09,3.67,3.67,0,0,1,.61-.09q.52,0,.52.54t-.45.53l-.23,0-.22,0q-.23,0-.44.44A10.2,10.2,0,0,0,92.9,127.92Zm-3.23,1.83.8,3.57.93-3.57a.79.79,0,0,0,0-.16q0-.19-.28-.19H89.89c-.16,0-.25.06-.25.17A1,1,0,0,0,89.67,129.75Z"/><path class="cls-2" d="M68.83,60.92a9.14,9.14,0,0,0-18.28,0,9.14,9.14,0,0,0-18.28,0c0,13.53,18.19,23.89,18.28,23.94S68.83,74.45,68.83,60.92Z"/><path class="cls-2" d="M15.75,21a2.74,2.74,0,0,0-5.48,0,2.74,2.74,0,0,0-5.48,0c0,4.06,5.46,7.17,5.48,7.18S15.75,25.11,15.75,21Z"/><path class="cls-2" d="M85.11,117.9a2.74,2.74,0,0,0,5.48,0,2.74,2.74,0,0,0,5.48,0c0-4.06-5.46-7.17-5.48-7.18S85.11,113.84,85.11,117.9Z"/></g></svg>