<svg xmlns="http://www.w3.org/2000/svg" viewBox="0 0 101.07 140"><defs><style>.cls-1{fill:#fff;}.cls-2{fill:#c4161c;}</style></defs><title>Монтажная область 10</title><g id="cards"><path class="cls-1" d="M98,0S68.82.79,50.53.79,3,0,3,0A2.94,2.94,0,0,0,0,3V135.9A3.17,3.17,0,0,0,3,139s29.21,1,47.5,1S98,139,98,139a3.17,3.17,0,0,0,3-3.13V3A2.94,2.94,0,0,0,98,0Z"/><polygon class="cls-2" points="10.26 16.91 5.97 23.58 10.26 30.25 14.55 23.58 10.26 16.91"/><path class="cls-2" d="M9.93,13.17a1.75,1.75,0,0,0,1.54-1,5.8,5.8,0,0,0,.66-2.71,3.89,3.89,0,0,1-1.05,1,2.31,2.31,0,0,1-1.18.29A2.38,2.38,0,0,1,8,9.87a3.51,3.51,0,0,1-.75-2.32,3.72,3.72,0,0,1,.82-2.47,2.57,2.57,0,0,1,2.05-1,2.61,2.61,0,0,1,1.44.43,2.67,2.67,0,0,1,1,1.15,8.12,8.12,0,0,1,.64,3.39,6.64,6.64,0,0,1-.91,3.66A2.73,2.73,0,0,1,9.9,14.15a2.2,2.2,0,0,1-1.57-.59,2,2,0,0,1-.63-1.48q0-1,.73-1a.62.62,0,0,1,.48.21.78.78,0,0,1,.19.54.74.74,0,0,1-.33.62A1.21,1.21,0,0,0,9.93,13.17Zm.15-3.44a1.62,1.62,0,0,0,1.3-.61,2.32,2.32,0,0,0,.52-1.54,2.78,2.78,0,0,0-.52-1.72,1.56,1.56,0,0,0-1.29-.69,1.53,1.53,0,0,0-1.27.66,2.74,2.74,0,0,0-.5,1.69,2.5,2.5,0,0,0,.49,1.6A1.56,1.56,0,0,0,10.07,9.74Z"/><polygon class="cls-2" points="90.6 122.04 94.89 115.37 90.6 108.7 86.31 115.37 90.6 122.04"/><path class="cls-2" d="M90.93,125.77a1.75,1.75,0,0,0-1.54,1,5.8,5.8,0,0,0-.66,2.71,3.89,3.89,0,0,1,1.05-1,2.31,2.31,0,0,1,1.18-.29,2.38,2.38,0,0,1,1.92.9,3.51,3.51,0,0,1,.75,2.32,3.72,3.72,0,0,1-.82,2.47,2.57,2.57,0,0,1-2.05,1,2.62,2.62,0,0,1-1.44-.43,2.67,2.67,0,0,1-1-1.15,8.12,8.12,0,0,1-.64-3.39,6.64,6.64,0,0,1,.91-3.66A2.73,2.73,0,0,1,91,124.8a2.2,2.2,0,0,1,1.57.59,2,2,0,0,1,.63,1.48q0,1-.73,1a.62.62,0,0,1-.48-.21.78.78,0,0,1-.19-.54.74.74,0,0,1,.33-.62A1.21,1.21,0,0,0,90.93,125.77Zm-.15,3.44a1.62,1.62,0,0,0-1.3.61,2.32,2.32,0,0,0-.52,1.54,2.78,2.78,0,0,0,.52,1.72,1.56,1.56,0,0,0,1.29.69,1.53,1.53,0,0,0,1.27-.66,2.74,2.74,0,0,0,.5-1.69,2.5,2.5,0,0,0-.49-1.6A1.56,1.56,0,0,0,90.78,129.21Z"/><polygon class="cls-2" points="27.52 12.29 18.51 26.3 27.52 40.31 36.52 26.3 27.52 12.29"/><polygon class="cls-2" points="27.52 42.29 18.51 56.3 27.52 70.31 36.52 56.3 27.52 42.29"/><polygon class="cls-2" points="27.52 72.29 18.51 86.3 27.52 100.31 36.52 86.3 27.52 72.29"/><polygon class="cls-2" points="27.52 102.29 18.51 116.3 27.52 130.31 36.52 116.3 27.52 102.29"/><polygon class="cls-2" points="72.52 12.29 63.51 26.3 72.52 40.31 81.52 26.3 72.52 12.29"/><polygon class="cls-2" points="72.52 42.29 63.51 56.3 72.52 70.31 81.52 56.3 72.52 42.29"/><polygon class="cls-2" points="72.52 72.29 63.51 86.3 72.52 100.31 81.52 86.3 72.52 72.29"/><polygon class="cls-2" points="72.52 102.29 63.51 116.3 72.52 130.31 81.52 116.3 72.52 102.29"/><polygon class="cls-2" points="50.43 26.29 41.42 40.3 50.43 54.31 59.43 40.3 50.43 26.29"/></g></svg>