<svg xmlns="http://www.w3.org/2000/svg" viewBox="0 0 101.07 140"><defs><style>.cls-1{fill:#fff;}.cls-2{fill:#c4161c;}</style></defs><title>Монтажная область 14</title><g id="cards"><path class="cls-1" d="M98,0S68.82.79,50.53.79,3,0,3,0A2.94,2.94,0,0,0,0,3V135.9A3.17,3.17,0,0,0,3,139s29.21,1,47.5,1S98,139,98,139a3.17,3.17,0,0,0,3-3.13V3A2.94,2.94,0,0,0,98,0Z"/><path class="cls-2" d="M8,9.29a2.21,2.21,0,0,1,1.13-.64,2,2,0,0,1-1.32-2,2.41,2.41,0,0,1,.73-1.8,2.51,2.51,0,0,1,1.83-.71,2.33,2.33,0,0,1,1.73.68,2.39,2.39,0,0,1,.67,1.76,2.24,2.24,0,0,1-1.29,2.12,2.31,2.31,0,0,1,1.67,2.45,3,3,0,0,1-.82,2.2,2.82,2.82,0,0,1-2.13.85,2.85,2.85,0,0,1-2.08-.82,2.76,2.76,0,0,1-.83-2.05A3,3,0,0,1,8,9.29Zm2.22-.09a1.77,1.77,0,0,0-1.33.55,1.94,1.94,0,0,0-.53,1.4,2.08,2.08,0,0,0,.52,1.46,1.7,1.7,0,0,0,1.31.56,1.74,1.74,0,0,0,1.33-.56,2,2,0,0,0,.52-1.45,2,2,0,0,0-.49-1.43A1.73,1.73,0,0,0,10.26,9.2Zm.09-4.13a1.3,1.3,0,0,0-1,.43A1.53,1.53,0,0,0,9,6.57a1.51,1.51,0,0,0,.39,1.06,1.34,1.34,0,0,0,2,0,1.5,1.5,0,0,0,.4-1.05,1.53,1.53,0,0,0-.39-1.07A1.26,1.26,0,0,0,10.35,5.06Z"/><path class="cls-2" d="M92.82,129.66a2.21,2.21,0,0,1-1.13.64,2,2,0,0,1,1.32,2,2.41,2.41,0,0,1-.73,1.8,2.51,2.51,0,0,1-1.83.71,2.33,2.33,0,0,1-1.73-.68,2.39,2.39,0,0,1-.67-1.76,2.24,2.24,0,0,1,1.29-2.12,2.31,2.31,0,0,1-1.67-2.45,3,3,0,0,1,.82-2.2,3.07,3.07,0,0,1,4.21,0,2.76,2.76,0,0,1,.83,2.05A3,3,0,0,1,92.82,129.66Zm-2.22.09a1.77,1.77,0,0,0,1.33-.55,1.94,1.94,0,0,0,.53-1.4,2.08,2.08,0,0,0-.52-1.46,1.7,1.7,0,0,0-1.31-.56,1.74,1.74,0,0,0-1.33.56,2.29,2.29,0,0,0,0,2.88A1.73,1.73,0,0,0,90.6,129.75Zm-.09,4.13a1.3,1.3,0,0,0,1-.43,1.53,1.53,0,0,0,.39-1.08,1.51,1.51,0,0,0-.39-1.06,1.34,1.34,0,0,0-2,0,1.5,1.5,0,0,0-.4,1.05,1.53,1.53,0,0,0,.39,1.07A1.26,1.26,0,0,0,90.51,133.88Z"/><path class="cls-2" d="M15.75,21a2.74,2.74,0,0,0-5.48,0,2.74,2.74,0,0,0-5.48,0c0,4.06,5.46,7.17,5.48,7.18S15.75,25.11,15.75,21Z"/><path class="cls-2" d="M85.11,117.9a2.74,2.74,0,0,0,5.48,0,2.74,2.74,0,0,0,5.48,0c0-4.06-5.46-7.17-5.48-7.18S85.11,113.84,85.11,117.9Z"/><path class="cls-2" d="M63.25,83.14a6.4,6.4,0,0,0-12.79,0,6.4,6.4,0,0,0-12.79,0c0,9.47,12.73,16.73,12.79,16.76S63.25,92.61,63.25,83.14Z"/><path class="cls-2" d="M63.31,43.14a6.4,6.4,0,0,0-12.79,0,6.4,6.4,0,0,0-12.79,0c0,9.47,12.73,16.73,12.79,16.76S63.31,52.61,63.31,43.14Z"/><path class="cls-2" d="M43.23,63.14a6.4,6.4,0,0,0-12.79,0,6.4,6.4,0,0,0-12.79,0c0,9.47,12.73,16.73,12.79,16.76S43.23,72.61,43.23,63.14Z"/><path class="cls-2" d="M43.23,23.14a6.4,6.4,0,0,0-12.79,0,6.4,6.4,0,0,0-12.79,0c0,9.47,12.73,16.73,12.79,16.76S43.23,32.61,43.23,23.14Z"/><path class="cls-2" d="M43.23,103.14a6.4,6.4,0,0,0-12.79,0,6.4,6.4,0,0,0-12.79,0c0,9.47,12.73,16.73,12.79,16.76S43.23,112.61,43.23,103.14Z"/><path class="cls-2" d="M83.23,63.14a6.4,6.4,0,0,0-12.79,0,6.4,6.4,0,0,0-12.79,0c0,9.47,12.73,16.73,12.79,16.76S83.23,72.61,83.23,63.14Z"/><path class="cls-2" d="M83.23,23.14a6.4,6.4,0,0,0-12.79,0,6.4,6.4,0,0,0-12.79,0c0,9.47,12.73,16.73,12.79,16.76S83.23,32.61,83.23,23.14Z"/><path class="cls-2" d="M83.23,103.14a6.4,6.4,0,0,0-12.79,0,6.4,6.4,0,0,0-12.79,0c0,9.47,12.73,16.73,12.79,16.76S83.23,112.61,83.23,103.14Z"/></g></svg>