<svg xmlns="http://www.w3.org/2000/svg" viewBox="0 0 101.07 140"><defs><style>.cls-1{fill:#fff;}.cls-2,.cls-4{fill:#231f20;}.cls-3{fill:#c4161c;}.cls-3,.cls-4{fill-rule:evenodd;}</style></defs><title>Монтажная область 44</title><g id="cards"><path class="cls-1" d="M98,0S68.83.79,50.53.79,3,0,3,0A2.94,2.94,0,0,0,0,3V135.9A3.17,3.17,0,0,0,3,139s29.21,1,47.5,1S98,139,98,139a3.17,3.17,0,0,0,3-3.13V3A2.94,2.94,0,0,0,98,0Z"/><path class="cls-2" d="M8.4,10.5a.78.78,0,0,1,.14-.44A1.13,1.13,0,0,0,8,11.19a2,2,0,0,0,.43,1.35A1.41,1.41,0,0,0,9.52,13a1.6,1.6,0,0,0,.94-.3,1.69,1.69,0,0,0,.62-.8,3.4,3.4,0,0,0,.22-.87q0-.42,0-1.71v-3q-.07-1.1-.42-1.1a.94.94,0,0,0-.24,0,.94.94,0,0,1-.24,0,.45.45,0,0,1-.34-.15A.5.5,0,0,1,10,4.8a.57.57,0,0,1,.16-.4.52.52,0,0,1,.39-.17,3.86,3.86,0,0,1,.65.08,3.88,3.88,0,0,0,.66.08,4.58,4.58,0,0,0,.73-.08,4.5,4.5,0,0,1,.67-.08.52.52,0,0,1,.39.17.57.57,0,0,1,.16.4.5.5,0,0,1-.14.35.45.45,0,0,1-.34.15l-.2,0a1.08,1.08,0,0,0-.28,0q-.35,0-.42,1.1v4.06a4.23,4.23,0,0,1-.82,2.81,2.6,2.6,0,0,1-2.07,1,2.29,2.29,0,0,1-1.82-.82,3.1,3.1,0,0,1-.7-2.1,2.55,2.55,0,0,1,.45-1.55,1.36,1.36,0,0,1,1.13-.61,1,1,0,0,1,.78.34,1.21,1.21,0,0,1,.32.86,1,1,0,0,1-.19.64.59.59,0,0,1-.49.25Q8.4,11.16,8.4,10.5Z"/><path class="cls-2" d="M92.46,128.44a.78.78,0,0,1-.14.44,1.13,1.13,0,0,0,.58-1.12,2,2,0,0,0-.43-1.35,1.41,1.41,0,0,0-1.13-.51,1.6,1.6,0,0,0-.94.3,1.69,1.69,0,0,0-.62.8,3.4,3.4,0,0,0-.22.87q0,.42,0,1.71v3q.07,1.1.42,1.1a.94.94,0,0,0,.24,0,.94.94,0,0,1,.24,0,.45.45,0,0,1,.34.15.5.5,0,0,1,.14.35.57.57,0,0,1-.16.4.52.52,0,0,1-.39.17,3.85,3.85,0,0,1-.65-.08,3.88,3.88,0,0,0-.66-.08,4.58,4.58,0,0,0-.73.08,4.49,4.49,0,0,1-.67.08.52.52,0,0,1-.39-.17.57.57,0,0,1-.16-.4.5.5,0,0,1,.14-.35.45.45,0,0,1,.34-.15l.2,0a1.08,1.08,0,0,0,.28,0q.35,0,.42-1.1v-4.06a4.23,4.23,0,0,1,.82-2.81,2.6,2.6,0,0,1,2.07-1,2.29,2.29,0,0,1,1.82.82,3.1,3.1,0,0,1,.7,2.1,2.55,2.55,0,0,1-.45,1.55,1.36,1.36,0,0,1-1.13.61,1,1,0,0,1-.78-.34,1.21,1.21,0,0,1-.32-.86,1,1,0,0,1,.19-.64.59.59,0,0,1,.49-.25Q92.46,127.79,92.46,128.44Z"/><path class="cls-2" d="M12.75,25.92a2.49,2.49,0,0,0,.07-5,2.73,2.73,0,1,0-5.12,0,2.49,2.49,0,1,0,2.35,3.48c-.77,3.58-3.4,4.15-3.4,4.15h7.22s-2.64-.58-3.4-4.15A2.49,2.49,0,0,0,12.75,25.92Z"/><path class="cls-2" d="M88.11,113a2.49,2.49,0,0,0-.07,5,2.74,2.74,0,1,0,5.12,0,2.49,2.49,0,1,0-2.35-3.48c.77-3.58,3.4-4.15,3.4-4.15H87s2.64.57,3.4,4.15A2.49,2.49,0,0,0,88.11,113Z"/><path class="cls-3" d="M39.92,15.62q1.14,2.15,2.37,4.21a19.29,19.29,0,0,1,5.13-.4C47.21,18,46.5,17,46.24,15.62h1.71a36.05,36.05,0,0,0,1.18,3.69,31.55,31.55,0,0,1,6.06.39c.74-1.1.93-2.76,1.45-4.08h1.84C58,17,57.73,18.56,57.3,20c1.68.47,3.53.77,5.13,1.32,1.54-1.58,2.46-3.77,3.69-5.66h1.71c-1.43,2.3-2.69,4.77-4.21,7a57,57,0,0,0-17.64-2c-1.13.06-2.6.6-3.29.39s-1.59-2-2-2.63c-.62-.92-1.23-1.76-1.84-2.63C39,15.46,39.6,15.71,39.92,15.62Z"/><path class="cls-3" d="M41.37,15.62h3.29a20.13,20.13,0,0,1,1.05,2.63,20.5,20.5,0,0,1-2.9.26Z"/><path class="cls-3" d="M49.4,15.62h5.79a10.17,10.17,0,0,1-.79,2.76c-1.43-.06-2.81-.18-4.21-.26A16.67,16.67,0,0,0,49.4,15.62Z"/><path class="cls-3" d="M59.8,15.62h4.48A38.42,38.42,0,0,1,61.9,20c-.88-.48-2.12-.6-3-1.05C59.08,17.72,59.55,16.79,59.8,15.62Z"/><path class="cls-3" d="M79.28,21.15c.15,0,.23,0,.26.13A7.45,7.45,0,0,1,77,23.65C77.47,22.51,78.53,22,79.28,21.15Z"/><path class="cls-3" d="M79.54,22.34c-.48,1.19-1.59,1.74-2.5,2.5A4.63,4.63,0,0,1,79.54,22.34Z"/><path class="cls-3" d="M76.25,22.73c-.08.57.17,1.49-.13,1.84C76.21,24,75.95,23.09,76.25,22.73Z"/><path class="cls-3" d="M79.54,23.52A6.48,6.48,0,0,1,77,25.89,4.63,4.63,0,0,1,79.54,23.52Z"/><path class="cls-3" d="M79.54,24.58a6.28,6.28,0,0,1-2.5,2.5A5.07,5.07,0,0,1,79.54,24.58Z"/><path class="cls-3" d="M79.54,25.76C79,26.93,78,27.5,77,28.26A4.53,4.53,0,0,1,79.54,25.76Z"/><path class="cls-3" d="M79.54,26.95A6.67,6.67,0,0,1,77,29.32,4.49,4.49,0,0,1,79.54,26.95Z"/><path class="cls-3" d="M71.25,27.08h3.82A11.14,11.14,0,0,1,71.25,27.08Z"/><path class="cls-3" d="M79.54,28c-.47,1.2-1.57,1.77-2.5,2.5A5,5,0,0,1,79.54,28Z"/><path class="cls-3" d="M70.86,28h4.48A15.31,15.31,0,0,1,70.86,28Z"/><path class="cls-3" d="M71.12,29.05h2.5A4.84,4.84,0,0,1,71.12,29.05Z"/><path class="cls-3" d="M79.54,29.18a7.58,7.58,0,0,1-2.5,2.5A4.53,4.53,0,0,1,79.54,29.18Z"/><path class="cls-4" d="M44.79,30.37c.67-.46.75.93.53,1.45a1.78,1.78,0,0,1-2.37-.39c-.49-.14-.21.49-.66.39a1,1,0,0,1,.13-1.18c1.27-.22,1.27.83,2.11,1.05.45.06.4-.39.66-.53C45.08,30.87,45.11,30.44,44.79,30.37Z"/><path class="cls-3" d="M79.54,30.37A6.81,6.81,0,0,1,77,32.74,4.42,4.42,0,0,1,79.54,30.37Z"/><path class="cls-3" d="M79.54,31.42c-.47,1.19-1.58,1.75-2.5,2.5A4.85,4.85,0,0,1,79.54,31.42Z"/><path class="cls-4" d="M44.39,33.79c.32-2.65,3.87,1.59,4.34-.26a.82.82,0,0,0-.66-1.05c.45-.6,1.15.36,1.18.79C49.49,35.8,45.68,33.61,44.39,33.79Z"/><path class="cls-3" d="M79.54,32.61c-.47,1.16-1.63,1.62-2.37,2.5C77.08,34,78.83,32.91,79.54,32.61Z"/><path class="cls-3" d="M79.54,33.79A7.16,7.16,0,0,1,77,36.16,4.35,4.35,0,0,1,79.54,33.79Z"/><path class="cls-3" d="M76.12,34.05v1.71A2.31,2.31,0,0,1,76.12,34.05Z"/><path class="cls-3" d="M79.54,34.84C79.07,36,78,36.6,77,37.35A4.74,4.74,0,0,1,79.54,34.84Z"/><path class="cls-3" d="M79.54,36c-.48,1.14-1.64,1.61-2.37,2.5C77.09,37.44,78.81,36.31,79.54,36Z"/><path class="cls-3" d="M76.12,36.56c-.09.66.17,1.66-.13,2.11C76.08,38,75.82,37,76.12,36.56Z"/><path class="cls-3" d="M79.54,37.21A7.44,7.44,0,0,1,77,39.58,4.23,4.23,0,0,1,79.54,37.21Z"/><path class="cls-3" d="M79.54,38.27C79.06,39.45,78,40,77,40.77A4.63,4.63,0,0,1,79.54,38.27Z"/><path class="cls-3" d="M79.54,39.45c-.48,1.14-1.65,1.6-2.37,2.5C77.09,40.86,78.81,39.73,79.54,39.45Z"/><path class="cls-3" d="M76,39.85a2.31,2.31,0,0,1,0,1.71Z"/><path class="cls-3" d="M64.67,40c.35.31.79.52.92,1.05q-7,10.87-13.69,22c-.17-.18-.57-.13-.92-.13C54.66,56.82,58.37,50.79,62,44.72c-1.1-.39-3.11.13-4.21-.26A26.16,26.16,0,0,0,62,44.32a13,13,0,0,0,2.5-4.08C64.64,40.21,64.69,40.13,64.67,40Z"/><path class="cls-3" d="M79.54,40.51A6.29,6.29,0,0,1,77,43,5.07,5.07,0,0,1,79.54,40.51Z"/><path class="cls-3" d="M79.54,41.69C79,42.86,78,43.43,77,44.19A4.63,4.63,0,0,1,79.54,41.69Z"/><path class="cls-3" d="M79.54,42.88A6.49,6.49,0,0,1,77,45.24,4.49,4.49,0,0,1,79.54,42.88Z"/><path class="cls-3" d="M79.54,43.93a4.43,4.43,0,0,1-2.37,2.24A5.17,5.17,0,0,1,79.54,43.93Z"/><path class="cls-3" d="M46,44.45H57.56A102.08,102.08,0,0,1,46,44.45Z"/><path class="cls-3" d="M79.54,45.11c-.27.76-1,1.68-1.71,1.58C77.79,46.14,79.07,45.14,79.54,45.11Z"/><path class="cls-3" d="M79.54,46.3c0,.57-.59,1.18-1.05.92C78.64,46.79,79.19,46.08,79.54,46.3Z"/><path class="cls-3" d="M69,73.94a28,28,0,0,0-.39-16.19A26.94,26.94,0,0,0,67.3,55a15.36,15.36,0,0,1-1.45-2.63c0-1.38,2.07-2.56,2.11-3.82,3,2.1,5.94,6.89,7.11,11.72.33,1.34,1,4.22.66,5.4-.25.89-3,3-3.69,3.82A20,20,0,0,0,69,73.94Z"/><path class="cls-3" d="M29.78,49.72c-.08.49.17,1.31-.13,1.58C29.73,50.81,29.48,50,29.78,49.72Z"/><path class="cls-3" d="M27.68,51.43c.87,3.74-2.31,6.33-6.19,6.58A52.32,52.32,0,0,1,27.68,51.43Z"/><path class="cls-3" d="M35.71,53.67c.44,1.23,1.56,2.63,1.45,3.82-.16,1.7-2.85,2.69-3,4.48C34.51,59.58,35.53,56.7,35.71,53.67Z"/><path class="cls-3" d="M27.41,55.38c.22,1.1-.49,2.41-.79,3.42-1.55.34-4.19,1.22-5.27-.13A8.24,8.24,0,0,0,27.41,55.38Z"/><path class="cls-3" d="M26.1,59.33c.5.48-.59,1.58-.79,2.24-1.79-.19-3.56-.39-3.95-2A7.61,7.61,0,0,0,26.1,59.33Z"/><path class="cls-3" d="M57,60.52c.27-.3,1.09,0,1.58-.13C58.34,60.69,57.52,60.43,57,60.52Z"/><path class="cls-3" d="M21.36,60.91a11,11,0,0,0,3.55,1.19,4.91,4.91,0,0,1-1.05,1.58C22.75,63,21.47,62.55,21.36,60.91Z"/><path class="cls-3" d="M21.36,62.62c.83.36,1.26,1.11,2.11,1.45a1.9,1.9,0,0,1-1.18,1.32A2.77,2.77,0,0,1,21.36,62.62Z"/><path class="cls-3" d="M21.36,65.25c.39,0,.49.3.66.53a.72.72,0,0,1-.66.66Z"/><path class="cls-3" d="M66,65.91a1.4,1.4,0,0,1,0,1.32Z"/><path class="cls-3" d="M31.89,66.44c-2.22,7-.67,17,3.16,21.46-.5,1.52-1.58,2.46-2.11,3.95C28.43,88,25.5,82.61,25.17,74.6,27.71,72.18,30.22,69.73,31.89,66.44Z"/><path class="cls-4" d="M46.9,68.81a1.1,1.1,0,0,1,1.45,1.05c.25,1.87-2.63,2.41-2.5.13A1.16,1.16,0,0,1,46.9,68.81Zm.26,2.37c1.15-.08,1-2.63-.39-2C45.92,69.61,46.16,71.25,47.16,71.18Z"/><path class="cls-4" d="M54.93,69.2c1,2.71-2.54,2.85-2.24.66A1.26,1.26,0,0,1,54.93,69.2Zm-1.05,2c1.24,0,1.17-2.52-.26-2C52.69,69.55,52.91,71.15,53.87,71.18Z"/><path class="cls-3" d="M46.76,69.2c1.36-.66,1.54,1.9.39,2S45.92,69.61,46.76,69.2Z"/><path class="cls-3" d="M53.61,69.2c1.44-.54,1.51,2,.26,2C52.91,71.15,52.69,69.55,53.61,69.2Z"/><path class="cls-3" d="M35.31,73.29v1.58A2,2,0,0,1,35.31,73.29Z"/><path class="cls-3" d="M79.28,73.94c.53-.05.15.82.26,1.19-.39,0-.49-.3-.66-.53C78.82,74.19,79.24,74.25,79.28,73.94Z"/><path class="cls-3" d="M78.36,74.86a2.55,2.55,0,0,1,1.18,2.9c-.83-.36-1.19-1.18-2.11-1.45C77.5,75.59,78.08,75.38,78.36,74.86Z"/><path class="cls-3" d="M76.91,76.58c1.15.65,2.45,1.15,2.63,2.76-.87-.16-2.06-1.09-3.55-1.05C76.12,77.54,76.73,77.28,76.91,76.58Z"/><path class="cls-3" d="M79.54,80.66a12.21,12.21,0,0,0-5,.26,9.38,9.38,0,0,1,1.05-2.11C77,78.82,79.21,79.15,79.54,80.66Z"/><path class="cls-3" d="M79.54,81.71c-2.95,0-4.78,1.89-6.19,3a20.9,20.9,0,0,1,.79-3C75.36,81.11,78.61,80.24,79.54,81.71Z"/><path class="cls-3" d="M79.41,82.24A34.47,34.47,0,0,1,73,89C72.74,84.34,75.66,82.87,79.41,82.24Z"/><path class="cls-3" d="M71.64,89v1.19C71.48,90.51,71.39,89,71.64,89Z"/><path class="cls-3" d="M21.75,92.5c0,.34,0,.57-.4.53C21.32,92.69,21.41,92.47,21.75,92.5Z"/><path class="cls-3" d="M22.41,93.16a1.69,1.69,0,0,1-1.05,1.05C21.33,93.53,21.93,92.92,22.41,93.16Z"/><path class="cls-3" d="M23.07,93.82c-.49.5-1.1,1.5-1.71,1.45C21.59,94.58,22.52,93.34,23.07,93.82Z"/><path class="cls-3" d="M23.73,94.22a6,6,0,0,1-2.37,2.24A4.13,4.13,0,0,1,23.73,94.22Z"/><path class="cls-3" d="M23.73,95c.06,1.2-1.51,1.91-2.37,2.63C21.67,96.29,23,96,23.73,95Z"/><path class="cls-3" d="M23.86,96.32a5.48,5.48,0,0,1-2.5,2.37A5,5,0,0,1,23.86,96.32Z"/><path class="cls-3" d="M24.91,96.72a26.15,26.15,0,0,1-.13,4.21A26.15,26.15,0,0,1,24.91,96.72Z"/><path class="cls-3" d="M23.73,97.24c0,1.19-1.45,2-2.37,2.63C21.76,98.61,23,98.2,23.73,97.24Z"/><path class="cls-3" d="M23.86,98.56c-.47,1.2-1.57,1.77-2.5,2.5A4.85,4.85,0,0,1,23.86,98.56Z"/><path class="cls-3" d="M23.86,99.75a5.67,5.67,0,0,1-2.5,2.37A4.9,4.9,0,0,1,23.86,99.75Z"/><path class="cls-3" d="M36.36,100.4c5.92.09,12.2-.18,17.9.13C48.34,100.45,42.07,100.71,36.36,100.4Z"/><path class="cls-3" d="M23.73,100.67c.13,0,.1.16.13.26a8,8,0,0,1-2.5,2.37C21.67,101.94,23,101.65,23.73,100.67Z"/><path class="cls-3" d="M23.86,102a5.64,5.64,0,0,1-2.5,2.37A5,5,0,0,1,23.86,102Z"/><path class="cls-3" d="M23.73,102.9c0,1.19-1.45,2-2.37,2.63C21.75,104.26,23,103.85,23.73,102.9Z"/><path class="cls-3" d="M23.86,104.22c-.47,1.19-1.58,1.75-2.5,2.5A4.85,4.85,0,0,1,23.86,104.22Z"/><path class="cls-3" d="M23.86,105.41a5.85,5.85,0,0,1-2.5,2.37A4.9,4.9,0,0,1,23.86,105.41Z"/><path class="cls-4" d="M56.51,106.59c-.85,2.43-3.29-1.55-4.34.26-.24.73.8.86.53,1.19a1,1,0,0,1-.92-.66c-.67-2.23,2.59-1.79,3.55-.79C55.9,106.59,56.13,106.11,56.51,106.59Z"/><path class="cls-3" d="M23.73,106.33c0,1.18-1.46,2-2.37,2.63C21.75,107.68,23,107.27,23.73,106.33Z"/><path class="cls-3" d="M23.86,107.64c-.48,1.19-1.59,1.74-2.5,2.5A4.85,4.85,0,0,1,23.86,107.64Z"/><path class="cls-4" d="M58.74,108.7a.88.88,0,0,1-.53,1.05c-.95,0-1.18-.75-1.71-1.19a.79.79,0,0,0-.4,1.45c-1.89-.46.72-3.07,1.71-1.19C58.33,109,58.37,108.32,58.74,108.7Z"/><path class="cls-3" d="M23.86,108.83a6.09,6.09,0,0,1-2.5,2.37A4.78,4.78,0,0,1,23.86,108.83Z"/><path class="cls-3" d="M27.81,108.83c.49.08,1.31-.17,1.58.13C28.9,108.88,28.08,109.13,27.81,108.83Z"/><path class="cls-3" d="M45.45,109.49a1.68,1.68,0,0,1,0,1.45Z"/><path class="cls-3" d="M23.73,109.75c0,1.19-1.49,1.93-2.37,2.63C21.71,111.07,23,110.7,23.73,109.75Z"/><path class="cls-4" d="M53.21,110.54c1.71-.53,1.76,1.75,3.42,1.71.06.63-.67.47-.66,1.05,0,.85.79.88.79,1.71-.78-.4-1.21.45-2,.53a4.21,4.21,0,0,1-3.69-2.11c1,.73,2.72,2.16,4.21,1.18-2.12.3-3.46-1.15-4.48-2.37a1.84,1.84,0,0,1,1.45.39c.83-.22,1.25-.86,2.5-.66C54.61,111.16,53.8,111,53.21,110.54Zm-.13,2.37a2.51,2.51,0,0,0,.79.53,2.62,2.62,0,0,0,.53-1.05C53.74,112.34,53.18,112.39,53.08,112.91Zm1.19.66c.46,0,.91-.66.53-1.05C54.62,112.87,54.21,113,54.27,113.57Z"/><path class="cls-3" d="M23.86,111.07c-.48,1.19-1.59,1.74-2.5,2.5A4.63,4.63,0,0,1,23.86,111.07Z"/><path class="cls-3" d="M23.86,112.25a6.09,6.09,0,0,1-2.5,2.37A4.68,4.68,0,0,1,23.86,112.25Z"/><path class="cls-3" d="M23.73,113.17c.06,1.2-1.51,1.91-2.37,2.63C21.7,114.48,23,114.12,23.73,113.17Z"/><path class="cls-4" d="M50.71,114.23a7.12,7.12,0,0,0,6.19,1.71c.17.32.48.48.39,1.05C54.73,117,51.42,116.8,50.71,114.23Z"/><path class="cls-3" d="M23.86,114.49c-.5,1.17-1.59,1.74-2.5,2.5A4.63,4.63,0,0,1,23.86,114.49Z"/><path class="cls-3" d="M23.73,115.41c.06,1.2-1.44,2-2.37,2.63C21.76,116.78,23,116.37,23.73,115.41Z"/><path class="cls-3" d="M23.73,116.6c0,1.17-1.57,1.85-2.37,2.63C21.67,117.88,23,117.55,23.73,116.6Z"/><path class="cls-3" d="M60.85,124.63c-.6-1.55-1.55-2.75-2.24-4.21a16.68,16.68,0,0,1-5.13.53c.34,1.32.89,2.44,1.32,3.69v.13c-.6-.06-1.45.13-1.84-.13-.29-1.34-.8-2.44-1.18-3.69a19.27,19.27,0,0,1-6.06-.39c-.74,1.1-.93,2.76-1.45,4.08a2.79,2.79,0,0,1-1.84,0c.47-1.33.71-2.88,1.19-4.21-1.66-.58-3.68-.8-5.27-1.45a47.71,47.71,0,0,0-3.42,5.66c-.35.26-1.15.08-1.71.13,1.09-2.6,2.75-4.63,3.95-7.11,5.8,1.7,14.07,2.84,21.19,1.58,1.23,1.84,2.58,3.56,3.69,5.53C61.62,124.73,61.07,124.85,60.85,124.63Z"/><path class="cls-3" d="M41.1,124.63a15.36,15.36,0,0,1-4.48,0,33.63,33.63,0,0,1,2.5-4.34c.64.67,2,.67,2.9,1.05C41.83,122.55,41.32,123.44,41.1,124.63Z"/><path class="cls-3" d="M59.53,124.76H56.24c-.25-1-.87-1.68-1.05-2.76a27.84,27.84,0,0,0,2.9-.26C58.55,122.75,59.14,123.66,59.53,124.76Z"/><path class="cls-3" d="M51.37,124.63a24.44,24.44,0,0,1-5.66,0,7.81,7.81,0,0,1,.92-2.76,22.85,22.85,0,0,0,3.95.26A9.15,9.15,0,0,1,51.37,124.63Z"/><path class="cls-4" d="M43.61,23.39c3.05-.27,5.71.48,6.71,2.63-.91-.2-1.86-1.52-3.42-1.71C45.7,24.17,43.63,25.14,43.61,23.39Z"/><path class="cls-3" d="M71.12,24.44c.12-.49,1.06-.17,1.58-.26C72.44,24.54,71.39,24.1,71.12,24.44Z"/><path class="cls-4" d="M45.58,25.63c2.16-.32,3.22,1.36,4.61,2.24-.36.64-1.3,0-1.58-.26a3.78,3.78,0,0,1-2.5.79c0,.46,1,1.06,1.58,1.32-1.75.6-1.75-1.68-3.42-1.58-.11-.73.72-.51.66-1.18s-.82-.85-.79-1.71a.58.58,0,0,1,.53.26c1.71-1.48,4.43-.06,5.27,1.32C49,26.55,47.35,24.64,45.58,25.63ZM46,27.74c.47-.06.63-.42.66-.92C46,26.75,46,27.21,46,27.74Zm.66.26a1.69,1.69,0,0,0,1.18-.4c-.06-.47-.42-.63-.92-.66C46.92,27.41,46.34,27.67,46.63,28Z"/><path class="cls-4" d="M20.3,14.44H80.73V125.81c-19.88.22-40.68.22-60.56,0v-111C20.16,14.65,20.15,14.46,20.3,14.44Zm2.37,40.68c-1.11-.47-.22-2-.4-2.9-.13-.66-.85-.75-.79-1.32.67-.86.19-1,.13-2.24.62-.59.63-1,.53-2.24.64-.37.82-1.2,1.18-1.84a2.85,2.85,0,0,1,1.19-.13c.53-.73.5-1.39.92-2,1.88-2.57,7.35-1.35,9.35-3.29-.1,2.43-.85,3.74-2.5,4.61-2,1-5.12.19-6.45,2.11,2.57-.24,3,1.63,3.55,3.42A78,78,0,0,1,40.71,41c-.58-2.93,1.88-4,3.69-3,0-1.23-1.43-1.34-.79-2.76-.2-.24-.9,0-.79-.53,0-.61.26-.88.26-1.45-.73-.85-2.24-.94-2.37-2.11-.16-1.49,2.39-3.25,2.37-5.4,0-1.17-1-1.5-.66-3-1.62-2.38-3.25-4.74-4.87-7.11H21.36V57.09c.87-.86,2.29-1.81,2.37-3C23.21,54.25,23.59,55.34,22.67,55.12ZM66.12,15.62H39.92c-.32.08-1-.17-1.05.13.61.87,1.23,1.71,1.84,2.63.39.58,1.21,2.41,2,2.63s2.16-.33,3.29-.39a57,57,0,0,1,17.64,2c1.52-2.21,2.78-4.68,4.21-7Zm3.29,0c-.8,1.17-1.82,2.68-2.9,4.48-.82,1.37-2.27,3.38-2.37,4.34a12.92,12.92,0,0,0,.53,2.9c.61,3.05,1.1,5.89,2.24,8.16,3.36-1.9,6,2.39,3.95,5.13a40.28,40.28,0,0,0,4.61,3.82V30.11c-1.7.71-2.88,3.08-2.63,6.19-4.65-2.61-5.58-13.79-.92-17.11.12,3.21,1.31,5.36,3.69,6.32V22.6c1.2-1.34,2.67-2.42,3.95-3.69V15.62ZM76,41.56c.41.74-.62,3.22.53,3.82V23.13c.68-1.21,2.61-1.86,2.76-3.16-1,.94-2,1.84-3,2.76-.3.35,0,1.27-.13,1.84,0,2.66,0,6.39,0,9.48a2.31,2.31,0,0,0,0,1.71v.79c-.3.44,0,1.45-.13,2.11a1.26,1.26,0,0,1,0,1.19Zm-3.55-6.32c.11-1.4-1.11-2.37-1.58-3.69a12.49,12.49,0,0,1,.92-10.27c-.28-.24-.08-1-.4-1.19C68.23,23.56,68.68,32.83,72.43,35.24ZM77,23.65a7.45,7.45,0,0,0,2.5-2.37c0-.1-.11-.15-.26-.13C78.53,22,77.47,22.51,77,23.65Zm-34.1-.92c-.5,1.43.76,2,.79,3,.05,1.93-2.32,3.26-2.37,5.53.58.65,1.57.89,2.11,1.58.07.51-.24.64-.13,1.18,1.15.13,2,1.11,2.76.53a13.22,13.22,0,0,0,.53,1.71c-.89-.2-1.61-1.06-2.63-.39.31.87,1,1.34.79,2.76a2.74,2.74,0,0,0,2.5.66,9.64,9.64,0,0,0,7.11-6.58,1.16,1.16,0,0,1-.79-2.11,1,1,0,0,0,.66,1.45c1.59-2.71.08-7.13-.66-9.61A43.15,43.15,0,0,0,42.95,22.73ZM77,24.84c.91-.76,2-1.32,2.5-2.5A4.63,4.63,0,0,0,77,24.84ZM57.16,38.66c-1.52-3.79-1-10.58-2.24-14.48-.16-.52-.29-1.25-.79-1.45C56.43,27.31,54.3,34.35,57.16,38.66ZM54.93,22.6c1.08,2.33,1.25,5.18,1.45,8.29.18,2.76.26,6,1.84,7.77C56.25,34.18,57.76,26.22,54.93,22.6Zm4.21,16.06c-1.57-4.18-.75-12.59-3.29-15.8C58.31,27.12,56.5,34.47,59.14,38.66ZM57,23c-.16,0-.3-.23-.39,0,1.79,3,1.65,8.47,2.37,12.24.25,1.29.21,2.95,1.45,3.42C58.41,34.87,59.38,26.92,57,23Zm.79.39c1.09,2,1.31,4.93,1.58,7.9s.45,6,2.24,7.37C59.38,34.39,60.32,26.91,57.69,23,57.71,23.15,57.67,23.37,57.82,23.39Zm3.29,12c.28,1.21.47,2.77,1.58,3.29-2.25-4.11-2-10.73-3.82-15.27a.13.13,0,0,0-.26,0C60.18,26.6,60.25,31.71,61.11,35.37Zm2.63,3.29c-2.52-4-2-11-4.21-15.27C61.35,28.07,60.67,35.25,63.75,38.66Zm9-15c0-.43-1.7-.38-1.19.13C71.87,23.71,72.56,24,72.7,23.65ZM77,25.89a6.48,6.48,0,0,0,2.5-2.37A4.63,4.63,0,0,0,77,25.89ZM67.43,41.3c4.74,1.33,4.87-7.5,0-5.53-.42.54-.49,2.22.53,2.11.27-.3-.5-1.14.13-1.45,3-1.24,3.17,3.5,1.18,4.21A3.43,3.43,0,0,1,66,40c-3.6-3-3.51-11.91-5.27-16.32-.16,0-.3-.23-.4,0C62.67,29.21,61.79,39.71,67.43,41.3Zm-4.08-8c.85,3.18,2.34,7.73,5.53,7,1.51-.36,2-3.92-.53-3.42.47.69,1.13.31,1.32,1.18.5,2.38-2.92,1.58-3.69.79-2.8-2.89-2.61-11.45-4.21-14.88-.17,0-.18-.17-.39-.13C62.48,26.21,62.44,29.86,63.35,33.26Zm3.16,5.27c.89.82,3.14,1,2.5-.79-.73-.07-.5.82-1.32.66-4-2.55-3.13-9.95-5.27-14.35C63.84,27.7,63.86,36.11,66.51,38.53ZM72.7,24.18c-.52.09-1.46-.23-1.58.26.44.3,1.45,0,2.11.13C73.26,24.23,72.95,24.24,72.7,24.18ZM66.64,36.69c-.46-2-1.29-3.83-1.71-5.92s-.82-4.21-1.32-6.32c-.16,0-.3-.23-.4,0C64.59,28.29,64.64,33.47,66.64,36.69ZM77,27.08a6.28,6.28,0,0,0,2.5-2.5A5.07,5.07,0,0,0,77,27.08ZM71,25.37a8.32,8.32,0,0,0,3.29,0C73.71,25,71.54,24.89,71,25.37ZM77,28.26c.91-.76,2-1.33,2.5-2.5A4.53,4.53,0,0,0,77,28.26Zm-1.58-2.11A31.77,31.77,0,0,0,70.86,26C71.83,26.54,74.27,26.29,75.46,26.16Zm-.39.92c.21,0,.46,0,.39-.26-1.5.17-3.68-.34-4.74.26h.53A11.14,11.14,0,0,0,75.07,27.08Zm2,2.24a6.67,6.67,0,0,0,2.5-2.37A4.49,4.49,0,0,0,77,29.32ZM70.86,28a15.31,15.31,0,0,0,4.48,0h.13v-.4C74.18,27.8,70.58,27.18,70.86,28ZM77,30.5c.93-.73,2-1.3,2.5-2.5A5,5,0,0,0,77,30.5Zm-5.92-1.45a4.84,4.84,0,0,0,2.5,0c.56-.15,1.71.31,1.84-.26-.33-.47-1.52-.26-2.37-.26s-2.11-.3-2.24.4C70.88,29,71,29.07,71.12,29.05ZM77,31.69a7.58,7.58,0,0,0,2.5-2.5A4.53,4.53,0,0,0,77,31.69Zm-2.11-2.11c-1.27.09-2.89-.17-3.95.13C72,29.85,74.16,30.09,74.94,29.58ZM77,32.74a6.81,6.81,0,0,0,2.5-2.37A4.42,4.42,0,0,0,77,32.74Zm-3-2.37H71.25C71.42,31,73.83,31,74,30.37Zm-2.5,1.05c.48-.09,2.07.23,1.71-.26C72.76,31.64,71.73,30.85,71.51,31.42ZM77,33.92c.92-.75,2-1.31,2.5-2.5A4.85,4.85,0,0,0,77,33.92Zm-4.08-2H71.78C71.62,32.53,73.11,32.53,73,31.95Zm4.21,3.16c.74-.89,1.9-1.35,2.37-2.5C78.83,32.91,77.08,34,77.17,35.11ZM54.93,32.74c-.21,2.13.13,4.76,1.32,5.92A29.14,29.14,0,0,1,54.93,32.74ZM77,36.16a7.16,7.16,0,0,0,2.5-2.37A4.35,4.35,0,0,0,77,36.16ZM54.27,34.58c-.16,1.36-.06,3.56,1.05,4.08A27.09,27.09,0,0,1,54.27,34.58ZM77,37.35c.92-.75,2-1.31,2.5-2.5A4.74,4.74,0,0,0,77,37.35ZM53.61,35.9c-.69-.1-.55,2.79.66,2.76A21.81,21.81,0,0,1,53.61,35.9Zm23.56,2.63c.73-.89,1.89-1.36,2.37-2.5C78.81,36.31,77.09,37.44,77.17,38.53ZM52.69,37c-.52-.34-.59,2,.39,1.71C53,38.07,52.76,37.58,52.69,37ZM77,39.58a7.44,7.44,0,0,0,2.5-2.37A4.23,4.23,0,0,0,77,39.58Zm-25.41-2c-.3.18-.51,1.24.26,1.05C51.91,38.21,51.94,37.74,51.63,37.61Zm-10.27,3c.06-.43-.17-1.14.26-1.19.2.07.33.2.53.26-.15-1,1.06,0,1.05-.92.35.06.67.49,1.05.13C43.38,36.83,40.1,38.75,41.37,40.64ZM77,40.77c.91-.76,2-1.31,2.5-2.5A4.63,4.63,0,0,0,77,40.77ZM64.67,40s0-.13,0-.13c-6.09-.55-15.18.83-20-.53a12.14,12.14,0,0,0-1.71,1.05c7.16-.09,14.65.17,21.59-.13A13,13,0,0,1,62,44.32H48.34c-.58,0-5,0-2.37.13a102.08,102.08,0,0,0,11.59,0h.26c1.1.39,3.11-.13,4.21.26C58.37,50.79,54.66,56.82,51,62.89c-.29.3-.45-.11-.92,0a48.27,48.27,0,0,0-6.45-20c-.39-.71-.67-1.72-1.45-2.11a58.57,58.57,0,0,1,6.58,15.67,20.53,20.53,0,0,1,.92,6.06C49,62,49,61.34,48.21,60.91c-.62-.34-1.61-.16-1.84-1.05C46,58.51,47.52,57.37,47.69,56c.35-2.74-1.1-3.33-3.55-4.08-.17-2.58,1.75-5.84-.79-7.11-1.37-.68-3.83.21-3.42-2.63-.52.27-1.14.44-1.32,1.05.56,1.19.28,1.86,1.32,2.5S43,46,43.34,47.22c.56,2-1.9,3.9-.66,5.79.63,1,2,.5,3.16,1.05,1.64,2.36-1.43,3.46-1.32,5.92-1.17,0-2.37,1-3.16,1.84.93,1.64,3.46.7,3.42-1.19.08,1.55,2.68,1.26,2.76,2.37-.64.15-1.9-.32-2.11.26v.39c.49.39,1.88-.13,2.37.26,0,.77-1.08,1.78-.53,2.24,1.09-.18.7-1.84,1.45-2.37.83.09,2-.17,2.63.13-.21.78-.89,1.71-.79,2.37,1.08-.28.84-1.88,1.58-2.5.79.09,1.93-.17,2.5.13a12,12,0,0,0-.79,2.24c1.54.13.78-2,1.71-2.5,1.12-.15,3,.45,3.16-.66H57.69c.29-.4.5-1.42-.4-1.32-.74.21,0,1-.26,1.32H56c-.7-.76-.6-2.92,1.05-2.5.49-.08,1.31.17,1.58-.13h.53c2.9-1-.12-5.36,1.58-7.11,2.34.19,4.13-.26,4.34-2.24.14-1.3-.88-2.78-.53-3.95C65,45.63,66.11,46.57,68,46c1.44-.41,2.13-2.71,1.58-4.34-.53,0-.79.26-1.32.26.85,4.25-4.58,1.87-5.13,4.74-.24,1.22,1,2.83.53,4.21-.35,1.05-1.73.54-2.9.79-3,.65-1.47,4-1.71,6.71-2.12.74-4.38.29-4.87,2.63-.11.53.19,1.3-.13,2H51.9q6.72-11.12,13.69-22C65.46,40.5,65,40.29,64.67,40Zm12.51,2c.72-.9,1.89-1.36,2.37-2.5C78.81,39.73,77.09,40.86,77.17,42ZM26.62,44.59c2.91-.6,8-.82,7.64-4.74-2.78,1.74-9.13.61-9.08,4.74,1.33-2.41,3.68-3,5.92-2.9.41-.85,1.08.1,1.45-.79.29.57.69-.26,1.05.13C33,44,28.75,43.2,26.62,44.59ZM77,43a6.29,6.29,0,0,0,2.5-2.5A5.07,5.07,0,0,0,77,43Zm-34-2c.15.2.38.32.4.66a1.77,1.77,0,0,0,1.05-.79C44.08,41,43.3,40.73,43.08,41Zm4.34-.13c-2-.29-2.44,1-3.29,1.84.13.27.27.52.4.79C45.86,43,46.32,41.64,47.42,40.9Zm-.13,1.45c-.58.58-1.44,1-1.18,1.45.82.25.27-.87.79-.92s.87-.08.79.39a21.14,21.14,0,0,0,2.5-2.37C48.44,40.64,48.08,41.56,47.29,42.35Zm2.37.53c.68-.2.65.31,1.05.39.67-.87,1.54-1.54,2.24-2.37C50.91,40.61,50.63,42.09,49.66,42.88Zm6.19-2c-2.13-.33-2.44,1.15-3.42,2,.71-.18.7.36,1.18.39A13.36,13.36,0,0,1,55.85,40.9ZM52.16,43c-.11.42-.68.37-.79.79h.79C52,43.42,52.52,43.13,52.16,43Zm3.16-.13c.66-.17.56.4,1.05.39a18.1,18.1,0,0,1,2.24-2.37C56.53,40.57,56.21,42,55.32,42.88Zm-.4.13c-.14.35-.52.44-.66.79h.66C54.89,43.57,55.3,43.14,54.93,43Zm6.45-2.11H60.06c-1,.94-2,1.92-3,2.9H58c0-.42,0-.79.26-.92.71-.18.7.36,1.19.39C59.73,42.32,61.5,41.44,61.38,40.9ZM60.85,43c.52,0,.4.56.92.53.52-.93,1.23-1.67,1.71-2.63C62,41,61.82,42.4,60.85,43ZM77,44.19c.91-.76,2-1.33,2.5-2.5A4.63,4.63,0,0,0,77,44.19ZM66.25,42.09a.84.84,0,0,0-.13,1.18h.66C67.1,42.82,66.88,42,66.25,42.09Zm-24.75.26c-.26.36-.19,1.27.4,1.18S42.41,42.07,41.5,42.35Zm36.2,5c-1.36-1.17-2.64-2.31-3.95-3.42-.68-.58-1.42-1.46-2-1.32-.51.8.75,1.51,1.32,2C74.52,45.76,76,46.89,77.31,48c.68.57,1.57,1.47,2.11,1.32C79.38,48.36,78.37,47.93,77.7,47.35ZM77,45.24a6.49,6.49,0,0,0,2.5-2.37A4.49,4.49,0,0,0,77,45.24ZM48.61,43.8a1.12,1.12,0,0,0,.79-.13c0-.2,0-.49-.13-.53C49.07,43.38,48.72,43.47,48.61,43.8Zm-5.13,13a53.28,53.28,0,0,0-5.53-12.9c-.13,0-.16-.11-.26-.13s-.15-.08-.26,0-.16.11-.26.13a58,58,0,0,1,3.55,6.71c1,2.54,1.63,5.41,2.77,7.9C44.07,58.15,43.61,57.32,43.47,56.83ZM70.72,44.32c1.13.63,1.63,1.88,3,2.24.57,1.45,2.37,1.66,3,3,.37.07.68.19,1.05.26a2.67,2.67,0,0,0,1.71,1.71v-.92c-2.82-2.36-5.57-4.78-8.56-7C70.93,43.92,70.7,44,70.72,44.32Zm6.45,1.84a4.43,4.43,0,0,0,2.37-2.24A5.17,5.17,0,0,0,77.17,46.17Zm-53.05.39c.4-.22,1-.27,1.18-.66C25,43.65,22,45.48,24.12,46.56Zm47-.53a1,1,0,0,0-.79-1.32C69.89,45.4,70.82,45.68,71.12,46Zm6.71.66c.7.1,1.44-.82,1.71-1.58C79.07,45.14,77.79,46.14,77.83,46.69Zm-6.71.66c.14-1.14-.58-1.43-1.32-1.71C69.2,46.43,70.64,46.83,71.12,47.35ZM36.76,49.46c1.49-.31,1.58-3.36,0-3.69C34.12,45.23,34.14,50,36.76,49.46Zm-12.9-.53a1.57,1.57,0,0,1,0-2.24C21.77,44.86,22.39,49.34,23.86,48.93Zm.66-2.24c.57.94-.47,1.58-.26,2.11A9.11,9.11,0,0,0,25.83,48a4.71,4.71,0,0,0,1.05.66c-1.06.39-.6,2.32.13,2.76a17,17,0,0,1,2-1.71C29.06,47.09,26.88,45.32,24.52,46.69Zm48.58.79c.17-.91-.57-.92-.92-1.32A1,1,0,0,0,73.09,47.48Zm5.4-.26c.46.26,1-.35,1.05-.92C79.19,46.08,78.64,46.79,78.49,47.22Zm-9.35-.53c.32.95,1.31,1.23,2,1.84A2.05,2.05,0,0,0,69.14,46.69ZM36.89,54.2a38.51,38.51,0,0,0-3.69-7.11c0-.1-.11-.15-.26-.13-.72.48,1.19,2.47,1.71,3.42,2,3.63,3.18,8.11,4.21,12C39.23,59.41,37.89,56.65,36.89,54.2ZM23.73,48.14c.5,0,.71-.34.66-.92-.17,0-.18-.17-.39-.13C23.83,47.36,23.39,47.76,23.73,48.14Zm42.39-.79c-.45.33-.35,1.42.53,1.18C67,48.15,67,47.18,66.12,47.35Zm7,1.45c.11-.86-.45-1-.92-1.32A1,1,0,0,0,73.09,48.8Zm-31.73,0c1.49-1.48-1.76-1.09,0,0Zm35.15,14a24.55,24.55,0,0,0-6.19-13.69c-.45-.49-1.32-1.52-1.71-1.18a37,37,0,0,0,2.76,3.42,26.83,26.83,0,0,1,5,14.09C77,64.65,76.62,63.59,76.52,62.75ZM75.07,49.19c.06-.9-.5-1.16-1.05-1.45C73.86,48.73,74.54,48.88,75.07,49.19ZM22.15,48.4c-.68,1,.51,2,1.32,2.37C24.32,49.63,23.35,48.84,22.15,48.4ZM72,69.47c.68-.79,3.44-2.93,3.69-3.82.32-1.18-.33-4.05-.66-5.4C73.9,55.43,71,50.64,68,48.54c0,1.25-2.13,2.44-2.11,3.82A15.36,15.36,0,0,0,67.3,55a26.94,26.94,0,0,1,1.32,2.76A28,28,0,0,1,69,73.94,20,20,0,0,1,72,69.47ZM29.65,51.3V53c2.34.11,2.48-3,1.32-4.21a3,3,0,0,0-1.18.92C29.48,50,29.73,50.81,29.65,51.3ZM73.09,50c.06-.77-.49-.92-.92-1.18C72.07,49.6,72.53,49.85,73.09,50Zm-49-.79c-.11.42.34.27.4.53a.71.71,0,0,0,.66-.79C24.59,48.79,24.52,49.15,24.12,49.19Zm.13,2.37c.44,0,.21.76.26,1.18-.29.11-.45.34-.92.26.13.49.22,1,.66,1.19.69-1,1.79-1.55,2.37-2.63A4.58,4.58,0,0,1,26,48.93h-.4C24.83,49.74,25.41,51.12,24.25,51.56Zm37.25-1.32a.82.82,0,0,0,.66,0c.16-.36.29-.55.13-.92C61.66,48.76,61,49.69,61.51,50.25Zm13.56.26c.15-1-.53-1.14-1.05-1.45C73.92,50,74.56,50.18,75.07,50.51Zm2.11.53c.17-1-.56-1.19-1.05-1.58C76,50.5,76.68,50.65,77.17,51ZM33.6,49.72c-.21.75-1.45.48-1.45,1.45.93.43,1.3,1.42,2,2.11C34.85,52.25,34.52,50.23,33.6,49.72Zm11.85,1.45c2.11-.32-.79-2.17,0,0ZM77.7,54.59C77.09,54,76.8,53,75.59,53A10,10,0,0,0,72,50.12a44.58,44.58,0,0,0,7.5,6.06C79.32,55.26,78.56,54.87,77.7,54.59ZM23.86,50.25c-.05.53,0,.92.53.92a.76.76,0,0,0,.26-1.05A1.12,1.12,0,0,0,23.86,50.25Zm4.61.53A20,20,0,0,1,23.86,64.6a14.62,14.62,0,0,0-2.37,3.16c4.69-3.2,7.63-9.31,7.77-17.51C28.79,50.22,28.82,50.69,28.47,50.77ZM23.2,52.35a1.69,1.69,0,0,1,.39-1.05c-.6-.19-.85-.73-1.45-.92C21.43,51.16,22.58,52.07,23.2,52.35Zm16.06,1.71c1.47-.44,1.31-3.74-.66-3.69C36.26,50.44,36.75,54.82,39.26,54.06ZM75.07,51.7c.11-.9-.51-1.07-1.05-1.32C73.95,51.24,74.65,51.32,75.07,51.7Zm.92-.79c.06.78.73.93,1.18,1.32C77.27,51.34,76.48,50.77,76,50.91Zm2.11.39c0,1,.75,1.26,1.45,1.58C79.62,51.86,78.56,51.35,78.1,51.3ZM21.49,58c3.88-.25,7.06-2.84,6.19-6.58A52.32,52.32,0,0,0,21.49,58Zm2.11-5.4h.53c.28-.32.1-1-.39-.92C23.62,52,23.41,52.43,23.59,52.62ZM31,67.1c2.09-3.44,4.65-9.79,4.08-15,0-.07-.11-.15-.13,0-.65,10.29-4.59,17.57-11.06,21.72-.77.49-2.61.8-2.37,2.37A23,23,0,0,0,31,67.1ZM77.17,53.28c0-.86-.62-1-1.18-1.32C76,52.83,76.66,53,77.17,53.28Zm2.37,4.21c-.31-1.41-1.88-2.09-2.9-2.9a13.29,13.29,0,0,0-3.29-2.37A26.41,26.41,0,0,0,79.54,57.49Zm0-3.42c0-1-.86-1.16-1.45-1.58C78.12,53.47,79,53.59,79.54,54.06Zm-56.61.66c.09-.69.55-2-.26-2.11C22.56,53.12,22.25,54.61,22.94,54.72Zm43.71-.39c-.4-.44-.58-1.09-1.05-1.45C64.41,53.46,65.74,55.57,66.64,54.33ZM28.47,58.54c2.82.53,3.34-4.26,1.05-4.74A46.54,46.54,0,0,1,28.47,58.54ZM34.13,62c.18-1.79,2.87-2.77,3-4.48.11-1.19-1-2.58-1.45-3.82C35.53,56.7,34.51,59.58,34.13,62Zm45.42-6.85c-.08-.89-.77-1.16-1.45-1.45C78.15,54.58,78.94,54.75,79.54,55.12Zm0,3.55c-.34-1.09-1.45-1.71-2.24-2.37a27.81,27.81,0,0,0-2.63-2C75.62,56.45,77.74,57.41,79.54,58.67ZM62,55.78c0-.19.29-.15.39-.26C62.55,53.54,60.4,55.47,62,55.78Zm-18.17.53c.25,0,.29.15.53.13a1.16,1.16,0,0,0,.26-1.05C44,54.83,43.41,55.77,43.87,56.3ZM31.23,57c.91.62,1.19,1.88,1.84,2.76.71-1,.74-2.69,1.05-4.08-.27,0-.26-.36-.53-.39C33.38,56.39,31.88,56.25,31.23,57Zm-9.87,1.71c1.07,1.35,3.72.48,5.27.13.3-1,1-2.32.79-3.42A8.24,8.24,0,0,1,21.36,58.67Zm19.22.53c1.69-.07,2.2-4-.26-3.82C38.22,55.57,38.62,59.28,40.58,59.2Zm25.41,8c-.1,4.5-2,7.25-3.42,10.4,4.59-3.81,5.52-16.45,1.05-21.59.13,1.38,1.24,2.71,1.71,4.34A20.08,20.08,0,0,1,66,65.91ZM67.3,56.17c-1.08.44-.36,2.5.92,1.71C68,57.22,68,56.39,67.3,56.17Zm-10,.13c-1.49,1.63,2.06.9,0,0ZM79.54,60c0-1-1.16-1.57-1.84-2.11a6.13,6.13,0,0,0-2.24-1.45C76.42,58,78.1,58.89,79.54,60ZM62.82,57.22C67.48,64.46,64.51,75.54,59,79.6c-.77.57-2.2.91-2.11,1.84C64.4,79,68.41,65.11,63.22,57c0-.08,0-.16-.13-.13A.36.36,0,0,1,62.82,57.22Zm-1.45,2.63A2,2,0,0,0,63.88,61a7.39,7.39,0,0,0-1.45-3.16C62.21,58.67,61.58,59.05,61.38,59.86Zm18.17,1.32c-.49-1.75-2.36-2.11-3.42-3.29C76.58,59.66,78.3,60.17,79.54,61.17Zm-42.39-2.9c-.12.4-.64.41-.66.92a.88.88,0,0,0,1.05.66A2.19,2.19,0,0,0,37.15,58.28Zm11.06,1.32c1.49-1.48-1.76-1.09,0,0ZM35.31,74.86A17.36,17.36,0,0,0,36.89,82c.22.47.41,1.33.92,1.19.35-.49-.2-1.16-.4-1.58-3.56-7.64-.58-17.31,4.74-21.06.77-.54,1.92-.7,1.84-1.58-2.63.77-4.53,3-5.92,5.4a19,19,0,0,0-2.76,9A2,2,0,0,0,35.31,74.86Zm-9-11.45c2.67,1.06,3.86-3.28,1.84-4.21C27.75,60.77,26.91,61.94,26.36,63.41Zm-5-3.82c.39,1.59,2.16,1.79,3.95,2,.2-.66,1.29-1.75.79-2.24A7.61,7.61,0,0,1,21.36,59.59Zm58.19,2.9c-.34-1.68-2-2-3-3C76.83,61.17,78.41,61.6,79.54,62.49Zm-10.66-2.9c-1.16.07-1.2,2.2.26,2C69.47,61,68.93,60.24,68.88,59.59ZM34.39,62.36c1.26.69,1.9-1.23.92-1.71C35,61.25,34.46,61.55,34.39,62.36ZM23.86,63.67a4.91,4.91,0,0,0,1.05-1.58,11,11,0,0,1-3.55-1.19C21.47,62.55,22.75,63,23.86,63.67Zm55.69-.26a6.92,6.92,0,0,0-2.63-2.24A3.67,3.67,0,0,0,79.54,63.41ZM29.26,62.36c-.31.56.41.9.66,1.45s.15,1.4.66,1.84c.8-.92,2.19-2.87,1.45-4.08C31.51,62.29,30.13,62.39,29.26,62.36ZM61,63.81c1,0,1.27-1.45.39-2.11A1.07,1.07,0,1,0,61,63.81Zm3.29-1.58c-1.76,0-2.36,4.61.53,4.34A16.26,16.26,0,0,0,64.27,62.23Zm14.61,1.45c-.68-.37-1.15-1-1.84-1.32C77.21,63.2,78.23,64.55,78.89,63.67ZM37.29,84.21c-.39-1.37-1.11-2.66-1.58-4.21a20.77,20.77,0,0,1-.92-5.13c-.24-5.2,1.93-9,3.55-12.11,0-.1-.11-.15-.26-.13C33.82,67.21,32.83,79,37.29,84.21Zm-15-18.83a1.9,1.9,0,0,0,1.18-1.32c-.84-.34-1.28-1.09-2.11-1.45A2.77,2.77,0,0,0,22.28,65.39Zm15.67,1.18c2.35.91,3.66-2.29,2.37-3.82A16.3,16.3,0,0,0,37.94,66.57Zm21.19-3c.56,4.24-.39,7.63-2.24,9.61-.43.46-1.35.72-1.19,1.58,3.18-1.31,5.16-6.57,3.82-11.58h-.39C59.12,63.3,58.9,63.45,59.14,63.54Zm9.61,1.58a2.45,2.45,0,0,0,1.05.13,12.26,12.26,0,0,1-.13-1.84C68.55,63.16,68.45,64.37,68.75,65.12Zm8.69-.39c.12-.23.48-.22.53-.53-.36-.08-.33-.55-.79-.53C77.26,64,77.23,64.5,77.44,64.73ZM26.1,63.94c-1.09,1-1.94,2.27-3,3.29C24.88,69.08,27.36,66.33,26.1,63.94Zm7.24,0c0,.72-.54,1-.53,1.71C34.06,66.46,34.71,64,33.34,63.94Zm9.74,2.24c.88-.08,1.24-2.29-.13-2.24S42.08,66.27,43.08,66.18Zm15.53-2.24a26.8,26.8,0,0,0,0,3c-.23,3.14-1.73,4.84-2.9,6.45C57.94,72.18,59.52,67.88,58.61,63.94Zm20.67,1.32c.3-.14,0-.83.13-1.18-7,3.79-12.22,11-13.56,20.4-.18,1.27-.59,2.8.13,3.95C66.6,76.88,71.34,69.47,79.28,65.25Zm-24.35,2a9.36,9.36,0,0,1-2.5-.13c.26-.75.59-1.43.79-2.24-1.46-.06-.94,1.87-1.84,2.37-.71-.09-1.75.17-2.24-.13.13-.74.82-1.51.53-2.24-1.16.16-.77,1.86-1.58,2.37H45.71c-.34,2,.29,5-1.05,6.06.64.5-.5,1.4-.39,2.24,1.27-.09.91-1.81,1.71-2.37.79.09,1.93-.17,2.5.13-.17.73-.81,1.61-.66,2.24,1.25-.11.86-1.86,1.71-2.37.7.09,1.75-.17,2.24.13a15.12,15.12,0,0,0-.66,2.11c1.41.1.86-1.78,1.71-2.24h2.37c.37-2-.34-5.08,1.05-6.06-.83-.39.54-1.42.4-2.37C55.38,64.87,55.68,66.58,54.93,67.23ZM45.71,67c.21-.67.5-1.26.66-2h-.66A3.11,3.11,0,0,0,45.71,67Zm-24.35-.53a.72.72,0,0,0,.66-.66c-.17-.23-.27-.52-.66-.53Zm20.27,6.32c.27-3,1.67-4.69,3.55-6.45.17-.16-.13-.67,0-.79-3.06,1.27-5.49,7.12-3.55,11.72C41.8,75.48,41.51,74.09,41.63,72.76Zm19.75-4.61c.83-.07,1.12-1.4.39-2.11C59.67,65.76,60.24,68.25,61.38,68.15Zm14.88,0a3.66,3.66,0,0,1,2.63,1.05c.87-.23.62-2.67.26-3.29C78.1,66.58,76.61,66.79,76.25,68.15ZM25.17,74.6c.33,8,3.25,13.42,7.77,17.25.53-1.49,1.61-2.43,2.11-3.95-3.83-4.46-5.38-14.49-3.16-21.46C30.22,69.73,27.71,72.18,25.17,74.6Zm17.11,1.71c-.34-3.9.75-7.38,2.9-9.21,0-.1,0-.26-.13-.26C42.85,68.58,41.43,72.38,42.29,76.31ZM26.23,67.23c-.53.73.62,2.32,0,3.56.72.14,1.38-.67,1.84-1.19a3,3,0,0,0,1.05-2.24A3.08,3.08,0,0,1,26.23,67.23Zm43.31,2a5.07,5.07,0,0,0,.13-2C68.35,67,68.28,69.28,69.54,69.2ZM32,67.49c0,.71-.31,1.18-.39,1.84C32.94,69.67,33.26,67.49,32,67.49ZM36.36,72c2.53.3,2.59-3.47,1.05-4.34A20.88,20.88,0,0,0,36.36,72ZM21.49,68.41c.08.79-.17,1.93.13,2.5C23,70.75,23.11,66.44,21.49,68.41Zm19.22,1.45c.79-.11,1-1.29.4-2C39.18,67.11,39.22,70.08,40.71,69.86Zm22.78,2.76a16.37,16.37,0,0,0,1.05-4.34C62.13,68.24,61.72,71.66,63.48,72.63Zm14.88-.13c.55,0,.55-.5,1.05-.53v-2.5C78.19,69.71,78,71.38,78.36,72.5Zm-3.69-2.9c-.17,0-.18-.17-.39-.13-1.05.93-2.32,1.63-2.5,3.42a3.11,3.11,0,0,1,2.9.26C75.2,72.34,74.08,70.87,74.67,69.6Zm-14.22,3c.82-.08,1.33-2.34-.26-2.11C58.87,70.72,59.48,72.73,60.46,72.63Zm8.29.26A12.32,12.32,0,0,0,69.28,71C68.19,70.44,67.55,72.69,68.75,72.89ZM21.88,71.18c-.71.36-.39,2.39-.26,3.16a4.89,4.89,0,0,0,3-2A11.49,11.49,0,0,1,21.88,71.18ZM31.1,73c1.49.42,1.54-2,.26-1.84C31.07,71.59,31.37,72.59,31.1,73Zm7.77,1.05c1,.82,2-.44,1.45-1.58C39.32,71.63,38.25,72.93,38.87,74.08ZM74.8,76.44c1.06-1.09,1.94-2.36,3-3.42C75.69,71.26,73.53,74.32,74.8,76.44ZM71.64,90.14h.13c1-.45.59-1.64.66-2.76A20.46,20.46,0,0,1,77,75.79a16.8,16.8,0,0,0,2.37-3.16c-4.57,2.94-7.34,8.81-7.77,16.32C71.39,89,71.48,90.51,71.64,90.14Zm-17-14.74c.37.11.34-.19.66-.13-.08-.57.17-1.49-.13-1.84C55,74,54.5,74.88,54.66,75.39Zm5.92,2.11A14.1,14.1,0,0,0,63,73.81C60.89,72.61,59.12,76,60.59,77.5ZM36.1,73.68a11.26,11.26,0,0,0,.66,4.48C38.54,77.6,38.63,73.48,36.1,73.68Zm42.78.92c.17.23.27.52.66.53-.12-.36.27-1.24-.26-1.19C79.24,74.25,78.82,74.19,78.89,74.6Zm-29,2.76c.35,0,.75,0,.92.13a47.34,47.34,0,0,0,7.9,22.12c-3.54-6.16-6.81-13.28-7.5-21.85.72.48.36.93,1.05,1.45s2,.26,2.24,1.18c.39,1.3-1.13,2.44-1.32,3.95-.13,1,0,2.52.92,3.16.75.52,1.83,0,2.63.92.16,2.49-1.54,5.15.26,6.71.92.8,2.16.17,3.16.79.71.44.65,1.36.92,2.24.24-.51,1.1-.39,1.18-1.05-.53-1.16-.18-1.57-.92-2.24-1-.88-3.43-.38-3.82-1.71-.53-1.82,1.49-3.47.92-5.27-.36-1.12-1.64-1.36-3.16-1.45-2.1-2.15,1.12-3.69,1.05-6.19,1.27.2,2.16-1.08,3.16-1.58-.64-1.89-3.67-.95-3.42,1.05-.16-1.51-2-1.32-2.76-2.24.4-.43,1.92.26,2.11-.4.25-1.3-1.84-.27-2.37-.79.17-.74.89-1.53.66-2.24-1.12.15-.85,1.7-1.45,2.37H49.53c.11-.74,1.14-1.9.66-2.37-.89.38-.69,1.86-1.45,2.37h-2.5A11.89,11.89,0,0,0,47,74.21c-1.46-.1-.83,1.89-1.71,2.37-1.14.13-3-.42-3.16.66.14.3.94-.06,1.05.26a.68.68,0,0,0,.26,1.19c.76-.24.29-1.08.26-1.32h1.32a2.87,2.87,0,0,1,.13,2.11c-1.88.72-4.57-.09-4.87,2.5-.23,2,1.53,4.7-.53,5.27-.6.16-1.81-.29-2.37-.13-2.53.7-1.1,3.82-1.05,6.19-.5,1.44-2.15.7-3.42,1.05-1.59.44-2,2.65-1.58,4.34a5.71,5.71,0,0,1,1.32-.26c-1.29-4.26,4.53-1.68,5.13-4.74.32-1.62-.7-2.18-.53-4.34.1,0,.15-.11.13-.26.75-.81,1.54-.23,2.5-.39,2.9-.49,2.12-3.5,1.84-6.58.58-1,1.91-.42,3-.66,1.81-.38,2.09-2,2.11-4.08H49c-3.88,6.49-8.62,13.85-12.64,20.27-.45.73-1.67,2.09-.13,2.76h.13c5.71.31,12,0,17.9.13,1.73.34,2.45.61,3.55-.53-7.11.09-14.56-.17-21.46.13a11.46,11.46,0,0,1,2.5-4.08h17c-.2-.45-2.78-.26-4.21-.26-4.3,0-9,.11-12.77-.13C42.47,89.48,46.32,83.54,49.92,77.37Zm8.56-3c-1.35-.62-1.91,1-1.18,1.84C58.64,76.83,59.21,75.09,58.48,74.34Zm9,2.11a4.12,4.12,0,0,0,.66-1.84C66.83,73.94,66.31,76.12,67.43,76.44Zm1.45,2.37c.37-.86,1.75-.7,2.76-.92-.06-.86-1.12-1.74-1.05-3.16C69.33,75.27,68.19,77.59,68.88,78.81Zm8.56-2.5c.91.27,1.28,1.09,2.11,1.45a2.55,2.55,0,0,0-1.18-2.9C78.08,75.38,77.5,75.59,77.44,76.31ZM31.1,91.06C27.47,87.16,25,81.91,24.65,75c-.78.65-.36,1.89-.26,2.63a22.61,22.61,0,0,0,7.9,15C32.39,91.83,31.51,91.49,31.1,91.06ZM31.36,77c.95.12,1.08-1,.79-1.71-.28-.11-.45-.34-.92-.26A4.06,4.06,0,0,0,31.36,77Zm-8.43-1.05c0,.44.39.57.66.79.21-.21-.12-.55,0-1.05C23.27,75.63,23.19,75.86,22.94,75.92Zm-.79.53c0,.5,1.06,1,1.58,1.45A1.43,1.43,0,0,0,22.15,76.44Zm17.77,2.24c.86,0,1.19-1.08.66-2C38.66,75.93,38.58,78.67,39.92,78.68ZM76,78.29c1.5,0,2.69.9,3.55,1.05-.18-1.62-1.49-2.11-2.63-2.76C76.73,77.28,76.12,77.54,76,78.29ZM21.36,76.84c.47,1.2,1.71,1.63,2.63,2.37A3.92,3.92,0,0,0,21.36,76.84ZM72.7,81.18A29.26,29.26,0,0,1,74.54,77C71.76,75.83,70.74,80.25,72.7,81.18Zm-10,1.71a44.76,44.76,0,0,0,4.21,9.22c.2.35.49,1.53,1.18,1.05.23-.53-.38-1.07-.66-1.45-2.62-3.6-4.2-8.49-5.13-13.56-.08,0-.16,0-.13-.13s0-.16-.13-.13C61.52,79,62.18,81.22,62.69,82.89Zm3-3.29c.12-.67.76-.82.79-1.58C65.51,77,64.33,79.33,65.72,79.6ZM24.38,80.79c-.41-1.56-1.82-2.13-3-2.9C21.74,79.49,23.29,79.91,24.38,80.79Zm39.36,2c-.16,1.27,1,2.65,1.45,3.95a46.93,46.93,0,0,1,1.71-8.56C66.71,79.77,63.92,81.39,63.75,82.76ZM31.89,78.68c-.6.42.11,1.34.13,2C33.25,80.72,33,78.54,31.89,78.68Zm43.71.13a9.38,9.38,0,0,0-1.05,2.11,12.21,12.21,0,0,1,5-.26C79.21,79.15,77,78.82,75.59,78.81ZM37,79.21a16.56,16.56,0,0,0,1.18,3.16,3.8,3.8,0,0,0,1.32-2A2.28,2.28,0,0,0,37,79.21ZM24.78,82.37c-.52-1.67-2.11-2.28-3.42-3.16C21.94,80.82,23.61,81.34,24.78,82.37Zm-3.42-1.45c.61.43,1.28,1.15,2,1.71s1.68,1.31,2,1.19c-.87-1.59-2.5-2.41-3.95-3.42Zm42-.4A1.66,1.66,0,0,0,63.75,82c.12-.4.64-.41.66-.92A.88.88,0,0,0,63.35,80.53ZM67.17,85a7.36,7.36,0,0,1,2.5-1.58A7.06,7.06,0,0,1,68,80.53C67.22,81.41,66.48,84,67.17,85ZM52.42,81.84a.82.82,0,0,0,.66,0c.18-.17.13-.57.13-.92C52.59,80.37,52,81.31,52.42,81.84Zm21.72-.13a20.9,20.9,0,0,0-.79,3c1.41-1.14,3.24-3,6.19-3C78.61,80.24,75.36,81.11,74.15,81.71Zm-14,3.16c2.42.26,2.44-4.32-.26-3.69C58.3,81.57,58.51,84.69,60.19,84.87ZM21.36,82.11c1.59,1.36,3.19,2.69,4.87,3.95-.9-2.21-3.14-3.09-4.87-4.48Zm36.2-.39c-.83.32-.29,1.28-.13,1.84a51.86,51.86,0,0,0,3.95,10c.53,1,1.21,3.26,2.37,2.76C61.07,92.59,59.12,87,57.56,81.71Zm13.82,4.87a36.82,36.82,0,0,1,1.05-4.74C69.49,81.26,69.18,86.09,71.38,86.58ZM32.68,82.5a9.19,9.19,0,0,0,.66,1.71C34.79,84,33.87,81.44,32.68,82.5ZM73,89a34.47,34.47,0,0,0,6.45-6.71C75.66,82.87,72.74,84.34,73,89ZM21.36,83.42c2,1.56,4.15,3.66,6.19,4.74-1.6-2.26-4-3.7-6.19-5.4Zm22,.66a.69.69,0,0,0,.39-1.19C42.78,82.67,42.79,83.86,43.34,84.08Zm33.83,2.11c.52-.18.17-1.23,1.19-.92.94.73.1,1.86.26,2.76.09.5.6.86.66,1.32s-.39.59-.39,1.05.75.66.39,1.18c-.56.7-.66,1.06-.53,2.37-.73.33-.78,1.33-1.32,1.84-.22.22-.77.1-1.18.13a7.09,7.09,0,0,1-1.05,2.24c-1.65,1.87-5.11,1.17-7.5,2.11-.76.3-1,.9-1.71.92.31-1.91.53-3,1.58-3.95,1.95-1.79,5.68-.68,7.37-2.76-2.33.09-3-1.44-3.29-3.42-3.71,2.83-7.19,5.88-11.45,8.16.43,2.78-1.57,4.33-3.69,3-.11,1.3,1.43,1.35.79,2.77.19.3.86.11.79.66s-.31.83-.26,1.45c.85.74,2.29,1,2.37,2.11.09,1.28-2.43,4-2.5,5.13.28,1.09.94,1.78.79,3.29.81,1.16,1.63,2.28,2.5,3.55.55.81,1.73,3.26,2.63,3.55s2.71,0,3.95,0H79.41c.22-13.56.22-28,0-41.6C78.82,84.24,77.17,84.94,77.17,86.19ZM56.11,84.74c.21.15.27.43.66.39C58,84.57,56,83.09,56.11,84.74ZM23.33,85.79c1.52,1.81,3.64,3,5.4,4.61-.57-1.49-2.2-2.31-3.42-3.29a42.37,42.37,0,0,0-3.95-3C21.49,85.18,22.42,85.47,23.33,85.79Zm15.67,0c.44,0,.52-.86.26-1.19C38.31,84.31,38.19,85.83,39,85.79Zm-16.19.79a1.9,1.9,0,0,0-1.45-1.32C21.48,86,22.29,86.66,22.8,86.58Zm11.58-.79a1.73,1.73,0,0,0,1.05,1.58C36.17,86.7,35.45,85.07,34.39,85.79Zm43.84,2c.08-.47.48-2.05-.26-2.11C77.72,86.26,77.43,87.57,78.23,87.77Zm-17.64.13a1.67,1.67,0,1,0,3.29,0c-.06-1-.53-2-2-1.71A1.78,1.78,0,0,0,60.59,87.9Zm13.56.79c.73.54.5,2,1.05,2.76.39-.78.89-.92.66-2.11.2-.15.27-.43.66-.4-.07-.37-.19-.68-.26-1.05.24-.28.38-.67,1.05-.53-.13-.49-.22-1-.66-1.19A31.15,31.15,0,0,1,74.15,88.69ZM22.8,87.77c-.11-.86-.82-1.12-1.45-1.45A1.67,1.67,0,0,0,22.8,87.77Zm44.5,2.9c.2-.77,1.38-.55,1.45-1.45A4.45,4.45,0,0,1,66.91,87C65.93,87.55,66.33,90.14,67.3,90.66ZM24.91,88.29c-.06-.73-.64-.94-1.18-1.19A1.18,1.18,0,0,0,24.91,88.29Zm46.47-.92c-2.2-.54-2.91,3.09-1.32,4.21C71.62,91,71.07,89,71.38,87.37ZM22.67,89.08c.07-1-.66-1.28-1.32-1.58C21.28,88.55,22.11,88.68,22.67,89.08Zm54.5-.39c.18-.19.27-1-.13-1.05S76.49,88.72,77.17,88.69Zm.13.39c.6.19.85.73,1.45.92.69-.81-.41-1.67-1.05-2A3.44,3.44,0,0,1,77.31,89.08Zm-52.53.53c.14-1-.57-1.1-1.05-1.45C23.6,89.12,24.33,89.22,24.78,89.61Zm2.11.4c.07-.86-.64-.94-1.05-1.32C25.72,89.59,26.34,89.76,26.89,90Zm-3.56,1.45c2.3,1.92,4.56,3.75,6.58,5.27.74-1.31-1.57-1.5-1.84-2.63a4.9,4.9,0,0,1-.92-.26c-.56-1.46-2.37-1.67-3-3-.37-.07-.68-.19-1.05-.26a2.63,2.63,0,0,0-1.71-1.71C21.21,90.11,22.52,90.77,23.33,91.45Zm51.34-.66c-.23-.69-.13-1.72-.92-1.84-.43,1-1.65,1-1.84,2-.42,2.19,2.5,4.37,4.48,2.63,0-.42-.35-.44-.26-.92s.68-.46.66-1.05c-.76.07-1.14.53-1.71.79-.27-.25-.64-.42-.92-.66C74.29,91.37,74.62,91.23,74.67,90.79ZM55.06,90.4c.59.08.66-.83.4-1.19C54.49,89,54.51,90.17,55.06,90.4Zm21.2-.13c.74.2,1-.6.66-1.05C76.2,89.13,76,89.71,76.25,90.27Zm-51.47.66c.17-1-.56-1.19-1.05-1.58C23.53,90.42,24.34,90.49,24.78,90.93Zm52.13-.26c.85.2.78,1.33,1.84,1.32.53-1.25-.49-2-1.32-2.37A1.88,1.88,0,0,1,76.91,90.66Zm-50,.53c0-.82-.58-1-1.05-1.32A1.1,1.1,0,0,0,26.89,91.19Zm12-1.18a.84.84,0,0,0-.13,1.18C39.76,91.46,39.76,89.87,38.87,90ZM28.73,91.58c.1-.8-.35-1.05-.92-1.18C27.74,91.16,28.29,91.32,28.73,91.58Zm-3.42,3.16c1.49,1.29,2.53,2.66,4,3,.3-1-.91-1.4-1.45-1.84-2-1.64-4.08-3.37-5.92-5-.17,0-.18-.17-.39-.13C21.71,92.44,24.14,93.74,25.31,94.74Zm50.42-3.29a1,1,0,0,0,1.05-.53A.6.6,0,0,0,75.73,91.45ZM64.54,94.61c2.13,0,2.24-4.46-.53-3.69C62.36,91.38,62.75,94.6,64.54,94.61ZM26.89,92.5c.12-.91-.55-1-1.05-1.32A1.14,1.14,0,0,0,26.89,92.5Zm50.68-.13c.12.81-1.09,1.5.39,1.84.27,0,.26-.36.53-.4A2.36,2.36,0,0,0,77,91.32C76.87,92.06,77.49,91.82,77.57,92.37Zm-48.84.53c.08-.83-.24-1.25-.92-1.32C27.7,92.44,28.26,92.63,28.73,92.9Zm30.54-1.32a.84.84,0,0,0,.13,1.18c.33,0,.41-.21.66-.26C60.14,91.86,59.93,91.49,59.27,91.58ZM34.65,93a.88.88,0,0,0,.39-.92C34.24,91.18,33.5,92.95,34.65,93Zm-2.9.66c-.3-1-1.28-1.26-2-1.84A2.09,2.09,0,0,0,31.76,93.69Zm44.89-.39c.5,0,.51-.54.66-.92C76.77,91.88,76.23,92.83,76.65,93.3ZM21.36,93c.35,0,.43-.18.4-.53C21.41,92.47,21.32,92.69,21.36,93Zm7.37,1.05c.06-.76-.29-1.12-.92-1.18C27.68,93.73,28.23,93.89,28.73,94.09Zm-7.37.13a1.69,1.69,0,0,0,1.05-1.05C21.93,92.92,21.33,93.53,21.36,94.22Zm9.74.53c.62-.82-.84-1.19-1.32-1.71C29.65,94.18,30.37,94.46,31.1,94.74Zm-9.74.53c.61.05,1.22-1,1.71-1.45C22.52,93.34,21.59,94.58,21.36,95.27Zm54.24-.79c.18.84,1.25,1.64,2,.79C77.84,93.66,76.15,93.59,75.59,94.48Zm-54.24,2a6,6,0,0,0,2.37-2.24A4.13,4.13,0,0,0,21.36,96.45Zm9.21-.79c.38-.68-.3-1-.79-1.18A1,1,0,0,0,30.57,95.66Zm-9.21,2c.86-.73,2.43-1.43,2.37-2.63C23,96,21.67,96.29,21.36,97.64Zm3.55-.92c0-.78.07-1.56-.53-1.71v22.25c-.82,1.06-2.58,1.9-2.76,3.16.88-1.09,2.13-1.82,3-2.9.31-.88,0-2.32.13-3.42V100.93A26.15,26.15,0,0,0,24.91,96.72Zm41.6,3.69c3-1.54,9.27-.56,9.21-4.74a4.15,4.15,0,0,1-4.21,2.63,1.44,1.44,0,0,1-1.71.4c-.89.68-1.33.43-2.5.79.23-3.2,5.8-2.44,7-3.82C71.09,96.64,66.64,96.37,66.51,100.4Zm-41.21,10c2-1,3-3.69,2.77-6.45,4.49,2.49,5.6,13.91.92,17.11-.18-3.15-1.37-5.3-3.69-6.32v3c-.69,1.24-3.55,2.42-3.95,3.82a11.37,11.37,0,0,0,.13,3.16h10c.82-1.35,1.8-2.73,2.76-4.34.71-1.18,2.4-3.32,2.5-4.61A12.24,12.24,0,0,0,36.1,113c-.62-3-.81-5.92-2.11-8.16-3,1.71-6.22-2.33-4-5.27-1.64-1.13-2.86-2.67-4.61-3.69C25.52,100.88,25.32,105.56,25.31,110.41ZM21.36,98.69a5.48,5.48,0,0,0,2.5-2.37A5,5,0,0,0,21.36,98.69Zm22.51-2.11h-.92c.05.53,0,.92-.53.92s-.43-.45-.92-.39c-.51,1-1.51,1.47-2.11,2.37C42.06,99.69,42.31,97.49,43.87,96.59Zm2,.66c.44,0,.57-.39.79-.66H46C46.08,97,45.79,96.93,45.84,97.24Zm-3.55,2.24c2,.29,2.32-1.19,3.29-2C44,96.58,43.42,98.78,42.29,99.48Zm7.24-2.9h-.79c.15.35-.25.77,0,.79C48.85,97,49.42,97,49.53,96.59Zm-2.24.53c-.54,1-1.5,1.49-2.11,2.37,2,.26,2.33-1.18,3.29-2C47.76,97.69,47.78,97.15,47.29,97.11Zm4.34.13c.09-.35.6-.28.66-.66h-.66C51.71,96.82,51.25,97.13,51.63,97.24Zm2.24.26c-.58.14-.43-.45-.92-.39-.62.91-1.54,1.53-2.24,2.37,2.55.14,3-1.85,4.34-2.9H54.4C54.32,97,54.37,97.52,53.87,97.51Zm2.37-.79a27.59,27.59,0,0,0-2.63,2.76C55.46,99.64,57.38,97.91,56.24,96.72ZM37.42,99.48c1.31-.27,1.78-1.38,2.5-2.24-.47.07-.32-.47-.79-.39A29.71,29.71,0,0,0,37.42,99.48ZM59.14,98c.3-.1.39-.4.53-.66C59.28,96.06,57.84,97.77,59.14,98Zm-25,.13h.66C35.56,96.77,33.35,96.77,34.13,98.17Zm13.82,1.32c2,.26,2.33-1.18,3.29-2-.71.18-.55-.5-1.18-.39C49.59,98.14,48.56,98.61,47.95,99.48Zm-26.59.4c.92-.66,2.42-1.45,2.37-2.63C23,98.2,21.76,98.61,21.36,99.88Zm0,1.18c.93-.73,2-1.31,2.5-2.5A4.85,4.85,0,0,0,21.36,101.06Zm35-1.58h1.45a1.1,1.1,0,0,0-.53-.92A4.07,4.07,0,0,0,56.37,99.48ZM36,100.8A4.5,4.5,0,0,0,32.68,99c-3.79.08-4,6.63.53,5.79.54-.26,1-2.25-.13-2.24-.33.48.23,1-.39,1.45-1.94,1.52-3-2.59-1.84-3.82,1.4-1.44,3.81-.13,4.61.79,3.14,3.62,2.77,11,5,15.8C38.87,112.1,38.76,104.42,36,100.8Zm-14.61,1.32a5.67,5.67,0,0,0,2.5-2.37A4.9,4.9,0,0,0,21.36,102.11Zm37.91-1.18a.58.58,0,0,0-.53-.26c.08,1-1,0-1.05.92-.4,0-.47-.41-1.05-.26.41,2,4.1.71,3-1.71C59.38,99.9,59.71,100.8,59.27,100.93Zm-24.88-.26c-.77-.59-2.73-.76-3.29,0-.72,1-.14,3.78,1.45,2.63-3-1.06,0-3.6,2-2.11,3.32,2.52,2.84,12.29,4.87,15.27C38.17,112.63,37.82,103.29,34.39,100.67Zm-13,2.63a8,8,0,0,0,2.5-2.37c0-.1,0-.26-.13-.26C23,101.65,21.67,101.94,21.36,103.3ZM53,101.19c-2.78.82-5.92,3.67-6.45,6.32,1.26-.22,1.74,2.06.79,2.11a1,1,0,0,0-.66-1.45c-1.52,2.79-.14,7.33.79,9.74,3.44.2,7.58.3,10.53-.4.43-1.44-.78-2-.79-3,0-1.89,2.23-3.26,2.37-5.4-.53-.75-1.62-.93-2.11-1.71-.09-.49.22-.56.13-1.05-.54-.38-1.6-.25-1.84-.92-.58-.14-.43.45-.92.4.06-.85-.42-1.16-.53-1.84.63.32,1.79,1.11,2.63.4-.32-.82-1.07-1.21-.79-2.63A3.09,3.09,0,0,0,53,101.19Zm-18.83.4c-.69-.45-3.06-.64-2.11,1.05a1.4,1.4,0,0,1,2.11-.26c2.17,1.82,2.55,8.38,3.55,11.32C37,110.3,36.53,103.15,34.13,101.59Zm4.34,14.61a5.53,5.53,0,0,0-.53-1.45C38,115.31,38,116,38.47,116.2Zm2.9.79c-1.67-4.65-1.4-11.24-3.82-15.14-.16,0-.3-.23-.39,0C39.77,105.68,39.11,112.8,41.37,117Zm-1.45-11.59c-.3-1.42-.59-3-1.71-3.69A35.73,35.73,0,0,1,40.58,110,38.51,38.51,0,0,0,39.92,105.41Zm1.71,10.27c-.37-1.47-.62-3.07-.92-4.61A12.08,12.08,0,0,0,41.63,115.67Zm1.58,1.58c-2.35-4-1-11.73-3.55-15.53-.15,0-.37,0-.4.13C41.63,105.93,40.53,113.48,43.21,117.25Zm-2.5-15.53h-.26c2.21,3.71.85,12.14,3.69,15.67C41.84,113.32,43.24,105.56,40.71,101.72Zm4.08,15.4c-1.87-4.18-.84-11.27-2.76-15.4h-.4C43.54,106,42.43,113.3,44.79,117.12Zm1.05.53c-1.79-3.92-.86-11.69-2.76-15.93h-.39C44.64,106.13,43.23,113.9,45.84,117.65Zm-.4-8.16c-.26-2.9-.2-6.12-1.71-7.77,1.92,4.45.56,12.16,3,16.06a22.67,22.67,0,0,1-1.32-6.85A1.68,1.68,0,0,0,45.45,109.49Zm-.79-7.77c.75,1.62.93,3.81,1.32,5.79C46.17,105.46,45.83,102.84,44.66,101.72Zm1.05,0a33.65,33.65,0,0,0,1.05,3.95C46.68,104.08,46.69,102.4,45.71,101.72Zm1.71,2.9c.68-.7,0-1.91-.13-2.9-.19.07-.68-.15-.66.13C47.1,102.57,47.06,103.8,47.42,104.62Zm.79-1.19c.79-.07.18-1.27.13-1.71-.2,0-.49,0-.53.13A4.07,4.07,0,0,1,48.21,103.43Zm1.19-.79c.14-.16.37-1.14-.26-.92C48.85,101.89,49,102.73,49.4,102.64Zm-28,1.71a5.64,5.64,0,0,0,2.5-2.37A5,5,0,0,0,21.36,104.35Zm0,1.19c.92-.66,2.42-1.45,2.37-2.63C23,103.85,21.75,104.26,21.36,105.54Zm12.9-1.84c.45,2,1.42,3.84,1.84,6.06s.51,4.34,1.45,6.19C36.43,111.87,36.17,107,34.26,103.69Zm-12.9,3c.92-.75,2-1.31,2.5-2.5A4.85,4.85,0,0,0,21.36,106.72Zm8.56,1.84a12.64,12.64,0,0,1,.79,5.92C30.47,116.56,29,118,29.39,120c3.36-2.77,2.77-12.65-.92-15C28.46,106.71,29.43,107.33,29.91,108.57Zm-8.56-.79a5.85,5.85,0,0,0,2.5-2.37A4.9,4.9,0,0,0,21.36,107.78Zm0,1.19c.91-.67,2.4-1.46,2.37-2.63C23,107.27,21.75,107.68,21.36,109Zm0,1.18c.91-.76,2-1.31,2.5-2.5A4.85,4.85,0,0,0,21.36,110.15Zm7.77-1.71c.08-.61-.72-.33-1.18-.39v.39Zm-7.77,2.77a6.09,6.09,0,0,0,2.5-2.37A4.78,4.78,0,0,0,21.36,111.2Zm5.4-1.19c.89-.16,2.44.33,2.9-.26C29,109.6,27,109.33,26.75,110Zm-5.4,2.37c.88-.7,2.42-1.44,2.37-2.63C23,110.7,21.71,111.07,21.36,112.38Zm5-1.84c-1.07.19.81,0,.92.26h2.24c.41-.11.5-.34-.13-.26A7.05,7.05,0,0,0,26.36,110.54Zm-5,3c.91-.76,2-1.32,2.5-2.5A4.63,4.63,0,0,0,21.36,113.57Zm8.56-2.37h-.4c-1.2.23-3.63-.49-4.08.39a8.25,8.25,0,0,0,4.61,0A.62.62,0,0,0,29.91,111.2Zm-8.56,3.42a6.09,6.09,0,0,0,2.5-2.37A4.68,4.68,0,0,0,21.36,114.62Zm4.08-2.24v.26c1.05.31,2.68,0,4,.13.09-.3.91.12.79-.39H30A16.22,16.22,0,0,0,25.44,112.38Zm-4.08,3.42c.86-.73,2.43-1.43,2.37-2.63C23,114.12,21.7,114.48,21.36,115.81Zm4.08-2.37c1.24.14,3.72.39,4.74-.13C28.94,113.17,26.46,112.92,25.44,113.44Zm.66.53c-.26.32-.56-.22-.66.26,1.2.13,3.63.39,4.61-.13C29,113.79,27.37,114,26.1,114Zm-4.74,3c.91-.76,2-1.33,2.5-2.5A4.63,4.63,0,0,0,21.36,117Zm5.4-2c.5.31,2.89.62,3.16-.13-.83-.31-2.24,0-3.29-.13C26.65,114.85,26.63,115,26.75,115Zm-5.4,3c.93-.65,2.43-1.43,2.37-2.63C23,116.37,21.76,116.78,21.36,118Zm6.32-2.24c.2.42,1.91.42,2.11,0-.43.08-.61-.09-.92-.13S27.36,115.56,27.68,115.81Zm.53.92c.19.32,1.32.48,1.32-.13C29.12,116.68,28.38,116.43,28.2,116.73Zm-6.85,2.5c.8-.78,2.4-1.46,2.37-2.63C23,117.55,21.67,117.88,21.36,119.23Zm13.56,5.4a2.37,2.37,0,0,0,1.71,0,15.36,15.36,0,0,0,4.48,0,1.4,1.4,0,0,0,1.32,0,2.79,2.79,0,0,0,1.84,0c.22.25,1.21.17,1.45,0a24.44,24.44,0,0,0,5.66,0,2,2,0,0,0,1.58,0c.39.27,1.24.07,1.84.13v-.13c.28.24,1,.09,1.45.13h3.29c.4-.08,1.13.17,1.32-.13.22.22.77.11,1.19.13-1.1-2-2.45-3.69-3.69-5.53-7.12,1.26-15.39.12-21.19-1.58-1.2,2.48-2.86,4.51-3.95,7.11C33.77,124.7,34.56,124.89,34.92,124.63Z"/><path class="cls-4" d="M50.32,68.81c2-.49,1.73,3.32-.26,2.63C48.93,71,49.11,69.1,50.32,68.81ZM50.45,71c.88.12,1.26-1.15.53-1.84A1,1,0,1,0,50.45,71Z"/><path class="cls-3" d="M49,77.37h.92c-3.61,6.18-7.46,12.11-11.06,18.3,3.74.24,8.47.13,12.77.13,1.43,0,4-.19,4.21.26-5.35-.22-11.63-.22-17,0a11.46,11.46,0,0,0-2.5,4.08c-.13,0-.1.16-.13.26-1.54-.67-.32-2,.13-2.76C40.38,91.21,45.12,83.86,49,77.37Z"/><path class="cls-3" d="M66.91,78.16a46.93,46.93,0,0,0-1.71,8.56c-.41-1.3-1.6-2.68-1.45-3.95S66.71,79.77,66.91,78.16Z"/><path class="cls-4" d="M38.21,53a1.28,1.28,0,0,1-.13-1.32C39.7,50.82,39.74,53.73,38.21,53Z"/><path class="cls-4" d="M61.51,82.11a1.54,1.54,0,0,1-1.18,2.5C57.37,84.47,60,79.62,61.51,82.11ZM60.85,82c-1.46-.26-1.66,1.24-1.05,2C61.26,84.73,61.87,82.58,60.85,82Z"/><path class="cls-4" d="M36.1,46c2.06-.26,2.08,2.84.66,3.16C34.85,49.63,34.14,46.28,36.1,46Zm1.18,1.32c-.37-1.78-2.94-.16-1.45,1.32C37.06,48.88,37.42,48,37.29,47.35Z"/><path class="cls-4" d="M36.89,48.27c-3.1.51.56-3.36,0,0Z"/><path class="cls-4" d="M38.21,50.77c2.21-.72,2.34,3.09.53,3.16C37.15,54,36.69,51.27,38.21,50.77Zm.53,2.63c1-.06,1.28-2.48-.26-2.24C37.21,51.37,37.72,53.47,38.73,53.41Z"/><path class="cls-4" d="M40.45,55.64c2.1,0,1.65,3.22.13,3.29C38.85,59,38.39,55.69,40.45,55.64Zm0,2.76c.74,0,1.05-.59.92-1.71C39.83,54.88,38.72,58.38,40.45,58.41Z"/><path class="cls-4" d="M41,58c-.37-.11-.34.19-.66.13A1,1,0,0,1,40,56.57C41,56.19,41.51,57.28,41,58Z"/><path class="cls-4" d="M60.19,82.24c1.2-.27,1,1.52.26,1.58S59.27,82.44,60.19,82.24Z"/><path class="cls-4" d="M61.9,86.45c2.11-.4,2.12,2.83.79,3.16C60.84,90.07,60.06,86.8,61.9,86.45Zm1.32,1.45c-.24-2.2-3.31.14-1.45,1.18A1.11,1.11,0,0,0,63.22,87.9Z"/><path class="cls-4" d="M62,87.24c1.2-.27,1,1.52.26,1.58S61.12,87.45,62,87.24Z"/><path class="cls-4" d="M64.8,91.19c1.72.37,1.4,3.19-.26,3.16S62.62,90.71,64.8,91.19Zm-.26,2.63c.49,0,.46-.27.92-.53C65.62,89.18,61.86,93.8,64.54,93.82Z"/><path class="cls-4" d="M64.67,93.56c-.4,0-.51-.28-.79-.39C63.6,90.71,66.37,92.65,64.67,93.56Z"/></g></svg>