<svg xmlns="http://www.w3.org/2000/svg" viewBox="0 0 101.07 140"><defs><style>.cls-1{fill:#fff;}.cls-2,.cls-3{fill:#c4161c;}.cls-3,.cls-4{fill-rule:evenodd;}.cls-4{fill:#231f20;}</style></defs><title>Монтажная область 52</title><g id="cards"><path class="cls-1" d="M98,0S68.82.79,50.53.79,3,0,3,0A2.94,2.94,0,0,0,0,3V135.9A3.17,3.17,0,0,0,3,139s29.21,1,47.5,1S98,139,98,139a3.17,3.17,0,0,0,3-3.13V3A2.94,2.94,0,0,0,98,0Z"/><polygon class="cls-2" points="10.26 16.91 5.97 23.58 10.26 30.25 14.55 23.58 10.26 16.91"/><path class="cls-2" d="M12.76,12.3a3.5,3.5,0,0,1-1.09,1.36v.93q0,1.26.57,1.26t.55-1q0-.68.43-.68t.44.68a2.11,2.11,0,0,1-.39,1.34,1.27,1.27,0,0,1-1,.5,1.18,1.18,0,0,1-1.06-.46,3.25,3.25,0,0,1-.33-1.61v-.59a3.35,3.35,0,0,1-.59.07A2.36,2.36,0,0,1,9,13.74a2.93,2.93,0,0,1-1-1A7.08,7.08,0,0,1,7.16,9.1,6.68,6.68,0,0,1,8,5.48a2.63,2.63,0,0,1,2.29-1.41,2.51,2.51,0,0,1,2.24,1.38,7.41,7.41,0,0,1,.82,3.79A7.05,7.05,0,0,1,12.76,12.3Zm-1.09-.58q0,.17,0,.65a4.67,4.67,0,0,0,.46-1.1A9.31,9.31,0,0,0,12.35,9a6.23,6.23,0,0,0-.55-2.84A1.65,1.65,0,0,0,10.33,5,1.67,1.67,0,0,0,8.75,6.23a7.17,7.17,0,0,0-.57,2.88A6.77,6.77,0,0,0,8.68,12a2.47,2.47,0,0,0,.23.38,5.78,5.78,0,0,1-.07-.83,1.64,1.64,0,0,1,.41-1.15,1.37,1.37,0,0,1,1.06-.44Q11.67,9.92,11.67,11.72ZM10.39,13.2a2,2,0,0,0,.42-.07V12q0-1.16-.59-1.16a.68.68,0,0,0-.57.33,1.39,1.39,0,0,0-.23.81,1.29,1.29,0,0,0,.28.84A.86.86,0,0,0,10.39,13.2Z"/><polygon class="cls-2" points="90.6 122.04 94.88 115.37 90.6 108.7 86.31 115.37 90.6 122.04"/><path class="cls-2" d="M88.1,126.65a3.5,3.5,0,0,1,1.09-1.36v-.93q0-1.26-.57-1.26t-.55,1q0,.68-.44.68t-.44-.68a2.11,2.11,0,0,1,.39-1.34,1.27,1.27,0,0,1,1-.5,1.18,1.18,0,0,1,1.06.46A3.25,3.25,0,0,1,90,124.3v.59a3.36,3.36,0,0,1,.59-.07,2.36,2.36,0,0,1,1.25.39,2.93,2.93,0,0,1,1,1,7.08,7.08,0,0,1,.81,3.64,6.68,6.68,0,0,1-.89,3.61,2.63,2.63,0,0,1-2.29,1.41,2.51,2.51,0,0,1-2.24-1.38,7.41,7.41,0,0,1-.82-3.79A7.05,7.05,0,0,1,88.1,126.65Zm1.09.58q0-.17,0-.65a4.67,4.67,0,0,0-.46,1.1,9.31,9.31,0,0,0-.26,2.31,6.22,6.22,0,0,0,.55,2.84,1.65,1.65,0,0,0,1.47,1.07,1.67,1.67,0,0,0,1.58-1.18,7.17,7.17,0,0,0,.57-2.88,6.77,6.77,0,0,0-.49-2.86,2.48,2.48,0,0,0-.23-.38,5.79,5.79,0,0,1,.07.83,1.64,1.64,0,0,1-.41,1.15,1.37,1.37,0,0,1-1.06.44Q89.19,129,89.19,127.23Zm1.28-1.48a2,2,0,0,0-.42.07v1.1q0,1.16.59,1.16a.68.68,0,0,0,.57-.33,1.39,1.39,0,0,0,.23-.81,1.29,1.29,0,0,0-.28-.84A.86.86,0,0,0,90.47,125.75Z"/><path class="cls-3" d="M69.26,32.55c-1.16.74-1.44-1-1.71-1.58-2.64-5.64-6.22-12.07-8.42-17.64.28.06.35-.09.53-.13s.12.05.13.13C63.15,19.44,66.42,26.35,69.26,32.55Z"/><path class="cls-4" d="M58.6,21.1c-1-.15-2-1.35-3.55-1.18-1,.11-1.3.85-2.24,1.05C52.89,17.63,58.18,19.09,58.6,21.1Z"/><path class="cls-4" d="M54.91,32.55c-1.1-.81-3.83-.34-5.13,0V31.1a18.82,18.82,0,0,0,4.61-.26C54.85,31.12,54.62,32.09,54.91,32.55Z"/><path class="cls-4" d="M53.07,32.68c.51.52-1.46.87-1.45.13C51.93,33,52.92,33,53.07,32.68Z"/><path class="cls-4" d="M53.59,34.53c-.53.17-1.45-.37-2.11.13C51.53,33.66,53.32,33.92,53.59,34.53Z"/><path class="cls-3" d="M75.71,37c2.38-.8,2.36,3.24.53,3.29S74.17,37.55,75.71,37Zm.4,2.63c1,0,1.27-1.45.39-2.11A1.07,1.07,0,1,0,76.11,39.66Z"/><path class="cls-4" d="M76.5,37.55c.88.65.57,2.11-.39,2.11A1.07,1.07,0,1,1,76.5,37.55Zm-.92,1.32c.25.06.24.38.66.26C77.47,38.48,75.37,37.13,75.58,38.87Z"/><path class="cls-3" d="M76.24,39.13c-.42.11-.41-.21-.66-.26C75.37,37.13,77.47,38.48,76.24,39.13Z"/><path class="cls-3" d="M52.41,40.58h1.71A2.31,2.31,0,0,1,52.41,40.58Z"/><path class="cls-3" d="M46,50.32a10.11,10.11,0,0,1-4.08-1.05,27.37,27.37,0,0,1-7-4.34A7.54,7.54,0,0,1,32.4,42c.36.1.26-.26.53-.26.11,0,.13.13.26.13a28.91,28.91,0,0,0,9.48,6.45C43.79,48.86,45.37,49.08,46,50.32Z"/><path class="cls-3" d="M62.28,49.66v1.05c-.54-.1-.68.2-1.19.13-.11-.46.2-.51.13-.92C61.65,49.91,61.81,49.63,62.28,49.66Z"/><path class="cls-3" d="M53.33,50.19H56.1A5.88,5.88,0,0,1,53.33,50.19Z"/><path class="cls-3" d="M29.5,53.61a2.47,2.47,0,0,1-1.05-.13C27.27,51.23,31.09,51.68,29.5,53.61Z"/><path class="cls-3" d="M62.15,52a43.12,43.12,0,0,1,.26,7c-2.54,1.94-4.09,4.86-5,8.43-.92-.09-.5-1-.39-1.58.88-4.3,2.69-9.32,3.69-13.56A5.2,5.2,0,0,0,62.15,52Z"/><path class="cls-3" d="M46.49,52.43c.83,3.25,1.7,6.46,2.37,9.87a12.89,12.89,0,0,0-6.32-1.45A6.78,6.78,0,0,0,41.35,59c-.16-.22-1.44-1.36-1.45-1.58,0-.66,2.1-2.12,2.9-2.77A9.15,9.15,0,0,1,46.49,52.43Z"/><path class="cls-3" d="M52.41,55.59c.3.27,0,1.09.13,1.58C52.24,56.9,52.49,56.08,52.41,55.59Z"/><path class="cls-3" d="M52.54,61.64c.3.44,0,1.45.13,2.11C52.37,63.31,52.63,62.3,52.54,61.64Z"/><path class="cls-3" d="M24.5,64a1.68,1.68,0,0,1,.13,1.58,1.5,1.5,0,0,1-1.19,0C23.13,64.81,23.28,63.66,24.5,64Z"/><path class="cls-3" d="M36.75,64.94a3.44,3.44,0,0,1-.4,3.82C36.14,68,36.6,66.15,36.75,64.94Z"/><path class="cls-3" d="M64.92,66.91a10.27,10.27,0,0,1-.39,3.69A3.4,3.4,0,0,1,64.92,66.91Z"/><path class="cls-3" d="M44.51,68.36c-1.1,5.13-2.57,9.9-3.82,14.88-.6.06-1.08.24-1.71.26.07-2.92-.18-3.94-.13-6.85a14.56,14.56,0,0,0,5-8.43C44.23,68.12,44.19,68.41,44.51,68.36Z"/><path class="cls-3" d="M76.5,71.25c-.38-1.32,1-1.88,1.58-1.05C78.5,71.56,77.09,72.06,76.5,71.25Z"/><path class="cls-3" d="M48.59,72.18c.3.14.05.83.13,1.19-.17,0-.12-.23-.26-.26V73C48.75,72.95,48.52,72.41,48.59,72.18Z"/><path class="cls-3" d="M52.41,73.23a12,12,0,0,0,6.32,1.45,24,24,0,0,0,2.63,3.69c-2,1.77-3.62,3.93-6.58,4.74C54.06,79.74,53.18,76.54,52.41,73.23Z"/><path class="cls-3" d="M71.89,83.76c-.66-.53-.52-2.16.79-1.84C73.37,82.38,73.24,84.16,71.89,83.76Z"/><path class="cls-3" d="M40.3,84.68c0,.47-.24.64-.26,1.05-.42-.06-.47.24-.92.13v-.92A5,5,0,0,1,40.3,84.68Z"/><path class="cls-3" d="M55.31,85.08c5,.93,9.38,4,12.64,7,.4.37,1.17.95.92,1.58-1.31-.06-2.09-1.35-3-2.11a37.44,37.44,0,0,0-10.4-5.66C55.53,85.46,55.3,85.39,55.31,85.08Z"/><path class="cls-3" d="M46.62,94a2,2,0,0,1,1.58,0Z"/><path class="cls-3" d="M46.62,94.42a2,2,0,0,1,1.58,0Z"/><path class="cls-3" d="M24.63,95.48c2.48-1,2.7,3.94,0,3.16C23.4,98.28,23.51,95.92,24.63,95.48Zm.13,2.5a2.84,2.84,0,0,0,1.18-.13C27.37,95.35,22.92,95.85,24.76,98Z"/><path class="cls-4" d="M25.95,97.85a2.84,2.84,0,0,1-1.18.13C22.92,95.85,27.37,95.35,25.95,97.85Zm-1.18-.53c.23.12.33.37.79.26a1,1,0,0,0-.13-1.18C24.83,96.34,24.76,96.79,24.76,97.32Z"/><path class="cls-3" d="M25.42,96.4a1,1,0,0,1,.13,1.18c-.46.1-.56-.15-.79-.26C24.76,96.79,24.83,96.34,25.42,96.4Z"/><path class="cls-3" d="M46.75,96.66c.57.08,1.49-.17,1.84.13C48,96.71,47.1,97,46.75,96.66Z"/><path class="cls-4" d="M47.8,100.88a2.4,2.4,0,0,0,2.11,0C49.9,101.8,47.82,101.78,47.8,100.88Z"/><path class="cls-4" d="M49.78,102.59c-.17.23-1.28-.28-1.45.26C47.91,102.28,49.49,102.15,49.78,102.59Z"/><path class="cls-3" d="M42.27,122.33c-1.31.26-1.5-1.23-1.84-2-2.63-5.62-6-11.66-8.29-17.38.17-.13.49-.13.66-.26C36,109.12,39.48,116,42.27,122.33Z"/><path class="cls-4" d="M51.36,103c.36.15.35,1.14.13,1.45a27.5,27.5,0,0,0-4.87.26c0-.54.13-1.27-.26-1.45C47.41,103.42,50.17,103.56,51.36,103Z"/><path class="cls-4" d="M42.8,114.3c1.36,1.4,4.27,1.73,5.79.26C48.54,117.84,43,116.59,42.8,114.3Z"/><path class="cls-3" d="M28.06,122.2H38.59A84.56,84.56,0,0,1,28.06,122.2Z"/><path class="cls-4" d="M20.29,12.15h61V123.52H20.16v-111C20.15,12.35,20.13,12.17,20.29,12.15Zm1.05,1.45V50.72c4.43-5,10.68-9.24,17.24-12.51.63-6.5,2-10.67,5-14.74.82-1.1,2.76-2.46,3-3.55.55-2.28-.41-4.3,0-6.71H21.47C21.32,13.22,21.33,13.41,21.34,13.59ZM47,14.25c.54-.12,1.24-.63,1.05-1.05h-.92C46.94,13.39,47,13.87,47,14.25Zm0,1.32c1-.46,2.18-1.4,2.24-2.37C48.29,13.78,47.2,14.22,47,15.57Zm2-.92c-.6.67-1.85.87-2,2A4.26,4.26,0,0,0,50.3,13.2C49.47,13.29,49.42,14.16,49,14.65Zm.39,1.19c-.71.66-2.21.62-2.37,1.84,2.45-.45,3.46-2.33,4.34-4.34-.17,0-.18-.17-.4-.13A11.29,11.29,0,0,1,49.38,15.83ZM59.65,22c-.4-1-.93-1.88-1.32-2.9-3-.95-4.68-3.3-6.06-5.92h-.4c-1,2.27-2.27,4.32-4.87,5v1.32c5.41-2.95,4.26,5.72,2.9,8.43A5.52,5.52,0,0,0,51.36,29c0-.45.39-.57.79-.66.66.21.86.89,1.84.79.5-.2.06-1.13.26-1.32.5.12.56,1.45.13,1.71-.94.47-1.63-.36-2.5-.39-.3.14.06.94-.26,1.05-.74-.73-1.94-1-2.11-2s.89-2,.66-3.29c-.12-.36-.62.67-.79.26.24-.46.78-.63.79-1.32a8,8,0,0,1-3-.13c0,5.15,1.39,11.89,4.48,13.3a4,4,0,0,0,1.71.13c3.25-.4,5.5-3.63,7.24-5.79C58.77,29.47,58.32,24.84,59.65,22ZM55.44,16.1c-.94-.94-1.53-2.36-2.63-2.76,1.16,2.3,2.65,4.28,5.13,5.27C57.76,17.28,56.27,16.93,55.44,16.1Zm1.84.92a9.43,9.43,0,0,0-3.42-3.82C54.3,14.65,55.95,16,57.28,17Zm-1.05-2.37c-.42-.45-.3-1.45-1.18-1.45C54.9,13.64,55.9,14.68,56.23,14.65Zm3.55-1.32c0-.08,0-.16-.13-.13s-.25.19-.53.13c2.21,5.57,5.78,12,8.42,17.64.27.58.55,2.32,1.71,1.58C66.42,26.35,63.15,19.44,59.78,13.33Zm14.61-.13c-2.2,5.93-.44,14.69,1.18,19.48A9.63,9.63,0,0,0,69.13,34c1.47,3.31,3.16,6.41,4.61,9.74a13.53,13.53,0,0,0-2.5,1.84c.3.18.31.66.66.79.07-.19-.15-.68.13-.66,1.91.21,2.85,2.06,3.95,2.63a43.61,43.61,0,0,1-.13-5c-.49-.52-1.18-.84-1.32-1.71H73.21c.18-.26.13-.75.26-1.05a2.29,2.29,0,0,1-1.32-2.9c.29-.76,1.06-.65,1.32-1.32.12-.44-.47-.83-.13-1.05h1.18a1.73,1.73,0,0,1,3.42.26c.49.09.57-.22,1.05-.13-.25.19,0,.86-.26,1.05.56.1.82.5,1.32.66-.09-7.94.18-16.24-.13-24Zm-9.61,8a6.49,6.49,0,0,1-.53-3.42c-1.74-.76-2.64-2.36-3-4.48h-.4A65.31,65.31,0,0,0,64.78,21.23ZM65,22c.66,1.62,1.5,3.06,2.24,4.61a13.15,13.15,0,0,1,.13-2.9A4.73,4.73,0,0,1,65,22Zm-3.29-8.69a5,5,0,0,0,2.9,4.21c-.18,3.21.88,5.18,3.16,5.92.08.23-.16.77.13.79-.11-.46.2-.51.13-.92-2.14-.73-3.54-2.84-3-5.79A8.2,8.2,0,0,1,61.76,13.33Zm5.92,11.19c-.12,2.58.49,4.42,2.5,4.87A5.73,5.73,0,0,1,67.68,24.52ZM63.73,14.38c0,.83-.19,1.32.39,1.71.1-2.27,2-1.19,3.42-1.18,1.39.58,1.13,2.5,0,3.16a1.29,1.29,0,0,1-1.84,1.45A13.3,13.3,0,0,1,67.15,22c.07-.66.35-1.44,1.05-1.58s.94.35,1.58.53.92-.2,1.32.13c.58.48.3,1,.39,1.84-1,.53-.75,2.24-1.84,2.63a1.63,1.63,0,0,1-1.18-.26,10.71,10.71,0,0,1,.92,2.5,1.35,1.35,0,0,1,1.19-1.45c.61.44,1.66.44,2.37.79a38.29,38.29,0,0,1,.26-13.82H62.81C62.78,14,63.46,14,63.73,14.38Zm1.71,2.37c-.05.54.13.83.66.79.27-.31.13-1-.26-1.05C65.8,16.68,65.55,16.64,65.44,16.75ZM47.28,21.1c.91-.09,2.35-.46,3.29.26C50.42,20.18,47.5,19.5,47.28,21.1Zm.26.66a4.08,4.08,0,0,1,3,.39C50.26,21,48.19,20.8,47.54,21.76Zm21.59,1.71c.18-.17.13-.57.13-.92C68.22,22.19,68.26,23.65,69.13,23.47Zm-20,.26c.2-.28.57-.39.53-.92-.46.07-.45.61-1.19.39-.12-.28,0-.79-.53-.66C48,23.25,48.26,23.8,49.12,23.73Zm15.67,9.35c0-.46-.38-.59-.39-1.05-3.22-.6-4.83-3.19-4.48-7,.07-.8.56-1.51.13-2.24,0-.1-.11-.15-.26-.13C58.3,27.49,60,32.83,64.78,33.08Zm-15-9.61c.52.16.71-.46.26-.53C50,23.14,49.85,23.27,49.78,23.47ZM64,31.37c-.09-1.14-1.33-1.07-2-1.71-1.3-1.28-1.12-3.21-1.32-5.4,0-.15-.15-.2-.26-.26C59.79,27.47,60.69,31,64,31.37Zm-.66-1.45a28.38,28.38,0,0,0-2.24-4.48C61.15,27.63,61.69,29.32,63.34,29.92ZM43.46,36c.73-1.41,1-2.92,1.58-4.34s1.4-2.62,2-3.95c0-.15-.15-.2-.26-.26A22.84,22.84,0,0,0,43.46,36Zm27.38-7.64c-.4,0-.41,1.08.13.92A.47.47,0,0,0,70.84,28.34ZM44.12,35.71c1.2-.45,1.27-2.07,1.71-3.16A19.64,19.64,0,0,0,47.28,29c-.22,0-.07-.37-.26-.39A21,21,0,0,0,44.12,35.71Zm28.43-6.19c.23,1.41-.85,1.52-1.58,2,.48.86,2-.32,3.16,0a5.86,5.86,0,0,0-.92-2.63C73.22,29.31,72.82,29.36,72.55,29.52Zm-2.9,1.84V29.65c-.56,0-.67-.38-1.05-.53A13.55,13.55,0,0,0,69.66,31.37ZM45.56,35.32c.87-1.41,1.36-3.21,2.11-4.74-.32.05.07-.6-.4-.39C46.75,31.77,45.19,33.7,45.56,35.32Zm24.62-4.74c0,.54-.13,1.27.26,1.45C70.41,31.49,70.57,30.76,70.18,30.58ZM46.35,34.92c.78-.65,1.63-2.54,1.32-3.42A21.66,21.66,0,0,0,46.35,34.92Zm14.48-3.29c-1.76,2.07-5.07,7.08-9.21,5.79-1.44-.45-1.69-2-2.9-2.9a12.45,12.45,0,0,0-3.29,1.32c4.22,3.23,13.84,2.61,18.3,0a10,10,0,0,1,.53-2.37A6.17,6.17,0,0,1,60.83,31.63Zm-13.3,2.9c.21-.54.75-1.44.53-2C47.93,33.1,47,34.17,47.54,34.53Zm.53-.26c.37.11.34-.19.66-.13a.75.75,0,0,0-.4-.79A2.16,2.16,0,0,1,48.07,34.26ZM70.18,44.53c-.77-1.34-2.21-1.09-3.29-2-2.41-2-2.48-5.53-1.84-9.08h-.39C62.71,38.69,65.25,44.1,70.18,44.53Zm4.87-7.9a2.2,2.2,0,0,1,2.11,0C78.6,34,74,33.75,75.05,36.63Zm-5.4,6.58a2.61,2.61,0,0,1-.4-.92c-2.8-.69-4.34-3.66-3.42-7.24-.27,0-.12-.49-.39-.53C64.09,38.7,66.15,43.08,69.66,43.21ZM44.91,36c-.13,0-.16.11-.26.13s-.08.15,0,.26c3.6,2.65,10.58,2.91,15.27,1.58,1.37-.39,2.92-.64,3.55-1.58C58.63,39,49.25,39.35,44.91,36Zm24,5.53c-1-1.72-1.7-3.83-2.76-5.53C65.49,38.74,66.87,41.34,68.87,41.5ZM63.6,37.82c-2.67.74-5.89,2-9.35,2a21,21,0,0,1-10.93-3.16h-.26C47,40.8,58.48,41.39,63.6,37.82Zm12.64,2.5c1.83-.06,1.85-4.09-.53-3.29C74.17,37.55,74.56,40.37,76.24,40.32Zm-23.83.26a15.16,15.16,0,0,1-5.66-1.32C45,38.59,43.66,37.49,42,37.16c3.31,4.21,13.84,4.85,20,2.63.53-.19,1.61-.32,1.58-1.05a27.88,27.88,0,0,1-9.48,1.84Zm22-.79a3.92,3.92,0,0,1,.13-2.5C71.86,36.1,72.21,41.13,74.39,39.79Zm3.42-2.37c.44.45.26,1.72.13,2.37.43,0,.5.38,1.05.26C80.73,39.35,79.55,36,77.82,37.42ZM60.18,40.84c-6.87,1.88-15.24,0-19-3.42,0,.08,0,.16-.13.13s-.16.11-.26.13c4.15,4.08,14,5.56,20.93,3.42.76-.24,2.32-.23,2.24-1.32C62.7,39.67,61.5,40.48,60.18,40.84ZM40.3,38.08c-.32.77-.87,1.32-1.18,2.11a6.41,6.41,0,0,0,2.24,1.58c.22-.88.79-1.41,1.05-2.24A12.3,12.3,0,0,0,40.3,38.08ZM35,40.58c.45,1,1.39,1.42,2.11,2.11a13.61,13.61,0,0,0,1.32-2.24c-.47-.26-.9-1.16-1.58-.79-.22.36.79.61.79,1.19-.28.29-.41.73-.79.92-.35-.31-.79-.52-.92-1.05.1-.3.81-.67.53-.92A4.2,4.2,0,0,1,35,40.58Zm43.84,0c-.08.4.17,1.13-.13,1.32a4.9,4.9,0,0,1-.92-.26c-.94,1-.7,2.35-.66,4.21.95-.9,1.38-3,2.5-3.29a11.53,11.53,0,0,1-1.45,7.9c.66.14.57,1.41.4,2,1,.08.55,1.55,1.45,1.71-.09-4.74.18-9.83-.13-14.35A1.64,1.64,0,0,1,78.87,40.58Zm-3.82-.13c-.71,3,3.12,2.56,2.11,0A1.79,1.79,0,0,1,75.05,40.45Zm-30.94,2.9c.89.3,1.59.78,2.5,1.05.16-1,.58-1.7.79-2.63-.76-.33-1.52-.67-2.24-1.05C44.85,41.62,44.37,42.37,44.12,43.35Zm12,6.85c4.65-.12,8.25-1.67,11.58-3.16,1-.46,2.46-.78,2.76-2-1.57.08-2.8,1.21-4.21,1.84a28.06,28.06,0,0,1-4.74,1.58,28.8,28.8,0,0,1-24.35-5.13c-1.08-.86-2.15-2.76-3.55-2a16.29,16.29,0,0,0,5.13,4.34,28,28,0,0,0,14.61,4.48A5.88,5.88,0,0,0,56.1,50.19Zm6.71-8.82a7.64,7.64,0,0,1-2,.66,20.42,20.42,0,0,0,.4,2.9c1-.16,1.7-.58,2.63-.79A10.38,10.38,0,0,0,62.81,41.37Zm-20.14,7a28.91,28.91,0,0,1-9.48-6.45c-.13,0-.16-.11-.26-.13-.26,0-.17.36-.53.26a7.54,7.54,0,0,0,2.5,2.9,27.37,27.37,0,0,0,7,4.34A10.11,10.11,0,0,0,46,50.32C45.37,49.08,43.79,48.86,42.67,48.35ZM40.3,44.66a15.19,15.19,0,0,0,2.5,1.45c.27-.91.69-1.68.92-2.63-.85-.33-1.54-.83-2.37-1.19C41,43.08,40.61,43.83,40.3,44.66Zm-8.43-2.24A2.49,2.49,0,0,1,31,43c3.6,4.56,8.89,7.43,15.4,9.08.09-.49-.23-.57-.13-1.05A27.28,27.28,0,0,1,31.87,42.42Zm18.43,0c-.35.79-.35,1.94-.66,2.77a18.61,18.61,0,0,0,2.76.53c.24-.82.1-2,.26-2.9C51.9,42.67,51,42.62,50.3,42.42Zm5.27.4v2.9a25.39,25.39,0,0,0,2.63-.13c-.11-.95-.22-1.89-.26-2.9A13.63,13.63,0,0,0,55.57,42.82Zm21.06.39c-.65.33-.28,1.41-.26,2.24a54.34,54.34,0,0,0,.26,5.92C77.17,49.15,76.43,46,76.63,43.21Zm-10.4.13c-.57.44-1.54.48-2,1.05.42.72.42,1.86.92,2.5a11,11,0,0,1,2.24-1.18A6,6,0,0,0,66.23,43.35Zm12.9.26c-.61,1.32-1.92,2.64-1.71,4.34.57-.83.78-2,1.58-2.63.09,1.63-1.45,3.46-1.45,5A8.61,8.61,0,0,0,79.13,43.61ZM46.75,44.93c-.05,1-.5,1.52-.53,2.5a13.2,13.2,0,0,0,2.63.66c.13-.88.36-1.66.53-2.5A13.23,13.23,0,0,0,46.75,44.93Zm11.85.92a15.26,15.26,0,0,0,.26,2.63c.93-.12,1.64-.47,2.63-.53-.23-.86-.15-2-.79-2.5C60.05,45.64,59.25,45.66,58.6,45.85Zm-5.92.39a9.94,9.94,0,0,1-.13,2.5h2.9a15.19,15.19,0,0,1-.13-2.63A10.37,10.37,0,0,0,52.67,46.24ZM76,51.11c-1-1-2.71-1.94-2.63-3.55.87.75,1.39,1.85,2.5,2.37a4.84,4.84,0,0,0-3.42-3.42C73.08,48.56,73.83,50.53,76,51.11Zm-42-2.5a1.41,1.41,0,0,0-.39-1.19,1.9,1.9,0,0,0-1.71.13c-.09,1.44-.72,3.92,1.19,3.95.51-.23.67-.82.92-1.32a3.21,3.21,0,0,1,1.32,0,7.14,7.14,0,0,0,.26-1.32C34.74,48.66,34.68,49,34,48.61Zm37.39-1.19a28.47,28.47,0,0,0-5.53,13.69c-.8,6-.27,11.32-2.9,15.8-1.79,3.05-4.55,4.6-7.24,6.45,1.59,0,3.09-1.12,4.21-2.11,3.57-3.13,5.5-7.75,5.92-13.82.3-4.21.56-8,1.71-11.45A21,21,0,0,1,71,49.53c.36-.48,1.2-1.21.79-2C71.59,47.55,71.58,47.39,71.37,47.43Zm-10,37.65a14.62,14.62,0,0,1-1.84-1.84,34.14,34.14,0,0,1,2.9-3c.44.62,1.49.91,1.45,1.58s-1.36.74-1.05,1.45c1-.06,1.64-1.6,2.37-2.37a7.91,7.91,0,0,1-1.84-2c.8-.91,1.2-2.23,2-3.16a8.63,8.63,0,0,1,1.45,1.18c-.09.44-1,1.36-.39,1.58.64-.33,1.1-2,1.58-2.9A22.29,22.29,0,0,1,65.57,74c.38-1.07.46-2.44,1.05-3.29.55.37,1.58.27,2,.79,0,.39-.59,1.24,0,1.32.59-.55.54-1.74.79-2.63a10.7,10.7,0,0,1-2.63-.92c.2-1.29.08-2.9.4-4.08a6.54,6.54,0,0,1,2,.26c.15.56-.31,1.71.26,1.84,1.07-.11.29-2.08.53-3a15.19,15.19,0,0,1-2.76-.4,29.09,29.09,0,0,1,.39-4.21,7.4,7.4,0,0,1,2,.13c-.13.44-.51,2.14.53,1.84a8.65,8.65,0,0,0,.53-2.76,26.82,26.82,0,0,1-2.5-1.32,35.31,35.31,0,0,1,1.45-3.69c.64.28,1.32.52,1.58,1.18-.08.39-.85,1.33,0,1.45.5-.12.82-1.54,1.05-2.37-.45-.83-1.47-1.08-1.84-2,.72-1.3,1.86-2.18,2.37-3.69-1.22.27-1.73,1.63-2.37,2.63a24.7,24.7,0,0,0-1.84,3.29c-1.48,3.37-1.73,7.06-2.11,11.32-.77,8.76-3,14.8-9.35,17.9C58.43,84.06,60.18,84.85,61.36,85.08ZM27.66,51.24c-.55-.11-.62.26-1.05.26a1.56,1.56,0,0,0,1.18,2.63c-.75,2.65,3.12,2.18,2.37-.13,2.27,1,2.19-3.61-.13-2.5-.33.49.68.58.66,1.18-.74.44-.87,2-1.58,2s-1-1.58-1.71-2A14.71,14.71,0,0,1,29,50.85c.4.12.41.64.92.66A1.3,1.3,0,1,0,27.66,51.24Zm35.28,7.64a34.69,34.69,0,0,0,0-9.48h-.26C62.66,52.15,62.68,56,62.94,58.88Zm-1.71-9c.06.42-.24.46-.13.92.51.07.64-.23,1.19-.13V49.66C61.81,49.63,61.65,49.91,61.23,49.93Zm-19.35,2.5c0,.65-2.87,2.27-3,3-.39-.62-1.11-.91-1.32-1.71.21-.53,1.24-.81.92-1.45-.87.15-1.6,1.55-2.24,2.37.47.76,1.35,1.11,1.71,2-.72,1-1.12,2.3-2,3.16-.4-.43-1.1-.56-1.32-1.19,0-.51.93-1.29.26-1.58a8.33,8.33,0,0,0-1.45,2.9c.66.66,1.71.92,2.24,1.71a17,17,0,0,1-.92,3.16,6.91,6.91,0,0,1-2-.66c-.14-.59.63-1.42-.13-1.45A8.67,8.67,0,0,0,32,65.46a10.07,10.07,0,0,1,2.5.79,21.91,21.91,0,0,1-.4,4.08c-.62-.09-1.58.17-2-.13-.06-.72.23-1.08.13-1.84h-.66c-.25.8-.09,2-.26,2.9.82.24,2,.13,2.76.4A19.74,19.74,0,0,1,33.72,76c-.4-.3-1.47.06-1.84-.26-.15-.56.31-1.71-.26-1.84h-.39a10.42,10.42,0,0,0-.4,2.9,9.05,9.05,0,0,1,2.5,1.32c-.67,1.09-.82,2.69-1.58,3.69-.43-.49-1.24-.6-1.58-1.19.33-.53.9-1.59-.13-1.71-.23,1-.65,1.72-.92,2.63a11.21,11.21,0,0,1,2,1.84c-.75,1.27-1.85,2.19-2.37,3.69,1.23-.25,1.74-1.64,2.37-2.63A29,29,0,0,0,35,70.33C35.46,61,38.1,55,44.38,51.9c-1.75-.48-3.69-1.49-5.13-1.84C39.51,50.71,41.9,51.67,41.88,52.43ZM37.8,50.06C32.75,54.55,30,61.95,29.5,71.25c-.25,4.46-.35,8.26-2.37,10.8-.56.7-1.73,1.18-1.58,1.84,1,.73,1.3-1,2.24-1.19.37.51,1,.74,1.32,1.32-.31.39-1,1-.66,1.58a9.94,9.94,0,0,0,1.71-2.24c-.61-.62-1.48-1-1.84-1.84A23.41,23.41,0,0,1,29.77,78c.59.38,1.4.53,1.84,1.05,0,.48-1,1.43-.13,1.58a13.77,13.77,0,0,0,.92-2.37,9,9,0,0,1-2.5-1.32c.43-1.11.28-2.8.79-3.82.57.18,1.48,0,2,.26.15.56-.31,1.71.26,1.84.66-.48.21-2.07.53-2.9-.79-.31-2.09-.1-2.76-.53-.1-1.55.21-2.69.13-4.21a4.4,4.4,0,0,1,2.11.26c.18.57-.41,1.9.4,1.84.59-.55.32-2,.39-3a7.55,7.55,0,0,1-2.63-.92c.37-1.3.6-2.74,1.05-3.95a5.33,5.33,0,0,1,1.71.66c0,.39-.58,1.24,0,1.32.88.4.8-1.31,1.05-2a9.35,9.35,0,0,1-2.37-1.71,34.47,34.47,0,0,1,2.11-4.34c.49.44,1,.84,1.45,1.32-.13.59-.9,1.28-.39,1.71A6.3,6.3,0,0,0,37,56.64c-.54-.74-1.31-1.24-1.84-2,.57-.22,2.51-3.72,3.16-3.69.45,0,.74,1.16,1.18,1.58-.07.75-1.51,1-.79,1.71.72-.13,1.42-1.37,2.11-2C39.67,51.7,39.17,50.44,37.8,50.06ZM71.24,52.3A6.4,6.4,0,0,1,73.08,54c-.55,1.12-.81,2.53-1.45,3.55a7.2,7.2,0,0,1-1.84-.92c0-.58.63-1.15.26-1.71-.68.47-.72,1.56-1.05,2.37a12.35,12.35,0,0,1,2.37,1.32,26.76,26.76,0,0,1-.66,3.82,4.6,4.6,0,0,1-2-.26c-.17-.53.39-1.8-.39-1.71-.5.6-.31,1.89-.39,2.9a13.38,13.38,0,0,1,2.76.4c-.22,1.36.13,3.29-.4,4.34-.5-.25-1.52,0-2-.26A6.69,6.69,0,0,0,68.47,66h-.79c.1,1.11-.18,1.84-.13,2.9.86.41,2.15.39,2.76,1.05-.47,1.2-.67,2.66-1.05,3.95a12.4,12.4,0,0,1-1.84-.79,2.69,2.69,0,0,0,.26-1.32c-.37.11-.34-.19-.66-.13a20.84,20.84,0,0,0-.66,2.11c.84.61,1.92,1,2.5,1.84a41.56,41.56,0,0,1-2.24,4.21c-.49-.44-1-.84-1.45-1.32.22-.44.76-1.11.53-1.58-.7-.1-.81,1.46-1.45,1.84.39,1,1.46,1.26,1.84,2.24-1,1.19-2,2.41-3,3.55A6.1,6.1,0,0,1,61.76,83c.2-.58,1.33-.82.92-1.58-.91-.05-1.58,1.21-2.11,2a27.09,27.09,0,0,1,2.5,2.5c5.63-4.58,8.26-12.35,8.82-22.25.31-5.51.75-9.2,4.08-12-1.31-.53-1.42.95-2.37,1.18-.4-.48-1.12-.64-1.32-1.32a4.19,4.19,0,0,0,.79-1.32c-.17,0-.18-.17-.4-.13A13.51,13.51,0,0,0,71.24,52.3ZM49.78,54c-.1-.8.22-1.19.26-1.84-.57-.27-1-1.27-.26-1.71-.37.11-.34-.19-.66-.13A24.61,24.61,0,0,0,49.78,54Zm6.45-3.16c0,2,1.25,4.43-1.32,4.48a4.08,4.08,0,0,0,.66,3.82c.48-1.22-.61-1.78-.4-2.76.17-.78.93-.52,1.45-1.18.73-.94.13-1.71.26-3.29a1.71,1.71,0,0,0,.53-1.32A5,5,0,0,0,56.23,50.85Zm17,.79c.58.55.94-.27,1.32-.66C74,50.21,73.31,50.9,73.21,51.64Zm-23.56-.39c0,.55.59.46.79.79a5.53,5.53,0,0,0-.4,3.16,3,3,0,0,0,1.19.26c1.41.84-.86,2.87.26,3.69.54-1.56.93-4.08-.79-4.21-.65-1.57.85-3,.13-4.21C50.24,50.7,49.63,50.65,49.65,51.24Zm1.71,3.82c.19-.11.42-.2.4-.53.08-.52-.54-.34-.66-.66a4,4,0,0,0,.4-3.16h-.4C51.75,52.06,49.91,54.2,51.36,55.06Zm3.29.39c.29-.66.18-1.41.66-2.11-.72-.53-.25-2.1-.66-2.63A17.27,17.27,0,0,0,54.65,55.46Zm1.05-1.84c-.45.21-1,1-.39,1.45,2.12-.34.19-2.89.79-4.34h-.92A3.35,3.35,0,0,0,55.7,53.61Zm21.46-2a.93.93,0,0,1,.39.26,1,1,0,0,0,.92-1.18A1.67,1.67,0,0,0,77.16,51.64Zm-16.32-.26a.74.74,0,0,1-.13.53c.66.09.92-.22,1.58-.13v-.66A3.08,3.08,0,0,0,60.83,51.38ZM52.67,63.75V65.2a13,13,0,0,0,1.58.53c-.08-.4.17-1.13-.13-1.32,0,.45-.28.68-.79.66a.75.75,0,0,1,.26-1.45c.41,0,.4.47.66.66V51.64c-.27.08-.87-.16-.92.13.59-.06.66.39.66.92a1,1,0,0,1-1.05.39c0-.19-.22-.22-.26-.39-.39-.73.86-1,.26-1.05-1.21-.51-.1,3.58-.53,3.95.08.49-.17,1.31.13,1.58v4.48C52.63,62.3,52.37,63.31,52.67,63.75ZM76.76,51.64c-1.78,1.17-5.83,6.39-3.16,9,1.08,1,3.7.76,4.74-.39-1.55-.72-1.06-2.68-2-3.95-.26.62-.48,2-1.05,1.84a9.15,9.15,0,0,0,.79-3.69c.92-.75,2.2-1.14,2.37-2.63-.44,0-.45.43-.92.4C77.28,52,77.17,51.67,76.76,51.64ZM60.7,52.3c-1,4.23-2.81,9.26-3.69,13.56-.11.54-.53,1.49.39,1.58.91-3.56,2.47-6.49,5-8.43a43.12,43.12,0,0,0-.26-7A5.2,5.2,0,0,1,60.7,52.3Zm-16.19.13c-5.74,2.87-8.57,8.34-9.08,16.46C35,76,33.59,82,30.43,86.13c-.36.47-1.34,1.12-.79,2,1.23-.76,1.92-2.24,2.63-3.55,2.37-4.41,3.19-9.73,3.55-16.06.47-8.18,4.2-13.31,9.74-16.32A1.21,1.21,0,0,0,44.51,52.43ZM42.8,54.67c-.79.64-2.92,2.11-2.9,2.77,0,.22,1.28,1.36,1.45,1.58a6.78,6.78,0,0,1,1.19,1.84,12.89,12.89,0,0,1,6.32,1.45c-.67-3.41-1.54-6.62-2.37-9.87A9.15,9.15,0,0,0,42.8,54.67ZM51.88,54c-.08-.4.17-1.13-.13-1.32C51.91,53.29,51.06,53.92,51.88,54Zm24.62.92c.4-.78,1.06.36,1.45.26A2.28,2.28,0,0,0,79.13,53C78.13,52.56,77,54,76.5,54.93ZM24.76,54c-1.55.19-2.79-2.48-3.42-.13,0,.57.73.32.66.92-1.72,3.65,1,6.68,3.95,4.74.16,1.25,1.39,1.42,2.11,2.11.14.71-.31.83-.39,1.32,1.5.36,2-.82,1.58-2,1.12-.66,1.29-3.31-.13-3.29-1.12,0-.94,1.44-.66,2.11C26.8,60,27.11,58.11,27.4,57c-.42,0-.44-.35-.92-.26-.59.88-1.56,2.6-3.16,2-1.21-.47-.82-4.16.66-2.9-.59-.07-.56.49-.53,1.05C25.16,58,26.17,54.92,24.76,54Zm52.79,1.71c.13.48.71.52.66,1.18a2.39,2.39,0,0,0,1.45-2.76c-.17,0-.18-.17-.39-.13A4.68,4.68,0,0,1,77.55,55.72ZM76.24,56a1.18,1.18,0,0,0,1.32-.66v-.26A1,1,0,0,0,76.24,56Zm3.29.13c.25,0,.29.15.53.13-.08-.27.21-.91-.26-.79C79.81,55.78,79.58,55.87,79.53,56.12Zm-28,0c-.2-.59-1.32-.76-1.32.13,0,.48.46.5.66.79-.52,1-.62,3.15.53,3.55.52-.08.63-.71.4-1.18-.14-.31-.61.28-.79-.13C50.62,58.12,51.49,57.34,51.49,56.12Zm3.95.13c-.19,1.18,1.18,2.37.13,3.16-.4,0-.51-.42-.79-.13a.79.79,0,0,0,.66,1.18c1.22,0,1-2.55.53-3.55.47.07.58-.21.79-.39C56.92,55.24,55.75,55.64,55.44,56.25ZM77,57.43c.43.08.61-.09.92-.13C78.31,55.45,75.9,56.21,77,57.43Zm1.32-.26c.08.44.38.68.26,1.32a2,2,0,0,0,1.05-2.11C78.9,56.32,79,57.13,78.34,57.17Zm-28,.66c.27-.31.14-1-.26-1.05C50.23,57,50,57.65,50.3,57.83Zm6.19-.13a.85.85,0,0,0,.13-.66h-.39A.65.65,0,0,0,56.49,57.7Zm23.56.4c-.08-.27.16-.87-.13-.92C79.7,57.46,79.48,58,80.05,58.09ZM54.65,59.28c.44-.35.18-1.47-.13-1.84C54.6,58,54.34,58.92,54.65,59.28Zm22.64-.66a1,1,0,0,0,1.18,0,3.31,3.31,0,0,0-.26-1.05C77.41,57.42,77.24,57.91,77.29,58.62Zm1.84,1.19c.3-.44.81-.68.66-1.58A.88.88,0,0,0,79.13,59.8Zm-1.45-.66c0,.6.3.84.92.79C79.07,59.3,78.26,58.71,77.69,59.14Zm-40,3a2.66,2.66,0,0,0,1.71-2C38.48,58.76,37.2,61,37.67,62.17Zm17-1.05c.43-.36.41-.67-.13-.92C54.59,60.47,54.35,61.06,54.65,61.12Zm1.45,0c-.14-.34.4-.63,0-.79C55.86,60.55,55.73,60.92,56.1,61.12ZM51,61.51c.09.4.6.37.79.66-.3.48-.87,1.28-.53,2,.82-.48.89-2.42.53-3.29C51.21,60.8,50.92,61,51,61.51Zm4.21,2.63a.88.88,0,0,0-.53,1.05,1.12,1.12,0,0,0,.79.13c.61-1-.15-2-.13-3.16a.94.94,0,0,0,.39-1.32C53.95,60.79,54.81,63.34,55.17,64.15Zm9.35-.4c1.18-.36.54-1.89.13-2.77C62.83,61.17,64.13,62.9,64.52,63.75ZM38.06,62.7c.58-.1.42.55.79.66.55-.54,1.57-.63,1.58-1.71C39.62,60.76,38.42,61.93,38.06,62.7Zm-15.27.79c-2.12-.47-1.86,3.3,0,2.9-.51,3,3.13,1.93,2.37-.13,2.28,1,2.23-3.68-.13-2.5,0,.57.66.48.66,1.05-.62.6-.87,1.59-1.71,2-.37-.81-1.22-1.15-1.58-2,.56-.58.9-1.38,1.58-1.84.35,0,.79,1.13.92.53C26.22,61.14,21.79,60.74,22.79,63.49Zm20.27-2.11c-.1,0-.15.11-.13.26s.11.16.13.26c4.26.23,6.41,2.1,9.08,3.82,1.61,1,3.16,2.68,5.4,2.37C51.89,66.68,49.86,61.65,43.06,61.38Zm30,.13c-.67,1.35.41,2.93,1.45,3.42.56-.14.5-.91.92-1.18a2.79,2.79,0,0,1,.4,2.63H77c.1-1.22,0-2.68.92-3a2.19,2.19,0,0,0,1.71,2.5c.94-2.36-1.23-5.57-3.16-3C75.88,61.58,73.47,62.83,73.08,61.51ZM51.09,63a2.94,2.94,0,0,0,.26-.79c-.18,0-.25-.19-.53-.13A1.74,1.74,0,0,0,51.09,63Zm4.74.39c-.12-.43.51-1.21-.13-1.32C55.31,62.3,55.59,63,55.83,63.36Zm8,1.45c0-.39,0-.74.53-.66a8.18,8.18,0,0,0-1.05-2C61.4,62.44,63.15,64.42,63.86,64.8Zm-25-.92c.23.12.29.41.26.79A3.75,3.75,0,0,0,41.22,64v-.79C40.45,62.58,39.19,63.27,38.85,63.88Zm15.67.53c.45-.32.2-1.16-.13-1.45C54.47,63.4,54.21,64.18,54.52,64.41Zm-2.37.26c-.08-.49.17-1.31-.13-1.58C52,63.64,51.35,64.5,52.15,64.67Zm-14.48,2c0,1.56-1,2.56-1.45,3.82,1.77-.66,2.81-5.32.92-7.11C36.92,64.49,37.69,65.44,37.67,66.65Zm23.43-2c.07.78,1.11.92,1.84,1.32-.05-.58.3-.75.53-1.05C63.12,63.67,61,63,61.1,64.67Zm-17-.92c.25.49-.08.33-.39.53a2.44,2.44,0,0,1,.13,1.05c.54.12.71.61,1.19.79a.92.92,0,0,1,.26-.4c.62.34.85,1.08,1.58,1.32.27,0,.12-.49.39-.53.53.52.73,1.38,1.58,1.58,0-.16,0-.37.13-.4.55.4,1,1.79,1.71,1.19A2.67,2.67,0,0,0,52,70.2c0-.16,0-.37.13-.4.63.34.85,1.08,1.58,1.32.22,0,.07-.37.26-.39.65.23.87.89,1.71.92,0-.15,0-.37.13-.4a2.47,2.47,0,0,0,1.32.66,1.54,1.54,0,0,0-.66-2.37c-.42-.12-.27.34-.53.39-.44-.48-.69-1.15-1.45-1.32-.3,0-.15.38-.4.39-.61-.36-.72-1.21-1.45-1.45-.22,0-.07.37-.26.4-.56-.39-.92-1.84-1.71-1.19a3.37,3.37,0,0,0-1.32-1.45c-.18.08,0,.51-.26.53-.43-.54-.74-1.19-1.58-1.32-.22,0-.07.36-.26.39a4.41,4.41,0,0,0-1.58-1.05c0,.2,0,.49-.13.53C45.16,64.11,44.93,63.64,44.12,63.75Zm-5,1.45c.61.31.11.82.26,1.18C42.89,67,41.19,63.38,39.11,65.2Zm-2.76,3.55a3.44,3.44,0,0,0,.4-3.82C36.6,66.15,36.14,68,36.35,68.75Zm27.78,3.56c.32-1.16-.66-2.57-.39-4.21.19-1.19,1-1.82,1.32-2.76,0-.1,0-.26-.13-.26C63.2,66.27,62.51,70.41,64.13,72.31ZM54.38,66c.5,0,.56.5,1.05.53-.06-.42.24-.47.13-.92a1.64,1.64,0,0,1-1.19-.26Zm5.92.53a3.53,3.53,0,0,0,2.11.66c-.1-.5.16-.63.13-1.05C61.83,65.86,60.16,64.69,60.31,66.52Zm-21.19.39c.52.31,0,.69-.13,1.05.93.24,2.7.94,2.5-.79A2.19,2.19,0,0,0,39.11,66.91ZM64.52,70.6a10.27,10.27,0,0,0,.39-3.69A3.4,3.4,0,0,0,64.52,70.6Zm-8,2.9c-5.12-.66-7.71-5.39-12.51-6.32-.1,0-.15.11-.13.26v.26c5.79.91,8,7,14.61,6.19C57.93,73.17,57,73.56,56.49,73.49Zm3.42-4.87c.43.4,1.44.23,2.24.26-.29-.58-.18-.69.13-1.19C61.44,67.13,59.23,67,59.91,68.62Zm16.32.66c-2.34-.93-2.08,3.94.13,2.5-.12-.45-.63-.51-.66-1.05.58-.56.77-1.51,1.58-1.84A16.18,16.18,0,0,1,79,70.73c-.62.57-.85,1.52-1.71,1.84-.39-.08-.53-.85-.92-.53-1,2.41,2.95,2.9,2.24,0,.48.35,1-.21,1.32-.39V69.81a1.59,1.59,0,0,0-1.45-.53C79.46,67,75.58,66.58,76.24,69.28ZM43.85,68.23a14.56,14.56,0,0,1-5,8.43c0,2.9.2,3.92.13,6.85.63,0,1.11-.2,1.71-.26,1.25-5,2.72-9.75,3.82-14.88C44.19,68.41,44.23,68.12,43.85,68.23Zm-5.13,1.19c.64.24,1.06.7,1.84.79,1.33-1-.47-1.76-1.58-1.84C39.09,68.91,38.73,69,38.72,69.41Zm9.87,2.76V70.33c-1.07-.17-2-1.1-2.76-1.18v.92a1,1,0,0,1,1.32.92c0-.37.23-.56.66-.53a.72.72,0,0,1,.66.66.71.71,0,0,1-.79.66c-.58-.09-.46-.6-.92-.53s0,1.68.26,1.05v2.24c-.26-.25-.61.16-.66.53.42.27.45.33.66.26v1.05c-.27-.28-.49.17-.66.4.27.45.22,1.56.66,1.45v5.66h1.84c-.06-3.46-.21-7.17-.13-10.53C48.64,73,48.89,72.32,48.59,72.18Zm-23-3H24.24c.17.88-.12,3-.79,3,0-.31.21-.49.13-.92-.72-.34-1.09-2.11-2.24-1.18.46,1.52-.13,4.08,2.37,3.55.44-.22.68-.64,1.19-.79.48,1.05,3.18-.1,3.29,1.32,1-1.12-.38-2.28-.66-3.29-.31,0-.49-.21-.92-.13s-.32.82-.66,1.05C25.36,71.42,25.28,69.93,25.55,69.15Zm34.23.53c-.4,1.65,1.89,1.3,2.37.66-.44-.34-.33-.53-.13-1.05C61.13,69.26,60.2,69.21,59.78,69.68ZM37.93,70.73c.45.51.73,1.2,1.58,1.32,1.45-.76.09-2.39-1.18-2.37C38.52,70.35,38,70.33,37.93,70.73Zm8.16,2.63c-.13.4-.79.27-.66.92.17.23.27.52.66.53,1.08-.61.47-2.3.13-3.29.17-.36.59-.47.53-1.05C45.13,69.5,45.81,72.5,46.09,73.36ZM37,71.65c.48.56.45,1.68,1.18,1.71,1.44.07.34-2.25-.79-2.5C37.65,71.51,37,71.21,37,71.65Zm12.11.66c.41-.16.4-.74.53-1.19-.2-.07-.33-.2-.53-.26Zm13.3-.4c0-.62-.34-.44-.13-1.05C58.92,70.8,60.25,73.92,62.42,71.91Zm-12.9,2.76c.64.11.89-.17.92-.66-.13-.31-.57-.31-.79-.53.11-.69,1.2-1.79.13-2.11C49.62,72.38,49.13,73.57,49.51,74.68Zm-12.9-.13c2,0,.57-2.22,0-2.77C35.77,72.4,36.24,73.72,36.61,74.55Zm8.82-.92c.58-.14.42-1.21,0-1.45C45.61,72.75,45.14,73.37,45.43,73.62Zm15.4.13c0,.27.36.26.4.53a2.1,2.1,0,0,0,2-1.45c-.64.2-.4-.48-.66-.66C62,72.72,61,72.81,60.83,73.76Zm11.32.92a2.24,2.24,0,0,0-.39,3.16,1.64,1.64,0,0,0,1.18-.26c.4-.53-.14-1.49,0-1.71,1.35-.45,1.53,1.54,1.05,2.63.33.11.52.36.92.39.08-1.62,3.26-3.09,3.82-1.19.22.74-.09,3-1.32,2.11.28-.24.67-.39.53-1.05-2.32-1.59-2.93,3.77,0,2.9.25.62.55,1.2,1.58,1.05.17-.32.48-.48.4-1.05s-.64-.41-.66-.92c1.77-3.05-.68-6.79-3.95-4.74-.06-1.39-1.61-1.29-2.11-2.24,0-.61.41-.73.53-1.18C72.16,72.18,71.76,73.52,72.16,74.68ZM49.91,73.36c.19.07.33.19.53.26-.1-.3.24-1-.26-.92C50.19,73,50,73.11,49.91,73.36Zm4.87,9.74c3-.81,4.58-3,6.58-4.74a24,24,0,0,1-2.63-3.69,12,12,0,0,1-6.32-1.45C53.18,76.54,54.06,79.74,54.78,83.1Zm7.5-7.24c1.23.14,1.75-1.71,1.18-2.5C62.89,73.92,61.46,74.74,62.28,75.86Zm-33.83.39c-.47-2.14-3.89-2.62-5.4-.79,1.46.47,1,2.81,2,3.82.32-.64.19-1.74,1.05-1.84-.63.86-.65,2.34-.79,3.69-1,.71-2.14,1.28-2.5,2.63a1.67,1.67,0,0,1,1.84.13C26.2,82.26,29.24,79.86,28.45,76.26ZM45.3,75.2c0-.1.11-.15.26-.13,0-.33-.2-.41-.39-.53C45.24,74.74,45,75.23,45.3,75.2Zm-.4,2c0,.53.48.66.4,1.32,0,.43-.79.09-.66.66-.09.4.13.48.13.79,2.39-.12,0-2.65.79-3.69.43-.08.61.09.92.13C46.7,74,44.74,75.43,44.91,77.18Zm4.61-1.05c.29.38.82-.3.92.26.16,1.43-.69,1.86-.53,3.29.26.19.85.43,1.18.13.21-.82-.36-.87-.53-1.32.32-1,.6-3.15-.53-3.42C49.45,75,49.48,75.56,49.51,76.13Zm-26.46.53c0-.19.32-.12.53-.13.11-.69-.21-.93-.79-.92C22.52,75.91,22.65,76.61,23.05,76.65Zm-1.45.79c.62,0,.75-.48,1.05-.79-.39-.05-.11-.77-.39-.92A1.49,1.49,0,0,0,21.61,77.44Zm24.49,2c-.2.62-1.42.67-1.71,1.45-.35,1,.14,1.33.13,2.63-.16.5-.7.62-.53,1.45h.92c.66-1.14-.34-2.32-.13-3.82.25-.75,1.34-.68,1.84-1.19-.06-1.43,0-3-.92-3.55C45.29,77.65,46.45,78.32,46.09,79.42Zm3.55-2.76c.25.88-.76,2.55,0,3.55.18.26.92,0,.92.4.45,1.23-1,6.09,1.19,3.69-.06-.47-.71-.35-.79-.79a5.07,5.07,0,0,0,.26-3.16c-2.62,0-.87-2.48-1.19-3.95C50,76.61,49.67,76.46,49.65,76.65Zm-.26.79c.18-.18.25-.92-.13-.92C49.33,76.79,49.09,77.39,49.38,77.44ZM23.05,78h.79a2,2,0,0,0,.26-1.05C23.29,76.39,22.56,77.12,23.05,78Zm15.14-.79c0,2.16,0,5,0,7.11,0,.62-.24,1.69.26,1.84.5-2.58,0-6.36,0-9.22,0-.1-.11-.15-.26-.13ZM21.74,79.29c.66-.09.65-.84,1.32-.92-.32-.3-.11-1.12-.53-1.32C22.23,77.69,21.26,78.3,21.74,79.29Zm-.26-.79c-.13-.53.39-.4.26-.92a.61.61,0,0,1-.39-.13C21.42,77.76,21.18,78.4,21.47,78.5Zm29.75.26A1.33,1.33,0,0,0,51,77.71C51,78.28,50.69,78.58,51.23,78.76Zm-6.06-.39c-.27,0,0-.58-.4-.53C44.63,78.21,44.92,78.82,45.17,78.36Zm-21.85.13a.87.87,0,0,0,1.18.92C25,78.45,23.88,77.65,23.32,78.5Zm-1.32,3a22.27,22.27,0,0,1,1.84-1.84c-.54-.12-.49-.83-.92-1.05C22.4,79.25,20.69,80.72,22,81.52Zm-.53-1.32c-.06-.41.4-.3.26-.79a.62.62,0,0,1-.39-.13C21.42,79.56,21.18,80.15,21.47,80.21Zm49.76,1.32c-2.25-1-2.23,3.64.13,2.5-.08-.54-.61-.62-.66-1.19.53-.61.8-1.49,1.58-1.84a10.11,10.11,0,0,1,1.58,1.84,4.2,4.2,0,0,1-1.58,1.84c-.3,0-.7-1-.79-.39-1.27,2.12,2.81,3.05,2.11,0,2.18.25,1.89-3.07,0-2.9C74.09,78.57,70.45,79.52,71.24,81.52ZM23.84,80.6c.79,0,1.3-.19,1.18-1.05C24.33,79.59,23.75,79.76,23.84,80.6ZM46,82.18c.76.34.3,2.28.66,2.63.52-1,.27-3.5.13-4.74C46.23,80.53,46.64,81.66,46,82.18Zm-23.3.66c.73-.64,2.14-1.29,2.11-2.24a.8.8,0,0,1-1.32-.26C23,80.91,21.34,82.14,22.66,82.84Zm22.64,2c.22.23.44-.12.92,0a3.94,3.94,0,0,0-.53-2.9,1.54,1.54,0,0,0,.66-1.05C44.22,79.91,45.43,83.28,45.3,84.81Zm4.34-3.55c0,.35.55.23.66.53-.53.36-1.13,2.56-.26,3-.24-1.22,1-2.89.26-4.21h-.53A.85.85,0,0,0,49.65,81.26ZM21.34,95.61c.26.25.51-.62,1.05-.53V93.63c.45,0,.63.33,1.18.26.78-.85.7-2.54.66-4.21-1,1-1.2,2.83-2.63,3.42-.13-3.29.14-6.18,1.58-7.9-.82,0-.55-1.59-.39-2.11-1.12.06-.53-1.57-1.45-1.71ZM49.51,83.1c-.06-.67.31-.91.4-1.45-.25,0-.29-.15-.53-.13C49.47,82,49.21,82.83,49.51,83.1Zm1.71.4c.39.1.57.4.79.66a10.18,10.18,0,0,0-.4-2.37A14.37,14.37,0,0,1,51.23,83.5Zm3.95,1.05c5.61,1.23,9.86,4.34,13.3,7.64.41.39,1.06,1.27,1.71.53-.24-1.44-1.7-2.15-2.76-3A27.85,27.85,0,0,0,54.91,83.5C55,83.87,55.1,84.18,55.17,84.55ZM39,83.89v.66c.48-.09,1-.14,1.45-.26-.05-.32.24-.29.13-.66C40.07,83.75,39.45,83.74,39,83.89ZM23.05,84.95c.32-.38.91-.49,1.18-.92C23.71,83.3,22.44,84.17,23.05,84.95Zm3.82-.26c.27.08.43.28.66.4.25-.32.41-.73.66-1.05C27.69,83.43,27,84.14,26.87,84.68Zm40.41.79H65.84v1.32c.52,0,1.26-.12,1.58.13a1.64,1.64,0,0,0,.26,1.19,2,2,0,0,0,1.71,0,5.73,5.73,0,0,0-.13-3.82C68.06,83.69,67.62,84.79,67.29,85.47ZM25,92.32a75.88,75.88,0,0,0-.26-8.16A22.27,22.27,0,0,0,25,92.32Zm.39-7.64a5.66,5.66,0,0,1,2.76,3.42c-1-.73-1.47-2-2.76-2.5a5.4,5.4,0,0,0,3.42,3.55C28.61,87,27,84.54,25.42,84.68Zm26.33.53h.39c-.08-.23.16-.77-.13-.79C52,84.77,51.46,84.92,51.75,85.21Zm-12.64-.26v.92c.46.11.51-.2.92-.13,0-.42.3-.58.26-1.05A5,5,0,0,0,39.11,84.95ZM62.68,97.32c-.5,6.58-2,10.78-5,14.74-.82,1.09-2.78,2.64-3,3.69-.54,2.24.4,4.24,0,6.58H80.05c-.09-12.51.18-25.36-.13-37.65C75.47,90.19,69.37,94.05,62.68,97.32ZM23.84,85.08a9.47,9.47,0,0,0-1.71,7.11c.66-1.4,2.06-2.77,1.84-4.61-.61.83-.95,1.95-1.58,2.76C22.24,88.55,23.93,86.8,23.84,85.08Zm31.59.79a37.44,37.44,0,0,1,10.4,5.66c.94.76,1.71,2,3,2.11.25-.63-.52-1.21-.92-1.58-3.25-3-7.65-6-12.64-7C55.3,85.39,55.53,85.46,55.44,85.87Zm4.34,2.5a27,27,0,0,0-11.06-3,28.25,28.25,0,0,0-12.11,1.84c-2.13.81-4.48,1.63-5.79,3.29,1.24.24,2.23-.7,3.16-1.19a26.26,26.26,0,0,1,10.93-3,27.18,27.18,0,0,1,20.8,7.24c.44.39,1.15,1.55,2,.66C65.93,91.78,63,90,59.78,88.37ZM46.22,89.55h2.37a20.74,20.74,0,0,0,.13-2.76H46A10.74,10.74,0,0,0,46.22,89.55ZM25.55,92.32c.44.48,1.14.7,1.18,1.58.4.08,1.13-.17,1.32.13.09.49-.22.57-.13,1.05,1.73.18,1.82,3.81-.13,3.82,0,.59.52,1.06.26,1.45-.22-.22-.77-.11-1.18-.13-.24,1.85-3.5,1.91-3.42-.26-.39-.07-.93.37-1.05.13,0-.42.23-.56.13-1.05-.54.13-1.07-1-1.18-.39v23.7h5.79c1.82-6.27.3-14.47-1.32-19.48,2.52.35,5.08-.22,6.45-1.45-1.6-3.1-3.18-6.21-4.61-9.48a13,13,0,0,1,2.5-1.71A2.76,2.76,0,0,0,29.37,89c-.11.34.4.72,0,.92a7.33,7.33,0,0,1-3.95-3C25.35,88.84,25.65,90.38,25.55,92.32Zm16.72-5.27c-.74.32-1.75.36-2.5.66a22.31,22.31,0,0,1,.53,2.5,19.05,19.05,0,0,1,2.5-.39C42.48,88.84,43,87.38,42.27,87.05Zm9.74,3c.82.23,1.72.38,2.5.66a25.93,25.93,0,0,0,.66-2.63,22.74,22.74,0,0,0-2.63-.66A25.55,25.55,0,0,0,52,90.08Zm-18.17,0c.44.62.62,1.49,1.05,2.11A12.41,12.41,0,0,0,37,91.4a12.24,12.24,0,0,0-.79-2.76C35.54,89.23,34.38,89.34,33.85,90.08Zm23.83,2.11c1,.19,1.36.92,2.37,1.05.22-.87.75-1.44.92-2.37a26.73,26.73,0,0,0-2.37-1.45A16.13,16.13,0,0,0,57.68,92.19ZM43.2,89.95a30.31,30.31,0,0,0,.26,3,13,13,0,0,0,2.37-.26c-.09-1.15,0-1.88-.13-2.9C44.72,89.72,44.15,90,43.2,89.95Zm5.66-.13c0,1.38-.19,1.66-.13,3,.9,0,1.49.26,2.37.26a15.23,15.23,0,0,0,.53-2.76A15.26,15.26,0,0,0,48.86,89.82ZM37.4,91.66a17.77,17.77,0,0,1,.92,2.5,16.53,16.53,0,0,0,2.24-.66c-.07-1-.39-1.8-.39-2.9A9.29,9.29,0,0,0,37.4,91.66Zm-6.06-.13c3.35,1.06,5.75,3.53,5.27,8-.09.88-.78,1.76-.26,2.63C39,97.55,36,91.44,31.22,91A.73.73,0,0,0,31.35,91.53ZM54,93.9c.8.25,1.42.68,2.24.92.36-.83.68-1.69,1.05-2.5a16.53,16.53,0,0,0-2.5-1.05A25.55,25.55,0,0,0,54,93.9Zm-21.85-.53a4.83,4.83,0,0,1,2.76,2c1.07,1.57.66,3.78.79,5.66,1.75-3.8-.47-8.19-4-8.82C31.69,92.76,32.12,92.86,32.14,93.37Zm-8,1.84a1.83,1.83,0,0,1,2.24,0C27,92,23.17,92.58,24.11,95.21Zm40-2.24c-.4.79-1,1.4-1.32,2.24.66.17.92,1.15,1.71.79-.21-.49-.71-.69-.92-1.19a2.88,2.88,0,0,1,.92-1.05c.23.43.69.62.92,1.05-.15.25-.78.7-.53.92.43-.36,1-.54,1.45-.92A19.08,19.08,0,0,0,64.13,93ZM48.2,94a19.45,19.45,0,0,1,9.61,2.63c.87.5,1.61,1.33,2.63,1.32-.36-.81-1.48-1.25-2.37-1.71a25.8,25.8,0,0,0-19.35-1.58c-.42.15-1.61.28-1.32,1.05,1.23.21,2.59-.68,4.08-1.05A22,22,0,0,1,46.62,94ZM59,96.14c.7.44,1.17,1.11,2.11,1.32a20.3,20.3,0,0,1,1.19-2.11c-.79-.48-1.41-1.13-2.24-1.58C59.85,94.71,59.16,95.17,59,96.14ZM35.3,99.69c.47-2.88-.75-5-2.76-5.79A36.84,36.84,0,0,0,35.3,99.69Zm11.32-5.27a25,25,0,0,0-5.4.79c-1.36.36-3.05.8-3.55,1.58,3.28-.92,7.19-2.16,11.58-1.84a19.93,19.93,0,0,1,7.9,2.63c.71.38,1.47,1.09,2.24.79-2.31-2.18-6.8-3.82-11.19-3.95A2,2,0,0,0,46.62,94.42Zm-22,4.21c2.7.79,2.48-4.14,0-3.16C23.51,95.92,23.4,98.28,24.63,98.64Zm16.59-2.37c-1.25.32-2.86.48-3.42,1.58,4.33-2.14,11.5-2.49,16.06-.92,1.67.57,3.05,1.68,4.48,2C54.92,95.45,47,94.77,41.22,96.27ZM23.58,98.11c-.52-.61-.27-1.43-.13-2.24C20.64,94.39,21.12,100,23.58,98.11Zm3.29-2.24a3.13,3.13,0,0,1,0,2.37C29.29,99.69,29.4,94.39,26.87,95.87Zm19.88.79a40.57,40.57,0,0,0-5.66.92c-1.25.36-2.65.82-3.16,1.58,4-1.95,10.55-2.79,15.14-1.19,1.38.48,2.54,1.54,3.82,1.32a18.44,18.44,0,0,0-8.29-2.5C48.24,96.49,47.32,96.75,46.75,96.66Zm-9.08,3a11.89,11.89,0,0,1-.66,2.37,7.57,7.57,0,0,1,3.55,1.84c1.67-2.18,4.6-6.18,8.29-5.92,2,.14,2.54,1.88,3.69,3.16A26.8,26.8,0,0,1,56,100C52.05,96.33,42.18,97.14,37.67,99.69ZM51.23,111.8c1-.55,1.9,0,3,0-.4-4.91-.95-11-4.08-13A3.09,3.09,0,0,0,49,98.37c-3.95-.45-6.21,3.66-8.29,5.92,2,1.87,2.31,6.56.92,9.35a18.34,18.34,0,0,1,1.45,2.9c.52,0,.66.3,1.18.26a12.46,12.46,0,0,1,3.69,3.69c.41.62.71,1.65,1.58,1.84.94-2.35,2.36-4.22,4.87-5V116c-5.27,3-4.46-5.33-3-8.42a2.88,2.88,0,0,0-1.32-.92c-.23.25-.38.58-.92.53-.61-.22-1-1.05-1.84-.66-.39.42-.14.79,0,1.32a1.15,1.15,0,0,1-.13-2c1.14-.18,1.36.57,2.37.53.3-.14-.06-.94.26-1.05.63.73,1.69,1,2.11,2a16.06,16.06,0,0,0-.79,3.42C52.82,109.73,51,111,51.23,111.8ZM26.34,98.9a3.25,3.25,0,0,1-2.24.13C22.93,101.88,27.52,101.56,26.34,98.9Zm29.75,5.4c-.57,1.31-1.59,2.5-1.58,3.95a19.68,19.68,0,0,0,3.29-8.56c.14,0,.1-.17-.13-.13A21.23,21.23,0,0,1,56.1,104.3Zm.39-4.21c-.27,2.45-2.37,4.85-2.37,6.85a14.75,14.75,0,0,0,3-7c0-.1-.11-.15-.26-.13C56.85,100,56.6,100,56.49,100.09Zm-2.5,5.4a17.39,17.39,0,0,0,2-5.13h-.39C55.29,102.15,53.49,103.76,54,105.48Zm-.39-1.32c.54-1.08,1-2.27,1.45-3.42h-.53C54.45,102,53.25,102.9,53.59,104.17ZM53.07,103c.49-.24,1.18-1.59.66-2A20.46,20.46,0,0,1,53.07,103Zm-.53-1.58a1.31,1.31,0,0,0,.39.79,2.15,2.15,0,0,0,.26-.92C52.88,101.22,52.91,101.51,52.54,101.4ZM37,103.64c2.41.49,4,1.85,4.34,4.48.2,1.67-.54,3.53.13,4.87,1.67-4.68-.2-10.16-4.87-10.53C36.54,103.05,36.88,103.24,37,103.64Zm-4.21-.92c-.17.13-.49.13-.66.26,2.26,5.72,5.66,11.76,8.29,17.38.35.74.53,2.24,1.84,2C39.48,116,36,109.12,32.79,102.72Zm-1.71.79c-.5.13-.1,1.46.13,1.71A6.09,6.09,0,0,0,31.08,103.51Zm-3.95.66c.31,1,.59,2,.92,2.9.69-1,1-3,2.5-2.76-.3-.05,0-.72-.39-.66A16.4,16.4,0,0,1,27.13,104.17Zm4.48-.13v1.84c.62-.09,1,.79,1.32.53C32.38,105.72,32.15,104.72,31.61,104Zm7.9,2.11c1.28,1.56.66,3.48,1.32,5.53.86-3.5-.43-7.46-3.55-7.37C37.48,105.35,38.78,105.26,39.51,106.14Zm.66,4.08c.09-2.24-.68-4.32-2.24-4.48C38.77,107.14,39.3,108.85,40.17,110.22Zm-9-4.08c.09.66,1,.82,1.45,1.45a5.21,5.21,0,0,1,.53,4.61c2.15.81,3.67,2.89,3,6.06,1.75.66,2.56,2.27,3.29,3.95a4.82,4.82,0,0,0-2.9-4.21c.29-3.32-.86-5.19-3.16-5.92C34.06,109.55,33.48,106.59,31.22,106.14Zm-1.05,1.05h.53c.28-.28.07-.74-.13-.92C30.06,106.22,29.88,106.87,30.16,107.19Zm8.42,15c-1-.44-.71-2.1-1.45-2.76,0,1-.52,1.67-1.32,1.71-.54,0-.37-.51-1.19-.66-.37-.07-.69.24-.92.13-1.48-.73-1-2.4.13-3-.45-1.1.93-1.94,1.84-1.71-1-.34-.92-1.72-1.58-2.37-.42,3-1.82.83-3.42,1.18-1.32-.63-.87-2.52.13-3.16a1.27,1.27,0,0,1,2.24-1.05A9.87,9.87,0,0,1,32,107.72c-.15.73-.42,1.33-1.19,1.45-.85-.54-1.71-.29-2.5-.79a35.68,35.68,0,0,1-.26,13.82A84.56,84.56,0,0,0,38.59,122.2ZM37,117.86c1.13.23,1.58,1.14,2.24,1.84C37.6,116,35.86,112.38,34,108.9a15.45,15.45,0,0,1,0,3C36.33,112.57,37.19,114.69,37,117.86Zm3.42,4.34a8.58,8.58,0,0,0-1.18-2.5C39.75,120.42,39.63,121.78,40.43,122.2Zm11.45-9.35c.13-.31.23-.65.79-.53s.17.71.66.66C53.66,111.47,51.28,111.58,51.88,112.85Zm-19.35.26c.19,0,.22-.22.39-.26C33.06,111.16,31.1,112.85,32.53,113.12Zm18.56-.53c.35,0,.43-.18.4-.53C51.13,112.07,50.86,112.36,51.09,112.59Zm2.63,1.19a3,3,0,0,1-2.9-.4C51,114.51,53.2,114.81,53.73,113.78Zm.26.66a3.64,3.64,0,0,1-3.16-.26C50.82,115.34,53.92,116.1,54,114.43ZM43.72,118a9.67,9.67,0,0,1,1.84,1.18c1.1,1,1.76,2.68,3,3-1.33-2.18-2.69-4.33-5.26-5.27A9,9,0,0,0,43.72,118ZM50,122.33c1.1-.87,1.44-2.14,2.5-2.9.63-.45,1.86-.49,1.84-1.58C52,118.41,50.79,120.14,50,122.33ZM35.16,119c.49.05.77-.11.79-.53C35.75,117.68,34.54,118.34,35.16,119ZM46,121.15c.44.47,1,1.49,1.71,1.05-1.12-1.25-2-2.7-3.55-3.56A6,6,0,0,0,46,121.15Zm5,1.19c1,0,1.09-1.08,1.58-1.58s1.72-.71,1.84-1.71A4.38,4.38,0,0,0,51,122.33Zm1.05,0a3.37,3.37,0,0,0,2.37-2.24A3.85,3.85,0,0,0,52,122.33Zm-5.53-.13a9.48,9.48,0,0,0-1.32-1.32C45.42,121.43,45.62,122.71,46.49,122.2Zm6.71.13h1.05c-.08-.31.17-1-.13-1.05C53.89,121.7,53.25,121.73,53.2,122.33ZM37.14,40.58c-.19,0-.22-.22-.39-.26C36,40.82,37.18,41.77,37.14,40.58Zm-8.69,12.9a2.47,2.47,0,0,0,1.05.13C31.09,51.68,27.27,51.23,28.45,53.48Zm-5,12.11a1.5,1.5,0,0,0,1.19,0A1.68,1.68,0,0,0,24.5,64C23.28,63.66,23.13,64.81,23.45,65.59ZM72.68,81.92c-1.31-.31-1.45,1.32-.79,1.84C73.24,84.16,73.37,82.38,72.68,81.92Zm5.4-11.72c-.61-.83-2-.27-1.58,1.05C77.09,72.06,78.5,71.56,78.08,70.2ZM64.13,95c.26,0,.17.36.53.26-.05-.32.24-.29.13-.66C64.51,94.28,64.12,94.56,64.13,95Z"/><path class="cls-4" d="M41.61,39.53c0,.67-.46.85-.53,1.45-.59-.11-.78-.62-1.32-.79.31-.44.45-1,.92-1.32A1.89,1.89,0,0,1,41.61,39.53Zm-.92-.13c-.08.27-.28.42-.39.66.25.06.33.28.66.26,0-.33.21-.41.26-.66C41,39.59,40.89,39.47,40.69,39.4Z"/><path class="cls-4" d="M23.05,54.4c.55-.3.87-.17,1.58-.13.92.71.45,3.28-.92,2.24-.16-.55.56-.23.66-.53-.86-2-2.57.2-2,2.11.28.9,1.26,1.15,2.24.92s1.4-1.25,2.24-1.84c-.44,1.49.57,3.95,2.24,2.5-.17-.44-.74-.49-.53-1.32.25-.06.24-.38.66-.26,1,.5.39,2.38-.39,2.63.15.58.42,2.09-.53,2,.79-2.29-2.4-1.6-2.11-3.82a4.13,4.13,0,0,1-2.5.92c-2.33-.28-1.85-2.91-1.45-5.27.1-.54-.63-.25-.53-.79C21.89,52.73,23.39,53.36,23.05,54.4Z"/><path class="cls-4" d="M52.94,56.38a1.16,1.16,0,0,1-.26-1.05C53.79,54.16,54.72,56.69,52.94,56.38Z"/><path class="cls-4" d="M54,59.54c-.67.34-1.43,0-1.18-.92A.75.75,0,0,1,54,59.54Z"/><path class="cls-4" d="M54,61.25c-.67.34-1.43,0-1.18-.92A.75.75,0,0,1,54,61.25Z"/><path class="cls-4" d="M54,63c-.67.34-1.43,0-1.18-.92A.75.75,0,0,1,54,63Z"/><path class="cls-4" d="M76.5,63.22c.47-.76,2.35-1.46,2.9-.26a6,6,0,0,0,.26,2.5c-1,0-.85-1.09-1.58-1.32A1.73,1.73,0,0,1,78.61,63c-1.85-.58-1.48,2.1-2.11,3.16-.58-.82,0-2.78-1.45-2.77-.28.29,0,1.12-.53,1.19-.9-.33-1.08-1.38-1.45-2.24C73.84,62.7,75.94,62.13,76.5,63.22Z"/><path class="cls-4" d="M26.34,72.18c.25-.33.07-1.07.53-1.19a4.82,4.82,0,0,1,1.45,2.37c-.88-.68-2.91.19-3.42-1.05-1.65,1.93-3.29.74-3.16-2.24.91,0,.51,1.24,1.45,1.18a1.52,1.52,0,0,1-.39,1.32c1.77.63,1.59-1.83,2-3C25.63,70.08,24.67,72.44,26.34,72.18Z"/><path class="cls-4" d="M47.14,74.41a1.17,1.17,0,0,1,1.05-.26C49.35,75.27,46.87,76.17,47.14,74.41Z"/><path class="cls-4" d="M47.54,78.76c-1.48-2.21,3.11-.72,0,0Z"/><path class="cls-4" d="M47.28,82.71a1.16,1.16,0,0,1,1.05-.26C49.49,83.56,47,84.49,47.28,82.71Z"/><path class="cls-3" d="M67.81,85.47c0,.7-1,.28-1.58.4C66.51,85.49,67.71,86,67.81,85.47Z"/><path class="cls-3" d="M47.67,88.37c-.06.29-.7.1-.79,0v-.66c.13-.28,1.21-.1.79.13,0-.29-.47-.06-.66-.13v.66Z"/><path class="cls-3" d="M45.3,91.26c.4,1.06-.7,1.31-1.32.92C45,92.43,45.25,92,45.3,91.26Z"/><path class="cls-3" d="M44.51,91.92c-.47.08-.4-.39-.4-.79a.74.74,0,0,1,.53-.13c0,.15-.24.11-.4.13v.66C44.4,91.77,44.48,91.82,44.51,91.92Z"/><path class="cls-4" d="M54.91,48.22c-.36.26-1.15.08-1.71.13a5.49,5.49,0,0,1,.13-1.58h1.32A10,10,0,0,1,54.91,48.22ZM53.73,48c.53.05.76-.2.66-.79h-.66C53.69,47.47,53.47,47.71,53.73,48Z"/><path class="cls-4" d="M47.14,76.13a.94.94,0,0,1,1.32,0C48.8,77.51,46.85,77.43,47.14,76.13Z"/><path class="cls-4" d="M47.28,79.42c2.65-1.24.34,2.9,0,0Z"/><path class="cls-4" d="M67.81,85.47c1.38-3.76,2.76,4.39-.13,2.11,0-.38-.07-.86.13-1.05-.64-.07-1.48.08-1.71-.4,0-.15,0-.23.13-.26C66.78,85.75,67.85,86.17,67.81,85.47Z"/><path class="cls-4" d="M48.07,88.76H46.62c0-.54-.23-.82-.13-1.45H48.2C48.27,87.92,48,88.13,48.07,88.76Zm-.39-.92c.42-.23-.66-.41-.79-.13v.66c.09.1.73.29.79,0Z"/><path class="cls-4" d="M54.52,88.63a6.65,6.65,0,0,0-.4,1.32c-.54-.07-.85-.38-1.45-.4,0-.61.26-.88.26-1.45A4.67,4.67,0,0,1,54.52,88.63Zm-.53.13c-.31,0-.39-.23-.79-.13-.1.59.12.84.66.79C53.75,89,54,89.08,54,88.76Z"/><path class="cls-4" d="M36.35,90.74c-.18.43-.74.49-1.19.66a13.06,13.06,0,0,1-.53-1.58c.54,0,.74-.4,1.32-.4C36.11,89.84,36.1,90.41,36.35,90.74Zm-.92-.79c-.5.12-.1.53-.13.92.25,0,.29-.15.53-.13C35.82,90.35,35.83,89.94,35.43,89.95Z"/><path class="cls-4" d="M51.09,91.13a3,3,0,0,0-.26,1.32,3.09,3.09,0,0,1-1.45-.26,2.61,2.61,0,0,1,.26-1.58A3.47,3.47,0,0,1,51.09,91.13Zm-1.32.79c.37-.11.34.19.66.13-.1-.4.23-.39.13-.79-.37.11-.34-.19-.66-.13C49.91,91.44,49.68,91.52,49.78,91.92Z"/><path class="cls-4" d="M60.18,91.13a5.72,5.72,0,0,1-.53,1.18c-.61,0-.75-.57-1.32-.66.05-.56.37-.86.53-1.32C59.53,90.38,59.75,90.86,60.18,91.13Zm-1.05-.26c-.07.2-.2.33-.26.53.31,0,.25.46.66.4-.05-.32.24-.29.13-.66C59.29,91.23,59.39,90.87,59.12,90.87Z"/><path class="cls-4" d="M58.47,22.28c-.91-.63-2.93-1.9-4.08-.66a4.39,4.39,0,0,1,4.34,1.45c-1.22.47-2.71,1.55-4.34.79-.05.61,1.15,1,1.58,1.58-1.07.06-1.76-1.4-2.9-1.71.17-.4.48-.66.66-1.05-.11-.42-.39-.66-.4-1.19,1-.08,1.58-.86,2.63-.79A3.63,3.63,0,0,1,58.47,22.28ZM55.57,24a1.13,1.13,0,0,0,1.05-1.19c-.54,0-.29.85-.92.79-.44-.17-.55-.68-.92-.92C54.7,23.46,55.21,23.65,55.57,24Zm-1.45-.79c0,.35.18.43.53.39C54.64,23.25,54.35,23,54.12,23.2Z"/><path class="cls-4" d="M45.43,110c1.11.38,1.54,1.44,2.76,1.71-.22.81-.87,1.5-.13,2.24a6.22,6.22,0,0,0-1.71.92c-1.83.17-2.64-.69-3.55-1.45.74.1,3,2,4.08.53-1.51.65-3.42-.47-4.34-1.58,1.59-.15,2.7-1.49,4.47-.66C46.75,110.84,45.7,110.79,45.43,110Zm-.53,2.76c.24-.25.21-.76.66-.79.65,0,.47.85,1.05.92C46.87,111.17,44.08,111.67,44.91,112.72Zm2.37-.66c-.23.08-.55-.39-.66,0C46.73,112.35,47.27,112.73,47.28,112.06Z"/><path class="cls-4" d="M45.3,41.9c.15-.59,1,.2,1.32.26a7.9,7.9,0,0,1-.4,1.45c-.57-.09-.81-.51-1.32-.66A2.88,2.88,0,0,1,45.3,41.9Zm.13.92c.25,0,.29.15.53.13.35-.36,0-.72-.39-.79C45.62,42.48,45.32,42.45,45.43,42.82Z"/><path class="cls-4" d="M62.42,42c.44.3.53,1,.66,1.58-.33.24-1,.14-1.32.39-.45-.21-.14-1.18-.39-1.58C61.62,42.2,62.18,42.27,62.42,42Zm-.26,1.45c0-.15.21-.14.39-.13-.07-.33,0-.79-.39-.79S61.77,43.49,62.15,43.48Z"/><path class="cls-4" d="M52,43.35c.09.66-.22.92-.13,1.58-.69.07-1-.25-1.58-.26,0-.66.31-.92.26-1.58C51.18,43,51.45,43.35,52,43.35Zm-.53,1.05v-.79A.45.45,0,1,0,51.49,44.4Z"/><path class="cls-4" d="M41.61,43.35c.49-.26.91.54,1.45.66l-.66,1.32c-.54-.17-.82-.58-1.32-.79C41.23,44.11,41.47,43.77,41.61,43.35Zm.13.53c0,.25-.15.29-.13.53.25.06.33.28.66.26.07-.19.2-.33.26-.53C42.12,44.2,42.24,43.73,41.75,43.87Z"/><path class="cls-4" d="M57.54,43.35v1.58H56.1V43.35Zm-1.05,1.19h.66v-.79h-.66Z"/><path class="cls-4" d="M66.63,45.72c-.31.21-.76.3-1.05.53-.42-.28-.44-1-.53-1.58C65.87,43.87,66.72,44.53,66.63,45.72ZM66,45.58c.26-.25,0-.48,0-.79C65.2,44.6,65.46,45.61,66,45.58Z"/><path class="cls-4" d="M48.72,46.11a13.71,13.71,0,0,1-.4,1.45c-.44-.22-1-.31-1.45-.53,0-.56.34-.71.26-1.32C47.65,45.51,48.23,45.91,48.72,46.11Zm-1.32.66c.31,0,.54.26.79,0,.15-.59-.4-.47-.66-.66C47.59,46.43,47.3,46.4,47.41,46.77Z"/><path class="cls-4" d="M60.7,46.11A7.78,7.78,0,0,0,61,47.56a11.42,11.42,0,0,1-1.58.4c-.25-.32-.08-1.06-.13-1.58A3.08,3.08,0,0,1,60.7,46.11Zm-1.05.53a1.12,1.12,0,0,0,.13.79c.37.11.34-.19.66-.13,0-.39,0-.8-.4-.79C60,46.66,59.84,46.65,59.65,46.64Z"/><path class="cls-4" d="M33.58,49c.41.14,1,0,1.58.26v.26c0,.55-1,.13-1.45.26-.33.37-.25,1.15-.79,1.32-1.56-.05-.52-1.88-.92-3C32.43,47.15,34,47.58,33.58,49Z"/><path class="cls-4" d="M52.67,54.4c.59-3,2.34,1.56,0,0Z"/><path class="cls-4" d="M52.67,57.7c.61-3.06,2.32,1.59,0,0Z"/><path class="cls-4" d="M48.46,73.1c-.37,1.76-2.35-.66-.53-.79.13.26.58.21.53.66Z"/><path class="cls-4" d="M73.08,72.83c0,.43-.22.66-.13,1.18.67,1,2.34.91,2.24,2.63.56-.1,1.14-.88,2-.92,2.42-.11,2.84,2.72,1.84,5,0,.62.67.65.66,1.32-.45.7-1.46.1-1.45-.79-1.44.56-2.41-.69-1.84-2.11.37-.17,1-.67,1.32-.13.16.55-.55.23-.66.53,1.07,2.63,2.91-1.39,1.58-2.76-2-1-3.12.82-4.21,1.58.75-1.88-.84-3.86-2.24-2.37.35.26.81.42.66,1.18a2.28,2.28,0,0,0-.53.4c-1.31-.41-.65-2.28.13-2.76C72.26,74,72.1,72.84,73.08,72.83Z"/><path class="cls-4" d="M48.59,81.79a1.16,1.16,0,0,1-1.05.26c-.11-.11-.08-.36-.26-.4C47.06,80.43,48.94,80.47,48.59,81.79Z"/><path class="cls-4" d="M42,87.71a6.45,6.45,0,0,1,.13,1.58,3.74,3.74,0,0,0-1.32.26c-.36-.29-.28-1-.39-1.58A6.59,6.59,0,0,1,42,87.71Zm-1.19.53c0,.31.23.39.13.79h.53c.18-.17.13-.57.13-.92C41.31,88.1,41.23,88.33,40.83,88.24Z"/><path class="cls-4" d="M44,92.19a2.88,2.88,0,0,1-.26-1.45c.32-.25,1.06-.08,1.58-.13v.66C45.25,92,45,92.43,44,92.19ZM44.64,91a.74.74,0,0,0-.53.13c0,.4-.08.87.4.79h.26C45,91.75,45,91,44.64,91Z"/><path class="cls-4" d="M39.77,91.66c-.1.67.18,1,.13,1.58a3,3,0,0,1-1.18.26c-.24-.38-.24-1-.53-1.32C38.48,91.77,39.15,91.74,39.77,91.66Zm-1.05.66c-.05.32.24.29.13.66h.66c.09-.4-.13-.48-.13-.79C39,92.08,39,92.37,38.72,92.32Z"/><path class="cls-4" d="M56.49,92.71a7.12,7.12,0,0,0-.39,1.19c-.67.09-.78-.36-1.32-.4-.1-.68.28-.86.26-1.45A3.09,3.09,0,0,1,56.49,92.71Zm-1.32.53c.32-.05.29.24.66.13,0-.25.15-.29.13-.53-.36.1-.26-.26-.53-.26C55.3,92.75,55.31,93.07,55.17,93.24Z"/><path class="cls-4" d="M61.49,95.48c-.15.55-.55.85-.79,1.32-.52-.05-.56-.58-1.05-.66.06-.59.42-.9.53-1.45A2.23,2.23,0,0,1,61.49,95.48Zm-1.19.66c.49,0,.55-.33.66-.66-.36.1-.26-.26-.53-.26C60.46,95.62,60,95.81,60.31,96.14Z"/></g></svg>