<svg xmlns="http://www.w3.org/2000/svg" viewBox="0 0 101.07 140"><defs><style>.cls-1{fill:#fff;}.cls-2{fill:#c4161c;}</style></defs><title>Монтажная область 9</title><g id="cards"><path class="cls-1" d="M98,0S68.82.79,50.53.79,3,0,3,0A2.94,2.94,0,0,0,0,3V135.9A3.17,3.17,0,0,0,3,139s29.21,1,47.5,1S98,139,98,139a3.17,3.17,0,0,0,3-3.13V3A2.94,2.94,0,0,0,98,0Z"/><polygon class="cls-2" points="10.26 16.91 5.97 23.58 10.26 30.25 14.55 23.58 10.26 16.91"/><path class="cls-2" d="M8,9.29a2.21,2.21,0,0,1,1.13-.64,2,2,0,0,1-1.32-2,2.41,2.41,0,0,1,.73-1.8,2.51,2.51,0,0,1,1.83-.71,2.33,2.33,0,0,1,1.73.68,2.39,2.39,0,0,1,.67,1.76,2.24,2.24,0,0,1-1.29,2.12,2.31,2.31,0,0,1,1.67,2.45,3,3,0,0,1-.82,2.2,2.82,2.82,0,0,1-2.13.85,2.85,2.85,0,0,1-2.08-.82,2.76,2.76,0,0,1-.83-2.05A3,3,0,0,1,8,9.29Zm2.22-.09a1.77,1.77,0,0,0-1.33.55,1.94,1.94,0,0,0-.53,1.4,2.08,2.08,0,0,0,.52,1.46,1.7,1.7,0,0,0,1.31.56,1.74,1.74,0,0,0,1.33-.56,2,2,0,0,0,.52-1.45,2,2,0,0,0-.49-1.43A1.73,1.73,0,0,0,10.26,9.2Zm.09-4.13a1.3,1.3,0,0,0-1,.43A1.53,1.53,0,0,0,9,6.57a1.51,1.51,0,0,0,.39,1.06,1.34,1.34,0,0,0,2,0,1.5,1.5,0,0,0,.4-1.05,1.53,1.53,0,0,0-.39-1.07A1.26,1.26,0,0,0,10.35,5.06Z"/><polygon class="cls-2" points="90.6 122.04 94.89 115.37 90.6 108.7 86.31 115.37 90.6 122.04"/><path class="cls-2" d="M92.82,129.66a2.21,2.21,0,0,1-1.13.64,2,2,0,0,1,1.32,2,2.41,2.41,0,0,1-.73,1.8,2.51,2.51,0,0,1-1.83.71,2.33,2.33,0,0,1-1.73-.68,2.39,2.39,0,0,1-.67-1.76,2.24,2.24,0,0,1,1.29-2.12,2.31,2.31,0,0,1-1.67-2.45,3,3,0,0,1,.82-2.2,3.07,3.07,0,0,1,4.21,0,2.76,2.76,0,0,1,.83,2.05A3,3,0,0,1,92.82,129.66Zm-2.22.09a1.77,1.77,0,0,0,1.33-.55,1.94,1.94,0,0,0,.53-1.4,2.08,2.08,0,0,0-.52-1.46,1.7,1.7,0,0,0-1.31-.56,1.74,1.74,0,0,0-1.33.56,2.29,2.29,0,0,0,0,2.88A1.73,1.73,0,0,0,90.6,129.75Zm-.09,4.13a1.3,1.3,0,0,0,1-.43,1.53,1.53,0,0,0,.39-1.08,1.51,1.51,0,0,0-.39-1.06,1.34,1.34,0,0,0-2,0,1.5,1.5,0,0,0-.4,1.05,1.53,1.53,0,0,0,.39,1.07A1.26,1.26,0,0,0,90.51,133.88Z"/><polygon class="cls-2" points="50.44 73.73 40.43 89.3 50.44 104.86 60.44 89.3 50.44 73.73"/><polygon class="cls-2" points="50.5 33.73 40.49 49.3 50.5 64.86 60.5 49.3 50.5 33.73"/><polygon class="cls-2" points="30.42 53.73 20.41 69.3 30.42 84.86 40.42 69.3 30.42 53.73"/><polygon class="cls-2" points="30.42 13.73 20.41 29.3 30.42 44.87 40.42 29.3 30.42 13.73"/><polygon class="cls-2" points="30.42 93.73 20.41 109.3 30.42 124.86 40.42 109.3 30.42 93.73"/><polygon class="cls-2" points="70.42 53.73 60.41 69.3 70.42 84.86 80.42 69.3 70.42 53.73"/><polygon class="cls-2" points="70.42 13.73 60.41 29.3 70.42 44.87 80.42 29.3 70.42 13.73"/><polygon class="cls-2" points="70.42 93.73 60.41 109.3 70.42 124.86 80.42 109.3 70.42 93.73"/></g></svg>