<svg xmlns="http://www.w3.org/2000/svg" viewBox="0 0 101.07 140"><defs><style>.cls-1{fill:#fff;}.cls-2{fill:#c4161c;}</style></defs><title>Монтажная область 13</title><g id="cards"><path class="cls-1" d="M98,0S68.82.79,50.53.79,3,0,3,0A2.94,2.94,0,0,0,0,3V135.9A3.17,3.17,0,0,0,3,139s29.21,1,47.5,1S98,139,98,139a3.17,3.17,0,0,0,3-3.13V3A2.94,2.94,0,0,0,98,0Z"/><path class="cls-2" d="M9.93,13.17a1.75,1.75,0,0,0,1.54-1,5.8,5.8,0,0,0,.66-2.71,3.89,3.89,0,0,1-1.05,1,2.31,2.31,0,0,1-1.18.29A2.38,2.38,0,0,1,8,9.87a3.51,3.51,0,0,1-.75-2.32,3.72,3.72,0,0,1,.82-2.47,2.57,2.57,0,0,1,2.05-1,2.61,2.61,0,0,1,1.44.43,2.67,2.67,0,0,1,1,1.15,8.12,8.12,0,0,1,.64,3.39,6.64,6.64,0,0,1-.91,3.66A2.73,2.73,0,0,1,9.9,14.15a2.2,2.2,0,0,1-1.57-.59,2,2,0,0,1-.63-1.48q0-1,.73-1a.62.62,0,0,1,.48.21.78.78,0,0,1,.19.54.74.74,0,0,1-.33.62A1.21,1.21,0,0,0,9.93,13.17Zm.15-3.44a1.62,1.62,0,0,0,1.3-.61,2.32,2.32,0,0,0,.52-1.54,2.78,2.78,0,0,0-.52-1.72,1.56,1.56,0,0,0-1.29-.69,1.53,1.53,0,0,0-1.27.66,2.74,2.74,0,0,0-.5,1.69,2.5,2.5,0,0,0,.49,1.6A1.56,1.56,0,0,0,10.07,9.74Z"/><path class="cls-2" d="M90.93,125.77a1.75,1.75,0,0,0-1.54,1,5.8,5.8,0,0,0-.66,2.71,3.89,3.89,0,0,1,1.05-1,2.31,2.31,0,0,1,1.18-.29,2.38,2.38,0,0,1,1.92.9,3.51,3.51,0,0,1,.75,2.32,3.72,3.72,0,0,1-.82,2.47,2.57,2.57,0,0,1-2.05,1,2.62,2.62,0,0,1-1.44-.43,2.67,2.67,0,0,1-1-1.15,8.12,8.12,0,0,1-.64-3.39,6.64,6.64,0,0,1,.91-3.66A2.73,2.73,0,0,1,91,124.8a2.2,2.2,0,0,1,1.57.59,2,2,0,0,1,.63,1.48q0,1-.73,1a.62.62,0,0,1-.48-.21.78.78,0,0,1-.19-.54.74.74,0,0,1,.33-.62A1.21,1.21,0,0,0,90.93,125.77Zm-.15,3.44a1.62,1.62,0,0,0-1.3.61,2.32,2.32,0,0,0-.52,1.54,2.78,2.78,0,0,0,.52,1.72,1.56,1.56,0,0,0,1.29.69,1.53,1.53,0,0,0,1.27-.66,2.74,2.74,0,0,0,.5-1.69,2.5,2.5,0,0,0-.49-1.6A1.56,1.56,0,0,0,90.78,129.21Z"/><path class="cls-2" d="M15.75,21a2.74,2.74,0,0,0-5.48,0,2.74,2.74,0,0,0-5.48,0c0,4.06,5.46,7.17,5.48,7.18S15.75,25.11,15.75,21Z"/><path class="cls-2" d="M85.11,117.9a2.74,2.74,0,0,0,5.48,0,2.74,2.74,0,0,0,5.48,0c0-4.06-5.46-7.17-5.48-7.18S85.11,113.84,85.11,117.9Z"/><path class="cls-2" d="M39,20.65a5.76,5.76,0,0,0-11.51,0,5.76,5.76,0,0,0-11.51,0c0,8.52,11.46,15.05,11.51,15.08S39,29.18,39,20.65Z"/><path class="cls-2" d="M39,50.65a5.76,5.76,0,0,0-11.51,0,5.76,5.76,0,0,0-11.51,0c0,8.52,11.46,15.05,11.51,15.08S39,59.18,39,50.65Z"/><path class="cls-2" d="M39,80.65a5.76,5.76,0,0,0-11.51,0,5.76,5.76,0,0,0-11.51,0c0,8.52,11.46,15.05,11.51,15.08S39,89.18,39,80.65Z"/><path class="cls-2" d="M39,110.65a5.76,5.76,0,0,0-11.51,0,5.76,5.76,0,0,0-11.51,0c0,8.52,11.46,15.05,11.51,15.08S39,119.18,39,110.65Z"/><path class="cls-2" d="M84,20.65a5.76,5.76,0,0,0-11.51,0,5.76,5.76,0,0,0-11.51,0c0,8.52,11.46,15.05,11.51,15.08S84,29.18,84,20.65Z"/><path class="cls-2" d="M84,50.65a5.76,5.76,0,0,0-11.51,0,5.76,5.76,0,0,0-11.51,0c0,8.52,11.46,15.05,11.51,15.08S84,59.18,84,50.65Z"/><path class="cls-2" d="M84,80.65a5.76,5.76,0,0,0-11.51,0,5.76,5.76,0,0,0-11.51,0c0,8.52,11.46,15.05,11.51,15.08S84,89.18,84,80.65Z"/><path class="cls-2" d="M84,110.65a5.76,5.76,0,0,0-11.51,0,5.76,5.76,0,0,0-11.51,0c0,8.52,11.46,15.05,11.51,15.08S84,119.18,84,110.65Z"/><path class="cls-2" d="M62,34.65a5.76,5.76,0,0,0-11.51,0,5.76,5.76,0,0,0-11.51,0c0,8.52,11.46,15.05,11.51,15.08S62,43.18,62,34.65Z"/></g></svg>