<svg xmlns="http://www.w3.org/2000/svg" viewBox="0 0 101.07 140"><defs><style>.cls-1{fill:#fff;}.cls-2{fill:#231f20;}</style></defs><title>Монтажная область 23</title><g id="cards"><path class="cls-1" d="M98,0S68.82.79,50.53.79,3,0,3,0A2.94,2.94,0,0,0,0,3V135.9A3.17,3.17,0,0,0,3,139s29.21,1,47.5,1S98,139,98,139a3.17,3.17,0,0,0,3-3.13V3A2.94,2.94,0,0,0,98,0Z"/><path class="cls-2" d="M9.93,13.17a1.75,1.75,0,0,0,1.54-1,5.8,5.8,0,0,0,.66-2.71,3.89,3.89,0,0,1-1.05,1,2.31,2.31,0,0,1-1.18.29A2.38,2.38,0,0,1,8,9.87a3.51,3.51,0,0,1-.75-2.32,3.72,3.72,0,0,1,.82-2.47,2.57,2.57,0,0,1,2.05-1,2.61,2.61,0,0,1,1.44.43,2.67,2.67,0,0,1,1,1.15,8.12,8.12,0,0,1,.64,3.39,6.64,6.64,0,0,1-.91,3.66A2.73,2.73,0,0,1,9.9,14.15a2.2,2.2,0,0,1-1.57-.59,2,2,0,0,1-.63-1.48q0-1,.73-1a.62.62,0,0,1,.48.21.78.78,0,0,1,.19.54.74.74,0,0,1-.33.62A1.21,1.21,0,0,0,9.93,13.17Zm.15-3.44a1.62,1.62,0,0,0,1.3-.61,2.32,2.32,0,0,0,.52-1.54,2.78,2.78,0,0,0-.52-1.72,1.56,1.56,0,0,0-1.29-.69,1.53,1.53,0,0,0-1.27.67,2.74,2.74,0,0,0-.5,1.69,2.5,2.5,0,0,0,.49,1.6A1.56,1.56,0,0,0,10.07,9.74Z"/><path class="cls-2" d="M12.75,25.92a2.49,2.49,0,0,0,2.49-2.49c0-3.69-5-6.51-5-6.52s-5,2.84-5,6.52a2.49,2.49,0,0,0,4.77,1c-.77,3.58-3.4,4.15-3.4,4.15h7.22s-2.64-.58-3.4-4.15A2.49,2.49,0,0,0,12.75,25.92Z"/><path class="cls-2" d="M90.93,125.77a1.75,1.75,0,0,0-1.54,1,5.8,5.8,0,0,0-.66,2.71,3.89,3.89,0,0,1,1.05-1,2.31,2.31,0,0,1,1.18-.29,2.38,2.38,0,0,1,1.92.9,3.51,3.51,0,0,1,.75,2.32,3.72,3.72,0,0,1-.82,2.47,2.57,2.57,0,0,1-2.05,1,2.61,2.61,0,0,1-1.44-.43,2.67,2.67,0,0,1-1-1.15,8.12,8.12,0,0,1-.64-3.39,6.64,6.64,0,0,1,.91-3.66A2.73,2.73,0,0,1,91,124.8a2.2,2.2,0,0,1,1.57.59,2,2,0,0,1,.63,1.48q0,1-.73,1a.62.62,0,0,1-.48-.21.78.78,0,0,1-.19-.54.74.74,0,0,1,.33-.62A1.21,1.21,0,0,0,90.93,125.77Zm-.15,3.44a1.62,1.62,0,0,0-1.3.61,2.32,2.32,0,0,0-.52,1.54,2.78,2.78,0,0,0,.52,1.72,1.56,1.56,0,0,0,1.29.69,1.53,1.53,0,0,0,1.27-.66,2.74,2.74,0,0,0,.5-1.69,2.5,2.5,0,0,0-.49-1.6A1.56,1.56,0,0,0,90.78,129.21Z"/><path class="cls-2" d="M88.11,113a2.49,2.49,0,0,0-2.49,2.49c0,3.69,5,6.51,5,6.52s5-2.84,5-6.52a2.49,2.49,0,0,0-4.77-1c.77-3.58,3.4-4.15,3.4-4.15H87s2.63.57,3.4,4.15A2.49,2.49,0,0,0,88.11,113Z"/><path class="cls-2" d="M32.75,31.83A5.23,5.23,0,0,0,38,26.6c0-7.74-10.41-13.67-10.45-13.7s-10.46,6-10.46,13.7a5.23,5.23,0,0,0,10,2.09c-1.61,7.51-7.15,8.72-7.15,8.72H35.11S29.57,36.21,28,28.69A5.23,5.23,0,0,0,32.75,31.83Z"/><path class="cls-2" d="M32.75,61.83A5.23,5.23,0,0,0,38,56.6c0-7.74-10.41-13.67-10.45-13.7s-10.46,6-10.46,13.7a5.23,5.23,0,0,0,10,2.09c-1.61,7.51-7.15,8.72-7.15,8.72H35.11S29.57,66.21,28,58.69A5.23,5.23,0,0,0,32.75,61.83Z"/><path class="cls-2" d="M32.75,91.83A5.23,5.23,0,0,0,38,86.6c0-7.74-10.41-13.67-10.45-13.7s-10.46,6-10.46,13.7a5.23,5.23,0,0,0,10,2.09c-1.61,7.51-7.15,8.72-7.15,8.72H35.11S29.57,96.21,28,88.69A5.23,5.23,0,0,0,32.75,91.83Z"/><path class="cls-2" d="M32.75,121.83A5.23,5.23,0,0,0,38,116.6c0-7.74-10.41-13.67-10.45-13.7s-10.46,6-10.46,13.7a5.23,5.23,0,0,0,10,2.09c-1.61,7.51-7.15,8.72-7.15,8.72H35.11s-5.54-1.21-7.15-8.72A5.23,5.23,0,0,0,32.75,121.83Z"/><path class="cls-2" d="M77.75,31.83A5.23,5.23,0,0,0,83,26.6c0-7.74-10.41-13.67-10.45-13.7s-10.46,6-10.46,13.7a5.23,5.23,0,0,0,10,2.09c-1.61,7.51-7.15,8.72-7.15,8.72H80.11S74.57,36.21,73,28.69A5.23,5.23,0,0,0,77.75,31.83Z"/><path class="cls-2" d="M77.75,61.83A5.23,5.23,0,0,0,83,56.6c0-7.74-10.41-13.67-10.45-13.7s-10.46,6-10.46,13.7a5.23,5.23,0,0,0,10,2.09c-1.61,7.51-7.15,8.72-7.15,8.72H80.11S74.57,66.21,73,58.69A5.23,5.23,0,0,0,77.75,61.83Z"/><path class="cls-2" d="M77.75,91.83A5.23,5.23,0,0,0,83,86.6c0-7.74-10.41-13.67-10.45-13.7s-10.46,6-10.46,13.7a5.23,5.23,0,0,0,10,2.09c-1.61,7.51-7.15,8.72-7.15,8.72H80.11S74.57,96.21,73,88.69A5.23,5.23,0,0,0,77.75,91.83Z"/><path class="cls-2" d="M77.75,121.83A5.23,5.23,0,0,0,83,116.6c0-7.74-10.41-13.67-10.45-13.7s-10.46,6-10.46,13.7a5.23,5.23,0,0,0,10,2.09c-1.61,7.51-7.15,8.72-7.15,8.72H80.11s-5.54-1.21-7.15-8.72A5.23,5.23,0,0,0,77.75,121.83Z"/><path class="cls-2" d="M55.66,45.83a5.23,5.23,0,0,0,5.23-5.23c0-7.74-10.41-13.67-10.45-13.7S40,32.86,40,40.6a5.23,5.23,0,0,0,10,2.09c-1.61,7.51-7.15,8.72-7.15,8.72H58s-5.54-1.21-7.15-8.72A5.23,5.23,0,0,0,55.66,45.83Z"/></g></svg>