<svg xmlns="http://www.w3.org/2000/svg" viewBox="0 0 101.07 140"><defs><style>.cls-1{fill:#fff;}.cls-2,.cls-3{fill:#c4161c;}.cls-3,.cls-4{fill-rule:evenodd;}.cls-4{fill:#231f20;}</style></defs><title>Монтажная область 50</title><g id="cards"><path class="cls-1" d="M98,0S68.83.79,50.53.79,3,0,3,0A2.94,2.94,0,0,0,0,3V135.9A3.17,3.17,0,0,0,3,139s29.21,1,47.5,1S98,139,98,139a3.17,3.17,0,0,0,3-3.13V3A2.94,2.94,0,0,0,98,0Z"/><path class="cls-2" d="M8.4,10.5a.78.78,0,0,1,.14-.44A1.13,1.13,0,0,0,8,11.19a2,2,0,0,0,.43,1.35A1.41,1.41,0,0,0,9.52,13a1.6,1.6,0,0,0,.94-.3,1.69,1.69,0,0,0,.62-.8,3.4,3.4,0,0,0,.22-.87q0-.42,0-1.71v-3q-.07-1.1-.42-1.1a.94.94,0,0,0-.24,0,.94.94,0,0,1-.24,0,.45.45,0,0,1-.34-.15A.5.5,0,0,1,10,4.8a.57.57,0,0,1,.16-.4.52.52,0,0,1,.39-.17,3.86,3.86,0,0,1,.65.08,3.88,3.88,0,0,0,.66.08,4.58,4.58,0,0,0,.73-.08,4.51,4.51,0,0,1,.67-.08.52.52,0,0,1,.39.17.57.57,0,0,1,.16.4.5.5,0,0,1-.14.35.45.45,0,0,1-.34.15l-.2,0a1.08,1.08,0,0,0-.28,0q-.35,0-.42,1.1v4.06a4.23,4.23,0,0,1-.82,2.81,2.6,2.6,0,0,1-2.07,1,2.29,2.29,0,0,1-1.82-.82,3.1,3.1,0,0,1-.7-2.1,2.55,2.55,0,0,1,.45-1.55,1.36,1.36,0,0,1,1.13-.61,1,1,0,0,1,.78.34,1.21,1.21,0,0,1,.32.86,1,1,0,0,1-.19.64.59.59,0,0,1-.49.25Q8.4,11.16,8.4,10.5Z"/><path class="cls-2" d="M92.46,128.44a.78.78,0,0,1-.14.44,1.13,1.13,0,0,0,.58-1.12,2,2,0,0,0-.43-1.35,1.41,1.41,0,0,0-1.13-.51,1.6,1.6,0,0,0-.94.3,1.69,1.69,0,0,0-.62.8,3.4,3.4,0,0,0-.22.87q0,.42,0,1.71v3q.07,1.1.42,1.1a.94.94,0,0,0,.24,0,.94.94,0,0,1,.24,0,.45.45,0,0,1,.34.15.5.5,0,0,1,.14.35.57.57,0,0,1-.16.4.52.52,0,0,1-.39.17,3.85,3.85,0,0,1-.65-.08,3.87,3.87,0,0,0-.66-.08,4.58,4.58,0,0,0-.73.08,4.49,4.49,0,0,1-.67.08.52.52,0,0,1-.39-.17.57.57,0,0,1-.16-.4.5.5,0,0,1,.14-.35.45.45,0,0,1,.34-.15l.2,0a1.08,1.08,0,0,0,.28,0q.35,0,.42-1.1v-4.06a4.23,4.23,0,0,1,.82-2.81,2.6,2.6,0,0,1,2.07-1,2.29,2.29,0,0,1,1.82.82,3.1,3.1,0,0,1,.7,2.1,2.55,2.55,0,0,1-.45,1.55,1.36,1.36,0,0,1-1.13.61,1,1,0,0,1-.78-.34,1.21,1.21,0,0,1-.32-.86,1,1,0,0,1,.19-.64.59.59,0,0,1,.49-.25Q92.46,127.79,92.46,128.44Z"/><path class="cls-2" d="M15.75,21a2.74,2.74,0,0,0-5.48,0,2.74,2.74,0,0,0-5.48,0c0,4.06,5.46,7.17,5.48,7.18S15.75,25.11,15.75,21Z"/><path class="cls-2" d="M85.11,117.9a2.74,2.74,0,0,0,5.48,0,2.74,2.74,0,0,0,5.48,0c0-4.06-5.46-7.17-5.48-7.18S85.11,113.84,85.11,117.9Z"/><path class="cls-3" d="M39.92,14.42q1.14,2.15,2.37,4.21a19.29,19.29,0,0,1,5.13-.39c-.21-1.46-.92-2.42-1.18-3.82h1.71a36.05,36.05,0,0,0,1.18,3.69,31.55,31.55,0,0,1,6.06.39c.74-1.1.93-2.76,1.45-4.08h1.84c-.47,1.37-.75,2.94-1.18,4.34,1.68.47,3.53.77,5.13,1.32,1.54-1.58,2.46-3.77,3.69-5.66h1.71c-1.43,2.3-2.69,4.77-4.21,7a57,57,0,0,0-17.64-2c-1.13.06-2.6.6-3.29.39s-1.59-2-2-2.63c-.62-.92-1.23-1.76-1.84-2.63C39,14.25,39.6,14.5,39.92,14.42Z"/><path class="cls-3" d="M41.37,14.42h3.29A20.14,20.14,0,0,1,45.71,17a20.5,20.5,0,0,1-2.9.26Z"/><path class="cls-3" d="M49.4,14.42h5.79a10.17,10.17,0,0,1-.79,2.76c-1.43-.06-2.81-.18-4.21-.26A16.67,16.67,0,0,0,49.4,14.42Z"/><path class="cls-3" d="M59.8,14.42h4.48a38.43,38.43,0,0,1-2.37,4.34c-.88-.48-2.12-.6-3-1.05C59.08,16.51,59.55,15.58,59.8,14.42Z"/><path class="cls-3" d="M79.28,19.95c.15,0,.23,0,.26.13A7.45,7.45,0,0,1,77,22.45C77.47,21.3,78.53,20.77,79.28,19.95Z"/><path class="cls-3" d="M79.54,21.13c-.48,1.19-1.59,1.74-2.5,2.5A4.63,4.63,0,0,1,79.54,21.13Z"/><path class="cls-3" d="M76.25,21.53c-.08.57.17,1.49-.13,1.84C76.21,22.8,75.95,21.88,76.25,21.53Z"/><path class="cls-3" d="M79.54,22.32A6.48,6.48,0,0,1,77,24.69,4.63,4.63,0,0,1,79.54,22.32Z"/><path class="cls-3" d="M79.54,23.37a6.28,6.28,0,0,1-2.5,2.5A5.07,5.07,0,0,1,79.54,23.37Z"/><path class="cls-3" d="M79.54,24.55C79,25.72,78,26.29,77,27.05A4.53,4.53,0,0,1,79.54,24.55Z"/><path class="cls-3" d="M79.54,25.74A6.67,6.67,0,0,1,77,28.11,4.49,4.49,0,0,1,79.54,25.74Z"/><path class="cls-3" d="M71.25,25.87h3.82A11.14,11.14,0,0,1,71.25,25.87Z"/><path class="cls-3" d="M79.54,26.79C79.07,28,78,28.56,77,29.29A5,5,0,0,1,79.54,26.79Z"/><path class="cls-3" d="M70.86,26.79h4.48A15.31,15.31,0,0,1,70.86,26.79Z"/><path class="cls-3" d="M71.12,27.84h2.5A4.84,4.84,0,0,1,71.12,27.84Z"/><path class="cls-3" d="M79.54,28a7.58,7.58,0,0,1-2.5,2.5A4.53,4.53,0,0,1,79.54,28Z"/><path class="cls-4" d="M44.79,29.16c.67-.46.75.93.53,1.45a1.78,1.78,0,0,1-2.37-.39c-.49-.14-.21.49-.66.39a1,1,0,0,1,.13-1.18c1.27-.22,1.27.83,2.11,1.05.45.06.4-.39.66-.53C45.08,29.66,45.11,29.24,44.79,29.16Z"/><path class="cls-3" d="M79.54,29.16A6.81,6.81,0,0,1,77,31.53,4.42,4.42,0,0,1,79.54,29.16Z"/><path class="cls-3" d="M79.54,30.21C79.07,31.41,78,32,77,32.72A4.85,4.85,0,0,1,79.54,30.21Z"/><path class="cls-4" d="M44.39,32.58c.32-2.65,3.87,1.59,4.34-.26a.82.82,0,0,0-.66-1.05c.45-.6,1.15.36,1.18.79C49.49,34.59,45.68,32.4,44.39,32.58Z"/><path class="cls-3" d="M79.54,31.4c-.47,1.16-1.63,1.62-2.37,2.5C77.08,32.8,78.83,31.7,79.54,31.4Z"/><path class="cls-3" d="M79.54,32.58A7.16,7.16,0,0,1,77,35,4.35,4.35,0,0,1,79.54,32.58Z"/><path class="cls-3" d="M76.12,32.85v1.71A2.31,2.31,0,0,1,76.12,32.85Z"/><path class="cls-3" d="M79.54,33.64c-.47,1.19-1.58,1.75-2.5,2.5A4.74,4.74,0,0,1,79.54,33.64Z"/><path class="cls-3" d="M79.54,34.82c-.48,1.14-1.64,1.61-2.37,2.5C77.09,36.23,78.81,35.1,79.54,34.82Z"/><path class="cls-3" d="M76.12,35.35C76,36,76.29,37,76,37.45,76.08,36.79,75.82,35.79,76.12,35.35Z"/><path class="cls-3" d="M79.54,36A7.44,7.44,0,0,1,77,38.38,4.23,4.23,0,0,1,79.54,36Z"/><path class="cls-3" d="M79.54,37.06c-.48,1.19-1.59,1.74-2.5,2.5A4.63,4.63,0,0,1,79.54,37.06Z"/><path class="cls-3" d="M79.54,38.24c-.48,1.14-1.65,1.6-2.37,2.5C77.09,39.65,78.81,38.52,79.54,38.24Z"/><path class="cls-3" d="M76,38.64a2.31,2.31,0,0,1,0,1.71Z"/><path class="cls-3" d="M64.67,38.77c.35.31.79.52.92,1.05q-7,10.87-13.69,22c-.17-.18-.57-.13-.92-.13C54.66,55.61,58.37,49.58,62,43.51c-1.1-.39-3.11.13-4.21-.26A26.16,26.16,0,0,0,62,43.12,13,13,0,0,0,64.54,39C64.64,39,64.69,38.92,64.67,38.77Z"/><path class="cls-3" d="M79.54,39.3A6.29,6.29,0,0,1,77,41.8,5.07,5.07,0,0,1,79.54,39.3Z"/><path class="cls-3" d="M79.54,40.48C79,41.65,78,42.22,77,43A4.63,4.63,0,0,1,79.54,40.48Z"/><path class="cls-3" d="M79.54,41.67A6.49,6.49,0,0,1,77,44,4.49,4.49,0,0,1,79.54,41.67Z"/><path class="cls-3" d="M79.54,42.72A4.43,4.43,0,0,1,77.17,45,5.17,5.17,0,0,1,79.54,42.72Z"/><path class="cls-3" d="M46,43.25H57.56A102.08,102.08,0,0,1,46,43.25Z"/><path class="cls-3" d="M79.54,43.91c-.27.76-1,1.68-1.71,1.58C77.79,44.94,79.07,43.94,79.54,43.91Z"/><path class="cls-3" d="M79.54,45.09c0,.57-.59,1.18-1.05.92C78.64,45.58,79.19,44.87,79.54,45.09Z"/><path class="cls-3" d="M69,72.73a28,28,0,0,0-.39-16.19,26.94,26.94,0,0,0-1.32-2.76,15.37,15.37,0,0,1-1.45-2.63c0-1.38,2.07-2.56,2.11-3.82,3,2.1,5.94,6.89,7.11,11.72.33,1.34,1,4.22.66,5.4-.25.89-3,3-3.69,3.82A20,20,0,0,0,69,72.73Z"/><path class="cls-3" d="M29.78,48.51c-.08.49.17,1.31-.13,1.58C29.73,49.61,29.48,48.78,29.78,48.51Z"/><path class="cls-3" d="M27.68,50.22c.87,3.74-2.31,6.33-6.19,6.58A52.32,52.32,0,0,1,27.68,50.22Z"/><path class="cls-3" d="M35.71,52.46c.44,1.23,1.56,2.63,1.45,3.82-.16,1.7-2.85,2.69-3,4.48C34.51,58.37,35.53,55.49,35.71,52.46Z"/><path class="cls-3" d="M27.41,54.17c.22,1.1-.49,2.41-.79,3.42-1.55.34-4.19,1.22-5.27-.13A8.24,8.24,0,0,0,27.41,54.17Z"/><path class="cls-3" d="M26.1,58.12c.5.48-.59,1.58-.79,2.24-1.79-.19-3.56-.39-3.95-2A7.61,7.61,0,0,0,26.1,58.12Z"/><path class="cls-3" d="M57,59.31c.27-.3,1.09,0,1.58-.13C58.34,59.48,57.52,59.22,57,59.31Z"/><path class="cls-3" d="M21.36,59.7a11,11,0,0,0,3.55,1.19,4.91,4.91,0,0,1-1.05,1.58C22.75,61.82,21.47,61.34,21.36,59.7Z"/><path class="cls-3" d="M21.36,61.41c.83.36,1.26,1.11,2.11,1.45a1.9,1.9,0,0,1-1.18,1.32A2.77,2.77,0,0,1,21.36,61.41Z"/><path class="cls-3" d="M21.36,64c.39,0,.49.3.66.53a.72.72,0,0,1-.66.66Z"/><path class="cls-3" d="M66,64.7A1.4,1.4,0,0,1,66,66Z"/><path class="cls-3" d="M31.89,65.23c-2.22,7-.67,17,3.16,21.46-.5,1.52-1.58,2.46-2.11,3.95-4.51-3.82-7.44-9.23-7.77-17.25C27.71,71,30.22,68.52,31.89,65.23Z"/><path class="cls-4" d="M46.9,67.6a1.1,1.1,0,0,1,1.45,1.05c.25,1.87-2.63,2.42-2.5.13A1.16,1.16,0,0,1,46.9,67.6ZM47.16,70c1.15-.08,1-2.63-.39-2C45.92,68.4,46.16,70,47.16,70Z"/><path class="cls-4" d="M54.93,68c1,2.71-2.54,2.85-2.24.66A1.26,1.26,0,0,1,54.93,68Zm-1.05,2c1.24,0,1.17-2.52-.26-2C52.69,68.34,52.91,69.94,53.87,70Z"/><path class="cls-3" d="M46.76,68c1.36-.66,1.54,1.9.39,2S45.92,68.4,46.76,68Z"/><path class="cls-3" d="M53.61,68c1.44-.54,1.51,2,.26,2C52.91,69.94,52.69,68.34,53.61,68Z"/><path class="cls-3" d="M35.31,72.08v1.58A2,2,0,0,1,35.31,72.08Z"/><path class="cls-3" d="M79.28,72.73c.53-.05.15.82.26,1.19-.39,0-.49-.3-.66-.53C78.82,73,79.24,73,79.28,72.73Z"/><path class="cls-3" d="M78.36,73.66a2.55,2.55,0,0,1,1.18,2.9c-.83-.36-1.19-1.18-2.11-1.45C77.5,74.38,78.08,74.17,78.36,73.66Z"/><path class="cls-3" d="M76.91,75.37c1.15.65,2.45,1.15,2.63,2.76C78.67,78,77.49,77,76,77.08,76.12,76.34,76.73,76.07,76.91,75.37Z"/><path class="cls-3" d="M79.54,79.45a12.21,12.21,0,0,0-5,.26,9.38,9.38,0,0,1,1.05-2.11C77,77.62,79.21,77.94,79.54,79.45Z"/><path class="cls-3" d="M79.54,80.5c-2.95,0-4.78,1.89-6.19,3a20.9,20.9,0,0,1,.79-3C75.36,79.9,78.61,79,79.54,80.5Z"/><path class="cls-3" d="M79.41,81A34.48,34.48,0,0,1,73,87.74C72.74,83.13,75.66,81.67,79.41,81Z"/><path class="cls-3" d="M71.64,87.74v1.19C71.48,89.3,71.39,87.79,71.64,87.74Z"/><path class="cls-3" d="M21.75,91.3c0,.34,0,.57-.4.53C21.32,91.48,21.41,91.26,21.75,91.3Z"/><path class="cls-3" d="M22.41,92A1.69,1.69,0,0,1,21.36,93C21.33,92.32,21.93,91.71,22.41,92Z"/><path class="cls-3" d="M23.07,92.61c-.49.5-1.1,1.5-1.71,1.45C21.59,93.37,22.52,92.14,23.07,92.61Z"/><path class="cls-3" d="M23.73,93a6,6,0,0,1-2.37,2.24A4.13,4.13,0,0,1,23.73,93Z"/><path class="cls-3" d="M23.73,93.8c.06,1.2-1.51,1.91-2.37,2.63C21.67,95.08,23,94.75,23.73,93.8Z"/><path class="cls-3" d="M23.86,95.11a5.48,5.48,0,0,1-2.5,2.37A5,5,0,0,1,23.86,95.11Z"/><path class="cls-3" d="M24.91,95.51a26.15,26.15,0,0,1-.13,4.21A26.17,26.17,0,0,1,24.91,95.51Z"/><path class="cls-3" d="M23.73,96c0,1.19-1.45,2-2.37,2.63C21.76,97.4,23,97,23.73,96Z"/><path class="cls-3" d="M23.86,97.35c-.47,1.2-1.57,1.77-2.5,2.5A4.85,4.85,0,0,1,23.86,97.35Z"/><path class="cls-3" d="M23.86,98.54a5.67,5.67,0,0,1-2.5,2.37A4.9,4.9,0,0,1,23.86,98.54Z"/><path class="cls-3" d="M36.36,99.2c5.92.09,12.2-.18,17.9.13C48.34,99.24,42.07,99.5,36.36,99.2Z"/><path class="cls-3" d="M23.73,99.46c.13,0,.1.16.13.26a8,8,0,0,1-2.5,2.37C21.67,100.74,23,100.45,23.73,99.46Z"/><path class="cls-3" d="M23.86,100.78a5.64,5.64,0,0,1-2.5,2.37A5,5,0,0,1,23.86,100.78Z"/><path class="cls-3" d="M23.73,101.7c0,1.19-1.45,2-2.37,2.63C21.75,103.05,23,102.64,23.73,101.7Z"/><path class="cls-3" d="M23.86,103c-.47,1.19-1.58,1.75-2.5,2.5A4.85,4.85,0,0,1,23.86,103Z"/><path class="cls-3" d="M23.86,104.2a5.85,5.85,0,0,1-2.5,2.37A4.9,4.9,0,0,1,23.86,104.2Z"/><path class="cls-4" d="M56.51,105.38c-.85,2.43-3.29-1.55-4.34.26-.24.73.8.86.53,1.19a1,1,0,0,1-.92-.66c-.67-2.23,2.59-1.79,3.55-.79C55.9,105.38,56.13,104.9,56.51,105.38Z"/><path class="cls-3" d="M23.73,105.12c0,1.18-1.46,2-2.37,2.63C21.75,106.47,23,106.06,23.73,105.12Z"/><path class="cls-3" d="M23.86,106.44c-.48,1.19-1.59,1.74-2.5,2.5A4.85,4.85,0,0,1,23.86,106.44Z"/><path class="cls-4" d="M58.74,107.49a.88.88,0,0,1-.53,1.05c-.95,0-1.18-.75-1.71-1.19a.79.79,0,0,0-.4,1.45c-1.89-.46.72-3.07,1.71-1.19C58.33,107.75,58.37,107.11,58.74,107.49Z"/><path class="cls-3" d="M23.86,107.62a6.09,6.09,0,0,1-2.5,2.37A4.78,4.78,0,0,1,23.86,107.62Z"/><path class="cls-3" d="M27.81,107.62c.49.08,1.31-.17,1.58.13C28.9,107.67,28.08,107.92,27.81,107.62Z"/><path class="cls-3" d="M45.45,108.28a1.68,1.68,0,0,1,0,1.45Z"/><path class="cls-3" d="M23.73,108.54c0,1.19-1.49,1.93-2.37,2.63C21.71,109.86,23,109.49,23.73,108.54Z"/><path class="cls-4" d="M53.21,109.33c1.71-.53,1.76,1.75,3.42,1.71.06.63-.67.47-.66,1.05,0,.85.79.88.79,1.71-.78-.4-1.21.45-2,.53a4.21,4.21,0,0,1-3.69-2.11c1,.73,2.72,2.16,4.21,1.18-2.12.3-3.46-1.15-4.48-2.37a1.84,1.84,0,0,1,1.45.39c.84-.22,1.25-.86,2.5-.66C54.61,110,53.8,109.76,53.21,109.33Zm-.13,2.37a2.51,2.51,0,0,0,.79.53,2.62,2.62,0,0,0,.53-1.05C53.74,111.13,53.18,111.18,53.08,111.7Zm1.19.66c.46,0,.91-.66.53-1.05C54.63,111.66,54.21,111.78,54.27,112.36Z"/><path class="cls-3" d="M23.86,109.86c-.48,1.19-1.59,1.74-2.5,2.5A4.63,4.63,0,0,1,23.86,109.86Z"/><path class="cls-3" d="M23.86,111a6.09,6.09,0,0,1-2.5,2.37A4.68,4.68,0,0,1,23.86,111Z"/><path class="cls-3" d="M23.73,112c.06,1.2-1.51,1.91-2.37,2.63C21.7,113.27,23,112.91,23.73,112Z"/><path class="cls-4" d="M50.71,113a7.12,7.12,0,0,0,6.19,1.71c.17.32.48.48.39,1.05C54.73,115.77,51.42,115.6,50.71,113Z"/><path class="cls-3" d="M23.86,113.28c-.5,1.17-1.59,1.74-2.5,2.5A4.63,4.63,0,0,1,23.86,113.28Z"/><path class="cls-3" d="M23.73,114.2c.06,1.2-1.44,2-2.37,2.63C21.76,115.57,23,115.16,23.73,114.2Z"/><path class="cls-3" d="M23.73,115.39c0,1.17-1.57,1.85-2.37,2.63C21.67,116.67,23,116.34,23.73,115.39Z"/><path class="cls-3" d="M60.85,123.42c-.6-1.55-1.55-2.75-2.24-4.21a16.68,16.68,0,0,1-5.13.53c.34,1.32.89,2.44,1.32,3.69v.13c-.6-.06-1.45.13-1.84-.13-.29-1.34-.8-2.44-1.18-3.69a19.27,19.27,0,0,1-6.06-.39c-.74,1.1-.93,2.76-1.45,4.08a2.79,2.79,0,0,1-1.84,0c.47-1.33.71-2.88,1.19-4.21-1.66-.58-3.68-.8-5.27-1.45a47.72,47.72,0,0,0-3.42,5.66c-.35.26-1.15.08-1.71.13,1.09-2.6,2.75-4.63,3.95-7.11,5.8,1.7,14.07,2.84,21.19,1.58,1.23,1.84,2.58,3.56,3.69,5.53C61.62,123.52,61.07,123.64,60.85,123.42Z"/><path class="cls-3" d="M41.1,123.42a15.36,15.36,0,0,1-4.48,0,33.62,33.62,0,0,1,2.5-4.34c.64.67,2,.67,2.9,1.05C41.84,121.34,41.32,122.23,41.1,123.42Z"/><path class="cls-3" d="M59.53,123.55H56.24c-.25-1-.87-1.68-1.05-2.76a27.84,27.84,0,0,0,2.9-.26C58.55,121.55,59.14,122.45,59.53,123.55Z"/><path class="cls-3" d="M51.37,123.42a24.44,24.44,0,0,1-5.66,0,7.81,7.81,0,0,1,.92-2.76,22.84,22.84,0,0,0,3.95.26A9.15,9.15,0,0,1,51.37,123.42Z"/><path class="cls-4" d="M43.61,22.18c3.05-.27,5.71.48,6.71,2.63-.91-.2-1.86-1.52-3.42-1.71C45.7,23,43.63,23.93,43.61,22.18Z"/><path class="cls-3" d="M71.12,23.24c.12-.49,1.06-.17,1.58-.26C72.44,23.33,71.39,22.89,71.12,23.24Z"/><path class="cls-4" d="M45.58,24.42c2.16-.32,3.22,1.36,4.61,2.24-.36.64-1.3,0-1.58-.26a3.78,3.78,0,0,1-2.5.79c0,.46,1,1.06,1.58,1.32-1.75.6-1.75-1.68-3.42-1.58-.11-.73.72-.51.66-1.19s-.82-.85-.79-1.71a.58.58,0,0,1,.53.26c1.71-1.48,4.43-.06,5.27,1.32C49,25.34,47.35,23.44,45.58,24.42ZM46,26.53c.47-.06.63-.42.66-.92C46,25.54,46,26,46,26.53Zm.66.26a1.69,1.69,0,0,0,1.18-.4c-.06-.47-.42-.63-.92-.66C46.92,26.2,46.34,26.46,46.63,26.79Z"/><path class="cls-4" d="M20.3,13.23H80.73V124.6c-19.88.22-40.68.22-60.56,0v-111C20.16,13.44,20.15,13.25,20.3,13.23Zm2.37,40.68c-1.11-.47-.22-2-.4-2.9-.13-.66-.85-.75-.79-1.32.67-.86.19-1,.13-2.24.62-.59.63-1,.53-2.24.64-.37.82-1.2,1.18-1.84a2.85,2.85,0,0,1,1.19-.13c.53-.73.5-1.39.92-2,1.88-2.57,7.35-1.35,9.35-3.29-.1,2.43-.85,3.74-2.5,4.61-2,1-5.12.19-6.45,2.11,2.57-.24,3,1.63,3.55,3.42a78,78,0,0,1,11.32-8.29c-.58-2.93,1.88-4,3.69-3,0-1.23-1.43-1.34-.79-2.76-.2-.24-.9,0-.79-.53,0-.61.26-.88.26-1.45-.73-.85-2.24-.94-2.37-2.11-.16-1.49,2.39-3.25,2.37-5.4,0-1.17-1-1.5-.66-3-1.62-2.38-3.25-4.74-4.87-7.11H21.36V55.88c.87-.86,2.29-1.81,2.37-3C23.21,53,23.59,54.13,22.67,53.91ZM66.12,14.42H39.92c-.32.08-1-.17-1.05.13.61.87,1.23,1.71,1.84,2.63.39.58,1.2,2.41,2,2.63s2.16-.33,3.29-.39a57,57,0,0,1,17.64,2c1.52-2.21,2.78-4.68,4.21-7Zm3.29,0c-.8,1.17-1.82,2.68-2.9,4.48-.82,1.37-2.27,3.38-2.37,4.34a12.92,12.92,0,0,0,.53,2.9c.61,3.05,1.1,5.89,2.24,8.16,3.36-1.9,6,2.39,3.95,5.13a40.28,40.28,0,0,0,4.61,3.82V28.9c-1.7.71-2.88,3.08-2.63,6.19-4.65-2.61-5.58-13.79-.92-17.11.12,3.21,1.31,5.36,3.69,6.32v-2.9c1.2-1.34,2.67-2.42,3.95-3.69V14.42ZM76,40.35c.41.74-.62,3.22.53,3.82V21.92c.68-1.21,2.61-1.86,2.76-3.16-1,.94-2,1.84-3,2.76-.3.36,0,1.27-.13,1.84,0,2.66,0,6.39,0,9.48a2.31,2.31,0,0,0,0,1.71v.79c-.3.44,0,1.45-.13,2.11a1.26,1.26,0,0,1,0,1.19ZM72.43,34c.11-1.4-1.11-2.37-1.58-3.69a12.49,12.49,0,0,1,.92-10.27c-.28-.24-.08-1-.4-1.19C68.23,22.35,68.68,31.62,72.43,34ZM77,22.45a7.45,7.45,0,0,0,2.5-2.37c0-.1-.11-.15-.26-.13C78.53,20.77,77.47,21.3,77,22.45Zm-34.1-.92c-.5,1.43.76,2,.79,3,.05,1.93-2.32,3.26-2.37,5.53.58.65,1.57.89,2.11,1.58.07.51-.24.64-.13,1.18,1.15.13,2,1.11,2.76.53a13.22,13.22,0,0,0,.53,1.71C45.74,34.88,45,34,44,34.69c.31.87,1,1.34.79,2.76a2.74,2.74,0,0,0,2.5.66,9.64,9.64,0,0,0,7.11-6.58,1.16,1.16,0,0,1-.79-2.11,1,1,0,0,0,.66,1.45c1.59-2.71.08-7.13-.66-9.61A43.16,43.16,0,0,0,42.95,21.53ZM77,23.63c.91-.76,2-1.32,2.5-2.5A4.63,4.63,0,0,0,77,23.63ZM57.16,37.45c-1.52-3.79-1-10.58-2.24-14.48-.16-.52-.29-1.25-.79-1.45C56.43,26.1,54.3,33.15,57.16,37.45ZM54.93,21.39c1.08,2.33,1.25,5.18,1.45,8.29.18,2.76.26,6,1.84,7.77C56.25,33,57.76,25,54.93,21.39Zm4.21,16.06c-1.57-4.18-.75-12.59-3.29-15.8C58.31,25.92,56.5,33.26,59.14,37.45ZM57,21.79c-.16,0-.3-.23-.39,0,1.79,3,1.65,8.47,2.37,12.24.25,1.29.21,2.95,1.45,3.42C58.41,33.66,59.38,25.72,57,21.79Zm.79.39c1.09,2,1.31,4.93,1.58,7.9s.45,6,2.24,7.37c-2.26-4.27-1.32-11.75-3.95-15.67C57.71,21.94,57.67,22.16,57.82,22.18Zm3.29,12c.28,1.21.47,2.77,1.58,3.29-2.25-4.11-2-10.73-3.82-15.27a.13.13,0,0,0-.26,0C60.18,25.39,60.25,30.5,61.11,34.16Zm2.63,3.29c-2.52-4-2-11-4.21-15.27C61.35,26.86,60.67,34,63.75,37.45Zm9-15c0-.43-1.7-.38-1.19.13C71.87,22.5,72.56,22.75,72.7,22.45ZM77,24.69a6.48,6.48,0,0,0,2.5-2.37A4.63,4.63,0,0,0,77,24.69Zm-9.61,15.4c4.74,1.33,4.87-7.5,0-5.53-.42.54-.49,2.22.53,2.11.27-.3-.5-1.14.13-1.45,3-1.24,3.17,3.5,1.18,4.21A3.43,3.43,0,0,1,66,38.77c-3.6-3-3.51-11.91-5.27-16.32-.16,0-.3-.23-.4,0C62.67,28,61.79,38.5,67.43,40.09Zm-4.08-8c.85,3.18,2.34,7.73,5.53,7,1.51-.36,2-3.92-.53-3.42.47.69,1.13.31,1.32,1.18.5,2.38-2.92,1.58-3.69.79-2.8-2.89-2.61-11.45-4.21-14.88-.17,0-.18-.17-.39-.13C62.48,25,62.44,28.65,63.35,32.06Zm3.16,5.27c.89.82,3.14,1,2.5-.79-.73-.07-.5.82-1.32.66-4-2.55-3.13-9.95-5.27-14.35C63.84,26.49,63.86,34.91,66.51,37.32ZM72.7,23c-.52.09-1.46-.23-1.58.26.44.3,1.45,0,2.11.13C73.26,23,72.95,23,72.7,23ZM66.64,35.48c-.46-2-1.29-3.83-1.71-5.92s-.82-4.21-1.32-6.32c-.16,0-.3-.23-.4,0C64.59,27.08,64.64,32.26,66.64,35.48ZM77,25.87a6.28,6.28,0,0,0,2.5-2.5A5.07,5.07,0,0,0,77,25.87ZM71,24.16a8.32,8.32,0,0,0,3.29,0C73.71,23.78,71.54,23.68,71,24.16ZM77,27.05c.91-.76,2-1.33,2.5-2.5A4.53,4.53,0,0,0,77,27.05Zm-1.58-2.11a31.77,31.77,0,0,0-4.61-.13C71.83,25.34,74.27,25.09,75.46,24.95Zm-.39.92c.21,0,.46,0,.39-.26-1.5.17-3.68-.34-4.74.26h.53A11.14,11.14,0,0,0,75.07,25.87Zm2,2.24a6.67,6.67,0,0,0,2.5-2.37A4.49,4.49,0,0,0,77,28.11Zm-6.19-1.32a15.31,15.31,0,0,0,4.48,0h.13v-.4C74.18,26.59,70.58,26,70.86,26.79ZM77,29.29c.93-.73,2-1.3,2.5-2.5A5,5,0,0,0,77,29.29Zm-5.92-1.45a4.84,4.84,0,0,0,2.5,0c.56-.15,1.71.31,1.84-.26-.33-.47-1.52-.26-2.37-.26s-2.11-.3-2.24.39C70.88,27.82,71,27.87,71.12,27.84ZM77,30.48a7.58,7.58,0,0,0,2.5-2.5A4.53,4.53,0,0,0,77,30.48Zm-2.11-2.11c-1.27.09-2.89-.17-3.95.13C72,28.64,74.16,28.88,74.94,28.37ZM77,31.53a6.81,6.81,0,0,0,2.5-2.37A4.42,4.42,0,0,0,77,31.53Zm-3-2.37H71.25C71.42,29.82,73.83,29.76,74,29.16Zm-2.5,1.05c.48-.09,2.07.23,1.71-.26C72.76,30.43,71.73,29.64,71.51,30.21ZM77,32.72c.92-.75,2-1.31,2.5-2.5A4.85,4.85,0,0,0,77,32.72Zm-4.08-2H71.78C71.63,31.33,73.11,31.33,73,30.74Zm4.21,3.16c.74-.89,1.9-1.35,2.37-2.5C78.83,31.7,77.08,32.8,77.17,33.9ZM54.93,31.53c-.21,2.13.13,4.76,1.32,5.92A29.14,29.14,0,0,1,54.93,31.53ZM77,35a7.16,7.16,0,0,0,2.5-2.37A4.35,4.35,0,0,0,77,35ZM54.27,33.37c-.16,1.36-.06,3.56,1.05,4.08A27.1,27.1,0,0,1,54.27,33.37ZM77,36.14c.92-.75,2-1.31,2.5-2.5A4.74,4.74,0,0,0,77,36.14ZM53.61,34.69c-.69-.1-.55,2.79.66,2.76A21.81,21.81,0,0,1,53.61,34.69Zm23.56,2.63c.73-.89,1.89-1.36,2.37-2.5C78.81,35.1,77.09,36.23,77.17,37.32ZM52.69,35.74c-.52-.34-.59,2,.39,1.71C53,36.87,52.76,36.38,52.69,35.74ZM77,38.38A7.44,7.44,0,0,0,79.54,36,4.23,4.23,0,0,0,77,38.38Zm-25.41-2c-.3.18-.51,1.24.26,1.05C51.91,37,51.94,36.54,51.63,36.4Zm-10.27,3c.06-.43-.17-1.14.26-1.19.2.07.33.2.53.26-.15-1,1.06,0,1.05-.92.35.06.67.49,1.05.13C43.38,35.62,40.1,37.55,41.37,39.43ZM77,39.56c.91-.76,2-1.31,2.5-2.5A4.63,4.63,0,0,0,77,39.56Zm-12.37-.79s0-.13,0-.13c-6.09-.55-15.18.83-20-.53a12.14,12.14,0,0,0-1.71,1.05c7.16-.09,14.65.17,21.59-.13A13,13,0,0,1,62,43.12H48.34c-.58,0-5,0-2.37.13a102.08,102.08,0,0,0,11.58,0h.26c1.1.39,3.11-.13,4.21.26C58.37,49.58,54.66,55.61,51,61.68c-.29.3-.45-.11-.92,0a48.27,48.27,0,0,0-6.45-20c-.39-.71-.67-1.72-1.45-2.11a58.57,58.57,0,0,1,6.58,15.67,20.53,20.53,0,0,1,.92,6.06c-.65-.53-.67-1.15-1.45-1.58-.62-.34-1.61-.16-1.84-1.05-.35-1.35,1.15-2.49,1.32-3.82.35-2.74-1.1-3.33-3.55-4.08-.17-2.58,1.75-5.84-.79-7.11C42,43,39.51,43.85,39.92,41c-.52.27-1.14.44-1.32,1.05.56,1.19.28,1.86,1.32,2.5S43,44.75,43.34,46c.56,2-1.9,3.9-.66,5.79.63,1,2,.5,3.16,1.05,1.64,2.36-1.43,3.46-1.32,5.92-1.17,0-2.37,1-3.16,1.84.93,1.64,3.46.7,3.42-1.19.08,1.55,2.68,1.26,2.76,2.37-.64.15-1.9-.32-2.11.26v.4c.49.39,1.88-.13,2.37.26,0,.77-1.08,1.78-.53,2.24,1.09-.18.7-1.84,1.45-2.37.84.09,2-.17,2.63.13-.21.78-.89,1.71-.79,2.37,1.08-.28.84-1.88,1.58-2.5.79.09,1.93-.17,2.5.13A12,12,0,0,0,53.87,65c1.54.13.78-2,1.71-2.5,1.12-.15,3,.45,3.16-.66H57.69c.29-.4.5-1.42-.4-1.32-.74.21,0,1-.26,1.32H56c-.7-.76-.6-2.92,1.05-2.5.49-.08,1.31.17,1.58-.13h.53c2.9-1-.12-5.35,1.58-7.11,2.34.19,4.13-.26,4.34-2.24.14-1.3-.88-2.78-.53-3.95.44-1.45,1.57-.52,3.42-1.05,1.44-.41,2.13-2.71,1.58-4.34-.53,0-.79.26-1.32.26.85,4.25-4.58,1.87-5.13,4.74-.24,1.22,1,2.83.53,4.21-.35,1.05-1.73.54-2.9.79-3,.65-1.47,4-1.71,6.71-2.12.74-4.38.29-4.87,2.63-.11.53.19,1.3-.13,2H51.9q6.72-11.12,13.69-22C65.46,39.29,65,39.08,64.67,38.77Zm12.51,2c.72-.9,1.89-1.36,2.37-2.5C78.81,38.52,77.09,39.65,77.17,40.75ZM26.62,43.38c2.91-.6,8-.82,7.64-4.74-2.78,1.74-9.13.61-9.08,4.74,1.33-2.41,3.68-3,5.92-2.9.41-.85,1.08.1,1.45-.79.29.57.69-.26,1.05.13C33,42.74,28.75,42,26.62,43.38ZM77,41.8a6.29,6.29,0,0,0,2.5-2.5A5.07,5.07,0,0,0,77,41.8Zm-34-2c.15.2.38.32.4.66a1.77,1.77,0,0,0,1.05-.79C44.08,39.78,43.3,39.52,43.08,39.82Zm4.34-.13c-2-.29-2.44,1-3.29,1.84.13.27.27.52.4.79C45.86,41.82,46.32,40.43,47.42,39.69Zm-.13,1.45c-.59.58-1.44,1-1.18,1.45.82.25.27-.87.79-.92s.87-.08.79.39a21.14,21.14,0,0,0,2.5-2.37C48.44,39.43,48.08,40.35,47.29,41.14Zm2.37.53c.68-.2.65.31,1.05.39.67-.87,1.54-1.54,2.24-2.37C50.91,39.41,50.63,40.88,49.66,41.67Zm6.19-2c-2.13-.33-2.44,1.15-3.42,2,.71-.18.7.36,1.18.39A13.36,13.36,0,0,1,55.85,39.69ZM52.16,41.8c-.11.42-.68.37-.79.79h.79C52,42.21,52.52,41.92,52.16,41.8Zm3.16-.13c.66-.17.56.4,1.05.39a18.09,18.09,0,0,1,2.24-2.37C56.53,39.37,56.21,40.8,55.32,41.67Zm-.4.13c-.14.35-.52.44-.66.79h.66C54.89,42.36,55.3,41.93,54.93,41.8Zm6.45-2.11H60.06c-1,.94-2,1.92-3,2.9H58c0-.42,0-.79.26-.92.71-.18.7.36,1.19.39C59.73,41.11,61.5,40.23,61.38,39.69Zm-.53,2.11c.52,0,.4.56.92.53.52-.93,1.23-1.67,1.71-2.63C62,39.83,61.82,41.19,60.85,41.8ZM77,43c.91-.76,2-1.33,2.5-2.5A4.63,4.63,0,0,0,77,43ZM66.25,40.88a.84.84,0,0,0-.13,1.18h.66C67.1,41.61,66.88,40.78,66.25,40.88Zm-24.75.26c-.26.36-.19,1.27.4,1.18S42.41,40.86,41.5,41.14Zm36.2,5c-1.36-1.17-2.64-2.31-3.95-3.42-.68-.58-1.42-1.46-2-1.32-.51.8.75,1.51,1.32,2,1.42,1.17,2.87,2.31,4.21,3.42.68.57,1.57,1.47,2.11,1.32C79.38,47.15,78.37,46.72,77.7,46.14ZM77,44a6.49,6.49,0,0,0,2.5-2.37A4.49,4.49,0,0,0,77,44ZM48.61,42.59a1.12,1.12,0,0,0,.79-.13c0-.2,0-.49-.13-.53C49.07,42.17,48.72,42.26,48.61,42.59Zm-5.13,13a53.28,53.28,0,0,0-5.53-12.9c-.13,0-.16-.11-.26-.13s-.15-.08-.26,0-.16.11-.26.13a58.06,58.06,0,0,1,3.55,6.71c1,2.54,1.63,5.41,2.77,7.9C44.07,56.94,43.61,56.11,43.47,55.62ZM70.72,43.12c1.13.63,1.63,1.88,3,2.24.57,1.45,2.38,1.66,3,3,.37.07.68.19,1.05.26a2.67,2.67,0,0,0,1.71,1.71v-.92c-2.82-2.36-5.57-4.78-8.56-7C70.93,42.71,70.7,42.79,70.72,43.12ZM77.17,45a4.43,4.43,0,0,0,2.37-2.24A5.17,5.17,0,0,0,77.17,45Zm-53.05.39c.4-.22,1-.27,1.18-.66C25,42.44,22,44.27,24.12,45.35Zm47-.53a1,1,0,0,0-.79-1.32C69.89,44.19,70.82,44.47,71.12,44.83Zm6.71.66c.7.1,1.44-.82,1.71-1.58C79.07,43.94,77.79,44.94,77.83,45.48Zm-6.71.66c.14-1.14-.58-1.43-1.32-1.71C69.2,45.23,70.64,45.62,71.12,46.14ZM36.76,48.25c1.49-.31,1.58-3.36,0-3.69C34.12,44,34.14,48.79,36.76,48.25Zm-12.9-.53a1.57,1.57,0,0,1,0-2.24C21.77,43.65,22.39,48.13,23.86,47.72Zm.66-2.24c.57.94-.47,1.58-.26,2.11a9.11,9.11,0,0,0,1.58-.79,4.72,4.72,0,0,0,1.05.66c-1.06.39-.6,2.32.13,2.76a17,17,0,0,1,2-1.71C29.06,45.88,26.88,44.12,24.52,45.48Zm48.58.79c.17-.91-.57-.92-.92-1.32A1,1,0,0,0,73.09,46.28Zm5.4-.26c.46.26,1-.35,1.05-.92C79.19,44.87,78.64,45.58,78.49,46Zm-9.35-.53c.32.95,1.31,1.23,2,1.84A2.05,2.05,0,0,0,69.14,45.48ZM36.89,53a38.52,38.52,0,0,0-3.69-7.11c0-.1-.11-.15-.26-.13-.72.48,1.19,2.47,1.71,3.42,2,3.63,3.18,8.11,4.21,12C39.23,58.2,37.89,55.44,36.89,53ZM23.73,46.93c.5,0,.71-.34.66-.92-.17,0-.18-.17-.39-.13C23.83,46.16,23.39,46.55,23.73,46.93Zm42.39-.79c-.45.33-.35,1.42.53,1.18C67,46.94,67,46,66.12,46.14Zm7,1.45c.11-.86-.45-1-.92-1.32A1,1,0,0,0,73.09,47.59Zm-31.73,0c1.49-1.48-1.76-1.09,0,0Zm35.15,14a24.55,24.55,0,0,0-6.19-13.69c-.45-.49-1.32-1.52-1.71-1.18a37,37,0,0,0,2.76,3.42,26.83,26.83,0,0,1,5,14.09C77,63.44,76.62,62.38,76.52,61.55ZM75.07,48c.06-.9-.5-1.16-1.05-1.45C73.86,47.52,74.54,47.68,75.07,48ZM22.15,47.2c-.68,1,.51,2,1.32,2.37C24.32,48.42,23.35,47.63,22.15,47.2ZM72,68.26c.68-.79,3.44-2.93,3.69-3.82.32-1.18-.33-4.05-.66-5.4C73.9,54.22,71,49.43,68,47.33c0,1.25-2.13,2.44-2.11,3.82a15.37,15.37,0,0,0,1.45,2.63,26.94,26.94,0,0,1,1.32,2.76A28,28,0,0,1,69,72.73,20,20,0,0,1,72,68.26ZM29.65,50.09V51.8c2.34.11,2.48-3,1.32-4.21a3,3,0,0,0-1.18.92C29.48,48.78,29.73,49.61,29.65,50.09Zm43.44-1.32c.06-.77-.49-.92-.92-1.18C72.07,48.39,72.53,48.64,73.09,48.78Zm-49-.79c-.11.42.34.27.4.53a.71.71,0,0,0,.66-.79C24.59,47.58,24.52,47.95,24.12,48Zm.13,2.37c.44,0,.21.76.26,1.18-.29.11-.45.34-.92.26.13.49.22,1,.66,1.18.69-1,1.79-1.55,2.37-2.63A4.58,4.58,0,0,1,26,47.72h-.4C24.83,48.53,25.41,49.91,24.25,50.36ZM61.51,49a.82.82,0,0,0,.66,0c.16-.36.29-.55.13-.92C61.66,47.55,61,48.48,61.51,49Zm13.56.26c.15-1-.53-1.14-1.05-1.45C73.92,48.78,74.56,49,75.07,49.3Zm2.11.53c.17-1-.56-1.19-1.05-1.58C76,49.29,76.68,49.44,77.17,49.83ZM33.6,48.51c-.21.75-1.45.48-1.45,1.45.93.43,1.3,1.42,2,2.11C34.85,51,34.52,49,33.6,48.51ZM45.45,50c2.11-.32-.79-2.17,0,0ZM77.7,53.38c-.61-.62-.9-1.56-2.11-1.58A10,10,0,0,0,72,48.91,44.58,44.58,0,0,0,79.54,55C79.32,54,78.56,53.67,77.7,53.38ZM23.86,49c-.05.53,0,.92.53.92a.76.76,0,0,0,.26-1.05A1.12,1.12,0,0,0,23.86,49Zm4.61.53a20,20,0,0,1-4.61,13.82,14.63,14.63,0,0,0-2.37,3.16c4.69-3.2,7.63-9.31,7.77-17.51C28.79,49,28.82,49.48,28.47,49.57ZM23.2,51.15a1.69,1.69,0,0,1,.39-1.05c-.6-.19-.85-.73-1.45-.92C21.43,50,22.58,50.86,23.2,51.15Zm16.06,1.71c1.47-.44,1.31-3.74-.66-3.69C36.26,49.24,36.75,53.61,39.26,52.86Zm35.81-2.37c.11-.9-.51-1.07-1.05-1.32C73.95,50,74.65,50.11,75.07,50.49ZM76,49.7c.06.78.73.93,1.18,1.32C77.27,50.14,76.48,49.56,76,49.7Zm2.11.39c0,1,.75,1.26,1.45,1.58C79.62,50.65,78.56,50.14,78.1,50.09ZM21.49,56.81c3.88-.25,7.06-2.84,6.19-6.58A52.32,52.32,0,0,0,21.49,56.81Zm2.11-5.4h.53c.28-.32.1-1-.39-.92C23.62,50.77,23.41,51.22,23.59,51.41ZM31,65.89c2.09-3.44,4.65-9.79,4.08-15,0-.07-.11-.15-.13,0-.65,10.29-4.59,17.57-11.06,21.72-.77.49-2.61.8-2.37,2.37A23,23,0,0,0,31,65.89ZM77.17,52.07c0-.86-.62-1-1.18-1.32C76,51.62,76.66,51.75,77.17,52.07Zm2.37,4.21c-.31-1.41-1.88-2.09-2.9-2.9A13.29,13.29,0,0,0,73.36,51,26.42,26.42,0,0,0,79.54,56.28Zm0-3.42c0-1-.86-1.16-1.45-1.58C78.12,52.27,79,52.38,79.54,52.86Zm-56.61.66c.09-.69.55-2-.26-2.11C22.56,51.91,22.25,53.41,22.94,53.52Zm43.71-.4c-.4-.44-.58-1.09-1.05-1.45C64.41,52.25,65.74,54.36,66.64,53.12ZM28.47,57.33c2.82.53,3.34-4.26,1.05-4.74A46.54,46.54,0,0,1,28.47,57.33Zm5.66,3.42c.18-1.79,2.87-2.77,3-4.48.11-1.19-1-2.58-1.45-3.82C35.53,55.49,34.51,58.37,34.13,60.76Zm45.42-6.85c-.08-.89-.77-1.16-1.45-1.45C78.15,53.37,78.94,53.55,79.54,53.91Zm0,3.55c-.34-1.09-1.45-1.71-2.24-2.37a27.81,27.81,0,0,0-2.63-2C75.62,55.24,77.74,56.2,79.54,57.46ZM62,54.57c0-.19.29-.15.39-.26C62.55,52.33,60.4,54.26,62,54.57Zm-18.17.53c.25,0,.29.15.53.13a1.16,1.16,0,0,0,.26-1.05C44,53.62,43.41,54.56,43.87,55.09Zm-12.64.66c.91.62,1.19,1.88,1.84,2.76.71-1,.74-2.69,1.05-4.08-.27,0-.26-.36-.53-.39C33.38,55.18,31.88,55,31.23,55.75Zm-9.87,1.71c1.07,1.35,3.72.48,5.27.13.3-1,1-2.32.79-3.42A8.24,8.24,0,0,1,21.36,57.46ZM40.58,58c1.69-.07,2.2-4-.26-3.82C38.22,54.36,38.62,58.07,40.58,58ZM66,66c-.1,4.5-2,7.25-3.42,10.4,4.59-3.81,5.52-16.45,1.05-21.59.13,1.38,1.24,2.71,1.71,4.34A20.09,20.09,0,0,1,66,64.7ZM67.3,55c-1.08.44-.36,2.5.92,1.71C68,56,68,55.18,67.3,55Zm-10,.13c-1.49,1.63,2.06.9,0,0Zm22.25,3.69c0-1-1.16-1.57-1.84-2.11a6.13,6.13,0,0,0-2.24-1.45C76.42,56.82,78.1,57.68,79.54,58.78ZM62.82,56C67.48,63.25,64.51,74.33,59,78.4c-.77.57-2.2.91-2.11,1.84,7.5-2.43,11.51-16.34,6.32-24.49,0-.08,0-.16-.13-.13A.36.36,0,0,1,62.82,56Zm-1.45,2.63a2,2,0,0,0,2.5,1.19,7.39,7.39,0,0,0-1.45-3.16C62.21,57.46,61.58,57.84,61.38,58.65ZM79.54,60c-.49-1.75-2.36-2.11-3.42-3.29C76.58,58.45,78.3,59,79.54,60Zm-42.39-2.9c-.12.4-.64.41-.66.92a.88.88,0,0,0,1.05.66A2.19,2.19,0,0,0,37.15,57.07Zm11.06,1.32c1.49-1.48-1.76-1.09,0,0ZM35.31,73.66a17.36,17.36,0,0,0,1.58,7.11c.22.47.41,1.33.92,1.19.35-.49-.2-1.16-.4-1.58-3.56-7.64-.58-17.31,4.74-21.06.77-.54,1.92-.7,1.84-1.58-2.63.77-4.53,3-5.92,5.4a19,19,0,0,0-2.76,9A2,2,0,0,0,35.31,73.66Zm-9-11.45C29,63.26,30.22,58.92,28.2,58,27.75,59.56,26.91,60.73,26.36,62.2Zm-5-3.82c.39,1.59,2.16,1.79,3.95,2,.2-.66,1.29-1.75.79-2.24A7.61,7.61,0,0,1,21.36,58.39Zm58.19,2.9c-.34-1.68-2-2-3-3C76.83,60,78.41,60.39,79.54,61.28Zm-10.66-2.9c-1.16.07-1.2,2.2.26,2C69.47,59.76,68.93,59,68.88,58.39ZM34.39,61.15c1.26.69,1.9-1.23.92-1.71C35,60,34.46,60.34,34.39,61.15ZM23.86,62.47a4.91,4.91,0,0,0,1.05-1.58,11,11,0,0,1-3.55-1.19C21.47,61.34,22.75,61.82,23.86,62.47Zm55.69-.26A6.92,6.92,0,0,0,76.91,60,3.67,3.67,0,0,0,79.54,62.2ZM29.26,61.15c-.31.56.41.9.66,1.45s.15,1.4.66,1.84c.8-.92,2.19-2.88,1.45-4.08C31.51,61.08,30.13,61.18,29.26,61.15ZM61,62.6c1,0,1.27-1.45.39-2.11A1.07,1.07,0,1,0,61,62.6ZM64.27,61c-1.76,0-2.36,4.61.53,4.34A16.26,16.26,0,0,0,64.27,61Zm14.61,1.45c-.68-.37-1.15-1-1.84-1.32C77.21,62,78.23,63.34,78.89,62.47ZM37.29,83c-.39-1.37-1.11-2.66-1.58-4.21a20.77,20.77,0,0,1-.92-5.13c-.24-5.2,1.93-9,3.55-12.11,0-.1-.11-.15-.26-.13C33.82,66,32.83,77.83,37.29,83Zm-15-18.83a1.9,1.9,0,0,0,1.18-1.32c-.84-.34-1.28-1.09-2.11-1.45A2.77,2.77,0,0,0,22.28,64.18Zm15.67,1.18c2.35.91,3.66-2.29,2.37-3.82A16.3,16.3,0,0,0,37.94,65.36Zm21.19-3c.56,4.24-.39,7.63-2.24,9.61-.43.46-1.35.72-1.19,1.58,3.18-1.31,5.16-6.57,3.82-11.59h-.39C59.12,62.1,58.9,62.24,59.14,62.34Zm9.61,1.58A2.45,2.45,0,0,0,69.8,64a12.26,12.26,0,0,1-.13-1.84C68.55,61.95,68.45,63.16,68.75,63.92Zm8.69-.4c.12-.23.48-.22.53-.53-.36-.08-.33-.55-.79-.53C77.26,62.82,77.23,63.29,77.44,63.52ZM26.1,62.73c-1.09,1-1.94,2.27-3,3.29C24.88,67.88,27.36,65.12,26.1,62.73Zm7.24,0c0,.72-.54,1-.53,1.71C34.06,65.25,34.71,62.74,33.34,62.73ZM43.08,65c.88-.08,1.24-2.29-.13-2.24S42.08,65.06,43.08,65Zm15.53-2.24a26.76,26.76,0,0,0,0,3c-.23,3.14-1.73,4.84-2.9,6.45C57.94,71,59.52,66.67,58.61,62.73ZM79.28,64c.3-.14,0-.83.13-1.18-7,3.79-12.22,11-13.56,20.4-.18,1.27-.59,2.8.13,3.95C66.6,75.67,71.34,68.27,79.28,64ZM54.93,66a9.35,9.35,0,0,1-2.5-.13c.26-.75.59-1.43.79-2.24-1.46-.06-.94,1.87-1.84,2.37-.71-.09-1.75.17-2.24-.13.13-.74.82-1.51.53-2.24-1.16.16-.77,1.86-1.58,2.37H45.71c-.34,2,.29,5-1.05,6.06.64.5-.5,1.4-.39,2.24,1.27-.09.91-1.81,1.71-2.37.79.09,1.93-.17,2.5.13-.17.73-.81,1.61-.66,2.24,1.25-.11.86-1.86,1.71-2.37.71.09,1.75-.17,2.24.13a15.11,15.11,0,0,0-.66,2.11c1.41.1.86-1.78,1.71-2.24h2.37c.37-2-.34-5.08,1.05-6.06-.83-.39.54-1.42.4-2.37C55.38,63.66,55.68,65.37,54.93,66Zm-9.21-.26c.21-.67.5-1.26.66-2h-.66A3.11,3.11,0,0,0,45.71,65.76Zm-24.35-.53a.72.72,0,0,0,.66-.66c-.17-.23-.27-.52-.66-.53Zm20.27,6.32c.27-3,1.67-4.69,3.55-6.45.17-.16-.13-.67,0-.79-3.06,1.27-5.49,7.12-3.55,11.72C41.8,74.27,41.51,72.89,41.63,71.55Zm19.75-4.61c.83-.07,1.12-1.4.39-2.11C59.67,64.55,60.24,67,61.38,66.94Zm14.88,0A3.66,3.66,0,0,1,78.89,68c.87-.23.62-2.67.26-3.29C78.1,65.37,76.61,65.59,76.25,66.94ZM25.17,73.39c.33,8,3.25,13.42,7.77,17.25.53-1.49,1.61-2.43,2.11-3.95-3.83-4.46-5.38-14.49-3.16-21.46C30.22,68.52,27.71,71,25.17,73.39ZM42.29,75.1c-.34-3.9.75-7.38,2.9-9.21,0-.1,0-.26-.13-.26C42.85,67.37,41.43,71.17,42.29,75.1ZM26.23,66c-.53.73.62,2.32,0,3.56.72.14,1.38-.67,1.84-1.19a3,3,0,0,0,1.05-2.24A3.08,3.08,0,0,1,26.23,66Zm43.31,2a5.07,5.07,0,0,0,.13-2C68.35,65.83,68.28,68.07,69.54,68ZM32,66.28c0,.71-.31,1.18-.39,1.84C32.94,68.46,33.26,66.28,32,66.28Zm4.34,4.48c2.53.3,2.59-3.47,1.05-4.34A20.88,20.88,0,0,0,36.36,70.76ZM21.49,67.21c.09.79-.17,1.93.13,2.5C23,69.54,23.11,65.24,21.49,67.21Zm19.22,1.45c.79-.11,1-1.29.4-2C39.18,65.9,39.22,68.87,40.71,68.65Zm22.78,2.76a16.37,16.37,0,0,0,1.05-4.34C62.13,67,61.72,70.45,63.48,71.42Zm14.88-.13c.55,0,.55-.5,1.05-.53v-2.5C78.19,68.5,78,70.17,78.36,71.29Zm-3.69-2.9c-.17,0-.18-.17-.39-.13-1.05.93-2.32,1.63-2.5,3.42a3.11,3.11,0,0,1,2.9.26C75.2,71.13,74.08,69.66,74.67,68.39Zm-14.22,3c.82-.08,1.33-2.34-.26-2.11C58.87,69.51,59.48,71.52,60.46,71.42Zm8.29.26a12.32,12.32,0,0,0,.53-1.84C68.19,69.23,67.55,71.48,68.75,71.68ZM21.88,70c-.71.36-.39,2.39-.26,3.16a4.89,4.89,0,0,0,3-2A11.5,11.5,0,0,1,21.88,70Zm9.21,1.84c1.49.42,1.54-2,.26-1.84C31.07,70.38,31.37,71.39,31.1,71.81Zm7.77,1.05c1,.82,2-.44,1.45-1.58C39.32,70.42,38.25,71.73,38.87,72.87ZM74.8,75.24c1.06-1.09,1.94-2.36,3-3.42C75.69,70,73.53,73.11,74.8,75.24ZM71.64,88.93h.13c1-.45.59-1.64.66-2.76A20.46,20.46,0,0,1,77,74.58a16.8,16.8,0,0,0,2.37-3.16c-4.57,2.94-7.34,8.81-7.77,16.32C71.39,87.79,71.48,89.3,71.64,88.93Zm-17-14.74c.37.11.34-.19.66-.13-.08-.57.17-1.49-.13-1.84C55,72.82,54.5,73.67,54.66,74.18Zm5.92,2.11A14.1,14.1,0,0,0,63,72.6C60.89,71.4,59.12,74.8,60.59,76.29ZM36.1,72.47a11.27,11.27,0,0,0,.66,4.48C38.54,76.4,38.63,72.27,36.1,72.47Zm42.78.92c.17.23.27.52.66.53-.12-.36.27-1.24-.26-1.19C79.24,73,78.82,73,78.89,73.39Zm-29,2.76c.35,0,.75,0,.92.13a47.34,47.34,0,0,0,7.9,22.12c-3.54-6.16-6.81-13.28-7.5-21.85.72.48.36.93,1.05,1.45s2,.26,2.24,1.18c.39,1.3-1.13,2.44-1.32,3.95-.13,1,0,2.52.92,3.16.75.52,1.83,0,2.63.92.16,2.49-1.54,5.15.26,6.71.92.8,2.16.17,3.16.79.71.44.65,1.36.92,2.24.24-.51,1.1-.39,1.18-1.05-.53-1.16-.18-1.57-.92-2.24-1-.88-3.43-.38-3.82-1.71-.53-1.82,1.49-3.47.92-5.27-.36-1.12-1.64-1.36-3.16-1.45-2.1-2.15,1.12-3.69,1.05-6.19,1.27.2,2.16-1.08,3.16-1.58-.64-1.89-3.67-.95-3.42,1.05-.16-1.51-2-1.32-2.76-2.24.4-.43,1.92.26,2.11-.4.25-1.3-1.84-.27-2.37-.79.17-.74.89-1.53.66-2.24-1.12.15-.85,1.7-1.45,2.37H49.53c.11-.74,1.14-1.9.66-2.37-.89.38-.69,1.86-1.45,2.37h-2.5A11.9,11.9,0,0,0,47,73c-1.46-.1-.84,1.89-1.71,2.37-1.14.13-3-.42-3.16.66.14.3.94-.06,1.05.26a.68.68,0,0,0,.26,1.19c.76-.24.29-1.08.26-1.32h1.32a2.87,2.87,0,0,1,.13,2.11c-1.88.72-4.57-.09-4.87,2.5-.23,2,1.53,4.7-.53,5.27-.6.16-1.81-.29-2.37-.13-2.53.7-1.1,3.82-1.05,6.19-.5,1.44-2.15.7-3.42,1.05-1.59.44-2,2.65-1.58,4.34a5.71,5.71,0,0,1,1.32-.26c-1.29-4.26,4.53-1.68,5.13-4.74.32-1.62-.7-2.18-.53-4.34.1,0,.15-.11.13-.26.75-.81,1.54-.23,2.5-.39C42.82,87,42,84,41.76,80.9c.58-1,1.91-.42,3-.66,1.81-.38,2.09-2,2.11-4.08H49C45.12,82.65,40.38,90,36.36,96.43c-.45.73-1.67,2.09-.13,2.76h.13c5.71.31,12,0,17.9.13,1.73.34,2.45.61,3.55-.53-7.11.09-14.56-.17-21.46.13a11.46,11.46,0,0,1,2.5-4.08h17c-.2-.45-2.78-.26-4.21-.26-4.3,0-9,.11-12.77-.13C42.47,88.27,46.32,82.34,49.92,76.16Zm8.56-3c-1.35-.62-1.91,1-1.18,1.84C58.64,75.62,59.21,73.88,58.48,73.13Zm9,2.11a4.12,4.12,0,0,0,.66-1.84C66.83,72.74,66.31,74.91,67.43,75.24Zm1.45,2.37c.37-.86,1.75-.7,2.76-.92-.06-.86-1.12-1.74-1.05-3.16C69.33,74.06,68.19,76.38,68.88,77.61Zm8.56-2.5c.91.27,1.28,1.09,2.11,1.45a2.55,2.55,0,0,0-1.18-2.9C78.08,74.17,77.5,74.38,77.44,75.1ZM31.1,89.85C27.47,86,25,80.7,24.65,73.79c-.78.64-.36,1.89-.26,2.63a22.61,22.61,0,0,0,7.9,15C32.39,90.62,31.51,90.29,31.1,89.85Zm.26-14.09c.95.12,1.08-1,.79-1.71-.28-.11-.45-.34-.92-.26A4.05,4.05,0,0,0,31.36,75.76Zm-8.43-1.05c0,.44.39.57.66.79.21-.21-.12-.55,0-1.05C23.27,74.43,23.19,74.65,22.94,74.71Zm-.79.53c0,.5,1.06,1,1.58,1.45A1.43,1.43,0,0,0,22.15,75.24Zm17.77,2.24c.86,0,1.19-1.08.66-2C38.66,74.72,38.58,77.46,39.92,77.47ZM76,77.08c1.5,0,2.69.9,3.55,1.05-.18-1.62-1.49-2.11-2.63-2.76C76.73,76.07,76.12,76.34,76,77.08ZM21.36,75.63c.47,1.2,1.71,1.63,2.63,2.37A3.92,3.92,0,0,0,21.36,75.63ZM72.7,80a29.26,29.26,0,0,1,1.84-4.21C71.76,74.62,70.74,79,72.7,80Zm-10,1.71a44.76,44.76,0,0,0,4.21,9.22c.2.35.49,1.53,1.18,1.05.23-.53-.38-1.07-.66-1.45-2.62-3.6-4.2-8.49-5.13-13.56-.08,0-.16,0-.13-.13s0-.16-.13-.13C61.52,77.8,62.18,80,62.69,81.69Zm3-3.29c.12-.67.76-.82.79-1.58C65.51,75.81,64.33,78.13,65.72,78.4ZM24.38,79.58c-.41-1.56-1.82-2.13-3-2.9C21.74,78.28,23.29,78.7,24.38,79.58Zm39.36,2c-.16,1.27,1,2.64,1.45,3.95a46.93,46.93,0,0,1,1.71-8.56C66.71,78.57,63.92,80.19,63.75,81.56ZM31.89,77.47c-.6.42.11,1.34.13,2C33.25,79.52,33,77.34,31.89,77.47Zm43.71.13a9.38,9.38,0,0,0-1.05,2.11,12.21,12.21,0,0,1,5-.26C79.21,77.94,77,77.62,75.59,77.61ZM37,78a16.56,16.56,0,0,0,1.18,3.16,3.8,3.8,0,0,0,1.32-2A2.28,2.28,0,0,0,37,78ZM24.78,81.16c-.52-1.67-2.11-2.28-3.42-3.16C21.94,79.61,23.61,80.14,24.78,81.16Zm-3.42-1.45c.61.43,1.28,1.15,2,1.71s1.68,1.31,2,1.19c-.87-1.59-2.5-2.41-3.95-3.42Zm42-.4a1.66,1.66,0,0,0,.39,1.45c.12-.4.64-.41.66-.92A.88.88,0,0,0,63.35,79.32Zm3.82,4.48a7.36,7.36,0,0,1,2.5-1.58A7.06,7.06,0,0,1,68,79.32C67.22,80.2,66.48,82.75,67.17,83.79ZM52.42,80.63a.82.82,0,0,0,.66,0c.18-.17.13-.57.13-.92C52.59,79.16,52,80.1,52.42,80.63Zm21.72-.13a20.9,20.9,0,0,0-.79,3c1.41-1.14,3.24-3,6.19-3C78.61,79,75.36,79.9,74.15,80.5Zm-14,3.16c2.42.26,2.44-4.32-.26-3.69C58.3,80.36,58.51,83.48,60.19,83.66ZM21.36,80.9c1.59,1.36,3.19,2.69,4.87,3.95-.9-2.21-3.14-3.09-4.87-4.48Zm36.2-.39c-.83.32-.29,1.28-.13,1.84a51.86,51.86,0,0,0,3.95,10c.53,1,1.21,3.26,2.37,2.76C61.07,91.38,59.12,85.79,57.56,80.5Zm13.82,4.87a36.84,36.84,0,0,1,1.05-4.74C69.49,80.05,69.18,84.88,71.38,85.37Zm-38.7-4.08A9.18,9.18,0,0,0,33.34,83C34.79,82.82,33.87,80.23,32.68,81.29ZM73,87.74A34.48,34.48,0,0,0,79.41,81C75.66,81.67,72.74,83.13,73,87.74ZM21.36,82.21c2,1.56,4.15,3.66,6.19,4.74-1.6-2.26-4-3.7-6.19-5.4Zm22,.66a.69.69,0,0,0,.39-1.19C42.78,81.46,42.79,82.65,43.34,82.87ZM77.17,85c.52-.18.17-1.23,1.19-.92.94.73.1,1.86.26,2.76.09.5.6.86.66,1.32s-.39.59-.39,1.05.75.66.39,1.18c-.56.7-.66,1.06-.53,2.37-.73.33-.78,1.33-1.32,1.84-.22.22-.77.1-1.18.13A7.09,7.09,0,0,1,75.2,97c-1.65,1.87-5.11,1.17-7.5,2.11-.76.3-1,.9-1.71.92.31-1.91.53-3,1.58-3.95,1.95-1.79,5.68-.68,7.37-2.76-2.33.09-3-1.44-3.29-3.42-3.71,2.83-7.19,5.88-11.45,8.16.43,2.78-1.57,4.33-3.69,3-.11,1.3,1.43,1.35.79,2.77.19.3.86.11.79.66s-.31.83-.26,1.45c.85.74,2.29,1,2.37,2.11.09,1.28-2.43,4-2.5,5.13.28,1.09.94,1.78.79,3.29.81,1.16,1.63,2.28,2.5,3.55.55.81,1.73,3.26,2.63,3.55s2.71,0,3.95,0H79.41c.22-13.56.22-28,0-41.6C78.82,83,77.17,83.73,77.17,85ZM56.11,83.53c.21.15.27.43.66.39C58,83.36,56,81.88,56.11,83.53ZM23.33,84.58c1.52,1.81,3.64,3,5.4,4.61-.57-1.49-2.2-2.31-3.42-3.29a42.37,42.37,0,0,0-3.95-3C21.49,84,22.42,84.26,23.33,84.58Zm15.67,0c.44,0,.52-.86.26-1.19C38.31,83.1,38.19,84.62,39,84.58Zm-16.19.79a1.9,1.9,0,0,0-1.45-1.32C21.48,84.79,22.29,85.45,22.8,85.37Zm11.58-.79a1.73,1.73,0,0,0,1.05,1.58C36.17,85.5,35.45,83.86,34.39,84.58Zm43.84,2c.08-.47.48-2.05-.26-2.11C77.72,85.06,77.43,86.36,78.23,86.56Zm-17.64.13a1.67,1.67,0,1,0,3.29,0c-.06-1-.53-2-2-1.71A1.78,1.78,0,0,0,60.59,86.69Zm13.56.79c.73.54.5,2,1.05,2.76.39-.78.89-.92.66-2.11.2-.15.27-.43.66-.4-.07-.37-.19-.68-.26-1.05.24-.28.38-.67,1.05-.53-.13-.49-.22-1-.66-1.19A31.15,31.15,0,0,1,74.15,87.48ZM22.8,86.56c-.11-.86-.82-1.12-1.45-1.45A1.67,1.67,0,0,0,22.8,86.56Zm44.5,2.9c.2-.77,1.38-.55,1.45-1.45a4.45,4.45,0,0,1-1.84-2.24C65.93,86.34,66.33,88.93,67.3,89.45ZM24.91,87.08c-.06-.73-.64-.94-1.18-1.19A1.18,1.18,0,0,0,24.91,87.08Zm46.47-.92c-2.2-.54-2.91,3.09-1.32,4.21C71.62,89.81,71.07,87.81,71.38,86.16ZM22.67,87.87c.07-1-.66-1.28-1.32-1.58C21.28,87.34,22.11,87.47,22.67,87.87Zm54.5-.39c.18-.19.27-1-.13-1.05S76.49,87.51,77.17,87.48Zm.13.39c.6.19.85.73,1.45.92.69-.81-.41-1.67-1.05-2A3.44,3.44,0,0,1,77.31,87.87Zm-52.53.53c.14-1-.57-1.1-1.05-1.45C23.6,87.91,24.33,88,24.78,88.4Zm2.11.4c.07-.86-.64-.94-1.05-1.32C25.72,88.38,26.34,88.55,26.89,88.8Zm-3.56,1.45c2.3,1.92,4.56,3.75,6.58,5.27.74-1.31-1.57-1.5-1.84-2.63a4.9,4.9,0,0,1-.92-.26c-.56-1.46-2.37-1.67-3-3-.37-.07-.68-.19-1.05-.26a2.63,2.63,0,0,0-1.71-1.71C21.21,88.9,22.52,89.57,23.33,90.24Zm51.34-.66c-.23-.69-.13-1.72-.92-1.84-.43,1-1.65,1-1.84,2-.42,2.19,2.5,4.37,4.48,2.63,0-.42-.35-.44-.26-.92s.68-.46.66-1.05c-.76.07-1.14.53-1.71.79-.27-.25-.64-.42-.92-.66C74.29,90.17,74.62,90,74.67,89.59Zm-19.62-.39c.59.08.66-.83.4-1.19C54.49,87.78,54.51,89,55.06,89.19Zm21.2-.13c.74.2,1-.6.66-1.05C76.2,87.92,76,88.51,76.25,89.06Zm-51.47.66c.17-1-.56-1.19-1.05-1.58C23.53,89.21,24.34,89.28,24.78,89.72Zm52.13-.26c.85.2.78,1.33,1.84,1.32.53-1.25-.49-2-1.32-2.37A1.88,1.88,0,0,1,76.91,89.45Zm-50,.53c0-.82-.58-1-1.05-1.32A1.1,1.1,0,0,0,26.89,90Zm12-1.18A.84.84,0,0,0,38.73,90C39.76,90.26,39.76,88.67,38.87,88.8ZM28.73,90.38c.1-.8-.35-1.05-.92-1.18C27.74,90,28.29,90.11,28.73,90.38Zm-3.42,3.16c1.49,1.29,2.53,2.66,4,3,.3-1-.91-1.4-1.45-1.84-2-1.64-4.08-3.37-5.92-5-.17,0-.18-.17-.39-.13C21.71,91.24,24.14,92.53,25.31,93.53Zm50.42-3.29a1,1,0,0,0,1.05-.53A.6.6,0,0,0,75.73,90.24ZM64.54,93.4c2.13,0,2.24-4.46-.53-3.69C62.36,90.18,62.75,93.39,64.54,93.4ZM26.89,91.3c.12-.91-.55-1-1.05-1.32A1.14,1.14,0,0,0,26.89,91.3Zm50.68-.13c.12.81-1.09,1.5.39,1.84.27,0,.26-.36.53-.4A2.36,2.36,0,0,0,77,90.11C76.87,90.85,77.49,90.62,77.57,91.17Zm-48.84.53c.08-.83-.24-1.25-.92-1.32C27.7,91.23,28.26,91.42,28.73,91.69Zm30.54-1.32a.84.84,0,0,0,.13,1.18c.33,0,.41-.21.66-.26C60.14,90.65,59.93,90.28,59.27,90.38ZM34.65,91.82A.88.88,0,0,0,35,90.9C34.24,90,33.5,91.74,34.65,91.82Zm-2.9.66c-.3-1-1.28-1.26-2-1.84A2.09,2.09,0,0,0,31.76,92.48Zm44.89-.39c.5,0,.51-.54.66-.92C76.77,90.67,76.23,91.62,76.65,92.09Zm-55.29-.26c.35,0,.43-.18.4-.53C21.41,91.26,21.32,91.48,21.36,91.82Zm7.37,1.05c.06-.76-.29-1.12-.92-1.19C27.68,92.52,28.23,92.68,28.73,92.88ZM21.36,93A1.69,1.69,0,0,0,22.41,92C21.93,91.71,21.33,92.32,21.36,93Zm9.74.53c.62-.82-.84-1.19-1.32-1.71C29.65,93,30.37,93.26,31.1,93.53Zm-9.74.53c.61.05,1.22-1,1.71-1.45C22.52,92.14,21.59,93.37,21.36,94.06Zm54.24-.79c.18.84,1.25,1.64,2,.79C77.84,92.45,76.15,92.38,75.59,93.27Zm-54.24,2A6,6,0,0,0,23.73,93,4.13,4.13,0,0,0,21.36,95.25Zm9.21-.79c.38-.68-.3-1-.79-1.18A1,1,0,0,0,30.57,94.46Zm-9.21,2c.86-.73,2.43-1.43,2.37-2.63C23,94.75,21.67,95.08,21.36,96.43Zm3.55-.92c0-.78.07-1.56-.53-1.71V116c-.82,1.06-2.58,1.9-2.76,3.16.88-1.09,2.13-1.82,3-2.9.31-.88,0-2.32.13-3.42V99.72A26.15,26.15,0,0,0,24.91,95.51Zm41.6,3.69c3-1.54,9.27-.56,9.21-4.74a4.15,4.15,0,0,1-4.21,2.63,1.44,1.44,0,0,1-1.71.39c-.89.68-1.33.43-2.5.79.23-3.2,5.8-2.44,7-3.82C71.09,95.44,66.64,95.16,66.51,99.2Zm-41.21,10c2-1,3-3.69,2.77-6.45,4.49,2.49,5.6,13.91.92,17.11-.18-3.15-1.37-5.3-3.69-6.32v3c-.69,1.24-3.55,2.42-3.95,3.82a11.37,11.37,0,0,0,.13,3.16h10c.82-1.35,1.8-2.73,2.76-4.34.71-1.18,2.4-3.32,2.5-4.61a12.24,12.24,0,0,0-.66-2.76c-.62-3-.81-5.92-2.11-8.16-3,1.71-6.22-2.33-4-5.27-1.64-1.13-2.86-2.67-4.61-3.69C25.52,99.68,25.32,104.35,25.31,109.2ZM21.36,97.48a5.48,5.48,0,0,0,2.5-2.37A5,5,0,0,0,21.36,97.48Zm22.51-2.11h-.92c.05.53,0,.92-.53.92s-.43-.45-.92-.39c-.51,1-1.51,1.47-2.11,2.37C42.06,98.48,42.31,96.28,43.87,95.38Zm2,.66c.44,0,.57-.39.79-.66H46C46.08,95.75,45.79,95.72,45.84,96Zm-3.55,2.24c2,.29,2.32-1.19,3.29-2C44,95.37,43.42,97.57,42.29,98.27Zm7.24-2.9h-.79c.15.35-.25.77,0,.79C48.85,95.75,49.42,95.79,49.53,95.38Zm-2.24.53c-.54,1-1.5,1.49-2.11,2.37,2,.26,2.33-1.18,3.29-2C47.76,96.48,47.78,95.94,47.29,95.9Zm4.34.13c.09-.35.6-.28.66-.66h-.66C51.71,95.61,51.25,95.92,51.63,96Zm2.24.26c-.58.14-.43-.45-.92-.39-.62.91-1.54,1.53-2.24,2.37,2.55.14,3-1.85,4.34-2.9H54.4C54.32,95.78,54.37,96.31,53.87,96.3Zm2.37-.79a27.59,27.59,0,0,0-2.63,2.76C55.46,98.43,57.38,96.7,56.24,95.51ZM37.42,98.27C38.73,98,39.2,96.9,39.92,96c-.47.07-.32-.47-.79-.39A29.67,29.67,0,0,0,37.42,98.27Zm21.72-1.45c.3-.1.39-.4.53-.66C59.28,94.85,57.84,96.56,59.14,96.83Zm-25,.13h.66C35.56,95.56,33.35,95.56,34.13,97Zm13.82,1.32c2,.26,2.33-1.18,3.29-2-.71.18-.55-.5-1.18-.39C49.59,96.93,48.56,97.4,47.95,98.27Zm-26.59.4c.92-.66,2.42-1.45,2.37-2.63C23,97,21.76,97.4,21.36,98.67Zm0,1.18c.93-.73,2-1.31,2.5-2.5A4.85,4.85,0,0,0,21.36,99.85Zm35-1.58h1.45a1.1,1.1,0,0,0-.53-.92A4.07,4.07,0,0,0,56.37,98.27ZM36,99.59a4.5,4.5,0,0,0-3.29-1.84c-3.79.08-4,6.63.53,5.79.54-.26,1-2.25-.13-2.24-.34.48.23,1-.39,1.45-1.94,1.52-3-2.59-1.84-3.82,1.4-1.44,3.81-.13,4.61.79,3.14,3.62,2.77,11,5,15.8C38.87,110.89,38.76,103.21,36,99.59Zm-14.61,1.32a5.67,5.67,0,0,0,2.5-2.37A4.9,4.9,0,0,0,21.36,100.91Zm37.91-1.18a.58.58,0,0,0-.53-.26c.09,1-1,0-1.05.92-.4,0-.47-.41-1.05-.26.41,2,4.1.71,3-1.71C59.38,98.69,59.71,99.59,59.27,99.72Zm-24.88-.26c-.77-.59-2.73-.76-3.29,0-.72,1-.14,3.78,1.45,2.63-3-1.06,0-3.6,2-2.11,3.32,2.52,2.84,12.29,4.87,15.27C38.17,111.43,37.82,102.09,34.39,99.46Zm-13,2.63a8,8,0,0,0,2.5-2.37c0-.1,0-.26-.13-.26C23,100.45,21.67,100.74,21.36,102.09ZM53,100c-2.78.82-5.92,3.66-6.45,6.32,1.26-.22,1.74,2.06.79,2.11a1,1,0,0,0-.66-1.45c-1.52,2.79-.14,7.33.79,9.74,3.44.2,7.58.3,10.53-.4.43-1.44-.78-2-.79-3,0-1.89,2.23-3.26,2.37-5.4-.53-.75-1.62-.93-2.11-1.71-.09-.49.22-.56.13-1.05-.54-.38-1.6-.25-1.84-.92-.58-.14-.43.45-.92.4.06-.85-.42-1.16-.53-1.84.63.32,1.79,1.11,2.63.39-.32-.82-1.07-1.21-.79-2.63A3.09,3.09,0,0,0,53,100Zm-18.83.39c-.69-.45-3.06-.64-2.11,1.05a1.4,1.4,0,0,1,2.11-.26c2.17,1.82,2.55,8.38,3.55,11.32C37,109.09,36.53,101.94,34.13,100.38ZM38.47,115a5.53,5.53,0,0,0-.53-1.45C38,114.1,38,114.83,38.47,115Zm2.9.79c-1.67-4.65-1.4-11.24-3.82-15.14-.16,0-.3-.23-.39,0C39.77,104.48,39.11,111.59,41.37,115.78ZM39.92,104.2c-.3-1.42-.59-3-1.71-3.69a35.73,35.73,0,0,1,2.37,8.29A38.51,38.51,0,0,0,39.92,104.2Zm1.71,10.27c-.37-1.47-.62-3.07-.92-4.61A12.08,12.08,0,0,0,41.63,114.47ZM43.21,116c-2.35-4-1-11.73-3.55-15.53-.15,0-.37,0-.4.13C41.63,104.72,40.53,112.27,43.21,116Zm-2.5-15.53h-.26c2.21,3.71.85,12.14,3.69,15.67C41.84,112.11,43.24,104.35,40.71,100.51Zm4.08,15.4c-1.87-4.18-.84-11.27-2.76-15.4h-.4C43.54,104.79,42.43,112.09,44.79,115.91Zm1.05.53c-1.79-3.92-.86-11.69-2.76-15.93h-.39C44.64,104.92,43.23,112.7,45.84,116.44Zm-.4-8.16c-.26-2.9-.2-6.12-1.71-7.77,1.92,4.45.56,12.16,3,16.06a22.66,22.66,0,0,1-1.32-6.85A1.68,1.68,0,0,0,45.45,108.28Zm-.79-7.77c.75,1.62.93,3.81,1.32,5.79C46.17,104.25,45.83,101.63,44.66,100.51Zm1.05,0a33.65,33.65,0,0,0,1.05,3.95C46.68,102.88,46.69,101.2,45.71,100.51Zm1.71,2.9c.68-.7,0-1.91-.13-2.9-.19.07-.68-.15-.66.13C47.1,101.36,47.06,102.59,47.42,103.41Zm.79-1.19c.79-.07.18-1.27.13-1.71-.2,0-.49,0-.53.13A4.07,4.07,0,0,1,48.21,102.22Zm1.19-.79c.14-.16.37-1.14-.26-.92C48.85,100.68,49,101.52,49.4,101.43Zm-28,1.71a5.64,5.64,0,0,0,2.5-2.37A5,5,0,0,0,21.36,103.14Zm0,1.19c.92-.66,2.42-1.45,2.37-2.63C23,102.64,21.75,103.05,21.36,104.33Zm12.9-1.84c.45,2,1.42,3.84,1.84,6.06s.51,4.34,1.45,6.19C36.43,110.67,36.17,105.75,34.26,102.49Zm-12.9,3c.92-.75,2-1.31,2.5-2.5A4.85,4.85,0,0,0,21.36,105.51Zm8.56,1.84a12.64,12.64,0,0,1,.79,5.92c-.23,2.07-1.71,3.46-1.32,5.53,3.36-2.77,2.77-12.65-.92-15C28.46,105.5,29.43,106.12,29.91,107.36Zm-8.56-.79a5.85,5.85,0,0,0,2.5-2.37A4.9,4.9,0,0,0,21.36,106.57Zm0,1.19c.91-.67,2.4-1.46,2.37-2.63C23,106.06,21.75,106.47,21.36,107.75Zm0,1.18c.91-.76,2-1.31,2.5-2.5A4.85,4.85,0,0,0,21.36,108.94Zm7.77-1.71c.08-.61-.72-.33-1.18-.39v.39ZM21.36,110a6.09,6.09,0,0,0,2.5-2.37A4.78,4.78,0,0,0,21.36,110Zm5.4-1.19c.89-.16,2.44.33,2.9-.26C29,108.39,27,108.12,26.75,108.81Zm-5.4,2.37c.88-.7,2.42-1.44,2.37-2.63C23,109.49,21.71,109.86,21.36,111.18Zm5-1.84c-1.07.19.81,0,.92.26h2.24c.41-.11.5-.34-.13-.26A7.05,7.05,0,0,0,26.36,109.33Zm-5,3c.91-.76,2-1.32,2.5-2.5A4.63,4.63,0,0,0,21.36,112.36ZM29.91,110h-.4c-1.2.23-3.63-.49-4.08.39a8.25,8.25,0,0,0,4.61,0A.62.62,0,0,0,29.91,110Zm-8.56,3.42a6.09,6.09,0,0,0,2.5-2.37A4.68,4.68,0,0,0,21.36,113.41Zm4.08-2.24v.26c1.05.31,2.68,0,4,.13.09-.3.91.12.79-.4H30A16.22,16.22,0,0,0,25.44,111.18Zm-4.08,3.42c.86-.73,2.43-1.43,2.37-2.63C23,112.91,21.7,113.27,21.36,114.6Zm4.08-2.37c1.24.14,3.72.39,4.74-.13C28.94,112,26.46,111.71,25.44,112.23Zm.66.53c-.26.32-.56-.22-.66.26,1.2.13,3.63.39,4.61-.13C29,112.58,27.37,112.84,26.1,112.76Zm-4.74,3c.91-.76,2-1.33,2.5-2.5A4.63,4.63,0,0,0,21.36,115.78Zm5.4-2c.5.31,2.89.62,3.16-.13-.83-.31-2.24,0-3.29-.13C26.65,113.65,26.63,113.8,26.75,113.81Zm-5.4,3c.93-.65,2.43-1.43,2.37-2.63C23,115.16,21.76,115.57,21.36,116.84Zm6.32-2.24c.2.42,1.91.42,2.11,0-.43.08-.61-.09-.92-.13S27.36,114.35,27.68,114.6Zm.53.92c.19.32,1.32.48,1.32-.13C29.12,115.47,28.38,115.22,28.2,115.52ZM21.36,118c.8-.78,2.4-1.46,2.37-2.63C23,116.34,21.67,116.67,21.36,118Zm13.56,5.4a2.37,2.37,0,0,0,1.71,0,15.36,15.36,0,0,0,4.48,0,1.4,1.4,0,0,0,1.32,0,2.79,2.79,0,0,0,1.84,0c.22.25,1.21.17,1.45,0a24.44,24.44,0,0,0,5.66,0,2,2,0,0,0,1.58,0c.39.27,1.24.07,1.84.13v-.13c.28.24,1,.09,1.45.13h3.29c.4-.08,1.13.17,1.32-.13.22.22.77.11,1.19.13-1.1-2-2.45-3.69-3.69-5.53-7.12,1.26-15.39.12-21.19-1.58-1.2,2.48-2.86,4.51-3.95,7.11C33.77,123.5,34.56,123.68,34.92,123.42Z"/><path class="cls-4" d="M50.32,67.6c2-.49,1.73,3.32-.26,2.63C48.93,69.84,49.11,67.89,50.32,67.6Zm.13,2.24c.88.12,1.26-1.15.53-1.84A1,1,0,1,0,50.45,69.84Z"/><path class="cls-3" d="M49,76.16h.92c-3.61,6.18-7.46,12.11-11.06,18.3,3.74.24,8.47.13,12.77.13,1.43,0,4-.19,4.21.26-5.35-.22-11.63-.22-17,0a11.46,11.46,0,0,0-2.5,4.08c-.13,0-.1.16-.13.26-1.54-.67-.32-2,.13-2.76C40.38,90,45.12,82.65,49,76.16Z"/><path class="cls-3" d="M66.91,76.95a46.93,46.93,0,0,0-1.71,8.56c-.41-1.3-1.6-2.68-1.45-3.95S66.71,78.57,66.91,76.95Z"/><path class="cls-4" d="M38.21,51.8a1.28,1.28,0,0,1-.13-1.32C39.7,49.61,39.74,52.52,38.21,51.8Z"/><path class="cls-4" d="M61.51,80.9a1.54,1.54,0,0,1-1.18,2.5C57.38,83.27,60,78.42,61.51,80.9Zm-.66-.13c-1.46-.26-1.66,1.24-1.05,2C61.26,83.52,61.87,81.37,60.85,80.77Z"/><path class="cls-4" d="M36.1,44.83c2.06-.26,2.08,2.84.66,3.16C34.85,48.42,34.14,45.07,36.1,44.83Zm1.18,1.32c-.37-1.78-2.94-.16-1.45,1.32C37.06,47.67,37.42,46.82,37.29,46.14Z"/><path class="cls-4" d="M36.89,47.06c-3.1.51.56-3.36,0,0Z"/><path class="cls-4" d="M38.21,49.57c2.21-.72,2.34,3.09.53,3.16C37.15,52.78,36.69,50.06,38.21,49.57Zm.53,2.63c1-.06,1.28-2.48-.26-2.24C37.21,50.16,37.72,52.26,38.73,52.2Z"/><path class="cls-4" d="M40.45,54.44c2.1,0,1.65,3.22.13,3.29C38.85,57.81,38.39,54.48,40.45,54.44Zm0,2.76c.74,0,1.05-.59.92-1.71C39.83,53.67,38.72,57.17,40.45,57.2Z"/><path class="cls-4" d="M41,56.81c-.37-.11-.34.19-.66.13A1,1,0,0,1,40,55.36C41,55,41.51,56.07,41,56.81Z"/><path class="cls-4" d="M60.19,81c1.2-.27,1,1.52.26,1.58S59.27,81.24,60.19,81Z"/><path class="cls-4" d="M61.9,85.24c2.11-.4,2.12,2.83.79,3.16C60.84,88.86,60.06,85.59,61.9,85.24Zm1.32,1.45c-.24-2.2-3.31.14-1.45,1.18A1.11,1.11,0,0,0,63.22,86.69Z"/><path class="cls-4" d="M62,86c1.2-.27,1,1.52.26,1.58S61.12,86.24,62,86Z"/><path class="cls-4" d="M64.8,90c1.72.37,1.4,3.19-.26,3.16S62.62,89.51,64.8,90Zm-.26,2.63c.49,0,.46-.27.92-.53C65.62,88,61.86,92.6,64.54,92.61Z"/><path class="cls-4" d="M64.67,92.35c-.4,0-.51-.28-.79-.39C63.6,89.5,66.37,91.44,64.67,92.35Z"/></g></svg>