<svg xmlns="http://www.w3.org/2000/svg" viewBox="0 0 101.07 140"><defs><style>.cls-1{fill:#fff;}.cls-2{fill:#c4161c;}</style></defs><title>Монтажная область 15</title><g id="cards"><path class="cls-1" d="M98,0S68.82.79,50.53.79,3,0,3,0A2.94,2.94,0,0,0,0,3V135.9A3.17,3.17,0,0,0,3,139s29.21,1,47.5,1S98,139,98,139a3.17,3.17,0,0,0,3-3.13V3A2.94,2.94,0,0,0,98,0Z"/><path class="cls-2" d="M8.55,4.69v.38a2.11,2.11,0,0,1,.52-.65,1.16,1.16,0,0,1,.66-.16,2.71,2.71,0,0,1,1,.34,2.7,2.7,0,0,0,1.08.34,1.4,1.4,0,0,0,.35-.06A.43.43,0,0,1,12,4.56q0-.46.49-.46.75,0,.75,1.35a3.49,3.49,0,0,1-.61,2,8.11,8.11,0,0,1-.64.84A5.55,5.55,0,0,0,11,10a6.25,6.25,0,0,0-.26,1.93v.22c0,.11,0,.18,0,.23q0,.45,0,.74,0,1.07-.62,1.07t-.61-.62a9.32,9.32,0,0,1,0-1,7.3,7.3,0,0,1,.65-3.13,9.28,9.28,0,0,1,1.35-1.94,5.89,5.89,0,0,0,.7-.92,3.26,3.26,0,0,0,.3-.91,1.45,1.45,0,0,1-.88.39,1.21,1.21,0,0,1-.42-.09l-.57-.23a2.81,2.81,0,0,0-1-.26,1,1,0,0,0-.75.34,1.21,1.21,0,0,0-.3.83,4.19,4.19,0,0,0,0,.46c0,.26,0,.45,0,.57q0,.74-.51.74t-.51-.55a4.51,4.51,0,0,1,.09-.77A6.11,6.11,0,0,0,7.8,6a6.2,6.2,0,0,0-.06-.7,6.2,6.2,0,0,1-.06-.7q0-.49.45-.49T8.55,4.69Z"/><path class="cls-2" d="M92.31,134.26v-.38a2.11,2.11,0,0,1-.52.65,1.17,1.17,0,0,1-.67.16,2.71,2.71,0,0,1-1-.34A2.7,2.7,0,0,0,89,134a1.4,1.4,0,0,0-.35.06.43.43,0,0,1,.13.32q0,.46-.49.46-.75,0-.75-1.35a3.49,3.49,0,0,1,.61-2,8.11,8.11,0,0,1,.64-.84,5.54,5.54,0,0,0,1-1.67,6.25,6.25,0,0,0,.26-1.93v-.22c0-.11,0-.18,0-.23q0-.45,0-.74,0-1.07.62-1.07t.61.62a9.35,9.35,0,0,1,0,1,7.3,7.3,0,0,1-.65,3.13,9.28,9.28,0,0,1-1.35,1.94,5.89,5.89,0,0,0-.7.92,3.26,3.26,0,0,0-.3.91,1.45,1.45,0,0,1,.88-.39,1.21,1.21,0,0,1,.42.09l.57.23a2.81,2.81,0,0,0,1,.26,1,1,0,0,0,.75-.34,1.21,1.21,0,0,0,.3-.83,4.21,4.21,0,0,0,0-.46q0-.39,0-.57,0-.74.51-.74t.51.55a4.52,4.52,0,0,1-.09.77,6.12,6.12,0,0,0-.1,1.07,6.19,6.19,0,0,0,.06.7,6.17,6.17,0,0,1,.06.7q0,.49-.45.49T92.31,134.26Z"/><path class="cls-2" d="M15.75,21a2.74,2.74,0,0,0-5.48,0,2.74,2.74,0,0,0-5.48,0c0,4.06,5.46,7.17,5.48,7.18S15.75,25.11,15.75,21Z"/><path class="cls-2" d="M85.11,117.9a2.74,2.74,0,0,0,5.48,0,2.74,2.74,0,0,0,5.48,0c0-4.06-5.46-7.17-5.48-7.18S85.11,113.84,85.11,117.9Z"/><path class="cls-2" d="M63.27,43.14a6.4,6.4,0,0,0-12.79,0,6.4,6.4,0,0,0-12.79,0c0,9.47,12.73,16.73,12.79,16.76S63.27,52.61,63.27,43.14Z"/><path class="cls-2" d="M43.19,63.14a6.4,6.4,0,0,0-12.79,0,6.4,6.4,0,0,0-12.79,0c0,9.47,12.73,16.73,12.79,16.76S43.19,72.61,43.19,63.14Z"/><path class="cls-2" d="M43.19,23.14a6.4,6.4,0,0,0-12.79,0,6.4,6.4,0,0,0-12.79,0c0,9.47,12.73,16.73,12.79,16.76S43.19,32.61,43.19,23.14Z"/><path class="cls-2" d="M43.19,103.14a6.4,6.4,0,0,0-12.79,0,6.4,6.4,0,0,0-12.79,0c0,9.47,12.73,16.73,12.79,16.76S43.19,112.61,43.19,103.14Z"/><path class="cls-2" d="M83.19,63.14a6.4,6.4,0,0,0-12.79,0,6.4,6.4,0,0,0-12.79,0c0,9.47,12.73,16.73,12.79,16.76S83.19,72.61,83.19,63.14Z"/><path class="cls-2" d="M83.19,23.14a6.4,6.4,0,0,0-12.79,0,6.4,6.4,0,0,0-12.79,0c0,9.47,12.73,16.73,12.79,16.76S83.19,32.61,83.19,23.14Z"/><path class="cls-2" d="M83.19,103.14a6.4,6.4,0,0,0-12.79,0,6.4,6.4,0,0,0-12.79,0c0,9.47,12.73,16.73,12.79,16.76S83.19,112.61,83.19,103.14Z"/></g></svg>