<svg xmlns="http://www.w3.org/2000/svg" viewBox="0 0 101.07 140"><defs><style>.cls-1{fill:#fff;}.cls-2{fill:#231f20;}</style></defs><title>Монтажная область 39</title><g id="cards"><path class="cls-1" d="M98,0S68.82.79,50.53.79,3,0,3,0A2.94,2.94,0,0,0,0,3V135.9A3.17,3.17,0,0,0,3,139s29.21,1,47.5,1S98,139,98,139a3.17,3.17,0,0,0,3-3.13V3A2.94,2.94,0,0,0,98,0Z"/><path class="cls-2" d="M56.25,95.32a5.81,5.81,0,0,0,.17-11.61,6.38,6.38,0,1,0-12,0A5.81,5.81,0,1,0,50,91.83c-1.79,8.35-7.94,9.69-7.94,9.69H58.87s-6.15-1.34-7.94-9.69A5.81,5.81,0,0,0,56.25,95.32Z"/><path class="cls-2" d="M8,9.29a2.21,2.21,0,0,1,1.13-.64,2,2,0,0,1-1.32-2,2.41,2.41,0,0,1,.73-1.8,2.51,2.51,0,0,1,1.83-.71,2.33,2.33,0,0,1,1.73.68,2.39,2.39,0,0,1,.67,1.76,2.24,2.24,0,0,1-1.29,2.12,2.31,2.31,0,0,1,1.67,2.45,3,3,0,0,1-.82,2.2,2.82,2.82,0,0,1-2.13.85,2.85,2.85,0,0,1-2.08-.82,2.76,2.76,0,0,1-.83-2.05A3,3,0,0,1,8,9.29Zm2.22-.09a1.77,1.77,0,0,0-1.33.55,1.94,1.94,0,0,0-.53,1.4,2.08,2.08,0,0,0,.52,1.46,1.7,1.7,0,0,0,1.31.56,1.74,1.74,0,0,0,1.33-.56,2,2,0,0,0,.52-1.45,2,2,0,0,0-.49-1.43A1.73,1.73,0,0,0,10.26,9.2Zm.09-4.13a1.3,1.3,0,0,0-1,.43A1.53,1.53,0,0,0,9,6.57a1.51,1.51,0,0,0,.39,1.06,1.34,1.34,0,0,0,2,0,1.5,1.5,0,0,0,.4-1.05,1.53,1.53,0,0,0-.39-1.07A1.26,1.26,0,0,0,10.35,5.06Z"/><path class="cls-2" d="M92.82,129.66a2.21,2.21,0,0,1-1.13.64,2,2,0,0,1,1.32,2,2.41,2.41,0,0,1-.73,1.8,2.51,2.51,0,0,1-1.83.71,2.33,2.33,0,0,1-1.73-.68,2.39,2.39,0,0,1-.67-1.76,2.24,2.24,0,0,1,1.29-2.12,2.31,2.31,0,0,1-1.67-2.45,3,3,0,0,1,.82-2.2,3.07,3.07,0,0,1,4.21,0,2.76,2.76,0,0,1,.83,2.05A3,3,0,0,1,92.82,129.66Zm-2.22.09a1.77,1.77,0,0,0,1.33-.55,1.94,1.94,0,0,0,.53-1.4,2.08,2.08,0,0,0-.52-1.46,1.7,1.7,0,0,0-1.31-.56,1.74,1.74,0,0,0-1.33.56,2.29,2.29,0,0,0,0,2.88A1.73,1.73,0,0,0,90.6,129.75Zm-.09,4.13a1.3,1.3,0,0,0,1-.43,1.53,1.53,0,0,0,.39-1.08,1.51,1.51,0,0,0-.39-1.06,1.34,1.34,0,0,0-2,0,1.5,1.5,0,0,0-.4,1.05,1.53,1.53,0,0,0,.39,1.07A1.26,1.26,0,0,0,90.51,133.88Z"/><path class="cls-2" d="M12.75,25.92a2.49,2.49,0,0,0,.07-5,2.73,2.73,0,1,0-5.13,0,2.49,2.49,0,1,0,2.36,3.48c-.77,3.58-3.4,4.15-3.4,4.15h7.22s-2.64-.58-3.4-4.15A2.49,2.49,0,0,0,12.75,25.92Z"/><path class="cls-2" d="M88.11,113a2.49,2.49,0,0,0-.07,5,2.74,2.74,0,1,0,5.12,0,2.49,2.49,0,1,0-2.35-3.48c.77-3.58,3.4-4.15,3.4-4.15H87s2.64.57,3.4,4.15A2.49,2.49,0,0,0,88.11,113Z"/><path class="cls-2" d="M56.31,55.32a5.81,5.81,0,0,0,.17-11.61,6.38,6.38,0,1,0-12,0A5.81,5.81,0,1,0,50,51.83c-1.79,8.35-7.94,9.69-7.94,9.69H58.93S52.78,60.19,51,51.83A5.81,5.81,0,0,0,56.31,55.32Z"/><path class="cls-2" d="M36.23,75.32a5.81,5.81,0,0,0,.17-11.61,6.38,6.38,0,1,0-12,0,5.81,5.81,0,1,0,5.49,8.12C28.15,80.19,22,81.53,22,81.53H38.85s-6.15-1.34-7.94-9.69A5.81,5.81,0,0,0,36.23,75.32Z"/><path class="cls-2" d="M36.23,35.32a5.81,5.81,0,0,0,.17-11.61,6.38,6.38,0,1,0-12,0,5.81,5.81,0,1,0,5.49,8.12C28.15,40.19,22,41.53,22,41.53H38.85s-6.15-1.34-7.94-9.69A5.81,5.81,0,0,0,36.23,35.32Z"/><path class="cls-2" d="M36.23,115.32a5.81,5.81,0,0,0,.17-11.61,6.38,6.38,0,1,0-12,0,5.81,5.81,0,1,0,5.49,8.12c-1.79,8.35-7.94,9.69-7.94,9.69H38.85s-6.15-1.34-7.94-9.69A5.81,5.81,0,0,0,36.23,115.32Z"/><path class="cls-2" d="M76.23,75.32a5.81,5.81,0,0,0,.17-11.61,6.38,6.38,0,1,0-12,0,5.81,5.81,0,1,0,5.49,8.12C68.15,80.19,62,81.53,62,81.53H78.85s-6.15-1.34-7.94-9.69A5.81,5.81,0,0,0,76.23,75.32Z"/><path class="cls-2" d="M76.23,35.32a5.81,5.81,0,0,0,.17-11.61,6.38,6.38,0,1,0-12,0,5.81,5.81,0,1,0,5.49,8.12C68.15,40.19,62,41.53,62,41.53H78.85s-6.15-1.34-7.94-9.69A5.81,5.81,0,0,0,76.23,35.32Z"/><path class="cls-2" d="M76.23,115.32a5.81,5.81,0,0,0,.17-11.61,6.38,6.38,0,1,0-12,0,5.81,5.81,0,1,0,5.49,8.12c-1.79,8.35-7.94,9.69-7.94,9.69H78.85s-6.15-1.34-7.94-9.69A5.81,5.81,0,0,0,76.23,115.32Z"/></g></svg>