<svg xmlns="http://www.w3.org/2000/svg" viewBox="0 0 101.07 140"><defs><style>.cls-1{fill:#fff;}.cls-2{fill:#c4161c;}</style></defs><title>Монтажная область 16</title><g id="cards"><path class="cls-1" d="M98,0S68.83.79,50.53.79,3,0,3,0A2.94,2.94,0,0,0,0,3V135.9A3.17,3.17,0,0,0,3,139s29.21,1,47.5,1S98,139,98,139a3.17,3.17,0,0,0,3-3.13V3A2.94,2.94,0,0,0,98,0Z"/><path class="cls-2" d="M10.61,5.06a1.75,1.75,0,0,0-1.54,1,5.8,5.8,0,0,0-.66,2.71,4.13,4.13,0,0,1,1.06-1,2.28,2.28,0,0,1,1.17-.29,2.38,2.38,0,0,1,1.92.91,3.54,3.54,0,0,1,.75,2.33,3.72,3.72,0,0,1-.81,2.47,2.57,2.57,0,0,1-2.06,1A2.61,2.61,0,0,1,9,13.72a2.66,2.66,0,0,1-1-1.15,8.07,8.07,0,0,1-.64-3.38,6.69,6.69,0,0,1,.91-3.67,2.73,2.73,0,0,1,2.36-1.42,2.2,2.2,0,0,1,1.57.6,2,2,0,0,1,.64,1.49q0,1-.73,1a.62.62,0,0,1-.48-.21.75.75,0,0,1-.19-.53.78.78,0,0,1,.33-.63A1.21,1.21,0,0,0,10.61,5.06Zm-.14,3.45a1.62,1.62,0,0,0-1.3.62,2.33,2.33,0,0,0-.52,1.54,2.79,2.79,0,0,0,.52,1.73,1.56,1.56,0,0,0,1.29.7,1.52,1.52,0,0,0,1.27-.67,2.78,2.78,0,0,0,.5-1.7,2.48,2.48,0,0,0-.49-1.6A1.56,1.56,0,0,0,10.47,8.52Z"/><path class="cls-2" d="M90.25,133.88a1.75,1.75,0,0,0,1.54-1,5.8,5.8,0,0,0,.66-2.71,4.13,4.13,0,0,1-1.06,1,2.28,2.28,0,0,1-1.17.29,2.38,2.38,0,0,1-1.92-.91,3.54,3.54,0,0,1-.75-2.33,3.72,3.72,0,0,1,.81-2.47,2.57,2.57,0,0,1,2.06-1,2.61,2.61,0,0,1,1.44.43,2.66,2.66,0,0,1,1,1.15,8.07,8.07,0,0,1,.64,3.38,6.69,6.69,0,0,1-.91,3.67,2.73,2.73,0,0,1-2.36,1.42,2.2,2.2,0,0,1-1.57-.6,2,2,0,0,1-.64-1.49q0-1,.73-1a.62.62,0,0,1,.48.21.75.75,0,0,1,.19.53.78.78,0,0,1-.33.63A1.21,1.21,0,0,0,90.25,133.88Zm.14-3.45a1.62,1.62,0,0,0,1.3-.62,2.33,2.33,0,0,0,.52-1.55,2.79,2.79,0,0,0-.52-1.73,1.56,1.56,0,0,0-1.29-.7,1.52,1.52,0,0,0-1.27.67,2.78,2.78,0,0,0-.5,1.7,2.48,2.48,0,0,0,.49,1.6A1.56,1.56,0,0,0,90.39,130.43Z"/><path class="cls-2" d="M15.75,21a2.74,2.74,0,0,0-5.48,0,2.74,2.74,0,0,0-5.48,0c0,4.06,5.46,7.17,5.48,7.18S15.75,25.11,15.75,21Z"/><path class="cls-2" d="M85.11,117.9a2.74,2.74,0,0,0,5.48,0,2.74,2.74,0,0,0,5.48,0c0-4.06-5.46-7.17-5.48-7.18S85.11,113.84,85.11,117.9Z"/><path class="cls-2" d="M43.29,63.14a6.4,6.4,0,0,0-12.79,0,6.4,6.4,0,0,0-12.79,0c0,9.47,12.73,16.73,12.79,16.76S43.29,72.61,43.29,63.14Z"/><path class="cls-2" d="M43.29,23.14a6.4,6.4,0,0,0-12.79,0,6.4,6.4,0,0,0-12.79,0c0,9.47,12.73,16.73,12.79,16.76S43.29,32.61,43.29,23.14Z"/><path class="cls-2" d="M43.29,103.14a6.4,6.4,0,0,0-12.79,0,6.4,6.4,0,0,0-12.79,0c0,9.47,12.73,16.73,12.79,16.76S43.29,112.61,43.29,103.14Z"/><path class="cls-2" d="M83.29,63.14a6.4,6.4,0,0,0-12.79,0,6.4,6.4,0,0,0-12.79,0c0,9.47,12.73,16.73,12.79,16.76S83.29,72.61,83.29,63.14Z"/><path class="cls-2" d="M83.29,23.14a6.4,6.4,0,0,0-12.79,0,6.4,6.4,0,0,0-12.79,0c0,9.47,12.73,16.73,12.79,16.76S83.29,32.61,83.29,23.14Z"/><path class="cls-2" d="M83.29,103.14a6.4,6.4,0,0,0-12.79,0,6.4,6.4,0,0,0-12.79,0c0,9.47,12.73,16.73,12.79,16.76S83.29,112.61,83.29,103.14Z"/></g></svg>