<svg xmlns="http://www.w3.org/2000/svg" viewBox="0 0 101.07 140">
    <defs>
        <style>.cls-1{fill:#fff;}.cls-2{fill:#231f20;}</style>
    </defs>
    <title>Монтажная область 22</title>
    <g id="cards">
        <path class="cls-1" d="M98,0S68.82.79,50.53.79,3,0,3,0A2.94,2.94,0,0,0,0,3V135.9A3.17,3.17,0,0,0,3,139s29.21,1,47.5,1S98,139,98,139a3.17,3.17,0,0,0,3-3.13V3A2.94,2.94,0,0,0,98,0Z"/>
        <path class="cls-2" d="M6.76,8.66V5.91q0-.7-.4-.7A1.77,1.77,0,0,0,6,5.26a1.77,1.77,0,0,1-.35.05q-.47,0-.47-.51a.51.51,0,0,1,.16-.38.56.56,0,0,1,.41-.15,3.1,3.1,0,0,1,.52.06,3.24,3.24,0,0,0,.58.06,1.34,1.34,0,0,0,.38,0,1.33,1.33,0,0,1,.42-.12q.22,0,.22.35v.15l0,.55q0,.73-.09,2.19V8.68l0,3.44a2.45,2.45,0,0,0,.11.78Q8,13,8.3,13l.38,0,.38,0a.44.44,0,0,1,.51.49A.47.47,0,0,1,9,14a6.13,6.13,0,0,1-.84-.09,6.12,6.12,0,0,0-.86-.09,6.54,6.54,0,0,0-1,.09,5.87,5.87,0,0,1-.75.09A.46.46,0,0,1,5,13.51Q5,13,5.5,13l.33,0,.33,0q.49,0,.51-.78,0-.16,0-.7Q6.76,10.53,6.76,8.66Z"/>
        <path class="cls-2" d="M11.27,12.8a6.48,6.48,0,0,1-.91-3.69,6.4,6.4,0,0,1,.92-3.68,2.63,2.63,0,0,1,2.17-1.33,2.58,2.58,0,0,1,2.22,1.32,6.6,6.6,0,0,1,.93,3.71,6.41,6.41,0,0,1-.92,3.69,2.63,2.63,0,0,1-2.17,1.33A2.66,2.66,0,0,1,11.27,12.8Zm2.2-7.68q-.86,0-1.42,1.13a6.37,6.37,0,0,0-.57,2.86A6.42,6.42,0,0,0,12.06,12q.57,1.14,1.42,1.14T14.9,12a6.38,6.38,0,0,0,.57-2.86,6.42,6.42,0,0,0-.57-2.87Q14.33,5.12,13.48,5.12Z"/>
        <path class="cls-2" d="M94.1,130.29V133q0,.7.4.7a1.77,1.77,0,0,0,.35-.05,1.77,1.77,0,0,1,.35-.05q.47,0,.47.51a.51.51,0,0,1-.16.38.56.56,0,0,1-.41.15,3.1,3.1,0,0,1-.52-.06,3.24,3.24,0,0,0-.58-.06,1.34,1.34,0,0,0-.38,0,1.33,1.33,0,0,1-.42.12q-.22,0-.22-.35v-.15l0-.55q0-.73.09-2.19v-1.22l0-3.44a2.44,2.44,0,0,0-.11-.78q-.08-.15-.4-.15l-.38,0-.38,0a.44.44,0,0,1-.51-.49.47.47,0,0,1,.52-.54,6.13,6.13,0,0,1,.84.09,6.12,6.12,0,0,0,.86.09,6.54,6.54,0,0,0,1-.09,5.87,5.87,0,0,1,.75-.09.46.46,0,0,1,.52.52q0,.51-.45.51l-.33,0-.33,0q-.49,0-.51.78,0,.16,0,.7Q94.1,128.42,94.1,130.29Z"/>
        <path class="cls-2" d="M89.59,126.15a6.48,6.48,0,0,1,.91,3.69,6.4,6.4,0,0,1-.92,3.68,2.63,2.63,0,0,1-2.17,1.34,2.58,2.58,0,0,1-2.22-1.32,6.6,6.6,0,0,1-.93-3.71,6.41,6.41,0,0,1,.92-3.69,2.63,2.63,0,0,1,2.17-1.33A2.66,2.66,0,0,1,89.59,126.15Zm-2.21,7.68q.86,0,1.42-1.13a7.52,7.52,0,0,0,0-5.72q-.57-1.14-1.42-1.14T86,127a7.52,7.52,0,0,0,0,5.72Q86.53,133.83,87.38,133.83Z"/>
        <path class="cls-2" d="M12.75,25.92a2.49,2.49,0,0,0,2.49-2.49c0-3.69-5-6.51-5-6.52s-5,2.84-5,6.52a2.49,2.49,0,0,0,4.77,1c-.77,3.58-3.4,4.15-3.4,4.15h7.22s-2.64-.58-3.4-4.15A2.49,2.49,0,0,0,12.75,25.92Z"/>
        <path class="cls-2" d="M88.11,113a2.49,2.49,0,0,0-2.49,2.49c0,3.69,5,6.51,5,6.52s5-2.84,5-6.52a2.49,2.49,0,0,0-4.77-1c.77-3.58,3.4-4.15,3.4-4.15H87s2.63.57,3.4,4.15A2.49,2.49,0,0,0,88.11,113Z"/>
        <path class="cls-2" d="M33.13,31.83a5.23,5.23,0,0,0,5.23-5.23c0-7.74-10.41-13.67-10.45-13.7s-10.46,6-10.46,13.7a5.23,5.23,0,0,0,10,2.09c-1.61,7.51-7.15,8.72-7.15,8.72H35.49S30,36.21,28.34,28.69A5.23,5.23,0,0,0,33.13,31.83Z"/>
        <path class="cls-2" d="M33.13,61.83a5.23,5.23,0,0,0,5.23-5.23c0-7.74-10.41-13.67-10.45-13.7s-10.46,6-10.46,13.7a5.23,5.23,0,0,0,10,2.09c-1.61,7.51-7.15,8.72-7.15,8.72H35.49S30,66.21,28.34,58.69A5.23,5.23,0,0,0,33.13,61.83Z"/>
        <path class="cls-2" d="M33.13,91.83a5.23,5.23,0,0,0,5.23-5.23c0-7.74-10.41-13.67-10.45-13.7s-10.46,6-10.46,13.7a5.23,5.23,0,0,0,10,2.09c-1.61,7.51-7.15,8.72-7.15,8.72H35.49S30,96.21,28.34,88.69A5.23,5.23,0,0,0,33.13,91.83Z"/>
        <path class="cls-2" d="M33.13,121.83a5.23,5.23,0,0,0,5.23-5.23c0-7.74-10.41-13.67-10.45-13.7s-10.46,6-10.46,13.7a5.23,5.23,0,0,0,10,2.09c-1.61,7.51-7.15,8.72-7.15,8.72H35.49s-5.54-1.21-7.15-8.72A5.23,5.23,0,0,0,33.13,121.83Z"/>
        <path class="cls-2" d="M78.13,31.83a5.23,5.23,0,0,0,5.23-5.23c0-7.74-10.41-13.67-10.45-13.7s-10.46,6-10.46,13.7a5.23,5.23,0,0,0,10,2.09c-1.61,7.51-7.15,8.72-7.15,8.72H80.49S75,36.21,73.34,28.69A5.23,5.23,0,0,0,78.13,31.83Z"/>
        <path class="cls-2" d="M78.13,61.83a5.23,5.23,0,0,0,5.23-5.23c0-7.74-10.41-13.67-10.45-13.7s-10.46,6-10.46,13.7a5.23,5.23,0,0,0,10,2.09c-1.61,7.51-7.15,8.72-7.15,8.72H80.49S75,66.21,73.34,58.69A5.23,5.23,0,0,0,78.13,61.83Z"/>
        <path class="cls-2" d="M78.13,91.83a5.23,5.23,0,0,0,5.23-5.23c0-7.74-10.41-13.67-10.45-13.7s-10.46,6-10.46,13.7a5.23,5.23,0,0,0,10,2.09c-1.61,7.51-7.15,8.72-7.15,8.72H80.49S75,96.21,73.34,88.69A5.23,5.23,0,0,0,78.13,91.83Z"/>
        <path class="cls-2" d="M78.13,121.83a5.23,5.23,0,0,0,5.23-5.23c0-7.74-10.41-13.67-10.45-13.7s-10.46,6-10.46,13.7a5.23,5.23,0,0,0,10,2.09c-1.61,7.51-7.15,8.72-7.15,8.72H80.49s-5.54-1.21-7.15-8.72A5.23,5.23,0,0,0,78.13,121.83Z"/>
        <path class="cls-2" d="M56,45.83a5.23,5.23,0,0,0,5.23-5.23c0-7.74-10.41-13.67-10.45-13.7s-10.45,6-10.45,13.7a5.23,5.23,0,0,0,10,2.09c-1.61,7.51-7.15,8.72-7.15,8.72H58.4s-5.54-1.21-7.15-8.72A5.23,5.23,0,0,0,56,45.83Z"/>
        <path class="cls-2" d="M56,105.83a5.23,5.23,0,0,0,5.23-5.23c0-7.74-10.41-13.67-10.45-13.7s-10.45,6-10.45,13.7a5.23,5.23,0,0,0,10,2.09c-1.61,7.51-7.15,8.72-7.15,8.72H58.4s-5.54-1.21-7.15-8.72A5.23,5.23,0,0,0,56,105.83Z"/>
    </g>
</svg>