<svg xmlns="http://www.w3.org/2000/svg" viewBox="0 0 101.07 140"><defs><style>.cls-1{fill:#fff;}.cls-2,.cls-4{fill:#231f20;}.cls-3{fill:#c4161c;}.cls-3,.cls-4{fill-rule:evenodd;}</style></defs><title>Монтажная область 47</title><g id="cards"><path class="cls-1" d="M98,0S68.83.79,50.53.79,3,0,3,0A2.94,2.94,0,0,0,0,3V135.9A3.17,3.17,0,0,0,3,139s29.21,1,47.5,1S98,139,98,139a3.17,3.17,0,0,0,3-3.13V3A2.94,2.94,0,0,0,98,0Z"/><path class="cls-2" d="M8.4,10.5a.78.78,0,0,1,.15-.44A1.13,1.13,0,0,0,8,11.19a2,2,0,0,0,.43,1.35A1.41,1.41,0,0,0,9.52,13a1.6,1.6,0,0,0,.94-.3,1.69,1.69,0,0,0,.62-.8,3.4,3.4,0,0,0,.22-.87q0-.42,0-1.71v-3q-.07-1.1-.42-1.1a.94.94,0,0,0-.24,0,.94.94,0,0,1-.24,0,.45.45,0,0,1-.34-.15A.5.5,0,0,1,10,4.8a.57.57,0,0,1,.16-.4.52.52,0,0,1,.39-.17,3.86,3.86,0,0,1,.65.08,3.88,3.88,0,0,0,.66.08,4.58,4.58,0,0,0,.73-.08,4.51,4.51,0,0,1,.67-.08.52.52,0,0,1,.39.17.57.57,0,0,1,.16.4.5.5,0,0,1-.14.35.45.45,0,0,1-.34.15l-.2,0a1.08,1.08,0,0,0-.28,0q-.35,0-.42,1.1v4.06a4.23,4.23,0,0,1-.82,2.81,2.6,2.6,0,0,1-2.07,1,2.29,2.29,0,0,1-1.82-.82,3.1,3.1,0,0,1-.7-2.1,2.55,2.55,0,0,1,.45-1.55,1.36,1.36,0,0,1,1.13-.61,1,1,0,0,1,.78.34,1.21,1.21,0,0,1,.32.86,1,1,0,0,1-.19.64.59.59,0,0,1-.49.25Q8.4,11.16,8.4,10.5Z"/><path class="cls-2" d="M92.46,128.44a.78.78,0,0,1-.14.44,1.13,1.13,0,0,0,.58-1.12,2,2,0,0,0-.43-1.35,1.41,1.41,0,0,0-1.13-.51,1.6,1.6,0,0,0-.94.3,1.69,1.69,0,0,0-.62.8,3.4,3.4,0,0,0-.22.87q0,.42,0,1.71v3q.07,1.1.42,1.1a.94.94,0,0,0,.24,0,.94.94,0,0,1,.24,0,.45.45,0,0,1,.34.15.5.5,0,0,1,.14.35.57.57,0,0,1-.16.4.52.52,0,0,1-.39.17,3.85,3.85,0,0,1-.65-.08,3.87,3.87,0,0,0-.66-.08,4.58,4.58,0,0,0-.73.08,4.49,4.49,0,0,1-.67.08.52.52,0,0,1-.39-.17.57.57,0,0,1-.16-.4.5.5,0,0,1,.14-.35.45.45,0,0,1,.34-.15l.2,0a1.08,1.08,0,0,0,.28,0q.35,0,.42-1.1v-4.06a4.23,4.23,0,0,1,.82-2.81,2.6,2.6,0,0,1,2.07-1,2.29,2.29,0,0,1,1.82.82,3.1,3.1,0,0,1,.7,2.1,2.55,2.55,0,0,1-.45,1.55,1.36,1.36,0,0,1-1.13.61,1,1,0,0,1-.78-.34,1.21,1.21,0,0,1-.32-.86,1,1,0,0,1,.19-.64.59.59,0,0,1,.49-.25Q92.46,127.79,92.46,128.44Z"/><path class="cls-2" d="M12.75,25.92a2.49,2.49,0,0,0,2.49-2.49c0-3.69-5-6.51-5-6.52s-5,2.84-5,6.52a2.49,2.49,0,0,0,4.77,1c-.77,3.58-3.4,4.15-3.4,4.15h7.22s-2.64-.58-3.4-4.15A2.49,2.49,0,0,0,12.75,25.92Z"/><path class="cls-2" d="M88.11,113a2.49,2.49,0,0,0-2.49,2.49c0,3.69,5,6.51,5,6.52s5-2.84,5-6.52a2.49,2.49,0,0,0-4.77-1c.77-3.58,3.4-4.15,3.4-4.15H87s2.63.57,3.4,4.15A2.49,2.49,0,0,0,88.11,113Z"/><path class="cls-3" d="M39.92,14.58q1.14,2.15,2.37,4.21a19.29,19.29,0,0,1,5.13-.39c-.21-1.46-.92-2.42-1.18-3.82h1.71a36,36,0,0,0,1.18,3.69,31.54,31.54,0,0,1,6.06.39c.74-1.1.93-2.76,1.45-4.08h1.84C58,16,57.73,17.52,57.3,18.93c1.68.47,3.53.77,5.13,1.32,1.54-1.58,2.46-3.77,3.69-5.66h1.71c-1.43,2.3-2.69,4.77-4.21,7a57,57,0,0,0-17.64-2c-1.13.06-2.6.6-3.29.39s-1.59-2-2-2.63c-.62-.92-1.23-1.76-1.84-2.63C39,14.42,39.6,14.67,39.92,14.58Z"/><path class="cls-3" d="M41.37,14.58h3.29a20.14,20.14,0,0,1,1.05,2.63,20.5,20.5,0,0,1-2.9.26Z"/><path class="cls-3" d="M49.4,14.58h5.79a10.17,10.17,0,0,1-.79,2.76c-1.43-.06-2.81-.18-4.21-.26A16.68,16.68,0,0,0,49.4,14.58Z"/><path class="cls-3" d="M59.8,14.58h4.48a38.43,38.43,0,0,1-2.37,4.34c-.88-.48-2.12-.6-3-1.05C59.08,16.68,59.55,15.75,59.8,14.58Z"/><path class="cls-3" d="M79.28,20.11c.15,0,.23,0,.26.13A7.45,7.45,0,0,1,77,22.61C77.47,21.47,78.53,20.94,79.28,20.11Z"/><path class="cls-3" d="M79.54,21.3C79.06,22.48,78,23,77,23.8A4.63,4.63,0,0,1,79.54,21.3Z"/><path class="cls-3" d="M76.25,21.69c-.09.57.17,1.49-.13,1.84C76.21,23,75.95,22,76.25,21.69Z"/><path class="cls-3" d="M79.54,22.48A6.48,6.48,0,0,1,77,24.85,4.63,4.63,0,0,1,79.54,22.48Z"/><path class="cls-3" d="M79.54,23.54A6.28,6.28,0,0,1,77,26,5.07,5.07,0,0,1,79.54,23.54Z"/><path class="cls-3" d="M79.54,24.72C79,25.89,78,26.46,77,27.22A4.53,4.53,0,0,1,79.54,24.72Z"/><path class="cls-3" d="M79.54,25.91A6.67,6.67,0,0,1,77,28.28,4.49,4.49,0,0,1,79.54,25.91Z"/><path class="cls-3" d="M71.25,26h3.82A11.14,11.14,0,0,1,71.25,26Z"/><path class="cls-3" d="M79.54,27c-.47,1.2-1.57,1.77-2.5,2.5A5,5,0,0,1,79.54,27Z"/><path class="cls-3" d="M70.86,27h4.48A15.31,15.31,0,0,1,70.86,27Z"/><path class="cls-3" d="M71.12,28h2.5A4.84,4.84,0,0,1,71.12,28Z"/><path class="cls-3" d="M79.54,28.14a7.58,7.58,0,0,1-2.5,2.5A4.53,4.53,0,0,1,79.54,28.14Z"/><path class="cls-4" d="M44.79,29.33c.67-.46.75.93.53,1.45a1.78,1.78,0,0,1-2.37-.39c-.49-.14-.21.49-.66.39a1,1,0,0,1,.13-1.18c1.27-.22,1.27.83,2.11,1.05.45.06.4-.39.66-.53C45.08,29.83,45.11,29.4,44.79,29.33Z"/><path class="cls-3" d="M79.54,29.33A6.81,6.81,0,0,1,77,31.7,4.42,4.42,0,0,1,79.54,29.33Z"/><path class="cls-3" d="M79.54,30.38c-.47,1.19-1.58,1.75-2.5,2.5A4.85,4.85,0,0,1,79.54,30.38Z"/><path class="cls-4" d="M44.39,32.75c.32-2.65,3.87,1.59,4.34-.26a.82.82,0,0,0-.66-1.05c.45-.6,1.15.36,1.18.79C49.49,34.76,45.68,32.57,44.39,32.75Z"/><path class="cls-3" d="M79.54,31.57c-.47,1.16-1.63,1.62-2.37,2.5C77.08,33,78.83,31.87,79.54,31.57Z"/><path class="cls-3" d="M79.54,32.75A7.16,7.16,0,0,1,77,35.12,4.35,4.35,0,0,1,79.54,32.75Z"/><path class="cls-3" d="M76.12,33v1.71A2.31,2.31,0,0,1,76.12,33Z"/><path class="cls-3" d="M79.54,33.8C79.07,35,78,35.56,77,36.31A4.74,4.74,0,0,1,79.54,33.8Z"/><path class="cls-3" d="M79.54,35c-.48,1.14-1.64,1.61-2.37,2.5C77.09,36.4,78.81,35.27,79.54,35Z"/><path class="cls-3" d="M76.12,35.52c-.09.66.17,1.66-.13,2.11C76.08,37,75.82,36,76.12,35.52Z"/><path class="cls-3" d="M79.54,36.17A7.44,7.44,0,0,1,77,38.54,4.23,4.23,0,0,1,79.54,36.17Z"/><path class="cls-3" d="M79.54,37.23C79.06,38.41,78,39,77,39.73A4.63,4.63,0,0,1,79.54,37.23Z"/><path class="cls-3" d="M79.54,38.41c-.48,1.14-1.65,1.6-2.37,2.5C77.09,39.82,78.81,38.69,79.54,38.41Z"/><path class="cls-3" d="M76,38.81a2.31,2.31,0,0,1,0,1.71Z"/><path class="cls-3" d="M64.67,38.94c.35.31.79.52.92,1.05q-7,10.87-13.69,22c-.17-.18-.57-.13-.92-.13C54.66,55.78,58.37,49.75,62,43.68c-1.1-.39-3.11.13-4.21-.26A26.16,26.16,0,0,0,62,43.28a13,13,0,0,0,2.5-4.08C64.64,39.17,64.69,39.09,64.67,38.94Z"/><path class="cls-3" d="M79.54,39.47A6.29,6.29,0,0,1,77,42,5.07,5.07,0,0,1,79.54,39.47Z"/><path class="cls-3" d="M79.54,40.65C79,41.82,78,42.39,77,43.15A4.63,4.63,0,0,1,79.54,40.65Z"/><path class="cls-3" d="M79.54,41.84A6.49,6.49,0,0,1,77,44.2,4.49,4.49,0,0,1,79.54,41.84Z"/><path class="cls-3" d="M79.54,42.89a4.43,4.43,0,0,1-2.37,2.24A5.17,5.17,0,0,1,79.54,42.89Z"/><path class="cls-3" d="M46,43.41H57.56A102.13,102.13,0,0,1,46,43.41Z"/><path class="cls-3" d="M79.54,44.07c-.27.76-1,1.68-1.71,1.58C77.79,45.1,79.07,44.1,79.54,44.07Z"/><path class="cls-3" d="M79.54,45.26c0,.57-.59,1.18-1.05.92C78.64,45.75,79.19,45,79.54,45.26Z"/><path class="cls-3" d="M69,72.9a28,28,0,0,0-.39-16.19,27,27,0,0,0-1.32-2.76,15.36,15.36,0,0,1-1.45-2.63c0-1.38,2.07-2.56,2.11-3.82,3,2.1,5.94,6.89,7.11,11.72.33,1.34,1,4.22.66,5.4-.25.89-3,3-3.69,3.82A20,20,0,0,0,69,72.9Z"/><path class="cls-3" d="M29.78,48.68c-.08.49.17,1.31-.13,1.58C29.73,49.77,29.48,48.95,29.78,48.68Z"/><path class="cls-3" d="M27.68,50.39c.87,3.74-2.31,6.33-6.19,6.58A52.33,52.33,0,0,1,27.68,50.39Z"/><path class="cls-3" d="M35.71,52.63c.44,1.23,1.56,2.63,1.45,3.82-.16,1.7-2.85,2.69-3,4.48C34.51,58.54,35.53,55.66,35.71,52.63Z"/><path class="cls-3" d="M27.41,54.34c.22,1.1-.49,2.41-.79,3.42-1.55.34-4.19,1.22-5.27-.13A8.24,8.24,0,0,0,27.41,54.34Z"/><path class="cls-3" d="M26.1,58.29c.5.48-.59,1.58-.79,2.24-1.79-.19-3.56-.39-3.95-2A7.61,7.61,0,0,0,26.1,58.29Z"/><path class="cls-3" d="M57,59.48c.27-.3,1.09,0,1.58-.13C58.34,59.65,57.52,59.39,57,59.48Z"/><path class="cls-3" d="M21.36,59.87a11,11,0,0,0,3.55,1.19,4.91,4.91,0,0,1-1.05,1.58C22.75,62,21.47,61.51,21.36,59.87Z"/><path class="cls-3" d="M21.36,61.58c.83.36,1.26,1.11,2.11,1.45a1.9,1.9,0,0,1-1.18,1.32A2.77,2.77,0,0,1,21.36,61.58Z"/><path class="cls-3" d="M21.36,64.21c.39,0,.49.3.66.53a.72.72,0,0,1-.66.66Z"/><path class="cls-3" d="M66,64.87a1.4,1.4,0,0,1,0,1.32Z"/><path class="cls-3" d="M31.89,65.4c-2.22,7-.67,17,3.16,21.46-.5,1.52-1.58,2.46-2.11,3.95C28.43,87,25.5,81.57,25.17,73.56,27.71,71.14,30.22,68.69,31.89,65.4Z"/><path class="cls-4" d="M46.9,67.77a1.1,1.1,0,0,1,1.45,1.05c.25,1.87-2.63,2.42-2.5.13A1.16,1.16,0,0,1,46.9,67.77Zm.26,2.37c1.15-.08,1-2.63-.39-2C45.92,68.57,46.16,70.21,47.16,70.14Z"/><path class="cls-4" d="M54.93,68.16c1,2.71-2.54,2.85-2.24.66A1.26,1.26,0,0,1,54.93,68.16Zm-1.05,2c1.24,0,1.17-2.52-.26-2C52.69,68.51,52.91,70.11,53.87,70.14Z"/><path class="cls-3" d="M46.76,68.16c1.36-.66,1.54,1.9.39,2S45.92,68.57,46.76,68.16Z"/><path class="cls-3" d="M53.61,68.16c1.44-.54,1.51,2,.26,2C52.91,70.11,52.69,68.51,53.61,68.16Z"/><path class="cls-3" d="M35.31,72.25v1.58A2,2,0,0,1,35.31,72.25Z"/><path class="cls-3" d="M79.28,72.9c.53-.05.15.82.26,1.19-.39,0-.49-.3-.66-.53C78.82,73.15,79.24,73.21,79.28,72.9Z"/><path class="cls-3" d="M78.36,73.82a2.55,2.55,0,0,1,1.18,2.9c-.83-.36-1.19-1.18-2.11-1.45C77.5,74.55,78.08,74.34,78.36,73.82Z"/><path class="cls-3" d="M76.91,75.54c1.15.65,2.45,1.15,2.63,2.76-.87-.16-2.06-1.09-3.55-1.05C76.12,76.5,76.73,76.24,76.91,75.54Z"/><path class="cls-3" d="M79.54,79.62a12.21,12.21,0,0,0-5,.26,9.38,9.38,0,0,1,1.05-2.11C77,77.78,79.21,78.11,79.54,79.62Z"/><path class="cls-3" d="M79.54,80.67c-2.95,0-4.78,1.89-6.19,3a20.89,20.89,0,0,1,.79-3C75.36,80.07,78.61,79.2,79.54,80.67Z"/><path class="cls-3" d="M79.41,81.2A34.48,34.48,0,0,1,73,87.91C72.74,83.3,75.66,81.83,79.41,81.2Z"/><path class="cls-3" d="M71.64,87.91V89.1C71.48,89.47,71.39,88,71.64,87.91Z"/><path class="cls-3" d="M21.75,91.46c0,.34,0,.57-.4.53C21.32,91.65,21.41,91.43,21.75,91.46Z"/><path class="cls-3" d="M22.41,92.12a1.69,1.69,0,0,1-1.05,1.05C21.33,92.49,21.93,91.88,22.41,92.12Z"/><path class="cls-3" d="M23.07,92.78c-.49.5-1.1,1.5-1.71,1.45C21.59,93.54,22.52,92.3,23.07,92.78Z"/><path class="cls-3" d="M23.73,93.18a6,6,0,0,1-2.37,2.24A4.13,4.13,0,0,1,23.73,93.18Z"/><path class="cls-3" d="M23.73,94c.06,1.2-1.51,1.91-2.37,2.63C21.67,95.25,23,94.92,23.73,94Z"/><path class="cls-3" d="M23.86,95.28a5.48,5.48,0,0,1-2.5,2.37A5,5,0,0,1,23.86,95.28Z"/><path class="cls-3" d="M24.91,95.68a26.15,26.15,0,0,1-.13,4.21A26.17,26.17,0,0,1,24.91,95.68Z"/><path class="cls-3" d="M23.73,96.2c0,1.19-1.45,2-2.37,2.63C21.76,97.57,23,97.16,23.73,96.2Z"/><path class="cls-3" d="M23.86,97.52c-.47,1.2-1.57,1.77-2.5,2.5A4.85,4.85,0,0,1,23.86,97.52Z"/><path class="cls-3" d="M23.86,98.71a5.67,5.67,0,0,1-2.5,2.37A4.9,4.9,0,0,1,23.86,98.71Z"/><path class="cls-3" d="M36.36,99.36c5.92.09,12.2-.18,17.9.13C48.34,99.41,42.07,99.67,36.36,99.36Z"/><path class="cls-3" d="M23.73,99.63c.13,0,.1.16.13.26a8,8,0,0,1-2.5,2.37C21.67,100.9,23,100.61,23.73,99.63Z"/><path class="cls-3" d="M23.86,100.94a5.64,5.64,0,0,1-2.5,2.37A5,5,0,0,1,23.86,100.94Z"/><path class="cls-3" d="M23.73,101.86c0,1.19-1.45,2-2.37,2.63C21.75,103.22,23,102.81,23.73,101.86Z"/><path class="cls-3" d="M23.86,103.18c-.47,1.19-1.58,1.75-2.5,2.5A4.85,4.85,0,0,1,23.86,103.18Z"/><path class="cls-3" d="M23.86,104.37a5.85,5.85,0,0,1-2.5,2.37A4.9,4.9,0,0,1,23.86,104.37Z"/><path class="cls-4" d="M56.51,105.55c-.85,2.43-3.29-1.55-4.34.26-.24.73.8.86.53,1.19a1,1,0,0,1-.92-.66c-.67-2.23,2.59-1.79,3.55-.79C55.9,105.55,56.13,105.07,56.51,105.55Z"/><path class="cls-3" d="M23.73,105.29c0,1.18-1.46,2-2.37,2.63C21.75,106.64,23,106.23,23.73,105.29Z"/><path class="cls-3" d="M23.86,106.6c-.48,1.19-1.59,1.74-2.5,2.5A4.85,4.85,0,0,1,23.86,106.6Z"/><path class="cls-4" d="M58.74,107.66a.88.88,0,0,1-.53,1.05c-.95,0-1.18-.75-1.71-1.19a.79.79,0,0,0-.4,1.45c-1.89-.46.72-3.07,1.71-1.19C58.33,107.91,58.37,107.28,58.74,107.66Z"/><path class="cls-3" d="M23.86,107.79a6.09,6.09,0,0,1-2.5,2.37A4.78,4.78,0,0,1,23.86,107.79Z"/><path class="cls-3" d="M27.81,107.79c.49.08,1.31-.17,1.58.13C28.9,107.84,28.08,108.09,27.81,107.79Z"/><path class="cls-3" d="M45.45,108.45a1.68,1.68,0,0,1,0,1.45Z"/><path class="cls-3" d="M23.73,108.71c0,1.19-1.49,1.93-2.37,2.63C21.71,110,23,109.66,23.73,108.71Z"/><path class="cls-4" d="M53.21,109.5c1.71-.53,1.76,1.75,3.42,1.71.06.63-.67.47-.66,1.05,0,.85.79.88.79,1.71-.78-.4-1.21.45-2,.53a4.21,4.21,0,0,1-3.69-2.11c1,.73,2.72,2.16,4.21,1.18-2.12.3-3.46-1.15-4.48-2.37a1.84,1.84,0,0,1,1.45.39c.84-.22,1.25-.86,2.5-.66C54.61,110.12,53.8,109.92,53.21,109.5Zm-.13,2.37a2.51,2.51,0,0,0,.79.53,2.62,2.62,0,0,0,.53-1.05C53.74,111.3,53.18,111.35,53.08,111.87Zm1.19.66c.46,0,.91-.66.53-1.05C54.62,111.83,54.21,111.94,54.27,112.53Z"/><path class="cls-3" d="M23.86,110c-.48,1.19-1.59,1.74-2.5,2.5A4.63,4.63,0,0,1,23.86,110Z"/><path class="cls-3" d="M23.86,111.21a6.09,6.09,0,0,1-2.5,2.37A4.68,4.68,0,0,1,23.86,111.21Z"/><path class="cls-3" d="M23.73,112.13c.06,1.2-1.51,1.91-2.37,2.63C21.7,113.44,23,113.08,23.73,112.13Z"/><path class="cls-4" d="M50.71,113.19a7.12,7.12,0,0,0,6.19,1.71c.17.32.48.48.39,1.05C54.73,115.94,51.42,115.76,50.71,113.19Z"/><path class="cls-3" d="M23.86,113.45c-.5,1.17-1.59,1.74-2.5,2.5A4.63,4.63,0,0,1,23.86,113.45Z"/><path class="cls-3" d="M23.73,114.37c.06,1.2-1.44,2-2.37,2.63C21.76,115.74,23,115.33,23.73,114.37Z"/><path class="cls-3" d="M23.73,115.56c0,1.17-1.57,1.85-2.37,2.63C21.67,116.84,23,116.51,23.73,115.56Z"/><path class="cls-3" d="M60.85,123.59c-.6-1.55-1.55-2.75-2.24-4.21a16.68,16.68,0,0,1-5.13.53c.34,1.32.89,2.44,1.32,3.69v.13c-.6-.06-1.45.13-1.84-.13-.29-1.34-.8-2.44-1.18-3.69a19.27,19.27,0,0,1-6.06-.4c-.74,1.1-.93,2.76-1.45,4.08a2.79,2.79,0,0,1-1.84,0c.47-1.33.71-2.88,1.19-4.21-1.66-.58-3.68-.8-5.27-1.45a47.71,47.71,0,0,0-3.42,5.66c-.35.26-1.15.08-1.71.13,1.09-2.6,2.75-4.63,3.95-7.11,5.8,1.7,14.07,2.84,21.19,1.58,1.23,1.84,2.58,3.56,3.69,5.53C61.62,123.69,61.07,123.81,60.85,123.59Z"/><path class="cls-3" d="M41.1,123.59a15.36,15.36,0,0,1-4.48,0,33.61,33.61,0,0,1,2.5-4.34c.64.67,2,.67,2.9,1.05C41.83,121.51,41.32,122.4,41.1,123.59Z"/><path class="cls-3" d="M59.53,123.72H56.24c-.25-1-.87-1.68-1.05-2.76a27.86,27.86,0,0,0,2.9-.26C58.55,121.71,59.14,122.62,59.53,123.72Z"/><path class="cls-3" d="M51.37,123.59a24.45,24.45,0,0,1-5.66,0,7.81,7.81,0,0,1,.92-2.76,22.84,22.84,0,0,0,3.95.26A9.15,9.15,0,0,1,51.37,123.59Z"/><path class="cls-4" d="M43.61,22.35c3.05-.27,5.71.48,6.71,2.63-.91-.2-1.86-1.52-3.42-1.71C45.7,23.13,43.63,24.1,43.61,22.35Z"/><path class="cls-3" d="M71.12,23.4c.12-.49,1.06-.17,1.58-.26C72.44,23.5,71.39,23.06,71.12,23.4Z"/><path class="cls-4" d="M45.58,24.59c2.16-.32,3.22,1.36,4.61,2.24-.36.64-1.3,0-1.58-.26a3.78,3.78,0,0,1-2.5.79c0,.46,1,1.06,1.58,1.32-1.75.6-1.75-1.68-3.42-1.58-.11-.73.72-.51.66-1.19s-.82-.85-.79-1.71a.58.58,0,0,1,.53.26c1.71-1.48,4.43-.06,5.27,1.32C49,25.51,47.35,23.6,45.58,24.59ZM46,26.7c.47-.06.63-.42.66-.92C46,25.71,46,26.17,46,26.7Zm.66.26a1.69,1.69,0,0,0,1.18-.39c-.06-.47-.42-.63-.92-.66C46.92,26.37,46.34,26.63,46.63,27Z"/><path class="cls-4" d="M20.3,13.4H80.73V124.77c-19.88.22-40.68.22-60.56,0V13.8C20.16,13.61,20.15,13.42,20.3,13.4Zm2.37,40.68c-1.11-.47-.22-2-.4-2.9-.13-.66-.85-.75-.79-1.32.67-.86.19-1,.13-2.24.62-.59.63-1,.53-2.24.64-.37.82-1.2,1.18-1.84a2.85,2.85,0,0,1,1.19-.13c.53-.73.5-1.39.92-2,1.88-2.57,7.35-1.35,9.35-3.29-.1,2.43-.85,3.74-2.5,4.61-2,1-5.12.19-6.45,2.11,2.57-.24,3,1.63,3.55,3.42A78,78,0,0,1,40.71,40c-.58-2.93,1.88-4,3.69-3,0-1.23-1.43-1.34-.79-2.76-.2-.24-.9,0-.79-.53,0-.61.26-.88.26-1.45-.73-.85-2.24-.94-2.37-2.11-.16-1.49,2.39-3.25,2.37-5.4,0-1.17-1-1.5-.66-3-1.62-2.38-3.25-4.74-4.87-7.11H21.36V56.05c.87-.86,2.29-1.81,2.37-3C23.21,53.21,23.59,54.3,22.67,54.08ZM66.12,14.58H39.92c-.32.08-1-.17-1.05.13.61.87,1.23,1.71,1.84,2.63.39.58,1.2,2.41,2,2.63s2.16-.33,3.29-.39a57,57,0,0,1,17.64,2c1.52-2.21,2.78-4.68,4.21-7Zm3.29,0c-.8,1.17-1.82,2.68-2.9,4.48-.82,1.37-2.27,3.38-2.37,4.34a12.93,12.93,0,0,0,.53,2.9c.61,3.05,1.1,5.89,2.24,8.16,3.36-1.9,6,2.39,3.95,5.13a40.28,40.28,0,0,0,4.61,3.82V29.07c-1.7.71-2.88,3.08-2.63,6.19-4.65-2.61-5.58-13.79-.92-17.11.12,3.21,1.31,5.36,3.69,6.32v-2.9c1.2-1.34,2.67-2.42,3.95-3.69V14.58ZM76,40.52c.41.74-.62,3.22.53,3.82V22.09c.68-1.21,2.61-1.86,2.76-3.16-1,.94-2,1.84-3,2.76-.3.36,0,1.27-.13,1.84,0,2.66,0,6.39,0,9.48a2.31,2.31,0,0,0,0,1.71v.79c-.3.44,0,1.45-.13,2.11a1.26,1.26,0,0,1,0,1.19ZM72.43,34.2c.11-1.4-1.11-2.37-1.58-3.69a12.49,12.49,0,0,1,.92-10.27c-.28-.24-.09-1-.4-1.19C68.23,22.52,68.68,31.79,72.43,34.2ZM77,22.61a7.45,7.45,0,0,0,2.5-2.37c0-.1-.11-.15-.26-.13C78.53,20.94,77.47,21.47,77,22.61Zm-34.1-.92c-.5,1.43.76,2,.79,3,.05,1.93-2.32,3.26-2.37,5.53.58.65,1.57.89,2.11,1.58.07.51-.24.64-.13,1.19,1.15.13,2,1.11,2.76.53a13.22,13.22,0,0,0,.53,1.71C45.74,35,45,34.2,44,34.86c.31.87,1,1.34.79,2.76a2.74,2.74,0,0,0,2.5.66A9.64,9.64,0,0,0,54.4,31.7a1.16,1.16,0,0,1-.79-2.11A1,1,0,0,0,54.27,31c1.59-2.71.08-7.13-.66-9.61A43.16,43.16,0,0,0,42.95,21.69ZM77,23.8c.91-.76,2-1.32,2.5-2.5A4.63,4.63,0,0,0,77,23.8ZM57.16,37.62c-1.52-3.79-1-10.58-2.24-14.48-.16-.52-.29-1.25-.79-1.45C56.43,26.27,54.3,33.31,57.16,37.62ZM54.93,21.56c1.08,2.33,1.25,5.18,1.45,8.29.18,2.76.26,6,1.84,7.77C56.25,33.14,57.76,25.18,54.93,21.56Zm4.21,16.06c-1.57-4.18-.75-12.59-3.29-15.8C58.31,26.08,56.5,33.43,59.14,37.62ZM57,22c-.16,0-.3-.23-.39,0,1.79,3,1.65,8.47,2.37,12.24.25,1.29.21,2.95,1.45,3.42C58.41,33.83,59.38,25.88,57,22Zm.79.39c1.09,2,1.31,4.93,1.58,7.9s.45,6,2.24,7.37C59.38,33.35,60.32,25.87,57.69,22,57.71,22.11,57.67,22.33,57.82,22.35Zm3.29,12c.28,1.21.47,2.77,1.58,3.29-2.25-4.11-2-10.73-3.82-15.27a.13.13,0,0,0-.26,0C60.18,25.56,60.25,30.67,61.11,34.33Zm2.63,3.29c-2.52-4-2-11-4.21-15.27C61.35,27,60.67,34.21,63.75,37.62Zm9-15c0-.43-1.7-.38-1.19.13C71.87,22.67,72.56,22.91,72.7,22.61ZM77,24.85a6.48,6.48,0,0,0,2.5-2.37A4.63,4.63,0,0,0,77,24.85Zm-9.61,15.4c4.74,1.33,4.87-7.5,0-5.53-.42.54-.49,2.22.53,2.11.27-.3-.5-1.14.13-1.45,3-1.24,3.17,3.5,1.18,4.21A3.43,3.43,0,0,1,66,38.94c-3.6-3-3.51-11.91-5.27-16.32-.16,0-.3-.23-.4,0C62.67,28.17,61.79,38.67,67.43,40.26Zm-4.08-8c.85,3.18,2.34,7.73,5.53,7,1.51-.36,2-3.92-.53-3.42.47.69,1.13.31,1.32,1.18.5,2.38-2.92,1.58-3.69.79-2.8-2.89-2.61-11.45-4.21-14.88-.17,0-.18-.17-.39-.13C62.48,25.17,62.44,28.82,63.35,32.22Zm3.16,5.27c.89.82,3.14,1,2.5-.79-.73-.07-.5.82-1.32.66-4-2.55-3.13-9.95-5.27-14.35C63.84,26.66,63.86,35.07,66.51,37.49ZM72.7,23.14c-.52.09-1.46-.23-1.58.26.44.3,1.45,0,2.11.13C73.26,23.19,72.95,23.2,72.7,23.14ZM66.64,35.65c-.46-2-1.29-3.83-1.71-5.92s-.82-4.21-1.32-6.32c-.16,0-.3-.23-.4,0C64.59,27.25,64.64,32.43,66.64,35.65ZM77,26a6.28,6.28,0,0,0,2.5-2.5A5.07,5.07,0,0,0,77,26ZM71,24.33a8.31,8.31,0,0,0,3.29,0C73.71,24,71.54,23.85,71,24.33ZM77,27.22c.91-.76,2-1.33,2.5-2.5A4.53,4.53,0,0,0,77,27.22Zm-1.58-2.11A31.77,31.77,0,0,0,70.86,25C71.83,25.5,74.27,25.25,75.46,25.12Zm-.39.92c.21,0,.46,0,.39-.26-1.5.17-3.68-.34-4.74.26h.53A11.14,11.14,0,0,0,75.07,26Zm2,2.24a6.67,6.67,0,0,0,2.5-2.37A4.49,4.49,0,0,0,77,28.28ZM70.86,27a15.31,15.31,0,0,0,4.48,0h.13v-.39C74.18,26.76,70.58,26.14,70.86,27ZM77,29.46c.93-.73,2-1.3,2.5-2.5A5,5,0,0,0,77,29.46ZM71.12,28a4.84,4.84,0,0,0,2.5,0c.56-.15,1.71.31,1.84-.26-.33-.47-1.52-.26-2.37-.26s-2.11-.3-2.24.39C70.88,28,71,28,71.12,28ZM77,30.65a7.58,7.58,0,0,0,2.5-2.5A4.53,4.53,0,0,0,77,30.65Zm-2.11-2.11c-1.27.09-2.89-.17-3.95.13C72,28.81,74.16,29,74.94,28.54ZM77,31.7a6.81,6.81,0,0,0,2.5-2.37A4.42,4.42,0,0,0,77,31.7Zm-3-2.37H71.25C71.42,30,73.83,29.93,74,29.33Zm-2.5,1.05c.48-.09,2.07.23,1.71-.26C72.76,30.6,71.73,29.81,71.51,30.38ZM77,32.88c.92-.75,2-1.31,2.5-2.5A4.85,4.85,0,0,0,77,32.88Zm-4.08-2H71.78C71.62,31.49,73.11,31.49,73,30.91Zm4.21,3.16c.74-.89,1.9-1.35,2.37-2.5C78.83,31.87,77.08,33,77.17,34.07ZM54.93,31.7c-.21,2.13.13,4.76,1.32,5.92A29.14,29.14,0,0,1,54.93,31.7ZM77,35.12a7.16,7.16,0,0,0,2.5-2.37A4.35,4.35,0,0,0,77,35.12ZM54.27,33.54c-.16,1.36-.06,3.56,1.05,4.08A27.09,27.09,0,0,1,54.27,33.54ZM77,36.31c.92-.75,2-1.31,2.5-2.5A4.74,4.74,0,0,0,77,36.31ZM53.61,34.86c-.69-.1-.55,2.79.66,2.76A21.81,21.81,0,0,1,53.61,34.86Zm23.56,2.63c.73-.89,1.89-1.36,2.37-2.5C78.81,35.27,77.09,36.4,77.17,37.49ZM52.69,35.91c-.52-.34-.59,2,.39,1.71C53,37,52.76,36.54,52.69,35.91ZM77,38.54a7.44,7.44,0,0,0,2.5-2.37A4.23,4.23,0,0,0,77,38.54Zm-25.41-2c-.3.18-.51,1.24.26,1.05C51.91,37.17,51.94,36.7,51.63,36.57Zm-10.27,3c.06-.43-.17-1.14.26-1.19.2.07.33.2.53.26-.15-1,1.06,0,1.05-.92.35.06.67.49,1.05.13C43.38,35.79,40.1,37.71,41.37,39.6ZM77,39.73c.91-.76,2-1.31,2.5-2.5A4.63,4.63,0,0,0,77,39.73Zm-12.37-.79s0-.13,0-.13c-6.09-.55-15.18.83-20-.53a12.15,12.15,0,0,0-1.71,1.05c7.16-.08,14.65.17,21.59-.13A13,13,0,0,1,62,43.28H48.34c-.58,0-5,0-2.37.13a102.13,102.13,0,0,0,11.58,0h.26c1.1.39,3.11-.13,4.21.26C58.37,49.75,54.66,55.78,51,61.85c-.29.3-.45-.11-.92,0a48.27,48.27,0,0,0-6.45-20c-.39-.71-.67-1.72-1.45-2.11a58.57,58.57,0,0,1,6.58,15.67,20.53,20.53,0,0,1,.92,6.06c-.65-.53-.67-1.15-1.45-1.58-.62-.34-1.61-.16-1.84-1.05C46,57.47,47.52,56.33,47.69,55c.35-2.74-1.1-3.33-3.55-4.08-.17-2.58,1.75-5.84-.79-7.11-1.37-.68-3.83.21-3.42-2.63-.52.27-1.14.44-1.32,1.05.56,1.19.28,1.86,1.32,2.5s3.06.19,3.42,1.45c.56,2-1.9,3.9-.66,5.79.63,1,2,.5,3.16,1.05,1.64,2.36-1.43,3.45-1.32,5.92-1.17,0-2.37,1-3.16,1.84.93,1.64,3.46.7,3.42-1.19.08,1.55,2.68,1.26,2.76,2.37-.64.15-1.9-.32-2.11.26v.4c.49.39,1.88-.13,2.37.26,0,.77-1.08,1.78-.53,2.24,1.09-.18.7-1.84,1.45-2.37.84.09,2-.17,2.63.13-.21.78-.89,1.71-.79,2.37,1.08-.28.84-1.88,1.58-2.5.79.09,1.93-.17,2.5.13a12,12,0,0,0-.79,2.24c1.54.13.78-2,1.71-2.5,1.12-.15,3,.45,3.16-.66H57.69c.29-.4.5-1.42-.4-1.32-.74.21,0,1-.26,1.32H56c-.7-.76-.6-2.92,1.05-2.5.49-.08,1.31.17,1.58-.13h.53c2.9-1-.12-5.35,1.58-7.11,2.34.19,4.13-.26,4.34-2.24.14-1.3-.88-2.78-.53-3.95C65,44.59,66.11,45.53,68,45c1.44-.41,2.13-2.71,1.58-4.34-.53,0-.79.26-1.32.26.85,4.25-4.58,1.87-5.13,4.74-.24,1.22,1,2.83.53,4.21-.35,1.05-1.73.54-2.9.79-3,.65-1.47,4-1.71,6.71-2.12.74-4.38.29-4.87,2.63-.11.53.19,1.3-.13,2H51.9q6.72-11.12,13.69-22C65.46,39.46,65,39.25,64.67,38.94Zm12.51,2c.72-.9,1.89-1.36,2.37-2.5C78.81,38.69,77.09,39.82,77.17,40.91ZM26.62,43.55c2.91-.6,8-.82,7.64-4.74-2.78,1.74-9.13.61-9.08,4.74,1.34-2.41,3.68-3,5.92-2.9.42-.85,1.08.11,1.45-.79.29.57.69-.26,1.05.13C33,42.91,28.75,42.16,26.62,43.55ZM77,42a6.29,6.29,0,0,0,2.5-2.5A5.07,5.07,0,0,0,77,42Zm-34-2c.15.2.38.32.4.66a1.77,1.77,0,0,0,1.05-.79C44.08,39.94,43.3,39.69,43.08,40Zm4.34-.13c-2-.29-2.44,1-3.29,1.84.13.27.27.52.4.79C45.86,42,46.32,40.6,47.42,39.86Zm-.13,1.45c-.59.58-1.44,1-1.18,1.45.82.25.27-.87.79-.92s.87-.08.79.39a21.14,21.14,0,0,0,2.5-2.37C48.44,39.6,48.08,40.52,47.29,41.31Zm2.37.53c.68-.2.65.31,1.05.39.67-.87,1.54-1.54,2.24-2.37C50.91,39.57,50.63,41.05,49.66,41.84Zm6.19-2c-2.13-.33-2.44,1.15-3.42,2,.71-.18.7.36,1.18.39A13.36,13.36,0,0,1,55.85,39.86ZM52.16,42c-.11.42-.68.37-.79.79h.79C52,42.38,52.52,42.09,52.16,42Zm3.16-.13c.66-.17.56.4,1.05.39a18.1,18.1,0,0,1,2.24-2.37C56.53,39.53,56.21,41,55.32,41.84Zm-.4.13c-.14.35-.52.44-.66.79h.66C54.89,42.53,55.3,42.1,54.93,42Zm6.45-2.11H60.06c-1,.94-2,1.92-3,2.9H58c0-.42,0-.79.26-.92.71-.18.7.36,1.19.39C59.73,41.28,61.5,40.4,61.38,39.86ZM60.85,42c.52,0,.4.56.92.53.52-.93,1.23-1.67,1.71-2.63C62,40,61.82,41.36,60.85,42ZM77,43.15c.91-.76,2-1.33,2.5-2.5A4.63,4.63,0,0,0,77,43.15ZM66.25,41a.84.84,0,0,0-.13,1.18h.66C67.1,41.78,66.88,41,66.25,41Zm-24.75.26c-.26.36-.19,1.27.4,1.18S42.41,41,41.5,41.31Zm36.2,5c-1.36-1.17-2.64-2.31-3.95-3.42-.68-.58-1.42-1.46-2-1.32-.51.8.75,1.51,1.32,2C74.52,44.72,76,45.85,77.31,47c.68.57,1.57,1.47,2.11,1.32C79.38,47.32,78.37,46.89,77.7,46.31ZM77,44.2a6.49,6.49,0,0,0,2.5-2.37A4.49,4.49,0,0,0,77,44.2ZM48.61,42.76a1.12,1.12,0,0,0,.79-.13c0-.2,0-.49-.13-.53C49.07,42.34,48.72,42.43,48.61,42.76Zm-5.13,13a53.28,53.28,0,0,0-5.53-12.9c-.13,0-.16-.11-.26-.13s-.15-.08-.26,0-.16.11-.26.13a58.06,58.06,0,0,1,3.55,6.71c1,2.54,1.63,5.41,2.77,7.9C44.07,57.11,43.61,56.28,43.47,55.79ZM70.72,43.28c1.13.63,1.63,1.88,3,2.24.57,1.45,2.38,1.66,3,3,.37.07.68.19,1.05.26a2.67,2.67,0,0,0,1.71,1.71V49.6c-2.82-2.36-5.57-4.78-8.56-7C70.93,42.88,70.7,43,70.72,43.28Zm6.45,1.84a4.43,4.43,0,0,0,2.37-2.24A5.17,5.17,0,0,0,77.17,45.13Zm-53.05.39c.4-.22,1-.27,1.18-.66C25,42.61,22,44.44,24.12,45.52Zm47-.53a1,1,0,0,0-.79-1.32C69.89,44.36,70.82,44.64,71.12,45Zm6.71.66c.7.1,1.44-.82,1.71-1.58C79.07,44.1,77.79,45.1,77.83,45.65Zm-6.71.66c.14-1.14-.59-1.43-1.32-1.71C69.2,45.39,70.64,45.79,71.12,46.31ZM36.76,48.42c1.49-.31,1.58-3.36,0-3.69C34.12,44.19,34.14,49,36.76,48.42Zm-12.9-.53a1.57,1.57,0,0,1,0-2.24C21.77,43.82,22.39,48.3,23.86,47.89Zm.66-2.24c.57.94-.47,1.58-.26,2.11A9.11,9.11,0,0,0,25.83,47a4.72,4.72,0,0,0,1.05.66c-1.06.39-.6,2.32.13,2.76a17,17,0,0,1,2-1.71C29.06,46,26.88,44.28,24.52,45.65Zm48.58.79c.17-.91-.57-.92-.92-1.32A1,1,0,0,0,73.09,46.44Zm5.4-.26c.46.26,1-.35,1.05-.92C79.19,45,78.64,45.75,78.49,46.18Zm-9.35-.53c.32.95,1.31,1.23,2,1.84A2.05,2.05,0,0,0,69.14,45.65Zm-32.25,7.5A38.51,38.51,0,0,0,33.21,46c0-.1-.11-.15-.26-.13-.72.48,1.19,2.47,1.71,3.42,2,3.63,3.18,8.11,4.21,12C39.23,58.37,37.89,55.61,36.89,53.16ZM23.73,47.1c.5,0,.71-.34.66-.92-.17,0-.18-.17-.39-.13C23.83,46.32,23.39,46.72,23.73,47.1Zm42.39-.79c-.45.33-.35,1.42.53,1.18C67,47.11,67,46.14,66.12,46.31Zm7,1.45c.11-.86-.45-1-.92-1.32A1,1,0,0,0,73.09,47.76Zm-31.73,0c1.49-1.48-1.76-1.09,0,0Zm35.15,14A24.55,24.55,0,0,0,70.33,48c-.45-.49-1.32-1.52-1.71-1.18a36.94,36.94,0,0,0,2.76,3.42,26.83,26.83,0,0,1,5,14.09C77,63.61,76.62,62.55,76.52,61.71ZM75.07,48.15c.06-.9-.5-1.16-1.05-1.45C73.86,47.69,74.54,47.84,75.07,48.15Zm-52.92-.79c-.68,1,.51,2,1.32,2.37C24.32,48.59,23.35,47.8,22.15,47.36ZM72,68.43c.68-.79,3.44-2.93,3.69-3.82.32-1.18-.33-4.05-.66-5.4C73.9,54.39,71,49.6,68,47.5c0,1.25-2.13,2.44-2.11,3.82a15.36,15.36,0,0,0,1.45,2.63,27,27,0,0,1,1.32,2.76A28,28,0,0,1,69,72.9,20,20,0,0,1,72,68.43ZM29.65,50.26V52c2.34.11,2.48-3,1.32-4.21a3.05,3.05,0,0,0-1.18.92C29.48,48.95,29.73,49.77,29.65,50.26Zm43.44-1.32c.06-.77-.49-.92-.92-1.18C72.07,48.56,72.53,48.81,73.09,48.94Zm-49-.79c-.11.42.34.27.4.53a.71.71,0,0,0,.66-.79C24.59,47.75,24.52,48.11,24.12,48.15Zm.13,2.37c.44,0,.21.76.26,1.18-.29.11-.45.34-.92.26.13.49.22,1,.66,1.19.69-1,1.79-1.55,2.37-2.63A4.58,4.58,0,0,1,26,47.89h-.4C24.83,48.7,25.41,50.08,24.25,50.52Zm37.25-1.32a.82.82,0,0,0,.66,0c.16-.36.29-.55.13-.92C61.66,47.72,61,48.65,61.51,49.21Zm13.56.26c.15-1-.53-1.14-1.05-1.45C73.92,48.95,74.56,49.14,75.07,49.47Zm2.11.53c.17-1-.56-1.19-1.05-1.58C76,49.46,76.68,49.61,77.17,50ZM33.6,48.68c-.21.75-1.45.48-1.45,1.45.93.43,1.3,1.42,2,2.11C34.85,51.21,34.52,49.19,33.6,48.68Zm11.85,1.45c2.11-.32-.79-2.17,0,0ZM77.7,53.55c-.61-.62-.9-1.56-2.11-1.58A10,10,0,0,0,72,49.08a44.58,44.58,0,0,0,7.5,6.06C79.32,54.22,78.56,53.83,77.7,53.55ZM23.86,49.21c-.05.53,0,.92.53.92a.76.76,0,0,0,.26-1.05A1.12,1.12,0,0,0,23.86,49.21Zm4.61.53a20,20,0,0,1-4.61,13.82,14.63,14.63,0,0,0-2.37,3.16c4.69-3.2,7.63-9.31,7.77-17.51C28.79,49.18,28.82,49.65,28.47,49.73ZM23.2,51.31a1.69,1.69,0,0,1,.39-1.05c-.6-.19-.85-.73-1.45-.92C21.43,50.12,22.58,51,23.2,51.31ZM39.26,53c1.47-.44,1.31-3.74-.66-3.69C36.26,49.4,36.75,53.78,39.26,53Zm35.81-2.37c.11-.9-.51-1.07-1.05-1.32C73.95,50.2,74.65,50.28,75.07,50.66Zm.92-.79c.06.78.73.93,1.18,1.32C77.27,50.3,76.48,49.73,76,49.87Zm2.11.39c0,1,.75,1.26,1.45,1.58C79.62,50.82,78.56,50.31,78.1,50.26ZM21.49,57c3.88-.25,7.06-2.84,6.19-6.58A52.33,52.33,0,0,0,21.49,57Zm2.11-5.4h.53c.28-.32.1-1-.39-.92C23.62,50.94,23.41,51.39,23.59,51.58ZM31,66.06c2.09-3.44,4.65-9.79,4.08-15,0-.07-.11-.15-.13,0-.65,10.29-4.59,17.57-11.06,21.72-.77.49-2.61.8-2.37,2.37A23,23,0,0,0,31,66.06ZM77.17,52.24c0-.86-.62-1-1.18-1.32C76,51.79,76.66,51.92,77.17,52.24Zm2.37,4.21c-.31-1.41-1.88-2.09-2.9-2.9a13.29,13.29,0,0,0-3.29-2.37A26.41,26.41,0,0,0,79.54,56.45Zm0-3.42c0-1-.86-1.16-1.45-1.58C78.12,52.43,79,52.55,79.54,53Zm-56.61.66c.09-.69.55-2-.26-2.11C22.56,52.08,22.25,53.57,22.94,53.68Zm43.71-.4c-.4-.44-.58-1.09-1.05-1.45C64.41,52.42,65.74,54.53,66.64,53.29ZM28.47,57.5c2.82.53,3.34-4.26,1.05-4.74A46.54,46.54,0,0,1,28.47,57.5Zm5.66,3.42c.18-1.79,2.87-2.77,3-4.48.11-1.19-1-2.58-1.45-3.82C35.53,55.66,34.51,58.54,34.13,60.92Zm45.42-6.85c-.08-.89-.77-1.16-1.45-1.45C78.15,53.54,78.94,53.71,79.54,54.08Zm0,3.55c-.34-1.09-1.45-1.71-2.24-2.37a27.85,27.85,0,0,0-2.63-2C75.62,55.41,77.74,56.37,79.54,57.63ZM62,54.74c0-.19.29-.15.39-.26C62.55,52.5,60.4,54.43,62,54.74Zm-18.17.53c.25,0,.29.15.53.13a1.16,1.16,0,0,0,.26-1.05C44,53.79,43.41,54.73,43.87,55.26Zm-12.64.66c.91.62,1.19,1.88,1.84,2.76.71-1,.74-2.69,1.05-4.08-.27,0-.26-.36-.53-.4C33.38,55.35,31.88,55.21,31.23,55.92Zm-9.87,1.71c1.07,1.35,3.72.48,5.27.13.3-1,1-2.32.79-3.42A8.24,8.24,0,0,1,21.36,57.63Zm19.22.53c1.69-.07,2.2-4-.26-3.82C38.22,54.53,38.62,58.24,40.58,58.16Zm25.41,8c-.1,4.5-2,7.25-3.42,10.4,4.59-3.81,5.52-16.45,1.05-21.59.13,1.38,1.24,2.71,1.71,4.34A20.08,20.08,0,0,1,66,64.87ZM67.3,55.13c-1.08.44-.36,2.5.92,1.71C68,56.18,68,55.35,67.3,55.13Zm-10,.13c-1.49,1.63,2.06.9,0,0Zm22.25,3.69c0-1-1.16-1.57-1.84-2.11a6.13,6.13,0,0,0-2.24-1.45C76.42,57,78.1,57.85,79.54,58.95ZM62.82,56.18C67.48,63.42,64.51,74.5,59,78.56c-.77.57-2.2.91-2.11,1.84C64.4,78,68.41,64.07,63.22,55.92c0-.08,0-.16-.13-.13A.36.36,0,0,1,62.82,56.18Zm-1.45,2.63A2,2,0,0,0,63.88,60a7.39,7.39,0,0,0-1.45-3.16C62.21,57.63,61.58,58,61.38,58.82Zm18.17,1.32c-.49-1.75-2.36-2.11-3.42-3.29C76.58,58.62,78.3,59.13,79.54,60.13Zm-42.39-2.9c-.12.4-.64.41-.66.92a.88.88,0,0,0,1.05.66A2.19,2.19,0,0,0,37.15,57.24Zm11.06,1.32c1.49-1.48-1.76-1.09,0,0ZM35.31,73.82a17.36,17.36,0,0,0,1.58,7.11c.22.47.41,1.33.92,1.19.35-.49-.2-1.16-.4-1.58-3.56-7.64-.58-17.31,4.74-21.06.77-.54,1.92-.7,1.84-1.58-2.63.77-4.53,3-5.92,5.4a19,19,0,0,0-2.76,9A2,2,0,0,0,35.31,73.82Zm-9-11.45c2.67,1.06,3.86-3.28,1.84-4.21C27.75,59.73,26.91,60.9,26.36,62.37Zm-5-3.82c.39,1.59,2.16,1.79,3.95,2,.2-.66,1.29-1.75.79-2.24A7.61,7.61,0,0,1,21.36,58.55Zm58.19,2.9c-.34-1.68-2-2-3-3C76.83,60.13,78.41,60.56,79.54,61.45Zm-10.66-2.9c-1.16.07-1.2,2.2.26,2C69.47,59.93,68.93,59.2,68.88,58.55ZM34.39,61.32c1.26.69,1.9-1.23.92-1.71C35,60.21,34.46,60.51,34.39,61.32ZM23.86,62.63a4.91,4.91,0,0,0,1.05-1.58,11,11,0,0,1-3.55-1.19C21.47,61.51,22.75,62,23.86,62.63Zm55.69-.26a6.92,6.92,0,0,0-2.63-2.24A3.67,3.67,0,0,0,79.54,62.37ZM29.26,61.32c-.31.56.41.9.66,1.45s.15,1.4.66,1.84c.8-.92,2.19-2.87,1.45-4.08C31.51,61.25,30.13,61.35,29.26,61.32ZM61,62.77c1,0,1.27-1.45.39-2.11A1.07,1.07,0,1,0,61,62.77Zm3.29-1.58c-1.76,0-2.36,4.61.53,4.34A16.26,16.26,0,0,0,64.27,61.19Zm14.61,1.45c-.68-.37-1.15-1-1.84-1.32C77.21,62.16,78.23,63.51,78.89,62.63ZM37.29,83.17c-.39-1.37-1.11-2.66-1.58-4.21a20.77,20.77,0,0,1-.92-5.13c-.24-5.2,1.93-9,3.55-12.11,0-.1-.11-.15-.26-.13C33.82,66.17,32.83,78,37.29,83.17Zm-15-18.83A1.9,1.9,0,0,0,23.46,63c-.84-.34-1.28-1.09-2.11-1.45A2.77,2.77,0,0,0,22.28,64.35Zm15.67,1.18c2.35.91,3.66-2.29,2.37-3.82A16.31,16.31,0,0,0,37.94,65.53Zm21.19-3c.56,4.24-.39,7.63-2.24,9.61-.43.46-1.35.72-1.19,1.58,3.18-1.31,5.16-6.57,3.82-11.58h-.39C59.12,62.26,58.9,62.41,59.14,62.5Zm9.61,1.58a2.45,2.45,0,0,0,1.05.13,12.26,12.26,0,0,1-.13-1.84C68.55,62.12,68.45,63.33,68.75,64.08Zm8.69-.4c.12-.23.48-.22.53-.53-.36-.08-.33-.55-.79-.53C77.26,63,77.23,63.46,77.44,63.69ZM26.1,62.9c-1.09,1-1.94,2.27-3,3.29C24.88,68,27.36,65.29,26.1,62.9Zm7.24,0c0,.72-.54,1-.53,1.71C34.06,65.42,34.71,62.91,33.34,62.9Zm9.74,2.24c.88-.08,1.24-2.29-.13-2.24S42.08,65.23,43.08,65.14ZM58.61,62.9a26.8,26.8,0,0,0,0,3c-.23,3.14-1.73,4.84-2.9,6.45C57.94,71.14,59.52,66.84,58.61,62.9Zm20.67,1.32c.3-.14,0-.83.13-1.18-7,3.79-12.22,11-13.56,20.4-.18,1.27-.59,2.8.13,3.95C66.6,75.84,71.34,68.43,79.28,64.21Zm-24.35,2a9.35,9.35,0,0,1-2.5-.13c.26-.75.59-1.43.79-2.24-1.46-.06-.94,1.87-1.84,2.37-.71-.09-1.75.17-2.24-.13.13-.74.82-1.51.53-2.24-1.16.16-.77,1.86-1.58,2.37H45.71c-.34,2,.29,5-1.05,6.06.64.5-.5,1.4-.39,2.24,1.27-.09.91-1.81,1.71-2.37.79.09,1.93-.17,2.5.13-.17.73-.81,1.61-.66,2.24,1.25-.11.86-1.86,1.71-2.37.7.09,1.75-.17,2.24.13a15.13,15.13,0,0,0-.66,2.11c1.41.1.86-1.78,1.71-2.24h2.37c.37-2-.34-5.08,1.05-6.06-.83-.39.54-1.42.4-2.37C55.38,63.83,55.68,65.54,54.93,66.19Zm-9.21-.26c.21-.67.5-1.26.66-2h-.66A3.11,3.11,0,0,0,45.71,65.93ZM21.36,65.4a.72.72,0,0,0,.66-.66c-.17-.23-.27-.52-.66-.53Zm20.27,6.32c.27-3,1.67-4.69,3.55-6.45.17-.16-.13-.67,0-.79-3.06,1.27-5.49,7.12-3.55,11.72C41.8,74.44,41.51,73.05,41.63,71.72Zm19.75-4.61c.83-.07,1.12-1.4.39-2.11C59.67,64.72,60.24,67.21,61.38,67.11Zm14.88,0a3.66,3.66,0,0,1,2.63,1.05c.87-.23.62-2.67.26-3.29C78.1,65.54,76.61,65.75,76.25,67.11ZM25.17,73.56c.33,8,3.25,13.42,7.77,17.25.53-1.49,1.61-2.43,2.11-3.95-3.83-4.46-5.38-14.49-3.16-21.46C30.22,68.69,27.71,71.14,25.17,73.56Zm17.11,1.71c-.34-3.9.75-7.38,2.9-9.21,0-.1,0-.26-.13-.26C42.85,67.54,41.43,71.34,42.29,75.27ZM26.23,66.19c-.53.73.62,2.32,0,3.56.72.14,1.38-.67,1.84-1.19a3,3,0,0,0,1.05-2.24A3.08,3.08,0,0,1,26.23,66.19Zm43.31,2a5.07,5.07,0,0,0,.13-2C68.35,66,68.28,68.24,69.54,68.16ZM32,66.45c0,.71-.31,1.18-.39,1.84C32.94,68.63,33.26,66.45,32,66.45Zm4.34,4.48c2.53.3,2.59-3.47,1.05-4.34A20.88,20.88,0,0,0,36.36,70.93ZM21.49,67.37c.08.79-.17,1.93.13,2.5C23,69.71,23.11,65.4,21.49,67.37Zm19.22,1.45c.79-.11,1-1.29.4-2C39.18,66.07,39.22,69,40.71,68.82Zm22.78,2.76a16.37,16.37,0,0,0,1.05-4.34C62.13,67.2,61.72,70.62,63.48,71.59Zm14.88-.13c.55,0,.55-.5,1.05-.53v-2.5C78.19,68.67,78,70.34,78.36,71.46Zm-3.69-2.9c-.17,0-.18-.17-.39-.13-1.05.93-2.32,1.63-2.5,3.42a3.11,3.11,0,0,1,2.9.26C75.2,71.3,74.08,69.83,74.67,68.56Zm-14.22,3c.82-.08,1.33-2.34-.26-2.11C58.87,69.68,59.48,71.69,60.46,71.59Zm8.29.26A12.32,12.32,0,0,0,69.28,70C68.19,69.4,67.55,71.65,68.75,71.85ZM21.88,70.14c-.71.36-.39,2.39-.26,3.16a4.9,4.9,0,0,0,3-2A11.49,11.49,0,0,1,21.88,70.14ZM31.1,72c1.49.42,1.54-2,.26-1.84C31.07,70.55,31.37,71.55,31.1,72ZM38.87,73c1,.82,2-.44,1.45-1.58C39.32,70.59,38.25,71.89,38.87,73ZM74.8,75.4c1.06-1.09,1.94-2.36,3-3.42C75.69,70.22,73.53,73.28,74.8,75.4ZM71.64,89.1h.13c1-.45.59-1.64.66-2.76A20.46,20.46,0,0,1,77,74.75a16.81,16.81,0,0,0,2.37-3.16c-4.57,2.94-7.34,8.81-7.77,16.32C71.39,88,71.48,89.47,71.64,89.1Zm-17-14.74c.37.11.34-.19.66-.13-.08-.57.17-1.49-.13-1.84C55,73,54.5,73.84,54.66,74.35Zm5.92,2.11A14.1,14.1,0,0,0,63,72.77C60.89,71.57,59.12,75,60.59,76.46ZM36.1,72.64a11.26,11.26,0,0,0,.66,4.48C38.54,76.56,38.63,72.44,36.1,72.64Zm42.78.92c.17.23.27.52.66.53-.12-.36.27-1.24-.26-1.19C79.24,73.21,78.82,73.15,78.89,73.56Zm-29,2.76c.35,0,.75,0,.92.13a47.34,47.34,0,0,0,7.9,22.12c-3.54-6.16-6.81-13.28-7.5-21.85.72.48.36.93,1.05,1.45s2,.26,2.24,1.18c.39,1.3-1.13,2.44-1.32,3.95-.13,1,0,2.52.92,3.16.75.52,1.83,0,2.63.92.16,2.49-1.54,5.15.26,6.71.92.8,2.16.17,3.16.79.71.44.65,1.36.92,2.24.24-.51,1.1-.39,1.18-1.05-.53-1.16-.18-1.57-.92-2.24-1-.88-3.43-.38-3.82-1.71-.53-1.82,1.49-3.47.92-5.27-.36-1.12-1.64-1.36-3.16-1.45-2.1-2.15,1.12-3.69,1.05-6.19,1.27.2,2.16-1.08,3.16-1.58-.64-1.89-3.67-.95-3.42,1.05-.16-1.51-2-1.32-2.76-2.24.4-.43,1.92.26,2.11-.39.25-1.3-1.84-.27-2.37-.79.17-.74.89-1.53.66-2.24-1.12.15-.85,1.7-1.45,2.37H49.53c.11-.74,1.14-1.9.66-2.37-.89.38-.69,1.86-1.45,2.37h-2.5A11.9,11.9,0,0,0,47,73.17c-1.46-.1-.84,1.89-1.71,2.37-1.14.13-3-.42-3.16.66.14.3.94-.06,1.05.26a.68.68,0,0,0,.26,1.19c.76-.24.29-1.08.26-1.32h1.32a2.87,2.87,0,0,1,.13,2.11c-1.88.72-4.57-.09-4.87,2.5-.23,2,1.53,4.7-.53,5.27-.6.16-1.81-.29-2.37-.13-2.53.7-1.1,3.82-1.05,6.19-.5,1.44-2.15.7-3.42,1.05-1.59.44-2,2.65-1.58,4.34a5.71,5.71,0,0,1,1.32-.26c-1.29-4.26,4.53-1.68,5.13-4.74.32-1.62-.7-2.18-.53-4.34.1,0,.15-.11.13-.26.75-.81,1.54-.23,2.5-.39,2.9-.49,2.12-3.5,1.84-6.58.58-1,1.91-.42,3-.66,1.81-.38,2.09-2,2.11-4.08H49c-3.88,6.49-8.62,13.85-12.64,20.27-.45.73-1.67,2.09-.13,2.76h.13c5.71.31,12,0,17.9.13,1.73.34,2.45.61,3.55-.53-7.11.09-14.56-.17-21.46.13A11.45,11.45,0,0,1,38.87,95h17c-.2-.45-2.78-.26-4.21-.26-4.3,0-9,.11-12.77-.13C42.47,88.44,46.32,82.5,49.92,76.33Zm8.56-3c-1.35-.62-1.91,1-1.18,1.84C58.64,75.79,59.21,74,58.48,73.3Zm9,2.11a4.12,4.12,0,0,0,.66-1.84C66.83,72.9,66.31,75.08,67.43,75.4Zm1.45,2.37c.37-.86,1.75-.7,2.76-.92-.06-.86-1.12-1.74-1.05-3.16C69.33,74.23,68.19,76.55,68.88,77.77Zm8.56-2.5c.91.27,1.28,1.09,2.11,1.45a2.55,2.55,0,0,0-1.18-2.9C78.08,74.34,77.5,74.55,77.44,75.27ZM31.1,90C27.47,86.12,25,80.87,24.65,74c-.78.65-.36,1.89-.26,2.63a22.61,22.61,0,0,0,7.9,15C32.39,90.79,31.51,90.45,31.1,90Zm.26-14.09c.95.12,1.08-1,.79-1.71-.28-.11-.45-.34-.92-.26A4.06,4.06,0,0,0,31.36,75.93Zm-8.43-1.05c0,.44.39.57.66.79.21-.21-.12-.55,0-1.05C23.27,74.59,23.19,74.82,22.94,74.88Zm-.79.53c0,.5,1.06,1,1.58,1.45A1.43,1.43,0,0,0,22.15,75.4Zm17.77,2.24c.86,0,1.19-1.08.66-2C38.66,74.89,38.58,77.63,39.92,77.64ZM76,77.25c1.5,0,2.69.9,3.55,1.05-.18-1.62-1.49-2.11-2.63-2.76C76.73,76.24,76.12,76.5,76,77.25ZM21.36,75.8c.47,1.2,1.71,1.63,2.63,2.37A3.92,3.92,0,0,0,21.36,75.8ZM72.7,80.14a29.26,29.26,0,0,1,1.84-4.21C71.76,74.79,70.74,79.21,72.7,80.14Zm-10,1.71a44.77,44.77,0,0,0,4.21,9.22c.2.35.49,1.53,1.18,1.05.23-.53-.38-1.07-.66-1.45-2.62-3.6-4.2-8.49-5.13-13.56-.08,0-.16,0-.13-.13s0-.16-.13-.13C61.52,78,62.18,80.18,62.69,81.85Zm3-3.29c.12-.67.76-.82.79-1.58C65.51,76,64.33,78.29,65.72,78.56ZM24.38,79.75c-.41-1.56-1.82-2.13-3-2.9C21.74,78.45,23.29,78.87,24.38,79.75Zm39.36,2c-.16,1.27,1,2.64,1.45,3.95a46.93,46.93,0,0,1,1.71-8.56C66.71,78.73,63.92,80.35,63.75,81.72ZM31.89,77.64c-.6.42.11,1.34.13,2C33.25,79.68,33,77.5,31.89,77.64Zm43.71.13a9.38,9.38,0,0,0-1.05,2.11,12.21,12.21,0,0,1,5-.26C79.21,78.11,77,77.78,75.59,77.77ZM37,78.17a16.56,16.56,0,0,0,1.18,3.16,3.8,3.8,0,0,0,1.32-2A2.28,2.28,0,0,0,37,78.17ZM24.78,81.33c-.52-1.67-2.11-2.28-3.42-3.16C21.94,79.78,23.61,80.3,24.78,81.33Zm-3.42-1.45c.61.43,1.28,1.15,2,1.71s1.68,1.31,2,1.19c-.87-1.59-2.5-2.41-3.95-3.42Zm42-.39a1.66,1.66,0,0,0,.39,1.45c.12-.4.64-.41.66-.92A.88.88,0,0,0,63.35,79.49ZM67.17,84a7.36,7.36,0,0,1,2.5-1.58A7.06,7.06,0,0,1,68,79.49C67.22,80.37,66.48,82.92,67.17,84ZM52.42,80.8a.82.82,0,0,0,.66,0c.18-.17.13-.57.13-.92C52.59,79.33,52,80.27,52.42,80.8Zm21.72-.13a20.89,20.89,0,0,0-.79,3c1.41-1.14,3.24-3,6.19-3C78.61,79.2,75.36,80.07,74.15,80.67Zm-14,3.16c2.42.26,2.44-4.32-.26-3.69C58.3,80.53,58.51,83.65,60.19,83.83ZM21.36,81.07c1.59,1.36,3.19,2.69,4.87,3.95-.9-2.21-3.14-3.09-4.87-4.48Zm36.2-.39c-.83.32-.29,1.28-.13,1.84a51.86,51.86,0,0,0,3.95,10c.53,1,1.21,3.26,2.37,2.76C61.07,91.55,59.12,86,57.56,80.67Zm13.82,4.87a36.83,36.83,0,0,1,1.05-4.74C69.49,80.22,69.18,85.05,71.38,85.54Zm-38.7-4.08a9.18,9.18,0,0,0,.66,1.71C34.79,83,33.87,80.4,32.68,81.46ZM73,87.91a34.48,34.48,0,0,0,6.45-6.71C75.66,81.83,72.74,83.3,73,87.91ZM21.36,82.38c2,1.56,4.15,3.66,6.19,4.74-1.6-2.26-4-3.7-6.19-5.4Zm22,.66a.69.69,0,0,0,.39-1.19C42.78,81.63,42.79,82.82,43.34,83Zm33.83,2.11c.52-.18.17-1.23,1.19-.92.94.73.1,1.86.26,2.76.09.5.6.86.66,1.32s-.39.59-.39,1.05.75.66.39,1.18c-.56.7-.66,1.06-.53,2.37-.73.33-.78,1.33-1.32,1.84-.22.22-.77.1-1.18.13a7.09,7.09,0,0,1-1.05,2.24c-1.65,1.87-5.11,1.17-7.5,2.11-.76.3-1,.9-1.71.92.31-1.91.53-3,1.58-3.95,1.95-1.79,5.68-.68,7.37-2.76-2.33.09-3-1.44-3.29-3.42-3.71,2.83-7.19,5.88-11.45,8.16.43,2.78-1.57,4.33-3.69,3-.11,1.3,1.43,1.35.79,2.77.19.3.86.11.79.66s-.31.83-.26,1.45c.85.74,2.29,1,2.37,2.11.09,1.28-2.43,4-2.5,5.13.28,1.09.94,1.78.79,3.29.81,1.16,1.63,2.28,2.5,3.55.55.81,1.73,3.26,2.63,3.55s2.71,0,3.95,0H79.41c.22-13.56.22-28,0-41.6C78.82,83.2,77.17,83.9,77.17,85.15ZM56.11,83.7c.21.15.27.43.66.39C58,83.53,56,82.05,56.11,83.7ZM23.33,84.75c1.52,1.81,3.64,3,5.4,4.61-.57-1.49-2.2-2.31-3.42-3.29a42.38,42.38,0,0,0-3.95-3C21.49,84.14,22.42,84.43,23.33,84.75Zm15.67,0c.44,0,.52-.86.26-1.19C38.31,83.27,38.19,84.79,39,84.75Zm-16.19.79a1.9,1.9,0,0,0-1.45-1.32C21.48,85,22.29,85.62,22.8,85.54Zm11.59-.79a1.73,1.73,0,0,0,1.05,1.58C36.17,85.66,35.45,84,34.39,84.75Zm43.84,2c.08-.47.48-2.05-.26-2.11C77.72,85.22,77.43,86.53,78.23,86.73Zm-17.64.13a1.67,1.67,0,1,0,3.29,0c-.06-1-.53-2-2-1.71A1.78,1.78,0,0,0,60.59,86.86Zm13.56.79c.73.54.5,2,1.05,2.76.39-.78.89-.92.66-2.11.2-.15.27-.43.66-.39-.07-.37-.19-.68-.26-1.05.24-.28.38-.67,1.05-.53-.13-.49-.22-1-.66-1.19A31.14,31.14,0,0,1,74.15,87.65ZM22.8,86.73c-.11-.86-.82-1.12-1.45-1.45A1.67,1.67,0,0,0,22.8,86.73Zm44.5,2.9c.2-.77,1.38-.55,1.45-1.45a4.45,4.45,0,0,1-1.84-2.24C65.93,86.51,66.33,89.1,67.3,89.62ZM24.91,87.25c-.06-.73-.64-.94-1.18-1.19A1.18,1.18,0,0,0,24.91,87.25Zm46.47-.92c-2.2-.54-2.91,3.09-1.32,4.21C71.62,90,71.07,88,71.38,86.33ZM22.67,88c.07-1-.66-1.28-1.32-1.58C21.28,87.51,22.11,87.64,22.67,88Zm54.5-.39c.18-.19.27-1-.13-1.05S76.49,87.68,77.17,87.65Zm.13.39c.6.19.85.73,1.45.92.69-.81-.41-1.67-1.05-2A3.44,3.44,0,0,1,77.31,88Zm-52.53.53c.14-1-.57-1.1-1.05-1.45C23.6,88.08,24.33,88.18,24.78,88.57Zm2.11.39c.07-.86-.64-.94-1.05-1.32C25.72,88.55,26.34,88.72,26.89,89Zm-3.56,1.45c2.3,1.92,4.56,3.75,6.58,5.27.74-1.31-1.57-1.5-1.84-2.63a4.9,4.9,0,0,1-.92-.26c-.56-1.46-2.37-1.67-3-3-.37-.07-.68-.19-1.05-.26a2.63,2.63,0,0,0-1.71-1.71C21.21,89.07,22.52,89.73,23.33,90.41Zm51.34-.66c-.23-.69-.13-1.72-.92-1.84-.43,1-1.65,1-1.84,2-.42,2.19,2.5,4.37,4.48,2.63,0-.42-.35-.44-.26-.92s.68-.46.66-1.05c-.76.07-1.14.53-1.71.79-.27-.25-.64-.42-.92-.66C74.29,90.33,74.62,90.19,74.67,89.75Zm-19.62-.39c.59.08.66-.83.4-1.19C54.49,87.95,54.51,89.13,55.06,89.36Zm21.2-.13c.74.2,1-.6.66-1.05C76.2,88.09,76,88.67,76.25,89.23Zm-51.47.66c.17-1-.56-1.19-1.05-1.58C23.53,89.38,24.34,89.45,24.78,89.89Zm52.13-.26c.85.2.78,1.33,1.84,1.32.53-1.25-.49-2-1.32-2.37A1.88,1.88,0,0,1,76.91,89.62Zm-50,.53c0-.82-.58-1-1.05-1.32A1.1,1.1,0,0,0,26.89,90.15Zm12-1.18a.84.84,0,0,0-.13,1.18C39.76,90.42,39.76,88.83,38.87,89ZM28.73,90.54c.1-.8-.35-1.05-.92-1.18C27.74,90.12,28.29,90.28,28.73,90.54ZM25.31,93.7c1.49,1.29,2.53,2.66,4,3,.3-1-.91-1.4-1.45-1.84-2-1.64-4.08-3.37-5.92-5-.17,0-.18-.17-.39-.13C21.71,91.4,24.14,92.7,25.31,93.7Zm50.42-3.29a1,1,0,0,0,1.05-.53A.6.6,0,0,0,75.73,90.41ZM64.54,93.57c2.13,0,2.24-4.46-.53-3.69C62.36,90.34,62.75,93.56,64.54,93.57ZM26.89,91.46c.12-.91-.55-1-1.05-1.32A1.14,1.14,0,0,0,26.89,91.46Zm50.68-.13c.12.81-1.09,1.5.39,1.84.27,0,.26-.36.53-.39A2.36,2.36,0,0,0,77,90.28C76.87,91,77.49,90.78,77.57,91.33Zm-48.84.53c.08-.83-.24-1.25-.92-1.32C27.7,91.4,28.26,91.59,28.73,91.86Zm30.54-1.32a.84.84,0,0,0,.13,1.18c.33,0,.41-.21.66-.26C60.14,90.82,59.93,90.45,59.27,90.54ZM34.65,92a.88.88,0,0,0,.39-.92C34.24,90.14,33.5,91.91,34.65,92Zm-2.9.66c-.3-1-1.28-1.26-2-1.84A2.09,2.09,0,0,0,31.76,92.65Zm44.89-.4c.5,0,.51-.54.66-.92C76.77,90.84,76.23,91.79,76.65,92.25ZM21.36,92c.35,0,.43-.18.4-.53C21.41,91.43,21.32,91.65,21.36,92ZM28.73,93c.06-.76-.29-1.12-.92-1.19C27.68,92.69,28.23,92.85,28.73,93Zm-7.37.13a1.69,1.69,0,0,0,1.05-1.05C21.93,91.88,21.33,92.49,21.36,93.18Zm9.74.53c.62-.82-.84-1.19-1.32-1.71C29.65,93.14,30.37,93.42,31.1,93.7Zm-9.74.53c.61.05,1.22-1,1.71-1.45C22.52,92.3,21.59,93.54,21.36,94.23Zm54.24-.79c.18.84,1.25,1.64,2,.79C77.84,92.62,76.15,92.55,75.59,93.44Zm-54.24,2a6,6,0,0,0,2.37-2.24A4.13,4.13,0,0,0,21.36,95.41Zm9.21-.79c.38-.68-.3-1-.79-1.18A1,1,0,0,0,30.57,94.62Zm-9.21,2c.86-.73,2.43-1.43,2.37-2.63C23,94.92,21.67,95.25,21.36,96.6Zm3.55-.92c0-.78.07-1.56-.53-1.71v22.25c-.82,1.06-2.58,1.9-2.76,3.16.88-1.09,2.13-1.82,3-2.9.31-.88,0-2.32.13-3.42V99.89A26.15,26.15,0,0,0,24.91,95.68Zm41.6,3.69c3-1.54,9.27-.56,9.21-4.74a4.15,4.15,0,0,1-4.21,2.63,1.44,1.44,0,0,1-1.71.39c-.89.68-1.33.43-2.5.79.23-3.2,5.8-2.44,7-3.82C71.09,95.6,66.64,95.33,66.51,99.36Zm-41.21,10c2-1,3-3.69,2.77-6.45,4.49,2.49,5.6,13.91.92,17.11-.18-3.15-1.37-5.3-3.69-6.32v3c-.69,1.24-3.55,2.42-3.95,3.82a11.37,11.37,0,0,0,.13,3.16h10c.82-1.35,1.8-2.73,2.76-4.34.71-1.18,2.4-3.32,2.5-4.61A12.24,12.24,0,0,0,36.1,112c-.62-3-.81-5.92-2.11-8.16-3,1.71-6.22-2.33-4-5.27-1.64-1.13-2.86-2.67-4.61-3.69C25.52,99.84,25.32,104.52,25.31,109.37ZM21.36,97.65a5.48,5.48,0,0,0,2.5-2.37A5,5,0,0,0,21.36,97.65Zm22.51-2.11h-.92c.05.53,0,.92-.53.92S42,96,41.5,96.07c-.51,1-1.51,1.47-2.11,2.37C42.06,98.65,42.31,96.45,43.87,95.55Zm2,.66c.44,0,.57-.39.79-.66H46C46.08,95.92,45.79,95.89,45.84,96.2Zm-3.55,2.24c2,.29,2.32-1.19,3.29-2C44,95.54,43.42,97.74,42.29,98.44Zm7.24-2.9h-.79c.15.35-.25.77,0,.79C48.85,95.92,49.42,96,49.53,95.55Zm-2.24.53c-.54,1-1.5,1.49-2.11,2.37,2,.26,2.33-1.18,3.29-2C47.76,96.65,47.78,96.11,47.29,96.07Zm4.34.13c.09-.35.6-.28.66-.66h-.66C51.71,95.78,51.25,96.09,51.63,96.2Zm2.24.26c-.58.14-.43-.45-.92-.39-.62.91-1.54,1.53-2.24,2.37,2.55.14,3-1.85,4.34-2.9H54.4C54.32,96,54.37,96.48,53.87,96.47Zm2.37-.79a27.58,27.58,0,0,0-2.63,2.76C55.46,98.6,57.38,96.87,56.24,95.68ZM37.42,98.44c1.31-.27,1.78-1.38,2.5-2.24-.47.07-.32-.47-.79-.39A29.7,29.7,0,0,0,37.42,98.44ZM59.14,97c.3-.1.39-.4.53-.66C59.28,95,57.84,96.73,59.14,97Zm-25,.13h.66C35.56,95.73,33.35,95.73,34.13,97.13Zm13.82,1.32c2,.26,2.33-1.18,3.29-2-.71.18-.55-.5-1.18-.39C49.59,97.1,48.56,97.57,47.95,98.44Zm-26.59.4c.92-.66,2.42-1.45,2.37-2.63C23,97.16,21.76,97.57,21.36,98.84Zm0,1.18c.93-.73,2-1.31,2.5-2.5A4.85,4.85,0,0,0,21.36,100Zm35-1.58h1.45a1.1,1.1,0,0,0-.53-.92A4.08,4.08,0,0,0,56.37,98.44ZM36,99.76a4.5,4.5,0,0,0-3.29-1.84c-3.79.08-4,6.63.53,5.79.54-.26,1-2.25-.13-2.24-.34.48.23,1-.39,1.45-1.94,1.52-3-2.59-1.84-3.82,1.4-1.44,3.81-.13,4.61.79,3.14,3.62,2.77,11,5,15.8C38.87,111.06,38.76,103.38,36,99.76Zm-14.61,1.32a5.67,5.67,0,0,0,2.5-2.37A4.9,4.9,0,0,0,21.36,101.07Zm37.91-1.18a.58.58,0,0,0-.53-.26c.08,1-1,0-1.05.92-.4,0-.47-.41-1.05-.26.41,2,4.1.71,3-1.71C59.38,98.86,59.71,99.76,59.27,99.89Zm-24.88-.26c-.77-.59-2.73-.76-3.29,0-.72,1-.14,3.78,1.45,2.63-3-1.06,0-3.6,2-2.11,3.32,2.52,2.84,12.29,4.87,15.27C38.17,111.59,37.82,102.25,34.39,99.63Zm-13,2.63a8,8,0,0,0,2.5-2.37c0-.1,0-.26-.13-.26C23,100.61,21.67,100.9,21.36,102.26ZM53,100.15c-2.78.82-5.92,3.66-6.45,6.32,1.26-.22,1.74,2.06.79,2.11a1,1,0,0,0-.66-1.45c-1.52,2.8-.14,7.33.79,9.74,3.44.2,7.58.3,10.53-.4.43-1.44-.78-2-.79-3,0-1.9,2.23-3.26,2.37-5.4-.53-.75-1.62-.93-2.11-1.71-.09-.49.22-.56.13-1.05-.54-.38-1.6-.25-1.84-.92-.58-.14-.43.45-.92.4.06-.85-.42-1.16-.53-1.84.63.32,1.79,1.11,2.63.4-.32-.82-1.07-1.21-.79-2.63A3.09,3.09,0,0,0,53,100.15Zm-18.83.39c-.69-.45-3.06-.64-2.11,1.05a1.4,1.4,0,0,1,2.11-.26c2.17,1.82,2.55,8.38,3.55,11.32C37,109.26,36.53,102.11,34.13,100.55Zm4.34,14.61a5.53,5.53,0,0,0-.53-1.45C38,114.27,38,115,38.47,115.16Zm2.9.79c-1.67-4.65-1.4-11.24-3.82-15.14-.16,0-.3-.23-.39,0C39.77,104.64,39.11,111.76,41.37,116Zm-1.45-11.58c-.3-1.42-.59-3-1.71-3.69A35.74,35.74,0,0,1,40.58,109,38.51,38.51,0,0,0,39.92,104.37Zm1.71,10.27c-.37-1.47-.62-3.07-.92-4.61A12.08,12.08,0,0,0,41.63,114.63Zm1.58,1.58c-2.35-4-1-11.73-3.55-15.53-.15,0-.37,0-.4.13C41.63,104.89,40.53,112.44,43.21,116.21Zm-2.5-15.53h-.26c2.21,3.71.85,12.14,3.69,15.67C41.84,112.28,43.24,104.52,40.71,100.68Zm4.08,15.4c-1.87-4.18-.84-11.27-2.76-15.4h-.4C43.54,105,42.43,112.26,44.79,116.08Zm1.05.53c-1.79-3.92-.86-11.69-2.76-15.93h-.39C44.64,105.09,43.23,112.86,45.84,116.61Zm-.4-8.16c-.26-2.9-.2-6.12-1.71-7.77,1.92,4.45.56,12.16,3,16.06a22.66,22.66,0,0,1-1.32-6.85A1.68,1.68,0,0,0,45.45,108.45Zm-.79-7.77c.75,1.62.93,3.81,1.32,5.79C46.17,104.42,45.83,101.8,44.66,100.68Zm1.05,0a33.65,33.65,0,0,0,1.05,3.95C46.68,103,46.69,101.36,45.71,100.68Zm1.71,2.9c.68-.7,0-1.91-.13-2.9-.19.07-.68-.15-.66.13C47.1,101.53,47.06,102.76,47.42,103.58Zm.79-1.19c.79-.07.18-1.27.13-1.71-.2,0-.49,0-.53.13A4.07,4.07,0,0,1,48.21,102.39Zm1.19-.79c.14-.16.37-1.14-.26-.92C48.85,100.85,49,101.69,49.4,101.6Zm-28,1.71a5.64,5.64,0,0,0,2.5-2.37A5,5,0,0,0,21.36,103.31Zm0,1.19c.92-.66,2.42-1.45,2.37-2.63C23,102.81,21.75,103.22,21.36,104.5Zm12.9-1.84c.45,2,1.42,3.84,1.84,6.06s.51,4.34,1.45,6.19C36.43,110.83,36.17,105.92,34.26,102.65Zm-12.9,3c.92-.75,2-1.31,2.5-2.5A4.85,4.85,0,0,0,21.36,105.68Zm8.56,1.84a12.64,12.64,0,0,1,.79,5.92c-.23,2.07-1.71,3.46-1.32,5.53,3.36-2.77,2.77-12.65-.92-15C28.46,105.67,29.43,106.29,29.91,107.53Zm-8.56-.79a5.85,5.85,0,0,0,2.5-2.37A4.9,4.9,0,0,0,21.36,106.74Zm0,1.19c.91-.67,2.4-1.46,2.37-2.63C23,106.23,21.75,106.64,21.36,107.92Zm0,1.18c.91-.76,2-1.31,2.5-2.5A4.85,4.85,0,0,0,21.36,109.11Zm7.77-1.71c.08-.61-.72-.33-1.18-.39v.39Zm-7.77,2.77a6.09,6.09,0,0,0,2.5-2.37A4.78,4.78,0,0,0,21.36,110.16Zm5.4-1.19c.89-.16,2.44.33,2.9-.26C29,108.56,27,108.29,26.75,109Zm-5.4,2.37c.88-.7,2.42-1.44,2.37-2.63C23,109.66,21.71,110,21.36,111.34Zm5-1.84c-1.07.19.81,0,.92.26h2.24c.41-.11.5-.34-.13-.26A7.05,7.05,0,0,0,26.36,109.5Zm-5,3c.91-.76,2-1.32,2.5-2.5A4.63,4.63,0,0,0,21.36,112.53Zm8.56-2.37h-.4c-1.2.23-3.63-.49-4.08.39a8.25,8.25,0,0,0,4.61,0A.62.62,0,0,0,29.91,110.16Zm-8.56,3.42a6.09,6.09,0,0,0,2.5-2.37A4.68,4.68,0,0,0,21.36,113.58Zm4.08-2.24v.26c1.05.31,2.68,0,4,.13.09-.3.91.12.79-.4H30A16.22,16.22,0,0,0,25.44,111.34Zm-4.08,3.42c.86-.73,2.43-1.43,2.37-2.63C23,113.08,21.7,113.44,21.36,114.77Zm4.08-2.37c1.24.14,3.72.39,4.74-.13C28.94,112.13,26.46,111.88,25.44,112.4Zm.66.53c-.26.32-.56-.22-.66.26,1.2.13,3.63.39,4.61-.13C29,112.75,27.37,113,26.1,112.92Zm-4.74,3c.91-.76,2-1.33,2.5-2.5A4.63,4.63,0,0,0,21.36,116Zm5.4-2c.5.31,2.89.62,3.16-.13-.84-.31-2.24,0-3.29-.13C26.65,113.81,26.63,114,26.75,114Zm-5.4,3c.93-.65,2.43-1.43,2.37-2.63C23,115.33,21.76,115.74,21.36,117Zm6.32-2.24c.2.42,1.91.42,2.11,0-.43.08-.61-.09-.92-.13S27.36,114.52,27.68,114.77Zm.53.92c.19.32,1.32.48,1.32-.13C29.12,115.64,28.38,115.39,28.2,115.69Zm-6.85,2.5c.8-.78,2.4-1.46,2.37-2.63C23,116.51,21.67,116.84,21.36,118.19Zm13.56,5.4a2.37,2.37,0,0,0,1.71,0,15.36,15.36,0,0,0,4.48,0,1.4,1.4,0,0,0,1.32,0,2.79,2.79,0,0,0,1.84,0c.22.25,1.21.17,1.45,0a24.45,24.45,0,0,0,5.66,0,2,2,0,0,0,1.58,0c.39.27,1.24.07,1.84.13v-.13c.28.24,1,.09,1.45.13h3.29c.4-.08,1.13.17,1.32-.13.22.22.77.11,1.19.13-1.1-2-2.45-3.69-3.69-5.53-7.12,1.26-15.39.12-21.19-1.58-1.2,2.48-2.86,4.51-3.95,7.11C33.77,123.66,34.56,123.85,34.92,123.59Z"/><path class="cls-4" d="M50.32,67.77c2-.49,1.73,3.32-.26,2.63C48.93,70,49.11,68.06,50.32,67.77ZM50.45,70c.88.12,1.26-1.15.53-1.84A1,1,0,1,0,50.45,70Z"/><path class="cls-3" d="M49,76.33h.92c-3.61,6.18-7.46,12.11-11.06,18.3,3.74.24,8.47.13,12.77.13,1.43,0,4-.19,4.21.26-5.35-.22-11.63-.22-17,0a11.45,11.45,0,0,0-2.5,4.08c-.13,0-.1.16-.13.26-1.54-.67-.32-2,.13-2.76C40.38,90.17,45.12,82.82,49,76.33Z"/><path class="cls-3" d="M66.91,77.12a46.93,46.93,0,0,0-1.71,8.56c-.41-1.3-1.6-2.68-1.45-3.95S66.71,78.73,66.91,77.12Z"/><path class="cls-4" d="M38.21,52a1.28,1.28,0,0,1-.13-1.32C39.7,49.78,39.74,52.69,38.21,52Z"/><path class="cls-4" d="M61.51,81.07a1.54,1.54,0,0,1-1.18,2.5C57.37,83.43,60,78.58,61.51,81.07Zm-.66-.13c-1.46-.26-1.66,1.24-1.05,2C61.26,83.69,61.87,81.54,60.85,80.93Z"/><path class="cls-4" d="M36.1,45c2.06-.26,2.08,2.84.66,3.16C34.85,48.59,34.14,45.24,36.1,45Zm1.18,1.32c-.37-1.78-2.94-.16-1.45,1.32C37.06,47.84,37.42,47,37.29,46.31Z"/><path class="cls-4" d="M36.89,47.23c-3.1.51.56-3.36,0,0Z"/><path class="cls-4" d="M38.21,49.73c2.21-.72,2.34,3.09.53,3.16C37.15,53,36.69,50.23,38.21,49.73Zm.53,2.63c1-.06,1.28-2.48-.26-2.24C37.21,50.33,37.72,52.43,38.73,52.37Z"/><path class="cls-4" d="M40.45,54.6c2.1,0,1.65,3.22.13,3.29C38.85,58,38.39,54.65,40.45,54.6Zm0,2.76c.74,0,1.05-.59.92-1.71C39.83,53.84,38.72,57.34,40.45,57.37Z"/><path class="cls-4" d="M41,57c-.37-.11-.34.19-.66.13A1,1,0,0,1,40,55.53C41,55.15,41.51,56.23,41,57Z"/><path class="cls-4" d="M60.19,81.2c1.2-.27,1,1.52.26,1.58S59.27,81.4,60.19,81.2Z"/><path class="cls-4" d="M61.9,85.41c2.11-.4,2.12,2.83.79,3.16C60.84,89,60.06,85.75,61.9,85.41Zm1.32,1.45C63,84.65,59.91,87,61.77,88A1.11,1.11,0,0,0,63.22,86.86Z"/><path class="cls-4" d="M62,86.2c1.2-.27,1,1.52.26,1.58S61.12,86.41,62,86.2Z"/><path class="cls-4" d="M64.8,90.15c1.72.37,1.4,3.19-.26,3.16S62.62,89.67,64.8,90.15Zm-.26,2.63c.49,0,.46-.27.92-.53C65.62,88.14,61.86,92.76,64.54,92.78Z"/><path class="cls-4" d="M64.67,92.52c-.4,0-.51-.28-.79-.39C63.6,89.67,66.37,91.61,64.67,92.52Z"/></g></svg>