<svg xmlns="http://www.w3.org/2000/svg" viewBox="0 0 30 60"><symbol id="a"><g stroke-width="2" stroke-miterlimit="10" stroke-linecap="round" stroke-linejoin="round"><path d="M21 23H9c-1 0-2-1-2-2V10c0-4.4 3.6-8 8-8s8 3.6 8 8v11c0 1-1 2-2 2z"/><line x1="7" x2="23" y1="10" y2="10"/><line x1="12" x2="12" y1="6" y2="6"/><line x1="18" x2="18" y1="6" y2="6"/><line x1="10" x2="8" y1="3" y2="1"/><line x1="20" x2="22" y1="3" y2="1"/><path d="M13 23H9v4c0 1 1 2 2 2s2-1 2-2v-4zM5 10c-1 0-2 1-2 2v7c0 1 1 2 2 2s2-1 2-2v-7c0-1-1-2-2-2zM25 10c-1 0-2 1-2 2v7c0 1 1 2 2 2s2-1 2-2v-7c0-1-1-2-2-2zM21 23h-4v4c0 1 1 2 2 2s2-1 2-2v-4z"/></g></symbol><svg width="30" height="30"><use fill="none" stroke="#a1aeb7" xmlns:xlink="http://www.w3.org/1999/xlink" xlink:href="#a"/></svg><svg width="30" height="30" y="30"><use fill="none" stroke="#0578be" xmlns:xlink="http://www.w3.org/1999/xlink" xlink:href="#a"/></svg></svg>