<svg xmlns="http://www.w3.org/2000/svg" viewBox="0 0 30 60"><symbol id="a"><g stroke-width="2" stroke-miterlimit="10" stroke-linecap="round" stroke-linejoin="round"><path d="M22.6 15.7c0-3.8 3-5.4 3-5.4S24 7.5 20 7.5c-2.2 0-4 1.3-4.8 1.3-1 0-2.7-1.2-4.8-1.2-3.2 0-6.7 3-6.7 8.6C3.7 22 7.7 29 11 29c1 0 2.8-1.2 4.6-1.2 1.7 0 3 1 4.6 1 3.5 0 6-7.4 6-7.4s-3.6-1.4-3.6-5.7zM19.2 5.5C21 3.3 20.6 1 20.6 1S18 1 16.3 3.5c-1.6 2.2-1.2 4-1.2 4s2.2.4 4.2-2z"/></g></symbol><svg width="30" height="30"><use fill="none" stroke="#a1aeb7" xmlns:xlink="http://www.w3.org/1999/xlink" xlink:href="#a"/></svg><svg width="30" height="30" y="30"><use fill="none" stroke="#0578be" xmlns:xlink="http://www.w3.org/1999/xlink" xlink:href="#a"/></svg></svg>