<svg xmlns="http://www.w3.org/2000/svg" viewBox="0 0 30 60"><symbol id="a"><g stroke-width="2" stroke-miterlimit="10" stroke-linecap="round" stroke-linejoin="round"><path d="M3 23h24c1 0 2-1 2-2V3c0-1-1-2-2-2H3C2 1 1 2 1 3v18c0 1 1 2 2 2zM13 23h4v6h-4zM9 29h12M1 19h28"/><path d="M15 7h6-3l-1 7M13 10h-1.5c-1 0-2 1-2.2 2 0 1 .6 2 1.7 2h1"/></g></symbol><svg width="30" height="30"><use fill="none" stroke="#a1aeb7" xmlns:xlink="http://www.w3.org/1999/xlink" xlink:href="#a"/></svg><svg width="30" height="30" y="30"><use fill="none" stroke="#0578be" xmlns:xlink="http://www.w3.org/1999/xlink" xlink:href="#a"/></svg></svg>