<svg xmlns="http://www.w3.org/2000/svg" viewBox="0 0 30 60"><symbol id="a"><g stroke-width="2" stroke-miterlimit="10" stroke-linecap="round" stroke-linejoin="round"><path d="M3 23h24c1 0 2-1 2-2V3c0-1-1-2-2-2H3C2 1 1 2 1 3v18c0 1 1 2 2 2z"/><rect width="4" height="6" x="13" y="23"/><line x1="9" x2="21" y1="29" y2="29"/><line x1="1" x2="29" y1="19" y2="19"/><polyline points="5 14 5 7 8 11 11 7 11 14"/><polyline points="14 7 18 7 16 7 16 14"/><path d="M25 7h-4v3h2c1 0 2 1 2 2s-1 2-2 2h-2"/></g></symbol><svg width="30" height="30"><use fill="none" stroke="#a1aeb7" xmlns:xlink="http://www.w3.org/1999/xlink" xlink:href="#a"/></svg><svg width="30" height="30" y="30"><use fill="none" stroke="#0578be" xmlns:xlink="http://www.w3.org/1999/xlink" xlink:href="#a"/></svg></svg>