<svg xmlns="http://www.w3.org/2000/svg" viewBox="0 0 128 128"><script xmlns="" type="text/javascript" charset="utf-8" id="zm-extension"/><path fill="#DCE6E6" d="M76.2 38.9l-4.4-.5c-.6-2.3-1.5-4.5-2.7-6.6l2.7-3.5c1-1.3.9-3.1-.2-4.3l-5.3-5.3c-1.2-1.2-3-1.3-4.3-.2l-3.4 2.7c-2.2-1.3-4.5-2.3-7-2.9l-.5-4.3c-.2-1.6-1.6-2.8-3.2-2.8h-7.6c-1.6 0-3 1.2-3.2 2.8l-.5 4.3c-2.5.7-4.9 1.7-7.1 3L26 18.5c-1.3-1-3.1-.9-4.3.2L16.5 24c-1.2 1.2-1.3 3-.2 4.3l2.9 3.7c-1.2 2.1-2.1 4.3-2.6 6.7l-4.7.5c-1.7.2-2.9 1.5-2.9 3.2V50c0 1.6 1.2 3 2.8 3.2l4.9.6c.6 2.1 1.5 4.2 2.6 6.1l-3.1 3.9c-1 1.3-.9 3.1.2 4.3l5.3 5.3c1.2 1.2 3 1.3 4.3.2l3.9-3.1c2 1.2 4.1 2.1 6.3 2.7l.6 5C37 79.8 38.4 81 40 81h7.6c1.6 0 3-1.2 3.2-2.8l.6-4.8c2.4-.6 4.7-1.5 6.8-2.7l3.8 3c1.3 1 3.1.9 4.3-.2l5.3-5.3c1.2-1.2 1.3-3 .2-4.3l-3-3.9c1.2-2.1 2.2-4.3 2.8-6.7l4.5-.5c1.6-.2 2.8-1.6 2.8-3.2V42c.1-1.6-1.1-2.9-2.7-3.1zM44 59c-7.2 0-13-5.8-13-13s5.8-13 13-13 13 5.8 13 13-5.8 13-13 13z"/><path fill="#EAF0F0" stroke="#BACDCD" stroke-width="2" stroke-miterlimit="10" d="M71.2 33.9l-4.4-.5c-.6-2.3-1.5-4.5-2.7-6.6l2.7-3.5c1-1.3.9-3.1-.2-4.3l-5.3-5.3c-1.2-1.2-3-1.3-4.3-.2l-3.4 2.7c-2.2-1.3-4.5-2.3-7-2.9L46.1 9c-.2-1.8-1.5-3-3.2-3h-7.6c-1.6 0-3 1.2-3.2 2.8l-.5 4.3c-2.5.7-4.9 1.7-7.1 3L21 13.3c-1.3-1-3.1-.9-4.3.2L11.5 19c-1.2 1.2-1.3 3-.2 4.3l2.9 3.7c-1.2 2.1-2.1 4.3-2.6 6.7l-4.7.5c-1.7.2-2.9 1.5-2.9 3.2V45c0 1.6 1.2 3 2.8 3.2l4.9.6c.6 2.1 1.5 4.2 2.6 6.1l-3.1 3.9c-1 1.3-.9 3.1.2 4.3l5.3 5.3c1.2 1.2 3 1.3 4.3.2l3.9-3.1c2 1.2 4.1 2.1 6.3 2.7l.6 5C32 74.8 33.4 76 35 76h7.6c1.6 0 3-1.2 3.2-2.8l.6-4.8c2.4-.6 4.7-1.5 6.8-2.7l3.8 3c1.3 1 3.1.9 4.3-.2l5.3-5.3c1.2-1.2 1.3-3 .2-4.3l-3-3.9c1.2-2.1 2.2-4.3 2.8-6.7l4.5-.5c1.6-.2 2.8-1.6 2.8-3.2V37c.1-1.6-1.1-2.9-2.7-3.1zM39 54c-7.2 0-13-5.8-13-13s5.8-13 13-13 13 5.8 13 13-5.8 13-13 13zM120.7 66.3l-3.6-.4c-.5-1.9-1.2-3.6-2.1-5.3l2.2-2.8c.8-1 .7-2.5-.2-3.4l-4.3-4.3c-.9-.9-2.4-1-3.4-.2l-2.7 2.1c-1.7-1-3.6-1.8-5.6-2.3l-.4-3.5c-.2-1.3-1.2-2.3-2.5-2.3H92c-1.3 0-2.4 1-2.5 2.3l-.4 3.5c-2 .5-3.9 1.3-5.7 2.4L80.7 50c-1-.8-2.5-.7-3.4.2L73 54.4c-.9.9-1 2.4-.2 3.4l2.3 3c-.9 1.7-1.6 3.5-2.1 5.3l-3.7.4c-1.3.2-2.3 1.3-2.3 2.6v6.1c0 1.3 1 2.4 2.3 2.5l3.9.5c.5 1.7 1.2 3.3 2.1 4.9l-2.5 3.1c-.8 1-.7 2.5.2 3.4l4.3 4.3c.9.9 2.4 1 3.4.2l3.1-2.5c1.6.9 3.3 1.6 5.1 2.1l.5 4c.2 1.3 1.2 2.3 2.5 2.3H98c1.3 0 2.4-1 2.5-2.3l.4-3.9c1.9-.5 3.7-1.2 5.4-2.2l3 2.4c1 .8 2.5.7 3.4-.2l4.3-4.3c.9-.9 1-2.4.2-3.4l-2.3-3c1-1.7 1.7-3.5 2.2-5.4l3.6-.4c1.3-.2 2.3-1.2 2.3-2.5v-6.1c0-1.2-1-2.3-2.3-2.4zM95 82c-5.5 0-10-4.5-10-10s4.5-10 10-10 10 4.5 10 10-4.5 10-10 10z"/><path d="M95 78c-3.3 0-6-2.7-6-6s2.7-6 6-6 6 2.7 6 6-2.7 6-6 6z"/><path fill="#EAF0F0" stroke="#BACDCD" stroke-width="2" stroke-miterlimit="10" d="M71.1 96.3l-2.9-.3c-.4-1.5-1-3-1.8-4.3l1.8-2.3c.7-.8.6-2-.2-2.8L64.6 83c-.8-.8-2-.8-2.8-.2l-2.2 1.7c-1.4-.8-3-1.5-4.6-1.9l-.3-2.9c-.1-1.1-1-1.9-2.1-1.9h-5c-1.1 0-2 .8-2.1 1.9l-.3 2.9c-1.6.4-3.2 1.1-4.7 2l-2.3-1.8c-.8-.7-2-.6-2.8.2l-3.5 3.5c-.8.8-.8 2-.2 2.8l1.9 2.4c-.8 1.4-1.3 2.9-1.7 4.4l-3.1.3c-1.1.1-1.9 1-1.9 2.1v5c0 1.1.8 2 1.9 2.1l3.2.4c.4 1.4 1 2.7 1.7 4l-2 2.6c-.7.8-.6 2 .2 2.8l3.5 3.5c.8.8 2 .8 2.8.2l2.6-2c1.3.8 2.7 1.3 4.2 1.8l.4 3.3c.1 1.1 1 1.9 2.1 1.9h5c1.1 0 2-.8 2.1-1.9l.4-3.2c1.6-.4 3.1-1 4.5-1.8l2.5 2c.8.7 2 .6 2.8-.2l3.5-3.5c.8-.8.8-2 .2-2.8l-1.9-2.4c.8-1.4 1.4-2.9 1.8-4.4l3-.3c1.1-.1 1.9-1 1.9-2.1v-5c-.3-1.2-1.1-2.1-2.2-2.2zM50 109c-4.4 0-8-3.6-8-8s3.6-8 8-8 8 3.6 8 8-3.6 8-8 8z"/><path d="M50 105c-2.2 0-4-1.8-4-4s1.8-4 4-4 4 1.8 4 4-1.8 4-4 4z"/><path fill="#E83636" d="M39 24c9.4 0 17 7.6 17 17h1c0-9.9-8.1-18-18-18v1z"/></svg>