<svg xmlns="http://www.w3.org/2000/svg" viewBox="0 0 128 128"><script xmlns="" type="text/javascript" charset="utf-8" id="zm-extension"/><path fill-rule="evenodd" clip-rule="evenodd" fill="#DCE6E6" d="M44 24h50c11 0 20 9 20 20v50c0 11-9 20-20 20H44c-11 0-20-9-20-20V44c0-11 9-20 20-20z"/><path fill-rule="evenodd" clip-rule="evenodd" fill="#EAF0F0" stroke="#BACDCD" stroke-width="2" stroke-miterlimit="10" d="M35 19h58c8.8 0 16 7.2 16 16v58c0 8.8-7.2 16-16 16H35c-8.8 0-16-7.2-16-16V35c0-8.8 7.2-16 16-16z"/><path fill="#DCE6E6" d="M99 97c-1.1 0-2 .9-2 2s.9 2 2 2 2-.9 2-2-.9-2-2-2zm0-66c1.1 0 2-.9 2-2s-.9-2-2-2-2 .9-2 2 .9 2 2 2zM29 97c-1.1 0-2 .9-2 2s.9 2 2 2 2-.9 2-2-.9-2-2-2zm0-70c-1.1 0-2 .9-2 2s.9 2 2 2 2-.9 2-2-.9-2-2-2z"/><path fill="#BACDCD" d="M35 112h8v-2h-8v2zm50-2v2h8v-2h-8z"/><path fill-rule="evenodd" clip-rule="evenodd" fill="#DCE6E6" d="M69 104c-19.3 0-35-15.7-35-35 0-17.4 12.8-31.9 29.4-34.6L69 39l5.6-4.6C91.2 37.1 104 51.6 104 69c0 19.3-15.7 35-35 35z"/><path fill-rule="evenodd" clip-rule="evenodd" fill="#FFF" stroke="#BACDCD" stroke-width="2" stroke-miterlimit="10" d="M64 99c-19.3 0-35-15.7-35-35 0-17.4 12.8-31.9 29.4-34.6L64 33l5.6-3.6C86.2 32.1 99 46.6 99 64c0 19.3-15.7 35-35 35z"/><path fill="#BACDCD" d="M64 89c-1.1 0-2 .9-2 2s.9 2 2 2 2-.9 2-2-.9-2-2-2zM37 62c-1.1 0-2 .9-2 2s.9 2 2 2 2-.9 2-2-.9-2-2-2zm27-27c-1.1 0-2 .9-2 2s.9 2 2 2 2-.9 2-2-.9-2-2-2zm27 27c-1.1 0-2 .9-2 2s.9 2 2 2 2-.9 2-2-.9-2-2-2z"/><path fill="#DCE6E6" d="M41.6 48.8c-1-.6-2.2-.2-2.7.7-.6 1-.2 2.2.7 2.7 1 .6 2.2.2 2.7-.7.6-1 .3-2.2-.7-2.7zm46.8 3.4c1-.6 1.3-1.8.7-2.7-.6-1-1.8-1.3-2.7-.7-1 .6-1.3 1.8-.7 2.7.5 1 1.7 1.3 2.7.7zM51.5 85.7c-1-.6-2.2-.2-2.7.7-.6 1-.2 2.2.7 2.7 1 .6 2.2.2 2.7-.7.6-1 .3-2.2-.7-2.7zm-11.9-9.9c-1 .6-1.3 1.8-.7 2.7.6 1 1.8 1.3 2.7.7 1-.6 1.3-1.8.7-2.7-.5-1-1.7-1.3-2.7-.7zm38.9-36.9c-1-.6-2.2-.2-2.7.7-.6 1-.2 2.2.7 2.7 1 .6 2.2.2 2.7-.7.6-.9.3-2.2-.7-2.7zm9.9 36.9c-1-.6-2.2-.2-2.7.7-.6 1-.2 2.2.7 2.7 1 .6 2.2.2 2.7-.7.6-1 .2-2.2-.7-2.7zM49.5 38.9c-1 .6-1.3 1.8-.7 2.7.6 1 1.8 1.3 2.7.7 1-.6 1.3-1.8.7-2.7-.5-.9-1.7-1.3-2.7-.7zm27 46.8c-1 .6-1.3 1.8-.7 2.7.6 1 1.8 1.3 2.7.7 1-.6 1.3-1.8.7-2.7-.5-1-1.7-1.3-2.7-.7z"/><path fill-rule="evenodd" clip-rule="evenodd" fill="none" stroke="#DCE6E6" stroke-width="2" stroke-miterlimit="10" d="M64 46c9.9 0 18 8.1 18 18s-8.1 18-18 18-18-8.1-18-18 8.1-18 18-18z"/><path fill-rule="evenodd" clip-rule="evenodd" d="M64 52c6.6 0 12 5.4 12 12s-5.4 12-12 12-12-5.4-12-12 5.4-12 12-12z"/><circle fill-rule="evenodd" clip-rule="evenodd" fill="#E83636" cx="64" cy="55" r="1"/><circle fill-rule="evenodd" clip-rule="evenodd" fill="#FFF" cx="64" cy="73" r="1"/><circle fill-rule="evenodd" clip-rule="evenodd" fill="#FFF" cx="55" cy="64" r="1"/><circle fill-rule="evenodd" clip-rule="evenodd" fill="#FFF" cx="73" cy="64" r="1"/><circle fill-rule="evenodd" clip-rule="evenodd" fill="#FFF" cx="57.6" cy="57.6" r="1"/><circle fill-rule="evenodd" clip-rule="evenodd" fill="#FFF" cx="70.4" cy="70.4" r="1"/><circle fill-rule="evenodd" clip-rule="evenodd" fill="#FFF" cx="57.6" cy="70.4" r="1"/><circle fill-rule="evenodd" clip-rule="evenodd" fill="#FFF" cx="70.4" cy="57.6" r="1"/></svg>