<svg xmlns="http://www.w3.org/2000/svg" viewBox="0 0 128 128"><script xmlns="" type="text/javascript" charset="utf-8" id="zm-extension"/><path fill-rule="evenodd" clip-rule="evenodd" fill="#DCE6E6" d="M68 19c27.6 0 50 22.4 50 50s-22.4 50-50 50-50-22.4-50-50 22.4-50 50-50z"/><path fill="#BACDCD" d="M24 114l3.5 2 10-17.3-3.5-2L24 114zm70-17.3l-3.5 2 10 17.3 3.5-2-10-17.3z"/><path fill="#EAF0F0" stroke="#BACDCD" stroke-width="2" stroke-miterlimit="10" d="M37.9 11.1l-6.9 4c-3.8 2.2-5.1 7.1-2.9 10.9l2 3.5 20.8-12-2-3.5c-2.3-3.8-7.1-5.1-11-2.9zm59.1 4l-6.9-4c-3.8-2.2-8.7-.9-10.9 2.9l-2 3.5 20.8 12 2-3.5c2.1-3.8.8-8.7-3-10.9z"/><path fill-rule="evenodd" clip-rule="evenodd" fill="#FFF" stroke="#BACDCD" stroke-width="2" stroke-miterlimit="10" d="M64 14c27.6 0 50 22.4 50 50s-22.4 50-50 50-50-22.4-50-50 22.4-50 50-50z"/><path fill-rule="evenodd" clip-rule="evenodd" fill="#18B5B5" d="M64 20c-2.2 0-4 1.8-4 4s1.8 4 4 4 4-1.8 4-4-1.8-4-4-4zm40 42c-1.1 0-2 .9-2 2s.9 2 2 2 2-.9 2-2-.9-2-2-2zm-40 40c-1.1 0-2 .9-2 2s.9 2 2 2 2-.9 2-2-.9-2-2-2zM24 62c-1.1 0-2 .9-2 2s.9 2 2 2 2-.9 2-2-.9-2-2-2z"/><path fill-rule="evenodd" clip-rule="evenodd" d="M63 30h2v34h-2z"/><path fill-rule="evenodd" clip-rule="evenodd" d="M64 63h25.8v2H64z"/><path fill="#E83636" d="M70.273 56.312l1.415 1.414-32.032 32.031-1.414-1.414z"/><path fill-rule="evenodd" clip-rule="evenodd" fill="#E83636" d="M64 60c2.2 0 4 1.8 4 4s-1.8 4-4 4-4-1.8-4-4 1.8-4 4-4z"/></svg>