<svg xmlns="http://www.w3.org/2000/svg" viewBox="0 0 360 380"><script xmlns="" type="text/javascript" charset="utf-8" id="zm-extension"/><path fill-rule="evenodd" clip-rule="evenodd" fill="#EAF0F0" d="M0 304l180-76 180 76-180 76L0 304z"/><g fill-rule="evenodd" clip-rule="evenodd"><path fill="#F1B96B" d="M136.5 293.5v5l38 15 51-13-3-9-34-39 1-21 34-33 21-84-3-19-65-18-60 18-1 21 21 76 35 38-5 29-30 34z"/><path fill="#F9E3AB" d="M119.2 95.9l-2 21 22 74 36 39-32-63-3-58-21-13zM169.8 263l-32 31 30 10-18-11 20-30z"/><path opacity=".1" fill="#FFF" d="M175.2 119.4l64-17-29 96-25 33-10-112zM185.7 259l26 34v10l-12 3v-10l-14-37z"/><path opacity=".1" fill="#FFF" d="M174.5 313.5l14-60 33 38-22 4-25 18zM184.5 229.5l4 24 1-22 34-33 21-85-3-18-57 134z"/><path fill="#EB9D40" d="M116.7 95.5l58 23 67-19-65-22-60 18z"/><path fill="#D38D39" d="M116.7 95.5l58 23 2-41-60 18z"/></g><g fill-rule="evenodd" clip-rule="evenodd"><path fill="#F1B96B" d="M257.6 105l-16-1-3 9h12l9 2-2 27-10 17-17 8-5 13 24-18 19-27 1-28-12-2zm-143 56l-11-19-4-23 9-7 14 1-3-9-23 2-5 34 16 24 28 16-5-13-16-6z"/><path opacity=".1" fill="#FFF" d="M240.6 113h12l-11-9-1 9zM269.6 106.9l-16 6 6 2 10-8zM268.7 134.9l-11 7-8 20 19-27z"/><path fill="#F0B260" d="M229.6 166.7l18-4-22 16 4-12zM110.6 165.4l20 2 3 11-23-13zM91.6 140l12 2 5 22-17-24zM99.6 119.1l9-7-12-6 3 13z"/><path opacity=".1" fill="#FFF" d="M268.7 134.9l-9-20-2-10 11 30zM254.7 105l-4 8-9-9 13 1zM96.6 106s9.3 6.1 9.4 6c.1-.1 7.7-6.8 7.7-6.8l-17.1.8zM91.6 140.1l8-21.1-3-12.9-5 34z"/><path fill="#F9E3AB" d="M128.6 165.9l-13-5-12-20-3-22 8-7h10l-1-4-11 1-10 10v22l16 21 17 7-1-3zM231.6 167.2l16-8 10-17 2-27-6-2h-11v-4l11 1 8 4-2 34-10 14-18 5z"/></g><path fill-rule="evenodd" clip-rule="evenodd" fill="#EB9D40" d="M114.7 224.5l1-30-6 4 5 26zm-50-52l2-11h-5l3 11zm-13-99l1-9-7-1 6 10zm209 84l12 22-5-16-7-6zm21 58l9-2-9-4v6zm21-73l-2 15 10-12-8-3zm-59-122v-8l-8 3 8 5zm-115 64l9-7h-11l2 7z"/></svg>