<?xml version="1.0" encoding="UTF-8"?>
<!-- Generator: Adobe Illustrator 21.1.0, SVG Export Plug-In . SVG Version: 6.00 Build 0)  -->
<svg version="1.1" id="Warstwa_1" xmlns="http://www.w3.org/2000/svg" xmlns:xlink="http://www.w3.org/1999/xlink" x="0px" y="0px" viewBox="0 0 13750 13750" style="enable-background:new 0 0 13750 13750;" xml:space="preserve">
<style type="text/css">
	.st0{fill:none;stroke:#ECECEC;stroke-miterlimit:10;}
	.st1{fill:#ECECEC;stroke:#ECECEC;stroke-miterlimit:10;}
</style>
<circle class="st0" cx="6875" cy="6875" r="6850"/>
<g>
	<polygon class="st1" points="6882.3,25 6871.3,18.6 6871.3,31.4  "/>
</g>
<g>
	<polygon class="st1" points="6583.9,31.1 6572.6,25.2 6573.1,37.9  "/>
</g>
<g>
	<polygon class="st1" points="6284.7,50.1 6273.2,44.8 6274.3,57.4  "/>
</g>
<g>
	<polygon class="st1" points="5987.1,82 5975.4,77.2 5977.1,89.8  "/>
</g>
<g>
	<polygon class="st1" points="5691.9,126.8 5680,122.5 5682.2,135  "/>
</g>
<g>
	<polygon class="st1" points="5398.1,184.6 5386,180.8 5388.8,193.2  "/>
</g>
<g>
	<polygon class="st1" points="5108.1,255.1 5095.8,251.8 5099.1,264.1  "/>
</g>
<g>
	<polygon class="st1" points="4820.7,338.5 4808.3,335.7 4812.1,347.8  "/>
</g>
<g>
	<polygon class="st1" points="4537.4,434.3 4524.9,432.1 4529.3,444  "/>
</g>
<g>
	<polygon class="st1" points="4258.3,542.7 4245.7,541 4250.5,552.8  "/>
</g>
<g>
	<polygon class="st1" points="3984.2,663.1 3971.5,662 3976.9,673.5  "/>
</g>
<g>
	<polygon class="st1" points="3716,795.4 3703.3,794.8 3709.2,806.1  "/>
</g>
<g>
	<polygon class="st1" points="3454,939.2 3441.3,939.2 3447.7,950.2  "/>
</g>
<g>
	<polygon class="st1" points="3198.7,1094.2 3186,1094.8 3192.8,1105.5  "/>
</g>
<g>
	<polygon class="st1" points="2949.6,1260.6 2937,1261.7 2944.3,1272.1  "/>
</g>
<g>
	<polygon class="st1" points="2708.4,1437.5 2695.8,1439.2 2703.6,1449.2  "/>
</g>
<g>
	<polygon class="st1" points="2475.5,1624.3 2463,1626.5 2471.2,1636.3  "/>
</g>
<g>
	<polygon class="st1" points="2251.2,1821 2238.8,1823.7 2247.4,1833.1  "/>
</g>
<g>
	<polygon class="st1" points="2034.9,2027.7 2022.6,2031 2031.6,2040  "/>
</g>
<g>
	<polygon class="st1" points="1828.2,2243.3 1816.1,2247.1 1825.5,2255.7  "/>
</g>
<g>
	<polygon class="st1" points="1631,2467.7 1619,2472 1628.8,2480.2  "/>
</g>
<g>
	<polygon class="st1" points="1443.9,2700.2 1432.1,2705 1442.2,2712.8  "/>
</g>
<g>
	<polygon class="st1" points="1266.5,2941.2 1255,2946.5 1265.4,2953.8  "/>
</g>
<g>
	<polygon class="st1" points="1099.8,3189.8 1088.5,3195.6 1099.2,3202.4  "/>
</g>
<g>
	<polygon class="st1" points="944.4,3444.7 933.4,3451.1 944.4,3457.4  "/>
</g>
<g>
	<polygon class="st1" points="800.1,3706.8 789.4,3713.6 800.6,3719.5  "/>
</g>
<g>
	<polygon class="st1" points="667.5,3974.6 657.1,3981.9 668.7,3987.3  "/>
</g>
<g>
	<polygon class="st1" points="546.9,4247.7 536.8,4255.5 548.6,4260.3  "/>
</g>
<g>
	<polygon class="st1" points="438.1,4526.7 428.4,4534.9 440.3,4539.2  "/>
</g>
<g>
	<polygon class="st1" points="341.9,4809.6 332.5,4818.2 344.6,4822  "/>
</g>
<g>
	<polygon class="st1" points="258,5097 249.1,5106 261.3,5109.2  "/>
</g>
<g>
	<polygon class="st1" points="187,5387.5 178.4,5396.8 190.8,5399.6  "/>
</g>
<g>
	<polygon class="st1" points="128.8,5680.2 120.7,5690 133.2,5692.2  "/>
</g>
<g>
	<polygon class="st1" points="83.7,5975.4 75.9,5985.5 88.5,5987.1  "/>
</g>
<g>
	<polygon class="st1" points="51.2,6272.6 43.9,6283 56.6,6284.1  "/>
</g>
<g>
	<polygon class="st1" points="31.7,6570.9 24.9,6581.6 37.6,6582.2  "/>
</g>
<g>
	<polygon class="st1" points="25,6867.7 18.6,6878.7 31.4,6878.7  "/>
</g>
<g>
	<polygon class="st1" points="31.1,7166.1 25.2,7177.4 37.9,7176.9  "/>
</g>
<g>
	<polygon class="st1" points="50.1,7465.3 44.8,7476.8 57.4,7475.7  "/>
</g>
<g>
	<polygon class="st1" points="82,7762.9 77.2,7774.6 89.8,7772.9  "/>
</g>
<g>
	<polygon class="st1" points="126.8,8058.1 122.5,8070 135,8067.8  "/>
</g>
<g>
	<polygon class="st1" points="184.6,8351.9 180.8,8364 193.2,8361.2  "/>
</g>
<g>
	<polygon class="st1" points="255.1,8641.9 251.8,8654.2 264.1,8650.9  "/>
</g>
<g>
	<polygon class="st1" points="338.5,8929.3 335.7,8941.7 347.8,8937.9  "/>
</g>
<g>
	<polygon class="st1" points="434.3,9212.6 432.1,9225.1 444,9220.7  "/>
</g>
<g>
	<polygon class="st1" points="542.7,9491.7 541,9504.3 552.8,9499.5  "/>
</g>
<g>
	<polygon class="st1" points="663.1,9765.8 662,9778.5 673.5,9773.1  "/>
</g>
<g>
	<polygon class="st1" points="795.4,10034 794.8,10046.7 806.1,10040.8  "/>
</g>
<g>
	<polygon class="st1" points="939.2,10296 939.2,10308.7 950.2,10302.3  "/>
</g>
<g>
	<polygon class="st1" points="1094.2,10551.3 1094.8,10564 1105.5,10557.2  "/>
</g>
<g>
	<polygon class="st1" points="1260.6,10800.4 1261.7,10813 1272.1,10805.7  "/>
</g>
<g>
	<polygon class="st1" points="1437.5,11041.6 1439.2,11054.2 1449.2,11046.4  "/>
</g>
<g>
	<polygon class="st1" points="1624.3,11274.5 1626.5,11287 1636.3,11278.8  "/>
</g>
<g>
	<polygon class="st1" points="1821,11498.8 1823.7,11511.2 1833.1,11502.6  "/>
</g>
<g>
	<polygon class="st1" points="2027.7,11715.1 2031,11727.4 2040,11718.4  "/>
</g>
<g>
	<polygon class="st1" points="2243.3,11921.8 2247.1,11933.9 2255.7,11924.5  "/>
</g>
<g>
	<polygon class="st1" points="2467.7,12119 2472,12131 2480.2,12121.2  "/>
</g>
<g>
	<polygon class="st1" points="2700.2,12306.1 2705,12317.9 2712.8,12307.8  "/>
</g>
<g>
	<polygon class="st1" points="2941.2,12483.5 2946.5,12495 2953.8,12484.6  "/>
</g>
<g>
	<polygon class="st1" points="3189.8,12650.2 3195.6,12661.5 3202.4,12650.8  "/>
</g>
<g>
	<polygon class="st1" points="3444.7,12805.6 3451.1,12816.6 3457.4,12805.6  "/>
</g>
<g>
	<polygon class="st1" points="3706.8,12949.9 3713.6,12960.6 3719.5,12949.4  "/>
</g>
<g>
	<polygon class="st1" points="3974.6,13082.5 3981.9,13092.9 3987.3,13081.3  "/>
</g>
<g>
	<polygon class="st1" points="4247.7,13203.1 4255.5,13213.2 4260.3,13201.4  "/>
</g>
<g>
	<polygon class="st1" points="4526.7,13311.9 4534.9,13321.6 4539.2,13309.7  "/>
</g>
<g>
	<polygon class="st1" points="4809.6,13408.1 4818.2,13417.5 4822,13405.4  "/>
</g>
<g>
	<polygon class="st1" points="5097,13492 5106,13500.9 5109.2,13488.7  "/>
</g>
<g>
	<polygon class="st1" points="5387.5,13563 5396.8,13571.6 5399.6,13559.2  "/>
</g>
<g>
	<polygon class="st1" points="5680.2,13621.2 5690,13629.3 5692.2,13616.8  "/>
</g>
<g>
	<polygon class="st1" points="5975.4,13666.3 5985.5,13674.1 5987.1,13661.5  "/>
</g>
<g>
	<polygon class="st1" points="6272.6,13698.8 6283,13706.1 6284.1,13693.4  "/>
</g>
<g>
	<polygon class="st1" points="6570.9,13718.3 6581.6,13725.1 6582.2,13712.4  "/>
</g>
<g>
	<polygon class="st1" points="6867.7,13725 6878.7,13731.4 6878.7,13718.6  "/>
</g>
<g>
	<polygon class="st1" points="7166.1,13718.9 7177.4,13724.8 7176.9,13712.1  "/>
</g>
<g>
	<polygon class="st1" points="7465.3,13699.9 7476.8,13705.2 7475.7,13692.6  "/>
</g>
<g>
	<polygon class="st1" points="7762.9,13668 7774.6,13672.8 7772.9,13660.2  "/>
</g>
<g>
	<polygon class="st1" points="8058.1,13623.2 8070,13627.5 8067.8,13615  "/>
</g>
<g>
	<polygon class="st1" points="8351.9,13565.4 8364,13569.2 8361.2,13556.8  "/>
</g>
<g>
	<polygon class="st1" points="8641.9,13494.9 8654.2,13498.2 8650.9,13485.9  "/>
</g>
<g>
	<polygon class="st1" points="8929.3,13411.5 8941.7,13414.3 8937.9,13402.2  "/>
</g>
<g>
	<polygon class="st1" points="9212.6,13315.7 9225.1,13317.9 9220.7,13306  "/>
</g>
<g>
	<polygon class="st1" points="9491.7,13207.3 9504.3,13209 9499.5,13197.2  "/>
</g>
<g>
	<polygon class="st1" points="9765.8,13086.9 9778.5,13088 9773.1,13076.5  "/>
</g>
<g>
	<polygon class="st1" points="10034,12954.6 10046.7,12955.2 10040.8,12943.9  "/>
</g>
<g>
	<polygon class="st1" points="10296,12810.8 10308.7,12810.8 10302.3,12799.8  "/>
</g>
<g>
	<polygon class="st1" points="10551.3,12655.8 10564,12655.2 10557.2,12644.5  "/>
</g>
<g>
	<polygon class="st1" points="10800.4,12489.4 10813,12488.3 10805.7,12477.9  "/>
</g>
<g>
	<polygon class="st1" points="11041.6,12312.5 11054.2,12310.8 11046.4,12300.8  "/>
</g>
<g>
	<polygon class="st1" points="11274.5,12125.7 11287,12123.5 11278.8,12113.7  "/>
</g>
<g>
	<polygon class="st1" points="11498.8,11929 11511.2,11926.3 11502.6,11916.9  "/>
</g>
<g>
	<polygon class="st1" points="11715.1,11722.3 11727.4,11719 11718.4,11710  "/>
</g>
<g>
	<polygon class="st1" points="11921.8,11506.7 11933.9,11502.9 11924.5,11494.3  "/>
</g>
<g>
	<polygon class="st1" points="12119,11282.3 12131,11278 12121.2,11269.8  "/>
</g>
<g>
	<polygon class="st1" points="12306.1,11049.8 12317.9,11045 12307.8,11037.2  "/>
</g>
<g>
	<polygon class="st1" points="12483.5,10808.8 12495,10803.5 12484.6,10796.2  "/>
</g>
<g>
	<polygon class="st1" points="12650.2,10560.2 12661.5,10554.4 12650.8,10547.6  "/>
</g>
<g>
	<polygon class="st1" points="12805.6,10305.3 12816.6,10298.9 12805.6,10292.6  "/>
</g>
<g>
	<polygon class="st1" points="12949.9,10043.2 12960.6,10036.4 12949.4,10030.5  "/>
</g>
<g>
	<polygon class="st1" points="13082.5,9775.4 13092.9,9768.1 13081.3,9762.7  "/>
</g>
<g>
	<polygon class="st1" points="13203.1,9502.3 13213.2,9494.5 13201.4,9489.7  "/>
</g>
<g>
	<polygon class="st1" points="13311.9,9223.3 13321.6,9215.1 13309.7,9210.8  "/>
</g>
<g>
	<polygon class="st1" points="13408.1,8940.4 13417.5,8931.8 13405.4,8928  "/>
</g>
<g>
	<polygon class="st1" points="13492,8653 13500.9,8644 13488.7,8640.8  "/>
</g>
<g>
	<polygon class="st1" points="13563,8362.5 13571.6,8353.2 13559.2,8350.4  "/>
</g>
<g>
	<polygon class="st1" points="13621.2,8069.8 13629.3,8060 13616.8,8057.8  "/>
</g>
<g>
	<polygon class="st1" points="13666.3,7774.6 13674.1,7764.5 13661.5,7762.9  "/>
</g>
<g>
	<polygon class="st1" points="13698.8,7477.4 13706.1,7467 13693.4,7465.9  "/>
</g>
<g>
	<polygon class="st1" points="13718.3,7179.1 13725.1,7168.4 13712.4,7167.8  "/>
</g>
<g>
	<polygon class="st1" points="13725,6882.3 13731.4,6871.3 13718.6,6871.3  "/>
</g>
<g>
	<polygon class="st1" points="13718.9,6583.9 13724.8,6572.6 13712.1,6573.1  "/>
</g>
<g>
	<polygon class="st1" points="13699.9,6284.7 13705.2,6273.2 13692.6,6274.3  "/>
</g>
<g>
	<polygon class="st1" points="13668,5987.1 13672.8,5975.4 13660.2,5977.1  "/>
</g>
<g>
	<polygon class="st1" points="13623.2,5691.9 13627.5,5680 13615,5682.2  "/>
</g>
<g>
	<polygon class="st1" points="13565.4,5398.1 13569.2,5386 13556.8,5388.8  "/>
</g>
<g>
	<polygon class="st1" points="13494.9,5108.1 13498.2,5095.8 13485.9,5099.1  "/>
</g>
<g>
	<polygon class="st1" points="13411.5,4820.7 13414.3,4808.3 13402.2,4812.1  "/>
</g>
<g>
	<polygon class="st1" points="13315.7,4537.4 13317.9,4524.9 13306,4529.3  "/>
</g>
<g>
	<polygon class="st1" points="13207.3,4258.3 13209,4245.7 13197.2,4250.5  "/>
</g>
<g>
	<polygon class="st1" points="13086.9,3984.2 13088,3971.5 13076.5,3976.9  "/>
</g>
<g>
	<polygon class="st1" points="12954.6,3716 12955.2,3703.3 12943.9,3709.2  "/>
</g>
<g>
	<polygon class="st1" points="12810.8,3454 12810.8,3441.3 12799.8,3447.7  "/>
</g>
<g>
	<polygon class="st1" points="12655.8,3198.7 12655.2,3186 12644.5,3192.8  "/>
</g>
<g>
	<polygon class="st1" points="12489.4,2949.6 12488.3,2937 12477.9,2944.3  "/>
</g>
<g>
	<polygon class="st1" points="12312.5,2708.4 12310.8,2695.8 12300.8,2703.6  "/>
</g>
<g>
	<polygon class="st1" points="12125.7,2475.5 12123.5,2463 12113.7,2471.2  "/>
</g>
<g>
	<polygon class="st1" points="11929,2251.2 11926.3,2238.8 11916.9,2247.4  "/>
</g>
<g>
	<polygon class="st1" points="11722.3,2034.9 11719,2022.6 11710,2031.6  "/>
</g>
<g>
	<polygon class="st1" points="11506.7,1828.2 11502.9,1816.1 11494.3,1825.5  "/>
</g>
<g>
	<polygon class="st1" points="11282.3,1631 11278,1619 11269.8,1628.8  "/>
</g>
<g>
	<polygon class="st1" points="11049.8,1443.9 11045,1432.1 11037.2,1442.2  "/>
</g>
<g>
	<polygon class="st1" points="10808.8,1266.5 10803.5,1255 10796.2,1265.4  "/>
</g>
<g>
	<polygon class="st1" points="10560.2,1099.8 10554.4,1088.5 10547.6,1099.2  "/>
</g>
<g>
	<polygon class="st1" points="10305.3,944.4 10298.9,933.4 10292.6,944.4  "/>
</g>
<g>
	<polygon class="st1" points="10043.2,800.1 10036.4,789.4 10030.5,800.6  "/>
</g>
<g>
	<polygon class="st1" points="9775.4,667.5 9768.1,657.1 9762.7,668.7  "/>
</g>
<g>
	<polygon class="st1" points="9502.3,546.9 9494.5,536.8 9489.7,548.6  "/>
</g>
<g>
	<polygon class="st1" points="9223.3,438.1 9215.1,428.4 9210.8,440.3  "/>
</g>
<g>
	<polygon class="st1" points="8940.4,341.9 8931.8,332.5 8928,344.6  "/>
</g>
<g>
	<polygon class="st1" points="8653,258 8644,249.1 8640.8,261.3  "/>
</g>
<g>
	<polygon class="st1" points="8362.5,187 8353.2,178.4 8350.4,190.8  "/>
</g>
<g>
	<polygon class="st1" points="8069.8,128.8 8060,120.7 8057.8,133.2  "/>
</g>
<g>
	<polygon class="st1" points="7774.6,83.7 7764.5,75.9 7762.9,88.5  "/>
</g>
<g>
	<polygon class="st1" points="7477.4,51.2 7467,43.9 7465.9,56.6  "/>
</g>
<g>
	<polygon class="st1" points="7179.1,31.7 7168.4,24.9 7167.8,37.6  "/>
</g>
</svg>