<?xml version="1.0" encoding="UTF-8"?>
<!-- Generator: Adobe Illustrator 21.1.0, SVG Export Plug-In . SVG Version: 6.00 Build 0)  -->
<svg version="1.1" id="Warstwa_1" xmlns="http://www.w3.org/2000/svg" xmlns:xlink="http://www.w3.org/1999/xlink" x="0px" y="0px" viewBox="0 0 84 84" style="enable-background:new 0 0 84 84;" xml:space="preserve">
<style type="text/css">
	.st0{fill:#52C1FD;}
	.st1{fill:#008ECA;}
	.st2{fill:#175375;}
</style>
<circle class="st0" cx="42" cy="42" r="42"/>
<path class="st1" d="M62.8,57c0,4.2-3.4,7.6-7.6,7.6s-7.6-3.4-7.6-7.6s3.4-7.6,7.6-7.6S62.8,52.8,62.8,57z"/>
<path class="st2" d="M53.3,39.9v-3.8L48,34.3c-0.4-0.8-0.4-1.1-0.8-1.9l2.3-4.9l-2.7-2.7l-4.9,2.3c-0.8-0.4-1.1-0.4-1.9-0.8L38.1,21  h-3.8l-1.9,5.3c-0.8,0.4-1.1,0.4-1.9,0.8l-4.9-2.3L23,27.4l2.3,4.9c-0.4,0.8-0.4,1.1-0.8,1.9l-5.3,1.9v3.8l5.3,1.9  c0.4,0.8,0.4,1.1,0.8,1.9l-2.3,5l2.7,2.7l4.9-2.3c0.8,0.4,1.1,0.8,1.9,0.8l1.9,5.3h3.8l1.9-5.3c0.8-0.4,1.1-0.4,1.9-0.8l4.9,2.3  l2.7-2.7l-2.3-4.9c0.4-0.8,0.8-1.1,0.8-1.9L53.3,39.9z M36.2,43.7c-3,0-5.7-2.7-5.7-5.7s2.7-5.7,5.7-5.7s5.7,2.7,5.7,5.7  C41.9,41.1,39.3,43.7,36.2,43.7z"/>
</svg>