<?xml version="1.0" encoding="UTF-8"?>
<!-- Generator: Adobe Illustrator 21.1.0, SVG Export Plug-In . SVG Version: 6.00 Build 0)  -->
<svg version="1.1" id="Warstwa_1" xmlns="http://www.w3.org/2000/svg" xmlns:xlink="http://www.w3.org/1999/xlink" x="0px" y="0px" viewBox="0 0 84 84" style="enable-background:new 0 0 84 84;" xml:space="preserve">
<style type="text/css">
	.st0{fill:#52C1FD;}
	.st1{fill:#008ECA;}
	.st2{fill:#175375;}
</style>
<circle class="st0" cx="42" cy="42" r="42"/>
<path class="st1" d="M64.2,60.9H19.8c-1.6,0-3-1.3-3-3V26.1c0-1.6,1.4-3,3-3h44.3c1.6,0,3,1.4,3,3v31.7  C67.2,59.5,65.8,60.9,64.2,60.9z"/>
<circle class="st2" cx="21.3" cy="27.2" r="1.7"/>
<circle class="st2" cx="26.7" cy="27.2" r="1.7"/>
<circle class="st2" cx="32.1" cy="27.2" r="1.7"/>
<g>
	<path id="Facebook" class="st2" d="M38.8,36.8c0,0.6,0,3.3,0,3.3h-2.4v4h2.4V56h4.9V44.1H47c0,0,0.3-1.9,0.5-4c-0.4,0-3.7,0-3.7,0   s0-2.3,0-2.7s0.5-1,1.1-1c0.5,0,1.6,0,2.7,0c0-0.5,0-2.4,0-4.2c-1.4,0-3,0-3.6,0C38.7,32.2,38.8,36.2,38.8,36.8z"/>
</g>
</svg>