<?xml version="1.0" encoding="UTF-8"?>
<!-- Generator: Adobe Illustrator 21.1.0, SVG Export Plug-In . SVG Version: 6.00 Build 0)  -->
<svg version="1.1" id="Warstwa_1" xmlns="http://www.w3.org/2000/svg" xmlns:xlink="http://www.w3.org/1999/xlink" x="0px" y="0px" viewBox="0 0 84 84" style="enable-background:new 0 0 84 84;" xml:space="preserve">
<style type="text/css">
	.st0{fill:#52C1FD;}
	.st1{fill:#008ECA;}
	.st2{fill:#175375;}
</style>
<circle class="st0" cx="42" cy="42" r="42"/>
<path class="st1" d="M64.2,60.9H19.8c-1.6,0-3-1.3-3-3V26.1c0-1.6,1.4-3,3-3h44.3c1.6,0,3,1.4,3,3v31.7  C67.2,59.5,65.8,60.9,64.2,60.9z"/>
<path class="st2" d="M26.1,33.2h31.8c0.8,0,1.5-0.7,1.5-1.5v-0.9c0-0.8-0.7-1.5-1.5-1.5H26.1c-0.8,0-1.5,0.7-1.5,1.5v0.9  C24.6,32.5,25.3,33.2,26.1,33.2z"/>
<path class="st2" d="M43.5,54h14.4c0.8,0,1.5-0.7,1.5-1.5V37.7c0-0.8-0.7-1.5-1.5-1.5H43.5c-0.8,0-1.5,0.7-1.5,1.5v14.8  C42,53.3,42.7,54,43.5,54z"/>
<path class="st2" d="M26.1,40.1h12.1c0.8,0,1.5-0.7,1.5-1.5v-0.9c0-0.8-0.7-1.5-1.5-1.5H26.1c-0.8,0-1.5,0.7-1.5,1.5v0.9  C24.6,39.5,25.3,40.1,26.1,40.1z"/>
<path class="st2" d="M26.1,47.1h12.1c0.8,0,1.5-0.7,1.5-1.5v-0.9c0-0.8-0.7-1.5-1.5-1.5H26.1c-0.8,0-1.5,0.7-1.5,1.5v0.9  C24.6,46.4,25.3,47.1,26.1,47.1z"/>
<path class="st2" d="M26.1,54h6.2c0.8,0,1.5-0.7,1.5-1.5v-0.9c0-0.8-0.7-1.5-1.5-1.5h-6.2c-0.8,0-1.5,0.7-1.5,1.5v0.9  C24.6,53.3,25.3,54,26.1,54z"/>
</svg>