<?xml version="1.0" encoding="UTF-8"?>
<!-- Generator: Adobe Illustrator 21.1.0, SVG Export Plug-In . SVG Version: 6.00 Build 0)  -->
<svg version="1.1" id="Warstwa_1" xmlns="http://www.w3.org/2000/svg" xmlns:xlink="http://www.w3.org/1999/xlink" x="0px" y="0px" viewBox="0 0 84 84" style="enable-background:new 0 0 84 84;" xml:space="preserve">
<style type="text/css">
	.st0{fill:#52C1FD;}
	.st1{fill:#008ECA;}
	.st2{fill:#175375;}
</style>
<circle class="st0" cx="42" cy="42" r="42"/>
<path class="st1" d="M51.1,35.1c2.9-1.1,5-3.9,5.1-7.2c0.3-4.5-3.2-8.4-7.8-8.7c-4.5-0.3-8.4,3.2-8.7,7.8c-0.2,3.7,2,6.9,5.3,8.2  c-4.6,1-8,5.1-8,10v6.9c0,5.5,4.4,10.1,9.9,10.3h2.2c5.5-0.2,9.9-4.7,9.9-10.3v-1.5v-1.8l0,0v-3.7C59,40.2,55.7,36.2,51.1,35.1z"/>
<path class="st2" d="M35.8,41.3c2.3-0.9,3.9-3,4-5.6c0.2-3.5-2.5-6.5-6-6.7s-6.5,2.5-6.7,6c-0.2,2.8,1.6,5.3,4.1,6.3  c-3.6,0.8-6.2,4-6.2,7.7v5.4c0,4.3,3.4,7.8,7.6,7.9h1.7c4.3-0.1,7.6-3.7,7.6-7.9v-1.1v-1.4l0,0v-2.8C42,45.3,39.3,42.1,35.8,41.3z"/>
</svg>