<?xml version="1.0" encoding="UTF-8"?>
<!-- Generator: Adobe Illustrator 21.1.0, SVG Export Plug-In . SVG Version: 6.00 Build 0)  -->
<svg version="1.1" id="Warstwa_1" xmlns="http://www.w3.org/2000/svg" xmlns:xlink="http://www.w3.org/1999/xlink" x="0px" y="0px" viewBox="0 0 84 84" style="enable-background:new 0 0 84 84;" xml:space="preserve">
<style type="text/css">
	.st0{fill:#52C1FD;}
	.st1{fill:#008ECA;}
	.st2{fill:#175375;}
</style>
<circle class="st0" cx="42" cy="42" r="42"/>
<path class="st1" d="M56.7,31.6c-0.5,0-1,0.1-1.5,0.2v-0.1c0-6.8-5.5-12.3-12.3-12.3c-5.7,0-10.5,3.9-11.9,9.2  c-0.6-0.1-1.3-0.2-1.9-0.2c-4.9,0-9,4-9,9c0,4.9,4,9,9,9h27.6c4.1,0,7.4-3.3,7.4-7.4C64.1,34.9,60.8,31.6,56.7,31.6z"/>
<path class="st2" d="M61.7,50.8L61.7,50.8v-0.3c0-1.2-1-2.3-2.3-2.3s-2.3,1-2.3,2.3V48c0-1.2-1-2.3-2.3-2.3s-2.3,1-2.3,2.3v-2.3  c0-1.2-1.1-2.3-2.3-2.3s-2.3,1.1-2.3,2.3v-7.3c0-1.2-1-2.3-2.3-2.3s-2.3,1-2.3,2.3V53c0,0-2.3-6.9-5.5-5.3c-1.1,0.6-1.6,1.9-1,3.1  l4.2,8.5c0,0,2.6,5.1,7.1,5.1h6c4.1,0,7.5-3.4,7.5-7.5L61.7,50.8z"/>
</svg>