<svg width="63" height="63" viewBox="0 0 63 63" fill="none" xmlns="http://www.w3.org/2000/svg">
<g clip-path="url(#clip0_214_2975)">
<path d="M60.7793 22.6091C60.7735 22.6035 60.7669 22.5985 60.761 22.593C60.748 22.5808 60.7346 22.5693 60.7211 22.5577C60.7127 22.5506 60.7049 22.5428 60.6964 22.5359L51.7744 15.3367V11.0655H52.7615C54.2264 11.0655 55.4182 9.87513 55.4182 8.41198V5.41591C55.4183 2.42956 52.9893 0 50.0035 0H16.6404C13.6546 0 11.2256 2.42956 11.2256 5.41591V15.3368L2.30676 22.5362C2.2979 22.5433 2.28978 22.5514 2.28104 22.5588C2.26849 22.5696 2.25594 22.5803 2.24364 22.5918C2.23822 22.5968 2.23232 22.6014 2.22703 22.6064C1.42562 23.3764 0.984375 24.4088 0.984375 25.513V58.9653C0.984375 60.1182 1.47299 61.1598 2.25385 61.8961C2.25791 61.8998 2.26185 61.904 2.26591 61.9077C2.98709 62.5823 3.95473 62.9977 5.01834 63H25.9748C26.6544 63 27.2053 62.4491 27.2053 61.7695C27.2053 61.0899 26.6544 60.5391 25.9748 60.5391H5.40139L23.7298 43.9023L27.4952 47.3206C28.6004 48.3226 30.051 48.8234 31.5015 48.8234C32.952 48.8234 34.4024 48.3221 35.5054 47.32L39.2705 43.9024L57.6018 60.5391H37.0251C36.3456 60.5391 35.7946 61.0899 35.7946 61.7695C35.7946 62.4491 36.3456 63 37.0251 63H57.9815C59.0465 63 60.0157 62.5843 60.7375 61.9077C60.7417 61.904 60.7455 61.8998 60.7497 61.8961C61.5284 61.1601 62.0156 60.1189 62.0156 58.9653V25.513C62.0156 24.4116 61.5766 23.3803 60.7793 22.6091ZM58.0325 23.5486L51.7744 29.2289V18.4989L58.0325 23.5486ZM50.0035 2.46094C51.6323 2.46094 52.9574 3.78652 52.9574 5.41591V8.41198C52.9574 8.51447 52.866 8.60454 52.7616 8.60454H22.2474C22.145 8.60454 22.0552 8.5146 22.0552 8.41198V5.41591C22.0552 4.32645 21.732 3.31131 21.1764 2.46094H50.0035ZM11.2256 18.4995V29.2268L4.97072 23.5485L11.2256 18.4995ZM3.44654 58.9899C3.44642 58.9817 3.44531 58.9737 3.44531 58.9653V25.513C3.44531 25.5048 3.44642 25.4968 3.44654 25.4885L21.8991 42.2403L3.44654 58.9899ZM33.8508 45.4982C32.5779 46.6546 30.4242 46.6543 29.1487 45.4979L13.6865 31.4609V5.41591C13.6865 3.78652 15.0116 2.46094 16.6404 2.46094C18.2691 2.46094 19.5942 3.78652 19.5942 5.41591V8.41198C19.5942 9.87513 20.7845 11.0655 22.2474 11.0655H49.3135V31.4627L33.8508 45.4982ZM59.5547 58.9653C59.5547 58.9727 59.5537 58.9797 59.5536 58.9871L41.1012 42.2405L59.5536 25.4914C59.5537 25.4986 59.5547 25.5058 59.5547 25.5132V58.9653Z" fill="#1740FE"/>
<path d="M19.8413 27.8107H30.7903C31.4699 27.8107 32.0207 27.2598 32.0207 26.5802V16.3154C32.0207 15.6358 31.4697 15.085 30.7903 15.085H19.8413C19.1617 15.085 18.6108 15.6358 18.6108 16.3154V26.5802C18.6108 27.2598 19.1618 27.8107 19.8413 27.8107ZM21.0718 17.5459H29.5598V25.3498H21.0718V17.5459Z" fill="#1740FE"/>
<path d="M43.1586 15.085H36.9763C36.2969 15.085 35.7458 15.6358 35.7458 16.3154C35.7458 16.995 36.2969 17.5459 36.9763 17.5459H43.1586C43.838 17.5459 44.389 16.995 44.389 16.3154C44.389 15.6358 43.838 15.085 43.1586 15.085Z" fill="#1740FE"/>
<path d="M43.1586 20.2192H36.9763C36.2969 20.2192 35.7458 20.7701 35.7458 21.4497C35.7458 22.1293 36.2969 22.6802 36.9763 22.6802H43.1586C43.838 22.6802 44.389 22.1293 44.389 21.4497C44.389 20.7701 43.838 20.2192 43.1586 20.2192Z" fill="#1740FE"/>
<path d="M43.1586 25.3499H36.9763C36.2969 25.3499 35.7458 25.9007 35.7458 26.5803C35.7458 27.2599 36.2969 27.8108 36.9763 27.8108H43.1586C43.838 27.8108 44.389 27.2599 44.389 26.5803C44.389 25.9007 43.838 25.3499 43.1586 25.3499Z" fill="#1740FE"/>
<path d="M43.1586 30.4839H19.8413C19.1617 30.4839 18.6108 31.0348 18.6108 31.7144C18.6108 32.3939 19.1617 32.9448 19.8413 32.9448H43.1586C43.838 32.9448 44.389 32.3939 44.389 31.7144C44.389 31.0348 43.838 30.4839 43.1586 30.4839Z" fill="#1740FE"/>
<path d="M37.5413 35.6147H25.459C24.7794 35.6147 24.2285 36.1656 24.2285 36.8452C24.2285 37.5248 24.7794 38.0757 25.459 38.0757H37.5413C38.2208 38.0757 38.7718 37.5248 38.7718 36.8452C38.7718 36.1656 38.2208 35.6147 37.5413 35.6147Z" fill="#1740FE"/>
<path d="M31.5017 60.5391C30.8221 60.5391 30.2712 61.0899 30.2712 61.7695C30.2712 62.4491 30.8221 63 31.5017 63H31.5052C32.1847 63 32.7339 62.4491 32.7339 61.7695C32.7339 61.0899 32.1813 60.5391 31.5017 60.5391Z" fill="#1740FE"/>
</g>
<defs>
<clipPath id="clip0_214_2975">
<rect width="63" height="63" fill="white"/>
</clipPath>
</defs>
</svg>