<svg width="71" height="71" viewBox="0 0 71 71" fill="none" xmlns="http://www.w3.org/2000/svg">
<g clip-path="url(#clip0_213_2964)">
<path d="M66.8398 23.8517H47.9805V22.465C47.9805 21.6991 47.3595 21.0783 46.5938 21.0783H42.2942C42.0747 20.0011 41.6041 19.0141 40.9472 18.1806L53.2389 2.23331C53.7065 1.62675 53.5939 0.755895 52.9872 0.288432C52.3808 -0.17903 51.5099 -0.0664289 51.0425 0.540261L38.8291 16.3859C37.8402 15.8421 36.706 15.5314 35.5001 15.5314C34.2943 15.5314 33.16 15.8421 32.1712 16.3859L19.9577 0.540261C19.4901 -0.0664289 18.6193 -0.17903 18.0129 0.288432C17.4062 0.756034 17.2935 1.62675 17.7612 2.23331L30.053 18.1806C29.3959 19.014 28.9254 20.0009 28.7059 21.0783H24.4062C23.6405 21.0783 23.0195 21.6991 23.0195 22.465V23.8517H4.16016C1.86625 23.8517 0 25.7179 0 28.0119V66.84C0 69.1339 1.86625 71.0001 4.16016 71.0001H66.8398C69.1338 71.0001 71 69.1339 71 66.84V28.0119C71 25.7179 69.1338 23.8517 66.8398 23.8517ZM68.2266 66.84C68.2266 67.6046 67.6045 68.2267 66.8398 68.2267H4.16016C3.39552 68.2267 2.77344 67.6046 2.77344 66.84V28.0119C2.77344 27.2472 3.39552 26.6251 4.16016 26.6251H23.0195V28.0119C23.0195 28.7777 23.6405 29.3986 24.4062 29.3986H46.5938C47.3595 29.3986 47.9805 28.7777 47.9805 28.0119V26.6251H66.8398C67.6045 26.6251 68.2266 27.2472 68.2266 28.0119V66.84Z" fill="#1740FE"/>
<path d="M25.793 41.8792C25.793 38.056 22.6826 34.9456 18.8594 34.9456C15.0362 34.9456 11.9258 38.056 11.9258 41.8792C11.9258 45.7023 15.0362 48.8127 18.8594 48.8127C22.6826 48.8127 25.793 45.7023 25.793 41.8792ZM18.8594 46.0393C16.5655 46.0393 14.6992 44.1731 14.6992 41.8792C14.6992 39.5852 16.5655 37.719 18.8594 37.719C21.1533 37.719 23.0195 39.5852 23.0195 41.8792C23.0195 44.1731 21.1533 46.0393 18.8594 46.0393Z" fill="#1740FE"/>
<path d="M18.8594 48.8127C13.5069 48.8127 9.15234 53.1673 9.15234 58.5198V61.2932C9.15234 62.0591 9.77332 62.6799 10.5391 62.6799H27.1797C27.9454 62.6799 28.5664 62.0591 28.5664 61.2932V58.5198C28.5664 53.1672 24.2118 48.8127 18.8594 48.8127ZM25.793 59.9065H11.9258V58.5198C11.9258 54.6966 15.0362 51.5862 18.8594 51.5862C22.6826 51.5862 25.793 54.6966 25.793 58.5198V59.9065Z" fill="#1740FE"/>
<path d="M61.293 43.2659H35.5C34.7343 43.2659 34.1133 43.8867 34.1133 44.6526C34.1133 45.4185 34.7343 46.0393 35.5 46.0393H61.293C62.0587 46.0393 62.6797 45.4185 62.6797 44.6526C62.6797 43.8867 62.0589 43.2659 61.293 43.2659Z" fill="#1740FE"/>
<path d="M61.293 51.5862H35.5C34.7343 51.5862 34.1133 52.207 34.1133 52.9729C34.1133 53.7388 34.7343 54.3596 35.5 54.3596H61.293C62.0587 54.3596 62.6797 53.7388 62.6797 52.9729C62.6797 52.207 62.0589 51.5862 61.293 51.5862Z" fill="#1740FE"/>
<path d="M61.293 59.9065H35.5C34.7343 59.9065 34.1133 60.5273 34.1133 61.2932C34.1133 62.0591 34.7343 62.6799 35.5 62.6799H61.293C62.0587 62.6799 62.6797 62.0591 62.6797 61.2932C62.6797 60.5273 62.0589 59.9065 61.293 59.9065Z" fill="#1740FE"/>
<path d="M38.2734 37.719H41.0469C41.8126 37.719 42.4336 37.0982 42.4336 36.3323C42.4336 35.5664 41.8126 34.9456 41.0469 34.9456H38.2734C37.5077 34.9456 36.8867 35.5664 36.8867 36.3323C36.8867 37.0982 37.5077 37.719 38.2734 37.719Z" fill="#1740FE"/>
<path d="M46.5938 37.719H49.3672C50.1329 37.719 50.7539 37.0982 50.7539 36.3323C50.7539 35.5664 50.1329 34.9456 49.3672 34.9456H46.5938C45.828 34.9456 45.207 35.5664 45.207 36.3323C45.207 37.0982 45.828 37.719 46.5938 37.719Z" fill="#1740FE"/>
<path d="M54.9141 37.719H57.6875C58.4532 37.719 59.0742 37.0982 59.0742 36.3323C59.0742 35.5664 58.4532 34.9456 57.6875 34.9456H54.9141C54.1483 34.9456 53.5273 35.5664 53.5273 36.3323C53.5273 37.0982 54.1483 37.719 54.9141 37.719Z" fill="#1740FE"/>
</g>
<defs>
<clipPath id="clip0_213_2964">
<rect width="71" height="71" fill="white"/>
</clipPath>
</defs>
</svg>