<svg width="89" height="89" viewBox="0 0 89 89" fill="none" xmlns="http://www.w3.org/2000/svg">
<path d="M36.778 45.3199C36.4482 45.155 36.0663 45.1278 35.7164 45.2444C35.3665 45.361 35.0773 45.6119 34.9123 45.9417L34.7276 46.3113C34.3729 47.0207 33.8276 47.6173 33.1529 48.0343C32.4783 48.4513 31.7008 48.6722 30.9076 48.6722C30.1145 48.6722 29.337 48.4513 28.6623 48.0343C27.9876 47.6173 27.4423 47.0207 27.0876 46.3113L26.903 45.9419C26.7381 45.612 26.4488 45.3612 26.0989 45.2445C25.749 45.1279 25.3671 45.1551 25.0373 45.32C24.7074 45.485 24.4565 45.7742 24.3399 46.1241C24.2233 46.474 24.2504 46.8559 24.4154 47.1858L24.6002 47.555C25.1859 48.7264 26.0862 49.7115 27.2002 50.4001C28.3143 51.0886 29.5981 51.4533 30.9077 51.4533C32.2173 51.4533 33.5011 51.0886 34.6152 50.4001C35.7292 49.7115 36.6295 48.7264 37.2152 47.555L37.3998 47.1856C37.5648 46.8558 37.5919 46.4739 37.4753 46.124C37.3587 45.7741 37.1079 45.4849 36.778 45.3199Z" fill="#1740FE"/>
<path d="M78.8051 33.6677C78.302 32.3685 77.4217 31.2496 76.2773 30.4549C76.2598 30.4043 76.2395 30.3547 76.2163 30.3064C75.2014 28.2142 73.7586 26.3583 71.9812 24.8587C70.2038 23.3592 68.1315 22.2495 65.8982 21.6013C67.1612 19.5393 69.0656 17.9485 71.3194 17.0727C71.7367 17.9594 72.4529 18.6709 73.3423 19.0824C74.2317 19.4939 75.2376 19.5792 76.1836 19.3233C77.1296 19.0673 77.9553 18.4865 78.516 17.6827C79.0766 16.8789 79.3363 15.9034 79.2496 14.9272C79.163 13.951 78.7354 13.0365 78.0419 12.3441C77.3484 11.6516 76.4333 11.2254 75.457 11.1401C74.4807 11.0549 73.5056 11.316 72.7026 11.8778C71.8996 12.4396 71.32 13.2662 71.0654 14.2125C67.5887 15.3368 64.698 17.7909 63.0245 21.0391C59.6774 20.6849 56.3018 21.3565 53.3451 22.9648C50.3885 24.5731 47.9905 27.0421 46.4693 30.0445L45.9478 27.3154L49.2199 24.244C49.4124 24.0634 49.5495 23.8317 49.6152 23.576C49.6809 23.3204 49.6725 23.0513 49.5909 22.8002C49.5094 22.5492 49.3581 22.3265 49.1546 22.1583C48.9512 21.9901 48.7041 21.8832 48.4422 21.8502L46.9336 21.66V14.9749C47.9954 14.5682 48.8812 13.8025 49.4374 12.8109C49.9937 11.8192 50.1851 10.664 49.9786 9.54593C49.7721 8.42781 49.1807 7.41728 48.307 6.68968C47.4332 5.96209 46.3323 5.56336 45.1953 5.56268H45.1432C44.6553 4.71728 43.9535 4.01522 43.1083 3.52709C42.263 3.03897 41.3042 2.78198 40.3281 2.78198C39.3521 2.78198 38.3932 3.03897 37.548 3.52709C36.7027 4.01522 36.0009 4.71728 35.5131 5.56268H35.4609C34.231 5.56353 33.047 6.03 32.147 6.86828C31.247 7.70657 30.6977 8.85452 30.6096 10.0813C30.5215 11.3081 30.9012 12.5227 31.6722 13.481C32.4432 14.4393 33.5484 15.0701 34.7656 15.2466V21.6531L33.2012 21.8504C32.9392 21.8833 32.6921 21.9902 32.4887 22.1584C32.2853 22.3266 32.1339 22.5493 32.0523 22.8003C31.9707 23.0514 31.9623 23.3205 32.028 23.5762C32.0937 23.8318 32.2308 24.0635 32.4233 24.2442L35.6956 27.3155L34.8534 31.7238C34.8038 31.9831 34.8291 32.2511 34.9262 32.4965C35.0234 32.742 35.1883 32.9547 35.4019 33.1099C35.6154 33.265 35.8687 33.3562 36.1322 33.3728C36.3956 33.3893 36.6583 33.3305 36.8896 33.2033L40.822 31.0401L44.7541 33.2033C44.8964 33.2804 45.0512 33.332 45.2113 33.3555C44.9719 34.2737 44.8121 35.2108 44.7336 36.1564H21.4688C21.1348 36.1564 20.812 36.2766 20.5593 36.4951C20.3066 36.7135 20.141 37.0156 20.0928 37.3461L19.532 41.1848L12.7746 50.6452C12.5756 50.9238 12.4864 51.266 12.5241 51.6063C12.5617 51.9467 12.7236 52.2611 12.9787 52.4895L18.0781 57.0544V76.4846C18.0781 76.8268 18.2043 77.157 18.4325 77.412C18.6607 77.667 18.975 77.8288 19.3151 77.8667L30.5937 79.1198V84.8283C30.5937 85.1971 30.7402 85.5508 31.001 85.8116C31.2618 86.0724 31.6155 86.2189 31.9844 86.2189H62.5781C62.9469 86.2189 63.3006 86.0724 63.5614 85.8116C63.8222 85.5508 63.9687 85.1971 63.9687 84.8283V72.4865L65.6573 65.8484C67.4329 58.8804 68.0867 51.674 67.5943 44.5002H77.9909C79.3647 44.4999 80.6876 43.9806 81.6946 43.0462C82.7017 42.1118 83.3185 40.8314 83.4214 39.4615C83.5244 38.0916 83.1059 36.7334 82.2499 35.659C81.3938 34.5846 80.1634 33.8734 78.8051 33.6677ZM44.1523 15.2971V21.3092L43.9901 21.2889L42.0803 17.2278C41.968 16.989 41.79 16.787 41.5672 16.6456C41.3443 16.5042 41.0859 16.4291 40.822 16.4291C40.558 16.4291 40.2996 16.5042 40.0768 16.6456C39.8539 16.787 39.676 16.989 39.5636 17.2278L37.6536 21.2889L37.5469 21.3023V15.2971H44.1523ZM33.375 10.4299C33.3756 9.87682 33.5955 9.3466 33.9866 8.95555C34.3777 8.56449 34.9079 8.34453 35.4609 8.34393H36.3963C36.6838 8.34393 36.9643 8.2548 37.1991 8.08881C37.4339 7.92283 37.6114 7.68815 37.7073 7.41708C37.8986 6.87482 38.2535 6.40527 38.7228 6.07314C39.1922 5.741 39.7531 5.56264 40.3281 5.56264C40.9031 5.56264 41.464 5.741 41.9334 6.07314C42.4028 6.40527 42.7576 6.87482 42.9489 7.41708C43.0448 7.68815 43.2224 7.92283 43.4572 8.08881C43.6919 8.2548 43.9724 8.34393 44.2599 8.34393H45.1953C45.7485 8.34393 46.2791 8.5637 46.6703 8.95488C47.0615 9.34607 47.2812 9.87664 47.2812 10.4299C47.2812 10.9831 47.0615 11.5137 46.6703 11.9048C46.2791 12.296 45.7485 12.5158 45.1953 12.5158H35.4609C34.9079 12.5152 34.3777 12.2952 33.9866 11.9042C33.5955 11.5131 33.3756 10.9829 33.375 10.4299ZM43.4873 25.811C43.3164 25.9714 43.1888 26.1724 43.1164 26.3953C43.044 26.6181 43.0291 26.8557 43.073 27.0859L43.5038 29.341L41.4928 28.2346C41.2874 28.1216 41.0569 28.0624 40.8226 28.0624C40.5882 28.0624 40.3577 28.1216 40.1524 28.2346L38.1407 29.341L38.5716 27.0859C38.6155 26.8557 38.6005 26.6182 38.5281 26.3953C38.4557 26.1724 38.3282 25.9715 38.1573 25.811L36.4834 24.2398L38.7605 23.9527C38.9931 23.9233 39.2144 23.8357 39.404 23.698C39.5936 23.5602 39.7453 23.3768 39.845 23.1647L40.8221 21.0873L41.7992 23.1647C41.8989 23.3768 42.0506 23.5602 42.2402 23.6979C42.4298 23.8357 42.6511 23.9233 42.8836 23.9527L45.1607 24.2398L43.4873 25.811ZM75.0937 13.9064C75.3688 13.9064 75.6376 13.988 75.8663 14.1408C76.095 14.2936 76.2732 14.5108 76.3785 14.7649C76.4838 15.019 76.5113 15.2986 76.4576 15.5684C76.404 15.8381 76.2715 16.0859 76.0771 16.2804C75.8826 16.4749 75.6348 16.6073 75.365 16.661C75.0953 16.7146 74.8157 16.6871 74.5616 16.5818C74.3075 16.4766 74.0903 16.2983 73.9375 16.0696C73.7847 15.841 73.7031 15.5721 73.7031 15.2971C73.7035 14.9284 73.8502 14.5749 74.1109 14.3142C74.3716 14.0535 74.725 13.9068 75.0937 13.9064ZM61.2744 23.7277C63.4114 23.7183 65.5211 24.2084 67.4351 25.1591C69.349 26.1098 71.0142 27.4947 72.2979 29.2033C71.2714 29.2059 70.2585 29.4375 69.3329 29.8812C67.8827 28.3552 66.0292 27.2721 63.9877 26.7581C61.9462 26.244 59.8008 26.32 57.8008 26.9774C55.8009 27.6347 54.0286 28.8462 52.6901 30.4712C51.3517 32.0961 50.502 34.0676 50.24 36.1564H47.526C47.8746 32.7512 49.473 29.596 52.0122 27.3005C54.5515 25.005 57.8514 23.7321 61.2744 23.7277ZM62.0245 36.1564H58.8695C59.0572 35.8301 59.3094 35.5455 59.6106 35.3197C59.9119 35.094 60.2559 34.9319 60.6218 34.8434C60.9877 34.7548 61.3677 34.7416 61.7389 34.8046C62.11 34.8676 62.4645 35.0054 62.7806 35.2098C62.4946 35.4964 62.2411 35.8139 62.025 36.1564H62.0245ZM65.8193 33.6677C65.6594 33.6917 65.5017 33.7228 65.3463 33.7609C64.6672 33.0298 63.8039 32.495 62.8469 32.2125C61.89 31.9299 60.8746 31.9101 59.9073 32.1551C58.9401 32.4001 58.0565 32.9009 57.3494 33.6049C56.6423 34.3089 56.1377 35.1902 55.8885 36.1564H53.0492C53.3025 34.6556 53.9615 33.2527 54.9551 32.0997C55.9486 30.9466 57.2387 30.0874 58.6856 29.6151C60.1324 29.1428 61.681 29.0754 63.1635 29.4202C64.6459 29.765 66.0058 30.5088 67.0957 31.5712C66.549 32.1885 66.1169 32.8985 65.8198 33.6677H65.8193ZM62.9619 65.1631L61.2304 71.9697C61.2019 72.0818 61.1875 72.197 61.1875 72.3127V83.4377H33.375V77.8752C33.375 77.533 33.2488 77.2028 33.0206 76.9478C32.7924 76.6928 32.4781 76.5309 32.138 76.4931L20.8594 75.2399V64.3277H23.6785C24.6459 64.3304 25.6043 64.1411 26.4981 63.7709C27.3919 63.4007 28.2034 62.8569 28.8857 62.171C29.1465 61.9102 29.293 61.5565 29.293 61.1876C29.293 60.8188 29.1464 60.465 28.8856 60.2042C28.6248 59.9434 28.2711 59.7969 27.9022 59.797C27.5334 59.797 27.1796 59.9435 26.9188 60.2043C26.4943 60.6312 25.9893 60.9696 25.4331 61.2C24.8769 61.4304 24.2805 61.5481 23.6785 61.5465H20.8594V56.4328C20.8594 56.2372 20.8181 56.0438 20.7383 55.8653C20.6586 55.6867 20.542 55.527 20.3963 55.3966L15.7619 51.2478L21.991 42.5271C22.1196 42.347 22.2034 42.1388 22.2354 41.9199L22.671 38.9377H61.1901C61.1901 38.9763 61.1875 39.0147 61.1875 39.0534C61.1888 40.1725 61.5342 41.2642 62.1769 42.1803C62.8196 43.0965 63.7285 43.7928 64.7803 44.1749C65.3209 51.2234 64.7067 58.3127 62.9619 65.1631ZM77.9909 41.7189H66.634C65.9309 41.7132 65.2584 41.4299 64.7632 40.9307C64.268 40.4314 63.9901 39.7567 63.9901 39.0535C63.9901 38.3503 64.268 37.6756 64.7632 37.1764C65.2584 36.6771 65.9309 36.3938 66.634 36.3881H66.8717C67.1904 36.3881 67.4995 36.2786 67.7471 36.078C67.9947 35.8773 68.1659 35.5977 68.232 35.2859C68.431 34.3512 68.9448 33.5132 69.6875 32.912C70.4303 32.3107 71.3569 31.9827 72.3125 31.9827C73.2681 31.9827 74.1947 32.3107 74.9374 32.912C75.6802 33.5132 76.194 34.3512 76.3929 35.2859C76.459 35.5977 76.6302 35.8773 76.8779 36.078C77.1255 36.2786 77.4346 36.3881 77.7533 36.3881H77.9909C78.6941 36.3938 79.3665 36.6771 79.8618 37.1764C80.357 37.6756 80.6349 38.3503 80.6349 39.0535C80.6349 39.7567 80.357 40.4314 79.8618 40.9307C79.3665 41.4299 78.6941 41.7132 77.9909 41.7189Z" fill="#1740FE"/>
<path d="M54.2344 18.0782C54.6032 18.0782 54.9569 17.9317 55.2177 17.6709C55.4785 17.4101 55.625 17.0564 55.625 16.6876V16.4489C55.6204 14.613 56.244 12.8307 57.3923 11.3982C58.2902 12.1402 59.4244 12.5358 60.589 12.5131C61.7536 12.4903 62.8714 12.0509 63.7397 11.2744C64.608 10.4979 65.1691 9.43588 65.3212 8.28104C65.4734 7.12621 65.2065 5.95509 64.569 4.98022C63.9314 4.00535 62.9656 3.29134 61.8466 2.96776C60.7276 2.64418 59.5297 2.73248 58.4703 3.21664C57.4108 3.70079 56.5601 4.54871 56.0724 5.60652C55.5847 6.66433 55.4924 7.86193 55.8122 8.98197C53.9 10.997 52.8369 13.671 52.8438 16.4489V16.6876C52.8438 17.0564 52.9903 17.4101 53.2511 17.6709C53.5119 17.9317 53.8656 18.0782 54.2344 18.0782ZM60.4922 5.5626C60.9048 5.5626 61.3081 5.68494 61.6511 5.91414C61.9941 6.14335 62.2615 6.46913 62.4194 6.85028C62.5773 7.23144 62.6186 7.65085 62.5381 8.05548C62.4576 8.46011 62.2589 8.83179 61.9672 9.12352C61.6755 9.41524 61.3038 9.61391 60.8992 9.69439C60.4945 9.77488 60.0751 9.73357 59.694 9.57569C59.3128 9.41781 58.987 9.15045 58.7578 8.80742C58.5286 8.46439 58.4063 8.0611 58.4063 7.64854C58.4069 7.0955 58.6268 6.56528 59.0179 6.17422C59.409 5.78316 59.9392 5.5632 60.4922 5.5626Z" fill="#1740FE"/>
<path d="M23.6406 20.8594C24.2239 20.8597 24.8006 20.737 25.3332 20.4992C26.9371 22.6003 27.808 25.1692 27.8125 27.8125C27.8125 28.1813 27.959 28.535 28.2198 28.7958C28.4806 29.0566 28.8343 29.2031 29.2031 29.2031C29.572 29.2031 29.9257 29.0566 30.1865 28.7958C30.4473 28.535 30.5938 28.1813 30.5938 27.8125C30.5892 24.4701 29.4594 21.2265 27.3863 18.6047C27.3778 18.5941 27.3689 18.5847 27.3595 18.5742C27.7702 17.7639 27.9051 16.8417 27.7437 15.9477C27.5823 15.0538 27.1334 14.2369 26.4653 13.6214C25.7972 13.0059 24.9464 12.6253 24.0422 12.5376C23.138 12.4498 22.2299 12.6597 21.4559 13.1353C20.6819 13.6109 20.0844 14.3262 19.7541 15.1725C19.4239 16.0187 19.3789 16.9497 19.6262 17.8238C19.8734 18.698 20.3993 19.4675 21.1239 20.0154C21.8485 20.5633 22.7322 20.8597 23.6406 20.8594ZM23.6406 15.2969C23.9157 15.2969 24.1845 15.3784 24.4132 15.5312C24.6419 15.6841 24.8202 15.9012 24.9254 16.1553C25.0307 16.4094 25.0582 16.6891 25.0045 16.9588C24.9509 17.2286 24.8184 17.4763 24.624 17.6708C24.4295 17.8653 24.1817 17.9978 23.9119 18.0514C23.6422 18.1051 23.3626 18.0775 23.1085 17.9723C22.8544 17.867 22.6372 17.6888 22.4844 17.4601C22.3316 17.2314 22.25 16.9626 22.25 16.6875C22.2504 16.3188 22.3971 15.9654 22.6578 15.7046C22.9185 15.4439 23.272 15.2973 23.6406 15.2969Z" fill="#1740FE"/>
<path d="M19.3095 29.742C20.2331 29.9136 21.113 30.2687 21.897 30.7863C22.6811 31.3039 23.3533 31.9735 23.874 32.7555C24.0795 33.0602 24.3973 33.2711 24.7579 33.3422C25.1185 33.4133 25.4926 33.3388 25.7983 33.1349C26.1041 32.931 26.3168 32.6143 26.3898 32.2541C26.4628 31.8939 26.3903 31.5195 26.188 31.2126C25.4029 30.0336 24.3716 29.0388 23.1651 28.2968C21.9586 27.5547 20.6056 27.0829 19.1992 26.914C18.8168 25.812 18.0512 24.8841 17.0419 24.2994C16.0326 23.7146 14.8468 23.5119 13.7006 23.7282C12.5544 23.9445 11.524 24.5654 10.7972 25.4777C10.0704 26.3901 9.69558 27.5332 9.741 28.6987C9.78642 29.8643 10.2491 30.9747 11.0447 31.8278C11.8402 32.6808 12.9158 33.2196 14.0754 33.346C15.235 33.4725 16.4014 33.1781 17.3621 32.5166C18.3228 31.855 19.0139 30.8704 19.3095 29.742ZM12.5154 28.5078C12.5154 28.0953 12.6377 27.692 12.8669 27.3489C13.0961 27.0059 13.4219 26.7385 13.8031 26.5807C14.1842 26.4228 14.6036 26.3815 15.0083 26.462C15.4129 26.5424 15.7846 26.7411 16.0763 27.0328C16.368 27.3246 16.5667 27.6962 16.6472 28.1009C16.7277 28.5055 16.6863 28.9249 16.5285 29.3061C16.3706 29.6872 16.1032 30.013 15.7602 30.2422C15.4172 30.4714 15.0139 30.5937 14.6013 30.5937C14.0483 30.5932 13.5181 30.3732 13.127 29.9821C12.7359 29.5911 12.516 29.0609 12.5154 28.5078Z" fill="#1740FE"/>
<path d="M12.5056 17.5106C12.5273 17.3292 12.5129 17.1453 12.4635 16.9695C12.414 16.7936 12.3304 16.6292 12.2174 16.4857C12.1044 16.3422 11.9642 16.2223 11.8049 16.133C11.6456 16.0437 11.4702 15.9866 11.2888 15.965C9.1716 15.7142 7.02525 15.9968 5.0451 16.7871C4.87554 16.8549 4.721 16.9555 4.59029 17.083C4.45959 17.2105 4.35529 17.3626 4.28335 17.5304C4.21141 17.6983 4.17323 17.8787 4.171 18.0613C4.16877 18.2439 4.20253 18.4252 4.27035 18.5947C4.33817 18.7643 4.43872 18.9188 4.56627 19.0495C4.69382 19.1802 4.84586 19.2845 5.01371 19.3565C5.18157 19.4284 5.36195 19.4666 5.54456 19.4688C5.72717 19.471 5.90843 19.4373 6.07799 19.3695C7.62604 18.7516 9.30399 18.5305 10.9593 18.7263C11.1407 18.7484 11.3247 18.7344 11.5007 18.6852C11.6767 18.636 11.8413 18.5525 11.9849 18.4396C12.1286 18.3266 12.2486 18.1864 12.3379 18.027C12.4273 17.8676 12.4843 17.6921 12.5056 17.5106Z" fill="#1740FE"/>
<path d="M15.6793 20.5898C16.0861 20.8889 16.4697 21.2185 16.8266 21.5757L17.0937 21.8429C17.3545 22.1037 17.7083 22.2502 18.0771 22.2502C18.4459 22.2502 18.7996 22.1037 19.0604 21.8429C19.3212 21.5821 19.4677 21.2284 19.4677 20.8596C19.4677 20.4907 19.3212 20.137 19.0604 19.8762L18.7933 19.6091C18.3364 19.1523 17.8455 18.7307 17.3249 18.3481C17.0276 18.1298 16.6557 18.0385 16.291 18.0944C15.9264 18.1503 15.5989 18.3488 15.3806 18.6461C15.1623 18.9435 15.071 19.3154 15.1269 19.68C15.1828 20.0447 15.3812 20.3722 15.6786 20.5905L15.6793 20.5898Z" fill="#1740FE"/>
</svg>