<svg width="76" height="76" viewBox="0 0 76 76" fill="none" xmlns="http://www.w3.org/2000/svg">
<g clip-path="url(#clip0_214_2986)">
<path d="M75.3745 9.59209C75.3294 9.54964 66.4022 1.03601 66.4022 1.03601C66.061 0.708555 65.708 0.370117 65.0489 0.370117H29.1092C28.0595 0.370117 27.2054 1.22408 27.2054 2.27383V8.11974L14.5384 10.2911C13.5231 10.4692 12.8403 11.4409 13.0162 12.4552L13.6591 16.2035C9.54189 17.589 5.31484 19.0173 1.23414 20.4831C0.269894 20.8356 -0.23613 21.9078 0.107948 22.8778L8.22525 45.4427C8.38853 45.8968 8.81648 46.1796 9.27292 46.1796C9.39791 46.1796 9.52527 46.1583 9.64966 46.1135C10.2283 45.9054 10.5286 45.2677 10.3204 44.6891L2.32323 22.4579C6.16776 21.0815 10.1492 19.7342 14.0401 18.4246L17.8655 40.7266L22.2673 66.411C22.4263 67.3176 23.2232 67.9628 24.1228 67.9628C24.2246 67.9628 24.3279 67.9545 24.4315 67.9374L36.3534 65.8915L45.6694 64.2946L31.6582 69.3306L20.6092 73.3032L12.0284 49.4361C11.8204 48.8575 11.1829 48.5572 10.6041 48.7652C10.0255 48.9732 9.72521 49.6108 9.93317 50.1895L18.6358 74.3957C18.9141 75.1569 19.6352 75.6302 20.3974 75.6302C20.6081 75.6302 20.822 75.5939 21.0304 75.5178L32.4112 71.426L58.2533 62.1376L63.1902 61.2914H74.096C75.1458 61.2914 75.9999 60.4355 75.9999 59.3834V10.8465C76 10.1802 75.6384 9.84028 75.3745 9.59209ZM72.4249 9.85572H66.8541L66.716 9.85631C66.4493 9.85809 65.8248 9.8627 65.6664 9.70535C65.6299 9.66898 65.5871 9.54756 65.5871 9.32209L65.5742 3.32298L72.4249 9.85572ZM73.7735 59.0645H29.4319V37.3679C29.4319 36.753 28.9335 36.2546 28.3186 36.2546C27.7038 36.2546 27.2054 36.753 27.2054 37.3679V59.3831C27.2054 60.4351 28.0595 61.2911 29.1092 61.2911H50.011L35.977 63.6967L24.4015 65.6832L20.06 40.3501L15.2701 12.4246L27.2052 10.3787V32.2022C27.2052 32.8171 27.7037 33.3155 28.3185 33.3155C28.9333 33.3155 29.4318 32.8171 29.4318 32.2022V2.59653H63.346L63.3606 9.32461C63.3606 10.1401 63.6086 10.7998 64.0977 11.2855C64.8493 12.0317 65.9116 12.0836 66.5711 12.0836C66.6278 12.0836 66.6816 12.0832 66.7319 12.0829L73.7735 12.0824V59.0645Z" fill="#1740FE"/>
<path d="M34.7983 17.6565C34.7983 18.2713 35.2968 18.7698 35.9116 18.7698H67.742C68.3568 18.7698 68.8552 18.2713 68.8552 17.6565C68.8552 17.0417 68.3568 16.5432 67.742 16.5432H35.9116C35.2968 16.5432 34.7983 17.0417 34.7983 17.6565Z" fill="#1740FE"/>
<path d="M67.742 24.4524H35.9116C35.2968 24.4524 34.7983 24.9508 34.7983 25.5657C34.7983 26.1805 35.2968 26.679 35.9116 26.679H67.742C68.3568 26.679 68.8552 26.1805 68.8552 25.5657C68.8552 24.9508 68.3568 24.4524 67.742 24.4524Z" fill="#1740FE"/>
<path d="M67.742 32.3613H35.9116C35.2968 32.3613 34.7983 32.8598 34.7983 33.4746C34.7983 34.0894 35.2968 34.5879 35.9116 34.5879H67.742C68.3568 34.5879 68.8552 34.0894 68.8552 33.4746C68.8552 32.8598 68.3568 32.3613 67.742 32.3613Z" fill="#1740FE"/>
<path d="M67.742 40.2705H35.9116C35.2968 40.2705 34.7983 40.769 34.7983 41.3838C34.7983 41.9986 35.2968 42.4971 35.9116 42.4971H67.742C68.3568 42.4971 68.8552 41.9986 68.8552 41.3838C68.8552 40.769 68.3568 40.2705 67.742 40.2705Z" fill="#1740FE"/>
<path d="M67.742 48.1797H35.9116C35.2968 48.1797 34.7983 48.6781 34.7983 49.293C34.7983 49.9078 35.2968 50.4062 35.9116 50.4062H67.742C68.3568 50.4062 68.8552 49.9078 68.8552 49.293C68.8552 48.6781 68.3568 48.1797 67.742 48.1797Z" fill="#1740FE"/>
</g>
<defs>
<clipPath id="clip0_214_2986">
<rect width="76" height="76" fill="white"/>
</clipPath>
</defs>
</svg>