<svg width="63" height="63" viewBox="0 0 63 63" fill="none" xmlns="http://www.w3.org/2000/svg">
<g clip-path="url(#clip0_212_2954)">
<path d="M60.8511 16.6262C59.7995 15.9502 58.5475 15.7242 57.3262 15.9898C56.1047 16.2555 55.0597 16.9808 54.3838 18.0324L53.3745 19.6025L47.4909 28.7552V1.23047C47.4909 0.551004 46.94 0 46.2605 0H1.23145C0.551857 0 0.000976562 0.551004 0.000976562 1.23047V45.7193C0.000976562 46.3988 0.551857 46.9498 1.23145 46.9498C1.91103 46.9498 2.46191 46.3988 2.46191 45.7193V2.46094H45.03V32.5835L37.5928 44.1532C37.5094 44.2822 37.4492 44.4335 37.4199 44.5843L36.4761 49.4506C35.991 49.2736 35.4345 49.2253 34.8466 49.335C33.9703 49.4988 33.153 49.9083 32.4347 50.4522C32.4081 50.039 32.3691 49.623 32.3203 49.1754C32.1841 47.9233 31.6334 46.9069 30.7697 46.3137C28.9688 45.0774 26.7887 46.5313 26.072 47.0088C23.7522 48.5557 21.7602 50.7503 20.3112 53.3556C19.9808 53.9494 20.1946 54.6986 20.7885 55.029C20.9779 55.1343 21.1831 55.1844 21.3854 55.1844C21.8176 55.1844 22.2369 54.9563 22.462 54.5517C23.7215 52.2872 25.4419 50.3868 27.4374 49.0564C28.8398 48.1212 29.2764 48.2738 29.3767 48.3424C29.7451 48.5954 29.8471 49.1955 29.8739 49.4417C30.0329 50.9024 30.0765 51.9325 29.8936 53.8361C29.8365 54.4302 30.214 54.9796 30.789 55.1393C31.3643 55.2994 31.9709 55.023 32.2284 54.4848C32.7914 53.3078 34.0269 51.9919 35.2988 51.7543C35.5525 51.707 35.6945 51.7535 35.7207 51.8895C35.7569 52.1078 35.7233 52.9414 35.649 53.7155C35.444 54.8409 36.776 55.6232 37.6468 54.9017L45.0302 49.6337V60.5391H2.46191V56.5474C2.46191 55.868 1.91103 55.317 1.23145 55.317C0.551857 55.317 0.000976562 55.868 0.000976562 56.5474V61.7695C0.000976562 62.449 0.551857 63 1.23145 63H46.2605C46.94 63 47.4909 62.449 47.4909 61.7695V46.0648L61.2482 24.6636L62.2574 23.0936C63.6526 20.9228 63.0219 18.0216 60.8511 16.6262ZM56.4539 19.363C57.1075 18.3462 58.5019 18.0419 59.5204 18.6964C60.5496 19.358 60.8488 20.7336 60.1871 21.7629L59.8434 22.2979L56.11 19.898L56.4539 19.363ZM38.6512 51.1614L39.4167 47.2144L39.4902 46.8357L40.8642 47.7189L42.2383 48.6022L41.0075 49.4803L38.6512 51.1614ZM45.227 45.0356C45.2265 45.0364 45.2259 45.0371 45.2254 45.0379L44.0615 46.8484L40.3285 44.4488L47.2955 33.6111C47.2968 33.6093 47.2975 33.6073 47.2986 33.6055L54.7792 21.9682L58.5126 24.3681L45.227 45.0356Z" fill="#1740FE"/>
<path d="M23.102 5.77466H9.41016C8.73057 5.77466 8.17969 6.32566 8.17969 7.00513V22.548C8.17969 23.2275 8.73057 23.7785 9.41016 23.7785H23.102C23.7815 23.7785 24.3324 23.2275 24.3324 22.548V7.00513C24.3324 6.32554 23.7815 5.77466 23.102 5.77466ZM21.8715 8.2356V17.0424C21.192 16.5055 20.4448 16.1311 19.7215 15.8707C20.155 15.2151 20.4082 14.4304 20.4082 13.5873C20.4082 11.2979 18.5455 9.43518 16.256 9.43518C13.9666 9.43518 12.1039 11.2979 12.1039 13.5873C12.1039 14.4294 12.3566 15.2133 12.7893 15.8686C12.0665 16.1288 11.3197 16.5026 10.6406 17.0392V8.2356H21.8715ZM16.2566 15.2779C16.2535 15.2779 16.249 15.2778 16.2457 15.2778C15.3179 15.2722 14.5648 14.5162 14.5648 13.5871C14.5648 12.6547 15.3235 11.896 16.256 11.896C17.1886 11.896 17.9473 12.6547 17.9473 13.5871C17.9473 14.5165 17.1936 15.2728 16.2653 15.2778C16.2628 15.2779 16.2591 15.2779 16.2566 15.2779ZM10.7559 21.3176C10.9281 20.4732 11.2943 19.7859 11.8621 19.235C13.4618 17.683 16.1563 17.737 16.2139 17.7385C16.2182 17.7386 16.2225 17.7384 16.227 17.7385C16.2367 17.7385 16.2463 17.7392 16.2561 17.7392C16.2671 17.7392 16.2778 17.7385 16.2886 17.7384C16.2925 17.7383 16.2965 17.7385 16.3004 17.7384C16.3274 17.739 19.0399 17.6846 20.6424 19.2307C21.214 19.7822 21.5828 20.4711 21.7559 21.3176H10.7559Z" fill="#1740FE"/>
<path d="M30.1323 10.6829H39.1609C39.8405 10.6829 40.3914 10.1319 40.3914 9.45239C40.3914 8.77293 39.8405 8.22192 39.1609 8.22192H30.1323C29.4527 8.22192 28.9019 8.77293 28.9019 9.45239C28.9019 10.1319 29.4527 10.6829 30.1323 10.6829Z" fill="#1740FE"/>
<path d="M30.1323 16.0908H39.1609C39.8405 16.0908 40.3914 15.5398 40.3914 14.8604C40.3914 14.1809 39.8405 13.6299 39.1609 13.6299H30.1323C29.4527 13.6299 28.9019 14.1809 28.9019 14.8604C28.9019 15.5398 29.4527 16.0908 30.1323 16.0908Z" fill="#1740FE"/>
<path d="M30.1323 21.4985H39.1609C39.8405 21.4985 40.3914 20.9475 40.3914 20.2681C40.3914 19.5886 39.8405 19.0376 39.1609 19.0376H30.1323C29.4527 19.0376 28.9019 19.5886 28.9019 20.2681C28.9019 20.9475 29.4527 21.4985 30.1323 21.4985Z" fill="#1740FE"/>
<path d="M8.41211 28.3374V34.392C8.41211 35.0715 8.96299 35.6225 9.64258 35.6225H39.1608C39.8404 35.6225 40.3913 35.0715 40.3913 34.392V28.3374C40.3913 27.6579 39.8404 27.1069 39.1608 27.1069H9.64258C8.96299 27.1069 8.41211 27.6578 8.41211 28.3374ZM10.873 29.5679H37.9303V33.1616H10.873V29.5679Z" fill="#1740FE"/>
<path d="M28.2797 40.4587C28.2797 39.7793 27.7288 39.2283 27.0492 39.2283H10.0771C9.39756 39.2283 8.84668 39.7793 8.84668 40.4587C8.84668 41.1382 9.39756 41.6892 10.0771 41.6892H27.0494C27.7288 41.6892 28.2797 41.1382 28.2797 40.4587Z" fill="#1740FE"/>
<path d="M10.0771 44.3862C9.39756 44.3862 8.84668 44.9372 8.84668 45.6167C8.84668 46.2962 9.39756 46.8472 10.0771 46.8472H18.0684C18.748 46.8472 19.2989 46.2962 19.2989 45.6167C19.2989 44.9372 18.748 44.3862 18.0684 44.3862H10.0771Z" fill="#1740FE"/>
<path d="M0.208592 51.8668C0.580563 52.425 1.35637 52.5762 1.91402 52.2064C2.47315 51.8355 2.62388 51.0566 2.25363 50.4998C1.88265 49.9417 1.10462 49.7895 0.548202 50.1601C-0.0135074 50.5342 -0.157964 51.3067 0.208592 51.8668Z" fill="#1740FE"/>
</g>
<defs>
<clipPath id="clip0_212_2954">
<rect width="63" height="63" fill="white"/>
</clipPath>
</defs>
</svg>