<svg width="82" height="82" viewBox="0 0 82 82" fill="none" xmlns="http://www.w3.org/2000/svg">
<path fill-rule="evenodd" clip-rule="evenodd" d="M7.43644 65.6838C19.5852 65.6892 31.7285 65.6892 43.8809 65.6838C44.1515 67.9861 45.3095 70.0079 46.9987 71.4174H13.7769C10.4176 71.4174 7.99131 68.8727 7.43644 65.6838ZM68.244 10.6135C71.6042 10.6135 74.0341 13.1573 74.5899 16.3462H61.5619C62.0566 13.0826 64.8328 10.6135 68.244 10.6135ZM23.1531 10.6135H62.5732C60.6654 12.2134 59.4181 14.6041 59.4181 17.2764L59.4126 64.6497C59.4126 68.4043 56.4287 71.3973 52.6786 71.4174C52.6749 71.4174 52.6695 71.4174 52.664 71.4174C52.6603 71.4174 52.6549 71.4174 52.6458 71.4174C48.9057 71.4174 45.9263 68.4508 45.8835 64.7262C45.9209 64.1795 45.5792 63.6055 44.8439 63.621H16.3908V17.3821C16.3908 13.6183 19.3857 10.6135 23.1531 10.6135ZM23.1531 8.5498C18.2805 8.5498 14.3235 12.5077 14.3235 17.3812V63.6201H5.97593C5.26435 63.6201 4.95093 64.1649 4.95093 64.6487C4.95093 69.5232 8.90333 73.4801 13.7778 73.4801H52.6476C58.0751 73.4801 61.3496 68.8298 61.4772 64.6487V18.4098H76.0458C76.6153 18.4098 77.0818 17.9497 77.0818 17.3812C77.0818 12.5068 73.1239 8.5498 68.2449 8.5498H23.1531Z" fill="#1740FE"/>
<path d="M68.5519 30.7527H71.5185L71.5668 68.0482L70.109 70.0025L68.6002 68.0044L68.5519 30.7527ZM67.4185 28.69C66.8864 28.7419 66.4883 29.1875 66.4883 29.715L66.5366 68.3534C66.5366 68.5739 66.6076 68.7925 66.7452 68.9729L69.279 72.3431C69.6972 72.898 70.5227 72.8935 70.9354 72.3377L73.4319 69.003C73.5649 68.8217 73.6369 68.6094 73.6314 68.3853L73.5831 29.715C73.5831 29.1455 73.1184 28.6845 72.549 28.69H67.4185Z" fill="#1740FE"/>
<path d="M67.712 24.95C66.3362 24.95 66.441 27.0136 67.8223 27.0136H72.3013C73.7299 27.0136 73.7299 24.95 72.3013 24.95H67.712Z" fill="#1740FE"/>
<path d="M26.0204 23.5029C23.7235 23.5029 21.8347 25.378 21.8347 27.674V33.9151C21.8347 36.2075 23.7225 38.0762 26.0204 38.0762H32.1139C34.4108 38.0762 36.305 36.2066 36.305 33.9151V32.225C36.305 30.8456 34.2359 30.8456 34.2359 32.225V33.9151C34.2359 35.0923 33.3102 36.0134 32.1148 36.0134H26.0213C24.825 36.0134 23.9057 35.0923 23.9057 33.9151V27.674C23.9057 26.4932 24.8259 25.5721 26.0213 25.5721H31.7248C33.1061 25.5721 33.1061 23.5029 31.7248 23.5029H26.0204Z" fill="#1740FE"/>
<path d="M36.9246 24.3567C36.654 24.3612 36.398 24.4742 36.2076 24.6646L29.6129 31.2374L27.5483 29.1865C27.1493 28.7501 26.4696 28.7309 26.0532 29.1491C25.635 29.5664 25.6496 30.2452 26.0851 30.6452L28.8859 33.4304C29.2877 33.8286 29.9336 33.8286 30.3382 33.4304L37.6699 26.127C38.3341 25.4673 37.8557 24.3376 36.9246 24.3567Z" fill="#1740FE"/>
<path d="M29.5309 51.6145L33.1944 55.2024L25.9393 55.1933L29.5309 51.6145ZM23.8984 46.0111L28.064 50.1539L23.8984 54.3004V46.0111ZM26.0204 42.6892C23.7235 42.6892 21.8347 44.5688 21.8347 46.8603V53.1014C21.8347 55.3983 23.7225 57.2725 26.0204 57.2725H32.1139C34.4108 57.2725 36.305 55.3983 36.305 53.1014V49.4834C36.3232 48.0848 34.2158 48.0848 34.2359 49.4834V53.3519L30.9987 50.1539L35.8494 45.3223C36.5273 44.6672 36.0435 43.5183 35.0987 43.5429C34.8335 43.5539 34.5775 43.6605 34.3871 43.8563L29.5327 48.6971L25.5858 44.7629H30.677C32.072 44.782 32.072 42.6755 30.677 42.6901H26.0204V42.6892Z" fill="#1740FE"/>
<path d="M40.507 36.0126C39.923 35.9889 39.4355 36.4581 39.4355 37.0467C39.4355 37.6316 39.923 38.099 40.507 38.0762H52.9173C53.5013 38.099 53.9887 37.6316 53.9887 37.0467C53.9887 36.4581 53.5013 35.9889 52.9173 36.0126H40.507Z" fill="#1740FE"/>
<path d="M44.148 23.5029C43.5731 23.5029 43.1084 23.9676 43.1084 24.537C43.1084 25.112 43.5731 25.5721 44.148 25.5721H52.9174C54.2987 25.5721 54.2987 23.5029 52.9174 23.5029H44.148Z" fill="#1740FE"/>
<path d="M40.507 31.8407C39.923 31.8215 39.4355 32.2871 39.4355 32.8748C39.4355 33.4597 39.923 33.9289 40.507 33.9052H52.9173C53.5013 33.9289 53.9887 33.4597 53.9887 32.8748C53.9887 32.2871 53.5013 31.8215 52.9173 31.8407H40.507Z" fill="#1740FE"/>
<path d="M40.507 27.6741C39.923 27.6514 39.4355 28.1197 39.4355 28.7046C39.4355 29.2923 39.923 29.7624 40.507 29.7387H52.9173C53.5013 29.7624 53.9887 29.2923 53.9887 28.7046C53.9887 28.1197 53.5013 27.6514 52.9173 27.6741H40.507Z" fill="#1740FE"/>
<path d="M40.5071 55.2024C39.1259 55.2024 39.1259 57.2715 40.5071 57.2715H52.9174C54.2986 57.2715 54.2986 55.2024 52.9174 55.2024H40.5071Z" fill="#1740FE"/>
<path d="M44.148 42.6892C42.7667 42.6892 42.7667 44.762 44.148 44.762H52.9174C54.2987 44.762 54.2987 42.6892 52.9174 42.6892H44.148Z" fill="#1740FE"/>
<path d="M40.507 51.0312C39.9339 51.0312 39.4729 51.4977 39.4729 52.0654C39.4729 52.6403 39.9339 53.1049 40.507 53.1049H52.9173C54.2985 53.1049 54.2985 51.0322 52.9173 51.0322H40.507V51.0312Z" fill="#1740FE"/>
<path d="M40.507 46.8604C39.9339 46.8604 39.4729 47.325 39.4729 47.8999C39.4729 48.4694 39.9339 48.934 40.507 48.934H52.9173C54.2985 48.934 54.2985 46.8613 52.9173 46.8613H40.507V46.8604Z" fill="#1740FE"/>
</svg>