<svg width="153" height="98" viewBox="0 0 153 98" fill="none" xmlns="http://www.w3.org/2000/svg">
  <symbol id="svg-copy-en-1" viewBox="0 2 130 12">
    <path d="M7.05469 7.98828L8.19141 8.27539C7.95312 9.20898 7.52344 9.92188 6.90234 10.4141C6.28516 10.9023 5.5293 11.1465 4.63477 11.1465C3.70898 11.1465 2.95508 10.959 2.37305 10.584C1.79492 10.2051 1.35352 9.6582 1.04883 8.94336C0.748047 8.22852 0.597656 7.46094 0.597656 6.64062C0.597656 5.74609 0.767578 4.9668 1.10742 4.30273C1.45117 3.63477 1.9375 3.12891 2.56641 2.78516C3.19922 2.4375 3.89453 2.26367 4.65234 2.26367C5.51172 2.26367 6.23438 2.48242 6.82031 2.91992C7.40625 3.35742 7.81445 3.97266 8.04492 4.76562L6.92578 5.0293C6.72656 4.4043 6.4375 3.94922 6.05859 3.66406C5.67969 3.37891 5.20312 3.23633 4.62891 3.23633C3.96875 3.23633 3.41602 3.39453 2.9707 3.71094C2.5293 4.02734 2.21875 4.45312 2.03906 4.98828C1.85938 5.51953 1.76953 6.06836 1.76953 6.63477C1.76953 7.36523 1.875 8.00391 2.08594 8.55078C2.30078 9.09375 2.63281 9.5 3.08203 9.76953C3.53125 10.0391 4.01758 10.1738 4.54102 10.1738C5.17773 10.1738 5.7168 9.99023 6.1582 9.62305C6.59961 9.25586 6.89844 8.71094 7.05469 7.98828ZM9.07031 7.88867C9.07031 6.73633 9.39062 5.88281 10.0312 5.32812C10.5664 4.86719 11.2188 4.63672 11.9883 4.63672C12.8438 4.63672 13.543 4.91797 14.0859 5.48047C14.6289 6.03906 14.9004 6.8125 14.9004 7.80078C14.9004 8.60156 14.7793 9.23242 14.5371 9.69336C14.2988 10.1504 13.9492 10.5059 13.4883 10.7598C13.0312 11.0137 12.5312 11.1406 11.9883 11.1406C11.1172 11.1406 10.4121 10.8613 9.87305 10.3027C9.33789 9.74414 9.07031 8.93945 9.07031 7.88867ZM10.1543 7.88867C10.1543 8.68555 10.3281 9.2832 10.6758 9.68164C11.0234 10.0762 11.4609 10.2734 11.9883 10.2734C12.5117 10.2734 12.9473 10.0742 13.2949 9.67578C13.6426 9.27734 13.8164 8.66992 13.8164 7.85352C13.8164 7.08398 13.6406 6.50195 13.2891 6.10742C12.9414 5.70898 12.5078 5.50977 11.9883 5.50977C11.4609 5.50977 11.0234 5.70703 10.6758 6.10156C10.3281 6.49609 10.1543 7.0918 10.1543 7.88867ZM16.1426 13.3848V4.77734H17.1035V5.58594C17.3301 5.26953 17.5859 5.0332 17.8711 4.87695C18.1562 4.7168 18.502 4.63672 18.9082 4.63672C19.4395 4.63672 19.9082 4.77344 20.3145 5.04688C20.7207 5.32031 21.0273 5.70703 21.2344 6.20703C21.4414 6.70312 21.5449 7.24805 21.5449 7.8418C21.5449 8.47852 21.4297 9.05273 21.1992 9.56445C20.9727 10.0723 20.6406 10.4629 20.2031 10.7363C19.7695 11.0059 19.3125 11.1406 18.832 11.1406C18.4805 11.1406 18.1641 11.0664 17.8828 10.918C17.6055 10.7695 17.377 10.582 17.1973 10.3555V13.3848H16.1426ZM17.0977 7.92383C17.0977 8.72461 17.2598 9.31641 17.584 9.69922C17.9082 10.082 18.3008 10.2734 18.7617 10.2734C19.2305 10.2734 19.6309 10.0762 19.9629 9.68164C20.2988 9.2832 20.4668 8.66797 20.4668 7.83594C20.4668 7.04297 20.3027 6.44922 19.9746 6.05469C19.6504 5.66016 19.2617 5.46289 18.8086 5.46289C18.3594 5.46289 17.9609 5.67383 17.6133 6.0957C17.2695 6.51367 17.0977 7.12305 17.0977 7.92383ZM22.7754 13.3965L22.6582 12.4062C22.8887 12.4688 23.0898 12.5 23.2617 12.5C23.4961 12.5 23.6836 12.4609 23.8242 12.3828C23.9648 12.3047 24.0801 12.1953 24.1699 12.0547C24.2363 11.9492 24.3438 11.6875 24.4922 11.2695C24.5117 11.2109 24.543 11.125 24.5859 11.0117L22.2246 4.77734H23.3613L24.6562 8.38086C24.8242 8.83789 24.9746 9.31836 25.1074 9.82227C25.2285 9.33789 25.373 8.86523 25.541 8.4043L26.8711 4.77734H27.9258L25.5586 11.1055C25.3047 11.7891 25.1074 12.2598 24.9668 12.5176C24.7793 12.8652 24.5645 13.1191 24.3223 13.2793C24.0801 13.4434 23.791 13.5254 23.4551 13.5254C23.252 13.5254 23.0254 13.4824 22.7754 13.3965ZM28.8281 3.62305V2.41016H29.8828V3.62305H28.8281ZM28.8281 11V4.77734H29.8828V11H28.8281ZM31.4941 11V4.77734H32.4434V5.66211C32.9004 4.97852 33.5605 4.63672 34.4238 4.63672C34.7988 4.63672 35.1426 4.70508 35.4551 4.8418C35.7715 4.97461 36.0078 5.15039 36.1641 5.36914C36.3203 5.58789 36.4297 5.84766 36.4922 6.14844C36.5312 6.34375 36.5508 6.68555 36.5508 7.17383V11H35.4961V7.21484C35.4961 6.78516 35.4551 6.46484 35.373 6.25391C35.291 6.03906 35.1445 5.86914 34.9336 5.74414C34.7266 5.61523 34.4824 5.55078 34.2012 5.55078C33.752 5.55078 33.3633 5.69336 33.0352 5.97852C32.7109 6.26367 32.5488 6.80469 32.5488 7.60156V11H31.4941ZM37.9805 11.5156L39.0059 11.668C39.0488 11.9844 39.168 12.2148 39.3633 12.3594C39.625 12.5547 39.9824 12.6523 40.4355 12.6523C40.9238 12.6523 41.3008 12.5547 41.5664 12.3594C41.832 12.1641 42.0117 11.8906 42.1055 11.5391C42.1602 11.3242 42.1855 10.873 42.1816 10.1855C41.7207 10.7285 41.1465 11 40.459 11C39.6035 11 38.9414 10.6914 38.4727 10.0742C38.0039 9.45703 37.7695 8.7168 37.7695 7.85352C37.7695 7.25977 37.877 6.71289 38.0918 6.21289C38.3066 5.70898 38.6172 5.32031 39.0234 5.04688C39.4336 4.77344 39.9141 4.63672 40.4648 4.63672C41.1992 4.63672 41.8047 4.93359 42.2812 5.52734V4.77734H43.2539V10.1562C43.2539 11.125 43.1543 11.8105 42.9551 12.2129C42.7598 12.6191 42.4473 12.9395 42.0176 13.1738C41.5918 13.4082 41.0664 13.5254 40.4414 13.5254C39.6992 13.5254 39.0996 13.3574 38.6426 13.0215C38.1855 12.6895 37.9648 12.1875 37.9805 11.5156ZM38.8535 7.77734C38.8535 8.59375 39.0156 9.18945 39.3398 9.56445C39.6641 9.93945 40.0703 10.127 40.5586 10.127C41.043 10.127 41.4492 9.94141 41.7773 9.57031C42.1055 9.19531 42.2695 8.60938 42.2695 7.8125C42.2695 7.05078 42.0996 6.47656 41.7598 6.08984C41.4238 5.70312 41.0176 5.50977 40.541 5.50977C40.0723 5.50977 39.6738 5.70117 39.3457 6.08398C39.0176 6.46289 38.8535 7.02734 38.8535 7.77734ZM52.2539 10.2324C51.8633 10.5645 51.4863 10.7988 51.123 10.9355C50.7637 11.0723 50.377 11.1406 49.9629 11.1406C49.2793 11.1406 48.7539 10.9746 48.3867 10.6426C48.0195 10.3066 47.8359 9.87891 47.8359 9.35938C47.8359 9.05469 47.9043 8.77734 48.041 8.52734C48.1816 8.27344 48.3633 8.07031 48.5859 7.91797C48.8125 7.76562 49.0664 7.65039 49.3477 7.57227C49.5547 7.51758 49.8672 7.46484 50.2852 7.41406C51.1367 7.3125 51.7637 7.19141 52.166 7.05078C52.1699 6.90625 52.1719 6.81445 52.1719 6.77539C52.1719 6.3457 52.0723 6.04297 51.873 5.86719C51.6035 5.62891 51.2031 5.50977 50.6719 5.50977C50.1758 5.50977 49.8086 5.59766 49.5703 5.77344C49.3359 5.94531 49.1621 6.25195 49.0488 6.69336L48.0176 6.55273C48.1113 6.11133 48.2656 5.75586 48.4805 5.48633C48.6953 5.21289 49.0059 5.00391 49.4121 4.85938C49.8184 4.71094 50.2891 4.63672 50.8242 4.63672C51.3555 4.63672 51.7871 4.69922 52.1191 4.82422C52.4512 4.94922 52.6953 5.10742 52.8516 5.29883C53.0078 5.48633 53.1172 5.72461 53.1797 6.01367C53.2148 6.19336 53.2324 6.51758 53.2324 6.98633V8.39258C53.2324 9.37305 53.2539 9.99414 53.2969 10.2559C53.3438 10.5137 53.4336 10.7617 53.5664 11H52.4648C52.3555 10.7812 52.2852 10.5254 52.2539 10.2324ZM52.166 7.87695C51.7832 8.0332 51.209 8.16602 50.4434 8.27539C50.0098 8.33789 49.7031 8.4082 49.5234 8.48633C49.3438 8.56445 49.2051 8.67969 49.1074 8.83203C49.0098 8.98047 48.9609 9.14648 48.9609 9.33008C48.9609 9.61133 49.0664 9.8457 49.2773 10.0332C49.4922 10.2207 49.8047 10.3145 50.2148 10.3145C50.6211 10.3145 50.9824 10.2266 51.2988 10.0508C51.6152 9.87109 51.8477 9.62695 51.9961 9.31836C52.1094 9.08008 52.166 8.72852 52.166 8.26367V7.87695ZM54.873 11V4.77734H55.8223V5.66211C56.2793 4.97852 56.9395 4.63672 57.8027 4.63672C58.1777 4.63672 58.5215 4.70508 58.834 4.8418C59.1504 4.97461 59.3867 5.15039 59.543 5.36914C59.6992 5.58789 59.8086 5.84766 59.8711 6.14844C59.9102 6.34375 59.9297 6.68555 59.9297 7.17383V11H58.875V7.21484C58.875 6.78516 58.834 6.46484 58.752 6.25391C58.6699 6.03906 58.5234 5.86914 58.3125 5.74414C58.1055 5.61523 57.8613 5.55078 57.5801 5.55078C57.1309 5.55078 56.7422 5.69336 56.4141 5.97852C56.0898 6.26367 55.9277 6.80469 55.9277 7.60156V11H54.873ZM61.5059 13.3965L61.3887 12.4062C61.6191 12.4688 61.8203 12.5 61.9922 12.5C62.2266 12.5 62.4141 12.4609 62.5547 12.3828C62.6953 12.3047 62.8105 12.1953 62.9004 12.0547C62.9668 11.9492 63.0742 11.6875 63.2227 11.2695C63.2422 11.2109 63.2734 11.125 63.3164 11.0117L60.9551 4.77734H62.0918L63.3867 8.38086C63.5547 8.83789 63.7051 9.31836 63.8379 9.82227C63.959 9.33789 64.1035 8.86523 64.2715 8.4043L65.6016 4.77734H66.6562L64.2891 11.1055C64.0352 11.7891 63.8379 12.2598 63.6973 12.5176C63.5098 12.8652 63.2949 13.1191 63.0527 13.2793C62.8105 13.4434 62.5215 13.5254 62.1855 13.5254C61.9824 13.5254 61.7559 13.4824 61.5059 13.3965ZM70.8984 3.62305V2.41016H71.9531V3.62305H70.8984ZM70.8984 11V4.77734H71.9531V11H70.8984ZM73.5645 11V4.77734H74.5137V5.66211C74.9707 4.97852 75.6309 4.63672 76.4941 4.63672C76.8691 4.63672 77.2129 4.70508 77.5254 4.8418C77.8418 4.97461 78.0781 5.15039 78.2344 5.36914C78.3906 5.58789 78.5 5.84766 78.5625 6.14844C78.6016 6.34375 78.6211 6.68555 78.6211 7.17383V11H77.5664V7.21484C77.5664 6.78516 77.5254 6.46484 77.4434 6.25391C77.3613 6.03906 77.2148 5.86914 77.0039 5.74414C76.7969 5.61523 76.5527 5.55078 76.2715 5.55078C75.8223 5.55078 75.4336 5.69336 75.1055 5.97852C74.7812 6.26367 74.6191 6.80469 74.6191 7.60156V11H73.5645ZM80.4961 11V5.59766H79.5645V4.77734H80.4961V4.11523C80.4961 3.69727 80.5332 3.38672 80.6074 3.18359C80.709 2.91016 80.8867 2.68945 81.1406 2.52148C81.3984 2.34961 81.7578 2.26367 82.2188 2.26367C82.5156 2.26367 82.8438 2.29883 83.2031 2.36914L83.0449 3.28906C82.8262 3.25 82.6191 3.23047 82.4238 3.23047C82.1035 3.23047 81.877 3.29883 81.7441 3.43555C81.6113 3.57227 81.5449 3.82812 81.5449 4.20312V4.77734H82.7578V5.59766H81.5449V11H80.4961ZM83.1914 7.88867C83.1914 6.73633 83.5117 5.88281 84.1523 5.32812C84.6875 4.86719 85.3398 4.63672 86.1094 4.63672C86.9648 4.63672 87.6641 4.91797 88.207 5.48047C88.75 6.03906 89.0215 6.8125 89.0215 7.80078C89.0215 8.60156 88.9004 9.23242 88.6582 9.69336C88.4199 10.1504 88.0703 10.5059 87.6094 10.7598C87.1523 11.0137 86.6523 11.1406 86.1094 11.1406C85.2383 11.1406 84.5332 10.8613 83.9941 10.3027C83.459 9.74414 83.1914 8.93945 83.1914 7.88867ZM84.2754 7.88867C84.2754 8.68555 84.4492 9.2832 84.7969 9.68164C85.1445 10.0762 85.582 10.2734 86.1094 10.2734C86.6328 10.2734 87.0684 10.0742 87.416 9.67578C87.7637 9.27734 87.9375 8.66992 87.9375 7.85352C87.9375 7.08398 87.7617 6.50195 87.4102 6.10742C87.0625 5.70898 86.6289 5.50977 86.1094 5.50977C85.582 5.50977 85.1445 5.70703 84.7969 6.10156C84.4492 6.49609 84.2754 7.0918 84.2754 7.88867ZM90.252 11V4.77734H91.2012V5.7207C91.4434 5.2793 91.666 4.98828 91.8691 4.84766C92.0762 4.70703 92.3027 4.63672 92.5488 4.63672C92.9043 4.63672 93.2656 4.75 93.6328 4.97656L93.2695 5.95508C93.0117 5.80273 92.7539 5.72656 92.4961 5.72656C92.2656 5.72656 92.0586 5.79688 91.875 5.9375C91.6914 6.07422 91.5605 6.26562 91.4824 6.51172C91.3652 6.88672 91.3066 7.29688 91.3066 7.74219V11H90.252ZM94.2598 11V4.77734H95.2031V5.65039C95.3984 5.3457 95.6582 5.10156 95.9824 4.91797C96.3066 4.73047 96.6758 4.63672 97.0898 4.63672C97.5508 4.63672 97.9277 4.73242 98.2207 4.92383C98.5176 5.11523 98.7266 5.38281 98.8477 5.72656C99.3398 5 99.9805 4.63672 100.77 4.63672C101.387 4.63672 101.861 4.80859 102.193 5.15234C102.525 5.49219 102.691 6.01758 102.691 6.72852V11H101.643V7.08008C101.643 6.6582 101.607 6.35547 101.537 6.17188C101.471 5.98438 101.348 5.83398 101.168 5.7207C100.988 5.60742 100.777 5.55078 100.535 5.55078C100.098 5.55078 99.7344 5.69727 99.4453 5.99023C99.1562 6.2793 99.0117 6.74414 99.0117 7.38477V11H97.957V6.95703C97.957 6.48828 97.8711 6.13672 97.6992 5.90234C97.5273 5.66797 97.2461 5.55078 96.8555 5.55078C96.5586 5.55078 96.2832 5.62891 96.0293 5.78516C95.7793 5.94141 95.5977 6.16992 95.4844 6.4707C95.3711 6.77148 95.3145 7.20508 95.3145 7.77148V11H94.2598ZM108.316 10.2324C107.926 10.5645 107.549 10.7988 107.186 10.9355C106.826 11.0723 106.439 11.1406 106.025 11.1406C105.342 11.1406 104.816 10.9746 104.449 10.6426C104.082 10.3066 103.898 9.87891 103.898 9.35938C103.898 9.05469 103.967 8.77734 104.104 8.52734C104.244 8.27344 104.426 8.07031 104.648 7.91797C104.875 7.76562 105.129 7.65039 105.41 7.57227C105.617 7.51758 105.93 7.46484 106.348 7.41406C107.199 7.3125 107.826 7.19141 108.229 7.05078C108.232 6.90625 108.234 6.81445 108.234 6.77539C108.234 6.3457 108.135 6.04297 107.936 5.86719C107.666 5.62891 107.266 5.50977 106.734 5.50977C106.238 5.50977 105.871 5.59766 105.633 5.77344C105.398 5.94531 105.225 6.25195 105.111 6.69336L104.08 6.55273C104.174 6.11133 104.328 5.75586 104.543 5.48633C104.758 5.21289 105.068 5.00391 105.475 4.85938C105.881 4.71094 106.352 4.63672 106.887 4.63672C107.418 4.63672 107.85 4.69922 108.182 4.82422C108.514 4.94922 108.758 5.10742 108.914 5.29883C109.07 5.48633 109.18 5.72461 109.242 6.01367C109.277 6.19336 109.295 6.51758 109.295 6.98633V8.39258C109.295 9.37305 109.316 9.99414 109.359 10.2559C109.406 10.5137 109.496 10.7617 109.629 11H108.527C108.418 10.7812 108.348 10.5254 108.316 10.2324ZM108.229 7.87695C107.846 8.0332 107.271 8.16602 106.506 8.27539C106.072 8.33789 105.766 8.4082 105.586 8.48633C105.406 8.56445 105.268 8.67969 105.17 8.83203C105.072 8.98047 105.023 9.14648 105.023 9.33008C105.023 9.61133 105.129 9.8457 105.34 10.0332C105.555 10.2207 105.867 10.3145 106.277 10.3145C106.684 10.3145 107.045 10.2266 107.361 10.0508C107.678 9.87109 107.91 9.62695 108.059 9.31836C108.172 9.08008 108.229 8.72852 108.229 8.26367V7.87695ZM113.238 10.0566L113.391 10.9883C113.094 11.0508 112.828 11.082 112.594 11.082C112.211 11.082 111.914 11.0215 111.703 10.9004C111.492 10.7793 111.344 10.6211 111.258 10.4258C111.172 10.2266 111.129 9.81055 111.129 9.17773V5.59766H110.355V4.77734H111.129V3.23633L112.178 2.60352V4.77734H113.238V5.59766H112.178V9.23633C112.178 9.53711 112.195 9.73047 112.23 9.81641C112.27 9.90234 112.33 9.9707 112.412 10.0215C112.498 10.0723 112.619 10.0977 112.775 10.0977C112.893 10.0977 113.047 10.084 113.238 10.0566ZM114.281 3.62305V2.41016H115.336V3.62305H114.281ZM114.281 11V4.77734H115.336V11H114.281ZM116.555 7.88867C116.555 6.73633 116.875 5.88281 117.516 5.32812C118.051 4.86719 118.703 4.63672 119.473 4.63672C120.328 4.63672 121.027 4.91797 121.57 5.48047C122.113 6.03906 122.385 6.8125 122.385 7.80078C122.385 8.60156 122.264 9.23242 122.021 9.69336C121.783 10.1504 121.434 10.5059 120.973 10.7598C120.516 11.0137 120.016 11.1406 119.473 11.1406C118.602 11.1406 117.896 10.8613 117.357 10.3027C116.822 9.74414 116.555 8.93945 116.555 7.88867ZM117.639 7.88867C117.639 8.68555 117.812 9.2832 118.16 9.68164C118.508 10.0762 118.945 10.2734 119.473 10.2734C119.996 10.2734 120.432 10.0742 120.779 9.67578C121.127 9.27734 121.301 8.66992 121.301 7.85352C121.301 7.08398 121.125 6.50195 120.773 6.10742C120.426 5.70898 119.992 5.50977 119.473 5.50977C118.945 5.50977 118.508 5.70703 118.16 6.10156C117.812 6.49609 117.639 7.0918 117.639 7.88867ZM123.627 11V4.77734H124.576V5.66211C125.033 4.97852 125.693 4.63672 126.557 4.63672C126.932 4.63672 127.275 4.70508 127.588 4.8418C127.904 4.97461 128.141 5.15039 128.297 5.36914C128.453 5.58789 128.562 5.84766 128.625 6.14844C128.664 6.34375 128.684 6.68555 128.684 7.17383V11H127.629V7.21484C127.629 6.78516 127.588 6.46484 127.506 6.25391C127.424 6.03906 127.277 5.86914 127.066 5.74414C126.859 5.61523 126.615 5.55078 126.334 5.55078C125.885 5.55078 125.496 5.69336 125.168 5.97852C124.844 6.26367 124.682 6.80469 124.682 7.60156V11H123.627Z"/>
  </symbol>
  <symbol id="svg-copy-en-2" viewBox="0 15 120 11">
    <path d="M0.398438 21.8887C0.398438 20.7363 0.71875 19.8828 1.35938 19.3281C1.89453 18.8672 2.54688 18.6367 3.31641 18.6367C4.17188 18.6367 4.87109 18.918 5.41406 19.4805C5.95703 20.0391 6.22852 20.8125 6.22852 21.8008C6.22852 22.6016 6.10742 23.2324 5.86523 23.6934C5.62695 24.1504 5.27734 24.5059 4.81641 24.7598C4.35938 25.0137 3.85938 25.1406 3.31641 25.1406C2.44531 25.1406 1.74023 24.8613 1.20117 24.3027C0.666016 23.7441 0.398438 22.9395 0.398438 21.8887ZM1.48242 21.8887C1.48242 22.6855 1.65625 23.2832 2.00391 23.6816C2.35156 24.0762 2.78906 24.2734 3.31641 24.2734C3.83984 24.2734 4.27539 24.0742 4.62305 23.6758C4.9707 23.2773 5.14453 22.6699 5.14453 21.8535C5.14453 21.084 4.96875 20.502 4.61719 20.1074C4.26953 19.709 3.83594 19.5098 3.31641 19.5098C2.78906 19.5098 2.35156 19.707 2.00391 20.1016C1.65625 20.4961 1.48242 21.0918 1.48242 21.8887ZM7.4707 25V18.7773H8.41992V19.6621C8.87695 18.9785 9.53711 18.6367 10.4004 18.6367C10.7754 18.6367 11.1191 18.7051 11.4316 18.8418C11.748 18.9746 11.9844 19.1504 12.1406 19.3691C12.2969 19.5879 12.4062 19.8477 12.4688 20.1484C12.5078 20.3438 12.5273 20.6855 12.5273 21.1738V25H11.4727V21.2148C11.4727 20.7852 11.4316 20.4648 11.3496 20.2539C11.2676 20.0391 11.1211 19.8691 10.9102 19.7441C10.7031 19.6152 10.459 19.5508 10.1777 19.5508C9.72852 19.5508 9.33984 19.6934 9.01172 19.9785C8.6875 20.2637 8.52539 20.8047 8.52539 21.6016V25H7.4707ZM19.793 24.0566L19.9453 24.9883C19.6484 25.0508 19.3828 25.082 19.1484 25.082C18.7656 25.082 18.4688 25.0215 18.2578 24.9004C18.0469 24.7793 17.8984 24.6211 17.8125 24.4258C17.7266 24.2266 17.6836 23.8105 17.6836 23.1777V19.5977H16.9102V18.7773H17.6836V17.2363L18.7324 16.6035V18.7773H19.793V19.5977H18.7324V23.2363C18.7324 23.5371 18.75 23.7305 18.7852 23.8164C18.8242 23.9023 18.8848 23.9707 18.9668 24.0215C19.0527 24.0723 19.1738 24.0977 19.3301 24.0977C19.4473 24.0977 19.6016 24.084 19.793 24.0566ZM20.8301 25V16.4102H21.8848V19.4922C22.377 18.9219 22.998 18.6367 23.748 18.6367C24.209 18.6367 24.6094 18.7285 24.9492 18.9121C25.2891 19.0918 25.5312 19.3418 25.6758 19.6621C25.8242 19.9824 25.8984 20.4473 25.8984 21.0566V25H24.8438V21.0566C24.8438 20.5293 24.7285 20.1465 24.498 19.9082C24.2715 19.666 23.9492 19.5449 23.5312 19.5449C23.2188 19.5449 22.9238 19.627 22.6465 19.791C22.373 19.9512 22.1777 20.1699 22.0605 20.4473C21.9434 20.7246 21.8848 21.1074 21.8848 21.5957V25H20.8301ZM27.5156 17.623V16.4102H28.5703V17.623H27.5156ZM27.5156 25V18.7773H28.5703V25H27.5156ZM29.7598 23.1426L30.8027 22.9785C30.8613 23.3965 31.0234 23.7168 31.2891 23.9395C31.5586 24.1621 31.9336 24.2734 32.4141 24.2734C32.8984 24.2734 33.2578 24.1758 33.4922 23.9805C33.7266 23.7812 33.8438 23.5488 33.8438 23.2832C33.8438 23.0449 33.7402 22.8574 33.5332 22.7207C33.3887 22.627 33.0293 22.5078 32.4551 22.3633C31.6816 22.168 31.1445 22 30.8438 21.8594C30.5469 21.7148 30.3203 21.5176 30.1641 21.2676C30.0117 21.0137 29.9355 20.7344 29.9355 20.4297C29.9355 20.1523 29.998 19.8965 30.123 19.6621C30.252 19.4238 30.4258 19.2266 30.6445 19.0703C30.8086 18.9492 31.0312 18.8477 31.3125 18.7656C31.5977 18.6797 31.9023 18.6367 32.2266 18.6367C32.7148 18.6367 33.1426 18.707 33.5098 18.8477C33.8809 18.9883 34.1543 19.1797 34.3301 19.4219C34.5059 19.6602 34.627 19.9805 34.6934 20.3828L33.6621 20.5234C33.6152 20.2031 33.4785 19.9531 33.252 19.7734C33.0293 19.5938 32.7129 19.5039 32.3027 19.5039C31.8184 19.5039 31.4727 19.584 31.2656 19.7441C31.0586 19.9043 30.9551 20.0918 30.9551 20.3066C30.9551 20.4434 30.998 20.5664 31.084 20.6758C31.1699 20.7891 31.3047 20.8828 31.4883 20.957C31.5938 20.9961 31.9043 21.0859 32.4199 21.2266C33.166 21.4258 33.6855 21.5898 33.9785 21.7188C34.2754 21.8438 34.5078 22.0273 34.6758 22.2695C34.8438 22.5117 34.9277 22.8125 34.9277 23.1719C34.9277 23.5234 34.8242 23.8555 34.6172 24.168C34.4141 24.4766 34.1191 24.7168 33.7324 24.8887C33.3457 25.0566 32.9082 25.1406 32.4199 25.1406C31.6113 25.1406 30.9941 24.9727 30.5684 24.6367C30.1465 24.3008 29.877 23.8027 29.7598 23.1426ZM40.6699 25L38.7656 18.7773H39.8555L40.8457 22.3691L41.2148 23.7051C41.2305 23.6387 41.3379 23.2109 41.5371 22.4219L42.5273 18.7773H43.6113L44.543 22.3867L44.8535 23.5762L45.2109 22.375L46.2773 18.7773H47.3027L45.3574 25H44.2617L43.2715 21.2734L43.0312 20.2129L41.7715 25H40.6699ZM52.4531 22.9961L53.543 23.1309C53.3711 23.7676 53.0527 24.2617 52.5879 24.6133C52.123 24.9648 51.5293 25.1406 50.8066 25.1406C49.8965 25.1406 49.1738 24.8613 48.6387 24.3027C48.1074 23.7402 47.8418 22.9531 47.8418 21.9414C47.8418 20.8945 48.1113 20.082 48.6504 19.5039C49.1895 18.9258 49.8887 18.6367 50.748 18.6367C51.5801 18.6367 52.2598 18.9199 52.7871 19.4863C53.3145 20.0527 53.5781 20.8496 53.5781 21.877C53.5781 21.9395 53.5762 22.0332 53.5723 22.1582H48.9316C48.9707 22.8418 49.1641 23.3652 49.5117 23.7285C49.8594 24.0918 50.293 24.2734 50.8125 24.2734C51.1992 24.2734 51.5293 24.1719 51.8027 23.9688C52.0762 23.7656 52.293 23.4414 52.4531 22.9961ZM48.9902 21.291H52.4648C52.418 20.7676 52.2852 20.375 52.0664 20.1133C51.7305 19.707 51.2949 19.5039 50.7598 19.5039C50.2754 19.5039 49.8672 19.666 49.5352 19.9902C49.207 20.3145 49.0254 20.748 48.9902 21.291ZM55.8457 25H54.8672V16.4102H55.9219V19.4746C56.3672 18.916 56.9355 18.6367 57.627 18.6367C58.0098 18.6367 58.3711 18.7148 58.7109 18.8711C59.0547 19.0234 59.3359 19.2402 59.5547 19.5215C59.7773 19.7988 59.9512 20.1348 60.0762 20.5293C60.2012 20.9238 60.2637 21.3457 60.2637 21.7949C60.2637 22.8613 60 23.6855 59.4727 24.2676C58.9453 24.8496 58.3125 25.1406 57.5742 25.1406C56.8398 25.1406 56.2637 24.834 55.8457 24.2207V25ZM55.834 21.8418C55.834 22.5879 55.9355 23.127 56.1387 23.459C56.4707 24.002 56.9199 24.2734 57.4863 24.2734C57.9473 24.2734 58.3457 24.0742 58.6816 23.6758C59.0176 23.2734 59.1855 22.6758 59.1855 21.8828C59.1855 21.0703 59.0234 20.4707 58.6992 20.084C58.3789 19.6973 57.9902 19.5039 57.5332 19.5039C57.0723 19.5039 56.6738 19.7051 56.3379 20.1074C56.002 20.5059 55.834 21.084 55.834 21.8418ZM61.1309 23.1426L62.1738 22.9785C62.2324 23.3965 62.3945 23.7168 62.6602 23.9395C62.9297 24.1621 63.3047 24.2734 63.7852 24.2734C64.2695 24.2734 64.6289 24.1758 64.8633 23.9805C65.0977 23.7812 65.2148 23.5488 65.2148 23.2832C65.2148 23.0449 65.1113 22.8574 64.9043 22.7207C64.7598 22.627 64.4004 22.5078 63.8262 22.3633C63.0527 22.168 62.5156 22 62.2148 21.8594C61.918 21.7148 61.6914 21.5176 61.5352 21.2676C61.3828 21.0137 61.3066 20.7344 61.3066 20.4297C61.3066 20.1523 61.3691 19.8965 61.4941 19.6621C61.623 19.4238 61.7969 19.2266 62.0156 19.0703C62.1797 18.9492 62.4023 18.8477 62.6836 18.7656C62.9688 18.6797 63.2734 18.6367 63.5977 18.6367C64.0859 18.6367 64.5137 18.707 64.8809 18.8477C65.252 18.9883 65.5254 19.1797 65.7012 19.4219C65.877 19.6602 65.998 19.9805 66.0645 20.3828L65.0332 20.5234C64.9863 20.2031 64.8496 19.9531 64.623 19.7734C64.4004 19.5938 64.084 19.5039 63.6738 19.5039C63.1895 19.5039 62.8438 19.584 62.6367 19.7441C62.4297 19.9043 62.3262 20.0918 62.3262 20.3066C62.3262 20.4434 62.3691 20.5664 62.4551 20.6758C62.541 20.7891 62.6758 20.8828 62.8594 20.957C62.9648 20.9961 63.2754 21.0859 63.791 21.2266C64.5371 21.4258 65.0566 21.5898 65.3496 21.7188C65.6465 21.8438 65.8789 22.0273 66.0469 22.2695C66.2148 22.5117 66.2988 22.8125 66.2988 23.1719C66.2988 23.5234 66.1953 23.8555 65.9883 24.168C65.7852 24.4766 65.4902 24.7168 65.1035 24.8887C64.7168 25.0566 64.2793 25.1406 63.791 25.1406C62.9824 25.1406 62.3652 24.9727 61.9395 24.6367C61.5176 24.3008 61.248 23.8027 61.1309 23.1426ZM67.5586 17.623V16.4102H68.6133V17.623H67.5586ZM67.5586 25V18.7773H68.6133V25H67.5586ZM72.5273 24.0566L72.6797 24.9883C72.3828 25.0508 72.1172 25.082 71.8828 25.082C71.5 25.082 71.2031 25.0215 70.9922 24.9004C70.7812 24.7793 70.6328 24.6211 70.5469 24.4258C70.4609 24.2266 70.418 23.8105 70.418 23.1777V19.5977H69.6445V18.7773H70.418V17.2363L71.4668 16.6035V18.7773H72.5273V19.5977H71.4668V23.2363C71.4668 23.5371 71.4844 23.7305 71.5195 23.8164C71.5586 23.9023 71.6191 23.9707 71.7012 24.0215C71.7871 24.0723 71.9082 24.0977 72.0645 24.0977C72.1816 24.0977 72.3359 24.084 72.5273 24.0566ZM77.8242 22.9961L78.9141 23.1309C78.7422 23.7676 78.4238 24.2617 77.959 24.6133C77.4941 24.9648 76.9004 25.1406 76.1777 25.1406C75.2676 25.1406 74.5449 24.8613 74.0098 24.3027C73.4785 23.7402 73.2129 22.9531 73.2129 21.9414C73.2129 20.8945 73.4824 20.082 74.0215 19.5039C74.5605 18.9258 75.2598 18.6367 76.1191 18.6367C76.9512 18.6367 77.6309 18.9199 78.1582 19.4863C78.6855 20.0527 78.9492 20.8496 78.9492 21.877C78.9492 21.9395 78.9473 22.0332 78.9434 22.1582H74.3027C74.3418 22.8418 74.5352 23.3652 74.8828 23.7285C75.2305 24.0918 75.6641 24.2734 76.1836 24.2734C76.5703 24.2734 76.9004 24.1719 77.1738 23.9688C77.4473 23.7656 77.6641 23.4414 77.8242 22.9961ZM74.3613 21.291H77.8359C77.7891 20.7676 77.6562 20.375 77.4375 20.1133C77.1016 19.707 76.666 19.5039 76.1309 19.5039C75.6465 19.5039 75.2383 19.666 74.9062 19.9902C74.5781 20.3145 74.3965 20.748 74.3613 21.291ZM87.6445 24.2324C87.2539 24.5645 86.877 24.7988 86.5137 24.9355C86.1543 25.0723 85.7676 25.1406 85.3535 25.1406C84.6699 25.1406 84.1445 24.9746 83.7773 24.6426C83.4102 24.3066 83.2266 23.8789 83.2266 23.3594C83.2266 23.0547 83.2949 22.7773 83.4316 22.5273C83.5723 22.2734 83.7539 22.0703 83.9766 21.918C84.2031 21.7656 84.457 21.6504 84.7383 21.5723C84.9453 21.5176 85.2578 21.4648 85.6758 21.4141C86.5273 21.3125 87.1543 21.1914 87.5566 21.0508C87.5605 20.9062 87.5625 20.8145 87.5625 20.7754C87.5625 20.3457 87.4629 20.043 87.2637 19.8672C86.9941 19.6289 86.5938 19.5098 86.0625 19.5098C85.5664 19.5098 85.1992 19.5977 84.9609 19.7734C84.7266 19.9453 84.5527 20.252 84.4395 20.6934L83.4082 20.5527C83.502 20.1113 83.6562 19.7559 83.8711 19.4863C84.0859 19.2129 84.3965 19.0039 84.8027 18.8594C85.209 18.7109 85.6797 18.6367 86.2148 18.6367C86.7461 18.6367 87.1777 18.6992 87.5098 18.8242C87.8418 18.9492 88.0859 19.1074 88.2422 19.2988C88.3984 19.4863 88.5078 19.7246 88.5703 20.0137C88.6055 20.1934 88.623 20.5176 88.623 20.9863V22.3926C88.623 23.373 88.6445 23.9941 88.6875 24.2559C88.7344 24.5137 88.8242 24.7617 88.957 25H87.8555C87.7461 24.7812 87.6758 24.5254 87.6445 24.2324ZM87.5566 21.877C87.1738 22.0332 86.5996 22.166 85.834 22.2754C85.4004 22.3379 85.0938 22.4082 84.9141 22.4863C84.7344 22.5645 84.5957 22.6797 84.498 22.832C84.4004 22.9805 84.3516 23.1465 84.3516 23.3301C84.3516 23.6113 84.457 23.8457 84.668 24.0332C84.8828 24.2207 85.1953 24.3145 85.6055 24.3145C86.0117 24.3145 86.373 24.2266 86.6895 24.0508C87.0059 23.8711 87.2383 23.627 87.3867 23.3184C87.5 23.0801 87.5566 22.7285 87.5566 22.2637V21.877ZM89.8418 23.1426L90.8848 22.9785C90.9434 23.3965 91.1055 23.7168 91.3711 23.9395C91.6406 24.1621 92.0156 24.2734 92.4961 24.2734C92.9805 24.2734 93.3398 24.1758 93.5742 23.9805C93.8086 23.7812 93.9258 23.5488 93.9258 23.2832C93.9258 23.0449 93.8223 22.8574 93.6152 22.7207C93.4707 22.627 93.1113 22.5078 92.5371 22.3633C91.7637 22.168 91.2266 22 90.9258 21.8594C90.6289 21.7148 90.4023 21.5176 90.2461 21.2676C90.0938 21.0137 90.0176 20.7344 90.0176 20.4297C90.0176 20.1523 90.0801 19.8965 90.2051 19.6621C90.334 19.4238 90.5078 19.2266 90.7266 19.0703C90.8906 18.9492 91.1133 18.8477 91.3945 18.7656C91.6797 18.6797 91.9844 18.6367 92.3086 18.6367C92.7969 18.6367 93.2246 18.707 93.5918 18.8477C93.9629 18.9883 94.2363 19.1797 94.4121 19.4219C94.5879 19.6602 94.709 19.9805 94.7754 20.3828L93.7441 20.5234C93.6973 20.2031 93.5605 19.9531 93.334 19.7734C93.1113 19.5938 92.7949 19.5039 92.3848 19.5039C91.9004 19.5039 91.5547 19.584 91.3477 19.7441C91.1406 19.9043 91.0371 20.0918 91.0371 20.3066C91.0371 20.4434 91.0801 20.5664 91.166 20.6758C91.252 20.7891 91.3867 20.8828 91.5703 20.957C91.6758 20.9961 91.9863 21.0859 92.502 21.2266C93.248 21.4258 93.7676 21.5898 94.0605 21.7188C94.3574 21.8438 94.5898 22.0273 94.7578 22.2695C94.9258 22.5117 95.0098 22.8125 95.0098 23.1719C95.0098 23.5234 94.9062 23.8555 94.6992 24.168C94.4961 24.4766 94.2012 24.7168 93.8145 24.8887C93.4277 25.0566 92.9902 25.1406 92.502 25.1406C91.6934 25.1406 91.0762 24.9727 90.6504 24.6367C90.2285 24.3008 89.959 23.8027 89.8418 23.1426ZM100.752 25L98.8477 18.7773H99.9375L100.928 22.3691L101.297 23.7051C101.312 23.6387 101.42 23.2109 101.619 22.4219L102.609 18.7773H103.693L104.625 22.3867L104.936 23.5762L105.293 22.375L106.359 18.7773H107.385L105.439 25H104.344L103.354 21.2734L103.113 20.2129L101.854 25H100.752ZM112.535 22.9961L113.625 23.1309C113.453 23.7676 113.135 24.2617 112.67 24.6133C112.205 24.9648 111.611 25.1406 110.889 25.1406C109.979 25.1406 109.256 24.8613 108.721 24.3027C108.189 23.7402 107.924 22.9531 107.924 21.9414C107.924 20.8945 108.193 20.082 108.732 19.5039C109.271 18.9258 109.971 18.6367 110.83 18.6367C111.662 18.6367 112.342 18.9199 112.869 19.4863C113.396 20.0527 113.66 20.8496 113.66 21.877C113.66 21.9395 113.658 22.0332 113.654 22.1582H109.014C109.053 22.8418 109.246 23.3652 109.594 23.7285C109.941 24.0918 110.375 24.2734 110.895 24.2734C111.281 24.2734 111.611 24.1719 111.885 23.9688C112.158 23.7656 112.375 23.4414 112.535 22.9961ZM109.072 21.291H112.547C112.5 20.7676 112.367 20.375 112.148 20.1133C111.812 19.707 111.377 19.5039 110.842 19.5039C110.357 19.5039 109.949 19.666 109.617 19.9902C109.289 20.3145 109.107 20.748 109.072 21.291ZM114.932 25V16.4102H115.986V25H114.932ZM117.604 25V16.4102H118.658V25H117.604Z"/>
  </symbol>
  <symbol id="svg-copy-en-3" viewBox="0 30 97 12">
    <path d="M4.85156 38.2324C4.46094 38.5645 4.08398 38.7988 3.7207 38.9355C3.36133 39.0723 2.97461 39.1406 2.56055 39.1406C1.87695 39.1406 1.35156 38.9746 0.984375 38.6426C0.617188 38.3066 0.433594 37.8789 0.433594 37.3594C0.433594 37.0547 0.501953 36.7773 0.638672 36.5273C0.779297 36.2734 0.960938 36.0703 1.18359 35.918C1.41016 35.7656 1.66406 35.6504 1.94531 35.5723C2.15234 35.5176 2.46484 35.4648 2.88281 35.4141C3.73438 35.3125 4.36133 35.1914 4.76367 35.0508C4.76758 34.9062 4.76953 34.8145 4.76953 34.7754C4.76953 34.3457 4.66992 34.043 4.4707 33.8672C4.20117 33.6289 3.80078 33.5098 3.26953 33.5098C2.77344 33.5098 2.40625 33.5977 2.16797 33.7734C1.93359 33.9453 1.75977 34.252 1.64648 34.6934L0.615234 34.5527C0.708984 34.1113 0.863281 33.7559 1.07812 33.4863C1.29297 33.2129 1.60352 33.0039 2.00977 32.8594C2.41602 32.7109 2.88672 32.6367 3.42188 32.6367C3.95312 32.6367 4.38477 32.6992 4.7168 32.8242C5.04883 32.9492 5.29297 33.1074 5.44922 33.2988C5.60547 33.4863 5.71484 33.7246 5.77734 34.0137C5.8125 34.1934 5.83008 34.5176 5.83008 34.9863V36.3926C5.83008 37.373 5.85156 37.9941 5.89453 38.2559C5.94141 38.5137 6.03125 38.7617 6.16406 39H5.0625C4.95312 38.7812 4.88281 38.5254 4.85156 38.2324ZM4.76367 35.877C4.38086 36.0332 3.80664 36.166 3.04102 36.2754C2.60742 36.3379 2.30078 36.4082 2.12109 36.4863C1.94141 36.5645 1.80273 36.6797 1.70508 36.832C1.60742 36.9805 1.55859 37.1465 1.55859 37.3301C1.55859 37.6113 1.66406 37.8457 1.875 38.0332C2.08984 38.2207 2.40234 38.3145 2.8125 38.3145C3.21875 38.3145 3.58008 38.2266 3.89648 38.0508C4.21289 37.8711 4.44531 37.627 4.59375 37.3184C4.70703 37.0801 4.76367 36.7285 4.76367 36.2637V35.877ZM7.04883 37.1426L8.0918 36.9785C8.15039 37.3965 8.3125 37.7168 8.57812 37.9395C8.84766 38.1621 9.22266 38.2734 9.70312 38.2734C10.1875 38.2734 10.5469 38.1758 10.7812 37.9805C11.0156 37.7812 11.1328 37.5488 11.1328 37.2832C11.1328 37.0449 11.0293 36.8574 10.8223 36.7207C10.6777 36.627 10.3184 36.5078 9.74414 36.3633C8.9707 36.168 8.43359 36 8.13281 35.8594C7.83594 35.7148 7.60938 35.5176 7.45312 35.2676C7.30078 35.0137 7.22461 34.7344 7.22461 34.4297C7.22461 34.1523 7.28711 33.8965 7.41211 33.6621C7.54102 33.4238 7.71484 33.2266 7.93359 33.0703C8.09766 32.9492 8.32031 32.8477 8.60156 32.7656C8.88672 32.6797 9.19141 32.6367 9.51562 32.6367C10.0039 32.6367 10.4316 32.707 10.7988 32.8477C11.1699 32.9883 11.4434 33.1797 11.6191 33.4219C11.7949 33.6602 11.916 33.9805 11.9824 34.3828L10.9512 34.5234C10.9043 34.2031 10.7676 33.9531 10.541 33.7734C10.3184 33.5938 10.002 33.5039 9.5918 33.5039C9.10742 33.5039 8.76172 33.584 8.55469 33.7441C8.34766 33.9043 8.24414 34.0918 8.24414 34.3066C8.24414 34.4434 8.28711 34.5664 8.37305 34.6758C8.45898 34.7891 8.59375 34.8828 8.77734 34.957C8.88281 34.9961 9.19336 35.0859 9.70898 35.2266C10.4551 35.4258 10.9746 35.5898 11.2676 35.7188C11.5645 35.8438 11.7969 36.0273 11.9648 36.2695C12.1328 36.5117 12.2168 36.8125 12.2168 37.1719C12.2168 37.5234 12.1133 37.8555 11.9062 38.168C11.7031 38.4766 11.4082 38.7168 11.0215 38.8887C10.6348 39.0566 10.1973 39.1406 9.70898 39.1406C8.90039 39.1406 8.2832 38.9727 7.85742 38.6367C7.43555 38.3008 7.16602 37.8027 7.04883 37.1426ZM20.8887 39V38.0859C20.4043 38.7891 19.7461 39.1406 18.9141 39.1406C18.5469 39.1406 18.2031 39.0703 17.8828 38.9297C17.5664 38.7891 17.3301 38.6133 17.1738 38.4023C17.0215 38.1875 16.9141 37.9258 16.8516 37.6172C16.8086 37.4102 16.7871 37.082 16.7871 36.6328V32.7773H17.8418V36.2285C17.8418 36.7793 17.8633 37.1504 17.9062 37.3418C17.9727 37.6191 18.1133 37.8379 18.3281 37.998C18.543 38.1543 18.8086 38.2324 19.125 38.2324C19.4414 38.2324 19.7383 38.1523 20.0156 37.9922C20.293 37.8281 20.4883 37.6074 20.6016 37.3301C20.7188 37.0488 20.7773 36.6426 20.7773 36.1113V32.7773H21.832V39H20.8887ZM23.0684 37.1426L24.1113 36.9785C24.1699 37.3965 24.332 37.7168 24.5977 37.9395C24.8672 38.1621 25.2422 38.2734 25.7227 38.2734C26.207 38.2734 26.5664 38.1758 26.8008 37.9805C27.0352 37.7812 27.1523 37.5488 27.1523 37.2832C27.1523 37.0449 27.0488 36.8574 26.8418 36.7207C26.6973 36.627 26.3379 36.5078 25.7637 36.3633C24.9902 36.168 24.4531 36 24.1523 35.8594C23.8555 35.7148 23.6289 35.5176 23.4727 35.2676C23.3203 35.0137 23.2441 34.7344 23.2441 34.4297C23.2441 34.1523 23.3066 33.8965 23.4316 33.6621C23.5605 33.4238 23.7344 33.2266 23.9531 33.0703C24.1172 32.9492 24.3398 32.8477 24.6211 32.7656C24.9062 32.6797 25.2109 32.6367 25.5352 32.6367C26.0234 32.6367 26.4512 32.707 26.8184 32.8477C27.1895 32.9883 27.4629 33.1797 27.6387 33.4219C27.8145 33.6602 27.9355 33.9805 28.002 34.3828L26.9707 34.5234C26.9238 34.2031 26.7871 33.9531 26.5605 33.7734C26.3379 33.5938 26.0215 33.5039 25.6113 33.5039C25.127 33.5039 24.7812 33.584 24.5742 33.7441C24.3672 33.9043 24.2637 34.0918 24.2637 34.3066C24.2637 34.4434 24.3066 34.5664 24.3926 34.6758C24.4785 34.7891 24.6133 34.8828 24.7969 34.957C24.9023 34.9961 25.2129 35.0859 25.7285 35.2266C26.4746 35.4258 26.9941 35.5898 27.2871 35.7188C27.584 35.8438 27.8164 36.0273 27.9844 36.2695C28.1523 36.5117 28.2363 36.8125 28.2363 37.1719C28.2363 37.5234 28.1328 37.8555 27.9258 38.168C27.7227 38.4766 27.4277 38.7168 27.041 38.8887C26.6543 39.0566 26.2168 39.1406 25.7285 39.1406C24.9199 39.1406 24.3027 38.9727 23.877 38.6367C23.4551 38.3008 23.1855 37.8027 23.0684 37.1426ZM29.4961 31.623V30.4102H30.5508V31.623H29.4961ZM29.4961 39V32.7773H30.5508V39H29.4961ZM32.1621 39V32.7773H33.1113V33.6621C33.5684 32.9785 34.2285 32.6367 35.0918 32.6367C35.4668 32.6367 35.8105 32.7051 36.123 32.8418C36.4395 32.9746 36.6758 33.1504 36.832 33.3691C36.9883 33.5879 37.0977 33.8477 37.1602 34.1484C37.1992 34.3438 37.2188 34.6855 37.2188 35.1738V39H36.1641V35.2148C36.1641 34.7852 36.123 34.4648 36.041 34.2539C35.959 34.0391 35.8125 33.8691 35.6016 33.7441C35.3945 33.6152 35.1504 33.5508 34.8691 33.5508C34.4199 33.5508 34.0312 33.6934 33.7031 33.9785C33.3789 34.2637 33.2168 34.8047 33.2168 35.6016V39H32.1621ZM38.6484 39.5156L39.6738 39.668C39.7168 39.9844 39.8359 40.2148 40.0312 40.3594C40.293 40.5547 40.6504 40.6523 41.1035 40.6523C41.5918 40.6523 41.9688 40.5547 42.2344 40.3594C42.5 40.1641 42.6797 39.8906 42.7734 39.5391C42.8281 39.3242 42.8535 38.873 42.8496 38.1855C42.3887 38.7285 41.8145 39 41.127 39C40.2715 39 39.6094 38.6914 39.1406 38.0742C38.6719 37.457 38.4375 36.7168 38.4375 35.8535C38.4375 35.2598 38.5449 34.7129 38.7598 34.2129C38.9746 33.709 39.2852 33.3203 39.6914 33.0469C40.1016 32.7734 40.582 32.6367 41.1328 32.6367C41.8672 32.6367 42.4727 32.9336 42.9492 33.5273V32.7773H43.9219V38.1562C43.9219 39.125 43.8223 39.8105 43.623 40.2129C43.4277 40.6191 43.1152 40.9395 42.6855 41.1738C42.2598 41.4082 41.7344 41.5254 41.1094 41.5254C40.3672 41.5254 39.7676 41.3574 39.3105 41.0215C38.8535 40.6895 38.6328 40.1875 38.6484 39.5156ZM39.5215 35.7773C39.5215 36.5938 39.6836 37.1895 40.0078 37.5645C40.332 37.9395 40.7383 38.127 41.2266 38.127C41.7109 38.127 42.1172 37.9414 42.4453 37.5703C42.7734 37.1953 42.9375 36.6094 42.9375 35.8125C42.9375 35.0508 42.7676 34.4766 42.4277 34.0898C42.0918 33.7031 41.6855 33.5098 41.209 33.5098C40.7402 33.5098 40.3418 33.7012 40.0137 34.084C39.6855 34.4629 39.5215 35.0273 39.5215 35.7773ZM48.416 36.5625L49.4414 36.4219C49.4688 37.0781 49.5918 37.5273 49.8105 37.7695C50.0293 38.0117 50.332 38.1328 50.7188 38.1328C51.0039 38.1328 51.25 38.0684 51.457 37.9395C51.6641 37.8066 51.8066 37.6289 51.8848 37.4062C51.9629 37.1797 52.002 36.8203 52.002 36.3281V30.4102H53.1387V36.2637C53.1387 36.9824 53.0508 37.5391 52.875 37.9336C52.7031 38.3281 52.4277 38.6289 52.0488 38.8359C51.6738 39.043 51.2324 39.1465 50.7246 39.1465C49.9707 39.1465 49.3926 38.9297 48.9902 38.4961C48.5918 38.0625 48.4004 37.418 48.416 36.5625ZM58.9395 39V38.0859C58.4551 38.7891 57.7969 39.1406 56.9648 39.1406C56.5977 39.1406 56.2539 39.0703 55.9336 38.9297C55.6172 38.7891 55.3809 38.6133 55.2246 38.4023C55.0723 38.1875 54.9648 37.9258 54.9023 37.6172C54.8594 37.4102 54.8379 37.082 54.8379 36.6328V32.7773H55.8926V36.2285C55.8926 36.7793 55.9141 37.1504 55.957 37.3418C56.0234 37.6191 56.1641 37.8379 56.3789 37.998C56.5938 38.1543 56.8594 38.2324 57.1758 38.2324C57.4922 38.2324 57.7891 38.1523 58.0664 37.9922C58.3438 37.8281 58.5391 37.6074 58.6523 37.3301C58.7695 37.0488 58.8281 36.6426 58.8281 36.1113V32.7773H59.8828V39H58.9395ZM61.1191 37.1426L62.1621 36.9785C62.2207 37.3965 62.3828 37.7168 62.6484 37.9395C62.918 38.1621 63.293 38.2734 63.7734 38.2734C64.2578 38.2734 64.6172 38.1758 64.8516 37.9805C65.0859 37.7812 65.2031 37.5488 65.2031 37.2832C65.2031 37.0449 65.0996 36.8574 64.8926 36.7207C64.748 36.627 64.3887 36.5078 63.8145 36.3633C63.041 36.168 62.5039 36 62.2031 35.8594C61.9062 35.7148 61.6797 35.5176 61.5234 35.2676C61.3711 35.0137 61.2949 34.7344 61.2949 34.4297C61.2949 34.1523 61.3574 33.8965 61.4824 33.6621C61.6113 33.4238 61.7852 33.2266 62.0039 33.0703C62.168 32.9492 62.3906 32.8477 62.6719 32.7656C62.957 32.6797 63.2617 32.6367 63.5859 32.6367C64.0742 32.6367 64.502 32.707 64.8691 32.8477C65.2402 32.9883 65.5137 33.1797 65.6895 33.4219C65.8652 33.6602 65.9863 33.9805 66.0527 34.3828L65.0215 34.5234C64.9746 34.2031 64.8379 33.9531 64.6113 33.7734C64.3887 33.5938 64.0723 33.5039 63.6621 33.5039C63.1777 33.5039 62.832 33.584 62.625 33.7441C62.418 33.9043 62.3145 34.0918 62.3145 34.3066C62.3145 34.4434 62.3574 34.5664 62.4434 34.6758C62.5293 34.7891 62.6641 34.8828 62.8477 34.957C62.9531 34.9961 63.2637 35.0859 63.7793 35.2266C64.5254 35.4258 65.0449 35.5898 65.3379 35.7188C65.6348 35.8438 65.8672 36.0273 66.0352 36.2695C66.2031 36.5117 66.2871 36.8125 66.2871 37.1719C66.2871 37.5234 66.1836 37.8555 65.9766 38.168C65.7734 38.4766 65.4785 38.7168 65.0918 38.8887C64.7051 39.0566 64.2676 39.1406 63.7793 39.1406C62.9707 39.1406 62.3535 38.9727 61.9277 38.6367C61.5059 38.3008 61.2363 37.8027 61.1191 37.1426ZM69.8438 38.0566L69.9961 38.9883C69.6992 39.0508 69.4336 39.082 69.1992 39.082C68.8164 39.082 68.5195 39.0215 68.3086 38.9004C68.0977 38.7793 67.9492 38.6211 67.8633 38.4258C67.7773 38.2266 67.7344 37.8105 67.7344 37.1777V33.5977H66.9609V32.7773H67.7344V31.2363L68.7832 30.6035V32.7773H69.8438V33.5977H68.7832V37.2363C68.7832 37.5371 68.8008 37.7305 68.8359 37.8164C68.875 37.9023 68.9355 37.9707 69.0176 38.0215C69.1035 38.0723 69.2246 38.0977 69.3809 38.0977C69.498 38.0977 69.6523 38.084 69.8438 38.0566ZM71.1328 39V33.5977H70.2012V32.7773H71.1328V32.1152C71.1328 31.6973 71.1699 31.3867 71.2441 31.1836C71.3457 30.9102 71.5234 30.6895 71.7773 30.5215C72.0352 30.3496 72.3945 30.2637 72.8555 30.2637C73.1523 30.2637 73.4805 30.2988 73.8398 30.3691L73.6816 31.2891C73.4629 31.25 73.2559 31.2305 73.0605 31.2305C72.7402 31.2305 72.5137 31.2988 72.3809 31.4355C72.248 31.5723 72.1816 31.8281 72.1816 32.2031V32.7773H73.3945V33.5977H72.1816V39H71.1328ZM73.8281 35.8887C73.8281 34.7363 74.1484 33.8828 74.7891 33.3281C75.3242 32.8672 75.9766 32.6367 76.7461 32.6367C77.6016 32.6367 78.3008 32.918 78.8438 33.4805C79.3867 34.0391 79.6582 34.8125 79.6582 35.8008C79.6582 36.6016 79.5371 37.2324 79.2949 37.6934C79.0566 38.1504 78.707 38.5059 78.2461 38.7598C77.7891 39.0137 77.2891 39.1406 76.7461 39.1406C75.875 39.1406 75.1699 38.8613 74.6309 38.3027C74.0957 37.7441 73.8281 36.9395 73.8281 35.8887ZM74.9121 35.8887C74.9121 36.6855 75.0859 37.2832 75.4336 37.6816C75.7812 38.0762 76.2188 38.2734 76.7461 38.2734C77.2695 38.2734 77.7051 38.0742 78.0527 37.6758C78.4004 37.2773 78.5742 36.6699 78.5742 35.8535C78.5742 35.084 78.3984 34.502 78.0469 34.1074C77.6992 33.709 77.2656 33.5098 76.7461 33.5098C76.2188 33.5098 75.7812 33.707 75.4336 34.1016C75.0859 34.4961 74.9121 35.0918 74.9121 35.8887ZM80.8887 39V32.7773H81.8379V33.7207C82.0801 33.2793 82.3027 32.9883 82.5059 32.8477C82.7129 32.707 82.9395 32.6367 83.1855 32.6367C83.541 32.6367 83.9023 32.75 84.2695 32.9766L83.9062 33.9551C83.6484 33.8027 83.3906 33.7266 83.1328 33.7266C82.9023 33.7266 82.6953 33.7969 82.5117 33.9375C82.3281 34.0742 82.1973 34.2656 82.1191 34.5117C82.002 34.8867 81.9434 35.2969 81.9434 35.7422V39H80.8887ZM89.1562 36.9961L90.2461 37.1309C90.0742 37.7676 89.7559 38.2617 89.291 38.6133C88.8262 38.9648 88.2324 39.1406 87.5098 39.1406C86.5996 39.1406 85.877 38.8613 85.3418 38.3027C84.8105 37.7402 84.5449 36.9531 84.5449 35.9414C84.5449 34.8945 84.8145 34.082 85.3535 33.5039C85.8926 32.9258 86.5918 32.6367 87.4512 32.6367C88.2832 32.6367 88.9629 32.9199 89.4902 33.4863C90.0176 34.0527 90.2812 34.8496 90.2812 35.877C90.2812 35.9395 90.2793 36.0332 90.2754 36.1582H85.6348C85.6738 36.8418 85.8672 37.3652 86.2148 37.7285C86.5625 38.0918 86.9961 38.2734 87.5156 38.2734C87.9023 38.2734 88.2324 38.1719 88.5059 37.9688C88.7793 37.7656 88.9961 37.4414 89.1562 36.9961ZM85.6934 35.291H89.168C89.1211 34.7676 88.9883 34.375 88.7695 34.1133C88.4336 33.707 87.998 33.5039 87.4629 33.5039C86.9785 33.5039 86.5703 33.666 86.2383 33.9902C85.9102 34.3145 85.7285 34.748 85.6934 35.291ZM90.873 39L93.1465 35.7656L91.043 32.7773H92.3613L93.3164 34.2363C93.4961 34.5137 93.6406 34.7461 93.75 34.9336C93.9219 34.6758 94.0801 34.4473 94.2246 34.248L95.2734 32.7773H96.5332L94.3828 35.707L96.6973 39H95.4023L94.125 37.0664L93.7852 36.5449L92.1504 39H90.873Z"/>
  </symbol>
  <symbol id="svg-copy-en-4" viewBox="0 43 115 11">
    <path d="M0.878906 53V44.4102H4.10156C4.75781 44.4102 5.2832 44.498 5.67773 44.6738C6.07617 44.8457 6.38672 45.1133 6.60938 45.4766C6.83594 45.8359 6.94922 46.2129 6.94922 46.6074C6.94922 46.9746 6.84961 47.3203 6.65039 47.6445C6.45117 47.9688 6.15039 48.2305 5.74805 48.4297C6.26758 48.582 6.66602 48.8418 6.94336 49.209C7.22461 49.5762 7.36523 50.0098 7.36523 50.5098C7.36523 50.9121 7.2793 51.2871 7.10742 51.6348C6.93945 51.9785 6.73047 52.2441 6.48047 52.4316C6.23047 52.6191 5.91602 52.7617 5.53711 52.8594C5.16211 52.9531 4.70117 53 4.1543 53H0.878906ZM2.01562 48.0195H3.87305C4.37695 48.0195 4.73828 47.9863 4.95703 47.9199C5.24609 47.834 5.46289 47.6914 5.60742 47.4922C5.75586 47.293 5.83008 47.043 5.83008 46.7422C5.83008 46.457 5.76172 46.207 5.625 45.9922C5.48828 45.7734 5.29297 45.625 5.03906 45.5469C4.78516 45.4648 4.34961 45.4238 3.73242 45.4238H2.01562V48.0195ZM2.01562 51.9863H4.1543C4.52148 51.9863 4.7793 51.9727 4.92773 51.9453C5.18945 51.8984 5.4082 51.8203 5.58398 51.7109C5.75977 51.6016 5.9043 51.4434 6.01758 51.2363C6.13086 51.0254 6.1875 50.7832 6.1875 50.5098C6.1875 50.1895 6.10547 49.9121 5.94141 49.6777C5.77734 49.4395 5.54883 49.2734 5.25586 49.1797C4.9668 49.082 4.54883 49.0332 4.00195 49.0332H2.01562V51.9863ZM8.7832 53V46.7773H9.73242V47.7207C9.97461 47.2793 10.1973 46.9883 10.4004 46.8477C10.6074 46.707 10.834 46.6367 11.0801 46.6367C11.4355 46.6367 11.7969 46.75 12.1641 46.9766L11.8008 47.9551C11.543 47.8027 11.2852 47.7266 11.0273 47.7266C10.7969 47.7266 10.5898 47.7969 10.4062 47.9375C10.2227 48.0742 10.0918 48.2656 10.0137 48.5117C9.89648 48.8867 9.83789 49.2969 9.83789 49.7422V53H8.7832ZM16.8516 52.2324C16.4609 52.5645 16.084 52.7988 15.7207 52.9355C15.3613 53.0723 14.9746 53.1406 14.5605 53.1406C13.877 53.1406 13.3516 52.9746 12.9844 52.6426C12.6172 52.3066 12.4336 51.8789 12.4336 51.3594C12.4336 51.0547 12.502 50.7773 12.6387 50.5273C12.7793 50.2734 12.9609 50.0703 13.1836 49.918C13.4102 49.7656 13.6641 49.6504 13.9453 49.5723C14.1523 49.5176 14.4648 49.4648 14.8828 49.4141C15.7344 49.3125 16.3613 49.1914 16.7637 49.0508C16.7676 48.9062 16.7695 48.8145 16.7695 48.7754C16.7695 48.3457 16.6699 48.043 16.4707 47.8672C16.2012 47.6289 15.8008 47.5098 15.2695 47.5098C14.7734 47.5098 14.4062 47.5977 14.168 47.7734C13.9336 47.9453 13.7598 48.252 13.6465 48.6934L12.6152 48.5527C12.709 48.1113 12.8633 47.7559 13.0781 47.4863C13.293 47.2129 13.6035 47.0039 14.0098 46.8594C14.416 46.7109 14.8867 46.6367 15.4219 46.6367C15.9531 46.6367 16.3848 46.6992 16.7168 46.8242C17.0488 46.9492 17.293 47.1074 17.4492 47.2988C17.6055 47.4863 17.7148 47.7246 17.7773 48.0137C17.8125 48.1934 17.8301 48.5176 17.8301 48.9863V50.3926C17.8301 51.373 17.8516 51.9941 17.8945 52.2559C17.9414 52.5137 18.0312 52.7617 18.1641 53H17.0625C16.9531 52.7812 16.8828 52.5254 16.8516 52.2324ZM16.7637 49.877C16.3809 50.0332 15.8066 50.166 15.041 50.2754C14.6074 50.3379 14.3008 50.4082 14.1211 50.4863C13.9414 50.5645 13.8027 50.6797 13.7051 50.832C13.6074 50.9805 13.5586 51.1465 13.5586 51.3301C13.5586 51.6113 13.6641 51.8457 13.875 52.0332C14.0898 52.2207 14.4023 52.3145 14.8125 52.3145C15.2188 52.3145 15.5801 52.2266 15.8965 52.0508C16.2129 51.8711 16.4453 51.627 16.5938 51.3184C16.707 51.0801 16.7637 50.7285 16.7637 50.2637V49.877ZM19.4707 53V46.7773H20.4199V47.6621C20.877 46.9785 21.5371 46.6367 22.4004 46.6367C22.7754 46.6367 23.1191 46.7051 23.4316 46.8418C23.748 46.9746 23.9844 47.1504 24.1406 47.3691C24.2969 47.5879 24.4062 47.8477 24.4688 48.1484C24.5078 48.3438 24.5273 48.6855 24.5273 49.1738V53H23.4727V49.2148C23.4727 48.7852 23.4316 48.4648 23.3496 48.2539C23.2676 48.0391 23.1211 47.8691 22.9102 47.7441C22.7031 47.6152 22.459 47.5508 22.1777 47.5508C21.7285 47.5508 21.3398 47.6934 21.0117 47.9785C20.6875 48.2637 20.5254 48.8047 20.5254 49.6016V53H19.4707ZM30.1875 53V52.2148C29.793 52.832 29.2129 53.1406 28.4473 53.1406C27.9512 53.1406 27.4941 53.0039 27.0762 52.7305C26.6621 52.457 26.3398 52.0762 26.1094 51.5879C25.8828 51.0957 25.7695 50.5312 25.7695 49.8945C25.7695 49.2734 25.873 48.7109 26.0801 48.207C26.2871 47.6992 26.5977 47.3105 27.0117 47.041C27.4258 46.7715 27.8887 46.6367 28.4004 46.6367C28.7754 46.6367 29.1094 46.7168 29.4023 46.877C29.6953 47.0332 29.9336 47.2383 30.1172 47.4922V44.4102H31.166V53H30.1875ZM26.8535 49.8945C26.8535 50.6914 27.0215 51.2871 27.3574 51.6816C27.6934 52.0762 28.0898 52.2734 28.5469 52.2734C29.0078 52.2734 29.3984 52.0859 29.7188 51.7109C30.043 51.332 30.2051 50.7559 30.2051 49.9824C30.2051 49.1309 30.041 48.5059 29.7129 48.1074C29.3848 47.709 28.9805 47.5098 28.5 47.5098C28.0312 47.5098 27.6387 47.7012 27.3223 48.084C27.0098 48.4668 26.8535 49.0703 26.8535 49.8945ZM42.4336 49.9883L43.5703 50.2754C43.332 51.209 42.9023 51.9219 42.2812 52.4141C41.6641 52.9023 40.9082 53.1465 40.0137 53.1465C39.0879 53.1465 38.334 52.959 37.752 52.584C37.1738 52.2051 36.7324 51.6582 36.4277 50.9434C36.127 50.2285 35.9766 49.4609 35.9766 48.6406C35.9766 47.7461 36.1465 46.9668 36.4863 46.3027C36.8301 45.6348 37.3164 45.1289 37.9453 44.7852C38.5781 44.4375 39.2734 44.2637 40.0312 44.2637C40.8906 44.2637 41.6133 44.4824 42.1992 44.9199C42.7852 45.3574 43.1934 45.9727 43.4238 46.7656L42.3047 47.0293C42.1055 46.4043 41.8164 45.9492 41.4375 45.6641C41.0586 45.3789 40.582 45.2363 40.0078 45.2363C39.3477 45.2363 38.7949 45.3945 38.3496 45.7109C37.9082 46.0273 37.5977 46.4531 37.418 46.9883C37.2383 47.5195 37.1484 48.0684 37.1484 48.6348C37.1484 49.3652 37.2539 50.0039 37.4648 50.5508C37.6797 51.0938 38.0117 51.5 38.4609 51.7695C38.9102 52.0391 39.3965 52.1738 39.9199 52.1738C40.5566 52.1738 41.0957 51.9902 41.5371 51.623C41.9785 51.2559 42.2773 50.7109 42.4336 49.9883ZM44.8418 53V44.4102H45.8965V47.4922C46.3887 46.9219 47.0098 46.6367 47.7598 46.6367C48.2207 46.6367 48.6211 46.7285 48.9609 46.9121C49.3008 47.0918 49.543 47.3418 49.6875 47.6621C49.8359 47.9824 49.9102 48.4473 49.9102 49.0566V53H48.8555V49.0566C48.8555 48.5293 48.7402 48.1465 48.5098 47.9082C48.2832 47.666 47.9609 47.5449 47.543 47.5449C47.2305 47.5449 46.9355 47.627 46.6582 47.791C46.3848 47.9512 46.1895 48.1699 46.0723 48.4473C45.9551 48.7246 45.8965 49.1074 45.8965 49.5957V53H44.8418ZM55.582 52.2324C55.1914 52.5645 54.8145 52.7988 54.4512 52.9355C54.0918 53.0723 53.7051 53.1406 53.291 53.1406C52.6074 53.1406 52.082 52.9746 51.7148 52.6426C51.3477 52.3066 51.1641 51.8789 51.1641 51.3594C51.1641 51.0547 51.2324 50.7773 51.3691 50.5273C51.5098 50.2734 51.6914 50.0703 51.9141 49.918C52.1406 49.7656 52.3945 49.6504 52.6758 49.5723C52.8828 49.5176 53.1953 49.4648 53.6133 49.4141C54.4648 49.3125 55.0918 49.1914 55.4941 49.0508C55.498 48.9062 55.5 48.8145 55.5 48.7754C55.5 48.3457 55.4004 48.043 55.2012 47.8672C54.9316 47.6289 54.5312 47.5098 54 47.5098C53.5039 47.5098 53.1367 47.5977 52.8984 47.7734C52.6641 47.9453 52.4902 48.252 52.377 48.6934L51.3457 48.5527C51.4395 48.1113 51.5938 47.7559 51.8086 47.4863C52.0234 47.2129 52.334 47.0039 52.7402 46.8594C53.1465 46.7109 53.6172 46.6367 54.1523 46.6367C54.6836 46.6367 55.1152 46.6992 55.4473 46.8242C55.7793 46.9492 56.0234 47.1074 56.1797 47.2988C56.3359 47.4863 56.4453 47.7246 56.5078 48.0137C56.543 48.1934 56.5605 48.5176 56.5605 48.9863V50.3926C56.5605 51.373 56.582 51.9941 56.625 52.2559C56.6719 52.5137 56.7617 52.7617 56.8945 53H55.793C55.6836 52.7812 55.6133 52.5254 55.582 52.2324ZM55.4941 49.877C55.1113 50.0332 54.5371 50.166 53.7715 50.2754C53.3379 50.3379 53.0312 50.4082 52.8516 50.4863C52.6719 50.5645 52.5332 50.6797 52.4355 50.832C52.3379 50.9805 52.2891 51.1465 52.2891 51.3301C52.2891 51.6113 52.3945 51.8457 52.6055 52.0332C52.8203 52.2207 53.1328 52.3145 53.543 52.3145C53.9492 52.3145 54.3105 52.2266 54.627 52.0508C54.9434 51.8711 55.1758 51.627 55.3242 51.3184C55.4375 51.0801 55.4941 50.7285 55.4941 50.2637V49.877ZM58.1895 53V46.7773H59.1387V47.7207C59.3809 47.2793 59.6035 46.9883 59.8066 46.8477C60.0137 46.707 60.2402 46.6367 60.4863 46.6367C60.8418 46.6367 61.2031 46.75 61.5703 46.9766L61.207 47.9551C60.9492 47.8027 60.6914 47.7266 60.4336 47.7266C60.2031 47.7266 59.9961 47.7969 59.8125 47.9375C59.6289 48.0742 59.498 48.2656 59.4199 48.5117C59.3027 48.8867 59.2441 49.2969 59.2441 49.7422V53H58.1895ZM66.2578 52.2324C65.8672 52.5645 65.4902 52.7988 65.127 52.9355C64.7676 53.0723 64.3809 53.1406 63.9668 53.1406C63.2832 53.1406 62.7578 52.9746 62.3906 52.6426C62.0234 52.3066 61.8398 51.8789 61.8398 51.3594C61.8398 51.0547 61.9082 50.7773 62.0449 50.5273C62.1855 50.2734 62.3672 50.0703 62.5898 49.918C62.8164 49.7656 63.0703 49.6504 63.3516 49.5723C63.5586 49.5176 63.8711 49.4648 64.2891 49.4141C65.1406 49.3125 65.7676 49.1914 66.1699 49.0508C66.1738 48.9062 66.1758 48.8145 66.1758 48.7754C66.1758 48.3457 66.0762 48.043 65.877 47.8672C65.6074 47.6289 65.207 47.5098 64.6758 47.5098C64.1797 47.5098 63.8125 47.5977 63.5742 47.7734C63.3398 47.9453 63.166 48.252 63.0527 48.6934L62.0215 48.5527C62.1152 48.1113 62.2695 47.7559 62.4844 47.4863C62.6992 47.2129 63.0098 47.0039 63.416 46.8594C63.8223 46.7109 64.293 46.6367 64.8281 46.6367C65.3594 46.6367 65.791 46.6992 66.123 46.8242C66.4551 46.9492 66.6992 47.1074 66.8555 47.2988C67.0117 47.4863 67.1211 47.7246 67.1836 48.0137C67.2188 48.1934 67.2363 48.5176 67.2363 48.9863V50.3926C67.2363 51.373 67.2578 51.9941 67.3008 52.2559C67.3477 52.5137 67.4375 52.7617 67.5703 53H66.4688C66.3594 52.7812 66.2891 52.5254 66.2578 52.2324ZM66.1699 49.877C65.7871 50.0332 65.2129 50.166 64.4473 50.2754C64.0137 50.3379 63.707 50.4082 63.5273 50.4863C63.3477 50.5645 63.209 50.6797 63.1113 50.832C63.0137 50.9805 62.9648 51.1465 62.9648 51.3301C62.9648 51.6113 63.0703 51.8457 63.2812 52.0332C63.4961 52.2207 63.8086 52.3145 64.2188 52.3145C64.625 52.3145 64.9863 52.2266 65.3027 52.0508C65.6191 51.8711 65.8516 51.627 66 51.3184C66.1133 51.0801 66.1699 50.7285 66.1699 50.2637V49.877ZM72.9375 50.7207L73.9746 50.8555C73.8613 51.5703 73.5703 52.1309 73.1016 52.5371C72.6367 52.9395 72.0645 53.1406 71.3848 53.1406C70.5332 53.1406 69.8477 52.8633 69.3281 52.3086C68.8125 51.75 68.5547 50.9512 68.5547 49.9121C68.5547 49.2402 68.666 48.6523 68.8887 48.1484C69.1113 47.6445 69.4492 47.2676 69.9023 47.0176C70.3594 46.7637 70.8555 46.6367 71.3906 46.6367C72.0664 46.6367 72.6191 46.8086 73.0488 47.1523C73.4785 47.4922 73.7539 47.9766 73.875 48.6055L72.8496 48.7637C72.752 48.3457 72.5781 48.0312 72.3281 47.8203C72.082 47.6094 71.7832 47.5039 71.4316 47.5039C70.9004 47.5039 70.4688 47.6953 70.1367 48.0781C69.8047 48.457 69.6387 49.0586 69.6387 49.8828C69.6387 50.7188 69.7988 51.3262 70.1191 51.7051C70.4395 52.084 70.8574 52.2734 71.373 52.2734C71.7871 52.2734 72.1328 52.1465 72.4102 51.8926C72.6875 51.6387 72.8633 51.248 72.9375 50.7207ZM77.1797 52.0566L77.332 52.9883C77.0352 53.0508 76.7695 53.082 76.5352 53.082C76.1523 53.082 75.8555 53.0215 75.6445 52.9004C75.4336 52.7793 75.2852 52.6211 75.1992 52.4258C75.1133 52.2266 75.0703 51.8105 75.0703 51.1777V47.5977H74.2969V46.7773H75.0703V45.2363L76.1191 44.6035V46.7773H77.1797V47.5977H76.1191V51.2363C76.1191 51.5371 76.1367 51.7305 76.1719 51.8164C76.2109 51.9023 76.2715 51.9707 76.3535 52.0215C76.4395 52.0723 76.5605 52.0977 76.7168 52.0977C76.834 52.0977 76.9883 52.084 77.1797 52.0566ZM82.4766 50.9961L83.5664 51.1309C83.3945 51.7676 83.0762 52.2617 82.6113 52.6133C82.1465 52.9648 81.5527 53.1406 80.8301 53.1406C79.9199 53.1406 79.1973 52.8613 78.6621 52.3027C78.1309 51.7402 77.8652 50.9531 77.8652 49.9414C77.8652 48.8945 78.1348 48.082 78.6738 47.5039C79.2129 46.9258 79.9121 46.6367 80.7715 46.6367C81.6035 46.6367 82.2832 46.9199 82.8105 47.4863C83.3379 48.0527 83.6016 48.8496 83.6016 49.877C83.6016 49.9395 83.5996 50.0332 83.5957 50.1582H78.9551C78.9941 50.8418 79.1875 51.3652 79.5352 51.7285C79.8828 52.0918 80.3164 52.2734 80.8359 52.2734C81.2227 52.2734 81.5527 52.1719 81.8262 51.9688C82.0996 51.7656 82.3164 51.4414 82.4766 50.9961ZM79.0137 49.291H82.4883C82.4414 48.7676 82.3086 48.375 82.0898 48.1133C81.7539 47.707 81.3184 47.5039 80.7832 47.5039C80.2988 47.5039 79.8906 47.666 79.5586 47.9902C79.2305 48.3145 79.0488 48.748 79.0137 49.291ZM84.8848 53V46.7773H85.834V47.7207C86.0762 47.2793 86.2988 46.9883 86.502 46.8477C86.709 46.707 86.9355 46.6367 87.1816 46.6367C87.5371 46.6367 87.8984 46.75 88.2656 46.9766L87.9023 47.9551C87.6445 47.8027 87.3867 47.7266 87.1289 47.7266C86.8984 47.7266 86.6914 47.7969 86.5078 47.9375C86.3242 48.0742 86.1934 48.2656 86.1152 48.5117C85.998 48.8867 85.9395 49.2969 85.9395 49.7422V53H84.8848ZM88.8984 45.623V44.4102H89.9531V45.623H88.8984ZM88.8984 53V46.7773H89.9531V53H88.8984ZM91.1426 51.1426L92.1855 50.9785C92.2441 51.3965 92.4062 51.7168 92.6719 51.9395C92.9414 52.1621 93.3164 52.2734 93.7969 52.2734C94.2812 52.2734 94.6406 52.1758 94.875 51.9805C95.1094 51.7812 95.2266 51.5488 95.2266 51.2832C95.2266 51.0449 95.123 50.8574 94.916 50.7207C94.7715 50.627 94.4121 50.5078 93.8379 50.3633C93.0645 50.168 92.5273 50 92.2266 49.8594C91.9297 49.7148 91.7031 49.5176 91.5469 49.2676C91.3945 49.0137 91.3184 48.7344 91.3184 48.4297C91.3184 48.1523 91.3809 47.8965 91.5059 47.6621C91.6348 47.4238 91.8086 47.2266 92.0273 47.0703C92.1914 46.9492 92.4141 46.8477 92.6953 46.7656C92.9805 46.6797 93.2852 46.6367 93.6094 46.6367C94.0977 46.6367 94.5254 46.707 94.8926 46.8477C95.2637 46.9883 95.5371 47.1797 95.7129 47.4219C95.8887 47.6602 96.0098 47.9805 96.0762 48.3828L95.0449 48.5234C94.998 48.2031 94.8613 47.9531 94.6348 47.7734C94.4121 47.5938 94.0957 47.5039 93.6855 47.5039C93.2012 47.5039 92.8555 47.584 92.6484 47.7441C92.4414 47.9043 92.3379 48.0918 92.3379 48.3066C92.3379 48.4434 92.3809 48.5664 92.4668 48.6758C92.5527 48.7891 92.6875 48.8828 92.8711 48.957C92.9766 48.9961 93.2871 49.0859 93.8027 49.2266C94.5488 49.4258 95.0684 49.5898 95.3613 49.7188C95.6582 49.8438 95.8906 50.0273 96.0586 50.2695C96.2266 50.5117 96.3105 50.8125 96.3105 51.1719C96.3105 51.5234 96.207 51.8555 96 52.168C95.7969 52.4766 95.502 52.7168 95.1152 52.8887C94.7285 53.0566 94.291 53.1406 93.8027 53.1406C92.9941 53.1406 92.377 52.9727 91.9512 52.6367C91.5293 52.3008 91.2598 51.8027 91.1426 51.1426ZM99.8672 52.0566L100.02 52.9883C99.7227 53.0508 99.457 53.082 99.2227 53.082C98.8398 53.082 98.543 53.0215 98.332 52.9004C98.1211 52.7793 97.9727 52.6211 97.8867 52.4258C97.8008 52.2266 97.7578 51.8105 97.7578 51.1777V47.5977H96.9844V46.7773H97.7578V45.2363L98.8066 44.6035V46.7773H99.8672V47.5977H98.8066V51.2363C98.8066 51.5371 98.8242 51.7305 98.8594 51.8164C98.8984 51.9023 98.959 51.9707 99.041 52.0215C99.127 52.0723 99.248 52.0977 99.4043 52.0977C99.5215 52.0977 99.6758 52.084 99.8672 52.0566ZM100.91 45.623V44.4102H101.965V45.623H100.91ZM100.91 53V46.7773H101.965V53H100.91ZM107.637 50.7207L108.674 50.8555C108.561 51.5703 108.27 52.1309 107.801 52.5371C107.336 52.9395 106.764 53.1406 106.084 53.1406C105.232 53.1406 104.547 52.8633 104.027 52.3086C103.512 51.75 103.254 50.9512 103.254 49.9121C103.254 49.2402 103.365 48.6523 103.588 48.1484C103.811 47.6445 104.148 47.2676 104.602 47.0176C105.059 46.7637 105.555 46.6367 106.09 46.6367C106.766 46.6367 107.318 46.8086 107.748 47.1523C108.178 47.4922 108.453 47.9766 108.574 48.6055L107.549 48.7637C107.451 48.3457 107.277 48.0312 107.027 47.8203C106.781 47.6094 106.482 47.5039 106.131 47.5039C105.6 47.5039 105.168 47.6953 104.836 48.0781C104.504 48.457 104.338 49.0586 104.338 49.8828C104.338 50.7188 104.498 51.3262 104.818 51.7051C105.139 52.084 105.557 52.2734 106.072 52.2734C106.486 52.2734 106.832 52.1465 107.109 51.8926C107.387 51.6387 107.562 51.248 107.637 50.7207ZM109.154 51.1426L110.197 50.9785C110.256 51.3965 110.418 51.7168 110.684 51.9395C110.953 52.1621 111.328 52.2734 111.809 52.2734C112.293 52.2734 112.652 52.1758 112.887 51.9805C113.121 51.7812 113.238 51.5488 113.238 51.2832C113.238 51.0449 113.135 50.8574 112.928 50.7207C112.783 50.627 112.424 50.5078 111.85 50.3633C111.076 50.168 110.539 50 110.238 49.8594C109.941 49.7148 109.715 49.5176 109.559 49.2676C109.406 49.0137 109.33 48.7344 109.33 48.4297C109.33 48.1523 109.393 47.8965 109.518 47.6621C109.646 47.4238 109.82 47.2266 110.039 47.0703C110.203 46.9492 110.426 46.8477 110.707 46.7656C110.992 46.6797 111.297 46.6367 111.621 46.6367C112.109 46.6367 112.537 46.707 112.904 46.8477C113.275 46.9883 113.549 47.1797 113.725 47.4219C113.9 47.6602 114.021 47.9805 114.088 48.3828L113.057 48.5234C113.01 48.2031 112.873 47.9531 112.646 47.7734C112.424 47.5938 112.107 47.5039 111.697 47.5039C111.213 47.5039 110.867 47.584 110.66 47.7441C110.453 47.9043 110.35 48.0918 110.35 48.3066C110.35 48.4434 110.393 48.5664 110.479 48.6758C110.564 48.7891 110.699 48.8828 110.883 48.957C110.988 48.9961 111.299 49.0859 111.814 49.2266C112.561 49.4258 113.08 49.5898 113.373 49.7188C113.67 49.8438 113.902 50.0273 114.07 50.2695C114.238 50.5117 114.322 50.8125 114.322 51.1719C114.322 51.5234 114.219 51.8555 114.012 52.168C113.809 52.4766 113.514 52.7168 113.127 52.8887C112.74 53.0566 112.303 53.1406 111.814 53.1406C111.006 53.1406 110.389 52.9727 109.963 52.6367C109.541 52.3008 109.271 51.8027 109.154 51.1426Z"/>
  </symbol>
  <symbol id="svg-copy-en-5" viewBox="0 58 103 11">
    <path d="M0.796875 59.623V58.4102H1.85156V59.623H0.796875ZM0.796875 67V60.7773H1.85156V67H0.796875ZM3.04102 65.1426L4.08398 64.9785C4.14258 65.3965 4.30469 65.7168 4.57031 65.9395C4.83984 66.1621 5.21484 66.2734 5.69531 66.2734C6.17969 66.2734 6.53906 66.1758 6.77344 65.9805C7.00781 65.7812 7.125 65.5488 7.125 65.2832C7.125 65.0449 7.02148 64.8574 6.81445 64.7207C6.66992 64.627 6.31055 64.5078 5.73633 64.3633C4.96289 64.168 4.42578 64 4.125 63.8594C3.82812 63.7148 3.60156 63.5176 3.44531 63.2676C3.29297 63.0137 3.2168 62.7344 3.2168 62.4297C3.2168 62.1523 3.2793 61.8965 3.4043 61.6621C3.5332 61.4238 3.70703 61.2266 3.92578 61.0703C4.08984 60.9492 4.3125 60.8477 4.59375 60.7656C4.87891 60.6797 5.18359 60.6367 5.50781 60.6367C5.99609 60.6367 6.42383 60.707 6.79102 60.8477C7.16211 60.9883 7.43555 61.1797 7.61133 61.4219C7.78711 61.6602 7.9082 61.9805 7.97461 62.3828L6.94336 62.5234C6.89648 62.2031 6.75977 61.9531 6.5332 61.7734C6.31055 61.5938 5.99414 61.5039 5.58398 61.5039C5.09961 61.5039 4.75391 61.584 4.54688 61.7441C4.33984 61.9043 4.23633 62.0918 4.23633 62.3066C4.23633 62.4434 4.2793 62.5664 4.36523 62.6758C4.45117 62.7891 4.58594 62.8828 4.76953 62.957C4.875 62.9961 5.18555 63.0859 5.70117 63.2266C6.44727 63.4258 6.9668 63.5898 7.25977 63.7188C7.55664 63.8438 7.78906 64.0273 7.95703 64.2695C8.125 64.5117 8.20898 64.8125 8.20898 65.1719C8.20898 65.5234 8.10547 65.8555 7.89844 66.168C7.69531 66.4766 7.40039 66.7168 7.01367 66.8887C6.62695 67.0566 6.18945 67.1406 5.70117 67.1406C4.89258 67.1406 4.27539 66.9727 3.84961 66.6367C3.42773 66.3008 3.1582 65.8027 3.04102 65.1426ZM16.8633 66.2324C16.4727 66.5645 16.0957 66.7988 15.7324 66.9355C15.373 67.0723 14.9863 67.1406 14.5723 67.1406C13.8887 67.1406 13.3633 66.9746 12.9961 66.6426C12.6289 66.3066 12.4453 65.8789 12.4453 65.3594C12.4453 65.0547 12.5137 64.7773 12.6504 64.5273C12.791 64.2734 12.9727 64.0703 13.1953 63.918C13.4219 63.7656 13.6758 63.6504 13.957 63.5723C14.1641 63.5176 14.4766 63.4648 14.8945 63.4141C15.7461 63.3125 16.373 63.1914 16.7754 63.0508C16.7793 62.9062 16.7812 62.8145 16.7812 62.7754C16.7812 62.3457 16.6816 62.043 16.4824 61.8672C16.2129 61.6289 15.8125 61.5098 15.2812 61.5098C14.7852 61.5098 14.418 61.5977 14.1797 61.7734C13.9453 61.9453 13.7715 62.252 13.6582 62.6934L12.627 62.5527C12.7207 62.1113 12.875 61.7559 13.0898 61.4863C13.3047 61.2129 13.6152 61.0039 14.0215 60.8594C14.4277 60.7109 14.8984 60.6367 15.4336 60.6367C15.9648 60.6367 16.3965 60.6992 16.7285 60.8242C17.0605 60.9492 17.3047 61.1074 17.4609 61.2988C17.6172 61.4863 17.7266 61.7246 17.7891 62.0137C17.8242 62.1934 17.8418 62.5176 17.8418 62.9863V64.3926C17.8418 65.373 17.8633 65.9941 17.9062 66.2559C17.9531 66.5137 18.043 66.7617 18.1758 67H17.0742C16.9648 66.7812 16.8945 66.5254 16.8633 66.2324ZM16.7754 63.877C16.3926 64.0332 15.8184 64.166 15.0527 64.2754C14.6191 64.3379 14.3125 64.4082 14.1328 64.4863C13.9531 64.5645 13.8145 64.6797 13.7168 64.832C13.6191 64.9805 13.5703 65.1465 13.5703 65.3301C13.5703 65.6113 13.6758 65.8457 13.8867 66.0332C14.1016 66.2207 14.4141 66.3145 14.8242 66.3145C15.2305 66.3145 15.5918 66.2266 15.9082 66.0508C16.2246 65.8711 16.457 65.627 16.6055 65.3184C16.7188 65.0801 16.7754 64.7285 16.7754 64.2637V63.877ZM19.459 67V58.4102H20.5137V67H19.459ZM22.1309 67V58.4102H23.1855V67H22.1309ZM24.4336 63.8887C24.4336 62.7363 24.7539 61.8828 25.3945 61.3281C25.9297 60.8672 26.582 60.6367 27.3516 60.6367C28.207 60.6367 28.9062 60.918 29.4492 61.4805C29.9922 62.0391 30.2637 62.8125 30.2637 63.8008C30.2637 64.6016 30.1426 65.2324 29.9004 65.6934C29.6621 66.1504 29.3125 66.5059 28.8516 66.7598C28.3945 67.0137 27.8945 67.1406 27.3516 67.1406C26.4805 67.1406 25.7754 66.8613 25.2363 66.3027C24.7012 65.7441 24.4336 64.9395 24.4336 63.8887ZM25.5176 63.8887C25.5176 64.6855 25.6914 65.2832 26.0391 65.6816C26.3867 66.0762 26.8242 66.2734 27.3516 66.2734C27.875 66.2734 28.3105 66.0742 28.6582 65.6758C29.0059 65.2773 29.1797 64.6699 29.1797 63.8535C29.1797 63.084 29.0039 62.502 28.6523 62.1074C28.3047 61.709 27.8711 61.5098 27.3516 61.5098C26.8242 61.5098 26.3867 61.707 26.0391 62.1016C25.6914 62.4961 25.5176 63.0918 25.5176 63.8887ZM32.6543 67L30.75 60.7773H31.8398L32.8301 64.3691L33.1992 65.7051C33.2148 65.6387 33.3223 65.2109 33.5215 64.4219L34.5117 60.7773H35.5957L36.5273 64.3867L36.8379 65.5762L37.1953 64.375L38.2617 60.7773H39.2871L37.3418 67H36.2461L35.2559 63.2734L35.0156 62.2129L33.7559 67H32.6543ZM44.4375 64.9961L45.5273 65.1309C45.3555 65.7676 45.0371 66.2617 44.5723 66.6133C44.1074 66.9648 43.5137 67.1406 42.791 67.1406C41.8809 67.1406 41.1582 66.8613 40.623 66.3027C40.0918 65.7402 39.8262 64.9531 39.8262 63.9414C39.8262 62.8945 40.0957 62.082 40.6348 61.5039C41.1738 60.9258 41.873 60.6367 42.7324 60.6367C43.5645 60.6367 44.2441 60.9199 44.7715 61.4863C45.2988 62.0527 45.5625 62.8496 45.5625 63.877C45.5625 63.9395 45.5605 64.0332 45.5566 64.1582H40.916C40.9551 64.8418 41.1484 65.3652 41.4961 65.7285C41.8438 66.0918 42.2773 66.2734 42.7969 66.2734C43.1836 66.2734 43.5137 66.1719 43.7871 65.9688C44.0605 65.7656 44.2773 65.4414 44.4375 64.9961ZM40.9746 63.291H44.4492C44.4023 62.7676 44.2695 62.375 44.0508 62.1133C43.7148 61.707 43.2793 61.5039 42.7441 61.5039C42.2598 61.5039 41.8516 61.666 41.5195 61.9902C41.1914 62.3145 41.0098 62.748 40.9746 63.291ZM50.8945 67V66.2148C50.5 66.832 49.9199 67.1406 49.1543 67.1406C48.6582 67.1406 48.2012 67.0039 47.7832 66.7305C47.3691 66.457 47.0469 66.0762 46.8164 65.5879C46.5898 65.0957 46.4766 64.5312 46.4766 63.8945C46.4766 63.2734 46.5801 62.7109 46.7871 62.207C46.9941 61.6992 47.3047 61.3105 47.7188 61.041C48.1328 60.7715 48.5957 60.6367 49.1074 60.6367C49.4824 60.6367 49.8164 60.7168 50.1094 60.877C50.4023 61.0332 50.6406 61.2383 50.8242 61.4922V58.4102H51.873V67H50.8945ZM47.5605 63.8945C47.5605 64.6914 47.7285 65.2871 48.0645 65.6816C48.4004 66.0762 48.7969 66.2734 49.2539 66.2734C49.7148 66.2734 50.1055 66.0859 50.4258 65.7109C50.75 65.332 50.9121 64.7559 50.9121 63.9824C50.9121 63.1309 50.748 62.5059 50.4199 62.1074C50.0918 61.709 49.6875 61.5098 49.207 61.5098C48.7383 61.5098 48.3457 61.7012 48.0293 62.084C47.7168 62.4668 47.5605 63.0703 47.5605 63.8945ZM56.4844 63.8887C56.4844 62.7363 56.8047 61.8828 57.4453 61.3281C57.9805 60.8672 58.6328 60.6367 59.4023 60.6367C60.2578 60.6367 60.957 60.918 61.5 61.4805C62.043 62.0391 62.3145 62.8125 62.3145 63.8008C62.3145 64.6016 62.1934 65.2324 61.9512 65.6934C61.7129 66.1504 61.3633 66.5059 60.9023 66.7598C60.4453 67.0137 59.9453 67.1406 59.4023 67.1406C58.5312 67.1406 57.8262 66.8613 57.2871 66.3027C56.752 65.7441 56.4844 64.9395 56.4844 63.8887ZM57.5684 63.8887C57.5684 64.6855 57.7422 65.2832 58.0898 65.6816C58.4375 66.0762 58.875 66.2734 59.4023 66.2734C59.9258 66.2734 60.3613 66.0742 60.709 65.6758C61.0566 65.2773 61.2305 64.6699 61.2305 63.8535C61.2305 63.084 61.0547 62.502 60.7031 62.1074C60.3555 61.709 59.9219 61.5098 59.4023 61.5098C58.875 61.5098 58.4375 61.707 58.0898 62.1016C57.7422 62.4961 57.5684 63.0918 57.5684 63.8887ZM63.5566 67V60.7773H64.5059V61.6621C64.9629 60.9785 65.623 60.6367 66.4863 60.6367C66.8613 60.6367 67.2051 60.7051 67.5176 60.8418C67.834 60.9746 68.0703 61.1504 68.2266 61.3691C68.3828 61.5879 68.4922 61.8477 68.5547 62.1484C68.5938 62.3438 68.6133 62.6855 68.6133 63.1738V67H67.5586V63.2148C67.5586 62.7852 67.5176 62.4648 67.4355 62.2539C67.3535 62.0391 67.207 61.8691 66.9961 61.7441C66.7891 61.6152 66.5449 61.5508 66.2637 61.5508C65.8145 61.5508 65.4258 61.6934 65.0977 61.9785C64.7734 62.2637 64.6113 62.8047 64.6113 63.6016V67H63.5566ZM70.2129 67V58.4102H71.2676V67H70.2129ZM72.8613 69.3965L72.7441 68.4062C72.9746 68.4688 73.1758 68.5 73.3477 68.5C73.582 68.5 73.7695 68.4609 73.9102 68.3828C74.0508 68.3047 74.166 68.1953 74.2559 68.0547C74.3223 67.9492 74.4297 67.6875 74.5781 67.2695C74.5977 67.2109 74.6289 67.125 74.6719 67.0117L72.3105 60.7773H73.4473L74.7422 64.3809C74.9102 64.8379 75.0605 65.3184 75.1934 65.8223C75.3145 65.3379 75.459 64.8652 75.627 64.4043L76.957 60.7773H78.0117L75.6445 67.1055C75.3906 67.7891 75.1934 68.2598 75.0527 68.5176C74.8652 68.8652 74.6504 69.1191 74.4082 69.2793C74.166 69.4434 73.877 69.5254 73.541 69.5254C73.3379 69.5254 73.1113 69.4824 72.8613 69.3965ZM83.3965 67L81.4922 60.7773H82.582L83.5723 64.3691L83.9414 65.7051C83.957 65.6387 84.0645 65.2109 84.2637 64.4219L85.2539 60.7773H86.3379L87.2695 64.3867L87.5801 65.5762L87.9375 64.375L89.0039 60.7773H90.0293L88.084 67H86.9883L85.998 63.2734L85.7578 62.2129L84.498 67H83.3965ZM90.9258 59.623V58.4102H91.9805V59.623H90.9258ZM90.9258 67V60.7773H91.9805V67H90.9258ZM95.8945 66.0566L96.0469 66.9883C95.75 67.0508 95.4844 67.082 95.25 67.082C94.8672 67.082 94.5703 67.0215 94.3594 66.9004C94.1484 66.7793 94 66.6211 93.9141 66.4258C93.8281 66.2266 93.7852 65.8105 93.7852 65.1777V61.5977H93.0117V60.7773H93.7852V59.2363L94.834 58.6035V60.7773H95.8945V61.5977H94.834V65.2363C94.834 65.5371 94.8516 65.7305 94.8867 65.8164C94.9258 65.9023 94.9863 65.9707 95.0684 66.0215C95.1543 66.0723 95.2754 66.0977 95.4316 66.0977C95.5488 66.0977 95.7031 66.084 95.8945 66.0566ZM96.9316 67V58.4102H97.9863V61.4922C98.4785 60.9219 99.0996 60.6367 99.8496 60.6367C100.311 60.6367 100.711 60.7285 101.051 60.9121C101.391 61.0918 101.633 61.3418 101.777 61.6621C101.926 61.9824 102 62.4473 102 63.0566V67H100.945V63.0566C100.945 62.5293 100.83 62.1465 100.6 61.9082C100.373 61.666 100.051 61.5449 99.6328 61.5449C99.3203 61.5449 99.0254 61.627 98.748 61.791C98.4746 61.9512 98.2793 62.1699 98.1621 62.4473C98.0449 62.7246 97.9863 63.1074 97.9863 63.5957V67H96.9316Z"/>
  </symbol>
  <symbol id="svg-copy-en-6" viewBox="0 71 101 11">
    <path d="M3.09375 80.0566L3.24609 80.9883C2.94922 81.0508 2.68359 81.082 2.44922 81.082C2.06641 81.082 1.76953 81.0215 1.55859 80.9004C1.34766 80.7793 1.19922 80.6211 1.11328 80.4258C1.02734 80.2266 0.984375 79.8105 0.984375 79.1777V75.5977H0.210938V74.7773H0.984375V73.2363L2.0332 72.6035V74.7773H3.09375V75.5977H2.0332V79.2363C2.0332 79.5371 2.05078 79.7305 2.08594 79.8164C2.125 79.9023 2.18555 79.9707 2.26758 80.0215C2.35352 80.0723 2.47461 80.0977 2.63086 80.0977C2.74805 80.0977 2.90234 80.084 3.09375 80.0566ZM4.13086 81V72.4102H5.18555V75.4922C5.67773 74.9219 6.29883 74.6367 7.04883 74.6367C7.50977 74.6367 7.91016 74.7285 8.25 74.9121C8.58984 75.0918 8.83203 75.3418 8.97656 75.6621C9.125 75.9824 9.19922 76.4473 9.19922 77.0566V81H8.14453V77.0566C8.14453 76.5293 8.0293 76.1465 7.79883 75.9082C7.57227 75.666 7.25 75.5449 6.83203 75.5449C6.51953 75.5449 6.22461 75.627 5.94727 75.791C5.67383 75.9512 5.47852 76.1699 5.36133 76.4473C5.24414 76.7246 5.18555 77.1074 5.18555 77.5957V81H4.13086ZM15.0703 78.9961L16.1602 79.1309C15.9883 79.7676 15.6699 80.2617 15.2051 80.6133C14.7402 80.9648 14.1465 81.1406 13.4238 81.1406C12.5137 81.1406 11.791 80.8613 11.2559 80.3027C10.7246 79.7402 10.459 78.9531 10.459 77.9414C10.459 76.8945 10.7285 76.082 11.2676 75.5039C11.8066 74.9258 12.5059 74.6367 13.3652 74.6367C14.1973 74.6367 14.877 74.9199 15.4043 75.4863C15.9316 76.0527 16.1953 76.8496 16.1953 77.877C16.1953 77.9395 16.1934 78.0332 16.1895 78.1582H11.5488C11.5879 78.8418 11.7812 79.3652 12.1289 79.7285C12.4766 80.0918 12.9102 80.2734 13.4297 80.2734C13.8164 80.2734 14.1465 80.1719 14.4199 79.9688C14.6934 79.7656 14.9102 79.4414 15.0703 78.9961ZM11.6074 77.291H15.082C15.0352 76.7676 14.9023 76.375 14.6836 76.1133C14.3477 75.707 13.9121 75.5039 13.377 75.5039C12.8926 75.5039 12.4844 75.666 12.1523 75.9902C11.8242 76.3145 11.6426 76.748 11.6074 77.291ZM25.0898 78.9961L26.1797 79.1309C26.0078 79.7676 25.6895 80.2617 25.2246 80.6133C24.7598 80.9648 24.166 81.1406 23.4434 81.1406C22.5332 81.1406 21.8105 80.8613 21.2754 80.3027C20.7441 79.7402 20.4785 78.9531 20.4785 77.9414C20.4785 76.8945 20.748 76.082 21.2871 75.5039C21.8262 74.9258 22.5254 74.6367 23.3848 74.6367C24.2168 74.6367 24.8965 74.9199 25.4238 75.4863C25.9512 76.0527 26.2148 76.8496 26.2148 77.877C26.2148 77.9395 26.2129 78.0332 26.209 78.1582H21.5684C21.6074 78.8418 21.8008 79.3652 22.1484 79.7285C22.4961 80.0918 22.9297 80.2734 23.4492 80.2734C23.8359 80.2734 24.166 80.1719 24.4395 79.9688C24.7129 79.7656 24.9297 79.4414 25.0898 78.9961ZM21.627 77.291H25.1016C25.0547 76.7676 24.9219 76.375 24.7031 76.1133C24.3672 75.707 23.9316 75.5039 23.3965 75.5039C22.9121 75.5039 22.5039 75.666 22.1719 75.9902C21.8438 76.3145 21.6621 76.748 21.627 77.291ZM26.8066 81L29.0801 77.7656L26.9766 74.7773H28.2949L29.25 76.2363C29.4297 76.5137 29.5742 76.7461 29.6836 76.9336C29.8555 76.6758 30.0137 76.4473 30.1582 76.248L31.207 74.7773H32.4668L30.3164 77.707L32.6309 81H31.3359L30.0586 79.0664L29.7188 78.5449L28.084 81H26.8066ZM33.5098 83.3848V74.7773H34.4707V75.5859C34.6973 75.2695 34.9531 75.0332 35.2383 74.877C35.5234 74.7168 35.8691 74.6367 36.2754 74.6367C36.8066 74.6367 37.2754 74.7734 37.6816 75.0469C38.0879 75.3203 38.3945 75.707 38.6016 76.207C38.8086 76.7031 38.9121 77.248 38.9121 77.8418C38.9121 78.4785 38.7969 79.0527 38.5664 79.5645C38.3398 80.0723 38.0078 80.4629 37.5703 80.7363C37.1367 81.0059 36.6797 81.1406 36.1992 81.1406C35.8477 81.1406 35.5312 81.0664 35.25 80.918C34.9727 80.7695 34.7441 80.582 34.5645 80.3555V83.3848H33.5098ZM34.4648 77.9238C34.4648 78.7246 34.627 79.3164 34.9512 79.6992C35.2754 80.082 35.668 80.2734 36.1289 80.2734C36.5977 80.2734 36.998 80.0762 37.3301 79.6816C37.666 79.2832 37.834 78.668 37.834 77.8359C37.834 77.043 37.6699 76.4492 37.3418 76.0547C37.0176 75.6602 36.6289 75.4629 36.1758 75.4629C35.7266 75.4629 35.3281 75.6738 34.9805 76.0957C34.6367 76.5137 34.4648 77.123 34.4648 77.9238ZM40.1777 81V74.7773H41.127V75.7207C41.3691 75.2793 41.5918 74.9883 41.7949 74.8477C42.002 74.707 42.2285 74.6367 42.4746 74.6367C42.8301 74.6367 43.1914 74.75 43.5586 74.9766L43.1953 75.9551C42.9375 75.8027 42.6797 75.7266 42.4219 75.7266C42.1914 75.7266 41.9844 75.7969 41.8008 75.9375C41.6172 76.0742 41.4863 76.2656 41.4082 76.5117C41.291 76.8867 41.2324 77.2969 41.2324 77.7422V81H40.1777ZM48.4453 78.9961L49.5352 79.1309C49.3633 79.7676 49.0449 80.2617 48.5801 80.6133C48.1152 80.9648 47.5215 81.1406 46.7988 81.1406C45.8887 81.1406 45.166 80.8613 44.6309 80.3027C44.0996 79.7402 43.834 78.9531 43.834 77.9414C43.834 76.8945 44.1035 76.082 44.6426 75.5039C45.1816 74.9258 45.8809 74.6367 46.7402 74.6367C47.5723 74.6367 48.252 74.9199 48.7793 75.4863C49.3066 76.0527 49.5703 76.8496 49.5703 77.877C49.5703 77.9395 49.5684 78.0332 49.5645 78.1582H44.9238C44.9629 78.8418 45.1562 79.3652 45.5039 79.7285C45.8516 80.0918 46.2852 80.2734 46.8047 80.2734C47.1914 80.2734 47.5215 80.1719 47.7949 79.9688C48.0684 79.7656 48.2852 79.4414 48.4453 78.9961ZM44.9824 77.291H48.457C48.4102 76.7676 48.2773 76.375 48.0586 76.1133C47.7227 75.707 47.2871 75.5039 46.752 75.5039C46.2676 75.5039 45.8594 75.666 45.5273 75.9902C45.1992 76.3145 45.0176 76.748 44.9824 77.291ZM50.4434 79.1426L51.4863 78.9785C51.5449 79.3965 51.707 79.7168 51.9727 79.9395C52.2422 80.1621 52.6172 80.2734 53.0977 80.2734C53.582 80.2734 53.9414 80.1758 54.1758 79.9805C54.4102 79.7812 54.5273 79.5488 54.5273 79.2832C54.5273 79.0449 54.4238 78.8574 54.2168 78.7207C54.0723 78.627 53.7129 78.5078 53.1387 78.3633C52.3652 78.168 51.8281 78 51.5273 77.8594C51.2305 77.7148 51.0039 77.5176 50.8477 77.2676C50.6953 77.0137 50.6191 76.7344 50.6191 76.4297C50.6191 76.1523 50.6816 75.8965 50.8066 75.6621C50.9355 75.4238 51.1094 75.2266 51.3281 75.0703C51.4922 74.9492 51.7148 74.8477 51.9961 74.7656C52.2812 74.6797 52.5859 74.6367 52.9102 74.6367C53.3984 74.6367 53.8262 74.707 54.1934 74.8477C54.5645 74.9883 54.8379 75.1797 55.0137 75.4219C55.1895 75.6602 55.3105 75.9805 55.377 76.3828L54.3457 76.5234C54.2988 76.2031 54.1621 75.9531 53.9355 75.7734C53.7129 75.5938 53.3965 75.5039 52.9863 75.5039C52.502 75.5039 52.1562 75.584 51.9492 75.7441C51.7422 75.9043 51.6387 76.0918 51.6387 76.3066C51.6387 76.4434 51.6816 76.5664 51.7676 76.6758C51.8535 76.7891 51.9883 76.8828 52.1719 76.957C52.2773 76.9961 52.5879 77.0859 53.1035 77.2266C53.8496 77.4258 54.3691 77.5898 54.6621 77.7188C54.959 77.8438 55.1914 78.0273 55.3594 78.2695C55.5273 78.5117 55.6113 78.8125 55.6113 79.1719C55.6113 79.5234 55.5078 79.8555 55.3008 80.168C55.0977 80.4766 54.8027 80.7168 54.416 80.8887C54.0293 81.0566 53.5918 81.1406 53.1035 81.1406C52.2949 81.1406 51.6777 80.9727 51.252 80.6367C50.8301 80.3008 50.5605 79.8027 50.4434 79.1426ZM56.4434 79.1426L57.4863 78.9785C57.5449 79.3965 57.707 79.7168 57.9727 79.9395C58.2422 80.1621 58.6172 80.2734 59.0977 80.2734C59.582 80.2734 59.9414 80.1758 60.1758 79.9805C60.4102 79.7812 60.5273 79.5488 60.5273 79.2832C60.5273 79.0449 60.4238 78.8574 60.2168 78.7207C60.0723 78.627 59.7129 78.5078 59.1387 78.3633C58.3652 78.168 57.8281 78 57.5273 77.8594C57.2305 77.7148 57.0039 77.5176 56.8477 77.2676C56.6953 77.0137 56.6191 76.7344 56.6191 76.4297C56.6191 76.1523 56.6816 75.8965 56.8066 75.6621C56.9355 75.4238 57.1094 75.2266 57.3281 75.0703C57.4922 74.9492 57.7148 74.8477 57.9961 74.7656C58.2812 74.6797 58.5859 74.6367 58.9102 74.6367C59.3984 74.6367 59.8262 74.707 60.1934 74.8477C60.5645 74.9883 60.8379 75.1797 61.0137 75.4219C61.1895 75.6602 61.3105 75.9805 61.377 76.3828L60.3457 76.5234C60.2988 76.2031 60.1621 75.9531 59.9355 75.7734C59.7129 75.5938 59.3965 75.5039 58.9863 75.5039C58.502 75.5039 58.1562 75.584 57.9492 75.7441C57.7422 75.9043 57.6387 76.0918 57.6387 76.3066C57.6387 76.4434 57.6816 76.5664 57.7676 76.6758C57.8535 76.7891 57.9883 76.8828 58.1719 76.957C58.2773 76.9961 58.5879 77.0859 59.1035 77.2266C59.8496 77.4258 60.3691 77.5898 60.6621 77.7188C60.959 77.8438 61.1914 78.0273 61.3594 78.2695C61.5273 78.5117 61.6113 78.8125 61.6113 79.1719C61.6113 79.5234 61.5078 79.8555 61.3008 80.168C61.0977 80.4766 60.8027 80.7168 60.416 80.8887C60.0293 81.0566 59.5918 81.1406 59.1035 81.1406C58.2949 81.1406 57.6777 80.9727 57.252 80.6367C56.8301 80.3008 56.5605 79.8027 56.4434 79.1426ZM67.3535 81L65.4492 74.7773H66.5391L67.5293 78.3691L67.8984 79.7051C67.9141 79.6387 68.0215 79.2109 68.2207 78.4219L69.2109 74.7773H70.2949L71.2266 78.3867L71.5371 79.5762L71.8945 78.375L72.9609 74.7773H73.9863L72.041 81H70.9453L69.9551 77.2734L69.7148 76.2129L68.4551 81H67.3535ZM74.8652 81V74.7773H75.8145V75.7207C76.0566 75.2793 76.2793 74.9883 76.4824 74.8477C76.6895 74.707 76.916 74.6367 77.1621 74.6367C77.5176 74.6367 77.8789 74.75 78.2461 74.9766L77.8828 75.9551C77.625 75.8027 77.3672 75.7266 77.1094 75.7266C76.8789 75.7266 76.6719 75.7969 76.4883 75.9375C76.3047 76.0742 76.1738 76.2656 76.0957 76.5117C75.9785 76.8867 75.9199 77.2969 75.9199 77.7422V81H74.8652ZM78.8789 73.623V72.4102H79.9336V73.623H78.8789ZM78.8789 81V74.7773H79.9336V81H78.8789ZM83.8477 80.0566L84 80.9883C83.7031 81.0508 83.4375 81.082 83.2031 81.082C82.8203 81.082 82.5234 81.0215 82.3125 80.9004C82.1016 80.7793 81.9531 80.6211 81.8672 80.4258C81.7812 80.2266 81.7383 79.8105 81.7383 79.1777V75.5977H80.9648V74.7773H81.7383V73.2363L82.7871 72.6035V74.7773H83.8477V75.5977H82.7871V79.2363C82.7871 79.5371 82.8047 79.7305 82.8398 79.8164C82.8789 79.9023 82.9395 79.9707 83.0215 80.0215C83.1074 80.0723 83.2285 80.0977 83.3848 80.0977C83.502 80.0977 83.6562 80.084 83.8477 80.0566ZM87.1875 80.0566L87.3398 80.9883C87.043 81.0508 86.7773 81.082 86.543 81.082C86.1602 81.082 85.8633 81.0215 85.6523 80.9004C85.4414 80.7793 85.293 80.6211 85.207 80.4258C85.1211 80.2266 85.0781 79.8105 85.0781 79.1777V75.5977H84.3047V74.7773H85.0781V73.2363L86.127 72.6035V74.7773H87.1875V75.5977H86.127V79.2363C86.127 79.5371 86.1445 79.7305 86.1797 79.8164C86.2188 79.9023 86.2793 79.9707 86.3613 80.0215C86.4473 80.0723 86.5684 80.0977 86.7246 80.0977C86.8418 80.0977 86.9961 80.084 87.1875 80.0566ZM92.4844 78.9961L93.5742 79.1309C93.4023 79.7676 93.084 80.2617 92.6191 80.6133C92.1543 80.9648 91.5605 81.1406 90.8379 81.1406C89.9277 81.1406 89.2051 80.8613 88.6699 80.3027C88.1387 79.7402 87.873 78.9531 87.873 77.9414C87.873 76.8945 88.1426 76.082 88.6816 75.5039C89.2207 74.9258 89.9199 74.6367 90.7793 74.6367C91.6113 74.6367 92.291 74.9199 92.8184 75.4863C93.3457 76.0527 93.6094 76.8496 93.6094 77.877C93.6094 77.9395 93.6074 78.0332 93.6035 78.1582H88.9629C89.002 78.8418 89.1953 79.3652 89.543 79.7285C89.8906 80.0918 90.3242 80.2734 90.8438 80.2734C91.2305 80.2734 91.5605 80.1719 91.834 79.9688C92.1074 79.7656 92.3242 79.4414 92.4844 78.9961ZM89.0215 77.291H92.4961C92.4492 76.7676 92.3164 76.375 92.0977 76.1133C91.7617 75.707 91.3262 75.5039 90.791 75.5039C90.3066 75.5039 89.8984 75.666 89.5664 75.9902C89.2383 76.3145 89.0566 76.748 89.0215 77.291ZM94.9043 81V74.7773H95.8535V75.6621C96.3105 74.9785 96.9707 74.6367 97.834 74.6367C98.209 74.6367 98.5527 74.7051 98.8652 74.8418C99.1816 74.9746 99.418 75.1504 99.5742 75.3691C99.7305 75.5879 99.8398 75.8477 99.9023 76.1484C99.9414 76.3438 99.9609 76.6855 99.9609 77.1738V81H98.9062V77.2148C98.9062 76.7852 98.8652 76.4648 98.7832 76.2539C98.7012 76.0391 98.5547 75.8691 98.3438 75.7441C98.1367 75.6152 97.8926 75.5508 97.6113 75.5508C97.1621 75.5508 96.7734 75.6934 96.4453 75.9785C96.1211 76.2637 95.959 76.8047 95.959 77.6016V81H94.9043Z"/>
  </symbol>
  <symbol id="svg-copy-en-7" viewBox="0 86 126 11">
    <path d="M0.791016 97.3848V88.7773H1.75195V89.5859C1.97852 89.2695 2.23438 89.0332 2.51953 88.877C2.80469 88.7168 3.15039 88.6367 3.55664 88.6367C4.08789 88.6367 4.55664 88.7734 4.96289 89.0469C5.36914 89.3203 5.67578 89.707 5.88281 90.207C6.08984 90.7031 6.19336 91.248 6.19336 91.8418C6.19336 92.4785 6.07812 93.0527 5.84766 93.5645C5.62109 94.0723 5.28906 94.4629 4.85156 94.7363C4.41797 95.0059 3.96094 95.1406 3.48047 95.1406C3.12891 95.1406 2.8125 95.0664 2.53125 94.918C2.25391 94.7695 2.02539 94.582 1.8457 94.3555V97.3848H0.791016ZM1.74609 91.9238C1.74609 92.7246 1.9082 93.3164 2.23242 93.6992C2.55664 94.082 2.94922 94.2734 3.41016 94.2734C3.87891 94.2734 4.2793 94.0762 4.61133 93.6816C4.94727 93.2832 5.11523 92.668 5.11523 91.8359C5.11523 91.043 4.95117 90.4492 4.62305 90.0547C4.29883 89.6602 3.91016 89.4629 3.45703 89.4629C3.00781 89.4629 2.60938 89.6738 2.26172 90.0957C1.91797 90.5137 1.74609 91.123 1.74609 91.9238ZM11.7305 92.9961L12.8203 93.1309C12.6484 93.7676 12.3301 94.2617 11.8652 94.6133C11.4004 94.9648 10.8066 95.1406 10.084 95.1406C9.17383 95.1406 8.45117 94.8613 7.91602 94.3027C7.38477 93.7402 7.11914 92.9531 7.11914 91.9414C7.11914 90.8945 7.38867 90.082 7.92773 89.5039C8.4668 88.9258 9.16602 88.6367 10.0254 88.6367C10.8574 88.6367 11.5371 88.9199 12.0645 89.4863C12.5918 90.0527 12.8555 90.8496 12.8555 91.877C12.8555 91.9395 12.8535 92.0332 12.8496 92.1582H8.20898C8.24805 92.8418 8.44141 93.3652 8.78906 93.7285C9.13672 94.0918 9.57031 94.2734 10.0898 94.2734C10.4766 94.2734 10.8066 94.1719 11.0801 93.9688C11.3535 93.7656 11.5703 93.4414 11.7305 92.9961ZM8.26758 91.291H11.7422C11.6953 90.7676 11.5625 90.375 11.3438 90.1133C11.0078 89.707 10.5723 89.5039 10.0371 89.5039C9.55273 89.5039 9.14453 89.666 8.8125 89.9902C8.48438 90.3145 8.30273 90.748 8.26758 91.291ZM14.1387 95V88.7773H15.0879V89.7207C15.3301 89.2793 15.5527 88.9883 15.7559 88.8477C15.9629 88.707 16.1895 88.6367 16.4355 88.6367C16.791 88.6367 17.1523 88.75 17.5195 88.9766L17.1562 89.9551C16.8984 89.8027 16.6406 89.7266 16.3828 89.7266C16.1523 89.7266 15.9453 89.7969 15.7617 89.9375C15.5781 90.0742 15.4473 90.2656 15.3691 90.5117C15.252 90.8867 15.1934 91.2969 15.1934 91.7422V95H14.1387ZM18.1465 95V88.7773H19.0898V89.6504C19.2852 89.3457 19.5449 89.1016 19.8691 88.918C20.1934 88.7305 20.5625 88.6367 20.9766 88.6367C21.4375 88.6367 21.8145 88.7324 22.1074 88.9238C22.4043 89.1152 22.6133 89.3828 22.7344 89.7266C23.2266 89 23.8672 88.6367 24.6562 88.6367C25.2734 88.6367 25.748 88.8086 26.0801 89.1523C26.4121 89.4922 26.5781 90.0176 26.5781 90.7285V95H25.5293V91.0801C25.5293 90.6582 25.4941 90.3555 25.4238 90.1719C25.3574 89.9844 25.2344 89.834 25.0547 89.7207C24.875 89.6074 24.6641 89.5508 24.4219 89.5508C23.9844 89.5508 23.6211 89.6973 23.332 89.9902C23.043 90.2793 22.8984 90.7441 22.8984 91.3848V95H21.8438V90.957C21.8438 90.4883 21.7578 90.1367 21.5859 89.9023C21.4141 89.668 21.1328 89.5508 20.7422 89.5508C20.4453 89.5508 20.1699 89.6289 19.916 89.7852C19.666 89.9414 19.4844 90.1699 19.3711 90.4707C19.2578 90.7715 19.2012 91.2051 19.2012 91.7715V95H18.1465ZM28.1484 87.623V86.4102H29.2031V87.623H28.1484ZM28.1484 95V88.7773H29.2031V95H28.1484ZM30.3926 93.1426L31.4355 92.9785C31.4941 93.3965 31.6562 93.7168 31.9219 93.9395C32.1914 94.1621 32.5664 94.2734 33.0469 94.2734C33.5312 94.2734 33.8906 94.1758 34.125 93.9805C34.3594 93.7812 34.4766 93.5488 34.4766 93.2832C34.4766 93.0449 34.373 92.8574 34.166 92.7207C34.0215 92.627 33.6621 92.5078 33.0879 92.3633C32.3145 92.168 31.7773 92 31.4766 91.8594C31.1797 91.7148 30.9531 91.5176 30.7969 91.2676C30.6445 91.0137 30.5684 90.7344 30.5684 90.4297C30.5684 90.1523 30.6309 89.8965 30.7559 89.6621C30.8848 89.4238 31.0586 89.2266 31.2773 89.0703C31.4414 88.9492 31.6641 88.8477 31.9453 88.7656C32.2305 88.6797 32.5352 88.6367 32.8594 88.6367C33.3477 88.6367 33.7754 88.707 34.1426 88.8477C34.5137 88.9883 34.7871 89.1797 34.9629 89.4219C35.1387 89.6602 35.2598 89.9805 35.3262 90.3828L34.2949 90.5234C34.248 90.2031 34.1113 89.9531 33.8848 89.7734C33.6621 89.5938 33.3457 89.5039 32.9355 89.5039C32.4512 89.5039 32.1055 89.584 31.8984 89.7441C31.6914 89.9043 31.5879 90.0918 31.5879 90.3066C31.5879 90.4434 31.6309 90.5664 31.7168 90.6758C31.8027 90.7891 31.9375 90.8828 32.1211 90.957C32.2266 90.9961 32.5371 91.0859 33.0527 91.2266C33.7988 91.4258 34.3184 91.5898 34.6113 91.7188C34.9082 91.8438 35.1406 92.0273 35.3086 92.2695C35.4766 92.5117 35.5605 92.8125 35.5605 93.1719C35.5605 93.5234 35.457 93.8555 35.25 94.168C35.0469 94.4766 34.752 94.7168 34.3652 94.8887C33.9785 95.0566 33.541 95.1406 33.0527 95.1406C32.2441 95.1406 31.627 94.9727 31.2012 94.6367C30.7793 94.3008 30.5098 93.8027 30.3926 93.1426ZM36.3926 93.1426L37.4355 92.9785C37.4941 93.3965 37.6562 93.7168 37.9219 93.9395C38.1914 94.1621 38.5664 94.2734 39.0469 94.2734C39.5312 94.2734 39.8906 94.1758 40.125 93.9805C40.3594 93.7812 40.4766 93.5488 40.4766 93.2832C40.4766 93.0449 40.373 92.8574 40.166 92.7207C40.0215 92.627 39.6621 92.5078 39.0879 92.3633C38.3145 92.168 37.7773 92 37.4766 91.8594C37.1797 91.7148 36.9531 91.5176 36.7969 91.2676C36.6445 91.0137 36.5684 90.7344 36.5684 90.4297C36.5684 90.1523 36.6309 89.8965 36.7559 89.6621C36.8848 89.4238 37.0586 89.2266 37.2773 89.0703C37.4414 88.9492 37.6641 88.8477 37.9453 88.7656C38.2305 88.6797 38.5352 88.6367 38.8594 88.6367C39.3477 88.6367 39.7754 88.707 40.1426 88.8477C40.5137 88.9883 40.7871 89.1797 40.9629 89.4219C41.1387 89.6602 41.2598 89.9805 41.3262 90.3828L40.2949 90.5234C40.248 90.2031 40.1113 89.9531 39.8848 89.7734C39.6621 89.5938 39.3457 89.5039 38.9355 89.5039C38.4512 89.5039 38.1055 89.584 37.8984 89.7441C37.6914 89.9043 37.5879 90.0918 37.5879 90.3066C37.5879 90.4434 37.6309 90.5664 37.7168 90.6758C37.8027 90.7891 37.9375 90.8828 38.1211 90.957C38.2266 90.9961 38.5371 91.0859 39.0527 91.2266C39.7988 91.4258 40.3184 91.5898 40.6113 91.7188C40.9082 91.8438 41.1406 92.0273 41.3086 92.2695C41.4766 92.5117 41.5605 92.8125 41.5605 93.1719C41.5605 93.5234 41.457 93.8555 41.25 94.168C41.0469 94.4766 40.752 94.7168 40.3652 94.8887C39.9785 95.0566 39.541 95.1406 39.0527 95.1406C38.2441 95.1406 37.627 94.9727 37.2012 94.6367C36.7793 94.3008 36.5098 93.8027 36.3926 93.1426ZM42.8203 87.623V86.4102H43.875V87.623H42.8203ZM42.8203 95V88.7773H43.875V95H42.8203ZM45.0938 91.8887C45.0938 90.7363 45.4141 89.8828 46.0547 89.3281C46.5898 88.8672 47.2422 88.6367 48.0117 88.6367C48.8672 88.6367 49.5664 88.918 50.1094 89.4805C50.6523 90.0391 50.9238 90.8125 50.9238 91.8008C50.9238 92.6016 50.8027 93.2324 50.5605 93.6934C50.3223 94.1504 49.9727 94.5059 49.5117 94.7598C49.0547 95.0137 48.5547 95.1406 48.0117 95.1406C47.1406 95.1406 46.4355 94.8613 45.8965 94.3027C45.3613 93.7441 45.0938 92.9395 45.0938 91.8887ZM46.1777 91.8887C46.1777 92.6855 46.3516 93.2832 46.6992 93.6816C47.0469 94.0762 47.4844 94.2734 48.0117 94.2734C48.5352 94.2734 48.9707 94.0742 49.3184 93.6758C49.666 93.2773 49.8398 92.6699 49.8398 91.8535C49.8398 91.084 49.6641 90.502 49.3125 90.1074C48.9648 89.709 48.5312 89.5098 48.0117 89.5098C47.4844 89.5098 47.0469 89.707 46.6992 90.1016C46.3516 90.4961 46.1777 91.0918 46.1777 91.8887ZM52.166 95V88.7773H53.1152V89.6621C53.5723 88.9785 54.2324 88.6367 55.0957 88.6367C55.4707 88.6367 55.8145 88.7051 56.127 88.8418C56.4434 88.9746 56.6797 89.1504 56.8359 89.3691C56.9922 89.5879 57.1016 89.8477 57.1641 90.1484C57.2031 90.3438 57.2227 90.6855 57.2227 91.1738V95H56.168V91.2148C56.168 90.7852 56.127 90.4648 56.0449 90.2539C55.9629 90.0391 55.8164 89.8691 55.6055 89.7441C55.3984 89.6152 55.1543 89.5508 54.873 89.5508C54.4238 89.5508 54.0352 89.6934 53.707 89.9785C53.3828 90.2637 53.2207 90.8047 53.2207 91.6016V95H52.166ZM61.793 91.8887C61.793 90.7363 62.1133 89.8828 62.7539 89.3281C63.2891 88.8672 63.9414 88.6367 64.7109 88.6367C65.5664 88.6367 66.2656 88.918 66.8086 89.4805C67.3516 90.0391 67.623 90.8125 67.623 91.8008C67.623 92.6016 67.502 93.2324 67.2598 93.6934C67.0215 94.1504 66.6719 94.5059 66.2109 94.7598C65.7539 95.0137 65.2539 95.1406 64.7109 95.1406C63.8398 95.1406 63.1348 94.8613 62.5957 94.3027C62.0605 93.7441 61.793 92.9395 61.793 91.8887ZM62.877 91.8887C62.877 92.6855 63.0508 93.2832 63.3984 93.6816C63.7461 94.0762 64.1836 94.2734 64.7109 94.2734C65.2344 94.2734 65.6699 94.0742 66.0176 93.6758C66.3652 93.2773 66.5391 92.6699 66.5391 91.8535C66.5391 91.084 66.3633 90.502 66.0117 90.1074C65.6641 89.709 65.2305 89.5098 64.7109 89.5098C64.1836 89.5098 63.7461 89.707 63.3984 90.1016C63.0508 90.4961 62.877 91.0918 62.877 91.8887ZM69.1172 95V89.5977H68.1855V88.7773H69.1172V88.1152C69.1172 87.6973 69.1543 87.3867 69.2285 87.1836C69.3301 86.9102 69.5078 86.6895 69.7617 86.5215C70.0195 86.3496 70.3789 86.2637 70.8398 86.2637C71.1367 86.2637 71.4648 86.2988 71.8242 86.3691L71.666 87.2891C71.4473 87.25 71.2402 87.2305 71.0449 87.2305C70.7246 87.2305 70.498 87.2988 70.3652 87.4355C70.2324 87.5723 70.166 87.8281 70.166 88.2031V88.7773H71.3789V89.5977H70.166V95H69.1172ZM75.0996 92.5625L76.125 92.4219C76.1523 93.0781 76.2754 93.5273 76.4941 93.7695C76.7129 94.0117 77.0156 94.1328 77.4023 94.1328C77.6875 94.1328 77.9336 94.0684 78.1406 93.9395C78.3477 93.8066 78.4902 93.6289 78.5684 93.4062C78.6465 93.1797 78.6855 92.8203 78.6855 92.3281V86.4102H79.8223V92.2637C79.8223 92.9824 79.7344 93.5391 79.5586 93.9336C79.3867 94.3281 79.1113 94.6289 78.7324 94.8359C78.3574 95.043 77.916 95.1465 77.4082 95.1465C76.6543 95.1465 76.0762 94.9297 75.6738 94.4961C75.2754 94.0625 75.084 93.418 75.0996 92.5625ZM85.623 95V94.0859C85.1387 94.7891 84.4805 95.1406 83.6484 95.1406C83.2812 95.1406 82.9375 95.0703 82.6172 94.9297C82.3008 94.7891 82.0645 94.6133 81.9082 94.4023C81.7559 94.1875 81.6484 93.9258 81.5859 93.6172C81.543 93.4102 81.5215 93.082 81.5215 92.6328V88.7773H82.5762V92.2285C82.5762 92.7793 82.5977 93.1504 82.6406 93.3418C82.707 93.6191 82.8477 93.8379 83.0625 93.998C83.2773 94.1543 83.543 94.2324 83.8594 94.2324C84.1758 94.2324 84.4727 94.1523 84.75 93.9922C85.0273 93.8281 85.2227 93.6074 85.3359 93.3301C85.4531 93.0488 85.5117 92.6426 85.5117 92.1113V88.7773H86.5664V95H85.623ZM87.8027 93.1426L88.8457 92.9785C88.9043 93.3965 89.0664 93.7168 89.332 93.9395C89.6016 94.1621 89.9766 94.2734 90.457 94.2734C90.9414 94.2734 91.3008 94.1758 91.5352 93.9805C91.7695 93.7812 91.8867 93.5488 91.8867 93.2832C91.8867 93.0449 91.7832 92.8574 91.5762 92.7207C91.4316 92.627 91.0723 92.5078 90.498 92.3633C89.7246 92.168 89.1875 92 88.8867 91.8594C88.5898 91.7148 88.3633 91.5176 88.207 91.2676C88.0547 91.0137 87.9785 90.7344 87.9785 90.4297C87.9785 90.1523 88.041 89.8965 88.166 89.6621C88.2949 89.4238 88.4688 89.2266 88.6875 89.0703C88.8516 88.9492 89.0742 88.8477 89.3555 88.7656C89.6406 88.6797 89.9453 88.6367 90.2695 88.6367C90.7578 88.6367 91.1855 88.707 91.5527 88.8477C91.9238 88.9883 92.1973 89.1797 92.373 89.4219C92.5488 89.6602 92.6699 89.9805 92.7363 90.3828L91.7051 90.5234C91.6582 90.2031 91.5215 89.9531 91.2949 89.7734C91.0723 89.5938 90.7559 89.5039 90.3457 89.5039C89.8613 89.5039 89.5156 89.584 89.3086 89.7441C89.1016 89.9043 88.998 90.0918 88.998 90.3066C88.998 90.4434 89.041 90.5664 89.127 90.6758C89.2129 90.7891 89.3477 90.8828 89.5312 90.957C89.6367 90.9961 89.9473 91.0859 90.4629 91.2266C91.209 91.4258 91.7285 91.5898 92.0215 91.7188C92.3184 91.8438 92.5508 92.0273 92.7188 92.2695C92.8867 92.5117 92.9707 92.8125 92.9707 93.1719C92.9707 93.5234 92.8672 93.8555 92.6602 94.168C92.457 94.4766 92.1621 94.7168 91.7754 94.8887C91.3887 95.0566 90.9512 95.1406 90.4629 95.1406C89.6543 95.1406 89.0371 94.9727 88.6113 94.6367C88.1895 94.3008 87.9199 93.8027 87.8027 93.1426ZM96.5273 94.0566L96.6797 94.9883C96.3828 95.0508 96.1172 95.082 95.8828 95.082C95.5 95.082 95.2031 95.0215 94.9922 94.9004C94.7812 94.7793 94.6328 94.6211 94.5469 94.4258C94.4609 94.2266 94.418 93.8105 94.418 93.1777V89.5977H93.6445V88.7773H94.418V87.2363L95.4668 86.6035V88.7773H96.5273V89.5977H95.4668V93.2363C95.4668 93.5371 95.4844 93.7305 95.5195 93.8164C95.5586 93.9023 95.6191 93.9707 95.7012 94.0215C95.7871 94.0723 95.9082 94.0977 96.0645 94.0977C96.1816 94.0977 96.3359 94.084 96.5273 94.0566ZM97.8164 95V89.5977H96.8848V88.7773H97.8164V88.1152C97.8164 87.6973 97.8535 87.3867 97.9277 87.1836C98.0293 86.9102 98.207 86.6895 98.4609 86.5215C98.7188 86.3496 99.0781 86.2637 99.5391 86.2637C99.8359 86.2637 100.164 86.2988 100.523 86.3691L100.365 87.2891C100.146 87.25 99.9395 87.2305 99.7441 87.2305C99.4238 87.2305 99.1973 87.2988 99.0645 87.4355C98.9316 87.5723 98.8652 87.8281 98.8652 88.2031V88.7773H100.078V89.5977H98.8652V95H97.8164ZM100.512 91.8887C100.512 90.7363 100.832 89.8828 101.473 89.3281C102.008 88.8672 102.66 88.6367 103.43 88.6367C104.285 88.6367 104.984 88.918 105.527 89.4805C106.07 90.0391 106.342 90.8125 106.342 91.8008C106.342 92.6016 106.221 93.2324 105.979 93.6934C105.74 94.1504 105.391 94.5059 104.93 94.7598C104.473 95.0137 103.973 95.1406 103.43 95.1406C102.559 95.1406 101.854 94.8613 101.314 94.3027C100.779 93.7441 100.512 92.9395 100.512 91.8887ZM101.596 91.8887C101.596 92.6855 101.77 93.2832 102.117 93.6816C102.465 94.0762 102.902 94.2734 103.43 94.2734C103.953 94.2734 104.389 94.0742 104.736 93.6758C105.084 93.2773 105.258 92.6699 105.258 91.8535C105.258 91.084 105.082 90.502 104.73 90.1074C104.383 89.709 103.949 89.5098 103.43 89.5098C102.902 89.5098 102.465 89.707 102.117 90.1016C101.77 90.4961 101.596 91.0918 101.596 91.8887ZM107.572 95V88.7773H108.521V89.7207C108.764 89.2793 108.986 88.9883 109.189 88.8477C109.396 88.707 109.623 88.6367 109.869 88.6367C110.225 88.6367 110.586 88.75 110.953 88.9766L110.59 89.9551C110.332 89.8027 110.074 89.7266 109.816 89.7266C109.586 89.7266 109.379 89.7969 109.195 89.9375C109.012 90.0742 108.881 90.2656 108.803 90.5117C108.686 90.8867 108.627 91.2969 108.627 91.7422V95H107.572ZM115.84 92.9961L116.93 93.1309C116.758 93.7676 116.439 94.2617 115.975 94.6133C115.51 94.9648 114.916 95.1406 114.193 95.1406C113.283 95.1406 112.561 94.8613 112.025 94.3027C111.494 93.7402 111.229 92.9531 111.229 91.9414C111.229 90.8945 111.498 90.082 112.037 89.5039C112.576 88.9258 113.275 88.6367 114.135 88.6367C114.967 88.6367 115.646 88.9199 116.174 89.4863C116.701 90.0527 116.965 90.8496 116.965 91.877C116.965 91.9395 116.963 92.0332 116.959 92.1582H112.318C112.357 92.8418 112.551 93.3652 112.898 93.7285C113.246 94.0918 113.68 94.2734 114.199 94.2734C114.586 94.2734 114.916 94.1719 115.189 93.9688C115.463 93.7656 115.68 93.4414 115.84 92.9961ZM112.377 91.291H115.852C115.805 90.7676 115.672 90.375 115.453 90.1133C115.117 89.707 114.682 89.5039 114.146 89.5039C113.662 89.5039 113.254 89.666 112.922 89.9902C112.594 90.3145 112.412 90.748 112.377 91.291ZM117.557 95L119.83 91.7656L117.727 88.7773H119.045L120 90.2363C120.18 90.5137 120.324 90.7461 120.434 90.9336C120.605 90.6758 120.764 90.4473 120.908 90.248L121.957 88.7773H123.217L121.066 91.707L123.381 95H122.086L120.809 93.0664L120.469 92.5449L118.834 95H117.557ZM124.559 95V93.7988H125.76V95H124.559Z"/>
  </symbol>
</svg>
