<svg width="153" height="70" viewBox="0 0 153 70" fill="none" xmlns="http://www.w3.org/2000/svg">
  <symbol id="svg-copy-ko-1" viewBox="0 1 153 11">
    <path d="M8.472 1.076V11.948H9.468V1.076H8.472ZM3.744 1.916C2.148 1.916 0.996 3.392 0.996 5.696C0.996 8.012 2.148 9.488 3.744 9.488C5.352 9.488 6.504 8.012 6.504 5.696C6.504 3.392 5.352 1.916 3.744 1.916ZM3.744 2.816C4.812 2.816 5.544 3.944 5.544 5.696C5.544 7.46 4.812 8.612 3.744 8.612C2.688 8.612 1.944 7.46 1.944 5.696C1.944 3.944 2.688 2.816 3.744 2.816ZM23.1509 1.088V7.808H24.1109V1.088H23.1509ZM21.1949 1.28V7.772H22.1429V1.28H21.1949ZM19.2989 6.464V7.172H21.6629V6.464H19.2989ZM17.3789 5.684V7.772H18.3269V5.684H17.3789ZM15.0149 6.08C16.5149 6.08 18.8309 6.056 20.6909 5.672L20.6189 4.988C18.8189 5.276 16.3949 5.3 14.9069 5.3L15.0149 6.08ZM16.8149 8.204V11.792H24.1109V8.204H23.1269V9.212H17.7989V8.204H16.8149ZM17.7989 9.98H23.1269V11H17.7989V9.98ZM17.8349 1.46C16.4189 1.46 15.4709 2.084 15.4709 3.068C15.4709 4.064 16.4189 4.688 17.8349 4.688C19.2389 4.688 20.1869 4.064 20.1869 3.068C20.1869 2.084 19.2389 1.46 17.8349 1.46ZM17.8349 2.168C18.7109 2.168 19.2869 2.516 19.2869 3.068C19.2869 3.632 18.7109 3.968 17.8349 3.968C16.9469 3.968 16.3709 3.632 16.3709 3.068C16.3709 2.516 16.9469 2.168 17.8349 2.168ZM28.67 2.024V3.968C28.67 5.948 27.434 8.036 25.862 8.828L26.474 9.62C28.19 8.708 29.486 6.368 29.486 3.968V2.024H28.67ZM28.85 2.024V3.968C28.85 6.296 30.11 8.516 31.79 9.416L32.402 8.624C30.866 7.856 29.654 5.876 29.654 3.968V2.024H28.85ZM33.35 1.088V11.936H34.358V1.088H33.35ZM34.118 5.48V6.32H36.134V5.48H34.118ZM44.929 1.076V11.948H45.925V1.076H44.929ZM40.201 1.916C38.605 1.916 37.453 3.392 37.453 5.696C37.453 8.012 38.605 9.488 40.201 9.488C41.809 9.488 42.961 8.012 42.961 5.696C42.961 3.392 41.809 1.916 40.201 1.916ZM40.201 2.816C41.269 2.816 42.001 3.944 42.001 5.696C42.001 7.46 41.269 8.612 40.201 8.612C39.145 8.612 38.401 7.46 38.401 5.696C38.401 3.944 39.145 2.816 40.201 2.816ZM49.3561 6.932V7.736H56.8081V6.932H49.3561ZM48.0961 9.716V10.544H57.9241V9.716H48.0961ZM49.3561 2.012V7.184H50.3641V2.828H56.6881V2.012H49.3561ZM50.0401 4.436V5.228H56.4601V4.436H50.0401ZM62.6512 1.868C60.9592 1.868 59.7352 2.912 59.7352 4.424C59.7352 5.948 60.9592 6.992 62.6512 6.992C64.3432 6.992 65.5552 5.948 65.5552 4.424C65.5552 2.912 64.3432 1.868 62.6512 1.868ZM62.6512 2.732C63.7672 2.732 64.5832 3.416 64.5832 4.424C64.5832 5.432 63.7672 6.128 62.6512 6.128C61.5232 6.128 60.7072 5.432 60.7072 4.424C60.7072 3.416 61.5232 2.732 62.6512 2.732ZM66.9712 1.076V11.948H67.9672V1.076H66.9712ZM59.3272 9.572C61.2592 9.572 63.9112 9.56 66.3472 9.092L66.2632 8.36C63.8992 8.732 61.1632 8.744 59.1832 8.744L59.3272 9.572ZM79.2981 3.896V4.724H81.7461V3.896H79.2981ZM81.4341 1.088V7.556H82.4301V1.088H81.4341ZM78.8661 7.88C76.6221 7.88 75.2421 8.636 75.2421 9.908C75.2421 11.192 76.6221 11.924 78.8661 11.924C81.0981 11.924 82.4781 11.192 82.4781 9.908C82.4781 8.636 81.0981 7.88 78.8661 7.88ZM78.8661 8.66C80.4981 8.66 81.4941 9.116 81.4941 9.908C81.4941 10.688 80.4981 11.144 78.8661 11.144C77.2341 11.144 76.2381 10.688 76.2381 9.908C76.2381 9.116 77.2341 8.66 78.8661 8.66ZM76.2741 2.18V3.056C76.2741 4.616 75.1581 6.068 73.5501 6.656L74.0661 7.448C75.8661 6.776 77.0901 5.06 77.0901 3.056V2.18H76.2741ZM76.4661 2.18V3.056C76.4661 4.88 77.6301 6.512 79.3941 7.148L79.8981 6.356C78.3261 5.804 77.2701 4.46 77.2701 3.056V2.18H76.4661ZM73.8501 1.88V2.696H79.6461V1.88H73.8501ZM84.5531 9.728V10.556H94.3811V9.728H84.5531ZM88.9451 7.136V9.968H89.9411V7.136H88.9451ZM85.7051 1.856V7.4H93.2051V1.856H92.2211V3.788H86.6891V1.856H85.7051ZM86.6891 4.592H92.2211V6.584H86.6891V4.592ZM95.5802 6.128V6.884H105.42V6.128H95.5802ZM96.7442 7.76V8.468H103.212V9.392H96.7802V11.348H97.7642V10.076H104.184V7.76H96.7442ZM96.7802 11.084V11.804H104.532V11.084H96.7802ZM96.8282 1.4V2.108H103.176V2.984H96.8522V4.832H97.8362V3.656H104.148V1.4H96.8282ZM96.8522 4.592V5.312H104.352V4.592H96.8522ZM109.959 6.68V7.496H119.763V6.68H109.959ZM114.375 5.06V6.932H115.359V5.06H114.375ZM111.051 8.552V9.368H117.555V11.936H118.551V8.552H111.051ZM111.267 1.34V5.396H118.491V1.34H117.495V2.564H112.251V1.34H111.267ZM112.251 3.344H117.495V4.604H112.251V3.344ZM123.662 2.024V3.968C123.662 5.948 122.426 8.036 120.854 8.828L121.466 9.62C123.182 8.708 124.478 6.368 124.478 3.968V2.024H123.662ZM123.842 2.024V3.968C123.842 6.296 125.102 8.516 126.782 9.416L127.394 8.624C125.858 7.856 124.646 5.876 124.646 3.968V2.024H123.842ZM128.342 1.088V11.936H129.35V1.088H128.342ZM129.11 5.48V6.32H131.126V5.48H129.11ZM139.393 1.088V11.936H140.389V1.088H139.393ZM140.149 5.54V6.38H142.165V5.54H140.149ZM131.989 2.816V3.632H138.385V2.816H131.989ZM135.229 4.532C133.705 4.532 132.589 5.564 132.589 7.028C132.589 8.492 133.705 9.524 135.229 9.524C136.765 9.524 137.869 8.492 137.869 7.028C137.869 5.564 136.765 4.532 135.229 4.532ZM135.229 5.36C136.213 5.36 136.921 6.044 136.921 7.028C136.921 8 136.213 8.696 135.229 8.696C134.245 8.696 133.537 8 133.537 7.028C133.537 6.044 134.245 5.36 135.229 5.36ZM134.713 1.22V3.188H135.709V1.22H134.713ZM144.12 2.168V2.996H151.104V2.168H144.12ZM143.088 9.596V10.424H152.892V9.596H143.088ZM146.892 5.72V10.004H147.888V5.72H146.892ZM150.732 2.168V3.248C150.732 4.544 150.732 6.068 150.324 8.144L151.32 8.276C151.716 6.08 151.716 4.592 151.716 3.248V2.168H150.732Z"/>
  </symbol>
  <symbol id="svg-copy-ko-2" viewBox="0 15 147 11">
    <path d="M0.345703 22.5625L1.37109 22.4219C1.39844 23.0781 1.52148 23.5273 1.74023 23.7695C1.95898 24.0117 2.26172 24.1328 2.64844 24.1328C2.93359 24.1328 3.17969 24.0684 3.38672 23.9395C3.59375 23.8066 3.73633 23.6289 3.81445 23.4062C3.89258 23.1797 3.93164 22.8203 3.93164 22.3281V16.4102H5.06836V22.2637C5.06836 22.9824 4.98047 23.5391 4.80469 23.9336C4.63281 24.3281 4.35742 24.6289 3.97852 24.8359C3.60352 25.043 3.16211 25.1465 2.6543 25.1465C1.90039 25.1465 1.32227 24.9297 0.919922 24.4961C0.521484 24.0625 0.330078 23.418 0.345703 22.5625ZM10.8691 25V24.0859C10.3848 24.7891 9.72656 25.1406 8.89453 25.1406C8.52734 25.1406 8.18359 25.0703 7.86328 24.9297C7.54688 24.7891 7.31055 24.6133 7.1543 24.4023C7.00195 24.1875 6.89453 23.9258 6.83203 23.6172C6.78906 23.4102 6.76758 23.082 6.76758 22.6328V18.7773H7.82227V22.2285C7.82227 22.7793 7.84375 23.1504 7.88672 23.3418C7.95312 23.6191 8.09375 23.8379 8.30859 23.998C8.52344 24.1543 8.78906 24.2324 9.10547 24.2324C9.42188 24.2324 9.71875 24.1523 9.99609 23.9922C10.2734 23.8281 10.4688 23.6074 10.582 23.3301C10.6992 23.0488 10.7578 22.6426 10.7578 22.1113V18.7773H11.8125V25H10.8691ZM13.0488 23.1426L14.0918 22.9785C14.1504 23.3965 14.3125 23.7168 14.5781 23.9395C14.8477 24.1621 15.2227 24.2734 15.7031 24.2734C16.1875 24.2734 16.5469 24.1758 16.7812 23.9805C17.0156 23.7812 17.1328 23.5488 17.1328 23.2832C17.1328 23.0449 17.0293 22.8574 16.8223 22.7207C16.6777 22.627 16.3184 22.5078 15.7441 22.3633C14.9707 22.168 14.4336 22 14.1328 21.8594C13.8359 21.7148 13.6094 21.5176 13.4531 21.2676C13.3008 21.0137 13.2246 20.7344 13.2246 20.4297C13.2246 20.1523 13.2871 19.8965 13.4121 19.6621C13.541 19.4238 13.7148 19.2266 13.9336 19.0703C14.0977 18.9492 14.3203 18.8477 14.6016 18.7656C14.8867 18.6797 15.1914 18.6367 15.5156 18.6367C16.0039 18.6367 16.4316 18.707 16.7988 18.8477C17.1699 18.9883 17.4434 19.1797 17.6191 19.4219C17.7949 19.6602 17.916 19.9805 17.9824 20.3828L16.9512 20.5234C16.9043 20.2031 16.7676 19.9531 16.541 19.7734C16.3184 19.5938 16.002 19.5039 15.5918 19.5039C15.1074 19.5039 14.7617 19.584 14.5547 19.7441C14.3477 19.9043 14.2441 20.0918 14.2441 20.3066C14.2441 20.4434 14.2871 20.5664 14.373 20.6758C14.459 20.7891 14.5938 20.8828 14.7773 20.957C14.8828 20.9961 15.1934 21.0859 15.709 21.2266C16.4551 21.4258 16.9746 21.5898 17.2676 21.7188C17.5645 21.8438 17.7969 22.0273 17.9648 22.2695C18.1328 22.5117 18.2168 22.8125 18.2168 23.1719C18.2168 23.5234 18.1133 23.8555 17.9062 24.168C17.7031 24.4766 17.4082 24.7168 17.0215 24.8887C16.6348 25.0566 16.1973 25.1406 15.709 25.1406C14.9004 25.1406 14.2832 24.9727 13.8574 24.6367C13.4355 24.3008 13.166 23.8027 13.0488 23.1426ZM21.7734 24.0566L21.9258 24.9883C21.6289 25.0508 21.3633 25.082 21.1289 25.082C20.7461 25.082 20.4492 25.0215 20.2383 24.9004C20.0273 24.7793 19.8789 24.6211 19.793 24.4258C19.707 24.2266 19.6641 23.8105 19.6641 23.1777V19.5977H18.8906V18.7773H19.6641V17.2363L20.7129 16.6035V18.7773H21.7734V19.5977H20.7129V23.2363C20.7129 23.5371 20.7305 23.7305 20.7656 23.8164C20.8047 23.9023 20.8652 23.9707 20.9473 24.0215C21.0332 24.0723 21.1543 24.0977 21.3105 24.0977C21.4277 24.0977 21.582 24.084 21.7734 24.0566ZM23.0625 25V19.5977H22.1309V18.7773H23.0625V18.1152C23.0625 17.6973 23.0996 17.3867 23.1738 17.1836C23.2754 16.9102 23.4531 16.6895 23.707 16.5215C23.9648 16.3496 24.3242 16.2637 24.7852 16.2637C25.082 16.2637 25.4102 16.2988 25.7695 16.3691L25.6113 17.2891C25.3926 17.25 25.1855 17.2305 24.9902 17.2305C24.6699 17.2305 24.4434 17.2988 24.3105 17.4355C24.1777 17.5723 24.1113 17.8281 24.1113 18.2031V18.7773H25.3242V19.5977H24.1113V25H23.0625ZM25.7578 21.8887C25.7578 20.7363 26.0781 19.8828 26.7188 19.3281C27.2539 18.8672 27.9062 18.6367 28.6758 18.6367C29.5312 18.6367 30.2305 18.918 30.7734 19.4805C31.3164 20.0391 31.5879 20.8125 31.5879 21.8008C31.5879 22.6016 31.4668 23.2324 31.2246 23.6934C30.9863 24.1504 30.6367 24.5059 30.1758 24.7598C29.7188 25.0137 29.2188 25.1406 28.6758 25.1406C27.8047 25.1406 27.0996 24.8613 26.5605 24.3027C26.0254 23.7441 25.7578 22.9395 25.7578 21.8887ZM26.8418 21.8887C26.8418 22.6855 27.0156 23.2832 27.3633 23.6816C27.7109 24.0762 28.1484 24.2734 28.6758 24.2734C29.1992 24.2734 29.6348 24.0742 29.9824 23.6758C30.3301 23.2773 30.5039 22.6699 30.5039 21.8535C30.5039 21.084 30.3281 20.502 29.9766 20.1074C29.6289 19.709 29.1953 19.5098 28.6758 19.5098C28.1484 19.5098 27.7109 19.707 27.3633 20.1016C27.0156 20.4961 26.8418 21.0918 26.8418 21.8887ZM32.8184 25V18.7773H33.7676V19.7207C34.0098 19.2793 34.2324 18.9883 34.4355 18.8477C34.6426 18.707 34.8691 18.6367 35.1152 18.6367C35.4707 18.6367 35.832 18.75 36.1992 18.9766L35.8359 19.9551C35.5781 19.8027 35.3203 19.7266 35.0625 19.7266C34.832 19.7266 34.625 19.7969 34.4414 19.9375C34.2578 20.0742 34.127 20.2656 34.0488 20.5117C33.9316 20.8867 33.873 21.2969 33.873 21.7422V25H32.8184ZM41.0859 22.9961L42.1758 23.1309C42.0039 23.7676 41.6855 24.2617 41.2207 24.6133C40.7559 24.9648 40.1621 25.1406 39.4395 25.1406C38.5293 25.1406 37.8066 24.8613 37.2715 24.3027C36.7402 23.7402 36.4746 22.9531 36.4746 21.9414C36.4746 20.8945 36.7441 20.082 37.2832 19.5039C37.8223 18.9258 38.5215 18.6367 39.3809 18.6367C40.2129 18.6367 40.8926 18.9199 41.4199 19.4863C41.9473 20.0527 42.2109 20.8496 42.2109 21.877C42.2109 21.9395 42.209 22.0332 42.2051 22.1582H37.5645C37.6035 22.8418 37.7969 23.3652 38.1445 23.7285C38.4922 24.0918 38.9258 24.2734 39.4453 24.2734C39.832 24.2734 40.1621 24.1719 40.4355 23.9688C40.709 23.7656 40.9258 23.4414 41.0859 22.9961ZM37.623 21.291H41.0977C41.0508 20.7676 40.918 20.375 40.6992 20.1133C40.3633 19.707 39.9277 19.5039 39.3926 19.5039C38.9082 19.5039 38.5 19.666 38.168 19.9902C37.8398 20.3145 37.6582 20.748 37.623 21.291ZM42.8027 25L45.0762 21.7656L42.9727 18.7773H44.291L45.2461 20.2363C45.4258 20.5137 45.5703 20.7461 45.6797 20.9336C45.8516 20.6758 46.0098 20.4473 46.1543 20.248L47.2031 18.7773H48.4629L46.3125 21.707L48.627 25H47.332L46.0547 23.0664L45.7148 22.5449L44.0801 25H42.8027ZM52.6547 23.668V24.508H62.4827V23.668H52.6547ZM53.8067 15.868V21.52H61.3067V15.868H60.3227V17.86H54.7907V15.868H53.8067ZM54.7907 18.664H60.3227V20.704H54.7907V18.664ZM71.8778 15.088V23.164H72.8258V15.088H71.8778ZM70.1378 18.328V19.156H72.1778V18.328H70.1378ZM69.4898 15.292V22.864H70.4258V15.292H69.4898ZM65.7578 24.88V25.696H73.1618V24.88H65.7578ZM65.7578 22.432V25.168H66.7538V22.432H65.7578ZM64.1858 20.74V21.556H64.8818C66.4538 21.556 67.5938 21.496 68.9618 21.232L68.8658 20.428C67.5338 20.692 66.4058 20.74 64.8818 20.74H64.1858ZM64.1618 16.024V16.828H67.2818V18.364H64.1858V21.172H65.1458V19.12H68.2418V16.024H64.1618ZM75.9688 20.284V21.1H83.4208V20.284H75.9688ZM74.7328 23.644V24.472H84.5608V23.644H74.7328ZM75.9688 16.084V20.644H76.9648V16.912H83.3128V16.084H75.9688ZM89.0997 20.812V21.628H98.9037V20.812H89.0997ZM90.1917 22.66V23.476H96.6477V25.936H97.6437V22.66H90.1917ZM90.3957 19.024V19.804H97.7517V19.024H90.3957ZM90.3957 15.376V19.384H91.3797V16.156H97.7037V15.376H90.3957ZM91.0917 17.176V17.932H97.4157V17.176H91.0917ZM102.875 15.7V16.816C102.875 18.472 101.795 19.924 100.139 20.512L100.655 21.328C102.515 20.632 103.703 18.916 103.703 16.816V15.7H102.875ZM103.055 15.7V16.78C103.055 18.748 104.219 20.344 105.971 21.004L106.511 20.224C104.927 19.672 103.871 18.316 103.871 16.78V15.7H103.055ZM108.071 15.088V21.508H109.067V15.088H108.071ZM105.503 21.82C103.259 21.82 101.879 22.576 101.879 23.872C101.879 25.168 103.259 25.912 105.503 25.912C107.735 25.912 109.115 25.168 109.115 23.872C109.115 22.576 107.735 21.82 105.503 21.82ZM105.503 22.612C107.135 22.612 108.131 23.08 108.131 23.872C108.131 24.664 107.135 25.132 105.503 25.132C103.871 25.132 102.875 24.664 102.875 23.872C102.875 23.08 103.871 22.612 105.503 22.612ZM105.719 17.38V18.208H108.287V17.38H105.719ZM116.086 15.268C113.686 15.268 112.27 15.94 112.27 17.152C112.27 18.364 113.686 19.036 116.086 19.036C118.474 19.036 119.902 18.364 119.902 17.152C119.902 15.94 118.474 15.268 116.086 15.268ZM116.086 16.024C117.85 16.024 118.87 16.432 118.87 17.152C118.87 17.872 117.85 18.28 116.086 18.28C114.31 18.28 113.29 17.872 113.29 17.152C113.29 16.432 114.31 16.024 116.086 16.024ZM111.178 19.756V20.56H120.982V19.756H111.178ZM112.366 21.484V22.252H118.75V23.212H112.39V25.252H113.374V23.932H119.734V21.484H112.366ZM112.39 25.036V25.816H120.058V25.036H112.39ZM128.221 16.024V17.968C128.221 19.948 126.985 22.036 125.413 22.828L126.025 23.62C127.741 22.708 129.037 20.368 129.037 17.968V16.024H128.221ZM128.401 16.024V17.968C128.401 20.296 129.661 22.516 131.341 23.416L131.953 22.624C130.417 21.856 129.205 19.876 129.205 17.968V16.024H128.401ZM132.901 15.088V25.936H133.909V15.088H132.901ZM133.669 19.48V20.32H135.685V19.48H133.669ZM139.02 18.76V20.812H140.004V18.76H139.02ZM143.004 18.76V20.812H143.988V18.76H143.004ZM136.596 20.452V21.256H146.4V20.452H136.596ZM141.492 22.072C139.164 22.072 137.772 22.756 137.772 23.992C137.772 25.228 139.164 25.924 141.492 25.924C143.82 25.924 145.212 25.228 145.212 23.992C145.212 22.756 143.82 22.072 141.492 22.072ZM141.492 22.84C143.196 22.84 144.204 23.26 144.204 23.992C144.204 24.736 143.196 25.144 141.492 25.144C139.8 25.144 138.78 24.736 138.78 23.992C138.78 23.26 139.8 22.84 141.492 22.84ZM141.504 15.28C139.14 15.28 137.688 16.036 137.688 17.308C137.688 18.568 139.14 19.312 141.504 19.312C143.856 19.312 145.32 18.568 145.32 17.308C145.32 16.036 143.856 15.28 141.504 15.28ZM141.504 16.06C143.232 16.06 144.3 16.516 144.3 17.308C144.3 18.088 143.232 18.544 141.504 18.544C139.776 18.544 138.708 18.088 138.708 17.308C138.708 16.516 139.776 16.06 141.504 16.06Z"/>
  </symbol>
  <symbol id="svg-copy-ko-3" viewBox="0 29 147 11">
    <path d="M7.944 29.088V39.936H8.94V29.088H7.944ZM8.7 33.54V34.38H10.716V33.54H8.7ZM0.54 30.816V31.632H6.936V30.816H0.54ZM3.78 32.532C2.256 32.532 1.14 33.564 1.14 35.028C1.14 36.492 2.256 37.524 3.78 37.524C5.316 37.524 6.42 36.492 6.42 35.028C6.42 33.564 5.316 32.532 3.78 32.532ZM3.78 33.36C4.764 33.36 5.472 34.044 5.472 35.028C5.472 36 4.764 36.696 3.78 36.696C2.796 36.696 2.088 36 2.088 35.028C2.088 34.044 2.796 33.36 3.78 33.36ZM3.264 29.22V31.188H4.26V29.22H3.264ZM12.9591 32.34V33.156H20.3271V32.34H12.9591ZM11.6271 34.608V35.424H21.4671V34.608H11.6271ZM12.9591 29.484V32.748H13.9431V29.484H12.9591ZM12.8871 38.856V39.672H20.3871V38.856H12.8871ZM12.8871 36.504V39.072H13.8711V36.504H12.8871ZM33.938 29.088V36.432H34.934V29.088H33.938ZM31.61 32.148V32.964H34.142V32.148H31.61ZM30.53 29.94V30.336C30.53 32.46 28.946 34.092 26.198 34.956L26.618 35.748C29.726 34.74 31.574 32.748 31.574 29.94H30.53ZM26.714 29.94V30.756H31.238V29.94H26.714ZM30.938 35.496V35.988C30.938 37.572 29.246 38.772 27.326 39.12L27.722 39.912C29.894 39.468 31.79 38.064 31.79 35.988V35.496H30.938ZM31.082 35.496V35.988C31.082 38.052 32.954 39.456 35.114 39.888L35.534 39.096C33.602 38.748 31.934 37.548 31.934 35.988V35.496H31.082ZM37.045 34.788V35.604H46.849V34.788H37.045ZM38.317 38.88V39.696H45.769V38.88H38.317ZM38.317 36.552V39.132H39.313V36.552H38.317ZM41.953 29.448C39.625 29.448 38.137 30.264 38.137 31.62C38.137 32.964 39.625 33.78 41.953 33.78C44.269 33.78 45.769 32.964 45.769 31.62C45.769 30.264 44.269 29.448 41.953 29.448ZM41.953 30.264C43.657 30.264 44.749 30.768 44.749 31.62C44.749 32.472 43.657 32.976 41.953 32.976C40.249 32.976 39.157 32.472 39.157 31.62C39.157 30.768 40.249 30.264 41.953 30.264ZM51.1816 36.5625L52.207 36.4219C52.2344 37.0781 52.3574 37.5273 52.5762 37.7695C52.7949 38.0117 53.0977 38.1328 53.4844 38.1328C53.7695 38.1328 54.0156 38.0684 54.2227 37.9395C54.4297 37.8066 54.5723 37.6289 54.6504 37.4062C54.7285 37.1797 54.7676 36.8203 54.7676 36.3281V30.4102H55.9043V36.2637C55.9043 36.9824 55.8164 37.5391 55.6406 37.9336C55.4688 38.3281 55.1934 38.6289 54.8145 38.8359C54.4395 39.043 53.998 39.1465 53.4902 39.1465C52.7363 39.1465 52.1582 38.9297 51.7559 38.4961C51.3574 38.0625 51.166 37.418 51.1816 36.5625ZM61.7051 39V38.0859C61.2207 38.7891 60.5625 39.1406 59.7305 39.1406C59.3633 39.1406 59.0195 39.0703 58.6992 38.9297C58.3828 38.7891 58.1465 38.6133 57.9902 38.4023C57.8379 38.1875 57.7305 37.9258 57.668 37.6172C57.625 37.4102 57.6035 37.082 57.6035 36.6328V32.7773H58.6582V36.2285C58.6582 36.7793 58.6797 37.1504 58.7227 37.3418C58.7891 37.6191 58.9297 37.8379 59.1445 37.998C59.3594 38.1543 59.625 38.2324 59.9414 38.2324C60.2578 38.2324 60.5547 38.1523 60.832 37.9922C61.1094 37.8281 61.3047 37.6074 61.418 37.3301C61.5352 37.0488 61.5938 36.6426 61.5938 36.1113V32.7773H62.6484V39H61.7051ZM63.8848 37.1426L64.9277 36.9785C64.9863 37.3965 65.1484 37.7168 65.4141 37.9395C65.6836 38.1621 66.0586 38.2734 66.5391 38.2734C67.0234 38.2734 67.3828 38.1758 67.6172 37.9805C67.8516 37.7812 67.9688 37.5488 67.9688 37.2832C67.9688 37.0449 67.8652 36.8574 67.6582 36.7207C67.5137 36.627 67.1543 36.5078 66.5801 36.3633C65.8066 36.168 65.2695 36 64.9688 35.8594C64.6719 35.7148 64.4453 35.5176 64.2891 35.2676C64.1367 35.0137 64.0605 34.7344 64.0605 34.4297C64.0605 34.1523 64.123 33.8965 64.248 33.6621C64.377 33.4238 64.5508 33.2266 64.7695 33.0703C64.9336 32.9492 65.1562 32.8477 65.4375 32.7656C65.7227 32.6797 66.0273 32.6367 66.3516 32.6367C66.8398 32.6367 67.2676 32.707 67.6348 32.8477C68.0059 32.9883 68.2793 33.1797 68.4551 33.4219C68.6309 33.6602 68.752 33.9805 68.8184 34.3828L67.7871 34.5234C67.7402 34.2031 67.6035 33.9531 67.377 33.7734C67.1543 33.5938 66.8379 33.5039 66.4277 33.5039C65.9434 33.5039 65.5977 33.584 65.3906 33.7441C65.1836 33.9043 65.0801 34.0918 65.0801 34.3066C65.0801 34.4434 65.123 34.5664 65.209 34.6758C65.2949 34.7891 65.4297 34.8828 65.6133 34.957C65.7188 34.9961 66.0293 35.0859 66.5449 35.2266C67.291 35.4258 67.8105 35.5898 68.1035 35.7188C68.4004 35.8438 68.6328 36.0273 68.8008 36.2695C68.9688 36.5117 69.0527 36.8125 69.0527 37.1719C69.0527 37.5234 68.9492 37.8555 68.7422 38.168C68.5391 38.4766 68.2441 38.7168 67.8574 38.8887C67.4707 39.0566 67.0332 39.1406 66.5449 39.1406C65.7363 39.1406 65.1191 38.9727 64.6934 38.6367C64.2715 38.3008 64.002 37.8027 63.8848 37.1426ZM72.6094 38.0566L72.7617 38.9883C72.4648 39.0508 72.1992 39.082 71.9648 39.082C71.582 39.082 71.2852 39.0215 71.0742 38.9004C70.8633 38.7793 70.7148 38.6211 70.6289 38.4258C70.543 38.2266 70.5 37.8105 70.5 37.1777V33.5977H69.7266V32.7773H70.5V31.2363L71.5488 30.6035V32.7773H72.6094V33.5977H71.5488V37.2363C71.5488 37.5371 71.5664 37.7305 71.6016 37.8164C71.6406 37.9023 71.7012 37.9707 71.7832 38.0215C71.8691 38.0723 71.9902 38.0977 72.1465 38.0977C72.2637 38.0977 72.418 38.084 72.6094 38.0566ZM73.8984 39V33.5977H72.9668V32.7773H73.8984V32.1152C73.8984 31.6973 73.9355 31.3867 74.0098 31.1836C74.1113 30.9102 74.2891 30.6895 74.543 30.5215C74.8008 30.3496 75.1602 30.2637 75.6211 30.2637C75.918 30.2637 76.2461 30.2988 76.6055 30.3691L76.4473 31.2891C76.2285 31.25 76.0215 31.2305 75.8262 31.2305C75.5059 31.2305 75.2793 31.2988 75.1465 31.4355C75.0137 31.5723 74.9473 31.8281 74.9473 32.2031V32.7773H76.1602V33.5977H74.9473V39H73.8984ZM76.5938 35.8887C76.5938 34.7363 76.9141 33.8828 77.5547 33.3281C78.0898 32.8672 78.7422 32.6367 79.5117 32.6367C80.3672 32.6367 81.0664 32.918 81.6094 33.4805C82.1523 34.0391 82.4238 34.8125 82.4238 35.8008C82.4238 36.6016 82.3027 37.2324 82.0605 37.6934C81.8223 38.1504 81.4727 38.5059 81.0117 38.7598C80.5547 39.0137 80.0547 39.1406 79.5117 39.1406C78.6406 39.1406 77.9355 38.8613 77.3965 38.3027C76.8613 37.7441 76.5938 36.9395 76.5938 35.8887ZM77.6777 35.8887C77.6777 36.6855 77.8516 37.2832 78.1992 37.6816C78.5469 38.0762 78.9844 38.2734 79.5117 38.2734C80.0352 38.2734 80.4707 38.0742 80.8184 37.6758C81.166 37.2773 81.3398 36.6699 81.3398 35.8535C81.3398 35.084 81.1641 34.502 80.8125 34.1074C80.4648 33.709 80.0312 33.5098 79.5117 33.5098C78.9844 33.5098 78.5469 33.707 78.1992 34.1016C77.8516 34.4961 77.6777 35.0918 77.6777 35.8887ZM83.6543 39V32.7773H84.6035V33.7207C84.8457 33.2793 85.0684 32.9883 85.2715 32.8477C85.4785 32.707 85.7051 32.6367 85.9512 32.6367C86.3066 32.6367 86.668 32.75 87.0352 32.9766L86.6719 33.9551C86.4141 33.8027 86.1562 33.7266 85.8984 33.7266C85.668 33.7266 85.4609 33.7969 85.2773 33.9375C85.0938 34.0742 84.9629 34.2656 84.8848 34.5117C84.7676 34.8867 84.709 35.2969 84.709 35.7422V39H83.6543ZM91.9219 36.9961L93.0117 37.1309C92.8398 37.7676 92.5215 38.2617 92.0566 38.6133C91.5918 38.9648 90.998 39.1406 90.2754 39.1406C89.3652 39.1406 88.6426 38.8613 88.1074 38.3027C87.5762 37.7402 87.3105 36.9531 87.3105 35.9414C87.3105 34.8945 87.5801 34.082 88.1191 33.5039C88.6582 32.9258 89.3574 32.6367 90.2168 32.6367C91.0488 32.6367 91.7285 32.9199 92.2559 33.4863C92.7832 34.0527 93.0469 34.8496 93.0469 35.877C93.0469 35.9395 93.0449 36.0332 93.041 36.1582H88.4004C88.4395 36.8418 88.6328 37.3652 88.9805 37.7285C89.3281 38.0918 89.7617 38.2734 90.2812 38.2734C90.668 38.2734 90.998 38.1719 91.2715 37.9688C91.5449 37.7656 91.7617 37.4414 91.9219 36.9961ZM88.459 35.291H91.9336C91.8867 34.7676 91.7539 34.375 91.5352 34.1133C91.1992 33.707 90.7637 33.5039 90.2285 33.5039C89.7441 33.5039 89.3359 33.666 89.0039 33.9902C88.6758 34.3145 88.4941 34.748 88.459 35.291ZM93.6387 39L95.9121 35.7656L93.8086 32.7773H95.127L96.082 34.2363C96.2617 34.5137 96.4062 34.7461 96.5156 34.9336C96.6875 34.6758 96.8457 34.4473 96.9902 34.248L98.0391 32.7773H99.2988L97.1484 35.707L99.4629 39H98.168L96.8906 37.0664L96.5508 36.5449L94.916 39H93.6387ZM103.667 29.868C101.975 29.868 100.751 30.912 100.751 32.424C100.751 33.948 101.975 34.992 103.667 34.992C105.359 34.992 106.571 33.948 106.571 32.424C106.571 30.912 105.359 29.868 103.667 29.868ZM103.667 30.732C104.783 30.732 105.599 31.416 105.599 32.424C105.599 33.432 104.783 34.128 103.667 34.128C102.539 34.128 101.723 33.432 101.723 32.424C101.723 31.416 102.539 30.732 103.667 30.732ZM107.987 29.076V39.948H108.983V29.076H107.987ZM100.343 37.572C102.275 37.572 104.927 37.56 107.363 37.092L107.279 36.36C104.915 36.732 102.179 36.744 100.199 36.744L100.343 37.572ZM119.702 30.84V31.656H122.834V30.84H119.702ZM119.702 33V33.804H122.858V33H119.702ZM122.45 29.088V35.508H123.446V29.088H122.45ZM115.022 29.904V34.728H119.978V29.904H115.022ZM118.994 30.708V33.936H115.994V30.708H118.994ZM119.882 35.82C117.638 35.82 116.258 36.576 116.258 37.872C116.258 39.168 117.638 39.912 119.882 39.912C122.114 39.912 123.494 39.168 123.494 37.872C123.494 36.576 122.114 35.82 119.882 35.82ZM119.882 36.612C121.514 36.612 122.51 37.08 122.51 37.872C122.51 38.664 121.514 39.132 119.882 39.132C118.25 39.132 117.254 38.664 117.254 37.872C117.254 37.08 118.25 36.612 119.882 36.612ZM128.425 30.024V31.968C128.425 34.02 127.117 36.096 125.509 36.864L126.121 37.68C127.897 36.78 129.241 34.464 129.241 31.968V30.024H128.425ZM128.593 30.024V31.968C128.593 34.38 129.949 36.612 131.713 37.476L132.313 36.684C130.705 35.94 129.409 33.948 129.409 31.968V30.024H128.593ZM133.441 29.076V39.948H134.437V29.076H133.441ZM139.368 30.192V31.068C139.368 32.604 138.252 34.044 136.632 34.62L137.148 35.412C138.96 34.74 140.184 33.048 140.184 31.068V30.192H139.368ZM139.56 30.192V31.068C139.56 32.88 140.724 34.512 142.488 35.16L142.992 34.368C141.42 33.816 140.364 32.46 140.364 31.068V30.192H139.56ZM142.404 31.908V32.736H144.816V31.908H142.404ZM136.944 29.832V30.636H142.74V29.832H136.944ZM138.288 36.168V36.984H144.528V39.936H145.524V36.168H138.288ZM144.528 29.088V35.58H145.524V29.088H144.528Z"/>
  </symbol>
  <symbol id="svg-copy-ko-4" viewBox="0 43 146 11">
    <path d="M8.484 43.1V51.02H9.492V43.1H8.484ZM2.52 52.88V53.696H9.816V52.88H2.52ZM2.52 50.204V53.156H3.504V50.204H2.52ZM3.672 43.844C2.052 43.844 0.84 44.948 0.84 46.52C0.84 48.08 2.052 49.196 3.672 49.196C5.292 49.196 6.492 48.08 6.492 46.52C6.492 44.948 5.292 43.844 3.672 43.844ZM3.672 44.708C4.728 44.708 5.532 45.452 5.532 46.52C5.532 47.576 4.728 48.32 3.672 48.32C2.616 48.32 1.812 47.576 1.812 46.52C1.812 45.452 2.616 44.708 3.672 44.708ZM20.3909 46.76V47.576H23.4149V46.76H20.3909ZM17.7749 44.024V45.956C17.7749 47.972 16.5509 50.06 14.9549 50.852L15.5909 51.644C17.3069 50.72 18.5909 48.392 18.5909 45.956V44.024H17.7749ZM17.9669 44.024V45.956C17.9669 48.332 19.2269 50.564 20.9789 51.452L21.5669 50.648C19.9949 49.904 18.7709 47.936 18.7709 45.956V44.024H17.9669ZM22.9229 43.076V53.948H23.9069V43.076H22.9229ZM31.214 44.996V45.812H34.25V44.996H31.214ZM31.214 47.312V48.14H34.274V47.312H31.214ZM26.51 44.024V49.112H31.466V44.024H26.51ZM30.482 44.828V48.308H27.482V44.828H30.482ZM33.938 43.1V51.02H34.934V43.1H33.938ZM27.962 52.88V53.696H35.198V52.88H27.962ZM27.962 50.3V53.252H28.958V50.3H27.962ZM44.7889 43.268V43.748C44.7889 45.152 42.9049 46.352 40.9609 46.616L41.3329 47.408C43.5529 47.048 45.6409 45.668 45.6409 43.748V43.268H44.7889ZM44.9449 43.268V43.748C44.9449 45.632 47.0449 47.048 49.2529 47.408L49.6249 46.616C47.7049 46.352 45.7969 45.128 45.7969 43.748V43.268H44.9449ZM40.3849 48.26V49.076H50.1889V48.26H40.3849ZM45.2809 50.072C42.9529 50.072 41.5609 50.768 41.5609 51.992C41.5609 53.24 42.9529 53.924 45.2809 53.924C47.6089 53.924 49.0009 53.24 49.0009 51.992C49.0009 50.768 47.6089 50.072 45.2809 50.072ZM45.2809 50.84C46.9849 50.84 47.9929 51.272 47.9929 51.992C47.9929 52.736 46.9849 53.156 45.2809 53.156C43.5889 53.156 42.5689 52.736 42.5689 51.992C42.5689 51.272 43.5889 50.84 45.2809 50.84ZM59.3199 43.1V51.02H60.3279V43.1H59.3199ZM53.3559 52.88V53.696H60.6519V52.88H53.3559ZM53.3559 50.204V53.156H54.3399V50.204H53.3559ZM54.5079 43.844C52.8879 43.844 51.6759 44.948 51.6759 46.52C51.6759 48.08 52.8879 49.196 54.5079 49.196C56.1279 49.196 57.3279 48.08 57.3279 46.52C57.3279 44.948 56.1279 43.844 54.5079 43.844ZM54.5079 44.708C55.5639 44.708 56.3679 45.452 56.3679 46.52C56.3679 47.576 55.5639 48.32 54.5079 48.32C53.4519 48.32 52.6479 47.576 52.6479 46.52C52.6479 45.452 53.4519 44.708 54.5079 44.708ZM70.347 43.076V53.948H71.343V43.076H70.347ZM65.619 43.916C64.023 43.916 62.871 45.392 62.871 47.696C62.871 50.012 64.023 51.488 65.619 51.488C67.227 51.488 68.379 50.012 68.379 47.696C68.379 45.392 67.227 43.916 65.619 43.916ZM65.619 44.816C66.687 44.816 67.419 45.944 67.419 47.696C67.419 49.46 66.687 50.612 65.619 50.612C64.563 50.612 63.819 49.46 63.819 47.696C63.819 45.944 64.563 44.816 65.619 44.816ZM79.5539 49.76V50.348C79.5539 51.392 78.7379 52.556 77.3699 53.048L77.8739 53.792C79.4339 53.192 80.3219 51.764 80.3219 50.348V49.76H79.5539ZM79.7699 49.76V50.348C79.7699 51.788 80.4779 53.276 82.0379 53.888L82.4579 53.132C81.1619 52.604 80.5139 51.44 80.5139 50.348V49.76H79.7699ZM83.5619 49.76V50.348C83.5619 51.284 82.9019 52.544 81.6179 53.132L82.0379 53.888C83.5859 53.228 84.3059 51.62 84.3059 50.348V49.76H83.5619ZM83.7659 49.76V50.348C83.7659 51.848 84.6299 53.216 86.2139 53.792L86.7179 53.048C85.3379 52.58 84.5339 51.464 84.5339 50.348V49.76H83.7659ZM84.7379 43.1V49.292H85.7459V43.1H84.7379ZM79.9259 43.724C78.2819 43.724 77.0939 44.756 77.0939 46.256C77.0939 47.756 78.2819 48.776 79.9259 48.776C81.5699 48.776 82.7459 47.756 82.7459 46.256C82.7459 44.756 81.5699 43.724 79.9259 43.724ZM79.9259 44.552C81.0059 44.552 81.7859 45.248 81.7859 46.256C81.7859 47.264 81.0059 47.948 79.9259 47.948C78.8459 47.948 78.0659 47.264 78.0659 46.256C78.0659 45.248 78.8459 44.552 79.9259 44.552ZM89.213 46.34V47.156H96.581V46.34H89.213ZM87.881 48.608V49.424H97.721V48.608H87.881ZM89.213 43.484V46.748H90.197V43.484H89.213ZM89.141 52.856V53.672H96.641V52.856H89.141ZM89.141 50.504V53.072H90.125V50.504H89.141ZM107.456 45.08V45.896H110.36V45.08H107.456ZM107.36 47.336V48.152H110.288V47.336H107.36ZM110.192 43.088V49.592H111.188V43.088H110.192ZM106.796 43.904V44.336C106.796 46.388 105.176 47.984 102.404 48.788L102.812 49.592C105.932 48.656 107.864 46.7 107.864 43.904H106.796ZM102.968 43.904V44.72H107.48V43.904H102.968ZM107.66 49.712C105.464 49.712 104.072 50.492 104.072 51.8C104.072 53.108 105.464 53.888 107.66 53.888C109.856 53.888 111.248 53.108 111.248 51.8C111.248 50.492 109.856 49.712 107.66 49.712ZM107.66 50.492C109.256 50.492 110.276 50.984 110.276 51.8C110.276 52.616 109.256 53.096 107.66 53.096C106.076 53.096 105.056 52.616 105.056 51.8C105.056 50.984 106.076 50.492 107.66 50.492ZM113.299 49.304V50.12H123.139V49.304H113.299ZM117.691 49.808V53.936H118.675V49.808H117.691ZM118.195 43.52C115.939 43.52 114.403 44.444 114.403 45.896C114.403 47.348 115.939 48.272 118.195 48.272C120.463 48.272 121.987 47.348 121.987 45.896C121.987 44.444 120.463 43.52 118.195 43.52ZM118.195 44.324C119.851 44.324 120.967 44.936 120.967 45.896C120.967 46.856 119.851 47.468 118.195 47.468C116.539 47.468 115.411 46.856 115.411 45.896C115.411 44.936 116.539 44.324 118.195 44.324ZM128.742 47.3V48.128H130.794V47.3H128.742ZM132.606 43.088V53.936H133.566V43.088H132.606ZM130.458 43.316V53.396H131.406V43.316H130.458ZM126.786 43.988C125.382 43.988 124.482 45.44 124.482 47.768C124.482 50.096 125.382 51.548 126.786 51.548C128.19 51.548 129.102 50.096 129.102 47.768C129.102 45.44 128.19 43.988 126.786 43.988ZM126.786 44.912C127.65 44.912 128.19 46.016 128.19 47.768C128.19 49.52 127.65 50.624 126.786 50.624C125.934 50.624 125.394 49.52 125.394 47.768C125.394 46.016 125.934 44.912 126.786 44.912ZM135.833 44.06V49.088H140.813V44.06H135.833ZM139.841 44.864V48.284H136.805V44.864H139.841ZM142.805 43.076V51.032H143.801V43.076H142.805ZM143.489 46.388V47.216H145.409V46.388H143.489ZM137.045 52.88V53.696H144.293V52.88H137.045ZM137.045 50.276V53.228H138.041V50.276H137.045Z"/>
  </symbol>
  <symbol id="svg-copy-ko-5" viewBox="0 57 58 11">
    <path d="M0.588 58.816V59.644H6.984V58.816H0.588ZM3.792 60.532C2.34 60.532 1.248 61.564 1.248 63.028C1.248 64.48 2.34 65.524 3.792 65.524C5.256 65.524 6.336 64.48 6.336 63.028C6.336 61.564 5.256 60.532 3.792 60.532ZM3.792 61.372C4.728 61.372 5.424 62.056 5.424 63.028C5.424 63.988 4.728 64.672 3.792 64.672C2.868 64.672 2.172 63.988 2.172 63.028C2.172 62.056 2.868 61.372 3.792 61.372ZM3.3 57.22V59.212H4.296V57.22H3.3ZM8.544 57.088V67.936H9.528V57.088H8.544ZM6.768 61.624V62.452H9.276V61.624H6.768ZM14.0511 60.76V62.812H15.0351V60.76H14.0511ZM18.0351 60.76V62.812H19.0191V60.76H18.0351ZM11.6271 62.452V63.256H21.4311V62.452H11.6271ZM16.5231 64.072C14.1951 64.072 12.8031 64.756 12.8031 65.992C12.8031 67.228 14.1951 67.924 16.5231 67.924C18.8511 67.924 20.2431 67.228 20.2431 65.992C20.2431 64.756 18.8511 64.072 16.5231 64.072ZM16.5231 64.84C18.2271 64.84 19.2351 65.26 19.2351 65.992C19.2351 66.736 18.2271 67.144 16.5231 67.144C14.8311 67.144 13.8111 66.736 13.8111 65.992C13.8111 65.26 14.8311 64.84 16.5231 64.84ZM16.5351 57.28C14.1711 57.28 12.7191 58.036 12.7191 59.308C12.7191 60.568 14.1711 61.312 16.5351 61.312C18.8871 61.312 20.3511 60.568 20.3511 59.308C20.3511 58.036 18.8871 57.28 16.5351 57.28ZM16.5351 58.06C18.2631 58.06 19.3311 58.516 19.3311 59.308C19.3311 60.088 18.2631 60.544 16.5351 60.544C14.8071 60.544 13.7391 60.088 13.7391 59.308C13.7391 58.516 14.8071 58.06 16.5351 58.06ZM25.7621 60.76V62.56H26.7701V60.76H25.7621ZM30.5741 57.088V63.34H31.5701V57.088H30.5741ZM22.8581 63.076C24.7901 63.076 27.3941 63.04 29.7581 62.62L29.6861 61.912C27.3941 62.248 24.6941 62.272 22.7141 62.272L22.8581 63.076ZM23.6861 60.256V61.06H28.8941V60.256H23.6861ZM23.6861 57.628V60.568H24.6821V58.444H28.7981V57.628H23.6861ZM24.4541 63.82V67.792H31.5701V63.82H30.5861V64.96H25.4501V63.82H24.4541ZM25.4501 65.74H30.5861V66.988H25.4501V65.74ZM41.6012 57.088V67.936H42.5972V57.088H41.6012ZM34.4012 58.144V64.864H35.3852V58.144H34.4012ZM34.4012 64.276V65.14H35.2892C37.0052 65.14 38.7212 65.008 40.6052 64.624L40.4852 63.772C38.6492 64.156 36.9332 64.276 35.2892 64.276H34.4012ZM52.0883 57.076V67.948H53.0963V57.076H52.0883ZM52.8563 61.36V62.2H54.8723V61.36H52.8563ZM45.2123 64.408V65.248H46.0643C48.1043 65.248 49.5323 65.188 51.2003 64.876L51.0923 64.036C49.4723 64.336 48.0683 64.408 46.0643 64.408H45.2123ZM45.2123 58.132V64.78H46.1963V58.948H50.2523V58.132H45.2123ZM56.2852 67V65.7988H57.4863V67H56.2852Z"/>
  </symbol>
</svg>
