<svg width="153" height="56" viewBox="0 0 153 56" fill="none" xmlns="http://www.w3.org/2000/svg">
  <symbol id="svg-copy-zh-1" viewBox="0 1 144 11">
    <path d="M1.992 1.748V8.204H2.892V2.612H9.324V8.144H10.248V1.748H1.992ZM2.412 6.908V7.772H9.696V6.908H2.412ZM7.068 9.104C8.256 9.968 9.72 11.204 10.404 11.996L11.184 11.444C10.464 10.628 8.964 9.44 7.8 8.624L7.068 9.104ZM4.056 8.6C3.36 9.56 1.956 10.664 0.684 11.336C0.9 11.492 1.224 11.792 1.404 11.984C2.7 11.252 4.116 10.088 5.004 8.984L4.056 8.6ZM12.756 2.48V3.332H23.268V2.48H12.756ZM15.684 6.764V7.544H21.324V6.764H15.684ZM15.048 4.724V11.96H15.936V5.528H21.18V4.724H15.048ZM20.976 4.724V10.832C20.976 11.012 20.904 11.072 20.7 11.084C20.484 11.084 19.752 11.096 18.948 11.06C19.08 11.312 19.212 11.684 19.248 11.936C20.28 11.936 20.952 11.936 21.336 11.792C21.744 11.648 21.852 11.372 21.852 10.844V4.724H20.976ZM16.68 0.92C16.032 3.332 14.616 5.876 12.468 7.352C12.648 7.532 12.924 7.844 13.044 8.048C15.336 6.44 16.776 3.776 17.592 1.136L16.68 0.92ZM15.684 8.792V9.572H21.324V8.792H15.684ZM24.744 2.78V3.656H35.256V2.78H24.744ZM28.464 6.584V7.424H34.788V6.584H28.464ZM27.996 10.832V11.684H35.256V10.832H27.996ZM31.176 4.268V11.288H32.076V4.268H31.176ZM28.692 0.92C28.02 3.392 26.616 6.056 24.456 7.58C24.6 7.784 24.828 8.168 24.924 8.408C27.312 6.692 28.776 3.896 29.616 1.148L28.692 0.92ZM26.316 5.864V11.924H27.216V5.864H26.316ZM41.772 3.596H45.744V4.58H41.772V3.596ZM41.772 1.976H45.744V2.948H41.772V1.976ZM40.908 1.292V5.264H46.644V1.292H40.908ZM40.164 6.092V6.848H47.22V6.092H40.164ZM39.888 7.88V8.672H47.436V7.88H39.888ZM44.736 6.752V10.952C44.736 11.108 44.688 11.156 44.496 11.168C44.316 11.18 43.716 11.18 43.032 11.156C43.152 11.396 43.296 11.732 43.332 11.972C44.232 11.972 44.808 11.972 45.168 11.828C45.528 11.696 45.636 11.456 45.636 10.976V6.752H44.736ZM40.932 9.284C41.472 9.812 42.12 10.556 42.408 11.036L43.092 10.532C42.78 10.064 42.12 9.356 41.568 8.852L40.932 9.284ZM39.228 3.596C38.508 4.844 37.344 6.08 36.252 6.872C36.408 7.076 36.66 7.556 36.732 7.736C37.92 6.8 39.204 5.348 40.02 3.92L39.228 3.596ZM39 0.956C38.484 1.808 37.404 2.804 36.444 3.428C36.6 3.608 36.828 3.956 36.924 4.16C37.992 3.452 39.144 2.324 39.864 1.292L39 0.956ZM38.148 5.72V11.96H39.024V4.892L38.988 4.868L38.148 5.72ZM48.6 1.712V2.528H54.756V1.712H48.6ZM48.96 7.424V8.24H54.408V7.424H48.96ZM51.252 5.996V10.832L52.14 10.7V5.996H51.252ZM48.468 10.7L48.612 11.6C50.208 11.384 52.572 11.048 54.804 10.736L54.78 9.896C52.464 10.208 50.028 10.532 48.468 10.7ZM48.576 4.976L48.648 5.828C50.076 5.744 52.128 5.636 54.096 5.516L54.12 4.724C52.056 4.832 49.944 4.928 48.576 4.976ZM52.404 3.512C53.124 4.364 53.928 5.528 54.276 6.26L54.996 5.828C54.648 5.108 53.808 3.98 53.076 3.14L52.404 3.512ZM50.676 2.144C50.412 3.092 49.896 4.496 49.476 5.348L50.268 5.54C50.712 4.712 51.228 3.392 51.648 2.336L50.676 2.144ZM55.284 2.372V9.02H56.148V2.372H55.284ZM58.116 1.268V10.76C58.116 10.976 58.056 11.036 57.84 11.048C57.6 11.048 56.856 11.06 56.052 11.024C56.184 11.3 56.316 11.72 56.364 11.972C57.336 11.972 58.068 11.948 58.464 11.792C58.86 11.648 59.004 11.372 59.004 10.748V1.268H58.116ZM60.3457 8.5625L61.3711 8.42188C61.3984 9.07812 61.5215 9.52734 61.7402 9.76953C61.959 10.0117 62.2617 10.1328 62.6484 10.1328C62.9336 10.1328 63.1797 10.0684 63.3867 9.93945C63.5938 9.80664 63.7363 9.62891 63.8145 9.40625C63.8926 9.17969 63.9316 8.82031 63.9316 8.32812V2.41016H65.0684V8.26367C65.0684 8.98242 64.9805 9.53906 64.8047 9.93359C64.6328 10.3281 64.3574 10.6289 63.9785 10.8359C63.6035 11.043 63.1621 11.1465 62.6543 11.1465C61.9004 11.1465 61.3223 10.9297 60.9199 10.4961C60.5215 10.0625 60.3301 9.41797 60.3457 8.5625ZM70.8691 11V10.0859C70.3848 10.7891 69.7266 11.1406 68.8945 11.1406C68.5273 11.1406 68.1836 11.0703 67.8633 10.9297C67.5469 10.7891 67.3105 10.6133 67.1543 10.4023C67.002 10.1875 66.8945 9.92578 66.832 9.61719C66.7891 9.41016 66.7676 9.08203 66.7676 8.63281V4.77734H67.8223V8.22852C67.8223 8.7793 67.8438 9.15039 67.8867 9.3418C67.9531 9.61914 68.0938 9.83789 68.3086 9.99805C68.5234 10.1543 68.7891 10.2324 69.1055 10.2324C69.4219 10.2324 69.7188 10.1523 69.9961 9.99219C70.2734 9.82812 70.4688 9.60742 70.582 9.33008C70.6992 9.04883 70.7578 8.64258 70.7578 8.11133V4.77734H71.8125V11H70.8691ZM73.0488 9.14258L74.0918 8.97852C74.1504 9.39648 74.3125 9.7168 74.5781 9.93945C74.8477 10.1621 75.2227 10.2734 75.7031 10.2734C76.1875 10.2734 76.5469 10.1758 76.7812 9.98047C77.0156 9.78125 77.1328 9.54883 77.1328 9.2832C77.1328 9.04492 77.0293 8.85742 76.8223 8.7207C76.6777 8.62695 76.3184 8.50781 75.7441 8.36328C74.9707 8.16797 74.4336 8 74.1328 7.85938C73.8359 7.71484 73.6094 7.51758 73.4531 7.26758C73.3008 7.01367 73.2246 6.73438 73.2246 6.42969C73.2246 6.15234 73.2871 5.89648 73.4121 5.66211C73.541 5.42383 73.7148 5.22656 73.9336 5.07031C74.0977 4.94922 74.3203 4.84766 74.6016 4.76562C74.8867 4.67969 75.1914 4.63672 75.5156 4.63672C76.0039 4.63672 76.4316 4.70703 76.7988 4.84766C77.1699 4.98828 77.4434 5.17969 77.6191 5.42188C77.7949 5.66016 77.916 5.98047 77.9824 6.38281L76.9512 6.52344C76.9043 6.20312 76.7676 5.95312 76.541 5.77344C76.3184 5.59375 76.002 5.50391 75.5918 5.50391C75.1074 5.50391 74.7617 5.58398 74.5547 5.74414C74.3477 5.9043 74.2441 6.0918 74.2441 6.30664C74.2441 6.44336 74.2871 6.56641 74.373 6.67578C74.459 6.78906 74.5938 6.88281 74.7773 6.95703C74.8828 6.99609 75.1934 7.08594 75.709 7.22656C76.4551 7.42578 76.9746 7.58984 77.2676 7.71875C77.5645 7.84375 77.7969 8.02734 77.9648 8.26953C78.1328 8.51172 78.2168 8.8125 78.2168 9.17188C78.2168 9.52344 78.1133 9.85547 77.9062 10.168C77.7031 10.4766 77.4082 10.7168 77.0215 10.8887C76.6348 11.0566 76.1973 11.1406 75.709 11.1406C74.9004 11.1406 74.2832 10.9727 73.8574 10.6367C73.4355 10.3008 73.166 9.80273 73.0488 9.14258ZM81.7734 10.0566L81.9258 10.9883C81.6289 11.0508 81.3633 11.082 81.1289 11.082C80.7461 11.082 80.4492 11.0215 80.2383 10.9004C80.0273 10.7793 79.8789 10.6211 79.793 10.4258C79.707 10.2266 79.6641 9.81055 79.6641 9.17773V5.59766H78.8906V4.77734H79.6641V3.23633L80.7129 2.60352V4.77734H81.7734V5.59766H80.7129V9.23633C80.7129 9.53711 80.7305 9.73047 80.7656 9.81641C80.8047 9.90234 80.8652 9.9707 80.9473 10.0215C81.0332 10.0723 81.1543 10.0977 81.3105 10.0977C81.4277 10.0977 81.582 10.084 81.7734 10.0566ZM83.0625 11V5.59766H82.1309V4.77734H83.0625V4.11523C83.0625 3.69727 83.0996 3.38672 83.1738 3.18359C83.2754 2.91016 83.4531 2.68945 83.707 2.52148C83.9648 2.34961 84.3242 2.26367 84.7852 2.26367C85.082 2.26367 85.4102 2.29883 85.7695 2.36914L85.6113 3.28906C85.3926 3.25 85.1855 3.23047 84.9902 3.23047C84.6699 3.23047 84.4434 3.29883 84.3105 3.43555C84.1777 3.57227 84.1113 3.82812 84.1113 4.20312V4.77734H85.3242V5.59766H84.1113V11H83.0625ZM85.7578 7.88867C85.7578 6.73633 86.0781 5.88281 86.7188 5.32812C87.2539 4.86719 87.9062 4.63672 88.6758 4.63672C89.5312 4.63672 90.2305 4.91797 90.7734 5.48047C91.3164 6.03906 91.5879 6.8125 91.5879 7.80078C91.5879 8.60156 91.4668 9.23242 91.2246 9.69336C90.9863 10.1504 90.6367 10.5059 90.1758 10.7598C89.7188 11.0137 89.2188 11.1406 88.6758 11.1406C87.8047 11.1406 87.0996 10.8613 86.5605 10.3027C86.0254 9.74414 85.7578 8.93945 85.7578 7.88867ZM86.8418 7.88867C86.8418 8.68555 87.0156 9.2832 87.3633 9.68164C87.7109 10.0762 88.1484 10.2734 88.6758 10.2734C89.1992 10.2734 89.6348 10.0742 89.9824 9.67578C90.3301 9.27734 90.5039 8.66992 90.5039 7.85352C90.5039 7.08398 90.3281 6.50195 89.9766 6.10742C89.6289 5.70898 89.1953 5.50977 88.6758 5.50977C88.1484 5.50977 87.7109 5.70703 87.3633 6.10156C87.0156 6.49609 86.8418 7.0918 86.8418 7.88867ZM92.8184 11V4.77734H93.7676V5.7207C94.0098 5.2793 94.2324 4.98828 94.4355 4.84766C94.6426 4.70703 94.8691 4.63672 95.1152 4.63672C95.4707 4.63672 95.832 4.75 96.1992 4.97656L95.8359 5.95508C95.5781 5.80273 95.3203 5.72656 95.0625 5.72656C94.832 5.72656 94.625 5.79688 94.4414 5.9375C94.2578 6.07422 94.127 6.26562 94.0488 6.51172C93.9316 6.88672 93.873 7.29688 93.873 7.74219V11H92.8184ZM101.086 8.99609L102.176 9.13086C102.004 9.76758 101.686 10.2617 101.221 10.6133C100.756 10.9648 100.162 11.1406 99.4395 11.1406C98.5293 11.1406 97.8066 10.8613 97.2715 10.3027C96.7402 9.74023 96.4746 8.95312 96.4746 7.94141C96.4746 6.89453 96.7441 6.08203 97.2832 5.50391C97.8223 4.92578 98.5215 4.63672 99.3809 4.63672C100.213 4.63672 100.893 4.91992 101.42 5.48633C101.947 6.05273 102.211 6.84961 102.211 7.87695C102.211 7.93945 102.209 8.0332 102.205 8.1582H97.5645C97.6035 8.8418 97.7969 9.36523 98.1445 9.72852C98.4922 10.0918 98.9258 10.2734 99.4453 10.2734C99.832 10.2734 100.162 10.1719 100.436 9.96875C100.709 9.76562 100.926 9.44141 101.086 8.99609ZM97.623 7.29102H101.098C101.051 6.76758 100.918 6.375 100.699 6.11328C100.363 5.70703 99.9277 5.50391 99.3926 5.50391C98.9082 5.50391 98.5 5.66602 98.168 5.99023C97.8398 6.31445 97.6582 6.74805 97.623 7.29102ZM102.803 11L105.076 7.76562L102.973 4.77734H104.291L105.246 6.23633C105.426 6.51367 105.57 6.74609 105.68 6.93359C105.852 6.67578 106.01 6.44727 106.154 6.24805L107.203 4.77734H108.463L106.312 7.70703L108.627 11H107.332L106.055 9.06641L105.715 8.54492L104.08 11H102.803ZM110.167 1.664V2.492H112.771V7.988H110.167V8.828H113.611V1.664H110.167ZM110.179 4.772V5.588H113.131V4.772H110.179ZM115.243 1.436V2.276H119.287V1.436H115.243ZM115.243 4.352V5.18H119.287V4.352H115.243ZM115.171 7.304V8.12H119.263V7.304H115.171ZM109.675 1.664V9.944H110.515V1.664H109.675ZM118.951 1.436V10.772C118.951 10.988 118.879 11.06 118.663 11.072C118.447 11.072 117.691 11.084 116.923 11.06C117.055 11.3 117.199 11.696 117.247 11.936C118.279 11.936 118.939 11.924 119.323 11.78C119.707 11.624 119.851 11.348 119.851 10.784V1.436H118.951ZM114.715 1.436V5.72C114.715 7.592 114.511 9.872 112.483 11.432C112.675 11.552 113.011 11.864 113.143 12.044C115.303 10.388 115.603 7.736 115.603 5.72V1.436H114.715ZM126.967 6.728V7.424H131.659V6.728H126.967ZM126.967 8.696V9.404H131.659V8.696H126.967ZM126.979 10.676V11.444H132.223V10.676H126.979ZM125.611 2.156V4.208H126.391V2.936H131.359V4.208H132.163V2.156H125.611ZM128.923 5.3V11.084H129.763V5.3H128.923ZM127.291 4.724H127.219L126.439 5.54V11.96H127.291V5.504H131.863V4.724H127.291ZM128.419 0.92C127.831 3.128 126.727 4.988 125.143 6.14C125.335 6.296 125.659 6.632 125.791 6.8C127.411 5.516 128.599 3.524 129.283 1.088L128.419 0.92ZM129.667 3.296C129.523 3.824 129.211 4.58 128.959 5.06L129.655 5.264C129.907 4.808 130.231 4.136 130.519 3.512L129.667 3.296ZM121.339 1.736V2.564H125.575V1.736H121.339ZM122.551 5.24V6.044H124.471V9.704H122.551V10.496H125.263V5.24H122.551ZM122.755 2.132C122.467 4.388 121.951 6.512 120.991 7.868C121.159 8.072 121.411 8.516 121.507 8.72C122.623 7.148 123.247 4.784 123.619 2.264L122.755 2.132ZM122.179 5.24V11.432H122.935V5.24H122.179ZM134.911 8.252V11.996H135.787V8.888H141.727V11.972H142.639V8.252H134.911ZM135.367 9.608V10.208H142.075V9.608H135.367ZM135.367 10.976V11.6H142.075V10.976H135.367ZM138.211 0.908V7.424H139.123V0.908H138.211ZM134.659 1.748V2.348H141.679V4.436H134.515V5.024H142.579V1.748H134.659ZM133.387 3.044V3.716H144.043V3.044H133.387ZM134.191 5.696V6.308H143.239V5.696H134.191ZM133.363 7.016V7.688H144.055V7.016H133.363Z"/>
  </symbol>
  <symbol id="svg-copy-zh-2" viewBox="0 15 144 11">
    <path d="M4.26 20.26V21.004H7.548V20.26H4.26ZM4.26 22.348V23.092H7.584V22.348H4.26ZM1.788 24.496V25.336H10.26V24.496H1.788ZM1.236 18.088V25.972H2.112V18.928H9.84V25.972H10.752V18.088H1.236ZM3.84 18.616V24.88H4.656V18.616H3.84ZM7.2 18.616V24.844H8.028V18.616H7.2ZM5.4 16.12C5.316 16.816 5.076 17.812 4.884 18.46L5.7 18.688C5.94 18.088 6.192 17.164 6.444 16.36L5.4 16.12ZM0.696 15.724V16.588H11.328V15.724H0.696ZM14.964 17.656V18.448H21.072V17.656H14.964ZM15.576 19.708V24.4H16.416V19.708H15.576ZM16.032 19.708V20.464H19.584V22.744H16.032V23.524H20.424V19.708H16.032ZM13.044 15.544V25.984H13.92V16.408H22.632V15.544H13.044ZM22.08 15.544V24.82C22.08 25.024 22.008 25.096 21.792 25.108C21.588 25.12 20.88 25.12 20.124 25.096C20.268 25.336 20.412 25.732 20.448 25.972C21.492 25.984 22.092 25.96 22.452 25.804C22.824 25.66 22.968 25.384 22.968 24.82V15.544H22.08ZM27.084 21.916V21.1H32.964V21.916H27.084ZM27.084 20.5V19.708H32.964V20.5H27.084ZM33.864 19.084H26.22V22.528H33.864V19.084ZM32.868 16.552L31.944 16.348C31.8 16.732 31.524 17.296 31.308 17.668L32.112 17.884C32.34 17.524 32.604 17.056 32.868 16.552ZM28.032 16.36L27.216 16.552C27.456 16.96 27.672 17.5 27.756 17.884L28.608 17.656C28.524 17.308 28.284 16.768 28.032 16.36ZM30.432 14.92H29.52V16.228H30.432V14.92ZM35.184 17.752H24.864V18.484H35.184V17.752ZM34.56 15.724H25.404V16.456H34.56V15.724ZM26.952 23.416L26.208 23.128C25.896 23.932 25.332 24.748 24.504 25.216L25.2 25.696C26.088 25.168 26.616 24.28 26.952 23.416ZM33.372 23.032L32.688 23.44C33.504 24.064 34.392 24.976 34.788 25.612L35.52 25.156C35.112 24.508 34.188 23.632 33.372 23.032ZM29.34 22.516L28.836 22.996C29.52 23.368 30.36 23.932 30.792 24.316L31.32 23.776C30.876 23.392 30.012 22.864 29.34 22.516ZM28.44 24.772V23.224H27.564V24.772C27.564 25.636 27.876 25.864 29.112 25.864C29.364 25.864 31.116 25.864 31.38 25.864C32.352 25.864 32.628 25.54 32.724 24.196C32.496 24.136 32.136 24.016 31.944 23.896C31.884 24.952 31.812 25.096 31.296 25.096C30.912 25.096 29.46 25.096 29.172 25.096C28.548 25.096 28.44 25.048 28.44 24.772ZM37.572 16.852V17.656H40.38V23.884H37.572V24.7H41.22V16.852H37.572ZM37.032 16.852V25.66H37.872V16.852H37.032ZM37.512 20.188V20.992H40.824V20.188H37.512ZM38.868 14.896C38.772 15.52 38.544 16.432 38.34 17.008L39.06 17.188C39.3 16.648 39.6 15.82 39.84 15.076L38.868 14.896ZM42.924 16.816V17.656H46.608V16.816H42.924ZM46.296 16.816V17.008C46.128 22.3 45.936 24.292 45.54 24.724C45.408 24.88 45.264 24.916 45.024 24.916C44.748 24.916 44.028 24.904 43.248 24.844C43.416 25.084 43.524 25.456 43.548 25.72C44.22 25.756 44.928 25.78 45.336 25.732C45.756 25.696 46.032 25.588 46.296 25.24C46.776 24.652 46.944 22.792 47.136 17.284C47.136 17.152 47.136 16.816 47.136 16.816H46.296ZM43.176 14.872C42.792 16.54 42.132 18.196 41.316 19.252C41.532 19.372 41.904 19.624 42.06 19.768C42.888 18.628 43.596 16.864 44.04 15.076L43.176 14.872ZM42.624 19.936C43.284 20.812 44.088 22 44.448 22.732L45.216 22.252C44.832 21.544 44.004 20.38 43.32 19.528L42.624 19.936ZM53.124 21.796V22.492H57.9V21.796H53.124ZM52.008 15.868V16.552H59.136V15.868H52.008ZM52.296 17.32V17.98H58.836V17.32H52.296ZM51.636 18.82V19.504H59.484V18.82H51.636ZM53.124 23.404V24.076H57.936V23.404H53.124ZM52.512 20.212V25.948H53.352V20.908H57.9V20.212H52.512ZM57.684 20.212V24.94C57.684 25.096 57.636 25.144 57.468 25.144C57.3 25.156 56.724 25.156 56.124 25.132C56.232 25.36 56.352 25.696 56.388 25.912C57.24 25.924 57.78 25.912 58.116 25.78C58.452 25.648 58.548 25.408 58.548 24.952V20.212H57.684ZM55.08 14.92V19.036H55.968V14.92H55.08ZM49.812 14.92V25.948H50.64V14.92H49.812ZM48.864 17.236C48.792 18.184 48.6 19.504 48.324 20.332L49.02 20.56C49.296 19.66 49.5 18.268 49.536 17.332L48.864 17.236ZM50.748 16.924C50.988 17.488 51.264 18.232 51.384 18.688L52.008 18.388C51.9 17.944 51.612 17.236 51.348 16.684L50.748 16.924ZM61.224 15.676C62.016 15.988 62.976 16.504 63.456 16.924L63.972 16.168C63.48 15.772 62.496 15.28 61.716 15.004L61.224 15.676ZM60.456 19.024C61.308 19.312 62.364 19.816 62.88 20.2L63.372 19.432C62.832 19.048 61.764 18.58 60.924 18.34L60.456 19.024ZM60.924 25.252L61.68 25.828C62.448 24.688 63.336 23.128 64.032 21.808L63.384 21.256C62.628 22.66 61.608 24.304 60.924 25.252ZM68.16 20.296V24.628C68.16 25.576 68.376 25.864 69.288 25.864C69.456 25.864 70.272 25.864 70.452 25.864C71.256 25.864 71.484 25.384 71.568 23.596C71.328 23.536 70.956 23.392 70.776 23.236C70.74 24.784 70.68 25.06 70.368 25.06C70.2 25.06 69.552 25.06 69.42 25.06C69.108 25.06 69.048 24.988 69.048 24.628V20.296H68.16ZM65.472 16.312H69.936V19.54H65.472V16.312ZM64.596 15.472V20.38H70.848V15.472H64.596ZM65.88 20.284C65.76 22.816 65.46 24.4 63.192 25.252C63.396 25.42 63.66 25.756 63.756 25.972C66.216 24.976 66.624 23.14 66.756 20.284H65.88ZM72.66 15.808V16.72H83.34V15.808H72.66ZM77.28 16.528V25.948H78.228V16.528H77.28ZM77.808 19.372C79.26 20.116 81.132 21.256 82.056 22L82.692 21.184C81.732 20.464 79.836 19.372 78.396 18.676L77.808 19.372ZM89.772 14.92L89.832 24.7C89.844 24.952 89.748 25.024 89.496 25.036C89.244 25.036 88.356 25.048 87.456 25.036C87.6 25.288 87.768 25.72 87.816 25.984C88.968 25.972 89.748 25.948 90.168 25.804C90.612 25.636 90.78 25.36 90.768 24.688L90.708 14.908L89.772 14.92ZM84.792 17.26V18.148H95.244V17.26H84.792ZM93.324 18.76C91.476 20.692 87.828 22.42 84.396 23.296C84.552 23.5 84.792 23.896 84.9 24.112C88.428 23.152 91.98 21.412 94.188 19.3L93.324 18.76ZM98.484 14.92C98.196 15.796 97.632 17.056 97.176 17.824L97.944 18.052C98.424 17.296 98.988 16.132 99.42 15.136L98.484 14.92ZM96.468 17.464L96.552 18.34C97.86 18.268 99.72 18.172 101.508 18.064L101.52 17.26C99.636 17.344 97.728 17.428 96.468 17.464ZM97.2 19.204V25.948H98.04V19.972H101.004V19.204H97.2ZM100.596 19.204V24.916C100.596 25.072 100.548 25.108 100.392 25.108C100.224 25.12 99.708 25.132 99.144 25.108C99.264 25.336 99.396 25.696 99.444 25.936C100.2 25.936 100.728 25.924 101.064 25.78C101.388 25.636 101.484 25.384 101.484 24.928V19.204H100.596ZM97.596 20.992V21.7H101.064V20.992H97.596ZM97.596 22.792V23.512H101.064V22.792H97.596ZM102.612 14.944V18.928C102.612 19.924 102.912 20.2 104.064 20.2C104.304 20.2 105.876 20.2 106.128 20.2C107.1 20.2 107.364 19.804 107.472 18.34C107.208 18.28 106.848 18.148 106.656 17.992C106.608 19.18 106.524 19.384 106.056 19.384C105.708 19.384 104.4 19.384 104.148 19.384C103.596 19.384 103.5 19.3 103.5 18.916V14.944H102.612ZM106.284 15.832C105.468 16.252 104.1 16.78 102.912 17.152C103.02 17.332 103.14 17.596 103.188 17.788C104.424 17.44 105.864 16.972 106.884 16.492L106.284 15.832ZM102.612 20.524V24.592C102.612 25.588 102.924 25.864 104.088 25.864C104.34 25.864 105.96 25.864 106.224 25.864C107.232 25.864 107.496 25.432 107.616 23.812C107.364 23.764 107.004 23.62 106.8 23.476C106.74 24.832 106.668 25.06 106.152 25.06C105.792 25.06 104.436 25.06 104.184 25.06C103.608 25.06 103.5 24.988 103.5 24.58V20.524H102.612ZM106.428 21.184C105.612 21.712 104.16 22.264 102.912 22.624C103.008 22.804 103.14 23.092 103.188 23.272C104.484 22.924 106.02 22.432 107.028 21.856L106.428 21.184ZM99.984 16.06C100.62 16.912 101.268 18.064 101.52 18.796L102.312 18.448C102.036 17.704 101.364 16.6 100.728 15.76L99.984 16.06ZM114.624 21.868L114.132 22.564H118.08V21.868H114.624ZM117.804 21.868V22.012C116.928 23.86 114.672 24.796 112.128 25.204C112.284 25.384 112.512 25.768 112.596 25.984C115.236 25.468 117.636 24.376 118.704 22.144L118.176 21.832L117.996 21.868H117.804ZM114.54 22.348L113.784 22.588C114.804 24.364 116.736 25.504 119.124 25.972C119.244 25.732 119.484 25.372 119.688 25.18C117.36 24.832 115.428 23.836 114.54 22.348ZM114.36 19.672H117.864V20.488H114.36V19.672ZM114.36 18.292H117.864V19.084H114.36V18.292ZM113.532 17.668V21.1H118.716V17.668H113.532ZM113.88 16.132V16.9H119.448V16.132H113.88ZM114.156 14.92C113.832 15.856 113.208 17.056 112.296 17.968C112.5 18.064 112.788 18.304 112.944 18.484C113.928 17.452 114.564 16.18 115.02 15.064L114.156 14.92ZM115.08 20.836C114.552 21.676 113.568 22.66 112.188 23.38C112.38 23.512 112.656 23.776 112.788 23.968C114.252 23.128 115.284 22.06 115.968 21.004L115.08 20.836ZM110.16 20.812V25.972H110.976V19.828L110.16 20.812ZM108.636 17.212V18.004H111.9V17.212H108.636ZM110.124 14.992V17.644H110.94V14.992H110.124ZM110.868 19.888L110.412 20.272C110.784 20.728 111.732 22.024 112.044 22.588L112.572 21.976C112.32 21.628 111.18 20.224 110.868 19.888ZM111.588 17.212V17.392C111 19.228 109.644 21.172 108.348 22.216C108.492 22.372 108.72 22.768 108.816 22.984C110.196 21.784 111.66 19.66 112.38 17.464L111.912 17.164L111.756 17.212H111.588ZM112.272 19.396C112.056 19.84 111.648 20.512 111.36 20.92L111.78 21.244C112.092 20.872 112.476 20.296 112.8 19.78L112.272 19.396ZM125.544 20.764V21.904H126.444V20.764H125.544ZM125.532 21.748C124.44 22.672 122.304 23.44 120.456 23.776C120.624 23.944 120.852 24.244 120.96 24.448C122.832 24.052 125.028 23.152 126.24 22.084L125.532 21.748ZM126.54 21.712L125.796 21.892C126.66 24.1 128.388 25.456 131.016 25.996C131.136 25.768 131.352 25.432 131.532 25.264C129.024 24.844 127.296 23.62 126.54 21.712ZM130.092 22.324C129.468 22.78 128.4 23.38 127.62 23.74L128.184 24.196C128.976 23.848 129.984 23.332 130.752 22.792L130.092 22.324ZM122.112 25.12L122.268 25.876C123.54 25.672 125.328 25.384 127.032 25.108L126.996 24.376C125.184 24.664 123.324 24.952 122.112 25.12ZM120.66 21.484V22.216H131.34V21.484H120.66ZM127.308 15.388V19.444H128.124V15.388H127.308ZM130.044 15.04V20.044C130.044 20.188 130.008 20.236 129.828 20.248C129.648 20.26 129.06 20.26 128.4 20.236C128.52 20.452 128.652 20.764 128.688 20.992C129.54 20.992 130.092 20.98 130.44 20.86C130.776 20.728 130.884 20.512 130.884 20.056V15.04H130.044ZM123.312 14.92V21.016H124.104V14.92H123.312ZM125.568 18.448V19.924C125.568 20.02 125.532 20.044 125.424 20.056C125.328 20.068 125.016 20.068 124.62 20.056C124.716 20.224 124.836 20.44 124.872 20.632C125.4 20.632 125.76 20.632 126.012 20.524C126.264 20.416 126.324 20.248 126.324 19.912V18.448H125.568ZM121.212 18.448V20.704H121.932V19.06H125.916V18.448H121.212ZM120.612 17.152V17.812H126.672V17.152H120.612ZM121.86 15.784L121.596 16.42H126.252V15.784H121.86ZM121.752 14.968C121.536 15.616 121.2 16.3 120.78 16.792C120.96 16.876 121.284 17.032 121.428 17.14C121.812 16.636 122.208 15.856 122.46 15.136L121.752 14.968ZM123.36 23.452V25.432H124.224V23.128L123.816 22.984L123.36 23.452ZM136.056 18.628V19.504H138.36V18.628H136.056ZM135.732 14.932V24.664L136.656 24.544V14.932H135.732ZM133.5 17.356V25L134.376 24.88V17.356H133.5ZM132.528 24.844L132.684 25.804C134.196 25.516 136.38 25.12 138.432 24.736L138.36 23.836C136.236 24.22 133.98 24.616 132.528 24.844ZM142.488 17.548C141.732 18.244 140.412 19.084 139.224 19.684C139.344 19.876 139.512 20.188 139.572 20.38C140.832 19.78 142.236 19.024 143.232 18.268L142.488 17.548ZM138.96 14.932V23.932C138.96 25.228 139.272 25.576 140.388 25.576C140.616 25.576 141.972 25.576 142.212 25.576C143.292 25.576 143.532 24.904 143.64 22.96C143.388 22.9 143.016 22.744 142.776 22.564C142.716 24.268 142.644 24.7 142.14 24.7C141.852 24.7 140.736 24.7 140.496 24.7C139.992 24.7 139.908 24.58 139.908 23.956V14.932H138.96Z"/>
  </symbol>
  <symbol id="svg-copy-zh-3" viewBox="0 29 144 11">
    <path d="M7.62 33.228V34.764H8.4V33.228H7.62ZM9.048 30.66C8.916 31.176 8.628 31.944 8.412 32.424L8.964 32.628C9.204 32.184 9.504 31.488 9.78 30.9L9.048 30.66ZM6.372 30.948C6.612 31.464 6.84 32.172 6.9 32.616L7.524 32.388C7.452 31.956 7.224 31.26 6.948 30.744L6.372 30.948ZM4.956 29.496V39.984H5.772V30.3H10.704V29.496H4.956ZM10.368 29.496V38.952C10.368 39.12 10.32 39.168 10.152 39.18C9.996 39.18 9.456 39.192 8.916 39.168C9.024 39.396 9.144 39.756 9.168 39.972C9.948 39.972 10.464 39.948 10.776 39.828C11.1 39.684 11.196 39.444 11.196 38.952V29.496H10.368ZM6.228 32.592V33.3H9.9V32.592H6.228ZM6.132 34.56V35.268H9.972V34.56H6.132ZM6.636 34.956V36.96C6.636 37.824 6.828 38.112 7.68 38.112C7.836 38.112 8.868 38.112 9.084 38.112C9.372 38.112 9.648 38.112 9.804 38.052C9.78 37.872 9.756 37.536 9.732 37.332C9.576 37.368 9.252 37.38 9.072 37.38C8.868 37.38 7.896 37.38 7.68 37.38C7.452 37.38 7.416 37.284 7.416 36.972V34.956H6.636ZM2.352 28.932C2.04 29.724 1.476 30.9 1.044 31.596L1.656 31.86C2.124 31.2 2.688 30.12 3.144 29.232L2.352 28.932ZM3.696 30.3C3.036 31.56 1.908 33.348 1.008 34.416L1.56 34.728C2.46 33.684 3.624 31.98 4.452 30.648L3.696 30.3ZM0.432 31.428C1.068 32.04 1.788 32.892 2.088 33.468L2.604 32.796C2.292 32.244 1.56 31.44 0.912 30.852L0.432 31.428ZM3.228 33.048C3.708 33.84 4.176 34.908 4.332 35.58L5.04 35.256C4.872 34.596 4.38 33.564 3.876 32.772L3.228 33.048ZM0.336 34.236L0.432 35.04C1.524 34.968 2.964 34.884 4.392 34.788V34.032C2.88 34.116 1.38 34.188 0.336 34.236ZM3.54 35.952C3.828 36.648 4.08 37.56 4.152 38.148L4.848 37.932C4.764 37.344 4.512 36.444 4.2 35.748L3.54 35.952ZM1.056 35.784C0.924 36.828 0.696 37.908 0.312 38.64C0.492 38.724 0.852 38.88 0.996 38.976C1.38 38.208 1.656 37.056 1.812 35.916L1.056 35.784ZM2.328 34.584V39.96H3.12V34.584H2.328ZM12.684 31.308V32.16H17.316V31.308H12.684ZM14.592 29.076V31.74H15.444V29.076H14.592ZM20.076 31.416V32.268H23.52V31.416H20.076ZM18.012 38.532V39.384H22.548V38.532H18.012ZM19.62 28.92V35.04H20.532V28.92H19.62ZM17.592 34.668V39.948H18.468V35.508H22.092V39.9H23.004V34.668H17.592ZM12.456 37.704L12.648 38.604C13.968 38.304 15.792 37.872 17.496 37.464L17.4 36.636C15.588 37.056 13.692 37.464 12.456 37.704ZM13.14 32.784C13.416 34.116 13.632 35.856 13.62 36.984L14.412 36.852C14.388 35.688 14.184 33.984 13.872 32.652L13.14 32.784ZM15.936 32.52C15.816 33.924 15.528 35.94 15.252 37.128L15.996 37.296C16.284 36.12 16.608 34.188 16.824 32.688L15.936 32.52ZM29.64 32.808V33.708H34.572V32.808H29.64ZM24.612 38.496V39.396H35.388V38.496H24.612ZM29.124 29.1V38.976H30.072V29.1H29.124ZM37.572 30.852V31.656H40.38V37.884H37.572V38.7H41.22V30.852H37.572ZM37.032 30.852V39.66H37.872V30.852H37.032ZM37.512 34.188V34.992H40.824V34.188H37.512ZM38.868 28.896C38.772 29.52 38.544 30.432 38.34 31.008L39.06 31.188C39.3 30.648 39.6 29.82 39.84 29.076L38.868 28.896ZM42.924 30.816V31.656H46.608V30.816H42.924ZM46.296 30.816V31.008C46.128 36.3 45.936 38.292 45.54 38.724C45.408 38.88 45.264 38.916 45.024 38.916C44.748 38.916 44.028 38.904 43.248 38.844C43.416 39.084 43.524 39.456 43.548 39.72C44.22 39.756 44.928 39.78 45.336 39.732C45.756 39.696 46.032 39.588 46.296 39.24C46.776 38.652 46.944 36.792 47.136 31.284C47.136 31.152 47.136 30.816 47.136 30.816H46.296ZM43.176 28.872C42.792 30.54 42.132 32.196 41.316 33.252C41.532 33.372 41.904 33.624 42.06 33.768C42.888 32.628 43.596 30.864 44.04 29.076L43.176 28.872ZM42.624 33.936C43.284 34.812 44.088 36 44.448 36.732L45.216 36.252C44.832 35.544 44.004 34.38 43.32 33.528L42.624 33.936ZM58.356 29.22C56.88 29.76 54.276 30.24 52.044 30.528C52.14 30.744 52.272 31.08 52.308 31.296C54.588 31.02 57.276 30.576 59.028 29.976L58.356 29.22ZM51.636 34.068V34.932H59.52V34.068H51.636ZM52.104 38.64V39.504H59.328V38.64H52.104ZM55.212 30.552V38.88H56.112V30.552H55.212ZM50.22 32.112V39.96H51.12V31.248L51.108 31.224L50.22 32.112ZM51.528 28.932C50.784 30.816 49.548 32.652 48.252 33.828C48.432 34.056 48.708 34.524 48.804 34.74C50.208 33.372 51.552 31.296 52.404 29.208L51.528 28.932ZM64.068 30.096V30.96H71.544V30.096H64.068ZM69.768 30.408V38.724C69.768 38.964 69.696 39.024 69.444 39.036C69.168 39.048 68.292 39.06 67.332 39.024C67.464 39.288 67.608 39.696 67.656 39.948C68.832 39.96 69.624 39.936 70.068 39.792C70.5 39.636 70.668 39.372 70.668 38.724V30.408H69.768ZM64.428 32.652V37.644H65.268V32.652H64.428ZM64.812 32.652V33.456H67.344V36H64.812V36.804H68.196V32.652H64.812ZM63.192 28.932C62.568 30.732 61.548 32.52 60.444 33.672C60.6 33.876 60.864 34.356 60.948 34.56C62.172 33.228 63.324 31.2 64.044 29.196L63.192 28.932ZM62.064 32.064V39.948H62.964V31.2L62.952 31.188L62.064 32.064ZM73.152 29.808C73.992 30.072 75.108 30.504 75.672 30.816L76.068 30.12C75.492 29.82 74.376 29.412 73.548 29.196L73.152 29.808ZM72.552 32.34L72.9 33.132C73.812 32.856 74.94 32.484 76.032 32.136L75.936 31.428C74.688 31.776 73.416 32.136 72.552 32.34ZM77.7 29.808L77.172 30.492H82.524V29.808H77.7ZM82.284 29.808V29.94C82.044 30.444 81.636 31.044 81.252 31.416L81.972 31.668C82.404 31.248 82.848 30.576 83.184 29.952L82.584 29.772L82.428 29.808H82.284ZM79.188 30.048C78.984 31.416 78.336 32.16 76.116 32.532C76.272 32.688 76.464 32.988 76.548 33.18C78.996 32.688 79.764 31.752 80.016 30.048H79.188ZM79.98 30.264L79.248 30.336C79.56 31.596 80.16 32.892 83.004 33.384C83.1 33.156 83.304 32.832 83.472 32.652C80.808 32.268 80.22 31.284 79.98 30.264ZM77.892 28.92C77.58 29.64 76.968 30.468 76.068 31.08C76.284 31.176 76.596 31.368 76.752 31.536C77.688 30.816 78.3 29.928 78.708 29.052L77.892 28.92ZM75.036 35.196H81.084V36.012H75.036V35.196ZM75.036 36.6H81.084V37.44H75.036V36.6ZM75.036 33.792H81.084V34.608H75.036V33.792ZM74.16 33.192V38.04H81.984V33.192H74.16ZM78.996 38.652C80.304 39.084 81.612 39.6 82.368 39.996L83.364 39.54C82.5 39.132 81.048 38.604 79.728 38.196L78.996 38.652ZM76.176 38.172C75.312 38.64 73.872 39.06 72.636 39.324C72.84 39.48 73.152 39.828 73.296 40.008C74.496 39.672 76.02 39.12 76.992 38.544L76.176 38.172ZM89.076 29.532V30.396H93.84V29.532H89.076ZM88.956 33.624V34.476H92.976V33.624H88.956ZM90.588 30.024V32.928C90.588 35.04 90.408 37.464 88.488 39.372C88.704 39.504 89.016 39.804 89.16 39.996C91.236 37.932 91.452 35.28 91.452 32.928V30.024H90.588ZM93.384 29.532C93.396 35.076 93.276 39.468 94.692 39.912C95.304 40.152 95.7 39.732 95.844 37.74C95.7 37.62 95.448 37.32 95.28 37.104C95.244 38.112 95.148 39 95.052 38.976C94.212 38.784 94.248 34.644 94.308 29.532H93.384ZM85.02 32.556V33.276H88.536V32.556H85.02ZM85.056 29.352V30.072H88.488V29.352H85.056ZM85.02 34.164V34.884H88.536V34.164H85.02ZM84.456 30.924V31.668H88.932V30.924H84.456ZM85.416 35.784V36.528H87.744V38.532H85.416V39.288H88.536V35.784H85.416ZM85.008 35.784V39.84H85.788V35.784H85.008ZM100.368 30.816C101.136 31.704 101.916 32.94 102.228 33.768L103.092 33.3C102.744 32.484 101.976 31.296 101.172 30.42L100.368 30.816ZM96.42 37.728L96.744 38.664C98.076 38.088 99.9 37.284 101.568 36.516L101.364 35.64C99.564 36.432 97.644 37.248 96.42 37.728ZM103.62 36.144C104.772 37.32 106.212 38.94 106.884 39.936L107.652 39.228C106.944 38.244 105.456 36.684 104.316 35.556L103.62 36.144ZM105.288 29.544C104.748 34.764 103.476 37.704 99.324 39.216C99.552 39.408 99.912 39.804 100.044 39.996C104.244 38.244 105.648 35.184 106.26 29.64L105.288 29.544ZM97.884 29.58L98.088 37.512L99.012 37.476L98.808 29.544L97.884 29.58ZM112.044 30.588L111.252 30.768C112.368 35.532 114.468 38.736 119.028 39.948C119.172 39.696 119.448 39.3 119.652 39.108C115.2 38.052 113.052 34.968 112.044 30.588ZM109.068 29.568V30.444H115.788V29.568H109.068ZM118.008 32.472V32.64C117.12 36.36 114.372 38.412 111.204 39.18C111.396 39.372 111.612 39.744 111.72 39.972C115.092 39.024 117.936 36.912 118.956 32.676L118.344 32.436L118.176 32.472H118.008ZM115.584 29.568V29.676C115.38 30.636 114.948 32.484 114.552 33.816L115.488 33.948C115.86 32.628 116.28 30.888 116.544 29.652L115.86 29.52L115.692 29.568H115.584ZM115.416 32.472L115.224 33.324H118.212V32.472H115.416ZM111.192 29.844V31.464C111.192 33.6 111 36.6 108.42 38.988C108.624 39.156 108.936 39.516 109.068 39.744C111.864 37.128 112.104 33.852 112.104 31.452V29.844H111.192ZM123.84 30.252V31.092H131.544V30.252H123.84ZM125.028 33.024H130.272V34.824H125.028V33.024ZM124.2 32.256V35.592H131.148V32.256H124.2ZM124.944 35.832L124.2 36.084C125.472 38.28 127.932 39.528 131.112 39.984C131.232 39.732 131.46 39.372 131.652 39.18C128.532 38.832 126.072 37.716 124.944 35.832ZM127.176 28.968V34.272C127.176 36.3 126.972 38.352 123.408 39.252C123.588 39.444 123.84 39.804 123.948 40.008C127.668 38.904 128.064 36.6 128.064 34.284V28.968H127.176ZM123.324 28.896C122.628 30.72 121.452 32.508 120.24 33.648C120.408 33.864 120.66 34.332 120.744 34.536C122.076 33.204 123.36 31.188 124.176 29.16L123.324 28.896ZM122.064 32.04V40.02H122.928V31.2L122.916 31.188L122.064 32.04ZM134.34 29.772V30.636H142.104V29.772H134.34ZM134.34 32.568V33.42H142.092V32.568H134.34ZM134.28 35.436V36.288H142.116V35.436H134.28ZM133.836 29.772V34.116C133.836 35.808 133.704 37.944 132.384 39.432C132.576 39.552 132.936 39.852 133.08 40.032C134.508 38.436 134.724 35.952 134.724 34.128V29.772H133.836ZM141.744 29.772V38.736C141.744 38.964 141.66 39.036 141.432 39.048C141.204 39.048 140.388 39.06 139.536 39.024C139.668 39.264 139.812 39.66 139.848 39.9C140.988 39.912 141.684 39.9 142.092 39.756C142.488 39.6 142.632 39.324 142.632 38.736V29.772H141.744ZM137.604 30.096V39.852H138.516V30.096H137.604Z"/>
  </symbol>
  <symbol id="svg-copy-zh-4" viewBox="0 43 114 11">
    <path d="M0.345703 50.5625L1.37109 50.4219C1.39844 51.0781 1.52148 51.5273 1.74023 51.7695C1.95898 52.0117 2.26172 52.1328 2.64844 52.1328C2.93359 52.1328 3.17969 52.0684 3.38672 51.9395C3.59375 51.8066 3.73633 51.6289 3.81445 51.4062C3.89258 51.1797 3.93164 50.8203 3.93164 50.3281V44.4102H5.06836V50.2637C5.06836 50.9824 4.98047 51.5391 4.80469 51.9336C4.63281 52.3281 4.35742 52.6289 3.97852 52.8359C3.60352 53.043 3.16211 53.1465 2.6543 53.1465C1.90039 53.1465 1.32227 52.9297 0.919922 52.4961C0.521484 52.0625 0.330078 51.418 0.345703 50.5625ZM10.8691 53V52.0859C10.3848 52.7891 9.72656 53.1406 8.89453 53.1406C8.52734 53.1406 8.18359 53.0703 7.86328 52.9297C7.54688 52.7891 7.31055 52.6133 7.1543 52.4023C7.00195 52.1875 6.89453 51.9258 6.83203 51.6172C6.78906 51.4102 6.76758 51.082 6.76758 50.6328V46.7773H7.82227V50.2285C7.82227 50.7793 7.84375 51.1504 7.88672 51.3418C7.95312 51.6191 8.09375 51.8379 8.30859 51.998C8.52344 52.1543 8.78906 52.2324 9.10547 52.2324C9.42188 52.2324 9.71875 52.1523 9.99609 51.9922C10.2734 51.8281 10.4688 51.6074 10.582 51.3301C10.6992 51.0488 10.7578 50.6426 10.7578 50.1113V46.7773H11.8125V53H10.8691ZM13.0488 51.1426L14.0918 50.9785C14.1504 51.3965 14.3125 51.7168 14.5781 51.9395C14.8477 52.1621 15.2227 52.2734 15.7031 52.2734C16.1875 52.2734 16.5469 52.1758 16.7812 51.9805C17.0156 51.7812 17.1328 51.5488 17.1328 51.2832C17.1328 51.0449 17.0293 50.8574 16.8223 50.7207C16.6777 50.627 16.3184 50.5078 15.7441 50.3633C14.9707 50.168 14.4336 50 14.1328 49.8594C13.8359 49.7148 13.6094 49.5176 13.4531 49.2676C13.3008 49.0137 13.2246 48.7344 13.2246 48.4297C13.2246 48.1523 13.2871 47.8965 13.4121 47.6621C13.541 47.4238 13.7148 47.2266 13.9336 47.0703C14.0977 46.9492 14.3203 46.8477 14.6016 46.7656C14.8867 46.6797 15.1914 46.6367 15.5156 46.6367C16.0039 46.6367 16.4316 46.707 16.7988 46.8477C17.1699 46.9883 17.4434 47.1797 17.6191 47.4219C17.7949 47.6602 17.916 47.9805 17.9824 48.3828L16.9512 48.5234C16.9043 48.2031 16.7676 47.9531 16.541 47.7734C16.3184 47.5938 16.002 47.5039 15.5918 47.5039C15.1074 47.5039 14.7617 47.584 14.5547 47.7441C14.3477 47.9043 14.2441 48.0918 14.2441 48.3066C14.2441 48.4434 14.2871 48.5664 14.373 48.6758C14.459 48.7891 14.5938 48.8828 14.7773 48.957C14.8828 48.9961 15.1934 49.0859 15.709 49.2266C16.4551 49.4258 16.9746 49.5898 17.2676 49.7188C17.5645 49.8438 17.7969 50.0273 17.9648 50.2695C18.1328 50.5117 18.2168 50.8125 18.2168 51.1719C18.2168 51.5234 18.1133 51.8555 17.9062 52.168C17.7031 52.4766 17.4082 52.7168 17.0215 52.8887C16.6348 53.0566 16.1973 53.1406 15.709 53.1406C14.9004 53.1406 14.2832 52.9727 13.8574 52.6367C13.4355 52.3008 13.166 51.8027 13.0488 51.1426ZM21.7734 52.0566L21.9258 52.9883C21.6289 53.0508 21.3633 53.082 21.1289 53.082C20.7461 53.082 20.4492 53.0215 20.2383 52.9004C20.0273 52.7793 19.8789 52.6211 19.793 52.4258C19.707 52.2266 19.6641 51.8105 19.6641 51.1777V47.5977H18.8906V46.7773H19.6641V45.2363L20.7129 44.6035V46.7773H21.7734V47.5977H20.7129V51.2363C20.7129 51.5371 20.7305 51.7305 20.7656 51.8164C20.8047 51.9023 20.8652 51.9707 20.9473 52.0215C21.0332 52.0723 21.1543 52.0977 21.3105 52.0977C21.4277 52.0977 21.582 52.084 21.7734 52.0566ZM23.0625 53V47.5977H22.1309V46.7773H23.0625V46.1152C23.0625 45.6973 23.0996 45.3867 23.1738 45.1836C23.2754 44.9102 23.4531 44.6895 23.707 44.5215C23.9648 44.3496 24.3242 44.2637 24.7852 44.2637C25.082 44.2637 25.4102 44.2988 25.7695 44.3691L25.6113 45.2891C25.3926 45.25 25.1855 45.2305 24.9902 45.2305C24.6699 45.2305 24.4434 45.2988 24.3105 45.4355C24.1777 45.5723 24.1113 45.8281 24.1113 46.2031V46.7773H25.3242V47.5977H24.1113V53H23.0625ZM25.7578 49.8887C25.7578 48.7363 26.0781 47.8828 26.7188 47.3281C27.2539 46.8672 27.9062 46.6367 28.6758 46.6367C29.5312 46.6367 30.2305 46.918 30.7734 47.4805C31.3164 48.0391 31.5879 48.8125 31.5879 49.8008C31.5879 50.6016 31.4668 51.2324 31.2246 51.6934C30.9863 52.1504 30.6367 52.5059 30.1758 52.7598C29.7188 53.0137 29.2188 53.1406 28.6758 53.1406C27.8047 53.1406 27.0996 52.8613 26.5605 52.3027C26.0254 51.7441 25.7578 50.9395 25.7578 49.8887ZM26.8418 49.8887C26.8418 50.6855 27.0156 51.2832 27.3633 51.6816C27.7109 52.0762 28.1484 52.2734 28.6758 52.2734C29.1992 52.2734 29.6348 52.0742 29.9824 51.6758C30.3301 51.2773 30.5039 50.6699 30.5039 49.8535C30.5039 49.084 30.3281 48.502 29.9766 48.1074C29.6289 47.709 29.1953 47.5098 28.6758 47.5098C28.1484 47.5098 27.7109 47.707 27.3633 48.1016C27.0156 48.4961 26.8418 49.0918 26.8418 49.8887ZM32.8184 53V46.7773H33.7676V47.7207C34.0098 47.2793 34.2324 46.9883 34.4355 46.8477C34.6426 46.707 34.8691 46.6367 35.1152 46.6367C35.4707 46.6367 35.832 46.75 36.1992 46.9766L35.8359 47.9551C35.5781 47.8027 35.3203 47.7266 35.0625 47.7266C34.832 47.7266 34.625 47.7969 34.4414 47.9375C34.2578 48.0742 34.127 48.2656 34.0488 48.5117C33.9316 48.8867 33.873 49.2969 33.873 49.7422V53H32.8184ZM41.0859 50.9961L42.1758 51.1309C42.0039 51.7676 41.6855 52.2617 41.2207 52.6133C40.7559 52.9648 40.1621 53.1406 39.4395 53.1406C38.5293 53.1406 37.8066 52.8613 37.2715 52.3027C36.7402 51.7402 36.4746 50.9531 36.4746 49.9414C36.4746 48.8945 36.7441 48.082 37.2832 47.5039C37.8223 46.9258 38.5215 46.6367 39.3809 46.6367C40.2129 46.6367 40.8926 46.9199 41.4199 47.4863C41.9473 48.0527 42.2109 48.8496 42.2109 49.877C42.2109 49.9395 42.209 50.0332 42.2051 50.1582H37.5645C37.6035 50.8418 37.7969 51.3652 38.1445 51.7285C38.4922 52.0918 38.9258 52.2734 39.4453 52.2734C39.832 52.2734 40.1621 52.1719 40.4355 51.9688C40.709 51.7656 40.9258 51.4414 41.0859 50.9961ZM37.623 49.291H41.0977C41.0508 48.7676 40.918 48.375 40.6992 48.1133C40.3633 47.707 39.9277 47.5039 39.3926 47.5039C38.9082 47.5039 38.5 47.666 38.168 47.9902C37.8398 48.3145 37.6582 48.748 37.623 49.291ZM42.8027 53L45.0762 49.7656L42.9727 46.7773H44.291L45.2461 48.2363C45.4258 48.5137 45.5703 48.7461 45.6797 48.9336C45.8516 48.6758 46.0098 48.4473 46.1543 48.248L47.2031 46.7773H48.4629L46.3125 49.707L48.627 53H47.332L46.0547 51.0664L45.7148 50.5449L44.0801 53H42.8027ZM50.2868 44.852V45.656H53.0948V51.884H50.2868V52.7H53.9348V44.852H50.2868ZM49.7468 44.852V53.66H50.5868V44.852H49.7468ZM50.2268 48.188V48.992H53.5388V48.188H50.2268ZM51.5828 42.896C51.4868 43.52 51.2588 44.432 51.0548 45.008L51.7748 45.188C52.0148 44.648 52.3148 43.82 52.5548 43.076L51.5828 42.896ZM55.6388 44.816V45.656H59.3228V44.816H55.6388ZM59.0108 44.816V45.008C58.8428 50.3 58.6508 52.292 58.2548 52.724C58.1228 52.88 57.9788 52.916 57.7388 52.916C57.4628 52.916 56.7428 52.904 55.9628 52.844C56.1308 53.084 56.2388 53.456 56.2628 53.72C56.9348 53.756 57.6428 53.78 58.0508 53.732C58.4708 53.696 58.7468 53.588 59.0108 53.24C59.4908 52.652 59.6588 50.792 59.8508 45.284C59.8508 45.152 59.8508 44.816 59.8508 44.816H59.0108ZM55.8908 42.872C55.5068 44.54 54.8468 46.196 54.0308 47.252C54.2468 47.372 54.6188 47.624 54.7748 47.768C55.6028 46.628 56.3108 44.864 56.7548 43.076L55.8908 42.872ZM55.3388 47.936C55.9988 48.812 56.8028 50 57.1628 50.732L57.9308 50.252C57.5468 49.544 56.7188 48.38 56.0348 47.528L55.3388 47.936ZM64.3268 44.3H69.1268V46.58H64.3268V44.3ZM63.4508 43.436V47.444H70.0388V43.436H63.4508ZM61.7108 48.716V53.96H62.5628V49.58H65.0828V53.864H65.9828V48.716H61.7108ZM67.2908 48.716V53.96H68.1548V49.58H70.9028V53.888H71.8028V48.716H67.2908ZM62.0948 52.448V53.312H65.4428V52.448H62.0948ZM67.7348 52.448V53.312H71.2988V52.448H67.7348ZM77.4308 50.672V51.464H84.1988V50.672H77.4308ZM81.4748 48.992V53.948H82.3268V48.992H81.4748ZM80.2988 42.884C80.1668 43.34 79.9028 43.976 79.6748 44.42L80.4068 44.624C80.6708 44.24 81.0188 43.628 81.3188 43.088L80.2988 42.884ZM80.5028 44.528V46.46C80.5028 47.672 80.1668 49.1 77.8748 50.072C78.0548 50.192 78.3428 50.432 78.4748 50.588C80.8988 49.544 81.2828 47.924 81.2828 46.484V44.528H80.5028ZM74.3108 46.22V47.012H77.6588V46.22H74.3108ZM75.8828 42.932V46.7H76.6748V42.932H75.8828ZM74.3588 48.776V49.556H76.2428V53.96H77.0468V48.776H74.3588ZM73.9268 43.172V47.768C73.9268 49.532 73.8188 51.956 73.1228 53.684C73.3628 53.756 73.7228 53.888 73.9028 53.984C74.5868 52.172 74.7188 49.688 74.7188 47.768V43.172H73.9268ZM78.7628 46.724H83.0228V47.996H78.7628V46.724ZM78.7628 44.792H83.0228V46.04H78.7628V44.792ZM77.9468 44.072V48.704H83.8628V44.072H77.9468ZM89.9828 44.228V45.056H95.6588V44.228H89.9828ZM89.2748 46.58V47.42H96.2108V46.58H89.2748ZM89.4788 48.86V49.7H96.1388V48.86H89.4788ZM92.3468 42.92V47.024H93.2348V42.92H92.3468ZM93.8348 47.3V52.844C93.8348 53.024 93.7868 53.06 93.5948 53.072C93.3788 53.084 92.7188 53.084 91.9988 53.06C92.1308 53.324 92.2508 53.708 92.2868 53.96C93.2108 53.96 93.8468 53.948 94.2308 53.804C94.6148 53.66 94.7348 53.396 94.7348 52.856V47.3H93.8348ZM90.1028 50.456C90.6908 51.044 91.3388 51.872 91.6028 52.436L92.3348 51.968C92.0348 51.404 91.3748 50.612 90.7868 50.048L90.1028 50.456ZM85.1348 49.448L85.3748 50.324C86.5868 49.94 88.2068 49.436 89.7308 48.944L89.6108 48.164C87.9788 48.656 86.2628 49.16 85.1348 49.448ZM87.3788 42.932V53.96H88.2188V42.932H87.3788ZM85.8908 43.568C85.7468 45.044 85.5068 46.568 85.0508 47.588C85.2428 47.672 85.5908 47.876 85.7348 47.984C86.1908 46.916 86.4908 45.296 86.6708 43.7L85.8908 43.568ZM85.9628 45.356L85.8188 46.22H89.4548V45.356H85.9628ZM103.651 48.428C102.811 48.68 101.335 48.908 100.111 49.028C100.195 49.196 100.303 49.46 100.327 49.64C101.575 49.532 103.123 49.328 104.131 49.04L103.651 48.428ZM100.123 52.592L100.327 53.324C101.419 53.18 102.895 52.976 104.311 52.772L104.275 52.112C102.727 52.304 101.167 52.484 100.123 52.592ZM101.863 49.112V52.856L102.655 52.736V49.112H101.863ZM100.003 50.456V51.152H104.527V50.456H100.003ZM101.899 42.932V46.16H102.607V42.932H101.899ZM100.315 43.712V46.4H104.263V43.712H103.579V45.692H100.975V43.712H100.315ZM100.087 47.204V47.96H104.251V47.204H100.087ZM105.307 45.404L104.983 46.184H108.235V45.404H105.307ZM105.307 42.932C105.091 44.936 104.683 46.88 103.915 48.128C104.095 48.284 104.395 48.62 104.515 48.788C105.367 47.396 105.859 45.284 106.147 43.064L105.307 42.932ZM105.391 46.34L104.743 46.424C105.151 49.748 105.967 52.664 107.839 53.948C107.959 53.732 108.235 53.396 108.427 53.24C106.627 52.172 105.763 49.376 105.391 46.34ZM107.047 45.8C106.699 49.448 105.811 51.956 103.483 53.408C103.651 53.552 103.951 53.852 104.059 54.008C106.459 52.376 107.419 49.772 107.851 45.872L107.047 45.8ZM99.0908 42.92C98.6588 43.712 97.8068 44.696 97.0388 45.32C97.1828 45.476 97.4228 45.812 97.5308 45.992C98.3828 45.272 99.3188 44.192 99.9068 43.232L99.0908 42.92ZM99.3428 45.332C98.7428 46.592 97.8068 47.876 96.9068 48.74C97.0628 48.92 97.3388 49.34 97.4348 49.52C98.4068 48.536 99.4508 47.024 100.135 45.608L99.3428 45.332ZM98.4788 47.516V53.948H99.2948V46.712V46.688L98.4788 47.516ZM111.043 50.084C110.035 50.084 109.207 50.9 109.207 51.908C109.207 52.916 110.035 53.732 111.043 53.732C112.051 53.732 112.867 52.916 112.867 51.908C112.867 50.9 112.051 50.084 111.043 50.084ZM111.043 53.12C110.371 53.12 109.819 52.58 109.819 51.908C109.819 51.236 110.371 50.696 111.043 50.696C111.715 50.696 112.255 51.236 112.255 51.908C112.255 52.58 111.715 53.12 111.043 53.12Z"/>
  </symbol>
</svg>
