<svg width="175" height="70" viewBox="0 0 175 70" fill="none" xmlns="http://www.w3.org/2000/svg">
  <symbol id="svg-copy-ko-2" viewBox="1 1 174 13">
    <path d="M9.74219 13.4902H2.89258C2.43945 13.4902 2.16406 13.4629 2.06641 13.4082C1.95703 13.3457 1.90039 13.252 1.89648 13.127C1.88867 12.8926 1.94336 12.584 2.06055 12.2012C2.17383 11.7441 2.28516 11.4297 2.39453 11.2578C2.58594 10.9766 2.90039 10.6406 3.33789 10.25C5.04102 8.92578 7.20898 8.26367 9.8418 8.26367H11.2246V9.2832H9.80664C7.14648 9.2832 4.89844 9.99414 3.0625 11.416C2.60547 11.8301 2.37695 12.125 2.37695 12.3008C2.37695 12.4141 2.56055 12.4707 2.92773 12.4707H11.2246V12.5234L9.74219 13.4902ZM15.959 9.2832H10.8203V8.26367H15.2793C15.0059 7.84961 14.6934 7.49023 14.3418 7.18555C13.9902 6.87695 13.5156 6.54492 12.918 6.18945L12.7246 6.37109L12.0332 5.84375C11.791 5.64062 11.6699 5.48242 11.6699 5.36914C11.6699 4.69727 11.834 4.16992 12.1621 3.78711C12.4668 3.43555 12.9922 3.11914 13.7383 2.83789L15.3906 2.19336V3.20703L14.166 3.61719C13.6777 3.77734 13.2832 3.92383 12.9824 4.05664C12.5996 4.22461 12.4082 4.35352 12.4082 4.44336C12.4082 4.5332 12.5332 4.67188 12.7832 4.85938C12.9395 4.97656 13.0977 5.09375 13.2578 5.21094C13.8516 5.66016 14.3691 6.13086 14.8105 6.62305C15.2871 7.15039 15.6699 7.69727 15.959 8.26367V9.2832ZM25.1113 3.96289L24.6543 4.80664L23.7051 4.30273L24.1445 3.46484L25.1113 3.96289ZM23.7637 4.49023L23.3184 5.33984L22.3691 4.84766L22.8027 3.99805L23.7637 4.49023ZM27.8652 9.2832H22.2754C21.5254 9.2832 20.9277 9.15234 20.4824 8.89062C19.9238 8.5625 19.6445 8.04883 19.6445 7.34961C19.6445 6.98633 19.7266 6.61523 19.8906 6.23633C19.9492 6.09961 20.0898 5.83984 20.3125 5.45703L20.4883 5.56836C20.4023 5.74805 20.3184 5.92773 20.2363 6.10742C20.123 6.38477 20.0664 6.63281 20.0664 6.85156C20.0664 7.3125 20.3086 7.66992 20.793 7.92383C21.2266 8.15039 21.7754 8.26367 22.4395 8.26367H27.4023V8.10547C27.4023 7.66797 27.3496 7.3125 27.2441 7.03906C27.1387 6.76172 26.959 6.52539 26.7051 6.33008L27.1562 5.375C27.3281 5.58984 27.4316 5.72461 27.4668 5.7793C27.7324 6.2168 27.8652 6.85352 27.8652 7.68945V9.2832ZM32.8574 3.82812L32.4062 4.67773L31.4629 4.18555L31.9023 3.33008L32.8574 3.82812ZM33.7363 9.2832C33.7363 9.71289 33.5527 10.1582 33.1855 10.6191C32.8652 11.0254 32.4668 11.375 31.9902 11.668C31.5371 11.9492 31.1641 12.0898 30.8711 12.0898C30.6016 12.0898 30.3105 12.0508 29.998 11.9727C29.7598 11.9141 29.4746 11.8223 29.1426 11.6973C28.8613 11.5918 28.582 11.4863 28.3047 11.3809L28.4043 11.1465C28.6621 11.1973 28.9297 11.248 29.207 11.2988C29.4883 11.3535 29.7422 11.3809 29.9688 11.3809C30.4688 11.3809 30.9902 11.2207 31.5332 10.9004C32.0254 10.6074 32.4453 10.2383 32.793 9.79297C33.1406 9.34375 33.3145 8.93945 33.3145 8.58008C33.3145 8.27148 33.2246 7.94727 33.0449 7.60742C32.9004 7.33398 32.6973 7.05273 32.4355 6.76367L32.7695 5.84375C33.0898 6.14062 33.3262 6.4375 33.4785 6.73438C33.6504 7.07031 33.7363 7.44531 33.7363 7.85938V9.2832ZM36.4961 9.2832H35.6758C35.4102 9.2832 35.1973 9.17578 35.0371 8.96094C34.8965 8.77344 34.7891 8.49414 34.7148 8.12305C34.6445 7.75195 34.5898 7.29492 34.5508 6.75195C34.5273 6.31055 34.502 5.85742 34.4746 5.39258C34.4512 4.92773 34.418 4.57617 34.375 4.33789C34.3359 4.0957 34.2812 3.89844 34.2109 3.74609C34.125 3.55859 34.0059 3.39453 33.8535 3.25391L34.5742 2.11719C34.7266 2.58594 34.834 3.14648 34.8965 3.79883C34.9355 4.20508 34.9746 5.16602 35.0137 6.68164C35.084 7.37695 35.1855 7.82227 35.3184 8.01758C35.4277 8.18164 35.5469 8.26367 35.6758 8.26367H36.4961V9.2832ZM42.8535 9.2832H36.0859V8.26367H40.8613C40.4629 7.95508 40.127 7.71484 39.8535 7.54297C39.5137 7.32812 39.2031 7.17188 38.9219 7.07422C38.6055 6.96484 38.2852 6.91016 37.9609 6.91016C37.7617 6.91016 37.5605 6.92383 37.3574 6.95117C37.4707 6.66211 37.6191 6.42969 37.8027 6.25391C38.0684 6 38.4043 5.87305 38.8105 5.87305C39.209 5.87305 39.6797 6.06836 40.2227 6.45898C40.4922 6.6543 40.9316 7.02539 41.541 7.57227C42.0137 7.99805 42.334 8.22852 42.502 8.26367H42.8535V9.2832ZM39.8711 10.5547L39.4316 11.3984L38.4766 10.9062L38.9336 10.0508L39.8711 10.5547ZM44.8398 7.78906C44.8398 8.10156 44.7832 8.4043 44.6699 8.69727C44.6113 8.85352 44.4844 9.10156 44.2891 9.44141L44.1836 9.38281C44.1953 9.26953 44.2051 9.13867 44.2129 8.99023C44.2246 8.8418 44.2305 8.74219 44.2305 8.69141C44.2305 8.28516 44.1973 7.71875 44.1309 6.99219C44.0684 6.26172 43.9922 5.5 43.9023 4.70703C43.8477 4.22656 43.7871 3.73633 43.7207 3.23633C43.7988 3.06445 43.8867 2.87891 43.9844 2.67969C44.0859 2.48047 44.1816 2.29297 44.2715 2.11719C44.334 2.5625 44.4121 3.17188 44.5059 3.94531C44.6035 4.71875 44.6797 5.41602 44.7344 6.03711C44.8047 6.81055 44.8398 7.39453 44.8398 7.78906ZM55.9551 6.3125C55.9551 6.4375 55.9434 6.56641 55.9199 6.69922C55.8965 6.82812 55.8809 6.91992 55.873 6.97461C55.7363 6.79883 55.5723 6.66016 55.3809 6.55859C55.1934 6.45703 55.002 6.40625 54.8066 6.40625C54.4668 6.40625 54.1094 6.60352 53.7344 6.99805C53.3906 7.36133 53.2188 7.65039 53.2188 7.86523C53.2188 7.93945 53.2598 7.99609 53.3418 8.03516C53.4277 8.07031 53.5742 8.08789 53.7812 8.08789H54.25C54.5312 8.08789 54.7383 8.0918 54.8711 8.09961C55.0078 8.10352 55.1699 8.12109 55.3574 8.15234C55.5449 8.18359 55.6387 8.32617 55.6387 8.58008C55.6387 9.56055 55.2109 10.3066 54.3555 10.8184C53.5703 11.2871 52.5078 11.5215 51.168 11.5215C50.4727 11.5215 49.9414 11.3867 49.5742 11.1172C49.1758 10.8242 48.9766 10.3828 48.9766 9.79297C48.9766 9.38672 49.043 8.96094 49.1758 8.51562C49.2773 8.17578 49.418 7.82031 49.5977 7.44922C49.6094 7.42578 49.7324 7.19336 49.9668 6.75195L50.2129 6.85156C49.9668 7.28906 49.7773 7.69922 49.6445 8.08203C49.5156 8.46094 49.4512 8.79688 49.4512 9.08984C49.4512 9.56641 49.6152 9.92383 49.9434 10.1621C50.2754 10.4004 50.748 10.5195 51.3613 10.5195C51.8301 10.5195 52.375 10.4258 52.9961 10.2383C53.5273 10.0781 54.0059 9.88672 54.4316 9.66406C54.8574 9.44141 55.0703 9.27734 55.0703 9.17188C55.0703 9.09766 55.0449 9.04883 54.9941 9.02539C54.9473 9.00195 54.8691 8.99023 54.7598 8.99023H53.3887C53.2207 8.99023 53.0723 8.92969 52.9434 8.80859C52.8145 8.6875 52.75 8.53125 52.75 8.33984C52.75 8.07812 52.8574 7.72266 53.0723 7.27344C53.3066 6.78516 53.5898 6.37695 53.9219 6.04883C54.3203 5.6543 54.7207 5.45703 55.123 5.45703C55.3809 5.45703 55.584 5.53516 55.7324 5.69141C55.8809 5.84766 55.9551 6.05469 55.9551 6.3125ZM62.2129 9.2832C62.2129 9.71289 62.0293 10.1582 61.6621 10.6191C61.3418 11.0254 60.9434 11.375 60.4668 11.668C60.0137 11.9492 59.6406 12.0898 59.3477 12.0898C59.0781 12.0898 58.7871 12.0508 58.4746 11.9727C58.2363 11.9141 57.9512 11.8223 57.6191 11.6973C57.3379 11.5918 57.0586 11.4863 56.7812 11.3809L56.8809 11.1465C57.1387 11.1973 57.4062 11.248 57.6836 11.2988C57.9648 11.3535 58.2188 11.3809 58.4453 11.3809C58.9453 11.3809 59.4668 11.2207 60.0098 10.9004C60.502 10.6074 60.9219 10.2383 61.2695 9.79297C61.6172 9.34375 61.791 8.93945 61.791 8.58008C61.791 8.27148 61.7012 7.94727 61.5215 7.60742C61.377 7.33398 61.1738 7.05273 60.9121 6.76367L61.2461 5.84375C61.5664 6.14062 61.8027 6.4375 61.9551 6.73438C62.127 7.07031 62.2129 7.44531 62.2129 7.85938V9.2832ZM65.1484 9.2832H61.8086V8.26367H64.7207C64.7207 7.80273 64.666 7.45117 64.5566 7.20898C64.4824 7.04102 64.2988 6.79883 64.0059 6.48242L64.4629 5.52734C64.7441 5.88281 64.9199 6.16016 64.9902 6.35938C65.0957 6.66016 65.1484 7.1582 65.1484 7.85352V9.2832ZM65.1191 10.4551L64.6621 11.2988L63.7129 10.7949L64.1523 9.95703L65.1191 10.4551ZM63.7715 10.9824L63.3262 11.832L62.377 11.3398L62.8105 10.4902L63.7715 10.9824ZM71.0137 9.2832C71.0137 9.71289 70.8301 10.1582 70.4629 10.6191C70.1426 11.0254 69.7441 11.375 69.2676 11.668C68.8145 11.9492 68.4414 12.0898 68.1484 12.0898C67.8789 12.0898 67.5879 12.0508 67.2754 11.9727C67.0371 11.9141 66.752 11.8223 66.4199 11.6973C66.1387 11.5918 65.8594 11.4863 65.582 11.3809L65.6816 11.1465C65.9395 11.1973 66.207 11.248 66.4844 11.2988C66.7656 11.3535 67.0195 11.3809 67.2461 11.3809C67.7461 11.3809 68.2676 11.2207 68.8105 10.9004C69.3027 10.6074 69.7227 10.2383 70.0703 9.79297C70.418 9.34375 70.5918 8.93945 70.5918 8.58008C70.5918 8.27148 70.502 7.94727 70.3223 7.60742C70.1777 7.33398 69.9746 7.05273 69.7129 6.76367L70.0469 5.84375C70.3672 6.14062 70.6035 6.4375 70.7559 6.73438C70.9277 7.07031 71.0137 7.44531 71.0137 7.85938V9.2832ZM77.377 9.2832H70.6094V8.26367H75.3848C74.9863 7.95508 74.6504 7.71484 74.377 7.54297C74.0371 7.32812 73.7266 7.17188 73.4453 7.07422C73.1289 6.96484 72.8086 6.91016 72.4844 6.91016C72.2852 6.91016 72.084 6.92383 71.8809 6.95117C71.9941 6.66211 72.1426 6.42969 72.3262 6.25391C72.5918 6 72.9277 5.87305 73.334 5.87305C73.7324 5.87305 74.2031 6.06836 74.7461 6.45898C75.0156 6.6543 75.4551 7.02539 76.0645 7.57227C76.5371 7.99805 76.8574 8.22852 77.0254 8.26367H77.377V9.2832ZM80.2832 3.49414L79.8262 4.33789L78.877 3.83398L79.3164 2.99609L80.2832 3.49414ZM78.9355 4.02148L78.4902 4.87109L77.541 4.37891L77.9746 3.5293L78.9355 4.02148ZM80.3125 9.2832H76.9727V8.26367H79.8848C79.8848 7.80273 79.8301 7.45117 79.7207 7.20898C79.6465 7.04102 79.4629 6.79883 79.1699 6.48242L79.627 5.52734C79.9082 5.88281 80.084 6.16016 80.1543 6.35938C80.2598 6.66016 80.3125 7.1582 80.3125 7.85352V9.2832ZM89.9629 9.2832H89.1602C88.6875 9.2832 88.3516 9.19531 88.1523 9.01953C87.9531 8.84375 87.8535 8.55273 87.8535 8.14648C87.8535 7.99414 87.873 7.80469 87.9121 7.57812C87.9277 7.49219 87.9492 7.37891 87.9766 7.23828C87.3086 7.44141 86.8047 7.61523 86.4648 7.75977C85.8398 8.02539 85.3555 8.32617 85.0117 8.66211C84.5781 9.08398 84.3613 9.56445 84.3613 10.1035C84.3613 10.9434 84.7988 11.5742 85.6738 11.9961C86.4355 12.3633 87.4531 12.5469 88.7266 12.5469H89.8047L89.8398 12.6113L88.5156 13.543H88.1758C87.332 13.543 86.6309 13.4648 86.0723 13.3086C85.4043 13.1211 84.8984 12.8203 84.5547 12.4062C84.1641 11.9336 83.9688 11.3086 83.9688 10.5312C83.9688 9.86328 84.1348 9.2793 84.4668 8.7793C84.7246 8.38867 85.1016 8.03125 85.5977 7.70703C85.7422 7.60938 86.1445 7.38477 86.8047 7.0332C86.6484 7.01367 86.4824 6.99805 86.3066 6.98633C86.1348 6.9707 85.9785 6.96289 85.8379 6.96289C85.4434 6.96289 85.123 6.98047 84.877 7.01562C84.7949 7.02734 84.5391 7.08008 84.1094 7.17383C84.2422 6.79102 84.3809 6.52539 84.5254 6.37695C84.8496 6.04883 85.3574 5.88477 86.0488 5.88477C86.4277 5.88477 86.8379 5.92188 87.2793 5.99609C87.7207 6.06641 88.0918 6.10156 88.3926 6.10156C88.5918 6.10156 88.7852 6.09375 88.9727 6.07812C89.1641 6.0625 89.3633 6.04102 89.5703 6.01367L89.3359 7.00977C89.1758 7.0293 88.9941 7.05664 88.791 7.0918C88.6621 7.11523 88.4844 7.14844 88.2578 7.19141L88.2461 7.51953C88.2461 7.83984 88.3438 8.05469 88.5391 8.16406C88.6602 8.23047 88.8672 8.26367 89.1602 8.26367H89.9629V9.2832ZM96.3965 4.41406L95.9512 5.26367L95.002 4.77148L95.4355 3.91602L96.3965 4.41406ZM100.123 9.2832H93.0801C92.8691 9.2832 92.668 9.24805 92.4766 9.17773C92.332 9.12305 92.1621 9.03516 91.9668 8.91406C91.8027 9.05469 91.6387 9.15234 91.4746 9.20703C91.3105 9.25781 91.0488 9.2832 90.6895 9.2832H89.5586V8.26367H90.6895C91.0059 8.26367 91.2324 8.23633 91.3691 8.18164C91.5957 8.0918 91.709 7.91211 91.709 7.64258C91.709 7.5293 91.7012 7.41602 91.6855 7.30273C91.6738 7.18555 91.6543 7.05859 91.627 6.92188L91.8672 6.57031C92.0039 7.10156 92.1914 7.51172 92.4297 7.80078C92.6836 8.10938 92.9824 8.26367 93.3262 8.26367C93.6543 8.26367 94.0391 8.18945 94.4805 8.04102C94.957 7.88086 95.3672 7.67773 95.7109 7.43164C96.2695 7.0332 96.6113 6.79492 96.7363 6.7168C97.0527 6.51367 97.3398 6.36914 97.5977 6.2832C97.8867 6.18555 98.2031 6.13672 98.5469 6.13672C99.0781 6.13672 99.4785 6.29102 99.748 6.59961C99.998 6.88477 100.123 7.28516 100.123 7.80078V9.2832ZM99.168 7.8125C99.168 7.62109 99.0488 7.47266 98.8105 7.36719C98.5723 7.25781 98.2949 7.20312 97.9785 7.20312C97.5879 7.20312 97.1152 7.33398 96.5605 7.5957C96.1191 7.81836 95.6797 8.04102 95.2422 8.26367H97.9434C98.3691 8.26367 98.6797 8.22656 98.875 8.15234C99.0703 8.07812 99.168 7.96484 99.168 7.8125ZM102.109 7.78906C102.109 8.10156 102.053 8.4043 101.939 8.69727C101.881 8.85352 101.754 9.10156 101.559 9.44141L101.453 9.38281C101.465 9.26953 101.475 9.13867 101.482 8.99023C101.494 8.8418 101.5 8.74219 101.5 8.69141C101.5 8.28516 101.467 7.71875 101.4 6.99219C101.338 6.26172 101.262 5.5 101.172 4.70703C101.117 4.22656 101.057 3.73633 100.99 3.23633C101.068 3.06445 101.156 2.87891 101.254 2.67969C101.355 2.48047 101.451 2.29297 101.541 2.11719C101.604 2.5625 101.682 3.17188 101.775 3.94531C101.873 4.71875 101.949 5.41602 102.004 6.03711C102.074 6.81055 102.109 7.39453 102.109 7.78906ZM107.799 8.93164C107.799 9.57617 107.561 10.2168 107.084 10.8535C106.553 11.5645 105.939 11.9199 105.244 11.9199C104.986 11.9199 104.721 11.8906 104.447 11.832C104.248 11.7891 103.988 11.7148 103.668 11.6094C103.414 11.5195 103.16 11.4316 102.906 11.3457L103.006 11.1406C103.225 11.1914 103.453 11.2441 103.691 11.2988C103.934 11.3574 104.15 11.3867 104.342 11.3867C104.818 11.3867 105.27 11.2656 105.695 11.0234C106.027 10.832 106.359 10.5547 106.691 10.1914C106.859 10.0078 107.098 9.70898 107.406 9.29492C106.879 9.29492 106.484 9.21094 106.223 9.04297C105.926 8.85156 105.777 8.53711 105.777 8.09961C105.777 7.69727 105.871 7.32422 106.059 6.98047C106.277 6.58203 106.555 6.38281 106.891 6.38281C107.23 6.38281 107.475 6.58008 107.623 6.97461C107.74 7.2832 107.799 7.71289 107.799 8.26367V8.93164ZM107.43 8.29297C107.344 7.91797 107.24 7.6582 107.119 7.51367C107.014 7.38867 106.885 7.32617 106.732 7.32617C106.623 7.32617 106.527 7.36328 106.445 7.4375C106.367 7.50781 106.328 7.59766 106.328 7.70703C106.328 7.89844 106.414 8.04492 106.586 8.14648C106.758 8.24414 107.039 8.29297 107.43 8.29297ZM118.205 9.2832H117.18C116.578 9.2832 116.125 9.29883 115.82 9.33008C115.52 9.36133 115.369 9.42383 115.369 9.51758C115.369 9.64648 115.551 9.71094 115.914 9.71094C116.074 9.71094 116.201 9.71484 116.295 9.72266C116.389 9.73047 116.594 9.75195 116.91 9.78711C117.098 9.81055 117.227 9.83984 117.297 9.875C117.41 9.93359 117.467 10.0352 117.467 10.1797C117.467 10.9102 117.227 11.4414 116.746 11.7734C116.223 12.1367 115.357 12.3184 114.15 12.3184C113.311 12.3184 112.643 12.1758 112.146 11.8906C111.619 11.5859 111.355 11.1523 111.355 10.5898C111.355 10.1367 111.48 9.65625 111.73 9.14844C111.82 8.96484 112.057 8.57227 112.439 7.9707L112.674 8.08789C112.525 8.3418 112.379 8.59375 112.234 8.84375C112.012 9.27344 111.9 9.625 111.9 9.89844C111.9 10.3789 112.15 10.7441 112.65 10.9941C113.127 11.2324 113.781 11.3516 114.613 11.3516C115.172 11.3516 115.664 11.3086 116.09 11.2227C116.613 11.1172 116.875 10.9727 116.875 10.7891C116.875 10.7227 116.846 10.6738 116.787 10.6426C116.729 10.6074 116.631 10.5898 116.494 10.5898C116.389 10.5781 116.223 10.5664 115.996 10.5547C115.773 10.5391 115.627 10.5312 115.557 10.5312C115.311 10.5312 115.135 10.5 115.029 10.4375C114.924 10.3711 114.871 10.2734 114.871 10.1445C114.871 9.66016 115.014 9.26367 115.299 8.95508C115.533 8.70508 115.848 8.51953 116.242 8.39844C116.539 8.30859 116.852 8.26367 117.18 8.26367H118.205V9.2832ZM122.939 9.2832H117.801V8.26367H122.26C121.986 7.84961 121.674 7.49023 121.322 7.18555C120.971 6.87695 120.496 6.54492 119.898 6.18945L119.705 6.37109L119.014 5.84375C118.771 5.64062 118.65 5.48242 118.65 5.36914C118.65 4.69727 118.814 4.16992 119.143 3.78711C119.447 3.43555 119.973 3.11914 120.719 2.83789L122.371 2.19336V3.20703L121.146 3.61719C120.658 3.77734 120.264 3.92383 119.963 4.05664C119.58 4.22461 119.389 4.35352 119.389 4.44336C119.389 4.5332 119.514 4.67188 119.764 4.85938C119.92 4.97656 120.078 5.09375 120.238 5.21094C120.832 5.66016 121.35 6.13086 121.791 6.62305C122.268 7.15039 122.65 7.69727 122.939 8.26367V9.2832ZM126.631 8.5625L127.656 8.42188C127.684 9.07812 127.807 9.52734 128.025 9.76953C128.244 10.0117 128.547 10.1328 128.934 10.1328C129.219 10.1328 129.465 10.0684 129.672 9.93945C129.879 9.80664 130.021 9.62891 130.1 9.40625C130.178 9.17969 130.217 8.82031 130.217 8.32812V2.41016H131.354V8.26367C131.354 8.98242 131.266 9.53906 131.09 9.93359C130.918 10.3281 130.643 10.6289 130.264 10.8359C129.889 11.043 129.447 11.1465 128.939 11.1465C128.186 11.1465 127.607 10.9297 127.205 10.4961C126.807 10.0625 126.615 9.41797 126.631 8.5625ZM137.154 11V10.0859C136.67 10.7891 136.012 11.1406 135.18 11.1406C134.812 11.1406 134.469 11.0703 134.148 10.9297C133.832 10.7891 133.596 10.6133 133.439 10.4023C133.287 10.1875 133.18 9.92578 133.117 9.61719C133.074 9.41016 133.053 9.08203 133.053 8.63281V4.77734H134.107V8.22852C134.107 8.7793 134.129 9.15039 134.172 9.3418C134.238 9.61914 134.379 9.83789 134.594 9.99805C134.809 10.1543 135.074 10.2324 135.391 10.2324C135.707 10.2324 136.004 10.1523 136.281 9.99219C136.559 9.82812 136.754 9.60742 136.867 9.33008C136.984 9.04883 137.043 8.64258 137.043 8.11133V4.77734H138.098V11H137.154ZM139.334 9.14258L140.377 8.97852C140.436 9.39648 140.598 9.7168 140.863 9.93945C141.133 10.1621 141.508 10.2734 141.988 10.2734C142.473 10.2734 142.832 10.1758 143.066 9.98047C143.301 9.78125 143.418 9.54883 143.418 9.2832C143.418 9.04492 143.314 8.85742 143.107 8.7207C142.963 8.62695 142.604 8.50781 142.029 8.36328C141.256 8.16797 140.719 8 140.418 7.85938C140.121 7.71484 139.895 7.51758 139.738 7.26758C139.586 7.01367 139.51 6.73438 139.51 6.42969C139.51 6.15234 139.572 5.89648 139.697 5.66211C139.826 5.42383 140 5.22656 140.219 5.07031C140.383 4.94922 140.605 4.84766 140.887 4.76562C141.172 4.67969 141.477 4.63672 141.801 4.63672C142.289 4.63672 142.717 4.70703 143.084 4.84766C143.455 4.98828 143.729 5.17969 143.904 5.42188C144.08 5.66016 144.201 5.98047 144.268 6.38281L143.236 6.52344C143.189 6.20312 143.053 5.95312 142.826 5.77344C142.604 5.59375 142.287 5.50391 141.877 5.50391C141.393 5.50391 141.047 5.58398 140.84 5.74414C140.633 5.9043 140.529 6.0918 140.529 6.30664C140.529 6.44336 140.572 6.56641 140.658 6.67578C140.744 6.78906 140.879 6.88281 141.062 6.95703C141.168 6.99609 141.479 7.08594 141.994 7.22656C142.74 7.42578 143.26 7.58984 143.553 7.71875C143.85 7.84375 144.082 8.02734 144.25 8.26953C144.418 8.51172 144.502 8.8125 144.502 9.17188C144.502 9.52344 144.398 9.85547 144.191 10.168C143.988 10.4766 143.693 10.7168 143.307 10.8887C142.92 11.0566 142.482 11.1406 141.994 11.1406C141.186 11.1406 140.568 10.9727 140.143 10.6367C139.721 10.3008 139.451 9.80273 139.334 9.14258ZM148.059 10.0566L148.211 10.9883C147.914 11.0508 147.648 11.082 147.414 11.082C147.031 11.082 146.734 11.0215 146.523 10.9004C146.312 10.7793 146.164 10.6211 146.078 10.4258C145.992 10.2266 145.949 9.81055 145.949 9.17773V5.59766H145.176V4.77734H145.949V3.23633L146.998 2.60352V4.77734H148.059V5.59766H146.998V9.23633C146.998 9.53711 147.016 9.73047 147.051 9.81641C147.09 9.90234 147.15 9.9707 147.232 10.0215C147.318 10.0723 147.439 10.0977 147.596 10.0977C147.713 10.0977 147.867 10.084 148.059 10.0566ZM149.348 11V5.59766H148.416V4.77734H149.348V4.11523C149.348 3.69727 149.385 3.38672 149.459 3.18359C149.561 2.91016 149.738 2.68945 149.992 2.52148C150.25 2.34961 150.609 2.26367 151.07 2.26367C151.367 2.26367 151.695 2.29883 152.055 2.36914L151.896 3.28906C151.678 3.25 151.471 3.23047 151.275 3.23047C150.955 3.23047 150.729 3.29883 150.596 3.43555C150.463 3.57227 150.396 3.82812 150.396 4.20312V4.77734H151.609V5.59766H150.396V11H149.348ZM152.043 7.88867C152.043 6.73633 152.363 5.88281 153.004 5.32812C153.539 4.86719 154.191 4.63672 154.961 4.63672C155.816 4.63672 156.516 4.91797 157.059 5.48047C157.602 6.03906 157.873 6.8125 157.873 7.80078C157.873 8.60156 157.752 9.23242 157.51 9.69336C157.271 10.1504 156.922 10.5059 156.461 10.7598C156.004 11.0137 155.504 11.1406 154.961 11.1406C154.09 11.1406 153.385 10.8613 152.846 10.3027C152.311 9.74414 152.043 8.93945 152.043 7.88867ZM153.127 7.88867C153.127 8.68555 153.301 9.2832 153.648 9.68164C153.996 10.0762 154.434 10.2734 154.961 10.2734C155.484 10.2734 155.92 10.0742 156.268 9.67578C156.615 9.27734 156.789 8.66992 156.789 7.85352C156.789 7.08398 156.613 6.50195 156.262 6.10742C155.914 5.70898 155.48 5.50977 154.961 5.50977C154.434 5.50977 153.996 5.70703 153.648 6.10156C153.301 6.49609 153.127 7.0918 153.127 7.88867ZM159.104 11V4.77734H160.053V5.7207C160.295 5.2793 160.518 4.98828 160.721 4.84766C160.928 4.70703 161.154 4.63672 161.4 4.63672C161.756 4.63672 162.117 4.75 162.484 4.97656L162.121 5.95508C161.863 5.80273 161.605 5.72656 161.348 5.72656C161.117 5.72656 160.91 5.79688 160.727 5.9375C160.543 6.07422 160.412 6.26562 160.334 6.51172C160.217 6.88672 160.158 7.29688 160.158 7.74219V11H159.104ZM167.371 8.99609L168.461 9.13086C168.289 9.76758 167.971 10.2617 167.506 10.6133C167.041 10.9648 166.447 11.1406 165.725 11.1406C164.814 11.1406 164.092 10.8613 163.557 10.3027C163.025 9.74023 162.76 8.95312 162.76 7.94141C162.76 6.89453 163.029 6.08203 163.568 5.50391C164.107 4.92578 164.807 4.63672 165.666 4.63672C166.498 4.63672 167.178 4.91992 167.705 5.48633C168.232 6.05273 168.496 6.84961 168.496 7.87695C168.496 7.93945 168.494 8.0332 168.49 8.1582H163.85C163.889 8.8418 164.082 9.36523 164.43 9.72852C164.777 10.0918 165.211 10.2734 165.73 10.2734C166.117 10.2734 166.447 10.1719 166.721 9.96875C166.994 9.76562 167.211 9.44141 167.371 8.99609ZM163.908 7.29102H167.383C167.336 6.76758 167.203 6.375 166.984 6.11328C166.648 5.70703 166.213 5.50391 165.678 5.50391C165.193 5.50391 164.785 5.66602 164.453 5.99023C164.125 6.31445 163.943 6.74805 163.908 7.29102ZM169.088 11L171.361 7.76562L169.258 4.77734H170.576L171.531 6.23633C171.711 6.51367 171.855 6.74609 171.965 6.93359C172.137 6.67578 172.295 6.44727 172.439 6.24805L173.488 4.77734H174.748L172.598 7.70703L174.912 11H173.617L172.34 9.06641L172 8.54492L170.365 11H169.088Z"/>
  </symbol>
  <symbol id="svg-copy-pk-2" viewBox="0 15 175 13">
    <path d="M7.54492 23.2832H6.51953C5.91797 23.2832 5.46484 23.2988 5.16016 23.3301C4.85938 23.3613 4.70898 23.4238 4.70898 23.5176C4.70898 23.6465 4.89062 23.7109 5.25391 23.7109C5.41406 23.7109 5.54102 23.7148 5.63477 23.7227C5.72852 23.7305 5.93359 23.752 6.25 23.7871C6.4375 23.8105 6.56641 23.8398 6.63672 23.875C6.75 23.9336 6.80664 24.0352 6.80664 24.1797C6.80664 24.9102 6.56641 25.4414 6.08594 25.7734C5.5625 26.1367 4.69727 26.3184 3.49023 26.3184C2.65039 26.3184 1.98242 26.1758 1.48633 25.8906C0.958984 25.5859 0.695312 25.1523 0.695312 24.5898C0.695312 24.1367 0.820312 23.6562 1.07031 23.1484C1.16016 22.9648 1.39648 22.5723 1.7793 21.9707L2.01367 22.0879C1.86523 22.3418 1.71875 22.5938 1.57422 22.8438C1.35156 23.2734 1.24023 23.625 1.24023 23.8984C1.24023 24.3789 1.49023 24.7441 1.99023 24.9941C2.4668 25.2324 3.12109 25.3516 3.95312 25.3516C4.51172 25.3516 5.00391 25.3086 5.42969 25.2227C5.95312 25.1172 6.21484 24.9727 6.21484 24.7891C6.21484 24.7227 6.18555 24.6738 6.12695 24.6426C6.06836 24.6074 5.9707 24.5898 5.83398 24.5898C5.72852 24.5781 5.5625 24.5664 5.33594 24.5547C5.11328 24.5391 4.9668 24.5312 4.89648 24.5312C4.65039 24.5312 4.47461 24.5 4.36914 24.4375C4.26367 24.3711 4.21094 24.2734 4.21094 24.1445C4.21094 23.6602 4.35352 23.2637 4.63867 22.9551C4.87305 22.7051 5.1875 22.5195 5.58203 22.3984C5.87891 22.3086 6.19141 22.2637 6.51953 22.2637H7.54492V23.2832ZM10.3867 24.6719L9.95312 25.5215L8.99219 25.0293L9.4375 24.1797L10.3867 24.6719ZM10.1875 26.248L9.75391 27.1035L8.79883 26.5996L9.25 25.7441L10.1875 26.248ZM9.05078 25.2168L8.61133 26.0547L7.64453 25.5566L8.10156 24.7129L9.05078 25.2168ZM10.4805 23.2832H7.14062V22.2637H10.0527C10.0527 21.8027 9.99805 21.4512 9.88867 21.209C9.81445 21.041 9.63086 20.7988 9.33789 20.4824L9.79492 19.5273C10.0762 19.8828 10.252 20.1602 10.3223 20.3594C10.4277 20.6602 10.4805 21.1582 10.4805 21.8535V23.2832ZM13.2344 23.2832H12.4141C12.1484 23.2832 11.9355 23.1758 11.7754 22.9609C11.6348 22.7734 11.5273 22.4941 11.4531 22.123C11.3828 21.752 11.3281 21.2949 11.2891 20.752C11.2656 20.3105 11.2402 19.8574 11.2129 19.3926C11.1895 18.9277 11.1562 18.5762 11.1133 18.3379C11.0742 18.0957 11.0195 17.8984 10.9492 17.7461C10.8633 17.5586 10.7441 17.3945 10.5918 17.2539L11.3125 16.1172C11.4648 16.5859 11.5723 17.1465 11.6348 17.7988C11.6738 18.2051 11.7129 19.166 11.752 20.6816C11.8223 21.377 11.9238 21.8223 12.0566 22.0176C12.166 22.1816 12.2852 22.2637 12.4141 22.2637H13.2344V23.2832ZM17.9629 23.2832H12.8242V22.2637H17.2832C17.0098 21.8496 16.6973 21.4902 16.3457 21.1855C15.9941 20.877 15.5195 20.5449 14.9219 20.1895L14.7285 20.3711L14.0371 19.8438C13.7949 19.6406 13.6738 19.4824 13.6738 19.3691C13.6738 18.6973 13.8379 18.1699 14.166 17.7871C14.4707 17.4355 14.9961 17.1191 15.7422 16.8379L17.3945 16.1934V17.207L16.1699 17.6172C15.6816 17.7773 15.2871 17.9238 14.9863 18.0566C14.6035 18.2246 14.4121 18.3535 14.4121 18.4434C14.4121 18.5332 14.5371 18.6719 14.7871 18.8594C14.9434 18.9766 15.1016 19.0938 15.2617 19.2109C15.8555 19.6602 16.373 20.1309 16.8145 20.623C17.291 21.1504 17.6738 21.6973 17.9629 22.2637V23.2832ZM27.1152 17.9629L26.6582 18.8066L25.709 18.3027L26.1484 17.4648L27.1152 17.9629ZM25.7676 18.4902L25.3223 19.3398L24.373 18.8477L24.8066 17.998L25.7676 18.4902ZM29.8691 23.2832H24.2793C23.5293 23.2832 22.9316 23.1523 22.4863 22.8906C21.9277 22.5625 21.6484 22.0488 21.6484 21.3496C21.6484 20.9863 21.7305 20.6152 21.8945 20.2363C21.9531 20.0996 22.0938 19.8398 22.3164 19.457L22.4922 19.5684C22.4062 19.748 22.3223 19.9277 22.2402 20.1074C22.127 20.3848 22.0703 20.6328 22.0703 20.8516C22.0703 21.3125 22.3125 21.6699 22.7969 21.9238C23.2305 22.1504 23.7793 22.2637 24.4434 22.2637H29.4062V22.1055C29.4062 21.668 29.3535 21.3125 29.248 21.0391C29.1426 20.7617 28.9629 20.5254 28.709 20.3301L29.1602 19.375C29.332 19.5898 29.4355 19.7246 29.4707 19.7793C29.7363 20.2168 29.8691 20.8535 29.8691 21.6895V23.2832ZM32.6289 23.2832H31.8086C31.543 23.2832 31.3301 23.1758 31.1699 22.9609C31.0293 22.7734 30.9219 22.4941 30.8477 22.123C30.7773 21.752 30.7227 21.2949 30.6836 20.752C30.6602 20.3105 30.6348 19.8574 30.6074 19.3926C30.584 18.9277 30.5508 18.5762 30.5078 18.3379C30.4688 18.0957 30.4141 17.8984 30.3438 17.7461C30.2578 17.5586 30.1387 17.3945 29.9863 17.2539L30.707 16.1172C30.8594 16.5859 30.9668 17.1465 31.0293 17.7988C31.0684 18.2051 31.1074 19.166 31.1465 20.6816C31.2168 21.377 31.3184 21.8223 31.4512 22.0176C31.5605 22.1816 31.6797 22.2637 31.8086 22.2637H32.6289V23.2832ZM37.3574 23.2832H36.748C36.4863 23.2832 36.1914 23.2246 35.8633 23.1074C35.4844 22.9707 35.1504 22.7832 34.8613 22.5449C34.6348 22.8223 34.4023 23.0156 34.1641 23.125C33.9297 23.2305 33.5859 23.2832 33.1328 23.2832H32.2188V22.2637H33.1152C33.4707 22.2637 33.7871 22.1738 34.0645 21.9941C34.2793 21.8535 34.4746 21.6562 34.6504 21.4023C34.8887 21.0586 35.1816 20.7598 35.5293 20.5059C35.8418 20.2793 36.1289 20.1348 36.3906 20.0723C36.6602 20.4824 36.875 20.8516 37.0352 21.1797C37.25 21.625 37.3574 21.9863 37.3574 22.2637V23.2832ZM36.6836 22.1289C36.6328 21.9023 36.5547 21.6797 36.4492 21.4609C36.3594 21.2773 36.2402 21.0879 36.0918 20.8926C35.9043 20.9395 35.7461 21.0273 35.6172 21.1562C35.5312 21.2383 35.4297 21.377 35.3125 21.5723C35.4531 21.7246 35.6504 21.8613 35.9043 21.9824C36.1621 22.1035 36.4043 22.1777 36.6309 22.2051L36.6836 22.1289ZM42.5488 22.9316C42.5488 23.5762 42.3105 24.2168 41.834 24.8535C41.3027 25.5645 40.6895 25.9199 39.9941 25.9199C39.7363 25.9199 39.4707 25.8906 39.1973 25.832C38.998 25.7891 38.7383 25.7148 38.418 25.6094C38.1641 25.5195 37.9102 25.4316 37.6562 25.3457L37.7559 25.1406C37.9746 25.1914 38.2031 25.2441 38.4414 25.2988C38.6836 25.3574 38.9004 25.3867 39.0918 25.3867C39.5684 25.3867 40.0195 25.2656 40.4453 25.0234C40.7773 24.832 41.1094 24.5547 41.4414 24.1914C41.6094 24.0078 41.8477 23.709 42.1562 23.2949C41.6289 23.2949 41.2344 23.2109 40.9727 23.043C40.6758 22.8516 40.5273 22.5371 40.5273 22.0996C40.5273 21.6973 40.6211 21.3242 40.8086 20.9805C41.0273 20.582 41.3047 20.3828 41.6406 20.3828C41.9805 20.3828 42.2246 20.5801 42.373 20.9746C42.4902 21.2832 42.5488 21.7129 42.5488 22.2637V22.9316ZM42.1797 22.293C42.0938 21.918 41.9902 21.6582 41.8691 21.5137C41.7637 21.3887 41.6348 21.3262 41.4824 21.3262C41.373 21.3262 41.2773 21.3633 41.1953 21.4375C41.1172 21.5078 41.0781 21.5977 41.0781 21.707C41.0781 21.8984 41.1641 22.0449 41.3359 22.1465C41.5078 22.2441 41.7891 22.293 42.1797 22.293ZM45.0391 23.2832H42.1445V22.2637H44.4473L43.75 17.2949L43.4453 17.1484C43.4453 16.8789 43.4688 16.627 43.5156 16.3926C43.5625 16.1543 43.6328 15.9238 43.7266 15.7012L43.8145 15.7656C43.8145 15.9922 43.9414 16.1621 44.1953 16.2754C44.3906 16.3535 44.5879 16.4316 44.7871 16.5098C44.7871 16.7051 44.7715 16.9141 44.7402 17.1367C44.709 17.3594 44.6719 17.5254 44.6289 17.6348L44.3477 17.541L45.0391 22.1348V23.2832ZM49.7676 23.2832H48.9062C48.6523 23.2832 48.3945 23.2227 48.1328 23.1016C47.8203 22.957 47.5938 22.7559 47.4531 22.498C47.1914 22.7324 46.8926 22.9141 46.5566 23.043C46.1465 23.2031 45.6797 23.2832 45.1562 23.2832H44.6289V22.2637H45.1562C45.4844 22.2637 45.7891 22.2285 46.0703 22.1582C46.3906 22.0762 46.7051 21.9453 47.0137 21.7656L46.7676 21.4492C46.6426 21.3008 46.502 21.2266 46.3457 21.2266C46.2754 21.2266 46.2129 21.2402 46.1582 21.2676C46.1035 21.291 46.043 21.3457 45.9766 21.4316H45.8535V21.0859C45.8535 20.6562 45.9668 20.3613 46.1934 20.2012C46.4004 20.0566 46.7598 19.9844 47.2715 19.9844C47.7129 19.9844 48.0723 20.043 48.3496 20.1602C48.7129 20.3125 48.8945 20.5469 48.8945 20.8633C48.8945 21.0312 48.8223 21.2051 48.6777 21.3848C48.5723 21.5176 48.3789 21.7012 48.0977 21.9355C48.1602 22.0293 48.2793 22.1074 48.4551 22.1699C48.6348 22.2324 48.7852 22.2637 48.9062 22.2637H49.7676V23.2832ZM54.502 23.2832H53.8926C53.6309 23.2832 53.3359 23.2246 53.0078 23.1074C52.6289 22.9707 52.2949 22.7832 52.0059 22.5449C51.7793 22.8223 51.5469 23.0156 51.3086 23.125C51.0742 23.2305 50.7305 23.2832 50.2773 23.2832H49.3633V22.2637H50.2598C50.6152 22.2637 50.9316 22.1738 51.209 21.9941C51.4238 21.8535 51.6191 21.6562 51.7949 21.4023C52.0332 21.0586 52.3262 20.7598 52.6738 20.5059C52.9863 20.2793 53.2734 20.1348 53.5352 20.0723C53.8047 20.4824 54.0195 20.8516 54.1797 21.1797C54.3945 21.625 54.502 21.9863 54.502 22.2637V23.2832ZM53.8281 22.1289C53.7773 21.9023 53.6992 21.6797 53.5938 21.4609C53.5039 21.2773 53.3848 21.0879 53.2363 20.8926C53.0488 20.9395 52.8906 21.0273 52.7617 21.1562C52.6758 21.2383 52.5742 21.377 52.457 21.5723C52.5977 21.7246 52.7949 21.8613 53.0488 21.9824C53.3066 22.1035 53.5488 22.1777 53.7754 22.2051L53.8281 22.1289ZM61.8965 23.2832H59.2715C59.0488 23.2832 58.8477 23.2188 58.668 23.0898C58.4922 22.9609 58.4043 22.8086 58.4043 22.6328C58.4043 22.4844 58.4121 22.3496 58.4277 22.2285C58.4434 22.1074 58.4727 21.9746 58.5156 21.8301H58.6504C58.6934 21.9902 58.7715 22.1055 58.8848 22.1758C58.9785 22.2344 59.1074 22.2637 59.2715 22.2637H61.5391C61.5391 21.5645 61.4414 21.002 61.2461 20.5762C61.0039 20.0449 60.5996 19.6914 60.0332 19.5156L60.1211 18.3789C60.7969 18.7109 61.2754 19.2402 61.5566 19.9668C61.7832 20.5527 61.8965 21.3184 61.8965 22.2637V23.2832ZM67.0879 22.9316C67.0879 23.5762 66.8496 24.2168 66.373 24.8535C65.8418 25.5645 65.2285 25.9199 64.5332 25.9199C64.2754 25.9199 64.0098 25.8906 63.7363 25.832C63.5371 25.7891 63.2773 25.7148 62.957 25.6094C62.7031 25.5195 62.4492 25.4316 62.1953 25.3457L62.2949 25.1406C62.5137 25.1914 62.7422 25.2441 62.9805 25.2988C63.2227 25.3574 63.4395 25.3867 63.6309 25.3867C64.1074 25.3867 64.5586 25.2656 64.9844 25.0234C65.3164 24.832 65.6484 24.5547 65.9805 24.1914C66.1484 24.0078 66.3867 23.709 66.6953 23.2949C66.168 23.2949 65.7734 23.2109 65.5117 23.043C65.2148 22.8516 65.0664 22.5371 65.0664 22.0996C65.0664 21.6973 65.1602 21.3242 65.3477 20.9805C65.5664 20.582 65.8438 20.3828 66.1797 20.3828C66.5195 20.3828 66.7637 20.5801 66.9121 20.9746C67.0293 21.2832 67.0879 21.7129 67.0879 22.2637V22.9316ZM66.7188 22.293C66.6328 21.918 66.5293 21.6582 66.4082 21.5137C66.3027 21.3887 66.1738 21.3262 66.0215 21.3262C65.9121 21.3262 65.8164 21.3633 65.7344 21.4375C65.6562 21.5078 65.6172 21.5977 65.6172 21.707C65.6172 21.8984 65.7031 22.0449 65.875 22.1465C66.0469 22.2441 66.3281 22.293 66.7188 22.293ZM73.4512 23.2832H66.6836V22.2637H71.459C71.0605 21.9551 70.7246 21.7148 70.4512 21.543C70.1113 21.3281 69.8008 21.1719 69.5195 21.0742C69.2031 20.9648 68.8828 20.9102 68.5586 20.9102C68.3594 20.9102 68.1582 20.9238 67.9551 20.9512C68.0684 20.6621 68.2168 20.4297 68.4004 20.2539C68.666 20 69.002 19.873 69.4082 19.873C69.8066 19.873 70.2773 20.0684 70.8203 20.459C71.0898 20.6543 71.5293 21.0254 72.1387 21.5723C72.6113 21.998 72.9316 22.2285 73.0996 22.2637H73.4512V23.2832ZM70.4688 24.5547L70.0293 25.3984L69.0742 24.9062L69.5312 24.0508L70.4688 24.5547ZM78.6426 22.9316C78.6426 23.5762 78.4043 24.2168 77.9277 24.8535C77.3965 25.5645 76.7832 25.9199 76.0879 25.9199C75.8301 25.9199 75.5645 25.8906 75.291 25.832C75.0918 25.7891 74.832 25.7148 74.5117 25.6094C74.2578 25.5195 74.0039 25.4316 73.75 25.3457L73.8496 25.1406C74.0684 25.1914 74.2969 25.2441 74.5352 25.2988C74.7773 25.3574 74.9941 25.3867 75.1855 25.3867C75.6621 25.3867 76.1133 25.2656 76.5391 25.0234C76.8711 24.832 77.2031 24.5547 77.5352 24.1914C77.7031 24.0078 77.9414 23.709 78.25 23.2949C77.7227 23.2949 77.3281 23.2109 77.0664 23.043C76.7695 22.8516 76.6211 22.5371 76.6211 22.0996C76.6211 21.6973 76.7148 21.3242 76.9023 20.9805C77.1211 20.582 77.3984 20.3828 77.7344 20.3828C78.0742 20.3828 78.3184 20.5801 78.4668 20.9746C78.584 21.2832 78.6426 21.7129 78.6426 22.2637V22.9316ZM78.2734 22.293C78.1875 21.918 78.084 21.6582 77.9629 21.5137C77.8574 21.3887 77.7285 21.3262 77.5762 21.3262C77.4668 21.3262 77.3711 21.3633 77.2891 21.4375C77.2109 21.5078 77.1719 21.5977 77.1719 21.707C77.1719 21.8984 77.2578 22.0449 77.4297 22.1465C77.6016 22.2441 77.8828 22.293 78.2734 22.293ZM83.377 23.2832H82.7676C82.5059 23.2832 82.2109 23.2246 81.8828 23.1074C81.5039 22.9707 81.1699 22.7832 80.8809 22.5449C80.6543 22.8223 80.4219 23.0156 80.1836 23.125C79.9492 23.2305 79.6055 23.2832 79.1523 23.2832H78.2383V22.2637H79.1348C79.4902 22.2637 79.8066 22.1738 80.084 21.9941C80.2988 21.8535 80.4941 21.6562 80.6699 21.4023C80.9082 21.0586 81.2012 20.7598 81.5488 20.5059C81.8613 20.2793 82.1484 20.1348 82.4102 20.0723C82.6797 20.4824 82.8945 20.8516 83.0547 21.1797C83.2695 21.625 83.377 21.9863 83.377 22.2637V23.2832ZM82.7031 22.1289C82.6523 21.9023 82.5742 21.6797 82.4688 21.4609C82.3789 21.2773 82.2598 21.0879 82.1113 20.8926C81.9238 20.9395 81.7656 21.0273 81.6367 21.1562C81.5508 21.2383 81.4492 21.377 81.332 21.5723C81.4727 21.7246 81.6699 21.8613 81.9238 21.9824C82.1816 22.1035 82.4238 22.1777 82.6504 22.2051L82.7031 22.1289ZM92.5879 23.2832C92.5879 23.7129 92.4043 24.1582 92.0371 24.6191C91.7168 25.0254 91.3184 25.375 90.8418 25.668C90.3887 25.9492 90.0156 26.0898 89.7227 26.0898C89.4531 26.0898 89.1621 26.0508 88.8496 25.9727C88.6113 25.9141 88.3262 25.8223 87.9941 25.6973C87.7129 25.5918 87.4336 25.4863 87.1562 25.3809L87.2559 25.1465C87.5137 25.1973 87.7812 25.248 88.0586 25.2988C88.3398 25.3535 88.5938 25.3809 88.8203 25.3809C89.3203 25.3809 89.8418 25.2207 90.3848 24.9004C90.877 24.6074 91.2969 24.2383 91.6445 23.793C91.9922 23.3438 92.166 22.9395 92.166 22.5801C92.166 22.2715 92.0762 21.9473 91.8965 21.6074C91.752 21.334 91.5488 21.0527 91.2871 20.7637L91.6211 19.8438C91.9414 20.1406 92.1777 20.4375 92.3301 20.7344C92.502 21.0703 92.5879 21.4453 92.5879 21.8594V23.2832ZM95.4297 24.6719L94.9961 25.5215L94.0352 25.0293L94.4805 24.1797L95.4297 24.6719ZM95.2305 26.248L94.7969 27.1035L93.8418 26.5996L94.293 25.7441L95.2305 26.248ZM94.0938 25.2168L93.6543 26.0547L92.6875 25.5566L93.1445 24.7129L94.0938 25.2168ZM95.5234 23.2832H92.1836V22.2637H95.0957C95.0957 21.8027 95.041 21.4512 94.9316 21.209C94.8574 21.041 94.6738 20.7988 94.3809 20.4824L94.8379 19.5273C95.1191 19.8828 95.2949 20.1602 95.3652 20.3594C95.4707 20.6602 95.5234 21.1582 95.5234 21.8535V23.2832ZM107.424 23.2832H101.834C101.084 23.2832 100.486 23.1523 100.041 22.8906C99.4824 22.5625 99.2031 22.0488 99.2031 21.3496C99.2031 20.9863 99.2852 20.6152 99.4492 20.2363C99.5078 20.0996 99.6484 19.8398 99.8711 19.457L100.047 19.5684C99.9609 19.748 99.877 19.9277 99.7949 20.1074C99.6816 20.3848 99.625 20.6328 99.625 20.8516C99.625 21.3125 99.8672 21.6699 100.352 21.9238C100.785 22.1504 101.334 22.2637 101.998 22.2637H106.961V22.1055C106.961 21.668 106.908 21.3125 106.803 21.0391C106.697 20.7617 106.518 20.5254 106.264 20.3301L106.715 19.375C106.887 19.5898 106.99 19.7246 107.025 19.7793C107.291 20.2168 107.424 20.8535 107.424 21.6895V23.2832ZM105.021 18.7773H101.5V18.291H101.928C102.174 18.291 102.436 18.2051 102.713 18.0332C102.787 17.8535 102.824 17.6758 102.824 17.5C102.824 17.3086 102.805 17.0879 102.766 16.8379C102.734 16.6465 102.693 16.4414 102.643 16.2227C102.615 16.1055 102.576 15.9551 102.525 15.7715L102.355 15.6895C102.387 15.4355 102.439 15.2266 102.514 15.0625C102.545 15.1562 102.623 15.2285 102.748 15.2793C102.826 15.3105 102.928 15.332 103.053 15.3438C103.045 15.4648 103.014 15.6504 102.959 15.9004C102.943 15.8965 102.908 15.8887 102.854 15.877L102.818 15.8652C102.967 16.3613 103.041 16.7773 103.041 17.1133C103.041 17.2383 103.027 17.3848 103 17.5527C102.992 17.6035 102.977 17.6934 102.953 17.8223C103.27 17.6387 103.479 17.5234 103.58 17.4766C103.861 17.3438 104.096 17.2773 104.283 17.2773C104.775 17.2773 105.021 17.543 105.021 18.0742V18.7773ZM104.576 18.0801C104.576 17.8848 104.389 17.7871 104.014 17.7871C103.768 17.7871 103.457 17.8848 103.082 18.0801C102.93 18.1582 102.805 18.2285 102.707 18.291H103.92C104.357 18.291 104.576 18.2207 104.576 18.0801ZM110.359 23.2832H107.02V22.2637H109.932C109.932 21.8027 109.877 21.4512 109.768 21.209C109.693 21.041 109.51 20.7988 109.217 20.4824L109.674 19.5273C109.955 19.8828 110.131 20.1602 110.201 20.3594C110.307 20.6602 110.359 21.1582 110.359 21.8535V23.2832ZM109.727 17.9395C109.727 18.0371 109.666 18.125 109.545 18.2031C109.463 18.2539 109.34 18.3086 109.176 18.3672L108.086 18.7422C108.086 18.5625 108.281 18.4043 108.672 18.2676C108.551 18.2051 108.459 18.1445 108.396 18.0859C108.314 18.0117 108.273 17.9336 108.273 17.8516C108.273 17.7305 108.377 17.5605 108.584 17.3418C108.814 17.0996 109.018 16.9785 109.193 16.9785C109.271 16.9785 109.338 17.0059 109.393 17.0605C109.451 17.1113 109.48 17.1797 109.48 17.2656C109.48 17.3203 109.469 17.377 109.445 17.4355C109.422 17.4902 109.389 17.5527 109.346 17.623C109.225 17.5137 109.094 17.459 108.953 17.459C108.867 17.459 108.781 17.4766 108.695 17.5117C108.613 17.5469 108.572 17.5879 108.572 17.6348C108.572 17.6934 108.662 17.7734 108.842 17.875C109.025 17.9766 109.182 18.0273 109.311 18.0273C109.396 18.0273 109.457 18.0254 109.492 18.0215C109.531 18.0137 109.609 17.9863 109.727 17.9395ZM113.113 23.2832H112.293C112.027 23.2832 111.814 23.1758 111.654 22.9609C111.514 22.7734 111.406 22.4941 111.332 22.123C111.262 21.752 111.207 21.2949 111.168 20.752C111.145 20.3105 111.119 19.8574 111.092 19.3926C111.068 18.9277 111.035 18.5762 110.992 18.3379C110.953 18.0957 110.898 17.8984 110.828 17.7461C110.742 17.5586 110.623 17.3945 110.471 17.2539L111.191 16.1172C111.344 16.5859 111.451 17.1465 111.514 17.7988C111.553 18.2051 111.592 19.166 111.631 20.6816C111.701 21.377 111.803 21.8223 111.936 22.0176C112.045 22.1816 112.164 22.2637 112.293 22.2637H113.113V23.2832ZM119.482 23.2832H119.031C118.781 23.2832 118.566 23.25 118.387 23.1836C118.207 23.1133 118.043 23.0156 117.895 22.8906C117.711 23.0352 117.551 23.1309 117.414 23.1777C117.215 23.248 116.941 23.2832 116.594 23.2832H116.213C116.01 23.2832 115.807 23.2441 115.604 23.166C115.471 23.1152 115.307 23.0312 115.111 22.9141C114.924 23.0547 114.752 23.1523 114.596 23.207C114.439 23.2578 114.186 23.2832 113.834 23.2832H112.703V22.2637H113.834C114.15 22.2637 114.377 22.2363 114.514 22.1816C114.74 22.0918 114.854 21.9121 114.854 21.6426C114.854 21.5293 114.848 21.416 114.836 21.3027C114.824 21.1895 114.803 21.0625 114.771 20.9219L115.012 20.5703C115.121 20.9297 115.211 21.1914 115.281 21.3555C115.406 21.6406 115.543 21.8555 115.691 22C115.871 22.1758 116.086 22.2637 116.336 22.2637H116.729C117.021 22.2637 117.238 22.2188 117.379 22.1289C117.535 22.0273 117.613 21.8652 117.613 21.6426C117.613 21.5215 117.605 21.4043 117.59 21.291C117.574 21.1777 117.553 21.0547 117.525 20.9219L117.771 20.5703L117.895 21.1211C118 21.5547 118.129 21.8555 118.281 22.0234C118.414 22.1719 118.594 22.2461 118.82 22.2461C118.926 22.2461 119.01 22.2148 119.072 22.1523C119.139 22.0859 119.172 22.002 119.172 21.9004C119.172 21.6816 119.092 21.4512 118.932 21.209C118.904 21.1699 118.809 21.043 118.645 20.8281L119.025 20.1895C119.186 20.4316 119.295 20.6406 119.354 20.8164C119.439 21.082 119.482 21.4355 119.482 21.877V23.2832ZM131.389 23.2832H125.799C125.049 23.2832 124.451 23.1523 124.006 22.8906C123.447 22.5625 123.168 22.0488 123.168 21.3496C123.168 20.9863 123.25 20.6152 123.414 20.2363C123.473 20.0996 123.613 19.8398 123.836 19.457L124.012 19.5684C123.926 19.748 123.842 19.9277 123.76 20.1074C123.646 20.3848 123.59 20.6328 123.59 20.8516C123.59 21.3125 123.832 21.6699 124.316 21.9238C124.75 22.1504 125.299 22.2637 125.963 22.2637H130.926V22.1055C130.926 21.668 130.873 21.3125 130.768 21.0391C130.662 20.7617 130.482 20.5254 130.229 20.3301L130.68 19.375C130.852 19.5898 130.955 19.7246 130.99 19.7793C131.256 20.2168 131.389 20.8535 131.389 21.6895V23.2832ZM128.031 24.707L127.574 25.5566L126.625 25.0645L127.059 24.209L128.031 24.707ZM134.324 23.2832H130.984V22.2637H133.896C133.896 21.8027 133.842 21.4512 133.732 21.209C133.658 21.041 133.475 20.7988 133.182 20.4824L133.639 19.5273C133.92 19.8828 134.096 20.1602 134.166 20.3594C134.271 20.6602 134.324 21.1582 134.324 21.8535V23.2832ZM134.295 24.4551L133.838 25.2988L132.889 24.7949L133.328 23.957L134.295 24.4551ZM132.947 24.9824L132.502 25.832L131.553 25.3398L131.986 24.4902L132.947 24.9824ZM139.51 22.9316C139.51 23.5762 139.271 24.2168 138.795 24.8535C138.264 25.5645 137.65 25.9199 136.955 25.9199C136.697 25.9199 136.432 25.8906 136.158 25.832C135.959 25.7891 135.699 25.7148 135.379 25.6094C135.125 25.5195 134.871 25.4316 134.617 25.3457L134.717 25.1406C134.936 25.1914 135.164 25.2441 135.402 25.2988C135.645 25.3574 135.861 25.3867 136.053 25.3867C136.529 25.3867 136.98 25.2656 137.406 25.0234C137.738 24.832 138.07 24.5547 138.402 24.1914C138.57 24.0078 138.809 23.709 139.117 23.2949C138.59 23.2949 138.195 23.2109 137.934 23.043C137.637 22.8516 137.488 22.5371 137.488 22.0996C137.488 21.6973 137.582 21.3242 137.77 20.9805C137.988 20.582 138.266 20.3828 138.602 20.3828C138.941 20.3828 139.186 20.5801 139.334 20.9746C139.451 21.2832 139.51 21.7129 139.51 22.2637V22.9316ZM139.141 22.293C139.055 21.918 138.951 21.6582 138.83 21.5137C138.725 21.3887 138.596 21.3262 138.443 21.3262C138.334 21.3262 138.238 21.3633 138.156 21.4375C138.078 21.5078 138.039 21.5977 138.039 21.707C138.039 21.8984 138.125 22.0449 138.297 22.1465C138.469 22.2441 138.75 22.293 139.141 22.293ZM152.711 23.2832H152.248C152.014 23.2832 151.807 23.252 151.627 23.1895C151.451 23.123 151.271 23.0195 151.088 22.8789C150.924 23.0273 150.777 23.127 150.648 23.1777C150.465 23.248 150.197 23.2832 149.846 23.2832H149.125C149.125 23.6426 149.039 23.9922 148.867 24.332C148.645 24.7734 148.305 25.123 147.848 25.3809C147.273 25.7051 146.555 25.8672 145.691 25.8672C144.91 25.8672 144.312 25.7305 143.898 25.457C143.445 25.1562 143.219 24.6953 143.219 24.0742C143.219 23.7383 143.26 23.3984 143.342 23.0547C143.424 22.7109 143.535 22.3652 143.676 22.0176C143.762 21.8066 143.91 21.4824 144.121 21.0449L144.355 21.1504C144.082 21.7129 143.9 22.1562 143.811 22.4805C143.725 22.8047 143.682 23.1016 143.682 23.3711C143.682 23.8555 143.854 24.2246 144.197 24.4785C144.545 24.7285 145.039 24.8535 145.68 24.8535C146.43 24.8535 147.1 24.7227 147.689 24.4609C148.424 24.1367 148.791 23.6836 148.791 23.1016C148.791 22.7109 148.719 22.3398 148.574 21.9883C148.461 21.7109 148.301 21.4453 148.094 21.1914L148.58 19.9902C148.775 20.3105 148.908 20.5938 148.979 20.8398C149.076 21.1875 149.125 21.6621 149.125 22.2637H149.846C150.217 22.2637 150.48 22.207 150.637 22.0938C150.773 21.9961 150.842 21.8457 150.842 21.6426C150.842 21.5293 150.834 21.416 150.818 21.3027C150.807 21.1855 150.787 21.0586 150.76 20.9219L150.994 20.5703L151.088 21.1387C151.174 21.5215 151.289 21.7969 151.434 21.9648C151.594 22.1523 151.82 22.2461 152.113 22.2461C152.203 22.2461 152.271 22.2188 152.318 22.1641C152.369 22.1055 152.395 22.0332 152.395 21.9473C152.395 21.752 152.334 21.543 152.213 21.3203C152.123 21.1562 152.004 20.9922 151.855 20.8281L152.248 20.1895C152.432 20.4902 152.543 20.6953 152.582 20.8047C152.668 21.0508 152.711 21.4082 152.711 21.877V23.2832ZM154.691 21.7891C154.691 22.1016 154.635 22.4043 154.521 22.6973C154.463 22.8535 154.336 23.1016 154.141 23.4414L154.035 23.3828C154.047 23.2695 154.057 23.1387 154.064 22.9902C154.076 22.8418 154.082 22.7422 154.082 22.6914C154.082 22.2852 154.049 21.7188 153.982 20.9922C153.92 20.2617 153.844 19.5 153.754 18.707C153.699 18.2266 153.639 17.7363 153.572 17.2363C153.65 17.0645 153.738 16.8789 153.836 16.6797C153.938 16.4805 154.033 16.293 154.123 16.1172C154.186 16.5625 154.264 17.1719 154.357 17.9453C154.455 18.7188 154.531 19.416 154.586 20.0371C154.656 20.8105 154.691 21.3945 154.691 21.7891ZM164.4 23.2832C164.4 23.7129 164.217 24.1582 163.85 24.6191C163.529 25.0254 163.131 25.375 162.654 25.668C162.201 25.9492 161.828 26.0898 161.535 26.0898C161.266 26.0898 160.975 26.0508 160.662 25.9727C160.424 25.9141 160.139 25.8223 159.807 25.6973C159.525 25.5918 159.246 25.4863 158.969 25.3809L159.068 25.1465C159.326 25.1973 159.594 25.248 159.871 25.2988C160.152 25.3535 160.406 25.3809 160.633 25.3809C161.133 25.3809 161.654 25.2207 162.197 24.9004C162.689 24.6074 163.109 24.2383 163.457 23.793C163.805 23.3438 163.979 22.9395 163.979 22.5801C163.979 22.2715 163.889 21.9473 163.709 21.6074C163.564 21.334 163.361 21.0527 163.1 20.7637L163.434 19.8438C163.754 20.1406 163.99 20.4375 164.143 20.7344C164.314 21.0703 164.4 21.4453 164.4 21.8594V23.2832ZM167.336 23.2832H163.996V22.2637H166.908C166.908 21.8027 166.854 21.4512 166.744 21.209C166.67 21.041 166.486 20.7988 166.193 20.4824L166.65 19.5273C166.932 19.8828 167.107 20.1602 167.178 20.3594C167.283 20.6602 167.336 21.1582 167.336 21.8535V23.2832ZM167.307 24.4551L166.85 25.2988L165.9 24.7949L166.34 23.957L167.307 24.4551ZM165.959 24.9824L165.514 25.832L164.564 25.3398L164.998 24.4902L165.959 24.9824ZM170.066 17.8281L169.621 18.6777L168.672 18.1855L169.111 17.3301L170.066 17.8281ZM172.064 23.2832H171.203C170.949 23.2832 170.691 23.2227 170.43 23.1016C170.117 22.957 169.891 22.7559 169.75 22.498C169.488 22.7324 169.189 22.9141 168.854 23.043C168.443 23.2031 167.977 23.2832 167.453 23.2832H166.926V22.2637H167.453C167.781 22.2637 168.086 22.2285 168.367 22.1582C168.688 22.0762 169.002 21.9453 169.311 21.7656L169.064 21.4492C168.939 21.3008 168.799 21.2266 168.643 21.2266C168.572 21.2266 168.51 21.2402 168.455 21.2676C168.4 21.291 168.34 21.3457 168.273 21.4316H168.15V21.0859C168.15 20.6562 168.264 20.3613 168.49 20.2012C168.697 20.0566 169.057 19.9844 169.568 19.9844C170.01 19.9844 170.369 20.043 170.646 20.1602C171.01 20.3125 171.191 20.5469 171.191 20.8633C171.191 21.0312 171.119 21.2051 170.975 21.3848C170.869 21.5176 170.676 21.7012 170.395 21.9355C170.457 22.0293 170.576 22.1074 170.752 22.1699C170.932 22.2324 171.082 22.2637 171.203 22.2637H172.064V23.2832ZM175 23.2832H171.66V22.2637H174.572C174.572 21.8027 174.518 21.4512 174.408 21.209C174.334 21.041 174.15 20.7988 173.857 20.4824L174.314 19.5273C174.596 19.8828 174.771 20.1602 174.842 20.3594C174.947 20.6602 175 21.1582 175 21.8535V23.2832ZM174.402 24.707L173.945 25.5566L172.996 25.0645L173.43 24.209L174.402 24.707Z"/>
  </symbol>
  <symbol id="svg-copy-pk-3" viewBox="47 29 128 13">
    <path d="M57.1387 36.2637C56.8652 35.8496 56.5527 35.4902 56.2012 35.1855C55.8496 34.877 55.375 34.5449 54.7773 34.1895L54.584 34.3711L53.8926 33.8438C53.6504 33.6406 53.5293 33.4824 53.5293 33.3691C53.5293 32.6973 53.6934 32.1699 54.0215 31.7871C54.3262 31.4355 54.8516 31.1191 55.5977 30.8379L57.25 30.1934V31.207L56.0254 31.6172C55.5371 31.7773 55.1426 31.9238 54.8418 32.0566C54.459 32.2246 54.2676 32.3535 54.2676 32.4434C54.2676 32.5332 54.3926 32.6719 54.6426 32.8594C54.7988 32.9766 54.957 33.0938 55.1172 33.2109C55.7109 33.6602 56.2285 34.1309 56.6699 34.623C57.1465 35.1504 57.5293 35.6973 57.8184 36.2637V37.2832H50.8164C49.8828 37.2832 49.2188 37.1719 48.8242 36.9492C48.4023 36.7109 48.1914 36.3047 48.1914 35.7305C48.1914 35.3867 48.2832 34.9961 48.4668 34.5586C48.5176 34.4375 48.625 34.2129 48.7891 33.8848L48.9883 34.002C48.8555 34.3066 48.7676 34.541 48.7246 34.7051C48.6855 34.8691 48.666 35.0254 48.666 35.1738C48.666 35.5996 48.8906 35.8984 49.3398 36.0703C49.6758 36.1992 50.168 36.2637 50.8164 36.2637H57.1387ZM65.2129 37.2832H62.5879C62.3652 37.2832 62.1641 37.2188 61.9844 37.0898C61.8086 36.9609 61.7207 36.8086 61.7207 36.6328C61.7207 36.4844 61.7285 36.3496 61.7441 36.2285C61.7598 36.1074 61.7891 35.9746 61.832 35.8301H61.9668C62.0098 35.9902 62.0879 36.1055 62.2012 36.1758C62.2949 36.2344 62.4238 36.2637 62.5879 36.2637H64.8555C64.8555 35.5645 64.7578 35.002 64.5625 34.5762C64.3203 34.0449 63.916 33.6914 63.3496 33.5156L63.4375 32.3789C64.1133 32.7109 64.5918 33.2402 64.873 33.9668C65.0996 34.5527 65.2129 35.3184 65.2129 36.2637V37.2832ZM64.9785 32.0215H61.457V31.5352H61.8848C62.1309 31.5352 62.3926 31.4492 62.6699 31.2773C62.7441 31.0977 62.7812 30.9199 62.7812 30.7441C62.7812 30.5527 62.7617 30.332 62.7227 30.082C62.6914 29.8906 62.6504 29.6855 62.5996 29.4668C62.5723 29.3496 62.5332 29.1992 62.4824 29.0156L62.3125 28.9336C62.3438 28.6797 62.3965 28.4707 62.4707 28.3066C62.502 28.4004 62.5801 28.4727 62.7051 28.5234C62.7832 28.5547 62.8848 28.5762 63.0098 28.5879C63.002 28.709 62.9707 28.8945 62.916 29.1445C62.9004 29.1406 62.8652 29.1328 62.8105 29.1211L62.7754 29.1094C62.9238 29.6055 62.998 30.0215 62.998 30.3574C62.998 30.4824 62.9844 30.6289 62.957 30.7969C62.9492 30.8477 62.9336 30.9375 62.9102 31.0664C63.2266 30.8828 63.4355 30.7676 63.5371 30.7207C63.8184 30.5879 64.0527 30.5215 64.2402 30.5215C64.7324 30.5215 64.9785 30.7871 64.9785 31.3184V32.0215ZM64.5332 31.3242C64.5332 31.1289 64.3457 31.0312 63.9707 31.0312C63.7246 31.0312 63.4141 31.1289 63.0391 31.3242C62.8867 31.4023 62.7617 31.4727 62.6641 31.5352H63.877C64.3145 31.5352 64.5332 31.4648 64.5332 31.3242ZM67.6797 31.8633L67.2344 32.7129L66.2852 32.2207L66.7188 31.3711L67.6797 31.8633ZM68.1484 37.2832H64.8086V36.2637H67.7207C67.7207 35.8027 67.666 35.4512 67.5566 35.209C67.4824 35.041 67.2988 34.7988 67.0059 34.4824L67.4629 33.5273C67.7441 33.8828 67.9199 34.1602 67.9902 34.3594C68.0957 34.6602 68.1484 35.1582 68.1484 35.8535V37.2832ZM70.1289 35.7891C70.1289 36.1016 70.0723 36.4043 69.959 36.6973C69.9004 36.8535 69.7734 37.1016 69.5781 37.4414L69.4727 37.3828C69.4844 37.2695 69.4941 37.1387 69.502 36.9902C69.5137 36.8418 69.5195 36.7422 69.5195 36.6914C69.5195 36.2852 69.4863 35.7188 69.4199 34.9922C69.3574 34.2617 69.2812 33.5 69.1914 32.707C69.1367 32.2266 69.0762 31.7363 69.0098 31.2363C69.0879 31.0645 69.1758 30.8789 69.2734 30.6797C69.375 30.4805 69.4707 30.293 69.5605 30.1172C69.623 30.5625 69.7012 31.1719 69.7949 31.9453C69.8926 32.7188 69.9688 33.416 70.0234 34.0371C70.0938 34.8105 70.1289 35.3945 70.1289 35.7891ZM76.498 37.2832C76.498 37.7129 76.3145 38.1582 75.9473 38.6191C75.627 39.0254 75.2285 39.375 74.752 39.668C74.2988 39.9492 73.9258 40.0898 73.6328 40.0898C73.3633 40.0898 73.0723 40.0508 72.7598 39.9727C72.5215 39.9141 72.2363 39.8223 71.9043 39.6973C71.623 39.5918 71.3438 39.4863 71.0664 39.3809L71.166 39.1465C71.4238 39.1973 71.6914 39.248 71.9688 39.2988C72.25 39.3535 72.5039 39.3809 72.7305 39.3809C73.2305 39.3809 73.752 39.2207 74.2949 38.9004C74.7871 38.6074 75.207 38.2383 75.5547 37.793C75.9023 37.3438 76.0762 36.9395 76.0762 36.5801C76.0762 36.2715 75.9863 35.9473 75.8066 35.6074C75.6621 35.334 75.459 35.0527 75.1973 34.7637L75.5312 33.8438C75.8516 34.1406 76.0879 34.4375 76.2402 34.7344C76.4121 35.0703 76.498 35.4453 76.498 35.8594V37.2832ZM79.4336 37.2832H76.0938V36.2637H79.0059C79.0059 35.8027 78.9512 35.4512 78.8418 35.209C78.7676 35.041 78.584 34.7988 78.291 34.4824L78.748 33.5273C79.0293 33.8828 79.2051 34.1602 79.2754 34.3594C79.3809 34.6602 79.4336 35.1582 79.4336 35.8535V37.2832ZM78.8359 38.707L78.3789 39.5566L77.4297 39.0645L77.8633 38.209L78.8359 38.707ZM83.1191 36.5625L84.1445 36.4219C84.1719 37.0781 84.2949 37.5273 84.5137 37.7695C84.7324 38.0117 85.0352 38.1328 85.4219 38.1328C85.707 38.1328 85.9531 38.0684 86.1602 37.9395C86.3672 37.8066 86.5098 37.6289 86.5879 37.4062C86.666 37.1797 86.7051 36.8203 86.7051 36.3281V30.4102H87.8418V36.2637C87.8418 36.9824 87.7539 37.5391 87.5781 37.9336C87.4062 38.3281 87.1309 38.6289 86.752 38.8359C86.377 39.043 85.9355 39.1465 85.4277 39.1465C84.6738 39.1465 84.0957 38.9297 83.6934 38.4961C83.2949 38.0625 83.1035 37.418 83.1191 36.5625ZM93.6426 39V38.0859C93.1582 38.7891 92.5 39.1406 91.668 39.1406C91.3008 39.1406 90.957 39.0703 90.6367 38.9297C90.3203 38.7891 90.084 38.6133 89.9277 38.4023C89.7754 38.1875 89.668 37.9258 89.6055 37.6172C89.5625 37.4102 89.541 37.082 89.541 36.6328V32.7773H90.5957V36.2285C90.5957 36.7793 90.6172 37.1504 90.6602 37.3418C90.7266 37.6191 90.8672 37.8379 91.082 37.998C91.2969 38.1543 91.5625 38.2324 91.8789 38.2324C92.1953 38.2324 92.4922 38.1523 92.7695 37.9922C93.0469 37.8281 93.2422 37.6074 93.3555 37.3301C93.4727 37.0488 93.5312 36.6426 93.5312 36.1113V32.7773H94.5859V39H93.6426ZM95.8223 37.1426L96.8652 36.9785C96.9238 37.3965 97.0859 37.7168 97.3516 37.9395C97.6211 38.1621 97.9961 38.2734 98.4766 38.2734C98.9609 38.2734 99.3203 38.1758 99.5547 37.9805C99.7891 37.7812 99.9062 37.5488 99.9062 37.2832C99.9062 37.0449 99.8027 36.8574 99.5957 36.7207C99.4512 36.627 99.0918 36.5078 98.5176 36.3633C97.7441 36.168 97.207 36 96.9062 35.8594C96.6094 35.7148 96.3828 35.5176 96.2266 35.2676C96.0742 35.0137 95.998 34.7344 95.998 34.4297C95.998 34.1523 96.0605 33.8965 96.1855 33.6621C96.3145 33.4238 96.4883 33.2266 96.707 33.0703C96.8711 32.9492 97.0938 32.8477 97.375 32.7656C97.6602 32.6797 97.9648 32.6367 98.2891 32.6367C98.7773 32.6367 99.2051 32.707 99.5723 32.8477C99.9434 32.9883 100.217 33.1797 100.393 33.4219C100.568 33.6602 100.689 33.9805 100.756 34.3828L99.7246 34.5234C99.6777 34.2031 99.541 33.9531 99.3145 33.7734C99.0918 33.5938 98.7754 33.5039 98.3652 33.5039C97.8809 33.5039 97.5352 33.584 97.3281 33.7441C97.1211 33.9043 97.0176 34.0918 97.0176 34.3066C97.0176 34.4434 97.0605 34.5664 97.1465 34.6758C97.2324 34.7891 97.3672 34.8828 97.5508 34.957C97.6562 34.9961 97.9668 35.0859 98.4824 35.2266C99.2285 35.4258 99.748 35.5898 100.041 35.7188C100.338 35.8438 100.57 36.0273 100.738 36.2695C100.906 36.5117 100.99 36.8125 100.99 37.1719C100.99 37.5234 100.887 37.8555 100.68 38.168C100.477 38.4766 100.182 38.7168 99.7949 38.8887C99.4082 39.0566 98.9707 39.1406 98.4824 39.1406C97.6738 39.1406 97.0566 38.9727 96.6309 38.6367C96.209 38.3008 95.9395 37.8027 95.8223 37.1426ZM104.547 38.0566L104.699 38.9883C104.402 39.0508 104.137 39.082 103.902 39.082C103.52 39.082 103.223 39.0215 103.012 38.9004C102.801 38.7793 102.652 38.6211 102.566 38.4258C102.48 38.2266 102.438 37.8105 102.438 37.1777V33.5977H101.664V32.7773H102.438V31.2363L103.486 30.6035V32.7773H104.547V33.5977H103.486V37.2363C103.486 37.5371 103.504 37.7305 103.539 37.8164C103.578 37.9023 103.639 37.9707 103.721 38.0215C103.807 38.0723 103.928 38.0977 104.084 38.0977C104.201 38.0977 104.355 38.084 104.547 38.0566ZM105.836 39V33.5977H104.904V32.7773H105.836V32.1152C105.836 31.6973 105.873 31.3867 105.947 31.1836C106.049 30.9102 106.227 30.6895 106.48 30.5215C106.738 30.3496 107.098 30.2637 107.559 30.2637C107.855 30.2637 108.184 30.2988 108.543 30.3691L108.385 31.2891C108.166 31.25 107.959 31.2305 107.764 31.2305C107.443 31.2305 107.217 31.2988 107.084 31.4355C106.951 31.5723 106.885 31.8281 106.885 32.2031V32.7773H108.098V33.5977H106.885V39H105.836ZM108.531 35.8887C108.531 34.7363 108.852 33.8828 109.492 33.3281C110.027 32.8672 110.68 32.6367 111.449 32.6367C112.305 32.6367 113.004 32.918 113.547 33.4805C114.09 34.0391 114.361 34.8125 114.361 35.8008C114.361 36.6016 114.24 37.2324 113.998 37.6934C113.76 38.1504 113.41 38.5059 112.949 38.7598C112.492 39.0137 111.992 39.1406 111.449 39.1406C110.578 39.1406 109.873 38.8613 109.334 38.3027C108.799 37.7441 108.531 36.9395 108.531 35.8887ZM109.615 35.8887C109.615 36.6855 109.789 37.2832 110.137 37.6816C110.484 38.0762 110.922 38.2734 111.449 38.2734C111.973 38.2734 112.408 38.0742 112.756 37.6758C113.104 37.2773 113.277 36.6699 113.277 35.8535C113.277 35.084 113.102 34.502 112.75 34.1074C112.402 33.709 111.969 33.5098 111.449 33.5098C110.922 33.5098 110.484 33.707 110.137 34.1016C109.789 34.4961 109.615 35.0918 109.615 35.8887ZM115.592 39V32.7773H116.541V33.7207C116.783 33.2793 117.006 32.9883 117.209 32.8477C117.416 32.707 117.643 32.6367 117.889 32.6367C118.244 32.6367 118.605 32.75 118.973 32.9766L118.609 33.9551C118.352 33.8027 118.094 33.7266 117.836 33.7266C117.605 33.7266 117.398 33.7969 117.215 33.9375C117.031 34.0742 116.9 34.2656 116.822 34.5117C116.705 34.8867 116.646 35.2969 116.646 35.7422V39H115.592ZM123.859 36.9961L124.949 37.1309C124.777 37.7676 124.459 38.2617 123.994 38.6133C123.529 38.9648 122.936 39.1406 122.213 39.1406C121.303 39.1406 120.58 38.8613 120.045 38.3027C119.514 37.7402 119.248 36.9531 119.248 35.9414C119.248 34.8945 119.518 34.082 120.057 33.5039C120.596 32.9258 121.295 32.6367 122.154 32.6367C122.986 32.6367 123.666 32.9199 124.193 33.4863C124.721 34.0527 124.984 34.8496 124.984 35.877C124.984 35.9395 124.982 36.0332 124.979 36.1582H120.338C120.377 36.8418 120.57 37.3652 120.918 37.7285C121.266 38.0918 121.699 38.2734 122.219 38.2734C122.605 38.2734 122.936 38.1719 123.209 37.9688C123.482 37.7656 123.699 37.4414 123.859 36.9961ZM120.396 35.291H123.871C123.824 34.7676 123.691 34.375 123.473 34.1133C123.137 33.707 122.701 33.5039 122.166 33.5039C121.682 33.5039 121.273 33.666 120.941 33.9902C120.613 34.3145 120.432 34.748 120.396 35.291ZM125.576 39L127.85 35.7656L125.746 32.7773H127.064L128.02 34.2363C128.199 34.5137 128.344 34.7461 128.453 34.9336C128.625 34.6758 128.783 34.4473 128.928 34.248L129.977 32.7773H131.236L129.086 35.707L131.4 39H130.105L128.828 37.0664L128.488 36.5449L126.854 39H125.576ZM140.693 37.2832C140.693 37.7129 140.51 38.1582 140.143 38.6191C139.822 39.0254 139.424 39.375 138.947 39.668C138.494 39.9492 138.121 40.0898 137.828 40.0898C137.559 40.0898 137.268 40.0508 136.955 39.9727C136.717 39.9141 136.432 39.8223 136.1 39.6973C135.818 39.5918 135.539 39.4863 135.262 39.3809L135.361 39.1465C135.619 39.1973 135.887 39.248 136.164 39.2988C136.445 39.3535 136.699 39.3809 136.926 39.3809C137.426 39.3809 137.947 39.2207 138.49 38.9004C138.982 38.6074 139.402 38.2383 139.75 37.793C140.098 37.3438 140.271 36.9395 140.271 36.5801C140.271 36.2715 140.182 35.9473 140.002 35.6074C139.857 35.334 139.654 35.0527 139.393 34.7637L139.727 33.8438C140.047 34.1406 140.283 34.4375 140.436 34.7344C140.607 35.0703 140.693 35.4453 140.693 35.8594V37.2832ZM145.885 36.9316C145.885 37.5762 145.646 38.2168 145.17 38.8535C144.639 39.5645 144.025 39.9199 143.33 39.9199C143.072 39.9199 142.807 39.8906 142.533 39.832C142.334 39.7891 142.074 39.7148 141.754 39.6094C141.5 39.5195 141.246 39.4316 140.992 39.3457L141.092 39.1406C141.311 39.1914 141.539 39.2441 141.777 39.2988C142.02 39.3574 142.236 39.3867 142.428 39.3867C142.904 39.3867 143.355 39.2656 143.781 39.0234C144.113 38.832 144.445 38.5547 144.777 38.1914C144.945 38.0078 145.184 37.709 145.492 37.2949C144.965 37.2949 144.57 37.2109 144.309 37.043C144.012 36.8516 143.863 36.5371 143.863 36.0996C143.863 35.6973 143.957 35.3242 144.145 34.9805C144.363 34.582 144.641 34.3828 144.977 34.3828C145.316 34.3828 145.561 34.5801 145.709 34.9746C145.826 35.2832 145.885 35.7129 145.885 36.2637V36.9316ZM145.516 36.293C145.43 35.918 145.326 35.6582 145.205 35.5137C145.1 35.3887 144.971 35.3262 144.818 35.3262C144.709 35.3262 144.613 35.3633 144.531 35.4375C144.453 35.5078 144.414 35.5977 144.414 35.707C144.414 35.8984 144.5 36.0449 144.672 36.1465C144.844 36.2441 145.125 36.293 145.516 36.293ZM147.871 35.7891C147.871 36.1016 147.814 36.4043 147.701 36.6973C147.643 36.8535 147.516 37.1016 147.32 37.4414L147.215 37.3828C147.227 37.2695 147.236 37.1387 147.244 36.9902C147.256 36.8418 147.262 36.7422 147.262 36.6914C147.262 36.2852 147.229 35.7188 147.162 34.9922C147.1 34.2617 147.023 33.5 146.934 32.707C146.879 32.2266 146.818 31.7363 146.752 31.2363C146.83 31.0645 146.918 30.8789 147.016 30.6797C147.117 30.4805 147.213 30.293 147.303 30.1172C147.365 30.5625 147.443 31.1719 147.537 31.9453C147.635 32.7188 147.711 33.416 147.766 34.0371C147.836 34.8105 147.871 35.3945 147.871 35.7891ZM159.977 41.4902H153.127C152.674 41.4902 152.398 41.4629 152.301 41.4082C152.191 41.3457 152.135 41.252 152.131 41.127C152.123 40.8926 152.178 40.584 152.295 40.2012C152.408 39.7441 152.52 39.4297 152.629 39.2578C152.82 38.9766 153.135 38.6406 153.572 38.25C155.275 36.9258 157.443 36.2637 160.076 36.2637H161.459V37.2832H160.041C157.381 37.2832 155.133 37.9941 153.297 39.416C152.84 39.8301 152.611 40.125 152.611 40.3008C152.611 40.4141 152.795 40.4707 153.162 40.4707H161.459V40.5234L159.977 41.4902ZM163.926 31.8633L163.48 32.7129L162.531 32.2207L162.965 31.3711L163.926 31.8633ZM164.395 37.2832H161.055V36.2637H163.967C163.967 35.8027 163.912 35.4512 163.803 35.209C163.729 35.041 163.545 34.7988 163.252 34.4824L163.709 33.5273C163.99 33.8828 164.166 34.1602 164.236 34.3594C164.342 34.6602 164.395 35.1582 164.395 35.8535V37.2832ZM170.26 37.2832C170.26 37.7129 170.076 38.1582 169.709 38.6191C169.389 39.0254 168.99 39.375 168.514 39.668C168.061 39.9492 167.688 40.0898 167.395 40.0898C167.125 40.0898 166.834 40.0508 166.521 39.9727C166.283 39.9141 165.998 39.8223 165.666 39.6973C165.385 39.5918 165.105 39.4863 164.828 39.3809L164.928 39.1465C165.186 39.1973 165.453 39.248 165.73 39.2988C166.012 39.3535 166.266 39.3809 166.492 39.3809C166.992 39.3809 167.514 39.2207 168.057 38.9004C168.549 38.6074 168.969 38.2383 169.316 37.793C169.664 37.3438 169.838 36.9395 169.838 36.5801C169.838 36.2715 169.748 35.9473 169.568 35.6074C169.424 35.334 169.221 35.0527 168.959 34.7637L169.293 33.8438C169.613 34.1406 169.85 34.4375 170.002 34.7344C170.174 35.0703 170.26 35.4453 170.26 35.8594V37.2832ZM174.994 37.2832H169.855V36.2637H174.314C174.041 35.8496 173.729 35.4902 173.377 35.1855C173.025 34.877 172.551 34.5449 171.953 34.1895L171.76 34.3711L171.068 33.8438C170.826 33.6406 170.705 33.4824 170.705 33.3691C170.705 32.6973 170.869 32.1699 171.197 31.7871C171.502 31.4355 172.027 31.1191 172.773 30.8379L174.426 30.1934V31.207L173.201 31.6172C172.713 31.7773 172.318 31.9238 172.018 32.0566C171.635 32.2246 171.443 32.3535 171.443 32.4434C171.443 32.5332 171.568 32.6719 171.818 32.8594C171.975 32.9766 172.133 33.0938 172.293 33.2109C172.887 33.6602 173.404 34.1309 173.846 34.623C174.322 35.1504 174.705 35.6973 174.994 36.2637V37.2832Z"/>
  </symbol>
  <symbol id="svg-copy-pk-4" viewBox="13 43 162 13">
    <path d="M19.2754 45.9629L18.8184 46.8066L17.8691 46.3027L18.3086 45.4648L19.2754 45.9629ZM17.9277 46.4902L17.4824 47.3398L16.5332 46.8477L16.9668 45.998L17.9277 46.4902ZM22.0293 51.2832H16.4395C15.6895 51.2832 15.0918 51.1523 14.6465 50.8906C14.0879 50.5625 13.8086 50.0488 13.8086 49.3496C13.8086 48.9863 13.8906 48.6152 14.0547 48.2363C14.1133 48.0996 14.2539 47.8398 14.4766 47.457L14.6523 47.5684C14.5664 47.748 14.4824 47.9277 14.4004 48.1074C14.2871 48.3848 14.2305 48.6328 14.2305 48.8516C14.2305 49.3125 14.4727 49.6699 14.957 49.9238C15.3906 50.1504 15.9395 50.2637 16.6035 50.2637H21.5664V50.1055C21.5664 49.668 21.5137 49.3125 21.4082 49.0391C21.3027 48.7617 21.123 48.5254 20.8691 48.3301L21.3203 47.375C21.4922 47.5898 21.5957 47.7246 21.6309 47.7793C21.8965 48.2168 22.0293 48.8535 22.0293 49.6895V51.2832ZM27.0215 45.8281L26.5703 46.6777L25.627 46.1855L26.0664 45.3301L27.0215 45.8281ZM27.9004 51.2832C27.9004 51.7129 27.7168 52.1582 27.3496 52.6191C27.0293 53.0254 26.6309 53.375 26.1543 53.668C25.7012 53.9492 25.3281 54.0898 25.0352 54.0898C24.7656 54.0898 24.4746 54.0508 24.1621 53.9727C23.9238 53.9141 23.6387 53.8223 23.3066 53.6973C23.0254 53.5918 22.7461 53.4863 22.4688 53.3809L22.5684 53.1465C22.8262 53.1973 23.0938 53.248 23.3711 53.2988C23.6523 53.3535 23.9062 53.3809 24.1328 53.3809C24.6328 53.3809 25.1543 53.2207 25.6973 52.9004C26.1895 52.6074 26.6094 52.2383 26.957 51.793C27.3047 51.3438 27.4785 50.9395 27.4785 50.5801C27.4785 50.2715 27.3887 49.9473 27.209 49.6074C27.0645 49.334 26.8613 49.0527 26.5996 48.7637L26.9336 47.8438C27.2539 48.1406 27.4902 48.4375 27.6426 48.7344C27.8145 49.0703 27.9004 49.4453 27.9004 49.8594V51.2832ZM30.6602 51.2832H29.8398C29.5742 51.2832 29.3613 51.1758 29.2012 50.9609C29.0605 50.7734 28.9531 50.4941 28.8789 50.123C28.8086 49.752 28.7539 49.2949 28.7148 48.752C28.6914 48.3105 28.666 47.8574 28.6387 47.3926C28.6152 46.9277 28.582 46.5762 28.5391 46.3379C28.5 46.0957 28.4453 45.8984 28.375 45.7461C28.2891 45.5586 28.1699 45.3945 28.0176 45.2539L28.7383 44.1172C28.8906 44.5859 28.998 45.1465 29.0605 45.7988C29.0996 46.2051 29.1387 47.166 29.1777 48.6816C29.248 49.377 29.3496 49.8223 29.4824 50.0176C29.5918 50.1816 29.7109 50.2637 29.8398 50.2637H30.6602V51.2832ZM37.0176 51.2832H30.25V50.2637H35.0254C34.627 49.9551 34.291 49.7148 34.0176 49.543C33.6777 49.3281 33.3672 49.1719 33.0859 49.0742C32.7695 48.9648 32.4492 48.9102 32.125 48.9102C31.9258 48.9102 31.7246 48.9238 31.5215 48.9512C31.6348 48.6621 31.7832 48.4297 31.9668 48.2539C32.2324 48 32.5684 47.873 32.9746 47.873C33.373 47.873 33.8438 48.0684 34.3867 48.459C34.6562 48.6543 35.0957 49.0254 35.7051 49.5723C36.1777 49.998 36.498 50.2285 36.666 50.2637H37.0176V51.2832ZM34.0352 52.5547L33.5957 53.3984L32.6406 52.9062L33.0977 52.0508L34.0352 52.5547ZM39.0039 49.7891C39.0039 50.1016 38.9473 50.4043 38.834 50.6973C38.7754 50.8535 38.6484 51.1016 38.4531 51.4414L38.3477 51.3828C38.3594 51.2695 38.3691 51.1387 38.377 50.9902C38.3887 50.8418 38.3945 50.7422 38.3945 50.6914C38.3945 50.2852 38.3613 49.7188 38.2949 48.9922C38.2324 48.2617 38.1562 47.5 38.0664 46.707C38.0117 46.2266 37.9512 45.7363 37.8848 45.2363C37.9629 45.0645 38.0508 44.8789 38.1484 44.6797C38.25 44.4805 38.3457 44.293 38.4355 44.1172C38.498 44.5625 38.5762 45.1719 38.6699 45.9453C38.7676 46.7188 38.8438 47.416 38.8984 48.0371C38.9688 48.8105 39.0039 49.3945 39.0039 49.7891ZM49.9082 51.2832H48.8828C48.2812 51.2832 47.8281 51.2988 47.5234 51.3301C47.2227 51.3613 47.0723 51.4238 47.0723 51.5176C47.0723 51.6465 47.2539 51.7109 47.6172 51.7109C47.7773 51.7109 47.9043 51.7148 47.998 51.7227C48.0918 51.7305 48.2969 51.752 48.6133 51.7871C48.8008 51.8105 48.9297 51.8398 49 51.875C49.1133 51.9336 49.1699 52.0352 49.1699 52.1797C49.1699 52.9102 48.9297 53.4414 48.4492 53.7734C47.9258 54.1367 47.0605 54.3184 45.8535 54.3184C45.0137 54.3184 44.3457 54.1758 43.8496 53.8906C43.3223 53.5859 43.0586 53.1523 43.0586 52.5898C43.0586 52.1367 43.1836 51.6562 43.4336 51.1484C43.5234 50.9648 43.7598 50.5723 44.1426 49.9707L44.377 50.0879C44.2285 50.3418 44.082 50.5938 43.9375 50.8438C43.7148 51.2734 43.6035 51.625 43.6035 51.8984C43.6035 52.3789 43.8535 52.7441 44.3535 52.9941C44.8301 53.2324 45.4844 53.3516 46.3164 53.3516C46.875 53.3516 47.3672 53.3086 47.793 53.2227C48.3164 53.1172 48.5781 52.9727 48.5781 52.7891C48.5781 52.7227 48.5488 52.6738 48.4902 52.6426C48.4316 52.6074 48.334 52.5898 48.1973 52.5898C48.0918 52.5781 47.9258 52.5664 47.6992 52.5547C47.4766 52.5391 47.3301 52.5312 47.2598 52.5312C47.0137 52.5312 46.8379 52.5 46.7324 52.4375C46.627 52.3711 46.5742 52.2734 46.5742 52.1445C46.5742 51.6602 46.7168 51.2637 47.002 50.9551C47.2363 50.7051 47.5508 50.5195 47.9453 50.3984C48.2422 50.3086 48.5547 50.2637 48.8828 50.2637H49.9082V51.2832ZM54.6426 51.2832H49.5039V50.2637H53.9629C53.6895 49.8496 53.377 49.4902 53.0254 49.1855C52.6738 48.877 52.1992 48.5449 51.6016 48.1895L51.4082 48.3711L50.7168 47.8438C50.4746 47.6406 50.3535 47.4824 50.3535 47.3691C50.3535 46.6973 50.5176 46.1699 50.8457 45.7871C51.1504 45.4355 51.6758 45.1191 52.4219 44.8379L54.0742 44.1934V45.207L52.8496 45.6172C52.3613 45.7773 51.9668 45.9238 51.666 46.0566C51.2832 46.2246 51.0918 46.3535 51.0918 46.4434C51.0918 46.5332 51.2168 46.6719 51.4668 46.8594C51.623 46.9766 51.7812 47.0938 51.9414 47.2109C52.5352 47.6602 53.0527 48.1309 53.4941 48.623C53.9707 49.1504 54.3535 49.6973 54.6426 50.2637V51.2832ZM66.25 55.4902H59.4004C58.9473 55.4902 58.6719 55.4629 58.5742 55.4082C58.4648 55.3457 58.4082 55.252 58.4043 55.127C58.3965 54.8926 58.4512 54.584 58.5684 54.2012C58.6816 53.7441 58.793 53.4297 58.9023 53.2578C59.0938 52.9766 59.4082 52.6406 59.8457 52.25C61.5488 50.9258 63.7168 50.2637 66.3496 50.2637H67.7324V51.2832H66.3145C63.6543 51.2832 61.4062 51.9941 59.5703 53.416C59.1133 53.8301 58.8848 54.125 58.8848 54.3008C58.8848 54.4141 59.0684 54.4707 59.4355 54.4707H67.7324V54.5234L66.25 55.4902ZM70.1992 45.8633L69.7539 46.7129L68.8047 46.2207L69.2383 45.3711L70.1992 45.8633ZM70.668 51.2832H67.3281V50.2637H70.2402C70.2402 49.8027 70.1855 49.4512 70.0762 49.209C70.002 49.041 69.8184 48.7988 69.5254 48.4824L69.9824 47.5273C70.2637 47.8828 70.4395 48.1602 70.5098 48.3594C70.6152 48.6602 70.668 49.1582 70.668 49.8535V51.2832ZM76.5332 51.2832C76.5332 51.7129 76.3496 52.1582 75.9824 52.6191C75.6621 53.0254 75.2637 53.375 74.7871 53.668C74.334 53.9492 73.9609 54.0898 73.668 54.0898C73.3984 54.0898 73.1074 54.0508 72.7949 53.9727C72.5566 53.9141 72.2715 53.8223 71.9395 53.6973C71.6582 53.5918 71.3789 53.4863 71.1016 53.3809L71.2012 53.1465C71.459 53.1973 71.7266 53.248 72.0039 53.2988C72.2852 53.3535 72.5391 53.3809 72.7656 53.3809C73.2656 53.3809 73.7871 53.2207 74.3301 52.9004C74.8223 52.6074 75.2422 52.2383 75.5898 51.793C75.9375 51.3438 76.1113 50.9395 76.1113 50.5801C76.1113 50.2715 76.0215 49.9473 75.8418 49.6074C75.6973 49.334 75.4941 49.0527 75.2324 48.7637L75.5664 47.8438C75.8867 48.1406 76.123 48.4375 76.2754 48.7344C76.4473 49.0703 76.5332 49.4453 76.5332 49.8594V51.2832ZM81.2676 51.2832H76.1289V50.2637H80.5879C80.3145 49.8496 80.002 49.4902 79.6504 49.1855C79.2988 48.877 78.8242 48.5449 78.2266 48.1895L78.0332 48.3711L77.3418 47.8438C77.0996 47.6406 76.9785 47.4824 76.9785 47.3691C76.9785 46.6973 77.1426 46.1699 77.4707 45.7871C77.7754 45.4355 78.3008 45.1191 79.0469 44.8379L80.6992 44.1934V45.207L79.4746 45.6172C78.9863 45.7773 78.5918 45.9238 78.291 46.0566C77.9082 46.2246 77.7168 46.3535 77.7168 46.4434C77.7168 46.5332 77.8418 46.6719 78.0918 46.8594C78.248 46.9766 78.4062 47.0938 78.5664 47.2109C79.1602 47.6602 79.6777 48.1309 80.1191 48.623C80.5957 49.1504 80.9785 49.6973 81.2676 50.2637V51.2832ZM90.6895 50.5566C90.6895 51.1816 90.543 51.6777 90.25 52.0449C89.9883 52.3691 89.6035 52.6016 89.0957 52.7422C88.666 52.8594 88.1211 52.918 87.4609 52.918C86.707 52.918 86.123 52.7793 85.709 52.502C85.2559 52.1973 85.0293 51.7422 85.0293 51.1367C85.0293 50.8008 85.0781 50.4512 85.1758 50.0879C85.2578 49.7793 85.3828 49.4414 85.5508 49.0742C85.6719 48.8086 85.8359 48.4883 86.043 48.1133L86.2305 48.2246C86.0859 48.4863 85.9648 48.7207 85.8672 48.9277C85.7383 49.2051 85.6426 49.4531 85.5801 49.6719C85.5059 49.9375 85.4688 50.1953 85.4688 50.4453C85.4688 50.9258 85.6426 51.2891 85.9902 51.5352C86.3418 51.7812 86.8281 51.9043 87.4492 51.9043C88.1094 51.9043 88.7207 51.791 89.2832 51.5645C89.9004 51.3145 90.209 51.0156 90.209 50.668C90.209 50.2891 90.1484 49.6465 90.0273 48.7402C89.9336 48.0449 89.8184 47.2676 89.6816 46.4082L89.4883 45.2715L89.2188 45.1309C89.2188 44.6074 89.3262 44.1309 89.541 43.7012H89.6406C89.6562 43.8496 89.6836 43.9609 89.7227 44.0352C89.7617 44.1055 89.8262 44.1582 89.916 44.1934C90.0371 44.2441 90.1699 44.3047 90.3145 44.375C90.4199 44.4258 90.5117 44.4707 90.5898 44.5098C90.5898 44.7832 90.5801 44.9824 90.5605 45.1074C90.541 45.2324 90.502 45.4082 90.4434 45.6348L90.1094 45.5293C90.1172 45.6152 90.1738 46.0078 90.2793 46.707C90.4004 47.5234 90.4902 48.1855 90.5488 48.6934C90.6426 49.5059 90.6895 50.127 90.6895 50.5566ZM93.4492 51.2832H92.6289C92.3633 51.2832 92.1504 51.1758 91.9902 50.9609C91.8496 50.7734 91.7422 50.4941 91.668 50.123C91.5977 49.752 91.543 49.2949 91.5039 48.752C91.4805 48.3105 91.4551 47.8574 91.4277 47.3926C91.4043 46.9277 91.3711 46.5762 91.3281 46.3379C91.2891 46.0957 91.2344 45.8984 91.1641 45.7461C91.0781 45.5586 90.959 45.3945 90.8066 45.2539L91.5273 44.1172C91.6797 44.5859 91.7871 45.1465 91.8496 45.7988C91.8887 46.2051 91.9277 47.166 91.9668 48.6816C92.0371 49.377 92.1387 49.8223 92.2715 50.0176C92.3809 50.1816 92.5 50.2637 92.6289 50.2637H93.4492V51.2832ZM98.1777 51.2832H97.5684C97.3066 51.2832 97.0117 51.2246 96.6836 51.1074C96.3047 50.9707 95.9707 50.7832 95.6816 50.5449C95.4551 50.8223 95.2227 51.0156 94.9844 51.125C94.75 51.2305 94.4062 51.2832 93.9531 51.2832H93.0391V50.2637H93.9355C94.291 50.2637 94.6074 50.1738 94.8848 49.9941C95.0996 49.8535 95.2949 49.6562 95.4707 49.4023C95.709 49.0586 96.002 48.7598 96.3496 48.5059C96.6621 48.2793 96.9492 48.1348 97.2109 48.0723C97.4805 48.4824 97.6953 48.8516 97.8555 49.1797C98.0703 49.625 98.1777 49.9863 98.1777 50.2637V51.2832ZM97.5039 50.1289C97.4531 49.9023 97.375 49.6797 97.2695 49.4609C97.1797 49.2773 97.0605 49.0879 96.9121 48.8926C96.7246 48.9395 96.5664 49.0273 96.4375 49.1562C96.3516 49.2383 96.25 49.377 96.1328 49.5723C96.2734 49.7246 96.4707 49.8613 96.7246 49.9824C96.9824 50.1035 97.2246 50.1777 97.4512 50.2051L97.5039 50.1289ZM102.912 51.2832H102.051C101.797 51.2832 101.539 51.2227 101.277 51.1016C100.965 50.957 100.738 50.7559 100.598 50.498C100.336 50.7324 100.037 50.9141 99.7012 51.043C99.291 51.2031 98.8242 51.2832 98.3008 51.2832H97.7734V50.2637H98.3008C98.6289 50.2637 98.9336 50.2285 99.2148 50.1582C99.5352 50.0762 99.8496 49.9453 100.158 49.7656L99.9121 49.4492C99.7871 49.3008 99.6465 49.2266 99.4902 49.2266C99.4199 49.2266 99.3574 49.2402 99.3027 49.2676C99.248 49.291 99.1875 49.3457 99.1211 49.4316H98.998V49.0859C98.998 48.6562 99.1113 48.3613 99.3379 48.2012C99.5449 48.0566 99.9043 47.9844 100.416 47.9844C100.857 47.9844 101.217 48.043 101.494 48.1602C101.857 48.3125 102.039 48.5469 102.039 48.8633C102.039 49.0312 101.967 49.2051 101.822 49.3848C101.717 49.5176 101.523 49.7012 101.242 49.9355C101.305 50.0293 101.424 50.1074 101.6 50.1699C101.779 50.2324 101.93 50.2637 102.051 50.2637H102.912V51.2832ZM105.818 45.4941L105.361 46.3379L104.412 45.834L104.852 44.9961L105.818 45.4941ZM104.471 46.0215L104.025 46.8711L103.076 46.3789L103.51 45.5293L104.471 46.0215ZM105.848 51.2832H102.508V50.2637H105.42C105.42 49.8027 105.365 49.4512 105.256 49.209C105.182 49.041 104.998 48.7988 104.705 48.4824L105.162 47.5273C105.443 47.8828 105.619 48.1602 105.689 48.3594C105.795 48.6602 105.848 49.1582 105.848 49.8535V51.2832ZM112.217 51.2832H111.766C111.516 51.2832 111.301 51.25 111.121 51.1836C110.941 51.1133 110.777 51.0156 110.629 50.8906C110.445 51.0352 110.285 51.1309 110.148 51.1777C109.949 51.248 109.676 51.2832 109.328 51.2832H108.947C108.744 51.2832 108.541 51.2441 108.338 51.166C108.205 51.1152 108.041 51.0312 107.846 50.9141C107.658 51.0547 107.486 51.1523 107.33 51.207C107.174 51.2578 106.92 51.2832 106.568 51.2832H105.438V50.2637H106.568C106.885 50.2637 107.111 50.2363 107.248 50.1816C107.475 50.0918 107.588 49.9121 107.588 49.6426C107.588 49.5293 107.582 49.416 107.57 49.3027C107.559 49.1895 107.537 49.0625 107.506 48.9219L107.746 48.5703C107.855 48.9297 107.945 49.1914 108.016 49.3555C108.141 49.6406 108.277 49.8555 108.426 50C108.605 50.1758 108.82 50.2637 109.07 50.2637H109.463C109.756 50.2637 109.973 50.2188 110.113 50.1289C110.27 50.0273 110.348 49.8652 110.348 49.6426C110.348 49.5215 110.34 49.4043 110.324 49.291C110.309 49.1777 110.287 49.0547 110.26 48.9219L110.506 48.5703L110.629 49.1211C110.734 49.5547 110.863 49.8555 111.016 50.0234C111.148 50.1719 111.328 50.2461 111.555 50.2461C111.66 50.2461 111.744 50.2148 111.807 50.1523C111.873 50.0859 111.906 50.002 111.906 49.9004C111.906 49.6816 111.826 49.4512 111.666 49.209C111.639 49.1699 111.543 49.043 111.379 48.8281L111.76 48.1895C111.92 48.4316 112.029 48.6406 112.088 48.8164C112.174 49.082 112.217 49.4355 112.217 49.877V51.2832ZM114.203 49.7891C114.203 50.1016 114.146 50.4043 114.033 50.6973C113.975 50.8535 113.848 51.1016 113.652 51.4414L113.547 51.3828C113.559 51.2695 113.568 51.1387 113.576 50.9902C113.588 50.8418 113.594 50.7422 113.594 50.6914C113.594 50.2852 113.561 49.7188 113.494 48.9922C113.432 48.2617 113.355 47.5 113.266 46.707C113.211 46.2266 113.15 45.7363 113.084 45.2363C113.162 45.0645 113.25 44.8789 113.348 44.6797C113.449 44.4805 113.545 44.293 113.635 44.1172C113.697 44.5625 113.775 45.1719 113.869 45.9453C113.967 46.7188 114.043 47.416 114.098 48.0371C114.168 48.8105 114.203 49.3945 114.203 49.7891ZM120.801 51.2832H119.98C119.715 51.2832 119.502 51.1758 119.342 50.9609C119.201 50.7734 119.094 50.4941 119.02 50.123C118.949 49.752 118.895 49.2949 118.855 48.752C118.832 48.3105 118.807 47.8574 118.779 47.3926C118.756 46.9277 118.723 46.5762 118.68 46.3379C118.641 46.0957 118.586 45.8984 118.516 45.7461C118.43 45.5586 118.311 45.3945 118.158 45.2539L118.879 44.1172C119.031 44.5859 119.139 45.1465 119.201 45.7988C119.24 46.2051 119.279 47.166 119.318 48.6816C119.389 49.377 119.49 49.8223 119.623 50.0176C119.732 50.1816 119.852 50.2637 119.98 50.2637H120.801V51.2832ZM125.529 51.2832H120.391V50.2637H124.85C124.576 49.8496 124.264 49.4902 123.912 49.1855C123.561 48.877 123.086 48.5449 122.488 48.1895L122.295 48.3711L121.604 47.8438C121.361 47.6406 121.24 47.4824 121.24 47.3691C121.24 46.6973 121.404 46.1699 121.732 45.7871C122.037 45.4355 122.562 45.1191 123.309 44.8379L124.961 44.1934V45.207L123.736 45.6172C123.248 45.7773 122.854 45.9238 122.553 46.0566C122.17 46.2246 121.979 46.3535 121.979 46.4434C121.979 46.5332 122.104 46.6719 122.354 46.8594C122.51 46.9766 122.668 47.0938 122.828 47.2109C123.422 47.6602 123.939 48.1309 124.381 48.623C124.857 49.1504 125.24 49.6973 125.529 50.2637V51.2832ZM134.682 45.9629L134.225 46.8066L133.275 46.3027L133.715 45.4648L134.682 45.9629ZM133.334 46.4902L132.889 47.3398L131.939 46.8477L132.373 45.998L133.334 46.4902ZM137.436 51.2832H131.846C131.096 51.2832 130.498 51.1523 130.053 50.8906C129.494 50.5625 129.215 50.0488 129.215 49.3496C129.215 48.9863 129.297 48.6152 129.461 48.2363C129.52 48.0996 129.66 47.8398 129.883 47.457L130.059 47.5684C129.973 47.748 129.889 47.9277 129.807 48.1074C129.693 48.3848 129.637 48.6328 129.637 48.8516C129.637 49.3125 129.879 49.6699 130.363 49.9238C130.797 50.1504 131.346 50.2637 132.01 50.2637H136.973V50.1055C136.973 49.668 136.92 49.3125 136.814 49.0391C136.709 48.7617 136.529 48.5254 136.275 48.3301L136.727 47.375C136.898 47.5898 137.002 47.7246 137.037 47.7793C137.303 48.2168 137.436 48.8535 137.436 49.6895V51.2832ZM140.195 51.2832H139.375C139.109 51.2832 138.896 51.1758 138.736 50.9609C138.596 50.7734 138.488 50.4941 138.414 50.123C138.344 49.752 138.289 49.2949 138.25 48.752C138.227 48.3105 138.201 47.8574 138.174 47.3926C138.15 46.9277 138.117 46.5762 138.074 46.3379C138.035 46.0957 137.98 45.8984 137.91 45.7461C137.824 45.5586 137.705 45.3945 137.553 45.2539L138.273 44.1172C138.426 44.5859 138.533 45.1465 138.596 45.7988C138.635 46.2051 138.674 47.166 138.713 48.6816C138.783 49.377 138.885 49.8223 139.018 50.0176C139.127 50.1816 139.246 50.2637 139.375 50.2637H140.195V51.2832ZM143.125 51.2832H139.785V50.2637H142.697C142.697 49.8027 142.643 49.4512 142.533 49.209C142.459 49.041 142.275 48.7988 141.982 48.4824L142.439 47.5273C142.721 47.8828 142.896 48.1602 142.967 48.3594C143.072 48.6602 143.125 49.1582 143.125 49.8535V51.2832ZM143.096 52.4551L142.639 53.2988L141.689 52.7949L142.129 51.957L143.096 52.4551ZM141.748 52.9824L141.303 53.832L140.354 53.3398L140.787 52.4902L141.748 52.9824ZM153.279 51.2832H146.236C146.025 51.2832 145.824 51.248 145.633 51.1777C145.488 51.123 145.318 51.0352 145.123 50.9141C144.959 51.0547 144.795 51.1523 144.631 51.207C144.467 51.2578 144.205 51.2832 143.846 51.2832H142.715V50.2637H143.846C144.162 50.2637 144.389 50.2363 144.525 50.1816C144.752 50.0918 144.865 49.9121 144.865 49.6426C144.865 49.5293 144.857 49.416 144.842 49.3027C144.83 49.1855 144.811 49.0586 144.783 48.9219L145.023 48.5703C145.16 49.1016 145.348 49.5117 145.586 49.8008C145.84 50.1094 146.139 50.2637 146.482 50.2637C146.811 50.2637 147.195 50.1895 147.637 50.041C148.113 49.8809 148.523 49.6777 148.867 49.4316C149.426 49.0332 149.768 48.7949 149.893 48.7168C150.209 48.5137 150.496 48.3691 150.754 48.2832C151.043 48.1855 151.359 48.1367 151.703 48.1367C152.234 48.1367 152.635 48.291 152.904 48.5996C153.154 48.8848 153.279 49.2852 153.279 49.8008V51.2832ZM152.324 49.8125C152.324 49.6211 152.205 49.4727 151.967 49.3672C151.729 49.2578 151.451 49.2031 151.135 49.2031C150.744 49.2031 150.271 49.334 149.717 49.5957C149.275 49.8184 148.836 50.041 148.398 50.2637H151.1C151.525 50.2637 151.836 50.2266 152.031 50.1523C152.227 50.0781 152.324 49.9648 152.324 49.8125ZM158.471 50.9316C158.471 51.5762 158.232 52.2168 157.756 52.8535C157.225 53.5645 156.611 53.9199 155.916 53.9199C155.658 53.9199 155.393 53.8906 155.119 53.832C154.92 53.7891 154.66 53.7148 154.34 53.6094C154.086 53.5195 153.832 53.4316 153.578 53.3457L153.678 53.1406C153.896 53.1914 154.125 53.2441 154.363 53.2988C154.605 53.3574 154.822 53.3867 155.014 53.3867C155.49 53.3867 155.941 53.2656 156.367 53.0234C156.699 52.832 157.031 52.5547 157.363 52.1914C157.531 52.0078 157.77 51.709 158.078 51.2949C157.551 51.2949 157.156 51.2109 156.895 51.043C156.598 50.8516 156.449 50.5371 156.449 50.0996C156.449 49.6973 156.543 49.3242 156.73 48.9805C156.949 48.582 157.227 48.3828 157.562 48.3828C157.902 48.3828 158.146 48.5801 158.295 48.9746C158.412 49.2832 158.471 49.7129 158.471 50.2637V50.9316ZM158.102 50.293C158.016 49.918 157.912 49.6582 157.791 49.5137C157.686 49.3887 157.557 49.3262 157.404 49.3262C157.295 49.3262 157.199 49.3633 157.117 49.4375C157.039 49.5078 157 49.5977 157 49.707C157 49.8984 157.086 50.0449 157.258 50.1465C157.43 50.2441 157.711 50.293 158.102 50.293ZM168.631 51.2832H161.588C161.377 51.2832 161.176 51.248 160.984 51.1777C160.84 51.123 160.67 51.0352 160.475 50.9141C160.311 51.0547 160.146 51.1523 159.982 51.207C159.818 51.2578 159.557 51.2832 159.197 51.2832H158.066V50.2637H159.197C159.514 50.2637 159.74 50.2363 159.877 50.1816C160.104 50.0918 160.217 49.9121 160.217 49.6426C160.217 49.5293 160.209 49.416 160.193 49.3027C160.182 49.1855 160.162 49.0586 160.135 48.9219L160.375 48.5703C160.512 49.1016 160.699 49.5117 160.938 49.8008C161.191 50.1094 161.49 50.2637 161.834 50.2637C162.162 50.2637 162.547 50.1895 162.988 50.041C163.465 49.8809 163.875 49.6777 164.219 49.4316C164.777 49.0332 165.119 48.7949 165.244 48.7168C165.561 48.5137 165.848 48.3691 166.105 48.2832C166.395 48.1855 166.711 48.1367 167.055 48.1367C167.586 48.1367 167.986 48.291 168.256 48.5996C168.506 48.8848 168.631 49.2852 168.631 49.8008V51.2832ZM167.676 49.8125C167.676 49.6211 167.557 49.4727 167.318 49.3672C167.08 49.2578 166.803 49.2031 166.486 49.2031C166.096 49.2031 165.623 49.334 165.068 49.5957C164.627 49.8184 164.188 50.041 163.75 50.2637H166.451C166.877 50.2637 167.188 50.2266 167.383 50.1523C167.578 50.0781 167.676 49.9648 167.676 49.8125ZM172.188 45.8281L171.742 46.6777L170.793 46.1855L171.227 45.3301L172.188 45.8281ZM174.994 51.2832H168.227V50.2637H173.002C172.604 49.9551 172.268 49.7148 171.994 49.543C171.654 49.3281 171.344 49.1719 171.062 49.0742C170.746 48.9648 170.426 48.9102 170.102 48.9102C169.902 48.9102 169.701 48.9238 169.498 48.9512C169.611 48.6621 169.76 48.4297 169.943 48.2539C170.209 48 170.545 47.873 170.951 47.873C171.35 47.873 171.82 48.0684 172.363 48.459C172.633 48.6543 173.072 49.0254 173.682 49.5723C174.154 49.998 174.475 50.2285 174.643 50.2637H174.994V51.2832Z"/>
  </symbol>
  <symbol id="svg-copy-pk-5" viewBox="155 57 20 13">
    <path d="M158.746 65.2832H156.73V64.2637H158.746V65.2832ZM165.291 65.2832C165.291 66.1543 165.035 66.7949 164.523 67.2051C163.973 67.6465 163.084 67.8672 161.857 67.8672C161.076 67.8672 160.479 67.7305 160.064 67.457C159.611 67.1562 159.385 66.6953 159.385 66.0742C159.385 65.7383 159.426 65.3984 159.508 65.0547C159.59 64.7109 159.701 64.3652 159.842 64.0176C159.928 63.8066 160.076 63.4824 160.287 63.0449L160.521 63.1504C160.248 63.7129 160.066 64.1562 159.977 64.4805C159.891 64.8047 159.848 65.1016 159.848 65.3711C159.848 65.8555 160.02 66.2246 160.363 66.4785C160.711 66.7285 161.205 66.8535 161.846 66.8535C162.584 66.8535 163.238 66.7227 163.809 66.4609C164.516 66.1367 164.869 65.6836 164.869 65.1016C164.869 64.7031 164.811 64.332 164.693 63.9883C164.592 63.6836 164.447 63.418 164.26 63.1914L164.746 61.9902C164.953 62.3066 165.096 62.6289 165.174 62.957C165.252 63.2852 165.291 63.7207 165.291 64.2637V65.2832ZM168.227 65.2832H164.887V64.2637H167.799C167.799 63.8027 167.744 63.4512 167.635 63.209C167.561 63.041 167.377 62.7988 167.084 62.4824L167.541 61.5273C167.822 61.8828 167.998 62.1602 168.068 62.3594C168.174 62.6602 168.227 63.1582 168.227 63.8535V65.2832ZM168.197 66.4551L167.74 67.2988L166.791 66.7949L167.23 65.957L168.197 66.4551ZM166.85 66.9824L166.404 67.832L165.455 67.3398L165.889 66.4902L166.85 66.9824ZM172.07 65.2832H171.836C171.43 65.2832 171.129 65.3535 170.934 65.4941C170.688 65.6738 170.527 65.9473 170.453 66.3145C170.387 66.6309 170.334 66.7891 170.295 66.7891C170.143 66.7891 170.006 66.5801 169.885 66.1621C169.779 65.8105 169.717 65.457 169.697 65.1016C169.682 64.7617 169.689 64.502 169.721 64.3223C169.408 64.9629 168.949 65.2832 168.344 65.2832H167.816V64.2637H168.344C169.156 64.2637 169.76 63.7148 170.154 62.6172L170.459 62.7227C170.225 63.4062 170.107 64.0449 170.107 64.6387C170.107 65.0801 170.15 65.418 170.236 65.6523C170.244 65.3516 170.346 65.0742 170.541 64.8203C170.838 64.4492 171.27 64.2637 171.836 64.2637H172.07V65.2832ZM171.033 68.9453C171.033 69.0938 170.98 69.2168 170.875 69.3145C170.77 69.4121 170.643 69.4609 170.494 69.4609C170.275 69.4609 170.102 69.3535 169.973 69.1387C169.867 68.9551 169.814 68.7461 169.814 68.5117C169.814 67.9453 170.088 67.4688 170.635 67.082L170.764 67.2871C170.396 67.623 170.213 67.9004 170.213 68.1191C170.213 68.2285 170.35 68.3262 170.623 68.4121C170.896 68.502 171.033 68.6797 171.033 68.9453ZM174.531 59.8633L174.086 60.7129L173.137 60.2207L173.57 59.3711L174.531 59.8633ZM175 65.2832H171.66V64.2637H174.572C174.572 63.8027 174.518 63.4512 174.408 63.209C174.334 63.041 174.15 62.7988 173.857 62.4824L174.314 61.5273C174.596 61.8828 174.771 62.1602 174.842 62.3594C174.947 62.6602 175 63.1582 175 63.8535V65.2832Z"/>
  </symbol>
</svg>
