<svg width="166" height="56" viewBox="0 0 166 56" fill="none" xmlns="http://www.w3.org/2000/svg">
  <symbol id="svg-copy-ar-1" viewBox="0 1 166 12">
    <path d="M5.56445 8.93164C5.56445 9.57617 5.32617 10.2168 4.84961 10.8535C4.31836 11.5645 3.70508 11.9199 3.00977 11.9199C2.75195 11.9199 2.48633 11.8906 2.21289 11.832C2.01367 11.7891 1.75391 11.7148 1.43359 11.6094C1.17969 11.5195 0.925781 11.4316 0.671875 11.3457L0.771484 11.1406C0.990234 11.1914 1.21875 11.2441 1.45703 11.2988C1.69922 11.3574 1.91602 11.3867 2.10742 11.3867C2.58398 11.3867 3.03516 11.2656 3.46094 11.0234C3.79297 10.832 4.125 10.5547 4.45703 10.1914C4.625 10.0078 4.86328 9.70898 5.17188 9.29492C4.64453 9.29492 4.25 9.21094 3.98828 9.04297C3.69141 8.85156 3.54297 8.53711 3.54297 8.09961C3.54297 7.69727 3.63672 7.32422 3.82422 6.98047C4.04297 6.58203 4.32031 6.38281 4.65625 6.38281C4.99609 6.38281 5.24023 6.58008 5.38867 6.97461C5.50586 7.2832 5.56445 7.71289 5.56445 8.26367V8.93164ZM5.19531 8.29297C5.10938 7.91797 5.00586 7.6582 4.88477 7.51367C4.7793 7.38867 4.65039 7.32617 4.49805 7.32617C4.38867 7.32617 4.29297 7.36328 4.21094 7.4375C4.13281 7.50781 4.09375 7.59766 4.09375 7.70703C4.09375 7.89844 4.17969 8.04492 4.35156 8.14648C4.52344 8.24414 4.80469 8.29297 5.19531 8.29297ZM14.7168 3.96289L14.2598 4.80664L13.3105 4.30273L13.75 3.46484L14.7168 3.96289ZM13.3691 4.49023L12.9238 5.33984L11.9746 4.84766L12.4082 3.99805L13.3691 4.49023ZM17.4707 9.2832H11.8809C11.1309 9.2832 10.5332 9.15234 10.0879 8.89062C9.5293 8.5625 9.25 8.04883 9.25 7.34961C9.25 6.98633 9.33203 6.61523 9.49609 6.23633C9.55469 6.09961 9.69531 5.83984 9.91797 5.45703L10.0938 5.56836C10.0078 5.74805 9.92383 5.92773 9.8418 6.10742C9.72852 6.38477 9.67188 6.63281 9.67188 6.85156C9.67188 7.3125 9.91406 7.66992 10.3984 7.92383C10.832 8.15039 11.3809 8.26367 12.0449 8.26367H17.0078V8.10547C17.0078 7.66797 16.9551 7.3125 16.8496 7.03906C16.7441 6.76172 16.5645 6.52539 16.3105 6.33008L16.7617 5.375C16.9336 5.58984 17.0371 5.72461 17.0723 5.7793C17.3379 6.2168 17.4707 6.85352 17.4707 7.68945V9.2832ZM20.4062 9.2832H17.0664V8.26367H19.9785C19.9785 7.80273 19.9238 7.45117 19.8145 7.20898C19.7402 7.04102 19.5566 6.79883 19.2637 6.48242L19.7207 5.52734C20.002 5.88281 20.1777 6.16016 20.248 6.35938C20.3535 6.66016 20.4062 7.1582 20.4062 7.85352V9.2832ZM20.377 10.4551L19.9199 11.2988L18.9707 10.7949L19.4102 9.95703L20.377 10.4551ZM19.0293 10.9824L18.584 11.832L17.6348 11.3398L18.0684 10.4902L19.0293 10.9824ZM23.1602 9.2832H22.3398C22.0742 9.2832 21.8613 9.17578 21.7012 8.96094C21.5605 8.77344 21.4531 8.49414 21.3789 8.12305C21.3086 7.75195 21.2539 7.29492 21.2148 6.75195C21.1914 6.31055 21.166 5.85742 21.1387 5.39258C21.1152 4.92773 21.082 4.57617 21.0391 4.33789C21 4.0957 20.9453 3.89844 20.875 3.74609C20.7891 3.55859 20.6699 3.39453 20.5176 3.25391L21.2383 2.11719C21.3906 2.58594 21.498 3.14648 21.5605 3.79883C21.5996 4.20508 21.6387 5.16602 21.6777 6.68164C21.748 7.37695 21.8496 7.82227 21.9824 8.01758C22.0918 8.18164 22.2109 8.26367 22.3398 8.26367H23.1602V9.2832ZM29.5293 9.2832H29.0781C28.8281 9.2832 28.6133 9.25 28.4336 9.18359C28.2539 9.11328 28.0898 9.01562 27.9414 8.89062C27.7578 9.03516 27.5977 9.13086 27.4609 9.17773C27.2617 9.24805 26.9883 9.2832 26.6406 9.2832H26.2598C26.0566 9.2832 25.8535 9.24414 25.6504 9.16602C25.5176 9.11523 25.3535 9.03125 25.1582 8.91406C24.9707 9.05469 24.7988 9.15234 24.6426 9.20703C24.4863 9.25781 24.2324 9.2832 23.8809 9.2832H22.75V8.26367H23.8809C24.1973 8.26367 24.4238 8.23633 24.5605 8.18164C24.7871 8.0918 24.9004 7.91211 24.9004 7.64258C24.9004 7.5293 24.8945 7.41602 24.8828 7.30273C24.8711 7.18945 24.8496 7.0625 24.8184 6.92188L25.0586 6.57031C25.168 6.92969 25.2578 7.19141 25.3281 7.35547C25.4531 7.64062 25.5898 7.85547 25.7383 8C25.918 8.17578 26.1328 8.26367 26.3828 8.26367H26.7754C27.0684 8.26367 27.2852 8.21875 27.4258 8.12891C27.582 8.02734 27.6602 7.86523 27.6602 7.64258C27.6602 7.52148 27.6523 7.4043 27.6367 7.29102C27.6211 7.17773 27.5996 7.05469 27.5723 6.92188L27.8184 6.57031L27.9414 7.12109C28.0469 7.55469 28.1758 7.85547 28.3281 8.02344C28.4609 8.17188 28.6406 8.24609 28.8672 8.24609C28.9727 8.24609 29.0566 8.21484 29.1191 8.15234C29.1855 8.08594 29.2188 8.00195 29.2188 7.90039C29.2188 7.68164 29.1387 7.45117 28.9785 7.20898C28.9512 7.16992 28.8555 7.04297 28.6914 6.82812L29.0723 6.18945C29.2324 6.43164 29.3418 6.64062 29.4004 6.81641C29.4863 7.08203 29.5293 7.43555 29.5293 7.87695V9.2832ZM41.4355 9.2832H35.8457C35.0957 9.2832 34.498 9.15234 34.0527 8.89062C33.4941 8.5625 33.2148 8.04883 33.2148 7.34961C33.2148 6.98633 33.2969 6.61523 33.4609 6.23633C33.5195 6.09961 33.6602 5.83984 33.8828 5.45703L34.0586 5.56836C33.9727 5.74805 33.8887 5.92773 33.8066 6.10742C33.6934 6.38477 33.6367 6.63281 33.6367 6.85156C33.6367 7.3125 33.8789 7.66992 34.3633 7.92383C34.7969 8.15039 35.3457 8.26367 36.0098 8.26367H40.9727V8.10547C40.9727 7.66797 40.9199 7.3125 40.8145 7.03906C40.709 6.76172 40.5293 6.52539 40.2754 6.33008L40.7266 5.375C40.8984 5.58984 41.002 5.72461 41.0371 5.7793C41.3027 6.2168 41.4355 6.85352 41.4355 7.68945V9.2832ZM38.0781 10.707L37.6211 11.5566L36.6719 11.0645L37.1055 10.209L38.0781 10.707ZM46.627 8.93164C46.627 9.57617 46.3887 10.2168 45.9121 10.8535C45.3809 11.5645 44.7676 11.9199 44.0723 11.9199C43.8145 11.9199 43.5488 11.8906 43.2754 11.832C43.0762 11.7891 42.8164 11.7148 42.4961 11.6094C42.2422 11.5195 41.9883 11.4316 41.7344 11.3457L41.834 11.1406C42.0527 11.1914 42.2812 11.2441 42.5195 11.2988C42.7617 11.3574 42.9785 11.3867 43.1699 11.3867C43.6465 11.3867 44.0977 11.2656 44.5234 11.0234C44.8555 10.832 45.1875 10.5547 45.5195 10.1914C45.6875 10.0078 45.9258 9.70898 46.2344 9.29492C45.707 9.29492 45.3125 9.21094 45.0508 9.04297C44.7539 8.85156 44.6055 8.53711 44.6055 8.09961C44.6055 7.69727 44.6992 7.32422 44.8867 6.98047C45.1055 6.58203 45.3828 6.38281 45.7188 6.38281C46.0586 6.38281 46.3027 6.58008 46.4512 6.97461C46.5684 7.2832 46.627 7.71289 46.627 8.26367V8.93164ZM46.2578 8.29297C46.1719 7.91797 46.0684 7.6582 45.9473 7.51367C45.8418 7.38867 45.7129 7.32617 45.5605 7.32617C45.4512 7.32617 45.3555 7.36328 45.2734 7.4375C45.1953 7.50781 45.1562 7.59766 45.1562 7.70703C45.1562 7.89844 45.2422 8.04492 45.4141 8.14648C45.5859 8.24414 45.8672 8.29297 46.2578 8.29297ZM54.1035 4.78906L53.6641 5.62695L52.75 5.12305L53.1719 4.30859L54.1035 4.78906ZM56.2832 9.2832C56.2832 10.1543 56.0273 10.7949 55.5156 11.2051C54.9648 11.6465 54.0762 11.8672 52.8496 11.8672C52.0684 11.8672 51.4707 11.7305 51.0566 11.457C50.6035 11.1562 50.377 10.6953 50.377 10.0742C50.377 9.73828 50.418 9.39844 50.5 9.05469C50.582 8.71094 50.6934 8.36523 50.834 8.01758C50.9199 7.80664 51.0684 7.48242 51.2793 7.04492L51.5137 7.15039C51.2402 7.71289 51.0586 8.15625 50.9688 8.48047C50.8828 8.80469 50.8398 9.10156 50.8398 9.37109C50.8398 9.85547 51.0117 10.2246 51.3555 10.4785C51.7031 10.7285 52.1973 10.8535 52.8379 10.8535C53.5762 10.8535 54.2305 10.7227 54.8008 10.4609C55.5078 10.1367 55.8613 9.68359 55.8613 9.10156C55.8613 8.70312 55.8027 8.33203 55.6855 7.98828C55.584 7.68359 55.4395 7.41797 55.252 7.19141L55.7383 5.99023C55.9453 6.30664 56.0879 6.62891 56.166 6.95703C56.2441 7.28516 56.2832 7.7207 56.2832 8.26367V9.2832ZM59.2188 9.2832H55.8789V8.26367H58.791C58.791 7.80273 58.7363 7.45117 58.627 7.20898C58.5527 7.04102 58.3691 6.79883 58.0762 6.48242L58.5332 5.52734C58.8145 5.88281 58.9902 6.16016 59.0605 6.35938C59.166 6.66016 59.2188 7.1582 59.2188 7.85352V9.2832ZM59.1895 10.4551L58.7324 11.2988L57.7832 10.7949L58.2227 9.95703L59.1895 10.4551ZM57.8418 10.9824L57.3965 11.832L56.4473 11.3398L56.8809 10.4902L57.8418 10.9824ZM61.1992 7.78906C61.1992 8.10156 61.1426 8.4043 61.0293 8.69727C60.9707 8.85352 60.8438 9.10156 60.6484 9.44141L60.543 9.38281C60.5547 9.26953 60.5645 9.13867 60.5723 8.99023C60.584 8.8418 60.5898 8.74219 60.5898 8.69141C60.5898 8.28516 60.5566 7.71875 60.4902 6.99219C60.4277 6.26172 60.3516 5.5 60.2617 4.70703C60.207 4.22656 60.1465 3.73633 60.0801 3.23633C60.1582 3.06445 60.2461 2.87891 60.3438 2.67969C60.4453 2.48047 60.541 2.29297 60.6309 2.11719C60.6934 2.5625 60.7715 3.17188 60.8652 3.94531C60.9629 4.71875 61.0391 5.41602 61.0938 6.03711C61.1641 6.81055 61.1992 7.39453 61.1992 7.78906ZM70.9082 9.2832C70.9082 9.71289 70.7246 10.1582 70.3574 10.6191C70.0371 11.0254 69.6387 11.375 69.1621 11.668C68.709 11.9492 68.3359 12.0898 68.043 12.0898C67.7734 12.0898 67.4824 12.0508 67.1699 11.9727C66.9316 11.9141 66.6465 11.8223 66.3145 11.6973C66.0332 11.5918 65.7539 11.4863 65.4766 11.3809L65.5762 11.1465C65.834 11.1973 66.1016 11.248 66.3789 11.2988C66.6602 11.3535 66.9141 11.3809 67.1406 11.3809C67.6406 11.3809 68.1621 11.2207 68.7051 10.9004C69.1973 10.6074 69.6172 10.2383 69.9648 9.79297C70.3125 9.34375 70.4863 8.93945 70.4863 8.58008C70.4863 8.27148 70.3965 7.94727 70.2168 7.60742C70.0723 7.33398 69.8691 7.05273 69.6074 6.76367L69.9414 5.84375C70.2617 6.14062 70.498 6.4375 70.6504 6.73438C70.8223 7.07031 70.9082 7.44531 70.9082 7.85938V9.2832ZM74.9629 9.2832H72.3379C72.1152 9.2832 71.9141 9.21875 71.7344 9.08984C71.5586 8.96094 71.4707 8.80859 71.4707 8.63281C71.4707 8.48438 71.4785 8.34961 71.4941 8.22852C71.5098 8.10742 71.5391 7.97461 71.582 7.83008H71.7168C71.7598 7.99023 71.8379 8.10547 71.9512 8.17578C72.0449 8.23438 72.1738 8.26367 72.3379 8.26367H74.6055C74.6055 7.56445 74.5078 7.00195 74.3125 6.57617C74.0703 6.04492 73.666 5.69141 73.0996 5.51562L73.1875 4.37891C73.8633 4.71094 74.3418 5.24023 74.623 5.9668C74.8496 6.55273 74.9629 7.31836 74.9629 8.26367V9.2832ZM84.1152 3.96289L83.6582 4.80664L82.709 4.30273L83.1484 3.46484L84.1152 3.96289ZM82.7676 4.49023L82.3223 5.33984L81.373 4.84766L81.8066 3.99805L82.7676 4.49023ZM86.8691 9.2832H81.2793C80.5293 9.2832 79.9316 9.15234 79.4863 8.89062C78.9277 8.5625 78.6484 8.04883 78.6484 7.34961C78.6484 6.98633 78.7305 6.61523 78.8945 6.23633C78.9531 6.09961 79.0938 5.83984 79.3164 5.45703L79.4922 5.56836C79.4062 5.74805 79.3223 5.92773 79.2402 6.10742C79.127 6.38477 79.0703 6.63281 79.0703 6.85156C79.0703 7.3125 79.3125 7.66992 79.7969 7.92383C80.2305 8.15039 80.7793 8.26367 81.4434 8.26367H86.4062V8.10547C86.4062 7.66797 86.3535 7.3125 86.248 7.03906C86.1426 6.76172 85.9629 6.52539 85.709 6.33008L86.1602 5.375C86.332 5.58984 86.4355 5.72461 86.4707 5.7793C86.7363 6.2168 86.8691 6.85352 86.8691 7.68945V9.2832ZM89.6289 9.2832H88.8086C88.543 9.2832 88.3301 9.17578 88.1699 8.96094C88.0293 8.77344 87.9219 8.49414 87.8477 8.12305C87.7773 7.75195 87.7227 7.29492 87.6836 6.75195C87.6602 6.31055 87.6348 5.85742 87.6074 5.39258C87.584 4.92773 87.5508 4.57617 87.5078 4.33789C87.4688 4.0957 87.4141 3.89844 87.3438 3.74609C87.2578 3.55859 87.1387 3.39453 86.9863 3.25391L87.707 2.11719C87.8594 2.58594 87.9668 3.14648 88.0293 3.79883C88.0684 4.20508 88.1074 5.16602 88.1465 6.68164C88.2168 7.37695 88.3184 7.82227 88.4512 8.01758C88.5605 8.18164 88.6797 8.26367 88.8086 8.26367H89.6289V9.2832ZM95.2715 7.45508L94.8672 8.52148C94.2773 8.73633 93.5938 8.91797 92.8164 9.06641C92.043 9.21094 91.3301 9.2832 90.6777 9.2832H89.2188V8.26367H90.625C90.5117 8.08008 90.4199 7.87305 90.3496 7.64258C90.2793 7.4082 90.2441 7.18164 90.2441 6.96289C90.2441 6.50195 90.4355 6.11523 90.8184 5.80273C91.2051 5.49023 91.7012 5.33398 92.3066 5.33398C92.7871 5.33398 93.1836 5.45117 93.4961 5.68555C93.6289 5.7832 93.8535 6.02344 94.1699 6.40625L94.0586 6.50586C93.7891 6.43164 93.5469 6.37695 93.332 6.3418C93.1172 6.30273 92.8945 6.2832 92.6641 6.2832C92.125 6.2832 91.7012 6.34375 91.3926 6.46484C91.0879 6.58203 90.9355 6.73828 90.9355 6.93359C90.9355 7.125 91.0312 7.33984 91.2227 7.57812C91.418 7.8125 91.668 8.02148 91.9727 8.20508C92.6133 8.10742 93.1387 8.01367 93.5488 7.92383C93.959 7.83008 94.5332 7.67383 95.2715 7.45508ZM100.727 6.21875C100.727 6.29688 100.723 6.36328 100.715 6.41797C100.707 6.47266 100.688 6.54102 100.656 6.62305C100.438 6.13477 100.113 5.63086 99.6836 5.11133C99.207 4.53711 98.832 4.25 98.5586 4.25C98.5 4.25 98.4414 4.30078 98.3828 4.40234C98.3242 4.50391 98.2559 4.55469 98.1777 4.55469C98.0723 4.55469 97.9062 4.48633 97.6797 4.34961C97.3945 4.17773 97.166 3.97852 96.9941 3.75195C96.7637 3.44727 96.6484 3.12305 96.6484 2.7793C96.6484 2.5332 96.7285 2.41016 96.8887 2.41016C97.1699 2.41016 97.6094 2.58789 98.207 2.94336C98.875 3.33789 99.4355 3.79883 99.8887 4.32617C100.447 4.9707 100.727 5.60156 100.727 6.21875ZM103.152 9.2832H102.795C102.467 9.2832 102.203 9.10547 102.004 8.75C101.766 8.32031 101.646 7.66992 101.646 6.79883C101.646 6.73633 101.639 6.65234 101.623 6.54688C101.611 6.44141 101.605 6.375 101.605 6.34766C101.23 7.39062 100.896 8.10547 100.604 8.49219C100.256 8.94531 99.7656 9.24609 99.1328 9.39453C98.5938 9.51953 97.6758 9.58203 96.3789 9.58203V9.41797C97.4297 9.10156 98.2129 8.82812 98.7285 8.59766C99.5605 8.23047 100.191 7.80664 100.621 7.32617C101.141 6.74805 101.4 6.0625 101.4 5.26953C101.4 4.88672 101.375 4.5293 101.324 4.19727C101.277 3.86523 101.211 3.52539 101.125 3.17773L101.318 2.68555C101.396 2.49414 101.469 2.33203 101.535 2.19922C101.637 2.76172 101.732 3.36914 101.822 4.02148C101.885 4.4707 101.945 4.95312 102.004 5.46875C102.078 6.10156 102.143 6.61133 102.197 6.99805C102.268 7.49023 102.373 7.8418 102.514 8.05273C102.607 8.19336 102.701 8.26367 102.795 8.26367H103.152V9.2832ZM110.131 9.2832H102.742V8.26367L103.639 8.25781C103.904 8.25781 104.152 8.22266 104.383 8.15234C104.648 8.07031 104.949 7.92578 105.285 7.71875C105.355 7.54688 105.412 7.36328 105.455 7.16797C105.498 6.96875 105.52 6.77734 105.52 6.59375C105.52 6.17578 105.48 5.71484 105.402 5.21094C105.344 4.84375 105.256 4.41211 105.139 3.91602C105.076 3.6582 104.994 3.34375 104.893 2.97266L104.529 2.79102C104.557 2.55664 104.596 2.33008 104.646 2.11133C104.701 1.89258 104.775 1.68164 104.869 1.47852C104.932 1.66211 105.074 1.80469 105.297 1.90625C105.48 1.98828 105.715 2.04297 106 2.07031C105.961 2.47266 105.932 2.72852 105.912 2.83789C105.893 2.94727 105.855 3.08203 105.801 3.24219C105.773 3.23828 105.701 3.21875 105.584 3.18359L105.508 3.16016C105.645 3.61719 105.756 4.08789 105.842 4.57227C105.932 5.05273 105.977 5.45703 105.977 5.78516C105.977 6.0625 105.949 6.37109 105.895 6.71094C105.875 6.83203 105.84 7.01953 105.789 7.27344C106.473 6.87891 106.91 6.63672 107.102 6.54688C107.68 6.27344 108.176 6.13672 108.59 6.13672C109.117 6.13672 109.512 6.29102 109.773 6.59961C110.012 6.88086 110.131 7.28125 110.131 7.80078V9.2832ZM109.205 7.8125C109.205 7.61328 109.102 7.46289 108.895 7.36133C108.691 7.25586 108.398 7.20312 108.016 7.20312C107.73 7.20312 107.402 7.26562 107.031 7.39062C106.727 7.49219 106.402 7.63281 106.059 7.8125C105.805 7.94531 105.543 8.0957 105.273 8.26367H107.822C108.744 8.26367 109.205 8.11328 109.205 7.8125ZM112.117 7.78906C112.117 8.10156 112.061 8.4043 111.947 8.69727C111.889 8.85352 111.762 9.10156 111.566 9.44141L111.461 9.38281C111.473 9.26953 111.482 9.13867 111.49 8.99023C111.502 8.8418 111.508 8.74219 111.508 8.69141C111.508 8.28516 111.475 7.71875 111.408 6.99219C111.346 6.26172 111.27 5.5 111.18 4.70703C111.125 4.22656 111.064 3.73633 110.998 3.23633C111.076 3.06445 111.164 2.87891 111.262 2.67969C111.363 2.48047 111.459 2.29297 111.549 2.11719C111.611 2.5625 111.689 3.17188 111.783 3.94531C111.881 4.71875 111.957 5.41602 112.012 6.03711C112.082 6.81055 112.117 7.39453 112.117 7.78906ZM120.461 9.2832H119.623C119.342 9.2832 119.094 9.04297 118.879 8.5625C118.719 8.20312 118.59 7.74023 118.492 7.17383C118.375 7.39258 118.227 7.5625 118.047 7.68359C117.867 7.80469 117.678 7.86523 117.479 7.86523C117.029 7.86523 116.654 7.83594 116.354 7.77734C116.057 7.71484 115.908 7.63672 115.908 7.54297C115.908 7.20703 116.127 6.83594 116.564 6.42969C117.002 6.01953 117.549 5.66211 118.205 5.35742C118.197 5.32617 118.18 5.24414 118.152 5.11133C118.129 4.97852 118.117 4.89648 118.117 4.86523C118.117 4.73242 118.162 4.58398 118.252 4.41992C118.326 4.28711 118.424 4.15039 118.545 4.00977C118.584 4.25195 118.623 4.48633 118.662 4.71289C118.705 4.93945 118.754 5.17383 118.809 5.41602L118.984 6.42383C119.082 6.97852 119.17 7.38867 119.248 7.6543C119.369 8.06055 119.494 8.26367 119.623 8.26367H120.461V9.2832ZM118.416 6.66406L118.305 6.02539C117.965 6.14648 117.697 6.27344 117.502 6.40625C117.307 6.53516 117.143 6.70703 117.01 6.92188C117.092 6.95703 117.188 6.98438 117.297 7.00391C117.406 7.02344 117.557 7.0332 117.748 7.0332C117.982 7.0332 118.205 6.91016 118.416 6.66406ZM122.922 3.86328L122.477 4.71289L121.527 4.2207L121.961 3.37109L122.922 3.86328ZM123.391 9.2832H120.051V8.26367H122.963C122.963 7.80273 122.908 7.45117 122.799 7.20898C122.725 7.04102 122.541 6.79883 122.248 6.48242L122.705 5.52734C122.986 5.88281 123.162 6.16016 123.232 6.35938C123.338 6.66016 123.391 7.1582 123.391 7.85352V9.2832ZM128.576 8.93164C128.576 9.57617 128.338 10.2168 127.861 10.8535C127.33 11.5645 126.717 11.9199 126.021 11.9199C125.764 11.9199 125.498 11.8906 125.225 11.832C125.025 11.7891 124.766 11.7148 124.445 11.6094C124.191 11.5195 123.938 11.4316 123.684 11.3457L123.783 11.1406C124.002 11.1914 124.23 11.2441 124.469 11.2988C124.711 11.3574 124.928 11.3867 125.119 11.3867C125.596 11.3867 126.047 11.2656 126.473 11.0234C126.805 10.832 127.137 10.5547 127.469 10.1914C127.637 10.0078 127.875 9.70898 128.184 9.29492C127.656 9.29492 127.262 9.21094 127 9.04297C126.703 8.85156 126.555 8.53711 126.555 8.09961C126.555 7.69727 126.648 7.32422 126.836 6.98047C127.055 6.58203 127.332 6.38281 127.668 6.38281C128.008 6.38281 128.252 6.58008 128.4 6.97461C128.518 7.2832 128.576 7.71289 128.576 8.26367V8.93164ZM128.207 8.29297C128.121 7.91797 128.018 7.6582 127.896 7.51367C127.791 7.38867 127.662 7.32617 127.51 7.32617C127.4 7.32617 127.305 7.36328 127.223 7.4375C127.145 7.50781 127.105 7.59766 127.105 7.70703C127.105 7.89844 127.191 8.04492 127.363 8.14648C127.535 8.24414 127.816 8.29297 128.207 8.29297ZM133.311 9.2832H128.172V8.26367H132.631C132.357 7.84961 132.045 7.49023 131.693 7.18555C131.342 6.87695 130.867 6.54492 130.27 6.18945L130.076 6.37109L129.385 5.84375C129.143 5.64062 129.021 5.48242 129.021 5.36914C129.021 4.69727 129.186 4.16992 129.514 3.78711C129.818 3.43555 130.344 3.11914 131.09 2.83789L132.742 2.19336V3.20703L131.518 3.61719C131.029 3.77734 130.635 3.92383 130.334 4.05664C129.951 4.22461 129.76 4.35352 129.76 4.44336C129.76 4.5332 129.885 4.67188 130.135 4.85938C130.291 4.97656 130.449 5.09375 130.609 5.21094C131.203 5.66016 131.721 6.13086 132.162 6.62305C132.639 7.15039 133.021 7.69727 133.311 8.26367V9.2832ZM132.742 0.488281V1.47852C131.898 1.78711 131.117 2.11523 130.398 2.46289C129.762 2.76758 129.262 3.04297 128.898 3.28906V2.66797C129.023 2.52734 129.273 2.33398 129.648 2.08789C130.023 1.8418 130.473 1.58203 130.996 1.30859C131.582 1 132.164 0.726563 132.742 0.488281ZM142.521 9.2832C142.521 9.71289 142.338 10.1582 141.971 10.6191C141.65 11.0254 141.252 11.375 140.775 11.668C140.322 11.9492 139.949 12.0898 139.656 12.0898C139.387 12.0898 139.096 12.0508 138.783 11.9727C138.545 11.9141 138.26 11.8223 137.928 11.6973C137.646 11.5918 137.367 11.4863 137.09 11.3809L137.189 11.1465C137.447 11.1973 137.715 11.248 137.992 11.2988C138.273 11.3535 138.527 11.3809 138.754 11.3809C139.254 11.3809 139.775 11.2207 140.318 10.9004C140.811 10.6074 141.23 10.2383 141.578 9.79297C141.926 9.34375 142.1 8.93945 142.1 8.58008C142.1 8.27148 142.01 7.94727 141.83 7.60742C141.686 7.33398 141.482 7.05273 141.221 6.76367L141.555 5.84375C141.875 6.14062 142.111 6.4375 142.264 6.73438C142.436 7.07031 142.521 7.44531 142.521 7.85938V9.2832ZM147.145 8.29297C147.145 8.51953 147.074 8.77148 146.934 9.04883C146.781 9.34961 146.629 9.5 146.477 9.5C146.316 9.5 146.018 9.39844 145.58 9.19531C145.178 9.00781 144.838 8.82422 144.561 8.64453C144.107 8.90234 143.777 9.06836 143.57 9.14258C143.309 9.23633 143 9.2832 142.645 9.2832H142.117V8.26367H142.645C142.805 8.26367 142.959 8.25195 143.107 8.22852C143.256 8.20117 143.457 8.1543 143.711 8.08789C143.609 8.01367 143.508 7.9375 143.406 7.85938C143.297 7.76172 143.242 7.66602 143.242 7.57227C143.242 7.50586 143.244 7.45703 143.248 7.42578C143.256 7.39453 143.283 7.33594 143.33 7.25L143.91 6.23633C143.988 6.09961 144.059 6.00586 144.121 5.95508C144.188 5.90039 144.277 5.85742 144.391 5.82617C144.121 5.64258 143.986 5.51172 143.986 5.43359C143.986 5.35547 144.072 5.1543 144.244 4.83008C144.303 4.7207 144.393 4.55859 144.514 4.34375C144.764 4.58203 145.078 4.92773 145.457 5.38086C145.938 5.95117 146.316 6.46094 146.594 6.91016C146.961 7.50391 147.145 7.96484 147.145 8.29297ZM145.082 7.02148C145.082 6.85352 145.047 6.7207 144.977 6.62305C144.895 6.50586 144.764 6.44727 144.584 6.44727C144.404 6.44727 144.236 6.50781 144.08 6.62891C143.924 6.74609 143.846 6.88867 143.846 7.05664C143.846 7.2168 144.084 7.42773 144.561 7.68945C144.729 7.58008 144.854 7.47461 144.936 7.37305C145.033 7.25586 145.082 7.13867 145.082 7.02148ZM146.494 8.36328C146.494 8.22656 146.385 8.01367 146.166 7.72461C146.029 7.54102 145.861 7.3457 145.662 7.13867C145.662 7.33008 145.621 7.50977 145.539 7.67773C145.461 7.8418 145.35 7.96875 145.205 8.05859C145.439 8.17969 145.676 8.29883 145.914 8.41602C146.109 8.50195 146.248 8.54492 146.33 8.54492C146.377 8.54492 146.416 8.52734 146.447 8.49219C146.479 8.45703 146.494 8.41406 146.494 8.36328ZM158.33 9.2832H157.305C156.703 9.2832 156.25 9.29883 155.945 9.33008C155.645 9.36133 155.494 9.42383 155.494 9.51758C155.494 9.64648 155.676 9.71094 156.039 9.71094C156.199 9.71094 156.326 9.71484 156.42 9.72266C156.514 9.73047 156.719 9.75195 157.035 9.78711C157.223 9.81055 157.352 9.83984 157.422 9.875C157.535 9.93359 157.592 10.0352 157.592 10.1797C157.592 10.9102 157.352 11.4414 156.871 11.7734C156.348 12.1367 155.482 12.3184 154.275 12.3184C153.436 12.3184 152.768 12.1758 152.271 11.8906C151.744 11.5859 151.48 11.1523 151.48 10.5898C151.48 10.1367 151.605 9.65625 151.855 9.14844C151.945 8.96484 152.182 8.57227 152.564 7.9707L152.799 8.08789C152.65 8.3418 152.504 8.59375 152.359 8.84375C152.137 9.27344 152.025 9.625 152.025 9.89844C152.025 10.3789 152.275 10.7441 152.775 10.9941C153.252 11.2324 153.906 11.3516 154.738 11.3516C155.297 11.3516 155.789 11.3086 156.215 11.2227C156.738 11.1172 157 10.9727 157 10.7891C157 10.7227 156.971 10.6738 156.912 10.6426C156.854 10.6074 156.756 10.5898 156.619 10.5898C156.514 10.5781 156.348 10.5664 156.121 10.5547C155.898 10.5391 155.752 10.5312 155.682 10.5312C155.436 10.5312 155.26 10.5 155.154 10.4375C155.049 10.3711 154.996 10.2734 154.996 10.1445C154.996 9.66016 155.139 9.26367 155.424 8.95508C155.658 8.70508 155.973 8.51953 156.367 8.39844C156.664 8.30859 156.977 8.26367 157.305 8.26367H158.33V9.2832ZM161.172 10.6719L160.738 11.5215L159.777 11.0293L160.223 10.1797L161.172 10.6719ZM160.973 12.248L160.539 13.1035L159.584 12.5996L160.035 11.7441L160.973 12.248ZM159.836 11.2168L159.396 12.0547L158.43 11.5566L158.887 10.7129L159.836 11.2168ZM161.266 9.2832H157.926V8.26367H160.838C160.838 7.80273 160.783 7.45117 160.674 7.20898C160.6 7.04102 160.416 6.79883 160.123 6.48242L160.58 5.52734C160.861 5.88281 161.037 6.16016 161.107 6.35938C161.213 6.66016 161.266 7.1582 161.266 7.85352V9.2832ZM165.994 9.2832H160.855V8.26367H165.314C165.041 7.84961 164.729 7.49023 164.377 7.18555C164.025 6.87695 163.551 6.54492 162.953 6.18945L162.76 6.37109L162.068 5.84375C161.826 5.64062 161.705 5.48242 161.705 5.36914C161.705 4.69727 161.869 4.16992 162.197 3.78711C162.502 3.43555 163.027 3.11914 163.773 2.83789L165.426 2.19336V3.20703L164.201 3.61719C163.713 3.77734 163.318 3.92383 163.018 4.05664C162.635 4.22461 162.443 4.35352 162.443 4.44336C162.443 4.5332 162.568 4.67188 162.818 4.85938C162.975 4.97656 163.133 5.09375 163.293 5.21094C163.887 5.66016 164.404 6.13086 164.846 6.62305C165.322 7.15039 165.705 7.69727 165.994 8.26367V9.2832Z"/>
  </symbol>
  <symbol id="svg-copy-ar-2" viewBox="29 14 137 12">
    <path d="M33.7832 23.2832H31.1582C30.9355 23.2832 30.7344 23.2188 30.5547 23.0898C30.3789 22.9609 30.291 22.8086 30.291 22.6328C30.291 22.4844 30.2988 22.3496 30.3145 22.2285C30.3301 22.1074 30.3594 21.9746 30.4023 21.8301H30.5371C30.5801 21.9902 30.6582 22.1055 30.7715 22.1758C30.8652 22.2344 30.9941 22.2637 31.1582 22.2637H33.4258C33.4258 21.5645 33.3281 21.002 33.1328 20.5762C32.8906 20.0449 32.4863 19.6914 31.9199 19.5156L32.0078 18.3789C32.6836 18.7109 33.1621 19.2402 33.4434 19.9668C33.6699 20.5527 33.7832 21.3184 33.7832 22.2637V23.2832ZM36.25 17.8633L35.8047 18.7129L34.8555 18.2207L35.2891 17.3711L36.25 17.8633ZM36.7188 23.2832H33.3789V22.2637H36.291C36.291 21.8027 36.2363 21.4512 36.127 21.209C36.0527 21.041 35.8691 20.7988 35.5762 20.4824L36.0332 19.5273C36.3145 19.8828 36.4902 20.1602 36.5605 20.3594C36.666 20.6602 36.7188 21.1582 36.7188 21.8535V23.2832ZM42.584 23.2832C42.584 23.7129 42.4004 24.1582 42.0332 24.6191C41.7129 25.0254 41.3145 25.375 40.8379 25.668C40.3848 25.9492 40.0117 26.0898 39.7188 26.0898C39.4492 26.0898 39.1582 26.0508 38.8457 25.9727C38.6074 25.9141 38.3223 25.8223 37.9902 25.6973C37.709 25.5918 37.4297 25.4863 37.1523 25.3809L37.252 25.1465C37.5098 25.1973 37.7773 25.248 38.0547 25.2988C38.3359 25.3535 38.5898 25.3809 38.8164 25.3809C39.3164 25.3809 39.8379 25.2207 40.3809 24.9004C40.873 24.6074 41.293 24.2383 41.6406 23.793C41.9883 23.3438 42.1621 22.9395 42.1621 22.5801C42.1621 22.2715 42.0723 21.9473 41.8926 21.6074C41.748 21.334 41.5449 21.0527 41.2832 20.7637L41.6172 19.8438C41.9375 20.1406 42.1738 20.4375 42.3262 20.7344C42.498 21.0703 42.584 21.4453 42.584 21.8594V23.2832ZM45.5195 23.2832H42.1797V22.2637H45.0918C45.0918 21.8027 45.0371 21.4512 44.9277 21.209C44.8535 21.041 44.6699 20.7988 44.377 20.4824L44.834 19.5273C45.1152 19.8828 45.291 20.1602 45.3613 20.3594C45.4668 20.6602 45.5195 21.1582 45.5195 21.8535V23.2832ZM44.9219 24.707L44.4648 25.5566L43.5156 25.0645L43.9492 24.209L44.9219 24.707ZM56.1309 20.3125C56.1309 20.4375 56.1191 20.5664 56.0957 20.6992C56.0723 20.8281 56.0566 20.9199 56.0488 20.9746C55.9121 20.7988 55.748 20.6602 55.5566 20.5586C55.3691 20.457 55.1777 20.4062 54.9824 20.4062C54.6426 20.4062 54.2852 20.6035 53.9102 20.998C53.5664 21.3613 53.3945 21.6504 53.3945 21.8652C53.3945 21.9395 53.4355 21.9961 53.5176 22.0352C53.6035 22.0703 53.75 22.0879 53.957 22.0879H54.4258C54.707 22.0879 54.9141 22.0918 55.0469 22.0996C55.1836 22.1035 55.3457 22.1211 55.5332 22.1523C55.7207 22.1836 55.8145 22.3262 55.8145 22.5801C55.8145 23.5605 55.3867 24.3066 54.5312 24.8184C53.7461 25.2871 52.6836 25.5215 51.3438 25.5215C50.6484 25.5215 50.1172 25.3867 49.75 25.1172C49.3516 24.8242 49.1523 24.3828 49.1523 23.793C49.1523 23.3867 49.2188 22.9609 49.3516 22.5156C49.4531 22.1758 49.5938 21.8203 49.7734 21.4492C49.7852 21.4258 49.9082 21.1934 50.1426 20.752L50.3887 20.8516C50.1426 21.2891 49.9531 21.6992 49.8203 22.082C49.6914 22.4609 49.627 22.7969 49.627 23.0898C49.627 23.5664 49.791 23.9238 50.1191 24.1621C50.4512 24.4004 50.9238 24.5195 51.5371 24.5195C52.0059 24.5195 52.5508 24.4258 53.1719 24.2383C53.7031 24.0781 54.1816 23.8867 54.6074 23.6641C55.0332 23.4414 55.2461 23.2773 55.2461 23.1719C55.2461 23.0977 55.2207 23.0488 55.1699 23.0254C55.123 23.002 55.0449 22.9902 54.9355 22.9902H53.5645C53.3965 22.9902 53.248 22.9297 53.1191 22.8086C52.9902 22.6875 52.9258 22.5312 52.9258 22.3398C52.9258 22.0781 53.0332 21.7227 53.248 21.2734C53.4824 20.7852 53.7656 20.377 54.0977 20.0488C54.4961 19.6543 54.8965 19.457 55.2988 19.457C55.5566 19.457 55.7598 19.5352 55.9082 19.6914C56.0566 19.8477 56.1309 20.0547 56.1309 20.3125ZM59.2773 23.2832H58.457C58.1914 23.2832 57.9785 23.1758 57.8184 22.9609C57.6777 22.7734 57.5703 22.4941 57.4961 22.123C57.4258 21.752 57.3711 21.2949 57.332 20.752C57.3086 20.3105 57.2832 19.8574 57.2559 19.3926C57.2324 18.9277 57.1992 18.5762 57.1562 18.3379C57.1172 18.0957 57.0625 17.8984 56.9922 17.7461C56.9062 17.5586 56.7871 17.3945 56.6348 17.2539L57.3555 16.1172C57.5078 16.5859 57.6152 17.1465 57.6777 17.7988C57.7168 18.2051 57.7559 19.166 57.7949 20.6816C57.8652 21.377 57.9668 21.8223 58.0996 22.0176C58.209 22.1816 58.3281 22.2637 58.457 22.2637H59.2773V23.2832ZM63.8945 22.293C63.8945 22.5195 63.8242 22.7715 63.6836 23.0488C63.5312 23.3496 63.3789 23.5 63.2266 23.5C63.0664 23.5 62.7676 23.3984 62.3301 23.1953C61.9277 23.0078 61.5879 22.8242 61.3105 22.6445C60.8574 22.9023 60.5273 23.0684 60.3203 23.1426C60.0586 23.2363 59.75 23.2832 59.3945 23.2832H58.8672V22.2637H59.3945C59.5547 22.2637 59.709 22.252 59.8574 22.2285C60.0059 22.2012 60.207 22.1543 60.4609 22.0879C60.3594 22.0137 60.2578 21.9375 60.1562 21.8594C60.0469 21.7617 59.9922 21.666 59.9922 21.5723C59.9922 21.5059 59.9941 21.457 59.998 21.4258C60.0059 21.3945 60.0332 21.3359 60.0801 21.25L60.6602 20.2363C60.7383 20.0996 60.8086 20.0059 60.8711 19.9551C60.9375 19.9004 61.0273 19.8574 61.1406 19.8262C60.8711 19.6426 60.7363 19.5117 60.7363 19.4336C60.7363 19.3555 60.8223 19.1543 60.9941 18.8301C61.0527 18.7207 61.1426 18.5586 61.2637 18.3438C61.5137 18.582 61.8281 18.9277 62.207 19.3809C62.6875 19.9512 63.0664 20.4609 63.3438 20.9102C63.7109 21.5039 63.8945 21.9648 63.8945 22.293ZM61.832 21.0215C61.832 20.8535 61.7969 20.7207 61.7266 20.623C61.6445 20.5059 61.5137 20.4473 61.334 20.4473C61.1543 20.4473 60.9863 20.5078 60.8301 20.6289C60.6738 20.7461 60.5957 20.8887 60.5957 21.0566C60.5957 21.2168 60.834 21.4277 61.3105 21.6895C61.4785 21.5801 61.6035 21.4746 61.6855 21.373C61.7832 21.2559 61.832 21.1387 61.832 21.0215ZM63.2441 22.3633C63.2441 22.2266 63.1348 22.0137 62.916 21.7246C62.7793 21.541 62.6113 21.3457 62.4121 21.1387C62.4121 21.3301 62.3711 21.5098 62.2891 21.6777C62.2109 21.8418 62.0996 21.9688 61.9551 22.0586C62.1895 22.1797 62.4258 22.2988 62.6641 22.416C62.8594 22.502 62.998 22.5449 63.0801 22.5449C63.127 22.5449 63.166 22.5273 63.1973 22.4922C63.2285 22.457 63.2441 22.4141 63.2441 22.3633ZM75.0801 23.2832H74.0547C73.4531 23.2832 73 23.2988 72.6953 23.3301C72.3945 23.3613 72.2441 23.4238 72.2441 23.5176C72.2441 23.6465 72.4258 23.7109 72.7891 23.7109C72.9492 23.7109 73.0762 23.7148 73.1699 23.7227C73.2637 23.7305 73.4688 23.752 73.7852 23.7871C73.9727 23.8105 74.1016 23.8398 74.1719 23.875C74.2852 23.9336 74.3418 24.0352 74.3418 24.1797C74.3418 24.9102 74.1016 25.4414 73.6211 25.7734C73.0977 26.1367 72.2324 26.3184 71.0254 26.3184C70.1855 26.3184 69.5176 26.1758 69.0215 25.8906C68.4941 25.5859 68.2305 25.1523 68.2305 24.5898C68.2305 24.1367 68.3555 23.6562 68.6055 23.1484C68.6953 22.9648 68.9316 22.5723 69.3145 21.9707L69.5488 22.0879C69.4004 22.3418 69.2539 22.5938 69.1094 22.8438C68.8867 23.2734 68.7754 23.625 68.7754 23.8984C68.7754 24.3789 69.0254 24.7441 69.5254 24.9941C70.002 25.2324 70.6562 25.3516 71.4883 25.3516C72.0469 25.3516 72.5391 25.3086 72.9648 25.2227C73.4883 25.1172 73.75 24.9727 73.75 24.7891C73.75 24.7227 73.7207 24.6738 73.6621 24.6426C73.6035 24.6074 73.5059 24.5898 73.3691 24.5898C73.2637 24.5781 73.0977 24.5664 72.8711 24.5547C72.6484 24.5391 72.502 24.5312 72.4316 24.5312C72.1855 24.5312 72.0098 24.5 71.9043 24.4375C71.7988 24.3711 71.7461 24.2734 71.7461 24.1445C71.7461 23.6602 71.8887 23.2637 72.1738 22.9551C72.4082 22.7051 72.7227 22.5195 73.1172 22.3984C73.4141 22.3086 73.7266 22.2637 74.0547 22.2637H75.0801V23.2832ZM79.8145 23.2832H74.6758V22.2637H79.1348C78.8613 21.8496 78.5488 21.4902 78.1973 21.1855C77.8457 20.877 77.3711 20.5449 76.7734 20.1895L76.5801 20.3711L75.8887 19.8438C75.6465 19.6406 75.5254 19.4824 75.5254 19.3691C75.5254 18.6973 75.6895 18.1699 76.0176 17.7871C76.3223 17.4355 76.8477 17.1191 77.5938 16.8379L79.2461 16.1934V17.207L78.0215 17.6172C77.5332 17.7773 77.1387 17.9238 76.8379 18.0566C76.4551 18.2246 76.2637 18.3535 76.2637 18.4434C76.2637 18.5332 76.3887 18.6719 76.6387 18.8594C76.7949 18.9766 76.9531 19.0938 77.1133 19.2109C77.707 19.6602 78.2246 20.1309 78.666 20.623C79.1426 21.1504 79.5254 21.6973 79.8145 22.2637V23.2832ZM79.2461 14.4883V15.4785C78.4023 15.7871 77.6211 16.1152 76.9023 16.4629C76.2656 16.7676 75.7656 17.043 75.4023 17.2891V16.668C75.5273 16.5273 75.7773 16.334 76.1523 16.0879C76.5273 15.8418 76.9766 15.582 77.5 15.3086C78.0859 15 78.668 14.7266 79.2461 14.4883ZM85.6855 23.2832C85.6855 23.7129 85.502 24.1582 85.1348 24.6191C84.8145 25.0254 84.416 25.375 83.9395 25.668C83.4863 25.9492 83.1133 26.0898 82.8203 26.0898C82.5508 26.0898 82.2598 26.0508 81.9473 25.9727C81.709 25.9141 81.4238 25.8223 81.0918 25.6973C80.8105 25.5918 80.5312 25.4863 80.2539 25.3809L80.3535 25.1465C80.6113 25.1973 80.8789 25.248 81.1562 25.2988C81.4375 25.3535 81.6914 25.3809 81.918 25.3809C82.418 25.3809 82.9395 25.2207 83.4824 24.9004C83.9746 24.6074 84.3945 24.2383 84.7422 23.793C85.0898 23.3438 85.2637 22.9395 85.2637 22.5801C85.2637 22.2715 85.1738 21.9473 84.9941 21.6074C84.8496 21.334 84.6465 21.0527 84.3848 20.7637L84.7188 19.8438C85.0391 20.1406 85.2754 20.4375 85.4277 20.7344C85.5996 21.0703 85.6855 21.4453 85.6855 21.8594V23.2832ZM84.3789 16.8262L83.9277 17.6816L82.9902 17.1777L83.4238 16.3223L84.3789 16.8262ZM85.5332 17.8691L85.0762 18.7129L84.127 18.209L84.5664 17.3711L85.5332 17.8691ZM84.1855 18.3965L83.7402 19.2461L82.791 18.7539L83.2246 17.9043L84.1855 18.3965ZM88.6211 23.2832H85.2812V22.2637H88.1934C88.1934 21.8027 88.1387 21.4512 88.0293 21.209C87.9551 21.041 87.7715 20.7988 87.4785 20.4824L87.9355 19.5273C88.2168 19.8828 88.3926 20.1602 88.4629 20.3594C88.5684 20.6602 88.6211 21.1582 88.6211 21.8535V23.2832ZM88.5918 24.4551L88.1348 25.2988L87.1855 24.7949L87.625 23.957L88.5918 24.4551ZM87.2441 24.9824L86.7988 25.832L85.8496 25.3398L86.2832 24.4902L87.2441 24.9824ZM93.8066 22.9316C93.8066 23.5762 93.5684 24.2168 93.0918 24.8535C92.5605 25.5645 91.9473 25.9199 91.252 25.9199C90.9941 25.9199 90.7285 25.8906 90.4551 25.832C90.2559 25.7891 89.9961 25.7148 89.6758 25.6094C89.4219 25.5195 89.168 25.4316 88.9141 25.3457L89.0137 25.1406C89.2324 25.1914 89.4609 25.2441 89.6992 25.2988C89.9414 25.3574 90.1582 25.3867 90.3496 25.3867C90.8262 25.3867 91.2773 25.2656 91.7031 25.0234C92.0352 24.832 92.3672 24.5547 92.6992 24.1914C92.8672 24.0078 93.1055 23.709 93.4141 23.2949C92.8867 23.2949 92.4922 23.2109 92.2305 23.043C91.9336 22.8516 91.7852 22.5371 91.7852 22.0996C91.7852 21.6973 91.8789 21.3242 92.0664 20.9805C92.2852 20.582 92.5625 20.3828 92.8984 20.3828C93.2383 20.3828 93.4824 20.5801 93.6309 20.9746C93.748 21.2832 93.8066 21.7129 93.8066 22.2637V22.9316ZM93.4375 22.293C93.3516 21.918 93.248 21.6582 93.127 21.5137C93.0215 21.3887 92.8926 21.3262 92.7402 21.3262C92.6309 21.3262 92.5352 21.3633 92.4531 21.4375C92.375 21.5078 92.3359 21.5977 92.3359 21.707C92.3359 21.8984 92.4219 22.0449 92.5938 22.1465C92.7656 22.2441 93.0469 22.293 93.4375 22.293ZM102.139 17.8281L101.688 18.6777L100.744 18.1855L101.184 17.3301L102.139 17.8281ZM103.018 23.2832C103.018 23.7129 102.834 24.1582 102.467 24.6191C102.146 25.0254 101.748 25.375 101.271 25.668C100.818 25.9492 100.445 26.0898 100.152 26.0898C99.8828 26.0898 99.5918 26.0508 99.2793 25.9727C99.041 25.9141 98.7559 25.8223 98.4238 25.6973C98.1426 25.5918 97.8633 25.4863 97.5859 25.3809L97.6855 25.1465C97.9434 25.1973 98.2109 25.248 98.4883 25.2988C98.7695 25.3535 99.0234 25.3809 99.25 25.3809C99.75 25.3809 100.271 25.2207 100.814 24.9004C101.307 24.6074 101.727 24.2383 102.074 23.793C102.422 23.3438 102.596 22.9395 102.596 22.5801C102.596 22.2715 102.506 21.9473 102.326 21.6074C102.182 21.334 101.979 21.0527 101.717 20.7637L102.051 19.8438C102.371 20.1406 102.607 20.4375 102.76 20.7344C102.932 21.0703 103.018 21.4453 103.018 21.8594V23.2832ZM105.004 21.7891C105.004 22.1016 104.947 22.4043 104.834 22.6973C104.775 22.8535 104.648 23.1016 104.453 23.4414L104.348 23.3828C104.359 23.2695 104.369 23.1387 104.377 22.9902C104.389 22.8418 104.395 22.7422 104.395 22.6914C104.395 22.2852 104.361 21.7188 104.295 20.9922C104.232 20.2617 104.156 19.5 104.066 18.707C104.012 18.2266 103.951 17.7363 103.885 17.2363C103.963 17.0645 104.051 16.8789 104.148 16.6797C104.25 16.4805 104.346 16.293 104.436 16.1172C104.498 16.5625 104.576 17.1719 104.67 17.9453C104.768 18.7188 104.844 19.416 104.898 20.0371C104.969 20.8105 105.004 21.3945 105.004 21.7891ZM111.988 21.5547C111.988 22.1055 111.898 22.5195 111.719 22.7969C111.441 23.2266 110.934 23.4414 110.195 23.4414C109.91 23.4414 109.674 23.3848 109.486 23.2715C109.271 23.1426 109.164 22.959 109.164 22.7207C109.164 22.4473 109.232 22.1309 109.369 21.7715C109.494 21.4668 109.621 21.1602 109.75 20.8516L109.662 20.8281L110.02 19.8379C110.727 20.209 111.148 20.4434 111.285 20.541C111.754 20.8691 111.988 21.207 111.988 21.5547ZM111.479 22.0117C111.479 21.8633 111.264 21.666 110.834 21.4199C110.65 21.3145 110.453 21.2109 110.242 21.1094C110.066 21.3008 109.961 21.4199 109.926 21.4668C109.816 21.6191 109.762 21.7637 109.762 21.9004C109.762 22.0996 109.816 22.2559 109.926 22.3691C110.039 22.4785 110.189 22.5332 110.377 22.5332C110.596 22.5332 110.834 22.4727 111.092 22.3516C111.35 22.2266 111.479 22.1133 111.479 22.0117ZM116.283 23.2832H113.658C113.436 23.2832 113.234 23.2188 113.055 23.0898C112.879 22.9609 112.791 22.8086 112.791 22.6328C112.791 22.4844 112.799 22.3496 112.814 22.2285C112.83 22.1074 112.859 21.9746 112.902 21.8301H113.037C113.08 21.9902 113.158 22.1055 113.271 22.1758C113.365 22.2344 113.494 22.2637 113.658 22.2637H115.926C115.926 21.5645 115.828 21.002 115.633 20.5762C115.391 20.0449 114.986 19.6914 114.42 19.5156L114.508 18.3789C115.184 18.7109 115.662 19.2402 115.943 19.9668C116.17 20.5527 116.283 21.3184 116.283 22.2637V23.2832ZM119.043 23.2832H118.223C117.957 23.2832 117.744 23.1758 117.584 22.9609C117.443 22.7734 117.336 22.4941 117.262 22.123C117.191 21.752 117.137 21.2949 117.098 20.752C117.074 20.3105 117.049 19.8574 117.021 19.3926C116.998 18.9277 116.965 18.5762 116.922 18.3379C116.883 18.0957 116.828 17.8984 116.758 17.7461C116.672 17.5586 116.553 17.3945 116.4 17.2539L117.121 16.1172C117.273 16.5859 117.381 17.1465 117.443 17.7988C117.482 18.2051 117.521 19.166 117.561 20.6816C117.631 21.377 117.732 21.8223 117.865 22.0176C117.975 22.1816 118.094 22.2637 118.223 22.2637H119.043V23.2832ZM121.686 17.0605L121.17 17.9043L120.35 17.3418L120.836 16.5215L121.686 17.0605ZM122.195 23.2832H118.633V22.2637H120.643C120.885 22.2637 121.09 22.2559 121.258 22.2402C121.43 22.2207 121.615 22.1816 121.814 22.123C121.143 22.0254 120.707 21.9336 120.508 21.8477C120.059 21.6523 119.834 21.3203 119.834 20.8516C119.834 20.4414 119.941 20.0547 120.156 19.6914C120.398 19.2812 120.693 19.0762 121.041 19.0762C121.439 19.0762 121.742 19.3301 121.949 19.8379C122.113 20.2402 122.195 20.7148 122.195 21.2617V23.2832ZM121.668 21.2383C121.578 20.9258 121.492 20.6934 121.41 20.541C121.25 20.248 121.057 20.1016 120.83 20.1016C120.721 20.1016 120.627 20.1445 120.549 20.2305C120.471 20.3164 120.432 20.418 120.432 20.5352C120.432 20.832 120.586 21.0312 120.895 21.1328C121.004 21.168 121.262 21.2031 121.668 21.2383ZM125.096 17.4941L124.639 18.3379L123.689 17.834L124.129 16.9961L125.096 17.4941ZM123.748 18.0215L123.303 18.8711L122.354 18.3789L122.787 17.5293L123.748 18.0215ZM125.125 23.2832H121.785V22.2637H124.697C124.697 21.8027 124.643 21.4512 124.533 21.209C124.459 21.041 124.275 20.7988 123.982 20.4824L124.439 19.5273C124.721 19.8828 124.896 20.1602 124.967 20.3594C125.072 20.6602 125.125 21.1582 125.125 21.8535V23.2832ZM131.494 23.2832H131.043C130.793 23.2832 130.578 23.25 130.398 23.1836C130.219 23.1133 130.055 23.0156 129.906 22.8906C129.723 23.0352 129.562 23.1309 129.426 23.1777C129.227 23.248 128.953 23.2832 128.605 23.2832H128.225C128.021 23.2832 127.818 23.2441 127.615 23.166C127.482 23.1152 127.318 23.0312 127.123 22.9141C126.936 23.0547 126.764 23.1523 126.607 23.207C126.451 23.2578 126.197 23.2832 125.846 23.2832H124.715V22.2637H125.846C126.162 22.2637 126.389 22.2363 126.525 22.1816C126.752 22.0918 126.865 21.9121 126.865 21.6426C126.865 21.5293 126.859 21.416 126.848 21.3027C126.836 21.1895 126.814 21.0625 126.783 20.9219L127.023 20.5703C127.133 20.9297 127.223 21.1914 127.293 21.3555C127.418 21.6406 127.555 21.8555 127.703 22C127.883 22.1758 128.098 22.2637 128.348 22.2637H128.74C129.033 22.2637 129.25 22.2188 129.391 22.1289C129.547 22.0273 129.625 21.8652 129.625 21.6426C129.625 21.5215 129.617 21.4043 129.602 21.291C129.586 21.1777 129.564 21.0547 129.537 20.9219L129.783 20.5703L129.906 21.1211C130.012 21.5547 130.141 21.8555 130.293 22.0234C130.426 22.1719 130.605 22.2461 130.832 22.2461C130.938 22.2461 131.021 22.2148 131.084 22.1523C131.15 22.0859 131.184 22.002 131.184 21.9004C131.184 21.6816 131.104 21.4512 130.943 21.209C130.916 21.1699 130.82 21.043 130.656 20.8281L131.037 20.1895C131.197 20.4316 131.307 20.6406 131.365 20.8164C131.451 21.082 131.494 21.4355 131.494 21.877V23.2832ZM133.48 21.7891C133.48 22.1016 133.424 22.4043 133.311 22.6973C133.252 22.8535 133.125 23.1016 132.93 23.4414L132.824 23.3828C132.836 23.2695 132.846 23.1387 132.854 22.9902C132.865 22.8418 132.871 22.7422 132.871 22.6914C132.871 22.2852 132.838 21.7188 132.771 20.9922C132.709 20.2617 132.633 19.5 132.543 18.707C132.488 18.2266 132.428 17.7363 132.361 17.2363C132.439 17.0645 132.527 16.8789 132.625 16.6797C132.727 16.4805 132.822 16.293 132.912 16.1172C132.975 16.5625 133.053 17.1719 133.146 17.9453C133.244 18.7188 133.32 19.416 133.375 20.0371C133.445 20.8105 133.48 21.3945 133.48 21.7891ZM141.455 18.7891L141.016 19.627L140.102 19.123L140.523 18.3086L141.455 18.7891ZM143.635 23.2832C143.635 24.1543 143.379 24.7949 142.867 25.2051C142.316 25.6465 141.428 25.8672 140.201 25.8672C139.42 25.8672 138.822 25.7305 138.408 25.457C137.955 25.1562 137.729 24.6953 137.729 24.0742C137.729 23.7383 137.77 23.3984 137.852 23.0547C137.934 22.7109 138.045 22.3652 138.186 22.0176C138.271 21.8066 138.42 21.4824 138.631 21.0449L138.865 21.1504C138.592 21.7129 138.41 22.1562 138.32 22.4805C138.234 22.8047 138.191 23.1016 138.191 23.3711C138.191 23.8555 138.363 24.2246 138.707 24.4785C139.055 24.7285 139.549 24.8535 140.189 24.8535C140.928 24.8535 141.582 24.7227 142.152 24.4609C142.859 24.1367 143.213 23.6836 143.213 23.1016C143.213 22.7031 143.154 22.332 143.037 21.9883C142.936 21.6836 142.791 21.418 142.604 21.1914L143.09 19.9902C143.297 20.3066 143.439 20.6289 143.518 20.957C143.596 21.2852 143.635 21.7207 143.635 22.2637V23.2832ZM146.57 23.2832H143.23V22.2637H146.143C146.143 21.8027 146.088 21.4512 145.979 21.209C145.904 21.041 145.721 20.7988 145.428 20.4824L145.885 19.5273C146.166 19.8828 146.342 20.1602 146.412 20.3594C146.518 20.6602 146.57 21.1582 146.57 21.8535V23.2832ZM146.541 24.4551L146.084 25.2988L145.135 24.7949L145.574 23.957L146.541 24.4551ZM145.193 24.9824L144.748 25.832L143.799 25.3398L144.232 24.4902L145.193 24.9824ZM149.031 17.8633L148.586 18.7129L147.637 18.2207L148.07 17.3711L149.031 17.8633ZM149.5 23.2832H146.16V22.2637H149.072C149.072 21.8027 149.018 21.4512 148.908 21.209C148.834 21.041 148.65 20.7988 148.357 20.4824L148.814 19.5273C149.096 19.8828 149.271 20.1602 149.342 20.3594C149.447 20.6602 149.5 21.1582 149.5 21.8535V23.2832ZM155.857 23.2832H149.09V22.2637H153.865C153.467 21.9551 153.131 21.7148 152.857 21.543C152.518 21.3281 152.207 21.1719 151.926 21.0742C151.609 20.9648 151.289 20.9102 150.965 20.9102C150.766 20.9102 150.564 20.9238 150.361 20.9512C150.475 20.6621 150.623 20.4297 150.807 20.2539C151.072 20 151.408 19.873 151.814 19.873C152.213 19.873 152.684 20.0684 153.227 20.459C153.496 20.6543 153.936 21.0254 154.545 21.5723C155.018 21.998 155.338 22.2285 155.506 22.2637H155.857V23.2832ZM153.637 24.6719L153.203 25.5215L152.242 25.0293L152.688 24.1797L153.637 24.6719ZM153.438 26.248L153.004 27.1035L152.049 26.5996L152.5 25.7441L153.438 26.248ZM152.301 25.2168L151.861 26.0547L150.895 25.5566L151.352 24.7129L152.301 25.2168ZM160.592 23.2832H159.982C159.721 23.2832 159.426 23.2246 159.098 23.1074C158.719 22.9707 158.385 22.7832 158.096 22.5449C157.869 22.8223 157.637 23.0156 157.398 23.125C157.164 23.2305 156.82 23.2832 156.367 23.2832H155.453V22.2637H156.35C156.705 22.2637 157.021 22.1738 157.299 21.9941C157.514 21.8535 157.709 21.6562 157.885 21.4023C158.123 21.0586 158.416 20.7598 158.764 20.5059C159.076 20.2793 159.363 20.1348 159.625 20.0723C159.895 20.4824 160.109 20.8516 160.27 21.1797C160.484 21.625 160.592 21.9863 160.592 22.2637V23.2832ZM159.918 22.1289C159.867 21.9023 159.789 21.6797 159.684 21.4609C159.594 21.2773 159.475 21.0879 159.326 20.8926C159.139 20.9395 158.98 21.0273 158.852 21.1562C158.766 21.2383 158.664 21.377 158.547 21.5723C158.688 21.7246 158.885 21.8613 159.139 21.9824C159.396 22.1035 159.639 22.1777 159.865 22.2051L159.918 22.1289ZM165.215 22.293C165.215 22.5195 165.145 22.7715 165.004 23.0488C164.852 23.3496 164.699 23.5 164.547 23.5C164.387 23.5 164.088 23.3984 163.65 23.1953C163.248 23.0078 162.908 22.8242 162.631 22.6445C162.178 22.9023 161.848 23.0684 161.641 23.1426C161.379 23.2363 161.07 23.2832 160.715 23.2832H160.188V22.2637H160.715C160.875 22.2637 161.029 22.252 161.178 22.2285C161.326 22.2012 161.527 22.1543 161.781 22.0879C161.68 22.0137 161.578 21.9375 161.477 21.8594C161.367 21.7617 161.312 21.666 161.312 21.5723C161.312 21.5059 161.314 21.457 161.318 21.4258C161.326 21.3945 161.354 21.3359 161.4 21.25L161.98 20.2363C162.059 20.0996 162.129 20.0059 162.191 19.9551C162.258 19.9004 162.348 19.8574 162.461 19.8262C162.191 19.6426 162.057 19.5117 162.057 19.4336C162.057 19.3555 162.143 19.1543 162.314 18.8301C162.373 18.7207 162.463 18.5586 162.584 18.3438C162.834 18.582 163.148 18.9277 163.527 19.3809C164.008 19.9512 164.387 20.4609 164.664 20.9102C165.031 21.5039 165.215 21.9648 165.215 22.293ZM163.152 21.0215C163.152 20.8535 163.117 20.7207 163.047 20.623C162.965 20.5059 162.834 20.4473 162.654 20.4473C162.475 20.4473 162.307 20.5078 162.15 20.6289C161.994 20.7461 161.916 20.8887 161.916 21.0566C161.916 21.2168 162.154 21.4277 162.631 21.6895C162.799 21.5801 162.924 21.4746 163.006 21.373C163.104 21.2559 163.152 21.1387 163.152 21.0215ZM164.564 22.3633C164.564 22.2266 164.455 22.0137 164.236 21.7246C164.1 21.541 163.932 21.3457 163.732 21.1387C163.732 21.3301 163.691 21.5098 163.609 21.6777C163.531 21.8418 163.42 21.9688 163.275 22.0586C163.51 22.1797 163.746 22.2988 163.984 22.416C164.18 22.502 164.318 22.5449 164.4 22.5449C164.447 22.5449 164.486 22.5273 164.518 22.4922C164.549 22.457 164.564 22.4141 164.564 22.3633Z"/>
  </symbol>
  <symbol id="svg-copy-ar-3" viewBox="16 30 150 12">
    <path d="M22.7676 37.2832H21.9648C21.4922 37.2832 21.1562 37.1953 20.957 37.0195C20.7578 36.8438 20.6582 36.5527 20.6582 36.1465C20.6582 35.9941 20.6777 35.8047 20.7168 35.5781C20.7324 35.4922 20.7539 35.3789 20.7812 35.2383C20.1133 35.4414 19.6094 35.6152 19.2695 35.7598C18.6445 36.0254 18.1602 36.3262 17.8164 36.6621C17.3828 37.084 17.166 37.5645 17.166 38.1035C17.166 38.9434 17.6035 39.5742 18.4785 39.9961C19.2402 40.3633 20.2578 40.5469 21.5312 40.5469H22.6094L22.6445 40.6113L21.3203 41.543H20.9805C20.1367 41.543 19.4355 41.4648 18.877 41.3086C18.209 41.1211 17.7031 40.8203 17.3594 40.4062C16.9688 39.9336 16.7734 39.3086 16.7734 38.5312C16.7734 37.8633 16.9395 37.2793 17.2715 36.7793C17.5293 36.3887 17.9062 36.0312 18.4023 35.707C18.5469 35.6094 18.9492 35.3848 19.6094 35.0332C19.4531 35.0137 19.2871 34.998 19.1113 34.9863C18.9395 34.9707 18.7832 34.9629 18.6426 34.9629C18.248 34.9629 17.9277 34.9805 17.6816 35.0156C17.5996 35.0273 17.3438 35.0801 16.9141 35.1738C17.0469 34.791 17.1855 34.5254 17.3301 34.377C17.6543 34.0488 18.1621 33.8848 18.8535 33.8848C19.2324 33.8848 19.6426 33.9219 20.084 33.9961C20.5254 34.0664 20.8965 34.1016 21.1973 34.1016C21.3965 34.1016 21.5898 34.0938 21.7773 34.0781C21.9688 34.0625 22.168 34.041 22.375 34.0137L22.1406 35.0098C21.9805 35.0293 21.7988 35.0566 21.5957 35.0918C21.4668 35.1152 21.2891 35.1484 21.0625 35.1914L21.0508 35.5195C21.0508 35.8398 21.1484 36.0547 21.3438 36.1641C21.4648 36.2305 21.6719 36.2637 21.9648 36.2637H22.7676V37.2832ZM25.7031 37.2832H22.3633V36.2637H25.2754C25.2754 35.8027 25.2207 35.4512 25.1113 35.209C25.0371 35.041 24.8535 34.7988 24.5605 34.4824L25.0176 33.5273C25.2988 33.8828 25.4746 34.1602 25.5449 34.3594C25.6504 34.6602 25.7031 35.1582 25.7031 35.8535V37.2832ZM25.6738 38.4551L25.2168 39.2988L24.2676 38.7949L24.707 37.957L25.6738 38.4551ZM24.3262 38.9824L23.8809 39.832L22.9316 39.3398L23.3652 38.4902L24.3262 38.9824ZM31.5684 37.2832C31.5684 37.7129 31.3848 38.1582 31.0176 38.6191C30.6973 39.0254 30.2988 39.375 29.8223 39.668C29.3691 39.9492 28.9961 40.0898 28.7031 40.0898C28.4336 40.0898 28.1426 40.0508 27.8301 39.9727C27.5918 39.9141 27.3066 39.8223 26.9746 39.6973C26.6934 39.5918 26.4141 39.4863 26.1367 39.3809L26.2363 39.1465C26.4941 39.1973 26.7617 39.248 27.0391 39.2988C27.3203 39.3535 27.5742 39.3809 27.8008 39.3809C28.3008 39.3809 28.8223 39.2207 29.3652 38.9004C29.8574 38.6074 30.2773 38.2383 30.625 37.793C30.9727 37.3438 31.1465 36.9395 31.1465 36.5801C31.1465 36.2715 31.0566 35.9473 30.877 35.6074C30.7324 35.334 30.5293 35.0527 30.2676 34.7637L30.6016 33.8438C30.9219 34.1406 31.1582 34.4375 31.3105 34.7344C31.4824 35.0703 31.5684 35.4453 31.5684 35.8594V37.2832ZM41.7285 37.2832H34.6855C34.4746 37.2832 34.2734 37.248 34.082 37.1777C33.9375 37.123 33.7676 37.0352 33.5723 36.9141C33.4082 37.0547 33.2441 37.1523 33.0801 37.207C32.916 37.2578 32.6543 37.2832 32.2949 37.2832H31.1641V36.2637H32.2949C32.6113 36.2637 32.8379 36.2363 32.9746 36.1816C33.2012 36.0918 33.3145 35.9121 33.3145 35.6426C33.3145 35.5293 33.3066 35.416 33.291 35.3027C33.2793 35.1855 33.2598 35.0586 33.2324 34.9219L33.4727 34.5703C33.6094 35.1016 33.7969 35.5117 34.0352 35.8008C34.2891 36.1094 34.5879 36.2637 34.9316 36.2637C35.2598 36.2637 35.6445 36.1895 36.0859 36.041C36.5625 35.8809 36.9727 35.6777 37.3164 35.4316C37.875 35.0332 38.2168 34.7949 38.3418 34.7168C38.6582 34.5137 38.9453 34.3691 39.2031 34.2832C39.4922 34.1855 39.8086 34.1367 40.1523 34.1367C40.6836 34.1367 41.084 34.291 41.3535 34.5996C41.6035 34.8848 41.7285 35.2852 41.7285 35.8008V37.2832ZM40.7734 35.8125C40.7734 35.6211 40.6543 35.4727 40.416 35.3672C40.1777 35.2578 39.9004 35.2031 39.584 35.2031C39.1934 35.2031 38.7207 35.334 38.166 35.5957C37.7246 35.8184 37.2852 36.041 36.8477 36.2637H39.5488C39.9746 36.2637 40.2852 36.2266 40.4805 36.1523C40.6758 36.0781 40.7734 35.9648 40.7734 35.8125ZM52.1348 37.2832H51.1094C50.5078 37.2832 50.0547 37.2988 49.75 37.3301C49.4492 37.3613 49.2988 37.4238 49.2988 37.5176C49.2988 37.6465 49.4805 37.7109 49.8438 37.7109C50.0039 37.7109 50.1309 37.7148 50.2246 37.7227C50.3184 37.7305 50.5234 37.752 50.8398 37.7871C51.0273 37.8105 51.1562 37.8398 51.2266 37.875C51.3398 37.9336 51.3965 38.0352 51.3965 38.1797C51.3965 38.9102 51.1562 39.4414 50.6758 39.7734C50.1523 40.1367 49.2871 40.3184 48.0801 40.3184C47.2402 40.3184 46.5723 40.1758 46.0762 39.8906C45.5488 39.5859 45.2852 39.1523 45.2852 38.5898C45.2852 38.1367 45.4102 37.6562 45.6602 37.1484C45.75 36.9648 45.9863 36.5723 46.3691 35.9707L46.6035 36.0879C46.4551 36.3418 46.3086 36.5938 46.1641 36.8438C45.9414 37.2734 45.8301 37.625 45.8301 37.8984C45.8301 38.3789 46.0801 38.7441 46.5801 38.9941C47.0566 39.2324 47.7109 39.3516 48.543 39.3516C49.1016 39.3516 49.5938 39.3086 50.0195 39.2227C50.543 39.1172 50.8047 38.9727 50.8047 38.7891C50.8047 38.7227 50.7754 38.6738 50.7168 38.6426C50.6582 38.6074 50.5605 38.5898 50.4238 38.5898C50.3184 38.5781 50.1523 38.5664 49.9258 38.5547C49.7031 38.5391 49.5566 38.5312 49.4863 38.5312C49.2402 38.5312 49.0645 38.5 48.959 38.4375C48.8535 38.3711 48.8008 38.2734 48.8008 38.1445C48.8008 37.6602 48.9434 37.2637 49.2285 36.9551C49.4629 36.7051 49.7773 36.5195 50.1719 36.3984C50.4688 36.3086 50.7812 36.2637 51.1094 36.2637H52.1348V37.2832ZM55.0703 37.2832H51.7305V36.2637H54.6426C54.6426 35.8027 54.5879 35.4512 54.4785 35.209C54.4043 35.041 54.2207 34.7988 53.9277 34.4824L54.3848 33.5273C54.666 33.8828 54.8418 34.1602 54.9121 34.3594C55.0176 34.6602 55.0703 35.1582 55.0703 35.8535V37.2832ZM54.4727 38.707L54.0156 39.5566L53.0664 39.0645L53.5 38.209L54.4727 38.707ZM57.9707 31.4941L57.5137 32.3379L56.5645 31.834L57.0039 30.9961L57.9707 31.4941ZM56.623 32.0215L56.1777 32.8711L55.2285 32.3789L55.6621 31.5293L56.623 32.0215ZM58 37.2832H54.6602V36.2637H57.5723C57.5723 35.8027 57.5176 35.4512 57.4082 35.209C57.334 35.041 57.1504 34.7988 56.8574 34.4824L57.3145 33.5273C57.5957 33.8828 57.7715 34.1602 57.8418 34.3594C57.9473 34.6602 58 35.1582 58 35.8535V37.2832ZM62.7285 37.2832H57.5898V36.2637H62.0488C61.7754 35.8496 61.4629 35.4902 61.1113 35.1855C60.7598 34.877 60.2852 34.5449 59.6875 34.1895L59.4941 34.3711L58.8027 33.8438C58.5605 33.6406 58.4395 33.4824 58.4395 33.3691C58.4395 32.6973 58.6035 32.1699 58.9316 31.7871C59.2363 31.4355 59.7617 31.1191 60.5078 30.8379L62.1602 30.1934V31.207L60.9355 31.6172C60.4473 31.7773 60.0527 31.9238 59.752 32.0566C59.3691 32.2246 59.1777 32.3535 59.1777 32.4434C59.1777 32.5332 59.3027 32.6719 59.5527 32.8594C59.709 32.9766 59.8672 33.0938 60.0273 33.2109C60.6211 33.6602 61.1387 34.1309 61.5801 34.623C62.0566 35.1504 62.4395 35.6973 62.7285 36.2637V37.2832ZM71.0605 31.8281L70.6094 32.6777L69.666 32.1855L70.1055 31.3301L71.0605 31.8281ZM71.9395 37.2832C71.9395 37.7129 71.7559 38.1582 71.3887 38.6191C71.0684 39.0254 70.6699 39.375 70.1934 39.668C69.7402 39.9492 69.3672 40.0898 69.0742 40.0898C68.8047 40.0898 68.5137 40.0508 68.2012 39.9727C67.9629 39.9141 67.6777 39.8223 67.3457 39.6973C67.0645 39.5918 66.7852 39.4863 66.5078 39.3809L66.6074 39.1465C66.8652 39.1973 67.1328 39.248 67.4102 39.2988C67.6914 39.3535 67.9453 39.3809 68.1719 39.3809C68.6719 39.3809 69.1934 39.2207 69.7363 38.9004C70.2285 38.6074 70.6484 38.2383 70.9961 37.793C71.3438 37.3438 71.5176 36.9395 71.5176 36.5801C71.5176 36.2715 71.4277 35.9473 71.248 35.6074C71.1035 35.334 70.9004 35.0527 70.6387 34.7637L70.9727 33.8438C71.293 34.1406 71.5293 34.4375 71.6816 34.7344C71.8535 35.0703 71.9395 35.4453 71.9395 35.8594V37.2832ZM77.1309 36.9316C77.1309 37.5762 76.8926 38.2168 76.416 38.8535C75.8848 39.5645 75.2715 39.9199 74.5762 39.9199C74.3184 39.9199 74.0527 39.8906 73.7793 39.832C73.5801 39.7891 73.3203 39.7148 73 39.6094C72.7461 39.5195 72.4922 39.4316 72.2383 39.3457L72.3379 39.1406C72.5566 39.1914 72.7852 39.2441 73.0234 39.2988C73.2656 39.3574 73.4824 39.3867 73.6738 39.3867C74.1504 39.3867 74.6016 39.2656 75.0273 39.0234C75.3594 38.832 75.6914 38.5547 76.0234 38.1914C76.1914 38.0078 76.4297 37.709 76.7383 37.2949C76.2109 37.2949 75.8164 37.2109 75.5547 37.043C75.2578 36.8516 75.1094 36.5371 75.1094 36.0996C75.1094 35.6973 75.2031 35.3242 75.3906 34.9805C75.6094 34.582 75.8867 34.3828 76.2227 34.3828C76.5625 34.3828 76.8066 34.5801 76.9551 34.9746C77.0723 35.2832 77.1309 35.7129 77.1309 36.2637V36.9316ZM76.7617 36.293C76.6758 35.918 76.5723 35.6582 76.4512 35.5137C76.3457 35.3887 76.2168 35.3262 76.0645 35.3262C75.9551 35.3262 75.8594 35.3633 75.7773 35.4375C75.6992 35.5078 75.6602 35.5977 75.6602 35.707C75.6602 35.8984 75.7461 36.0449 75.918 36.1465C76.0898 36.2441 76.3711 36.293 76.7617 36.293ZM83.4941 37.2832H76.7266V36.2637H81.502C81.1035 35.9551 80.7676 35.7148 80.4941 35.543C80.1543 35.3281 79.8438 35.1719 79.5625 35.0742C79.2461 34.9648 78.9258 34.9102 78.6016 34.9102C78.4023 34.9102 78.2012 34.9238 77.998 34.9512C78.1113 34.6621 78.2598 34.4297 78.4434 34.2539C78.709 34 79.0449 33.873 79.4512 33.873C79.8496 33.873 80.3203 34.0684 80.8633 34.459C81.1328 34.6543 81.5723 35.0254 82.1816 35.5723C82.6543 35.998 82.9746 36.2285 83.1426 36.2637H83.4941V37.2832ZM80.5117 38.5547L80.0723 39.3984L79.1172 38.9062L79.5742 38.0508L80.5117 38.5547ZM88.2285 37.2832H87.6191C87.3574 37.2832 87.0625 37.2246 86.7344 37.1074C86.3555 36.9707 86.0215 36.7832 85.7324 36.5449C85.5059 36.8223 85.2734 37.0156 85.0352 37.125C84.8008 37.2305 84.457 37.2832 84.0039 37.2832H83.0898V36.2637H83.9863C84.3418 36.2637 84.6582 36.1738 84.9355 35.9941C85.1504 35.8535 85.3457 35.6562 85.5215 35.4023C85.7598 35.0586 86.0527 34.7598 86.4004 34.5059C86.7129 34.2793 87 34.1348 87.2617 34.0723C87.5312 34.4824 87.7461 34.8516 87.9062 35.1797C88.1211 35.625 88.2285 35.9863 88.2285 36.2637V37.2832ZM87.5547 36.1289C87.5039 35.9023 87.4258 35.6797 87.3203 35.4609C87.2305 35.2773 87.1113 35.0879 86.9629 34.8926C86.7754 34.9395 86.6172 35.0273 86.4883 35.1562C86.4023 35.2383 86.3008 35.377 86.1836 35.5723C86.3242 35.7246 86.5215 35.8613 86.7754 35.9824C87.0332 36.1035 87.2754 36.1777 87.502 36.2051L87.5547 36.1289ZM94.3281 37.2832H93.5078C93.2422 37.2832 93.0293 37.1758 92.8691 36.9609C92.7285 36.7734 92.6211 36.4941 92.5469 36.123C92.4766 35.752 92.4219 35.2949 92.3828 34.752C92.3594 34.3105 92.334 33.8574 92.3066 33.3926C92.2832 32.9277 92.25 32.5762 92.207 32.3379C92.168 32.0957 92.1133 31.8984 92.043 31.7461C91.957 31.5586 91.8379 31.3945 91.6855 31.2539L92.4062 30.1172C92.5586 30.5859 92.666 31.1465 92.7285 31.7988C92.7676 32.2051 92.8066 33.166 92.8457 34.6816C92.916 35.377 93.0176 35.8223 93.1504 36.0176C93.2598 36.1816 93.3789 36.2637 93.5078 36.2637H94.3281V37.2832ZM97.2578 37.2832H93.918V36.2637H96.8301C96.8301 35.8027 96.7754 35.4512 96.666 35.209C96.5918 35.041 96.4082 34.7988 96.1152 34.4824L96.5723 33.5273C96.8535 33.8828 97.0293 34.1602 97.0996 34.3594C97.2051 34.6602 97.2578 35.1582 97.2578 35.8535V37.2832ZM96.6602 38.707L96.2031 39.5566L95.2539 39.0645L95.6875 38.209L96.6602 38.707ZM103.352 37.2832H102.531C102.266 37.2832 102.053 37.1758 101.893 36.9609C101.752 36.7734 101.645 36.4941 101.57 36.123C101.5 35.752 101.445 35.2949 101.406 34.752C101.383 34.3105 101.357 33.8574 101.33 33.3926C101.307 32.9277 101.273 32.5762 101.23 32.3379C101.191 32.0957 101.137 31.8984 101.066 31.7461C100.98 31.5586 100.861 31.3945 100.709 31.2539L101.43 30.1172C101.582 30.5859 101.689 31.1465 101.752 31.7988C101.791 32.2051 101.83 33.166 101.869 34.6816C101.939 35.377 102.041 35.8223 102.174 36.0176C102.283 36.1816 102.402 36.2637 102.531 36.2637H103.352V37.2832ZM108.08 37.2832H105.936C106.186 37.4004 106.398 37.5664 106.574 37.7812C106.797 38.0508 106.908 38.3438 106.908 38.6602C106.908 38.9648 106.861 39.209 106.768 39.3926C106.65 39.623 106.467 39.7383 106.217 39.7383C105.748 39.7383 105.318 39.5762 104.928 39.252C104.459 38.8613 104.225 38.3457 104.225 37.7051L104.236 37.2832H102.941V36.2637H104.424C104.561 35.9004 104.711 35.5625 104.875 35.25C105.082 34.8555 105.299 34.5332 105.525 34.2832C105.787 33.9941 106.033 33.8496 106.264 33.8496C106.385 33.8496 106.49 33.9551 106.58 34.166C106.674 34.377 106.721 34.6016 106.721 34.8398C106.721 35.1836 106.631 35.4629 106.451 35.6777C106.346 35.8066 106.029 36.002 105.502 36.2637H108.08V37.2832ZM106.141 35.2734C106.141 34.9023 106.062 34.7168 105.906 34.7168C105.738 34.7168 105.537 34.9004 105.303 35.2676C105.189 35.4434 105.029 35.7363 104.822 36.1465C105.178 36.0488 105.477 35.9258 105.719 35.7773C106 35.6055 106.141 35.4375 106.141 35.2734ZM106.375 38.5664C106.375 38.2578 106.148 37.9609 105.695 37.6758C105.324 37.4414 104.959 37.293 104.6 37.2305C104.6 37.6602 104.703 38.0137 104.91 38.291C105.16 38.627 105.533 38.7949 106.029 38.7949C106.123 38.7949 106.203 38.7754 106.27 38.7363C106.34 38.6973 106.375 38.6406 106.375 38.5664ZM110.547 31.8633L110.102 32.7129L109.152 32.2207L109.586 31.3711L110.547 31.8633ZM111.016 37.2832H107.676V36.2637H110.588C110.588 35.8027 110.533 35.4512 110.424 35.209C110.35 35.041 110.166 34.7988 109.873 34.4824L110.33 33.5273C110.611 33.8828 110.787 34.1602 110.857 34.3594C110.963 34.6602 111.016 35.1582 111.016 35.8535V37.2832ZM113.916 31.4941L113.459 32.3379L112.51 31.834L112.949 30.9961L113.916 31.4941ZM112.568 32.0215L112.123 32.8711L111.174 32.3789L111.607 31.5293L112.568 32.0215ZM113.945 37.2832H110.605V36.2637H113.518C113.518 35.8027 113.463 35.4512 113.354 35.209C113.279 35.041 113.096 34.7988 112.803 34.4824L113.26 33.5273C113.541 33.8828 113.717 34.1602 113.787 34.3594C113.893 34.6602 113.945 35.1582 113.945 35.8535V37.2832ZM117.631 36.5625L118.656 36.4219C118.684 37.0781 118.807 37.5273 119.025 37.7695C119.244 38.0117 119.547 38.1328 119.934 38.1328C120.219 38.1328 120.465 38.0684 120.672 37.9395C120.879 37.8066 121.021 37.6289 121.1 37.4062C121.178 37.1797 121.217 36.8203 121.217 36.3281V30.4102H122.354V36.2637C122.354 36.9824 122.266 37.5391 122.09 37.9336C121.918 38.3281 121.643 38.6289 121.264 38.8359C120.889 39.043 120.447 39.1465 119.939 39.1465C119.186 39.1465 118.607 38.9297 118.205 38.4961C117.807 38.0625 117.615 37.418 117.631 36.5625ZM128.154 39V38.0859C127.67 38.7891 127.012 39.1406 126.18 39.1406C125.812 39.1406 125.469 39.0703 125.148 38.9297C124.832 38.7891 124.596 38.6133 124.439 38.4023C124.287 38.1875 124.18 37.9258 124.117 37.6172C124.074 37.4102 124.053 37.082 124.053 36.6328V32.7773H125.107V36.2285C125.107 36.7793 125.129 37.1504 125.172 37.3418C125.238 37.6191 125.379 37.8379 125.594 37.998C125.809 38.1543 126.074 38.2324 126.391 38.2324C126.707 38.2324 127.004 38.1523 127.281 37.9922C127.559 37.8281 127.754 37.6074 127.867 37.3301C127.984 37.0488 128.043 36.6426 128.043 36.1113V32.7773H129.098V39H128.154ZM130.334 37.1426L131.377 36.9785C131.436 37.3965 131.598 37.7168 131.863 37.9395C132.133 38.1621 132.508 38.2734 132.988 38.2734C133.473 38.2734 133.832 38.1758 134.066 37.9805C134.301 37.7812 134.418 37.5488 134.418 37.2832C134.418 37.0449 134.314 36.8574 134.107 36.7207C133.963 36.627 133.604 36.5078 133.029 36.3633C132.256 36.168 131.719 36 131.418 35.8594C131.121 35.7148 130.895 35.5176 130.738 35.2676C130.586 35.0137 130.51 34.7344 130.51 34.4297C130.51 34.1523 130.572 33.8965 130.697 33.6621C130.826 33.4238 131 33.2266 131.219 33.0703C131.383 32.9492 131.605 32.8477 131.887 32.7656C132.172 32.6797 132.477 32.6367 132.801 32.6367C133.289 32.6367 133.717 32.707 134.084 32.8477C134.455 32.9883 134.729 33.1797 134.904 33.4219C135.08 33.6602 135.201 33.9805 135.268 34.3828L134.236 34.5234C134.189 34.2031 134.053 33.9531 133.826 33.7734C133.604 33.5938 133.287 33.5039 132.877 33.5039C132.393 33.5039 132.047 33.584 131.84 33.7441C131.633 33.9043 131.529 34.0918 131.529 34.3066C131.529 34.4434 131.572 34.5664 131.658 34.6758C131.744 34.7891 131.879 34.8828 132.062 34.957C132.168 34.9961 132.479 35.0859 132.994 35.2266C133.74 35.4258 134.26 35.5898 134.553 35.7188C134.85 35.8438 135.082 36.0273 135.25 36.2695C135.418 36.5117 135.502 36.8125 135.502 37.1719C135.502 37.5234 135.398 37.8555 135.191 38.168C134.988 38.4766 134.693 38.7168 134.307 38.8887C133.92 39.0566 133.482 39.1406 132.994 39.1406C132.186 39.1406 131.568 38.9727 131.143 38.6367C130.721 38.3008 130.451 37.8027 130.334 37.1426ZM139.059 38.0566L139.211 38.9883C138.914 39.0508 138.648 39.082 138.414 39.082C138.031 39.082 137.734 39.0215 137.523 38.9004C137.312 38.7793 137.164 38.6211 137.078 38.4258C136.992 38.2266 136.949 37.8105 136.949 37.1777V33.5977H136.176V32.7773H136.949V31.2363L137.998 30.6035V32.7773H139.059V33.5977H137.998V37.2363C137.998 37.5371 138.016 37.7305 138.051 37.8164C138.09 37.9023 138.15 37.9707 138.232 38.0215C138.318 38.0723 138.439 38.0977 138.596 38.0977C138.713 38.0977 138.867 38.084 139.059 38.0566ZM140.348 39V33.5977H139.416V32.7773H140.348V32.1152C140.348 31.6973 140.385 31.3867 140.459 31.1836C140.561 30.9102 140.738 30.6895 140.992 30.5215C141.25 30.3496 141.609 30.2637 142.07 30.2637C142.367 30.2637 142.695 30.2988 143.055 30.3691L142.896 31.2891C142.678 31.25 142.471 31.2305 142.275 31.2305C141.955 31.2305 141.729 31.2988 141.596 31.4355C141.463 31.5723 141.396 31.8281 141.396 32.2031V32.7773H142.609V33.5977H141.396V39H140.348ZM143.043 35.8887C143.043 34.7363 143.363 33.8828 144.004 33.3281C144.539 32.8672 145.191 32.6367 145.961 32.6367C146.816 32.6367 147.516 32.918 148.059 33.4805C148.602 34.0391 148.873 34.8125 148.873 35.8008C148.873 36.6016 148.752 37.2324 148.51 37.6934C148.271 38.1504 147.922 38.5059 147.461 38.7598C147.004 39.0137 146.504 39.1406 145.961 39.1406C145.09 39.1406 144.385 38.8613 143.846 38.3027C143.311 37.7441 143.043 36.9395 143.043 35.8887ZM144.127 35.8887C144.127 36.6855 144.301 37.2832 144.648 37.6816C144.996 38.0762 145.434 38.2734 145.961 38.2734C146.484 38.2734 146.92 38.0742 147.268 37.6758C147.615 37.2773 147.789 36.6699 147.789 35.8535C147.789 35.084 147.613 34.502 147.262 34.1074C146.914 33.709 146.48 33.5098 145.961 33.5098C145.434 33.5098 144.996 33.707 144.648 34.1016C144.301 34.4961 144.127 35.0918 144.127 35.8887ZM150.104 39V32.7773H151.053V33.7207C151.295 33.2793 151.518 32.9883 151.721 32.8477C151.928 32.707 152.154 32.6367 152.4 32.6367C152.756 32.6367 153.117 32.75 153.484 32.9766L153.121 33.9551C152.863 33.8027 152.605 33.7266 152.348 33.7266C152.117 33.7266 151.91 33.7969 151.727 33.9375C151.543 34.0742 151.412 34.2656 151.334 34.5117C151.217 34.8867 151.158 35.2969 151.158 35.7422V39H150.104ZM158.371 36.9961L159.461 37.1309C159.289 37.7676 158.971 38.2617 158.506 38.6133C158.041 38.9648 157.447 39.1406 156.725 39.1406C155.814 39.1406 155.092 38.8613 154.557 38.3027C154.025 37.7402 153.76 36.9531 153.76 35.9414C153.76 34.8945 154.029 34.082 154.568 33.5039C155.107 32.9258 155.807 32.6367 156.666 32.6367C157.498 32.6367 158.178 32.9199 158.705 33.4863C159.232 34.0527 159.496 34.8496 159.496 35.877C159.496 35.9395 159.494 36.0332 159.49 36.1582H154.85C154.889 36.8418 155.082 37.3652 155.43 37.7285C155.777 38.0918 156.211 38.2734 156.73 38.2734C157.117 38.2734 157.447 38.1719 157.721 37.9688C157.994 37.7656 158.211 37.4414 158.371 36.9961ZM154.908 35.291H158.383C158.336 34.7676 158.203 34.375 157.984 34.1133C157.648 33.707 157.213 33.5039 156.678 33.5039C156.193 33.5039 155.785 33.666 155.453 33.9902C155.125 34.3145 154.943 34.748 154.908 35.291ZM160.088 39L162.361 35.7656L160.258 32.7773H161.576L162.531 34.2363C162.711 34.5137 162.855 34.7461 162.965 34.9336C163.137 34.6758 163.295 34.4473 163.439 34.248L164.488 32.7773H165.748L163.598 35.707L165.912 39H164.617L163.34 37.0664L163 36.5449L161.365 39H160.088Z"/>
  </symbol>
  <symbol id="svg-copy-ar-4" viewBox="71 43 95 12">
    <path d="M71.207 53V51.7988H72.4082V53H71.207ZM79.2637 45.9629L78.8066 46.8066L77.8574 46.3027L78.2969 45.4648L79.2637 45.9629ZM77.916 46.4902L77.4707 47.3398L76.5215 46.8477L76.9551 45.998L77.916 46.4902ZM82.0176 51.2832H76.4277C75.6777 51.2832 75.0801 51.1523 74.6348 50.8906C74.0762 50.5625 73.7969 50.0488 73.7969 49.3496C73.7969 48.9863 73.8789 48.6152 74.043 48.2363C74.1016 48.0996 74.2422 47.8398 74.4648 47.457L74.6406 47.5684C74.5547 47.748 74.4707 47.9277 74.3887 48.1074C74.2754 48.3848 74.2188 48.6328 74.2188 48.8516C74.2188 49.3125 74.4609 49.6699 74.9453 49.9238C75.3789 50.1504 75.9277 50.2637 76.5918 50.2637H81.5547V50.1055C81.5547 49.668 81.502 49.3125 81.3965 49.0391C81.291 48.7617 81.1113 48.5254 80.8574 48.3301L81.3086 47.375C81.4805 47.5898 81.584 47.7246 81.6191 47.7793C81.8848 48.2168 82.0176 48.8535 82.0176 49.6895V51.2832ZM88.3926 51.2832H87.9414C87.6914 51.2832 87.4766 51.25 87.2969 51.1836C87.1172 51.1133 86.9531 51.0156 86.8047 50.8906C86.6211 51.0352 86.4609 51.1309 86.3242 51.1777C86.125 51.248 85.8516 51.2832 85.5039 51.2832H85.123C84.9199 51.2832 84.7168 51.2441 84.5137 51.166C84.3809 51.1152 84.2168 51.0312 84.0215 50.9141C83.834 51.0547 83.6621 51.1523 83.5059 51.207C83.3496 51.2578 83.0957 51.2832 82.7441 51.2832H81.6133V50.2637H82.7441C83.0605 50.2637 83.2871 50.2363 83.4238 50.1816C83.6504 50.0918 83.7637 49.9121 83.7637 49.6426C83.7637 49.5293 83.7578 49.416 83.7461 49.3027C83.7344 49.1895 83.7129 49.0625 83.6816 48.9219L83.9219 48.5703C84.0312 48.9297 84.1211 49.1914 84.1914 49.3555C84.3164 49.6406 84.4531 49.8555 84.6016 50C84.7812 50.1758 84.9961 50.2637 85.2461 50.2637H85.6387C85.9316 50.2637 86.1484 50.2188 86.2891 50.1289C86.4453 50.0273 86.5234 49.8652 86.5234 49.6426C86.5234 49.5215 86.5156 49.4043 86.5 49.291C86.4844 49.1777 86.4629 49.0547 86.4355 48.9219L86.6816 48.5703L86.8047 49.1211C86.9102 49.5547 87.0391 49.8555 87.1914 50.0234C87.3242 50.1719 87.5039 50.2461 87.7305 50.2461C87.8359 50.2461 87.9199 50.2148 87.9824 50.1523C88.0488 50.0859 88.082 50.002 88.082 49.9004C88.082 49.6816 88.002 49.4512 87.8418 49.209C87.8145 49.1699 87.7188 49.043 87.5547 48.8281L87.9355 48.1895C88.0957 48.4316 88.2051 48.6406 88.2637 48.8164C88.3496 49.082 88.3926 49.4355 88.3926 49.877V51.2832ZM90.3789 49.7891C90.3789 50.1016 90.3223 50.4043 90.209 50.6973C90.1504 50.8535 90.0234 51.1016 89.8281 51.4414L89.7227 51.3828C89.7344 51.2695 89.7441 51.1387 89.752 50.9902C89.7637 50.8418 89.7695 50.7422 89.7695 50.6914C89.7695 50.2852 89.7363 49.7188 89.6699 48.9922C89.6074 48.2617 89.5312 47.5 89.4414 46.707C89.3867 46.2266 89.3262 45.7363 89.2598 45.2363C89.3379 45.0645 89.4258 44.8789 89.5234 44.6797C89.625 44.4805 89.7207 44.293 89.8105 44.1172C89.873 44.5625 89.9512 45.1719 90.0449 45.9453C90.1426 46.7188 90.2188 47.416 90.2734 48.0371C90.3438 48.8105 90.3789 49.3945 90.3789 49.7891ZM99.209 45.8281L98.7578 46.6777L97.8145 46.1855L98.2539 45.3301L99.209 45.8281ZM100.088 51.2832C100.088 51.7129 99.9043 52.1582 99.5371 52.6191C99.2168 53.0254 98.8184 53.375 98.3418 53.668C97.8887 53.9492 97.5156 54.0898 97.2227 54.0898C96.9531 54.0898 96.6621 54.0508 96.3496 53.9727C96.1113 53.9141 95.8262 53.8223 95.4941 53.6973C95.2129 53.5918 94.9336 53.4863 94.6562 53.3809L94.7559 53.1465C95.0137 53.1973 95.2812 53.248 95.5586 53.2988C95.8398 53.3535 96.0938 53.3809 96.3203 53.3809C96.8203 53.3809 97.3418 53.2207 97.8848 52.9004C98.377 52.6074 98.7969 52.2383 99.1445 51.793C99.4922 51.3438 99.666 50.9395 99.666 50.5801C99.666 50.2715 99.5762 49.9473 99.3965 49.6074C99.252 49.334 99.0488 49.0527 98.7871 48.7637L99.1211 47.8438C99.4414 48.1406 99.6777 48.4375 99.8301 48.7344C100.002 49.0703 100.088 49.4453 100.088 49.8594V51.2832ZM102.848 51.2832H102.027C101.762 51.2832 101.549 51.1758 101.389 50.9609C101.248 50.7734 101.141 50.4941 101.066 50.123C100.996 49.752 100.941 49.2949 100.902 48.752C100.879 48.3105 100.854 47.8574 100.826 47.3926C100.803 46.9277 100.77 46.5762 100.727 46.3379C100.688 46.0957 100.633 45.8984 100.562 45.7461C100.477 45.5586 100.357 45.3945 100.205 45.2539L100.926 44.1172C101.078 44.5859 101.186 45.1465 101.248 45.7988C101.287 46.2051 101.326 47.166 101.365 48.6816C101.436 49.377 101.537 49.8223 101.67 50.0176C101.779 50.1816 101.898 50.2637 102.027 50.2637H102.848V51.2832ZM109.205 51.2832H102.438V50.2637H107.213C106.814 49.9551 106.479 49.7148 106.205 49.543C105.865 49.3281 105.555 49.1719 105.273 49.0742C104.957 48.9648 104.637 48.9102 104.312 48.9102C104.113 48.9102 103.912 48.9238 103.709 48.9512C103.822 48.6621 103.971 48.4297 104.154 48.2539C104.42 48 104.756 47.873 105.162 47.873C105.561 47.873 106.031 48.0684 106.574 48.459C106.844 48.6543 107.283 49.0254 107.893 49.5723C108.365 49.998 108.686 50.2285 108.854 50.2637H109.205V51.2832ZM106.223 52.5547L105.783 53.3984L104.828 52.9062L105.285 52.0508L106.223 52.5547ZM113.939 51.2832H113.33C113.068 51.2832 112.773 51.2246 112.445 51.1074C112.066 50.9707 111.732 50.7832 111.443 50.5449C111.217 50.8223 110.984 51.0156 110.746 51.125C110.512 51.2305 110.168 51.2832 109.715 51.2832H108.801V50.2637H109.697C110.053 50.2637 110.369 50.1738 110.646 49.9941C110.861 49.8535 111.057 49.6562 111.232 49.4023C111.471 49.0586 111.764 48.7598 112.111 48.5059C112.424 48.2793 112.711 48.1348 112.973 48.0723C113.242 48.4824 113.457 48.8516 113.617 49.1797C113.832 49.625 113.939 49.9863 113.939 50.2637V51.2832ZM113.266 50.1289C113.215 49.9023 113.137 49.6797 113.031 49.4609C112.941 49.2773 112.822 49.0879 112.674 48.8926C112.486 48.9395 112.328 49.0273 112.199 49.1562C112.113 49.2383 112.012 49.377 111.895 49.5723C112.035 49.7246 112.232 49.8613 112.486 49.9824C112.744 50.1035 112.986 50.1777 113.213 50.2051L113.266 50.1289ZM117.631 50.5625L118.656 50.4219C118.684 51.0781 118.807 51.5273 119.025 51.7695C119.244 52.0117 119.547 52.1328 119.934 52.1328C120.219 52.1328 120.465 52.0684 120.672 51.9395C120.879 51.8066 121.021 51.6289 121.1 51.4062C121.178 51.1797 121.217 50.8203 121.217 50.3281V44.4102H122.354V50.2637C122.354 50.9824 122.266 51.5391 122.09 51.9336C121.918 52.3281 121.643 52.6289 121.264 52.8359C120.889 53.043 120.447 53.1465 119.939 53.1465C119.186 53.1465 118.607 52.9297 118.205 52.4961C117.807 52.0625 117.615 51.418 117.631 50.5625ZM128.154 53V52.0859C127.67 52.7891 127.012 53.1406 126.18 53.1406C125.812 53.1406 125.469 53.0703 125.148 52.9297C124.832 52.7891 124.596 52.6133 124.439 52.4023C124.287 52.1875 124.18 51.9258 124.117 51.6172C124.074 51.4102 124.053 51.082 124.053 50.6328V46.7773H125.107V50.2285C125.107 50.7793 125.129 51.1504 125.172 51.3418C125.238 51.6191 125.379 51.8379 125.594 51.998C125.809 52.1543 126.074 52.2324 126.391 52.2324C126.707 52.2324 127.004 52.1523 127.281 51.9922C127.559 51.8281 127.754 51.6074 127.867 51.3301C127.984 51.0488 128.043 50.6426 128.043 50.1113V46.7773H129.098V53H128.154ZM130.334 51.1426L131.377 50.9785C131.436 51.3965 131.598 51.7168 131.863 51.9395C132.133 52.1621 132.508 52.2734 132.988 52.2734C133.473 52.2734 133.832 52.1758 134.066 51.9805C134.301 51.7812 134.418 51.5488 134.418 51.2832C134.418 51.0449 134.314 50.8574 134.107 50.7207C133.963 50.627 133.604 50.5078 133.029 50.3633C132.256 50.168 131.719 50 131.418 49.8594C131.121 49.7148 130.895 49.5176 130.738 49.2676C130.586 49.0137 130.51 48.7344 130.51 48.4297C130.51 48.1523 130.572 47.8965 130.697 47.6621C130.826 47.4238 131 47.2266 131.219 47.0703C131.383 46.9492 131.605 46.8477 131.887 46.7656C132.172 46.6797 132.477 46.6367 132.801 46.6367C133.289 46.6367 133.717 46.707 134.084 46.8477C134.455 46.9883 134.729 47.1797 134.904 47.4219C135.08 47.6602 135.201 47.9805 135.268 48.3828L134.236 48.5234C134.189 48.2031 134.053 47.9531 133.826 47.7734C133.604 47.5938 133.287 47.5039 132.877 47.5039C132.393 47.5039 132.047 47.584 131.84 47.7441C131.633 47.9043 131.529 48.0918 131.529 48.3066C131.529 48.4434 131.572 48.5664 131.658 48.6758C131.744 48.7891 131.879 48.8828 132.062 48.957C132.168 48.9961 132.479 49.0859 132.994 49.2266C133.74 49.4258 134.26 49.5898 134.553 49.7188C134.85 49.8438 135.082 50.0273 135.25 50.2695C135.418 50.5117 135.502 50.8125 135.502 51.1719C135.502 51.5234 135.398 51.8555 135.191 52.168C134.988 52.4766 134.693 52.7168 134.307 52.8887C133.92 53.0566 133.482 53.1406 132.994 53.1406C132.186 53.1406 131.568 52.9727 131.143 52.6367C130.721 52.3008 130.451 51.8027 130.334 51.1426ZM139.059 52.0566L139.211 52.9883C138.914 53.0508 138.648 53.082 138.414 53.082C138.031 53.082 137.734 53.0215 137.523 52.9004C137.312 52.7793 137.164 52.6211 137.078 52.4258C136.992 52.2266 136.949 51.8105 136.949 51.1777V47.5977H136.176V46.7773H136.949V45.2363L137.998 44.6035V46.7773H139.059V47.5977H137.998V51.2363C137.998 51.5371 138.016 51.7305 138.051 51.8164C138.09 51.9023 138.15 51.9707 138.232 52.0215C138.318 52.0723 138.439 52.0977 138.596 52.0977C138.713 52.0977 138.867 52.084 139.059 52.0566ZM140.348 53V47.5977H139.416V46.7773H140.348V46.1152C140.348 45.6973 140.385 45.3867 140.459 45.1836C140.561 44.9102 140.738 44.6895 140.992 44.5215C141.25 44.3496 141.609 44.2637 142.07 44.2637C142.367 44.2637 142.695 44.2988 143.055 44.3691L142.896 45.2891C142.678 45.25 142.471 45.2305 142.275 45.2305C141.955 45.2305 141.729 45.2988 141.596 45.4355C141.463 45.5723 141.396 45.8281 141.396 46.2031V46.7773H142.609V47.5977H141.396V53H140.348ZM143.043 49.8887C143.043 48.7363 143.363 47.8828 144.004 47.3281C144.539 46.8672 145.191 46.6367 145.961 46.6367C146.816 46.6367 147.516 46.918 148.059 47.4805C148.602 48.0391 148.873 48.8125 148.873 49.8008C148.873 50.6016 148.752 51.2324 148.51 51.6934C148.271 52.1504 147.922 52.5059 147.461 52.7598C147.004 53.0137 146.504 53.1406 145.961 53.1406C145.09 53.1406 144.385 52.8613 143.846 52.3027C143.311 51.7441 143.043 50.9395 143.043 49.8887ZM144.127 49.8887C144.127 50.6855 144.301 51.2832 144.648 51.6816C144.996 52.0762 145.434 52.2734 145.961 52.2734C146.484 52.2734 146.92 52.0742 147.268 51.6758C147.615 51.2773 147.789 50.6699 147.789 49.8535C147.789 49.084 147.613 48.502 147.262 48.1074C146.914 47.709 146.48 47.5098 145.961 47.5098C145.434 47.5098 144.996 47.707 144.648 48.1016C144.301 48.4961 144.127 49.0918 144.127 49.8887ZM150.104 53V46.7773H151.053V47.7207C151.295 47.2793 151.518 46.9883 151.721 46.8477C151.928 46.707 152.154 46.6367 152.4 46.6367C152.756 46.6367 153.117 46.75 153.484 46.9766L153.121 47.9551C152.863 47.8027 152.605 47.7266 152.348 47.7266C152.117 47.7266 151.91 47.7969 151.727 47.9375C151.543 48.0742 151.412 48.2656 151.334 48.5117C151.217 48.8867 151.158 49.2969 151.158 49.7422V53H150.104ZM158.371 50.9961L159.461 51.1309C159.289 51.7676 158.971 52.2617 158.506 52.6133C158.041 52.9648 157.447 53.1406 156.725 53.1406C155.814 53.1406 155.092 52.8613 154.557 52.3027C154.025 51.7402 153.76 50.9531 153.76 49.9414C153.76 48.8945 154.029 48.082 154.568 47.5039C155.107 46.9258 155.807 46.6367 156.666 46.6367C157.498 46.6367 158.178 46.9199 158.705 47.4863C159.232 48.0527 159.496 48.8496 159.496 49.877C159.496 49.9395 159.494 50.0332 159.49 50.1582H154.85C154.889 50.8418 155.082 51.3652 155.43 51.7285C155.777 52.0918 156.211 52.2734 156.73 52.2734C157.117 52.2734 157.447 52.1719 157.721 51.9688C157.994 51.7656 158.211 51.4414 158.371 50.9961ZM154.908 49.291H158.383C158.336 48.7676 158.203 48.375 157.984 48.1133C157.648 47.707 157.213 47.5039 156.678 47.5039C156.193 47.5039 155.785 47.666 155.453 47.9902C155.125 48.3145 154.943 48.748 154.908 49.291ZM160.088 53L162.361 49.7656L160.258 46.7773H161.576L162.531 48.2363C162.711 48.5137 162.855 48.7461 162.965 48.9336C163.137 48.6758 163.295 48.4473 163.439 48.248L164.488 46.7773H165.748L163.598 49.707L165.912 53H164.617L163.34 51.0664L163 50.5449L161.365 53H160.088Z"/>
  </symbol>
</svg>
