<svg width="177" height="86" viewBox="0 0 177 86" fill="none" xmlns="http://www.w3.org/2000/svg">
<symbol id="svg-copy-hi-1" viewBox="0 0 166 13">
<path d="M0.568 3.96H5.608V5.4H4.18C3.088 5.4 1.984 5.832 1.984 7.128C1.984 8.328 2.968 8.82 4.012 8.844H4.648C5.5 8.844 6.34 9.132 6.34 10.152C6.34 10.824 5.86 11.4 4.876 11.4C3.76 11.4 3.124 10.74 3.04 9.852H2.14V12.924H3.088V11.052C3.256 11.412 3.844 12.168 5.14 12.168C6.556 12.168 7.3 11.28 7.3 10.176C7.3 8.604 6.052 8.124 4.828 8.124H4.3C3.592 8.124 2.992 7.86 2.992 7.14C2.992 6.312 3.784 6.132 4.456 6.132H6.58V3.96H8.404V3.12H0.568V3.96ZM13.1089 5.052V3.96H15.5329V6.984H12.3769C12.8329 6.564 13.1089 5.904 13.1089 5.052ZM7.63694 3.96H12.1249V5.052C12.1249 6.276 11.4409 7.068 10.0609 7.068H8.95694V9.516C8.95694 11.004 9.74894 12.108 11.3449 12.108C12.7969 12.108 13.6849 11.184 13.6849 9.744C13.6849 9.708 13.6849 9.636 13.6729 9.552H12.7129V9.696C12.7129 10.62 12.1969 11.244 11.3329 11.244C10.3729 11.244 9.94094 10.536 9.94094 9.564V7.812H15.5329V12H16.5169V3.96H18.1129V3.12H7.63694V3.96ZM24.8202 10.044C23.6682 10.044 22.8162 9.288 22.8162 8.04C22.8162 6.816 23.7042 6.06 24.8202 6.06C26.2242 6.06 26.8482 7.104 26.8482 8.052V8.064C26.8482 8.964 26.2242 10.044 24.8202 10.044ZM29.4042 3.96V3.12H20.6682V3.96H26.8482V6.504C26.4642 5.772 25.6962 5.244 24.5682 5.244C22.9722 5.244 21.8322 6.36 21.8322 8.004C21.8322 9.732 22.9482 10.848 24.5682 10.848C25.6842 10.848 26.4522 10.32 26.8482 9.588V12H27.8202V3.96H29.4042ZM26.8581 3.168H27.8061C26.2221 0.443999 25.6101 0.227999 24.0261 0.227999H23.5341V1.044H24.0381C25.2141 1.044 25.6221 1.212 26.8581 3.168ZM35.1261 12H36.0861V3.96H37.6581V3.12H28.7541V3.96H35.1261V6.444C34.7301 5.748 33.9501 5.172 32.7981 5.172C31.1781 5.172 29.9181 6.3 29.9181 8.04C29.9181 9.792 31.2141 10.908 32.8341 10.908C33.9741 10.908 34.7541 10.356 35.1261 9.648V12ZM32.9901 5.856C34.4541 5.856 35.1621 6.972 35.1621 8.016C35.1621 8.436 35.0421 8.892 34.7901 9.264L31.5141 6.384C31.8981 6.048 32.4261 5.856 32.9901 5.856ZM33.0141 10.164C31.8141 10.164 30.8061 9.384 30.8061 8.04C30.8061 7.536 30.9501 7.092 31.1901 6.744L34.4901 9.624C34.1421 9.948 33.6501 10.164 33.0141 10.164ZM42.4996 5.052V3.96H44.9236V6.984H41.7676C42.2236 6.564 42.4996 5.904 42.4996 5.052ZM37.0276 3.96H41.5156V5.052C41.5156 6.276 40.8316 7.068 39.4516 7.068H38.3476V9.516C38.3476 11.004 39.1396 12.108 40.7356 12.108C42.1876 12.108 43.0756 11.184 43.0756 9.744C43.0756 9.708 43.0756 9.636 43.0636 9.552H42.1036V9.696C42.1036 10.62 41.5876 11.244 40.7236 11.244C39.7636 11.244 39.3316 10.536 39.3316 9.564V7.812H44.9236V12H45.9076V3.96H47.5036V3.12H37.0276V3.96ZM48.4436 12H49.4516V3.96H51.0236V3.12H46.8596V3.96H48.4436V12ZM50.2789 3.96H55.3189V5.4H53.8909C52.7989 5.4 51.6949 5.832 51.6949 7.128C51.6949 8.328 52.6789 8.82 53.7229 8.844H54.3589C55.2109 8.844 56.0509 9.132 56.0509 10.152C56.0509 10.824 55.5709 11.4 54.5869 11.4C53.4709 11.4 52.8349 10.74 52.7509 9.852H51.8509V12.924H52.7989V11.052C52.9669 11.412 53.5549 12.168 54.8509 12.168C56.2669 12.168 57.0109 11.28 57.0109 10.176C57.0109 8.604 55.7629 8.124 54.5389 8.124H54.0109C53.3029 8.124 52.7029 7.86 52.7029 7.14C52.7029 6.312 53.4949 6.132 54.1669 6.132H56.2909V3.96H58.1149V3.12H50.2789V3.96ZM57.3479 3.96H62.2559V5.352H61.9799C59.9399 5.352 58.5119 6.444 58.5119 8.472C58.5119 10.26 59.8679 11.484 61.7519 11.484C63.6599 11.484 64.9319 10.224 64.9319 8.364H63.9719C63.9719 9.684 63.0719 10.62 61.7279 10.62C60.4319 10.62 59.5079 9.72 59.5079 8.46C59.5079 6.936 60.6239 6.204 62.0279 6.204H63.2399V3.96H65.7959V3.12H57.3479V3.96ZM72.5038 8.784C71.2558 8.784 70.6918 7.956 70.6918 6.66V3.96H74.2798V6.924C74.2798 7.932 73.6438 8.784 72.5038 8.784ZM68.3518 3.96H69.6958V6.66C69.6958 8.436 70.5478 9.636 72.2638 9.636C73.2118 9.636 73.8958 9.24 74.2798 8.604V12H75.2758V3.96H76.8478V3.12H68.3518V3.96ZM76.2151 3.96H80.8471V5.112C80.8471 6.444 80.1631 7.116 78.7951 7.116H77.5351V9.516C77.5351 11.016 78.3151 12.108 79.9111 12.108C81.3511 12.108 82.2151 11.148 82.2151 9.672V9.468H81.2551V9.696C81.2551 10.62 80.7391 11.244 79.8871 11.244C78.9511 11.244 78.5191 10.548 78.5191 9.576V7.932H79.1311C80.9911 7.932 81.8431 6.888 81.8431 5.112V3.96H83.2831V3.12H76.2151V3.96ZM89.9882 8.784C88.7402 8.784 88.1762 7.956 88.1762 6.66V3.96H91.7642V6.924C91.7642 7.932 91.1282 8.784 89.9882 8.784ZM85.8362 3.96H87.1802V6.66C87.1802 8.436 88.0322 9.636 89.7482 9.636C90.6962 9.636 91.3802 9.24 91.7642 8.604V12H92.7602V3.96H94.3322V3.12H85.8362V3.96ZM95.2834 12H96.2914V3.96H97.8634V3.12H93.6994V3.96H95.2834V12ZM101.751 9.816C100.239 9.816 99.3628 8.868 99.3628 7.368C99.3628 7.344 99.3628 7.308 99.3628 7.284C100.875 7.224 101.727 6.504 101.727 4.956V3.96H104.139V7.56C104.139 8.904 103.095 9.816 101.751 9.816ZM97.2268 3.96H100.731V4.788C100.731 6.228 99.9388 6.708 98.5828 6.708H98.4148C98.3908 6.9 98.3788 7.104 98.3788 7.272C98.3788 9.324 99.5068 10.656 101.547 10.656C102.843 10.656 103.707 10.092 104.139 9.372V12H105.135V3.96H106.719V3.12H97.2268V3.96ZM104.13 3.36H105.114V2.616C105.114 1.776 105.378 0.887999 106.41 0.887999C107.43 0.887999 107.682 1.776 107.682 2.616V3.12H106.074V3.96H107.658V12H108.666V3.96H110.238V3.12H108.666V2.664C108.666 1.2 108.114 0.0479994 106.41 0.0479994C104.742 0.0479994 104.13 1.2 104.13 2.664V3.36ZM112.801 3.96H120.949V6.012H117.697V7.992C117.697 8.916 117.181 9.552 116.341 9.552C115.525 9.552 115.033 8.916 115.033 7.992V6.012H114.025V8.016C114.025 9.432 114.853 10.428 116.329 10.428C117.781 10.428 118.669 9.432 118.669 8.016V6.876H120.949V12H121.945V3.96H123.529V3.12H112.801V3.96ZM124.463 12H125.471V3.96H127.043V3.12H122.879V3.96H124.463V12ZM129.934 9.744C129.022 9.744 128.398 9.144 128.398 8.28C128.398 7.404 129.034 6.792 129.934 6.792C130.81 6.792 131.446 7.416 131.446 8.268C131.446 9.132 130.81 9.744 129.934 9.744ZM126.406 3.96H133.942V5.952H130.006C128.578 5.952 127.486 6.804 127.486 8.28C127.486 9.696 128.542 10.596 129.922 10.596C131.242 10.596 132.25 9.768 132.25 8.388C132.25 7.692 131.974 7.152 131.602 6.792H133.942V12H134.938V3.96H136.522V3.12H126.406V3.96ZM133.979 3.168H134.927C133.343 0.443999 132.731 0.227999 131.147 0.227999H130.655V1.044H131.159C132.335 1.044 132.743 1.212 133.979 3.168ZM143.226 10.044C142.074 10.044 141.222 9.288 141.222 8.04C141.222 6.816 142.11 6.06 143.226 6.06C144.63 6.06 145.254 7.104 145.254 8.052V8.064C145.254 8.964 144.63 10.044 143.226 10.044ZM147.81 3.96V3.12H139.074V3.96H145.254V6.504C144.87 5.772 144.102 5.244 142.974 5.244C141.378 5.244 140.238 6.36 140.238 8.004C140.238 9.732 141.354 10.848 142.974 10.848C144.09 10.848 144.858 10.32 145.254 9.588V12H146.226V3.96H147.81ZM148.744 12H149.752V3.96H151.324V3.12H147.16V3.96H148.744V12ZM158.164 11.172C160.048 11.172 161.02 9.912 161.02 8.232C161.02 6.792 160.312 5.82 159.22 5.556V3.96H162.172V3.12H150.688V3.96H158.236V5.508C157.156 5.652 156.652 6.456 156.46 7.224H156.424C156.208 6.384 155.62 5.484 154.348 5.484C152.884 5.484 151.852 6.516 151.852 8.232C151.852 9.912 152.824 11.172 154.708 11.172C154.828 11.172 154.96 11.16 155.116 11.148V10.272C154.996 10.284 154.864 10.296 154.768 10.296C153.532 10.296 152.86 9.444 152.86 8.256C152.86 7.176 153.412 6.372 154.48 6.372C155.512 6.372 156.004 7.296 156.004 8.568V8.748H156.856V8.568C156.856 7.272 157.372 6.372 158.452 6.372C159.496 6.372 160.012 7.2 160.012 8.256C160.012 9.444 159.34 10.296 158.104 10.296C158.008 10.296 157.888 10.284 157.756 10.272V11.148C157.912 11.16 158.044 11.172 158.164 11.172ZM159.595 3.36H160.579V2.616C160.579 1.776 160.843 0.887999 161.875 0.887999C162.895 0.887999 163.147 1.776 163.147 2.616V3.12H161.539V3.96H163.123V12H164.131V3.96H165.703V3.12H164.131V2.664C164.131 1.2 163.579 0.0479994 161.875 0.0479994C160.207 0.0479994 159.595 1.2 159.595 2.664V3.36Z"/>
</symbol>
  <symbol id="svg-copy-hi-2" viewBox="0 14 147 12">
<path d="M3.268 17.96H4.84V17.12H3.256C3.256 15.332 4.768 14.852 6.676 14.852C8.584 14.852 10.156 15.452 10.156 17.204V17.372H11.14V17.18C11.14 15.056 9.328 14.024 6.676 14.024C4.048 14.024 2.296 14.9 2.26 17.12H0.676V17.96H2.26V26H3.268V17.96ZM10.0833 26H11.0433V22.136C11.0433 21.188 11.5593 20.156 12.8433 20.156C13.8273 20.156 14.6073 20.888 14.6073 22.04C14.6073 23.252 13.8513 23.948 12.8793 23.948C12.7113 23.948 12.5193 23.936 12.3753 23.9V24.692C12.5913 24.752 12.8433 24.776 13.1193 24.776C14.5473 24.776 15.6273 23.768 15.6273 22.016C15.6273 20.408 14.5833 19.292 13.1193 19.292C12.0513 19.292 11.3793 19.844 11.0433 20.564V17.96H16.7793V17.12H4.20334V17.96H10.0833V20.516C9.73534 19.82 9.03934 19.292 7.95934 19.292C6.44734 19.292 5.36734 20.36 5.36734 22.04C5.36734 23.744 6.42334 24.824 7.92334 24.824C9.02734 24.824 9.73534 24.284 10.0833 23.576V26ZM8.23534 23.984C7.16734 23.984 6.37534 23.264 6.37534 22.04C6.37534 20.876 7.20334 20.156 8.23534 20.156C9.53134 20.156 10.0833 21.152 10.0833 22.064C10.0833 22.94 9.51934 23.984 8.23534 23.984ZM21.6168 19.052V17.96H24.0408V20.984H20.8848C21.3408 20.564 21.6168 19.904 21.6168 19.052ZM16.1447 17.96H20.6328V19.052C20.6328 20.276 19.9488 21.068 18.5688 21.068H17.4648V23.516C17.4648 25.004 18.2568 26.108 19.8528 26.108C21.3048 26.108 22.1928 25.184 22.1928 23.744C22.1928 23.708 22.1928 23.636 22.1808 23.552H21.2208V23.696C21.2208 24.62 20.7048 25.244 19.8408 25.244C18.8808 25.244 18.4488 24.536 18.4488 23.564V21.812H24.0408V26H25.0248V17.96H26.6208V17.12H16.1447V17.96ZM24.0328 17.36H25.0168V16.616C25.0168 15.776 25.2808 14.888 26.3128 14.888C27.3328 14.888 27.5848 15.776 27.5848 16.616V17.12H25.9768V17.96H27.5608V26H28.5688V17.96H30.1408V17.12H28.5688V16.664C28.5688 15.2 28.0168 14.048 26.3128 14.048C24.6448 14.048 24.0328 15.2 24.0328 16.664V17.36ZM36.1473 23.936C35.4153 23.936 34.8753 23.444 34.8753 22.664C34.8753 21.86 35.4513 21.38 36.2913 21.38H37.3953V22.352C37.3953 23.348 36.9393 23.936 36.1473 23.936ZM36.1593 24.788C37.5513 24.788 38.3313 23.9 38.3313 22.304V21.38H40.2993V26H41.2953V17.96H42.8913V17.12H40.2993V20.552H38.3313V19.58C38.3313 18.068 37.7553 17.012 36.2553 17.012C34.9473 17.012 34.1913 17.852 34.1913 19.1C34.1913 19.256 34.2153 19.436 34.2393 19.592H35.2353C35.1993 19.424 35.1873 19.268 35.1873 19.136C35.1873 18.344 35.6433 17.876 36.2913 17.876C37.0593 17.876 37.3953 18.488 37.3953 19.424V20.552H36.2673C34.9473 20.552 33.9393 21.296 33.9393 22.664C33.9393 23.936 34.8273 24.788 36.1593 24.788ZM40.2984 17.36H41.2824V16.616C41.2824 15.776 41.5464 14.888 42.5784 14.888C43.5984 14.888 43.8504 15.776 43.8504 16.616V17.12H42.2424V17.96H43.8264V26H44.8344V17.96H46.4064V17.12H44.8344V16.664C44.8344 15.2 44.2824 14.048 42.5784 14.048C40.9104 14.048 40.2984 15.2 40.2984 16.664V17.36ZM48.969 17.96H57.117V20.012H53.865V21.992C53.865 22.916 53.349 23.552 52.509 23.552C51.693 23.552 51.201 22.916 51.201 21.992V20.012H50.193V22.016C50.193 23.432 51.021 24.428 52.497 24.428C53.949 24.428 54.837 23.432 54.837 22.016V20.876H57.117V26H58.113V17.96H59.697V17.12H48.969V17.96ZM60.6311 26H61.6391V17.96H63.2111V17.12H59.0471V17.96H60.6311V26ZM66.1024 23.744C65.1904 23.744 64.5664 23.144 64.5664 22.28C64.5664 21.404 65.2024 20.792 66.1024 20.792C66.9784 20.792 67.6144 21.416 67.6144 22.268C67.6144 23.132 66.9784 23.744 66.1024 23.744ZM62.5744 17.96H70.1104V19.952H66.1744C64.7464 19.952 63.6544 20.804 63.6544 22.28C63.6544 23.696 64.7104 24.596 66.0904 24.596C67.4104 24.596 68.4184 23.768 68.4184 22.388C68.4184 21.692 68.1424 21.152 67.7704 20.792H70.1104V26H71.1064V17.96H72.6904V17.12H62.5744V17.96ZM77.9232 26H78.8832V22.136C78.8832 21.188 79.3992 20.156 80.6832 20.156C81.6672 20.156 82.4472 20.888 82.4472 22.04C82.4472 23.252 81.6912 23.948 80.7192 23.948C80.5512 23.948 80.3592 23.936 80.2152 23.9V24.692C80.4312 24.752 80.6832 24.776 80.9592 24.776C82.3872 24.776 83.4672 23.768 83.4672 22.016C83.4672 20.408 82.4232 19.292 80.9592 19.292C79.8912 19.292 79.2192 19.844 78.8832 20.564V17.96H84.6192V17.12H72.0432V17.96H77.9232V20.516C77.5752 19.82 76.8792 19.292 75.7992 19.292C74.2872 19.292 73.2072 20.36 73.2072 22.04C73.2072 23.744 74.2632 24.824 75.7632 24.824C76.8672 24.824 77.5752 24.284 77.9232 23.576V26ZM76.0752 23.984C75.0072 23.984 74.2152 23.264 74.2152 22.04C74.2152 20.876 75.0432 20.156 76.0752 20.156C77.3712 20.156 77.9232 21.152 77.9232 22.064C77.9232 22.94 77.3592 23.984 76.0752 23.984ZM85.5686 26H86.5766V17.96H88.1486V17.12H83.9846V17.96H85.5686V26ZM87.5119 17.96H92.1439V19.112C92.1439 20.444 91.4599 21.116 90.0919 21.116H88.8319V23.516C88.8319 25.016 89.6119 26.108 91.2079 26.108C92.6479 26.108 93.5119 25.148 93.5119 23.672V23.468H92.5519V23.696C92.5519 24.62 92.0359 25.244 91.1839 25.244C90.2479 25.244 89.8159 24.548 89.8159 23.576V21.932H90.4279C92.2879 21.932 93.1399 20.888 93.1399 19.112V17.96H94.5799V17.12H87.5119V17.96ZM91.9898 17.36H92.9738V16.616C92.9738 15.776 93.2378 14.888 94.2698 14.888C95.2898 14.888 95.5418 15.776 95.5418 16.616V17.12H93.9338V17.96H95.5178V26H96.5258V17.96H98.0978V17.12H96.5258V16.664C96.5258 15.2 95.9738 14.048 94.2698 14.048C92.6018 14.048 91.9898 15.2 91.9898 16.664V17.36ZM106.54 26H107.5V22.136C107.5 21.188 108.016 20.156 109.3 20.156C110.284 20.156 111.064 20.888 111.064 22.04C111.064 23.252 110.308 23.948 109.336 23.948C109.168 23.948 108.976 23.936 108.832 23.9V24.692C109.048 24.752 109.3 24.776 109.576 24.776C111.004 24.776 112.084 23.768 112.084 22.016C112.084 20.408 111.04 19.292 109.576 19.292C108.508 19.292 107.836 19.844 107.5 20.564V17.96H113.236V17.12H100.66V17.96H106.54V20.516C106.192 19.82 105.496 19.292 104.416 19.292C102.904 19.292 101.824 20.36 101.824 22.04C101.824 23.744 102.88 24.824 104.38 24.824C105.484 24.824 106.192 24.284 106.54 23.576V26ZM104.692 23.984C103.624 23.984 102.832 23.264 102.832 22.04C102.832 20.876 103.66 20.156 104.692 20.156C105.988 20.156 106.54 21.152 106.54 22.064C106.54 22.94 105.976 23.984 104.692 23.984ZM106.554 17.36H107.514V17.012C107.514 15.872 108.054 14.732 110.874 14.732C113.706 14.732 114.21 15.872 114.21 17.012V17.12H112.602V17.96H114.186V26H115.194V17.96H116.766V17.12H115.194V16.952C115.194 15.248 114.222 13.892 110.874 13.892C107.586 13.892 106.554 15.248 106.554 16.952V17.36ZM125.208 26H126.168V22.136C126.168 21.188 126.684 20.156 127.968 20.156C128.952 20.156 129.732 20.888 129.732 22.04C129.732 23.252 128.976 23.948 128.004 23.948C127.836 23.948 127.644 23.936 127.5 23.9V24.692C127.716 24.752 127.968 24.776 128.244 24.776C129.672 24.776 130.752 23.768 130.752 22.016C130.752 20.408 129.708 19.292 128.244 19.292C127.176 19.292 126.504 19.844 126.168 20.564V17.96H131.904V17.12H119.328V17.96H125.208V20.516C124.86 19.82 124.164 19.292 123.084 19.292C121.572 19.292 120.492 20.36 120.492 22.04C120.492 23.744 121.548 24.824 123.048 24.824C124.152 24.824 124.86 24.284 125.208 23.576V26ZM123.36 23.984C122.292 23.984 121.5 23.264 121.5 22.04C121.5 20.876 122.328 20.156 123.36 20.156C124.656 20.156 125.208 21.152 125.208 22.064C125.208 22.94 124.644 23.984 123.36 23.984ZM132.854 26H133.862V17.96H135.434V17.12H131.27V17.96H132.854V26ZM133.358 16.184C135.05 16.184 135.794 15.164 135.794 14.072H134.93C134.93 14.732 134.462 15.416 133.358 15.416C132.254 15.416 131.786 14.732 131.786 14.072H130.91C130.91 15.164 131.654 16.184 133.358 16.184ZM138.949 22.784C137.701 22.784 137.137 21.956 137.137 20.66V17.96H140.725V20.924C140.725 21.932 140.089 22.784 138.949 22.784ZM134.797 17.96H136.141V20.66C136.141 22.436 136.993 23.636 138.709 23.636C139.657 23.636 140.341 23.24 140.725 22.604V26H141.721V17.96H143.293V17.12H134.797V17.96ZM140.716 17.36H141.7V16.616C141.7 15.776 141.964 14.888 142.996 14.888C144.016 14.888 144.268 15.776 144.268 16.616V17.12H142.66V17.96H144.244V26H145.252V17.96H146.824V17.12H145.252V16.664C145.252 15.2 144.7 14.048 142.996 14.048C141.328 14.048 140.716 15.2 140.716 16.664V17.36Z"/>
  </symbol>
  <symbol id="svg-copy-hi-3" viewBox="0 28 177 13">
<path d="M6.556 40H7.516V36.136C7.516 35.188 8.032 34.156 9.316 34.156C10.3 34.156 11.08 34.888 11.08 36.04C11.08 37.252 10.324 37.948 9.352 37.948C9.184 37.948 8.992 37.936 8.848 37.9V38.692C9.064 38.752 9.316 38.776 9.592 38.776C11.02 38.776 12.1 37.768 12.1 36.016C12.1 34.408 11.056 33.292 9.592 33.292C8.524 33.292 7.852 33.844 7.516 34.564V31.96H13.252V31.12H0.676V31.96H6.556V34.516C6.208 33.82 5.512 33.292 4.432 33.292C2.92 33.292 1.84 34.36 1.84 36.04C1.84 37.744 2.896 38.824 4.396 38.824C5.5 38.824 6.208 38.284 6.556 37.576V40ZM4.708 37.984C3.64 37.984 2.848 37.264 2.848 36.04C2.848 34.876 3.676 34.156 4.708 34.156C6.004 34.156 6.556 35.152 6.556 36.064C6.556 36.94 5.992 37.984 4.708 37.984ZM12.6174 31.96H17.2494V33.112C17.2494 34.444 16.5654 35.116 15.1974 35.116H13.9374V37.516C13.9374 39.016 14.7174 40.108 16.3134 40.108C17.7534 40.108 18.6174 39.148 18.6174 37.672V37.468H17.6574V37.696C17.6574 38.62 17.1414 39.244 16.2894 39.244C15.3534 39.244 14.9214 38.548 14.9214 37.576V35.932H15.5334C17.3934 35.932 18.2454 34.888 18.2454 33.112V31.96H19.6854V31.12H12.6174V31.96ZM22.5673 37.744C21.6553 37.744 21.0313 37.144 21.0313 36.28C21.0313 35.404 21.6673 34.792 22.5673 34.792C23.4433 34.792 24.0793 35.416 24.0793 36.268C24.0793 37.132 23.4433 37.744 22.5673 37.744ZM19.0393 31.96H26.5753V33.952H22.6393C21.2113 33.952 20.1193 34.804 20.1193 36.28C20.1193 37.696 21.1753 38.596 22.5553 38.596C23.8753 38.596 24.8833 37.768 24.8833 36.388C24.8833 35.692 24.6073 35.152 24.2353 34.792H26.5753V40H27.5713V31.96H29.1553V31.12H19.0393V31.96ZM26.612 31.168H27.56C25.976 28.444 25.364 28.228 23.78 28.228H23.288V29.044H23.792C24.968 29.044 25.376 29.212 26.612 31.168ZM36.2313 37.816C34.7193 37.816 33.8433 36.868 33.8433 35.368C33.8433 35.344 33.8433 35.308 33.8433 35.284C35.3553 35.224 36.2073 34.504 36.2073 32.956V31.96H38.6193V35.56C38.6193 36.904 37.5753 37.816 36.2313 37.816ZM31.7072 31.96H35.2113V32.788C35.2113 34.228 34.4193 34.708 33.0633 34.708H32.8953C32.8713 34.9 32.8593 35.104 32.8593 35.272C32.8593 37.324 33.9873 38.656 36.0273 38.656C37.3233 38.656 38.1873 38.092 38.6193 37.372V40H39.6153V31.96H41.1993V31.12H31.7072V31.96ZM42.1389 40H43.1469V31.96H44.7189V31.12H40.5549V31.96H42.1389V40ZM47.9512 37.5625L48.9766 37.4219C49.0039 38.0781 49.127 38.5273 49.3457 38.7695C49.5645 39.0117 49.8672 39.1328 50.2539 39.1328C50.5391 39.1328 50.7852 39.0684 50.9922 38.9395C51.1992 38.8066 51.3418 38.6289 51.4199 38.4062C51.498 38.1797 51.5371 37.8203 51.5371 37.3281V31.4102H52.6738V37.2637C52.6738 37.9824 52.5859 38.5391 52.4102 38.9336C52.2383 39.3281 51.9629 39.6289 51.584 39.8359C51.209 40.043 50.7676 40.1465 50.2598 40.1465C49.5059 40.1465 48.9277 39.9297 48.5254 39.4961C48.127 39.0625 47.9355 38.418 47.9512 37.5625ZM58.4746 40V39.0859C57.9902 39.7891 57.332 40.1406 56.5 40.1406C56.1328 40.1406 55.7891 40.0703 55.4688 39.9297C55.1523 39.7891 54.916 39.6133 54.7598 39.4023C54.6074 39.1875 54.5 38.9258 54.4375 38.6172C54.3945 38.4102 54.373 38.082 54.373 37.6328V33.7773H55.4277V37.2285C55.4277 37.7793 55.4492 38.1504 55.4922 38.3418C55.5586 38.6191 55.6992 38.8379 55.9141 38.998C56.1289 39.1543 56.3945 39.2324 56.7109 39.2324C57.0273 39.2324 57.3242 39.1523 57.6016 38.9922C57.8789 38.8281 58.0742 38.6074 58.1875 38.3301C58.3047 38.0488 58.3633 37.6426 58.3633 37.1113V33.7773H59.418V40H58.4746ZM60.6543 38.1426L61.6973 37.9785C61.7559 38.3965 61.918 38.7168 62.1836 38.9395C62.4531 39.1621 62.8281 39.2734 63.3086 39.2734C63.793 39.2734 64.1523 39.1758 64.3867 38.9805C64.6211 38.7812 64.7383 38.5488 64.7383 38.2832C64.7383 38.0449 64.6348 37.8574 64.4277 37.7207C64.2832 37.627 63.9238 37.5078 63.3496 37.3633C62.5762 37.168 62.0391 37 61.7383 36.8594C61.4414 36.7148 61.2148 36.5176 61.0586 36.2676C60.9062 36.0137 60.8301 35.7344 60.8301 35.4297C60.8301 35.1523 60.8926 34.8965 61.0176 34.6621C61.1465 34.4238 61.3203 34.2266 61.5391 34.0703C61.7031 33.9492 61.9258 33.8477 62.207 33.7656C62.4922 33.6797 62.7969 33.6367 63.1211 33.6367C63.6094 33.6367 64.0371 33.707 64.4043 33.8477C64.7754 33.9883 65.0488 34.1797 65.2246 34.4219C65.4004 34.6602 65.5215 34.9805 65.5879 35.3828L64.5566 35.5234C64.5098 35.2031 64.373 34.9531 64.1465 34.7734C63.9238 34.5938 63.6074 34.5039 63.1973 34.5039C62.7129 34.5039 62.3672 34.584 62.1602 34.7441C61.9531 34.9043 61.8496 35.0918 61.8496 35.3066C61.8496 35.4434 61.8926 35.5664 61.9785 35.6758C62.0645 35.7891 62.1992 35.8828 62.3828 35.957C62.4883 35.9961 62.7988 36.0859 63.3145 36.2266C64.0605 36.4258 64.5801 36.5898 64.873 36.7188C65.1699 36.8438 65.4023 37.0273 65.5703 37.2695C65.7383 37.5117 65.8223 37.8125 65.8223 38.1719C65.8223 38.5234 65.7188 38.8555 65.5117 39.168C65.3086 39.4766 65.0137 39.7168 64.627 39.8887C64.2402 40.0566 63.8027 40.1406 63.3145 40.1406C62.5059 40.1406 61.8887 39.9727 61.4629 39.6367C61.041 39.3008 60.7715 38.8027 60.6543 38.1426ZM69.3789 39.0566L69.5312 39.9883C69.2344 40.0508 68.9688 40.082 68.7344 40.082C68.3516 40.082 68.0547 40.0215 67.8438 39.9004C67.6328 39.7793 67.4844 39.6211 67.3984 39.4258C67.3125 39.2266 67.2695 38.8105 67.2695 38.1777V34.5977H66.4961V33.7773H67.2695V32.2363L68.3184 31.6035V33.7773H69.3789V34.5977H68.3184V38.2363C68.3184 38.5371 68.3359 38.7305 68.3711 38.8164C68.4102 38.9023 68.4707 38.9707 68.5527 39.0215C68.6387 39.0723 68.7598 39.0977 68.916 39.0977C69.0332 39.0977 69.1875 39.084 69.3789 39.0566ZM70.668 40V34.5977H69.7363V33.7773H70.668V33.1152C70.668 32.6973 70.7051 32.3867 70.7793 32.1836C70.8809 31.9102 71.0586 31.6895 71.3125 31.5215C71.5703 31.3496 71.9297 31.2637 72.3906 31.2637C72.6875 31.2637 73.0156 31.2988 73.375 31.3691L73.2168 32.2891C72.998 32.25 72.791 32.2305 72.5957 32.2305C72.2754 32.2305 72.0488 32.2988 71.916 32.4355C71.7832 32.5723 71.7168 32.8281 71.7168 33.2031V33.7773H72.9297V34.5977H71.7168V40H70.668ZM73.3633 36.8887C73.3633 35.7363 73.6836 34.8828 74.3242 34.3281C74.8594 33.8672 75.5117 33.6367 76.2812 33.6367C77.1367 33.6367 77.8359 33.918 78.3789 34.4805C78.9219 35.0391 79.1934 35.8125 79.1934 36.8008C79.1934 37.6016 79.0723 38.2324 78.8301 38.6934C78.5918 39.1504 78.2422 39.5059 77.7812 39.7598C77.3242 40.0137 76.8242 40.1406 76.2812 40.1406C75.4102 40.1406 74.7051 39.8613 74.166 39.3027C73.6309 38.7441 73.3633 37.9395 73.3633 36.8887ZM74.4473 36.8887C74.4473 37.6855 74.6211 38.2832 74.9688 38.6816C75.3164 39.0762 75.7539 39.2734 76.2812 39.2734C76.8047 39.2734 77.2402 39.0742 77.5879 38.6758C77.9355 38.2773 78.1094 37.6699 78.1094 36.8535C78.1094 36.084 77.9336 35.502 77.582 35.1074C77.2344 34.709 76.8008 34.5098 76.2812 34.5098C75.7539 34.5098 75.3164 34.707 74.9688 35.1016C74.6211 35.4961 74.4473 36.0918 74.4473 36.8887ZM80.4238 40V33.7773H81.373V34.7207C81.6152 34.2793 81.8379 33.9883 82.041 33.8477C82.248 33.707 82.4746 33.6367 82.7207 33.6367C83.0762 33.6367 83.4375 33.75 83.8047 33.9766L83.4414 34.9551C83.1836 34.8027 82.9258 34.7266 82.668 34.7266C82.4375 34.7266 82.2305 34.7969 82.0469 34.9375C81.8633 35.0742 81.7324 35.2656 81.6543 35.5117C81.5371 35.8867 81.4785 36.2969 81.4785 36.7422V40H80.4238ZM88.6914 37.9961L89.7812 38.1309C89.6094 38.7676 89.291 39.2617 88.8262 39.6133C88.3613 39.9648 87.7676 40.1406 87.0449 40.1406C86.1348 40.1406 85.4121 39.8613 84.877 39.3027C84.3457 38.7402 84.0801 37.9531 84.0801 36.9414C84.0801 35.8945 84.3496 35.082 84.8887 34.5039C85.4277 33.9258 86.127 33.6367 86.9863 33.6367C87.8184 33.6367 88.498 33.9199 89.0254 34.4863C89.5527 35.0527 89.8164 35.8496 89.8164 36.877C89.8164 36.9395 89.8145 37.0332 89.8105 37.1582H85.1699C85.209 37.8418 85.4023 38.3652 85.75 38.7285C86.0977 39.0918 86.5312 39.2734 87.0508 39.2734C87.4375 39.2734 87.7676 39.1719 88.041 38.9688C88.3145 38.7656 88.5312 38.4414 88.6914 37.9961ZM85.2285 36.291H88.7031C88.6562 35.7676 88.5234 35.375 88.3047 35.1133C87.9688 34.707 87.5332 34.5039 86.998 34.5039C86.5137 34.5039 86.1055 34.666 85.7734 34.9902C85.4453 35.3145 85.2637 35.748 85.2285 36.291ZM90.4082 40L92.6816 36.7656L90.5781 33.7773H91.8965L92.8516 35.2363C93.0312 35.5137 93.1758 35.7461 93.2852 35.9336C93.457 35.6758 93.6152 35.4473 93.7598 35.248L94.8086 33.7773H96.0684L93.918 36.707L96.2324 40H94.9375L93.6602 38.0664L93.3203 37.5449L91.6855 40H90.4082ZM105.172 38.176C105.328 38.008 105.46 37.84 105.568 37.672V40H106.528V31.96H108.1V31.12H99.1955V31.96H105.568V34.444C105.172 33.748 104.392 33.172 103.24 33.172C101.62 33.172 100.36 34.3 100.36 36.04C100.36 37.768 101.656 38.86 103.276 38.86C103.348 38.86 103.42 38.86 103.48 38.848L101.584 40.648H102.676L105.172 38.176ZM103.432 33.856C104.896 33.856 105.604 34.972 105.604 36.016C105.604 36.436 105.484 36.892 105.232 37.264L101.956 34.384C102.34 34.048 102.868 33.856 103.432 33.856ZM103.456 38.164C102.256 38.164 101.248 37.384 101.248 36.04C101.248 35.536 101.392 35.092 101.632 34.744L104.932 37.624C104.584 37.948 104.092 38.164 103.456 38.164ZM109.041 40H110.049V31.96H111.621V31.12H107.457V31.96H109.041V40ZM109.545 29.98C109.917 29.98 110.217 29.68 110.217 29.308C110.217 28.936 109.917 28.636 109.545 28.636C109.161 28.636 108.861 28.936 108.861 29.308C108.861 29.68 109.161 29.98 109.545 29.98ZM110.985 31.96H115.881V33.412H114.513C113.421 33.412 112.341 33.844 112.341 35.104C112.341 36.46 113.493 36.844 114.501 36.844H114.993C115.845 36.844 116.673 37.144 116.673 38.14C116.673 38.86 116.145 39.4 115.065 39.4C113.817 39.4 113.157 38.74 113.145 37.852H112.161C112.185 39.244 113.289 40.168 115.089 40.168C116.757 40.168 117.621 39.328 117.621 38.152C117.621 36.616 116.373 36.124 115.161 36.124H114.621C113.949 36.124 113.349 35.872 113.349 35.128C113.349 34.312 114.129 34.132 114.789 34.132H116.841V31.96H118.509V31.12H110.985V31.96ZM123.666 31.96H125.238V31.12H123.654C123.654 29.332 125.166 28.852 127.074 28.852C128.982 28.852 130.554 29.452 130.554 31.204V31.372H131.538V31.18C131.538 29.056 129.726 28.024 127.074 28.024C124.446 28.024 122.694 28.9 122.658 31.12H121.074V31.96H122.658V40H123.666V31.96ZM128.754 38.044C127.602 38.044 126.75 37.288 126.75 36.04C126.75 34.816 127.638 34.06 128.754 34.06C130.158 34.06 130.782 35.104 130.782 36.052V36.064C130.782 36.964 130.158 38.044 128.754 38.044ZM133.338 31.96V31.12H124.602V31.96H130.782V34.504C130.398 33.772 129.63 33.244 128.502 33.244C126.906 33.244 125.766 34.36 125.766 36.004C125.766 37.732 126.882 38.848 128.502 38.848C129.618 38.848 130.386 38.32 130.782 37.588V40H131.754V31.96H133.338ZM136.648 40.096C138.112 40.096 139.024 39.16 139.024 37.636V37.468H138.052V37.624C138.052 38.584 137.524 39.232 136.624 39.232C135.544 39.232 135.1 38.476 135.1 37.48V36.16H136.18C137.872 36.16 139.168 35.296 139.168 33.544C139.168 31.924 138.148 31.012 136.672 31.012C135.148 31.012 134.176 31.996 134.176 33.448C134.176 33.64 134.2 33.808 134.224 34H135.22C135.196 33.82 135.184 33.652 135.184 33.472C135.184 32.5 135.76 31.888 136.672 31.888C137.584 31.888 138.148 32.5 138.148 33.484C138.148 34.744 137.116 35.308 135.844 35.308H134.092V37.408C134.092 39.028 134.98 40.096 136.648 40.096ZM140.512 40H141.52V31.96H143.104V31.12H140.512V40ZM140.565 31.168H141.513C139.929 28.444 139.317 28.228 137.733 28.228H137.241V29.044H137.745C138.921 29.044 139.329 29.212 140.565 31.168ZM148.473 34.948L144.765 31.96H148.473V34.948ZM146.625 36.844C145.353 36.844 144.765 36.004 144.765 34.684V32.764L148.353 35.668C148.125 36.352 147.537 36.844 146.625 36.844ZM142.461 31.96H143.805V34.66C143.805 36.484 144.681 37.696 146.433 37.696C147.417 37.696 148.089 37.3 148.473 36.664V40H149.457V31.96H151.041V31.12H142.461V31.96ZM150.395 31.96H156.779V34.024H154.979C152.999 34.024 151.559 34.936 151.559 37.012C151.559 38.992 152.831 39.976 154.679 39.976H155.075V39.172H154.811C153.347 39.172 152.567 38.38 152.567 37.024C152.567 35.584 153.539 34.888 155.027 34.888H156.779V40H157.787V31.96H159.371V31.12H150.395V31.96ZM160.311 40H161.319V31.96H162.891V31.12H158.727V31.96H160.311V40ZM171.242 40V31.96H173.774V40H174.782V31.96H176.354V31.12H174.71C173.15 28.444 172.538 28.228 170.954 28.228H170.462V29.044H170.966C172.13 29.044 172.538 29.212 173.75 31.12H170.246V35.248H167.594C167.402 35.14 167.186 35.056 166.946 35.02V34.996C167.918 34.756 168.41 34.048 168.41 33.148C168.41 31.84 167.426 31.012 166.034 31.012C164.594 31.012 163.55 31.864 163.55 33.244H164.486C164.486 32.392 165.17 31.864 166.034 31.864C166.85 31.864 167.51 32.392 167.51 33.28C167.51 33.94 167.006 34.624 165.962 34.624H165.494V35.44H165.962C166.622 35.44 167.054 35.668 167.318 35.992L167.33 36.064H167.366C167.558 36.328 167.642 36.652 167.642 36.964C167.642 37.876 167.03 38.5 166.058 38.5C165.086 38.5 164.402 37.84 164.402 36.928H163.466C163.466 38.38 164.57 39.364 166.13 39.364C167.594 39.364 168.566 38.452 168.566 37.048C168.566 36.712 168.494 36.364 168.35 36.064L170.246 36.076V40H171.242ZM175.615 29.98C175.987 29.98 176.287 29.68 176.287 29.308C176.287 28.936 175.987 28.636 175.615 28.636C175.231 28.636 174.931 28.936 174.931 29.308C174.931 29.68 175.231 29.98 175.615 29.98Z"/>
  </symbol>
  <symbol id="svg-copy-hi-4" viewBox="0 42 128 12">
<path d="M6.556 54H7.516V50.136C7.516 49.188 8.032 48.156 9.316 48.156C10.3 48.156 11.08 48.888 11.08 50.04C11.08 51.252 10.324 51.948 9.352 51.948C9.184 51.948 8.992 51.936 8.848 51.9V52.692C9.064 52.752 9.316 52.776 9.592 52.776C11.02 52.776 12.1 51.768 12.1 50.016C12.1 48.408 11.056 47.292 9.592 47.292C8.524 47.292 7.852 47.844 7.516 48.564V45.96H13.252V45.12H0.676V45.96H6.556V48.516C6.208 47.82 5.512 47.292 4.432 47.292C2.92 47.292 1.84 48.36 1.84 50.04C1.84 51.744 2.896 52.824 4.396 52.824C5.5 52.824 6.208 52.284 6.556 51.576V54ZM4.708 51.984C3.64 51.984 2.848 51.264 2.848 50.04C2.848 48.876 3.676 48.156 4.708 48.156C6.004 48.156 6.556 49.152 6.556 50.064C6.556 50.94 5.992 51.984 4.708 51.984ZM14.2014 54H15.2094V45.96H16.7814V45.12H12.6174V45.96H14.2014V54ZM19.344 45.96H24.456V47.148C24.456 48 23.94 48.636 22.908 48.636H22.476V49.524H23.028C24.336 49.524 24.84 50.472 24.84 51.312C24.84 52.332 24.168 53.064 23.112 53.064C22.044 53.064 21.24 52.296 21.24 51.276H20.28C20.28 52.86 21.48 53.964 23.16 53.964C24.816 53.964 25.788 52.884 25.788 51.384C25.788 50.244 25.14 49.284 24.096 49.056V49.032C24.864 48.9 25.428 48.204 25.428 47.208V45.96H26.892V45.12H19.344V45.96ZM30.3983 50.784C29.1503 50.784 28.5863 49.956 28.5863 48.66V45.96H32.1743V48.924C32.1743 49.932 31.5383 50.784 30.3983 50.784ZM26.2463 45.96H27.5903V48.66C27.5903 50.436 28.4423 51.636 30.1583 51.636C31.1063 51.636 31.7903 51.24 32.1743 50.604V54H33.1703V45.96H34.7423V45.12H26.2463V45.96ZM38.6336 51.816C37.1216 51.816 36.2456 50.868 36.2456 49.368C36.2456 49.344 36.2456 49.308 36.2456 49.284C37.7576 49.224 38.6096 48.504 38.6096 46.956V45.96H41.0216V49.56C41.0216 50.904 39.9776 51.816 38.6336 51.816ZM34.1096 45.96H37.6136V46.788C37.6136 48.228 36.8216 48.708 35.4656 48.708H35.2976C35.2736 48.9 35.2616 49.104 35.2616 49.272C35.2616 51.324 36.3896 52.656 38.4296 52.656C39.7256 52.656 40.5896 52.092 41.0216 51.372V54H42.0176V45.96H43.6016V45.12H34.1096V45.96ZM45.5493 54V45.96H47.1213V45.12H45.5133C43.9533 42.444 43.3413 42.228 41.7572 42.228H41.2652V43.044H41.7692C42.9332 43.044 43.3413 43.212 44.5533 45.12H42.9572V45.96H44.5413V54H45.5493ZM53.4926 54H54.4886V45.96H56.0726V45.12H46.4846V45.96H50.3486V49.236C50.3486 49.824 50.1566 50.448 49.3526 50.448C48.6086 50.448 48.3686 49.848 48.3686 49.272V48.9H47.3846V49.26C47.3846 50.46 48.0446 51.312 49.3886 51.312C50.7926 51.312 51.3566 50.352 51.3566 49.2V45.96H53.4926V54ZM64.5169 54H65.4769V50.136C65.4769 49.188 65.9929 48.156 67.2769 48.156C68.2609 48.156 69.0409 48.888 69.0409 50.04C69.0409 51.252 68.2849 51.948 67.3129 51.948C67.1449 51.948 66.9529 51.936 66.8089 51.9V52.692C67.0249 52.752 67.2769 52.776 67.5529 52.776C68.9809 52.776 70.0609 51.768 70.0609 50.016C70.0609 48.408 69.0169 47.292 67.5529 47.292C66.4849 47.292 65.8129 47.844 65.4769 48.564V45.96H71.2129V45.12H58.6369V45.96H64.5169V48.516C64.1689 47.82 63.4729 47.292 62.3929 47.292C60.8809 47.292 59.8009 48.36 59.8009 50.04C59.8009 51.744 60.8569 52.824 62.3569 52.824C63.4609 52.824 64.1689 52.284 64.5169 51.576V54ZM62.6689 51.984C61.6009 51.984 60.8089 51.264 60.8089 50.04C60.8089 48.876 61.6369 48.156 62.6689 48.156C63.9649 48.156 64.5169 49.152 64.5169 50.064C64.5169 50.94 63.9529 51.984 62.6689 51.984ZM70.5783 45.96H75.2103V47.112C75.2103 48.444 74.5263 49.116 73.1583 49.116H71.8983V51.516C71.8983 53.016 72.6783 54.108 74.2743 54.108C75.7143 54.108 76.5783 53.148 76.5783 51.672V51.468H75.6183V51.696C75.6183 52.62 75.1023 53.244 74.2503 53.244C73.3143 53.244 72.8823 52.548 72.8823 51.576V49.932H73.4943C75.3543 49.932 76.2063 48.888 76.2063 47.112V45.96H77.6463V45.12H70.5783V45.96ZM80.5282 51.744C79.6162 51.744 78.9922 51.144 78.9922 50.28C78.9922 49.404 79.6282 48.792 80.5282 48.792C81.4042 48.792 82.0402 49.416 82.0402 50.268C82.0402 51.132 81.4042 51.744 80.5282 51.744ZM77.0002 45.96H84.5362V47.952H80.6002C79.1722 47.952 78.0802 48.804 78.0802 50.28C78.0802 51.696 79.1362 52.596 80.5162 52.596C81.8362 52.596 82.8442 51.768 82.8442 50.388C82.8442 49.692 82.5682 49.152 82.1962 48.792H84.5362V54H85.5322V45.96H87.1162V45.12H77.0002V45.96ZM84.573 45.168H85.521C83.937 42.444 83.325 42.228 81.741 42.228H81.249V43.044H81.753C82.929 43.044 83.337 43.212 84.573 45.168ZM95.5482 54H96.5082V50.136C96.5082 49.188 97.0242 48.156 98.3082 48.156C99.2922 48.156 100.072 48.888 100.072 50.04C100.072 51.252 99.3162 51.948 98.3442 51.948C98.1762 51.948 97.9842 51.936 97.8402 51.9V52.692C98.0562 52.752 98.3082 52.776 98.5842 52.776C100.012 52.776 101.092 51.768 101.092 50.016C101.092 48.408 100.048 47.292 98.5842 47.292C97.5162 47.292 96.8442 47.844 96.5082 48.564V45.96H102.244V45.12H89.6682V45.96H95.5482V48.516C95.2002 47.82 94.5042 47.292 93.4242 47.292C91.9122 47.292 90.8322 48.36 90.8322 50.04C90.8322 51.744 91.8882 52.824 93.3882 52.824C94.4922 52.824 95.2002 52.284 95.5482 51.576V54ZM93.7002 51.984C92.6322 51.984 91.8402 51.264 91.8402 50.04C91.8402 48.876 92.6682 48.156 93.7002 48.156C94.9962 48.156 95.5482 49.152 95.5482 50.064C95.5482 50.94 94.9842 51.984 93.7002 51.984ZM95.5652 45.168H96.5132C94.9292 42.444 94.3172 42.228 92.7332 42.228H92.2412V43.044H92.7452C93.9212 43.044 94.3292 43.212 95.5652 45.168ZM107.401 45.96H108.973V45.12H107.389C107.389 43.368 108.853 42.828 111.409 42.828C113.989 42.828 115.573 43.5 115.573 45.216V45.396H116.557V45.192C116.557 43.08 114.745 42 111.421 42C108.157 42 106.441 42.924 106.393 45.12H104.809V45.96H106.393V54H107.401V45.96ZM115.812 53.172C117.696 53.172 118.668 51.912 118.668 50.232C118.668 48.792 117.96 47.82 116.868 47.556V45.96H119.82V45.12H108.336V45.96H115.884V47.508C114.804 47.652 114.3 48.456 114.108 49.224H114.072C113.856 48.384 113.268 47.484 111.996 47.484C110.532 47.484 109.5 48.516 109.5 50.232C109.5 51.912 110.472 53.172 112.356 53.172C112.476 53.172 112.608 53.16 112.764 53.148V52.272C112.644 52.284 112.512 52.296 112.416 52.296C111.18 52.296 110.508 51.444 110.508 50.256C110.508 49.176 111.06 48.372 112.128 48.372C113.16 48.372 113.652 49.296 113.652 50.568V50.748H114.504V50.568C114.504 49.272 115.02 48.372 116.1 48.372C117.144 48.372 117.66 49.2 117.66 50.256C117.66 51.444 116.988 52.296 115.752 52.296C115.656 52.296 115.536 52.284 115.404 52.272V53.148C115.56 53.16 115.692 53.172 115.812 53.172ZM119.188 45.96H120.736L120.748 50.724C120.748 52.536 121.66 53.772 123.64 53.772C125.344 53.772 126.4 52.752 126.4 51.024H125.416C125.416 52.212 124.756 52.908 123.616 52.908C122.38 52.908 121.732 52.092 121.732 50.748V45.96H125.332V47.328C125.332 48.492 124.9 48.972 123.832 48.876V49.764C125.644 49.956 126.304 49.128 126.304 47.352V45.96H127.648V45.12H119.188V45.96Z"/>
  </symbol>
  <symbol id="svg-copy-hi-5" viewBox="0 56 140 12">
<path d="M1.3457 65.5625L2.37109 65.4219C2.39844 66.0781 2.52148 66.5273 2.74023 66.7695C2.95898 67.0117 3.26172 67.1328 3.64844 67.1328C3.93359 67.1328 4.17969 67.0684 4.38672 66.9395C4.59375 66.8066 4.73633 66.6289 4.81445 66.4062C4.89258 66.1797 4.93164 65.8203 4.93164 65.3281V59.4102H6.06836V65.2637C6.06836 65.9824 5.98047 66.5391 5.80469 66.9336C5.63281 67.3281 5.35742 67.6289 4.97852 67.8359C4.60352 68.043 4.16211 68.1465 3.6543 68.1465C2.90039 68.1465 2.32227 67.9297 1.91992 67.4961C1.52148 67.0625 1.33008 66.418 1.3457 65.5625ZM11.8691 68V67.0859C11.3848 67.7891 10.7266 68.1406 9.89453 68.1406C9.52734 68.1406 9.18359 68.0703 8.86328 67.9297C8.54688 67.7891 8.31055 67.6133 8.1543 67.4023C8.00195 67.1875 7.89453 66.9258 7.83203 66.6172C7.78906 66.4102 7.76758 66.082 7.76758 65.6328V61.7773H8.82227V65.2285C8.82227 65.7793 8.84375 66.1504 8.88672 66.3418C8.95312 66.6191 9.09375 66.8379 9.30859 66.998C9.52344 67.1543 9.78906 67.2324 10.1055 67.2324C10.4219 67.2324 10.7188 67.1523 10.9961 66.9922C11.2734 66.8281 11.4688 66.6074 11.582 66.3301C11.6992 66.0488 11.7578 65.6426 11.7578 65.1113V61.7773H12.8125V68H11.8691ZM14.0488 66.1426L15.0918 65.9785C15.1504 66.3965 15.3125 66.7168 15.5781 66.9395C15.8477 67.1621 16.2227 67.2734 16.7031 67.2734C17.1875 67.2734 17.5469 67.1758 17.7812 66.9805C18.0156 66.7812 18.1328 66.5488 18.1328 66.2832C18.1328 66.0449 18.0293 65.8574 17.8223 65.7207C17.6777 65.627 17.3184 65.5078 16.7441 65.3633C15.9707 65.168 15.4336 65 15.1328 64.8594C14.8359 64.7148 14.6094 64.5176 14.4531 64.2676C14.3008 64.0137 14.2246 63.7344 14.2246 63.4297C14.2246 63.1523 14.2871 62.8965 14.4121 62.6621C14.541 62.4238 14.7148 62.2266 14.9336 62.0703C15.0977 61.9492 15.3203 61.8477 15.6016 61.7656C15.8867 61.6797 16.1914 61.6367 16.5156 61.6367C17.0039 61.6367 17.4316 61.707 17.7988 61.8477C18.1699 61.9883 18.4434 62.1797 18.6191 62.4219C18.7949 62.6602 18.916 62.9805 18.9824 63.3828L17.9512 63.5234C17.9043 63.2031 17.7676 62.9531 17.541 62.7734C17.3184 62.5938 17.002 62.5039 16.5918 62.5039C16.1074 62.5039 15.7617 62.584 15.5547 62.7441C15.3477 62.9043 15.2441 63.0918 15.2441 63.3066C15.2441 63.4434 15.2871 63.5664 15.373 63.6758C15.459 63.7891 15.5938 63.8828 15.7773 63.957C15.8828 63.9961 16.1934 64.0859 16.709 64.2266C17.4551 64.4258 17.9746 64.5898 18.2676 64.7188C18.5645 64.8438 18.7969 65.0273 18.9648 65.2695C19.1328 65.5117 19.2168 65.8125 19.2168 66.1719C19.2168 66.5234 19.1133 66.8555 18.9062 67.168C18.7031 67.4766 18.4082 67.7168 18.0215 67.8887C17.6348 68.0566 17.1973 68.1406 16.709 68.1406C15.9004 68.1406 15.2832 67.9727 14.8574 67.6367C14.4355 67.3008 14.166 66.8027 14.0488 66.1426ZM22.7734 67.0566L22.9258 67.9883C22.6289 68.0508 22.3633 68.082 22.1289 68.082C21.7461 68.082 21.4492 68.0215 21.2383 67.9004C21.0273 67.7793 20.8789 67.6211 20.793 67.4258C20.707 67.2266 20.6641 66.8105 20.6641 66.1777V62.5977H19.8906V61.7773H20.6641V60.2363L21.7129 59.6035V61.7773H22.7734V62.5977H21.7129V66.2363C21.7129 66.5371 21.7305 66.7305 21.7656 66.8164C21.8047 66.9023 21.8652 66.9707 21.9473 67.0215C22.0332 67.0723 22.1543 67.0977 22.3105 67.0977C22.4277 67.0977 22.582 67.084 22.7734 67.0566ZM24.0625 68V62.5977H23.1309V61.7773H24.0625V61.1152C24.0625 60.6973 24.0996 60.3867 24.1738 60.1836C24.2754 59.9102 24.4531 59.6895 24.707 59.5215C24.9648 59.3496 25.3242 59.2637 25.7852 59.2637C26.082 59.2637 26.4102 59.2988 26.7695 59.3691L26.6113 60.2891C26.3926 60.25 26.1855 60.2305 25.9902 60.2305C25.6699 60.2305 25.4434 60.2988 25.3105 60.4355C25.1777 60.5723 25.1113 60.8281 25.1113 61.2031V61.7773H26.3242V62.5977H25.1113V68H24.0625ZM26.7578 64.8887C26.7578 63.7363 27.0781 62.8828 27.7188 62.3281C28.2539 61.8672 28.9062 61.6367 29.6758 61.6367C30.5312 61.6367 31.2305 61.918 31.7734 62.4805C32.3164 63.0391 32.5879 63.8125 32.5879 64.8008C32.5879 65.6016 32.4668 66.2324 32.2246 66.6934C31.9863 67.1504 31.6367 67.5059 31.1758 67.7598C30.7188 68.0137 30.2188 68.1406 29.6758 68.1406C28.8047 68.1406 28.0996 67.8613 27.5605 67.3027C27.0254 66.7441 26.7578 65.9395 26.7578 64.8887ZM27.8418 64.8887C27.8418 65.6855 28.0156 66.2832 28.3633 66.6816C28.7109 67.0762 29.1484 67.2734 29.6758 67.2734C30.1992 67.2734 30.6348 67.0742 30.9824 66.6758C31.3301 66.2773 31.5039 65.6699 31.5039 64.8535C31.5039 64.084 31.3281 63.502 30.9766 63.1074C30.6289 62.709 30.1953 62.5098 29.6758 62.5098C29.1484 62.5098 28.7109 62.707 28.3633 63.1016C28.0156 63.4961 27.8418 64.0918 27.8418 64.8887ZM33.8184 68V61.7773H34.7676V62.7207C35.0098 62.2793 35.2324 61.9883 35.4355 61.8477C35.6426 61.707 35.8691 61.6367 36.1152 61.6367C36.4707 61.6367 36.832 61.75 37.1992 61.9766L36.8359 62.9551C36.5781 62.8027 36.3203 62.7266 36.0625 62.7266C35.832 62.7266 35.625 62.7969 35.4414 62.9375C35.2578 63.0742 35.127 63.2656 35.0488 63.5117C34.9316 63.8867 34.873 64.2969 34.873 64.7422V68H33.8184ZM42.0859 65.9961L43.1758 66.1309C43.0039 66.7676 42.6855 67.2617 42.2207 67.6133C41.7559 67.9648 41.1621 68.1406 40.4395 68.1406C39.5293 68.1406 38.8066 67.8613 38.2715 67.3027C37.7402 66.7402 37.4746 65.9531 37.4746 64.9414C37.4746 63.8945 37.7441 63.082 38.2832 62.5039C38.8223 61.9258 39.5215 61.6367 40.3809 61.6367C41.2129 61.6367 41.8926 61.9199 42.4199 62.4863C42.9473 63.0527 43.2109 63.8496 43.2109 64.877C43.2109 64.9395 43.209 65.0332 43.2051 65.1582H38.5645C38.6035 65.8418 38.7969 66.3652 39.1445 66.7285C39.4922 67.0918 39.9258 67.2734 40.4453 67.2734C40.832 67.2734 41.1621 67.1719 41.4355 66.9688C41.709 66.7656 41.9258 66.4414 42.0859 65.9961ZM38.623 64.291H42.0977C42.0508 63.7676 41.918 63.375 41.6992 63.1133C41.3633 62.707 40.9277 62.5039 40.3926 62.5039C39.9082 62.5039 39.5 62.666 39.168 62.9902C38.8398 63.3145 38.6582 63.748 38.623 64.291ZM43.8027 68L46.0762 64.7656L43.9727 61.7773H45.291L46.2461 63.2363C46.4258 63.5137 46.5703 63.7461 46.6797 63.9336C46.8516 63.6758 47.0098 63.4473 47.1543 63.248L48.2031 61.7773H49.4629L47.3125 64.707L49.627 68H48.332L47.0547 66.0664L46.7148 65.5449L45.0801 68H43.8027ZM58.4701 68H59.4301V64.136C59.4301 63.188 59.9461 62.156 61.2301 62.156C62.2141 62.156 62.9941 62.888 62.9941 64.04C62.9941 65.252 62.2381 65.948 61.2661 65.948C61.0981 65.948 60.9061 65.936 60.7621 65.9V66.692C60.9781 66.752 61.2301 66.776 61.5061 66.776C62.9341 66.776 64.0141 65.768 64.0141 64.016C64.0141 62.408 62.9701 61.292 61.5061 61.292C60.4381 61.292 59.7661 61.844 59.4301 62.564V59.96H65.1661V59.12H52.5901V59.96H58.4701V62.516C58.1221 61.82 57.4261 61.292 56.3461 61.292C54.8341 61.292 53.7541 62.36 53.7541 64.04C53.7541 65.744 54.8101 66.824 56.3101 66.824C57.4141 66.824 58.1221 66.284 58.4701 65.576V68ZM56.6221 65.984C55.5541 65.984 54.7621 65.264 54.7621 64.04C54.7621 62.876 55.5901 62.156 56.6221 62.156C57.9181 62.156 58.4701 63.152 58.4701 64.064C58.4701 64.94 57.9061 65.984 56.6221 65.984ZM58.4835 59.36H59.4435V59.012C59.4435 57.872 59.9835 56.732 62.8035 56.732C65.6355 56.732 66.1395 57.872 66.1395 59.012V59.12H64.5315V59.96H66.1155V68H67.1235V59.96H68.6955V59.12H67.1235V58.952C67.1235 57.248 66.1515 55.892 62.8035 55.892C59.5155 55.892 58.4835 57.248 58.4835 58.952V59.36ZM76.73 61.052V59.96H78.902V62.66C78.902 62.768 78.902 62.876 78.914 62.984H75.998C76.454 62.564 76.73 61.904 76.73 61.052ZM81.71 64.784C80.462 64.784 79.898 63.956 79.898 62.66V59.96H83.486V62.924C83.486 63.932 82.85 64.784 81.71 64.784ZM77.306 65.744C77.306 65.708 77.306 65.636 77.294 65.552H76.334V65.696C76.334 66.62 75.818 67.244 74.954 67.244C73.994 67.244 73.562 66.536 73.562 65.564V63.812H79.046C79.358 64.94 80.162 65.636 81.47 65.636C82.418 65.636 83.102 65.24 83.486 64.604V68H84.482V59.96H86.054V59.12H71.258V59.96H75.746V61.052C75.746 62.276 75.062 63.068 73.682 63.068H72.578V65.516C72.578 67.004 73.37 68.108 74.966 68.108C76.418 68.108 77.306 67.184 77.306 65.744ZM89.602 64.844C88.318 64.844 87.73 64.028 87.73 62.684V60.752L91.294 63.68C91.282 63.704 91.282 63.728 91.27 63.764C91.102 64.304 90.538 64.844 89.602 64.844ZM94.678 61.352C93.202 61.352 92.038 61.928 91.51 63.02L87.73 59.96H94.954V61.352H94.678ZM97.63 64.364H96.67C96.67 65.684 95.77 66.62 94.426 66.62C93.13 66.62 92.206 65.72 92.206 64.46C92.206 62.936 93.322 62.204 94.726 62.204H95.938V59.96H98.494V59.12H85.426V59.96H86.77V62.66C86.77 64.484 87.67 65.696 89.446 65.696C90.226 65.696 90.826 65.42 91.258 65.012C91.498 66.5 92.77 67.484 94.45 67.484C96.358 67.484 97.63 66.224 97.63 64.364ZM103.639 59.96H105.211V59.12H103.627C103.627 57.368 105.091 56.828 107.647 56.828C110.227 56.828 111.811 57.5 111.811 59.216V59.396H112.795V59.192C112.795 57.08 110.983 56 107.659 56C104.395 56 102.679 56.924 102.631 59.12H101.047V59.96H102.631V68H103.639V59.96ZM112.05 67.172C113.934 67.172 114.906 65.912 114.906 64.232C114.906 62.792 114.198 61.82 113.106 61.556V59.96H116.058V59.12H104.574V59.96H112.122V61.508C111.042 61.652 110.538 62.456 110.346 63.224H110.31C110.094 62.384 109.506 61.484 108.234 61.484C106.77 61.484 105.738 62.516 105.738 64.232C105.738 65.912 106.71 67.172 108.594 67.172C108.714 67.172 108.846 67.16 109.002 67.148V66.272C108.882 66.284 108.75 66.296 108.654 66.296C107.418 66.296 106.746 65.444 106.746 64.256C106.746 63.176 107.298 62.372 108.366 62.372C109.398 62.372 109.89 63.296 109.89 64.568V64.748H110.742V64.568C110.742 63.272 111.258 62.372 112.338 62.372C113.382 62.372 113.898 63.2 113.898 64.256C113.898 65.444 113.226 66.296 111.99 66.296C111.894 66.296 111.774 66.284 111.642 66.272V67.148C111.798 67.16 111.93 67.172 112.05 67.172ZM118.018 59.96H119.59V59.12H118.006C118.042 57.404 119.47 56.804 122.95 56.804C126.526 56.804 128.134 57.548 128.134 59.252V59.396L129.106 59.408V59.228C129.106 57.128 127.294 55.976 122.986 55.976C118.75 55.976 117.058 56.936 117.01 59.12H115.426V59.96H117.01V68H118.018V59.96ZM126.609 65.588C125.685 65.588 124.953 64.976 124.953 63.884C124.953 62.84 125.709 62.24 126.609 62.24C127.749 62.24 128.217 63.128 128.217 63.908C128.217 64.688 127.737 65.588 126.609 65.588ZM126.417 66.368C127.317 66.368 127.905 65.948 128.217 65.384V68H129.213V59.96H130.797V59.12H118.953V59.96H122.409V61.412C122.409 62.84 121.653 63.212 120.705 63.212H120.273V65.084C120.273 66.944 121.461 68.036 123.273 68.036C124.617 68.036 125.505 67.268 125.961 66.332C126.105 66.356 126.261 66.368 126.417 66.368ZM123.297 67.16C122.025 67.16 121.269 66.368 121.269 65.192V63.956C122.421 63.956 123.417 63.356 123.417 61.532V59.96H128.217V62.432C127.905 61.88 127.317 61.46 126.417 61.46C125.073 61.46 124.041 62.42 124.041 63.884C124.041 64.868 124.461 65.624 125.145 66.032C124.845 66.632 124.257 67.16 123.297 67.16ZM130.145 59.96H136.529V62.024H134.729C132.749 62.024 131.309 62.936 131.309 65.012C131.309 66.992 132.581 67.976 134.429 67.976H134.825V67.172H134.561C133.097 67.172 132.317 66.38 132.317 65.024C132.317 63.584 133.289 62.888 134.777 62.888H136.529V68H137.537V59.96H139.121V59.12H130.145V59.96Z"/>
  </symbol>
  <symbol id="svg-copy-hi-6" viewBox="0 69 108 17">
<path d="M4.384 76.624H3.916V77.44H4.384C5.044 77.44 5.476 77.668 5.74 77.992L5.752 78.064H5.788C5.98 78.328 6.064 78.652 6.064 78.964C6.064 79.876 5.452 80.5 4.48 80.5C3.508 80.5 2.824 79.84 2.824 78.928H1.888C1.888 80.38 2.992 81.364 4.552 81.364C6.016 81.364 6.988 80.452 6.988 79.048C6.988 78.712 6.916 78.364 6.772 78.064L8.668 78.076V82H9.664V73.96H11.248V73.12H8.668V77.248H6.016C5.824 77.14 5.608 77.056 5.368 77.02V76.996C6.34 76.756 6.832 76.048 6.832 75.148C6.832 73.84 5.848 73.012 4.456 73.012C3.016 73.012 1.972 73.864 1.972 75.244H2.908C2.908 74.392 3.592 73.864 4.456 73.864C5.272 73.864 5.932 74.392 5.932 75.28C5.932 75.94 5.428 76.624 4.384 76.624ZM14.1415 79.744C13.2295 79.744 12.6055 79.144 12.6055 78.28C12.6055 77.404 13.2415 76.792 14.1415 76.792C15.0175 76.792 15.6535 77.416 15.6535 78.268C15.6535 79.132 15.0175 79.744 14.1415 79.744ZM10.6135 73.96H18.1495V75.952H14.2135C12.7855 75.952 11.6935 76.804 11.6935 78.28C11.6935 79.696 12.7495 80.596 14.1295 80.596C15.4495 80.596 16.4575 79.768 16.4575 78.388C16.4575 77.692 16.1815 77.152 15.8095 76.792H18.1495V82H19.1455V73.96H20.7295V73.12H10.6135V73.96ZM18.0422 85.6C19.5062 85.6 20.4183 84.832 20.4183 83.56C20.4183 82.48 19.7342 81.652 18.4262 81.652H18.1382V82.444H18.4262C19.1582 82.444 19.5542 82.972 19.5542 83.548C19.5542 84.352 18.9542 84.808 18.0182 84.808C16.9622 84.808 16.1222 84.28 16.1822 83.08H15.2822C15.2342 84.868 16.5542 85.6 18.0422 85.6ZM23.1903 79.936C22.4583 79.936 21.9183 79.444 21.9183 78.664C21.9183 77.86 22.5063 77.38 23.3223 77.38H24.4383V78.352C24.4383 79.348 23.9703 79.936 23.1903 79.936ZM27.5703 76.552H25.3743V73.96H27.5703V76.552ZM20.0822 73.96H24.4383V76.552H23.2983C21.9783 76.552 20.9823 77.296 20.9823 78.664C20.9823 79.936 21.8583 80.788 23.1903 80.788C24.5943 80.788 25.3743 79.9 25.3743 78.304V77.38H27.5703V82H28.5783V73.96H30.1503V73.12H20.0822V73.96ZM32.1078 73.96H33.6798V73.12H32.0958C32.0958 71.332 33.6078 70.852 35.5158 70.852C37.4238 70.852 38.9958 71.452 38.9958 73.204V73.372H39.9798V73.18C39.9798 71.056 38.1678 70.024 35.5158 70.024C32.8878 70.024 31.1358 70.9 31.0998 73.12H29.5158V73.96H31.0998V82H32.1078V73.96ZM33.0432 73.96H39.4272V76.024H37.6272C35.6472 76.024 34.2072 76.936 34.2072 79.012C34.2072 80.992 35.4792 81.976 37.3272 81.976H37.7232V81.172H37.4592C35.9952 81.172 35.2152 80.38 35.2152 79.024C35.2152 77.584 36.1872 76.888 37.6752 76.888H39.4272V82H40.4352V73.96H42.0192V73.12H33.0432V73.96ZM48.2824 76.624H47.8144V77.44H48.2824C48.9424 77.44 49.3744 77.668 49.6384 77.992L49.6504 78.064H49.6864C49.8784 78.328 49.9624 78.652 49.9624 78.964C49.9624 79.876 49.3504 80.5 48.3784 80.5C47.4064 80.5 46.7224 79.84 46.7224 78.928H45.7864C45.7864 80.38 46.8904 81.364 48.4504 81.364C49.9144 81.364 50.8864 80.452 50.8864 79.048C50.8864 78.712 50.8144 78.364 50.6704 78.064L52.5664 78.076V82H53.5624V73.96H56.0944V82H57.1024V73.96H58.6744V73.12H52.5664V77.248H49.9144C49.7224 77.14 49.5064 77.056 49.2664 77.02V76.996C50.2384 76.756 50.7304 76.048 50.7304 75.148C50.7304 73.84 49.7464 73.012 48.3544 73.012C46.9144 73.012 45.8704 73.864 45.8704 75.244H46.8064C46.8064 74.392 47.4904 73.864 48.3544 73.864C49.1704 73.864 49.8304 74.392 49.8304 75.28C49.8304 75.94 49.3264 76.624 48.2824 76.624ZM62.0975 80.044C60.9455 80.044 60.0935 79.288 60.0935 78.04C60.0935 76.816 60.9815 76.06 62.0975 76.06C63.5015 76.06 64.1255 77.104 64.1255 78.052V78.064C64.1255 78.964 63.5015 80.044 62.0975 80.044ZM66.6815 73.96V73.12H57.9455V73.96H64.1255V76.504C63.7415 75.772 62.9735 75.244 61.8455 75.244C60.2495 75.244 59.1095 76.36 59.1095 78.004C59.1095 79.732 60.2255 80.848 61.8455 80.848C62.9615 80.848 63.7295 80.32 64.1255 79.588V82H65.0975V73.96H66.6815ZM73.2915 73.96H75.9315V74.788C75.9315 76.228 75.1275 76.708 73.7835 76.708H73.6155C73.5915 76.9 73.5675 77.104 73.5675 77.272C73.5675 79.324 74.7075 80.656 76.7475 80.656C78.0435 80.656 78.9075 80.092 79.3395 79.36V82H80.3355V73.96H81.9075V73.12H73.2915V73.96ZM76.9395 79.816C75.4275 79.816 74.5515 78.868 74.5515 77.368C74.5515 77.344 74.5515 77.308 74.5515 77.284C76.0635 77.224 76.9275 76.516 76.9275 74.956V73.96H79.3395V77.56C79.3395 78.904 78.2955 79.816 76.9395 79.816ZM69.9915 82.096C71.4555 82.096 72.3675 81.16 72.3675 79.636V79.468H71.3955V79.624C71.3955 80.584 70.8675 81.232 69.9675 81.232C68.8875 81.232 68.4435 80.476 68.4435 79.48V78.16H69.5235C71.2155 78.16 72.5115 77.296 72.5115 75.544C72.5115 73.924 71.4915 73.012 70.0155 73.012C68.4915 73.012 67.5195 73.996 67.5195 75.448C67.5195 75.64 67.5435 75.808 67.5675 76H68.5635C68.5395 75.82 68.5275 75.652 68.5275 75.472C68.5275 74.5 69.1035 73.888 70.0155 73.888C70.9275 73.888 71.4915 74.5 71.4915 75.484C71.4915 76.744 70.4595 77.308 69.1875 77.308H67.4355V79.408C67.4355 81.028 68.3235 82.096 69.9915 82.096ZM87.1341 82H88.0941V78.136C88.0941 77.188 88.6101 76.156 89.8941 76.156C90.8781 76.156 91.6581 76.888 91.6581 78.04C91.6581 79.252 90.9021 79.948 89.9301 79.948C89.7621 79.948 89.5701 79.936 89.4261 79.9V80.692C89.6421 80.752 89.8941 80.776 90.1701 80.776C91.5981 80.776 92.6781 79.768 92.6781 78.016C92.6781 76.408 91.6341 75.292 90.1701 75.292C89.1021 75.292 88.4301 75.844 88.0941 76.564V73.96H93.8301V73.12H81.2541V73.96H87.1341V76.516C86.7861 75.82 86.0901 75.292 85.0101 75.292C83.4981 75.292 82.4181 76.36 82.4181 78.04C82.4181 79.744 83.4741 80.824 84.9741 80.824C86.0781 80.824 86.7861 80.284 87.1341 79.576V82ZM85.2861 79.984C84.2181 79.984 83.4261 79.264 83.4261 78.04C83.4261 76.876 84.2541 76.156 85.2861 76.156C86.5821 76.156 87.1341 77.152 87.1341 78.064C87.1341 78.94 86.5701 79.984 85.2861 79.984ZM103.055 81.256H102.095C101.939 81.808 101.387 82.408 100.391 82.408C99.2388 82.408 98.6028 81.628 98.6028 80.608C98.6028 79.612 99.2388 78.796 100.391 78.796C101.423 78.796 101.963 79.432 102.095 79.972H103.055C102.887 78.964 102.083 77.992 100.415 77.992C100.175 77.992 99.9468 78.016 99.7428 78.052C99.2508 77.908 98.8908 77.572 98.8908 77.068C98.8908 76.348 99.5028 76.096 100.175 76.096H102.371V73.96H104.063V73.12H96.3947V73.96H101.423V75.364H99.8508C98.7228 75.364 97.9068 75.868 97.9068 76.888C97.9068 77.62 98.3508 78.1 98.9148 78.34C98.0988 78.772 97.6188 79.588 97.6188 80.596C97.6188 82.084 98.6028 83.248 100.391 83.248C101.963 83.248 102.887 82.312 103.055 81.256ZM101.497 73.156H102.361C100.573 69.652 100.105 69.508 98.5328 69.508H98.0168V70.168H98.5448C99.5888 70.168 100.129 70.24 101.257 72.316C100.105 71.356 99.7088 71.332 98.5088 71.332H98.0168V71.98H98.5328C99.8168 71.98 100.081 72.04 101.497 73.156ZM106.618 73.108H105.634V82H106.618V73.108Z"/>
  </symbol>
</svg>
