<svg width="153" height="86" viewBox="0 0 153 86" fill="none" xmlns="http://www.w3.org/2000/svg">
  <symbol id="svg-copy-id-1" viewBox="0 2 124 12">
    <path d="M0.890625 11V2.41016H2.60156L4.63477 8.49219C4.82227 9.05859 4.95898 9.48242 5.04492 9.76367C5.14258 9.45117 5.29492 8.99219 5.50195 8.38672L7.55859 2.41016H9.08789V11H7.99219V3.81055L5.49609 11H4.4707L1.98633 3.6875V11H0.890625ZM15.0469 8.99609L16.1367 9.13086C15.9648 9.76758 15.6465 10.2617 15.1816 10.6133C14.7168 10.9648 14.123 11.1406 13.4004 11.1406C12.4902 11.1406 11.7676 10.8613 11.2324 10.3027C10.7012 9.74023 10.4355 8.95312 10.4355 7.94141C10.4355 6.89453 10.7051 6.08203 11.2441 5.50391C11.7832 4.92578 12.4824 4.63672 13.3418 4.63672C14.1738 4.63672 14.8535 4.91992 15.3809 5.48633C15.9082 6.05273 16.1719 6.84961 16.1719 7.87695C16.1719 7.93945 16.1699 8.0332 16.166 8.1582H11.5254C11.5645 8.8418 11.7578 9.36523 12.1055 9.72852C12.4531 10.0918 12.8867 10.2734 13.4062 10.2734C13.793 10.2734 14.123 10.1719 14.3965 9.96875C14.6699 9.76562 14.8867 9.44141 15.0469 8.99609ZM11.584 7.29102H15.0586C15.0117 6.76758 14.8789 6.375 14.6602 6.11328C14.3242 5.70703 13.8887 5.50391 13.3535 5.50391C12.8691 5.50391 12.4609 5.66602 12.1289 5.99023C11.8008 6.31445 11.6191 6.74805 11.584 7.29102ZM17.4668 11V4.77734H18.416V5.66211C18.873 4.97852 19.5332 4.63672 20.3965 4.63672C20.7715 4.63672 21.1152 4.70508 21.4277 4.8418C21.7441 4.97461 21.9805 5.15039 22.1367 5.36914C22.293 5.58789 22.4023 5.84766 22.4648 6.14844C22.5039 6.34375 22.5234 6.68555 22.5234 7.17383V11H21.4688V7.21484C21.4688 6.78516 21.4277 6.46484 21.3457 6.25391C21.2637 6.03906 21.1172 5.86914 20.9062 5.74414C20.6992 5.61523 20.4551 5.55078 20.1738 5.55078C19.7246 5.55078 19.3359 5.69336 19.0078 5.97852C18.6836 6.26367 18.5215 6.80469 18.5215 7.60156V11H17.4668ZM24.0996 13.3965L23.9824 12.4062C24.2129 12.4688 24.4141 12.5 24.5859 12.5C24.8203 12.5 25.0078 12.4609 25.1484 12.3828C25.2891 12.3047 25.4043 12.1953 25.4941 12.0547C25.5605 11.9492 25.668 11.6875 25.8164 11.2695C25.8359 11.2109 25.8672 11.125 25.9102 11.0117L23.5488 4.77734H24.6855L25.9805 8.38086C26.1484 8.83789 26.2988 9.31836 26.4316 9.82227C26.5527 9.33789 26.6973 8.86523 26.8652 8.4043L28.1953 4.77734H29.25L26.8828 11.1055C26.6289 11.7891 26.4316 12.2598 26.291 12.5176C26.1035 12.8652 25.8887 13.1191 25.6465 13.2793C25.4043 13.4434 25.1152 13.5254 24.7793 13.5254C24.5762 13.5254 24.3496 13.4824 24.0996 13.3965ZM34.207 10.2324C33.8164 10.5645 33.4395 10.7988 33.0762 10.9355C32.7168 11.0723 32.3301 11.1406 31.916 11.1406C31.2324 11.1406 30.707 10.9746 30.3398 10.6426C29.9727 10.3066 29.7891 9.87891 29.7891 9.35938C29.7891 9.05469 29.8574 8.77734 29.9941 8.52734C30.1348 8.27344 30.3164 8.07031 30.5391 7.91797C30.7656 7.76562 31.0195 7.65039 31.3008 7.57227C31.5078 7.51758 31.8203 7.46484 32.2383 7.41406C33.0898 7.3125 33.7168 7.19141 34.1191 7.05078C34.123 6.90625 34.125 6.81445 34.125 6.77539C34.125 6.3457 34.0254 6.04297 33.8262 5.86719C33.5566 5.62891 33.1562 5.50977 32.625 5.50977C32.1289 5.50977 31.7617 5.59766 31.5234 5.77344C31.2891 5.94531 31.1152 6.25195 31.002 6.69336L29.9707 6.55273C30.0645 6.11133 30.2188 5.75586 30.4336 5.48633C30.6484 5.21289 30.959 5.00391 31.3652 4.85938C31.7715 4.71094 32.2422 4.63672 32.7773 4.63672C33.3086 4.63672 33.7402 4.69922 34.0723 4.82422C34.4043 4.94922 34.6484 5.10742 34.8047 5.29883C34.9609 5.48633 35.0703 5.72461 35.1328 6.01367C35.168 6.19336 35.1855 6.51758 35.1855 6.98633V8.39258C35.1855 9.37305 35.207 9.99414 35.25 10.2559C35.2969 10.5137 35.3867 10.7617 35.5195 11H34.418C34.3086 10.7812 34.2383 10.5254 34.207 10.2324ZM34.1191 7.87695C33.7363 8.0332 33.1621 8.16602 32.3965 8.27539C31.9629 8.33789 31.6562 8.4082 31.4766 8.48633C31.2969 8.56445 31.1582 8.67969 31.0605 8.83203C30.9629 8.98047 30.9141 9.14648 30.9141 9.33008C30.9141 9.61133 31.0195 9.8457 31.2305 10.0332C31.4453 10.2207 31.7578 10.3145 32.168 10.3145C32.5742 10.3145 32.9355 10.2266 33.252 10.0508C33.5684 9.87109 33.8008 9.62695 33.9492 9.31836C34.0625 9.08008 34.1191 8.72852 34.1191 8.26367V7.87695ZM36.8027 11V2.41016H37.8574V11H36.8027ZM39.5039 3.62305V2.41016H40.5586V3.62305H39.5039ZM39.5039 11V4.77734H40.5586V11H39.5039ZM42.1699 11V4.77734H43.1191V5.66211C43.5762 4.97852 44.2363 4.63672 45.0996 4.63672C45.4746 4.63672 45.8184 4.70508 46.1309 4.8418C46.4473 4.97461 46.6836 5.15039 46.8398 5.36914C46.9961 5.58789 47.1055 5.84766 47.168 6.14844C47.207 6.34375 47.2266 6.68555 47.2266 7.17383V11H46.1719V7.21484C46.1719 6.78516 46.1309 6.46484 46.0488 6.25391C45.9668 6.03906 45.8203 5.86914 45.6094 5.74414C45.4023 5.61523 45.1582 5.55078 44.877 5.55078C44.4277 5.55078 44.0391 5.69336 43.7109 5.97852C43.3867 6.26367 43.2246 6.80469 43.2246 7.60156V11H42.1699ZM52.1953 3.62305V2.41016H53.25V3.62305H52.1953ZM52.1953 11V4.77734H53.25V11H52.1953ZM54.8613 11V4.77734H55.8105V5.66211C56.2676 4.97852 56.9277 4.63672 57.791 4.63672C58.166 4.63672 58.5098 4.70508 58.8223 4.8418C59.1387 4.97461 59.375 5.15039 59.5312 5.36914C59.6875 5.58789 59.7969 5.84766 59.8594 6.14844C59.8984 6.34375 59.918 6.68555 59.918 7.17383V11H58.8633V7.21484C58.8633 6.78516 58.8223 6.46484 58.7402 6.25391C58.6582 6.03906 58.5117 5.86914 58.3008 5.74414C58.0938 5.61523 57.8496 5.55078 57.5684 5.55078C57.1191 5.55078 56.7305 5.69336 56.4023 5.97852C56.0781 6.26367 55.916 6.80469 55.916 7.60156V11H54.8613ZM61.793 11V5.59766H60.8613V4.77734H61.793V4.11523C61.793 3.69727 61.8301 3.38672 61.9043 3.18359C62.0059 2.91016 62.1836 2.68945 62.4375 2.52148C62.6953 2.34961 63.0547 2.26367 63.5156 2.26367C63.8125 2.26367 64.1406 2.29883 64.5 2.36914L64.3418 3.28906C64.123 3.25 63.916 3.23047 63.7207 3.23047C63.4004 3.23047 63.1738 3.29883 63.041 3.43555C62.9082 3.57227 62.8418 3.82812 62.8418 4.20312V4.77734H64.0547V5.59766H62.8418V11H61.793ZM64.4883 7.88867C64.4883 6.73633 64.8086 5.88281 65.4492 5.32812C65.9844 4.86719 66.6367 4.63672 67.4062 4.63672C68.2617 4.63672 68.9609 4.91797 69.5039 5.48047C70.0469 6.03906 70.3184 6.8125 70.3184 7.80078C70.3184 8.60156 70.1973 9.23242 69.9551 9.69336C69.7168 10.1504 69.3672 10.5059 68.9062 10.7598C68.4492 11.0137 67.9492 11.1406 67.4062 11.1406C66.5352 11.1406 65.8301 10.8613 65.291 10.3027C64.7559 9.74414 64.4883 8.93945 64.4883 7.88867ZM65.5723 7.88867C65.5723 8.68555 65.7461 9.2832 66.0938 9.68164C66.4414 10.0762 66.8789 10.2734 67.4062 10.2734C67.9297 10.2734 68.3652 10.0742 68.7129 9.67578C69.0605 9.27734 69.2344 8.66992 69.2344 7.85352C69.2344 7.08398 69.0586 6.50195 68.707 6.10742C68.3594 5.70898 67.9258 5.50977 67.4062 5.50977C66.8789 5.50977 66.4414 5.70703 66.0938 6.10156C65.7461 6.49609 65.5723 7.0918 65.5723 7.88867ZM71.5488 11V4.77734H72.498V5.7207C72.7402 5.2793 72.9629 4.98828 73.166 4.84766C73.373 4.70703 73.5996 4.63672 73.8457 4.63672C74.2012 4.63672 74.5625 4.75 74.9297 4.97656L74.5664 5.95508C74.3086 5.80273 74.0508 5.72656 73.793 5.72656C73.5625 5.72656 73.3555 5.79688 73.1719 5.9375C72.9883 6.07422 72.8574 6.26562 72.7793 6.51172C72.6621 6.88672 72.6035 7.29688 72.6035 7.74219V11H71.5488ZM75.5566 11V4.77734H76.5V5.65039C76.6953 5.3457 76.9551 5.10156 77.2793 4.91797C77.6035 4.73047 77.9727 4.63672 78.3867 4.63672C78.8477 4.63672 79.2246 4.73242 79.5176 4.92383C79.8145 5.11523 80.0234 5.38281 80.1445 5.72656C80.6367 5 81.2773 4.63672 82.0664 4.63672C82.6836 4.63672 83.1582 4.80859 83.4902 5.15234C83.8223 5.49219 83.9883 6.01758 83.9883 6.72852V11H82.9395V7.08008C82.9395 6.6582 82.9043 6.35547 82.834 6.17188C82.7676 5.98438 82.6445 5.83398 82.4648 5.7207C82.2852 5.60742 82.0742 5.55078 81.832 5.55078C81.3945 5.55078 81.0312 5.69727 80.7422 5.99023C80.4531 6.2793 80.3086 6.74414 80.3086 7.38477V11H79.2539V6.95703C79.2539 6.48828 79.168 6.13672 78.9961 5.90234C78.8242 5.66797 78.543 5.55078 78.1523 5.55078C77.8555 5.55078 77.5801 5.62891 77.3262 5.78516C77.0762 5.94141 76.8945 6.16992 76.7812 6.4707C76.668 6.77148 76.6113 7.20508 76.6113 7.77148V11H75.5566ZM89.6133 10.2324C89.2227 10.5645 88.8457 10.7988 88.4824 10.9355C88.123 11.0723 87.7363 11.1406 87.3223 11.1406C86.6387 11.1406 86.1133 10.9746 85.7461 10.6426C85.3789 10.3066 85.1953 9.87891 85.1953 9.35938C85.1953 9.05469 85.2637 8.77734 85.4004 8.52734C85.541 8.27344 85.7227 8.07031 85.9453 7.91797C86.1719 7.76562 86.4258 7.65039 86.707 7.57227C86.9141 7.51758 87.2266 7.46484 87.6445 7.41406C88.4961 7.3125 89.123 7.19141 89.5254 7.05078C89.5293 6.90625 89.5312 6.81445 89.5312 6.77539C89.5312 6.3457 89.4316 6.04297 89.2324 5.86719C88.9629 5.62891 88.5625 5.50977 88.0312 5.50977C87.5352 5.50977 87.168 5.59766 86.9297 5.77344C86.6953 5.94531 86.5215 6.25195 86.4082 6.69336L85.377 6.55273C85.4707 6.11133 85.625 5.75586 85.8398 5.48633C86.0547 5.21289 86.3652 5.00391 86.7715 4.85938C87.1777 4.71094 87.6484 4.63672 88.1836 4.63672C88.7148 4.63672 89.1465 4.69922 89.4785 4.82422C89.8105 4.94922 90.0547 5.10742 90.2109 5.29883C90.3672 5.48633 90.4766 5.72461 90.5391 6.01367C90.5742 6.19336 90.5918 6.51758 90.5918 6.98633V8.39258C90.5918 9.37305 90.6133 9.99414 90.6562 10.2559C90.7031 10.5137 90.793 10.7617 90.9258 11H89.8242C89.7148 10.7812 89.6445 10.5254 89.6133 10.2324ZM89.5254 7.87695C89.1426 8.0332 88.5684 8.16602 87.8027 8.27539C87.3691 8.33789 87.0625 8.4082 86.8828 8.48633C86.7031 8.56445 86.5645 8.67969 86.4668 8.83203C86.3691 8.98047 86.3203 9.14648 86.3203 9.33008C86.3203 9.61133 86.4258 9.8457 86.6367 10.0332C86.8516 10.2207 87.1641 10.3145 87.5742 10.3145C87.9805 10.3145 88.3418 10.2266 88.6582 10.0508C88.9746 9.87109 89.207 9.62695 89.3555 9.31836C89.4688 9.08008 89.5254 8.72852 89.5254 8.26367V7.87695ZM91.8105 9.14258L92.8535 8.97852C92.9121 9.39648 93.0742 9.7168 93.3398 9.93945C93.6094 10.1621 93.9844 10.2734 94.4648 10.2734C94.9492 10.2734 95.3086 10.1758 95.543 9.98047C95.7773 9.78125 95.8945 9.54883 95.8945 9.2832C95.8945 9.04492 95.791 8.85742 95.584 8.7207C95.4395 8.62695 95.0801 8.50781 94.5059 8.36328C93.7324 8.16797 93.1953 8 92.8945 7.85938C92.5977 7.71484 92.3711 7.51758 92.2148 7.26758C92.0625 7.01367 91.9863 6.73438 91.9863 6.42969C91.9863 6.15234 92.0488 5.89648 92.1738 5.66211C92.3027 5.42383 92.4766 5.22656 92.6953 5.07031C92.8594 4.94922 93.082 4.84766 93.3633 4.76562C93.6484 4.67969 93.9531 4.63672 94.2773 4.63672C94.7656 4.63672 95.1934 4.70703 95.5605 4.84766C95.9316 4.98828 96.2051 5.17969 96.3809 5.42188C96.5566 5.66016 96.6777 5.98047 96.7441 6.38281L95.7129 6.52344C95.666 6.20312 95.5293 5.95312 95.3027 5.77344C95.0801 5.59375 94.7637 5.50391 94.3535 5.50391C93.8691 5.50391 93.5234 5.58398 93.3164 5.74414C93.1094 5.9043 93.0059 6.0918 93.0059 6.30664C93.0059 6.44336 93.0488 6.56641 93.1348 6.67578C93.2207 6.78906 93.3555 6.88281 93.5391 6.95703C93.6445 6.99609 93.9551 7.08594 94.4707 7.22656C95.2168 7.42578 95.7363 7.58984 96.0293 7.71875C96.3262 7.84375 96.5586 8.02734 96.7266 8.26953C96.8945 8.51172 96.9785 8.8125 96.9785 9.17188C96.9785 9.52344 96.875 9.85547 96.668 10.168C96.4648 10.4766 96.1699 10.7168 95.7832 10.8887C95.3965 11.0566 94.959 11.1406 94.4707 11.1406C93.6621 11.1406 93.0449 10.9727 92.6191 10.6367C92.1973 10.3008 91.9277 9.80273 91.8105 9.14258ZM98.2383 3.62305V2.41016H99.293V3.62305H98.2383ZM98.2383 11V4.77734H99.293V11H98.2383ZM108.305 10.2324C107.914 10.5645 107.537 10.7988 107.174 10.9355C106.814 11.0723 106.428 11.1406 106.014 11.1406C105.33 11.1406 104.805 10.9746 104.438 10.6426C104.07 10.3066 103.887 9.87891 103.887 9.35938C103.887 9.05469 103.955 8.77734 104.092 8.52734C104.232 8.27344 104.414 8.07031 104.637 7.91797C104.863 7.76562 105.117 7.65039 105.398 7.57227C105.605 7.51758 105.918 7.46484 106.336 7.41406C107.188 7.3125 107.814 7.19141 108.217 7.05078C108.221 6.90625 108.223 6.81445 108.223 6.77539C108.223 6.3457 108.123 6.04297 107.924 5.86719C107.654 5.62891 107.254 5.50977 106.723 5.50977C106.227 5.50977 105.859 5.59766 105.621 5.77344C105.387 5.94531 105.213 6.25195 105.1 6.69336L104.068 6.55273C104.162 6.11133 104.316 5.75586 104.531 5.48633C104.746 5.21289 105.057 5.00391 105.463 4.85938C105.869 4.71094 106.34 4.63672 106.875 4.63672C107.406 4.63672 107.838 4.69922 108.17 4.82422C108.502 4.94922 108.746 5.10742 108.902 5.29883C109.059 5.48633 109.168 5.72461 109.23 6.01367C109.266 6.19336 109.283 6.51758 109.283 6.98633V8.39258C109.283 9.37305 109.305 9.99414 109.348 10.2559C109.395 10.5137 109.484 10.7617 109.617 11H108.516C108.406 10.7812 108.336 10.5254 108.305 10.2324ZM108.217 7.87695C107.834 8.0332 107.26 8.16602 106.494 8.27539C106.061 8.33789 105.754 8.4082 105.574 8.48633C105.395 8.56445 105.256 8.67969 105.158 8.83203C105.061 8.98047 105.012 9.14648 105.012 9.33008C105.012 9.61133 105.117 9.8457 105.328 10.0332C105.543 10.2207 105.855 10.3145 106.266 10.3145C106.672 10.3145 107.033 10.2266 107.35 10.0508C107.666 9.87109 107.898 9.62695 108.047 9.31836C108.16 9.08008 108.217 8.72852 108.217 8.26367V7.87695ZM110.924 13.3848V4.77734H111.885V5.58594C112.111 5.26953 112.367 5.0332 112.652 4.87695C112.938 4.7168 113.283 4.63672 113.689 4.63672C114.221 4.63672 114.689 4.77344 115.096 5.04688C115.502 5.32031 115.809 5.70703 116.016 6.20703C116.223 6.70312 116.326 7.24805 116.326 7.8418C116.326 8.47852 116.211 9.05273 115.98 9.56445C115.754 10.0723 115.422 10.4629 114.984 10.7363C114.551 11.0059 114.094 11.1406 113.613 11.1406C113.262 11.1406 112.945 11.0664 112.664 10.918C112.387 10.7695 112.158 10.582 111.979 10.3555V13.3848H110.924ZM111.879 7.92383C111.879 8.72461 112.041 9.31641 112.365 9.69922C112.689 10.082 113.082 10.2734 113.543 10.2734C114.012 10.2734 114.412 10.0762 114.744 9.68164C115.08 9.2832 115.248 8.66797 115.248 7.83594C115.248 7.04297 115.084 6.44922 114.756 6.05469C114.432 5.66016 114.043 5.46289 113.59 5.46289C113.141 5.46289 112.742 5.67383 112.395 6.0957C112.051 6.51367 111.879 7.12305 111.879 7.92383ZM121.664 10.2324C121.273 10.5645 120.896 10.7988 120.533 10.9355C120.174 11.0723 119.787 11.1406 119.373 11.1406C118.689 11.1406 118.164 10.9746 117.797 10.6426C117.43 10.3066 117.246 9.87891 117.246 9.35938C117.246 9.05469 117.314 8.77734 117.451 8.52734C117.592 8.27344 117.773 8.07031 117.996 7.91797C118.223 7.76562 118.477 7.65039 118.758 7.57227C118.965 7.51758 119.277 7.46484 119.695 7.41406C120.547 7.3125 121.174 7.19141 121.576 7.05078C121.58 6.90625 121.582 6.81445 121.582 6.77539C121.582 6.3457 121.482 6.04297 121.283 5.86719C121.014 5.62891 120.613 5.50977 120.082 5.50977C119.586 5.50977 119.219 5.59766 118.98 5.77344C118.746 5.94531 118.572 6.25195 118.459 6.69336L117.428 6.55273C117.521 6.11133 117.676 5.75586 117.891 5.48633C118.105 5.21289 118.416 5.00391 118.822 4.85938C119.229 4.71094 119.699 4.63672 120.234 4.63672C120.766 4.63672 121.197 4.69922 121.529 4.82422C121.861 4.94922 122.105 5.10742 122.262 5.29883C122.418 5.48633 122.527 5.72461 122.59 6.01367C122.625 6.19336 122.643 6.51758 122.643 6.98633V8.39258C122.643 9.37305 122.664 9.99414 122.707 10.2559C122.754 10.5137 122.844 10.7617 122.977 11H121.875C121.766 10.7812 121.695 10.5254 121.664 10.2324ZM121.576 7.87695C121.193 8.0332 120.619 8.16602 119.854 8.27539C119.42 8.33789 119.113 8.4082 118.934 8.48633C118.754 8.56445 118.615 8.67969 118.518 8.83203C118.42 8.98047 118.371 9.14648 118.371 9.33008C118.371 9.61133 118.477 9.8457 118.688 10.0332C118.902 10.2207 119.215 10.3145 119.625 10.3145C120.031 10.3145 120.393 10.2266 120.709 10.0508C121.025 9.87109 121.258 9.62695 121.406 9.31836C121.52 9.08008 121.576 8.72852 121.576 8.26367V7.87695Z"/>
  </symbol>
  <symbol id="svg-copy-id-2" viewBox="0 16 136 11">
    <path d="M0.791016 27.3848V18.7773H1.75195V19.5859C1.97852 19.2695 2.23438 19.0332 2.51953 18.877C2.80469 18.7168 3.15039 18.6367 3.55664 18.6367C4.08789 18.6367 4.55664 18.7734 4.96289 19.0469C5.36914 19.3203 5.67578 19.707 5.88281 20.207C6.08984 20.7031 6.19336 21.248 6.19336 21.8418C6.19336 22.4785 6.07812 23.0527 5.84766 23.5645C5.62109 24.0723 5.28906 24.4629 4.85156 24.7363C4.41797 25.0059 3.96094 25.1406 3.48047 25.1406C3.12891 25.1406 2.8125 25.0664 2.53125 24.918C2.25391 24.7695 2.02539 24.582 1.8457 24.3555V27.3848H0.791016ZM1.74609 21.9238C1.74609 22.7246 1.9082 23.3164 2.23242 23.6992C2.55664 24.082 2.94922 24.2734 3.41016 24.2734C3.87891 24.2734 4.2793 24.0762 4.61133 23.6816C4.94727 23.2832 5.11523 22.668 5.11523 21.8359C5.11523 21.043 4.95117 20.4492 4.62305 20.0547C4.29883 19.6602 3.91016 19.4629 3.45703 19.4629C3.00781 19.4629 2.60938 19.6738 2.26172 20.0957C1.91797 20.5137 1.74609 21.123 1.74609 21.9238ZM11.5488 25V24.0859C11.0645 24.7891 10.4062 25.1406 9.57422 25.1406C9.20703 25.1406 8.86328 25.0703 8.54297 24.9297C8.22656 24.7891 7.99023 24.6133 7.83398 24.4023C7.68164 24.1875 7.57422 23.9258 7.51172 23.6172C7.46875 23.4102 7.44727 23.082 7.44727 22.6328V18.7773H8.50195V22.2285C8.50195 22.7793 8.52344 23.1504 8.56641 23.3418C8.63281 23.6191 8.77344 23.8379 8.98828 23.998C9.20312 24.1543 9.46875 24.2324 9.78516 24.2324C10.1016 24.2324 10.3984 24.1523 10.6758 23.9922C10.9531 23.8281 11.1484 23.6074 11.2617 23.3301C11.3789 23.0488 11.4375 22.6426 11.4375 22.1113V18.7773H12.4922V25H11.5488ZM14.1504 25V18.7773H15.0996V19.6621C15.5566 18.9785 16.2168 18.6367 17.0801 18.6367C17.4551 18.6367 17.7988 18.7051 18.1113 18.8418C18.4277 18.9746 18.6641 19.1504 18.8203 19.3691C18.9766 19.5879 19.0859 19.8477 19.1484 20.1484C19.1875 20.3438 19.207 20.6855 19.207 21.1738V25H18.1523V21.2148C18.1523 20.7852 18.1113 20.4648 18.0293 20.2539C17.9473 20.0391 17.8008 19.8691 17.5898 19.7441C17.3828 19.6152 17.1387 19.5508 16.8574 19.5508C16.4082 19.5508 16.0195 19.6934 15.6914 19.9785C15.3672 20.2637 15.2051 20.8047 15.2051 21.6016V25H14.1504ZM28.207 25V24.2148C27.8125 24.832 27.2324 25.1406 26.4668 25.1406C25.9707 25.1406 25.5137 25.0039 25.0957 24.7305C24.6816 24.457 24.3594 24.0762 24.1289 23.5879C23.9023 23.0957 23.7891 22.5312 23.7891 21.8945C23.7891 21.2734 23.8926 20.7109 24.0996 20.207C24.3066 19.6992 24.6172 19.3105 25.0312 19.041C25.4453 18.7715 25.9082 18.6367 26.4199 18.6367C26.7949 18.6367 27.1289 18.7168 27.4219 18.877C27.7148 19.0332 27.9531 19.2383 28.1367 19.4922V16.4102H29.1855V25H28.207ZM24.873 21.8945C24.873 22.6914 25.041 23.2871 25.377 23.6816C25.7129 24.0762 26.1094 24.2734 26.5664 24.2734C27.0273 24.2734 27.418 24.0859 27.7383 23.7109C28.0625 23.332 28.2246 22.7559 28.2246 21.9824C28.2246 21.1309 28.0605 20.5059 27.7324 20.1074C27.4043 19.709 27 19.5098 26.5195 19.5098C26.0508 19.5098 25.6582 19.7012 25.3418 20.084C25.0293 20.4668 24.873 21.0703 24.873 21.8945ZM34.9102 24.2324C34.5195 24.5645 34.1426 24.7988 33.7793 24.9355C33.4199 25.0723 33.0332 25.1406 32.6191 25.1406C31.9355 25.1406 31.4102 24.9746 31.043 24.6426C30.6758 24.3066 30.4922 23.8789 30.4922 23.3594C30.4922 23.0547 30.5605 22.7773 30.6973 22.5273C30.8379 22.2734 31.0195 22.0703 31.2422 21.918C31.4688 21.7656 31.7227 21.6504 32.0039 21.5723C32.2109 21.5176 32.5234 21.4648 32.9414 21.4141C33.793 21.3125 34.4199 21.1914 34.8223 21.0508C34.8262 20.9062 34.8281 20.8145 34.8281 20.7754C34.8281 20.3457 34.7285 20.043 34.5293 19.8672C34.2598 19.6289 33.8594 19.5098 33.3281 19.5098C32.832 19.5098 32.4648 19.5977 32.2266 19.7734C31.9922 19.9453 31.8184 20.252 31.7051 20.6934L30.6738 20.5527C30.7676 20.1113 30.9219 19.7559 31.1367 19.4863C31.3516 19.2129 31.6621 19.0039 32.0684 18.8594C32.4746 18.7109 32.9453 18.6367 33.4805 18.6367C34.0117 18.6367 34.4434 18.6992 34.7754 18.8242C35.1074 18.9492 35.3516 19.1074 35.5078 19.2988C35.6641 19.4863 35.7734 19.7246 35.8359 20.0137C35.8711 20.1934 35.8887 20.5176 35.8887 20.9863V22.3926C35.8887 23.373 35.9102 23.9941 35.9531 24.2559C36 24.5137 36.0898 24.7617 36.2227 25H35.1211C35.0117 24.7812 34.9414 24.5254 34.9102 24.2324ZM34.8223 21.877C34.4395 22.0332 33.8652 22.166 33.0996 22.2754C32.666 22.3379 32.3594 22.4082 32.1797 22.4863C32 22.5645 31.8613 22.6797 31.7637 22.832C31.666 22.9805 31.6172 23.1465 31.6172 23.3301C31.6172 23.6113 31.7227 23.8457 31.9336 24.0332C32.1484 24.2207 32.4609 24.3145 32.8711 24.3145C33.2773 24.3145 33.6387 24.2266 33.9551 24.0508C34.2715 23.8711 34.5039 23.627 34.6523 23.3184C34.7656 23.0801 34.8223 22.7285 34.8223 22.2637V21.877ZM37.5176 25V18.7773H38.4668V19.7207C38.709 19.2793 38.9316 18.9883 39.1348 18.8477C39.3418 18.707 39.5684 18.6367 39.8145 18.6367C40.1699 18.6367 40.5312 18.75 40.8984 18.9766L40.5352 19.9551C40.2773 19.8027 40.0195 19.7266 39.7617 19.7266C39.5312 19.7266 39.3242 19.7969 39.1406 19.9375C38.957 20.0742 38.8262 20.2656 38.748 20.5117C38.6309 20.8867 38.5723 21.2969 38.5723 21.7422V25H37.5176ZM41.5312 17.623V16.4102H42.5859V17.623H41.5312ZM41.5312 25V18.7773H42.5859V25H41.5312ZM47.1152 23.1426L48.1582 22.9785C48.2168 23.3965 48.3789 23.7168 48.6445 23.9395C48.9141 24.1621 49.2891 24.2734 49.7695 24.2734C50.2539 24.2734 50.6133 24.1758 50.8477 23.9805C51.082 23.7812 51.1992 23.5488 51.1992 23.2832C51.1992 23.0449 51.0957 22.8574 50.8887 22.7207C50.7441 22.627 50.3848 22.5078 49.8105 22.3633C49.0371 22.168 48.5 22 48.1992 21.8594C47.9023 21.7148 47.6758 21.5176 47.5195 21.2676C47.3672 21.0137 47.291 20.7344 47.291 20.4297C47.291 20.1523 47.3535 19.8965 47.4785 19.6621C47.6074 19.4238 47.7812 19.2266 48 19.0703C48.1641 18.9492 48.3867 18.8477 48.668 18.7656C48.9531 18.6797 49.2578 18.6367 49.582 18.6367C50.0703 18.6367 50.498 18.707 50.8652 18.8477C51.2363 18.9883 51.5098 19.1797 51.6855 19.4219C51.8613 19.6602 51.9824 19.9805 52.0488 20.3828L51.0176 20.5234C50.9707 20.2031 50.834 19.9531 50.6074 19.7734C50.3848 19.5938 50.0684 19.5039 49.6582 19.5039C49.1738 19.5039 48.8281 19.584 48.6211 19.7441C48.4141 19.9043 48.3105 20.0918 48.3105 20.3066C48.3105 20.4434 48.3535 20.5664 48.4395 20.6758C48.5254 20.7891 48.6602 20.8828 48.8438 20.957C48.9492 20.9961 49.2598 21.0859 49.7754 21.2266C50.5215 21.4258 51.041 21.5898 51.334 21.7188C51.6309 21.8438 51.8633 22.0273 52.0312 22.2695C52.1992 22.5117 52.2832 22.8125 52.2832 23.1719C52.2832 23.5234 52.1797 23.8555 51.9727 24.168C51.7695 24.4766 51.4746 24.7168 51.0879 24.8887C50.7012 25.0566 50.2637 25.1406 49.7754 25.1406C48.9668 25.1406 48.3496 24.9727 47.9238 24.6367C47.502 24.3008 47.2324 23.8027 47.1152 23.1426ZM53.543 17.623V16.4102H54.5977V17.623H53.543ZM53.543 25V18.7773H54.5977V25H53.543ZM58.5117 24.0566L58.6641 24.9883C58.3672 25.0508 58.1016 25.082 57.8672 25.082C57.4844 25.082 57.1875 25.0215 56.9766 24.9004C56.7656 24.7793 56.6172 24.6211 56.5312 24.4258C56.4453 24.2266 56.4023 23.8105 56.4023 23.1777V19.5977H55.6289V18.7773H56.4023V17.2363L57.4512 16.6035V18.7773H58.5117V19.5977H57.4512V23.2363C57.4512 23.5371 57.4688 23.7305 57.5039 23.8164C57.543 23.9023 57.6035 23.9707 57.6855 24.0215C57.7715 24.0723 57.8926 24.0977 58.0488 24.0977C58.166 24.0977 58.3203 24.084 58.5117 24.0566ZM63.627 25V24.0859C63.1426 24.7891 62.4844 25.1406 61.6523 25.1406C61.2852 25.1406 60.9414 25.0703 60.6211 24.9297C60.3047 24.7891 60.0684 24.6133 59.9121 24.4023C59.7598 24.1875 59.6523 23.9258 59.5898 23.6172C59.5469 23.4102 59.5254 23.082 59.5254 22.6328V18.7773H60.5801V22.2285C60.5801 22.7793 60.6016 23.1504 60.6445 23.3418C60.7109 23.6191 60.8516 23.8379 61.0664 23.998C61.2812 24.1543 61.5469 24.2324 61.8633 24.2324C62.1797 24.2324 62.4766 24.1523 62.7539 23.9922C63.0312 23.8281 63.2266 23.6074 63.3398 23.3301C63.457 23.0488 63.5156 22.6426 63.5156 22.1113V18.7773H64.5703V25H63.627ZM65.8066 23.1426L66.8496 22.9785C66.9082 23.3965 67.0703 23.7168 67.3359 23.9395C67.6055 24.1621 67.9805 24.2734 68.4609 24.2734C68.9453 24.2734 69.3047 24.1758 69.5391 23.9805C69.7734 23.7812 69.8906 23.5488 69.8906 23.2832C69.8906 23.0449 69.7871 22.8574 69.5801 22.7207C69.4355 22.627 69.0762 22.5078 68.502 22.3633C67.7285 22.168 67.1914 22 66.8906 21.8594C66.5938 21.7148 66.3672 21.5176 66.2109 21.2676C66.0586 21.0137 65.9824 20.7344 65.9824 20.4297C65.9824 20.1523 66.0449 19.8965 66.1699 19.6621C66.2988 19.4238 66.4727 19.2266 66.6914 19.0703C66.8555 18.9492 67.0781 18.8477 67.3594 18.7656C67.6445 18.6797 67.9492 18.6367 68.2734 18.6367C68.7617 18.6367 69.1895 18.707 69.5566 18.8477C69.9277 18.9883 70.2012 19.1797 70.377 19.4219C70.5527 19.6602 70.6738 19.9805 70.7402 20.3828L69.709 20.5234C69.6621 20.2031 69.5254 19.9531 69.2988 19.7734C69.0762 19.5938 68.7598 19.5039 68.3496 19.5039C67.8652 19.5039 67.5195 19.584 67.3125 19.7441C67.1055 19.9043 67.002 20.0918 67.002 20.3066C67.002 20.4434 67.0449 20.5664 67.1309 20.6758C67.2168 20.7891 67.3516 20.8828 67.5352 20.957C67.6406 20.9961 67.9512 21.0859 68.4668 21.2266C69.2129 21.4258 69.7324 21.5898 70.0254 21.7188C70.3223 21.8438 70.5547 22.0273 70.7227 22.2695C70.8906 22.5117 70.9746 22.8125 70.9746 23.1719C70.9746 23.5234 70.8711 23.8555 70.6641 24.168C70.4609 24.4766 70.166 24.7168 69.7793 24.8887C69.3926 25.0566 68.9551 25.1406 68.4668 25.1406C67.6582 25.1406 67.041 24.9727 66.6152 24.6367C66.1934 24.3008 65.9238 23.8027 65.8066 23.1426ZM76.7168 25L74.8125 18.7773H75.9023L76.8926 22.3691L77.2617 23.7051C77.2773 23.6387 77.3848 23.2109 77.584 22.4219L78.5742 18.7773H79.6582L80.5898 22.3867L80.9004 23.5762L81.2578 22.375L82.3242 18.7773H83.3496L81.4043 25H80.3086L79.3184 21.2734L79.0781 20.2129L77.8184 25H76.7168ZM88.5 22.9961L89.5898 23.1309C89.418 23.7676 89.0996 24.2617 88.6348 24.6133C88.1699 24.9648 87.5762 25.1406 86.8535 25.1406C85.9434 25.1406 85.2207 24.8613 84.6855 24.3027C84.1543 23.7402 83.8887 22.9531 83.8887 21.9414C83.8887 20.8945 84.1582 20.082 84.6973 19.5039C85.2363 18.9258 85.9355 18.6367 86.7949 18.6367C87.627 18.6367 88.3066 18.9199 88.834 19.4863C89.3613 20.0527 89.625 20.8496 89.625 21.877C89.625 21.9395 89.623 22.0332 89.6191 22.1582H84.9785C85.0176 22.8418 85.2109 23.3652 85.5586 23.7285C85.9062 24.0918 86.3398 24.2734 86.8594 24.2734C87.2461 24.2734 87.5762 24.1719 87.8496 23.9688C88.123 23.7656 88.3398 23.4414 88.5 22.9961ZM85.0371 21.291H88.5117C88.4648 20.7676 88.332 20.375 88.1133 20.1133C87.7773 19.707 87.3418 19.5039 86.8066 19.5039C86.3223 19.5039 85.9141 19.666 85.582 19.9902C85.2539 20.3145 85.0723 20.748 85.0371 21.291ZM91.8926 25H90.9141V16.4102H91.9688V19.4746C92.4141 18.916 92.9824 18.6367 93.6738 18.6367C94.0566 18.6367 94.418 18.7148 94.7578 18.8711C95.1016 19.0234 95.3828 19.2402 95.6016 19.5215C95.8242 19.7988 95.998 20.1348 96.123 20.5293C96.248 20.9238 96.3105 21.3457 96.3105 21.7949C96.3105 22.8613 96.0469 23.6855 95.5195 24.2676C94.9922 24.8496 94.3594 25.1406 93.6211 25.1406C92.8867 25.1406 92.3105 24.834 91.8926 24.2207V25ZM91.8809 21.8418C91.8809 22.5879 91.9824 23.127 92.1855 23.459C92.5176 24.002 92.9668 24.2734 93.5332 24.2734C93.9941 24.2734 94.3926 24.0742 94.7285 23.6758C95.0645 23.2734 95.2324 22.6758 95.2324 21.8828C95.2324 21.0703 95.0703 20.4707 94.7461 20.084C94.4258 19.6973 94.0371 19.5039 93.5801 19.5039C93.1191 19.5039 92.7207 19.7051 92.3848 20.1074C92.0488 20.5059 91.8809 21.084 91.8809 21.8418ZM100.945 17.623V16.4102H102V17.623H100.945ZM100.945 25V18.7773H102V25H100.945ZM103.611 25V18.7773H104.561V19.6621C105.018 18.9785 105.678 18.6367 106.541 18.6367C106.916 18.6367 107.26 18.7051 107.572 18.8418C107.889 18.9746 108.125 19.1504 108.281 19.3691C108.438 19.5879 108.547 19.8477 108.609 20.1484C108.648 20.3438 108.668 20.6855 108.668 21.1738V25H107.613V21.2148C107.613 20.7852 107.572 20.4648 107.49 20.2539C107.408 20.0391 107.262 19.8691 107.051 19.7441C106.844 19.6152 106.6 19.5508 106.318 19.5508C105.869 19.5508 105.48 19.6934 105.152 19.9785C104.828 20.2637 104.666 20.8047 104.666 21.6016V25H103.611ZM110.297 17.623V16.4102H111.352V17.623H110.297ZM110.297 25V18.7773H111.352V25H110.297ZM120.34 25V24.2148C119.945 24.832 119.365 25.1406 118.6 25.1406C118.104 25.1406 117.646 25.0039 117.229 24.7305C116.814 24.457 116.492 24.0762 116.262 23.5879C116.035 23.0957 115.922 22.5312 115.922 21.8945C115.922 21.2734 116.025 20.7109 116.232 20.207C116.439 19.6992 116.75 19.3105 117.164 19.041C117.578 18.7715 118.041 18.6367 118.553 18.6367C118.928 18.6367 119.262 18.7168 119.555 18.877C119.848 19.0332 120.086 19.2383 120.27 19.4922V16.4102H121.318V25H120.34ZM117.006 21.8945C117.006 22.6914 117.174 23.2871 117.51 23.6816C117.846 24.0762 118.242 24.2734 118.699 24.2734C119.16 24.2734 119.551 24.0859 119.871 23.7109C120.195 23.332 120.357 22.7559 120.357 21.9824C120.357 21.1309 120.193 20.5059 119.865 20.1074C119.537 19.709 119.133 19.5098 118.652 19.5098C118.184 19.5098 117.791 19.7012 117.475 20.084C117.162 20.4668 117.006 21.0703 117.006 21.8945ZM127.043 24.2324C126.652 24.5645 126.275 24.7988 125.912 24.9355C125.553 25.0723 125.166 25.1406 124.752 25.1406C124.068 25.1406 123.543 24.9746 123.176 24.6426C122.809 24.3066 122.625 23.8789 122.625 23.3594C122.625 23.0547 122.693 22.7773 122.83 22.5273C122.971 22.2734 123.152 22.0703 123.375 21.918C123.602 21.7656 123.855 21.6504 124.137 21.5723C124.344 21.5176 124.656 21.4648 125.074 21.4141C125.926 21.3125 126.553 21.1914 126.955 21.0508C126.959 20.9062 126.961 20.8145 126.961 20.7754C126.961 20.3457 126.861 20.043 126.662 19.8672C126.393 19.6289 125.992 19.5098 125.461 19.5098C124.965 19.5098 124.598 19.5977 124.359 19.7734C124.125 19.9453 123.951 20.252 123.838 20.6934L122.807 20.5527C122.9 20.1113 123.055 19.7559 123.27 19.4863C123.484 19.2129 123.795 19.0039 124.201 18.8594C124.607 18.7109 125.078 18.6367 125.613 18.6367C126.145 18.6367 126.576 18.6992 126.908 18.8242C127.24 18.9492 127.484 19.1074 127.641 19.2988C127.797 19.4863 127.906 19.7246 127.969 20.0137C128.004 20.1934 128.021 20.5176 128.021 20.9863V22.3926C128.021 23.373 128.043 23.9941 128.086 24.2559C128.133 24.5137 128.223 24.7617 128.355 25H127.254C127.145 24.7812 127.074 24.5254 127.043 24.2324ZM126.955 21.877C126.572 22.0332 125.998 22.166 125.232 22.2754C124.799 22.3379 124.492 22.4082 124.312 22.4863C124.133 22.5645 123.994 22.6797 123.896 22.832C123.799 22.9805 123.75 23.1465 123.75 23.3301C123.75 23.6113 123.855 23.8457 124.066 24.0332C124.281 24.2207 124.594 24.3145 125.004 24.3145C125.41 24.3145 125.771 24.2266 126.088 24.0508C126.404 23.8711 126.637 23.627 126.785 23.3184C126.898 23.0801 126.955 22.7285 126.955 22.2637V21.877ZM129.662 25V18.7773H130.611V19.6621C131.068 18.9785 131.729 18.6367 132.592 18.6367C132.967 18.6367 133.311 18.7051 133.623 18.8418C133.939 18.9746 134.176 19.1504 134.332 19.3691C134.488 19.5879 134.598 19.8477 134.66 20.1484C134.699 20.3438 134.719 20.6855 134.719 21.1738V25H133.664V21.2148C133.664 20.7852 133.623 20.4648 133.541 20.2539C133.459 20.0391 133.312 19.8691 133.102 19.7441C132.895 19.6152 132.65 19.5508 132.369 19.5508C131.92 19.5508 131.531 19.6934 131.203 19.9785C130.879 20.2637 130.717 20.8047 130.717 21.6016V25H129.662Z"/>
  </symbol>
  <symbol id="svg-copy-id-3" viewBox="0 30 124 12">
    <path d="M0.791016 39V32.7773H1.73438V33.6504C1.92969 33.3457 2.18945 33.1016 2.51367 32.918C2.83789 32.7305 3.20703 32.6367 3.62109 32.6367C4.08203 32.6367 4.45898 32.7324 4.75195 32.9238C5.04883 33.1152 5.25781 33.3828 5.37891 33.7266C5.87109 33 6.51172 32.6367 7.30078 32.6367C7.91797 32.6367 8.39258 32.8086 8.72461 33.1523C9.05664 33.4922 9.22266 34.0176 9.22266 34.7285V39H8.17383V35.0801C8.17383 34.6582 8.13867 34.3555 8.06836 34.1719C8.00195 33.9844 7.87891 33.834 7.69922 33.7207C7.51953 33.6074 7.30859 33.5508 7.06641 33.5508C6.62891 33.5508 6.26562 33.6973 5.97656 33.9902C5.6875 34.2793 5.54297 34.7441 5.54297 35.3848V39H4.48828V34.957C4.48828 34.4883 4.40234 34.1367 4.23047 33.9023C4.05859 33.668 3.77734 33.5508 3.38672 33.5508C3.08984 33.5508 2.81445 33.6289 2.56055 33.7852C2.31055 33.9414 2.12891 34.1699 2.01562 34.4707C1.90234 34.7715 1.8457 35.2051 1.8457 35.7715V39H0.791016ZM15.0469 36.9961L16.1367 37.1309C15.9648 37.7676 15.6465 38.2617 15.1816 38.6133C14.7168 38.9648 14.123 39.1406 13.4004 39.1406C12.4902 39.1406 11.7676 38.8613 11.2324 38.3027C10.7012 37.7402 10.4355 36.9531 10.4355 35.9414C10.4355 34.8945 10.7051 34.082 11.2441 33.5039C11.7832 32.9258 12.4824 32.6367 13.3418 32.6367C14.1738 32.6367 14.8535 32.9199 15.3809 33.4863C15.9082 34.0527 16.1719 34.8496 16.1719 35.877C16.1719 35.9395 16.1699 36.0332 16.166 36.1582H11.5254C11.5645 36.8418 11.7578 37.3652 12.1055 37.7285C12.4531 38.0918 12.8867 38.2734 13.4062 38.2734C13.793 38.2734 14.123 38.1719 14.3965 37.9688C14.6699 37.7656 14.8867 37.4414 15.0469 36.9961ZM11.584 35.291H15.0586C15.0117 34.7676 14.8789 34.375 14.6602 34.1133C14.3242 33.707 13.8887 33.5039 13.3535 33.5039C12.8691 33.5039 12.4609 33.666 12.1289 33.9902C11.8008 34.3145 11.6191 34.748 11.584 35.291ZM17.4668 39V32.7773H18.416V33.6621C18.873 32.9785 19.5332 32.6367 20.3965 32.6367C20.7715 32.6367 21.1152 32.7051 21.4277 32.8418C21.7441 32.9746 21.9805 33.1504 22.1367 33.3691C22.293 33.5879 22.4023 33.8477 22.4648 34.1484C22.5039 34.3438 22.5234 34.6855 22.5234 35.1738V39H21.4688V35.2148C21.4688 34.7852 21.4277 34.4648 21.3457 34.2539C21.2637 34.0391 21.1172 33.8691 20.9062 33.7441C20.6992 33.6152 20.4551 33.5508 20.1738 33.5508C19.7246 33.5508 19.3359 33.6934 19.0078 33.9785C18.6836 34.2637 18.5215 34.8047 18.5215 35.6016V39H17.4668ZM23.9531 39.5156L24.9785 39.668C25.0215 39.9844 25.1406 40.2148 25.3359 40.3594C25.5977 40.5547 25.9551 40.6523 26.4082 40.6523C26.8965 40.6523 27.2734 40.5547 27.5391 40.3594C27.8047 40.1641 27.9844 39.8906 28.0781 39.5391C28.1328 39.3242 28.1582 38.873 28.1543 38.1855C27.6934 38.7285 27.1191 39 26.4316 39C25.5762 39 24.9141 38.6914 24.4453 38.0742C23.9766 37.457 23.7422 36.7168 23.7422 35.8535C23.7422 35.2598 23.8496 34.7129 24.0645 34.2129C24.2793 33.709 24.5898 33.3203 24.9961 33.0469C25.4062 32.7734 25.8867 32.6367 26.4375 32.6367C27.1719 32.6367 27.7773 32.9336 28.2539 33.5273V32.7773H29.2266V38.1562C29.2266 39.125 29.127 39.8105 28.9277 40.2129C28.7324 40.6191 28.4199 40.9395 27.9902 41.1738C27.5645 41.4082 27.0391 41.5254 26.4141 41.5254C25.6719 41.5254 25.0723 41.3574 24.6152 41.0215C24.1582 40.6895 23.9375 40.1875 23.9531 39.5156ZM24.8262 35.7773C24.8262 36.5938 24.9883 37.1895 25.3125 37.5645C25.6367 37.9395 26.043 38.127 26.5312 38.127C27.0156 38.127 27.4219 37.9414 27.75 37.5703C28.0781 37.1953 28.2422 36.6094 28.2422 35.8125C28.2422 35.0508 28.0723 34.4766 27.7324 34.0898C27.3965 33.7031 26.9902 33.5098 26.5137 33.5098C26.0449 33.5098 25.6465 33.7012 25.3184 34.084C24.9902 34.4629 24.8262 35.0273 24.8262 35.7773ZM30.6328 39.5156L31.6582 39.668C31.7012 39.9844 31.8203 40.2148 32.0156 40.3594C32.2773 40.5547 32.6348 40.6523 33.0879 40.6523C33.5762 40.6523 33.9531 40.5547 34.2188 40.3594C34.4844 40.1641 34.6641 39.8906 34.7578 39.5391C34.8125 39.3242 34.8379 38.873 34.834 38.1855C34.373 38.7285 33.7988 39 33.1113 39C32.2559 39 31.5938 38.6914 31.125 38.0742C30.6562 37.457 30.4219 36.7168 30.4219 35.8535C30.4219 35.2598 30.5293 34.7129 30.7441 34.2129C30.959 33.709 31.2695 33.3203 31.6758 33.0469C32.0859 32.7734 32.5664 32.6367 33.1172 32.6367C33.8516 32.6367 34.457 32.9336 34.9336 33.5273V32.7773H35.9062V38.1562C35.9062 39.125 35.8066 39.8105 35.6074 40.2129C35.4121 40.6191 35.0996 40.9395 34.6699 41.1738C34.2441 41.4082 33.7188 41.5254 33.0938 41.5254C32.3516 41.5254 31.752 41.3574 31.2949 41.0215C30.8379 40.6895 30.6172 40.1875 30.6328 39.5156ZM31.5059 35.7773C31.5059 36.5938 31.668 37.1895 31.9922 37.5645C32.3164 37.9395 32.7227 38.127 33.2109 38.127C33.6953 38.127 34.1016 37.9414 34.4297 37.5703C34.7578 37.1953 34.9219 36.6094 34.9219 35.8125C34.9219 35.0508 34.752 34.4766 34.4121 34.0898C34.0762 33.7031 33.6699 33.5098 33.1934 33.5098C32.7246 33.5098 32.3262 33.7012 31.998 34.084C31.6699 34.4629 31.5059 35.0273 31.5059 35.7773ZM41.584 39V38.0859C41.0996 38.7891 40.4414 39.1406 39.6094 39.1406C39.2422 39.1406 38.8984 39.0703 38.5781 38.9297C38.2617 38.7891 38.0254 38.6133 37.8691 38.4023C37.7168 38.1875 37.6094 37.9258 37.5469 37.6172C37.5039 37.4102 37.4824 37.082 37.4824 36.6328V32.7773H38.5371V36.2285C38.5371 36.7793 38.5586 37.1504 38.6016 37.3418C38.668 37.6191 38.8086 37.8379 39.0234 37.998C39.2383 38.1543 39.5039 38.2324 39.8203 38.2324C40.1367 38.2324 40.4336 38.1523 40.7109 37.9922C40.9883 37.8281 41.1836 37.6074 41.2969 37.3301C41.4141 37.0488 41.4727 36.6426 41.4727 36.1113V32.7773H42.5273V39H41.584ZM44.1855 39V32.7773H45.1348V33.6621C45.5918 32.9785 46.252 32.6367 47.1152 32.6367C47.4902 32.6367 47.834 32.7051 48.1465 32.8418C48.4629 32.9746 48.6992 33.1504 48.8555 33.3691C49.0117 33.5879 49.1211 33.8477 49.1836 34.1484C49.2227 34.3438 49.2422 34.6855 49.2422 35.1738V39H48.1875V35.2148C48.1875 34.7852 48.1465 34.4648 48.0645 34.2539C47.9824 34.0391 47.8359 33.8691 47.625 33.7441C47.418 33.6152 47.1738 33.5508 46.8926 33.5508C46.4434 33.5508 46.0547 33.6934 45.7266 33.9785C45.4023 34.2637 45.2402 34.8047 45.2402 35.6016V39H44.1855ZM54.9258 38.2324C54.5352 38.5645 54.1582 38.7988 53.7949 38.9355C53.4355 39.0723 53.0488 39.1406 52.6348 39.1406C51.9512 39.1406 51.4258 38.9746 51.0586 38.6426C50.6914 38.3066 50.5078 37.8789 50.5078 37.3594C50.5078 37.0547 50.5762 36.7773 50.7129 36.5273C50.8535 36.2734 51.0352 36.0703 51.2578 35.918C51.4844 35.7656 51.7383 35.6504 52.0195 35.5723C52.2266 35.5176 52.5391 35.4648 52.957 35.4141C53.8086 35.3125 54.4355 35.1914 54.8379 35.0508C54.8418 34.9062 54.8438 34.8145 54.8438 34.7754C54.8438 34.3457 54.7441 34.043 54.5449 33.8672C54.2754 33.6289 53.875 33.5098 53.3438 33.5098C52.8477 33.5098 52.4805 33.5977 52.2422 33.7734C52.0078 33.9453 51.834 34.252 51.7207 34.6934L50.6895 34.5527C50.7832 34.1113 50.9375 33.7559 51.1523 33.4863C51.3672 33.2129 51.6777 33.0039 52.084 32.8594C52.4902 32.7109 52.9609 32.6367 53.4961 32.6367C54.0273 32.6367 54.459 32.6992 54.791 32.8242C55.123 32.9492 55.3672 33.1074 55.5234 33.2988C55.6797 33.4863 55.7891 33.7246 55.8516 34.0137C55.8867 34.1934 55.9043 34.5176 55.9043 34.9863V36.3926C55.9043 37.373 55.9258 37.9941 55.9688 38.2559C56.0156 38.5137 56.1055 38.7617 56.2383 39H55.1367C55.0273 38.7812 54.957 38.5254 54.9258 38.2324ZM54.8379 35.877C54.4551 36.0332 53.8809 36.166 53.1152 36.2754C52.6816 36.3379 52.375 36.4082 52.1953 36.4863C52.0156 36.5645 51.877 36.6797 51.7793 36.832C51.6816 36.9805 51.6328 37.1465 51.6328 37.3301C51.6328 37.6113 51.7383 37.8457 51.9492 38.0332C52.1641 38.2207 52.4766 38.3145 52.8867 38.3145C53.293 38.3145 53.6543 38.2266 53.9707 38.0508C54.2871 37.8711 54.5195 37.627 54.668 37.3184C54.7812 37.0801 54.8379 36.7285 54.8379 36.2637V35.877ZM57.5508 39V30.4102H58.6055V35.3086L61.1016 32.7773H62.4668L60.0879 35.0859L62.707 39H61.4062L59.3496 35.8184L58.6055 36.5332V39H57.5508ZM67.6055 38.2324C67.2148 38.5645 66.8379 38.7988 66.4746 38.9355C66.1152 39.0723 65.7285 39.1406 65.3145 39.1406C64.6309 39.1406 64.1055 38.9746 63.7383 38.6426C63.3711 38.3066 63.1875 37.8789 63.1875 37.3594C63.1875 37.0547 63.2559 36.7773 63.3926 36.5273C63.5332 36.2734 63.7148 36.0703 63.9375 35.918C64.1641 35.7656 64.418 35.6504 64.6992 35.5723C64.9062 35.5176 65.2188 35.4648 65.6367 35.4141C66.4883 35.3125 67.1152 35.1914 67.5176 35.0508C67.5215 34.9062 67.5234 34.8145 67.5234 34.7754C67.5234 34.3457 67.4238 34.043 67.2246 33.8672C66.9551 33.6289 66.5547 33.5098 66.0234 33.5098C65.5273 33.5098 65.1602 33.5977 64.9219 33.7734C64.6875 33.9453 64.5137 34.252 64.4004 34.6934L63.3691 34.5527C63.4629 34.1113 63.6172 33.7559 63.832 33.4863C64.0469 33.2129 64.3574 33.0039 64.7637 32.8594C65.1699 32.7109 65.6406 32.6367 66.1758 32.6367C66.707 32.6367 67.1387 32.6992 67.4707 32.8242C67.8027 32.9492 68.0469 33.1074 68.2031 33.2988C68.3594 33.4863 68.4688 33.7246 68.5312 34.0137C68.5664 34.1934 68.584 34.5176 68.584 34.9863V36.3926C68.584 37.373 68.6055 37.9941 68.6484 38.2559C68.6953 38.5137 68.7852 38.7617 68.918 39H67.8164C67.707 38.7812 67.6367 38.5254 67.6055 38.2324ZM67.5176 35.877C67.1348 36.0332 66.5605 36.166 65.7949 36.2754C65.3613 36.3379 65.0547 36.4082 64.875 36.4863C64.6953 36.5645 64.5566 36.6797 64.459 36.832C64.3613 36.9805 64.3125 37.1465 64.3125 37.3301C64.3125 37.6113 64.418 37.8457 64.6289 38.0332C64.8438 38.2207 65.1562 38.3145 65.5664 38.3145C65.9727 38.3145 66.334 38.2266 66.6504 38.0508C66.9668 37.8711 67.1992 37.627 67.3477 37.3184C67.4609 37.0801 67.5176 36.7285 67.5176 36.2637V35.877ZM70.2246 39V32.7773H71.1738V33.6621C71.6309 32.9785 72.291 32.6367 73.1543 32.6367C73.5293 32.6367 73.873 32.7051 74.1855 32.8418C74.502 32.9746 74.7383 33.1504 74.8945 33.3691C75.0508 33.5879 75.1602 33.8477 75.2227 34.1484C75.2617 34.3438 75.2812 34.6855 75.2812 35.1738V39H74.2266V35.2148C74.2266 34.7852 74.1855 34.4648 74.1035 34.2539C74.0215 34.0391 73.875 33.8691 73.6641 33.7441C73.457 33.6152 73.2129 33.5508 72.9316 33.5508C72.4824 33.5508 72.0938 33.6934 71.7656 33.9785C71.4414 34.2637 71.2793 34.8047 71.2793 35.6016V39H70.2246ZM80.25 39V30.4102H81.3047V35.3086L83.8008 32.7773H85.166L82.7871 35.0859L85.4062 39H84.1055L82.0488 35.8184L81.3047 36.5332V39H80.25ZM90.3047 38.2324C89.9141 38.5645 89.5371 38.7988 89.1738 38.9355C88.8145 39.0723 88.4277 39.1406 88.0137 39.1406C87.3301 39.1406 86.8047 38.9746 86.4375 38.6426C86.0703 38.3066 85.8867 37.8789 85.8867 37.3594C85.8867 37.0547 85.9551 36.7773 86.0918 36.5273C86.2324 36.2734 86.4141 36.0703 86.6367 35.918C86.8633 35.7656 87.1172 35.6504 87.3984 35.5723C87.6055 35.5176 87.918 35.4648 88.3359 35.4141C89.1875 35.3125 89.8145 35.1914 90.2168 35.0508C90.2207 34.9062 90.2227 34.8145 90.2227 34.7754C90.2227 34.3457 90.123 34.043 89.9238 33.8672C89.6543 33.6289 89.2539 33.5098 88.7227 33.5098C88.2266 33.5098 87.8594 33.5977 87.6211 33.7734C87.3867 33.9453 87.2129 34.252 87.0996 34.6934L86.0684 34.5527C86.1621 34.1113 86.3164 33.7559 86.5312 33.4863C86.7461 33.2129 87.0566 33.0039 87.4629 32.8594C87.8691 32.7109 88.3398 32.6367 88.875 32.6367C89.4062 32.6367 89.8379 32.6992 90.1699 32.8242C90.502 32.9492 90.7461 33.1074 90.9023 33.2988C91.0586 33.4863 91.168 33.7246 91.2305 34.0137C91.2656 34.1934 91.2832 34.5176 91.2832 34.9863V36.3926C91.2832 37.373 91.3047 37.9941 91.3477 38.2559C91.3945 38.5137 91.4844 38.7617 91.6172 39H90.5156C90.4062 38.7812 90.3359 38.5254 90.3047 38.2324ZM90.2168 35.877C89.834 36.0332 89.2598 36.166 88.4941 36.2754C88.0605 36.3379 87.7539 36.4082 87.5742 36.4863C87.3945 36.5645 87.2559 36.6797 87.1582 36.832C87.0605 36.9805 87.0117 37.1465 87.0117 37.3301C87.0117 37.6113 87.1172 37.8457 87.3281 38.0332C87.543 38.2207 87.8555 38.3145 88.2656 38.3145C88.6719 38.3145 89.0332 38.2266 89.3496 38.0508C89.666 37.8711 89.8984 37.627 90.0469 37.3184C90.1602 37.0801 90.2168 36.7285 90.2168 36.2637V35.877ZM92.9121 39V32.7773H93.8613V33.7207C94.1035 33.2793 94.3262 32.9883 94.5293 32.8477C94.7363 32.707 94.9629 32.6367 95.209 32.6367C95.5645 32.6367 95.9258 32.75 96.293 32.9766L95.9297 33.9551C95.6719 33.8027 95.4141 33.7266 95.1562 33.7266C94.9258 33.7266 94.7188 33.7969 94.5352 33.9375C94.3516 34.0742 94.2207 34.2656 94.1426 34.5117C94.0254 34.8867 93.9668 35.2969 93.9668 35.7422V39H92.9121ZM100.98 38.2324C100.59 38.5645 100.213 38.7988 99.8496 38.9355C99.4902 39.0723 99.1035 39.1406 98.6895 39.1406C98.0059 39.1406 97.4805 38.9746 97.1133 38.6426C96.7461 38.3066 96.5625 37.8789 96.5625 37.3594C96.5625 37.0547 96.6309 36.7773 96.7676 36.5273C96.9082 36.2734 97.0898 36.0703 97.3125 35.918C97.5391 35.7656 97.793 35.6504 98.0742 35.5723C98.2812 35.5176 98.5938 35.4648 99.0117 35.4141C99.8633 35.3125 100.49 35.1914 100.893 35.0508C100.896 34.9062 100.898 34.8145 100.898 34.7754C100.898 34.3457 100.799 34.043 100.6 33.8672C100.33 33.6289 99.9297 33.5098 99.3984 33.5098C98.9023 33.5098 98.5352 33.5977 98.2969 33.7734C98.0625 33.9453 97.8887 34.252 97.7754 34.6934L96.7441 34.5527C96.8379 34.1113 96.9922 33.7559 97.207 33.4863C97.4219 33.2129 97.7324 33.0039 98.1387 32.8594C98.5449 32.7109 99.0156 32.6367 99.5508 32.6367C100.082 32.6367 100.514 32.6992 100.846 32.8242C101.178 32.9492 101.422 33.1074 101.578 33.2988C101.734 33.4863 101.844 33.7246 101.906 34.0137C101.941 34.1934 101.959 34.5176 101.959 34.9863V36.3926C101.959 37.373 101.98 37.9941 102.023 38.2559C102.07 38.5137 102.16 38.7617 102.293 39H101.191C101.082 38.7812 101.012 38.5254 100.98 38.2324ZM100.893 35.877C100.51 36.0332 99.9355 36.166 99.1699 36.2754C98.7363 36.3379 98.4297 36.4082 98.25 36.4863C98.0703 36.5645 97.9316 36.6797 97.834 36.832C97.7363 36.9805 97.6875 37.1465 97.6875 37.3301C97.6875 37.6113 97.793 37.8457 98.0039 38.0332C98.2188 38.2207 98.5312 38.3145 98.9414 38.3145C99.3477 38.3145 99.709 38.2266 100.025 38.0508C100.342 37.8711 100.574 37.627 100.723 37.3184C100.836 37.0801 100.893 36.7285 100.893 36.2637V35.877ZM103.605 39V30.4102H104.66V35.3086L107.156 32.7773H108.521L106.143 35.0859L108.762 39H107.461L105.404 35.8184L104.66 36.5332V39H103.605ZM111.902 38.0566L112.055 38.9883C111.758 39.0508 111.492 39.082 111.258 39.082C110.875 39.082 110.578 39.0215 110.367 38.9004C110.156 38.7793 110.008 38.6211 109.922 38.4258C109.836 38.2266 109.793 37.8105 109.793 37.1777V33.5977H109.02V32.7773H109.793V31.2363L110.842 30.6035V32.7773H111.902V33.5977H110.842V37.2363C110.842 37.5371 110.859 37.7305 110.895 37.8164C110.934 37.9023 110.994 37.9707 111.076 38.0215C111.162 38.0723 111.283 38.0977 111.439 38.0977C111.557 38.0977 111.711 38.084 111.902 38.0566ZM117.199 36.9961L118.289 37.1309C118.117 37.7676 117.799 38.2617 117.334 38.6133C116.869 38.9648 116.275 39.1406 115.553 39.1406C114.643 39.1406 113.92 38.8613 113.385 38.3027C112.854 37.7402 112.588 36.9531 112.588 35.9414C112.588 34.8945 112.857 34.082 113.396 33.5039C113.936 32.9258 114.635 32.6367 115.494 32.6367C116.326 32.6367 117.006 32.9199 117.533 33.4863C118.061 34.0527 118.324 34.8496 118.324 35.877C118.324 35.9395 118.322 36.0332 118.318 36.1582H113.678C113.717 36.8418 113.91 37.3652 114.258 37.7285C114.605 38.0918 115.039 38.2734 115.559 38.2734C115.945 38.2734 116.275 38.1719 116.549 37.9688C116.822 37.7656 117.039 37.4414 117.199 36.9961ZM113.736 35.291H117.211C117.164 34.7676 117.031 34.375 116.812 34.1133C116.477 33.707 116.041 33.5039 115.506 33.5039C115.021 33.5039 114.613 33.666 114.281 33.9902C113.953 34.3145 113.771 34.748 113.736 35.291ZM119.607 39V32.7773H120.557V33.7207C120.799 33.2793 121.021 32.9883 121.225 32.8477C121.432 32.707 121.658 32.6367 121.904 32.6367C122.26 32.6367 122.621 32.75 122.988 32.9766L122.625 33.9551C122.367 33.8027 122.109 33.7266 121.852 33.7266C121.621 33.7266 121.414 33.7969 121.23 33.9375C121.047 34.0742 120.916 34.2656 120.838 34.5117C120.721 34.8867 120.662 35.2969 120.662 35.7422V39H119.607Z"/>
  </symbol>
  <symbol id="svg-copy-id-4" viewBox="0 44 122 12">
    <path d="M0.791016 53V46.7773H1.73438V47.6504C1.92969 47.3457 2.18945 47.1016 2.51367 46.918C2.83789 46.7305 3.20703 46.6367 3.62109 46.6367C4.08203 46.6367 4.45898 46.7324 4.75195 46.9238C5.04883 47.1152 5.25781 47.3828 5.37891 47.7266C5.87109 47 6.51172 46.6367 7.30078 46.6367C7.91797 46.6367 8.39258 46.8086 8.72461 47.1523C9.05664 47.4922 9.22266 48.0176 9.22266 48.7285V53H8.17383V49.0801C8.17383 48.6582 8.13867 48.3555 8.06836 48.1719C8.00195 47.9844 7.87891 47.834 7.69922 47.7207C7.51953 47.6074 7.30859 47.5508 7.06641 47.5508C6.62891 47.5508 6.26562 47.6973 5.97656 47.9902C5.6875 48.2793 5.54297 48.7441 5.54297 49.3848V53H4.48828V48.957C4.48828 48.4883 4.40234 48.1367 4.23047 47.9023C4.05859 47.668 3.77734 47.5508 3.38672 47.5508C3.08984 47.5508 2.81445 47.6289 2.56055 47.7852C2.31055 47.9414 2.12891 48.1699 2.01562 48.4707C1.90234 48.7715 1.8457 49.2051 1.8457 49.7715V53H0.791016ZM15.0469 50.9961L16.1367 51.1309C15.9648 51.7676 15.6465 52.2617 15.1816 52.6133C14.7168 52.9648 14.123 53.1406 13.4004 53.1406C12.4902 53.1406 11.7676 52.8613 11.2324 52.3027C10.7012 51.7402 10.4355 50.9531 10.4355 49.9414C10.4355 48.8945 10.7051 48.082 11.2441 47.5039C11.7832 46.9258 12.4824 46.6367 13.3418 46.6367C14.1738 46.6367 14.8535 46.9199 15.3809 47.4863C15.9082 48.0527 16.1719 48.8496 16.1719 49.877C16.1719 49.9395 16.1699 50.0332 16.166 50.1582H11.5254C11.5645 50.8418 11.7578 51.3652 12.1055 51.7285C12.4531 52.0918 12.8867 52.2734 13.4062 52.2734C13.793 52.2734 14.123 52.1719 14.3965 51.9688C14.6699 51.7656 14.8867 51.4414 15.0469 50.9961ZM11.584 49.291H15.0586C15.0117 48.7676 14.8789 48.375 14.6602 48.1133C14.3242 47.707 13.8887 47.5039 13.3535 47.5039C12.8691 47.5039 12.4609 47.666 12.1289 47.9902C11.8008 48.3145 11.6191 48.748 11.584 49.291ZM17.4551 53V46.7773H18.4043V47.7207C18.6465 47.2793 18.8691 46.9883 19.0723 46.8477C19.2793 46.707 19.5059 46.6367 19.752 46.6367C20.1074 46.6367 20.4688 46.75 20.8359 46.9766L20.4727 47.9551C20.2148 47.8027 19.957 47.7266 19.6992 47.7266C19.4688 47.7266 19.2617 47.7969 19.0781 47.9375C18.8945 48.0742 18.7637 48.2656 18.6855 48.5117C18.5684 48.8867 18.5098 49.2969 18.5098 49.7422V53H17.4551ZM25.7227 50.9961L26.8125 51.1309C26.6406 51.7676 26.3223 52.2617 25.8574 52.6133C25.3926 52.9648 24.7988 53.1406 24.0762 53.1406C23.166 53.1406 22.4434 52.8613 21.9082 52.3027C21.377 51.7402 21.1113 50.9531 21.1113 49.9414C21.1113 48.8945 21.3809 48.082 21.9199 47.5039C22.459 46.9258 23.1582 46.6367 24.0176 46.6367C24.8496 46.6367 25.5293 46.9199 26.0566 47.4863C26.584 48.0527 26.8477 48.8496 26.8477 49.877C26.8477 49.9395 26.8457 50.0332 26.8418 50.1582H22.2012C22.2402 50.8418 22.4336 51.3652 22.7812 51.7285C23.1289 52.0918 23.5625 52.2734 24.082 52.2734C24.4688 52.2734 24.7988 52.1719 25.0723 51.9688C25.3457 51.7656 25.5625 51.4414 25.7227 50.9961ZM22.2598 49.291H25.7344C25.6875 48.7676 25.5547 48.375 25.3359 48.1133C25 47.707 24.5645 47.5039 24.0293 47.5039C23.5449 47.5039 23.1367 47.666 22.8047 47.9902C22.4766 48.3145 22.2949 48.748 22.2598 49.291ZM28.1484 53V44.4102H29.2031V49.3086L31.6992 46.7773H33.0645L30.6855 49.0859L33.3047 53H32.0039L29.9473 49.8184L29.2031 50.5332V53H28.1484ZM37.0371 50.5625L38.0625 50.4219C38.0898 51.0781 38.2129 51.5273 38.4316 51.7695C38.6504 52.0117 38.9531 52.1328 39.3398 52.1328C39.625 52.1328 39.8711 52.0684 40.0781 51.9395C40.2852 51.8066 40.4277 51.6289 40.5059 51.4062C40.584 51.1797 40.623 50.8203 40.623 50.3281V44.4102H41.7598V50.2637C41.7598 50.9824 41.6719 51.5391 41.4961 51.9336C41.3242 52.3281 41.0488 52.6289 40.6699 52.8359C40.2949 53.043 39.8535 53.1465 39.3457 53.1465C38.5918 53.1465 38.0137 52.9297 37.6113 52.4961C37.2129 52.0625 37.0215 51.418 37.0371 50.5625ZM47.5605 53V52.0859C47.0762 52.7891 46.418 53.1406 45.5859 53.1406C45.2188 53.1406 44.875 53.0703 44.5547 52.9297C44.2383 52.7891 44.002 52.6133 43.8457 52.4023C43.6934 52.1875 43.5859 51.9258 43.5234 51.6172C43.4805 51.4102 43.459 51.082 43.459 50.6328V46.7773H44.5137V50.2285C44.5137 50.7793 44.5352 51.1504 44.5781 51.3418C44.6445 51.6191 44.7852 51.8379 45 51.998C45.2148 52.1543 45.4805 52.2324 45.7969 52.2324C46.1133 52.2324 46.4102 52.1523 46.6875 51.9922C46.9648 51.8281 47.1602 51.6074 47.2734 51.3301C47.3906 51.0488 47.4492 50.6426 47.4492 50.1113V46.7773H48.5039V53H47.5605ZM49.7402 51.1426L50.7832 50.9785C50.8418 51.3965 51.0039 51.7168 51.2695 51.9395C51.5391 52.1621 51.9141 52.2734 52.3945 52.2734C52.8789 52.2734 53.2383 52.1758 53.4727 51.9805C53.707 51.7812 53.8242 51.5488 53.8242 51.2832C53.8242 51.0449 53.7207 50.8574 53.5137 50.7207C53.3691 50.627 53.0098 50.5078 52.4355 50.3633C51.6621 50.168 51.125 50 50.8242 49.8594C50.5273 49.7148 50.3008 49.5176 50.1445 49.2676C49.9922 49.0137 49.916 48.7344 49.916 48.4297C49.916 48.1523 49.9785 47.8965 50.1035 47.6621C50.2324 47.4238 50.4062 47.2266 50.625 47.0703C50.7891 46.9492 51.0117 46.8477 51.293 46.7656C51.5781 46.6797 51.8828 46.6367 52.207 46.6367C52.6953 46.6367 53.123 46.707 53.4902 46.8477C53.8613 46.9883 54.1348 47.1797 54.3105 47.4219C54.4863 47.6602 54.6074 47.9805 54.6738 48.3828L53.6426 48.5234C53.5957 48.2031 53.459 47.9531 53.2324 47.7734C53.0098 47.5938 52.6934 47.5039 52.2832 47.5039C51.7988 47.5039 51.4531 47.584 51.2461 47.7441C51.0391 47.9043 50.9355 48.0918 50.9355 48.3066C50.9355 48.4434 50.9785 48.5664 51.0645 48.6758C51.1504 48.7891 51.2852 48.8828 51.4688 48.957C51.5742 48.9961 51.8848 49.0859 52.4004 49.2266C53.1465 49.4258 53.666 49.5898 53.959 49.7188C54.2559 49.8438 54.4883 50.0273 54.6562 50.2695C54.8242 50.5117 54.9082 50.8125 54.9082 51.1719C54.9082 51.5234 54.8047 51.8555 54.5977 52.168C54.3945 52.4766 54.0996 52.7168 53.7129 52.8887C53.3262 53.0566 52.8887 53.1406 52.4004 53.1406C51.5918 53.1406 50.9746 52.9727 50.5488 52.6367C50.127 52.3008 49.8574 51.8027 49.7402 51.1426ZM58.4648 52.0566L58.6172 52.9883C58.3203 53.0508 58.0547 53.082 57.8203 53.082C57.4375 53.082 57.1406 53.0215 56.9297 52.9004C56.7188 52.7793 56.5703 52.6211 56.4844 52.4258C56.3984 52.2266 56.3555 51.8105 56.3555 51.1777V47.5977H55.582V46.7773H56.3555V45.2363L57.4043 44.6035V46.7773H58.4648V47.5977H57.4043V51.2363C57.4043 51.5371 57.4219 51.7305 57.457 51.8164C57.4961 51.9023 57.5566 51.9707 57.6387 52.0215C57.7246 52.0723 57.8457 52.0977 58.002 52.0977C58.1191 52.0977 58.2734 52.084 58.4648 52.0566ZM59.7539 53V47.5977H58.8223V46.7773H59.7539V46.1152C59.7539 45.6973 59.791 45.3867 59.8652 45.1836C59.9668 44.9102 60.1445 44.6895 60.3984 44.5215C60.6562 44.3496 61.0156 44.2637 61.4766 44.2637C61.7734 44.2637 62.1016 44.2988 62.4609 44.3691L62.3027 45.2891C62.084 45.25 61.877 45.2305 61.6816 45.2305C61.3613 45.2305 61.1348 45.2988 61.002 45.4355C60.8691 45.5723 60.8027 45.8281 60.8027 46.2031V46.7773H62.0156V47.5977H60.8027V53H59.7539ZM62.4492 49.8887C62.4492 48.7363 62.7695 47.8828 63.4102 47.3281C63.9453 46.8672 64.5977 46.6367 65.3672 46.6367C66.2227 46.6367 66.9219 46.918 67.4648 47.4805C68.0078 48.0391 68.2793 48.8125 68.2793 49.8008C68.2793 50.6016 68.1582 51.2324 67.916 51.6934C67.6777 52.1504 67.3281 52.5059 66.8672 52.7598C66.4102 53.0137 65.9102 53.1406 65.3672 53.1406C64.4961 53.1406 63.791 52.8613 63.252 52.3027C62.7168 51.7441 62.4492 50.9395 62.4492 49.8887ZM63.5332 49.8887C63.5332 50.6855 63.707 51.2832 64.0547 51.6816C64.4023 52.0762 64.8398 52.2734 65.3672 52.2734C65.8906 52.2734 66.3262 52.0742 66.6738 51.6758C67.0215 51.2773 67.1953 50.6699 67.1953 49.8535C67.1953 49.084 67.0195 48.502 66.668 48.1074C66.3203 47.709 65.8867 47.5098 65.3672 47.5098C64.8398 47.5098 64.4023 47.707 64.0547 48.1016C63.707 48.4961 63.5332 49.0918 63.5332 49.8887ZM69.5098 53V46.7773H70.459V47.7207C70.7012 47.2793 70.9238 46.9883 71.127 46.8477C71.334 46.707 71.5605 46.6367 71.8066 46.6367C72.1621 46.6367 72.5234 46.75 72.8906 46.9766L72.5273 47.9551C72.2695 47.8027 72.0117 47.7266 71.7539 47.7266C71.5234 47.7266 71.3164 47.7969 71.1328 47.9375C70.9492 48.0742 70.8184 48.2656 70.7402 48.5117C70.623 48.8867 70.5645 49.2969 70.5645 49.7422V53H69.5098ZM77.7773 50.9961L78.8672 51.1309C78.6953 51.7676 78.377 52.2617 77.9121 52.6133C77.4473 52.9648 76.8535 53.1406 76.1309 53.1406C75.2207 53.1406 74.498 52.8613 73.9629 52.3027C73.4316 51.7402 73.166 50.9531 73.166 49.9414C73.166 48.8945 73.4355 48.082 73.9746 47.5039C74.5137 46.9258 75.2129 46.6367 76.0723 46.6367C76.9043 46.6367 77.584 46.9199 78.1113 47.4863C78.6387 48.0527 78.9023 48.8496 78.9023 49.877C78.9023 49.9395 78.9004 50.0332 78.8965 50.1582H74.2559C74.2949 50.8418 74.4883 51.3652 74.8359 51.7285C75.1836 52.0918 75.6172 52.2734 76.1367 52.2734C76.5234 52.2734 76.8535 52.1719 77.127 51.9688C77.4004 51.7656 77.6172 51.4414 77.7773 50.9961ZM74.3145 49.291H77.7891C77.7422 48.7676 77.6094 48.375 77.3906 48.1133C77.0547 47.707 76.6191 47.5039 76.084 47.5039C75.5996 47.5039 75.1914 47.666 74.8594 47.9902C74.5312 48.3145 74.3496 48.748 74.3145 49.291ZM79.4941 53L81.7676 49.7656L79.6641 46.7773H80.9824L81.9375 48.2363C82.1172 48.5137 82.2617 48.7461 82.3711 48.9336C82.543 48.6758 82.7012 48.4473 82.8457 48.248L83.8945 46.7773H85.1543L83.0039 49.707L85.3184 53H84.0234L82.7461 51.0664L82.4062 50.5449L80.7715 53H79.4941ZM89.5371 53V44.4102H90.5918V47.4922C91.084 46.9219 91.7051 46.6367 92.4551 46.6367C92.916 46.6367 93.3164 46.7285 93.6562 46.9121C93.9961 47.0918 94.2383 47.3418 94.3828 47.6621C94.5312 47.9824 94.6055 48.4473 94.6055 49.0566V53H93.5508V49.0566C93.5508 48.5293 93.4355 48.1465 93.2051 47.9082C92.9785 47.666 92.6562 47.5449 92.2383 47.5449C91.9258 47.5449 91.6309 47.627 91.3535 47.791C91.0801 47.9512 90.8848 48.1699 90.7676 48.4473C90.6504 48.7246 90.5918 49.1074 90.5918 49.5957V53H89.5371ZM100.277 52.2324C99.8867 52.5645 99.5098 52.7988 99.1465 52.9355C98.7871 53.0723 98.4004 53.1406 97.9863 53.1406C97.3027 53.1406 96.7773 52.9746 96.4102 52.6426C96.043 52.3066 95.8594 51.8789 95.8594 51.3594C95.8594 51.0547 95.9277 50.7773 96.0645 50.5273C96.2051 50.2734 96.3867 50.0703 96.6094 49.918C96.8359 49.7656 97.0898 49.6504 97.3711 49.5723C97.5781 49.5176 97.8906 49.4648 98.3086 49.4141C99.1602 49.3125 99.7871 49.1914 100.189 49.0508C100.193 48.9062 100.195 48.8145 100.195 48.7754C100.195 48.3457 100.096 48.043 99.8965 47.8672C99.627 47.6289 99.2266 47.5098 98.6953 47.5098C98.1992 47.5098 97.832 47.5977 97.5938 47.7734C97.3594 47.9453 97.1855 48.252 97.0723 48.6934L96.041 48.5527C96.1348 48.1113 96.2891 47.7559 96.5039 47.4863C96.7188 47.2129 97.0293 47.0039 97.4355 46.8594C97.8418 46.7109 98.3125 46.6367 98.8477 46.6367C99.3789 46.6367 99.8105 46.6992 100.143 46.8242C100.475 46.9492 100.719 47.1074 100.875 47.2988C101.031 47.4863 101.141 47.7246 101.203 48.0137C101.238 48.1934 101.256 48.5176 101.256 48.9863V50.3926C101.256 51.373 101.277 51.9941 101.32 52.2559C101.367 52.5137 101.457 52.7617 101.59 53H100.488C100.379 52.7812 100.309 52.5254 100.277 52.2324ZM100.189 49.877C99.8066 50.0332 99.2324 50.166 98.4668 50.2754C98.0332 50.3379 97.7266 50.4082 97.5469 50.4863C97.3672 50.5645 97.2285 50.6797 97.1309 50.832C97.0332 50.9805 96.9844 51.1465 96.9844 51.3301C96.9844 51.6113 97.0898 51.8457 97.3008 52.0332C97.5156 52.2207 97.8281 52.3145 98.2383 52.3145C98.6445 52.3145 99.0059 52.2266 99.3223 52.0508C99.6387 51.8711 99.8711 51.627 100.02 51.3184C100.133 51.0801 100.189 50.7285 100.189 50.2637V49.877ZM102.896 53V46.7773H103.846V47.6621C104.303 46.9785 104.963 46.6367 105.826 46.6367C106.201 46.6367 106.545 46.7051 106.857 46.8418C107.174 46.9746 107.41 47.1504 107.566 47.3691C107.723 47.5879 107.832 47.8477 107.895 48.1484C107.934 48.3438 107.953 48.6855 107.953 49.1738V53H106.898V49.2148C106.898 48.7852 106.857 48.4648 106.775 48.2539C106.693 48.0391 106.547 47.8691 106.336 47.7441C106.129 47.6152 105.885 47.5508 105.604 47.5508C105.154 47.5508 104.766 47.6934 104.438 47.9785C104.113 48.2637 103.951 48.8047 103.951 49.6016V53H102.896ZM109.529 55.3965L109.412 54.4062C109.643 54.4688 109.844 54.5 110.016 54.5C110.25 54.5 110.438 54.4609 110.578 54.3828C110.719 54.3047 110.834 54.1953 110.924 54.0547C110.99 53.9492 111.098 53.6875 111.246 53.2695C111.266 53.2109 111.297 53.125 111.34 53.0117L108.979 46.7773H110.115L111.41 50.3809C111.578 50.8379 111.729 51.3184 111.861 51.8223C111.982 51.3379 112.127 50.8652 112.295 50.4043L113.625 46.7773H114.68L112.312 53.1055C112.059 53.7891 111.861 54.2598 111.721 54.5176C111.533 54.8652 111.318 55.1191 111.076 55.2793C110.834 55.4434 110.545 55.5254 110.209 55.5254C110.006 55.5254 109.779 55.4824 109.529 55.3965ZM119.637 52.2324C119.246 52.5645 118.869 52.7988 118.506 52.9355C118.146 53.0723 117.76 53.1406 117.346 53.1406C116.662 53.1406 116.137 52.9746 115.77 52.6426C115.402 52.3066 115.219 51.8789 115.219 51.3594C115.219 51.0547 115.287 50.7773 115.424 50.5273C115.564 50.2734 115.746 50.0703 115.969 49.918C116.195 49.7656 116.449 49.6504 116.73 49.5723C116.938 49.5176 117.25 49.4648 117.668 49.4141C118.52 49.3125 119.146 49.1914 119.549 49.0508C119.553 48.9062 119.555 48.8145 119.555 48.7754C119.555 48.3457 119.455 48.043 119.256 47.8672C118.986 47.6289 118.586 47.5098 118.055 47.5098C117.559 47.5098 117.191 47.5977 116.953 47.7734C116.719 47.9453 116.545 48.252 116.432 48.6934L115.4 48.5527C115.494 48.1113 115.648 47.7559 115.863 47.4863C116.078 47.2129 116.389 47.0039 116.795 46.8594C117.201 46.7109 117.672 46.6367 118.207 46.6367C118.738 46.6367 119.17 46.6992 119.502 46.8242C119.834 46.9492 120.078 47.1074 120.234 47.2988C120.391 47.4863 120.5 47.7246 120.562 48.0137C120.598 48.1934 120.615 48.5176 120.615 48.9863V50.3926C120.615 51.373 120.637 51.9941 120.68 52.2559C120.727 52.5137 120.816 52.7617 120.949 53H119.848C119.738 52.7812 119.668 52.5254 119.637 52.2324ZM119.549 49.877C119.166 50.0332 118.592 50.166 117.826 50.2754C117.393 50.3379 117.086 50.4082 116.906 50.4863C116.727 50.5645 116.588 50.6797 116.49 50.832C116.393 50.9805 116.344 51.1465 116.344 51.3301C116.344 51.6113 116.449 51.8457 116.66 52.0332C116.875 52.2207 117.188 52.3145 117.598 52.3145C118.004 52.3145 118.365 52.2266 118.682 52.0508C118.998 51.8711 119.23 51.627 119.379 51.3184C119.492 51.0801 119.549 50.7285 119.549 50.2637V49.877Z"/>
  </symbol>
  <symbol id="svg-copy-id-5" viewBox="0 58 147 12">
    <path d="M4.82812 67V66.2148C4.43359 66.832 3.85352 67.1406 3.08789 67.1406C2.5918 67.1406 2.13477 67.0039 1.7168 66.7305C1.30273 66.457 0.980469 66.0762 0.75 65.5879C0.523438 65.0957 0.410156 64.5312 0.410156 63.8945C0.410156 63.2734 0.513672 62.7109 0.720703 62.207C0.927734 61.6992 1.23828 61.3105 1.65234 61.041C2.06641 60.7715 2.5293 60.6367 3.04102 60.6367C3.41602 60.6367 3.75 60.7168 4.04297 60.877C4.33594 61.0332 4.57422 61.2383 4.75781 61.4922V58.4102H5.80664V67H4.82812ZM1.49414 63.8945C1.49414 64.6914 1.66211 65.2871 1.99805 65.6816C2.33398 66.0762 2.73047 66.2734 3.1875 66.2734C3.64844 66.2734 4.03906 66.0859 4.35938 65.7109C4.68359 65.332 4.8457 64.7559 4.8457 63.9824C4.8457 63.1309 4.68164 62.5059 4.35352 62.1074C4.02539 61.709 3.62109 61.5098 3.14062 61.5098C2.67188 61.5098 2.2793 61.7012 1.96289 62.084C1.65039 62.4668 1.49414 63.0703 1.49414 63.8945ZM7.47656 59.623V58.4102H8.53125V59.623H7.47656ZM7.47656 67V60.7773H8.53125V67H7.47656ZM10.1484 59.623V58.4102H11.2031V59.623H10.1484ZM10.1484 67V60.7773H11.2031V67H10.1484ZM12.2578 67V66.1445L16.2188 61.5977C15.7695 61.6211 15.373 61.6328 15.0293 61.6328H12.4922V60.7773H17.5781V61.4746L14.209 65.4238L13.5586 66.1445C14.0312 66.1094 14.4746 66.0918 14.8887 66.0918H17.7656V67H12.2578ZM18.8203 59.623V58.4102H19.875V59.623H18.8203ZM18.8203 67V60.7773H19.875V67H18.8203ZM21.4863 67V60.7773H22.4355V61.6621C22.8926 60.9785 23.5527 60.6367 24.416 60.6367C24.791 60.6367 25.1348 60.7051 25.4473 60.8418C25.7637 60.9746 26 61.1504 26.1562 61.3691C26.3125 61.5879 26.4219 61.8477 26.4844 62.1484C26.5234 62.3438 26.543 62.6855 26.543 63.1738V67H25.4883V63.2148C25.4883 62.7852 25.4473 62.4648 25.3652 62.2539C25.2832 62.0391 25.1367 61.8691 24.9258 61.7441C24.7188 61.6152 24.4746 61.5508 24.1934 61.5508C23.7441 61.5508 23.3555 61.6934 23.0273 61.9785C22.7031 62.2637 22.541 62.8047 22.541 63.6016V67H21.4863ZM28.1719 67V58.4102H29.2266V63.3086L31.7227 60.7773H33.0879L30.709 63.0859L33.3281 67H32.0273L29.9707 63.8184L29.2266 64.5332V67H28.1719ZM38.2266 66.2324C37.8359 66.5645 37.459 66.7988 37.0957 66.9355C36.7363 67.0723 36.3496 67.1406 35.9355 67.1406C35.252 67.1406 34.7266 66.9746 34.3594 66.6426C33.9922 66.3066 33.8086 65.8789 33.8086 65.3594C33.8086 65.0547 33.877 64.7773 34.0137 64.5273C34.1543 64.2734 34.3359 64.0703 34.5586 63.918C34.7852 63.7656 35.0391 63.6504 35.3203 63.5723C35.5273 63.5176 35.8398 63.4648 36.2578 63.4141C37.1094 63.3125 37.7363 63.1914 38.1387 63.0508C38.1426 62.9062 38.1445 62.8145 38.1445 62.7754C38.1445 62.3457 38.0449 62.043 37.8457 61.8672C37.5762 61.6289 37.1758 61.5098 36.6445 61.5098C36.1484 61.5098 35.7812 61.5977 35.543 61.7734C35.3086 61.9453 35.1348 62.252 35.0215 62.6934L33.9902 62.5527C34.084 62.1113 34.2383 61.7559 34.4531 61.4863C34.668 61.2129 34.9785 61.0039 35.3848 60.8594C35.791 60.7109 36.2617 60.6367 36.7969 60.6367C37.3281 60.6367 37.7598 60.6992 38.0918 60.8242C38.4238 60.9492 38.668 61.1074 38.8242 61.2988C38.9805 61.4863 39.0898 61.7246 39.1523 62.0137C39.1875 62.1934 39.2051 62.5176 39.2051 62.9863V64.3926C39.2051 65.373 39.2266 65.9941 39.2695 66.2559C39.3164 66.5137 39.4062 66.7617 39.5391 67H38.4375C38.3281 66.7812 38.2578 66.5254 38.2266 66.2324ZM38.1387 63.877C37.7559 64.0332 37.1816 64.166 36.416 64.2754C35.9824 64.3379 35.6758 64.4082 35.4961 64.4863C35.3164 64.5645 35.1777 64.6797 35.0801 64.832C34.9824 64.9805 34.9336 65.1465 34.9336 65.3301C34.9336 65.6113 35.0391 65.8457 35.25 66.0332C35.4648 66.2207 35.7773 66.3145 36.1875 66.3145C36.5938 66.3145 36.9551 66.2266 37.2715 66.0508C37.5879 65.8711 37.8203 65.627 37.9688 65.3184C38.082 65.0801 38.1387 64.7285 38.1387 64.2637V63.877ZM40.8457 67V60.7773H41.7949V61.6621C42.252 60.9785 42.9121 60.6367 43.7754 60.6367C44.1504 60.6367 44.4941 60.7051 44.8066 60.8418C45.123 60.9746 45.3594 61.1504 45.5156 61.3691C45.6719 61.5879 45.7812 61.8477 45.8438 62.1484C45.8828 62.3438 45.9023 62.6855 45.9023 63.1738V67H44.8477V63.2148C44.8477 62.7852 44.8066 62.4648 44.7246 62.2539C44.6426 62.0391 44.4961 61.8691 44.2852 61.7441C44.0781 61.6152 43.834 61.5508 43.5527 61.5508C43.1035 61.5508 42.7148 61.6934 42.3867 61.9785C42.0625 62.2637 41.9004 62.8047 41.9004 63.6016V67H40.8457ZM50.8594 59.6348V58.4102H51.9141V59.6348H50.8594ZM49.5234 69.4141L49.7227 68.5176C49.9336 68.5723 50.0996 68.5996 50.2207 68.5996C50.4355 68.5996 50.5957 68.5273 50.7012 68.3828C50.8066 68.2422 50.8594 67.8867 50.8594 67.3164V60.7773H51.9141V67.3398C51.9141 68.1055 51.8145 68.6387 51.6152 68.9395C51.3613 69.3301 50.9395 69.5254 50.3496 69.5254C50.0645 69.5254 49.7891 69.4883 49.5234 69.4141ZM53.543 59.623V58.4102H54.5977V59.623H53.543ZM53.543 67V60.7773H54.5977V67H53.543ZM56.2148 67V58.4102H57.2695V63.3086L59.7656 60.7773H61.1309L58.752 63.0859L61.3711 67H60.0703L58.0137 63.8184L57.2695 64.5332V67H56.2148ZM66.2695 66.2324C65.8789 66.5645 65.502 66.7988 65.1387 66.9355C64.7793 67.0723 64.3926 67.1406 63.9785 67.1406C63.2949 67.1406 62.7695 66.9746 62.4023 66.6426C62.0352 66.3066 61.8516 65.8789 61.8516 65.3594C61.8516 65.0547 61.9199 64.7773 62.0566 64.5273C62.1973 64.2734 62.3789 64.0703 62.6016 63.918C62.8281 63.7656 63.082 63.6504 63.3633 63.5723C63.5703 63.5176 63.8828 63.4648 64.3008 63.4141C65.1523 63.3125 65.7793 63.1914 66.1816 63.0508C66.1855 62.9062 66.1875 62.8145 66.1875 62.7754C66.1875 62.3457 66.0879 62.043 65.8887 61.8672C65.6191 61.6289 65.2188 61.5098 64.6875 61.5098C64.1914 61.5098 63.8242 61.5977 63.5859 61.7734C63.3516 61.9453 63.1777 62.252 63.0645 62.6934L62.0332 62.5527C62.127 62.1113 62.2812 61.7559 62.4961 61.4863C62.7109 61.2129 63.0215 61.0039 63.4277 60.8594C63.834 60.7109 64.3047 60.6367 64.8398 60.6367C65.3711 60.6367 65.8027 60.6992 66.1348 60.8242C66.4668 60.9492 66.7109 61.1074 66.8672 61.2988C67.0234 61.4863 67.1328 61.7246 67.1953 62.0137C67.2305 62.1934 67.248 62.5176 67.248 62.9863V64.3926C67.248 65.373 67.2695 65.9941 67.3125 66.2559C67.3594 66.5137 67.4492 66.7617 67.582 67H66.4805C66.3711 66.7812 66.3008 66.5254 66.2695 66.2324ZM66.1816 63.877C65.7988 64.0332 65.2246 64.166 64.459 64.2754C64.0254 64.3379 63.7188 64.4082 63.5391 64.4863C63.3594 64.5645 63.2207 64.6797 63.123 64.832C63.0254 64.9805 62.9766 65.1465 62.9766 65.3301C62.9766 65.6113 63.082 65.8457 63.293 66.0332C63.5078 66.2207 63.8203 66.3145 64.2305 66.3145C64.6367 66.3145 64.998 66.2266 65.3145 66.0508C65.6309 65.8711 65.8633 65.627 66.0117 65.3184C66.125 65.0801 66.1816 64.7285 66.1816 64.2637V63.877ZM72.2285 67V60.7773H73.1719V61.6504C73.3672 61.3457 73.627 61.1016 73.9512 60.918C74.2754 60.7305 74.6445 60.6367 75.0586 60.6367C75.5195 60.6367 75.8965 60.7324 76.1895 60.9238C76.4863 61.1152 76.6953 61.3828 76.8164 61.7266C77.3086 61 77.9492 60.6367 78.7383 60.6367C79.3555 60.6367 79.8301 60.8086 80.1621 61.1523C80.4941 61.4922 80.6602 62.0176 80.6602 62.7285V67H79.6113V63.0801C79.6113 62.6582 79.5762 62.3555 79.5059 62.1719C79.4395 61.9844 79.3164 61.834 79.1367 61.7207C78.957 61.6074 78.7461 61.5508 78.5039 61.5508C78.0664 61.5508 77.7031 61.6973 77.4141 61.9902C77.125 62.2793 76.9805 62.7441 76.9805 63.3848V67H75.9258V62.957C75.9258 62.4883 75.8398 62.1367 75.668 61.9023C75.4961 61.668 75.2148 61.5508 74.8242 61.5508C74.5273 61.5508 74.252 61.6289 73.998 61.7852C73.748 61.9414 73.5664 62.1699 73.4531 62.4707C73.3398 62.7715 73.2832 63.2051 73.2832 63.7715V67H72.2285ZM86.4844 64.9961L87.5742 65.1309C87.4023 65.7676 87.084 66.2617 86.6191 66.6133C86.1543 66.9648 85.5605 67.1406 84.8379 67.1406C83.9277 67.1406 83.2051 66.8613 82.6699 66.3027C82.1387 65.7402 81.873 64.9531 81.873 63.9414C81.873 62.8945 82.1426 62.082 82.6816 61.5039C83.2207 60.9258 83.9199 60.6367 84.7793 60.6367C85.6113 60.6367 86.291 60.9199 86.8184 61.4863C87.3457 62.0527 87.6094 62.8496 87.6094 63.877C87.6094 63.9395 87.6074 64.0332 87.6035 64.1582H82.9629C83.002 64.8418 83.1953 65.3652 83.543 65.7285C83.8906 66.0918 84.3242 66.2734 84.8438 66.2734C85.2305 66.2734 85.5605 66.1719 85.834 65.9688C86.1074 65.7656 86.3242 65.4414 86.4844 64.9961ZM83.0215 63.291H86.4961C86.4492 62.7676 86.3164 62.375 86.0977 62.1133C85.7617 61.707 85.3262 61.5039 84.791 61.5039C84.3066 61.5039 83.8984 61.666 83.5664 61.9902C83.2383 62.3145 83.0566 62.748 83.0215 63.291ZM88.9043 67V60.7773H89.8535V61.6621C90.3105 60.9785 90.9707 60.6367 91.834 60.6367C92.209 60.6367 92.5527 60.7051 92.8652 60.8418C93.1816 60.9746 93.418 61.1504 93.5742 61.3691C93.7305 61.5879 93.8398 61.8477 93.9023 62.1484C93.9414 62.3438 93.9609 62.6855 93.9609 63.1738V67H92.9062V63.2148C92.9062 62.7852 92.8652 62.4648 92.7832 62.2539C92.7012 62.0391 92.5547 61.8691 92.3438 61.7441C92.1367 61.6152 91.8926 61.5508 91.6113 61.5508C91.1621 61.5508 90.7734 61.6934 90.4453 61.9785C90.1211 62.2637 89.959 62.8047 89.959 63.6016V67H88.9043ZM99.6211 67V66.2148C99.2266 66.832 98.6465 67.1406 97.8809 67.1406C97.3848 67.1406 96.9277 67.0039 96.5098 66.7305C96.0957 66.457 95.7734 66.0762 95.543 65.5879C95.3164 65.0957 95.2031 64.5312 95.2031 63.8945C95.2031 63.2734 95.3066 62.7109 95.5137 62.207C95.7207 61.6992 96.0312 61.3105 96.4453 61.041C96.8594 60.7715 97.3223 60.6367 97.834 60.6367C98.209 60.6367 98.543 60.7168 98.8359 60.877C99.1289 61.0332 99.3672 61.2383 99.5508 61.4922V58.4102H100.6V67H99.6211ZM96.2871 63.8945C96.2871 64.6914 96.4551 65.2871 96.791 65.6816C97.127 66.0762 97.5234 66.2734 97.9805 66.2734C98.4414 66.2734 98.832 66.0859 99.1523 65.7109C99.4766 65.332 99.6387 64.7559 99.6387 63.9824C99.6387 63.1309 99.4746 62.5059 99.1465 62.1074C98.8184 61.709 98.4141 61.5098 97.9336 61.5098C97.4648 61.5098 97.0723 61.7012 96.7559 62.084C96.4434 62.4668 96.2871 63.0703 96.2871 63.8945ZM106.324 66.2324C105.934 66.5645 105.557 66.7988 105.193 66.9355C104.834 67.0723 104.447 67.1406 104.033 67.1406C103.35 67.1406 102.824 66.9746 102.457 66.6426C102.09 66.3066 101.906 65.8789 101.906 65.3594C101.906 65.0547 101.975 64.7773 102.111 64.5273C102.252 64.2734 102.434 64.0703 102.656 63.918C102.883 63.7656 103.137 63.6504 103.418 63.5723C103.625 63.5176 103.938 63.4648 104.355 63.4141C105.207 63.3125 105.834 63.1914 106.236 63.0508C106.24 62.9062 106.242 62.8145 106.242 62.7754C106.242 62.3457 106.143 62.043 105.943 61.8672C105.674 61.6289 105.273 61.5098 104.742 61.5098C104.246 61.5098 103.879 61.5977 103.641 61.7734C103.406 61.9453 103.232 62.252 103.119 62.6934L102.088 62.5527C102.182 62.1113 102.336 61.7559 102.551 61.4863C102.766 61.2129 103.076 61.0039 103.482 60.8594C103.889 60.7109 104.359 60.6367 104.895 60.6367C105.426 60.6367 105.857 60.6992 106.189 60.8242C106.521 60.9492 106.766 61.1074 106.922 61.2988C107.078 61.4863 107.188 61.7246 107.25 62.0137C107.285 62.1934 107.303 62.5176 107.303 62.9863V64.3926C107.303 65.373 107.324 65.9941 107.367 66.2559C107.414 66.5137 107.504 66.7617 107.637 67H106.535C106.426 66.7812 106.355 66.5254 106.324 66.2324ZM106.236 63.877C105.854 64.0332 105.279 64.166 104.514 64.2754C104.08 64.3379 103.773 64.4082 103.594 64.4863C103.414 64.5645 103.275 64.6797 103.178 64.832C103.08 64.9805 103.031 65.1465 103.031 65.3301C103.031 65.6113 103.137 65.8457 103.348 66.0332C103.562 66.2207 103.875 66.3145 104.285 66.3145C104.691 66.3145 105.053 66.2266 105.369 66.0508C105.686 65.8711 105.918 65.627 106.066 65.3184C106.18 65.0801 106.236 64.7285 106.236 64.2637V63.877ZM108.943 69.3848V60.7773H109.904V61.5859C110.131 61.2695 110.387 61.0332 110.672 60.877C110.957 60.7168 111.303 60.6367 111.709 60.6367C112.24 60.6367 112.709 60.7734 113.115 61.0469C113.521 61.3203 113.828 61.707 114.035 62.207C114.242 62.7031 114.346 63.248 114.346 63.8418C114.346 64.4785 114.23 65.0527 114 65.5645C113.773 66.0723 113.441 66.4629 113.004 66.7363C112.57 67.0059 112.113 67.1406 111.633 67.1406C111.281 67.1406 110.965 67.0664 110.684 66.918C110.406 66.7695 110.178 66.582 109.998 66.3555V69.3848H108.943ZM109.898 63.9238C109.898 64.7246 110.061 65.3164 110.385 65.6992C110.709 66.082 111.102 66.2734 111.562 66.2734C112.031 66.2734 112.432 66.0762 112.764 65.6816C113.1 65.2832 113.268 64.668 113.268 63.8359C113.268 63.043 113.104 62.4492 112.775 62.0547C112.451 61.6602 112.062 61.4629 111.609 61.4629C111.16 61.4629 110.762 61.6738 110.414 62.0957C110.07 62.5137 109.898 63.123 109.898 63.9238ZM119.684 66.2324C119.293 66.5645 118.916 66.7988 118.553 66.9355C118.193 67.0723 117.807 67.1406 117.393 67.1406C116.709 67.1406 116.184 66.9746 115.816 66.6426C115.449 66.3066 115.266 65.8789 115.266 65.3594C115.266 65.0547 115.334 64.7773 115.471 64.5273C115.611 64.2734 115.793 64.0703 116.016 63.918C116.242 63.7656 116.496 63.6504 116.777 63.5723C116.984 63.5176 117.297 63.4648 117.715 63.4141C118.566 63.3125 119.193 63.1914 119.596 63.0508C119.6 62.9062 119.602 62.8145 119.602 62.7754C119.602 62.3457 119.502 62.043 119.303 61.8672C119.033 61.6289 118.633 61.5098 118.102 61.5098C117.605 61.5098 117.238 61.5977 117 61.7734C116.766 61.9453 116.592 62.252 116.479 62.6934L115.447 62.5527C115.541 62.1113 115.695 61.7559 115.91 61.4863C116.125 61.2129 116.436 61.0039 116.842 60.8594C117.248 60.7109 117.719 60.6367 118.254 60.6367C118.785 60.6367 119.217 60.6992 119.549 60.8242C119.881 60.9492 120.125 61.1074 120.281 61.2988C120.438 61.4863 120.547 61.7246 120.609 62.0137C120.645 62.1934 120.662 62.5176 120.662 62.9863V64.3926C120.662 65.373 120.684 65.9941 120.727 66.2559C120.773 66.5137 120.863 66.7617 120.996 67H119.895C119.785 66.7812 119.715 66.5254 119.684 66.2324ZM119.596 63.877C119.213 64.0332 118.639 64.166 117.873 64.2754C117.439 64.3379 117.133 64.4082 116.953 64.4863C116.773 64.5645 116.635 64.6797 116.537 64.832C116.439 64.9805 116.391 65.1465 116.391 65.3301C116.391 65.6113 116.496 65.8457 116.707 66.0332C116.922 66.2207 117.234 66.3145 117.645 66.3145C118.051 66.3145 118.412 66.2266 118.729 66.0508C119.045 65.8711 119.277 65.627 119.426 65.3184C119.539 65.0801 119.596 64.7285 119.596 64.2637V63.877ZM124.605 66.0566L124.758 66.9883C124.461 67.0508 124.195 67.082 123.961 67.082C123.578 67.082 123.281 67.0215 123.07 66.9004C122.859 66.7793 122.711 66.6211 122.625 66.4258C122.539 66.2266 122.496 65.8105 122.496 65.1777V61.5977H121.723V60.7773H122.496V59.2363L123.545 58.6035V60.7773H124.605V61.5977H123.545V65.2363C123.545 65.5371 123.562 65.7305 123.598 65.8164C123.637 65.9023 123.697 65.9707 123.779 66.0215C123.865 66.0723 123.986 66.0977 124.143 66.0977C124.26 66.0977 124.414 66.084 124.605 66.0566ZM128.988 59.623V58.4102H130.043V59.623H128.988ZM128.988 67V60.7773H130.043V67H128.988ZM131.098 67V66.1445L135.059 61.5977C134.609 61.6211 134.213 61.6328 133.869 61.6328H131.332V60.7773H136.418V61.4746L133.049 65.4238L132.398 66.1445C132.871 66.1094 133.314 66.0918 133.729 66.0918H136.605V67H131.098ZM137.66 59.623V58.4102H138.715V59.623H137.66ZM137.66 67V60.7773H138.715V67H137.66ZM140.326 67V60.7773H141.275V61.6621C141.732 60.9785 142.393 60.6367 143.256 60.6367C143.631 60.6367 143.975 60.7051 144.287 60.8418C144.604 60.9746 144.84 61.1504 144.996 61.3691C145.152 61.5879 145.262 61.8477 145.324 62.1484C145.363 62.3438 145.383 62.6855 145.383 63.1738V67H144.328V63.2148C144.328 62.7852 144.287 62.4648 144.205 62.2539C144.123 62.0391 143.977 61.8691 143.766 61.7441C143.559 61.6152 143.314 61.5508 143.033 61.5508C142.584 61.5508 142.195 61.6934 141.867 61.9785C141.543 62.2637 141.381 62.8047 141.381 63.6016V67H140.326Z"/>
  </symbol>
  <symbol id="svg-copy-id-6" viewBox="0 71 114 11">
    <path d="M3.09375 80.0566L3.24609 80.9883C2.94922 81.0508 2.68359 81.082 2.44922 81.082C2.06641 81.082 1.76953 81.0215 1.55859 80.9004C1.34766 80.7793 1.19922 80.6211 1.11328 80.4258C1.02734 80.2266 0.984375 79.8105 0.984375 79.1777V75.5977H0.210938V74.7773H0.984375V73.2363L2.0332 72.6035V74.7773H3.09375V75.5977H2.0332V79.2363C2.0332 79.5371 2.05078 79.7305 2.08594 79.8164C2.125 79.9023 2.18555 79.9707 2.26758 80.0215C2.35352 80.0723 2.47461 80.0977 2.63086 80.0977C2.74805 80.0977 2.90234 80.084 3.09375 80.0566ZM8.39062 78.9961L9.48047 79.1309C9.30859 79.7676 8.99023 80.2617 8.52539 80.6133C8.06055 80.9648 7.4668 81.1406 6.74414 81.1406C5.83398 81.1406 5.11133 80.8613 4.57617 80.3027C4.04492 79.7402 3.7793 78.9531 3.7793 77.9414C3.7793 76.8945 4.04883 76.082 4.58789 75.5039C5.12695 74.9258 5.82617 74.6367 6.68555 74.6367C7.51758 74.6367 8.19727 74.9199 8.72461 75.4863C9.25195 76.0527 9.51562 76.8496 9.51562 77.877C9.51562 77.9395 9.51367 78.0332 9.50977 78.1582H4.86914C4.9082 78.8418 5.10156 79.3652 5.44922 79.7285C5.79688 80.0918 6.23047 80.2734 6.75 80.2734C7.13672 80.2734 7.4668 80.1719 7.74023 79.9688C8.01367 79.7656 8.23047 79.4414 8.39062 78.9961ZM4.92773 77.291H8.40234C8.35547 76.7676 8.22266 76.375 8.00391 76.1133C7.66797 75.707 7.23242 75.5039 6.69727 75.5039C6.21289 75.5039 5.80469 75.666 5.47266 75.9902C5.14453 76.3145 4.96289 76.748 4.92773 77.291ZM10.7988 81V74.7773H11.748V75.7207C11.9902 75.2793 12.2129 74.9883 12.416 74.8477C12.623 74.707 12.8496 74.6367 13.0957 74.6367C13.4512 74.6367 13.8125 74.75 14.1797 74.9766L13.8164 75.9551C13.5586 75.8027 13.3008 75.7266 13.043 75.7266C12.8125 75.7266 12.6055 75.7969 12.4219 75.9375C12.2383 76.0742 12.1074 76.2656 12.0293 76.5117C11.9121 76.8867 11.8535 77.2969 11.8535 77.7422V81H10.7988ZM17.1094 80.0566L17.2617 80.9883C16.9648 81.0508 16.6992 81.082 16.4648 81.082C16.082 81.082 15.7852 81.0215 15.5742 80.9004C15.3633 80.7793 15.2148 80.6211 15.1289 80.4258C15.043 80.2266 15 79.8105 15 79.1777V75.5977H14.2266V74.7773H15V73.2363L16.0488 72.6035V74.7773H17.1094V75.5977H16.0488V79.2363C16.0488 79.5371 16.0664 79.7305 16.1016 79.8164C16.1406 79.9023 16.2012 79.9707 16.2832 80.0215C16.3691 80.0723 16.4902 80.0977 16.6465 80.0977C16.7637 80.0977 16.918 80.084 17.1094 80.0566ZM22.2246 81V80.0859C21.7402 80.7891 21.082 81.1406 20.25 81.1406C19.8828 81.1406 19.5391 81.0703 19.2188 80.9297C18.9023 80.7891 18.666 80.6133 18.5098 80.4023C18.3574 80.1875 18.25 79.9258 18.1875 79.6172C18.1445 79.4102 18.123 79.082 18.123 78.6328V74.7773H19.1777V78.2285C19.1777 78.7793 19.1992 79.1504 19.2422 79.3418C19.3086 79.6191 19.4492 79.8379 19.6641 79.998C19.8789 80.1543 20.1445 80.2324 20.4609 80.2324C20.7773 80.2324 21.0742 80.1523 21.3516 79.9922C21.6289 79.8281 21.8242 79.6074 21.9375 79.3301C22.0547 79.0488 22.1133 78.6426 22.1133 78.1113V74.7773H23.168V81H22.2246ZM24.8027 81V72.4102H25.8574V81H24.8027ZM27.5039 73.623V72.4102H28.5586V73.623H27.5039ZM27.5039 81V74.7773H28.5586V81H27.5039ZM29.748 79.1426L30.791 78.9785C30.8496 79.3965 31.0117 79.7168 31.2773 79.9395C31.5469 80.1621 31.9219 80.2734 32.4023 80.2734C32.8867 80.2734 33.2461 80.1758 33.4805 79.9805C33.7148 79.7812 33.832 79.5488 33.832 79.2832C33.832 79.0449 33.7285 78.8574 33.5215 78.7207C33.377 78.627 33.0176 78.5078 32.4434 78.3633C31.6699 78.168 31.1328 78 30.832 77.8594C30.5352 77.7148 30.3086 77.5176 30.1523 77.2676C30 77.0137 29.9238 76.7344 29.9238 76.4297C29.9238 76.1523 29.9863 75.8965 30.1113 75.6621C30.2402 75.4238 30.4141 75.2266 30.6328 75.0703C30.7969 74.9492 31.0195 74.8477 31.3008 74.7656C31.5859 74.6797 31.8906 74.6367 32.2148 74.6367C32.7031 74.6367 33.1309 74.707 33.498 74.8477C33.8691 74.9883 34.1426 75.1797 34.3184 75.4219C34.4941 75.6602 34.6152 75.9805 34.6816 76.3828L33.6504 76.5234C33.6035 76.2031 33.4668 75.9531 33.2402 75.7734C33.0176 75.5938 32.7012 75.5039 32.291 75.5039C31.8066 75.5039 31.4609 75.584 31.2539 75.7441C31.0469 75.9043 30.9434 76.0918 30.9434 76.3066C30.9434 76.4434 30.9863 76.5664 31.0723 76.6758C31.1582 76.7891 31.293 76.8828 31.4766 76.957C31.582 76.9961 31.8926 77.0859 32.4082 77.2266C33.1543 77.4258 33.6738 77.5898 33.9668 77.7188C34.2637 77.8438 34.4961 78.0273 34.6641 78.2695C34.832 78.5117 34.916 78.8125 34.916 79.1719C34.916 79.5234 34.8125 79.8555 34.6055 80.168C34.4023 80.4766 34.1074 80.7168 33.7207 80.8887C33.334 81.0566 32.8965 81.1406 32.4082 81.1406C31.5996 81.1406 30.9824 80.9727 30.5566 80.6367C30.1348 80.3008 29.8652 79.8027 29.748 79.1426ZM43.5469 81V80.2148C43.1523 80.832 42.5723 81.1406 41.8066 81.1406C41.3105 81.1406 40.8535 81.0039 40.4355 80.7305C40.0215 80.457 39.6992 80.0762 39.4688 79.5879C39.2422 79.0957 39.1289 78.5312 39.1289 77.8945C39.1289 77.2734 39.2324 76.7109 39.4395 76.207C39.6465 75.6992 39.957 75.3105 40.3711 75.041C40.7852 74.7715 41.248 74.6367 41.7598 74.6367C42.1348 74.6367 42.4688 74.7168 42.7617 74.877C43.0547 75.0332 43.293 75.2383 43.4766 75.4922V72.4102H44.5254V81H43.5469ZM40.2129 77.8945C40.2129 78.6914 40.3809 79.2871 40.7168 79.6816C41.0527 80.0762 41.4492 80.2734 41.9062 80.2734C42.3672 80.2734 42.7578 80.0859 43.0781 79.7109C43.4023 79.332 43.5645 78.7559 43.5645 77.9824C43.5645 77.1309 43.4004 76.5059 43.0723 76.1074C42.7441 75.709 42.3398 75.5098 41.8594 75.5098C41.3906 75.5098 40.998 75.7012 40.6816 76.084C40.3691 76.4668 40.2129 77.0703 40.2129 77.8945ZM50.25 80.2324C49.8594 80.5645 49.4824 80.7988 49.1191 80.9355C48.7598 81.0723 48.373 81.1406 47.959 81.1406C47.2754 81.1406 46.75 80.9746 46.3828 80.6426C46.0156 80.3066 45.832 79.8789 45.832 79.3594C45.832 79.0547 45.9004 78.7773 46.0371 78.5273C46.1777 78.2734 46.3594 78.0703 46.582 77.918C46.8086 77.7656 47.0625 77.6504 47.3438 77.5723C47.5508 77.5176 47.8633 77.4648 48.2812 77.4141C49.1328 77.3125 49.7598 77.1914 50.1621 77.0508C50.166 76.9062 50.168 76.8145 50.168 76.7754C50.168 76.3457 50.0684 76.043 49.8691 75.8672C49.5996 75.6289 49.1992 75.5098 48.668 75.5098C48.1719 75.5098 47.8047 75.5977 47.5664 75.7734C47.332 75.9453 47.1582 76.252 47.0449 76.6934L46.0137 76.5527C46.1074 76.1113 46.2617 75.7559 46.4766 75.4863C46.6914 75.2129 47.002 75.0039 47.4082 74.8594C47.8145 74.7109 48.2852 74.6367 48.8203 74.6367C49.3516 74.6367 49.7832 74.6992 50.1152 74.8242C50.4473 74.9492 50.6914 75.1074 50.8477 75.2988C51.0039 75.4863 51.1133 75.7246 51.1758 76.0137C51.2109 76.1934 51.2285 76.5176 51.2285 76.9863V78.3926C51.2285 79.373 51.25 79.9941 51.293 80.2559C51.3398 80.5137 51.4297 80.7617 51.5625 81H50.4609C50.3516 80.7812 50.2812 80.5254 50.25 80.2324ZM50.1621 77.877C49.7793 78.0332 49.2051 78.166 48.4395 78.2754C48.0059 78.3379 47.6992 78.4082 47.5195 78.4863C47.3398 78.5645 47.2012 78.6797 47.1035 78.832C47.0059 78.9805 46.957 79.1465 46.957 79.3301C46.957 79.6113 47.0625 79.8457 47.2734 80.0332C47.4883 80.2207 47.8008 80.3145 48.2109 80.3145C48.6172 80.3145 48.9785 80.2266 49.2949 80.0508C49.6113 79.8711 49.8438 79.627 49.9922 79.3184C50.1055 79.0801 50.1621 78.7285 50.1621 78.2637V77.877ZM52.8574 81V74.7773H53.8066V75.7207C54.0488 75.2793 54.2715 74.9883 54.4746 74.8477C54.6816 74.707 54.9082 74.6367 55.1543 74.6367C55.5098 74.6367 55.8711 74.75 56.2383 74.9766L55.875 75.9551C55.6172 75.8027 55.3594 75.7266 55.1016 75.7266C54.8711 75.7266 54.6641 75.7969 54.4805 75.9375C54.2969 76.0742 54.166 76.2656 54.0879 76.5117C53.9707 76.8867 53.9121 77.2969 53.9121 77.7422V81H52.8574ZM56.8711 73.623V72.4102H57.9258V73.623H56.8711ZM56.8711 81V74.7773H57.9258V81H56.8711ZM62.4316 78.5625L63.457 78.4219C63.4844 79.0781 63.6074 79.5273 63.8262 79.7695C64.0449 80.0117 64.3477 80.1328 64.7344 80.1328C65.0195 80.1328 65.2656 80.0684 65.4727 79.9395C65.6797 79.8066 65.8223 79.6289 65.9004 79.4062C65.9785 79.1797 66.0176 78.8203 66.0176 78.3281V72.4102H67.1543V78.2637C67.1543 78.9824 67.0664 79.5391 66.8906 79.9336C66.7188 80.3281 66.4434 80.6289 66.0645 80.8359C65.6895 81.043 65.248 81.1465 64.7402 81.1465C63.9863 81.1465 63.4082 80.9297 63.0059 80.4961C62.6074 80.0625 62.416 79.418 62.4316 78.5625ZM72.9551 81V80.0859C72.4707 80.7891 71.8125 81.1406 70.9805 81.1406C70.6133 81.1406 70.2695 81.0703 69.9492 80.9297C69.6328 80.7891 69.3965 80.6133 69.2402 80.4023C69.0879 80.1875 68.9805 79.9258 68.918 79.6172C68.875 79.4102 68.8535 79.082 68.8535 78.6328V74.7773H69.9082V78.2285C69.9082 78.7793 69.9297 79.1504 69.9727 79.3418C70.0391 79.6191 70.1797 79.8379 70.3945 79.998C70.6094 80.1543 70.875 80.2324 71.1914 80.2324C71.5078 80.2324 71.8047 80.1523 72.082 79.9922C72.3594 79.8281 72.5547 79.6074 72.668 79.3301C72.7852 79.0488 72.8438 78.6426 72.8438 78.1113V74.7773H73.8984V81H72.9551ZM75.1348 79.1426L76.1777 78.9785C76.2363 79.3965 76.3984 79.7168 76.6641 79.9395C76.9336 80.1621 77.3086 80.2734 77.7891 80.2734C78.2734 80.2734 78.6328 80.1758 78.8672 79.9805C79.1016 79.7812 79.2188 79.5488 79.2188 79.2832C79.2188 79.0449 79.1152 78.8574 78.9082 78.7207C78.7637 78.627 78.4043 78.5078 77.8301 78.3633C77.0566 78.168 76.5195 78 76.2188 77.8594C75.9219 77.7148 75.6953 77.5176 75.5391 77.2676C75.3867 77.0137 75.3105 76.7344 75.3105 76.4297C75.3105 76.1523 75.373 75.8965 75.498 75.6621C75.627 75.4238 75.8008 75.2266 76.0195 75.0703C76.1836 74.9492 76.4062 74.8477 76.6875 74.7656C76.9727 74.6797 77.2773 74.6367 77.6016 74.6367C78.0898 74.6367 78.5176 74.707 78.8848 74.8477C79.2559 74.9883 79.5293 75.1797 79.7051 75.4219C79.8809 75.6602 80.002 75.9805 80.0684 76.3828L79.0371 76.5234C78.9902 76.2031 78.8535 75.9531 78.627 75.7734C78.4043 75.5938 78.0879 75.5039 77.6777 75.5039C77.1934 75.5039 76.8477 75.584 76.6406 75.7441C76.4336 75.9043 76.3301 76.0918 76.3301 76.3066C76.3301 76.4434 76.373 76.5664 76.459 76.6758C76.5449 76.7891 76.6797 76.8828 76.8633 76.957C76.9688 76.9961 77.2793 77.0859 77.7949 77.2266C78.541 77.4258 79.0605 77.5898 79.3535 77.7188C79.6504 77.8438 79.8828 78.0273 80.0508 78.2695C80.2188 78.5117 80.3027 78.8125 80.3027 79.1719C80.3027 79.5234 80.1992 79.8555 79.9922 80.168C79.7891 80.4766 79.4941 80.7168 79.1074 80.8887C78.7207 81.0566 78.2832 81.1406 77.7949 81.1406C76.9863 81.1406 76.3691 80.9727 75.9434 80.6367C75.5215 80.3008 75.252 79.8027 75.1348 79.1426ZM83.8594 80.0566L84.0117 80.9883C83.7148 81.0508 83.4492 81.082 83.2148 81.082C82.832 81.082 82.5352 81.0215 82.3242 80.9004C82.1133 80.7793 81.9648 80.6211 81.8789 80.4258C81.793 80.2266 81.75 79.8105 81.75 79.1777V75.5977H80.9766V74.7773H81.75V73.2363L82.7988 72.6035V74.7773H83.8594V75.5977H82.7988V79.2363C82.7988 79.5371 82.8164 79.7305 82.8516 79.8164C82.8906 79.9023 82.9512 79.9707 83.0332 80.0215C83.1191 80.0723 83.2402 80.0977 83.3965 80.0977C83.5137 80.0977 83.668 80.084 83.8594 80.0566ZM85.1484 81V75.5977H84.2168V74.7773H85.1484V74.1152C85.1484 73.6973 85.1855 73.3867 85.2598 73.1836C85.3613 72.9102 85.5391 72.6895 85.793 72.5215C86.0508 72.3496 86.4102 72.2637 86.8711 72.2637C87.168 72.2637 87.4961 72.2988 87.8555 72.3691L87.6973 73.2891C87.4785 73.25 87.2715 73.2305 87.0762 73.2305C86.7559 73.2305 86.5293 73.2988 86.3965 73.4355C86.2637 73.5723 86.1973 73.8281 86.1973 74.2031V74.7773H87.4102V75.5977H86.1973V81H85.1484ZM87.8438 77.8887C87.8438 76.7363 88.1641 75.8828 88.8047 75.3281C89.3398 74.8672 89.9922 74.6367 90.7617 74.6367C91.6172 74.6367 92.3164 74.918 92.8594 75.4805C93.4023 76.0391 93.6738 76.8125 93.6738 77.8008C93.6738 78.6016 93.5527 79.2324 93.3105 79.6934C93.0723 80.1504 92.7227 80.5059 92.2617 80.7598C91.8047 81.0137 91.3047 81.1406 90.7617 81.1406C89.8906 81.1406 89.1855 80.8613 88.6465 80.3027C88.1113 79.7441 87.8438 78.9395 87.8438 77.8887ZM88.9277 77.8887C88.9277 78.6855 89.1016 79.2832 89.4492 79.6816C89.7969 80.0762 90.2344 80.2734 90.7617 80.2734C91.2852 80.2734 91.7207 80.0742 92.0684 79.6758C92.416 79.2773 92.5898 78.6699 92.5898 77.8535C92.5898 77.084 92.4141 76.502 92.0625 76.1074C91.7148 75.709 91.2812 75.5098 90.7617 75.5098C90.2344 75.5098 89.7969 75.707 89.4492 76.1016C89.1016 76.4961 88.9277 77.0918 88.9277 77.8887ZM94.9043 81V74.7773H95.8535V75.7207C96.0957 75.2793 96.3184 74.9883 96.5215 74.8477C96.7285 74.707 96.9551 74.6367 97.2012 74.6367C97.5566 74.6367 97.918 74.75 98.2852 74.9766L97.9219 75.9551C97.6641 75.8027 97.4062 75.7266 97.1484 75.7266C96.918 75.7266 96.7109 75.7969 96.5273 75.9375C96.3438 76.0742 96.2129 76.2656 96.1348 76.5117C96.0176 76.8867 95.959 77.2969 95.959 77.7422V81H94.9043ZM103.172 78.9961L104.262 79.1309C104.09 79.7676 103.771 80.2617 103.307 80.6133C102.842 80.9648 102.248 81.1406 101.525 81.1406C100.615 81.1406 99.8926 80.8613 99.3574 80.3027C98.8262 79.7402 98.5605 78.9531 98.5605 77.9414C98.5605 76.8945 98.8301 76.082 99.3691 75.5039C99.9082 74.9258 100.607 74.6367 101.467 74.6367C102.299 74.6367 102.979 74.9199 103.506 75.4863C104.033 76.0527 104.297 76.8496 104.297 77.877C104.297 77.9395 104.295 78.0332 104.291 78.1582H99.6504C99.6895 78.8418 99.8828 79.3652 100.23 79.7285C100.578 80.0918 101.012 80.2734 101.531 80.2734C101.918 80.2734 102.248 80.1719 102.521 79.9688C102.795 79.7656 103.012 79.4414 103.172 78.9961ZM99.709 77.291H103.184C103.137 76.7676 103.004 76.375 102.785 76.1133C102.449 75.707 102.014 75.5039 101.479 75.5039C100.994 75.5039 100.586 75.666 100.254 75.9902C99.9258 76.3145 99.7441 76.748 99.709 77.291ZM104.889 81L107.162 77.7656L105.059 74.7773H106.377L107.332 76.2363C107.512 76.5137 107.656 76.7461 107.766 76.9336C107.938 76.6758 108.096 76.4473 108.24 76.248L109.289 74.7773H110.549L108.398 77.707L110.713 81H109.418L108.141 79.0664L107.801 78.5449L106.166 81H104.889ZM111.891 81V79.7988H113.092V81H111.891Z"/>
  </symbol>
</svg>
