<svg width="172" height="56" viewBox="0 0 172 56" fill="none" xmlns="http://www.w3.org/2000/svg">
  <symbol id="svg-copy-fa-1" viewBox="6 0 166 14">
    <path d="M11.5645 8.93164C11.5645 9.57617 11.3262 10.2168 10.8496 10.8535C10.3184 11.5645 9.70508 11.9199 9.00977 11.9199C8.75195 11.9199 8.48633 11.8906 8.21289 11.832C8.01367 11.7891 7.75391 11.7148 7.43359 11.6094C7.17969 11.5195 6.92578 11.4316 6.67188 11.3457L6.77148 11.1406C6.99023 11.1914 7.21875 11.2441 7.45703 11.2988C7.69922 11.3574 7.91602 11.3867 8.10742 11.3867C8.58398 11.3867 9.03516 11.2656 9.46094 11.0234C9.79297 10.832 10.125 10.5547 10.457 10.1914C10.625 10.0078 10.8633 9.70898 11.1719 9.29492C10.6445 9.29492 10.25 9.21094 9.98828 9.04297C9.69141 8.85156 9.54297 8.53711 9.54297 8.09961C9.54297 7.69727 9.63672 7.32422 9.82422 6.98047C10.043 6.58203 10.3203 6.38281 10.6562 6.38281C10.9961 6.38281 11.2402 6.58008 11.3887 6.97461C11.5059 7.2832 11.5645 7.71289 11.5645 8.26367V8.93164ZM11.1953 8.29297C11.1094 7.91797 11.0059 7.6582 10.8848 7.51367C10.7793 7.38867 10.6504 7.32617 10.498 7.32617C10.3887 7.32617 10.293 7.36328 10.2109 7.4375C10.1328 7.50781 10.0938 7.59766 10.0938 7.70703C10.0938 7.89844 10.1797 8.04492 10.3516 8.14648C10.5234 8.24414 10.8047 8.29297 11.1953 8.29297ZM20.7168 3.96289L20.2598 4.80664L19.3105 4.30273L19.75 3.46484L20.7168 3.96289ZM19.3691 4.49023L18.9238 5.33984L17.9746 4.84766L18.4082 3.99805L19.3691 4.49023ZM23.4707 9.2832H17.8809C17.1309 9.2832 16.5332 9.15234 16.0879 8.89062C15.5293 8.5625 15.25 8.04883 15.25 7.34961C15.25 6.98633 15.332 6.61523 15.4961 6.23633C15.5547 6.09961 15.6953 5.83984 15.918 5.45703L16.0938 5.56836C16.0078 5.74805 15.9238 5.92773 15.8418 6.10742C15.7285 6.38477 15.6719 6.63281 15.6719 6.85156C15.6719 7.3125 15.9141 7.66992 16.3984 7.92383C16.832 8.15039 17.3809 8.26367 18.0449 8.26367H23.0078V8.10547C23.0078 7.66797 22.9551 7.3125 22.8496 7.03906C22.7441 6.76172 22.5645 6.52539 22.3105 6.33008L22.7617 5.375C22.9336 5.58984 23.0371 5.72461 23.0723 5.7793C23.3379 6.2168 23.4707 6.85352 23.4707 7.68945V9.2832ZM26.4062 9.2832H23.0664V8.26367H25.9785C25.9785 7.80273 25.9238 7.45117 25.8145 7.20898C25.7402 7.04102 25.5566 6.79883 25.2637 6.48242L25.7207 5.52734C26.002 5.88281 26.1777 6.16016 26.248 6.35938C26.3535 6.66016 26.4062 7.1582 26.4062 7.85352V9.2832ZM26.377 10.4551L25.9199 11.2988L24.9707 10.7949L25.4102 9.95703L26.377 10.4551ZM25.0293 10.9824L24.584 11.832L23.6348 11.3398L24.0684 10.4902L25.0293 10.9824ZM29.1602 9.2832H28.3398C28.0742 9.2832 27.8613 9.17578 27.7012 8.96094C27.5605 8.77344 27.4531 8.49414 27.3789 8.12305C27.3086 7.75195 27.2539 7.29492 27.2148 6.75195C27.1914 6.31055 27.166 5.85742 27.1387 5.39258C27.1152 4.92773 27.082 4.57617 27.0391 4.33789C27 4.0957 26.9453 3.89844 26.875 3.74609C26.7891 3.55859 26.6699 3.39453 26.5176 3.25391L27.2383 2.11719C27.3906 2.58594 27.498 3.14648 27.5605 3.79883C27.5996 4.20508 27.6387 5.16602 27.6777 6.68164C27.748 7.37695 27.8496 7.82227 27.9824 8.01758C28.0918 8.18164 28.2109 8.26367 28.3398 8.26367H29.1602V9.2832ZM35.5293 9.2832H35.0781C34.8281 9.2832 34.6133 9.25 34.4336 9.18359C34.2539 9.11328 34.0898 9.01562 33.9414 8.89062C33.7578 9.03516 33.5977 9.13086 33.4609 9.17773C33.2617 9.24805 32.9883 9.2832 32.6406 9.2832H32.2598C32.0566 9.2832 31.8535 9.24414 31.6504 9.16602C31.5176 9.11523 31.3535 9.03125 31.1582 8.91406C30.9707 9.05469 30.7988 9.15234 30.6426 9.20703C30.4863 9.25781 30.2324 9.2832 29.8809 9.2832H28.75V8.26367H29.8809C30.1973 8.26367 30.4238 8.23633 30.5605 8.18164C30.7871 8.0918 30.9004 7.91211 30.9004 7.64258C30.9004 7.5293 30.8945 7.41602 30.8828 7.30273C30.8711 7.18945 30.8496 7.0625 30.8184 6.92188L31.0586 6.57031C31.168 6.92969 31.2578 7.19141 31.3281 7.35547C31.4531 7.64062 31.5898 7.85547 31.7383 8C31.918 8.17578 32.1328 8.26367 32.3828 8.26367H32.7754C33.0684 8.26367 33.2852 8.21875 33.4258 8.12891C33.582 8.02734 33.6602 7.86523 33.6602 7.64258C33.6602 7.52148 33.6523 7.4043 33.6367 7.29102C33.6211 7.17773 33.5996 7.05469 33.5723 6.92188L33.8184 6.57031L33.9414 7.12109C34.0469 7.55469 34.1758 7.85547 34.3281 8.02344C34.4609 8.17188 34.6406 8.24609 34.8672 8.24609C34.9727 8.24609 35.0566 8.21484 35.1191 8.15234C35.1855 8.08594 35.2188 8.00195 35.2188 7.90039C35.2188 7.68164 35.1387 7.45117 34.9785 7.20898C34.9512 7.16992 34.8555 7.04297 34.6914 6.82812L35.0723 6.18945C35.2324 6.43164 35.3418 6.64062 35.4004 6.81641C35.4863 7.08203 35.5293 7.43555 35.5293 7.87695V9.2832ZM47.4355 9.2832H41.8457C41.0957 9.2832 40.498 9.15234 40.0527 8.89062C39.4941 8.5625 39.2148 8.04883 39.2148 7.34961C39.2148 6.98633 39.2969 6.61523 39.4609 6.23633C39.5195 6.09961 39.6602 5.83984 39.8828 5.45703L40.0586 5.56836C39.9727 5.74805 39.8887 5.92773 39.8066 6.10742C39.6934 6.38477 39.6367 6.63281 39.6367 6.85156C39.6367 7.3125 39.8789 7.66992 40.3633 7.92383C40.7969 8.15039 41.3457 8.26367 42.0098 8.26367H46.9727V8.10547C46.9727 7.66797 46.9199 7.3125 46.8145 7.03906C46.709 6.76172 46.5293 6.52539 46.2754 6.33008L46.7266 5.375C46.8984 5.58984 47.002 5.72461 47.0371 5.7793C47.3027 6.2168 47.4355 6.85352 47.4355 7.68945V9.2832ZM44.0781 10.707L43.6211 11.5566L42.6719 11.0645L43.1055 10.209L44.0781 10.707ZM52.627 8.93164C52.627 9.57617 52.3887 10.2168 51.9121 10.8535C51.3809 11.5645 50.7676 11.9199 50.0723 11.9199C49.8145 11.9199 49.5488 11.8906 49.2754 11.832C49.0762 11.7891 48.8164 11.7148 48.4961 11.6094C48.2422 11.5195 47.9883 11.4316 47.7344 11.3457L47.834 11.1406C48.0527 11.1914 48.2812 11.2441 48.5195 11.2988C48.7617 11.3574 48.9785 11.3867 49.1699 11.3867C49.6465 11.3867 50.0977 11.2656 50.5234 11.0234C50.8555 10.832 51.1875 10.5547 51.5195 10.1914C51.6875 10.0078 51.9258 9.70898 52.2344 9.29492C51.707 9.29492 51.3125 9.21094 51.0508 9.04297C50.7539 8.85156 50.6055 8.53711 50.6055 8.09961C50.6055 7.69727 50.6992 7.32422 50.8867 6.98047C51.1055 6.58203 51.3828 6.38281 51.7188 6.38281C52.0586 6.38281 52.3027 6.58008 52.4512 6.97461C52.5684 7.2832 52.627 7.71289 52.627 8.26367V8.93164ZM52.2578 8.29297C52.1719 7.91797 52.0684 7.6582 51.9473 7.51367C51.8418 7.38867 51.7129 7.32617 51.5605 7.32617C51.4512 7.32617 51.3555 7.36328 51.2734 7.4375C51.1953 7.50781 51.1562 7.59766 51.1562 7.70703C51.1562 7.89844 51.2422 8.04492 51.4141 8.14648C51.5859 8.24414 51.8672 8.29297 52.2578 8.29297ZM60.1035 4.78906L59.6641 5.62695L58.75 5.12305L59.1719 4.30859L60.1035 4.78906ZM62.2832 9.2832C62.2832 10.1543 62.0273 10.7949 61.5156 11.2051C60.9648 11.6465 60.0762 11.8672 58.8496 11.8672C58.0684 11.8672 57.4707 11.7305 57.0566 11.457C56.6035 11.1562 56.377 10.6953 56.377 10.0742C56.377 9.73828 56.418 9.39844 56.5 9.05469C56.582 8.71094 56.6934 8.36523 56.834 8.01758C56.9199 7.80664 57.0684 7.48242 57.2793 7.04492L57.5137 7.15039C57.2402 7.71289 57.0586 8.15625 56.9688 8.48047C56.8828 8.80469 56.8398 9.10156 56.8398 9.37109C56.8398 9.85547 57.0117 10.2246 57.3555 10.4785C57.7031 10.7285 58.1973 10.8535 58.8379 10.8535C59.5762 10.8535 60.2305 10.7227 60.8008 10.4609C61.5078 10.1367 61.8613 9.68359 61.8613 9.10156C61.8613 8.70312 61.8027 8.33203 61.6855 7.98828C61.584 7.68359 61.4395 7.41797 61.252 7.19141L61.7383 5.99023C61.9453 6.30664 62.0879 6.62891 62.166 6.95703C62.2441 7.28516 62.2832 7.7207 62.2832 8.26367V9.2832ZM65.2188 9.2832H61.8789V8.26367H64.791C64.791 7.80273 64.7363 7.45117 64.627 7.20898C64.5527 7.04102 64.3691 6.79883 64.0762 6.48242L64.5332 5.52734C64.8145 5.88281 64.9902 6.16016 65.0605 6.35938C65.166 6.66016 65.2188 7.1582 65.2188 7.85352V9.2832ZM65.1895 10.4551L64.7324 11.2988L63.7832 10.7949L64.2227 9.95703L65.1895 10.4551ZM63.8418 10.9824L63.3965 11.832L62.4473 11.3398L62.8809 10.4902L63.8418 10.9824ZM67.1992 7.78906C67.1992 8.10156 67.1426 8.4043 67.0293 8.69727C66.9707 8.85352 66.8438 9.10156 66.6484 9.44141L66.543 9.38281C66.5547 9.26953 66.5645 9.13867 66.5723 8.99023C66.584 8.8418 66.5898 8.74219 66.5898 8.69141C66.5898 8.28516 66.5566 7.71875 66.4902 6.99219C66.4277 6.26172 66.3516 5.5 66.2617 4.70703C66.207 4.22656 66.1465 3.73633 66.0801 3.23633C66.1582 3.06445 66.2461 2.87891 66.3438 2.67969C66.4453 2.48047 66.541 2.29297 66.6309 2.11719C66.6934 2.5625 66.7715 3.17188 66.8652 3.94531C66.9629 4.71875 67.0391 5.41602 67.0938 6.03711C67.1641 6.81055 67.1992 7.39453 67.1992 7.78906ZM76.9082 9.2832C76.9082 9.71289 76.7246 10.1582 76.3574 10.6191C76.0371 11.0254 75.6387 11.375 75.1621 11.668C74.709 11.9492 74.3359 12.0898 74.043 12.0898C73.7734 12.0898 73.4824 12.0508 73.1699 11.9727C72.9316 11.9141 72.6465 11.8223 72.3145 11.6973C72.0332 11.5918 71.7539 11.4863 71.4766 11.3809L71.5762 11.1465C71.834 11.1973 72.1016 11.248 72.3789 11.2988C72.6602 11.3535 72.9141 11.3809 73.1406 11.3809C73.6406 11.3809 74.1621 11.2207 74.7051 10.9004C75.1973 10.6074 75.6172 10.2383 75.9648 9.79297C76.3125 9.34375 76.4863 8.93945 76.4863 8.58008C76.4863 8.27148 76.3965 7.94727 76.2168 7.60742C76.0723 7.33398 75.8691 7.05273 75.6074 6.76367L75.9414 5.84375C76.2617 6.14062 76.498 6.4375 76.6504 6.73438C76.8223 7.07031 76.9082 7.44531 76.9082 7.85938V9.2832ZM80.9629 9.2832H78.3379C78.1152 9.2832 77.9141 9.21875 77.7344 9.08984C77.5586 8.96094 77.4707 8.80859 77.4707 8.63281C77.4707 8.48438 77.4785 8.34961 77.4941 8.22852C77.5098 8.10742 77.5391 7.97461 77.582 7.83008H77.7168C77.7598 7.99023 77.8379 8.10547 77.9512 8.17578C78.0449 8.23438 78.1738 8.26367 78.3379 8.26367H80.6055C80.6055 7.56445 80.5078 7.00195 80.3125 6.57617C80.0703 6.04492 79.666 5.69141 79.0996 5.51562L79.1875 4.37891C79.8633 4.71094 80.3418 5.24023 80.623 5.9668C80.8496 6.55273 80.9629 7.31836 80.9629 8.26367V9.2832ZM90.1152 3.96289L89.6582 4.80664L88.709 4.30273L89.1484 3.46484L90.1152 3.96289ZM88.7676 4.49023L88.3223 5.33984L87.373 4.84766L87.8066 3.99805L88.7676 4.49023ZM92.8691 9.2832H87.2793C86.5293 9.2832 85.9316 9.15234 85.4863 8.89062C84.9277 8.5625 84.6484 8.04883 84.6484 7.34961C84.6484 6.98633 84.7305 6.61523 84.8945 6.23633C84.9531 6.09961 85.0938 5.83984 85.3164 5.45703L85.4922 5.56836C85.4062 5.74805 85.3223 5.92773 85.2402 6.10742C85.127 6.38477 85.0703 6.63281 85.0703 6.85156C85.0703 7.3125 85.3125 7.66992 85.7969 7.92383C86.2305 8.15039 86.7793 8.26367 87.4434 8.26367H92.4062V8.10547C92.4062 7.66797 92.3535 7.3125 92.248 7.03906C92.1426 6.76172 91.9629 6.52539 91.709 6.33008L92.1602 5.375C92.332 5.58984 92.4355 5.72461 92.4707 5.7793C92.7363 6.2168 92.8691 6.85352 92.8691 7.68945V9.2832ZM95.6289 9.2832H94.8086C94.543 9.2832 94.3301 9.17578 94.1699 8.96094C94.0293 8.77344 93.9219 8.49414 93.8477 8.12305C93.7773 7.75195 93.7227 7.29492 93.6836 6.75195C93.6602 6.31055 93.6348 5.85742 93.6074 5.39258C93.584 4.92773 93.5508 4.57617 93.5078 4.33789C93.4688 4.0957 93.4141 3.89844 93.3438 3.74609C93.2578 3.55859 93.1387 3.39453 92.9863 3.25391L93.707 2.11719C93.8594 2.58594 93.9668 3.14648 94.0293 3.79883C94.0684 4.20508 94.1074 5.16602 94.1465 6.68164C94.2168 7.37695 94.3184 7.82227 94.4512 8.01758C94.5605 8.18164 94.6797 8.26367 94.8086 8.26367H95.6289V9.2832ZM101.271 7.45508L100.867 8.52148C100.277 8.73633 99.5938 8.91797 98.8164 9.06641C98.043 9.21094 97.3301 9.2832 96.6777 9.2832H95.2188V8.26367H96.625C96.5117 8.08008 96.4199 7.87305 96.3496 7.64258C96.2793 7.4082 96.2441 7.18164 96.2441 6.96289C96.2441 6.50195 96.4355 6.11523 96.8184 5.80273C97.2051 5.49023 97.7012 5.33398 98.3066 5.33398C98.7871 5.33398 99.1836 5.45117 99.4961 5.68555C99.6289 5.7832 99.8535 6.02344 100.17 6.40625L100.059 6.50586C99.7891 6.43164 99.5469 6.37695 99.332 6.3418C99.1172 6.30273 98.8945 6.2832 98.6641 6.2832C98.125 6.2832 97.7012 6.34375 97.3926 6.46484C97.0879 6.58203 96.9355 6.73828 96.9355 6.93359C96.9355 7.125 97.0312 7.33984 97.2227 7.57812C97.418 7.8125 97.668 8.02148 97.9727 8.20508C98.6133 8.10742 99.1387 8.01367 99.5488 7.92383C99.959 7.83008 100.533 7.67383 101.271 7.45508ZM106.727 6.21875C106.727 6.29688 106.723 6.36328 106.715 6.41797C106.707 6.47266 106.688 6.54102 106.656 6.62305C106.438 6.13477 106.113 5.63086 105.684 5.11133C105.207 4.53711 104.832 4.25 104.559 4.25C104.5 4.25 104.441 4.30078 104.383 4.40234C104.324 4.50391 104.256 4.55469 104.178 4.55469C104.072 4.55469 103.906 4.48633 103.68 4.34961C103.395 4.17773 103.166 3.97852 102.994 3.75195C102.764 3.44727 102.648 3.12305 102.648 2.7793C102.648 2.5332 102.729 2.41016 102.889 2.41016C103.17 2.41016 103.609 2.58789 104.207 2.94336C104.875 3.33789 105.436 3.79883 105.889 4.32617C106.447 4.9707 106.727 5.60156 106.727 6.21875ZM109.152 9.2832H108.795C108.467 9.2832 108.203 9.10547 108.004 8.75C107.766 8.32031 107.646 7.66992 107.646 6.79883C107.646 6.73633 107.639 6.65234 107.623 6.54688C107.611 6.44141 107.605 6.375 107.605 6.34766C107.23 7.39062 106.896 8.10547 106.604 8.49219C106.256 8.94531 105.766 9.24609 105.133 9.39453C104.594 9.51953 103.676 9.58203 102.379 9.58203V9.41797C103.43 9.10156 104.213 8.82812 104.729 8.59766C105.561 8.23047 106.191 7.80664 106.621 7.32617C107.141 6.74805 107.4 6.0625 107.4 5.26953C107.4 4.88672 107.375 4.5293 107.324 4.19727C107.277 3.86523 107.211 3.52539 107.125 3.17773L107.318 2.68555C107.396 2.49414 107.469 2.33203 107.535 2.19922C107.637 2.76172 107.732 3.36914 107.822 4.02148C107.885 4.4707 107.945 4.95312 108.004 5.46875C108.078 6.10156 108.143 6.61133 108.197 6.99805C108.268 7.49023 108.373 7.8418 108.514 8.05273C108.607 8.19336 108.701 8.26367 108.795 8.26367H109.152V9.2832ZM116.131 9.2832H108.742V8.26367L109.639 8.25781C109.904 8.25781 110.152 8.22266 110.383 8.15234C110.648 8.07031 110.949 7.92578 111.285 7.71875C111.355 7.54688 111.412 7.36328 111.455 7.16797C111.498 6.96875 111.52 6.77734 111.52 6.59375C111.52 6.17578 111.48 5.71484 111.402 5.21094C111.344 4.84375 111.256 4.41211 111.139 3.91602C111.076 3.6582 110.994 3.34375 110.893 2.97266L110.529 2.79102C110.557 2.55664 110.596 2.33008 110.646 2.11133C110.701 1.89258 110.775 1.68164 110.869 1.47852C110.932 1.66211 111.074 1.80469 111.297 1.90625C111.48 1.98828 111.715 2.04297 112 2.07031C111.961 2.47266 111.932 2.72852 111.912 2.83789C111.893 2.94727 111.855 3.08203 111.801 3.24219C111.773 3.23828 111.701 3.21875 111.584 3.18359L111.508 3.16016C111.645 3.61719 111.756 4.08789 111.842 4.57227C111.932 5.05273 111.977 5.45703 111.977 5.78516C111.977 6.0625 111.949 6.37109 111.895 6.71094C111.875 6.83203 111.84 7.01953 111.789 7.27344C112.473 6.87891 112.91 6.63672 113.102 6.54688C113.68 6.27344 114.176 6.13672 114.59 6.13672C115.117 6.13672 115.512 6.29102 115.773 6.59961C116.012 6.88086 116.131 7.28125 116.131 7.80078V9.2832ZM115.205 7.8125C115.205 7.61328 115.102 7.46289 114.895 7.36133C114.691 7.25586 114.398 7.20312 114.016 7.20312C113.73 7.20312 113.402 7.26562 113.031 7.39062C112.727 7.49219 112.402 7.63281 112.059 7.8125C111.805 7.94531 111.543 8.0957 111.273 8.26367H113.822C114.744 8.26367 115.205 8.11328 115.205 7.8125ZM118.117 7.78906C118.117 8.10156 118.061 8.4043 117.947 8.69727C117.889 8.85352 117.762 9.10156 117.566 9.44141L117.461 9.38281C117.473 9.26953 117.482 9.13867 117.49 8.99023C117.502 8.8418 117.508 8.74219 117.508 8.69141C117.508 8.28516 117.475 7.71875 117.408 6.99219C117.346 6.26172 117.27 5.5 117.18 4.70703C117.125 4.22656 117.064 3.73633 116.998 3.23633C117.076 3.06445 117.164 2.87891 117.262 2.67969C117.363 2.48047 117.459 2.29297 117.549 2.11719C117.611 2.5625 117.689 3.17188 117.783 3.94531C117.881 4.71875 117.957 5.41602 118.012 6.03711C118.082 6.81055 118.117 7.39453 118.117 7.78906ZM126.461 9.2832H125.623C125.342 9.2832 125.094 9.04297 124.879 8.5625C124.719 8.20312 124.59 7.74023 124.492 7.17383C124.375 7.39258 124.227 7.5625 124.047 7.68359C123.867 7.80469 123.678 7.86523 123.479 7.86523C123.029 7.86523 122.654 7.83594 122.354 7.77734C122.057 7.71484 121.908 7.63672 121.908 7.54297C121.908 7.20703 122.127 6.83594 122.564 6.42969C123.002 6.01953 123.549 5.66211 124.205 5.35742C124.197 5.32617 124.18 5.24414 124.152 5.11133C124.129 4.97852 124.117 4.89648 124.117 4.86523C124.117 4.73242 124.162 4.58398 124.252 4.41992C124.326 4.28711 124.424 4.15039 124.545 4.00977C124.584 4.25195 124.623 4.48633 124.662 4.71289C124.705 4.93945 124.754 5.17383 124.809 5.41602L124.984 6.42383C125.082 6.97852 125.17 7.38867 125.248 7.6543C125.369 8.06055 125.494 8.26367 125.623 8.26367H126.461V9.2832ZM124.416 6.66406L124.305 6.02539C123.965 6.14648 123.697 6.27344 123.502 6.40625C123.307 6.53516 123.143 6.70703 123.01 6.92188C123.092 6.95703 123.188 6.98438 123.297 7.00391C123.406 7.02344 123.557 7.0332 123.748 7.0332C123.982 7.0332 124.205 6.91016 124.416 6.66406ZM128.922 3.86328L128.477 4.71289L127.527 4.2207L127.961 3.37109L128.922 3.86328ZM129.391 9.2832H126.051V8.26367H128.963C128.963 7.80273 128.908 7.45117 128.799 7.20898C128.725 7.04102 128.541 6.79883 128.248 6.48242L128.705 5.52734C128.986 5.88281 129.162 6.16016 129.232 6.35938C129.338 6.66016 129.391 7.1582 129.391 7.85352V9.2832ZM134.576 8.93164C134.576 9.57617 134.338 10.2168 133.861 10.8535C133.33 11.5645 132.717 11.9199 132.021 11.9199C131.764 11.9199 131.498 11.8906 131.225 11.832C131.025 11.7891 130.766 11.7148 130.445 11.6094C130.191 11.5195 129.938 11.4316 129.684 11.3457L129.783 11.1406C130.002 11.1914 130.23 11.2441 130.469 11.2988C130.711 11.3574 130.928 11.3867 131.119 11.3867C131.596 11.3867 132.047 11.2656 132.473 11.0234C132.805 10.832 133.137 10.5547 133.469 10.1914C133.637 10.0078 133.875 9.70898 134.184 9.29492C133.656 9.29492 133.262 9.21094 133 9.04297C132.703 8.85156 132.555 8.53711 132.555 8.09961C132.555 7.69727 132.648 7.32422 132.836 6.98047C133.055 6.58203 133.332 6.38281 133.668 6.38281C134.008 6.38281 134.252 6.58008 134.4 6.97461C134.518 7.2832 134.576 7.71289 134.576 8.26367V8.93164ZM134.207 8.29297C134.121 7.91797 134.018 7.6582 133.896 7.51367C133.791 7.38867 133.662 7.32617 133.51 7.32617C133.4 7.32617 133.305 7.36328 133.223 7.4375C133.145 7.50781 133.105 7.59766 133.105 7.70703C133.105 7.89844 133.191 8.04492 133.363 8.14648C133.535 8.24414 133.816 8.29297 134.207 8.29297ZM139.311 9.2832H134.172V8.26367H138.631C138.357 7.84961 138.045 7.49023 137.693 7.18555C137.342 6.87695 136.867 6.54492 136.27 6.18945L136.076 6.37109L135.385 5.84375C135.143 5.64062 135.021 5.48242 135.021 5.36914C135.021 4.69727 135.186 4.16992 135.514 3.78711C135.818 3.43555 136.344 3.11914 137.09 2.83789L138.742 2.19336V3.20703L137.518 3.61719C137.029 3.77734 136.635 3.92383 136.334 4.05664C135.951 4.22461 135.76 4.35352 135.76 4.44336C135.76 4.5332 135.885 4.67188 136.135 4.85938C136.291 4.97656 136.449 5.09375 136.609 5.21094C137.203 5.66016 137.721 6.13086 138.162 6.62305C138.639 7.15039 139.021 7.69727 139.311 8.26367V9.2832ZM138.742 0.488281V1.47852C137.898 1.78711 137.117 2.11523 136.398 2.46289C135.762 2.76758 135.262 3.04297 134.898 3.28906V2.66797C135.023 2.52734 135.273 2.33398 135.648 2.08789C136.023 1.8418 136.473 1.58203 136.996 1.30859C137.582 1 138.164 0.726563 138.742 0.488281ZM148.521 9.2832C148.521 9.71289 148.338 10.1582 147.971 10.6191C147.65 11.0254 147.252 11.375 146.775 11.668C146.322 11.9492 145.949 12.0898 145.656 12.0898C145.387 12.0898 145.096 12.0508 144.783 11.9727C144.545 11.9141 144.26 11.8223 143.928 11.6973C143.646 11.5918 143.367 11.4863 143.09 11.3809L143.189 11.1465C143.447 11.1973 143.715 11.248 143.992 11.2988C144.273 11.3535 144.527 11.3809 144.754 11.3809C145.254 11.3809 145.775 11.2207 146.318 10.9004C146.811 10.6074 147.23 10.2383 147.578 9.79297C147.926 9.34375 148.1 8.93945 148.1 8.58008C148.1 8.27148 148.01 7.94727 147.83 7.60742C147.686 7.33398 147.482 7.05273 147.221 6.76367L147.555 5.84375C147.875 6.14062 148.111 6.4375 148.264 6.73438C148.436 7.07031 148.521 7.44531 148.521 7.85938V9.2832ZM153.145 8.29297C153.145 8.51953 153.074 8.77148 152.934 9.04883C152.781 9.34961 152.629 9.5 152.477 9.5C152.316 9.5 152.018 9.39844 151.58 9.19531C151.178 9.00781 150.838 8.82422 150.561 8.64453C150.107 8.90234 149.777 9.06836 149.57 9.14258C149.309 9.23633 149 9.2832 148.645 9.2832H148.117V8.26367H148.645C148.805 8.26367 148.959 8.25195 149.107 8.22852C149.256 8.20117 149.457 8.1543 149.711 8.08789C149.609 8.01367 149.508 7.9375 149.406 7.85938C149.297 7.76172 149.242 7.66602 149.242 7.57227C149.242 7.50586 149.244 7.45703 149.248 7.42578C149.256 7.39453 149.283 7.33594 149.33 7.25L149.91 6.23633C149.988 6.09961 150.059 6.00586 150.121 5.95508C150.188 5.90039 150.277 5.85742 150.391 5.82617C150.121 5.64258 149.986 5.51172 149.986 5.43359C149.986 5.35547 150.072 5.1543 150.244 4.83008C150.303 4.7207 150.393 4.55859 150.514 4.34375C150.764 4.58203 151.078 4.92773 151.457 5.38086C151.938 5.95117 152.316 6.46094 152.594 6.91016C152.961 7.50391 153.145 7.96484 153.145 8.29297ZM151.082 7.02148C151.082 6.85352 151.047 6.7207 150.977 6.62305C150.895 6.50586 150.764 6.44727 150.584 6.44727C150.404 6.44727 150.236 6.50781 150.08 6.62891C149.924 6.74609 149.846 6.88867 149.846 7.05664C149.846 7.2168 150.084 7.42773 150.561 7.68945C150.729 7.58008 150.854 7.47461 150.936 7.37305C151.033 7.25586 151.082 7.13867 151.082 7.02148ZM152.494 8.36328C152.494 8.22656 152.385 8.01367 152.166 7.72461C152.029 7.54102 151.861 7.3457 151.662 7.13867C151.662 7.33008 151.621 7.50977 151.539 7.67773C151.461 7.8418 151.35 7.96875 151.205 8.05859C151.439 8.17969 151.676 8.29883 151.914 8.41602C152.109 8.50195 152.248 8.54492 152.33 8.54492C152.377 8.54492 152.416 8.52734 152.447 8.49219C152.479 8.45703 152.494 8.41406 152.494 8.36328ZM164.33 9.2832H163.305C162.703 9.2832 162.25 9.29883 161.945 9.33008C161.645 9.36133 161.494 9.42383 161.494 9.51758C161.494 9.64648 161.676 9.71094 162.039 9.71094C162.199 9.71094 162.326 9.71484 162.42 9.72266C162.514 9.73047 162.719 9.75195 163.035 9.78711C163.223 9.81055 163.352 9.83984 163.422 9.875C163.535 9.93359 163.592 10.0352 163.592 10.1797C163.592 10.9102 163.352 11.4414 162.871 11.7734C162.348 12.1367 161.482 12.3184 160.275 12.3184C159.436 12.3184 158.768 12.1758 158.271 11.8906C157.744 11.5859 157.48 11.1523 157.48 10.5898C157.48 10.1367 157.605 9.65625 157.855 9.14844C157.945 8.96484 158.182 8.57227 158.564 7.9707L158.799 8.08789C158.65 8.3418 158.504 8.59375 158.359 8.84375C158.137 9.27344 158.025 9.625 158.025 9.89844C158.025 10.3789 158.275 10.7441 158.775 10.9941C159.252 11.2324 159.906 11.3516 160.738 11.3516C161.297 11.3516 161.789 11.3086 162.215 11.2227C162.738 11.1172 163 10.9727 163 10.7891C163 10.7227 162.971 10.6738 162.912 10.6426C162.854 10.6074 162.756 10.5898 162.619 10.5898C162.514 10.5781 162.348 10.5664 162.121 10.5547C161.898 10.5391 161.752 10.5312 161.682 10.5312C161.436 10.5312 161.26 10.5 161.154 10.4375C161.049 10.3711 160.996 10.2734 160.996 10.1445C160.996 9.66016 161.139 9.26367 161.424 8.95508C161.658 8.70508 161.973 8.51953 162.367 8.39844C162.664 8.30859 162.977 8.26367 163.305 8.26367H164.33V9.2832ZM167.172 10.6719L166.738 11.5215L165.777 11.0293L166.223 10.1797L167.172 10.6719ZM166.973 12.248L166.539 13.1035L165.584 12.5996L166.035 11.7441L166.973 12.248ZM165.836 11.2168L165.396 12.0547L164.43 11.5566L164.887 10.7129L165.836 11.2168ZM167.266 9.2832H163.926V8.26367H166.838C166.838 7.80273 166.783 7.45117 166.674 7.20898C166.6 7.04102 166.416 6.79883 166.123 6.48242L166.58 5.52734C166.861 5.88281 167.037 6.16016 167.107 6.35938C167.213 6.66016 167.266 7.1582 167.266 7.85352V9.2832ZM171.994 9.2832H166.855V8.26367H171.314C171.041 7.84961 170.729 7.49023 170.377 7.18555C170.025 6.87695 169.551 6.54492 168.953 6.18945L168.76 6.37109L168.068 5.84375C167.826 5.64062 167.705 5.48242 167.705 5.36914C167.705 4.69727 167.869 4.16992 168.197 3.78711C168.502 3.43555 169.027 3.11914 169.773 2.83789L171.426 2.19336V3.20703L170.201 3.61719C169.713 3.77734 169.318 3.92383 169.018 4.05664C168.635 4.22461 168.443 4.35352 168.443 4.44336C168.443 4.5332 168.568 4.67188 168.818 4.85938C168.975 4.97656 169.133 5.09375 169.293 5.21094C169.887 5.66016 170.404 6.13086 170.846 6.62305C171.322 7.15039 171.705 7.69727 171.994 8.26367V9.2832Z"/>
  </symbol>
  <symbol id="svg-copy-fa-2" viewBox="35 14 137 14">
    <path d="M39.7832 23.2832H37.1582C36.9355 23.2832 36.7344 23.2188 36.5547 23.0898C36.3789 22.9609 36.291 22.8086 36.291 22.6328C36.291 22.4844 36.2988 22.3496 36.3145 22.2285C36.3301 22.1074 36.3594 21.9746 36.4023 21.8301H36.5371C36.5801 21.9902 36.6582 22.1055 36.7715 22.1758C36.8652 22.2344 36.9941 22.2637 37.1582 22.2637H39.4258C39.4258 21.5645 39.3281 21.002 39.1328 20.5762C38.8906 20.0449 38.4863 19.6914 37.9199 19.5156L38.0078 18.3789C38.6836 18.7109 39.1621 19.2402 39.4434 19.9668C39.6699 20.5527 39.7832 21.3184 39.7832 22.2637V23.2832ZM42.25 17.8633L41.8047 18.7129L40.8555 18.2207L41.2891 17.3711L42.25 17.8633ZM42.7188 23.2832H39.3789V22.2637H42.291C42.291 21.8027 42.2363 21.4512 42.127 21.209C42.0527 21.041 41.8691 20.7988 41.5762 20.4824L42.0332 19.5273C42.3145 19.8828 42.4902 20.1602 42.5605 20.3594C42.666 20.6602 42.7188 21.1582 42.7188 21.8535V23.2832ZM48.584 23.2832C48.584 23.7129 48.4004 24.1582 48.0332 24.6191C47.7129 25.0254 47.3145 25.375 46.8379 25.668C46.3848 25.9492 46.0117 26.0898 45.7188 26.0898C45.4492 26.0898 45.1582 26.0508 44.8457 25.9727C44.6074 25.9141 44.3223 25.8223 43.9902 25.6973C43.709 25.5918 43.4297 25.4863 43.1523 25.3809L43.252 25.1465C43.5098 25.1973 43.7773 25.248 44.0547 25.2988C44.3359 25.3535 44.5898 25.3809 44.8164 25.3809C45.3164 25.3809 45.8379 25.2207 46.3809 24.9004C46.873 24.6074 47.293 24.2383 47.6406 23.793C47.9883 23.3438 48.1621 22.9395 48.1621 22.5801C48.1621 22.2715 48.0723 21.9473 47.8926 21.6074C47.748 21.334 47.5449 21.0527 47.2832 20.7637L47.6172 19.8438C47.9375 20.1406 48.1738 20.4375 48.3262 20.7344C48.498 21.0703 48.584 21.4453 48.584 21.8594V23.2832ZM51.5195 23.2832H48.1797V22.2637H51.0918C51.0918 21.8027 51.0371 21.4512 50.9277 21.209C50.8535 21.041 50.6699 20.7988 50.377 20.4824L50.834 19.5273C51.1152 19.8828 51.291 20.1602 51.3613 20.3594C51.4668 20.6602 51.5195 21.1582 51.5195 21.8535V23.2832ZM50.9219 24.707L50.4648 25.5566L49.5156 25.0645L49.9492 24.209L50.9219 24.707ZM62.1309 20.3125C62.1309 20.4375 62.1191 20.5664 62.0957 20.6992C62.0723 20.8281 62.0566 20.9199 62.0488 20.9746C61.9121 20.7988 61.748 20.6602 61.5566 20.5586C61.3691 20.457 61.1777 20.4062 60.9824 20.4062C60.6426 20.4062 60.2852 20.6035 59.9102 20.998C59.5664 21.3613 59.3945 21.6504 59.3945 21.8652C59.3945 21.9395 59.4355 21.9961 59.5176 22.0352C59.6035 22.0703 59.75 22.0879 59.957 22.0879H60.4258C60.707 22.0879 60.9141 22.0918 61.0469 22.0996C61.1836 22.1035 61.3457 22.1211 61.5332 22.1523C61.7207 22.1836 61.8145 22.3262 61.8145 22.5801C61.8145 23.5605 61.3867 24.3066 60.5312 24.8184C59.7461 25.2871 58.6836 25.5215 57.3438 25.5215C56.6484 25.5215 56.1172 25.3867 55.75 25.1172C55.3516 24.8242 55.1523 24.3828 55.1523 23.793C55.1523 23.3867 55.2188 22.9609 55.3516 22.5156C55.4531 22.1758 55.5938 21.8203 55.7734 21.4492C55.7852 21.4258 55.9082 21.1934 56.1426 20.752L56.3887 20.8516C56.1426 21.2891 55.9531 21.6992 55.8203 22.082C55.6914 22.4609 55.627 22.7969 55.627 23.0898C55.627 23.5664 55.791 23.9238 56.1191 24.1621C56.4512 24.4004 56.9238 24.5195 57.5371 24.5195C58.0059 24.5195 58.5508 24.4258 59.1719 24.2383C59.7031 24.0781 60.1816 23.8867 60.6074 23.6641C61.0332 23.4414 61.2461 23.2773 61.2461 23.1719C61.2461 23.0977 61.2207 23.0488 61.1699 23.0254C61.123 23.002 61.0449 22.9902 60.9355 22.9902H59.5645C59.3965 22.9902 59.248 22.9297 59.1191 22.8086C58.9902 22.6875 58.9258 22.5312 58.9258 22.3398C58.9258 22.0781 59.0332 21.7227 59.248 21.2734C59.4824 20.7852 59.7656 20.377 60.0977 20.0488C60.4961 19.6543 60.8965 19.457 61.2988 19.457C61.5566 19.457 61.7598 19.5352 61.9082 19.6914C62.0566 19.8477 62.1309 20.0547 62.1309 20.3125ZM65.2773 23.2832H64.457C64.1914 23.2832 63.9785 23.1758 63.8184 22.9609C63.6777 22.7734 63.5703 22.4941 63.4961 22.123C63.4258 21.752 63.3711 21.2949 63.332 20.752C63.3086 20.3105 63.2832 19.8574 63.2559 19.3926C63.2324 18.9277 63.1992 18.5762 63.1562 18.3379C63.1172 18.0957 63.0625 17.8984 62.9922 17.7461C62.9062 17.5586 62.7871 17.3945 62.6348 17.2539L63.3555 16.1172C63.5078 16.5859 63.6152 17.1465 63.6777 17.7988C63.7168 18.2051 63.7559 19.166 63.7949 20.6816C63.8652 21.377 63.9668 21.8223 64.0996 22.0176C64.209 22.1816 64.3281 22.2637 64.457 22.2637H65.2773V23.2832ZM69.8945 22.293C69.8945 22.5195 69.8242 22.7715 69.6836 23.0488C69.5312 23.3496 69.3789 23.5 69.2266 23.5C69.0664 23.5 68.7676 23.3984 68.3301 23.1953C67.9277 23.0078 67.5879 22.8242 67.3105 22.6445C66.8574 22.9023 66.5273 23.0684 66.3203 23.1426C66.0586 23.2363 65.75 23.2832 65.3945 23.2832H64.8672V22.2637H65.3945C65.5547 22.2637 65.709 22.252 65.8574 22.2285C66.0059 22.2012 66.207 22.1543 66.4609 22.0879C66.3594 22.0137 66.2578 21.9375 66.1562 21.8594C66.0469 21.7617 65.9922 21.666 65.9922 21.5723C65.9922 21.5059 65.9941 21.457 65.998 21.4258C66.0059 21.3945 66.0332 21.3359 66.0801 21.25L66.6602 20.2363C66.7383 20.0996 66.8086 20.0059 66.8711 19.9551C66.9375 19.9004 67.0273 19.8574 67.1406 19.8262C66.8711 19.6426 66.7363 19.5117 66.7363 19.4336C66.7363 19.3555 66.8223 19.1543 66.9941 18.8301C67.0527 18.7207 67.1426 18.5586 67.2637 18.3438C67.5137 18.582 67.8281 18.9277 68.207 19.3809C68.6875 19.9512 69.0664 20.4609 69.3438 20.9102C69.7109 21.5039 69.8945 21.9648 69.8945 22.293ZM67.832 21.0215C67.832 20.8535 67.7969 20.7207 67.7266 20.623C67.6445 20.5059 67.5137 20.4473 67.334 20.4473C67.1543 20.4473 66.9863 20.5078 66.8301 20.6289C66.6738 20.7461 66.5957 20.8887 66.5957 21.0566C66.5957 21.2168 66.834 21.4277 67.3105 21.6895C67.4785 21.5801 67.6035 21.4746 67.6855 21.373C67.7832 21.2559 67.832 21.1387 67.832 21.0215ZM69.2441 22.3633C69.2441 22.2266 69.1348 22.0137 68.916 21.7246C68.7793 21.541 68.6113 21.3457 68.4121 21.1387C68.4121 21.3301 68.3711 21.5098 68.2891 21.6777C68.2109 21.8418 68.0996 21.9688 67.9551 22.0586C68.1895 22.1797 68.4258 22.2988 68.6641 22.416C68.8594 22.502 68.998 22.5449 69.0801 22.5449C69.127 22.5449 69.166 22.5273 69.1973 22.4922C69.2285 22.457 69.2441 22.4141 69.2441 22.3633ZM81.0801 23.2832H80.0547C79.4531 23.2832 79 23.2988 78.6953 23.3301C78.3945 23.3613 78.2441 23.4238 78.2441 23.5176C78.2441 23.6465 78.4258 23.7109 78.7891 23.7109C78.9492 23.7109 79.0762 23.7148 79.1699 23.7227C79.2637 23.7305 79.4688 23.752 79.7852 23.7871C79.9727 23.8105 80.1016 23.8398 80.1719 23.875C80.2852 23.9336 80.3418 24.0352 80.3418 24.1797C80.3418 24.9102 80.1016 25.4414 79.6211 25.7734C79.0977 26.1367 78.2324 26.3184 77.0254 26.3184C76.1855 26.3184 75.5176 26.1758 75.0215 25.8906C74.4941 25.5859 74.2305 25.1523 74.2305 24.5898C74.2305 24.1367 74.3555 23.6562 74.6055 23.1484C74.6953 22.9648 74.9316 22.5723 75.3145 21.9707L75.5488 22.0879C75.4004 22.3418 75.2539 22.5938 75.1094 22.8438C74.8867 23.2734 74.7754 23.625 74.7754 23.8984C74.7754 24.3789 75.0254 24.7441 75.5254 24.9941C76.002 25.2324 76.6562 25.3516 77.4883 25.3516C78.0469 25.3516 78.5391 25.3086 78.9648 25.2227C79.4883 25.1172 79.75 24.9727 79.75 24.7891C79.75 24.7227 79.7207 24.6738 79.6621 24.6426C79.6035 24.6074 79.5059 24.5898 79.3691 24.5898C79.2637 24.5781 79.0977 24.5664 78.8711 24.5547C78.6484 24.5391 78.502 24.5312 78.4316 24.5312C78.1855 24.5312 78.0098 24.5 77.9043 24.4375C77.7988 24.3711 77.7461 24.2734 77.7461 24.1445C77.7461 23.6602 77.8887 23.2637 78.1738 22.9551C78.4082 22.7051 78.7227 22.5195 79.1172 22.3984C79.4141 22.3086 79.7266 22.2637 80.0547 22.2637H81.0801V23.2832ZM85.8145 23.2832H80.6758V22.2637H85.1348C84.8613 21.8496 84.5488 21.4902 84.1973 21.1855C83.8457 20.877 83.3711 20.5449 82.7734 20.1895L82.5801 20.3711L81.8887 19.8438C81.6465 19.6406 81.5254 19.4824 81.5254 19.3691C81.5254 18.6973 81.6895 18.1699 82.0176 17.7871C82.3223 17.4355 82.8477 17.1191 83.5938 16.8379L85.2461 16.1934V17.207L84.0215 17.6172C83.5332 17.7773 83.1387 17.9238 82.8379 18.0566C82.4551 18.2246 82.2637 18.3535 82.2637 18.4434C82.2637 18.5332 82.3887 18.6719 82.6387 18.8594C82.7949 18.9766 82.9531 19.0938 83.1133 19.2109C83.707 19.6602 84.2246 20.1309 84.666 20.623C85.1426 21.1504 85.5254 21.6973 85.8145 22.2637V23.2832ZM85.2461 14.4883V15.4785C84.4023 15.7871 83.6211 16.1152 82.9023 16.4629C82.2656 16.7676 81.7656 17.043 81.4023 17.2891V16.668C81.5273 16.5273 81.7773 16.334 82.1523 16.0879C82.5273 15.8418 82.9766 15.582 83.5 15.3086C84.0859 15 84.668 14.7266 85.2461 14.4883ZM91.6855 23.2832C91.6855 23.7129 91.502 24.1582 91.1348 24.6191C90.8145 25.0254 90.416 25.375 89.9395 25.668C89.4863 25.9492 89.1133 26.0898 88.8203 26.0898C88.5508 26.0898 88.2598 26.0508 87.9473 25.9727C87.709 25.9141 87.4238 25.8223 87.0918 25.6973C86.8105 25.5918 86.5312 25.4863 86.2539 25.3809L86.3535 25.1465C86.6113 25.1973 86.8789 25.248 87.1562 25.2988C87.4375 25.3535 87.6914 25.3809 87.918 25.3809C88.418 25.3809 88.9395 25.2207 89.4824 24.9004C89.9746 24.6074 90.3945 24.2383 90.7422 23.793C91.0898 23.3438 91.2637 22.9395 91.2637 22.5801C91.2637 22.2715 91.1738 21.9473 90.9941 21.6074C90.8496 21.334 90.6465 21.0527 90.3848 20.7637L90.7188 19.8438C91.0391 20.1406 91.2754 20.4375 91.4277 20.7344C91.5996 21.0703 91.6855 21.4453 91.6855 21.8594V23.2832ZM90.3789 16.8262L89.9277 17.6816L88.9902 17.1777L89.4238 16.3223L90.3789 16.8262ZM91.5332 17.8691L91.0762 18.7129L90.127 18.209L90.5664 17.3711L91.5332 17.8691ZM90.1855 18.3965L89.7402 19.2461L88.791 18.7539L89.2246 17.9043L90.1855 18.3965ZM94.6211 23.2832H91.2812V22.2637H94.1934C94.1934 21.8027 94.1387 21.4512 94.0293 21.209C93.9551 21.041 93.7715 20.7988 93.4785 20.4824L93.9355 19.5273C94.2168 19.8828 94.3926 20.1602 94.4629 20.3594C94.5684 20.6602 94.6211 21.1582 94.6211 21.8535V23.2832ZM94.5918 24.4551L94.1348 25.2988L93.1855 24.7949L93.625 23.957L94.5918 24.4551ZM93.2441 24.9824L92.7988 25.832L91.8496 25.3398L92.2832 24.4902L93.2441 24.9824ZM99.8066 22.9316C99.8066 23.5762 99.5684 24.2168 99.0918 24.8535C98.5605 25.5645 97.9473 25.9199 97.252 25.9199C96.9941 25.9199 96.7285 25.8906 96.4551 25.832C96.2559 25.7891 95.9961 25.7148 95.6758 25.6094C95.4219 25.5195 95.168 25.4316 94.9141 25.3457L95.0137 25.1406C95.2324 25.1914 95.4609 25.2441 95.6992 25.2988C95.9414 25.3574 96.1582 25.3867 96.3496 25.3867C96.8262 25.3867 97.2773 25.2656 97.7031 25.0234C98.0352 24.832 98.3672 24.5547 98.6992 24.1914C98.8672 24.0078 99.1055 23.709 99.4141 23.2949C98.8867 23.2949 98.4922 23.2109 98.2305 23.043C97.9336 22.8516 97.7852 22.5371 97.7852 22.0996C97.7852 21.6973 97.8789 21.3242 98.0664 20.9805C98.2852 20.582 98.5625 20.3828 98.8984 20.3828C99.2383 20.3828 99.4824 20.5801 99.6309 20.9746C99.748 21.2832 99.8066 21.7129 99.8066 22.2637V22.9316ZM99.4375 22.293C99.3516 21.918 99.248 21.6582 99.127 21.5137C99.0215 21.3887 98.8926 21.3262 98.7402 21.3262C98.6309 21.3262 98.5352 21.3633 98.4531 21.4375C98.375 21.5078 98.3359 21.5977 98.3359 21.707C98.3359 21.8984 98.4219 22.0449 98.5938 22.1465C98.7656 22.2441 99.0469 22.293 99.4375 22.293ZM108.139 17.8281L107.688 18.6777L106.744 18.1855L107.184 17.3301L108.139 17.8281ZM109.018 23.2832C109.018 23.7129 108.834 24.1582 108.467 24.6191C108.146 25.0254 107.748 25.375 107.271 25.668C106.818 25.9492 106.445 26.0898 106.152 26.0898C105.883 26.0898 105.592 26.0508 105.279 25.9727C105.041 25.9141 104.756 25.8223 104.424 25.6973C104.143 25.5918 103.863 25.4863 103.586 25.3809L103.686 25.1465C103.943 25.1973 104.211 25.248 104.488 25.2988C104.77 25.3535 105.023 25.3809 105.25 25.3809C105.75 25.3809 106.271 25.2207 106.814 24.9004C107.307 24.6074 107.727 24.2383 108.074 23.793C108.422 23.3438 108.596 22.9395 108.596 22.5801C108.596 22.2715 108.506 21.9473 108.326 21.6074C108.182 21.334 107.979 21.0527 107.717 20.7637L108.051 19.8438C108.371 20.1406 108.607 20.4375 108.76 20.7344C108.932 21.0703 109.018 21.4453 109.018 21.8594V23.2832ZM111.004 21.7891C111.004 22.1016 110.947 22.4043 110.834 22.6973C110.775 22.8535 110.648 23.1016 110.453 23.4414L110.348 23.3828C110.359 23.2695 110.369 23.1387 110.377 22.9902C110.389 22.8418 110.395 22.7422 110.395 22.6914C110.395 22.2852 110.361 21.7188 110.295 20.9922C110.232 20.2617 110.156 19.5 110.066 18.707C110.012 18.2266 109.951 17.7363 109.885 17.2363C109.963 17.0645 110.051 16.8789 110.148 16.6797C110.25 16.4805 110.346 16.293 110.436 16.1172C110.498 16.5625 110.576 17.1719 110.67 17.9453C110.768 18.7188 110.844 19.416 110.898 20.0371C110.969 20.8105 111.004 21.3945 111.004 21.7891ZM117.988 21.5547C117.988 22.1055 117.898 22.5195 117.719 22.7969C117.441 23.2266 116.934 23.4414 116.195 23.4414C115.91 23.4414 115.674 23.3848 115.486 23.2715C115.271 23.1426 115.164 22.959 115.164 22.7207C115.164 22.4473 115.232 22.1309 115.369 21.7715C115.494 21.4668 115.621 21.1602 115.75 20.8516L115.662 20.8281L116.02 19.8379C116.727 20.209 117.148 20.4434 117.285 20.541C117.754 20.8691 117.988 21.207 117.988 21.5547ZM117.479 22.0117C117.479 21.8633 117.264 21.666 116.834 21.4199C116.65 21.3145 116.453 21.2109 116.242 21.1094C116.066 21.3008 115.961 21.4199 115.926 21.4668C115.816 21.6191 115.762 21.7637 115.762 21.9004C115.762 22.0996 115.816 22.2559 115.926 22.3691C116.039 22.4785 116.189 22.5332 116.377 22.5332C116.596 22.5332 116.834 22.4727 117.092 22.3516C117.35 22.2266 117.479 22.1133 117.479 22.0117ZM122.283 23.2832H119.658C119.436 23.2832 119.234 23.2188 119.055 23.0898C118.879 22.9609 118.791 22.8086 118.791 22.6328C118.791 22.4844 118.799 22.3496 118.814 22.2285C118.83 22.1074 118.859 21.9746 118.902 21.8301H119.037C119.08 21.9902 119.158 22.1055 119.271 22.1758C119.365 22.2344 119.494 22.2637 119.658 22.2637H121.926C121.926 21.5645 121.828 21.002 121.633 20.5762C121.391 20.0449 120.986 19.6914 120.42 19.5156L120.508 18.3789C121.184 18.7109 121.662 19.2402 121.943 19.9668C122.17 20.5527 122.283 21.3184 122.283 22.2637V23.2832ZM125.043 23.2832H124.223C123.957 23.2832 123.744 23.1758 123.584 22.9609C123.443 22.7734 123.336 22.4941 123.262 22.123C123.191 21.752 123.137 21.2949 123.098 20.752C123.074 20.3105 123.049 19.8574 123.021 19.3926C122.998 18.9277 122.965 18.5762 122.922 18.3379C122.883 18.0957 122.828 17.8984 122.758 17.7461C122.672 17.5586 122.553 17.3945 122.4 17.2539L123.121 16.1172C123.273 16.5859 123.381 17.1465 123.443 17.7988C123.482 18.2051 123.521 19.166 123.561 20.6816C123.631 21.377 123.732 21.8223 123.865 22.0176C123.975 22.1816 124.094 22.2637 124.223 22.2637H125.043V23.2832ZM127.686 17.0605L127.17 17.9043L126.35 17.3418L126.836 16.5215L127.686 17.0605ZM128.195 23.2832H124.633V22.2637H126.643C126.885 22.2637 127.09 22.2559 127.258 22.2402C127.43 22.2207 127.615 22.1816 127.814 22.123C127.143 22.0254 126.707 21.9336 126.508 21.8477C126.059 21.6523 125.834 21.3203 125.834 20.8516C125.834 20.4414 125.941 20.0547 126.156 19.6914C126.398 19.2812 126.693 19.0762 127.041 19.0762C127.439 19.0762 127.742 19.3301 127.949 19.8379C128.113 20.2402 128.195 20.7148 128.195 21.2617V23.2832ZM127.668 21.2383C127.578 20.9258 127.492 20.6934 127.41 20.541C127.25 20.248 127.057 20.1016 126.83 20.1016C126.721 20.1016 126.627 20.1445 126.549 20.2305C126.471 20.3164 126.432 20.418 126.432 20.5352C126.432 20.832 126.586 21.0312 126.895 21.1328C127.004 21.168 127.262 21.2031 127.668 21.2383ZM131.096 17.4941L130.639 18.3379L129.689 17.834L130.129 16.9961L131.096 17.4941ZM129.748 18.0215L129.303 18.8711L128.354 18.3789L128.787 17.5293L129.748 18.0215ZM131.125 23.2832H127.785V22.2637H130.697C130.697 21.8027 130.643 21.4512 130.533 21.209C130.459 21.041 130.275 20.7988 129.982 20.4824L130.439 19.5273C130.721 19.8828 130.896 20.1602 130.967 20.3594C131.072 20.6602 131.125 21.1582 131.125 21.8535V23.2832ZM137.494 23.2832H137.043C136.793 23.2832 136.578 23.25 136.398 23.1836C136.219 23.1133 136.055 23.0156 135.906 22.8906C135.723 23.0352 135.562 23.1309 135.426 23.1777C135.227 23.248 134.953 23.2832 134.605 23.2832H134.225C134.021 23.2832 133.818 23.2441 133.615 23.166C133.482 23.1152 133.318 23.0312 133.123 22.9141C132.936 23.0547 132.764 23.1523 132.607 23.207C132.451 23.2578 132.197 23.2832 131.846 23.2832H130.715V22.2637H131.846C132.162 22.2637 132.389 22.2363 132.525 22.1816C132.752 22.0918 132.865 21.9121 132.865 21.6426C132.865 21.5293 132.859 21.416 132.848 21.3027C132.836 21.1895 132.814 21.0625 132.783 20.9219L133.023 20.5703C133.133 20.9297 133.223 21.1914 133.293 21.3555C133.418 21.6406 133.555 21.8555 133.703 22C133.883 22.1758 134.098 22.2637 134.348 22.2637H134.74C135.033 22.2637 135.25 22.2188 135.391 22.1289C135.547 22.0273 135.625 21.8652 135.625 21.6426C135.625 21.5215 135.617 21.4043 135.602 21.291C135.586 21.1777 135.564 21.0547 135.537 20.9219L135.783 20.5703L135.906 21.1211C136.012 21.5547 136.141 21.8555 136.293 22.0234C136.426 22.1719 136.605 22.2461 136.832 22.2461C136.938 22.2461 137.021 22.2148 137.084 22.1523C137.15 22.0859 137.184 22.002 137.184 21.9004C137.184 21.6816 137.104 21.4512 136.943 21.209C136.916 21.1699 136.82 21.043 136.656 20.8281L137.037 20.1895C137.197 20.4316 137.307 20.6406 137.365 20.8164C137.451 21.082 137.494 21.4355 137.494 21.877V23.2832ZM139.48 21.7891C139.48 22.1016 139.424 22.4043 139.311 22.6973C139.252 22.8535 139.125 23.1016 138.93 23.4414L138.824 23.3828C138.836 23.2695 138.846 23.1387 138.854 22.9902C138.865 22.8418 138.871 22.7422 138.871 22.6914C138.871 22.2852 138.838 21.7188 138.771 20.9922C138.709 20.2617 138.633 19.5 138.543 18.707C138.488 18.2266 138.428 17.7363 138.361 17.2363C138.439 17.0645 138.527 16.8789 138.625 16.6797C138.727 16.4805 138.822 16.293 138.912 16.1172C138.975 16.5625 139.053 17.1719 139.146 17.9453C139.244 18.7188 139.32 19.416 139.375 20.0371C139.445 20.8105 139.48 21.3945 139.48 21.7891ZM147.455 18.7891L147.016 19.627L146.102 19.123L146.523 18.3086L147.455 18.7891ZM149.635 23.2832C149.635 24.1543 149.379 24.7949 148.867 25.2051C148.316 25.6465 147.428 25.8672 146.201 25.8672C145.42 25.8672 144.822 25.7305 144.408 25.457C143.955 25.1562 143.729 24.6953 143.729 24.0742C143.729 23.7383 143.77 23.3984 143.852 23.0547C143.934 22.7109 144.045 22.3652 144.186 22.0176C144.271 21.8066 144.42 21.4824 144.631 21.0449L144.865 21.1504C144.592 21.7129 144.41 22.1562 144.32 22.4805C144.234 22.8047 144.191 23.1016 144.191 23.3711C144.191 23.8555 144.363 24.2246 144.707 24.4785C145.055 24.7285 145.549 24.8535 146.189 24.8535C146.928 24.8535 147.582 24.7227 148.152 24.4609C148.859 24.1367 149.213 23.6836 149.213 23.1016C149.213 22.7031 149.154 22.332 149.037 21.9883C148.936 21.6836 148.791 21.418 148.604 21.1914L149.09 19.9902C149.297 20.3066 149.439 20.6289 149.518 20.957C149.596 21.2852 149.635 21.7207 149.635 22.2637V23.2832ZM152.57 23.2832H149.23V22.2637H152.143C152.143 21.8027 152.088 21.4512 151.979 21.209C151.904 21.041 151.721 20.7988 151.428 20.4824L151.885 19.5273C152.166 19.8828 152.342 20.1602 152.412 20.3594C152.518 20.6602 152.57 21.1582 152.57 21.8535V23.2832ZM152.541 24.4551L152.084 25.2988L151.135 24.7949L151.574 23.957L152.541 24.4551ZM151.193 24.9824L150.748 25.832L149.799 25.3398L150.232 24.4902L151.193 24.9824ZM155.031 17.8633L154.586 18.7129L153.637 18.2207L154.07 17.3711L155.031 17.8633ZM155.5 23.2832H152.16V22.2637H155.072C155.072 21.8027 155.018 21.4512 154.908 21.209C154.834 21.041 154.65 20.7988 154.357 20.4824L154.814 19.5273C155.096 19.8828 155.271 20.1602 155.342 20.3594C155.447 20.6602 155.5 21.1582 155.5 21.8535V23.2832ZM161.857 23.2832H155.09V22.2637H159.865C159.467 21.9551 159.131 21.7148 158.857 21.543C158.518 21.3281 158.207 21.1719 157.926 21.0742C157.609 20.9648 157.289 20.9102 156.965 20.9102C156.766 20.9102 156.564 20.9238 156.361 20.9512C156.475 20.6621 156.623 20.4297 156.807 20.2539C157.072 20 157.408 19.873 157.814 19.873C158.213 19.873 158.684 20.0684 159.227 20.459C159.496 20.6543 159.936 21.0254 160.545 21.5723C161.018 21.998 161.338 22.2285 161.506 22.2637H161.857V23.2832ZM159.637 24.6719L159.203 25.5215L158.242 25.0293L158.688 24.1797L159.637 24.6719ZM159.438 26.248L159.004 27.1035L158.049 26.5996L158.5 25.7441L159.438 26.248ZM158.301 25.2168L157.861 26.0547L156.895 25.5566L157.352 24.7129L158.301 25.2168ZM166.592 23.2832H165.982C165.721 23.2832 165.426 23.2246 165.098 23.1074C164.719 22.9707 164.385 22.7832 164.096 22.5449C163.869 22.8223 163.637 23.0156 163.398 23.125C163.164 23.2305 162.82 23.2832 162.367 23.2832H161.453V22.2637H162.35C162.705 22.2637 163.021 22.1738 163.299 21.9941C163.514 21.8535 163.709 21.6562 163.885 21.4023C164.123 21.0586 164.416 20.7598 164.764 20.5059C165.076 20.2793 165.363 20.1348 165.625 20.0723C165.895 20.4824 166.109 20.8516 166.27 21.1797C166.484 21.625 166.592 21.9863 166.592 22.2637V23.2832ZM165.918 22.1289C165.867 21.9023 165.789 21.6797 165.684 21.4609C165.594 21.2773 165.475 21.0879 165.326 20.8926C165.139 20.9395 164.98 21.0273 164.852 21.1562C164.766 21.2383 164.664 21.377 164.547 21.5723C164.688 21.7246 164.885 21.8613 165.139 21.9824C165.396 22.1035 165.639 22.1777 165.865 22.2051L165.918 22.1289ZM171.215 22.293C171.215 22.5195 171.145 22.7715 171.004 23.0488C170.852 23.3496 170.699 23.5 170.547 23.5C170.387 23.5 170.088 23.3984 169.65 23.1953C169.248 23.0078 168.908 22.8242 168.631 22.6445C168.178 22.9023 167.848 23.0684 167.641 23.1426C167.379 23.2363 167.07 23.2832 166.715 23.2832H166.188V22.2637H166.715C166.875 22.2637 167.029 22.252 167.178 22.2285C167.326 22.2012 167.527 22.1543 167.781 22.0879C167.68 22.0137 167.578 21.9375 167.477 21.8594C167.367 21.7617 167.312 21.666 167.312 21.5723C167.312 21.5059 167.314 21.457 167.318 21.4258C167.326 21.3945 167.354 21.3359 167.4 21.25L167.98 20.2363C168.059 20.0996 168.129 20.0059 168.191 19.9551C168.258 19.9004 168.348 19.8574 168.461 19.8262C168.191 19.6426 168.057 19.5117 168.057 19.4336C168.057 19.3555 168.143 19.1543 168.314 18.8301C168.373 18.7207 168.463 18.5586 168.584 18.3438C168.834 18.582 169.148 18.9277 169.527 19.3809C170.008 19.9512 170.387 20.4609 170.664 20.9102C171.031 21.5039 171.215 21.9648 171.215 22.293ZM169.152 21.0215C169.152 20.8535 169.117 20.7207 169.047 20.623C168.965 20.5059 168.834 20.4473 168.654 20.4473C168.475 20.4473 168.307 20.5078 168.15 20.6289C167.994 20.7461 167.916 20.8887 167.916 21.0566C167.916 21.2168 168.154 21.4277 168.631 21.6895C168.799 21.5801 168.924 21.4746 169.006 21.373C169.104 21.2559 169.152 21.1387 169.152 21.0215ZM170.564 22.3633C170.564 22.2266 170.455 22.0137 170.236 21.7246C170.1 21.541 169.932 21.3457 169.732 21.1387C169.732 21.3301 169.691 21.5098 169.609 21.6777C169.531 21.8418 169.42 21.9688 169.275 22.0586C169.51 22.1797 169.746 22.2988 169.984 22.416C170.18 22.502 170.318 22.5449 170.4 22.5449C170.447 22.5449 170.486 22.5273 170.518 22.4922C170.549 22.457 170.564 22.4141 170.564 22.3633Z"/>
  </symbol>
  <symbol id="svg-copy-fa-3" viewBox="22 29 150 14">
    <path d="M28.7676 37.2832H27.9648C27.4922 37.2832 27.1562 37.1953 26.957 37.0195C26.7578 36.8438 26.6582 36.5527 26.6582 36.1465C26.6582 35.9941 26.6777 35.8047 26.7168 35.5781C26.7324 35.4922 26.7539 35.3789 26.7812 35.2383C26.1133 35.4414 25.6094 35.6152 25.2695 35.7598C24.6445 36.0254 24.1602 36.3262 23.8164 36.6621C23.3828 37.084 23.166 37.5645 23.166 38.1035C23.166 38.9434 23.6035 39.5742 24.4785 39.9961C25.2402 40.3633 26.2578 40.5469 27.5312 40.5469H28.6094L28.6445 40.6113L27.3203 41.543H26.9805C26.1367 41.543 25.4355 41.4648 24.877 41.3086C24.209 41.1211 23.7031 40.8203 23.3594 40.4062C22.9688 39.9336 22.7734 39.3086 22.7734 38.5312C22.7734 37.8633 22.9395 37.2793 23.2715 36.7793C23.5293 36.3887 23.9062 36.0312 24.4023 35.707C24.5469 35.6094 24.9492 35.3848 25.6094 35.0332C25.4531 35.0137 25.2871 34.998 25.1113 34.9863C24.9395 34.9707 24.7832 34.9629 24.6426 34.9629C24.248 34.9629 23.9277 34.9805 23.6816 35.0156C23.5996 35.0273 23.3438 35.0801 22.9141 35.1738C23.0469 34.791 23.1855 34.5254 23.3301 34.377C23.6543 34.0488 24.1621 33.8848 24.8535 33.8848C25.2324 33.8848 25.6426 33.9219 26.084 33.9961C26.5254 34.0664 26.8965 34.1016 27.1973 34.1016C27.3965 34.1016 27.5898 34.0938 27.7773 34.0781C27.9688 34.0625 28.168 34.041 28.375 34.0137L28.1406 35.0098C27.9805 35.0293 27.7988 35.0566 27.5957 35.0918C27.4668 35.1152 27.2891 35.1484 27.0625 35.1914L27.0508 35.5195C27.0508 35.8398 27.1484 36.0547 27.3438 36.1641C27.4648 36.2305 27.6719 36.2637 27.9648 36.2637H28.7676V37.2832ZM31.7031 37.2832H28.3633V36.2637H31.2754C31.2754 35.8027 31.2207 35.4512 31.1113 35.209C31.0371 35.041 30.8535 34.7988 30.5605 34.4824L31.0176 33.5273C31.2988 33.8828 31.4746 34.1602 31.5449 34.3594C31.6504 34.6602 31.7031 35.1582 31.7031 35.8535V37.2832ZM31.6738 38.4551L31.2168 39.2988L30.2676 38.7949L30.707 37.957L31.6738 38.4551ZM30.3262 38.9824L29.8809 39.832L28.9316 39.3398L29.3652 38.4902L30.3262 38.9824ZM37.5684 37.2832C37.5684 37.7129 37.3848 38.1582 37.0176 38.6191C36.6973 39.0254 36.2988 39.375 35.8223 39.668C35.3691 39.9492 34.9961 40.0898 34.7031 40.0898C34.4336 40.0898 34.1426 40.0508 33.8301 39.9727C33.5918 39.9141 33.3066 39.8223 32.9746 39.6973C32.6934 39.5918 32.4141 39.4863 32.1367 39.3809L32.2363 39.1465C32.4941 39.1973 32.7617 39.248 33.0391 39.2988C33.3203 39.3535 33.5742 39.3809 33.8008 39.3809C34.3008 39.3809 34.8223 39.2207 35.3652 38.9004C35.8574 38.6074 36.2773 38.2383 36.625 37.793C36.9727 37.3438 37.1465 36.9395 37.1465 36.5801C37.1465 36.2715 37.0566 35.9473 36.877 35.6074C36.7324 35.334 36.5293 35.0527 36.2676 34.7637L36.6016 33.8438C36.9219 34.1406 37.1582 34.4375 37.3105 34.7344C37.4824 35.0703 37.5684 35.4453 37.5684 35.8594V37.2832ZM47.7285 37.2832H40.6855C40.4746 37.2832 40.2734 37.248 40.082 37.1777C39.9375 37.123 39.7676 37.0352 39.5723 36.9141C39.4082 37.0547 39.2441 37.1523 39.0801 37.207C38.916 37.2578 38.6543 37.2832 38.2949 37.2832H37.1641V36.2637H38.2949C38.6113 36.2637 38.8379 36.2363 38.9746 36.1816C39.2012 36.0918 39.3145 35.9121 39.3145 35.6426C39.3145 35.5293 39.3066 35.416 39.291 35.3027C39.2793 35.1855 39.2598 35.0586 39.2324 34.9219L39.4727 34.5703C39.6094 35.1016 39.7969 35.5117 40.0352 35.8008C40.2891 36.1094 40.5879 36.2637 40.9316 36.2637C41.2598 36.2637 41.6445 36.1895 42.0859 36.041C42.5625 35.8809 42.9727 35.6777 43.3164 35.4316C43.875 35.0332 44.2168 34.7949 44.3418 34.7168C44.6582 34.5137 44.9453 34.3691 45.2031 34.2832C45.4922 34.1855 45.8086 34.1367 46.1523 34.1367C46.6836 34.1367 47.084 34.291 47.3535 34.5996C47.6035 34.8848 47.7285 35.2852 47.7285 35.8008V37.2832ZM46.7734 35.8125C46.7734 35.6211 46.6543 35.4727 46.416 35.3672C46.1777 35.2578 45.9004 35.2031 45.584 35.2031C45.1934 35.2031 44.7207 35.334 44.166 35.5957C43.7246 35.8184 43.2852 36.041 42.8477 36.2637H45.5488C45.9746 36.2637 46.2852 36.2266 46.4805 36.1523C46.6758 36.0781 46.7734 35.9648 46.7734 35.8125ZM58.1348 37.2832H57.1094C56.5078 37.2832 56.0547 37.2988 55.75 37.3301C55.4492 37.3613 55.2988 37.4238 55.2988 37.5176C55.2988 37.6465 55.4805 37.7109 55.8438 37.7109C56.0039 37.7109 56.1309 37.7148 56.2246 37.7227C56.3184 37.7305 56.5234 37.752 56.8398 37.7871C57.0273 37.8105 57.1562 37.8398 57.2266 37.875C57.3398 37.9336 57.3965 38.0352 57.3965 38.1797C57.3965 38.9102 57.1562 39.4414 56.6758 39.7734C56.1523 40.1367 55.2871 40.3184 54.0801 40.3184C53.2402 40.3184 52.5723 40.1758 52.0762 39.8906C51.5488 39.5859 51.2852 39.1523 51.2852 38.5898C51.2852 38.1367 51.4102 37.6562 51.6602 37.1484C51.75 36.9648 51.9863 36.5723 52.3691 35.9707L52.6035 36.0879C52.4551 36.3418 52.3086 36.5938 52.1641 36.8438C51.9414 37.2734 51.8301 37.625 51.8301 37.8984C51.8301 38.3789 52.0801 38.7441 52.5801 38.9941C53.0566 39.2324 53.7109 39.3516 54.543 39.3516C55.1016 39.3516 55.5938 39.3086 56.0195 39.2227C56.543 39.1172 56.8047 38.9727 56.8047 38.7891C56.8047 38.7227 56.7754 38.6738 56.7168 38.6426C56.6582 38.6074 56.5605 38.5898 56.4238 38.5898C56.3184 38.5781 56.1523 38.5664 55.9258 38.5547C55.7031 38.5391 55.5566 38.5312 55.4863 38.5312C55.2402 38.5312 55.0645 38.5 54.959 38.4375C54.8535 38.3711 54.8008 38.2734 54.8008 38.1445C54.8008 37.6602 54.9434 37.2637 55.2285 36.9551C55.4629 36.7051 55.7773 36.5195 56.1719 36.3984C56.4688 36.3086 56.7812 36.2637 57.1094 36.2637H58.1348V37.2832ZM61.0703 37.2832H57.7305V36.2637H60.6426C60.6426 35.8027 60.5879 35.4512 60.4785 35.209C60.4043 35.041 60.2207 34.7988 59.9277 34.4824L60.3848 33.5273C60.666 33.8828 60.8418 34.1602 60.9121 34.3594C61.0176 34.6602 61.0703 35.1582 61.0703 35.8535V37.2832ZM60.4727 38.707L60.0156 39.5566L59.0664 39.0645L59.5 38.209L60.4727 38.707ZM63.9707 31.4941L63.5137 32.3379L62.5645 31.834L63.0039 30.9961L63.9707 31.4941ZM62.623 32.0215L62.1777 32.8711L61.2285 32.3789L61.6621 31.5293L62.623 32.0215ZM64 37.2832H60.6602V36.2637H63.5723C63.5723 35.8027 63.5176 35.4512 63.4082 35.209C63.334 35.041 63.1504 34.7988 62.8574 34.4824L63.3145 33.5273C63.5957 33.8828 63.7715 34.1602 63.8418 34.3594C63.9473 34.6602 64 35.1582 64 35.8535V37.2832ZM68.7285 37.2832H63.5898V36.2637H68.0488C67.7754 35.8496 67.4629 35.4902 67.1113 35.1855C66.7598 34.877 66.2852 34.5449 65.6875 34.1895L65.4941 34.3711L64.8027 33.8438C64.5605 33.6406 64.4395 33.4824 64.4395 33.3691C64.4395 32.6973 64.6035 32.1699 64.9316 31.7871C65.2363 31.4355 65.7617 31.1191 66.5078 30.8379L68.1602 30.1934V31.207L66.9355 31.6172C66.4473 31.7773 66.0527 31.9238 65.752 32.0566C65.3691 32.2246 65.1777 32.3535 65.1777 32.4434C65.1777 32.5332 65.3027 32.6719 65.5527 32.8594C65.709 32.9766 65.8672 33.0938 66.0273 33.2109C66.6211 33.6602 67.1387 34.1309 67.5801 34.623C68.0566 35.1504 68.4395 35.6973 68.7285 36.2637V37.2832ZM77.0605 31.8281L76.6094 32.6777L75.666 32.1855L76.1055 31.3301L77.0605 31.8281ZM77.9395 37.2832C77.9395 37.7129 77.7559 38.1582 77.3887 38.6191C77.0684 39.0254 76.6699 39.375 76.1934 39.668C75.7402 39.9492 75.3672 40.0898 75.0742 40.0898C74.8047 40.0898 74.5137 40.0508 74.2012 39.9727C73.9629 39.9141 73.6777 39.8223 73.3457 39.6973C73.0645 39.5918 72.7852 39.4863 72.5078 39.3809L72.6074 39.1465C72.8652 39.1973 73.1328 39.248 73.4102 39.2988C73.6914 39.3535 73.9453 39.3809 74.1719 39.3809C74.6719 39.3809 75.1934 39.2207 75.7363 38.9004C76.2285 38.6074 76.6484 38.2383 76.9961 37.793C77.3438 37.3438 77.5176 36.9395 77.5176 36.5801C77.5176 36.2715 77.4277 35.9473 77.248 35.6074C77.1035 35.334 76.9004 35.0527 76.6387 34.7637L76.9727 33.8438C77.293 34.1406 77.5293 34.4375 77.6816 34.7344C77.8535 35.0703 77.9395 35.4453 77.9395 35.8594V37.2832ZM83.1309 36.9316C83.1309 37.5762 82.8926 38.2168 82.416 38.8535C81.8848 39.5645 81.2715 39.9199 80.5762 39.9199C80.3184 39.9199 80.0527 39.8906 79.7793 39.832C79.5801 39.7891 79.3203 39.7148 79 39.6094C78.7461 39.5195 78.4922 39.4316 78.2383 39.3457L78.3379 39.1406C78.5566 39.1914 78.7852 39.2441 79.0234 39.2988C79.2656 39.3574 79.4824 39.3867 79.6738 39.3867C80.1504 39.3867 80.6016 39.2656 81.0273 39.0234C81.3594 38.832 81.6914 38.5547 82.0234 38.1914C82.1914 38.0078 82.4297 37.709 82.7383 37.2949C82.2109 37.2949 81.8164 37.2109 81.5547 37.043C81.2578 36.8516 81.1094 36.5371 81.1094 36.0996C81.1094 35.6973 81.2031 35.3242 81.3906 34.9805C81.6094 34.582 81.8867 34.3828 82.2227 34.3828C82.5625 34.3828 82.8066 34.5801 82.9551 34.9746C83.0723 35.2832 83.1309 35.7129 83.1309 36.2637V36.9316ZM82.7617 36.293C82.6758 35.918 82.5723 35.6582 82.4512 35.5137C82.3457 35.3887 82.2168 35.3262 82.0645 35.3262C81.9551 35.3262 81.8594 35.3633 81.7773 35.4375C81.6992 35.5078 81.6602 35.5977 81.6602 35.707C81.6602 35.8984 81.7461 36.0449 81.918 36.1465C82.0898 36.2441 82.3711 36.293 82.7617 36.293ZM89.4941 37.2832H82.7266V36.2637H87.502C87.1035 35.9551 86.7676 35.7148 86.4941 35.543C86.1543 35.3281 85.8438 35.1719 85.5625 35.0742C85.2461 34.9648 84.9258 34.9102 84.6016 34.9102C84.4023 34.9102 84.2012 34.9238 83.998 34.9512C84.1113 34.6621 84.2598 34.4297 84.4434 34.2539C84.709 34 85.0449 33.873 85.4512 33.873C85.8496 33.873 86.3203 34.0684 86.8633 34.459C87.1328 34.6543 87.5723 35.0254 88.1816 35.5723C88.6543 35.998 88.9746 36.2285 89.1426 36.2637H89.4941V37.2832ZM86.5117 38.5547L86.0723 39.3984L85.1172 38.9062L85.5742 38.0508L86.5117 38.5547ZM94.2285 37.2832H93.6191C93.3574 37.2832 93.0625 37.2246 92.7344 37.1074C92.3555 36.9707 92.0215 36.7832 91.7324 36.5449C91.5059 36.8223 91.2734 37.0156 91.0352 37.125C90.8008 37.2305 90.457 37.2832 90.0039 37.2832H89.0898V36.2637H89.9863C90.3418 36.2637 90.6582 36.1738 90.9355 35.9941C91.1504 35.8535 91.3457 35.6562 91.5215 35.4023C91.7598 35.0586 92.0527 34.7598 92.4004 34.5059C92.7129 34.2793 93 34.1348 93.2617 34.0723C93.5312 34.4824 93.7461 34.8516 93.9062 35.1797C94.1211 35.625 94.2285 35.9863 94.2285 36.2637V37.2832ZM93.5547 36.1289C93.5039 35.9023 93.4258 35.6797 93.3203 35.4609C93.2305 35.2773 93.1113 35.0879 92.9629 34.8926C92.7754 34.9395 92.6172 35.0273 92.4883 35.1562C92.4023 35.2383 92.3008 35.377 92.1836 35.5723C92.3242 35.7246 92.5215 35.8613 92.7754 35.9824C93.0332 36.1035 93.2754 36.1777 93.502 36.2051L93.5547 36.1289ZM100.328 37.2832H99.5078C99.2422 37.2832 99.0293 37.1758 98.8691 36.9609C98.7285 36.7734 98.6211 36.4941 98.5469 36.123C98.4766 35.752 98.4219 35.2949 98.3828 34.752C98.3594 34.3105 98.334 33.8574 98.3066 33.3926C98.2832 32.9277 98.25 32.5762 98.207 32.3379C98.168 32.0957 98.1133 31.8984 98.043 31.7461C97.957 31.5586 97.8379 31.3945 97.6855 31.2539L98.4062 30.1172C98.5586 30.5859 98.666 31.1465 98.7285 31.7988C98.7676 32.2051 98.8066 33.166 98.8457 34.6816C98.916 35.377 99.0176 35.8223 99.1504 36.0176C99.2598 36.1816 99.3789 36.2637 99.5078 36.2637H100.328V37.2832ZM103.258 37.2832H99.918V36.2637H102.83C102.83 35.8027 102.775 35.4512 102.666 35.209C102.592 35.041 102.408 34.7988 102.115 34.4824L102.572 33.5273C102.854 33.8828 103.029 34.1602 103.1 34.3594C103.205 34.6602 103.258 35.1582 103.258 35.8535V37.2832ZM102.66 38.707L102.203 39.5566L101.254 39.0645L101.688 38.209L102.66 38.707ZM109.352 37.2832H108.531C108.266 37.2832 108.053 37.1758 107.893 36.9609C107.752 36.7734 107.645 36.4941 107.57 36.123C107.5 35.752 107.445 35.2949 107.406 34.752C107.383 34.3105 107.357 33.8574 107.33 33.3926C107.307 32.9277 107.273 32.5762 107.23 32.3379C107.191 32.0957 107.137 31.8984 107.066 31.7461C106.98 31.5586 106.861 31.3945 106.709 31.2539L107.43 30.1172C107.582 30.5859 107.689 31.1465 107.752 31.7988C107.791 32.2051 107.83 33.166 107.869 34.6816C107.939 35.377 108.041 35.8223 108.174 36.0176C108.283 36.1816 108.402 36.2637 108.531 36.2637H109.352V37.2832ZM114.08 37.2832H111.936C112.186 37.4004 112.398 37.5664 112.574 37.7812C112.797 38.0508 112.908 38.3438 112.908 38.6602C112.908 38.9648 112.861 39.209 112.768 39.3926C112.65 39.623 112.467 39.7383 112.217 39.7383C111.748 39.7383 111.318 39.5762 110.928 39.252C110.459 38.8613 110.225 38.3457 110.225 37.7051L110.236 37.2832H108.941V36.2637H110.424C110.561 35.9004 110.711 35.5625 110.875 35.25C111.082 34.8555 111.299 34.5332 111.525 34.2832C111.787 33.9941 112.033 33.8496 112.264 33.8496C112.385 33.8496 112.49 33.9551 112.58 34.166C112.674 34.377 112.721 34.6016 112.721 34.8398C112.721 35.1836 112.631 35.4629 112.451 35.6777C112.346 35.8066 112.029 36.002 111.502 36.2637H114.08V37.2832ZM112.141 35.2734C112.141 34.9023 112.062 34.7168 111.906 34.7168C111.738 34.7168 111.537 34.9004 111.303 35.2676C111.189 35.4434 111.029 35.7363 110.822 36.1465C111.178 36.0488 111.477 35.9258 111.719 35.7773C112 35.6055 112.141 35.4375 112.141 35.2734ZM112.375 38.5664C112.375 38.2578 112.148 37.9609 111.695 37.6758C111.324 37.4414 110.959 37.293 110.6 37.2305C110.6 37.6602 110.703 38.0137 110.91 38.291C111.16 38.627 111.533 38.7949 112.029 38.7949C112.123 38.7949 112.203 38.7754 112.27 38.7363C112.34 38.6973 112.375 38.6406 112.375 38.5664ZM116.547 31.8633L116.102 32.7129L115.152 32.2207L115.586 31.3711L116.547 31.8633ZM117.016 37.2832H113.676V36.2637H116.588C116.588 35.8027 116.533 35.4512 116.424 35.209C116.35 35.041 116.166 34.7988 115.873 34.4824L116.33 33.5273C116.611 33.8828 116.787 34.1602 116.857 34.3594C116.963 34.6602 117.016 35.1582 117.016 35.8535V37.2832ZM119.916 31.4941L119.459 32.3379L118.51 31.834L118.949 30.9961L119.916 31.4941ZM118.568 32.0215L118.123 32.8711L117.174 32.3789L117.607 31.5293L118.568 32.0215ZM119.945 37.2832H116.605V36.2637H119.518C119.518 35.8027 119.463 35.4512 119.354 35.209C119.279 35.041 119.096 34.7988 118.803 34.4824L119.26 33.5273C119.541 33.8828 119.717 34.1602 119.787 34.3594C119.893 34.6602 119.945 35.1582 119.945 35.8535V37.2832ZM123.631 36.5625L124.656 36.4219C124.684 37.0781 124.807 37.5273 125.025 37.7695C125.244 38.0117 125.547 38.1328 125.934 38.1328C126.219 38.1328 126.465 38.0684 126.672 37.9395C126.879 37.8066 127.021 37.6289 127.1 37.4062C127.178 37.1797 127.217 36.8203 127.217 36.3281V30.4102H128.354V36.2637C128.354 36.9824 128.266 37.5391 128.09 37.9336C127.918 38.3281 127.643 38.6289 127.264 38.8359C126.889 39.043 126.447 39.1465 125.939 39.1465C125.186 39.1465 124.607 38.9297 124.205 38.4961C123.807 38.0625 123.615 37.418 123.631 36.5625ZM134.154 39V38.0859C133.67 38.7891 133.012 39.1406 132.18 39.1406C131.812 39.1406 131.469 39.0703 131.148 38.9297C130.832 38.7891 130.596 38.6133 130.439 38.4023C130.287 38.1875 130.18 37.9258 130.117 37.6172C130.074 37.4102 130.053 37.082 130.053 36.6328V32.7773H131.107V36.2285C131.107 36.7793 131.129 37.1504 131.172 37.3418C131.238 37.6191 131.379 37.8379 131.594 37.998C131.809 38.1543 132.074 38.2324 132.391 38.2324C132.707 38.2324 133.004 38.1523 133.281 37.9922C133.559 37.8281 133.754 37.6074 133.867 37.3301C133.984 37.0488 134.043 36.6426 134.043 36.1113V32.7773H135.098V39H134.154ZM136.334 37.1426L137.377 36.9785C137.436 37.3965 137.598 37.7168 137.863 37.9395C138.133 38.1621 138.508 38.2734 138.988 38.2734C139.473 38.2734 139.832 38.1758 140.066 37.9805C140.301 37.7812 140.418 37.5488 140.418 37.2832C140.418 37.0449 140.314 36.8574 140.107 36.7207C139.963 36.627 139.604 36.5078 139.029 36.3633C138.256 36.168 137.719 36 137.418 35.8594C137.121 35.7148 136.895 35.5176 136.738 35.2676C136.586 35.0137 136.51 34.7344 136.51 34.4297C136.51 34.1523 136.572 33.8965 136.697 33.6621C136.826 33.4238 137 33.2266 137.219 33.0703C137.383 32.9492 137.605 32.8477 137.887 32.7656C138.172 32.6797 138.477 32.6367 138.801 32.6367C139.289 32.6367 139.717 32.707 140.084 32.8477C140.455 32.9883 140.729 33.1797 140.904 33.4219C141.08 33.6602 141.201 33.9805 141.268 34.3828L140.236 34.5234C140.189 34.2031 140.053 33.9531 139.826 33.7734C139.604 33.5938 139.287 33.5039 138.877 33.5039C138.393 33.5039 138.047 33.584 137.84 33.7441C137.633 33.9043 137.529 34.0918 137.529 34.3066C137.529 34.4434 137.572 34.5664 137.658 34.6758C137.744 34.7891 137.879 34.8828 138.062 34.957C138.168 34.9961 138.479 35.0859 138.994 35.2266C139.74 35.4258 140.26 35.5898 140.553 35.7188C140.85 35.8438 141.082 36.0273 141.25 36.2695C141.418 36.5117 141.502 36.8125 141.502 37.1719C141.502 37.5234 141.398 37.8555 141.191 38.168C140.988 38.4766 140.693 38.7168 140.307 38.8887C139.92 39.0566 139.482 39.1406 138.994 39.1406C138.186 39.1406 137.568 38.9727 137.143 38.6367C136.721 38.3008 136.451 37.8027 136.334 37.1426ZM145.059 38.0566L145.211 38.9883C144.914 39.0508 144.648 39.082 144.414 39.082C144.031 39.082 143.734 39.0215 143.523 38.9004C143.312 38.7793 143.164 38.6211 143.078 38.4258C142.992 38.2266 142.949 37.8105 142.949 37.1777V33.5977H142.176V32.7773H142.949V31.2363L143.998 30.6035V32.7773H145.059V33.5977H143.998V37.2363C143.998 37.5371 144.016 37.7305 144.051 37.8164C144.09 37.9023 144.15 37.9707 144.232 38.0215C144.318 38.0723 144.439 38.0977 144.596 38.0977C144.713 38.0977 144.867 38.084 145.059 38.0566ZM146.348 39V33.5977H145.416V32.7773H146.348V32.1152C146.348 31.6973 146.385 31.3867 146.459 31.1836C146.561 30.9102 146.738 30.6895 146.992 30.5215C147.25 30.3496 147.609 30.2637 148.07 30.2637C148.367 30.2637 148.695 30.2988 149.055 30.3691L148.896 31.2891C148.678 31.25 148.471 31.2305 148.275 31.2305C147.955 31.2305 147.729 31.2988 147.596 31.4355C147.463 31.5723 147.396 31.8281 147.396 32.2031V32.7773H148.609V33.5977H147.396V39H146.348ZM149.043 35.8887C149.043 34.7363 149.363 33.8828 150.004 33.3281C150.539 32.8672 151.191 32.6367 151.961 32.6367C152.816 32.6367 153.516 32.918 154.059 33.4805C154.602 34.0391 154.873 34.8125 154.873 35.8008C154.873 36.6016 154.752 37.2324 154.51 37.6934C154.271 38.1504 153.922 38.5059 153.461 38.7598C153.004 39.0137 152.504 39.1406 151.961 39.1406C151.09 39.1406 150.385 38.8613 149.846 38.3027C149.311 37.7441 149.043 36.9395 149.043 35.8887ZM150.127 35.8887C150.127 36.6855 150.301 37.2832 150.648 37.6816C150.996 38.0762 151.434 38.2734 151.961 38.2734C152.484 38.2734 152.92 38.0742 153.268 37.6758C153.615 37.2773 153.789 36.6699 153.789 35.8535C153.789 35.084 153.613 34.502 153.262 34.1074C152.914 33.709 152.48 33.5098 151.961 33.5098C151.434 33.5098 150.996 33.707 150.648 34.1016C150.301 34.4961 150.127 35.0918 150.127 35.8887ZM156.104 39V32.7773H157.053V33.7207C157.295 33.2793 157.518 32.9883 157.721 32.8477C157.928 32.707 158.154 32.6367 158.4 32.6367C158.756 32.6367 159.117 32.75 159.484 32.9766L159.121 33.9551C158.863 33.8027 158.605 33.7266 158.348 33.7266C158.117 33.7266 157.91 33.7969 157.727 33.9375C157.543 34.0742 157.412 34.2656 157.334 34.5117C157.217 34.8867 157.158 35.2969 157.158 35.7422V39H156.104ZM164.371 36.9961L165.461 37.1309C165.289 37.7676 164.971 38.2617 164.506 38.6133C164.041 38.9648 163.447 39.1406 162.725 39.1406C161.814 39.1406 161.092 38.8613 160.557 38.3027C160.025 37.7402 159.76 36.9531 159.76 35.9414C159.76 34.8945 160.029 34.082 160.568 33.5039C161.107 32.9258 161.807 32.6367 162.666 32.6367C163.498 32.6367 164.178 32.9199 164.705 33.4863C165.232 34.0527 165.496 34.8496 165.496 35.877C165.496 35.9395 165.494 36.0332 165.49 36.1582H160.85C160.889 36.8418 161.082 37.3652 161.43 37.7285C161.777 38.0918 162.211 38.2734 162.73 38.2734C163.117 38.2734 163.447 38.1719 163.721 37.9688C163.994 37.7656 164.211 37.4414 164.371 36.9961ZM160.908 35.291H164.383C164.336 34.7676 164.203 34.375 163.984 34.1133C163.648 33.707 163.213 33.5039 162.678 33.5039C162.193 33.5039 161.785 33.666 161.453 33.9902C161.125 34.3145 160.943 34.748 160.908 35.291ZM166.088 39L168.361 35.7656L166.258 32.7773H167.576L168.531 34.2363C168.711 34.5137 168.855 34.7461 168.965 34.9336C169.137 34.6758 169.295 34.4473 169.439 34.248L170.488 32.7773H171.748L169.598 35.707L171.912 39H170.617L169.34 37.0664L169 36.5449L167.365 39H166.088Z"/>
  </symbol>
  <symbol id="svg-copy-fa-4" viewBox="75 42 97 13">
    <path d="M77.207 53V51.7988H78.4082V53H77.207ZM85.2637 45.9629L84.8066 46.8066L83.8574 46.3027L84.2969 45.4648L85.2637 45.9629ZM83.916 46.4902L83.4707 47.3398L82.5215 46.8477L82.9551 45.998L83.916 46.4902ZM88.0176 51.2832H82.4277C81.6777 51.2832 81.0801 51.1523 80.6348 50.8906C80.0762 50.5625 79.7969 50.0488 79.7969 49.3496C79.7969 48.9863 79.8789 48.6152 80.043 48.2363C80.1016 48.0996 80.2422 47.8398 80.4648 47.457L80.6406 47.5684C80.5547 47.748 80.4707 47.9277 80.3887 48.1074C80.2754 48.3848 80.2188 48.6328 80.2188 48.8516C80.2188 49.3125 80.4609 49.6699 80.9453 49.9238C81.3789 50.1504 81.9277 50.2637 82.5918 50.2637H87.5547V50.1055C87.5547 49.668 87.502 49.3125 87.3965 49.0391C87.291 48.7617 87.1113 48.5254 86.8574 48.3301L87.3086 47.375C87.4805 47.5898 87.584 47.7246 87.6191 47.7793C87.8848 48.2168 88.0176 48.8535 88.0176 49.6895V51.2832ZM94.3926 51.2832H93.9414C93.6914 51.2832 93.4766 51.25 93.2969 51.1836C93.1172 51.1133 92.9531 51.0156 92.8047 50.8906C92.6211 51.0352 92.4609 51.1309 92.3242 51.1777C92.125 51.248 91.8516 51.2832 91.5039 51.2832H91.123C90.9199 51.2832 90.7168 51.2441 90.5137 51.166C90.3809 51.1152 90.2168 51.0312 90.0215 50.9141C89.834 51.0547 89.6621 51.1523 89.5059 51.207C89.3496 51.2578 89.0957 51.2832 88.7441 51.2832H87.6133V50.2637H88.7441C89.0605 50.2637 89.2871 50.2363 89.4238 50.1816C89.6504 50.0918 89.7637 49.9121 89.7637 49.6426C89.7637 49.5293 89.7578 49.416 89.7461 49.3027C89.7344 49.1895 89.7129 49.0625 89.6816 48.9219L89.9219 48.5703C90.0312 48.9297 90.1211 49.1914 90.1914 49.3555C90.3164 49.6406 90.4531 49.8555 90.6016 50C90.7812 50.1758 90.9961 50.2637 91.2461 50.2637H91.6387C91.9316 50.2637 92.1484 50.2188 92.2891 50.1289C92.4453 50.0273 92.5234 49.8652 92.5234 49.6426C92.5234 49.5215 92.5156 49.4043 92.5 49.291C92.4844 49.1777 92.4629 49.0547 92.4355 48.9219L92.6816 48.5703L92.8047 49.1211C92.9102 49.5547 93.0391 49.8555 93.1914 50.0234C93.3242 50.1719 93.5039 50.2461 93.7305 50.2461C93.8359 50.2461 93.9199 50.2148 93.9824 50.1523C94.0488 50.0859 94.082 50.002 94.082 49.9004C94.082 49.6816 94.002 49.4512 93.8418 49.209C93.8145 49.1699 93.7188 49.043 93.5547 48.8281L93.9355 48.1895C94.0957 48.4316 94.2051 48.6406 94.2637 48.8164C94.3496 49.082 94.3926 49.4355 94.3926 49.877V51.2832ZM96.3789 49.7891C96.3789 50.1016 96.3223 50.4043 96.209 50.6973C96.1504 50.8535 96.0234 51.1016 95.8281 51.4414L95.7227 51.3828C95.7344 51.2695 95.7441 51.1387 95.752 50.9902C95.7637 50.8418 95.7695 50.7422 95.7695 50.6914C95.7695 50.2852 95.7363 49.7188 95.6699 48.9922C95.6074 48.2617 95.5312 47.5 95.4414 46.707C95.3867 46.2266 95.3262 45.7363 95.2598 45.2363C95.3379 45.0645 95.4258 44.8789 95.5234 44.6797C95.625 44.4805 95.7207 44.293 95.8105 44.1172C95.873 44.5625 95.9512 45.1719 96.0449 45.9453C96.1426 46.7188 96.2188 47.416 96.2734 48.0371C96.3438 48.8105 96.3789 49.3945 96.3789 49.7891ZM105.209 45.8281L104.758 46.6777L103.814 46.1855L104.254 45.3301L105.209 45.8281ZM106.088 51.2832C106.088 51.7129 105.904 52.1582 105.537 52.6191C105.217 53.0254 104.818 53.375 104.342 53.668C103.889 53.9492 103.516 54.0898 103.223 54.0898C102.953 54.0898 102.662 54.0508 102.35 53.9727C102.111 53.9141 101.826 53.8223 101.494 53.6973C101.213 53.5918 100.934 53.4863 100.656 53.3809L100.756 53.1465C101.014 53.1973 101.281 53.248 101.559 53.2988C101.84 53.3535 102.094 53.3809 102.32 53.3809C102.82 53.3809 103.342 53.2207 103.885 52.9004C104.377 52.6074 104.797 52.2383 105.145 51.793C105.492 51.3438 105.666 50.9395 105.666 50.5801C105.666 50.2715 105.576 49.9473 105.396 49.6074C105.252 49.334 105.049 49.0527 104.787 48.7637L105.121 47.8438C105.441 48.1406 105.678 48.4375 105.83 48.7344C106.002 49.0703 106.088 49.4453 106.088 49.8594V51.2832ZM108.848 51.2832H108.027C107.762 51.2832 107.549 51.1758 107.389 50.9609C107.248 50.7734 107.141 50.4941 107.066 50.123C106.996 49.752 106.941 49.2949 106.902 48.752C106.879 48.3105 106.854 47.8574 106.826 47.3926C106.803 46.9277 106.77 46.5762 106.727 46.3379C106.688 46.0957 106.633 45.8984 106.562 45.7461C106.477 45.5586 106.357 45.3945 106.205 45.2539L106.926 44.1172C107.078 44.5859 107.186 45.1465 107.248 45.7988C107.287 46.2051 107.326 47.166 107.365 48.6816C107.436 49.377 107.537 49.8223 107.67 50.0176C107.779 50.1816 107.898 50.2637 108.027 50.2637H108.848V51.2832ZM115.205 51.2832H108.438V50.2637H113.213C112.814 49.9551 112.479 49.7148 112.205 49.543C111.865 49.3281 111.555 49.1719 111.273 49.0742C110.957 48.9648 110.637 48.9102 110.312 48.9102C110.113 48.9102 109.912 48.9238 109.709 48.9512C109.822 48.6621 109.971 48.4297 110.154 48.2539C110.42 48 110.756 47.873 111.162 47.873C111.561 47.873 112.031 48.0684 112.574 48.459C112.844 48.6543 113.283 49.0254 113.893 49.5723C114.365 49.998 114.686 50.2285 114.854 50.2637H115.205V51.2832ZM112.223 52.5547L111.783 53.3984L110.828 52.9062L111.285 52.0508L112.223 52.5547ZM119.939 51.2832H119.33C119.068 51.2832 118.773 51.2246 118.445 51.1074C118.066 50.9707 117.732 50.7832 117.443 50.5449C117.217 50.8223 116.984 51.0156 116.746 51.125C116.512 51.2305 116.168 51.2832 115.715 51.2832H114.801V50.2637H115.697C116.053 50.2637 116.369 50.1738 116.646 49.9941C116.861 49.8535 117.057 49.6562 117.232 49.4023C117.471 49.0586 117.764 48.7598 118.111 48.5059C118.424 48.2793 118.711 48.1348 118.973 48.0723C119.242 48.4824 119.457 48.8516 119.617 49.1797C119.832 49.625 119.939 49.9863 119.939 50.2637V51.2832ZM119.266 50.1289C119.215 49.9023 119.137 49.6797 119.031 49.4609C118.941 49.2773 118.822 49.0879 118.674 48.8926C118.486 48.9395 118.328 49.0273 118.199 49.1562C118.113 49.2383 118.012 49.377 117.895 49.5723C118.035 49.7246 118.232 49.8613 118.486 49.9824C118.744 50.1035 118.986 50.1777 119.213 50.2051L119.266 50.1289ZM123.631 50.5625L124.656 50.4219C124.684 51.0781 124.807 51.5273 125.025 51.7695C125.244 52.0117 125.547 52.1328 125.934 52.1328C126.219 52.1328 126.465 52.0684 126.672 51.9395C126.879 51.8066 127.021 51.6289 127.1 51.4062C127.178 51.1797 127.217 50.8203 127.217 50.3281V44.4102H128.354V50.2637C128.354 50.9824 128.266 51.5391 128.09 51.9336C127.918 52.3281 127.643 52.6289 127.264 52.8359C126.889 53.043 126.447 53.1465 125.939 53.1465C125.186 53.1465 124.607 52.9297 124.205 52.4961C123.807 52.0625 123.615 51.418 123.631 50.5625ZM134.154 53V52.0859C133.67 52.7891 133.012 53.1406 132.18 53.1406C131.812 53.1406 131.469 53.0703 131.148 52.9297C130.832 52.7891 130.596 52.6133 130.439 52.4023C130.287 52.1875 130.18 51.9258 130.117 51.6172C130.074 51.4102 130.053 51.082 130.053 50.6328V46.7773H131.107V50.2285C131.107 50.7793 131.129 51.1504 131.172 51.3418C131.238 51.6191 131.379 51.8379 131.594 51.998C131.809 52.1543 132.074 52.2324 132.391 52.2324C132.707 52.2324 133.004 52.1523 133.281 51.9922C133.559 51.8281 133.754 51.6074 133.867 51.3301C133.984 51.0488 134.043 50.6426 134.043 50.1113V46.7773H135.098V53H134.154ZM136.334 51.1426L137.377 50.9785C137.436 51.3965 137.598 51.7168 137.863 51.9395C138.133 52.1621 138.508 52.2734 138.988 52.2734C139.473 52.2734 139.832 52.1758 140.066 51.9805C140.301 51.7812 140.418 51.5488 140.418 51.2832C140.418 51.0449 140.314 50.8574 140.107 50.7207C139.963 50.627 139.604 50.5078 139.029 50.3633C138.256 50.168 137.719 50 137.418 49.8594C137.121 49.7148 136.895 49.5176 136.738 49.2676C136.586 49.0137 136.51 48.7344 136.51 48.4297C136.51 48.1523 136.572 47.8965 136.697 47.6621C136.826 47.4238 137 47.2266 137.219 47.0703C137.383 46.9492 137.605 46.8477 137.887 46.7656C138.172 46.6797 138.477 46.6367 138.801 46.6367C139.289 46.6367 139.717 46.707 140.084 46.8477C140.455 46.9883 140.729 47.1797 140.904 47.4219C141.08 47.6602 141.201 47.9805 141.268 48.3828L140.236 48.5234C140.189 48.2031 140.053 47.9531 139.826 47.7734C139.604 47.5938 139.287 47.5039 138.877 47.5039C138.393 47.5039 138.047 47.584 137.84 47.7441C137.633 47.9043 137.529 48.0918 137.529 48.3066C137.529 48.4434 137.572 48.5664 137.658 48.6758C137.744 48.7891 137.879 48.8828 138.062 48.957C138.168 48.9961 138.479 49.0859 138.994 49.2266C139.74 49.4258 140.26 49.5898 140.553 49.7188C140.85 49.8438 141.082 50.0273 141.25 50.2695C141.418 50.5117 141.502 50.8125 141.502 51.1719C141.502 51.5234 141.398 51.8555 141.191 52.168C140.988 52.4766 140.693 52.7168 140.307 52.8887C139.92 53.0566 139.482 53.1406 138.994 53.1406C138.186 53.1406 137.568 52.9727 137.143 52.6367C136.721 52.3008 136.451 51.8027 136.334 51.1426ZM145.059 52.0566L145.211 52.9883C144.914 53.0508 144.648 53.082 144.414 53.082C144.031 53.082 143.734 53.0215 143.523 52.9004C143.312 52.7793 143.164 52.6211 143.078 52.4258C142.992 52.2266 142.949 51.8105 142.949 51.1777V47.5977H142.176V46.7773H142.949V45.2363L143.998 44.6035V46.7773H145.059V47.5977H143.998V51.2363C143.998 51.5371 144.016 51.7305 144.051 51.8164C144.09 51.9023 144.15 51.9707 144.232 52.0215C144.318 52.0723 144.439 52.0977 144.596 52.0977C144.713 52.0977 144.867 52.084 145.059 52.0566ZM146.348 53V47.5977H145.416V46.7773H146.348V46.1152C146.348 45.6973 146.385 45.3867 146.459 45.1836C146.561 44.9102 146.738 44.6895 146.992 44.5215C147.25 44.3496 147.609 44.2637 148.07 44.2637C148.367 44.2637 148.695 44.2988 149.055 44.3691L148.896 45.2891C148.678 45.25 148.471 45.2305 148.275 45.2305C147.955 45.2305 147.729 45.2988 147.596 45.4355C147.463 45.5723 147.396 45.8281 147.396 46.2031V46.7773H148.609V47.5977H147.396V53H146.348ZM149.043 49.8887C149.043 48.7363 149.363 47.8828 150.004 47.3281C150.539 46.8672 151.191 46.6367 151.961 46.6367C152.816 46.6367 153.516 46.918 154.059 47.4805C154.602 48.0391 154.873 48.8125 154.873 49.8008C154.873 50.6016 154.752 51.2324 154.51 51.6934C154.271 52.1504 153.922 52.5059 153.461 52.7598C153.004 53.0137 152.504 53.1406 151.961 53.1406C151.09 53.1406 150.385 52.8613 149.846 52.3027C149.311 51.7441 149.043 50.9395 149.043 49.8887ZM150.127 49.8887C150.127 50.6855 150.301 51.2832 150.648 51.6816C150.996 52.0762 151.434 52.2734 151.961 52.2734C152.484 52.2734 152.92 52.0742 153.268 51.6758C153.615 51.2773 153.789 50.6699 153.789 49.8535C153.789 49.084 153.613 48.502 153.262 48.1074C152.914 47.709 152.48 47.5098 151.961 47.5098C151.434 47.5098 150.996 47.707 150.648 48.1016C150.301 48.4961 150.127 49.0918 150.127 49.8887ZM156.104 53V46.7773H157.053V47.7207C157.295 47.2793 157.518 46.9883 157.721 46.8477C157.928 46.707 158.154 46.6367 158.4 46.6367C158.756 46.6367 159.117 46.75 159.484 46.9766L159.121 47.9551C158.863 47.8027 158.605 47.7266 158.348 47.7266C158.117 47.7266 157.91 47.7969 157.727 47.9375C157.543 48.0742 157.412 48.2656 157.334 48.5117C157.217 48.8867 157.158 49.2969 157.158 49.7422V53H156.104ZM164.371 50.9961L165.461 51.1309C165.289 51.7676 164.971 52.2617 164.506 52.6133C164.041 52.9648 163.447 53.1406 162.725 53.1406C161.814 53.1406 161.092 52.8613 160.557 52.3027C160.025 51.7402 159.76 50.9531 159.76 49.9414C159.76 48.8945 160.029 48.082 160.568 47.5039C161.107 46.9258 161.807 46.6367 162.666 46.6367C163.498 46.6367 164.178 46.9199 164.705 47.4863C165.232 48.0527 165.496 48.8496 165.496 49.877C165.496 49.9395 165.494 50.0332 165.49 50.1582H160.85C160.889 50.8418 161.082 51.3652 161.43 51.7285C161.777 52.0918 162.211 52.2734 162.73 52.2734C163.117 52.2734 163.447 52.1719 163.721 51.9688C163.994 51.7656 164.211 51.4414 164.371 50.9961ZM160.908 49.291H164.383C164.336 48.7676 164.203 48.375 163.984 48.1133C163.648 47.707 163.213 47.5039 162.678 47.5039C162.193 47.5039 161.785 47.666 161.453 47.9902C161.125 48.3145 160.943 48.748 160.908 49.291ZM166.088 53L168.361 49.7656L166.258 46.7773H167.576L168.531 48.2363C168.711 48.5137 168.855 48.7461 168.965 48.9336C169.137 48.6758 169.295 48.4473 169.439 48.248L170.488 46.7773H171.748L169.598 49.707L171.912 53H170.617L169.34 51.0664L169 50.5449L167.365 53H166.088Z"/>
  </symbol>
</svg>
