<svg width="153" height="70" viewBox="0 0 153 70" fill="none" xmlns="http://www.w3.org/2000/svg">
  <symbol id="svg-copy-cn-1" viewBox="0 1 121 11">
    <path d="M1.992 1.748V8.204H2.892V2.612H9.324V8.144H10.248V1.748H1.992ZM2.412 6.908V7.772H9.696V6.908H2.412ZM7.068 9.104C8.256 9.968 9.72 11.204 10.404 11.996L11.184 11.444C10.464 10.628 8.964 9.44 7.8 8.624L7.068 9.104ZM4.056 8.6C3.36 9.56 1.956 10.664 0.684 11.336C0.9 11.492 1.224 11.792 1.404 11.984C2.7 11.252 4.116 10.088 5.004 8.984L4.056 8.6ZM12.756 2.48V3.332H23.268V2.48H12.756ZM15.684 6.764V7.544H21.324V6.764H15.684ZM15.048 4.724V11.96H15.936V5.528H21.18V4.724H15.048ZM20.976 4.724V10.832C20.976 11.012 20.904 11.072 20.7 11.084C20.484 11.084 19.752 11.096 18.948 11.06C19.08 11.312 19.212 11.684 19.248 11.936C20.28 11.936 20.952 11.936 21.336 11.792C21.744 11.648 21.852 11.372 21.852 10.844V4.724H20.976ZM16.68 0.92C16.032 3.332 14.616 5.876 12.468 7.352C12.648 7.532 12.924 7.844 13.044 8.048C15.336 6.44 16.776 3.776 17.592 1.136L16.68 0.92ZM15.684 8.792V9.572H21.324V8.792H15.684ZM24.744 2.78V3.656H35.256V2.78H24.744ZM28.464 6.584V7.424H34.788V6.584H28.464ZM27.996 10.832V11.684H35.256V10.832H27.996ZM31.176 4.268V11.288H32.076V4.268H31.176ZM28.692 0.92C28.02 3.392 26.616 6.056 24.456 7.58C24.6 7.784 24.828 8.168 24.924 8.408C27.312 6.692 28.776 3.896 29.616 1.148L28.692 0.92ZM26.316 5.864V11.924H27.216V5.864H26.316ZM41.772 3.596H45.744V4.58H41.772V3.596ZM41.772 1.976H45.744V2.948H41.772V1.976ZM40.908 1.292V5.264H46.644V1.292H40.908ZM40.164 6.092V6.848H47.22V6.092H40.164ZM39.888 7.88V8.672H47.436V7.88H39.888ZM44.736 6.752V10.952C44.736 11.108 44.688 11.156 44.496 11.168C44.316 11.18 43.716 11.18 43.032 11.156C43.152 11.396 43.296 11.732 43.332 11.972C44.232 11.972 44.808 11.972 45.168 11.828C45.528 11.696 45.636 11.456 45.636 10.976V6.752H44.736ZM40.932 9.284C41.472 9.812 42.12 10.556 42.408 11.036L43.092 10.532C42.78 10.064 42.12 9.356 41.568 8.852L40.932 9.284ZM39.228 3.596C38.508 4.844 37.344 6.08 36.252 6.872C36.408 7.076 36.66 7.556 36.732 7.736C37.92 6.8 39.204 5.348 40.02 3.92L39.228 3.596ZM39 0.956C38.484 1.808 37.404 2.804 36.444 3.428C36.6 3.608 36.828 3.956 36.924 4.16C37.992 3.452 39.144 2.324 39.864 1.292L39 0.956ZM38.148 5.72V11.96H39.024V4.892L38.988 4.868L38.148 5.72ZM48.6 1.712V2.528H54.756V1.712H48.6ZM48.96 7.424V8.24H54.408V7.424H48.96ZM51.252 5.996V10.832L52.14 10.7V5.996H51.252ZM48.468 10.7L48.612 11.6C50.208 11.384 52.572 11.048 54.804 10.736L54.78 9.896C52.464 10.208 50.028 10.532 48.468 10.7ZM48.576 4.976L48.648 5.828C50.076 5.744 52.128 5.636 54.096 5.516L54.12 4.724C52.056 4.832 49.944 4.928 48.576 4.976ZM52.404 3.512C53.124 4.364 53.928 5.528 54.276 6.26L54.996 5.828C54.648 5.108 53.808 3.98 53.076 3.14L52.404 3.512ZM50.676 2.144C50.412 3.092 49.896 4.496 49.476 5.348L50.268 5.54C50.712 4.712 51.228 3.392 51.648 2.336L50.676 2.144ZM55.284 2.372V9.02H56.148V2.372H55.284ZM58.116 1.268V10.76C58.116 10.976 58.056 11.036 57.84 11.048C57.6 11.048 56.856 11.06 56.052 11.024C56.184 11.3 56.316 11.72 56.364 11.972C57.336 11.972 58.068 11.948 58.464 11.792C58.86 11.648 59.004 11.372 59.004 10.748V1.268H58.116ZM60.3457 8.5625L61.3711 8.42188C61.3984 9.07812 61.5215 9.52734 61.7402 9.76953C61.959 10.0117 62.2617 10.1328 62.6484 10.1328C62.9336 10.1328 63.1797 10.0684 63.3867 9.93945C63.5938 9.80664 63.7363 9.62891 63.8145 9.40625C63.8926 9.17969 63.9316 8.82031 63.9316 8.32812V2.41016H65.0684V8.26367C65.0684 8.98242 64.9805 9.53906 64.8047 9.93359C64.6328 10.3281 64.3574 10.6289 63.9785 10.8359C63.6035 11.043 63.1621 11.1465 62.6543 11.1465C61.9004 11.1465 61.3223 10.9297 60.9199 10.4961C60.5215 10.0625 60.3301 9.41797 60.3457 8.5625ZM70.8691 11V10.0859C70.3848 10.7891 69.7266 11.1406 68.8945 11.1406C68.5273 11.1406 68.1836 11.0703 67.8633 10.9297C67.5469 10.7891 67.3105 10.6133 67.1543 10.4023C67.002 10.1875 66.8945 9.92578 66.832 9.61719C66.7891 9.41016 66.7676 9.08203 66.7676 8.63281V4.77734H67.8223V8.22852C67.8223 8.7793 67.8438 9.15039 67.8867 9.3418C67.9531 9.61914 68.0938 9.83789 68.3086 9.99805C68.5234 10.1543 68.7891 10.2324 69.1055 10.2324C69.4219 10.2324 69.7188 10.1523 69.9961 9.99219C70.2734 9.82812 70.4688 9.60742 70.582 9.33008C70.6992 9.04883 70.7578 8.64258 70.7578 8.11133V4.77734H71.8125V11H70.8691ZM73.0488 9.14258L74.0918 8.97852C74.1504 9.39648 74.3125 9.7168 74.5781 9.93945C74.8477 10.1621 75.2227 10.2734 75.7031 10.2734C76.1875 10.2734 76.5469 10.1758 76.7812 9.98047C77.0156 9.78125 77.1328 9.54883 77.1328 9.2832C77.1328 9.04492 77.0293 8.85742 76.8223 8.7207C76.6777 8.62695 76.3184 8.50781 75.7441 8.36328C74.9707 8.16797 74.4336 8 74.1328 7.85938C73.8359 7.71484 73.6094 7.51758 73.4531 7.26758C73.3008 7.01367 73.2246 6.73438 73.2246 6.42969C73.2246 6.15234 73.2871 5.89648 73.4121 5.66211C73.541 5.42383 73.7148 5.22656 73.9336 5.07031C74.0977 4.94922 74.3203 4.84766 74.6016 4.76562C74.8867 4.67969 75.1914 4.63672 75.5156 4.63672C76.0039 4.63672 76.4316 4.70703 76.7988 4.84766C77.1699 4.98828 77.4434 5.17969 77.6191 5.42188C77.7949 5.66016 77.916 5.98047 77.9824 6.38281L76.9512 6.52344C76.9043 6.20312 76.7676 5.95312 76.541 5.77344C76.3184 5.59375 76.002 5.50391 75.5918 5.50391C75.1074 5.50391 74.7617 5.58398 74.5547 5.74414C74.3477 5.9043 74.2441 6.0918 74.2441 6.30664C74.2441 6.44336 74.2871 6.56641 74.373 6.67578C74.459 6.78906 74.5938 6.88281 74.7773 6.95703C74.8828 6.99609 75.1934 7.08594 75.709 7.22656C76.4551 7.42578 76.9746 7.58984 77.2676 7.71875C77.5645 7.84375 77.7969 8.02734 77.9648 8.26953C78.1328 8.51172 78.2168 8.8125 78.2168 9.17188C78.2168 9.52344 78.1133 9.85547 77.9062 10.168C77.7031 10.4766 77.4082 10.7168 77.0215 10.8887C76.6348 11.0566 76.1973 11.1406 75.709 11.1406C74.9004 11.1406 74.2832 10.9727 73.8574 10.6367C73.4355 10.3008 73.166 9.80273 73.0488 9.14258ZM81.7734 10.0566L81.9258 10.9883C81.6289 11.0508 81.3633 11.082 81.1289 11.082C80.7461 11.082 80.4492 11.0215 80.2383 10.9004C80.0273 10.7793 79.8789 10.6211 79.793 10.4258C79.707 10.2266 79.6641 9.81055 79.6641 9.17773V5.59766H78.8906V4.77734H79.6641V3.23633L80.7129 2.60352V4.77734H81.7734V5.59766H80.7129V9.23633C80.7129 9.53711 80.7305 9.73047 80.7656 9.81641C80.8047 9.90234 80.8652 9.9707 80.9473 10.0215C81.0332 10.0723 81.1543 10.0977 81.3105 10.0977C81.4277 10.0977 81.582 10.084 81.7734 10.0566ZM83.0625 11V5.59766H82.1309V4.77734H83.0625V4.11523C83.0625 3.69727 83.0996 3.38672 83.1738 3.18359C83.2754 2.91016 83.4531 2.68945 83.707 2.52148C83.9648 2.34961 84.3242 2.26367 84.7852 2.26367C85.082 2.26367 85.4102 2.29883 85.7695 2.36914L85.6113 3.28906C85.3926 3.25 85.1855 3.23047 84.9902 3.23047C84.6699 3.23047 84.4434 3.29883 84.3105 3.43555C84.1777 3.57227 84.1113 3.82812 84.1113 4.20312V4.77734H85.3242V5.59766H84.1113V11H83.0625ZM85.7578 7.88867C85.7578 6.73633 86.0781 5.88281 86.7188 5.32812C87.2539 4.86719 87.9062 4.63672 88.6758 4.63672C89.5312 4.63672 90.2305 4.91797 90.7734 5.48047C91.3164 6.03906 91.5879 6.8125 91.5879 7.80078C91.5879 8.60156 91.4668 9.23242 91.2246 9.69336C90.9863 10.1504 90.6367 10.5059 90.1758 10.7598C89.7188 11.0137 89.2188 11.1406 88.6758 11.1406C87.8047 11.1406 87.0996 10.8613 86.5605 10.3027C86.0254 9.74414 85.7578 8.93945 85.7578 7.88867ZM86.8418 7.88867C86.8418 8.68555 87.0156 9.2832 87.3633 9.68164C87.7109 10.0762 88.1484 10.2734 88.6758 10.2734C89.1992 10.2734 89.6348 10.0742 89.9824 9.67578C90.3301 9.27734 90.5039 8.66992 90.5039 7.85352C90.5039 7.08398 90.3281 6.50195 89.9766 6.10742C89.6289 5.70898 89.1953 5.50977 88.6758 5.50977C88.1484 5.50977 87.7109 5.70703 87.3633 6.10156C87.0156 6.49609 86.8418 7.0918 86.8418 7.88867ZM92.8184 11V4.77734H93.7676V5.7207C94.0098 5.2793 94.2324 4.98828 94.4355 4.84766C94.6426 4.70703 94.8691 4.63672 95.1152 4.63672C95.4707 4.63672 95.832 4.75 96.1992 4.97656L95.8359 5.95508C95.5781 5.80273 95.3203 5.72656 95.0625 5.72656C94.832 5.72656 94.625 5.79688 94.4414 5.9375C94.2578 6.07422 94.127 6.26562 94.0488 6.51172C93.9316 6.88672 93.873 7.29688 93.873 7.74219V11H92.8184ZM101.086 8.99609L102.176 9.13086C102.004 9.76758 101.686 10.2617 101.221 10.6133C100.756 10.9648 100.162 11.1406 99.4395 11.1406C98.5293 11.1406 97.8066 10.8613 97.2715 10.3027C96.7402 9.74023 96.4746 8.95312 96.4746 7.94141C96.4746 6.89453 96.7441 6.08203 97.2832 5.50391C97.8223 4.92578 98.5215 4.63672 99.3809 4.63672C100.213 4.63672 100.893 4.91992 101.42 5.48633C101.947 6.05273 102.211 6.84961 102.211 7.87695C102.211 7.93945 102.209 8.0332 102.205 8.1582H97.5645C97.6035 8.8418 97.7969 9.36523 98.1445 9.72852C98.4922 10.0918 98.9258 10.2734 99.4453 10.2734C99.832 10.2734 100.162 10.1719 100.436 9.96875C100.709 9.76562 100.926 9.44141 101.086 8.99609ZM97.623 7.29102H101.098C101.051 6.76758 100.918 6.375 100.699 6.11328C100.363 5.70703 99.9277 5.50391 99.3926 5.50391C98.9082 5.50391 98.5 5.66602 98.168 5.99023C97.8398 6.31445 97.6582 6.74805 97.623 7.29102ZM102.803 11L105.076 7.76562L102.973 4.77734H104.291L105.246 6.23633C105.426 6.51367 105.57 6.74609 105.68 6.93359C105.852 6.67578 106.01 6.44727 106.154 6.24805L107.203 4.77734H108.463L106.312 7.70703L108.627 11H107.332L106.055 9.06641L105.715 8.54492L104.08 11H102.803ZM110.167 1.664V2.492H112.771V7.988H110.167V8.828H113.611V1.664H110.167ZM110.179 4.772V5.588H113.131V4.772H110.179ZM115.243 1.436V2.276H119.287V1.436H115.243ZM115.243 4.352V5.18H119.287V4.352H115.243ZM115.171 7.304V8.12H119.263V7.304H115.171ZM109.675 1.664V9.944H110.515V1.664H109.675ZM118.951 1.436V10.772C118.951 10.988 118.879 11.06 118.663 11.072C118.447 11.072 117.691 11.084 116.923 11.06C117.055 11.3 117.199 11.696 117.247 11.936C118.279 11.936 118.939 11.924 119.323 11.78C119.707 11.624 119.851 11.348 119.851 10.784V1.436H118.951ZM114.715 1.436V5.72C114.715 7.592 114.511 9.872 112.483 11.432C112.675 11.552 113.011 11.864 113.143 12.044C115.303 10.388 115.603 7.736 115.603 5.72V1.436H114.715Z"/>
  </symbol>
  <symbol id="svg-copy-cn-2" viewBox="0 15 120 11">
    <path d="M0.576 15.58V16.408H5.076V15.58H0.576ZM1.896 19.156V19.96H3.84V23.488H1.896V24.304H4.668V19.156H1.896ZM2.136 15.94C1.836 18.208 1.32 20.356 0.324 21.724C0.504 21.916 0.792 22.324 0.888 22.504C1.992 20.944 2.628 18.592 3 16.06L2.136 15.94ZM1.5 19.156V25.312H2.304V19.156H1.5ZM6 22.204V22.996H10.68V22.204H6ZM6.06 20.08V20.8H10.668V20.08H6.06ZM6.06 17.992V18.772H10.668V17.992H6.06ZM7.896 18.352V22.54H8.7V18.352H7.896ZM10.248 17.992V24.928C10.248 25.096 10.2 25.144 10.032 25.156C9.864 25.156 9.276 25.156 8.664 25.132C8.784 25.372 8.904 25.744 8.94 25.996C9.768 25.996 10.344 25.984 10.668 25.828C11.016 25.696 11.112 25.432 11.112 24.928V17.992H10.248ZM5.58 17.992V21.16C5.58 22.516 5.436 24.22 4.272 25.42C4.452 25.528 4.8 25.828 4.92 25.996C6.192 24.676 6.408 22.672 6.408 21.172V17.992H5.58ZM6.9 14.92C6.42 16.324 5.592 17.716 4.668 18.604C4.86 18.736 5.196 19.048 5.34 19.192C6.288 18.208 7.176 16.684 7.728 15.124L6.9 14.92ZM6.9 15.928L6.528 16.684H9.312V15.928H6.9ZM9.036 15.928V16.096C8.832 16.684 8.364 17.548 7.968 18.076C8.16 18.184 8.436 18.352 8.592 18.472C9.036 17.908 9.612 17.032 9.96 16.276L9.372 15.88L9.24 15.928H9.036ZM22.428 20.272L22.416 20.404C22.26 22.66 22.092 23.608 21.828 23.848C21.696 23.944 21.564 23.956 21.324 23.956C21.036 23.956 20.256 23.956 19.5 23.884C19.68 24.124 19.788 24.484 19.812 24.748C20.544 24.784 21.264 24.796 21.648 24.772C22.068 24.748 22.332 24.676 22.584 24.412C22.944 24.052 23.124 23.08 23.304 20.68C23.328 20.536 23.34 20.272 23.34 20.272H22.428ZM17.016 14.968V25.948H17.928V14.968H17.016ZM20.604 15.892C21.372 16.396 22.368 17.128 22.848 17.608L23.412 16.912C22.908 16.468 21.888 15.76 21.132 15.292L20.604 15.892ZM12.72 20.272V21.124H22.812V20.272H12.72ZM13.5 17.032V17.896H20.7V20.836H21.6V17.032H13.5ZM28.26 20.26V21.004H31.548V20.26H28.26ZM28.26 22.348V23.092H31.584V22.348H28.26ZM25.788 24.496V25.336H34.26V24.496H25.788ZM25.236 18.088V25.972H26.112V18.928H33.84V25.972H34.752V18.088H25.236ZM27.84 18.616V24.88H28.656V18.616H27.84ZM31.2 18.616V24.844H32.028V18.616H31.2ZM29.4 16.12C29.316 16.816 29.076 17.812 28.884 18.46L29.7 18.688C29.94 18.088 30.192 17.164 30.444 16.36L29.4 16.12ZM24.696 15.724V16.588H35.328V15.724H24.696ZM38.964 17.656V18.448H45.072V17.656H38.964ZM39.576 19.708V24.4H40.416V19.708H39.576ZM40.032 19.708V20.464H43.584V22.744H40.032V23.524H44.424V19.708H40.032ZM37.044 15.544V25.984H37.92V16.408H46.632V15.544H37.044ZM46.08 15.544V24.82C46.08 25.024 46.008 25.096 45.792 25.108C45.588 25.12 44.88 25.12 44.124 25.096C44.268 25.336 44.412 25.732 44.448 25.972C45.492 25.984 46.092 25.96 46.452 25.804C46.824 25.66 46.968 25.384 46.968 24.82V15.544H46.08ZM51.084 21.916V21.1H56.964V21.916H51.084ZM51.084 20.5V19.708H56.964V20.5H51.084ZM57.864 19.084H50.22V22.528H57.864V19.084ZM56.868 16.552L55.944 16.348C55.8 16.732 55.524 17.296 55.308 17.668L56.112 17.884C56.34 17.524 56.604 17.056 56.868 16.552ZM52.032 16.36L51.216 16.552C51.456 16.96 51.672 17.5 51.756 17.884L52.608 17.656C52.524 17.308 52.284 16.768 52.032 16.36ZM54.432 14.92H53.52V16.228H54.432V14.92ZM59.184 17.752H48.864V18.484H59.184V17.752ZM58.56 15.724H49.404V16.456H58.56V15.724ZM50.952 23.416L50.208 23.128C49.896 23.932 49.332 24.748 48.504 25.216L49.2 25.696C50.088 25.168 50.616 24.28 50.952 23.416ZM57.372 23.032L56.688 23.44C57.504 24.064 58.392 24.976 58.788 25.612L59.52 25.156C59.112 24.508 58.188 23.632 57.372 23.032ZM53.34 22.516L52.836 22.996C53.52 23.368 54.36 23.932 54.792 24.316L55.32 23.776C54.876 23.392 54.012 22.864 53.34 22.516ZM52.44 24.772V23.224H51.564V24.772C51.564 25.636 51.876 25.864 53.112 25.864C53.364 25.864 55.116 25.864 55.38 25.864C56.352 25.864 56.628 25.54 56.724 24.196C56.496 24.136 56.136 24.016 55.944 23.896C55.884 24.952 55.812 25.096 55.296 25.096C54.912 25.096 53.46 25.096 53.172 25.096C52.548 25.096 52.44 25.048 52.44 24.772ZM61.572 16.852V17.656H64.38V23.884H61.572V24.7H65.22V16.852H61.572ZM61.032 16.852V25.66H61.872V16.852H61.032ZM61.512 20.188V20.992H64.824V20.188H61.512ZM62.868 14.896C62.772 15.52 62.544 16.432 62.34 17.008L63.06 17.188C63.3 16.648 63.6 15.82 63.84 15.076L62.868 14.896ZM66.924 16.816V17.656H70.608V16.816H66.924ZM70.296 16.816V17.008C70.128 22.3 69.936 24.292 69.54 24.724C69.408 24.88 69.264 24.916 69.024 24.916C68.748 24.916 68.028 24.904 67.248 24.844C67.416 25.084 67.524 25.456 67.548 25.72C68.22 25.756 68.928 25.78 69.336 25.732C69.756 25.696 70.032 25.588 70.296 25.24C70.776 24.652 70.944 22.792 71.136 17.284C71.136 17.152 71.136 16.816 71.136 16.816H70.296ZM67.176 14.872C66.792 16.54 66.132 18.196 65.316 19.252C65.532 19.372 65.904 19.624 66.06 19.768C66.888 18.628 67.596 16.864 68.04 15.076L67.176 14.872ZM66.624 19.936C67.284 20.812 68.088 22 68.448 22.732L69.216 22.252C68.832 21.544 68.004 20.38 67.32 19.528L66.624 19.936ZM77.124 21.796V22.492H81.9V21.796H77.124ZM76.008 15.868V16.552H83.136V15.868H76.008ZM76.296 17.32V17.98H82.836V17.32H76.296ZM75.636 18.82V19.504H83.484V18.82H75.636ZM77.124 23.404V24.076H81.936V23.404H77.124ZM76.512 20.212V25.948H77.352V20.908H81.9V20.212H76.512ZM81.684 20.212V24.94C81.684 25.096 81.636 25.144 81.468 25.144C81.3 25.156 80.724 25.156 80.124 25.132C80.232 25.36 80.352 25.696 80.388 25.912C81.24 25.924 81.78 25.912 82.116 25.78C82.452 25.648 82.548 25.408 82.548 24.952V20.212H81.684ZM79.08 14.92V19.036H79.968V14.92H79.08ZM73.812 14.92V25.948H74.64V14.92H73.812ZM72.864 17.236C72.792 18.184 72.6 19.504 72.324 20.332L73.02 20.56C73.296 19.66 73.5 18.268 73.536 17.332L72.864 17.236ZM74.748 16.924C74.988 17.488 75.264 18.232 75.384 18.688L76.008 18.388C75.9 17.944 75.612 17.236 75.348 16.684L74.748 16.924ZM92.1 20.26V24.556C92.1 25.504 92.328 25.78 93.24 25.78C93.42 25.78 94.284 25.78 94.476 25.78C95.304 25.78 95.52 25.3 95.616 23.476C95.376 23.404 95.004 23.26 94.812 23.104C94.776 24.712 94.716 24.976 94.392 24.976C94.2 24.976 93.504 24.976 93.36 24.976C93.036 24.976 92.976 24.904 92.976 24.556V20.26H92.1ZM84.852 16.192C85.608 16.804 86.484 17.692 86.868 18.292L87.54 17.62C87.12 17.032 86.232 16.192 85.464 15.616L84.852 16.192ZM84.48 23.932L85.188 24.58C85.92 23.464 86.808 21.928 87.48 20.644L86.868 20.02C86.136 21.4 85.152 23.008 84.48 23.932ZM89.268 16.348H93.852V19.6H89.268V16.348ZM88.392 15.496V20.464H94.752V15.496H88.392ZM89.784 20.212C89.664 22.768 89.34 24.388 86.916 25.264C87.108 25.42 87.36 25.756 87.468 25.96C90.108 24.964 90.54 23.092 90.696 20.212H89.784ZM96.66 15.808V16.72H107.34V15.808H96.66ZM101.28 16.528V25.948H102.228V16.528H101.28ZM101.808 19.372C103.26 20.116 105.132 21.256 106.056 22L106.692 21.184C105.732 20.464 103.836 19.372 102.396 18.676L101.808 19.372ZM113.772 14.92L113.832 24.7C113.844 24.952 113.748 25.024 113.496 25.036C113.244 25.036 112.356 25.048 111.456 25.036C111.6 25.288 111.768 25.72 111.816 25.984C112.968 25.972 113.748 25.948 114.168 25.804C114.612 25.636 114.78 25.36 114.768 24.688L114.708 14.908L113.772 14.92ZM108.792 17.26V18.148H119.244V17.26H108.792ZM117.324 18.76C115.476 20.692 111.828 22.42 108.396 23.296C108.552 23.5 108.792 23.896 108.9 24.112C112.428 23.152 115.98 21.412 118.188 19.3L117.324 18.76Z"/>
  </symbol>
  <symbol id="svg-copy-cn-3" viewBox="0 29 120 11">
    <path d="M2.484 28.92C2.196 29.796 1.632 31.056 1.176 31.824L1.944 32.052C2.424 31.296 2.988 30.132 3.42 29.136L2.484 28.92ZM0.468 31.464L0.552 32.34C1.86 32.268 3.72 32.172 5.508 32.064L5.52 31.26C3.636 31.344 1.728 31.428 0.468 31.464ZM1.2 33.204V39.948H2.04V33.972H5.004V33.204H1.2ZM4.596 33.204V38.916C4.596 39.072 4.548 39.108 4.392 39.108C4.224 39.12 3.708 39.132 3.144 39.108C3.264 39.336 3.396 39.696 3.444 39.936C4.2 39.936 4.728 39.924 5.064 39.78C5.388 39.636 5.484 39.384 5.484 38.928V33.204H4.596ZM1.596 34.992V35.7H5.064V34.992H1.596ZM1.596 36.792V37.512H5.064V36.792H1.596ZM6.612 28.944V32.928C6.612 33.924 6.912 34.2 8.064 34.2C8.304 34.2 9.876 34.2 10.128 34.2C11.1 34.2 11.364 33.804 11.472 32.34C11.208 32.28 10.848 32.148 10.656 31.992C10.608 33.18 10.524 33.384 10.056 33.384C9.708 33.384 8.4 33.384 8.148 33.384C7.596 33.384 7.5 33.3 7.5 32.916V28.944H6.612ZM10.284 29.832C9.468 30.252 8.1 30.78 6.912 31.152C7.02 31.332 7.14 31.596 7.188 31.788C8.424 31.44 9.864 30.972 10.884 30.492L10.284 29.832ZM6.612 34.524V38.592C6.612 39.588 6.924 39.864 8.088 39.864C8.34 39.864 9.96 39.864 10.224 39.864C11.232 39.864 11.496 39.432 11.616 37.812C11.364 37.764 11.004 37.62 10.8 37.476C10.74 38.832 10.668 39.06 10.152 39.06C9.792 39.06 8.436 39.06 8.184 39.06C7.608 39.06 7.5 38.988 7.5 38.58V34.524H6.612ZM10.428 35.184C9.612 35.712 8.16 36.264 6.912 36.624C7.008 36.804 7.14 37.092 7.188 37.272C8.484 36.924 10.02 36.432 11.028 35.856L10.428 35.184ZM3.984 30.06C4.62 30.912 5.268 32.064 5.52 32.796L6.312 32.448C6.036 31.704 5.364 30.6 4.728 29.76L3.984 30.06ZM16.152 28.896C15.672 30.144 14.832 31.32 13.884 32.064C14.1 32.208 14.436 32.532 14.58 32.7C15.552 31.848 16.464 30.528 17.028 29.148L16.152 28.896ZM16.14 30.12L15.732 30.9H21.3V30.12H16.14ZM16.248 33.696H19.836V34.524H16.248V33.696ZM16.248 32.268H19.836V33.084H16.248V32.268ZM15.42 31.632V35.16H20.7V31.632H15.42ZM16.932 34.896C16.308 35.952 15.156 36.864 13.944 37.44C14.148 37.584 14.46 37.896 14.592 38.064C15.78 37.404 17.028 36.36 17.748 35.148L16.932 34.896ZM16.476 36.408L15.804 36.66C16.884 38.316 18.972 39.528 21.396 39.984C21.516 39.756 21.756 39.384 21.948 39.204C19.572 38.856 17.448 37.8 16.476 36.408ZM16.644 35.844L16.212 36.516H20.184V35.844H16.644ZM19.896 35.844V35.976C18.972 37.824 16.512 38.904 14.076 39.3C14.22 39.48 14.412 39.792 14.496 40.02C17.112 39.504 19.68 38.34 20.796 36.084L20.232 35.808L20.076 35.844H19.896ZM32.112 30.024V36.672H32.952V30.024H32.112ZM34.248 29.052V38.724C34.248 38.928 34.188 38.976 33.996 38.988C33.78 38.988 33.108 38.988 32.4 38.964C32.52 39.252 32.652 39.66 32.7 39.924C33.588 39.924 34.248 39.9 34.608 39.744C34.98 39.576 35.124 39.312 35.124 38.712V29.052H34.248ZM27.468 28.968V39.96H28.32V28.968H27.468ZM29.988 34.788V38.076C29.988 38.196 29.952 38.232 29.832 38.232C29.688 38.244 29.304 38.244 28.788 38.232C28.908 38.46 29.016 38.784 29.04 39.012C29.712 39.024 30.168 39.012 30.456 38.868C30.756 38.724 30.816 38.496 30.816 38.088V34.788H29.988ZM25.08 34.788V38.976H25.896V35.604H30.324V34.788H25.08ZM24.528 32.748V33.576H31.248V32.748H24.528ZM25.692 30.66L25.524 31.488H30.768V30.66H25.692ZM25.704 29.208C25.452 30.372 25.032 31.572 24.492 32.388C24.708 32.46 25.104 32.616 25.284 32.712C25.788 31.896 26.256 30.624 26.544 29.376L25.704 29.208ZM40.056 32.628V33.504H42.36V32.628H40.056ZM39.732 28.932V38.664L40.656 38.544V28.932H39.732ZM37.5 31.356V39L38.376 38.88V31.356H37.5ZM36.528 38.844L36.684 39.804C38.196 39.516 40.38 39.12 42.432 38.736L42.36 37.836C40.236 38.22 37.98 38.616 36.528 38.844ZM46.488 31.548C45.732 32.244 44.412 33.084 43.224 33.684C43.344 33.876 43.512 34.188 43.572 34.38C44.832 33.78 46.236 33.024 47.232 32.268L46.488 31.548ZM42.96 28.932V37.932C42.96 39.228 43.272 39.576 44.388 39.576C44.616 39.576 45.972 39.576 46.212 39.576C47.292 39.576 47.532 38.904 47.64 36.96C47.388 36.9 47.016 36.744 46.776 36.564C46.716 38.268 46.644 38.7 46.14 38.7C45.852 38.7 44.736 38.7 44.496 38.7C43.992 38.7 43.908 38.58 43.908 37.956V28.932H42.96ZM52.32 30.384C52.2 33.816 51.828 36.6 50.34 38.304C50.544 38.424 50.916 38.7 51.048 38.832C52.548 36.936 52.968 34.104 53.148 30.42L52.32 30.384ZM55.5 30.384C55.404 33.876 55.068 36.636 53.532 38.316C53.736 38.436 54.108 38.724 54.228 38.868C55.8 36.984 56.196 34.164 56.34 30.42L55.5 30.384ZM50.376 32.868C51.564 34.008 52.896 35.604 53.52 36.66L54.06 36.024C53.436 35.004 52.104 33.456 50.88 32.34L50.376 32.868ZM53.652 32.736C54.9 33.936 56.328 35.628 56.988 36.732L57.528 36.084C56.868 35.004 55.452 33.384 54.168 32.208L53.652 32.736ZM49.056 29.64V39.936H49.92V30.504H58.596V29.64H49.056ZM58.116 29.64V38.808C58.116 39 58.044 39.072 57.84 39.072C57.636 39.084 56.94 39.096 56.208 39.06C56.34 39.3 56.472 39.696 56.52 39.936C57.54 39.936 58.14 39.912 58.5 39.78C58.86 39.624 59.004 39.348 59.004 38.808V29.64H58.116ZM60.684 31.308V32.16H65.316V31.308H60.684ZM62.592 29.076V31.74H63.444V29.076H62.592ZM68.076 31.416V32.268H71.52V31.416H68.076ZM66.012 38.532V39.384H70.548V38.532H66.012ZM67.62 28.92V35.04H68.532V28.92H67.62ZM65.592 34.668V39.948H66.468V35.508H70.092V39.9H71.004V34.668H65.592ZM60.456 37.704L60.648 38.604C61.968 38.304 63.792 37.872 65.496 37.464L65.4 36.636C63.588 37.056 61.692 37.464 60.456 37.704ZM61.14 32.784C61.416 34.116 61.632 35.856 61.62 36.984L62.412 36.852C62.388 35.688 62.184 33.984 61.872 32.652L61.14 32.784ZM63.936 32.52C63.816 33.924 63.528 35.94 63.252 37.128L63.996 37.296C64.284 36.12 64.608 34.188 64.824 32.688L63.936 32.52ZM77.64 32.808V33.708H82.572V32.808H77.64ZM72.612 38.496V39.396H83.388V38.496H72.612ZM77.124 29.1V38.976H78.072V29.1H77.124ZM85.572 30.852V31.656H88.38V37.884H85.572V38.7H89.22V30.852H85.572ZM85.032 30.852V39.66H85.872V30.852H85.032ZM85.512 34.188V34.992H88.824V34.188H85.512ZM86.868 28.896C86.772 29.52 86.544 30.432 86.34 31.008L87.06 31.188C87.3 30.648 87.6 29.82 87.84 29.076L86.868 28.896ZM90.924 30.816V31.656H94.608V30.816H90.924ZM94.296 30.816V31.008C94.128 36.3 93.936 38.292 93.54 38.724C93.408 38.88 93.264 38.916 93.024 38.916C92.748 38.916 92.028 38.904 91.248 38.844C91.416 39.084 91.524 39.456 91.548 39.72C92.22 39.756 92.928 39.78 93.336 39.732C93.756 39.696 94.032 39.588 94.296 39.24C94.776 38.652 94.944 36.792 95.136 31.284C95.136 31.152 95.136 30.816 95.136 30.816H94.296ZM91.176 28.872C90.792 30.54 90.132 32.196 89.316 33.252C89.532 33.372 89.904 33.624 90.06 33.768C90.888 32.628 91.596 30.864 92.04 29.076L91.176 28.872ZM90.624 33.936C91.284 34.812 92.088 36 92.448 36.732L93.216 36.252C92.832 35.544 92.004 34.38 91.32 33.528L90.624 33.936ZM106.356 29.22C104.88 29.76 102.276 30.24 100.044 30.528C100.14 30.744 100.272 31.08 100.308 31.296C102.588 31.02 105.276 30.576 107.028 29.976L106.356 29.22ZM99.636 34.068V34.932H107.52V34.068H99.636ZM100.104 38.64V39.504H107.328V38.64H100.104ZM103.212 30.552V38.88H104.112V30.552H103.212ZM98.22 32.112V39.96H99.12V31.248L99.108 31.224L98.22 32.112ZM99.528 28.932C98.784 30.816 97.548 32.652 96.252 33.828C96.432 34.056 96.708 34.524 96.804 34.74C98.208 33.372 99.552 31.296 100.404 29.208L99.528 28.932ZM112.068 30.096V30.96H119.544V30.096H112.068ZM117.768 30.408V38.724C117.768 38.964 117.696 39.024 117.444 39.036C117.168 39.048 116.292 39.06 115.332 39.024C115.464 39.288 115.608 39.696 115.656 39.948C116.832 39.96 117.624 39.936 118.068 39.792C118.5 39.636 118.668 39.372 118.668 38.724V30.408H117.768ZM112.428 32.652V37.644H113.268V32.652H112.428ZM112.812 32.652V33.456H115.344V36H112.812V36.804H116.196V32.652H112.812ZM111.192 28.932C110.568 30.732 109.548 32.52 108.444 33.672C108.6 33.876 108.864 34.356 108.948 34.56C110.172 33.228 111.324 31.2 112.044 29.196L111.192 28.932ZM110.064 32.064V39.948H110.964V31.2L110.952 31.188L110.064 32.064Z"/>
  </symbol>
  <symbol id="svg-copy-cn-4" viewBox="0 43 121 11">
    <path d="M4.848 43.496V44.228H10.404V43.496H4.848ZM4.704 46.82V47.564H10.62V46.82H4.704ZM4.704 48.488V49.232H10.596V48.488H4.704ZM5.052 52.652V53.396H10.26V52.652H5.052ZM3.72 45.152V45.908H11.532V45.152H3.72ZM4.584 50.156V53.96H5.448V50.888H9.828V53.924H10.728V50.156H4.584ZM3.312 42.956C2.616 44.78 1.44 46.568 0.228 47.708C0.396 47.924 0.648 48.392 0.732 48.596C2.064 47.264 3.348 45.248 4.164 43.22L3.312 42.956ZM2.064 46.052V53.936H2.928V45.212L2.916 45.2L2.064 46.052ZM15.588 50.732V52.724C15.588 53.648 15.9 53.9 17.16 53.9C17.424 53.9 19.236 53.9 19.512 53.9C20.508 53.9 20.772 53.576 20.892 52.244C20.652 52.196 20.28 52.064 20.076 51.92C20.028 52.94 19.944 53.084 19.428 53.084C19.032 53.084 17.52 53.084 17.232 53.084C16.584 53.084 16.476 53.024 16.476 52.712V50.732H15.588ZM16.824 50.312C17.52 50.792 18.3 51.524 18.636 52.052L19.344 51.548C18.984 51.008 18.192 50.312 17.484 49.844L16.824 50.312ZM20.7 50.96C21.576 51.728 22.476 52.808 22.848 53.564L23.616 53.06C23.232 52.292 22.284 51.248 21.42 50.516L20.7 50.96ZM13.944 50.636C13.68 51.512 13.176 52.472 12.444 53.048L13.176 53.564C13.968 52.916 14.436 51.86 14.736 50.924L13.944 50.636ZM15.252 46.292H20.868V47.288H15.252V46.292ZM15.252 47.984H20.868V48.98H15.252V47.984ZM15.252 44.624H20.868V45.608H15.252V44.624ZM14.388 43.904V49.712H21.768V43.904H14.388ZM17.58 42.8C17.472 43.184 17.268 43.748 17.088 44.132L17.892 44.324C18.096 43.976 18.384 43.496 18.624 42.98L17.58 42.8ZM28.368 44.816C29.136 45.704 29.916 46.94 30.228 47.768L31.092 47.3C30.744 46.484 29.976 45.296 29.172 44.42L28.368 44.816ZM24.42 51.728L24.744 52.664C26.076 52.088 27.9 51.284 29.568 50.516L29.364 49.64C27.564 50.432 25.644 51.248 24.42 51.728ZM31.62 50.144C32.772 51.32 34.212 52.94 34.884 53.936L35.652 53.228C34.944 52.244 33.456 50.684 32.316 49.556L31.62 50.144ZM33.288 43.544C32.748 48.764 31.476 51.704 27.324 53.216C27.552 53.408 27.912 53.804 28.044 53.996C32.244 52.244 33.648 49.184 34.26 43.64L33.288 43.544ZM25.884 43.58L26.088 51.512L27.012 51.476L26.808 43.544L25.884 43.58ZM40.044 44.588L39.252 44.768C40.368 49.532 42.468 52.736 47.028 53.948C47.172 53.696 47.448 53.3 47.652 53.108C43.2 52.052 41.052 48.968 40.044 44.588ZM37.068 43.568V44.444H43.788V43.568H37.068ZM46.008 46.472V46.64C45.12 50.36 42.372 52.412 39.204 53.18C39.396 53.372 39.612 53.744 39.72 53.972C43.092 53.024 45.936 50.912 46.956 46.676L46.344 46.436L46.176 46.472H46.008ZM43.584 43.568V43.676C43.38 44.636 42.948 46.484 42.552 47.816L43.488 47.948C43.86 46.628 44.28 44.888 44.544 43.652L43.86 43.52L43.692 43.568H43.584ZM43.416 46.472L43.224 47.324H46.212V46.472H43.416ZM39.192 43.844V45.464C39.192 47.6 39 50.6 36.42 52.988C36.624 53.156 36.936 53.516 37.068 53.744C39.864 51.128 40.104 47.852 40.104 45.452V43.844H39.192ZM51.84 44.252V45.092H59.544V44.252H51.84ZM53.028 47.024H58.272V48.824H53.028V47.024ZM52.2 46.256V49.592H59.148V46.256H52.2ZM52.944 49.832L52.2 50.084C53.472 52.28 55.932 53.528 59.112 53.984C59.232 53.732 59.46 53.372 59.652 53.18C56.532 52.832 54.072 51.716 52.944 49.832ZM55.176 42.968V48.272C55.176 50.3 54.972 52.352 51.408 53.252C51.588 53.444 51.84 53.804 51.948 54.008C55.668 52.904 56.064 50.6 56.064 48.284V42.968H55.176ZM51.324 42.896C50.628 44.72 49.452 46.508 48.24 47.648C48.408 47.864 48.66 48.332 48.744 48.536C50.076 47.204 51.36 45.188 52.176 43.16L51.324 42.896ZM50.064 46.04V54.02H50.928V45.2L50.916 45.188L50.064 46.04ZM62.34 43.772V44.636H70.104V43.772H62.34ZM62.34 46.568V47.42H70.092V46.568H62.34ZM62.28 49.436V50.288H70.116V49.436H62.28ZM61.836 43.772V48.116C61.836 49.808 61.704 51.944 60.384 53.432C60.576 53.552 60.936 53.852 61.08 54.032C62.508 52.436 62.724 49.952 62.724 48.128V43.772H61.836ZM69.744 43.772V52.736C69.744 52.964 69.66 53.036 69.432 53.048C69.204 53.048 68.388 53.06 67.536 53.024C67.668 53.264 67.812 53.66 67.848 53.9C68.988 53.912 69.684 53.9 70.092 53.756C70.488 53.6 70.632 53.324 70.632 52.736V43.772H69.744ZM65.604 44.096V53.852H66.516V44.096H65.604ZM72.3457 50.5625L73.3711 50.4219C73.3984 51.0781 73.5215 51.5273 73.7402 51.7695C73.959 52.0117 74.2617 52.1328 74.6484 52.1328C74.9336 52.1328 75.1797 52.0684 75.3867 51.9395C75.5938 51.8066 75.7363 51.6289 75.8145 51.4062C75.8926 51.1797 75.9316 50.8203 75.9316 50.3281V44.4102H77.0684V50.2637C77.0684 50.9824 76.9805 51.5391 76.8047 51.9336C76.6328 52.3281 76.3574 52.6289 75.9785 52.8359C75.6035 53.043 75.1621 53.1465 74.6543 53.1465C73.9004 53.1465 73.3223 52.9297 72.9199 52.4961C72.5215 52.0625 72.3301 51.418 72.3457 50.5625ZM82.8691 53V52.0859C82.3848 52.7891 81.7266 53.1406 80.8945 53.1406C80.5273 53.1406 80.1836 53.0703 79.8633 52.9297C79.5469 52.7891 79.3105 52.6133 79.1543 52.4023C79.002 52.1875 78.8945 51.9258 78.832 51.6172C78.7891 51.4102 78.7676 51.082 78.7676 50.6328V46.7773H79.8223V50.2285C79.8223 50.7793 79.8438 51.1504 79.8867 51.3418C79.9531 51.6191 80.0938 51.8379 80.3086 51.998C80.5234 52.1543 80.7891 52.2324 81.1055 52.2324C81.4219 52.2324 81.7188 52.1523 81.9961 51.9922C82.2734 51.8281 82.4688 51.6074 82.582 51.3301C82.6992 51.0488 82.7578 50.6426 82.7578 50.1113V46.7773H83.8125V53H82.8691ZM85.0488 51.1426L86.0918 50.9785C86.1504 51.3965 86.3125 51.7168 86.5781 51.9395C86.8477 52.1621 87.2227 52.2734 87.7031 52.2734C88.1875 52.2734 88.5469 52.1758 88.7812 51.9805C89.0156 51.7812 89.1328 51.5488 89.1328 51.2832C89.1328 51.0449 89.0293 50.8574 88.8223 50.7207C88.6777 50.627 88.3184 50.5078 87.7441 50.3633C86.9707 50.168 86.4336 50 86.1328 49.8594C85.8359 49.7148 85.6094 49.5176 85.4531 49.2676C85.3008 49.0137 85.2246 48.7344 85.2246 48.4297C85.2246 48.1523 85.2871 47.8965 85.4121 47.6621C85.541 47.4238 85.7148 47.2266 85.9336 47.0703C86.0977 46.9492 86.3203 46.8477 86.6016 46.7656C86.8867 46.6797 87.1914 46.6367 87.5156 46.6367C88.0039 46.6367 88.4316 46.707 88.7988 46.8477C89.1699 46.9883 89.4434 47.1797 89.6191 47.4219C89.7949 47.6602 89.916 47.9805 89.9824 48.3828L88.9512 48.5234C88.9043 48.2031 88.7676 47.9531 88.541 47.7734C88.3184 47.5938 88.002 47.5039 87.5918 47.5039C87.1074 47.5039 86.7617 47.584 86.5547 47.7441C86.3477 47.9043 86.2441 48.0918 86.2441 48.3066C86.2441 48.4434 86.2871 48.5664 86.373 48.6758C86.459 48.7891 86.5938 48.8828 86.7773 48.957C86.8828 48.9961 87.1934 49.0859 87.709 49.2266C88.4551 49.4258 88.9746 49.5898 89.2676 49.7188C89.5645 49.8438 89.7969 50.0273 89.9648 50.2695C90.1328 50.5117 90.2168 50.8125 90.2168 51.1719C90.2168 51.5234 90.1133 51.8555 89.9062 52.168C89.7031 52.4766 89.4082 52.7168 89.0215 52.8887C88.6348 53.0566 88.1973 53.1406 87.709 53.1406C86.9004 53.1406 86.2832 52.9727 85.8574 52.6367C85.4355 52.3008 85.166 51.8027 85.0488 51.1426ZM93.7734 52.0566L93.9258 52.9883C93.6289 53.0508 93.3633 53.082 93.1289 53.082C92.7461 53.082 92.4492 53.0215 92.2383 52.9004C92.0273 52.7793 91.8789 52.6211 91.793 52.4258C91.707 52.2266 91.6641 51.8105 91.6641 51.1777V47.5977H90.8906V46.7773H91.6641V45.2363L92.7129 44.6035V46.7773H93.7734V47.5977H92.7129V51.2363C92.7129 51.5371 92.7305 51.7305 92.7656 51.8164C92.8047 51.9023 92.8652 51.9707 92.9473 52.0215C93.0332 52.0723 93.1543 52.0977 93.3105 52.0977C93.4277 52.0977 93.582 52.084 93.7734 52.0566ZM95.0625 53V47.5977H94.1309V46.7773H95.0625V46.1152C95.0625 45.6973 95.0996 45.3867 95.1738 45.1836C95.2754 44.9102 95.4531 44.6895 95.707 44.5215C95.9648 44.3496 96.3242 44.2637 96.7852 44.2637C97.082 44.2637 97.4102 44.2988 97.7695 44.3691L97.6113 45.2891C97.3926 45.25 97.1855 45.2305 96.9902 45.2305C96.6699 45.2305 96.4434 45.2988 96.3105 45.4355C96.1777 45.5723 96.1113 45.8281 96.1113 46.2031V46.7773H97.3242V47.5977H96.1113V53H95.0625ZM97.7578 49.8887C97.7578 48.7363 98.0781 47.8828 98.7188 47.3281C99.2539 46.8672 99.9062 46.6367 100.676 46.6367C101.531 46.6367 102.23 46.918 102.773 47.4805C103.316 48.0391 103.588 48.8125 103.588 49.8008C103.588 50.6016 103.467 51.2324 103.225 51.6934C102.986 52.1504 102.637 52.5059 102.176 52.7598C101.719 53.0137 101.219 53.1406 100.676 53.1406C99.8047 53.1406 99.0996 52.8613 98.5605 52.3027C98.0254 51.7441 97.7578 50.9395 97.7578 49.8887ZM98.8418 49.8887C98.8418 50.6855 99.0156 51.2832 99.3633 51.6816C99.7109 52.0762 100.148 52.2734 100.676 52.2734C101.199 52.2734 101.635 52.0742 101.982 51.6758C102.33 51.2773 102.504 50.6699 102.504 49.8535C102.504 49.084 102.328 48.502 101.977 48.1074C101.629 47.709 101.195 47.5098 100.676 47.5098C100.148 47.5098 99.7109 47.707 99.3633 48.1016C99.0156 48.4961 98.8418 49.0918 98.8418 49.8887ZM104.818 53V46.7773H105.768V47.7207C106.01 47.2793 106.232 46.9883 106.436 46.8477C106.643 46.707 106.869 46.6367 107.115 46.6367C107.471 46.6367 107.832 46.75 108.199 46.9766L107.836 47.9551C107.578 47.8027 107.32 47.7266 107.062 47.7266C106.832 47.7266 106.625 47.7969 106.441 47.9375C106.258 48.0742 106.127 48.2656 106.049 48.5117C105.932 48.8867 105.873 49.2969 105.873 49.7422V53H104.818ZM113.086 50.9961L114.176 51.1309C114.004 51.7676 113.686 52.2617 113.221 52.6133C112.756 52.9648 112.162 53.1406 111.439 53.1406C110.529 53.1406 109.807 52.8613 109.271 52.3027C108.74 51.7402 108.475 50.9531 108.475 49.9414C108.475 48.8945 108.744 48.082 109.283 47.5039C109.822 46.9258 110.521 46.6367 111.381 46.6367C112.213 46.6367 112.893 46.9199 113.42 47.4863C113.947 48.0527 114.211 48.8496 114.211 49.877C114.211 49.9395 114.209 50.0332 114.205 50.1582H109.564C109.604 50.8418 109.797 51.3652 110.145 51.7285C110.492 52.0918 110.926 52.2734 111.445 52.2734C111.832 52.2734 112.162 52.1719 112.436 51.9688C112.709 51.7656 112.926 51.4414 113.086 50.9961ZM109.623 49.291H113.098C113.051 48.7676 112.918 48.375 112.699 48.1133C112.363 47.707 111.928 47.5039 111.393 47.5039C110.908 47.5039 110.5 47.666 110.168 47.9902C109.84 48.3145 109.658 48.748 109.623 49.291ZM114.803 53L117.076 49.7656L114.973 46.7773H116.291L117.246 48.2363C117.426 48.5137 117.57 48.7461 117.68 48.9336C117.852 48.6758 118.01 48.4473 118.154 48.248L119.203 46.7773H120.463L118.312 49.707L120.627 53H119.332L118.055 51.0664L117.715 50.5449L116.08 53H114.803Z"/>
  </symbol>
  <symbol id="svg-copy-cn-5" viewBox="0 57 65 11">
    <path d="M1.572 58.852V59.656H4.38V65.884H1.572V66.7H5.22V58.852H1.572ZM1.032 58.852V67.66H1.872V58.852H1.032ZM1.512 62.188V62.992H4.824V62.188H1.512ZM2.868 56.896C2.772 57.52 2.544 58.432 2.34 59.008L3.06 59.188C3.3 58.648 3.6 57.82 3.84 57.076L2.868 56.896ZM6.924 58.816V59.656H10.608V58.816H6.924ZM10.296 58.816V59.008C10.128 64.3 9.936 66.292 9.54 66.724C9.408 66.88 9.264 66.916 9.024 66.916C8.748 66.916 8.028 66.904 7.248 66.844C7.416 67.084 7.524 67.456 7.548 67.72C8.22 67.756 8.928 67.78 9.336 67.732C9.756 67.696 10.032 67.588 10.296 67.24C10.776 66.652 10.944 64.792 11.136 59.284C11.136 59.152 11.136 58.816 11.136 58.816H10.296ZM7.176 56.872C6.792 58.54 6.132 60.196 5.316 61.252C5.532 61.372 5.904 61.624 6.06 61.768C6.888 60.628 7.596 58.864 8.04 57.076L7.176 56.872ZM6.624 61.936C7.284 62.812 8.088 64 8.448 64.732L9.216 64.252C8.832 63.544 8.004 62.38 7.32 61.528L6.624 61.936ZM15.612 58.3H20.412V60.58H15.612V58.3ZM14.736 57.436V61.444H21.324V57.436H14.736ZM12.996 62.716V67.96H13.848V63.58H16.368V67.864H17.268V62.716H12.996ZM18.576 62.716V67.96H19.44V63.58H22.188V67.888H23.088V62.716H18.576ZM13.38 66.448V67.312H16.728V66.448H13.38ZM19.02 66.448V67.312H22.584V66.448H19.02ZM28.716 64.672V65.464H35.484V64.672H28.716ZM32.76 62.992V67.948H33.612V62.992H32.76ZM31.584 56.884C31.452 57.34 31.188 57.976 30.96 58.42L31.692 58.624C31.956 58.24 32.304 57.628 32.604 57.088L31.584 56.884ZM31.788 58.528V60.46C31.788 61.672 31.452 63.1 29.16 64.072C29.34 64.192 29.628 64.432 29.76 64.588C32.184 63.544 32.568 61.924 32.568 60.484V58.528H31.788ZM25.596 60.22V61.012H28.944V60.22H25.596ZM27.168 56.932V60.7H27.96V56.932H27.168ZM25.644 62.776V63.556H27.528V67.96H28.332V62.776H25.644ZM25.212 57.172V61.768C25.212 63.532 25.104 65.956 24.408 67.684C24.648 67.756 25.008 67.888 25.188 67.984C25.872 66.172 26.004 63.688 26.004 61.768V57.172H25.212ZM30.048 60.724H34.308V61.996H30.048V60.724ZM30.048 58.792H34.308V60.04H30.048V58.792ZM29.232 58.072V62.704H35.148V58.072H29.232ZM41.268 58.228V59.056H46.944V58.228H41.268ZM40.56 60.58V61.42H47.496V60.58H40.56ZM40.764 62.86V63.7H47.424V62.86H40.764ZM43.632 56.92V61.024H44.52V56.92H43.632ZM45.12 61.3V66.844C45.12 67.024 45.072 67.06 44.88 67.072C44.664 67.084 44.004 67.084 43.284 67.06C43.416 67.324 43.536 67.708 43.572 67.96C44.496 67.96 45.132 67.948 45.516 67.804C45.9 67.66 46.02 67.396 46.02 66.856V61.3H45.12ZM41.388 64.456C41.976 65.044 42.624 65.872 42.888 66.436L43.62 65.968C43.32 65.404 42.66 64.612 42.072 64.048L41.388 64.456ZM36.42 63.448L36.66 64.324C37.872 63.94 39.492 63.436 41.016 62.944L40.896 62.164C39.264 62.656 37.548 63.16 36.42 63.448ZM38.664 56.932V67.96H39.504V56.932H38.664ZM37.176 57.568C37.032 59.044 36.792 60.568 36.336 61.588C36.528 61.672 36.876 61.876 37.02 61.984C37.476 60.916 37.776 59.296 37.956 57.7L37.176 57.568ZM37.248 59.356L37.104 60.22H40.74V59.356H37.248ZM51.228 59.62C50.544 60.868 49.428 62.092 48.36 62.896C48.516 63.1 48.768 63.58 48.852 63.772C50.004 62.824 51.24 61.372 52.032 59.932L51.228 59.62ZM50.976 56.956C50.484 57.808 49.452 58.804 48.528 59.428C48.672 59.596 48.9 59.956 49.008 60.16C50.04 59.44 51.156 58.324 51.84 57.28L50.976 56.956ZM50.124 61.84V67.972H51.036V60.988L51 60.964L50.124 61.84ZM52.584 57.82V58.672H59.148V57.82H52.584ZM55.992 62.104V62.932H58.956V62.104H55.992ZM51.828 66.784V67.636H59.544V66.784H51.828ZM53.028 61.024V67.24H53.892V61.024H53.028ZM55.56 58.084V67.312H56.46V58.084H55.56ZM62.328 64.084C61.32 64.084 60.492 64.9 60.492 65.908C60.492 66.916 61.32 67.732 62.328 67.732C63.336 67.732 64.152 66.916 64.152 65.908C64.152 64.9 63.336 64.084 62.328 64.084ZM62.328 67.12C61.656 67.12 61.104 66.58 61.104 65.908C61.104 65.236 61.656 64.696 62.328 64.696C63 64.696 63.54 65.236 63.54 65.908C63.54 66.58 63 67.12 62.328 67.12Z"/>
  </symbol>
</svg>
