<svg width="153" height="98" viewBox="0 0 153 98" fill="none" xmlns="http://www.w3.org/2000/svg">
  <symbol id="svg-copy-tr-1" viewBox="0 1 116 11">
    <path d="M0.878906 11V2.41016H4.10156C4.75781 2.41016 5.2832 2.49805 5.67773 2.67383C6.07617 2.8457 6.38672 3.11328 6.60938 3.47656C6.83594 3.83594 6.94922 4.21289 6.94922 4.60742C6.94922 4.97461 6.84961 5.32031 6.65039 5.64453C6.45117 5.96875 6.15039 6.23047 5.74805 6.42969C6.26758 6.58203 6.66602 6.8418 6.94336 7.20898C7.22461 7.57617 7.36523 8.00977 7.36523 8.50977C7.36523 8.91211 7.2793 9.28711 7.10742 9.63477C6.93945 9.97852 6.73047 10.2441 6.48047 10.4316C6.23047 10.6191 5.91602 10.7617 5.53711 10.8594C5.16211 10.9531 4.70117 11 4.1543 11H0.878906ZM2.01562 6.01953H3.87305C4.37695 6.01953 4.73828 5.98633 4.95703 5.91992C5.24609 5.83398 5.46289 5.69141 5.60742 5.49219C5.75586 5.29297 5.83008 5.04297 5.83008 4.74219C5.83008 4.45703 5.76172 4.20703 5.625 3.99219C5.48828 3.77344 5.29297 3.625 5.03906 3.54688C4.78516 3.46484 4.34961 3.42383 3.73242 3.42383H2.01562V6.01953ZM2.01562 9.98633H4.1543C4.52148 9.98633 4.7793 9.97266 4.92773 9.94531C5.18945 9.89844 5.4082 9.82031 5.58398 9.71094C5.75977 9.60156 5.9043 9.44336 6.01758 9.23633C6.13086 9.02539 6.1875 8.7832 6.1875 8.50977C6.1875 8.18945 6.10547 7.91211 5.94141 7.67773C5.77734 7.43945 5.54883 7.27344 5.25586 7.17969C4.9668 7.08203 4.54883 7.0332 4.00195 7.0332H2.01562V9.98633ZM12.873 11V10.0859C12.3887 10.7891 11.7305 11.1406 10.8984 11.1406C10.5312 11.1406 10.1875 11.0703 9.86719 10.9297C9.55078 10.7891 9.31445 10.6133 9.1582 10.4023C9.00586 10.1875 8.89844 9.92578 8.83594 9.61719C8.79297 9.41016 8.77148 9.08203 8.77148 8.63281V4.77734H9.82617V8.22852C9.82617 8.7793 9.84766 9.15039 9.89062 9.3418C9.95703 9.61914 10.0977 9.83789 10.3125 9.99805C10.5273 10.1543 10.793 10.2324 11.1094 10.2324C11.4258 10.2324 11.7227 10.1523 12 9.99219C12.2773 9.82812 12.4727 9.60742 12.5859 9.33008C12.7031 9.04883 12.7617 8.64258 12.7617 8.11133V4.77734H13.8164V11H12.873ZM18.8203 3.62305V2.41016H19.875V3.62305H18.8203ZM18.8203 11V4.77734H19.875V11H18.8203ZM21.4863 11V4.77734H22.4355V5.66211C22.8926 4.97852 23.5527 4.63672 24.416 4.63672C24.791 4.63672 25.1348 4.70508 25.4473 4.8418C25.7637 4.97461 26 5.15039 26.1562 5.36914C26.3125 5.58789 26.4219 5.84766 26.4844 6.14844C26.5234 6.34375 26.543 6.68555 26.543 7.17383V11H25.4883V7.21484C25.4883 6.78516 25.4473 6.46484 25.3652 6.25391C25.2832 6.03906 25.1367 5.86914 24.9258 5.74414C24.7188 5.61523 24.4746 5.55078 24.1934 5.55078C23.7441 5.55078 23.3555 5.69336 23.0273 5.97852C22.7031 6.26367 22.541 6.80469 22.541 7.60156V11H21.4863ZM30.4688 10.0566L30.6211 10.9883C30.3242 11.0508 30.0586 11.082 29.8242 11.082C29.4414 11.082 29.1445 11.0215 28.9336 10.9004C28.7227 10.7793 28.5742 10.6211 28.4883 10.4258C28.4023 10.2266 28.3594 9.81055 28.3594 9.17773V5.59766H27.5859V4.77734H28.3594V3.23633L29.4082 2.60352V4.77734H30.4688V5.59766H29.4082V9.23633C29.4082 9.53711 29.4258 9.73047 29.4609 9.81641C29.5 9.90234 29.5605 9.9707 29.6426 10.0215C29.7285 10.0723 29.8496 10.0977 30.0059 10.0977C30.123 10.0977 30.2773 10.084 30.4688 10.0566ZM35.7656 8.99609L36.8555 9.13086C36.6836 9.76758 36.3652 10.2617 35.9004 10.6133C35.4355 10.9648 34.8418 11.1406 34.1191 11.1406C33.209 11.1406 32.4863 10.8613 31.9512 10.3027C31.4199 9.74023 31.1543 8.95312 31.1543 7.94141C31.1543 6.89453 31.4238 6.08203 31.9629 5.50391C32.502 4.92578 33.2012 4.63672 34.0605 4.63672C34.8926 4.63672 35.5723 4.91992 36.0996 5.48633C36.627 6.05273 36.8906 6.84961 36.8906 7.87695C36.8906 7.93945 36.8887 8.0332 36.8848 8.1582H32.2441C32.2832 8.8418 32.4766 9.36523 32.8242 9.72852C33.1719 10.0918 33.6055 10.2734 34.125 10.2734C34.5117 10.2734 34.8418 10.1719 35.1152 9.96875C35.3887 9.76562 35.6055 9.44141 35.7656 8.99609ZM32.3027 7.29102H35.7773C35.7305 6.76758 35.5977 6.375 35.3789 6.11328C35.043 5.70703 34.6074 5.50391 34.0723 5.50391C33.5879 5.50391 33.1797 5.66602 32.8477 5.99023C32.5195 6.31445 32.3379 6.74805 32.3027 7.29102ZM38.1738 11V4.77734H39.123V5.7207C39.3652 5.2793 39.5879 4.98828 39.791 4.84766C39.998 4.70703 40.2246 4.63672 40.4707 4.63672C40.8262 4.63672 41.1875 4.75 41.5547 4.97656L41.1914 5.95508C40.9336 5.80273 40.6758 5.72656 40.418 5.72656C40.1875 5.72656 39.9805 5.79688 39.7969 5.9375C39.6133 6.07422 39.4824 6.26562 39.4043 6.51172C39.2871 6.88672 39.2285 7.29688 39.2285 7.74219V11H38.1738ZM42.1816 11V4.77734H43.1309V5.66211C43.5879 4.97852 44.248 4.63672 45.1113 4.63672C45.4863 4.63672 45.8301 4.70508 46.1426 4.8418C46.459 4.97461 46.6953 5.15039 46.8516 5.36914C47.0078 5.58789 47.1172 5.84766 47.1797 6.14844C47.2188 6.34375 47.2383 6.68555 47.2383 7.17383V11H46.1836V7.21484C46.1836 6.78516 46.1426 6.46484 46.0605 6.25391C45.9785 6.03906 45.832 5.86914 45.6211 5.74414C45.4141 5.61523 45.1699 5.55078 44.8887 5.55078C44.4395 5.55078 44.0508 5.69336 43.7227 5.97852C43.3984 6.26367 43.2363 6.80469 43.2363 7.60156V11H42.1816ZM53.1211 8.99609L54.2109 9.13086C54.0391 9.76758 53.7207 10.2617 53.2559 10.6133C52.791 10.9648 52.1973 11.1406 51.4746 11.1406C50.5645 11.1406 49.8418 10.8613 49.3066 10.3027C48.7754 9.74023 48.5098 8.95312 48.5098 7.94141C48.5098 6.89453 48.7793 6.08203 49.3184 5.50391C49.8574 4.92578 50.5566 4.63672 51.416 4.63672C52.248 4.63672 52.9277 4.91992 53.4551 5.48633C53.9824 6.05273 54.2461 6.84961 54.2461 7.87695C54.2461 7.93945 54.2441 8.0332 54.2402 8.1582H49.5996C49.6387 8.8418 49.832 9.36523 50.1797 9.72852C50.5273 10.0918 50.9609 10.2734 51.4805 10.2734C51.8672 10.2734 52.1973 10.1719 52.4707 9.96875C52.7441 9.76562 52.9609 9.44141 53.1211 8.99609ZM49.6582 7.29102H53.1328C53.0859 6.76758 52.9531 6.375 52.7344 6.11328C52.3984 5.70703 51.9629 5.50391 51.4277 5.50391C50.9434 5.50391 50.5352 5.66602 50.2031 5.99023C49.875 6.31445 49.6934 6.74805 49.6582 7.29102ZM57.8438 10.0566L57.9961 10.9883C57.6992 11.0508 57.4336 11.082 57.1992 11.082C56.8164 11.082 56.5195 11.0215 56.3086 10.9004C56.0977 10.7793 55.9492 10.6211 55.8633 10.4258C55.7773 10.2266 55.7344 9.81055 55.7344 9.17773V5.59766H54.9609V4.77734H55.7344V3.23633L56.7832 2.60352V4.77734H57.8438V5.59766H56.7832V9.23633C56.7832 9.53711 56.8008 9.73047 56.8359 9.81641C56.875 9.90234 56.9355 9.9707 57.0176 10.0215C57.1035 10.0723 57.2246 10.0977 57.3809 10.0977C57.498 10.0977 57.6523 10.084 57.8438 10.0566ZM61.7988 9.14258L62.8418 8.97852C62.9004 9.39648 63.0625 9.7168 63.3281 9.93945C63.5977 10.1621 63.9727 10.2734 64.4531 10.2734C64.9375 10.2734 65.2969 10.1758 65.5312 9.98047C65.7656 9.78125 65.8828 9.54883 65.8828 9.2832C65.8828 9.04492 65.7793 8.85742 65.5723 8.7207C65.4277 8.62695 65.0684 8.50781 64.4941 8.36328C63.7207 8.16797 63.1836 8 62.8828 7.85938C62.5859 7.71484 62.3594 7.51758 62.2031 7.26758C62.0508 7.01367 61.9746 6.73438 61.9746 6.42969C61.9746 6.15234 62.0371 5.89648 62.1621 5.66211C62.291 5.42383 62.4648 5.22656 62.6836 5.07031C62.8477 4.94922 63.0703 4.84766 63.3516 4.76562C63.6367 4.67969 63.9414 4.63672 64.2656 4.63672C64.7539 4.63672 65.1816 4.70703 65.5488 4.84766C65.9199 4.98828 66.1934 5.17969 66.3691 5.42188C66.5449 5.66016 66.666 5.98047 66.7324 6.38281L65.7012 6.52344C65.6543 6.20312 65.5176 5.95312 65.291 5.77344C65.0684 5.59375 64.752 5.50391 64.3418 5.50391C63.8574 5.50391 63.5117 5.58398 63.3047 5.74414C63.0977 5.9043 62.9941 6.0918 62.9941 6.30664C62.9941 6.44336 63.0371 6.56641 63.123 6.67578C63.209 6.78906 63.3438 6.88281 63.5273 6.95703C63.6328 6.99609 63.9434 7.08594 64.459 7.22656C65.2051 7.42578 65.7246 7.58984 66.0176 7.71875C66.3145 7.84375 66.5469 8.02734 66.7148 8.26953C66.8828 8.51172 66.9668 8.8125 66.9668 9.17188C66.9668 9.52344 66.8633 9.85547 66.6562 10.168C66.4531 10.4766 66.1582 10.7168 65.7715 10.8887C65.3848 11.0566 64.9473 11.1406 64.459 11.1406C63.6504 11.1406 63.0332 10.9727 62.6074 10.6367C62.1855 10.3008 61.916 9.80273 61.7988 9.14258ZM68.2266 3.62305V2.41016H69.2812V3.62305H68.2266ZM68.2266 11V4.77734H69.2812V11H68.2266ZM73.1953 10.0566L73.3477 10.9883C73.0508 11.0508 72.7852 11.082 72.5508 11.082C72.168 11.082 71.8711 11.0215 71.6602 10.9004C71.4492 10.7793 71.3008 10.6211 71.2148 10.4258C71.1289 10.2266 71.0859 9.81055 71.0859 9.17773V5.59766H70.3125V4.77734H71.0859V3.23633L72.1348 2.60352V4.77734H73.1953V5.59766H72.1348V9.23633C72.1348 9.53711 72.1523 9.73047 72.1875 9.81641C72.2266 9.90234 72.2871 9.9707 72.3691 10.0215C72.4551 10.0723 72.5762 10.0977 72.7324 10.0977C72.8496 10.0977 73.0039 10.084 73.1953 10.0566ZM78.4922 8.99609L79.582 9.13086C79.4102 9.76758 79.0918 10.2617 78.627 10.6133C78.1621 10.9648 77.5684 11.1406 76.8457 11.1406C75.9355 11.1406 75.2129 10.8613 74.6777 10.3027C74.1465 9.74023 73.8809 8.95312 73.8809 7.94141C73.8809 6.89453 74.1504 6.08203 74.6895 5.50391C75.2285 4.92578 75.9277 4.63672 76.7871 4.63672C77.6191 4.63672 78.2988 4.91992 78.8262 5.48633C79.3535 6.05273 79.6172 6.84961 79.6172 7.87695C79.6172 7.93945 79.6152 8.0332 79.6113 8.1582H74.9707C75.0098 8.8418 75.2031 9.36523 75.5508 9.72852C75.8984 10.0918 76.332 10.2734 76.8516 10.2734C77.2383 10.2734 77.5684 10.1719 77.8418 9.96875C78.1152 9.76562 78.332 9.44141 78.4922 8.99609ZM75.0293 7.29102H78.5039C78.457 6.76758 78.3242 6.375 78.1055 6.11328C77.7695 5.70703 77.334 5.50391 76.7988 5.50391C76.3145 5.50391 75.9062 5.66602 75.5742 5.99023C75.2461 6.31445 75.0645 6.74805 75.0293 7.29102ZM80.4902 9.14258L81.5332 8.97852C81.5918 9.39648 81.7539 9.7168 82.0195 9.93945C82.2891 10.1621 82.6641 10.2734 83.1445 10.2734C83.6289 10.2734 83.9883 10.1758 84.2227 9.98047C84.457 9.78125 84.5742 9.54883 84.5742 9.2832C84.5742 9.04492 84.4707 8.85742 84.2637 8.7207C84.1191 8.62695 83.7598 8.50781 83.1855 8.36328C82.4121 8.16797 81.875 8 81.5742 7.85938C81.2773 7.71484 81.0508 7.51758 80.8945 7.26758C80.7422 7.01367 80.666 6.73438 80.666 6.42969C80.666 6.15234 80.7285 5.89648 80.8535 5.66211C80.9824 5.42383 81.1562 5.22656 81.375 5.07031C81.5391 4.94922 81.7617 4.84766 82.043 4.76562C82.3281 4.67969 82.6328 4.63672 82.957 4.63672C83.4453 4.63672 83.873 4.70703 84.2402 4.84766C84.6113 4.98828 84.8848 5.17969 85.0605 5.42188C85.2363 5.66016 85.3574 5.98047 85.4238 6.38281L84.3926 6.52344C84.3457 6.20312 84.209 5.95312 83.9824 5.77344C83.7598 5.59375 83.4434 5.50391 83.0332 5.50391C82.5488 5.50391 82.2031 5.58398 81.9961 5.74414C81.7891 5.9043 81.6855 6.0918 81.6855 6.30664C81.6855 6.44336 81.7285 6.56641 81.8145 6.67578C81.9004 6.78906 82.0352 6.88281 82.2188 6.95703C82.3242 6.99609 82.6348 7.08594 83.1504 7.22656C83.8965 7.42578 84.416 7.58984 84.709 7.71875C85.0059 7.84375 85.2383 8.02734 85.4062 8.26953C85.5742 8.51172 85.6582 8.8125 85.6582 9.17188C85.6582 9.52344 85.5547 9.85547 85.3477 10.168C85.1445 10.4766 84.8496 10.7168 84.4629 10.8887C84.0762 11.0566 83.6387 11.1406 83.1504 11.1406C82.3418 11.1406 81.7246 10.9727 81.2988 10.6367C80.877 10.3008 80.6074 9.80273 80.4902 9.14258ZM86.918 3.62305V2.41016H87.9727V3.62305H86.918ZM86.918 11V4.77734H87.9727V11H86.918ZM89.584 11V4.77734H90.5332V5.66211C90.9902 4.97852 91.6504 4.63672 92.5137 4.63672C92.8887 4.63672 93.2324 4.70508 93.5449 4.8418C93.8613 4.97461 94.0977 5.15039 94.2539 5.36914C94.4102 5.58789 94.5195 5.84766 94.582 6.14844C94.6211 6.34375 94.6406 6.68555 94.6406 7.17383V11H93.5859V7.21484C93.5859 6.78516 93.5449 6.46484 93.4629 6.25391C93.3809 6.03906 93.2344 5.86914 93.0234 5.74414C92.8164 5.61523 92.5723 5.55078 92.291 5.55078C91.8418 5.55078 91.4531 5.69336 91.125 5.97852C90.8008 6.26367 90.6387 6.80469 90.6387 7.60156V11H89.584ZM100.301 11V10.2148C99.9062 10.832 99.3262 11.1406 98.5605 11.1406C98.0645 11.1406 97.6074 11.0039 97.1895 10.7305C96.7754 10.457 96.4531 10.0762 96.2227 9.58789C95.9961 9.0957 95.8828 8.53125 95.8828 7.89453C95.8828 7.27344 95.9863 6.71094 96.1934 6.20703C96.4004 5.69922 96.7109 5.31055 97.125 5.04102C97.5391 4.77148 98.002 4.63672 98.5137 4.63672C98.8887 4.63672 99.2227 4.7168 99.5156 4.87695C99.8086 5.0332 100.047 5.23828 100.23 5.49219V2.41016H101.279V11H100.301ZM96.9668 7.89453C96.9668 8.69141 97.1348 9.28711 97.4707 9.68164C97.8066 10.0762 98.2031 10.2734 98.6602 10.2734C99.1211 10.2734 99.5117 10.0859 99.832 9.71094C100.156 9.33203 100.318 8.75586 100.318 7.98242C100.318 7.13086 100.154 6.50586 99.8262 6.10742C99.498 5.70898 99.0938 5.50977 98.6133 5.50977C98.1445 5.50977 97.752 5.70117 97.4355 6.08398C97.123 6.4668 96.9668 7.07031 96.9668 7.89453ZM107.203 8.99609L108.293 9.13086C108.121 9.76758 107.803 10.2617 107.338 10.6133C106.873 10.9648 106.279 11.1406 105.557 11.1406C104.646 11.1406 103.924 10.8613 103.389 10.3027C102.857 9.74023 102.592 8.95312 102.592 7.94141C102.592 6.89453 102.861 6.08203 103.4 5.50391C103.939 4.92578 104.639 4.63672 105.498 4.63672C106.33 4.63672 107.01 4.91992 107.537 5.48633C108.064 6.05273 108.328 6.84961 108.328 7.87695C108.328 7.93945 108.326 8.0332 108.322 8.1582H103.682C103.721 8.8418 103.914 9.36523 104.262 9.72852C104.609 10.0918 105.043 10.2734 105.562 10.2734C105.949 10.2734 106.279 10.1719 106.553 9.96875C106.826 9.76562 107.043 9.44141 107.203 8.99609ZM103.74 7.29102H107.215C107.168 6.76758 107.035 6.375 106.816 6.11328C106.48 5.70703 106.045 5.50391 105.51 5.50391C105.025 5.50391 104.617 5.66602 104.285 5.99023C103.957 6.31445 103.775 6.74805 103.74 7.29102ZM109.623 11V4.77734H110.572V5.66211C111.029 4.97852 111.689 4.63672 112.553 4.63672C112.928 4.63672 113.271 4.70508 113.584 4.8418C113.9 4.97461 114.137 5.15039 114.293 5.36914C114.449 5.58789 114.559 5.84766 114.621 6.14844C114.66 6.34375 114.68 6.68555 114.68 7.17383V11H113.625V7.21484C113.625 6.78516 113.584 6.46484 113.502 6.25391C113.42 6.03906 113.273 5.86914 113.062 5.74414C112.855 5.61523 112.611 5.55078 112.33 5.55078C111.881 5.55078 111.492 5.69336 111.164 5.97852C110.84 6.26367 110.678 6.80469 110.678 7.60156V11H109.623Z"/>
  </symbol>
  <symbol id="svg-copy-tr-2" viewBox="0 16 88 12">
    <path d="M0.791016 25V16.4102H1.8457V19.4922C2.33789 18.9219 2.95898 18.6367 3.70898 18.6367C4.16992 18.6367 4.57031 18.7285 4.91016 18.9121C5.25 19.0918 5.49219 19.3418 5.63672 19.6621C5.78516 19.9824 5.85938 20.4473 5.85938 21.0566V25H4.80469V21.0566C4.80469 20.5293 4.68945 20.1465 4.45898 19.9082C4.23242 19.666 3.91016 19.5449 3.49219 19.5449C3.17969 19.5449 2.88477 19.627 2.60742 19.791C2.33398 19.9512 2.13867 20.1699 2.02148 20.4473C1.9043 20.7246 1.8457 21.1074 1.8457 21.5957V25H0.791016ZM11.7305 22.9961L12.8203 23.1309C12.6484 23.7676 12.3301 24.2617 11.8652 24.6133C11.4004 24.9648 10.8066 25.1406 10.084 25.1406C9.17383 25.1406 8.45117 24.8613 7.91602 24.3027C7.38477 23.7402 7.11914 22.9531 7.11914 21.9414C7.11914 20.8945 7.38867 20.082 7.92773 19.5039C8.4668 18.9258 9.16602 18.6367 10.0254 18.6367C10.8574 18.6367 11.5371 18.9199 12.0645 19.4863C12.5918 20.0527 12.8555 20.8496 12.8555 21.877C12.8555 21.9395 12.8535 22.0332 12.8496 22.1582H8.20898C8.24805 22.8418 8.44141 23.3652 8.78906 23.7285C9.13672 24.0918 9.57031 24.2734 10.0898 24.2734C10.4766 24.2734 10.8066 24.1719 11.0801 23.9688C11.3535 23.7656 11.5703 23.4414 11.7305 22.9961ZM8.26758 21.291H11.7422C11.6953 20.7676 11.5625 20.375 11.3438 20.1133C11.0078 19.707 10.5723 19.5039 10.0371 19.5039C9.55273 19.5039 9.14453 19.666 8.8125 19.9902C8.48438 20.3145 8.30273 20.748 8.26758 21.291ZM14.1387 25V18.7773H15.0879V19.7207C15.3301 19.2793 15.5527 18.9883 15.7559 18.8477C15.9629 18.707 16.1895 18.6367 16.4355 18.6367C16.791 18.6367 17.1523 18.75 17.5195 18.9766L17.1562 19.9551C16.8984 19.8027 16.6406 19.7266 16.3828 19.7266C16.1523 19.7266 15.9453 19.7969 15.7617 19.9375C15.5781 20.0742 15.4473 20.2656 15.3691 20.5117C15.252 20.8867 15.1934 21.2969 15.1934 21.7422V25H14.1387ZM18.1465 25V16.4102H19.2012V19.4922C19.6934 18.9219 20.3145 18.6367 21.0645 18.6367C21.5254 18.6367 21.9258 18.7285 22.2656 18.9121C22.6055 19.0918 22.8477 19.3418 22.9922 19.6621C23.1406 19.9824 23.2148 20.4473 23.2148 21.0566V25H22.1602V21.0566C22.1602 20.5293 22.0449 20.1465 21.8145 19.9082C21.5879 19.666 21.2656 19.5449 20.8477 19.5449C20.5352 19.5449 20.2402 19.627 19.9629 19.791C19.6895 19.9512 19.4941 20.1699 19.377 20.4473C19.2598 20.7246 19.2012 21.1074 19.2012 21.5957V25H18.1465ZM28.8867 24.2324C28.4961 24.5645 28.1191 24.7988 27.7559 24.9355C27.3965 25.0723 27.0098 25.1406 26.5957 25.1406C25.9121 25.1406 25.3867 24.9746 25.0195 24.6426C24.6523 24.3066 24.4688 23.8789 24.4688 23.3594C24.4688 23.0547 24.5371 22.7773 24.6738 22.5273C24.8145 22.2734 24.9961 22.0703 25.2188 21.918C25.4453 21.7656 25.6992 21.6504 25.9805 21.5723C26.1875 21.5176 26.5 21.4648 26.918 21.4141C27.7695 21.3125 28.3965 21.1914 28.7988 21.0508C28.8027 20.9062 28.8047 20.8145 28.8047 20.7754C28.8047 20.3457 28.7051 20.043 28.5059 19.8672C28.2363 19.6289 27.8359 19.5098 27.3047 19.5098C26.8086 19.5098 26.4414 19.5977 26.2031 19.7734C25.9688 19.9453 25.7949 20.252 25.6816 20.6934L24.6504 20.5527C24.7441 20.1113 24.8984 19.7559 25.1133 19.4863C25.3281 19.2129 25.6387 19.0039 26.0449 18.8594C26.4512 18.7109 26.9219 18.6367 27.457 18.6367C27.9883 18.6367 28.4199 18.6992 28.752 18.8242C29.084 18.9492 29.3281 19.1074 29.4844 19.2988C29.6406 19.4863 29.75 19.7246 29.8125 20.0137C29.8477 20.1934 29.8652 20.5176 29.8652 20.9863V22.3926C29.8652 23.373 29.8867 23.9941 29.9297 24.2559C29.9766 24.5137 30.0664 24.7617 30.1992 25H29.0977C28.9883 24.7812 28.918 24.5254 28.8867 24.2324ZM28.7988 21.877C28.416 22.0332 27.8418 22.166 27.0762 22.2754C26.6426 22.3379 26.3359 22.4082 26.1562 22.4863C25.9766 22.5645 25.8379 22.6797 25.7402 22.832C25.6426 22.9805 25.5938 23.1465 25.5938 23.3301C25.5938 23.6113 25.6992 23.8457 25.9102 24.0332C26.125 24.2207 26.4375 24.3145 26.8477 24.3145C27.2539 24.3145 27.6152 24.2266 27.9316 24.0508C28.248 23.8711 28.4805 23.627 28.6289 23.3184C28.7422 23.0801 28.7988 22.7285 28.7988 22.2637V21.877ZM31.5059 25V18.7773H32.4551V19.6621C32.9121 18.9785 33.5723 18.6367 34.4355 18.6367C34.8105 18.6367 35.1543 18.7051 35.4668 18.8418C35.7832 18.9746 36.0195 19.1504 36.1758 19.3691C36.332 19.5879 36.4414 19.8477 36.5039 20.1484C36.543 20.3438 36.5625 20.6855 36.5625 21.1738V25H35.5078V21.2148C35.5078 20.7852 35.4668 20.4648 35.3848 20.2539C35.3027 20.0391 35.1562 19.8691 34.9453 19.7441C34.7383 19.6152 34.4941 19.5508 34.2129 19.5508C33.7637 19.5508 33.375 19.6934 33.0469 19.9785C32.7227 20.2637 32.5605 20.8047 32.5605 21.6016V25H31.5059ZM37.9922 25.5156L39.0176 25.668C39.0605 25.9844 39.1797 26.2148 39.375 26.3594C39.6367 26.5547 39.9941 26.6523 40.4473 26.6523C40.9355 26.6523 41.3125 26.5547 41.5781 26.3594C41.8438 26.1641 42.0234 25.8906 42.1172 25.5391C42.1719 25.3242 42.1973 24.873 42.1934 24.1855C41.7324 24.7285 41.1582 25 40.4707 25C39.6152 25 38.9531 24.6914 38.4844 24.0742C38.0156 23.457 37.7812 22.7168 37.7812 21.8535C37.7812 21.2598 37.8887 20.7129 38.1035 20.2129C38.3184 19.709 38.6289 19.3203 39.0352 19.0469C39.4453 18.7734 39.9258 18.6367 40.4766 18.6367C41.2109 18.6367 41.8164 18.9336 42.293 19.5273V18.7773H43.2656V24.1562C43.2656 25.125 43.166 25.8105 42.9668 26.2129C42.7715 26.6191 42.459 26.9395 42.0293 27.1738C41.6035 27.4082 41.0781 27.5254 40.4531 27.5254C39.7109 27.5254 39.1113 27.3574 38.6543 27.0215C38.1973 26.6895 37.9766 26.1875 37.9922 25.5156ZM38.8652 21.7773C38.8652 22.5938 39.0273 23.1895 39.3516 23.5645C39.6758 23.9395 40.082 24.127 40.5703 24.127C41.0547 24.127 41.4609 23.9414 41.7891 23.5703C42.1172 23.1953 42.2812 22.6094 42.2812 21.8125C42.2812 21.0508 42.1113 20.4766 41.7715 20.0898C41.4355 19.7031 41.0293 19.5098 40.5527 19.5098C40.084 19.5098 39.6855 19.7012 39.3574 20.084C39.0293 20.4629 38.8652 21.0273 38.8652 21.7773ZM44.8711 17.623V16.4102H45.9258V17.623H44.8711ZM44.8711 25V18.7773H45.9258V25H44.8711ZM51.8496 25H50.8711V16.4102H51.9258V19.4746C52.3711 18.916 52.9395 18.6367 53.6309 18.6367C54.0137 18.6367 54.375 18.7148 54.7148 18.8711C55.0586 19.0234 55.3398 19.2402 55.5586 19.5215C55.7812 19.7988 55.9551 20.1348 56.0801 20.5293C56.2051 20.9238 56.2676 21.3457 56.2676 21.7949C56.2676 22.8613 56.0039 23.6855 55.4766 24.2676C54.9492 24.8496 54.3164 25.1406 53.5781 25.1406C52.8438 25.1406 52.2676 24.834 51.8496 24.2207V25ZM51.8379 21.8418C51.8379 22.5879 51.9395 23.127 52.1426 23.459C52.4746 24.002 52.9238 24.2734 53.4902 24.2734C53.9512 24.2734 54.3496 24.0742 54.6855 23.6758C55.0215 23.2734 55.1895 22.6758 55.1895 21.8828C55.1895 21.0703 55.0273 20.4707 54.7031 20.084C54.3828 19.6973 53.9941 19.5039 53.5371 19.5039C53.0762 19.5039 52.6777 19.7051 52.3418 20.1074C52.0059 20.5059 51.8379 21.084 51.8379 21.8418ZM57.5625 17.623V16.4102H58.6172V17.623H57.5625ZM57.5625 25V18.7773H58.6172V25H57.5625ZM60.2168 25V18.7773H61.166V19.7207C61.4082 19.2793 61.6309 18.9883 61.834 18.8477C62.041 18.707 62.2676 18.6367 62.5137 18.6367C62.8691 18.6367 63.2305 18.75 63.5977 18.9766L63.2344 19.9551C62.9766 19.8027 62.7188 19.7266 62.4609 19.7266C62.2305 19.7266 62.0234 19.7969 61.8398 19.9375C61.6562 20.0742 61.5254 20.2656 61.4473 20.5117C61.3301 20.8867 61.2715 21.2969 61.2715 21.7422V25H60.2168ZM68.5371 25H67.5586V16.4102H68.6133V19.4746C69.0586 18.916 69.627 18.6367 70.3184 18.6367C70.7012 18.6367 71.0625 18.7148 71.4023 18.8711C71.7461 19.0234 72.0273 19.2402 72.2461 19.5215C72.4688 19.7988 72.6426 20.1348 72.7676 20.5293C72.8926 20.9238 72.9551 21.3457 72.9551 21.7949C72.9551 22.8613 72.6914 23.6855 72.1641 24.2676C71.6367 24.8496 71.0039 25.1406 70.2656 25.1406C69.5312 25.1406 68.9551 24.834 68.5371 24.2207V25ZM68.5254 21.8418C68.5254 22.5879 68.627 23.127 68.8301 23.459C69.1621 24.002 69.6113 24.2734 70.1777 24.2734C70.6387 24.2734 71.0371 24.0742 71.373 23.6758C71.709 23.2734 71.877 22.6758 71.877 21.8828C71.877 21.0703 71.7148 20.4707 71.3906 20.084C71.0703 19.6973 70.6816 19.5039 70.2246 19.5039C69.7637 19.5039 69.3652 19.7051 69.0293 20.1074C68.6934 20.5059 68.5254 21.084 68.5254 21.8418ZM74.25 17.623V16.4102H75.3047V17.623H74.25ZM74.25 25V18.7773H75.3047V25H74.25ZM76.8926 25V16.4102H77.9473V25H76.8926ZM79.3945 25.5156L80.4199 25.668C80.4629 25.9844 80.582 26.2148 80.7773 26.3594C81.0391 26.5547 81.3965 26.6523 81.8496 26.6523C82.3379 26.6523 82.7148 26.5547 82.9805 26.3594C83.2461 26.1641 83.4258 25.8906 83.5195 25.5391C83.5742 25.3242 83.5996 24.873 83.5957 24.1855C83.1348 24.7285 82.5605 25 81.873 25C81.0176 25 80.3555 24.6914 79.8867 24.0742C79.418 23.457 79.1836 22.7168 79.1836 21.8535C79.1836 21.2598 79.291 20.7129 79.5059 20.2129C79.7207 19.709 80.0312 19.3203 80.4375 19.0469C80.8477 18.7734 81.3281 18.6367 81.8789 18.6367C82.6133 18.6367 83.2188 18.9336 83.6953 19.5273V18.7773H84.668V24.1562C84.668 25.125 84.5684 25.8105 84.3691 26.2129C84.1738 26.6191 83.8613 26.9395 83.4316 27.1738C83.0059 27.4082 82.4805 27.5254 81.8555 27.5254C81.1133 27.5254 80.5137 27.3574 80.0566 27.0215C79.5996 26.6895 79.3789 26.1875 79.3945 25.5156ZM80.2676 21.7773C80.2676 22.5938 80.4297 23.1895 80.7539 23.5645C81.0781 23.9395 81.4844 24.127 81.9727 24.127C82.457 24.127 82.8633 23.9414 83.1914 23.5703C83.5195 23.1953 83.6836 22.6094 83.6836 21.8125C83.6836 21.0508 83.5137 20.4766 83.1738 20.0898C82.8379 19.7031 82.4316 19.5098 81.9551 19.5098C81.4863 19.5098 81.0879 19.7012 80.7598 20.084C80.4316 20.4629 80.2676 21.0273 80.2676 21.7773ZM86.2734 17.623V16.4102H87.3281V17.623H86.2734ZM86.2734 25V18.7773H87.3281V25H86.2734Z"/>
  </symbol>
  <symbol id="svg-copy-tr-3" viewBox="0 30 145 12">
    <path d="M0.796875 39V30.4102H1.85156V35.3086L4.34766 32.7773H5.71289L3.33398 35.0859L5.95312 39H4.65234L2.5957 35.8184L1.85156 36.5332V39H0.796875ZM6.39844 35.8887C6.39844 34.7363 6.71875 33.8828 7.35938 33.3281C7.89453 32.8672 8.54688 32.6367 9.31641 32.6367C10.1719 32.6367 10.8711 32.918 11.4141 33.4805C11.957 34.0391 12.2285 34.8125 12.2285 35.8008C12.2285 36.6016 12.1074 37.2324 11.8652 37.6934C11.627 38.1504 11.2773 38.5059 10.8164 38.7598C10.3594 39.0137 9.85938 39.1406 9.31641 39.1406C8.44531 39.1406 7.74023 38.8613 7.20117 38.3027C6.66602 37.7441 6.39844 36.9395 6.39844 35.8887ZM7.48242 35.8887C7.48242 36.6855 7.65625 37.2832 8.00391 37.6816C8.35156 38.0762 8.78906 38.2734 9.31641 38.2734C9.83984 38.2734 10.2754 38.0742 10.623 37.6758C10.9707 37.2773 11.1445 36.6699 11.1445 35.8535C11.1445 35.084 10.9688 34.502 10.6172 34.1074C10.2695 33.709 9.83594 33.5098 9.31641 33.5098C8.78906 33.5098 8.35156 33.707 8.00391 34.1016C7.65625 34.4961 7.48242 35.0918 7.48242 35.8887ZM13.4707 41.3848V32.7773H14.4316V33.5859C14.6582 33.2695 14.9141 33.0332 15.1992 32.877C15.4844 32.7168 15.8301 32.6367 16.2363 32.6367C16.7676 32.6367 17.2363 32.7734 17.6426 33.0469C18.0488 33.3203 18.3555 33.707 18.5625 34.207C18.7695 34.7031 18.873 35.248 18.873 35.8418C18.873 36.4785 18.7578 37.0527 18.5273 37.5645C18.3008 38.0723 17.9688 38.4629 17.5312 38.7363C17.0977 39.0059 16.6406 39.1406 16.1602 39.1406C15.8086 39.1406 15.4922 39.0664 15.2109 38.918C14.9336 38.7695 14.7051 38.582 14.5254 38.3555V41.3848H13.4707ZM14.4258 35.9238C14.4258 36.7246 14.5879 37.3164 14.9121 37.6992C15.2363 38.082 15.6289 38.2734 16.0898 38.2734C16.5586 38.2734 16.959 38.0762 17.291 37.6816C17.627 37.2832 17.7949 36.668 17.7949 35.8359C17.7949 35.043 17.6309 34.4492 17.3027 34.0547C16.9785 33.6602 16.5898 33.4629 16.1367 33.4629C15.6875 33.4629 15.2891 33.6738 14.9414 34.0957C14.5977 34.5137 14.4258 35.123 14.4258 35.9238ZM20.1035 41.3965L19.9863 40.4062C20.2168 40.4688 20.418 40.5 20.5898 40.5C20.8242 40.5 21.0117 40.4609 21.1523 40.3828C21.293 40.3047 21.4082 40.1953 21.498 40.0547C21.5645 39.9492 21.6719 39.6875 21.8203 39.2695C21.8398 39.2109 21.8711 39.125 21.9141 39.0117L19.5527 32.7773H20.6895L21.9844 36.3809C22.1523 36.8379 22.3027 37.3184 22.4355 37.8223C22.5566 37.3379 22.7012 36.8652 22.8691 36.4043L24.1992 32.7773H25.2539L22.8867 39.1055C22.6328 39.7891 22.4355 40.2598 22.2949 40.5176C22.1074 40.8652 21.8926 41.1191 21.6504 41.2793C21.4082 41.4434 21.1191 41.5254 20.7832 41.5254C20.5801 41.5254 20.3535 41.4824 20.1035 41.3965ZM30.2109 38.2324C29.8203 38.5645 29.4434 38.7988 29.0801 38.9355C28.7207 39.0723 28.334 39.1406 27.9199 39.1406C27.2363 39.1406 26.7109 38.9746 26.3438 38.6426C25.9766 38.3066 25.793 37.8789 25.793 37.3594C25.793 37.0547 25.8613 36.7773 25.998 36.5273C26.1387 36.2734 26.3203 36.0703 26.543 35.918C26.7695 35.7656 27.0234 35.6504 27.3047 35.5723C27.5117 35.5176 27.8242 35.4648 28.2422 35.4141C29.0938 35.3125 29.7207 35.1914 30.123 35.0508C30.127 34.9062 30.1289 34.8145 30.1289 34.7754C30.1289 34.3457 30.0293 34.043 29.8301 33.8672C29.5605 33.6289 29.1602 33.5098 28.6289 33.5098C28.1328 33.5098 27.7656 33.5977 27.5273 33.7734C27.293 33.9453 27.1191 34.252 27.0059 34.6934L25.9746 34.5527C26.0684 34.1113 26.2227 33.7559 26.4375 33.4863C26.6523 33.2129 26.9629 33.0039 27.3691 32.8594C27.7754 32.7109 28.2461 32.6367 28.7812 32.6367C29.3125 32.6367 29.7441 32.6992 30.0762 32.8242C30.4082 32.9492 30.6523 33.1074 30.8086 33.2988C30.9648 33.4863 31.0742 33.7246 31.1367 34.0137C31.1719 34.1934 31.1895 34.5176 31.1895 34.9863V36.3926C31.1895 37.373 31.2109 37.9941 31.2539 38.2559C31.3008 38.5137 31.3906 38.7617 31.5234 39H30.4219C30.3125 38.7812 30.2422 38.5254 30.2109 38.2324ZM30.123 35.877C29.7402 36.0332 29.166 36.166 28.4004 36.2754C27.9668 36.3379 27.6602 36.4082 27.4805 36.4863C27.3008 36.5645 27.1621 36.6797 27.0645 36.832C26.9668 36.9805 26.918 37.1465 26.918 37.3301C26.918 37.6113 27.0234 37.8457 27.2344 38.0332C27.4492 38.2207 27.7617 38.3145 28.1719 38.3145C28.5781 38.3145 28.9395 38.2266 29.2559 38.0508C29.5723 37.8711 29.8047 37.627 29.9531 37.3184C30.0664 37.0801 30.123 36.7285 30.123 36.2637V35.877ZM32.8066 39V30.4102H33.8613V39H32.8066ZM39.5625 38.2324C39.1719 38.5645 38.7949 38.7988 38.4316 38.9355C38.0723 39.0723 37.6855 39.1406 37.2715 39.1406C36.5879 39.1406 36.0625 38.9746 35.6953 38.6426C35.3281 38.3066 35.1445 37.8789 35.1445 37.3594C35.1445 37.0547 35.2129 36.7773 35.3496 36.5273C35.4902 36.2734 35.6719 36.0703 35.8945 35.918C36.1211 35.7656 36.375 35.6504 36.6562 35.5723C36.8633 35.5176 37.1758 35.4648 37.5938 35.4141C38.4453 35.3125 39.0723 35.1914 39.4746 35.0508C39.4785 34.9062 39.4805 34.8145 39.4805 34.7754C39.4805 34.3457 39.3809 34.043 39.1816 33.8672C38.9121 33.6289 38.5117 33.5098 37.9805 33.5098C37.4844 33.5098 37.1172 33.5977 36.8789 33.7734C36.6445 33.9453 36.4707 34.252 36.3574 34.6934L35.3262 34.5527C35.4199 34.1113 35.5742 33.7559 35.7891 33.4863C36.0039 33.2129 36.3145 33.0039 36.7207 32.8594C37.127 32.7109 37.5977 32.6367 38.1328 32.6367C38.6641 32.6367 39.0957 32.6992 39.4277 32.8242C39.7598 32.9492 40.0039 33.1074 40.1602 33.2988C40.3164 33.4863 40.4258 33.7246 40.4883 34.0137C40.5234 34.1934 40.541 34.5176 40.541 34.9863V36.3926C40.541 37.373 40.5625 37.9941 40.6055 38.2559C40.6523 38.5137 40.7422 38.7617 40.875 39H39.7734C39.6641 38.7812 39.5938 38.5254 39.5625 38.2324ZM39.4746 35.877C39.0918 36.0332 38.5176 36.166 37.752 36.2754C37.3184 36.3379 37.0117 36.4082 36.832 36.4863C36.6523 36.5645 36.5137 36.6797 36.416 36.832C36.3184 36.9805 36.2695 37.1465 36.2695 37.3301C36.2695 37.6113 36.375 37.8457 36.5859 38.0332C36.8008 38.2207 37.1133 38.3145 37.5234 38.3145C37.9297 38.3145 38.291 38.2266 38.6074 38.0508C38.9238 37.8711 39.1562 37.627 39.3047 37.3184C39.418 37.0801 39.4746 36.7285 39.4746 36.2637V35.877ZM42.1816 39V32.7773H43.125V33.6504C43.3203 33.3457 43.5801 33.1016 43.9043 32.918C44.2285 32.7305 44.5977 32.6367 45.0117 32.6367C45.4727 32.6367 45.8496 32.7324 46.1426 32.9238C46.4395 33.1152 46.6484 33.3828 46.7695 33.7266C47.2617 33 47.9023 32.6367 48.6914 32.6367C49.3086 32.6367 49.7832 32.8086 50.1152 33.1523C50.4473 33.4922 50.6133 34.0176 50.6133 34.7285V39H49.5645V35.0801C49.5645 34.6582 49.5293 34.3555 49.459 34.1719C49.3926 33.9844 49.2695 33.834 49.0898 33.7207C48.9102 33.6074 48.6992 33.5508 48.457 33.5508C48.0195 33.5508 47.6562 33.6973 47.3672 33.9902C47.0781 34.2793 46.9336 34.7441 46.9336 35.3848V39H45.8789V34.957C45.8789 34.4883 45.793 34.1367 45.6211 33.9023C45.4492 33.668 45.168 33.5508 44.7773 33.5508C44.4805 33.5508 44.2051 33.6289 43.9512 33.7852C43.7012 33.9414 43.5195 34.1699 43.4062 34.4707C43.293 34.7715 43.2363 35.2051 43.2363 35.7715V39H42.1816ZM56.2383 38.2324C55.8477 38.5645 55.4707 38.7988 55.1074 38.9355C54.748 39.0723 54.3613 39.1406 53.9473 39.1406C53.2637 39.1406 52.7383 38.9746 52.3711 38.6426C52.0039 38.3066 51.8203 37.8789 51.8203 37.3594C51.8203 37.0547 51.8887 36.7773 52.0254 36.5273C52.166 36.2734 52.3477 36.0703 52.5703 35.918C52.7969 35.7656 53.0508 35.6504 53.332 35.5723C53.5391 35.5176 53.8516 35.4648 54.2695 35.4141C55.1211 35.3125 55.748 35.1914 56.1504 35.0508C56.1543 34.9062 56.1562 34.8145 56.1562 34.7754C56.1562 34.3457 56.0566 34.043 55.8574 33.8672C55.5879 33.6289 55.1875 33.5098 54.6562 33.5098C54.1602 33.5098 53.793 33.5977 53.5547 33.7734C53.3203 33.9453 53.1465 34.252 53.0332 34.6934L52.002 34.5527C52.0957 34.1113 52.25 33.7559 52.4648 33.4863C52.6797 33.2129 52.9902 33.0039 53.3965 32.8594C53.8027 32.7109 54.2734 32.6367 54.8086 32.6367C55.3398 32.6367 55.7715 32.6992 56.1035 32.8242C56.4355 32.9492 56.6797 33.1074 56.8359 33.2988C56.9922 33.4863 57.1016 33.7246 57.1641 34.0137C57.1992 34.1934 57.2168 34.5176 57.2168 34.9863V36.3926C57.2168 37.373 57.2383 37.9941 57.2812 38.2559C57.3281 38.5137 57.418 38.7617 57.5508 39H56.4492C56.3398 38.7812 56.2695 38.5254 56.2383 38.2324ZM56.1504 35.877C55.7676 36.0332 55.1934 36.166 54.4277 36.2754C53.9941 36.3379 53.6875 36.4082 53.5078 36.4863C53.3281 36.5645 53.1895 36.6797 53.0918 36.832C52.9941 36.9805 52.9453 37.1465 52.9453 37.3301C52.9453 37.6113 53.0508 37.8457 53.2617 38.0332C53.4766 38.2207 53.7891 38.3145 54.1992 38.3145C54.6055 38.3145 54.9668 38.2266 55.2832 38.0508C55.5996 37.8711 55.832 37.627 55.9805 37.3184C56.0938 37.0801 56.1504 36.7285 56.1504 36.2637V35.877ZM58.8633 39V30.4102H59.918V35.3086L62.4141 32.7773H63.7793L61.4004 35.0859L64.0195 39H62.7188L60.6621 35.8184L59.918 36.5332V39H58.8633ZM69.9258 39L67.5586 32.7773H68.6719L70.0078 36.5039C70.1523 36.9062 70.2852 37.3242 70.4062 37.7578C70.5 37.4297 70.6309 37.0352 70.7988 36.5742L72.1816 32.7773H73.2656L70.9102 39H69.9258ZM78.457 36.9961L79.5469 37.1309C79.375 37.7676 79.0566 38.2617 78.5918 38.6133C78.127 38.9648 77.5332 39.1406 76.8105 39.1406C75.9004 39.1406 75.1777 38.8613 74.6426 38.3027C74.1113 37.7402 73.8457 36.9531 73.8457 35.9414C73.8457 34.8945 74.1152 34.082 74.6543 33.5039C75.1934 32.9258 75.8926 32.6367 76.752 32.6367C77.584 32.6367 78.2637 32.9199 78.791 33.4863C79.3184 34.0527 79.582 34.8496 79.582 35.877C79.582 35.9395 79.5801 36.0332 79.5762 36.1582H74.9355C74.9746 36.8418 75.168 37.3652 75.5156 37.7285C75.8633 38.0918 76.2969 38.2734 76.8164 38.2734C77.2031 38.2734 77.5332 38.1719 77.8066 37.9688C78.0801 37.7656 78.2969 37.4414 78.457 36.9961ZM74.9941 35.291H78.4688C78.4219 34.7676 78.2891 34.375 78.0703 34.1133C77.7344 33.707 77.2988 33.5039 76.7637 33.5039C76.2793 33.5039 75.8711 33.666 75.5391 33.9902C75.2109 34.3145 75.0293 34.748 74.9941 35.291ZM80.8301 41.3965L80.7129 40.4062C80.9434 40.4688 81.1445 40.5 81.3164 40.5C81.5508 40.5 81.7383 40.4609 81.8789 40.3828C82.0195 40.3047 82.1348 40.1953 82.2246 40.0547C82.291 39.9492 82.3984 39.6875 82.5469 39.2695C82.5664 39.2109 82.5977 39.125 82.6406 39.0117L80.2793 32.7773H81.416L82.7109 36.3809C82.8789 36.8379 83.0293 37.3184 83.1621 37.8223C83.2832 37.3379 83.4277 36.8652 83.5957 36.4043L84.9258 32.7773H85.9805L83.6133 39.1055C83.3594 39.7891 83.1621 40.2598 83.0215 40.5176C82.834 40.8652 82.6191 41.1191 82.377 41.2793C82.1348 41.4434 81.8457 41.5254 81.5098 41.5254C81.3066 41.5254 81.0801 41.4824 80.8301 41.3965ZM90.9375 38.2324C90.5469 38.5645 90.1699 38.7988 89.8066 38.9355C89.4473 39.0723 89.0605 39.1406 88.6465 39.1406C87.9629 39.1406 87.4375 38.9746 87.0703 38.6426C86.7031 38.3066 86.5195 37.8789 86.5195 37.3594C86.5195 37.0547 86.5879 36.7773 86.7246 36.5273C86.8652 36.2734 87.0469 36.0703 87.2695 35.918C87.4961 35.7656 87.75 35.6504 88.0312 35.5723C88.2383 35.5176 88.5508 35.4648 88.9688 35.4141C89.8203 35.3125 90.4473 35.1914 90.8496 35.0508C90.8535 34.9062 90.8555 34.8145 90.8555 34.7754C90.8555 34.3457 90.7559 34.043 90.5566 33.8672C90.2871 33.6289 89.8867 33.5098 89.3555 33.5098C88.8594 33.5098 88.4922 33.5977 88.2539 33.7734C88.0195 33.9453 87.8457 34.252 87.7324 34.6934L86.7012 34.5527C86.7949 34.1113 86.9492 33.7559 87.1641 33.4863C87.3789 33.2129 87.6895 33.0039 88.0957 32.8594C88.502 32.7109 88.9727 32.6367 89.5078 32.6367C90.0391 32.6367 90.4707 32.6992 90.8027 32.8242C91.1348 32.9492 91.3789 33.1074 91.5352 33.2988C91.6914 33.4863 91.8008 33.7246 91.8633 34.0137C91.8984 34.1934 91.916 34.5176 91.916 34.9863V36.3926C91.916 37.373 91.9375 37.9941 91.9805 38.2559C92.0273 38.5137 92.1172 38.7617 92.25 39H91.1484C91.0391 38.7812 90.9688 38.5254 90.9375 38.2324ZM90.8496 35.877C90.4668 36.0332 89.8926 36.166 89.127 36.2754C88.6934 36.3379 88.3867 36.4082 88.207 36.4863C88.0273 36.5645 87.8887 36.6797 87.791 36.832C87.6934 36.9805 87.6445 37.1465 87.6445 37.3301C87.6445 37.6113 87.75 37.8457 87.9609 38.0332C88.1758 38.2207 88.4883 38.3145 88.8984 38.3145C89.3047 38.3145 89.666 38.2266 89.9824 38.0508C90.2988 37.8711 90.5312 37.627 90.6797 37.3184C90.793 37.0801 90.8496 36.7285 90.8496 36.2637V35.877ZM96.4512 36.5625L97.4766 36.4219C97.5039 37.0781 97.627 37.5273 97.8457 37.7695C98.0645 38.0117 98.3672 38.1328 98.7539 38.1328C99.0391 38.1328 99.2852 38.0684 99.4922 37.9395C99.6992 37.8066 99.8418 37.6289 99.9199 37.4062C99.998 37.1797 100.037 36.8203 100.037 36.3281V30.4102H101.174V36.2637C101.174 36.9824 101.086 37.5391 100.91 37.9336C100.738 38.3281 100.463 38.6289 100.084 38.8359C99.709 39.043 99.2676 39.1465 98.7598 39.1465C98.0059 39.1465 97.4277 38.9297 97.0254 38.4961C96.627 38.0625 96.4355 37.418 96.4512 36.5625ZM106.975 39V38.0859C106.49 38.7891 105.832 39.1406 105 39.1406C104.633 39.1406 104.289 39.0703 103.969 38.9297C103.652 38.7891 103.416 38.6133 103.26 38.4023C103.107 38.1875 103 37.9258 102.938 37.6172C102.895 37.4102 102.873 37.082 102.873 36.6328V32.7773H103.928V36.2285C103.928 36.7793 103.949 37.1504 103.992 37.3418C104.059 37.6191 104.199 37.8379 104.414 37.998C104.629 38.1543 104.895 38.2324 105.211 38.2324C105.527 38.2324 105.824 38.1523 106.102 37.9922C106.379 37.8281 106.574 37.6074 106.688 37.3301C106.805 37.0488 106.863 36.6426 106.863 36.1113V32.7773H107.918V39H106.975ZM109.154 37.1426L110.197 36.9785C110.256 37.3965 110.418 37.7168 110.684 37.9395C110.953 38.1621 111.328 38.2734 111.809 38.2734C112.293 38.2734 112.652 38.1758 112.887 37.9805C113.121 37.7812 113.238 37.5488 113.238 37.2832C113.238 37.0449 113.135 36.8574 112.928 36.7207C112.783 36.627 112.424 36.5078 111.85 36.3633C111.076 36.168 110.539 36 110.238 35.8594C109.941 35.7148 109.715 35.5176 109.559 35.2676C109.406 35.0137 109.33 34.7344 109.33 34.4297C109.33 34.1523 109.393 33.8965 109.518 33.6621C109.646 33.4238 109.82 33.2266 110.039 33.0703C110.203 32.9492 110.426 32.8477 110.707 32.7656C110.992 32.6797 111.297 32.6367 111.621 32.6367C112.109 32.6367 112.537 32.707 112.904 32.8477C113.275 32.9883 113.549 33.1797 113.725 33.4219C113.9 33.6602 114.021 33.9805 114.088 34.3828L113.057 34.5234C113.01 34.2031 112.873 33.9531 112.646 33.7734C112.424 33.5938 112.107 33.5039 111.697 33.5039C111.213 33.5039 110.867 33.584 110.66 33.7441C110.453 33.9043 110.35 34.0918 110.35 34.3066C110.35 34.4434 110.393 34.5664 110.479 34.6758C110.564 34.7891 110.699 34.8828 110.883 34.957C110.988 34.9961 111.299 35.0859 111.814 35.2266C112.561 35.4258 113.08 35.5898 113.373 35.7188C113.67 35.8438 113.902 36.0273 114.07 36.2695C114.238 36.5117 114.322 36.8125 114.322 37.1719C114.322 37.5234 114.219 37.8555 114.012 38.168C113.809 38.4766 113.514 38.7168 113.127 38.8887C112.74 39.0566 112.303 39.1406 111.814 39.1406C111.006 39.1406 110.389 38.9727 109.963 38.6367C109.541 38.3008 109.271 37.8027 109.154 37.1426ZM117.879 38.0566L118.031 38.9883C117.734 39.0508 117.469 39.082 117.234 39.082C116.852 39.082 116.555 39.0215 116.344 38.9004C116.133 38.7793 115.984 38.6211 115.898 38.4258C115.812 38.2266 115.77 37.8105 115.77 37.1777V33.5977H114.996V32.7773H115.77V31.2363L116.818 30.6035V32.7773H117.879V33.5977H116.818V37.2363C116.818 37.5371 116.836 37.7305 116.871 37.8164C116.91 37.9023 116.971 37.9707 117.053 38.0215C117.139 38.0723 117.26 38.0977 117.416 38.0977C117.533 38.0977 117.688 38.084 117.879 38.0566ZM119.168 39V33.5977H118.236V32.7773H119.168V32.1152C119.168 31.6973 119.205 31.3867 119.279 31.1836C119.381 30.9102 119.559 30.6895 119.812 30.5215C120.07 30.3496 120.43 30.2637 120.891 30.2637C121.188 30.2637 121.516 30.2988 121.875 30.3691L121.717 31.2891C121.498 31.25 121.291 31.2305 121.096 31.2305C120.775 31.2305 120.549 31.2988 120.416 31.4355C120.283 31.5723 120.217 31.8281 120.217 32.2031V32.7773H121.43V33.5977H120.217V39H119.168ZM121.863 35.8887C121.863 34.7363 122.184 33.8828 122.824 33.3281C123.359 32.8672 124.012 32.6367 124.781 32.6367C125.637 32.6367 126.336 32.918 126.879 33.4805C127.422 34.0391 127.693 34.8125 127.693 35.8008C127.693 36.6016 127.572 37.2324 127.33 37.6934C127.092 38.1504 126.742 38.5059 126.281 38.7598C125.824 39.0137 125.324 39.1406 124.781 39.1406C123.91 39.1406 123.205 38.8613 122.666 38.3027C122.131 37.7441 121.863 36.9395 121.863 35.8887ZM122.947 35.8887C122.947 36.6855 123.121 37.2832 123.469 37.6816C123.816 38.0762 124.254 38.2734 124.781 38.2734C125.305 38.2734 125.74 38.0742 126.088 37.6758C126.436 37.2773 126.609 36.6699 126.609 35.8535C126.609 35.084 126.434 34.502 126.082 34.1074C125.734 33.709 125.301 33.5098 124.781 33.5098C124.254 33.5098 123.816 33.707 123.469 34.1016C123.121 34.4961 122.947 35.0918 122.947 35.8887ZM128.924 39V32.7773H129.873V33.7207C130.115 33.2793 130.338 32.9883 130.541 32.8477C130.748 32.707 130.975 32.6367 131.221 32.6367C131.576 32.6367 131.938 32.75 132.305 32.9766L131.941 33.9551C131.684 33.8027 131.426 33.7266 131.168 33.7266C130.938 33.7266 130.73 33.7969 130.547 33.9375C130.363 34.0742 130.232 34.2656 130.154 34.5117C130.037 34.8867 129.979 35.2969 129.979 35.7422V39H128.924ZM137.191 36.9961L138.281 37.1309C138.109 37.7676 137.791 38.2617 137.326 38.6133C136.861 38.9648 136.268 39.1406 135.545 39.1406C134.635 39.1406 133.912 38.8613 133.377 38.3027C132.846 37.7402 132.58 36.9531 132.58 35.9414C132.58 34.8945 132.85 34.082 133.389 33.5039C133.928 32.9258 134.627 32.6367 135.486 32.6367C136.318 32.6367 136.998 32.9199 137.525 33.4863C138.053 34.0527 138.316 34.8496 138.316 35.877C138.316 35.9395 138.314 36.0332 138.311 36.1582H133.67C133.709 36.8418 133.902 37.3652 134.25 37.7285C134.598 38.0918 135.031 38.2734 135.551 38.2734C135.938 38.2734 136.268 38.1719 136.541 37.9688C136.814 37.7656 137.031 37.4414 137.191 36.9961ZM133.729 35.291H137.203C137.156 34.7676 137.023 34.375 136.805 34.1133C136.469 33.707 136.033 33.5039 135.498 33.5039C135.014 33.5039 134.605 33.666 134.273 33.9902C133.945 34.3145 133.764 34.748 133.729 35.291ZM138.908 39L141.182 35.7656L139.078 32.7773H140.396L141.352 34.2363C141.531 34.5137 141.676 34.7461 141.785 34.9336C141.957 34.6758 142.115 34.4473 142.26 34.248L143.309 32.7773H144.568L142.418 35.707L144.732 39H143.438L142.16 37.0664L141.82 36.5449L140.186 39H138.908Z"/>
  </symbol>
  <symbol id="svg-copy-tr-4" viewBox="0 43 116 11">
    <path d="M0.878906 53V44.4102H4.10156C4.75781 44.4102 5.2832 44.498 5.67773 44.6738C6.07617 44.8457 6.38672 45.1133 6.60938 45.4766C6.83594 45.8359 6.94922 46.2129 6.94922 46.6074C6.94922 46.9746 6.84961 47.3203 6.65039 47.6445C6.45117 47.9688 6.15039 48.2305 5.74805 48.4297C6.26758 48.582 6.66602 48.8418 6.94336 49.209C7.22461 49.5762 7.36523 50.0098 7.36523 50.5098C7.36523 50.9121 7.2793 51.2871 7.10742 51.6348C6.93945 51.9785 6.73047 52.2441 6.48047 52.4316C6.23047 52.6191 5.91602 52.7617 5.53711 52.8594C5.16211 52.9531 4.70117 53 4.1543 53H0.878906ZM2.01562 48.0195H3.87305C4.37695 48.0195 4.73828 47.9863 4.95703 47.9199C5.24609 47.834 5.46289 47.6914 5.60742 47.4922C5.75586 47.293 5.83008 47.043 5.83008 46.7422C5.83008 46.457 5.76172 46.207 5.625 45.9922C5.48828 45.7734 5.29297 45.625 5.03906 45.5469C4.78516 45.4648 4.34961 45.4238 3.73242 45.4238H2.01562V48.0195ZM2.01562 51.9863H4.1543C4.52148 51.9863 4.7793 51.9727 4.92773 51.9453C5.18945 51.8984 5.4082 51.8203 5.58398 51.7109C5.75977 51.6016 5.9043 51.4434 6.01758 51.2363C6.13086 51.0254 6.1875 50.7832 6.1875 50.5098C6.1875 50.1895 6.10547 49.9121 5.94141 49.6777C5.77734 49.4395 5.54883 49.2734 5.25586 49.1797C4.9668 49.082 4.54883 49.0332 4.00195 49.0332H2.01562V51.9863ZM8.7832 53V46.7773H9.73242V47.7207C9.97461 47.2793 10.1973 46.9883 10.4004 46.8477C10.6074 46.707 10.834 46.6367 11.0801 46.6367C11.4355 46.6367 11.7969 46.75 12.1641 46.9766L11.8008 47.9551C11.543 47.8027 11.2852 47.7266 11.0273 47.7266C10.7969 47.7266 10.5898 47.7969 10.4062 47.9375C10.2227 48.0742 10.0918 48.2656 10.0137 48.5117C9.89648 48.8867 9.83789 49.2969 9.83789 49.7422V53H8.7832ZM16.8516 52.2324C16.4609 52.5645 16.084 52.7988 15.7207 52.9355C15.3613 53.0723 14.9746 53.1406 14.5605 53.1406C13.877 53.1406 13.3516 52.9746 12.9844 52.6426C12.6172 52.3066 12.4336 51.8789 12.4336 51.3594C12.4336 51.0547 12.502 50.7773 12.6387 50.5273C12.7793 50.2734 12.9609 50.0703 13.1836 49.918C13.4102 49.7656 13.6641 49.6504 13.9453 49.5723C14.1523 49.5176 14.4648 49.4648 14.8828 49.4141C15.7344 49.3125 16.3613 49.1914 16.7637 49.0508C16.7676 48.9062 16.7695 48.8145 16.7695 48.7754C16.7695 48.3457 16.6699 48.043 16.4707 47.8672C16.2012 47.6289 15.8008 47.5098 15.2695 47.5098C14.7734 47.5098 14.4062 47.5977 14.168 47.7734C13.9336 47.9453 13.7598 48.252 13.6465 48.6934L12.6152 48.5527C12.709 48.1113 12.8633 47.7559 13.0781 47.4863C13.293 47.2129 13.6035 47.0039 14.0098 46.8594C14.416 46.7109 14.8867 46.6367 15.4219 46.6367C15.9531 46.6367 16.3848 46.6992 16.7168 46.8242C17.0488 46.9492 17.293 47.1074 17.4492 47.2988C17.6055 47.4863 17.7148 47.7246 17.7773 48.0137C17.8125 48.1934 17.8301 48.5176 17.8301 48.9863V50.3926C17.8301 51.373 17.8516 51.9941 17.8945 52.2559C17.9414 52.5137 18.0312 52.7617 18.1641 53H17.0625C16.9531 52.7812 16.8828 52.5254 16.8516 52.2324ZM16.7637 49.877C16.3809 50.0332 15.8066 50.166 15.041 50.2754C14.6074 50.3379 14.3008 50.4082 14.1211 50.4863C13.9414 50.5645 13.8027 50.6797 13.7051 50.832C13.6074 50.9805 13.5586 51.1465 13.5586 51.3301C13.5586 51.6113 13.6641 51.8457 13.875 52.0332C14.0898 52.2207 14.4023 52.3145 14.8125 52.3145C15.2188 52.3145 15.5801 52.2266 15.8965 52.0508C16.2129 51.8711 16.4453 51.627 16.5938 51.3184C16.707 51.0801 16.7637 50.7285 16.7637 50.2637V49.877ZM19.4707 53V46.7773H20.4199V47.6621C20.877 46.9785 21.5371 46.6367 22.4004 46.6367C22.7754 46.6367 23.1191 46.7051 23.4316 46.8418C23.748 46.9746 23.9844 47.1504 24.1406 47.3691C24.2969 47.5879 24.4062 47.8477 24.4688 48.1484C24.5078 48.3438 24.5273 48.6855 24.5273 49.1738V53H23.4727V49.2148C23.4727 48.7852 23.4316 48.4648 23.3496 48.2539C23.2676 48.0391 23.1211 47.8691 22.9102 47.7441C22.7031 47.6152 22.459 47.5508 22.1777 47.5508C21.7285 47.5508 21.3398 47.6934 21.0117 47.9785C20.6875 48.2637 20.5254 48.8047 20.5254 49.6016V53H19.4707ZM30.1875 53V52.2148C29.793 52.832 29.2129 53.1406 28.4473 53.1406C27.9512 53.1406 27.4941 53.0039 27.0762 52.7305C26.6621 52.457 26.3398 52.0762 26.1094 51.5879C25.8828 51.0957 25.7695 50.5312 25.7695 49.8945C25.7695 49.2734 25.873 48.7109 26.0801 48.207C26.2871 47.6992 26.5977 47.3105 27.0117 47.041C27.4258 46.7715 27.8887 46.6367 28.4004 46.6367C28.7754 46.6367 29.1094 46.7168 29.4023 46.877C29.6953 47.0332 29.9336 47.2383 30.1172 47.4922V44.4102H31.166V53H30.1875ZM26.8535 49.8945C26.8535 50.6914 27.0215 51.2871 27.3574 51.6816C27.6934 52.0762 28.0898 52.2734 28.5469 52.2734C29.0078 52.2734 29.3984 52.0859 29.7188 51.7109C30.043 51.332 30.2051 50.7559 30.2051 49.9824C30.2051 49.1309 30.041 48.5059 29.7129 48.1074C29.3848 47.709 28.9805 47.5098 28.5 47.5098C28.0312 47.5098 27.6387 47.7012 27.3223 48.084C27.0098 48.4668 26.8535 49.0703 26.8535 49.8945ZM42.4336 49.9883L43.5703 50.2754C43.332 51.209 42.9023 51.9219 42.2812 52.4141C41.6641 52.9023 40.9082 53.1465 40.0137 53.1465C39.0879 53.1465 38.334 52.959 37.752 52.584C37.1738 52.2051 36.7324 51.6582 36.4277 50.9434C36.127 50.2285 35.9766 49.4609 35.9766 48.6406C35.9766 47.7461 36.1465 46.9668 36.4863 46.3027C36.8301 45.6348 37.3164 45.1289 37.9453 44.7852C38.5781 44.4375 39.2734 44.2637 40.0312 44.2637C40.8906 44.2637 41.6133 44.4824 42.1992 44.9199C42.7852 45.3574 43.1934 45.9727 43.4238 46.7656L42.3047 47.0293C42.1055 46.4043 41.8164 45.9492 41.4375 45.6641C41.0586 45.3789 40.582 45.2363 40.0078 45.2363C39.3477 45.2363 38.7949 45.3945 38.3496 45.7109C37.9082 46.0273 37.5977 46.4531 37.418 46.9883C37.2383 47.5195 37.1484 48.0684 37.1484 48.6348C37.1484 49.3652 37.2539 50.0039 37.4648 50.5508C37.6797 51.0938 38.0117 51.5 38.4609 51.7695C38.9102 52.0391 39.3965 52.1738 39.9199 52.1738C40.5566 52.1738 41.0957 51.9902 41.5371 51.623C41.9785 51.2559 42.2773 50.7109 42.4336 49.9883ZM44.8418 53V44.4102H45.8965V47.4922C46.3887 46.9219 47.0098 46.6367 47.7598 46.6367C48.2207 46.6367 48.6211 46.7285 48.9609 46.9121C49.3008 47.0918 49.543 47.3418 49.6875 47.6621C49.8359 47.9824 49.9102 48.4473 49.9102 49.0566V53H48.8555V49.0566C48.8555 48.5293 48.7402 48.1465 48.5098 47.9082C48.2832 47.666 47.9609 47.5449 47.543 47.5449C47.2305 47.5449 46.9355 47.627 46.6582 47.791C46.3848 47.9512 46.1895 48.1699 46.0723 48.4473C45.9551 48.7246 45.8965 49.1074 45.8965 49.5957V53H44.8418ZM55.582 52.2324C55.1914 52.5645 54.8145 52.7988 54.4512 52.9355C54.0918 53.0723 53.7051 53.1406 53.291 53.1406C52.6074 53.1406 52.082 52.9746 51.7148 52.6426C51.3477 52.3066 51.1641 51.8789 51.1641 51.3594C51.1641 51.0547 51.2324 50.7773 51.3691 50.5273C51.5098 50.2734 51.6914 50.0703 51.9141 49.918C52.1406 49.7656 52.3945 49.6504 52.6758 49.5723C52.8828 49.5176 53.1953 49.4648 53.6133 49.4141C54.4648 49.3125 55.0918 49.1914 55.4941 49.0508C55.498 48.9062 55.5 48.8145 55.5 48.7754C55.5 48.3457 55.4004 48.043 55.2012 47.8672C54.9316 47.6289 54.5312 47.5098 54 47.5098C53.5039 47.5098 53.1367 47.5977 52.8984 47.7734C52.6641 47.9453 52.4902 48.252 52.377 48.6934L51.3457 48.5527C51.4395 48.1113 51.5938 47.7559 51.8086 47.4863C52.0234 47.2129 52.334 47.0039 52.7402 46.8594C53.1465 46.7109 53.6172 46.6367 54.1523 46.6367C54.6836 46.6367 55.1152 46.6992 55.4473 46.8242C55.7793 46.9492 56.0234 47.1074 56.1797 47.2988C56.3359 47.4863 56.4453 47.7246 56.5078 48.0137C56.543 48.1934 56.5605 48.5176 56.5605 48.9863V50.3926C56.5605 51.373 56.582 51.9941 56.625 52.2559C56.6719 52.5137 56.7617 52.7617 56.8945 53H55.793C55.6836 52.7812 55.6133 52.5254 55.582 52.2324ZM55.4941 49.877C55.1113 50.0332 54.5371 50.166 53.7715 50.2754C53.3379 50.3379 53.0312 50.4082 52.8516 50.4863C52.6719 50.5645 52.5332 50.6797 52.4355 50.832C52.3379 50.9805 52.2891 51.1465 52.2891 51.3301C52.2891 51.6113 52.3945 51.8457 52.6055 52.0332C52.8203 52.2207 53.1328 52.3145 53.543 52.3145C53.9492 52.3145 54.3105 52.2266 54.627 52.0508C54.9434 51.8711 55.1758 51.627 55.3242 51.3184C55.4375 51.0801 55.4941 50.7285 55.4941 50.2637V49.877ZM58.1895 53V46.7773H59.1387V47.7207C59.3809 47.2793 59.6035 46.9883 59.8066 46.8477C60.0137 46.707 60.2402 46.6367 60.4863 46.6367C60.8418 46.6367 61.2031 46.75 61.5703 46.9766L61.207 47.9551C60.9492 47.8027 60.6914 47.7266 60.4336 47.7266C60.2031 47.7266 59.9961 47.7969 59.8125 47.9375C59.6289 48.0742 59.498 48.2656 59.4199 48.5117C59.3027 48.8867 59.2441 49.2969 59.2441 49.7422V53H58.1895ZM66.2578 52.2324C65.8672 52.5645 65.4902 52.7988 65.127 52.9355C64.7676 53.0723 64.3809 53.1406 63.9668 53.1406C63.2832 53.1406 62.7578 52.9746 62.3906 52.6426C62.0234 52.3066 61.8398 51.8789 61.8398 51.3594C61.8398 51.0547 61.9082 50.7773 62.0449 50.5273C62.1855 50.2734 62.3672 50.0703 62.5898 49.918C62.8164 49.7656 63.0703 49.6504 63.3516 49.5723C63.5586 49.5176 63.8711 49.4648 64.2891 49.4141C65.1406 49.3125 65.7676 49.1914 66.1699 49.0508C66.1738 48.9062 66.1758 48.8145 66.1758 48.7754C66.1758 48.3457 66.0762 48.043 65.877 47.8672C65.6074 47.6289 65.207 47.5098 64.6758 47.5098C64.1797 47.5098 63.8125 47.5977 63.5742 47.7734C63.3398 47.9453 63.166 48.252 63.0527 48.6934L62.0215 48.5527C62.1152 48.1113 62.2695 47.7559 62.4844 47.4863C62.6992 47.2129 63.0098 47.0039 63.416 46.8594C63.8223 46.7109 64.293 46.6367 64.8281 46.6367C65.3594 46.6367 65.791 46.6992 66.123 46.8242C66.4551 46.9492 66.6992 47.1074 66.8555 47.2988C67.0117 47.4863 67.1211 47.7246 67.1836 48.0137C67.2188 48.1934 67.2363 48.5176 67.2363 48.9863V50.3926C67.2363 51.373 67.2578 51.9941 67.3008 52.2559C67.3477 52.5137 67.4375 52.7617 67.5703 53H66.4688C66.3594 52.7812 66.2891 52.5254 66.2578 52.2324ZM66.1699 49.877C65.7871 50.0332 65.2129 50.166 64.4473 50.2754C64.0137 50.3379 63.707 50.4082 63.5273 50.4863C63.3477 50.5645 63.209 50.6797 63.1113 50.832C63.0137 50.9805 62.9648 51.1465 62.9648 51.3301C62.9648 51.6113 63.0703 51.8457 63.2812 52.0332C63.4961 52.2207 63.8086 52.3145 64.2188 52.3145C64.625 52.3145 64.9863 52.2266 65.3027 52.0508C65.6191 51.8711 65.8516 51.627 66 51.3184C66.1133 51.0801 66.1699 50.7285 66.1699 50.2637V49.877ZM72.9375 50.7207L73.9746 50.8555C73.8613 51.5703 73.5703 52.1309 73.1016 52.5371C72.6367 52.9395 72.0645 53.1406 71.3848 53.1406C70.5332 53.1406 69.8477 52.8633 69.3281 52.3086C68.8125 51.75 68.5547 50.9512 68.5547 49.9121C68.5547 49.2402 68.666 48.6523 68.8887 48.1484C69.1113 47.6445 69.4492 47.2676 69.9023 47.0176C70.3594 46.7637 70.8555 46.6367 71.3906 46.6367C72.0664 46.6367 72.6191 46.8086 73.0488 47.1523C73.4785 47.4922 73.7539 47.9766 73.875 48.6055L72.8496 48.7637C72.752 48.3457 72.5781 48.0312 72.3281 47.8203C72.082 47.6094 71.7832 47.5039 71.4316 47.5039C70.9004 47.5039 70.4688 47.6953 70.1367 48.0781C69.8047 48.457 69.6387 49.0586 69.6387 49.8828C69.6387 50.7188 69.7988 51.3262 70.1191 51.7051C70.4395 52.084 70.8574 52.2734 71.373 52.2734C71.7871 52.2734 72.1328 52.1465 72.4102 51.8926C72.6875 51.6387 72.8633 51.248 72.9375 50.7207ZM77.1797 52.0566L77.332 52.9883C77.0352 53.0508 76.7695 53.082 76.5352 53.082C76.1523 53.082 75.8555 53.0215 75.6445 52.9004C75.4336 52.7793 75.2852 52.6211 75.1992 52.4258C75.1133 52.2266 75.0703 51.8105 75.0703 51.1777V47.5977H74.2969V46.7773H75.0703V45.2363L76.1191 44.6035V46.7773H77.1797V47.5977H76.1191V51.2363C76.1191 51.5371 76.1367 51.7305 76.1719 51.8164C76.2109 51.9023 76.2715 51.9707 76.3535 52.0215C76.4395 52.0723 76.5605 52.0977 76.7168 52.0977C76.834 52.0977 76.9883 52.084 77.1797 52.0566ZM82.4766 50.9961L83.5664 51.1309C83.3945 51.7676 83.0762 52.2617 82.6113 52.6133C82.1465 52.9648 81.5527 53.1406 80.8301 53.1406C79.9199 53.1406 79.1973 52.8613 78.6621 52.3027C78.1309 51.7402 77.8652 50.9531 77.8652 49.9414C77.8652 48.8945 78.1348 48.082 78.6738 47.5039C79.2129 46.9258 79.9121 46.6367 80.7715 46.6367C81.6035 46.6367 82.2832 46.9199 82.8105 47.4863C83.3379 48.0527 83.6016 48.8496 83.6016 49.877C83.6016 49.9395 83.5996 50.0332 83.5957 50.1582H78.9551C78.9941 50.8418 79.1875 51.3652 79.5352 51.7285C79.8828 52.0918 80.3164 52.2734 80.8359 52.2734C81.2227 52.2734 81.5527 52.1719 81.8262 51.9688C82.0996 51.7656 82.3164 51.4414 82.4766 50.9961ZM79.0137 49.291H82.4883C82.4414 48.7676 82.3086 48.375 82.0898 48.1133C81.7539 47.707 81.3184 47.5039 80.7832 47.5039C80.2988 47.5039 79.8906 47.666 79.5586 47.9902C79.2305 48.3145 79.0488 48.748 79.0137 49.291ZM84.8848 53V46.7773H85.834V47.7207C86.0762 47.2793 86.2988 46.9883 86.502 46.8477C86.709 46.707 86.9355 46.6367 87.1816 46.6367C87.5371 46.6367 87.8984 46.75 88.2656 46.9766L87.9023 47.9551C87.6445 47.8027 87.3867 47.7266 87.1289 47.7266C86.8984 47.7266 86.6914 47.7969 86.5078 47.9375C86.3242 48.0742 86.1934 48.2656 86.1152 48.5117C85.998 48.8867 85.9395 49.2969 85.9395 49.7422V53H84.8848ZM89.2617 53V46.7773H90.3164V53H89.2617ZM91.8105 51.1426L92.8535 50.9785C92.9121 51.3965 93.0742 51.7168 93.3398 51.9395C93.6094 52.1621 93.9844 52.2734 94.4648 52.2734C94.9492 52.2734 95.3086 52.1758 95.543 51.9805C95.7773 51.7812 95.8945 51.5488 95.8945 51.2832C95.8945 51.0449 95.791 50.8574 95.584 50.7207C95.4395 50.627 95.0801 50.5078 94.5059 50.3633C93.7324 50.168 93.1953 50 92.8945 49.8594C92.5977 49.7148 92.3711 49.5176 92.2148 49.2676C92.0625 49.0137 91.9863 48.7344 91.9863 48.4297C91.9863 48.1523 92.0488 47.8965 92.1738 47.6621C92.3027 47.4238 92.4766 47.2266 92.6953 47.0703C92.8594 46.9492 93.082 46.8477 93.3633 46.7656C93.6484 46.6797 93.9531 46.6367 94.2773 46.6367C94.7656 46.6367 95.1934 46.707 95.5605 46.8477C95.9316 46.9883 96.2051 47.1797 96.3809 47.4219C96.5566 47.6602 96.6777 47.9805 96.7441 48.3828L95.7129 48.5234C95.666 48.2031 95.5293 47.9531 95.3027 47.7734C95.0801 47.5938 94.7637 47.5039 94.3535 47.5039C93.8691 47.5039 93.5234 47.584 93.3164 47.7441C93.1094 47.9043 93.0059 48.0918 93.0059 48.3066C93.0059 48.4434 93.0488 48.5664 93.1348 48.6758C93.2207 48.7891 93.3555 48.8828 93.5391 48.957C93.6445 48.9961 93.9551 49.0859 94.4707 49.2266C95.2168 49.4258 95.7363 49.5898 96.0293 49.7188C96.3262 49.8438 96.5586 50.0273 96.7266 50.2695C96.8945 50.5117 96.9785 50.8125 96.9785 51.1719C96.9785 51.5234 96.875 51.8555 96.668 52.168C96.4648 52.4766 96.1699 52.7168 95.7832 52.8887C95.3965 53.0566 94.959 53.1406 94.4707 53.1406C93.6621 53.1406 93.0449 52.9727 92.6191 52.6367C92.1973 52.3008 91.9277 51.8027 91.8105 51.1426ZM100.535 52.0566L100.688 52.9883C100.391 53.0508 100.125 53.082 99.8906 53.082C99.5078 53.082 99.2109 53.0215 99 52.9004C98.7891 52.7793 98.6406 52.6211 98.5547 52.4258C98.4688 52.2266 98.4258 51.8105 98.4258 51.1777V47.5977H97.6523V46.7773H98.4258V45.2363L99.4746 44.6035V46.7773H100.535V47.5977H99.4746V51.2363C99.4746 51.5371 99.4922 51.7305 99.5273 51.8164C99.5664 51.9023 99.627 51.9707 99.709 52.0215C99.7949 52.0723 99.916 52.0977 100.072 52.0977C100.189 52.0977 100.344 52.084 100.535 52.0566ZM101.578 45.623V44.4102H102.633V45.623H101.578ZM101.578 53V46.7773H102.633V53H101.578ZM108.305 50.7207L109.342 50.8555C109.229 51.5703 108.938 52.1309 108.469 52.5371C108.004 52.9395 107.432 53.1406 106.752 53.1406C105.9 53.1406 105.215 52.8633 104.695 52.3086C104.18 51.75 103.922 50.9512 103.922 49.9121C103.922 49.2402 104.033 48.6523 104.256 48.1484C104.479 47.6445 104.816 47.2676 105.27 47.0176C105.727 46.7637 106.223 46.6367 106.758 46.6367C107.434 46.6367 107.986 46.8086 108.416 47.1523C108.846 47.4922 109.121 47.9766 109.242 48.6055L108.217 48.7637C108.119 48.3457 107.945 48.0312 107.695 47.8203C107.449 47.6094 107.15 47.5039 106.799 47.5039C106.268 47.5039 105.836 47.6953 105.504 48.0781C105.172 48.457 105.006 49.0586 105.006 49.8828C105.006 50.7188 105.166 51.3262 105.486 51.7051C105.807 52.084 106.225 52.2734 106.74 52.2734C107.154 52.2734 107.5 52.1465 107.777 51.8926C108.055 51.6387 108.23 51.248 108.305 50.7207ZM109.822 51.1426L110.865 50.9785C110.924 51.3965 111.086 51.7168 111.352 51.9395C111.621 52.1621 111.996 52.2734 112.477 52.2734C112.961 52.2734 113.32 52.1758 113.555 51.9805C113.789 51.7812 113.906 51.5488 113.906 51.2832C113.906 51.0449 113.803 50.8574 113.596 50.7207C113.451 50.627 113.092 50.5078 112.518 50.3633C111.744 50.168 111.207 50 110.906 49.8594C110.609 49.7148 110.383 49.5176 110.227 49.2676C110.074 49.0137 109.998 48.7344 109.998 48.4297C109.998 48.1523 110.061 47.8965 110.186 47.6621C110.314 47.4238 110.488 47.2266 110.707 47.0703C110.871 46.9492 111.094 46.8477 111.375 46.7656C111.66 46.6797 111.965 46.6367 112.289 46.6367C112.777 46.6367 113.205 46.707 113.572 46.8477C113.943 46.9883 114.217 47.1797 114.393 47.4219C114.568 47.6602 114.689 47.9805 114.756 48.3828L113.725 48.5234C113.678 48.2031 113.541 47.9531 113.314 47.7734C113.092 47.5938 112.775 47.5039 112.365 47.5039C111.881 47.5039 111.535 47.584 111.328 47.7441C111.121 47.9043 111.018 48.0918 111.018 48.3066C111.018 48.4434 111.061 48.5664 111.146 48.6758C111.232 48.7891 111.367 48.8828 111.551 48.957C111.656 48.9961 111.967 49.0859 112.482 49.2266C113.229 49.4258 113.748 49.5898 114.041 49.7188C114.338 49.8438 114.57 50.0273 114.738 50.2695C114.906 50.5117 114.99 50.8125 114.99 51.1719C114.99 51.5234 114.887 51.8555 114.68 52.168C114.477 52.4766 114.182 52.7168 113.795 52.8887C113.408 53.0566 112.971 53.1406 112.482 53.1406C111.674 53.1406 111.057 52.9727 110.631 52.6367C110.209 52.3008 109.939 51.8027 109.822 51.1426Z"/>
  </symbol>
  <symbol id="svg-copy-tr-5" viewBox="0 58 102 12">
    <path d="M0.796875 67V58.4102H1.85156V63.3086L4.34766 60.7773H5.71289L3.33398 63.0859L5.95312 67H4.65234L2.5957 63.8184L1.85156 64.5332V67H0.796875ZM10.8691 67V66.0859C10.3848 66.7891 9.72656 67.1406 8.89453 67.1406C8.52734 67.1406 8.18359 67.0703 7.86328 66.9297C7.54688 66.7891 7.31055 66.6133 7.1543 66.4023C7.00195 66.1875 6.89453 65.9258 6.83203 65.6172C6.78906 65.4102 6.76758 65.082 6.76758 64.6328V60.7773H7.82227V64.2285C7.82227 64.7793 7.84375 65.1504 7.88672 65.3418C7.95312 65.6191 8.09375 65.8379 8.30859 65.998C8.52344 66.1543 8.78906 66.2324 9.10547 66.2324C9.42188 66.2324 9.71875 66.1523 9.99609 65.9922C10.2734 65.8281 10.4688 65.6074 10.582 65.3301C10.6992 65.0488 10.7578 64.6426 10.7578 64.1113V60.7773H11.8125V67H10.8691ZM13.4473 67V58.4102H14.502V67H13.4473ZM16.1191 67V58.4102H17.1738V67H16.1191ZM22.875 66.2324C22.4844 66.5645 22.1074 66.7988 21.7441 66.9355C21.3848 67.0723 20.998 67.1406 20.584 67.1406C19.9004 67.1406 19.375 66.9746 19.0078 66.6426C18.6406 66.3066 18.457 65.8789 18.457 65.3594C18.457 65.0547 18.5254 64.7773 18.6621 64.5273C18.8027 64.2734 18.9844 64.0703 19.207 63.918C19.4336 63.7656 19.6875 63.6504 19.9688 63.5723C20.1758 63.5176 20.4883 63.4648 20.9062 63.4141C21.7578 63.3125 22.3848 63.1914 22.7871 63.0508C22.791 62.9062 22.793 62.8145 22.793 62.7754C22.793 62.3457 22.6934 62.043 22.4941 61.8672C22.2246 61.6289 21.8242 61.5098 21.293 61.5098C20.7969 61.5098 20.4297 61.5977 20.1914 61.7734C19.957 61.9453 19.7832 62.252 19.6699 62.6934L18.6387 62.5527C18.7324 62.1113 18.8867 61.7559 19.1016 61.4863C19.3164 61.2129 19.627 61.0039 20.0332 60.8594C20.4395 60.7109 20.9102 60.6367 21.4453 60.6367C21.9766 60.6367 22.4082 60.6992 22.7402 60.8242C23.0723 60.9492 23.3164 61.1074 23.4727 61.2988C23.6289 61.4863 23.7383 61.7246 23.8008 62.0137C23.8359 62.1934 23.8535 62.5176 23.8535 62.9863V64.3926C23.8535 65.373 23.875 65.9941 23.918 66.2559C23.9648 66.5137 24.0547 66.7617 24.1875 67H23.0859C22.9766 66.7812 22.9062 66.5254 22.875 66.2324ZM22.7871 63.877C22.4043 64.0332 21.8301 64.166 21.0645 64.2754C20.6309 64.3379 20.3242 64.4082 20.1445 64.4863C19.9648 64.5645 19.8262 64.6797 19.7285 64.832C19.6309 64.9805 19.582 65.1465 19.582 65.3301C19.582 65.6113 19.6875 65.8457 19.8984 66.0332C20.1133 66.2207 20.4258 66.3145 20.8359 66.3145C21.2422 66.3145 21.6035 66.2266 21.9199 66.0508C22.2363 65.8711 22.4688 65.627 22.6172 65.3184C22.7305 65.0801 22.7871 64.7285 22.7871 64.2637V63.877ZM25.4941 67V60.7773H26.4434V61.6621C26.9004 60.9785 27.5605 60.6367 28.4238 60.6367C28.7988 60.6367 29.1426 60.7051 29.4551 60.8418C29.7715 60.9746 30.0078 61.1504 30.1641 61.3691C30.3203 61.5879 30.4297 61.8477 30.4922 62.1484C30.5312 62.3438 30.5508 62.6855 30.5508 63.1738V67H29.4961V63.2148C29.4961 62.7852 29.4551 62.4648 29.373 62.2539C29.291 62.0391 29.1445 61.8691 28.9336 61.7441C28.7266 61.6152 28.4824 61.5508 28.2012 61.5508C27.752 61.5508 27.3633 61.6934 27.0352 61.9785C26.7109 62.2637 26.5488 62.8047 26.5488 63.6016V67H25.4941ZM32.1738 67V60.7773H33.1172V61.6504C33.3125 61.3457 33.5723 61.1016 33.8965 60.918C34.2207 60.7305 34.5898 60.6367 35.0039 60.6367C35.4648 60.6367 35.8418 60.7324 36.1348 60.9238C36.4316 61.1152 36.6406 61.3828 36.7617 61.7266C37.2539 61 37.8945 60.6367 38.6836 60.6367C39.3008 60.6367 39.7754 60.8086 40.1074 61.1523C40.4395 61.4922 40.6055 62.0176 40.6055 62.7285V67H39.5566V63.0801C39.5566 62.6582 39.5215 62.3555 39.4512 62.1719C39.3848 61.9844 39.2617 61.834 39.082 61.7207C38.9023 61.6074 38.6914 61.5508 38.4492 61.5508C38.0117 61.5508 37.6484 61.6973 37.3594 61.9902C37.0703 62.2793 36.9258 62.7441 36.9258 63.3848V67H35.8711V62.957C35.8711 62.4883 35.7852 62.1367 35.6133 61.9023C35.4414 61.668 35.1602 61.5508 34.7695 61.5508C34.4727 61.5508 34.1973 61.6289 33.9434 61.7852C33.6934 61.9414 33.5117 62.1699 33.3984 62.4707C33.2852 62.7715 33.2285 63.2051 33.2285 63.7715V67H32.1738ZM46.2305 66.2324C45.8398 66.5645 45.4629 66.7988 45.0996 66.9355C44.7402 67.0723 44.3535 67.1406 43.9395 67.1406C43.2559 67.1406 42.7305 66.9746 42.3633 66.6426C41.9961 66.3066 41.8125 65.8789 41.8125 65.3594C41.8125 65.0547 41.8809 64.7773 42.0176 64.5273C42.1582 64.2734 42.3398 64.0703 42.5625 63.918C42.7891 63.7656 43.043 63.6504 43.3242 63.5723C43.5312 63.5176 43.8438 63.4648 44.2617 63.4141C45.1133 63.3125 45.7402 63.1914 46.1426 63.0508C46.1465 62.9062 46.1484 62.8145 46.1484 62.7754C46.1484 62.3457 46.0488 62.043 45.8496 61.8672C45.5801 61.6289 45.1797 61.5098 44.6484 61.5098C44.1523 61.5098 43.7852 61.5977 43.5469 61.7734C43.3125 61.9453 43.1387 62.252 43.0254 62.6934L41.9941 62.5527C42.0879 62.1113 42.2422 61.7559 42.457 61.4863C42.6719 61.2129 42.9824 61.0039 43.3887 60.8594C43.7949 60.7109 44.2656 60.6367 44.8008 60.6367C45.332 60.6367 45.7637 60.6992 46.0957 60.8242C46.4277 60.9492 46.6719 61.1074 46.8281 61.2988C46.9844 61.4863 47.0938 61.7246 47.1562 62.0137C47.1914 62.1934 47.209 62.5176 47.209 62.9863V64.3926C47.209 65.373 47.2305 65.9941 47.2734 66.2559C47.3203 66.5137 47.4102 66.7617 47.543 67H46.4414C46.332 66.7812 46.2617 66.5254 46.2305 66.2324ZM46.1426 63.877C45.7598 64.0332 45.1855 64.166 44.4199 64.2754C43.9863 64.3379 43.6797 64.4082 43.5 64.4863C43.3203 64.5645 43.1816 64.6797 43.084 64.832C42.9863 64.9805 42.9375 65.1465 42.9375 65.3301C42.9375 65.6113 43.043 65.8457 43.2539 66.0332C43.4688 66.2207 43.7812 66.3145 44.1914 66.3145C44.5977 66.3145 44.959 66.2266 45.2754 66.0508C45.5918 65.8711 45.8242 65.627 45.9727 65.3184C46.0859 65.0801 46.1426 64.7285 46.1426 64.2637V63.877ZM48.8555 67V58.4102H49.9102V63.3086L52.4062 60.7773H53.7715L51.3926 63.0859L54.0117 67H52.7109L50.6543 63.8184L49.9102 64.5332V67H48.8555ZM58.1426 69.3965L58.0254 68.4062C58.2559 68.4688 58.457 68.5 58.6289 68.5C58.8633 68.5 59.0508 68.4609 59.1914 68.3828C59.332 68.3047 59.4473 68.1953 59.5371 68.0547C59.6035 67.9492 59.7109 67.6875 59.8594 67.2695C59.8789 67.2109 59.9102 67.125 59.9531 67.0117L57.5918 60.7773H58.7285L60.0234 64.3809C60.1914 64.8379 60.3418 65.3184 60.4746 65.8223C60.5957 65.3379 60.7402 64.8652 60.9082 64.4043L62.2383 60.7773H63.293L60.9258 67.1055C60.6719 67.7891 60.4746 68.2598 60.334 68.5176C60.1465 68.8652 59.9316 69.1191 59.6895 69.2793C59.4473 69.4434 59.1582 69.5254 58.8223 69.5254C58.6191 69.5254 58.3926 69.4824 58.1426 69.3965ZM68.25 66.2324C67.8594 66.5645 67.4824 66.7988 67.1191 66.9355C66.7598 67.0723 66.373 67.1406 65.959 67.1406C65.2754 67.1406 64.75 66.9746 64.3828 66.6426C64.0156 66.3066 63.832 65.8789 63.832 65.3594C63.832 65.0547 63.9004 64.7773 64.0371 64.5273C64.1777 64.2734 64.3594 64.0703 64.582 63.918C64.8086 63.7656 65.0625 63.6504 65.3438 63.5723C65.5508 63.5176 65.8633 63.4648 66.2812 63.4141C67.1328 63.3125 67.7598 63.1914 68.1621 63.0508C68.166 62.9062 68.168 62.8145 68.168 62.7754C68.168 62.3457 68.0684 62.043 67.8691 61.8672C67.5996 61.6289 67.1992 61.5098 66.668 61.5098C66.1719 61.5098 65.8047 61.5977 65.5664 61.7734C65.332 61.9453 65.1582 62.252 65.0449 62.6934L64.0137 62.5527C64.1074 62.1113 64.2617 61.7559 64.4766 61.4863C64.6914 61.2129 65.002 61.0039 65.4082 60.8594C65.8145 60.7109 66.2852 60.6367 66.8203 60.6367C67.3516 60.6367 67.7832 60.6992 68.1152 60.8242C68.4473 60.9492 68.6914 61.1074 68.8477 61.2988C69.0039 61.4863 69.1133 61.7246 69.1758 62.0137C69.2109 62.1934 69.2285 62.5176 69.2285 62.9863V64.3926C69.2285 65.373 69.25 65.9941 69.293 66.2559C69.3398 66.5137 69.4297 66.7617 69.5625 67H68.4609C68.3516 66.7812 68.2812 66.5254 68.25 66.2324ZM68.1621 63.877C67.7793 64.0332 67.2051 64.166 66.4395 64.2754C66.0059 64.3379 65.6992 64.4082 65.5195 64.4863C65.3398 64.5645 65.2012 64.6797 65.1035 64.832C65.0059 64.9805 64.957 65.1465 64.957 65.3301C64.957 65.6113 65.0625 65.8457 65.2734 66.0332C65.4883 66.2207 65.8008 66.3145 66.2109 66.3145C66.6172 66.3145 66.9785 66.2266 67.2949 66.0508C67.6113 65.8711 67.8438 65.627 67.9922 65.3184C68.1055 65.0801 68.1621 64.7285 68.1621 64.2637V63.877ZM70.8457 67V58.4102H71.9004V67H70.8457ZM73.541 67V60.7773H74.4902V61.6621C74.9473 60.9785 75.6074 60.6367 76.4707 60.6367C76.8457 60.6367 77.1895 60.7051 77.502 60.8418C77.8184 60.9746 78.0547 61.1504 78.2109 61.3691C78.3672 61.5879 78.4766 61.8477 78.5391 62.1484C78.5781 62.3438 78.5977 62.6855 78.5977 63.1738V67H77.543V63.2148C77.543 62.7852 77.502 62.4648 77.4199 62.2539C77.3379 62.0391 77.1914 61.8691 76.9805 61.7441C76.7734 61.6152 76.5293 61.5508 76.248 61.5508C75.7988 61.5508 75.4102 61.6934 75.082 61.9785C74.7578 62.2637 74.5957 62.8047 74.5957 63.6016V67H73.541ZM80.5898 67V60.7773H81.6445V67H80.5898ZM83.0039 67V66.1445L86.9648 61.5977C86.5156 61.6211 86.1191 61.6328 85.7754 61.6328H83.2383V60.7773H88.3242V61.4746L84.9551 65.4238L84.3047 66.1445C84.7773 66.1094 85.2207 66.0918 85.6348 66.0918H88.5117V67H83.0039ZM93.6211 64.7207L94.6582 64.8555C94.5449 65.5703 94.2539 66.1309 93.7852 66.5371C93.3203 66.9395 92.748 67.1406 92.0684 67.1406C91.2168 67.1406 90.5312 66.8633 90.0117 66.3086C89.4961 65.75 89.2383 64.9512 89.2383 63.9121C89.2383 63.2402 89.3496 62.6523 89.5723 62.1484C89.7949 61.6445 90.1328 61.2676 90.5859 61.0176C91.043 60.7637 91.5391 60.6367 92.0742 60.6367C92.75 60.6367 93.3027 60.8086 93.7324 61.1523C94.1621 61.4922 94.4375 61.9766 94.5586 62.6055L93.5332 62.7637C93.4355 62.3457 93.2617 62.0312 93.0117 61.8203C92.7656 61.6094 92.4668 61.5039 92.1152 61.5039C91.584 61.5039 91.1523 61.6953 90.8203 62.0781C90.4883 62.457 90.3223 63.0586 90.3223 63.8828C90.3223 64.7188 90.4824 65.3262 90.8027 65.7051C91.123 66.084 91.541 66.2734 92.0566 66.2734C92.4707 66.2734 92.8164 66.1465 93.0938 65.8926C93.3711 65.6387 93.5469 65.248 93.6211 64.7207ZM99.6211 66.2324C99.2305 66.5645 98.8535 66.7988 98.4902 66.9355C98.1309 67.0723 97.7441 67.1406 97.3301 67.1406C96.6465 67.1406 96.1211 66.9746 95.7539 66.6426C95.3867 66.3066 95.2031 65.8789 95.2031 65.3594C95.2031 65.0547 95.2715 64.7773 95.4082 64.5273C95.5488 64.2734 95.7305 64.0703 95.9531 63.918C96.1797 63.7656 96.4336 63.6504 96.7148 63.5723C96.9219 63.5176 97.2344 63.4648 97.6523 63.4141C98.5039 63.3125 99.1309 63.1914 99.5332 63.0508C99.5371 62.9062 99.5391 62.8145 99.5391 62.7754C99.5391 62.3457 99.4395 62.043 99.2402 61.8672C98.9707 61.6289 98.5703 61.5098 98.0391 61.5098C97.543 61.5098 97.1758 61.5977 96.9375 61.7734C96.7031 61.9453 96.5293 62.252 96.416 62.6934L95.3848 62.5527C95.4785 62.1113 95.6328 61.7559 95.8477 61.4863C96.0625 61.2129 96.373 61.0039 96.7793 60.8594C97.1855 60.7109 97.6562 60.6367 98.1914 60.6367C98.7227 60.6367 99.1543 60.6992 99.4863 60.8242C99.8184 60.9492 100.062 61.1074 100.219 61.2988C100.375 61.4863 100.484 61.7246 100.547 62.0137C100.582 62.1934 100.6 62.5176 100.6 62.9863V64.3926C100.6 65.373 100.621 65.9941 100.664 66.2559C100.711 66.5137 100.801 66.7617 100.934 67H99.832C99.7227 66.7812 99.6523 66.5254 99.6211 66.2324ZM99.5332 63.877C99.1504 64.0332 98.5762 64.166 97.8105 64.2754C97.377 64.3379 97.0703 64.4082 96.8906 64.4863C96.7109 64.5645 96.5723 64.6797 96.4746 64.832C96.377 64.9805 96.3281 65.1465 96.3281 65.3301C96.3281 65.6113 96.4336 65.8457 96.6445 66.0332C96.8594 66.2207 97.1719 66.3145 97.582 66.3145C97.9883 66.3145 98.3496 66.2266 98.666 66.0508C98.9824 65.8711 99.2148 65.627 99.3633 65.3184C99.4766 65.0801 99.5332 64.7285 99.5332 64.2637V63.877Z"/>
  </symbol>
  <symbol id="svg-copy-tr-6" viewBox="0 72 134 12">
    <path d="M0.345703 78.5625L1.37109 78.4219C1.39844 79.0781 1.52148 79.5273 1.74023 79.7695C1.95898 80.0117 2.26172 80.1328 2.64844 80.1328C2.93359 80.1328 3.17969 80.0684 3.38672 79.9395C3.59375 79.8066 3.73633 79.6289 3.81445 79.4062C3.89258 79.1797 3.93164 78.8203 3.93164 78.3281V72.4102H5.06836V78.2637C5.06836 78.9824 4.98047 79.5391 4.80469 79.9336C4.63281 80.3281 4.35742 80.6289 3.97852 80.8359C3.60352 81.043 3.16211 81.1465 2.6543 81.1465C1.90039 81.1465 1.32227 80.9297 0.919922 80.4961C0.521484 80.0625 0.330078 79.418 0.345703 78.5625ZM10.8691 81V80.0859C10.3848 80.7891 9.72656 81.1406 8.89453 81.1406C8.52734 81.1406 8.18359 81.0703 7.86328 80.9297C7.54688 80.7891 7.31055 80.6133 7.1543 80.4023C7.00195 80.1875 6.89453 79.9258 6.83203 79.6172C6.78906 79.4102 6.76758 79.082 6.76758 78.6328V74.7773H7.82227V78.2285C7.82227 78.7793 7.84375 79.1504 7.88672 79.3418C7.95312 79.6191 8.09375 79.8379 8.30859 79.998C8.52344 80.1543 8.78906 80.2324 9.10547 80.2324C9.42188 80.2324 9.71875 80.1523 9.99609 79.9922C10.2734 79.8281 10.4688 79.6074 10.582 79.3301C10.6992 79.0488 10.7578 78.6426 10.7578 78.1113V74.7773H11.8125V81H10.8691ZM13.0488 79.1426L14.0918 78.9785C14.1504 79.3965 14.3125 79.7168 14.5781 79.9395C14.8477 80.1621 15.2227 80.2734 15.7031 80.2734C16.1875 80.2734 16.5469 80.1758 16.7812 79.9805C17.0156 79.7812 17.1328 79.5488 17.1328 79.2832C17.1328 79.0449 17.0293 78.8574 16.8223 78.7207C16.6777 78.627 16.3184 78.5078 15.7441 78.3633C14.9707 78.168 14.4336 78 14.1328 77.8594C13.8359 77.7148 13.6094 77.5176 13.4531 77.2676C13.3008 77.0137 13.2246 76.7344 13.2246 76.4297C13.2246 76.1523 13.2871 75.8965 13.4121 75.6621C13.541 75.4238 13.7148 75.2266 13.9336 75.0703C14.0977 74.9492 14.3203 74.8477 14.6016 74.7656C14.8867 74.6797 15.1914 74.6367 15.5156 74.6367C16.0039 74.6367 16.4316 74.707 16.7988 74.8477C17.1699 74.9883 17.4434 75.1797 17.6191 75.4219C17.7949 75.6602 17.916 75.9805 17.9824 76.3828L16.9512 76.5234C16.9043 76.2031 16.7676 75.9531 16.541 75.7734C16.3184 75.5938 16.002 75.5039 15.5918 75.5039C15.1074 75.5039 14.7617 75.584 14.5547 75.7441C14.3477 75.9043 14.2441 76.0918 14.2441 76.3066C14.2441 76.4434 14.2871 76.5664 14.373 76.6758C14.459 76.7891 14.5938 76.8828 14.7773 76.957C14.8828 76.9961 15.1934 77.0859 15.709 77.2266C16.4551 77.4258 16.9746 77.5898 17.2676 77.7188C17.5645 77.8438 17.7969 78.0273 17.9648 78.2695C18.1328 78.5117 18.2168 78.8125 18.2168 79.1719C18.2168 79.5234 18.1133 79.8555 17.9062 80.168C17.7031 80.4766 17.4082 80.7168 17.0215 80.8887C16.6348 81.0566 16.1973 81.1406 15.709 81.1406C14.9004 81.1406 14.2832 80.9727 13.8574 80.6367C13.4355 80.3008 13.166 79.8027 13.0488 79.1426ZM21.7734 80.0566L21.9258 80.9883C21.6289 81.0508 21.3633 81.082 21.1289 81.082C20.7461 81.082 20.4492 81.0215 20.2383 80.9004C20.0273 80.7793 19.8789 80.6211 19.793 80.4258C19.707 80.2266 19.6641 79.8105 19.6641 79.1777V75.5977H18.8906V74.7773H19.6641V73.2363L20.7129 72.6035V74.7773H21.7734V75.5977H20.7129V79.2363C20.7129 79.5371 20.7305 79.7305 20.7656 79.8164C20.8047 79.9023 20.8652 79.9707 20.9473 80.0215C21.0332 80.0723 21.1543 80.0977 21.3105 80.0977C21.4277 80.0977 21.582 80.084 21.7734 80.0566ZM23.0625 81V75.5977H22.1309V74.7773H23.0625V74.1152C23.0625 73.6973 23.0996 73.3867 23.1738 73.1836C23.2754 72.9102 23.4531 72.6895 23.707 72.5215C23.9648 72.3496 24.3242 72.2637 24.7852 72.2637C25.082 72.2637 25.4102 72.2988 25.7695 72.3691L25.6113 73.2891C25.3926 73.25 25.1855 73.2305 24.9902 73.2305C24.6699 73.2305 24.4434 73.2988 24.3105 73.4355C24.1777 73.5723 24.1113 73.8281 24.1113 74.2031V74.7773H25.3242V75.5977H24.1113V81H23.0625ZM25.7578 77.8887C25.7578 76.7363 26.0781 75.8828 26.7188 75.3281C27.2539 74.8672 27.9062 74.6367 28.6758 74.6367C29.5312 74.6367 30.2305 74.918 30.7734 75.4805C31.3164 76.0391 31.5879 76.8125 31.5879 77.8008C31.5879 78.6016 31.4668 79.2324 31.2246 79.6934C30.9863 80.1504 30.6367 80.5059 30.1758 80.7598C29.7188 81.0137 29.2188 81.1406 28.6758 81.1406C27.8047 81.1406 27.0996 80.8613 26.5605 80.3027C26.0254 79.7441 25.7578 78.9395 25.7578 77.8887ZM26.8418 77.8887C26.8418 78.6855 27.0156 79.2832 27.3633 79.6816C27.7109 80.0762 28.1484 80.2734 28.6758 80.2734C29.1992 80.2734 29.6348 80.0742 29.9824 79.6758C30.3301 79.2773 30.5039 78.6699 30.5039 77.8535C30.5039 77.084 30.3281 76.502 29.9766 76.1074C29.6289 75.709 29.1953 75.5098 28.6758 75.5098C28.1484 75.5098 27.7109 75.707 27.3633 76.1016C27.0156 76.4961 26.8418 77.0918 26.8418 77.8887ZM32.8184 81V74.7773H33.7676V75.7207C34.0098 75.2793 34.2324 74.9883 34.4355 74.8477C34.6426 74.707 34.8691 74.6367 35.1152 74.6367C35.4707 74.6367 35.832 74.75 36.1992 74.9766L35.8359 75.9551C35.5781 75.8027 35.3203 75.7266 35.0625 75.7266C34.832 75.7266 34.625 75.7969 34.4414 75.9375C34.2578 76.0742 34.127 76.2656 34.0488 76.5117C33.9316 76.8867 33.873 77.2969 33.873 77.7422V81H32.8184ZM41.0859 78.9961L42.1758 79.1309C42.0039 79.7676 41.6855 80.2617 41.2207 80.6133C40.7559 80.9648 40.1621 81.1406 39.4395 81.1406C38.5293 81.1406 37.8066 80.8613 37.2715 80.3027C36.7402 79.7402 36.4746 78.9531 36.4746 77.9414C36.4746 76.8945 36.7441 76.082 37.2832 75.5039C37.8223 74.9258 38.5215 74.6367 39.3809 74.6367C40.2129 74.6367 40.8926 74.9199 41.4199 75.4863C41.9473 76.0527 42.2109 76.8496 42.2109 77.877C42.2109 77.9395 42.209 78.0332 42.2051 78.1582H37.5645C37.6035 78.8418 37.7969 79.3652 38.1445 79.7285C38.4922 80.0918 38.9258 80.2734 39.4453 80.2734C39.832 80.2734 40.1621 80.1719 40.4355 79.9688C40.709 79.7656 40.9258 79.4414 41.0859 78.9961ZM37.623 77.291H41.0977C41.0508 76.7676 40.918 76.375 40.6992 76.1133C40.3633 75.707 39.9277 75.5039 39.3926 75.5039C38.9082 75.5039 38.5 75.666 38.168 75.9902C37.8398 76.3145 37.6582 76.748 37.623 77.291ZM42.8027 81L45.0762 77.7656L42.9727 74.7773H44.291L45.2461 76.2363C45.4258 76.5137 45.5703 76.7461 45.6797 76.9336C45.8516 76.6758 46.0098 76.4473 46.1543 76.248L47.2031 74.7773H48.4629L46.3125 77.707L48.627 81H47.332L46.0547 79.0664L45.7148 78.5449L44.0801 81H42.8027ZM49.5117 75.4512L49.2422 73.8457V72.4102H50.4434V73.8457L50.1621 75.4512H49.5117ZM51.8086 73.623V72.4102H52.8633V73.623H51.8086ZM51.8086 81V74.7773H52.8633V81H51.8086ZM54.4746 81V74.7773H55.4238V75.6621C55.8809 74.9785 56.541 74.6367 57.4043 74.6367C57.7793 74.6367 58.123 74.7051 58.4355 74.8418C58.752 74.9746 58.9883 75.1504 59.1445 75.3691C59.3008 75.5879 59.4102 75.8477 59.4727 76.1484C59.5117 76.3438 59.5312 76.6855 59.5312 77.1738V81H58.4766V77.2148C58.4766 76.7852 58.4355 76.4648 58.3535 76.2539C58.2715 76.0391 58.125 75.8691 57.9141 75.7441C57.707 75.6152 57.4629 75.5508 57.1816 75.5508C56.7324 75.5508 56.3438 75.6934 56.0156 75.9785C55.6914 76.2637 55.5293 76.8047 55.5293 77.6016V81H54.4746ZM64.4473 83.3965L64.3301 82.4062C64.5605 82.4688 64.7617 82.5 64.9336 82.5C65.168 82.5 65.3555 82.4609 65.4961 82.3828C65.6367 82.3047 65.752 82.1953 65.8418 82.0547C65.9082 81.9492 66.0156 81.6875 66.1641 81.2695C66.1836 81.2109 66.2148 81.125 66.2578 81.0117L63.8965 74.7773H65.0332L66.3281 78.3809C66.4961 78.8379 66.6465 79.3184 66.7793 79.8223C66.9004 79.3379 67.0449 78.8652 67.2129 78.4043L68.543 74.7773H69.5977L67.2305 81.1055C66.9766 81.7891 66.7793 82.2598 66.6387 82.5176C66.4512 82.8652 66.2363 83.1191 65.9941 83.2793C65.752 83.4434 65.4629 83.5254 65.127 83.5254C64.9238 83.5254 64.6973 83.4824 64.4473 83.3965ZM74.5547 80.2324C74.1641 80.5645 73.7871 80.7988 73.4238 80.9355C73.0645 81.0723 72.6777 81.1406 72.2637 81.1406C71.5801 81.1406 71.0547 80.9746 70.6875 80.6426C70.3203 80.3066 70.1367 79.8789 70.1367 79.3594C70.1367 79.0547 70.2051 78.7773 70.3418 78.5273C70.4824 78.2734 70.6641 78.0703 70.8867 77.918C71.1133 77.7656 71.3672 77.6504 71.6484 77.5723C71.8555 77.5176 72.168 77.4648 72.5859 77.4141C73.4375 77.3125 74.0645 77.1914 74.4668 77.0508C74.4707 76.9062 74.4727 76.8145 74.4727 76.7754C74.4727 76.3457 74.373 76.043 74.1738 75.8672C73.9043 75.6289 73.5039 75.5098 72.9727 75.5098C72.4766 75.5098 72.1094 75.5977 71.8711 75.7734C71.6367 75.9453 71.4629 76.252 71.3496 76.6934L70.3184 76.5527C70.4121 76.1113 70.5664 75.7559 70.7812 75.4863C70.9961 75.2129 71.3066 75.0039 71.7129 74.8594C72.1191 74.7109 72.5898 74.6367 73.125 74.6367C73.6562 74.6367 74.0879 74.6992 74.4199 74.8242C74.752 74.9492 74.9961 75.1074 75.1523 75.2988C75.3086 75.4863 75.418 75.7246 75.4805 76.0137C75.5156 76.1934 75.5332 76.5176 75.5332 76.9863V78.3926C75.5332 79.373 75.5547 79.9941 75.5977 80.2559C75.6445 80.5137 75.7344 80.7617 75.8672 81H74.7656C74.6562 80.7812 74.5859 80.5254 74.5547 80.2324ZM74.4668 77.877C74.084 78.0332 73.5098 78.166 72.7441 78.2754C72.3105 78.3379 72.0039 78.4082 71.8242 78.4863C71.6445 78.5645 71.5059 78.6797 71.4082 78.832C71.3105 78.9805 71.2617 79.1465 71.2617 79.3301C71.2617 79.6113 71.3672 79.8457 71.5781 80.0332C71.793 80.2207 72.1055 80.3145 72.5156 80.3145C72.9219 80.3145 73.2832 80.2266 73.5996 80.0508C73.916 79.8711 74.1484 79.627 74.2969 79.3184C74.4102 79.0801 74.4668 78.7285 74.4668 78.2637V77.877ZM76.6172 81V80.1445L80.5781 75.5977C80.1289 75.6211 79.7324 75.6328 79.3887 75.6328H76.8516V74.7773H81.9375V75.4746L78.5684 79.4238L77.918 80.1445C78.3906 80.1094 78.834 80.0918 79.248 80.0918H82.125V81H76.6172ZM83.543 81V74.7773H84.5977V81H83.543ZM86.4902 81V72.4102H87.5449V81H86.4902ZM89.5547 81V74.7773H90.6094V81H89.5547ZM97.5938 81L95.2266 74.7773H96.3398L97.6758 78.5039C97.8203 78.9062 97.9531 79.3242 98.0742 79.7578C98.168 79.4297 98.2988 79.0352 98.4668 78.5742L99.8496 74.7773H100.934L98.5781 81H97.5938ZM106.125 78.9961L107.215 79.1309C107.043 79.7676 106.725 80.2617 106.26 80.6133C105.795 80.9648 105.201 81.1406 104.479 81.1406C103.568 81.1406 102.846 80.8613 102.311 80.3027C101.779 79.7402 101.514 78.9531 101.514 77.9414C101.514 76.8945 101.783 76.082 102.322 75.5039C102.861 74.9258 103.561 74.6367 104.42 74.6367C105.252 74.6367 105.932 74.9199 106.459 75.4863C106.986 76.0527 107.25 76.8496 107.25 77.877C107.25 77.9395 107.248 78.0332 107.244 78.1582H102.604C102.643 78.8418 102.836 79.3652 103.184 79.7285C103.531 80.0918 103.965 80.2734 104.484 80.2734C104.871 80.2734 105.201 80.1719 105.475 79.9688C105.748 79.7656 105.965 79.4414 106.125 78.9961ZM102.662 77.291H106.137C106.09 76.7676 105.957 76.375 105.738 76.1133C105.402 75.707 104.967 75.5039 104.432 75.5039C103.947 75.5039 103.539 75.666 103.207 75.9902C102.879 76.3145 102.697 76.748 102.662 77.291ZM115.945 80.2324C115.555 80.5645 115.178 80.7988 114.814 80.9355C114.455 81.0723 114.068 81.1406 113.654 81.1406C112.971 81.1406 112.445 80.9746 112.078 80.6426C111.711 80.3066 111.527 79.8789 111.527 79.3594C111.527 79.0547 111.596 78.7773 111.732 78.5273C111.873 78.2734 112.055 78.0703 112.277 77.918C112.504 77.7656 112.758 77.6504 113.039 77.5723C113.246 77.5176 113.559 77.4648 113.977 77.4141C114.828 77.3125 115.455 77.1914 115.857 77.0508C115.861 76.9062 115.863 76.8145 115.863 76.7754C115.863 76.3457 115.764 76.043 115.564 75.8672C115.295 75.6289 114.895 75.5098 114.363 75.5098C113.867 75.5098 113.5 75.5977 113.262 75.7734C113.027 75.9453 112.854 76.252 112.74 76.6934L111.709 76.5527C111.803 76.1113 111.957 75.7559 112.172 75.4863C112.387 75.2129 112.697 75.0039 113.104 74.8594C113.51 74.7109 113.98 74.6367 114.516 74.6367C115.047 74.6367 115.479 74.6992 115.811 74.8242C116.143 74.9492 116.387 75.1074 116.543 75.2988C116.699 75.4863 116.809 75.7246 116.871 76.0137C116.906 76.1934 116.924 76.5176 116.924 76.9863V78.3926C116.924 79.373 116.945 79.9941 116.988 80.2559C117.035 80.5137 117.125 80.7617 117.258 81H116.156C116.047 80.7812 115.977 80.5254 115.945 80.2324ZM115.857 77.877C115.475 78.0332 114.9 78.166 114.135 78.2754C113.701 78.3379 113.395 78.4082 113.215 78.4863C113.035 78.5645 112.896 78.6797 112.799 78.832C112.701 78.9805 112.652 79.1465 112.652 79.3301C112.652 79.6113 112.758 79.8457 112.969 80.0332C113.184 80.2207 113.496 80.3145 113.906 80.3145C114.312 80.3145 114.674 80.2266 114.99 80.0508C115.307 79.8711 115.539 79.627 115.688 79.3184C115.801 79.0801 115.857 78.7285 115.857 78.2637V77.877ZM122.625 78.7207L123.662 78.8555C123.549 79.5703 123.258 80.1309 122.789 80.5371C122.324 80.9395 121.752 81.1406 121.072 81.1406C120.221 81.1406 119.535 80.8633 119.016 80.3086C118.5 79.75 118.242 78.9512 118.242 77.9121C118.242 77.2402 118.354 76.6523 118.576 76.1484C118.799 75.6445 119.137 75.2676 119.59 75.0176C120.047 74.7637 120.543 74.6367 121.078 74.6367C121.754 74.6367 122.307 74.8086 122.736 75.1523C123.166 75.4922 123.441 75.9766 123.562 76.6055L122.537 76.7637C122.439 76.3457 122.266 76.0312 122.016 75.8203C121.77 75.6094 121.471 75.5039 121.119 75.5039C120.588 75.5039 120.156 75.6953 119.824 76.0781C119.492 76.457 119.326 77.0586 119.326 77.8828C119.326 78.7188 119.486 79.3262 119.807 79.7051C120.127 80.084 120.545 80.2734 121.061 80.2734C121.475 80.2734 121.82 80.1465 122.098 79.8926C122.375 79.6387 122.551 79.248 122.625 78.7207ZM120.182 81.7852L120.486 80.748H121.271L121.078 81.375C121.41 81.4141 121.66 81.5156 121.828 81.6797C121.996 81.8477 122.08 82.0332 122.08 82.2363C122.08 82.5293 121.939 82.7871 121.658 83.0098C121.377 83.2363 120.953 83.3496 120.387 83.3496C120.066 83.3496 119.785 83.3262 119.543 83.2793L119.607 82.5938C119.857 82.6094 120.041 82.6172 120.158 82.6172C120.525 82.6172 120.783 82.5664 120.932 82.4648C121.045 82.3867 121.102 82.291 121.102 82.1777C121.102 82.1074 121.078 82.0449 121.031 81.9902C120.988 81.9355 120.906 81.8887 120.785 81.8496C120.664 81.8105 120.463 81.7891 120.182 81.7852ZM124.934 81V74.7773H125.988V81H124.934ZM127.91 81V72.4102H128.965V77.3086L131.461 74.7773H132.826L130.447 77.0859L133.066 81H131.766L129.709 77.8184L128.965 78.5332V81H127.91Z"/>
  </symbol>
  <symbol id="svg-copy-tr-7" viewBox="0 86 131 12">
    <path d="M0.796875 87.623V86.4102H1.85156V87.623H0.796875ZM0.796875 95V88.7773H1.85156V95H0.796875ZM2.90625 95V94.1445L6.86719 89.5977C6.41797 89.6211 6.02148 89.6328 5.67773 89.6328H3.14062V88.7773H8.22656V89.4746L4.85742 93.4238L4.20703 94.1445C4.67969 94.1094 5.12305 94.0918 5.53711 94.0918H8.41406V95H2.90625ZM9.46289 95V88.7773H10.4121V89.6621C10.8691 88.9785 11.5293 88.6367 12.3926 88.6367C12.7676 88.6367 13.1113 88.7051 13.4238 88.8418C13.7402 88.9746 13.9766 89.1504 14.1328 89.3691C14.2891 89.5879 14.3984 89.8477 14.4609 90.1484C14.5 90.3438 14.5195 90.6855 14.5195 91.1738V95H13.4648V91.2148C13.4648 90.7852 13.4238 90.4648 13.3418 90.2539C13.2598 90.0391 13.1133 89.8691 12.9023 89.7441C12.6953 89.6152 12.4512 89.5508 12.1699 89.5508C11.7207 89.5508 11.332 89.6934 11.0039 89.9785C10.6797 90.2637 10.5176 90.8047 10.5176 91.6016V95H9.46289ZM16.1484 87.623V86.4102H17.2031V87.623H16.1484ZM16.1484 95V88.7773H17.2031V95H16.1484ZM22.1602 87.623V86.4102H23.2148V87.623H22.1602ZM22.1602 95V88.7773H23.2148V95H22.1602ZM24.8027 95V86.4102H25.8574V95H24.8027ZM31.7578 92.9961L32.8477 93.1309C32.6758 93.7676 32.3574 94.2617 31.8926 94.6133C31.4277 94.9648 30.834 95.1406 30.1113 95.1406C29.2012 95.1406 28.4785 94.8613 27.9434 94.3027C27.4121 93.7402 27.1465 92.9531 27.1465 91.9414C27.1465 90.8945 27.416 90.082 27.9551 89.5039C28.4941 88.9258 29.1934 88.6367 30.0527 88.6367C30.8848 88.6367 31.5645 88.9199 32.0918 89.4863C32.6191 90.0527 32.8828 90.8496 32.8828 91.877C32.8828 91.9395 32.8809 92.0332 32.877 92.1582H28.2363C28.2754 92.8418 28.4688 93.3652 28.8164 93.7285C29.1641 94.0918 29.5977 94.2734 30.1172 94.2734C30.5039 94.2734 30.834 94.1719 31.1074 93.9688C31.3809 93.7656 31.5977 93.4414 31.7578 92.9961ZM28.2949 91.291H31.7695C31.7227 90.7676 31.5898 90.375 31.3711 90.1133C31.0352 89.707 30.5996 89.5039 30.0645 89.5039C29.5801 89.5039 29.1719 89.666 28.8398 89.9902C28.5117 90.3145 28.3301 90.748 28.2949 91.291ZM37.3242 95.5156L38.3496 95.668C38.3926 95.9844 38.5117 96.2148 38.707 96.3594C38.9688 96.5547 39.3262 96.6523 39.7793 96.6523C40.2676 96.6523 40.6445 96.5547 40.9102 96.3594C41.1758 96.1641 41.3555 95.8906 41.4492 95.5391C41.5039 95.3242 41.5293 94.873 41.5254 94.1855C41.0645 94.7285 40.4902 95 39.8027 95C38.9473 95 38.2852 94.6914 37.8164 94.0742C37.3477 93.457 37.1133 92.7168 37.1133 91.8535C37.1133 91.2598 37.2207 90.7129 37.4355 90.2129C37.6504 89.709 37.9609 89.3203 38.3672 89.0469C38.7773 88.7734 39.2578 88.6367 39.8086 88.6367C40.543 88.6367 41.1484 88.9336 41.625 89.5273V88.7773H42.5977V94.1562C42.5977 95.125 42.498 95.8105 42.2988 96.2129C42.1035 96.6191 41.791 96.9395 41.3613 97.1738C40.9355 97.4082 40.4102 97.5254 39.7852 97.5254C39.043 97.5254 38.4434 97.3574 37.9863 97.0215C37.5293 96.6895 37.3086 96.1875 37.3242 95.5156ZM38.1973 91.7773C38.1973 92.5938 38.3594 93.1895 38.6836 93.5645C39.0078 93.9395 39.4141 94.127 39.9023 94.127C40.3867 94.127 40.793 93.9414 41.1211 93.5703C41.4492 93.1953 41.6133 92.6094 41.6133 91.8125C41.6133 91.0508 41.4434 90.4766 41.1035 90.0898C40.7676 89.7031 40.3613 89.5098 39.8848 89.5098C39.416 89.5098 39.0176 89.7012 38.6895 90.084C38.3613 90.4629 38.1973 91.0273 38.1973 91.7773ZM48.457 92.9961L49.5469 93.1309C49.375 93.7676 49.0566 94.2617 48.5918 94.6133C48.127 94.9648 47.5332 95.1406 46.8105 95.1406C45.9004 95.1406 45.1777 94.8613 44.6426 94.3027C44.1113 93.7402 43.8457 92.9531 43.8457 91.9414C43.8457 90.8945 44.1152 90.082 44.6543 89.5039C45.1934 88.9258 45.8926 88.6367 46.752 88.6367C47.584 88.6367 48.2637 88.9199 48.791 89.4863C49.3184 90.0527 49.582 90.8496 49.582 91.877C49.582 91.9395 49.5801 92.0332 49.5762 92.1582H44.9355C44.9746 92.8418 45.168 93.3652 45.5156 93.7285C45.8633 94.0918 46.2969 94.2734 46.8164 94.2734C47.2031 94.2734 47.5332 94.1719 47.8066 93.9688C48.0801 93.7656 48.2969 93.4414 48.457 92.9961ZM44.9941 91.291H48.4688C48.4219 90.7676 48.2891 90.375 48.0703 90.1133C47.7344 89.707 47.2988 89.5039 46.7637 89.5039C46.2793 89.5039 45.8711 89.666 45.5391 89.9902C45.2109 90.3145 45.0293 90.748 44.9941 91.291ZM50.8652 95V88.7773H51.8145V89.7207C52.0566 89.2793 52.2793 88.9883 52.4824 88.8477C52.6895 88.707 52.916 88.6367 53.1621 88.6367C53.5176 88.6367 53.8789 88.75 54.2461 88.9766L53.8828 89.9551C53.625 89.8027 53.3672 89.7266 53.1094 89.7266C52.8789 89.7266 52.6719 89.7969 52.4883 89.9375C52.3047 90.0742 52.1738 90.2656 52.0957 90.5117C51.9785 90.8867 51.9199 91.2969 51.9199 91.7422V95H50.8652ZM58.9336 92.7207L59.9707 92.8555C59.8574 93.5703 59.5664 94.1309 59.0977 94.5371C58.6328 94.9395 58.0605 95.1406 57.3809 95.1406C56.5293 95.1406 55.8438 94.8633 55.3242 94.3086C54.8086 93.75 54.5508 92.9512 54.5508 91.9121C54.5508 91.2402 54.6621 90.6523 54.8848 90.1484C55.1074 89.6445 55.4453 89.2676 55.8984 89.0176C56.3555 88.7637 56.8516 88.6367 57.3867 88.6367C58.0625 88.6367 58.6152 88.8086 59.0449 89.1523C59.4746 89.4922 59.75 89.9766 59.8711 90.6055L58.8457 90.7637C58.748 90.3457 58.5742 90.0312 58.3242 89.8203C58.0781 89.6094 57.7793 89.5039 57.4277 89.5039C56.8965 89.5039 56.4648 89.6953 56.1328 90.0781C55.8008 90.457 55.6348 91.0586 55.6348 91.8828C55.6348 92.7188 55.7949 93.3262 56.1152 93.7051C56.4355 94.084 56.8535 94.2734 57.3691 94.2734C57.7832 94.2734 58.1289 94.1465 58.4062 93.8926C58.6836 93.6387 58.8594 93.248 58.9336 92.7207ZM56.4902 95.7852L56.7949 94.748H57.5801L57.3867 95.375C57.7188 95.4141 57.9688 95.5156 58.1367 95.6797C58.3047 95.8477 58.3887 96.0332 58.3887 96.2363C58.3887 96.5293 58.248 96.7871 57.9668 97.0098C57.6855 97.2363 57.2617 97.3496 56.6953 97.3496C56.375 97.3496 56.0938 97.3262 55.8516 97.2793L55.916 96.5938C56.166 96.6094 56.3496 96.6172 56.4668 96.6172C56.834 96.6172 57.0918 96.5664 57.2402 96.4648C57.3535 96.3867 57.4102 96.291 57.4102 96.1777C57.4102 96.1074 57.3867 96.0449 57.3398 95.9902C57.2969 95.9355 57.2148 95.8887 57.0938 95.8496C56.9727 95.8105 56.7715 95.7891 56.4902 95.7852ZM65.1328 92.9961L66.2227 93.1309C66.0508 93.7676 65.7324 94.2617 65.2676 94.6133C64.8027 94.9648 64.209 95.1406 63.4863 95.1406C62.5762 95.1406 61.8535 94.8613 61.3184 94.3027C60.7871 93.7402 60.5215 92.9531 60.5215 91.9414C60.5215 90.8945 60.791 90.082 61.3301 89.5039C61.8691 88.9258 62.5684 88.6367 63.4277 88.6367C64.2598 88.6367 64.9395 88.9199 65.4668 89.4863C65.9941 90.0527 66.2578 90.8496 66.2578 91.877C66.2578 91.9395 66.2559 92.0332 66.252 92.1582H61.6113C61.6504 92.8418 61.8438 93.3652 62.1914 93.7285C62.5391 94.0918 62.9727 94.2734 63.4922 94.2734C63.8789 94.2734 64.209 94.1719 64.4824 93.9688C64.7559 93.7656 64.9727 93.4414 65.1328 92.9961ZM61.6699 91.291H65.1445C65.0977 90.7676 64.9648 90.375 64.7461 90.1133C64.4102 89.707 63.9746 89.5039 63.4395 89.5039C62.9551 89.5039 62.5469 89.666 62.2148 89.9902C61.8867 90.3145 61.7051 90.748 61.6699 91.291ZM67.5586 95V86.4102H68.6133V91.3086L71.1094 88.7773H72.4746L70.0957 91.0859L72.7148 95H71.4141L69.3574 91.8184L68.6133 92.5332V95H67.5586ZM73.5293 95V86.4102H74.584V95H73.5293ZM80.4844 92.9961L81.5742 93.1309C81.4023 93.7676 81.084 94.2617 80.6191 94.6133C80.1543 94.9648 79.5605 95.1406 78.8379 95.1406C77.9277 95.1406 77.2051 94.8613 76.6699 94.3027C76.1387 93.7402 75.873 92.9531 75.873 91.9414C75.873 90.8945 76.1426 90.082 76.6816 89.5039C77.2207 88.9258 77.9199 88.6367 78.7793 88.6367C79.6113 88.6367 80.291 88.9199 80.8184 89.4863C81.3457 90.0527 81.6094 90.8496 81.6094 91.877C81.6094 91.9395 81.6074 92.0332 81.6035 92.1582H76.9629C77.002 92.8418 77.1953 93.3652 77.543 93.7285C77.8906 94.0918 78.3242 94.2734 78.8438 94.2734C79.2305 94.2734 79.5605 94.1719 79.834 93.9688C80.1074 93.7656 80.3242 93.4414 80.4844 92.9961ZM77.0215 91.291H80.4961C80.4492 90.7676 80.3164 90.375 80.0977 90.1133C79.7617 89.707 79.3262 89.5039 78.791 89.5039C78.3066 89.5039 77.8984 89.666 77.5664 89.9902C77.2383 90.3145 77.0566 90.748 77.0215 91.291ZM82.4824 93.1426L83.5254 92.9785C83.584 93.3965 83.7461 93.7168 84.0117 93.9395C84.2812 94.1621 84.6562 94.2734 85.1367 94.2734C85.6211 94.2734 85.9805 94.1758 86.2148 93.9805C86.4492 93.7812 86.5664 93.5488 86.5664 93.2832C86.5664 93.0449 86.4629 92.8574 86.2559 92.7207C86.1113 92.627 85.752 92.5078 85.1777 92.3633C84.4043 92.168 83.8672 92 83.5664 91.8594C83.2695 91.7148 83.043 91.5176 82.8867 91.2676C82.7344 91.0137 82.6582 90.7344 82.6582 90.4297C82.6582 90.1523 82.7207 89.8965 82.8457 89.6621C82.9746 89.4238 83.1484 89.2266 83.3672 89.0703C83.5312 88.9492 83.7539 88.8477 84.0352 88.7656C84.3203 88.6797 84.625 88.6367 84.9492 88.6367C85.4375 88.6367 85.8652 88.707 86.2324 88.8477C86.6035 88.9883 86.877 89.1797 87.0527 89.4219C87.2285 89.6602 87.3496 89.9805 87.416 90.3828L86.3848 90.5234C86.3379 90.2031 86.2012 89.9531 85.9746 89.7734C85.752 89.5938 85.4355 89.5039 85.0254 89.5039C84.541 89.5039 84.1953 89.584 83.9883 89.7441C83.7812 89.9043 83.6777 90.0918 83.6777 90.3066C83.6777 90.4434 83.7207 90.5664 83.8066 90.6758C83.8926 90.7891 84.0273 90.8828 84.2109 90.957C84.3164 90.9961 84.627 91.0859 85.1426 91.2266C85.8887 91.4258 86.4082 91.5898 86.7012 91.7188C86.998 91.8438 87.2305 92.0273 87.3984 92.2695C87.5664 92.5117 87.6504 92.8125 87.6504 93.1719C87.6504 93.5234 87.5469 93.8555 87.3398 94.168C87.1367 94.4766 86.8418 94.7168 86.4551 94.8887C86.0684 95.0566 85.6309 95.1406 85.1426 95.1406C84.334 95.1406 83.7168 94.9727 83.291 94.6367C82.8691 94.3008 82.5996 93.8027 82.4824 93.1426ZM84.3105 95.7852L84.6152 94.748H85.4004L85.207 95.375C85.5391 95.4141 85.7891 95.5156 85.957 95.6797C86.125 95.8477 86.209 96.0332 86.209 96.2363C86.209 96.5293 86.0684 96.7871 85.7871 97.0098C85.5059 97.2363 85.082 97.3496 84.5156 97.3496C84.1953 97.3496 83.9141 97.3262 83.6719 97.2793L83.7363 96.5938C83.9863 96.6094 84.1699 96.6172 84.2871 96.6172C84.6543 96.6172 84.9121 96.5664 85.0605 96.4648C85.1738 96.3867 85.2305 96.291 85.2305 96.1777C85.2305 96.1074 85.207 96.0449 85.1602 95.9902C85.1172 95.9355 85.0352 95.8887 84.9141 95.8496C84.793 95.8105 84.5918 95.7891 84.3105 95.7852ZM91.207 94.0566L91.3594 94.9883C91.0625 95.0508 90.7969 95.082 90.5625 95.082C90.1797 95.082 89.8828 95.0215 89.6719 94.9004C89.4609 94.7793 89.3125 94.6211 89.2266 94.4258C89.1406 94.2266 89.0977 93.8105 89.0977 93.1777V89.5977H88.3242V88.7773H89.0977V87.2363L90.1465 86.6035V88.7773H91.207V89.5977H90.1465V93.2363C90.1465 93.5371 90.1641 93.7305 90.1992 93.8164C90.2383 93.9023 90.2988 93.9707 90.3809 94.0215C90.4668 94.0723 90.5879 94.0977 90.7441 94.0977C90.8613 94.0977 91.0156 94.084 91.207 94.0566ZM92.25 87.623V86.4102H93.3047V87.623H92.25ZM92.25 95V88.7773H93.3047V95H92.25ZM94.9043 95V88.7773H95.8535V89.7207C96.0957 89.2793 96.3184 88.9883 96.5215 88.8477C96.7285 88.707 96.9551 88.6367 97.2012 88.6367C97.5566 88.6367 97.918 88.75 98.2852 88.9766L97.9219 89.9551C97.6641 89.8027 97.4062 89.7266 97.1484 89.7266C96.918 89.7266 96.7109 89.7969 96.5273 89.9375C96.3438 90.0742 96.2129 90.2656 96.1348 90.5117C96.0176 90.8867 95.959 91.2969 95.959 91.7422V95H94.9043ZM98.918 87.623V86.4102H99.9727V87.623H98.918ZM98.918 95V88.7773H99.9727V95H98.918ZM101.561 95V86.4102H102.615V95H101.561ZM108.516 92.9961L109.605 93.1309C109.434 93.7676 109.115 94.2617 108.65 94.6133C108.186 94.9648 107.592 95.1406 106.869 95.1406C105.959 95.1406 105.236 94.8613 104.701 94.3027C104.17 93.7402 103.904 92.9531 103.904 91.9414C103.904 90.8945 104.174 90.082 104.713 89.5039C105.252 88.9258 105.951 88.6367 106.811 88.6367C107.643 88.6367 108.322 88.9199 108.85 89.4863C109.377 90.0527 109.641 90.8496 109.641 91.877C109.641 91.9395 109.639 92.0332 109.635 92.1582H104.994C105.033 92.8418 105.227 93.3652 105.574 93.7285C105.922 94.0918 106.355 94.2734 106.875 94.2734C107.262 94.2734 107.592 94.1719 107.865 93.9688C108.139 93.7656 108.355 93.4414 108.516 92.9961ZM105.053 91.291H108.527C108.48 90.7676 108.348 90.375 108.129 90.1133C107.793 89.707 107.357 89.5039 106.822 89.5039C106.338 89.5039 105.93 89.666 105.598 89.9902C105.27 90.3145 105.088 90.748 105.053 91.291ZM111.908 95H110.93V86.4102H111.984V89.4746C112.43 88.916 112.998 88.6367 113.689 88.6367C114.072 88.6367 114.434 88.7148 114.773 88.8711C115.117 89.0234 115.398 89.2402 115.617 89.5215C115.84 89.7988 116.014 90.1348 116.139 90.5293C116.264 90.9238 116.326 91.3457 116.326 91.7949C116.326 92.8613 116.062 93.6855 115.535 94.2676C115.008 94.8496 114.375 95.1406 113.637 95.1406C112.902 95.1406 112.326 94.834 111.908 94.2207V95ZM111.896 91.8418C111.896 92.5879 111.998 93.127 112.201 93.459C112.533 94.002 112.982 94.2734 113.549 94.2734C114.01 94.2734 114.408 94.0742 114.744 93.6758C115.08 93.2734 115.248 92.6758 115.248 91.8828C115.248 91.0703 115.086 90.4707 114.762 90.084C114.441 89.6973 114.053 89.5039 113.596 89.5039C113.135 89.5039 112.736 89.7051 112.4 90.1074C112.064 90.5059 111.896 91.084 111.896 91.8418ZM117.621 87.623V86.4102H118.676V87.623H117.621ZM117.621 95V88.7773H118.676V95H117.621ZM120.264 95V86.4102H121.318V95H120.264ZM122.965 87.623V86.4102H124.02V87.623H122.965ZM122.965 95V88.7773H124.02V95H122.965ZM125.619 95V88.7773H126.568V89.7207C126.811 89.2793 127.033 88.9883 127.236 88.8477C127.443 88.707 127.67 88.6367 127.916 88.6367C128.271 88.6367 128.633 88.75 129 88.9766L128.637 89.9551C128.379 89.8027 128.121 89.7266 127.863 89.7266C127.633 89.7266 127.426 89.7969 127.242 89.9375C127.059 90.0742 126.928 90.2656 126.85 90.5117C126.732 90.8867 126.674 91.2969 126.674 91.7422V95H125.619ZM129.258 95V93.7988H130.459V95H129.258Z"/>
  </symbol>
</svg>
