<svg width="153" height="98" viewBox="0 0 153 98" fill="none" xmlns="http://www.w3.org/2000/svg">
  <symbol id="svg-copy-jp-1" viewBox="0 1 145 11">
    <path d="M0.345703 8.5625L1.37109 8.42188C1.39844 9.07812 1.52148 9.52734 1.74023 9.76953C1.95898 10.0117 2.26172 10.1328 2.64844 10.1328C2.93359 10.1328 3.17969 10.0684 3.38672 9.93945C3.59375 9.80664 3.73633 9.62891 3.81445 9.40625C3.89258 9.17969 3.93164 8.82031 3.93164 8.32812V2.41016H5.06836V8.26367C5.06836 8.98242 4.98047 9.53906 4.80469 9.93359C4.63281 10.3281 4.35742 10.6289 3.97852 10.8359C3.60352 11.043 3.16211 11.1465 2.6543 11.1465C1.90039 11.1465 1.32227 10.9297 0.919922 10.4961C0.521484 10.0625 0.330078 9.41797 0.345703 8.5625ZM10.8691 11V10.0859C10.3848 10.7891 9.72656 11.1406 8.89453 11.1406C8.52734 11.1406 8.18359 11.0703 7.86328 10.9297C7.54688 10.7891 7.31055 10.6133 7.1543 10.4023C7.00195 10.1875 6.89453 9.92578 6.83203 9.61719C6.78906 9.41016 6.76758 9.08203 6.76758 8.63281V4.77734H7.82227V8.22852C7.82227 8.7793 7.84375 9.15039 7.88672 9.3418C7.95312 9.61914 8.09375 9.83789 8.30859 9.99805C8.52344 10.1543 8.78906 10.2324 9.10547 10.2324C9.42188 10.2324 9.71875 10.1523 9.99609 9.99219C10.2734 9.82812 10.4688 9.60742 10.582 9.33008C10.6992 9.04883 10.7578 8.64258 10.7578 8.11133V4.77734H11.8125V11H10.8691ZM13.0488 9.14258L14.0918 8.97852C14.1504 9.39648 14.3125 9.7168 14.5781 9.93945C14.8477 10.1621 15.2227 10.2734 15.7031 10.2734C16.1875 10.2734 16.5469 10.1758 16.7812 9.98047C17.0156 9.78125 17.1328 9.54883 17.1328 9.2832C17.1328 9.04492 17.0293 8.85742 16.8223 8.7207C16.6777 8.62695 16.3184 8.50781 15.7441 8.36328C14.9707 8.16797 14.4336 8 14.1328 7.85938C13.8359 7.71484 13.6094 7.51758 13.4531 7.26758C13.3008 7.01367 13.2246 6.73438 13.2246 6.42969C13.2246 6.15234 13.2871 5.89648 13.4121 5.66211C13.541 5.42383 13.7148 5.22656 13.9336 5.07031C14.0977 4.94922 14.3203 4.84766 14.6016 4.76562C14.8867 4.67969 15.1914 4.63672 15.5156 4.63672C16.0039 4.63672 16.4316 4.70703 16.7988 4.84766C17.1699 4.98828 17.4434 5.17969 17.6191 5.42188C17.7949 5.66016 17.916 5.98047 17.9824 6.38281L16.9512 6.52344C16.9043 6.20312 16.7676 5.95312 16.541 5.77344C16.3184 5.59375 16.002 5.50391 15.5918 5.50391C15.1074 5.50391 14.7617 5.58398 14.5547 5.74414C14.3477 5.9043 14.2441 6.0918 14.2441 6.30664C14.2441 6.44336 14.2871 6.56641 14.373 6.67578C14.459 6.78906 14.5938 6.88281 14.7773 6.95703C14.8828 6.99609 15.1934 7.08594 15.709 7.22656C16.4551 7.42578 16.9746 7.58984 17.2676 7.71875C17.5645 7.84375 17.7969 8.02734 17.9648 8.26953C18.1328 8.51172 18.2168 8.8125 18.2168 9.17188C18.2168 9.52344 18.1133 9.85547 17.9062 10.168C17.7031 10.4766 17.4082 10.7168 17.0215 10.8887C16.6348 11.0566 16.1973 11.1406 15.709 11.1406C14.9004 11.1406 14.2832 10.9727 13.8574 10.6367C13.4355 10.3008 13.166 9.80273 13.0488 9.14258ZM21.7734 10.0566L21.9258 10.9883C21.6289 11.0508 21.3633 11.082 21.1289 11.082C20.7461 11.082 20.4492 11.0215 20.2383 10.9004C20.0273 10.7793 19.8789 10.6211 19.793 10.4258C19.707 10.2266 19.6641 9.81055 19.6641 9.17773V5.59766H18.8906V4.77734H19.6641V3.23633L20.7129 2.60352V4.77734H21.7734V5.59766H20.7129V9.23633C20.7129 9.53711 20.7305 9.73047 20.7656 9.81641C20.8047 9.90234 20.8652 9.9707 20.9473 10.0215C21.0332 10.0723 21.1543 10.0977 21.3105 10.0977C21.4277 10.0977 21.582 10.084 21.7734 10.0566ZM23.0625 11V5.59766H22.1309V4.77734H23.0625V4.11523C23.0625 3.69727 23.0996 3.38672 23.1738 3.18359C23.2754 2.91016 23.4531 2.68945 23.707 2.52148C23.9648 2.34961 24.3242 2.26367 24.7852 2.26367C25.082 2.26367 25.4102 2.29883 25.7695 2.36914L25.6113 3.28906C25.3926 3.25 25.1855 3.23047 24.9902 3.23047C24.6699 3.23047 24.4434 3.29883 24.3105 3.43555C24.1777 3.57227 24.1113 3.82812 24.1113 4.20312V4.77734H25.3242V5.59766H24.1113V11H23.0625ZM25.7578 7.88867C25.7578 6.73633 26.0781 5.88281 26.7188 5.32812C27.2539 4.86719 27.9062 4.63672 28.6758 4.63672C29.5312 4.63672 30.2305 4.91797 30.7734 5.48047C31.3164 6.03906 31.5879 6.8125 31.5879 7.80078C31.5879 8.60156 31.4668 9.23242 31.2246 9.69336C30.9863 10.1504 30.6367 10.5059 30.1758 10.7598C29.7188 11.0137 29.2188 11.1406 28.6758 11.1406C27.8047 11.1406 27.0996 10.8613 26.5605 10.3027C26.0254 9.74414 25.7578 8.93945 25.7578 7.88867ZM26.8418 7.88867C26.8418 8.68555 27.0156 9.2832 27.3633 9.68164C27.7109 10.0762 28.1484 10.2734 28.6758 10.2734C29.1992 10.2734 29.6348 10.0742 29.9824 9.67578C30.3301 9.27734 30.5039 8.66992 30.5039 7.85352C30.5039 7.08398 30.3281 6.50195 29.9766 6.10742C29.6289 5.70898 29.1953 5.50977 28.6758 5.50977C28.1484 5.50977 27.7109 5.70703 27.3633 6.10156C27.0156 6.49609 26.8418 7.0918 26.8418 7.88867ZM32.8184 11V4.77734H33.7676V5.7207C34.0098 5.2793 34.2324 4.98828 34.4355 4.84766C34.6426 4.70703 34.8691 4.63672 35.1152 4.63672C35.4707 4.63672 35.832 4.75 36.1992 4.97656L35.8359 5.95508C35.5781 5.80273 35.3203 5.72656 35.0625 5.72656C34.832 5.72656 34.625 5.79688 34.4414 5.9375C34.2578 6.07422 34.127 6.26562 34.0488 6.51172C33.9316 6.88672 33.873 7.29688 33.873 7.74219V11H32.8184ZM41.0859 8.99609L42.1758 9.13086C42.0039 9.76758 41.6855 10.2617 41.2207 10.6133C40.7559 10.9648 40.1621 11.1406 39.4395 11.1406C38.5293 11.1406 37.8066 10.8613 37.2715 10.3027C36.7402 9.74023 36.4746 8.95312 36.4746 7.94141C36.4746 6.89453 36.7441 6.08203 37.2832 5.50391C37.8223 4.92578 38.5215 4.63672 39.3809 4.63672C40.2129 4.63672 40.8926 4.91992 41.4199 5.48633C41.9473 6.05273 42.2109 6.84961 42.2109 7.87695C42.2109 7.93945 42.209 8.0332 42.2051 8.1582H37.5645C37.6035 8.8418 37.7969 9.36523 38.1445 9.72852C38.4922 10.0918 38.9258 10.2734 39.4453 10.2734C39.832 10.2734 40.1621 10.1719 40.4355 9.96875C40.709 9.76562 40.9258 9.44141 41.0859 8.99609ZM37.623 7.29102H41.0977C41.0508 6.76758 40.918 6.375 40.6992 6.11328C40.3633 5.70703 39.9277 5.50391 39.3926 5.50391C38.9082 5.50391 38.5 5.66602 38.168 5.99023C37.8398 6.31445 37.6582 6.74805 37.623 7.29102ZM42.8027 11L45.0762 7.76562L42.9727 4.77734H44.291L45.2461 6.23633C45.4258 6.51367 45.5703 6.74609 45.6797 6.93359C45.8516 6.67578 46.0098 6.44727 46.1543 6.24805L47.2031 4.77734H48.4629L46.3125 7.70703L48.627 11H47.332L46.0547 9.06641L45.7148 8.54492L44.0801 11H42.8027ZM57.7748 1.028L57.1148 1.304C57.4148 1.736 57.8228 2.42 58.0628 2.912L58.7348 2.612C58.4948 2.156 58.0628 1.448 57.7748 1.028ZM59.3228 0.727999L58.6628 1.004C58.9868 1.412 59.3708 2.108 59.6348 2.6L60.3068 2.312C60.0548 1.844 59.6108 1.136 59.3228 0.727999ZM58.8548 3.188L58.1228 2.72C57.9068 2.78 57.6668 2.792 57.4868 2.792C56.9348 2.792 52.1468 2.792 51.4628 2.792C51.0668 2.792 50.5988 2.744 50.2628 2.708V3.776C50.5748 3.752 50.9828 3.728 51.4628 3.728C52.1468 3.728 56.9108 3.728 57.5948 3.728C57.4388 4.88 56.8748 6.56 56.0228 7.64C55.0268 8.924 53.6708 9.944 51.3548 10.532L52.1708 11.432C54.3668 10.736 55.7948 9.632 56.8868 8.216C57.8348 6.992 58.4228 5.048 58.6748 3.788C58.7228 3.56 58.7828 3.356 58.8548 3.188ZM63.4868 2.072V3.068C63.8108 3.044 64.1948 3.032 64.5548 3.032C65.2148 3.032 68.5868 3.032 69.2588 3.032C69.6668 3.032 70.0868 3.044 70.3628 3.068V2.072C70.0748 2.108 69.6548 2.132 69.2828 2.132C68.5748 2.132 65.2028 2.132 64.5548 2.132C64.1708 2.132 63.7988 2.108 63.4868 2.072ZM71.2508 5.228L70.5668 4.808C70.4348 4.868 70.1708 4.904 69.8948 4.904C69.2828 4.904 64.1708 4.904 63.5828 4.904C63.2468 4.904 62.8388 4.868 62.4068 4.832V5.84C62.8388 5.804 63.2948 5.792 63.5828 5.792C64.3028 5.792 69.3548 5.792 69.9428 5.792C69.7268 6.668 69.2468 7.688 68.5268 8.444C67.4948 9.524 65.9948 10.304 64.3028 10.652L65.0468 11.504C66.5708 11.072 68.0828 10.376 69.3308 8.996C70.2308 8.012 70.7708 6.764 71.0828 5.588C71.1068 5.492 71.1908 5.348 71.2508 5.228ZM75.4388 2.216L74.7428 2.948C75.6428 3.536 77.1308 4.832 77.7428 5.456L78.4868 4.688C77.8268 4.028 76.2788 2.78 75.4388 2.216ZM74.4068 10.256L75.0308 11.24C77.0348 10.868 78.5468 10.124 79.7588 9.368C81.5708 8.228 82.9628 6.596 83.7788 5.108L83.2028 4.076C82.5068 5.564 81.0548 7.34 79.1948 8.504C78.0548 9.212 76.4948 9.944 74.4068 10.256ZM92.5868 2.372L91.9148 2.66C92.3108 3.2 92.6948 3.86 92.9948 4.496L93.6788 4.184C93.4028 3.608 92.8868 2.804 92.5868 2.372ZM94.0268 1.772L93.3788 2.084C93.7748 2.612 94.1708 3.248 94.4828 3.884L95.1548 3.548C94.8788 2.984 94.3508 2.192 94.0268 1.772ZM88.3748 10.1C88.3748 10.556 88.3508 11.144 88.2908 11.528H89.4548C89.4068 11.132 89.3828 10.484 89.3828 10.1C89.3828 9.536 89.3708 5 89.3708 3.128C89.3708 2.768 89.4188 2.24 89.4548 1.88H88.2788C88.3388 2.252 88.3748 2.78 88.3748 3.128C88.3748 4.136 88.3748 9.44 88.3748 10.1ZM89.1548 5.024V6.08C90.4628 6.488 92.7068 7.34 94.0748 8.072L94.4948 7.064C93.1628 6.404 90.7508 5.48 89.1548 5.024ZM103.471 2.816L102.475 2.792C102.355 4.04 102.103 5.396 101.755 6.536C101.143 8.564 100.495 9.38 99.9308 9.38C99.3908 9.38 98.7068 8.708 98.7068 7.196C98.7068 5.432 100.351 3.26 102.991 3.26C105.295 3.26 106.627 4.844 106.627 6.764C106.627 8.84 105.115 9.992 103.579 10.34C103.291 10.4 102.931 10.448 102.547 10.484L103.099 11.372C105.955 11 107.611 9.32 107.611 6.812C107.611 4.376 105.823 2.396 103.015 2.396C100.075 2.396 97.7588 4.664 97.7588 7.268C97.7588 9.26 98.8268 10.484 99.9068 10.484C101.011 10.484 101.971 9.212 102.703 6.752C103.075 5.468 103.315 4.064 103.471 2.816ZM113.983 2.228V3.056H119.659V2.228H113.983ZM113.275 4.58V5.42H120.211V4.58H113.275ZM113.479 6.86V7.7H120.139V6.86H113.479ZM116.347 0.92V5.024H117.235V0.92H116.347ZM117.835 5.3V10.844C117.835 11.024 117.787 11.06 117.595 11.072C117.379 11.084 116.719 11.084 115.999 11.06C116.131 11.324 116.251 11.708 116.287 11.96C117.211 11.96 117.847 11.948 118.231 11.804C118.615 11.66 118.735 11.396 118.735 10.856V5.3H117.835ZM114.103 8.456C114.691 9.044 115.339 9.872 115.603 10.436L116.335 9.968C116.035 9.404 115.375 8.612 114.787 8.048L114.103 8.456ZM109.135 7.448L109.375 8.324C110.587 7.94 112.207 7.436 113.731 6.944L113.611 6.164C111.979 6.656 110.263 7.16 109.135 7.448ZM111.379 0.931999V11.96H112.219V0.931999H111.379ZM109.891 1.568C109.747 3.044 109.507 4.568 109.051 5.588C109.243 5.672 109.591 5.876 109.735 5.984C110.191 4.916 110.491 3.296 110.671 1.7L109.891 1.568ZM109.963 3.356L109.819 4.22H113.455V3.356H109.963ZM123.091 6.92V7.748H130.627V6.92H123.091ZM126.355 4.232V7.34H127.255V4.232H126.355ZM123.055 3.908V4.724H130.327V8.276H131.239V3.908H123.055ZM122.599 3.908V10.052C122.599 11.492 123.187 11.84 125.131 11.84C125.575 11.84 129.343 11.84 129.823 11.84C131.611 11.84 131.983 11.312 132.187 9.536C131.911 9.488 131.527 9.356 131.299 9.2C131.155 10.676 130.963 10.988 129.799 10.988C128.995 10.988 125.707 10.988 125.071 10.988C123.751 10.988 123.499 10.82 123.499 10.052V3.908H122.599ZM124.603 1.724L124.195 2.528H128.371V1.724H124.603ZM124.627 0.883999C123.979 2.096 122.767 3.584 121.135 4.688C121.351 4.832 121.651 5.132 121.795 5.348C123.523 4.088 124.771 2.504 125.623 1.076L124.627 0.883999ZM127.975 1.724V1.904C127.699 2.576 127.123 3.524 126.607 4.1C126.775 4.232 127.051 4.496 127.183 4.676C127.795 4.028 128.503 2.996 128.971 2.072L128.359 1.676L128.179 1.724H127.975ZM139.471 2.816L138.475 2.792C138.355 4.04 138.103 5.396 137.755 6.536C137.143 8.564 136.495 9.38 135.931 9.38C135.391 9.38 134.707 8.708 134.707 7.196C134.707 5.432 136.351 3.26 138.991 3.26C141.295 3.26 142.627 4.844 142.627 6.764C142.627 8.84 141.115 9.992 139.579 10.34C139.291 10.4 138.931 10.448 138.547 10.484L139.099 11.372C141.955 11 143.611 9.32 143.611 6.812C143.611 4.376 141.823 2.396 139.015 2.396C136.075 2.396 133.759 4.664 133.759 7.268C133.759 9.26 134.827 10.484 135.907 10.484C137.011 10.484 137.971 9.212 138.703 6.752C139.075 5.468 139.315 4.064 139.471 2.816Z"/>
  </symbol>
  <symbol id="svg-copy-jp-2" viewBox="0 15 143 11">
    <path d="M0.588 18.544V19.384H6.3V18.544H0.588ZM7.104 16.348V22.984H7.98V16.348H7.104ZM3.108 15.94V25.948H3.996V15.94H3.108ZM10.056 15.148V24.772C10.056 25 9.96 25.072 9.732 25.072C9.504 25.084 8.76 25.084 7.896 25.06C8.04 25.324 8.184 25.72 8.232 25.972C9.336 25.984 10.008 25.96 10.404 25.804C10.788 25.66 10.944 25.384 10.944 24.76V15.148H10.056ZM5.496 14.992C4.368 15.496 2.28 15.904 0.504 16.156C0.612 16.348 0.744 16.66 0.78 16.876C2.604 16.636 4.776 16.24 6.168 15.688L5.496 14.992ZM3.072 18.928C2.544 20.536 1.38 22.444 0.324 23.452C0.48 23.68 0.708 24.04 0.816 24.304C1.932 23.164 3.108 21.016 3.72 19.192L3.072 18.928ZM3.876 20.164L3.384 20.644C3.936 21.112 5.244 22.372 5.736 22.924L6.264 22.168C5.88 21.832 4.332 20.488 3.876 20.164ZM14.34 15.772V16.636H22.104V15.772H14.34ZM14.34 18.568V19.42H22.092V18.568H14.34ZM14.28 21.436V22.288H22.116V21.436H14.28ZM13.836 15.772V20.116C13.836 21.808 13.704 23.944 12.384 25.432C12.576 25.552 12.936 25.852 13.08 26.032C14.508 24.436 14.724 21.952 14.724 20.128V15.772H13.836ZM21.744 15.772V24.736C21.744 24.964 21.66 25.036 21.432 25.048C21.204 25.048 20.388 25.06 19.536 25.024C19.668 25.264 19.812 25.66 19.848 25.9C20.988 25.912 21.684 25.9 22.092 25.756C22.488 25.6 22.632 25.324 22.632 24.736V15.772H21.744ZM17.604 16.096V25.852H18.516V16.096H17.604ZM28.92 15.424H27.864C27.9 15.616 27.924 16.036 27.924 16.264C27.924 16.756 27.876 18.712 27.876 20.092C27.876 21.424 27.936 23.092 27.936 23.788C27.936 24.184 27.78 24.376 27.504 24.376C27.036 24.376 26.196 23.896 26.196 23.356C26.196 22.744 27.12 21.94 28.296 21.484C29.316 21.076 30.3 20.848 31.38 20.848C32.508 20.848 33.432 21.388 33.432 22.408C33.432 23.524 32.472 24.088 31.428 24.292C30.972 24.388 30.468 24.376 30.012 24.376L30.348 25.336C30.768 25.312 31.308 25.288 31.836 25.168C33.492 24.784 34.404 23.86 34.404 22.408C34.404 20.968 33.144 20.02 31.38 20.02C30.432 20.02 29.232 20.236 28.164 20.656C26.676 21.22 25.248 22.336 25.248 23.392C25.248 24.472 26.808 25.384 27.744 25.384C28.404 25.384 28.812 25.024 28.812 23.92C28.812 23.164 28.752 21.292 28.752 20.044C28.752 18.796 28.812 16.96 28.848 16.252C28.86 15.964 28.884 15.64 28.92 15.424ZM32.652 16.756L32.208 17.476C32.976 17.884 34.32 18.712 34.908 19.264L35.388 18.496C34.812 18.016 33.504 17.2 32.652 16.756ZM25.452 17.572L25.476 18.496C25.872 18.532 26.328 18.556 27 18.556C28.08 18.556 30.048 18.292 31.284 17.992L31.26 17.056C30.072 17.416 28.164 17.668 26.976 17.668C26.544 17.668 26.112 17.656 25.452 17.572ZM42.492 15.58H41.352C41.4 15.808 41.436 16.336 41.448 16.78C41.448 17.296 41.46 18.28 41.46 18.976C41.46 20.2 41.604 22.528 41.604 23.416C41.604 24.244 41.172 24.664 40.296 24.664C39.132 24.664 38.46 24.292 38.46 23.632C38.46 22.96 39.168 22.54 40.416 22.54C42.516 22.54 44.484 23.716 45.684 24.916L46.26 24.016C45.036 22.9 42.9 21.7 40.524 21.7C38.448 21.7 37.512 22.576 37.512 23.668C37.512 25.036 38.724 25.552 40.392 25.552C41.988 25.552 42.588 24.712 42.588 23.74C42.588 22.684 42.396 20.284 42.396 18.976C42.396 18.148 42.396 17.32 42.396 16.78C42.408 16.42 42.444 15.844 42.492 15.58ZM41.868 18.004V18.892C42.732 18.892 44.688 18.808 45.984 18.688L45.948 17.788C44.652 17.944 42.696 18.004 41.868 18.004ZM56.568 16.324L55.632 16.588C56.34 19.048 57.156 20.836 58.488 22.252L59.112 21.412C57.348 19.816 56.82 17.776 56.568 16.324ZM49.068 16.96L49.14 17.968C49.392 17.932 49.596 17.896 49.824 17.872C50.256 17.812 51.24 17.692 51.852 17.596C50.796 18.796 49.62 20.512 49.62 22.756C49.62 24.736 50.988 25.792 52.884 25.792C56.64 25.792 57.324 22.084 56.7 18.652L55.824 17.032C56.736 21.736 55.764 24.808 52.908 24.808C51.672 24.808 50.556 24.244 50.556 22.552C50.556 20.08 52.392 17.98 53.148 17.416C53.328 17.344 53.628 17.26 53.784 17.212L53.508 16.36C52.8 16.636 50.784 16.912 49.716 16.96C49.5 16.972 49.248 16.972 49.068 16.96ZM57.624 15.64L57.024 15.856C57.288 16.312 57.6 17.02 57.816 17.56L58.44 17.332C58.236 16.84 57.864 16.096 57.624 15.64ZM58.848 15.172L58.26 15.4C58.536 15.856 58.848 16.552 59.064 17.092L59.7 16.852C59.472 16.348 59.1 15.616 58.848 15.172ZM60.768 17.452V18.364H71.244V17.452H60.768ZM63.168 22.804V23.716H68.76V22.804H63.168ZM65.508 14.932V25.96H66.456V14.932H65.508ZM65.232 17.752C64.272 20.056 62.364 22.288 60.36 23.332C60.564 23.512 60.864 23.848 61.008 24.076C63.084 22.864 64.968 20.572 66.036 18.028L65.232 17.752ZM66.756 17.788L65.952 18.064C67.008 20.584 68.856 22.876 70.98 24.052C71.124 23.8 71.436 23.44 71.664 23.248C69.588 22.252 67.704 20.068 66.756 17.788ZM78.48 15.4H77.34C77.388 15.772 77.4 16.048 77.4 16.3C77.4 16.576 77.4 17.428 77.4 17.896H78.42C78.42 17.476 78.42 16.576 78.42 16.3C78.42 16.048 78.432 15.772 78.48 15.4ZM82.572 17.728L81.924 17.32C81.768 17.368 81.552 17.416 81.108 17.416H74.748C74.328 17.416 73.968 17.392 73.62 17.368C73.668 17.62 73.668 18.028 73.668 18.28C73.668 18.7 73.668 20.008 73.668 20.392C73.668 20.632 73.656 20.956 73.62 21.16H74.664C74.64 20.98 74.628 20.656 74.628 20.452C74.628 20.08 74.628 18.796 74.628 18.304H81.324C81.216 19.324 80.844 20.776 80.196 21.796C79.452 22.936 78.144 23.824 76.932 24.22C76.548 24.364 76.092 24.484 75.696 24.556L76.476 25.444C78.672 24.844 80.328 23.62 81.216 22.048C81.888 20.908 82.236 19.408 82.404 18.448C82.44 18.22 82.512 17.896 82.572 17.728ZM86.436 18.808V19.768C86.688 19.744 87.084 19.732 87.276 19.732H92.796C93.06 19.732 93.384 19.744 93.636 19.768V18.808C93.396 18.832 93.096 18.856 92.796 18.856H87.264C87.072 18.856 86.7 18.832 86.436 18.808ZM89.484 24.64H90.444V19.348H89.484V24.64ZM85.86 24.088V25.084C86.148 25.06 86.448 25.048 86.712 25.048H93.348C93.54 25.048 93.912 25.06 94.152 25.084V24.088C93.912 24.112 93.636 24.136 93.348 24.136H86.712C86.448 24.136 86.136 24.124 85.86 24.088ZM105.06 15.028L104.4 15.304C104.7 15.736 105.108 16.42 105.348 16.912L106.02 16.612C105.78 16.156 105.348 15.448 105.06 15.028ZM106.608 14.728L105.948 15.004C106.272 15.412 106.656 16.108 106.92 16.6L107.592 16.312C107.34 15.844 106.896 15.136 106.608 14.728ZM106.14 17.188L105.408 16.72C105.192 16.78 104.952 16.792 104.772 16.792C104.22 16.792 99.432 16.792 98.748 16.792C98.352 16.792 97.884 16.744 97.548 16.708V17.776C97.86 17.752 98.268 17.728 98.748 17.728C99.432 17.728 104.196 17.728 104.88 17.728C104.724 18.88 104.16 20.56 103.308 21.64C102.312 22.924 100.956 23.944 98.64 24.532L99.456 25.432C101.652 24.736 103.08 23.632 104.172 22.216C105.12 20.992 105.708 19.048 105.96 17.788C106.008 17.56 106.068 17.356 106.14 17.188ZM116.64 19.492V16.648C116.64 16.18 116.688 15.796 116.7 15.676H115.608C115.632 15.784 115.668 16.18 115.668 16.648V19.564C115.668 22.936 114.588 23.968 112.404 24.796L113.208 25.564C115.944 24.328 116.64 22.684 116.64 19.492ZM112.308 15.748H111.24C111.276 16.024 111.3 16.36 111.3 16.612V21.016C111.3 21.472 111.252 21.988 111.24 22.096H112.308C112.296 21.988 112.26 21.46 112.26 21.016V16.612C112.26 16.204 112.296 15.856 112.308 15.748ZM108.804 18.076V19.108C108.936 19.108 109.476 19.072 110.004 19.072H117.96C118.488 19.072 118.92 19.096 119.052 19.108V18.088C118.884 18.112 118.488 18.16 117.948 18.16H110.004C109.5 18.16 108.912 18.088 108.804 18.076ZM121.032 20.668L121.5 21.604C123.432 21.004 125.34 20.128 126.66 19.312C128.064 18.436 129.324 17.428 130.356 16.36L129.552 15.604C128.724 16.612 127.524 17.644 126.264 18.436C124.932 19.264 123.108 20.116 121.032 20.668ZM126.072 18.928V24.1C126.072 24.544 126.036 25.144 126 25.372H127.188C127.128 25.144 127.104 24.544 127.104 24.1V18.616L126.072 18.928ZM136.032 23.944C136.032 24.388 136.02 24.988 135.96 25.372H137.124C137.076 24.976 137.052 24.328 137.052 23.944C137.052 23.38 137.04 18.832 137.04 16.972C137.04 16.6 137.076 16.084 137.124 15.712H135.948C136.008 16.096 136.032 16.624 136.032 16.972C136.032 17.968 136.032 23.272 136.032 23.944ZM136.824 18.868V19.924C138.132 20.332 140.376 21.184 141.744 21.916L142.164 20.896C140.832 20.248 138.408 19.324 136.824 18.868Z"/>
  </symbol>
  <symbol id="svg-copy-jp-3" viewBox="0 29 144 11">
    <path d="M5.46 30.9L5.472 31.872C6.78 32.016 9.108 32.016 10.392 31.872V30.9C9.204 31.08 6.768 31.128 5.46 30.9ZM5.928 35.796L5.064 35.712C4.932 36.288 4.872 36.72 4.872 37.116C4.872 38.244 5.772 38.916 7.776 38.916C9.024 38.916 10.032 38.82 10.776 38.664L10.752 37.656C9.792 37.884 8.856 37.98 7.788 37.98C6.144 37.98 5.76 37.44 5.76 36.888C5.76 36.564 5.82 36.228 5.928 35.796ZM3.18 29.976L2.112 29.892C2.1 30.156 2.064 30.456 2.028 30.732C1.884 31.728 1.488 33.78 1.488 35.544C1.488 37.176 1.692 38.556 1.932 39.408L2.784 39.348C2.772 39.216 2.76 39.048 2.748 38.928C2.748 38.784 2.772 38.556 2.808 38.388C2.916 37.812 3.36 36.552 3.66 35.7L3.156 35.304C2.952 35.796 2.676 36.516 2.472 37.056C2.4 36.468 2.364 35.964 2.364 35.388C2.364 34.032 2.736 31.896 2.964 30.78C3.012 30.564 3.108 30.18 3.18 29.976ZM18.312 33.516V34.368H22.452V33.516H18.312ZM17.916 33.516V38.4C17.916 39.552 18.288 39.84 19.536 39.84C19.812 39.84 21.648 39.84 21.948 39.84C23.148 39.84 23.424 39.3 23.556 37.368C23.304 37.308 22.92 37.152 22.704 36.996C22.632 38.664 22.536 38.976 21.888 38.976C21.48 38.976 19.92 38.976 19.608 38.976C18.948 38.976 18.816 38.88 18.816 38.412V33.516H17.916ZM17.784 29.604V30.456H22.008V35.04H22.92V29.604H17.784ZM13.02 32.556V33.276H16.764V32.556H13.02ZM13.092 29.352V30.072H16.812V29.352H13.092ZM13.02 34.164V34.884H16.764V34.164H13.02ZM12.456 30.924V31.668H17.232V30.924H12.456ZM13.44 35.784V36.528H15.924V38.532H13.44V39.288H16.728V35.784H13.44ZM13.008 35.784V39.84H13.812V35.784H13.008ZM32.76 29.532C33.372 30.024 34.08 30.744 34.404 31.224L35.088 30.732C34.74 30.24 34.02 29.568 33.396 29.076L32.76 29.532ZM24.636 31.584V32.34H35.4V31.584H24.636ZM25.176 29.892V30.612H30.396V29.892H25.176ZM24.972 33.144V33.816H30.612V33.144H24.972ZM24.78 38.076V38.772H30.66V38.076H24.78ZM27.36 28.92V32.22H28.224V28.92H27.36ZM25.932 36.192H29.652V36.876H25.932V36.192ZM25.932 35.004H29.652V35.676H25.932V35.004ZM25.248 34.476V37.404H30.348V34.476H25.248ZM27.42 34.788V37.212H27.372V39.972H28.176V37.212H28.116V34.788H27.42ZM27.36 32.376V34.656H28.188V32.376H27.36ZM31.056 28.944C31.092 34.908 31.86 39.96 34.212 39.96C35.1 39.96 35.412 39.396 35.556 37.488C35.328 37.404 35.016 37.224 34.824 37.032C34.752 38.508 34.62 39.084 34.296 39.084C32.808 39.084 31.908 34.668 31.968 28.944H31.056ZM34.056 33C33.24 35.64 31.704 37.98 29.58 39.3C29.808 39.48 30.084 39.756 30.216 39.972C32.412 38.496 33.972 36.048 34.86 33.252L34.056 33ZM42.276 30.504C42.408 30.876 42.576 31.428 42.84 32.112C43.236 33.204 43.896 34.392 44.4 35.16C43.968 35.112 43.08 35.04 42.408 34.98L42.336 35.772C43.2 35.832 44.664 35.964 45.24 36.108L45.72 35.424C45.54 35.232 45.36 35.028 45.204 34.788C44.688 34.092 44.076 32.976 43.704 31.944C43.428 31.164 43.116 30.132 43.008 29.436L41.976 29.556C42.096 29.88 42.204 30.24 42.276 30.504ZM37.884 31.44L37.908 32.388C40.032 32.568 41.94 32.556 43.464 32.376C44.34 32.268 45.48 32.076 46.332 31.836L46.224 30.888C45.288 31.212 44.1 31.428 43.152 31.536C41.784 31.68 39.888 31.668 37.884 31.44ZM39.744 35.256L38.808 35.04C38.46 35.748 38.22 36.372 38.22 37.044C38.22 38.676 39.66 39.492 41.94 39.504C43.284 39.516 44.292 39.384 45.048 39.252L45.084 38.292C44.256 38.472 43.212 38.592 42 38.592C40.212 38.568 39.168 38.076 39.168 36.924C39.168 36.36 39.384 35.844 39.744 35.256ZM59.688 38.088L59.532 37.068C58.92 37.704 58.284 38.052 57.72 38.052C57.288 38.052 57.084 37.728 57.084 37.32C57.084 36.108 57.54 34.044 57.54 32.844C57.54 31.872 56.988 31.236 55.86 31.236C54.384 31.236 52.392 32.964 51.648 33.78L51.636 34.968C52.764 33.6 54.504 32.112 55.632 32.112C56.244 32.112 56.592 32.412 56.592 33.108C56.592 34.272 56.148 36.24 56.148 37.584C56.148 38.568 56.676 39.096 57.48 39.096C58.296 39.096 59.04 38.736 59.688 38.088ZM51.624 32.352L51.528 32.676L51.48 33.3C51.012 34.092 49.392 36.288 48.648 37.224L49.248 38.04C50.004 36.996 51.12 35.376 51.672 34.524L52.032 32.88C52.236 32.544 52.56 32.028 52.764 31.716L52.416 31.308C51.864 31.488 50.364 31.668 49.728 31.704C49.428 31.728 49.2 31.728 48.936 31.716L49.044 32.712C49.932 32.568 51.228 32.412 51.624 32.352ZM51.504 30.372C51.504 30.816 51.216 34.62 51.192 35.676C51.18 36.996 51.168 37.596 51.168 38.76C51.168 38.952 51.156 39.24 51.132 39.468H52.164C52.152 39.24 52.116 38.94 52.104 38.736C52.056 37.668 52.056 36.936 52.056 35.844C52.056 33.732 52.416 30.3 52.584 29.52L51.456 29.484C51.516 29.784 51.504 30.096 51.504 30.372ZM60.6447 31.032L60.7527 32.088C62.0607 31.812 65.1087 31.512 66.4047 31.38C65.3007 32.028 64.1607 33.552 64.1607 35.424C64.1607 38.112 66.6807 39.288 68.9127 39.372L69.2487 38.388C67.3047 38.304 65.1087 37.56 65.1087 35.22C65.1087 33.804 66.1527 31.968 67.8687 31.416C68.4807 31.248 69.5247 31.224 70.2207 31.236L70.2087 30.276C69.4047 30.3 68.2887 30.372 66.9807 30.48C64.7607 30.672 62.5047 30.888 61.7247 30.972C61.4847 30.996 61.1007 31.02 60.6447 31.032ZM74.3127 30.636L73.1487 30.612C73.2207 30.888 73.2207 31.404 73.2207 31.68C73.2207 32.376 73.2447 33.84 73.3527 34.872C73.6887 37.98 74.7687 39.108 75.9087 39.108C76.7247 39.108 77.4447 38.412 78.1767 36.384L77.4207 35.532C77.1087 36.732 76.5447 37.968 75.9327 37.968C75.0687 37.968 74.4927 36.636 74.2887 34.632C74.2047 33.648 74.1927 32.544 74.2047 31.8C74.2167 31.488 74.2527 30.912 74.3127 30.636ZM80.5527 30.96L79.6287 31.284C80.7687 32.688 81.5007 35.16 81.7047 37.32L82.6767 36.936C82.4967 34.908 81.6327 32.352 80.5527 30.96ZM86.4927 30.168L86.5167 31.152C86.7807 31.116 87.0447 31.104 87.3207 31.08C87.9447 31.044 90.3447 30.948 90.9807 30.912C90.3807 31.452 88.8687 32.712 88.1967 33.264C87.5127 33.852 85.9647 35.148 84.9687 35.964L85.6647 36.66C87.1767 35.112 88.2567 34.272 90.2487 34.272C91.8207 34.272 92.9487 35.148 92.9487 36.336C92.9487 37.836 91.6647 38.676 89.6247 38.676C88.6767 38.676 88.0167 38.328 88.0167 37.74C88.0167 37.32 88.4367 36.984 88.9887 36.984C89.9487 36.984 90.5367 37.716 90.6087 38.736L91.4727 38.592C91.3887 37.38 90.5847 36.252 88.9887 36.252C87.8847 36.252 87.1407 36.996 87.1407 37.812C87.1407 38.82 88.1367 39.528 89.7687 39.528C92.3127 39.528 93.9087 38.268 93.9087 36.336C93.9087 34.716 92.4807 33.528 90.4887 33.528C89.9487 33.528 89.3727 33.588 88.8207 33.768C89.7567 33 91.3887 31.596 91.9767 31.14C92.2047 30.96 92.4447 30.804 92.6607 30.66L92.1087 29.952C91.9767 30 91.8087 30.024 91.4487 30.06C90.8127 30.12 87.9687 30.204 87.3327 30.204C87.0927 30.204 86.7567 30.192 86.4927 30.168ZM100.761 35.796V36.492H105.537V35.796H100.761ZM99.6447 29.868V30.552H106.773V29.868H99.6447ZM99.9327 31.32V31.98H106.473V31.32H99.9327ZM99.2727 32.82V33.504H107.121V32.82H99.2727ZM100.761 37.404V38.076H105.573V37.404H100.761ZM100.149 34.212V39.948H100.989V34.908H105.537V34.212H100.149ZM105.321 34.212V38.94C105.321 39.096 105.273 39.144 105.105 39.144C104.937 39.156 104.361 39.156 103.761 39.132C103.869 39.36 103.989 39.696 104.025 39.912C104.877 39.924 105.417 39.912 105.753 39.78C106.089 39.648 106.185 39.408 106.185 38.952V34.212H105.321ZM102.717 28.92V33.036H103.605V28.92H102.717ZM97.4487 28.92V39.948H98.2767V28.92H97.4487ZM96.5007 31.236C96.4287 32.184 96.2367 33.504 95.9607 34.332L96.6567 34.56C96.9327 33.66 97.1367 32.268 97.1727 31.332L96.5007 31.236ZM98.3847 30.924C98.6247 31.488 98.9007 32.232 99.0207 32.688L99.6447 32.388C99.5367 31.944 99.2487 31.236 98.9847 30.684L98.3847 30.924ZM114.309 33.564V34.308H118.233V33.564H114.309ZM113.853 29.484V39.972H114.681V30.288H118.149V29.484H113.853ZM117.717 29.484V31.788C117.717 31.92 117.669 31.968 117.477 31.98C117.285 31.992 116.661 31.992 115.917 31.968C116.037 32.196 116.157 32.52 116.193 32.76C117.117 32.76 117.717 32.748 118.089 32.616C118.461 32.484 118.557 32.244 118.557 31.8V29.484H117.717ZM115.485 34.056L114.777 34.236C115.485 36.732 116.817 38.916 118.665 39.96C118.809 39.732 119.085 39.408 119.289 39.228C117.489 38.352 116.133 36.3 115.485 34.056ZM117.957 33.564V33.756C117.585 35.952 116.457 38.196 114.657 39.372C114.861 39.528 115.125 39.78 115.257 39.984C117.177 38.688 118.365 36.324 118.833 33.72L118.281 33.516L118.125 33.564H117.957ZM108.561 30.156V30.936H113.013V30.156H108.561ZM108.417 36.72V37.5H113.169V36.72H108.417ZM108.129 32.136V32.916H113.469V32.136H108.129ZM108.297 34.632V35.412H113.325V34.632H108.297ZM110.409 28.944V32.412H111.249V28.944H110.409ZM110.409 34.956V39.936H111.249V34.956H110.409ZM112.029 32.868C111.897 33.336 111.633 34.044 111.429 34.488L112.101 34.692C112.329 34.272 112.557 33.648 112.797 33.072L112.029 32.868ZM108.969 33.06C109.209 33.588 109.437 34.272 109.497 34.704L110.217 34.5C110.157 34.08 109.917 33.396 109.653 32.892L108.969 33.06ZM125.157 29.52L124.173 29.436C124.137 30 123.969 30.72 123.705 31.38C123.297 32.4 122.493 33.792 120.765 35.448L121.593 36.06C121.989 35.568 122.325 35.136 122.673 34.8C123.225 34.308 123.981 33.924 124.749 33.924C125.373 33.924 125.853 34.248 125.865 34.944C125.877 35.568 125.865 36.804 125.817 37.44H126.741C126.729 36.696 126.705 35.316 126.705 34.692C126.705 33.72 125.985 33.168 125.061 33.168C124.533 33.168 123.849 33.336 123.381 33.612C123.861 32.988 124.305 32.184 124.605 31.452C124.917 30.648 125.049 29.988 125.157 29.52ZM121.041 30.816V31.716C121.713 31.764 122.505 31.788 123.021 31.788C124.545 31.788 126.777 31.68 128.457 31.428V30.54C126.765 30.84 124.689 30.936 123.069 30.936C122.517 30.936 121.689 30.9 121.041 30.816ZM130.209 33.708L129.825 32.82C129.489 32.988 129.189 33.12 128.829 33.288C128.037 33.66 127.065 34.032 125.925 34.62C124.497 35.352 123.009 36.252 123.009 37.716C123.009 39.168 124.389 39.54 126.093 39.54C127.137 39.54 128.469 39.444 129.381 39.336L129.417 38.364C128.361 38.556 127.065 38.664 126.129 38.664C124.893 38.664 123.969 38.52 123.969 37.584C123.969 36.756 124.809 36.108 125.997 35.484C127.161 34.884 128.301 34.428 129.153 34.092C129.477 33.972 129.909 33.804 130.209 33.708ZM138.261 35.868L137.769 36.564H141.717V35.868H138.261ZM141.441 35.868V36.012C140.565 37.86 138.309 38.796 135.765 39.204C135.921 39.384 136.149 39.768 136.233 39.984C138.873 39.468 141.273 38.376 142.341 36.144L141.813 35.832L141.633 35.868H141.441ZM138.177 36.348L137.421 36.588C138.441 38.364 140.373 39.504 142.761 39.972C142.881 39.732 143.121 39.372 143.325 39.18C140.997 38.832 139.065 37.836 138.177 36.348ZM137.997 33.672H141.501V34.488H137.997V33.672ZM137.997 32.292H141.501V33.084H137.997V32.292ZM137.169 31.668V35.1H142.353V31.668H137.169ZM137.517 30.132V30.9H143.085V30.132H137.517ZM137.793 28.92C137.469 29.856 136.845 31.056 135.933 31.968C136.137 32.064 136.425 32.304 136.581 32.484C137.565 31.452 138.201 30.18 138.657 29.064L137.793 28.92ZM138.717 34.836C138.189 35.676 137.205 36.66 135.825 37.38C136.017 37.512 136.293 37.776 136.425 37.968C137.889 37.128 138.921 36.06 139.605 35.004L138.717 34.836ZM133.797 34.812V39.972H134.613V33.828L133.797 34.812ZM132.273 31.212V32.004H135.537V31.212H132.273ZM133.761 28.992V31.644H134.577V28.992H133.761ZM134.505 33.888L134.049 34.272C134.421 34.728 135.369 36.024 135.681 36.588L136.209 35.976C135.957 35.628 134.817 34.224 134.505 33.888ZM135.225 31.212V31.392C134.637 33.228 133.281 35.172 131.985 36.216C132.129 36.372 132.357 36.768 132.453 36.984C133.833 35.784 135.297 33.66 136.017 31.464L135.549 31.164L135.393 31.212H135.225ZM135.909 33.396C135.693 33.84 135.285 34.512 134.997 34.92L135.417 35.244C135.729 34.872 136.113 34.296 136.437 33.78L135.909 33.396Z"/>
  </symbol>
  <symbol id="svg-copy-jp-4" viewBox="0 43 144 11">
    <path d="M0.936 43.58V46.208H1.824V44.42H10.152V46.208H11.088V43.58H0.936ZM3.72 45.932V46.724H9.324V45.932H3.72ZM3.312 48.176V48.98H8.508V48.176H3.312ZM0.648 50.396V51.236H11.376V50.396H0.648ZM8.28 48.176L8.268 48.32C8.016 51.392 7.74 52.676 7.332 53.024C7.188 53.144 7.044 53.156 6.768 53.156C6.468 53.156 5.64 53.156 4.812 53.072C4.968 53.312 5.088 53.672 5.112 53.924C5.892 53.972 6.672 53.984 7.068 53.96C7.524 53.936 7.8 53.852 8.088 53.576C8.568 53.096 8.856 51.824 9.144 48.584C9.156 48.452 9.18 48.176 9.18 48.176H8.28ZM3.588 44.504C3.324 46.016 2.868 48.068 2.52 49.292L3.432 49.376C3.756 48.176 4.2 46.148 4.488 44.6L3.588 44.504ZM19.524 43.496H18.42C18.444 43.604 18.48 43.94 18.504 44.264C18.54 44.924 18.552 47.312 18.552 47.84L19.464 48.308C19.452 47.348 19.428 45.032 19.464 44.252C19.464 44.108 19.5 43.64 19.524 43.496ZM13.14 45.176L13.164 46.1C14.976 45.968 17.544 45.884 19.608 45.884C21.372 45.884 22.452 45.908 23.124 45.944L23.136 45.056C22.572 45.044 21.084 45.044 19.62 45.044C17.772 45.044 14.772 45.152 13.14 45.176ZM19.44 48.656L18.78 48.32C18.972 49.604 18.492 50.228 17.748 50.228C17.088 50.228 16.524 49.796 16.524 49.04C16.524 48.26 17.112 47.768 17.748 47.768C18.396 47.768 18.924 48.224 18.924 49.304C18.924 51.284 17.652 52.352 15.468 52.868L16.272 53.648C19.056 52.82 19.848 51.02 19.848 49.388C19.848 48.008 19.14 46.976 17.748 46.976C16.608 46.976 15.624 47.864 15.624 49.052C15.624 50.36 16.596 51.068 17.604 51.068C18.696 51.068 19.44 50.264 19.44 48.656ZM26.856 44.168L26.88 45.152C27.144 45.116 27.408 45.104 27.684 45.08C28.308 45.044 30.708 44.948 31.344 44.912C30.744 45.452 29.232 46.712 28.56 47.264C27.876 47.852 26.328 49.148 25.332 49.964L26.028 50.66C27.54 49.112 28.62 48.272 30.612 48.272C32.184 48.272 33.312 49.148 33.312 50.336C33.312 51.836 32.028 52.676 29.988 52.676C29.04 52.676 28.38 52.328 28.38 51.74C28.38 51.32 28.8 50.984 29.352 50.984C30.312 50.984 30.9 51.716 30.972 52.736L31.836 52.592C31.752 51.38 30.948 50.252 29.352 50.252C28.248 50.252 27.504 50.996 27.504 51.812C27.504 52.82 28.5 53.528 30.132 53.528C32.676 53.528 34.272 52.268 34.272 50.336C34.272 48.716 32.844 47.528 30.852 47.528C30.312 47.528 29.736 47.588 29.184 47.768C30.12 47 31.752 45.596 32.34 45.14C32.568 44.96 32.808 44.804 33.024 44.66L32.472 43.952C32.34 44 32.172 44.024 31.812 44.06C31.176 44.12 28.332 44.204 27.696 44.204C27.456 44.204 27.12 44.192 26.856 44.168ZM38.808 44.588V45.56C39.756 45.644 40.788 45.692 41.988 45.692C43.092 45.692 44.4 45.608 45.216 45.548V44.564C44.352 44.66 43.14 44.732 41.988 44.732C40.776 44.732 39.672 44.684 38.808 44.588ZM39.288 49.424L38.316 49.328C38.208 49.808 38.076 50.372 38.076 50.996C38.076 52.508 39.492 53.3 41.928 53.3C43.632 53.3 45.156 53.12 46.02 52.892L46.008 51.86C45.096 52.148 43.548 52.328 41.904 52.328C39.984 52.328 39.048 51.704 39.048 50.78C39.048 50.336 39.144 49.892 39.288 49.424ZM57.756 45.848L57.24 44.984C56.988 45.188 56.724 45.344 56.376 45.548C55.596 45.992 53.916 46.796 52.692 47.612C51.276 48.548 50.4 49.568 50.4 50.864C50.4 52.664 52.032 53.336 54.288 53.336C55.788 53.336 57.18 53.204 58.08 53.048L58.092 51.968C57.156 52.208 55.548 52.376 54.252 52.376C52.356 52.376 51.396 51.752 51.396 50.756C51.396 49.856 52.068 49.064 53.184 48.332C54.36 47.564 56.028 46.772 56.832 46.352C57.192 46.172 57.492 46.004 57.756 45.848ZM51.684 43.664L50.736 44.072C51.384 45.56 52.104 47.18 52.716 48.164L53.532 47.672C52.98 46.7 52.236 45.2 51.684 43.664ZM64.776 45.908L64.788 46.82C65.484 46.868 66.108 46.892 66.804 46.892C68.208 46.892 69.672 46.796 70.944 46.58V45.656C69.732 45.908 68.256 46.016 66.816 46.016C66.108 46.016 65.46 45.98 64.776 45.908ZM68.976 43.76H67.896C67.932 43.976 67.944 44.288 67.944 44.504C67.944 44.924 67.956 45.68 67.956 46.508C67.956 48.092 68.112 50.336 68.112 51.2C68.112 52.004 67.824 52.508 66.816 52.508C65.94 52.508 65.352 52.184 65.352 51.56C65.352 50.984 65.976 50.588 66.876 50.588C68.4 50.588 69.612 51.404 70.872 52.58L71.388 51.788C70.38 50.876 68.976 49.856 66.96 49.856C65.376 49.856 64.488 50.648 64.488 51.656C64.488 52.736 65.364 53.384 66.972 53.384C68.592 53.384 69.048 52.424 69.048 51.44C69.048 50.204 68.868 48.332 68.868 46.484C68.868 45.776 68.88 44.924 68.904 44.48C68.916 44.252 68.94 44 68.976 43.76ZM63.06 43.844L62.004 43.748C61.992 44.012 61.968 44.324 61.92 44.612C61.776 45.596 61.368 47.888 61.368 49.652C61.368 51.272 61.596 52.592 61.824 53.456L62.676 53.384C62.664 53.264 62.652 53.084 62.64 52.964C62.628 52.832 62.652 52.592 62.688 52.424C62.808 51.836 63.252 50.612 63.552 49.772L63.06 49.388C62.856 49.88 62.556 50.612 62.364 51.164C62.28 50.576 62.244 50.072 62.244 49.484C62.244 48.14 62.604 45.764 62.844 44.648C62.892 44.432 62.988 44.036 63.06 43.844ZM72.3457 50.5625L73.3711 50.4219C73.3984 51.0781 73.5215 51.5273 73.7402 51.7695C73.959 52.0117 74.2617 52.1328 74.6484 52.1328C74.9336 52.1328 75.1797 52.0684 75.3867 51.9395C75.5938 51.8066 75.7363 51.6289 75.8145 51.4062C75.8926 51.1797 75.9316 50.8203 75.9316 50.3281V44.4102H77.0684V50.2637C77.0684 50.9824 76.9805 51.5391 76.8047 51.9336C76.6328 52.3281 76.3574 52.6289 75.9785 52.8359C75.6035 53.043 75.1621 53.1465 74.6543 53.1465C73.9004 53.1465 73.3223 52.9297 72.9199 52.4961C72.5215 52.0625 72.3301 51.418 72.3457 50.5625ZM82.8691 53V52.0859C82.3848 52.7891 81.7266 53.1406 80.8945 53.1406C80.5273 53.1406 80.1836 53.0703 79.8633 52.9297C79.5469 52.7891 79.3105 52.6133 79.1543 52.4023C79.002 52.1875 78.8945 51.9258 78.832 51.6172C78.7891 51.4102 78.7676 51.082 78.7676 50.6328V46.7773H79.8223V50.2285C79.8223 50.7793 79.8438 51.1504 79.8867 51.3418C79.9531 51.6191 80.0938 51.8379 80.3086 51.998C80.5234 52.1543 80.7891 52.2324 81.1055 52.2324C81.4219 52.2324 81.7188 52.1523 81.9961 51.9922C82.2734 51.8281 82.4688 51.6074 82.582 51.3301C82.6992 51.0488 82.7578 50.6426 82.7578 50.1113V46.7773H83.8125V53H82.8691ZM85.0488 51.1426L86.0918 50.9785C86.1504 51.3965 86.3125 51.7168 86.5781 51.9395C86.8477 52.1621 87.2227 52.2734 87.7031 52.2734C88.1875 52.2734 88.5469 52.1758 88.7812 51.9805C89.0156 51.7812 89.1328 51.5488 89.1328 51.2832C89.1328 51.0449 89.0293 50.8574 88.8223 50.7207C88.6777 50.627 88.3184 50.5078 87.7441 50.3633C86.9707 50.168 86.4336 50 86.1328 49.8594C85.8359 49.7148 85.6094 49.5176 85.4531 49.2676C85.3008 49.0137 85.2246 48.7344 85.2246 48.4297C85.2246 48.1523 85.2871 47.8965 85.4121 47.6621C85.541 47.4238 85.7148 47.2266 85.9336 47.0703C86.0977 46.9492 86.3203 46.8477 86.6016 46.7656C86.8867 46.6797 87.1914 46.6367 87.5156 46.6367C88.0039 46.6367 88.4316 46.707 88.7988 46.8477C89.1699 46.9883 89.4434 47.1797 89.6191 47.4219C89.7949 47.6602 89.916 47.9805 89.9824 48.3828L88.9512 48.5234C88.9043 48.2031 88.7676 47.9531 88.541 47.7734C88.3184 47.5938 88.002 47.5039 87.5918 47.5039C87.1074 47.5039 86.7617 47.584 86.5547 47.7441C86.3477 47.9043 86.2441 48.0918 86.2441 48.3066C86.2441 48.4434 86.2871 48.5664 86.373 48.6758C86.459 48.7891 86.5938 48.8828 86.7773 48.957C86.8828 48.9961 87.1934 49.0859 87.709 49.2266C88.4551 49.4258 88.9746 49.5898 89.2676 49.7188C89.5645 49.8438 89.7969 50.0273 89.9648 50.2695C90.1328 50.5117 90.2168 50.8125 90.2168 51.1719C90.2168 51.5234 90.1133 51.8555 89.9062 52.168C89.7031 52.4766 89.4082 52.7168 89.0215 52.8887C88.6348 53.0566 88.1973 53.1406 87.709 53.1406C86.9004 53.1406 86.2832 52.9727 85.8574 52.6367C85.4355 52.3008 85.166 51.8027 85.0488 51.1426ZM93.7734 52.0566L93.9258 52.9883C93.6289 53.0508 93.3633 53.082 93.1289 53.082C92.7461 53.082 92.4492 53.0215 92.2383 52.9004C92.0273 52.7793 91.8789 52.6211 91.793 52.4258C91.707 52.2266 91.6641 51.8105 91.6641 51.1777V47.5977H90.8906V46.7773H91.6641V45.2363L92.7129 44.6035V46.7773H93.7734V47.5977H92.7129V51.2363C92.7129 51.5371 92.7305 51.7305 92.7656 51.8164C92.8047 51.9023 92.8652 51.9707 92.9473 52.0215C93.0332 52.0723 93.1543 52.0977 93.3105 52.0977C93.4277 52.0977 93.582 52.084 93.7734 52.0566ZM95.0625 53V47.5977H94.1309V46.7773H95.0625V46.1152C95.0625 45.6973 95.0996 45.3867 95.1738 45.1836C95.2754 44.9102 95.4531 44.6895 95.707 44.5215C95.9648 44.3496 96.3242 44.2637 96.7852 44.2637C97.082 44.2637 97.4102 44.2988 97.7695 44.3691L97.6113 45.2891C97.3926 45.25 97.1855 45.2305 96.9902 45.2305C96.6699 45.2305 96.4434 45.2988 96.3105 45.4355C96.1777 45.5723 96.1113 45.8281 96.1113 46.2031V46.7773H97.3242V47.5977H96.1113V53H95.0625ZM97.7578 49.8887C97.7578 48.7363 98.0781 47.8828 98.7188 47.3281C99.2539 46.8672 99.9062 46.6367 100.676 46.6367C101.531 46.6367 102.23 46.918 102.773 47.4805C103.316 48.0391 103.588 48.8125 103.588 49.8008C103.588 50.6016 103.467 51.2324 103.225 51.6934C102.986 52.1504 102.637 52.5059 102.176 52.7598C101.719 53.0137 101.219 53.1406 100.676 53.1406C99.8047 53.1406 99.0996 52.8613 98.5605 52.3027C98.0254 51.7441 97.7578 50.9395 97.7578 49.8887ZM98.8418 49.8887C98.8418 50.6855 99.0156 51.2832 99.3633 51.6816C99.7109 52.0762 100.148 52.2734 100.676 52.2734C101.199 52.2734 101.635 52.0742 101.982 51.6758C102.33 51.2773 102.504 50.6699 102.504 49.8535C102.504 49.084 102.328 48.502 101.977 48.1074C101.629 47.709 101.195 47.5098 100.676 47.5098C100.148 47.5098 99.7109 47.707 99.3633 48.1016C99.0156 48.4961 98.8418 49.0918 98.8418 49.8887ZM104.818 53V46.7773H105.768V47.7207C106.01 47.2793 106.232 46.9883 106.436 46.8477C106.643 46.707 106.869 46.6367 107.115 46.6367C107.471 46.6367 107.832 46.75 108.199 46.9766L107.836 47.9551C107.578 47.8027 107.32 47.7266 107.062 47.7266C106.832 47.7266 106.625 47.7969 106.441 47.9375C106.258 48.0742 106.127 48.2656 106.049 48.5117C105.932 48.8867 105.873 49.2969 105.873 49.7422V53H104.818ZM113.086 50.9961L114.176 51.1309C114.004 51.7676 113.686 52.2617 113.221 52.6133C112.756 52.9648 112.162 53.1406 111.439 53.1406C110.529 53.1406 109.807 52.8613 109.271 52.3027C108.74 51.7402 108.475 50.9531 108.475 49.9414C108.475 48.8945 108.744 48.082 109.283 47.5039C109.822 46.9258 110.521 46.6367 111.381 46.6367C112.213 46.6367 112.893 46.9199 113.42 47.4863C113.947 48.0527 114.211 48.8496 114.211 49.877C114.211 49.9395 114.209 50.0332 114.205 50.1582H109.564C109.604 50.8418 109.797 51.3652 110.145 51.7285C110.492 52.0918 110.926 52.2734 111.445 52.2734C111.832 52.2734 112.162 52.1719 112.436 51.9688C112.709 51.7656 112.926 51.4414 113.086 50.9961ZM109.623 49.291H113.098C113.051 48.7676 112.918 48.375 112.699 48.1133C112.363 47.707 111.928 47.5039 111.393 47.5039C110.908 47.5039 110.5 47.666 110.168 47.9902C109.84 48.3145 109.658 48.748 109.623 49.291ZM114.803 53L117.076 49.7656L114.973 46.7773H116.291L117.246 48.2363C117.426 48.5137 117.57 48.7461 117.68 48.9336C117.852 48.6758 118.01 48.4473 118.154 48.248L119.203 46.7773H120.463L118.312 49.707L120.627 53H119.332L118.055 51.0664L117.715 50.5449L116.08 53H114.803ZM126.175 44.9L126.187 45.872C127.495 46.016 129.823 46.016 131.107 45.872V44.9C129.919 45.08 127.483 45.128 126.175 44.9ZM126.643 49.796L125.779 49.712C125.647 50.288 125.587 50.72 125.587 51.116C125.587 52.244 126.487 52.916 128.491 52.916C129.739 52.916 130.747 52.82 131.491 52.664L131.467 51.656C130.507 51.884 129.571 51.98 128.503 51.98C126.859 51.98 126.475 51.44 126.475 50.888C126.475 50.564 126.535 50.228 126.643 49.796ZM123.895 43.976L122.827 43.892C122.815 44.156 122.779 44.456 122.743 44.732C122.599 45.728 122.203 47.78 122.203 49.544C122.203 51.176 122.407 52.556 122.647 53.408L123.499 53.348C123.487 53.216 123.475 53.048 123.463 52.928C123.463 52.784 123.487 52.556 123.523 52.388C123.631 51.812 124.075 50.552 124.375 49.7L123.871 49.304C123.667 49.796 123.391 50.516 123.187 51.056C123.115 50.468 123.079 49.964 123.079 49.388C123.079 48.032 123.451 45.896 123.679 44.78C123.727 44.564 123.823 44.18 123.895 43.976ZM139.207 43.58H138.067C138.115 43.808 138.151 44.336 138.163 44.78C138.163 45.296 138.175 46.28 138.175 46.976C138.175 48.2 138.319 50.528 138.319 51.416C138.319 52.244 137.887 52.664 137.011 52.664C135.847 52.664 135.175 52.292 135.175 51.632C135.175 50.96 135.883 50.54 137.131 50.54C139.231 50.54 141.199 51.716 142.399 52.916L142.975 52.016C141.751 50.9 139.615 49.7 137.239 49.7C135.163 49.7 134.227 50.576 134.227 51.668C134.227 53.036 135.439 53.552 137.107 53.552C138.703 53.552 139.303 52.712 139.303 51.74C139.303 50.684 139.111 48.284 139.111 46.976C139.111 46.148 139.111 45.32 139.111 44.78C139.123 44.42 139.159 43.844 139.207 43.58ZM138.583 46.004V46.892C139.447 46.892 141.403 46.808 142.699 46.688L142.663 45.788C141.367 45.944 139.411 46.004 138.583 46.004Z"/>
  </symbol>
  <symbol id="svg-copy-jp-5" viewBox="0 57 143 11">
    <path d="M2.856 58.168L2.88 59.152C3.144 59.116 3.408 59.104 3.684 59.08C4.308 59.044 6.708 58.948 7.344 58.912C6.744 59.452 5.232 60.712 4.56 61.264C3.876 61.852 2.328 63.148 1.332 63.964L2.028 64.66C3.54 63.112 4.62 62.272 6.612 62.272C8.184 62.272 9.312 63.148 9.312 64.336C9.312 65.836 8.028 66.676 5.988 66.676C5.04 66.676 4.38 66.328 4.38 65.74C4.38 65.32 4.8 64.984 5.352 64.984C6.312 64.984 6.9 65.716 6.972 66.736L7.836 66.592C7.752 65.38 6.948 64.252 5.352 64.252C4.248 64.252 3.504 64.996 3.504 65.812C3.504 66.82 4.5 67.528 6.132 67.528C8.676 67.528 10.272 66.268 10.272 64.336C10.272 62.716 8.844 61.528 6.852 61.528C6.312 61.528 5.736 61.588 5.184 61.768C6.12 61 7.752 59.596 8.34 59.14C8.568 58.96 8.808 58.804 9.024 58.66L8.472 57.952C8.34 58 8.172 58.024 7.812 58.06C7.176 58.12 4.332 58.204 3.696 58.204C3.456 58.204 3.12 58.192 2.856 58.168ZM13.452 57.664V58.492H16.056V63.988H13.452V64.828H16.896V57.664H13.452ZM13.464 60.772V61.588H16.416V60.772H13.464ZM18.528 57.436V58.276H22.572V57.436H18.528ZM18.528 60.352V61.18H22.572V60.352H18.528ZM18.456 63.304V64.12H22.548V63.304H18.456ZM12.96 57.664V65.944H13.8V57.664H12.96ZM22.236 57.436V66.772C22.236 66.988 22.164 67.06 21.948 67.072C21.732 67.072 20.976 67.084 20.208 67.06C20.34 67.3 20.484 67.696 20.532 67.936C21.564 67.936 22.224 67.924 22.608 67.78C22.992 67.624 23.136 67.348 23.136 66.784V57.436H22.236ZM18 57.436V61.72C18 63.592 17.796 65.872 15.768 67.432C15.96 67.552 16.296 67.864 16.428 68.044C18.588 66.388 18.888 63.736 18.888 61.72V57.436H18ZM30.252 62.728V63.424H34.944V62.728H30.252ZM30.252 64.696V65.404H34.944V64.696H30.252ZM30.264 66.676V67.444H35.508V66.676H30.264ZM28.896 58.156V60.208H29.676V58.936H34.644V60.208H35.448V58.156H28.896ZM32.208 61.3V67.084H33.048V61.3H32.208ZM30.576 60.724H30.504L29.724 61.54V67.96H30.576V61.504H35.148V60.724H30.576ZM31.704 56.92C31.116 59.128 30.012 60.988 28.428 62.14C28.62 62.296 28.944 62.632 29.076 62.8C30.696 61.516 31.884 59.524 32.568 57.088L31.704 56.92ZM32.952 59.296C32.808 59.824 32.496 60.58 32.244 61.06L32.94 61.264C33.192 60.808 33.516 60.136 33.804 59.512L32.952 59.296ZM24.624 57.736V58.564H28.86V57.736H24.624ZM25.836 61.24V62.044H27.756V65.704H25.836V66.496H28.548V61.24H25.836ZM26.04 58.132C25.752 60.388 25.236 62.512 24.276 63.868C24.444 64.072 24.696 64.516 24.792 64.72C25.908 63.148 26.532 60.784 26.904 58.264L26.04 58.132ZM25.464 61.24V67.432H26.22V61.24H25.464ZM37.152 59.44L37.224 60.34C37.668 60.352 38.184 60.364 38.628 60.364C40.092 60.376 41.664 60.112 42.84 59.788L42.816 58.9C41.436 59.356 39.924 59.512 38.628 59.512C38.112 59.512 37.596 59.488 37.152 59.44ZM41.412 57.484L40.356 57.376C40.32 58.216 40.056 59.272 39.792 60.028C39.3 61.444 38.184 63.58 37.116 64.828L38.04 65.308C39.036 63.964 40.14 61.78 40.716 60.052C41.004 59.2 41.256 58.072 41.412 57.484ZM44.244 61.192H43.296C43.344 62.512 43.476 64.66 43.476 65.572C43.476 66.22 43.14 66.748 42.144 66.748C41.208 66.748 40.74 66.364 40.74 65.812C40.74 65.26 41.34 64.852 42.228 64.852C43.992 64.852 45.372 65.92 46.296 66.76L46.8 65.944C45.816 65.092 44.268 64.084 42.252 64.084C40.908 64.084 39.864 64.78 39.864 65.884C39.864 67.084 40.932 67.612 42.252 67.612C43.74 67.612 44.352 66.832 44.352 65.872C44.352 65.08 44.244 63.256 44.22 62.476C44.208 62.044 44.208 61.684 44.244 61.192ZM46.644 61.504L47.184 60.712C46.608 60.28 45.252 59.5 44.376 59.128L43.896 59.848C44.688 60.22 45.996 60.952 46.644 61.504ZM50.196 64.252V67.996H51.072V64.888H57.012V67.972H57.924V64.252H50.196ZM50.652 65.608V66.208H57.36V65.608H50.652ZM50.652 66.976V67.6H57.36V66.976H50.652ZM53.496 56.908V63.424H54.408V56.908H53.496ZM49.944 57.748V58.348H56.964V60.436H49.8V61.024H57.864V57.748H49.944ZM48.672 59.044V59.716H59.328V59.044H48.672ZM49.476 61.696V62.308H58.524V61.696H49.476ZM48.648 63.016V63.688H59.34V63.016H48.648ZM64.26 62.26V63.004H67.548V62.26H64.26ZM64.26 64.348V65.092H67.584V64.348H64.26ZM61.788 66.496V67.336H70.26V66.496H61.788ZM61.236 60.088V67.972H62.112V60.928H69.84V67.972H70.752V60.088H61.236ZM63.84 60.616V66.88H64.656V60.616H63.84ZM67.2 60.616V66.844H68.028V60.616H67.2ZM65.4 58.12C65.316 58.816 65.076 59.812 64.884 60.46L65.7 60.688C65.94 60.088 66.192 59.164 66.444 58.36L65.4 58.12ZM60.696 57.724V58.588H71.328V57.724H60.696ZM78.756 58.816L77.76 58.792C77.64 60.04 77.388 61.396 77.04 62.536C76.428 64.564 75.78 65.38 75.216 65.38C74.676 65.38 73.992 64.708 73.992 63.196C73.992 61.432 75.636 59.26 78.276 59.26C80.58 59.26 81.912 60.844 81.912 62.764C81.912 64.84 80.4 65.992 78.864 66.34C78.576 66.4 78.216 66.448 77.832 66.484L78.384 67.372C81.24 67 82.896 65.32 82.896 62.812C82.896 60.376 81.108 58.396 78.3 58.396C75.36 58.396 73.044 60.664 73.044 63.268C73.044 65.26 74.112 66.484 75.192 66.484C76.296 66.484 77.256 65.212 77.988 62.752C78.36 61.468 78.6 60.064 78.756 58.816ZM90.48 58.72V59.548H95.292V58.72H90.48ZM89.136 62.344V63.22H95.556V62.344H89.136ZM91.932 59.056V67.96H92.844V59.056H91.932ZM90.624 56.908C90.264 58.492 89.628 60.04 88.776 61.036C89.004 61.156 89.4 61.396 89.58 61.54C90.408 60.46 91.104 58.816 91.524 57.088L90.624 56.908ZM85.02 60.556V61.276H88.764V60.556H85.02ZM85.092 57.352V58.072H88.776V57.352H85.092ZM85.02 62.164V62.884H88.764V62.164H85.02ZM84.456 58.924V59.668H89.232V58.924H84.456ZM85.44 63.784V64.528H87.924V66.532H85.44V67.288H88.728V63.784H85.44ZM85.008 63.784V67.84H85.812V63.784H85.008ZM104.952 58.048V66.652C104.952 66.904 104.868 66.988 104.604 67C104.316 67.012 103.344 67.024 102.372 66.976C102.516 67.24 102.696 67.684 102.756 67.948C103.944 67.948 104.784 67.936 105.264 67.78C105.732 67.636 105.888 67.324 105.888 66.676V58.048H104.952ZM97.896 60.448V65.884H98.772V60.448H97.896ZM98.268 60.448V61.3H101.916V64.06H98.268V64.924H102.816V60.448H98.268ZM96.66 57.772V58.684H107.364V57.772H96.66ZM113.088 57.688L111.972 57.568C111.972 58.492 111.816 59.572 111.588 60.532C111.264 61.996 110.304 65.2 108.936 67.036L109.92 67.42C111.276 65.236 112.128 62.248 112.536 60.556C112.704 59.812 112.86 58.828 112.944 58.396C112.992 58.168 113.04 57.904 113.088 57.688ZM117.216 59.068L116.34 59.464C117.18 60.46 118.128 62.548 118.476 63.772L119.412 63.328C119.004 62.224 117.96 60.04 117.216 59.068ZM108.768 60.316L108.864 61.36C109.176 61.312 109.668 61.252 109.944 61.216C110.676 61.144 112.932 60.868 113.736 60.868C114.504 60.868 115.008 61.072 115.008 62.176C115.008 63.472 114.816 65.032 114.432 65.848C114.192 66.364 113.832 66.46 113.388 66.46C113.052 66.46 112.416 66.376 111.912 66.22L112.08 67.216C112.452 67.312 113.028 67.396 113.484 67.396C114.264 67.396 114.864 67.192 115.236 66.388C115.74 65.392 115.932 63.484 115.932 62.056C115.932 60.436 115.056 60.028 113.988 60.028C113.172 60.028 110.736 60.292 109.836 60.316C109.452 60.328 109.14 60.34 108.768 60.316ZM117.348 57.328L116.7 57.604C117.036 58.06 117.444 58.78 117.684 59.272L118.332 58.984C118.08 58.492 117.648 57.76 117.348 57.328ZM118.668 56.848L118.032 57.124C118.38 57.568 118.776 58.252 119.028 58.78L119.688 58.492C119.448 58.048 118.992 57.292 118.668 56.848ZM125.652 57.508L124.656 57.472C124.656 57.628 124.644 57.844 124.62 58.06C124.512 59.092 124.272 61.036 124.272 62.68C124.272 64.204 124.596 65.908 124.944 66.976L125.82 66.712C125.448 65.584 125.112 64.144 125.112 62.584C125.112 60.94 125.316 59.044 125.52 58.036C125.556 57.868 125.604 57.652 125.652 57.508ZM123.72 58.984C123.204 58.984 122.16 58.912 121.74 58.84L121.764 59.74C122.256 59.764 123.192 59.812 123.708 59.812C125.496 59.812 127.86 59.632 129.588 59.332L129.576 58.444C127.92 58.816 125.832 58.984 123.72 58.984ZM128.724 60.4L127.764 60.16C127.752 60.352 127.692 60.676 127.644 60.856C127.092 62.8 126.108 64.096 125.04 65.032C124.272 65.704 123.492 66.04 122.892 66.04C122.448 66.04 122.208 65.8 122.208 65.308C122.208 64.204 123.288 62.884 124.644 62.284C125.256 62.008 126.144 61.72 127.152 61.72C128.94 61.72 129.924 62.74 129.924 63.904C129.924 65.452 128.58 66.568 126.42 66.808L126.936 67.612C129.72 67.168 130.86 65.668 130.86 63.952C130.86 62.272 129.432 60.952 127.164 60.952C126.384 60.952 125.412 61.132 124.608 61.444C122.832 62.128 121.308 63.82 121.308 65.464C121.308 66.484 121.932 66.964 122.724 66.964C123.576 66.964 124.536 66.52 125.304 65.932C126.564 64.96 127.764 63.292 128.472 61.072C128.544 60.88 128.652 60.556 128.724 60.4ZM133.92 62.212L134.328 63.208C135.096 62.896 137.724 61.804 139.2 61.804C140.436 61.804 141.24 62.56 141.24 63.58C141.24 65.536 138.96 66.28 136.356 66.352L136.752 67.276C139.98 67.084 142.212 65.908 142.212 63.592C142.212 61.96 140.976 60.94 139.272 60.94C137.868 60.94 135.888 61.66 135.036 61.924C134.664 62.044 134.268 62.152 133.92 62.212Z"/>
  </symbol>
  <symbol id="svg-copy-jp-6" viewBox="0 71 131 11">
    <path d="M5.304 71.568L4.164 71.472C4.188 71.724 4.164 72.132 4.116 72.468C4.032 73.092 3.72 74.604 3.432 75.708C2.976 77.4 2.136 79.836 1.416 81.084L2.46 81.432C3.096 80.124 3.9 77.64 4.332 75.936C4.668 74.736 4.92 73.38 5.1 72.516C5.148 72.288 5.232 71.832 5.304 71.568ZM2.652 73.572C2.208 73.572 1.776 73.548 1.212 73.476L1.236 74.412C1.68 74.448 2.1 74.46 2.628 74.46C3.924 74.46 5.736 74.256 7.224 73.92V72.984C5.736 73.356 3.972 73.572 2.652 73.572ZM6.444 75.216V76.116C7.176 76.032 7.92 75.984 8.664 75.984C9.372 75.984 10.068 76.056 10.692 76.128L10.716 75.216C10.068 75.144 9.336 75.12 8.64 75.12C7.872 75.12 7.068 75.156 6.444 75.216ZM6.684 78.132L5.796 78.048C5.688 78.552 5.616 79.008 5.616 79.464C5.616 80.652 6.648 81.228 8.532 81.228C9.408 81.228 10.212 81.156 10.86 81.06L10.896 80.1C10.152 80.244 9.336 80.328 8.544 80.328C6.84 80.328 6.516 79.776 6.516 79.212C6.516 78.9 6.588 78.528 6.684 78.132ZM15.96 75.852V76.644H23.52V75.852H15.96ZM17.316 77.484V78.216H22.548V77.484H17.316ZM17.904 76.152C17.352 77.34 16.356 78.384 15.252 79.044C15.432 79.176 15.744 79.452 15.864 79.608C16.98 78.864 18.072 77.688 18.684 76.356L17.904 76.152ZM22.38 77.484V77.616C22.212 79.968 22.02 80.868 21.792 81.096C21.696 81.216 21.6 81.228 21.42 81.228C21.252 81.228 20.856 81.216 20.4 81.18C20.52 81.372 20.604 81.696 20.604 81.924C21.084 81.948 21.54 81.936 21.804 81.924C22.092 81.9 22.308 81.828 22.5 81.624C22.824 81.276 23.016 80.328 23.196 77.844C23.22 77.712 23.232 77.484 23.232 77.484H22.38ZM17.964 73.548H21.828V74.508H17.964V73.548ZM17.964 71.952H21.828V72.9H17.964V71.952ZM17.148 71.28V75.18H22.668V71.28H17.148ZM12.624 73.524V74.388H16.188V73.524H12.624ZM14.028 71.016V78.396H14.88V71.016H14.028ZM12.396 78.876L12.744 79.776C13.764 79.284 15.072 78.636 16.296 78.012L16.104 77.22C14.736 77.856 13.32 78.492 12.396 78.876ZM20.844 77.616C20.412 79.104 19.404 80.736 18.276 81.492C18.504 81.624 18.78 81.828 18.936 82.008C20.028 81.18 21.024 79.476 21.48 77.952L20.844 77.616ZM18.972 77.652C18.384 78.912 17.124 80.292 15.936 80.94C16.152 81.072 16.404 81.3 16.548 81.492C17.712 80.748 18.972 79.32 19.584 78.012L18.972 77.652ZM26.976 74.844V75.648H33.036V74.844H26.976ZM26.76 80.676V81.48H33.192V80.676H26.76ZM26.352 77.16V81.972H27.228V77.976H32.784V81.972H33.696V77.16H26.352ZM29.964 71.844C31.092 73.38 33.204 75.072 35.088 76.056C35.244 75.792 35.46 75.48 35.688 75.264C33.768 74.412 31.668 72.744 30.372 70.956H29.46C28.512 72.504 26.508 74.34 24.396 75.408C24.6 75.6 24.84 75.924 24.96 76.128C27.012 75.012 28.98 73.308 29.964 71.844ZM41.46 72.9L41.472 73.872C42.78 74.016 45.108 74.016 46.392 73.872V72.9C45.204 73.08 42.768 73.128 41.46 72.9ZM41.928 77.796L41.064 77.712C40.932 78.288 40.872 78.72 40.872 79.116C40.872 80.244 41.772 80.916 43.776 80.916C45.024 80.916 46.032 80.82 46.776 80.664L46.752 79.656C45.792 79.884 44.856 79.98 43.788 79.98C42.144 79.98 41.76 79.44 41.76 78.888C41.76 78.564 41.82 78.228 41.928 77.796ZM39.18 71.976L38.112 71.892C38.1 72.156 38.064 72.456 38.028 72.732C37.884 73.728 37.488 75.78 37.488 77.544C37.488 79.176 37.692 80.556 37.932 81.408L38.784 81.348C38.772 81.216 38.76 81.048 38.748 80.928C38.748 80.784 38.772 80.556 38.808 80.388C38.916 79.812 39.36 78.552 39.66 77.7L39.156 77.304C38.952 77.796 38.676 78.516 38.472 79.056C38.4 78.468 38.364 77.964 38.364 77.388C38.364 76.032 38.736 73.896 38.964 72.78C39.012 72.564 39.108 72.18 39.18 71.976ZM54.756 72.816L53.76 72.792C53.64 74.04 53.388 75.396 53.04 76.536C52.428 78.564 51.78 79.38 51.216 79.38C50.676 79.38 49.992 78.708 49.992 77.196C49.992 75.432 51.636 73.26 54.276 73.26C56.58 73.26 57.912 74.844 57.912 76.764C57.912 78.84 56.4 79.992 54.864 80.34C54.576 80.4 54.216 80.448 53.832 80.484L54.384 81.372C57.24 81 58.896 79.32 58.896 76.812C58.896 74.376 57.108 72.396 54.3 72.396C51.36 72.396 49.044 74.664 49.044 77.268C49.044 79.26 50.112 80.484 51.192 80.484C52.296 80.484 53.256 79.212 53.988 76.752C54.36 75.468 54.6 74.064 54.756 72.816ZM62.676 72.204L62.712 73.188C63 73.152 63.348 73.116 63.612 73.104C64.152 73.08 65.616 73.008 66.096 72.996C65.688 73.848 65.148 75.084 64.668 76.128C64.212 77.136 63.672 78.528 63.18 79.176C62.928 79.5 62.724 79.596 62.448 79.596C62.076 79.596 61.728 79.32 61.728 78.78C61.728 77.676 62.868 76.56 64.86 76.56C67.332 76.56 69.528 77.892 70.932 79.104L71.376 78.084C70.08 77.16 67.704 75.72 65.004 75.72C62.568 75.72 60.864 77.1 60.864 78.912C60.864 79.908 61.524 80.556 62.412 80.556C63.036 80.556 63.504 80.328 63.924 79.716C64.44 78.972 65.1 77.34 65.58 76.284C66.132 75.048 66.792 73.512 67.176 72.888C67.272 72.732 67.368 72.612 67.488 72.48L66.888 72C66.72 72.06 66.516 72.108 66.288 72.12C65.784 72.168 64.212 72.24 63.576 72.24C63.324 72.24 62.976 72.228 62.676 72.204ZM70.176 74.832L69.192 74.724C69.228 75.072 69.216 75.48 69.192 75.84C69.06 77.616 68.544 79.884 65.724 81.072L66.516 81.732C69.312 80.328 70.008 78.252 70.176 74.832ZM78.48 72.72V73.548H83.292V72.72H78.48ZM77.136 76.344V77.22H83.556V76.344H77.136ZM79.932 73.056V81.96H80.844V73.056H79.932ZM78.624 70.908C78.264 72.492 77.628 74.04 76.776 75.036C77.004 75.156 77.4 75.396 77.58 75.54C78.408 74.46 79.104 72.816 79.524 71.088L78.624 70.908ZM73.02 74.556V75.276H76.764V74.556H73.02ZM73.092 71.352V72.072H76.776V71.352H73.092ZM73.02 76.164V76.884H76.764V76.164H73.02ZM72.456 72.924V73.668H77.232V72.924H72.456ZM73.44 77.784V78.528H75.924V80.532H73.44V81.288H76.728V77.784H73.44ZM73.008 77.784V81.84H73.812V77.784H73.008ZM92.952 72.048V80.652C92.952 80.904 92.868 80.988 92.604 81C92.316 81.012 91.344 81.024 90.372 80.976C90.516 81.24 90.696 81.684 90.756 81.948C91.944 81.948 92.784 81.936 93.264 81.78C93.732 81.636 93.888 81.324 93.888 80.676V72.048H92.952ZM85.896 74.448V79.884H86.772V74.448H85.896ZM86.268 74.448V75.3H89.916V78.06H86.268V78.924H90.816V74.448H86.268ZM84.66 71.772V72.684H95.364V71.772H84.66ZM102.276 72.504C102.408 72.876 102.576 73.428 102.84 74.112C103.236 75.204 103.896 76.392 104.4 77.16C103.968 77.112 103.08 77.04 102.408 76.98L102.336 77.772C103.2 77.832 104.664 77.964 105.24 78.108L105.72 77.424C105.54 77.232 105.36 77.028 105.204 76.788C104.688 76.092 104.076 74.976 103.704 73.944C103.428 73.164 103.116 72.132 103.008 71.436L101.976 71.556C102.096 71.88 102.204 72.24 102.276 72.504ZM97.884 73.44L97.908 74.388C100.032 74.568 101.94 74.556 103.464 74.376C104.34 74.268 105.48 74.076 106.332 73.836L106.224 72.888C105.288 73.212 104.1 73.428 103.152 73.536C101.784 73.68 99.888 73.668 97.884 73.44ZM99.744 77.256L98.808 77.04C98.46 77.748 98.22 78.372 98.22 79.044C98.22 80.676 99.66 81.492 101.94 81.504C103.284 81.516 104.292 81.384 105.048 81.252L105.084 80.292C104.256 80.472 103.212 80.592 102 80.592C100.212 80.568 99.168 80.076 99.168 78.924C99.168 78.36 99.384 77.844 99.744 77.256ZM119.688 80.088L119.532 79.068C118.92 79.704 118.284 80.052 117.72 80.052C117.288 80.052 117.084 79.728 117.084 79.32C117.084 78.108 117.54 76.044 117.54 74.844C117.54 73.872 116.988 73.236 115.86 73.236C114.384 73.236 112.392 74.964 111.648 75.78L111.636 76.968C112.764 75.6 114.504 74.112 115.632 74.112C116.244 74.112 116.592 74.412 116.592 75.108C116.592 76.272 116.148 78.24 116.148 79.584C116.148 80.568 116.676 81.096 117.48 81.096C118.296 81.096 119.04 80.736 119.688 80.088ZM111.624 74.352L111.528 74.676L111.48 75.3C111.012 76.092 109.392 78.288 108.648 79.224L109.248 80.04C110.004 78.996 111.12 77.376 111.672 76.524L112.032 74.88C112.236 74.544 112.56 74.028 112.764 73.716L112.416 73.308C111.864 73.488 110.364 73.668 109.728 73.704C109.428 73.728 109.2 73.728 108.936 73.716L109.044 74.712C109.932 74.568 111.228 74.412 111.624 74.352ZM111.504 72.372C111.504 72.816 111.216 76.62 111.192 77.676C111.18 78.996 111.168 79.596 111.168 80.76C111.168 80.952 111.156 81.24 111.132 81.468H112.164C112.152 81.24 112.116 80.94 112.104 80.736C112.056 79.668 112.056 78.936 112.056 77.844C112.056 75.732 112.416 72.3 112.584 71.52L111.456 71.484C111.516 71.784 111.504 72.096 111.504 72.372ZM126.864 71.484H125.844C125.88 71.64 125.892 72 125.892 72.204C125.892 73.044 125.892 74.304 125.892 75.384C125.892 76.44 126.012 78.744 126.012 79.668C126.012 80.508 125.424 80.712 124.728 80.712C123.54 80.712 123.072 80.304 123.072 79.74C123.072 79.188 123.684 78.744 124.836 78.744C126.972 78.744 128.748 79.944 129.828 80.94L130.38 80.088C129.456 79.332 127.476 77.964 124.944 77.964C123.216 77.964 122.172 78.696 122.172 79.788C122.172 80.952 123.12 81.564 124.848 81.564C126.408 81.564 126.96 80.712 126.96 79.872C126.96 79.068 126.78 76.968 126.78 75.384C126.78 74.376 126.78 72.768 126.804 72.288C126.816 71.928 126.84 71.688 126.864 71.484ZM122.28 72.78L122.292 73.668C123.048 73.764 124.524 73.872 125.352 73.872C126.96 73.872 128.676 73.716 130.032 73.56V72.684C128.472 72.936 126.864 73.044 125.34 73.044C124.548 73.044 123.048 72.924 122.28 72.78ZM122.22 75.336L122.232 76.236C123.084 76.332 124.404 76.392 125.232 76.392C127.032 76.392 128.496 76.308 130.128 76.104V75.204C128.568 75.432 126.972 75.552 125.232 75.552C124.44 75.552 123.072 75.468 122.22 75.336Z"/>
  </symbol>
  <symbol id="svg-copy-jp-7" viewBox="0 85 15 11">
    <path d="M7.524 85.496H6.42C6.444 85.604 6.48 85.94 6.504 86.264C6.54 86.924 6.552 89.312 6.552 89.84L7.464 90.308C7.452 89.348 7.428 87.032 7.464 86.252C7.464 86.108 7.5 85.64 7.524 85.496ZM1.14 87.176L1.164 88.1C2.976 87.968 5.544 87.884 7.608 87.884C9.372 87.884 10.452 87.908 11.124 87.944L11.136 87.056C10.572 87.044 9.084 87.044 7.62 87.044C5.772 87.044 2.772 87.152 1.14 87.176ZM7.44 90.656L6.78 90.32C6.972 91.604 6.492 92.228 5.748 92.228C5.088 92.228 4.524 91.796 4.524 91.04C4.524 90.26 5.112 89.768 5.748 89.768C6.396 89.768 6.924 90.224 6.924 91.304C6.924 93.284 5.652 94.352 3.468 94.868L4.272 95.648C7.056 94.82 7.848 93.02 7.848 91.388C7.848 90.008 7.14 88.976 5.748 88.976C4.608 88.976 3.624 89.864 3.624 91.052C3.624 92.36 4.596 93.068 5.604 93.068C6.696 93.068 7.44 92.264 7.44 90.656ZM13.1327 92.084C12.1247 92.084 11.2967 92.9 11.2967 93.908C11.2967 94.916 12.1247 95.732 13.1327 95.732C14.1407 95.732 14.9567 94.916 14.9567 93.908C14.9567 92.9 14.1407 92.084 13.1327 92.084ZM13.1327 95.12C12.4607 95.12 11.9087 94.58 11.9087 93.908C11.9087 93.236 12.4607 92.696 13.1327 92.696C13.8047 92.696 14.3447 93.236 14.3447 93.908C14.3447 94.58 13.8047 95.12 13.1327 95.12Z"/>
  </symbol>
</svg>
