<?xml version="1.0" encoding="UTF-8"?>
<!-- Generator: Adobe Illustrator 16.0.0, SVG Export Plug-In . SVG Version: 6.00 Build 0)  -->
<!DOCTYPE svg PUBLIC "-//W3C//DTD SVG 1.1//EN" "http://www.w3.org/Graphics/SVG/1.1/DTD/svg11.dtd">
<svg version="1.1" xmlns="http://www.w3.org/2000/svg" xmlns:xlink="http://www.w3.org/1999/xlink" x="0px" y="0px" width="110px" height="110px" viewBox="0 0 110 110" enable-background="new 0 0 110 110" xml:space="preserve">
<g id="R-Multicolor" display="none">
	<circle display="inline" fill="#0091EA" cx="55" cy="55" r="55"/>
	<g display="inline">
		<path fill="#212121" d="M63.973,27.688C61.789,25.998,58.841,25,55,25s-6.789,0.998-8.973,2.688L40,23l1,17    c0,8.284,6.268,15,14,15s14-6.716,14-15l1-17L63.973,27.688z"/>
		<path fill="#5B5C5F" d="M46.027,27.688L40,23l1,17c0,8.284,6.268,15,14,15V25C51.159,25,48.211,25.998,46.027,27.688z"/>
		<path fill="#212121" d="M55,49c-4,0-28,2-28,34c0,0,10,4,28,4s28-4,28-4C83,51,59,49,55,49z"/>
		<path fill="#CFD3D4" d="M55,87c6.848,0,12.534-0.579,16.956-1.297C71.055,59.729,55,55,55,55s-16.055,4.729-16.956,30.703    C42.466,86.421,48.152,87,55,87z"/>
		<path fill="#212121" d="M63,68l-4,3v-4l-4,3l-4-3v4l-3.997-3c-3.012,2.559-5.095,5.652-5,10c6-0.666,9.997,0,12.997,5    c3-5,7-5.666,13-5C68.096,73.652,66.012,70.559,63,68z"/>
		<path fill="#FBC8C8" d="M55,55c3.694,0,7.045-1.545,9.547-4.05C69.104,37.41,58.678,45,55,45s-14.105-7.59-9.547,5.95    C47.955,53.455,51.306,55,55,55z"/>
		<path fill="#CFD3D4" d="M62.523,39.692c-2.49,1.341-5.723,0.173-5.723,0.173s0.805-3.341,3.295-4.682s5.723-0.174,5.723-0.174    S65.014,38.352,62.523,39.692z"/>
		<path fill="#CFD3D4" d="M47.477,39.692c2.49,1.341,5.723,0.173,5.723,0.173s-0.805-3.341-3.295-4.682s-5.723-0.174-5.723-0.174    S44.986,38.352,47.477,39.692z"/>
		<path fill="#FFEBEE" d="M45.453,50.95C47.955,53.455,51.306,55,55,55V45C51.322,45,40.895,37.41,45.453,50.95z"/>
		<path fill="#E57373" d="M50,48h10c0,0,0,3-5,3S50,48,50,48z"/>
		<path fill="#5B5C5F" d="M51,67v4l-3.997-3c-3.011,2.559-5.095,5.652-5,10c6-0.666,9.997,0,12.997,5V70L51,67z"/>
	</g>
</g>
<g id="Multicolor" display="none">
	<g display="inline">
		<path fill="#212121" d="M63.973,27.688C61.789,25.998,58.841,25,55,25s-6.789,0.998-8.973,2.688L40,23l1,17    c0,8.284,6.268,15,14,15s14-6.716,14-15l1-17L63.973,27.688z"/>
		<path fill="#5B5C5F" d="M46.027,27.688L40,23l1,17c0,8.284,6.268,15,14,15V25C51.159,25,48.211,25.998,46.027,27.688z"/>
		<path fill="#212121" d="M55,49c-4,0-28,2-28,34c0,0,10,4,28,4s28-4,28-4C83,51,59,49,55,49z"/>
		<path fill="#CFD3D4" d="M55,87c6.848,0,12.534-0.579,16.956-1.297C71.055,59.729,55,55,55,55s-16.055,4.729-16.956,30.703    C42.466,86.421,48.152,87,55,87z"/>
		<path fill="#212121" d="M63,68l-4,3v-4l-4,3l-4-3v4l-3.997-3c-3.012,2.559-5.095,5.652-5,10c6-0.666,9.997,0,12.997,5    c3-5,7-5.666,13-5C68.096,73.652,66.012,70.559,63,68z"/>
		<path fill="#FBC8C8" d="M55,55c3.694,0,7.045-1.545,9.547-4.05C69.104,37.41,58.678,45,55,45s-14.105-7.59-9.547,5.95    C47.955,53.455,51.306,55,55,55z"/>
		<path fill="#CFD3D4" d="M62.523,39.692c-2.49,1.341-5.723,0.173-5.723,0.173s0.805-3.341,3.295-4.682s5.723-0.174,5.723-0.174    S65.014,38.352,62.523,39.692z"/>
		<path fill="#CFD3D4" d="M47.477,39.692c2.49,1.341,5.723,0.173,5.723,0.173s-0.805-3.341-3.295-4.682s-5.723-0.174-5.723-0.174    S44.986,38.352,47.477,39.692z"/>
		<path fill="#FFEBEE" d="M45.453,50.95C47.955,53.455,51.306,55,55,55V45C51.322,45,40.895,37.41,45.453,50.95z"/>
		<path fill="#E57373" d="M50,48h10c0,0,0,3-5,3S50,48,50,48z"/>
		<path fill="#5B5C5F" d="M51,67v4l-3.997-3c-3.011,2.559-5.095,5.652-5,10c6-0.666,9.997,0,12.997,5V70L51,67z"/>
	</g>
</g>
<g id="Blue" display="none">
	<g display="inline">
		<g>
			<path fill="#1A3B7E" d="M63.973,27.688C61.789,25.998,58.841,25,55,25s-6.789,0.998-8.973,2.688L40,23l1,17     c0,8.284,6.268,15,14,15s14-6.716,14-15l1-17L63.973,27.688z"/>
		</g>
		<g>
			<path fill="#0D57A1" d="M46.027,27.688L40,23l1,17c0,8.284,6.268,15,14,15V25C51.159,25,48.211,25.998,46.027,27.688z"/>
		</g>
		<g>
			<path fill="#1A3B7E" d="M55,49c-4,0-28,2-28,34c0,0,10,4,28,4s28-4,28-4C83,51,59,49,55,49z"/>
		</g>
		<g>
			<path fill="#1E88E5" d="M55,87c6.848,0,12.534-0.579,16.956-1.297C71.055,59.729,55,55,55,55s-16.055,4.729-16.956,30.703     C42.466,86.421,48.152,87,55,87z"/>
		</g>
		<g>
			<path fill="#1A3B7E" d="M63,68l-4,3v-4l-4,3l-4-3v4l-3.997-3c-3.012,2.559-5.095,5.652-5,10c6-0.666,9.997,0,12.997,5     c3-5,7-5.666,13-5C68.096,73.652,66.012,70.559,63,68z"/>
		</g>
		<g>
			<path fill="#E8EAF6" d="M55,55c3.694,0,7.045-1.545,9.547-4.05C69.104,37.41,58.678,45,55,45s-14.105-7.59-9.547,5.95     C47.955,53.455,51.306,55,55,55z"/>
		</g>
		<g>
			<path fill="#C5CAE9" d="M62.523,39.692c-2.49,1.341-5.723,0.173-5.723,0.173s0.805-3.341,3.295-4.682s5.723-0.174,5.723-0.174     S65.014,38.352,62.523,39.692z"/>
		</g>
		<g>
			<path fill="#C5CAE9" d="M47.477,39.692c2.49,1.341,5.723,0.173,5.723,0.173s-0.805-3.341-3.295-4.682s-5.723-0.174-5.723-0.174     S44.986,38.352,47.477,39.692z"/>
		</g>
		<g>
			<path fill="#FFFFFF" d="M45.453,50.95C47.955,53.455,51.306,55,55,55V45C51.322,45,40.895,37.41,45.453,50.95z"/>
		</g>
		<g>
			<path fill="#0D57A1" d="M50,48h10c0,0,0,3-5,3S50,48,50,48z"/>
		</g>
		<g>
			<path fill="#0D57A1" d="M51,67v4l-3.997-3c-3.011,2.559-5.095,5.652-5,10c6-0.666,9.997,0,12.997,5V70L51,67z"/>
		</g>
	</g>
</g>
<g id="R-Blue">
	<g>
		<circle fill="#00B0FF" cx="55" cy="55" r="55"/>
	</g>
	<g>
		<g>
			<path fill="#1A3B7E" d="M63.973,27.688C61.789,25.998,58.841,25,55,25s-6.789,0.998-8.973,2.688L40,23l1,17     c0,8.284,6.268,15,14,15s14-6.716,14-15l1-17L63.973,27.688z"/>
		</g>
		<g>
			<path fill="#0D57A1" d="M46.027,27.688L40,23l1,17c0,8.284,6.268,15,14,15V25C51.159,25,48.211,25.998,46.027,27.688z"/>
		</g>
		<g>
			<path fill="#1A3B7E" d="M55,49c-4,0-28,2-28,34c0,0,10,4,28,4s28-4,28-4C83,51,59,49,55,49z"/>
		</g>
		<g>
			<path fill="#1E88E5" d="M55,87c6.848,0,12.534-0.579,16.956-1.297C71.055,59.729,55,55,55,55s-16.055,4.729-16.956,30.703     C42.466,86.421,48.152,87,55,87z"/>
		</g>
		<g>
			<path fill="#1A3B7E" d="M63,68l-4,3v-4l-4,3l-4-3v4l-3.997-3c-3.012,2.559-5.095,5.652-5,10c6-0.666,9.997,0,12.997,5     c3-5,7-5.666,13-5C68.096,73.652,66.012,70.559,63,68z"/>
		</g>
		<g>
			<path fill="#E8EAF6" d="M55,55c3.694,0,7.045-1.545,9.547-4.05C69.104,37.41,58.678,45,55,45s-14.105-7.59-9.547,5.95     C47.955,53.455,51.306,55,55,55z"/>
		</g>
		<g>
			<path fill="#C5CAE9" d="M62.523,39.692c-2.49,1.341-5.723,0.173-5.723,0.173s0.805-3.341,3.295-4.682s5.723-0.174,5.723-0.174     S65.014,38.352,62.523,39.692z"/>
		</g>
		<g>
			<path fill="#C5CAE9" d="M47.477,39.692c2.49,1.341,5.723,0.173,5.723,0.173s-0.805-3.341-3.295-4.682s-5.723-0.174-5.723-0.174     S44.986,38.352,47.477,39.692z"/>
		</g>
		<g>
			<path fill="#FFFFFF" d="M45.453,50.95C47.955,53.455,51.306,55,55,55V45C51.322,45,40.895,37.41,45.453,50.95z"/>
		</g>
		<g>
			<path fill="#0D57A1" d="M50,48h10c0,0,0,3-5,3S50,48,50,48z"/>
		</g>
		<g>
			<path fill="#0D57A1" d="M51,67v4l-3.997-3c-3.011,2.559-5.095,5.652-5,10c6-0.666,9.997,0,12.997,5V70L51,67z"/>
		</g>
	</g>
</g>
<g id="Green" display="none">
	<g display="inline">
		<g>
			<path fill="#003B15" d="M63.973,27.688C61.789,25.998,58.841,25,55,25s-6.789,0.998-8.973,2.688L40,23l1,17     c0,8.284,6.268,15,14,15s14-6.716,14-15l1-17L63.973,27.688z"/>
		</g>
		<g>
			<path fill="#006E31" d="M46.027,27.688L40,23l1,17c0,8.284,6.268,15,14,15V25C51.159,25,48.211,25.998,46.027,27.688z"/>
		</g>
		<g>
			<path fill="#003B15" d="M55,49c-4,0-28,2-28,34c0,0,10,4,28,4s28-4,28-4C83,51,59,49,55,49z"/>
		</g>
		<g>
			<path fill="#56C435" d="M55,87c6.848,0,12.534-0.579,16.956-1.297C71.055,59.729,55,55,55,55s-16.055,4.729-16.956,30.703     C42.466,86.421,48.152,87,55,87z"/>
		</g>
		<g>
			<path fill="#003B15" d="M63,68l-4,3v-4l-4,3l-4-3v4l-3.997-3c-3.012,2.559-5.095,5.652-5,10c6-0.666,9.997,0,12.997,5     c3-5,7-5.666,13-5C68.096,73.652,66.012,70.559,63,68z"/>
		</g>
		<g>
			<path fill="#ECF5E1" d="M55,55c3.694,0,7.045-1.545,9.547-4.05C69.104,37.41,58.678,45,55,45s-14.105-7.59-9.547,5.95     C47.955,53.455,51.306,55,55,55z"/>
		</g>
		<g>
			<path fill="#C5EB98" d="M62.523,39.692c-2.49,1.341-5.723,0.173-5.723,0.173s0.805-3.341,3.295-4.682s5.723-0.174,5.723-0.174     S65.014,38.352,62.523,39.692z"/>
		</g>
		<g>
			<path fill="#C5EB98" d="M47.477,39.692c2.49,1.341,5.723,0.173,5.723,0.173s-0.805-3.341-3.295-4.682s-5.723-0.174-5.723-0.174     S44.986,38.352,47.477,39.692z"/>
		</g>
		<g>
			<path fill="#FFFFFF" d="M45.453,50.95C47.955,53.455,51.306,55,55,55V45C51.322,45,40.895,37.41,45.453,50.95z"/>
		</g>
		<g>
			<path fill="#006E31" d="M50,48h10c0,0,0,3-5,3S50,48,50,48z"/>
		</g>
		<g>
			<path fill="#006E31" d="M51,67v4l-3.997-3c-3.011,2.559-5.095,5.652-5,10c6-0.666,9.997,0,12.997,5V70L51,67z"/>
		</g>
	</g>
</g>
<g id="R-Green" display="none">
	<g display="inline">
		<circle fill="#64DD17" cx="55" cy="55" r="55"/>
	</g>
	<g display="inline">
		<g>
			<path fill="#003B15" d="M63.973,27.688C61.789,25.998,58.841,25,55,25s-6.789,0.998-8.973,2.688L40,23l1,17     c0,8.284,6.268,15,14,15s14-6.716,14-15l1-17L63.973,27.688z"/>
		</g>
		<g>
			<path fill="#006E31" d="M46.027,27.688L40,23l1,17c0,8.284,6.268,15,14,15V25C51.159,25,48.211,25.998,46.027,27.688z"/>
		</g>
		<g>
			<path fill="#003B15" d="M55,49c-4,0-28,2-28,34c0,0,10,4,28,4s28-4,28-4C83,51,59,49,55,49z"/>
		</g>
		<g>
			<path fill="#56C435" d="M55,87c6.848,0,12.534-0.579,16.956-1.297C71.055,59.729,55,55,55,55s-16.055,4.729-16.956,30.703     C42.466,86.421,48.152,87,55,87z"/>
		</g>
		<g>
			<path fill="#003B15" d="M63,68l-4,3v-4l-4,3l-4-3v4l-3.997-3c-3.012,2.559-5.095,5.652-5,10c6-0.666,9.997,0,12.997,5     c3-5,7-5.666,13-5C68.096,73.652,66.012,70.559,63,68z"/>
		</g>
		<g>
			<path fill="#ECF5E1" d="M55,55c3.694,0,7.045-1.545,9.547-4.05C69.104,37.41,58.678,45,55,45s-14.105-7.59-9.547,5.95     C47.955,53.455,51.306,55,55,55z"/>
		</g>
		<g>
			<path fill="#C5EB98" d="M62.523,39.692c-2.49,1.341-5.723,0.173-5.723,0.173s0.805-3.341,3.295-4.682s5.723-0.174,5.723-0.174     S65.014,38.352,62.523,39.692z"/>
		</g>
		<g>
			<path fill="#C5EB98" d="M47.477,39.692c2.49,1.341,5.723,0.173,5.723,0.173s-0.805-3.341-3.295-4.682s-5.723-0.174-5.723-0.174     S44.986,38.352,47.477,39.692z"/>
		</g>
		<g>
			<path fill="#FFFFFF" d="M45.453,50.95C47.955,53.455,51.306,55,55,55V45C51.322,45,40.895,37.41,45.453,50.95z"/>
		</g>
		<g>
			<path fill="#006E31" d="M50,48h10c0,0,0,3-5,3S50,48,50,48z"/>
		</g>
		<g>
			<path fill="#006E31" d="M51,67v4l-3.997-3c-3.011,2.559-5.095,5.652-5,10c6-0.666,9.997,0,12.997,5V70L51,67z"/>
		</g>
	</g>
</g>
<g id="Red" display="none">
	<g display="inline">
		<g>
			<path fill="#2C0900" d="M63.973,27.688C61.789,25.998,58.841,25,55,25s-6.789,0.998-8.973,2.688L40,23l1,17     c0,8.284,6.268,15,14,15s14-6.716,14-15l1-17L63.973,27.688z"/>
		</g>
		<g>
			<path fill="#7A1C05" d="M46.027,27.688L40,23l1,17c0,8.284,6.268,15,14,15V25C51.159,25,48.211,25.998,46.027,27.688z"/>
		</g>
		<g>
			<path fill="#2C0900" d="M55,49c-4,0-28,2-28,34c0,0,10,4,28,4s28-4,28-4C83,51,59,49,55,49z"/>
		</g>
		<g>
			<path fill="#DE5735" d="M55,87c6.848,0,12.534-0.579,16.956-1.297C71.055,59.729,55,55,55,55s-16.055,4.729-16.956,30.703     C42.466,86.421,48.152,87,55,87z"/>
		</g>
		<g>
			<path fill="#2C0900" d="M63,68l-4,3v-4l-4,3l-4-3v4l-3.997-3c-3.012,2.559-5.095,5.652-5,10c6-0.666,9.997,0,12.997,5     c3-5,7-5.666,13-5C68.096,73.652,66.012,70.559,63,68z"/>
		</g>
		<g>
			<path fill="#FFE4DE" d="M55,55c3.694,0,7.045-1.545,9.547-4.05C69.104,37.41,58.678,45,55,45s-14.105-7.59-9.547,5.95     C47.955,53.455,51.306,55,55,55z"/>
		</g>
		<g>
			<path fill="#FFC7B2" d="M62.523,39.692c-2.49,1.341-5.723,0.173-5.723,0.173s0.805-3.341,3.295-4.682s5.723-0.174,5.723-0.174     S65.014,38.352,62.523,39.692z"/>
		</g>
		<g>
			<path fill="#FFC7B2" d="M47.477,39.692c2.49,1.341,5.723,0.173,5.723,0.173s-0.805-3.341-3.295-4.682s-5.723-0.174-5.723-0.174     S44.986,38.352,47.477,39.692z"/>
		</g>
		<g>
			<path fill="#FFFFFF" d="M45.453,50.95C47.955,53.455,51.306,55,55,55V45C51.322,45,40.895,37.41,45.453,50.95z"/>
		</g>
		<g>
			<path fill="#7A1C05" d="M50,48h10c0,0,0,3-5,3S50,48,50,48z"/>
		</g>
		<g>
			<path fill="#7A1C05" d="M51,67v4l-3.997-3c-3.011,2.559-5.095,5.652-5,10c6-0.666,9.997,0,12.997,5V70L51,67z"/>
		</g>
	</g>
</g>
<g id="R-Red" display="none">
	<g display="inline">
		<circle fill="#FF5722" cx="55" cy="55" r="55"/>
	</g>
	<g display="inline">
		<g>
			<path fill="#2C0900" d="M63.973,27.688C61.789,25.998,58.841,25,55,25s-6.789,0.998-8.973,2.688L40,23l1,17     c0,8.284,6.268,15,14,15s14-6.716,14-15l1-17L63.973,27.688z"/>
		</g>
		<g>
			<path fill="#7A1C05" d="M46.027,27.688L40,23l1,17c0,8.284,6.268,15,14,15V25C51.159,25,48.211,25.998,46.027,27.688z"/>
		</g>
		<g>
			<path fill="#2C0900" d="M55,49c-4,0-28,2-28,34c0,0,10,4,28,4s28-4,28-4C83,51,59,49,55,49z"/>
		</g>
		<g>
			<path fill="#DE5735" d="M55,87c6.848,0,12.534-0.579,16.956-1.297C71.055,59.729,55,55,55,55s-16.055,4.729-16.956,30.703     C42.466,86.421,48.152,87,55,87z"/>
		</g>
		<g>
			<path fill="#2C0900" d="M63,68l-4,3v-4l-4,3l-4-3v4l-3.997-3c-3.012,2.559-5.095,5.652-5,10c6-0.666,9.997,0,12.997,5     c3-5,7-5.666,13-5C68.096,73.652,66.012,70.559,63,68z"/>
		</g>
		<g>
			<path fill="#FFE4DE" d="M55,55c3.694,0,7.045-1.545,9.547-4.05C69.104,37.41,58.678,45,55,45s-14.105-7.59-9.547,5.95     C47.955,53.455,51.306,55,55,55z"/>
		</g>
		<g>
			<path fill="#FFC7B2" d="M62.523,39.692c-2.49,1.341-5.723,0.173-5.723,0.173s0.805-3.341,3.295-4.682s5.723-0.174,5.723-0.174     S65.014,38.352,62.523,39.692z"/>
		</g>
		<g>
			<path fill="#FFC7B2" d="M47.477,39.692c2.49,1.341,5.723,0.173,5.723,0.173s-0.805-3.341-3.295-4.682s-5.723-0.174-5.723-0.174     S44.986,38.352,47.477,39.692z"/>
		</g>
		<g>
			<path fill="#FFFFFF" d="M45.453,50.95C47.955,53.455,51.306,55,55,55V45C51.322,45,40.895,37.41,45.453,50.95z"/>
		</g>
		<g>
			<path fill="#7A1C05" d="M50,48h10c0,0,0,3-5,3S50,48,50,48z"/>
		</g>
		<g>
			<path fill="#7A1C05" d="M51,67v4l-3.997-3c-3.011,2.559-5.095,5.652-5,10c6-0.666,9.997,0,12.997,5V70L51,67z"/>
		</g>
	</g>
</g>
<g id="Yellow" display="none">
	<g display="inline">
		<g>
			<path fill="#4C2720" d="M63.973,27.688C61.789,25.998,58.841,25,55,25s-6.789,0.998-8.973,2.688L40,23l1,17     c0,8.284,6.268,15,14,15s14-6.716,14-15l1-17L63.973,27.688z"/>
		</g>
		<g>
			<path fill="#804B1C" d="M46.027,27.688L40,23l1,17c0,8.284,6.268,15,14,15V25C51.159,25,48.211,25.998,46.027,27.688z"/>
		</g>
		<g>
			<path fill="#4C2720" d="M55,49c-4,0-28,2-28,34c0,0,10,4,28,4s28-4,28-4C83,51,59,49,55,49z"/>
		</g>
		<g>
			<path fill="#F7B90C" d="M55,87c6.848,0,12.534-0.579,16.956-1.297C71.055,59.729,55,55,55,55s-16.055,4.729-16.956,30.703     C42.466,86.421,48.152,87,55,87z"/>
		</g>
		<g>
			<path fill="#4C2720" d="M63,68l-4,3v-4l-4,3l-4-3v4l-3.997-3c-3.012,2.559-5.095,5.652-5,10c6-0.666,9.997,0,12.997,5     c3-5,7-5.666,13-5C68.096,73.652,66.012,70.559,63,68z"/>
		</g>
		<g>
			<path fill="#FFF4D1" d="M55,55c3.694,0,7.045-1.545,9.547-4.05C69.104,37.41,58.678,45,55,45s-14.105-7.59-9.547,5.95     C47.955,53.455,51.306,55,55,55z"/>
		</g>
		<g>
			<path fill="#FFEBB8" d="M62.523,39.692c-2.49,1.341-5.723,0.173-5.723,0.173s0.805-3.341,3.295-4.682s5.723-0.174,5.723-0.174     S65.014,38.352,62.523,39.692z"/>
		</g>
		<g>
			<path fill="#FFEBB8" d="M47.477,39.692c2.49,1.341,5.723,0.173,5.723,0.173s-0.805-3.341-3.295-4.682s-5.723-0.174-5.723-0.174     S44.986,38.352,47.477,39.692z"/>
		</g>
		<g>
			<path fill="#FFFFFF" d="M45.453,50.95C47.955,53.455,51.306,55,55,55V45C51.322,45,40.895,37.41,45.453,50.95z"/>
		</g>
		<g>
			<path fill="#804B1C" d="M50,48h10c0,0,0,3-5,3S50,48,50,48z"/>
		</g>
		<g>
			<path fill="#804B1C" d="M51,67v4l-3.997-3c-3.011,2.559-5.095,5.652-5,10c6-0.666,9.997,0,12.997,5V70L51,67z"/>
		</g>
	</g>
</g>
<g id="R-Yellow" display="none">
	<g display="inline">
		<circle fill="#FFD600" cx="55" cy="55" r="55"/>
	</g>
	<g display="inline">
		<g>
			<path fill="#4C2720" d="M63.973,27.688C61.789,25.998,58.841,25,55,25s-6.789,0.998-8.973,2.688L40,23l1,17     c0,8.284,6.268,15,14,15s14-6.716,14-15l1-17L63.973,27.688z"/>
		</g>
		<g>
			<path fill="#804B1C" d="M46.027,27.688L40,23l1,17c0,8.284,6.268,15,14,15V25C51.159,25,48.211,25.998,46.027,27.688z"/>
		</g>
		<g>
			<path fill="#4C2720" d="M55,49c-4,0-28,2-28,34c0,0,10,4,28,4s28-4,28-4C83,51,59,49,55,49z"/>
		</g>
		<g>
			<path fill="#F7B90C" d="M55,87c6.848,0,12.534-0.579,16.956-1.297C71.055,59.729,55,55,55,55s-16.055,4.729-16.956,30.703     C42.466,86.421,48.152,87,55,87z"/>
		</g>
		<g>
			<path fill="#4C2720" d="M63,68l-4,3v-4l-4,3l-4-3v4l-3.997-3c-3.012,2.559-5.095,5.652-5,10c6-0.666,9.997,0,12.997,5     c3-5,7-5.666,13-5C68.096,73.652,66.012,70.559,63,68z"/>
		</g>
		<g>
			<path fill="#FFF4D1" d="M55,55c3.694,0,7.045-1.545,9.547-4.05C69.104,37.41,58.678,45,55,45s-14.105-7.59-9.547,5.95     C47.955,53.455,51.306,55,55,55z"/>
		</g>
		<g>
			<path fill="#FFEBB8" d="M62.523,39.692c-2.49,1.341-5.723,0.173-5.723,0.173s0.805-3.341,3.295-4.682s5.723-0.174,5.723-0.174     S65.014,38.352,62.523,39.692z"/>
		</g>
		<g>
			<path fill="#FFEBB8" d="M47.477,39.692c2.49,1.341,5.723,0.173,5.723,0.173s-0.805-3.341-3.295-4.682s-5.723-0.174-5.723-0.174     S44.986,38.352,47.477,39.692z"/>
		</g>
		<g>
			<path fill="#FFFFFF" d="M45.453,50.95C47.955,53.455,51.306,55,55,55V45C51.322,45,40.895,37.41,45.453,50.95z"/>
		</g>
		<g>
			<path fill="#804B1C" d="M50,48h10c0,0,0,3-5,3S50,48,50,48z"/>
		</g>
		<g>
			<path fill="#804B1C" d="M51,67v4l-3.997-3c-3.011,2.559-5.095,5.652-5,10c6-0.666,9.997,0,12.997,5V70L51,67z"/>
		</g>
	</g>
</g>
</svg>