<?xml version="1.0" encoding="UTF-8"?>
<!-- Generator: Adobe Illustrator 16.0.0, SVG Export Plug-In . SVG Version: 6.00 Build 0)  -->
<!DOCTYPE svg PUBLIC "-//W3C//DTD SVG 1.1//EN" "http://www.w3.org/Graphics/SVG/1.1/DTD/svg11.dtd">
<svg version="1.1" xmlns="http://www.w3.org/2000/svg" xmlns:xlink="http://www.w3.org/1999/xlink" x="0px" y="0px" width="110px" height="110px" viewBox="0 0 110 110" enable-background="new 0 0 110 110" xml:space="preserve">
<g id="R-Multicolor" display="none">
	<g display="inline">
		<circle fill="#FFC400" cx="55" cy="55" r="55"/>
	</g>
	<g display="inline">
		<g>
			<g>
				<path fill="#D32F2F" d="M79,31c0-4.418-3.582-8-8-8H39c-4.418,0-8,3.582-8,8v50c0,1.104,0.896,2,2,2h44c1.104,0,2-0.896,2-2V31z      "/>
			</g>
		</g>
		<g>
			<g>
				<path fill="#EF5350" d="M76.197,24.926C74.799,23.728,72.986,23,71,23H39c-4.418,0-8,3.582-8,8v39.124L76.197,24.926z"/>
			</g>
		</g>
		<g>
			<g>
				<path fill="#212121" d="M31,83v2c0,1.104,0.896,2,2,2h8c1.104,0,2-0.896,2-2v-2H31z"/>
			</g>
		</g>
		<g>
			<g>
				<path fill="#212121" d="M67,85c0,1.104,0.896,2,2,2h8c1.104,0,2-0.896,2-2v-2H67V85z"/>
			</g>
		</g>
		<g>
			<g>
				<path fill="#EF5350" d="M81,74c0-2.209-1.791-4-4-4h-9l-2.447-2.894C65.214,66.428,64.521,66,63.764,66H46.236      c-0.758,0-1.45,0.428-1.789,1.106L42,70h-9c-2.209,0-4,1.791-4,4v7c0,1.104,0.896,2,2,2h48c1.104,0,2-0.896,2-2V74z"/>
			</g>
		</g>
		<g>
			<g>
				<path fill="#B71C1C" d="M54,69h-7c-1.104,0-2,0.896-2,2v7c0,1.104,0.896,2,2,2h7V69z"/>
			</g>
		</g>
		<g>
			<g>
				<path fill="#B71C1C" d="M56,69h7c1.104,0,2,0.896,2,2v7c0,1.104-0.896,2-2,2h-7V69z"/>
			</g>
		</g>
		<g>
			<g>
				<circle fill="#FFEE58" cx="37" cy="77" r="3"/>
			</g>
		</g>
		<g>
			<g>
				<circle fill="#FFEE58" cx="72" cy="77" r="3"/>
			</g>
		</g>
		<g>
			<g>
				<rect x="31" y="47" fill="#E0E0E0" width="48" height="2"/>
			</g>
		</g>
		<g>
			<g>
				<polygon fill="#FFFFFF" points="54.123,47 31,47 31,49 52.123,49     "/>
			</g>
		</g>
		<g>
			<g>
				<path fill="#64B5F6" d="M75,49H57v12c0,1.104,0.896,2,2,2h14c1.104,0,2-0.896,2-2V49z"/>
			</g>
		</g>
		<g>
			<g>
				<path fill="#90CAF9" d="M35,37c0,1.104,0.896,2,2,2h14c1.104,0,2-0.896,2-2v-8c0-1.104-0.896-2-2-2H37c-1.104,0-2,0.896-2,2V37z      "/>
			</g>
		</g>
		<g>
			<g>
				<path fill="#64B5F6" d="M57,37c0,1.104,0.896,2,2,2h14c1.104,0,2-0.896,2-2v-8c0-1.104-0.896-2-2-2H59c-1.104,0-2,0.896-2,2V37z      "/>
			</g>
		</g>
		<g>
			<g>
				<path fill="#90CAF9" d="M73,27H59c-1.104,0-2,0.896-2,2v8c0,1.104,0.896,2,2,2h3.123L73.9,27.223C73.629,27.086,73.326,27,73,27      z"/>
			</g>
		</g>
		<g>
			<g>
				<path fill="#FFF59D" d="M72,74.044c-1.656,0-3,1.343-3,3c0,0.751,0.286,1.43,0.742,1.956l4.214-4.213      C73.43,74.33,72.752,74.044,72,74.044z"/>
			</g>
		</g>
		<g>
			<g>
				<path fill="#FFF59D" d="M37,74c-1.656,0-3,1.343-3,3c0,0.752,0.286,1.43,0.742,1.956l4.214-4.213C38.43,74.286,37.752,74,37,74z      "/>
			</g>
		</g>
		<g>
			<rect x="35" y="49" fill="#64B5F6" width="18" height="8"/>
		</g>
		<g>
			<path fill="#64B5F6" d="M35,61c0,1.104,0.896,2,2,2h14c1.104,0,2-0.896,2-2v-2H35V61z"/>
		</g>
		<g>
			<polygon fill="#90CAF9" points="44.123,57 52.123,49 35,49 35,57    "/>
		</g>
		<g>
			<path fill="#90CAF9" d="M35,59v2c0,1.104,0.896,2,2,2h1.123l4-4H35z"/>
		</g>
	</g>
</g>
<g id="Multicolor" display="none">
	<g display="inline">
		<g>
			<g>
				<path fill="#D32F2F" d="M79,31c0-4.418-3.582-8-8-8H39c-4.418,0-8,3.582-8,8v50c0,1.104,0.896,2,2,2h44c1.104,0,2-0.896,2-2V31z      "/>
			</g>
		</g>
		<g>
			<g>
				<path fill="#EF5350" d="M76.197,24.926C74.799,23.728,72.986,23,71,23H39c-4.418,0-8,3.582-8,8v39.124L76.197,24.926z"/>
			</g>
		</g>
		<g>
			<g>
				<path fill="#212121" d="M31,83v2c0,1.104,0.896,2,2,2h8c1.104,0,2-0.896,2-2v-2H31z"/>
			</g>
		</g>
		<g>
			<g>
				<path fill="#212121" d="M67,85c0,1.104,0.896,2,2,2h8c1.104,0,2-0.896,2-2v-2H67V85z"/>
			</g>
		</g>
		<g>
			<g>
				<path fill="#EF5350" d="M81,74c0-2.209-1.791-4-4-4h-9l-2.447-2.894C65.214,66.428,64.521,66,63.764,66H46.236      c-0.758,0-1.45,0.428-1.789,1.106L42,70h-9c-2.209,0-4,1.791-4,4v7c0,1.104,0.896,2,2,2h48c1.104,0,2-0.896,2-2V74z"/>
			</g>
		</g>
		<g>
			<g>
				<path fill="#B71C1C" d="M54,69h-7c-1.104,0-2,0.896-2,2v7c0,1.104,0.896,2,2,2h7V69z"/>
			</g>
		</g>
		<g>
			<g>
				<path fill="#B71C1C" d="M56,69h7c1.104,0,2,0.896,2,2v7c0,1.104-0.896,2-2,2h-7V69z"/>
			</g>
		</g>
		<g>
			<g>
				<circle fill="#FFEE58" cx="37" cy="77" r="3"/>
			</g>
		</g>
		<g>
			<g>
				<circle fill="#FFEE58" cx="72" cy="77" r="3"/>
			</g>
		</g>
		<g>
			<g>
				<rect x="31" y="47" fill="#E0E0E0" width="48" height="2"/>
			</g>
		</g>
		<g>
			<g>
				<polygon fill="#FFFFFF" points="54.123,47 31,47 31,49 52.123,49     "/>
			</g>
		</g>
		<g>
			<g>
				<path fill="#64B5F6" d="M75,49H57v12c0,1.104,0.896,2,2,2h14c1.104,0,2-0.896,2-2V49z"/>
			</g>
		</g>
		<g>
			<g>
				<path fill="#90CAF9" d="M35,37c0,1.104,0.896,2,2,2h14c1.104,0,2-0.896,2-2v-8c0-1.104-0.896-2-2-2H37c-1.104,0-2,0.896-2,2V37z      "/>
			</g>
		</g>
		<g>
			<g>
				<path fill="#64B5F6" d="M57,37c0,1.104,0.896,2,2,2h14c1.104,0,2-0.896,2-2v-8c0-1.104-0.896-2-2-2H59c-1.104,0-2,0.896-2,2V37z      "/>
			</g>
		</g>
		<g>
			<g>
				<path fill="#90CAF9" d="M73,27H59c-1.104,0-2,0.896-2,2v8c0,1.104,0.896,2,2,2h3.123L73.9,27.223C73.629,27.086,73.326,27,73,27      z"/>
			</g>
		</g>
		<g>
			<g>
				<path fill="#FFF59D" d="M72,74.044c-1.656,0-3,1.343-3,3c0,0.751,0.286,1.43,0.742,1.956l4.214-4.213      C73.43,74.33,72.752,74.044,72,74.044z"/>
			</g>
		</g>
		<g>
			<g>
				<path fill="#FFF59D" d="M37,74c-1.656,0-3,1.343-3,3c0,0.752,0.286,1.43,0.742,1.956l4.214-4.213C38.43,74.286,37.752,74,37,74z      "/>
			</g>
		</g>
		<g>
			<rect x="35" y="49" fill="#64B5F6" width="18" height="8"/>
		</g>
		<g>
			<path fill="#64B5F6" d="M35,61c0,1.104,0.896,2,2,2h14c1.104,0,2-0.896,2-2v-2H35V61z"/>
		</g>
		<g>
			<polygon fill="#90CAF9" points="44.123,57 52.123,49 35,49 35,57    "/>
		</g>
		<g>
			<path fill="#90CAF9" d="M35,59v2c0,1.104,0.896,2,2,2h1.123l4-4H35z"/>
		</g>
	</g>
</g>
<g id="Blue" display="none">
	<g display="inline">
		<g>
			<path fill="#2962FF" d="M79,31c0-4.418-3.582-8-8-8H39c-4.418,0-8,3.582-8,8v50c0,1.104,0.896,2,2,2h44c1.104,0,2-0.896,2-2V31z"/>
		</g>
		<g>
			<path fill="#2979FF" d="M76.197,24.926C74.799,23.728,72.986,23,71,23H39c-4.418,0-8,3.582-8,8v39.124L76.197,24.926z"/>
		</g>
		<g>
			<path fill="#1A3B7E" d="M31,83v2c0,1.104,0.896,2,2,2h8c1.104,0,2-0.896,2-2v-2H31z"/>
		</g>
		<g>
			<path fill="#1A3B7E" d="M67,85c0,1.104,0.896,2,2,2h8c1.104,0,2-0.896,2-2v-2H67V85z"/>
		</g>
		<g>
			<path fill="#C5CAE9" d="M81,74c0-2.209-1.791-4-4-4h-9l-2.447-2.894C65.214,66.428,64.521,66,63.764,66H46.236     c-0.758,0-1.45,0.428-1.789,1.106L42,70h-9c-2.209,0-4,1.791-4,4v7c0,1.104,0.896,2,2,2h48c1.104,0,2-0.896,2-2V74z"/>
		</g>
		<g>
			<path fill="#0D57A1" d="M54,69h-7c-1.104,0-2,0.896-2,2v7c0,1.104,0.896,2,2,2h7V69z"/>
		</g>
		<g>
			<path fill="#0D57A1" d="M56,69h7c1.104,0,2,0.896,2,2v7c0,1.104-0.896,2-2,2h-7V69z"/>
		</g>
		<g>
			<circle fill="#2979FF" cx="37" cy="77" r="3"/>
		</g>
		<g>
			<circle fill="#2979FF" cx="72" cy="77" r="3"/>
		</g>
		<g>
			<rect x="31" y="47" fill="#E8EAF6" width="48" height="2"/>
		</g>
		<g>
			<polygon fill="#FFFFFF" points="54.123,47 31,47 31,49 52.123,49    "/>
		</g>
		<g>
			<path fill="#C5CAE9" d="M75,49H57v12c0,1.104,0.896,2,2,2h14c1.104,0,2-0.896,2-2V49z"/>
		</g>
		<g>
			<path fill="#E8EAF6" d="M35,37c0,1.104,0.896,2,2,2h14c1.104,0,2-0.896,2-2v-8c0-1.104-0.896-2-2-2H37c-1.104,0-2,0.896-2,2V37z"/>
		</g>
		<g>
			<path fill="#C5CAE9" d="M57,37c0,1.104,0.896,2,2,2h14c1.104,0,2-0.896,2-2v-8c0-1.104-0.896-2-2-2H59c-1.104,0-2,0.896-2,2V37z"/>
		</g>
		<g>
			<path fill="#E8EAF6" d="M73,27H59c-1.104,0-2,0.896-2,2v8c0,1.104,0.896,2,2,2h3.123L73.9,27.223C73.629,27.086,73.326,27,73,27z     "/>
		</g>
		<g>
			<path fill="#448AFF" d="M72,74.044c-1.656,0-3,1.343-3,3c0,0.751,0.286,1.43,0.742,1.956l4.214-4.213     C73.43,74.33,72.752,74.044,72,74.044z"/>
		</g>
		<g>
			<path fill="#448AFF" d="M37,74c-1.656,0-3,1.343-3,3c0,0.752,0.286,1.43,0.742,1.956l4.214-4.213C38.43,74.286,37.752,74,37,74z"/>
		</g>
		<rect x="35" y="49" fill="#C5CAE9" width="18" height="8"/>
		<path fill="#C5CAE9" d="M35,61c0,1.104,0.896,2,2,2h14c1.104,0,2-0.896,2-2v-2H35V61z"/>
		<polygon fill="#E8EAF6" points="44.123,57 52.123,49 35,49 35,57   "/>
		<path fill="#E8EAF6" d="M35,59v2c0,1.104,0.896,2,2,2h1.123l4-4H35z"/>
	</g>
</g>
<g id="R-Blue">
	<circle fill="#00B0FF" cx="55" cy="55" r="55"/>
	<g>
		<g>
			<path fill="#2962FF" d="M79,31c0-4.418-3.582-8-8-8H39c-4.418,0-8,3.582-8,8v50c0,1.104,0.896,2,2,2h44c1.104,0,2-0.896,2-2V31z"/>
		</g>
		<g>
			<path fill="#2979FF" d="M76.197,24.926C74.799,23.728,72.986,23,71,23H39c-4.418,0-8,3.582-8,8v39.124L76.197,24.926z"/>
		</g>
		<g>
			<path fill="#1A3B7E" d="M31,83v2c0,1.104,0.896,2,2,2h8c1.104,0,2-0.896,2-2v-2H31z"/>
		</g>
		<g>
			<path fill="#1A3B7E" d="M67,85c0,1.104,0.896,2,2,2h8c1.104,0,2-0.896,2-2v-2H67V85z"/>
		</g>
		<g>
			<path fill="#C5CAE9" d="M81,74c0-2.209-1.791-4-4-4h-9l-2.447-2.894C65.214,66.428,64.521,66,63.764,66H46.236     c-0.758,0-1.45,0.428-1.789,1.106L42,70h-9c-2.209,0-4,1.791-4,4v7c0,1.104,0.896,2,2,2h48c1.104,0,2-0.896,2-2V74z"/>
		</g>
		<g>
			<path fill="#0D57A1" d="M54,69h-7c-1.104,0-2,0.896-2,2v7c0,1.104,0.896,2,2,2h7V69z"/>
		</g>
		<g>
			<path fill="#0D57A1" d="M56,69h7c1.104,0,2,0.896,2,2v7c0,1.104-0.896,2-2,2h-7V69z"/>
		</g>
		<g>
			<circle fill="#2979FF" cx="37" cy="77" r="3"/>
		</g>
		<g>
			<circle fill="#2979FF" cx="72" cy="77" r="3"/>
		</g>
		<g>
			<rect x="31" y="47" fill="#E8EAF6" width="48" height="2"/>
		</g>
		<g>
			<polygon fill="#FFFFFF" points="54.123,47 31,47 31,49 52.123,49    "/>
		</g>
		<g>
			<path fill="#C5CAE9" d="M75,49H57v12c0,1.104,0.896,2,2,2h14c1.104,0,2-0.896,2-2V49z"/>
		</g>
		<g>
			<path fill="#E8EAF6" d="M35,37c0,1.104,0.896,2,2,2h14c1.104,0,2-0.896,2-2v-8c0-1.104-0.896-2-2-2H37c-1.104,0-2,0.896-2,2V37z"/>
		</g>
		<g>
			<path fill="#C5CAE9" d="M57,37c0,1.104,0.896,2,2,2h14c1.104,0,2-0.896,2-2v-8c0-1.104-0.896-2-2-2H59c-1.104,0-2,0.896-2,2V37z"/>
		</g>
		<g>
			<path fill="#E8EAF6" d="M73,27H59c-1.104,0-2,0.896-2,2v8c0,1.104,0.896,2,2,2h3.123L73.9,27.223C73.629,27.086,73.326,27,73,27z     "/>
		</g>
		<g>
			<path fill="#448AFF" d="M72,74.044c-1.656,0-3,1.343-3,3c0,0.751,0.286,1.43,0.742,1.956l4.214-4.213     C73.43,74.33,72.752,74.044,72,74.044z"/>
		</g>
		<g>
			<path fill="#448AFF" d="M37,74c-1.656,0-3,1.343-3,3c0,0.752,0.286,1.43,0.742,1.956l4.214-4.213C38.43,74.286,37.752,74,37,74z"/>
		</g>
		<rect x="35" y="49" fill="#C5CAE9" width="18" height="8"/>
		<path fill="#C5CAE9" d="M35,61c0,1.104,0.896,2,2,2h14c1.104,0,2-0.896,2-2v-2H35V61z"/>
		<polygon fill="#E8EAF6" points="44.123,57 52.123,49 35,49 35,57   "/>
		<path fill="#E8EAF6" d="M35,59v2c0,1.104,0.896,2,2,2h1.123l4-4H35z"/>
	</g>
</g>
<g id="Green" display="none">
	<g display="inline">
		<g>
			<path fill="#00A344" d="M79,31c0-4.418-3.582-8-8-8H39c-4.418,0-8,3.582-8,8v50c0,1.104,0.896,2,2,2h44c1.104,0,2-0.896,2-2V31z"/>
		</g>
		<g>
			<path fill="#00C250" d="M76.197,24.926C74.799,23.728,72.986,23,71,23H39c-4.418,0-8,3.582-8,8v39.124L76.197,24.926z"/>
		</g>
		<g>
			<path fill="#003B15" d="M31,83v2c0,1.104,0.896,2,2,2h8c1.104,0,2-0.896,2-2v-2H31z"/>
		</g>
		<g>
			<path fill="#003B15" d="M67,85c0,1.104,0.896,2,2,2h8c1.104,0,2-0.896,2-2v-2H67V85z"/>
		</g>
		<g>
			<path fill="#C5EB98" d="M81,74c0-2.209-1.791-4-4-4h-9l-2.447-2.894C65.214,66.428,64.521,66,63.764,66H46.236     c-0.758,0-1.45,0.428-1.789,1.106L42,70h-9c-2.209,0-4,1.791-4,4v7c0,1.104,0.896,2,2,2h48c1.104,0,2-0.896,2-2V74z"/>
		</g>
		<g>
			<path fill="#006E31" d="M54,69h-7c-1.104,0-2,0.896-2,2v7c0,1.104,0.896,2,2,2h7V69z"/>
		</g>
		<g>
			<path fill="#006E31" d="M56,69h7c1.104,0,2,0.896,2,2v7c0,1.104-0.896,2-2,2h-7V69z"/>
		</g>
		<g>
			<circle fill="#00C250" cx="37" cy="77" r="3"/>
		</g>
		<g>
			<circle fill="#00C250" cx="72" cy="77" r="3"/>
		</g>
		<g>
			<rect x="31" y="47" fill="#ECF5E1" width="48" height="2"/>
		</g>
		<g>
			<polygon fill="#FFFFFF" points="54.123,47 31,47 31,49 52.123,49    "/>
		</g>
		<g>
			<path fill="#C5EB98" d="M75,49H57v12c0,1.104,0.896,2,2,2h14c1.104,0,2-0.896,2-2V49z"/>
		</g>
		<g>
			<path fill="#ECF5E1" d="M35,37c0,1.104,0.896,2,2,2h14c1.104,0,2-0.896,2-2v-8c0-1.104-0.896-2-2-2H37c-1.104,0-2,0.896-2,2V37z"/>
		</g>
		<g>
			<path fill="#C5EB98" d="M57,37c0,1.104,0.896,2,2,2h14c1.104,0,2-0.896,2-2v-8c0-1.104-0.896-2-2-2H59c-1.104,0-2,0.896-2,2V37z"/>
		</g>
		<g>
			<path fill="#ECF5E1" d="M73,27H59c-1.104,0-2,0.896-2,2v8c0,1.104,0.896,2,2,2h3.123L73.9,27.223C73.629,27.086,73.326,27,73,27z     "/>
		</g>
		<g>
			<path fill="#00E676" d="M72,74.044c-1.656,0-3,1.343-3,3c0,0.751,0.286,1.43,0.742,1.956l4.214-4.213     C73.43,74.33,72.752,74.044,72,74.044z"/>
		</g>
		<g>
			<path fill="#00E676" d="M37,74c-1.656,0-3,1.343-3,3c0,0.752,0.286,1.43,0.742,1.956l4.214-4.213C38.43,74.286,37.752,74,37,74z"/>
		</g>
		<rect x="35" y="49" fill="#C5EB98" width="18" height="8"/>
		<path fill="#C5EB98" d="M35,61c0,1.104,0.896,2,2,2h14c1.104,0,2-0.896,2-2v-2H35V61z"/>
		<polygon fill="#ECF5E1" points="44.123,57 52.123,49 35,49 35,57   "/>
		<path fill="#ECF5E1" d="M35,59v2c0,1.104,0.896,2,2,2h1.123l4-4H35z"/>
	</g>
</g>
<g id="R-Green" display="none">
	<circle display="inline" fill="#64DD17" cx="55" cy="55" r="55"/>
	<g display="inline">
		<g>
			<path fill="#00A344" d="M79,31c0-4.418-3.582-8-8-8H39c-4.418,0-8,3.582-8,8v50c0,1.104,0.896,2,2,2h44c1.104,0,2-0.896,2-2V31z"/>
		</g>
		<g>
			<path fill="#00C250" d="M76.197,24.926C74.799,23.728,72.986,23,71,23H39c-4.418,0-8,3.582-8,8v39.124L76.197,24.926z"/>
		</g>
		<g>
			<path fill="#003B15" d="M31,83v2c0,1.104,0.896,2,2,2h8c1.104,0,2-0.896,2-2v-2H31z"/>
		</g>
		<g>
			<path fill="#003B15" d="M67,85c0,1.104,0.896,2,2,2h8c1.104,0,2-0.896,2-2v-2H67V85z"/>
		</g>
		<g>
			<path fill="#C5EB98" d="M81,74c0-2.209-1.791-4-4-4h-9l-2.447-2.894C65.214,66.428,64.521,66,63.764,66H46.236     c-0.758,0-1.45,0.428-1.789,1.106L42,70h-9c-2.209,0-4,1.791-4,4v7c0,1.104,0.896,2,2,2h48c1.104,0,2-0.896,2-2V74z"/>
		</g>
		<g>
			<path fill="#006E31" d="M54,69h-7c-1.104,0-2,0.896-2,2v7c0,1.104,0.896,2,2,2h7V69z"/>
		</g>
		<g>
			<path fill="#006E31" d="M56,69h7c1.104,0,2,0.896,2,2v7c0,1.104-0.896,2-2,2h-7V69z"/>
		</g>
		<g>
			<circle fill="#00C250" cx="37" cy="77" r="3"/>
		</g>
		<g>
			<circle fill="#00C250" cx="72" cy="77" r="3"/>
		</g>
		<g>
			<rect x="31" y="47" fill="#ECF5E1" width="48" height="2"/>
		</g>
		<g>
			<polygon fill="#FFFFFF" points="54.123,47 31,47 31,49 52.123,49    "/>
		</g>
		<g>
			<path fill="#C5EB98" d="M75,49H57v12c0,1.104,0.896,2,2,2h14c1.104,0,2-0.896,2-2V49z"/>
		</g>
		<g>
			<path fill="#ECF5E1" d="M35,37c0,1.104,0.896,2,2,2h14c1.104,0,2-0.896,2-2v-8c0-1.104-0.896-2-2-2H37c-1.104,0-2,0.896-2,2V37z"/>
		</g>
		<g>
			<path fill="#C5EB98" d="M57,37c0,1.104,0.896,2,2,2h14c1.104,0,2-0.896,2-2v-8c0-1.104-0.896-2-2-2H59c-1.104,0-2,0.896-2,2V37z"/>
		</g>
		<g>
			<path fill="#ECF5E1" d="M73,27H59c-1.104,0-2,0.896-2,2v8c0,1.104,0.896,2,2,2h3.123L73.9,27.223C73.629,27.086,73.326,27,73,27z     "/>
		</g>
		<g>
			<path fill="#00E676" d="M72,74.044c-1.656,0-3,1.343-3,3c0,0.751,0.286,1.43,0.742,1.956l4.214-4.213     C73.43,74.33,72.752,74.044,72,74.044z"/>
		</g>
		<g>
			<path fill="#00E676" d="M37,74c-1.656,0-3,1.343-3,3c0,0.752,0.286,1.43,0.742,1.956l4.214-4.213C38.43,74.286,37.752,74,37,74z"/>
		</g>
		<rect x="35" y="49" fill="#C5EB98" width="18" height="8"/>
		<path fill="#C5EB98" d="M35,61c0,1.104,0.896,2,2,2h14c1.104,0,2-0.896,2-2v-2H35V61z"/>
		<polygon fill="#ECF5E1" points="44.123,57 52.123,49 35,49 35,57   "/>
		<path fill="#ECF5E1" d="M35,59v2c0,1.104,0.896,2,2,2h1.123l4-4H35z"/>
	</g>
</g>
<g id="Red" display="none">
	<g display="inline">
		<g>
			<path fill="#FC6100" d="M79,31c0-4.418-3.582-8-8-8H39c-4.418,0-8,3.582-8,8v50c0,1.104,0.896,2,2,2h44c1.104,0,2-0.896,2-2V31z"/>
		</g>
		<g>
			<path fill="#FF8000" d="M76.197,24.926C74.799,23.728,72.986,23,71,23H39c-4.418,0-8,3.582-8,8v39.124L76.197,24.926z"/>
		</g>
		<g>
			<path fill="#4C2720" d="M31,83v2c0,1.104,0.896,2,2,2h8c1.104,0,2-0.896,2-2v-2H31z"/>
		</g>
		<g>
			<path fill="#4C2720" d="M67,85c0,1.104,0.896,2,2,2h8c1.104,0,2-0.896,2-2v-2H67V85z"/>
		</g>
		<g>
			<path fill="#FFEBB8" d="M81,74c0-2.209-1.791-4-4-4h-9l-2.447-2.894C65.214,66.428,64.521,66,63.764,66H46.236     c-0.758,0-1.45,0.428-1.789,1.106L42,70h-9c-2.209,0-4,1.791-4,4v7c0,1.104,0.896,2,2,2h48c1.104,0,2-0.896,2-2V74z"/>
		</g>
		<g>
			<path fill="#804B1C" d="M54,69h-7c-1.104,0-2,0.896-2,2v7c0,1.104,0.896,2,2,2h7V69z"/>
		</g>
		<g>
			<path fill="#804B1C" d="M56,69h7c1.104,0,2,0.896,2,2v7c0,1.104-0.896,2-2,2h-7V69z"/>
		</g>
		<g>
			<circle fill="#FF8000" cx="37" cy="77" r="3"/>
		</g>
		<g>
			<circle fill="#FF8000" cx="72" cy="77" r="3"/>
		</g>
		<g>
			<rect x="31" y="47" fill="#FFF4D1" width="48" height="2"/>
		</g>
		<g>
			<polygon fill="#FFFFFF" points="54.123,47 31,47 31,49 52.123,49    "/>
		</g>
		<g>
			<path fill="#FFEBB8" d="M75,49H57v12c0,1.104,0.896,2,2,2h14c1.104,0,2-0.896,2-2V49z"/>
		</g>
		<g>
			<path fill="#FFF4D1" d="M35,37c0,1.104,0.896,2,2,2h14c1.104,0,2-0.896,2-2v-8c0-1.104-0.896-2-2-2H37c-1.104,0-2,0.896-2,2V37z"/>
		</g>
		<g>
			<path fill="#FFEBB8" d="M57,37c0,1.104,0.896,2,2,2h14c1.104,0,2-0.896,2-2v-8c0-1.104-0.896-2-2-2H59c-1.104,0-2,0.896-2,2V37z"/>
		</g>
		<g>
			<path fill="#FFF4D1" d="M73,27H59c-1.104,0-2,0.896-2,2v8c0,1.104,0.896,2,2,2h3.123L73.9,27.223C73.629,27.086,73.326,27,73,27z     "/>
		</g>
		<g>
			<path fill="#FFAA00" d="M72,74.044c-1.656,0-3,1.343-3,3c0,0.751,0.286,1.43,0.742,1.956l4.214-4.213     C73.43,74.33,72.752,74.044,72,74.044z"/>
		</g>
		<g>
			<path fill="#FFAA00" d="M37,74c-1.656,0-3,1.343-3,3c0,0.752,0.286,1.43,0.742,1.956l4.214-4.213C38.43,74.286,37.752,74,37,74z"/>
		</g>
		<rect x="35" y="49" fill="#FFEBB8" width="18" height="8"/>
		<path fill="#FFEBB8" d="M35,61c0,1.104,0.896,2,2,2h14c1.104,0,2-0.896,2-2v-2H35V61z"/>
		<polygon fill="#FFF4D1" points="44.123,57 52.123,49 35,49 35,57   "/>
		<path fill="#FFF4D1" d="M35,59v2c0,1.104,0.896,2,2,2h1.123l4-4H35z"/>
	</g>
</g>
<g id="R-Red" display="none">
	<circle display="inline" fill="#FF5722" cx="55" cy="55" r="55"/>
	<g display="inline">
		<g>
			<path fill="#AC2200" d="M79,31c0-4.418-3.582-8-8-8H39c-4.418,0-8,3.582-8,8v50c0,1.104,0.896,2,2,2h44c1.104,0,2-0.896,2-2V31z"/>
		</g>
		<g>
			<path fill="#D22600" d="M76.197,24.926C74.799,23.728,72.986,23,71,23H39c-4.418,0-8,3.582-8,8v39.124L76.197,24.926z"/>
		</g>
		<g>
			<path fill="#2C0900" d="M31,83v2c0,1.104,0.896,2,2,2h8c1.104,0,2-0.896,2-2v-2H31z"/>
		</g>
		<g>
			<path fill="#2C0900" d="M67,85c0,1.104,0.896,2,2,2h8c1.104,0,2-0.896,2-2v-2H67V85z"/>
		</g>
		<g>
			<path fill="#FFC7B2" d="M81,74c0-2.209-1.791-4-4-4h-9l-2.447-2.894C65.214,66.428,64.521,66,63.764,66H46.236     c-0.758,0-1.45,0.428-1.789,1.106L42,70h-9c-2.209,0-4,1.791-4,4v7c0,1.104,0.896,2,2,2h48c1.104,0,2-0.896,2-2V74z"/>
		</g>
		<g>
			<path fill="#7A1C05" d="M54,69h-7c-1.104,0-2,0.896-2,2v7c0,1.104,0.896,2,2,2h7V69z"/>
		</g>
		<g>
			<path fill="#7A1C05" d="M56,69h7c1.104,0,2,0.896,2,2v7c0,1.104-0.896,2-2,2h-7V69z"/>
		</g>
		<g>
			<circle fill="#D22600" cx="37" cy="77" r="3"/>
		</g>
		<g>
			<circle fill="#D22600" cx="72" cy="77" r="3"/>
		</g>
		<g>
			<rect x="31" y="47" fill="#FFE4DE" width="48" height="2"/>
		</g>
		<g>
			<polygon fill="#FFFFFF" points="54.123,47 31,47 31,49 52.123,49    "/>
		</g>
		<g>
			<path fill="#FFC7B2" d="M75,49H57v12c0,1.104,0.896,2,2,2h14c1.104,0,2-0.896,2-2V49z"/>
		</g>
		<g>
			<path fill="#FFE4DE" d="M35,37c0,1.104,0.896,2,2,2h14c1.104,0,2-0.896,2-2v-8c0-1.104-0.896-2-2-2H37c-1.104,0-2,0.896-2,2V37z"/>
		</g>
		<g>
			<path fill="#FFC7B2" d="M57,37c0,1.104,0.896,2,2,2h14c1.104,0,2-0.896,2-2v-8c0-1.104-0.896-2-2-2H59c-1.104,0-2,0.896-2,2V37z"/>
		</g>
		<g>
			<path fill="#FFE4DE" d="M73,27H59c-1.104,0-2,0.896-2,2v8c0,1.104,0.896,2,2,2h3.123L73.9,27.223C73.629,27.086,73.326,27,73,27z     "/>
		</g>
		<g>
			<path fill="#FF2F00" d="M72,74.044c-1.656,0-3,1.343-3,3c0,0.751,0.286,1.43,0.742,1.956l4.214-4.213     C73.43,74.33,72.752,74.044,72,74.044z"/>
		</g>
		<g>
			<path fill="#FF2F00" d="M37,74c-1.656,0-3,1.343-3,3c0,0.752,0.286,1.43,0.742,1.956l4.214-4.213C38.43,74.286,37.752,74,37,74z"/>
		</g>
		<rect x="35" y="49" fill="#FFC7B2" width="18" height="8"/>
		<path fill="#FFC7B2" d="M35,61c0,1.104,0.896,2,2,2h14c1.104,0,2-0.896,2-2v-2H35V61z"/>
		<polygon fill="#FFE4DE" points="44.123,57 52.123,49 35,49 35,57   "/>
		<path fill="#FFE4DE" d="M35,59v2c0,1.104,0.896,2,2,2h1.123l4-4H35z"/>
	</g>
</g>
<g id="Yellow" display="none">
	<g display="inline">
		<g>
			<path fill="#FC6100" d="M79,31c0-4.418-3.582-8-8-8H39c-4.418,0-8,3.582-8,8v50c0,1.104,0.896,2,2,2h44c1.104,0,2-0.896,2-2V31z"/>
		</g>
		<g>
			<path fill="#FF8000" d="M76.197,24.926C74.799,23.728,72.986,23,71,23H39c-4.418,0-8,3.582-8,8v39.124L76.197,24.926z"/>
		</g>
		<g>
			<path fill="#4C2720" d="M31,83v2c0,1.104,0.896,2,2,2h8c1.104,0,2-0.896,2-2v-2H31z"/>
		</g>
		<g>
			<path fill="#4C2720" d="M67,85c0,1.104,0.896,2,2,2h8c1.104,0,2-0.896,2-2v-2H67V85z"/>
		</g>
		<g>
			<path fill="#FFEBB8" d="M81,74c0-2.209-1.791-4-4-4h-9l-2.447-2.894C65.214,66.428,64.521,66,63.764,66H46.236     c-0.758,0-1.45,0.428-1.789,1.106L42,70h-9c-2.209,0-4,1.791-4,4v7c0,1.104,0.896,2,2,2h48c1.104,0,2-0.896,2-2V74z"/>
		</g>
		<g>
			<path fill="#804B1C" d="M54,69h-7c-1.104,0-2,0.896-2,2v7c0,1.104,0.896,2,2,2h7V69z"/>
		</g>
		<g>
			<path fill="#804B1C" d="M56,69h7c1.104,0,2,0.896,2,2v7c0,1.104-0.896,2-2,2h-7V69z"/>
		</g>
		<g>
			<circle fill="#FF8000" cx="37" cy="77" r="3"/>
		</g>
		<g>
			<circle fill="#FF8000" cx="72" cy="77" r="3"/>
		</g>
		<g>
			<rect x="31" y="47" fill="#FFF4D1" width="48" height="2"/>
		</g>
		<g>
			<polygon fill="#FFFFFF" points="54.123,47 31,47 31,49 52.123,49    "/>
		</g>
		<g>
			<path fill="#FFEBB8" d="M75,49H57v12c0,1.104,0.896,2,2,2h14c1.104,0,2-0.896,2-2V49z"/>
		</g>
		<g>
			<path fill="#FFF4D1" d="M35,37c0,1.104,0.896,2,2,2h14c1.104,0,2-0.896,2-2v-8c0-1.104-0.896-2-2-2H37c-1.104,0-2,0.896-2,2V37z"/>
		</g>
		<g>
			<path fill="#FFEBB8" d="M57,37c0,1.104,0.896,2,2,2h14c1.104,0,2-0.896,2-2v-8c0-1.104-0.896-2-2-2H59c-1.104,0-2,0.896-2,2V37z"/>
		</g>
		<g>
			<path fill="#FFF4D1" d="M73,27H59c-1.104,0-2,0.896-2,2v8c0,1.104,0.896,2,2,2h3.123L73.9,27.223C73.629,27.086,73.326,27,73,27z     "/>
		</g>
		<g>
			<path fill="#FFAA00" d="M72,74.044c-1.656,0-3,1.343-3,3c0,0.751,0.286,1.43,0.742,1.956l4.214-4.213     C73.43,74.33,72.752,74.044,72,74.044z"/>
		</g>
		<g>
			<path fill="#FFAA00" d="M37,74c-1.656,0-3,1.343-3,3c0,0.752,0.286,1.43,0.742,1.956l4.214-4.213C38.43,74.286,37.752,74,37,74z"/>
		</g>
		<rect x="35" y="49" fill="#FFEBB8" width="18" height="8"/>
		<path fill="#FFEBB8" d="M35,61c0,1.104,0.896,2,2,2h14c1.104,0,2-0.896,2-2v-2H35V61z"/>
		<polygon fill="#FFF4D1" points="44.123,57 52.123,49 35,49 35,57   "/>
		<path fill="#FFF4D1" d="M35,59v2c0,1.104,0.896,2,2,2h1.123l4-4H35z"/>
	</g>
</g>
<g id="R-Yellow" display="none">
	<circle display="inline" fill="#FFD600" cx="55" cy="55" r="55"/>
	<g display="inline">
		<g>
			<path fill="#FC6100" d="M79,31c0-4.418-3.582-8-8-8H39c-4.418,0-8,3.582-8,8v50c0,1.104,0.896,2,2,2h44c1.104,0,2-0.896,2-2V31z"/>
		</g>
		<g>
			<path fill="#FF8000" d="M76.197,24.926C74.799,23.728,72.986,23,71,23H39c-4.418,0-8,3.582-8,8v39.124L76.197,24.926z"/>
		</g>
		<g>
			<path fill="#4C2720" d="M31,83v2c0,1.104,0.896,2,2,2h8c1.104,0,2-0.896,2-2v-2H31z"/>
		</g>
		<g>
			<path fill="#4C2720" d="M67,85c0,1.104,0.896,2,2,2h8c1.104,0,2-0.896,2-2v-2H67V85z"/>
		</g>
		<g>
			<path fill="#FFEBB8" d="M81,74c0-2.209-1.791-4-4-4h-9l-2.447-2.894C65.214,66.428,64.521,66,63.764,66H46.236     c-0.758,0-1.45,0.428-1.789,1.106L42,70h-9c-2.209,0-4,1.791-4,4v7c0,1.104,0.896,2,2,2h48c1.104,0,2-0.896,2-2V74z"/>
		</g>
		<g>
			<path fill="#804B1C" d="M54,69h-7c-1.104,0-2,0.896-2,2v7c0,1.104,0.896,2,2,2h7V69z"/>
		</g>
		<g>
			<path fill="#804B1C" d="M56,69h7c1.104,0,2,0.896,2,2v7c0,1.104-0.896,2-2,2h-7V69z"/>
		</g>
		<g>
			<circle fill="#FF8000" cx="37" cy="77" r="3"/>
		</g>
		<g>
			<circle fill="#FF8000" cx="72" cy="77" r="3"/>
		</g>
		<g>
			<rect x="31" y="47" fill="#FFF4D1" width="48" height="2"/>
		</g>
		<g>
			<polygon fill="#FFFFFF" points="54.123,47 31,47 31,49 52.123,49    "/>
		</g>
		<g>
			<path fill="#FFEBB8" d="M75,49H57v12c0,1.104,0.896,2,2,2h14c1.104,0,2-0.896,2-2V49z"/>
		</g>
		<g>
			<path fill="#FFF4D1" d="M35,37c0,1.104,0.896,2,2,2h14c1.104,0,2-0.896,2-2v-8c0-1.104-0.896-2-2-2H37c-1.104,0-2,0.896-2,2V37z"/>
		</g>
		<g>
			<path fill="#FFEBB8" d="M57,37c0,1.104,0.896,2,2,2h14c1.104,0,2-0.896,2-2v-8c0-1.104-0.896-2-2-2H59c-1.104,0-2,0.896-2,2V37z"/>
		</g>
		<g>
			<path fill="#FFF4D1" d="M73,27H59c-1.104,0-2,0.896-2,2v8c0,1.104,0.896,2,2,2h3.123L73.9,27.223C73.629,27.086,73.326,27,73,27z     "/>
		</g>
		<g>
			<path fill="#FFAA00" d="M72,74.044c-1.656,0-3,1.343-3,3c0,0.751,0.286,1.43,0.742,1.956l4.214-4.213     C73.43,74.33,72.752,74.044,72,74.044z"/>
		</g>
		<g>
			<path fill="#FFAA00" d="M37,74c-1.656,0-3,1.343-3,3c0,0.752,0.286,1.43,0.742,1.956l4.214-4.213C38.43,74.286,37.752,74,37,74z"/>
		</g>
		<rect x="35" y="49" fill="#FFEBB8" width="18" height="8"/>
		<path fill="#FFEBB8" d="M35,61c0,1.104,0.896,2,2,2h14c1.104,0,2-0.896,2-2v-2H35V61z"/>
		<polygon fill="#FFF4D1" points="44.123,57 52.123,49 35,49 35,57   "/>
		<path fill="#FFF4D1" d="M35,59v2c0,1.104,0.896,2,2,2h1.123l4-4H35z"/>
	</g>
</g>
</svg>