<svg xmlns="http://www.w3.org/2000/svg" width="180" height="160" viewBox="0 0 180 160"><g enable-background="new" fill="#888688"><path d="M20.108 149.5v-3.67h-4.677v3.67h-.996v-8h.996v3.442h4.677v-3.442h.996v8h-.996zM22.979 149.5v-8h5.241v.888h-4.246v2.579h4.162v.887h-4.162v2.759h4.246v.888h-5.241zM35.516 149.5l-.708-1.787h-3.981l-.708 1.787h-1.14l3.226-8h1.235l3.214 8h-1.138zm-2.699-6.98l-1.691 4.318h3.394l-1.703-4.318zM37.571 149.5v-8h.995v7.112h3.718v.888h-4.713zM44.398 149.5v-7.112h-2.531v-.888h6.069v.888h-2.543v7.112h-.995zM54.932 149.5v-3.67h-4.677v3.67h-.996v-8h.996v3.442h4.677v-3.442h.996v8h-.996z"/></g><g enable-background="new" fill="#888688"><path d="M125.713 149.25v-2.027h-3.754v-.827l3.387-5.146h1.35v5.098h1.113v.875h-1.113v2.027h-.983zm0-7.076l-2.771 4.174h2.771v-4.174zM130.297 149.25v-6.692l-1.267 1.367-.593-.611 1.979-2.063h.863v8h-.982zM136.196 149.25v-8h.983v8h-.983zM138.708 145.256c0-2.459 1.788-4.137 4.062-4.137 1.396 0 2.368.671 2.996 1.582l-.817.469c-.45-.684-1.279-1.164-2.179-1.164-1.729 0-3.043 1.332-3.043 3.25 0 1.896 1.314 3.25 3.043 3.25.899 0 1.729-.491 2.179-1.162l.829.455c-.664.924-1.611 1.596-3.008 1.596-2.274 0-4.062-1.68-4.062-4.139zM146.715 145.256c0-2.362 1.587-4.137 3.92-4.137 2.332 0 3.931 1.774 3.931 4.137 0 2.363-1.599 4.139-3.931 4.139-2.333 0-3.92-1.776-3.92-4.139zm6.832 0c0-1.871-1.148-3.25-2.912-3.25-1.776 0-2.901 1.379-2.901 3.25 0 1.859 1.125 3.25 2.901 3.25 1.763 0 2.912-1.391 2.912-3.25zM161.686 149.25l-4.606-6.381v6.381h-.982v-8h1.007l4.547 6.249v-6.249h.982v8h-.948zM164.009 148.123l.593-.768c.509.6 1.361 1.15 2.475 1.15 1.408 0 1.858-.768 1.858-1.391 0-2.062-4.677-.912-4.677-3.766 0-1.32 1.16-2.23 2.723-2.23 1.196 0 2.132.419 2.795 1.127l-.592.731c-.592-.672-1.421-.96-2.285-.96-.936 0-1.623.516-1.623 1.271 0 1.799 4.678.768 4.678 3.754 0 1.151-.781 2.352-2.913 2.352-1.362.002-2.381-.527-3.032-1.27z"/></g><g stroke="#010101" stroke-linecap="round" stroke-linejoin="round" stroke-miterlimit="10" fill="none"><path d="M12.417 86.666c-.83 0-1.5.672-1.5 1.5 0 .83.67 1.5 1.5 1.5h1.5c0 6.186 3.946 12.186 9.454 14.154-3.387.94-5.704 2.684-5.704 3.846h21c0-1.162-2.32-2.904-5.705-3.846 5.506-1.969 9.455-7.969 9.455-14.154h1.5c.826 0 1.5-.67 1.5-1.5 0-.828-.674-1.5-1.5-1.5h-31.5zM37.167 83.666c5.9-8.232 6.311-8.885 5.25-9.75-1.137-.924-1.837-.434-11.25 9.75M24.418 99.422c-2.372-.988-4.27-2.885-5.258-5.258"/></g><g stroke="#010101" stroke-linecap="round" stroke-linejoin="round" stroke-miterlimit="10" fill="none"><circle cx="18.167" cy="42.167" r="3"/><circle cx="39.165" cy="42.167" r="3"/><path d="M15.167 42.167h-3.75v-8.25l3-3 3.75-6.75h6.748v-3h21v21h-3.75M21.167 42.167h14.998M21.917 27.167h-2.25l-2.25 4.5M24.915 24.167v15M11.417 39.167h34.498"/><path d="M30.915 19.667c0-1.656-1.342-3-3-3-1.653 0-3 1.344-3 3v1.5h6v-1.5zM39.915 28.667h-3v-3h-3v3h-3v3h3v3h3v-3h3z"/></g><g stroke="#010101" stroke-linecap="round" stroke-linejoin="round" stroke-miterlimit="10" fill="none"><path d="M169.416 43.667c0 1.649-1.35 3-3 3h-28.5c-1.65 0-3-1.351-3-3v-28.5c0-1.65 1.35-3 3-3h28.5c1.65 0 3 1.35 3 3v28.5zM134.916 25.667h6l3-4.502 3 4.499 3-6.75 4.5 14.25 3.75-17.999 3 10.502h8.25M140.916 42.167v1.5M149.916 42.167v1.5M158.916 42.167v1.5M145.416 39.167v4.5M154.416 39.167v4.5M163.416 39.167v4.5"/></g><g stroke="#010101" stroke-linecap="round" stroke-linejoin="round" stroke-miterlimit="10" fill="none"><path d="M98.416 27.096v19.571M81.917 46.667v-19.594M98.416 46.667v-16.5h9v16.5M72.917 46.667v-16.5h9v16.5M72.917 46.667h34.499"/><circle cx="90.166" cy="21.917" r="9.75"/><path d="M95.416 19.667h-3l.002-3h-4.5l-.001 3h-3v4.5h3v3h4.499v-3h3zM75.917 33.167h3M75.917 36.167h3M75.917 39.167h3M75.917 42.167h3M101.416 33.167h3M101.416 36.167h3M101.416 39.167h3M101.416 42.167h3M84.917 34.667h1.5M84.917 37.667h1.5M84.917 40.667h1.5M89.417 34.667h1.5M89.417 37.667h1.5M89.417 40.667h1.5M93.916 34.667h1.5M93.916 37.667h1.5M93.916 40.667h1.5"/><path d="M87.917 43.667h4.5v3h-4.5z"/></g><g stroke="#010101" stroke-linejoin="round" stroke-miterlimit="10" fill="none"><path d="M152.416 101.416c0 1.656-1.344 3-3 3h-9c-1.656 0-3-1.344-3-3v-13.5c0-1.656 1.344-3 3-3h9c1.656 0 3 1.344 3 3v13.5z"/><path stroke-linecap="round" d="M164.416 108.939v-28.523c0-3.312-2.686-6-6-6h-10.5v3c0 1.656-1.344 3-3 3s-3-1.344-3-3v-.75"/><path d="M137.416 89.416h15M144.916 104.416v5.25"/><path stroke-linecap="round" d="M144.916 80.416v4.5M147.166 93.916h5.25M148.666 96.916h3.75M147.166 99.916h5.25"/></g><g stroke="#010101" stroke-linecap="round" stroke-linejoin="round" stroke-miterlimit="10" fill="none"><path d="M96.916 92.666h-4.5v-4.5h-4.499v4.5h-4.5v4.5h4.5v4.5h4.499v-4.5h4.5zM107.416 85.166c0-1.65-1.35-3-3-3h-28.5c-1.649 0-3 1.35-3 3v18c0 1.65 1.351 3 3 3h28.5c1.65 0 3-1.35 3-3v-18zM84.917 82.166v-2.25c0-1.238 1.012-2.25 2.25-2.25h6c1.237 0 2.25 1.012 2.25 2.25v2.25"/></g></svg>