<svg xmlns="http://www.w3.org/2000/svg" width="180" height="160" viewBox="0 0 180 160"><g enable-background="new" fill="#888688"><path d="M14.436 149.5v-8h3.214c1.607 0 2.506 1.104 2.506 2.411s-.912 2.41-2.506 2.41h-2.219v3.179h-.995zm4.689-5.589c0-.899-.648-1.523-1.595-1.523h-2.099v3.047h2.099c.947 0 1.595-.624 1.595-1.524zM27.152 149.5v-3.67h-4.677v3.67h-.996v-8h.996v3.442h4.677v-3.442h.996v8h-.996zM29.7 145.506c0-2.362 1.607-4.138 3.97-4.138s3.982 1.775 3.982 4.138-1.619 4.138-3.982 4.138-3.97-1.775-3.97-4.138zm6.92 0c0-1.871-1.163-3.25-2.95-3.25-1.799 0-2.938 1.379-2.938 3.25 0 1.859 1.139 3.251 2.938 3.251 1.787 0 2.95-1.392 2.95-3.251zM40.858 149.5v-7.112h-2.531v-.888h6.069v.888h-2.543v7.112h-.995zM45.072 145.506c0-2.362 1.607-4.138 3.97-4.138s3.982 1.775 3.982 4.138-1.619 4.138-3.982 4.138-3.97-1.775-3.97-4.138zm6.92 0c0-1.871-1.163-3.25-2.95-3.25-1.799 0-2.938 1.379-2.938 3.25 0 1.859 1.139 3.251 2.938 3.251 1.787 0 2.95-1.392 2.95-3.251z"/></g><g enable-background="new" fill="#888688"><path d="M118.809 145.256c0-2.158.994-4.125 3.221-4.125 1.006 0 1.692.383 2.178.959l-.497.744c-.402-.48-.864-.816-1.681-.816-1.54 0-2.227 1.571-2.227 3.143v.312c.344-.553 1.22-1.248 2.238-1.248 1.42 0 2.581.852 2.581 2.555 0 1.379-1.042 2.615-2.759 2.615-2.215 0-3.054-1.956-3.054-4.139zm4.818 1.559c0-1.175-.805-1.728-1.812-1.728-.793 0-1.551.492-1.978 1.188.083.996.604 2.23 1.978 2.23 1.22.001 1.812-.935 1.812-1.69zM126.199 148.422l.497-.743c.403.479.876.815 1.693.815 1.599 0 2.226-1.619 2.226-3.143l-.012-.311c-.343.551-1.219 1.246-2.226 1.246-1.421 0-2.593-.852-2.593-2.555 0-1.379 1.041-2.613 2.771-2.613 2.202 0 3.055 1.954 3.055 4.137 0 2.159-1.007 4.126-3.221 4.126-1.006.001-1.693-.395-2.19-.959zm4.381-4.197c-.095-.983-.615-2.219-1.989-2.219-1.208 0-1.812.924-1.812 1.691 0 1.176.805 1.727 1.824 1.727.782 0 1.551-.491 1.977-1.199zM136.196 149.25v-8h.982v8h-.982zM138.707 145.256c0-2.459 1.788-4.137 4.062-4.137 1.397 0 2.368.671 2.996 1.582l-.817.469c-.449-.684-1.278-1.164-2.179-1.164-1.729 0-3.043 1.332-3.043 3.25 0 1.896 1.314 3.25 3.043 3.25.9 0 1.729-.491 2.179-1.162l.829.455c-.663.924-1.61 1.596-3.008 1.596-2.274 0-4.062-1.68-4.062-4.139zM146.715 145.256c0-2.362 1.586-4.137 3.919-4.137s3.932 1.774 3.932 4.137c0 2.363-1.599 4.139-3.932 4.139s-3.919-1.776-3.919-4.139zm6.832 0c0-1.871-1.148-3.25-2.913-3.25-1.776 0-2.901 1.379-2.901 3.25 0 1.859 1.125 3.25 2.901 3.25 1.764 0 2.913-1.391 2.913-3.25zM161.685 149.25l-4.606-6.381v6.381h-.982v-8h1.007l4.547 6.249v-6.249h.982v8h-.948zM164.009 148.123l.592-.768c.509.6 1.362 1.15 2.475 1.15 1.409 0 1.859-.768 1.859-1.391 0-2.062-4.677-.912-4.677-3.766 0-1.32 1.16-2.23 2.723-2.23 1.196 0 2.131.419 2.795 1.127l-.592.731c-.593-.672-1.422-.96-2.286-.96-.935 0-1.622.516-1.622 1.271 0 1.799 4.678.768 4.678 3.754 0 1.151-.782 2.352-2.913 2.352-1.363.002-2.381-.527-3.032-1.27z"/></g><g stroke="#010101" stroke-linejoin="round" stroke-miterlimit="10" fill="none"><path d="M164.5 19.417c0 1.654-1.344 3-3 3h-12c-1.658 0-3-1.346-3-3v-7.5h18v7.5zM149.5 26.917h12v15h-12z"/><circle cx="143.5" cy="34.417" r="3"/><path stroke-linecap="round" d="M152.5 35.917l1.5-4.5h3l1.5 4.5"/><path d="M149.5 14.167v6M152.5 14.167v6M155.5 14.167v6M158.5 14.167v6M161.5 14.167v6M151 22.417v4.5M160 22.417v4.5"/><path d="M164.5 32.917h4.5v3h-4.5zM161.5 28.417h6c2.477 0 4.5 2.023 4.5 4.5v3c0 2.475-2.023 4.5-4.5 4.5h-6M149.5 40.417h-7.5c-2.477 0-4.5-2.025-4.5-4.5v-3c0-2.477 2.023-4.5 4.5-4.5h7.5"/></g><g stroke="#010101" stroke-linecap="round" stroke-linejoin="round" stroke-miterlimit="10" fill="none"><path d="M74.5 75.416h34.5v28.5h-34.5zM82 78.416h-4.5v4.5M101.5 78.416h4.5v4.5M82 100.916h-4.5v-4.5M101.5 100.916h4.5v-4.5"/><path d="M103 89.666s-6 6.75-11.25 6.75l-11.25-6.75s6-6.75 11.25-6.75l11.25 6.75z"/><circle cx="91.75" cy="89.666" r="3.75"/><circle cx="91.75" cy="89.666" r=".75"/></g><g stroke="#010101" stroke-linejoin="round" stroke-miterlimit="10" fill="none"><path d="M13 72.916h34.5v34.5h-34.5zM47.5 98.416h-34.5"/><path d="M26.5 77.416c-1.867 0-3.404 1.371-3.689 3.156-.254-.098-.523-.156-.811-.156-1.242 0-2.25 1.008-2.25 2.25s1.008 2.25 2.25 2.25h4.5c2.071 0 3.75-1.68 3.75-3.75 0-2.072-1.679-3.75-3.75-3.75zM17.5 98.416s3-7.5 6.75-7.5l6.75 4.5 4.521-7.752c.451-.773 1.279-1.248 2.173-1.248.954 0 1.825.539 2.25 1.391l5.306 10.609"/></g><path stroke="#010101" stroke-linejoin="round" stroke-miterlimit="10" d="M41.5 18.917l-1.5-3c-.525-.789-1.304-1.5-2.25-1.5h-7.5c-.946 0-1.725.711-2.25 1.5l-2.25 3h-9.75c-2.25 0-3 1.02-3 2.584v15.582c0 1.564.75 2.834 3.084 2.834h28.332c2.334 0 3.084-1.27 3.084-2.834v-15.583c0-1.564-.75-2.584-3.084-2.584l-2.916.001zM16 18.893v-1.477c0-.828.671-1.5 1.5-1.5h1.5c.828 0 1.5.672 1.5 1.5v1.5" fill="none"/><path fill="#010101" d="M18.25 21.167c-.416 0-.75.334-.75.75 0 .412.334.75.75.75.413 0 .75-.338.75-.75 0-.417-.337-.75-.75-.75zM21.25 21.167c-.416 0-.75.334-.75.75 0 .412.334.75.75.75.413 0 .75-.338.75-.75 0-.417-.337-.75-.75-.75zM24.25 21.167c-.416 0-.75.334-.75.75 0 .412.334.75.75.75.413 0 .75-.338.75-.75 0-.417-.337-.75-.75-.75z"/><circle stroke="#010101" stroke-linejoin="round" stroke-miterlimit="10" cx="38.5" cy="30.917" r="6" fill="none"/><path stroke="#010101" stroke-linejoin="round" stroke-miterlimit="10" d="M29.5 35.417c0 .822-.676 1.5-1.5 1.5h-10.5c-.824 0-1.5-.678-1.5-1.5v-9c0-.826.676-1.5 1.5-1.5h10.5c.824 0 1.5.674 1.5 1.5v9z" fill="none"/><path stroke="#010101" stroke-linecap="round" stroke-linejoin="round" stroke-miterlimit="10" fill="none" d="M38.5 27.917v1.5M38.5 32.417v1.5M41.5 30.917h-1.5M37 30.917h-1.5"/><g stroke="#010101" stroke-linejoin="round" stroke-miterlimit="10" fill="none"><path stroke-linecap="round" d="M87.25 35.917v1.549l-9.137 3.096c-2.168.773-3.613 2.855-3.613 5.105h34.5c0-2.25-1.449-4.332-3.617-5.105l-9.133-3.096v-5.299M83.709 17.258c1.582-3.197 4.488-5.342 7.814-5.342 5.012 0 9.078 4.877 9.078 10.894 0 4.63-2.408 8.585-5.802 10.163M100.434 20.707c-.305.036-.432-.005-.74.058-3.092.593-5.08-.525-6.78-3.506-.381.73-1.065 1.406-1.914 1.965"/><path d="M92.5 32.167c0 .828-.672 1.5-1.5 1.5h-15c-.828 0-1.5-.672-1.5-1.5v-9c0-.83.672-1.5 1.5-1.5h6l.336-.672c.254-.508.773-.828 1.342-.828h3.395c.568 0 1.088.32 1.342.828l.336.672h2.249c.828 0 1.5.67 1.5 1.5v9z"/><circle cx="85" cy="26.917" r="3"/><path d="M76.75 20.167h.75v1.5h-.75z"/></g><g stroke="#010101" stroke-linejoin="round" stroke-miterlimit="10" fill="none"><circle stroke-linecap="round" cx="154.25" cy="90.166" r="17.25"/><path stroke-linecap="round" d="M153.538 95.545l-6.328 6.924 4.711-11.553h-5.589l7.334-13.5h6.811l-5.588 9h6.994l-1.572 1.721M154.859 101.4l3.912-10.359 3.893 10.398"/><path d="M155.986 98.416h5.547"/></g></svg>