<?xml version="1.0" encoding="UTF-8"?>
<!-- Generator: Adobe Illustrator 16.0.0, SVG Export Plug-In . SVG Version: 6.00 Build 0)  -->
<!DOCTYPE svg PUBLIC "-//W3C//DTD SVG 1.1//EN" "http://www.w3.org/Graphics/SVG/1.1/DTD/svg11.dtd">
<svg version="1.1" xmlns="http://www.w3.org/2000/svg" xmlns:xlink="http://www.w3.org/1999/xlink" x="0px" y="0px" width="110px" height="110px" viewBox="0 0 110 110" enable-background="new 0 0 110 110" xml:space="preserve">
<g id="R-Multicolor" display="none">
	<circle display="inline" fill="#F44336" cx="55" cy="55" r="55"/>
	<g display="inline">
		<path fill="#FFFFFF" d="M23,26.841C23,24.719,24.719,23,26.84,23H55l16,13.44v46.72c0,2.121-1.72,3.84-3.84,3.84H26.84    C24.719,87,23,85.281,23,83.16V26.841z"/>
		<path fill="#F0F0F0" d="M55,23v9.6c0,2.121,1.719,3.84,3.84,3.84H71L55,23z"/>
		<polygon fill="#F4D0A1" points="77,41.5 82,31 87,41.5 87,80 77,80   "/>
		<polygon fill="#EDBC7C" points="87,47 87,41.5 82,31 82,47   "/>
		<path fill="#E57373" d="M87,84c0,1.657-1.343,3-3,3h-4c-1.657,0-3-1.343-3-3v-2h10V84z"/>
		<path fill="#E2E4E5" d="M62,45c0,0.55-0.45,1-1,1H46c-0.55,0-1-0.45-1-1l0,0c0-0.549,0.45-1,1-1h15C61.55,44,62,44.451,62,45    L62,45z"/>
		<path fill="#E2E4E5" d="M56,50c0,0.55-0.45,1-1,1h-9c-0.55,0-1-0.45-1-1l0,0c0-0.549,0.45-1,1-1h9C55.55,49,56,49.451,56,50L56,50    z"/>
		<path fill="#E2E4E5" d="M62,58c0,0.55-0.45,1-1,1H46c-0.55,0-1-0.45-1-1l0,0c0-0.549,0.45-1,1-1h15C61.55,57,62,57.451,62,58    L62,58z"/>
		<path fill="#E2E4E5" d="M56,63c0,0.55-0.45,1-1,1h-9c-0.55,0-1-0.45-1-1l0,0c0-0.549,0.45-1,1-1h9C55.55,62,56,62.451,56,63L56,63    z"/>
		<path fill="#E2E4E5" d="M62,71c0,0.55-0.45,1-1,1H46c-0.55,0-1-0.45-1-1l0,0c0-0.549,0.45-1,1-1h15C61.55,70,62,70.451,62,71    L62,71z"/>
		<path fill="#E2E4E5" d="M56,76c0,0.55-0.45,1-1,1h-9c-0.55,0-1-0.45-1-1l0,0c0-0.549,0.45-1,1-1h9C55.55,75,56,75.451,56,76L56,76    z"/>
		<g>
			<path fill="#26A69A" d="M35.067,52l-3.774-3.774c-0.391-0.39-0.391-1.023,0-1.414c0.391-0.389,1.023-0.389,1.414,0l2.226,2.226     l4.299-5.159c0.353-0.424,0.984-0.481,1.408-0.128s0.482,0.984,0.128,1.409L35.067,52z"/>
		</g>
		<g>
			<path fill="#26A69A" d="M35.067,65l-3.774-3.774c-0.391-0.39-0.391-1.023,0-1.414c0.391-0.389,1.023-0.389,1.414,0l2.226,2.226     l4.299-5.159c0.353-0.424,0.984-0.481,1.408-0.128s0.482,0.984,0.128,1.409L35.067,65z"/>
		</g>
		<g>
			<path fill="#26A69A" d="M35.067,78l-3.774-3.774c-0.391-0.39-0.391-1.023,0-1.414c0.391-0.389,1.023-0.389,1.414,0l2.226,2.226     l4.299-5.159c0.353-0.424,0.984-0.481,1.408-0.128s0.482,0.984,0.128,1.409L35.067,78z"/>
		</g>
		<rect x="77" y="79" fill="#FDD835" width="10" height="3"/>
		<rect x="77" y="80" fill="#FFEE58" width="5" height="2"/>
		<path fill="#212121" d="M82.013,30.984l-1.857,3.9c0.512,0.677,1.151,1.1,1.857,1.1c0.705,0,1.345-0.423,1.857-1.1L82.013,30.984z    "/>
		<path fill="#1565C0" d="M84.5,43c-1.155,0-2.126-0.781-2.414-1.845c-0.026-0.097-0.147-0.097-0.173,0    C81.625,42.219,80.654,43,79.5,43c-1.053,0-1.953-0.65-2.322-1.57C77.139,41.333,77,41.359,77,41.464V80h10V41.464    c0-0.105-0.14-0.132-0.179-0.035C86.452,42.35,85.552,43,84.5,43z"/>
		<path fill="#42A5F5" d="M77,80V41.494c0-0.111,0.146-0.14,0.189-0.036C77.565,42.363,78.458,43,79.5,43    c1.159,0,2.133-0.788,2.417-1.858C81.93,41.09,82,41.095,82,41.15V80H77z"/>
		<path fill="#F5B1A9" d="M77,82v2c0,1.657,1.343,3,3,3h2v-5H77z"/>
	</g>
</g>
<g id="Multicolor" display="none">
	<g display="inline">
		<path fill="#FFFFFF" d="M23,26.841C23,24.719,24.719,23,26.84,23H55l16,13.44v46.72c0,2.121-1.72,3.84-3.84,3.84H26.84    C24.719,87,23,85.281,23,83.16V26.841z"/>
		<path fill="#F0F0F0" d="M55,23v9.6c0,2.121,1.719,3.84,3.84,3.84H71L55,23z"/>
		<polygon fill="#F4D0A1" points="77,41.5 82,31 87,41.5 87,80 77,80   "/>
		<polygon fill="#EDBC7C" points="87,47 87,41.5 82,31 82,47   "/>
		<path fill="#E57373" d="M87,84c0,1.657-1.343,3-3,3h-4c-1.657,0-3-1.343-3-3v-2h10V84z"/>
		<path fill="#E2E4E5" d="M62,45c0,0.55-0.45,1-1,1H46c-0.55,0-1-0.45-1-1l0,0c0-0.549,0.45-1,1-1h15C61.55,44,62,44.451,62,45    L62,45z"/>
		<path fill="#E2E4E5" d="M56,50c0,0.55-0.45,1-1,1h-9c-0.55,0-1-0.45-1-1l0,0c0-0.549,0.45-1,1-1h9C55.55,49,56,49.451,56,50L56,50    z"/>
		<path fill="#E2E4E5" d="M62,58c0,0.55-0.45,1-1,1H46c-0.55,0-1-0.45-1-1l0,0c0-0.549,0.45-1,1-1h15C61.55,57,62,57.451,62,58    L62,58z"/>
		<path fill="#E2E4E5" d="M56,63c0,0.55-0.45,1-1,1h-9c-0.55,0-1-0.45-1-1l0,0c0-0.549,0.45-1,1-1h9C55.55,62,56,62.451,56,63L56,63    z"/>
		<path fill="#E2E4E5" d="M62,71c0,0.55-0.45,1-1,1H46c-0.55,0-1-0.45-1-1l0,0c0-0.549,0.45-1,1-1h15C61.55,70,62,70.451,62,71    L62,71z"/>
		<path fill="#E2E4E5" d="M56,76c0,0.55-0.45,1-1,1h-9c-0.55,0-1-0.45-1-1l0,0c0-0.549,0.45-1,1-1h9C55.55,75,56,75.451,56,76L56,76    z"/>
		<g>
			<path fill="#26A69A" d="M35.067,52l-3.774-3.774c-0.391-0.39-0.391-1.023,0-1.414c0.391-0.389,1.023-0.389,1.414,0l2.226,2.226     l4.299-5.159c0.353-0.424,0.984-0.481,1.408-0.128s0.482,0.984,0.128,1.409L35.067,52z"/>
		</g>
		<g>
			<path fill="#26A69A" d="M35.067,65l-3.774-3.774c-0.391-0.39-0.391-1.023,0-1.414c0.391-0.389,1.023-0.389,1.414,0l2.226,2.226     l4.299-5.159c0.353-0.424,0.984-0.481,1.408-0.128s0.482,0.984,0.128,1.409L35.067,65z"/>
		</g>
		<g>
			<path fill="#26A69A" d="M35.067,78l-3.774-3.774c-0.391-0.39-0.391-1.023,0-1.414c0.391-0.389,1.023-0.389,1.414,0l2.226,2.226     l4.299-5.159c0.353-0.424,0.984-0.481,1.408-0.128s0.482,0.984,0.128,1.409L35.067,78z"/>
		</g>
		<rect x="77" y="79" fill="#FDD835" width="10" height="3"/>
		<rect x="77" y="80" fill="#FFEE58" width="5" height="2"/>
		<path fill="#212121" d="M82.013,30.984l-1.857,3.9c0.512,0.677,1.151,1.1,1.857,1.1c0.705,0,1.345-0.423,1.857-1.1L82.013,30.984z    "/>
		<path fill="#1565C0" d="M84.5,43c-1.155,0-2.126-0.781-2.414-1.845c-0.026-0.097-0.147-0.097-0.173,0    C81.625,42.219,80.654,43,79.5,43c-1.053,0-1.953-0.65-2.322-1.57C77.139,41.333,77,41.359,77,41.464V80h10V41.464    c0-0.105-0.14-0.132-0.179-0.035C86.452,42.35,85.552,43,84.5,43z"/>
		<path fill="#42A5F5" d="M77,80V41.494c0-0.111,0.146-0.14,0.189-0.036C77.565,42.363,78.458,43,79.5,43    c1.159,0,2.133-0.788,2.417-1.858C81.93,41.09,82,41.095,82,41.15V80H77z"/>
		<path fill="#F5B1A9" d="M77,82v2c0,1.657,1.343,3,3,3h2v-5H77z"/>
	</g>
</g>
<g id="Blue" display="none">
	<g display="inline">
		<g>
			<path fill="#FFFFFF" d="M23,26.84c0-2.121,1.719-3.84,3.84-3.84H55l16,13.439V83.16c0,2.121-1.72,3.84-3.84,3.84H26.84     C24.719,87,23,85.281,23,83.16V26.84z"/>
		</g>
		<g>
			<path fill="#C5CAE9" d="M55,23v9.6c0,2.121,1.719,3.84,3.84,3.84H71L55,23z"/>
		</g>
		<g>
			<polygon fill="#FFFFFF" points="77,41.5 82,31 87,41.5 87,80 77,80    "/>
		</g>
		<g>
			<polygon fill="#E8EAF6" points="87,47 87,41.5 82,31 82,47    "/>
		</g>
		<g>
			<path fill="#E8EAF6" d="M87,84c0,1.657-1.344,3-3,3h-4c-1.657,0-3-1.343-3-3v-2h10V84z"/>
		</g>
		<g>
			<path fill="#C5CAE9" d="M62,45c0,0.551-0.45,1-1,1H46c-0.551,0-1-0.449-1-1l0,0c0-0.549,0.449-1,1-1h15C61.55,44,62,44.451,62,45     L62,45z"/>
		</g>
		<g>
			<path fill="#C5CAE9" d="M56,50c0,0.551-0.45,1-1,1h-9c-0.551,0-1-0.449-1-1l0,0c0-0.549,0.449-1,1-1h9C55.55,49,56,49.451,56,50     L56,50z"/>
		</g>
		<g>
			<path fill="#C5CAE9" d="M62,58c0,0.551-0.45,1-1,1H46c-0.551,0-1-0.449-1-1l0,0c0-0.549,0.449-1,1-1h15C61.55,57,62,57.451,62,58     L62,58z"/>
		</g>
		<g>
			<path fill="#C5CAE9" d="M56,63c0,0.551-0.45,1-1,1h-9c-0.551,0-1-0.449-1-1l0,0c0-0.549,0.449-1,1-1h9C55.55,62,56,62.451,56,63     L56,63z"/>
		</g>
		<g>
			<path fill="#C5CAE9" d="M62,71c0,0.551-0.45,1-1,1H46c-0.551,0-1-0.449-1-1l0,0c0-0.549,0.449-1,1-1h15C61.55,70,62,70.451,62,71     L62,71z"/>
		</g>
		<g>
			<path fill="#C5CAE9" d="M56,76c0,0.551-0.45,1-1,1h-9c-0.551,0-1-0.449-1-1l0,0c0-0.549,0.449-1,1-1h9C55.55,75,56,75.451,56,76     L56,76z"/>
		</g>
		<g>
			<g>
				<path fill="#2979FF" d="M35.067,52l-3.775-3.774c-0.389-0.39-0.389-1.023,0-1.414c0.393-0.391,1.025-0.391,1.415,0l2.227,2.226      l4.299-5.158c0.353-0.425,0.984-0.482,1.408-0.129s0.481,0.984,0.128,1.408L35.067,52z"/>
			</g>
		</g>
		<g>
			<g>
				<path fill="#2979FF" d="M35.067,65l-3.775-3.774c-0.389-0.39-0.389-1.023,0-1.414c0.393-0.391,1.025-0.391,1.415,0l2.227,2.226      l4.299-5.158c0.353-0.425,0.984-0.482,1.408-0.129s0.481,0.984,0.128,1.408L35.067,65z"/>
			</g>
		</g>
		<g>
			<g>
				<path fill="#2979FF" d="M35.067,78l-3.775-3.774c-0.389-0.39-0.389-1.023,0-1.414c0.393-0.391,1.025-0.391,1.415,0l2.227,2.226      l4.299-5.158c0.353-0.425,0.984-0.482,1.408-0.129s0.481,0.984,0.128,1.408L35.067,78z"/>
			</g>
		</g>
		<g>
			<rect x="77" y="79" fill="#0D57A1" width="10" height="3"/>
		</g>
		<g>
			<rect x="77" y="80" fill="#1565C0" width="5" height="2"/>
		</g>
		<g>
			<path fill="#1A3B7E" d="M82.013,30.984l-1.856,3.9c0.512,0.677,1.151,1.1,1.856,1.1s1.345-0.423,1.856-1.1L82.013,30.984z"/>
		</g>
		<g>
			<path fill="#2962FF" d="M84.5,43c-1.154,0-2.127-0.782-2.414-1.846c-0.025-0.096-0.147-0.096-0.173,0     C81.625,42.218,80.655,43,79.5,43c-1.053,0-1.953-0.65-2.322-1.57C77.139,41.332,77,41.359,77,41.465V80h10V41.465     c0-0.105-0.14-0.133-0.179-0.035C86.453,42.35,85.552,43,84.5,43z"/>
		</g>
		<g>
			<path fill="#2979FF" d="M77,80V41.494c0-0.112,0.146-0.141,0.189-0.037C77.565,42.363,78.458,43,79.5,43     c1.158,0,2.133-0.789,2.416-1.858C81.93,41.09,82,41.096,82,41.15V80H77z"/>
		</g>
		<g>
			<path fill="#FFFFFF" d="M77,82v2c0,1.656,1.343,3,3,3h2v-5H77z"/>
		</g>
	</g>
</g>
<g id="R-Blue">
	<g>
		<circle fill="#00B0FF" cx="55" cy="55" r="55"/>
	</g>
	<g>
		<g>
			<path fill="#FFFFFF" d="M23,26.84c0-2.121,1.719-3.84,3.84-3.84H55l16,13.439V83.16c0,2.121-1.72,3.84-3.84,3.84H26.84     C24.719,87,23,85.281,23,83.16V26.84z"/>
		</g>
		<g>
			<path fill="#C5CAE9" d="M55,23v9.6c0,2.121,1.719,3.84,3.84,3.84H71L55,23z"/>
		</g>
		<g>
			<polygon fill="#FFFFFF" points="77,41.5 82,31 87,41.5 87,80 77,80    "/>
		</g>
		<g>
			<polygon fill="#E8EAF6" points="87,47 87,41.5 82,31 82,47    "/>
		</g>
		<g>
			<path fill="#E8EAF6" d="M87,84c0,1.657-1.344,3-3,3h-4c-1.657,0-3-1.343-3-3v-2h10V84z"/>
		</g>
		<g>
			<path fill="#C5CAE9" d="M62,45c0,0.551-0.45,1-1,1H46c-0.551,0-1-0.449-1-1l0,0c0-0.549,0.449-1,1-1h15C61.55,44,62,44.451,62,45     L62,45z"/>
		</g>
		<g>
			<path fill="#C5CAE9" d="M56,50c0,0.551-0.45,1-1,1h-9c-0.551,0-1-0.449-1-1l0,0c0-0.549,0.449-1,1-1h9C55.55,49,56,49.451,56,50     L56,50z"/>
		</g>
		<g>
			<path fill="#C5CAE9" d="M62,58c0,0.551-0.45,1-1,1H46c-0.551,0-1-0.449-1-1l0,0c0-0.549,0.449-1,1-1h15C61.55,57,62,57.451,62,58     L62,58z"/>
		</g>
		<g>
			<path fill="#C5CAE9" d="M56,63c0,0.551-0.45,1-1,1h-9c-0.551,0-1-0.449-1-1l0,0c0-0.549,0.449-1,1-1h9C55.55,62,56,62.451,56,63     L56,63z"/>
		</g>
		<g>
			<path fill="#C5CAE9" d="M62,71c0,0.551-0.45,1-1,1H46c-0.551,0-1-0.449-1-1l0,0c0-0.549,0.449-1,1-1h15C61.55,70,62,70.451,62,71     L62,71z"/>
		</g>
		<g>
			<path fill="#C5CAE9" d="M56,76c0,0.551-0.45,1-1,1h-9c-0.551,0-1-0.449-1-1l0,0c0-0.549,0.449-1,1-1h9C55.55,75,56,75.451,56,76     L56,76z"/>
		</g>
		<g>
			<g>
				<path fill="#2979FF" d="M35.067,52l-3.775-3.774c-0.389-0.39-0.389-1.023,0-1.414c0.393-0.391,1.025-0.391,1.415,0l2.227,2.226      l4.299-5.158c0.353-0.425,0.984-0.482,1.408-0.129s0.481,0.984,0.128,1.408L35.067,52z"/>
			</g>
		</g>
		<g>
			<g>
				<path fill="#2979FF" d="M35.067,65l-3.775-3.774c-0.389-0.39-0.389-1.023,0-1.414c0.393-0.391,1.025-0.391,1.415,0l2.227,2.226      l4.299-5.158c0.353-0.425,0.984-0.482,1.408-0.129s0.481,0.984,0.128,1.408L35.067,65z"/>
			</g>
		</g>
		<g>
			<g>
				<path fill="#2979FF" d="M35.067,78l-3.775-3.774c-0.389-0.39-0.389-1.023,0-1.414c0.393-0.391,1.025-0.391,1.415,0l2.227,2.226      l4.299-5.158c0.353-0.425,0.984-0.482,1.408-0.129s0.481,0.984,0.128,1.408L35.067,78z"/>
			</g>
		</g>
		<g>
			<rect x="77" y="79" fill="#0D57A1" width="10" height="3"/>
		</g>
		<g>
			<rect x="77" y="80" fill="#1565C0" width="5" height="2"/>
		</g>
		<g>
			<path fill="#1A3B7E" d="M82.013,30.984l-1.856,3.9c0.512,0.677,1.151,1.1,1.856,1.1s1.345-0.423,1.856-1.1L82.013,30.984z"/>
		</g>
		<g>
			<path fill="#2962FF" d="M84.5,43c-1.154,0-2.127-0.782-2.414-1.846c-0.025-0.096-0.147-0.096-0.173,0     C81.625,42.218,80.655,43,79.5,43c-1.053,0-1.953-0.65-2.322-1.57C77.139,41.332,77,41.359,77,41.465V80h10V41.465     c0-0.105-0.14-0.133-0.179-0.035C86.453,42.35,85.552,43,84.5,43z"/>
		</g>
		<g>
			<path fill="#2979FF" d="M77,80V41.494c0-0.112,0.146-0.141,0.189-0.037C77.565,42.363,78.458,43,79.5,43     c1.158,0,2.133-0.789,2.416-1.858C81.93,41.09,82,41.096,82,41.15V80H77z"/>
		</g>
		<g>
			<path fill="#FFFFFF" d="M77,82v2c0,1.656,1.343,3,3,3h2v-5H77z"/>
		</g>
	</g>
</g>
<g id="Green" display="none">
	<g display="inline">
		<g>
			<path fill="#FFFFFF" d="M23,26.84c0-2.121,1.719-3.84,3.84-3.84H55l16,13.439V83.16c0,2.121-1.719,3.84-3.84,3.84H26.84     C24.719,87,23,85.281,23,83.16V26.84z"/>
		</g>
		<g>
			<path fill="#C5EB98" d="M55,23v9.6c0,2.121,1.719,3.84,3.84,3.84H71L55,23z"/>
		</g>
		<g>
			<polygon fill="#FFFFFF" points="77,41.5 82,31 87,41.5 87,80 77,80    "/>
		</g>
		<g>
			<polygon fill="#ECF5E1" points="87,47 87,41.5 82,31 82,47    "/>
		</g>
		<g>
			<path fill="#ECF5E1" d="M87,84c0,1.657-1.344,3-3,3h-4c-1.656,0-3-1.343-3-3v-2h10V84z"/>
		</g>
		<g>
			<path fill="#C5EB98" d="M62,45c0,0.551-0.449,1-1,1H46c-0.55,0-1-0.449-1-1l0,0c0-0.549,0.45-1,1-1h15C61.551,44,62,44.451,62,45     L62,45z"/>
		</g>
		<g>
			<path fill="#C5EB98" d="M56,50c0,0.551-0.449,1-1,1h-9c-0.55,0-1-0.449-1-1l0,0c0-0.549,0.45-1,1-1h9C55.551,49,56,49.451,56,50     L56,50z"/>
		</g>
		<g>
			<path fill="#C5EB98" d="M62,58c0,0.551-0.449,1-1,1H46c-0.55,0-1-0.449-1-1l0,0c0-0.549,0.45-1,1-1h15C61.551,57,62,57.451,62,58     L62,58z"/>
		</g>
		<g>
			<path fill="#C5EB98" d="M56,63c0,0.551-0.449,1-1,1h-9c-0.55,0-1-0.449-1-1l0,0c0-0.549,0.45-1,1-1h9C55.551,62,56,62.451,56,63     L56,63z"/>
		</g>
		<g>
			<path fill="#C5EB98" d="M62,71c0,0.551-0.449,1-1,1H46c-0.55,0-1-0.449-1-1l0,0c0-0.549,0.45-1,1-1h15C61.551,70,62,70.451,62,71     L62,71z"/>
		</g>
		<g>
			<path fill="#C5EB98" d="M56,76c0,0.551-0.449,1-1,1h-9c-0.55,0-1-0.449-1-1l0,0c0-0.549,0.45-1,1-1h9C55.551,75,56,75.451,56,76     L56,76z"/>
		</g>
		<g>
			<g>
				<path fill="#00C250" d="M35.068,52l-3.774-3.774c-0.391-0.39-0.391-1.023,0-1.414s1.023-0.391,1.414,0l2.227,2.226l4.299-5.158      c0.354-0.425,0.984-0.482,1.408-0.129s0.48,0.984,0.127,1.408L35.068,52z"/>
			</g>
		</g>
		<g>
			<g>
				<path fill="#00C250" d="M35.068,65l-3.774-3.774c-0.391-0.39-0.391-1.023,0-1.414s1.023-0.391,1.414,0l2.227,2.226l4.299-5.158      c0.354-0.425,0.984-0.482,1.408-0.129s0.48,0.984,0.127,1.408L35.068,65z"/>
			</g>
		</g>
		<g>
			<g>
				<path fill="#00C250" d="M35.068,78l-3.774-3.774c-0.391-0.39-0.391-1.023,0-1.414s1.023-0.391,1.414,0l2.227,2.226l4.299-5.158      c0.354-0.425,0.984-0.482,1.408-0.129s0.48,0.984,0.127,1.408L35.068,78z"/>
			</g>
		</g>
		<g>
			<rect x="77" y="79" fill="#006E31" width="10" height="3"/>
		</g>
		<g>
			<rect x="77" y="80" fill="#008232" width="5" height="2"/>
		</g>
		<g>
			<path fill="#003B15" d="M82.014,30.984l-1.857,3.9c0.512,0.677,1.152,1.1,1.857,1.1s1.344-0.423,1.856-1.1L82.014,30.984z"/>
		</g>
		<g>
			<path fill="#00A344" d="M84.5,43c-1.154,0-2.125-0.782-2.414-1.846c-0.025-0.096-0.146-0.096-0.172,0     C81.625,42.218,80.655,43,79.5,43c-1.053,0-1.953-0.65-2.322-1.57C77.139,41.332,77,41.359,77,41.465V80h10V41.465     c0-0.105-0.139-0.133-0.178-0.035C86.454,42.35,85.553,43,84.5,43z"/>
		</g>
		<g>
			<path fill="#00C250" d="M77,80V41.494c0-0.112,0.146-0.141,0.189-0.037C77.566,42.363,78.458,43,79.5,43     c1.159,0,2.134-0.789,2.416-1.858C81.931,41.09,82,41.096,82,41.15V80H77z"/>
		</g>
		<g>
			<path fill="#FFFFFF" d="M77,82v2c0,1.656,1.344,3,3,3h2v-5H77z"/>
		</g>
	</g>
</g>
<g id="R-Green" display="none">
	<g display="inline">
		<circle fill="#64DD17" cx="55" cy="55" r="55"/>
	</g>
	<g display="inline">
		<g>
			<path fill="#FFFFFF" d="M23,26.84c0-2.121,1.719-3.84,3.84-3.84H55l16,13.439V83.16c0,2.121-1.719,3.84-3.84,3.84H26.84     C24.719,87,23,85.281,23,83.16V26.84z"/>
		</g>
		<g>
			<path fill="#C5EB98" d="M55,23v9.6c0,2.121,1.719,3.84,3.84,3.84H71L55,23z"/>
		</g>
		<g>
			<polygon fill="#FFFFFF" points="77,41.5 82,31 87,41.5 87,80 77,80    "/>
		</g>
		<g>
			<polygon fill="#ECF5E1" points="87,47 87,41.5 82,31 82,47    "/>
		</g>
		<g>
			<path fill="#ECF5E1" d="M87,84c0,1.657-1.344,3-3,3h-4c-1.656,0-3-1.343-3-3v-2h10V84z"/>
		</g>
		<g>
			<path fill="#C5EB98" d="M62,45c0,0.551-0.449,1-1,1H46c-0.55,0-1-0.449-1-1l0,0c0-0.549,0.45-1,1-1h15C61.551,44,62,44.451,62,45     L62,45z"/>
		</g>
		<g>
			<path fill="#C5EB98" d="M56,50c0,0.551-0.449,1-1,1h-9c-0.55,0-1-0.449-1-1l0,0c0-0.549,0.45-1,1-1h9C55.551,49,56,49.451,56,50     L56,50z"/>
		</g>
		<g>
			<path fill="#C5EB98" d="M62,58c0,0.551-0.449,1-1,1H46c-0.55,0-1-0.449-1-1l0,0c0-0.549,0.45-1,1-1h15C61.551,57,62,57.451,62,58     L62,58z"/>
		</g>
		<g>
			<path fill="#C5EB98" d="M56,63c0,0.551-0.449,1-1,1h-9c-0.55,0-1-0.449-1-1l0,0c0-0.549,0.45-1,1-1h9C55.551,62,56,62.451,56,63     L56,63z"/>
		</g>
		<g>
			<path fill="#C5EB98" d="M62,71c0,0.551-0.449,1-1,1H46c-0.55,0-1-0.449-1-1l0,0c0-0.549,0.45-1,1-1h15C61.551,70,62,70.451,62,71     L62,71z"/>
		</g>
		<g>
			<path fill="#C5EB98" d="M56,76c0,0.551-0.449,1-1,1h-9c-0.55,0-1-0.449-1-1l0,0c0-0.549,0.45-1,1-1h9C55.551,75,56,75.451,56,76     L56,76z"/>
		</g>
		<g>
			<g>
				<path fill="#00C250" d="M35.068,52l-3.774-3.774c-0.391-0.39-0.391-1.023,0-1.414s1.023-0.391,1.414,0l2.227,2.226l4.299-5.158      c0.354-0.425,0.984-0.482,1.408-0.129s0.48,0.984,0.127,1.408L35.068,52z"/>
			</g>
		</g>
		<g>
			<g>
				<path fill="#00C250" d="M35.068,65l-3.774-3.774c-0.391-0.39-0.391-1.023,0-1.414s1.023-0.391,1.414,0l2.227,2.226l4.299-5.158      c0.354-0.425,0.984-0.482,1.408-0.129s0.48,0.984,0.127,1.408L35.068,65z"/>
			</g>
		</g>
		<g>
			<g>
				<path fill="#00C250" d="M35.068,78l-3.774-3.774c-0.391-0.39-0.391-1.023,0-1.414s1.023-0.391,1.414,0l2.227,2.226l4.299-5.158      c0.354-0.425,0.984-0.482,1.408-0.129s0.48,0.984,0.127,1.408L35.068,78z"/>
			</g>
		</g>
		<g>
			<rect x="77" y="79" fill="#006E31" width="10" height="3"/>
		</g>
		<g>
			<rect x="77" y="80" fill="#008232" width="5" height="2"/>
		</g>
		<g>
			<path fill="#003B15" d="M82.014,30.984l-1.857,3.9c0.512,0.677,1.152,1.1,1.857,1.1s1.344-0.423,1.856-1.1L82.014,30.984z"/>
		</g>
		<g>
			<path fill="#00A344" d="M84.5,43c-1.154,0-2.125-0.782-2.414-1.846c-0.025-0.096-0.146-0.096-0.172,0     C81.625,42.218,80.655,43,79.5,43c-1.053,0-1.953-0.65-2.322-1.57C77.139,41.332,77,41.359,77,41.465V80h10V41.465     c0-0.105-0.139-0.133-0.178-0.035C86.454,42.35,85.553,43,84.5,43z"/>
		</g>
		<g>
			<path fill="#00C250" d="M77,80V41.494c0-0.112,0.146-0.141,0.189-0.037C77.566,42.363,78.458,43,79.5,43     c1.159,0,2.134-0.789,2.416-1.858C81.931,41.09,82,41.096,82,41.15V80H77z"/>
		</g>
		<g>
			<path fill="#FFFFFF" d="M77,82v2c0,1.656,1.344,3,3,3h2v-5H77z"/>
		</g>
	</g>
</g>
<g id="Red" display="none">
	<g display="inline">
		<g>
			<path fill="#FFFFFF" d="M23,26.84c0-2.121,1.719-3.84,3.84-3.84H55l16,13.439V83.16c0,2.121-1.719,3.84-3.84,3.84H26.84     C24.719,87,23,85.281,23,83.16V26.84z"/>
		</g>
		<g>
			<path fill="#FFC7B2" d="M55,23v9.6c0,2.121,1.719,3.84,3.84,3.84H71L55,23z"/>
		</g>
		<g>
			<polygon fill="#FFFFFF" points="77,41.5 82,31 87,41.5 87,80 77,80    "/>
		</g>
		<g>
			<polygon fill="#FFE4DE" points="87,47 87,41.5 82,31 82,47    "/>
		</g>
		<g>
			<path fill="#FFE4DE" d="M87,84c0,1.657-1.344,3-3,3h-4c-1.656,0-3-1.343-3-3v-2h10V84z"/>
		</g>
		<g>
			<path fill="#FFC7B2" d="M62,45c0,0.551-0.449,1-1,1H46c-0.55,0-1-0.449-1-1l0,0c0-0.549,0.45-1,1-1h15C61.551,44,62,44.451,62,45     L62,45z"/>
		</g>
		<g>
			<path fill="#FFC7B2" d="M56,50c0,0.551-0.449,1-1,1h-9c-0.55,0-1-0.449-1-1l0,0c0-0.549,0.45-1,1-1h9C55.551,49,56,49.451,56,50     L56,50z"/>
		</g>
		<g>
			<path fill="#FFC7B2" d="M62,58c0,0.551-0.449,1-1,1H46c-0.55,0-1-0.449-1-1l0,0c0-0.549,0.45-1,1-1h15C61.551,57,62,57.451,62,58     L62,58z"/>
		</g>
		<g>
			<path fill="#FFC7B2" d="M56,63c0,0.551-0.449,1-1,1h-9c-0.55,0-1-0.449-1-1l0,0c0-0.549,0.45-1,1-1h9C55.551,62,56,62.451,56,63     L56,63z"/>
		</g>
		<g>
			<path fill="#FFC7B2" d="M62,71c0,0.551-0.449,1-1,1H46c-0.55,0-1-0.449-1-1l0,0c0-0.549,0.45-1,1-1h15C61.551,70,62,70.451,62,71     L62,71z"/>
		</g>
		<g>
			<path fill="#FFC7B2" d="M56,76c0,0.551-0.449,1-1,1h-9c-0.55,0-1-0.449-1-1l0,0c0-0.549,0.45-1,1-1h9C55.551,75,56,75.451,56,76     L56,76z"/>
		</g>
		<g>
			<g>
				<path fill="#D22600" d="M35.068,52l-3.774-3.774c-0.391-0.39-0.391-1.023,0-1.414s1.023-0.391,1.414,0l2.227,2.226l4.299-5.158      c0.354-0.425,0.984-0.482,1.408-0.129s0.48,0.984,0.127,1.408L35.068,52z"/>
			</g>
		</g>
		<g>
			<g>
				<path fill="#D22600" d="M35.068,65l-3.774-3.774c-0.391-0.39-0.391-1.023,0-1.414s1.023-0.391,1.414,0l2.227,2.226l4.299-5.158      c0.354-0.425,0.984-0.482,1.408-0.129s0.48,0.984,0.127,1.408L35.068,65z"/>
			</g>
		</g>
		<g>
			<g>
				<path fill="#D22600" d="M35.068,78l-3.774-3.774c-0.391-0.39-0.391-1.023,0-1.414s1.023-0.391,1.414,0l2.227,2.226l4.299-5.158      c0.354-0.425,0.984-0.482,1.408-0.129s0.48,0.984,0.127,1.408L35.068,78z"/>
			</g>
		</g>
		<g>
			<rect x="77" y="79" fill="#7A1C05" width="10" height="3"/>
		</g>
		<g>
			<rect x="77" y="80" fill="#99412B" width="5" height="2"/>
		</g>
		<g>
			<path fill="#2C0900" d="M82.014,30.984l-1.857,3.9c0.512,0.677,1.152,1.1,1.857,1.1s1.344-0.423,1.856-1.1L82.014,30.984z"/>
		</g>
		<g>
			<path fill="#AC2200" d="M84.5,43c-1.154,0-2.125-0.782-2.414-1.846c-0.025-0.096-0.146-0.096-0.172,0     C81.625,42.218,80.655,43,79.5,43c-1.053,0-1.953-0.65-2.322-1.57C77.139,41.332,77,41.359,77,41.465V80h10V41.465     c0-0.105-0.139-0.133-0.178-0.035C86.454,42.35,85.553,43,84.5,43z"/>
		</g>
		<g>
			<path fill="#D22600" d="M77,80V41.494c0-0.112,0.146-0.141,0.189-0.037C77.566,42.363,78.458,43,79.5,43     c1.159,0,2.134-0.789,2.416-1.858C81.931,41.09,82,41.096,82,41.15V80H77z"/>
		</g>
		<g>
			<path fill="#FFFFFF" d="M77,82v2c0,1.656,1.344,3,3,3h2v-5H77z"/>
		</g>
	</g>
</g>
<g id="R-Red" display="none">
	<g display="inline">
		<circle fill="#FF5722" cx="55" cy="55" r="55"/>
	</g>
	<g display="inline">
		<g>
			<path fill="#FFFFFF" d="M23,26.84c0-2.121,1.719-3.84,3.84-3.84H55l16,13.439V83.16c0,2.121-1.719,3.84-3.84,3.84H26.84     C24.719,87,23,85.281,23,83.16V26.84z"/>
		</g>
		<g>
			<path fill="#FFC7B2" d="M55,23v9.6c0,2.121,1.719,3.84,3.84,3.84H71L55,23z"/>
		</g>
		<g>
			<polygon fill="#FFFFFF" points="77,41.5 82,31 87,41.5 87,80 77,80    "/>
		</g>
		<g>
			<polygon fill="#FFE4DE" points="87,47 87,41.5 82,31 82,47    "/>
		</g>
		<g>
			<path fill="#FFE4DE" d="M87,84c0,1.657-1.344,3-3,3h-4c-1.656,0-3-1.343-3-3v-2h10V84z"/>
		</g>
		<g>
			<path fill="#FFC7B2" d="M62,45c0,0.551-0.449,1-1,1H46c-0.55,0-1-0.449-1-1l0,0c0-0.549,0.45-1,1-1h15C61.551,44,62,44.451,62,45     L62,45z"/>
		</g>
		<g>
			<path fill="#FFC7B2" d="M56,50c0,0.551-0.449,1-1,1h-9c-0.55,0-1-0.449-1-1l0,0c0-0.549,0.45-1,1-1h9C55.551,49,56,49.451,56,50     L56,50z"/>
		</g>
		<g>
			<path fill="#FFC7B2" d="M62,58c0,0.551-0.449,1-1,1H46c-0.55,0-1-0.449-1-1l0,0c0-0.549,0.45-1,1-1h15C61.551,57,62,57.451,62,58     L62,58z"/>
		</g>
		<g>
			<path fill="#FFC7B2" d="M56,63c0,0.551-0.449,1-1,1h-9c-0.55,0-1-0.449-1-1l0,0c0-0.549,0.45-1,1-1h9C55.551,62,56,62.451,56,63     L56,63z"/>
		</g>
		<g>
			<path fill="#FFC7B2" d="M62,71c0,0.551-0.449,1-1,1H46c-0.55,0-1-0.449-1-1l0,0c0-0.549,0.45-1,1-1h15C61.551,70,62,70.451,62,71     L62,71z"/>
		</g>
		<g>
			<path fill="#FFC7B2" d="M56,76c0,0.551-0.449,1-1,1h-9c-0.55,0-1-0.449-1-1l0,0c0-0.549,0.45-1,1-1h9C55.551,75,56,75.451,56,76     L56,76z"/>
		</g>
		<g>
			<g>
				<path fill="#D22600" d="M35.068,52l-3.774-3.774c-0.391-0.39-0.391-1.023,0-1.414s1.023-0.391,1.414,0l2.227,2.226l4.299-5.158      c0.354-0.425,0.984-0.482,1.408-0.129s0.48,0.984,0.127,1.408L35.068,52z"/>
			</g>
		</g>
		<g>
			<g>
				<path fill="#D22600" d="M35.068,65l-3.774-3.774c-0.391-0.39-0.391-1.023,0-1.414s1.023-0.391,1.414,0l2.227,2.226l4.299-5.158      c0.354-0.425,0.984-0.482,1.408-0.129s0.48,0.984,0.127,1.408L35.068,65z"/>
			</g>
		</g>
		<g>
			<g>
				<path fill="#D22600" d="M35.068,78l-3.774-3.774c-0.391-0.39-0.391-1.023,0-1.414s1.023-0.391,1.414,0l2.227,2.226l4.299-5.158      c0.354-0.425,0.984-0.482,1.408-0.129s0.48,0.984,0.127,1.408L35.068,78z"/>
			</g>
		</g>
		<g>
			<rect x="77" y="79" fill="#7A1C05" width="10" height="3"/>
		</g>
		<g>
			<rect x="77" y="80" fill="#99412B" width="5" height="2"/>
		</g>
		<g>
			<path fill="#2C0900" d="M82.014,30.984l-1.857,3.9c0.512,0.677,1.152,1.1,1.857,1.1s1.344-0.423,1.856-1.1L82.014,30.984z"/>
		</g>
		<g>
			<path fill="#AC2200" d="M84.5,43c-1.154,0-2.125-0.782-2.414-1.846c-0.025-0.096-0.146-0.096-0.172,0     C81.625,42.218,80.655,43,79.5,43c-1.053,0-1.953-0.65-2.322-1.57C77.139,41.332,77,41.359,77,41.465V80h10V41.465     c0-0.105-0.139-0.133-0.178-0.035C86.454,42.35,85.553,43,84.5,43z"/>
		</g>
		<g>
			<path fill="#D22600" d="M77,80V41.494c0-0.112,0.146-0.141,0.189-0.037C77.566,42.363,78.458,43,79.5,43     c1.159,0,2.134-0.789,2.416-1.858C81.931,41.09,82,41.096,82,41.15V80H77z"/>
		</g>
		<g>
			<path fill="#FFFFFF" d="M77,82v2c0,1.656,1.344,3,3,3h2v-5H77z"/>
		</g>
	</g>
</g>
<g id="Yellow" display="none">
	<g display="inline">
		<g>
			<path fill="#FFFFFF" d="M23,26.84c0-2.121,1.719-3.84,3.84-3.84H55l16,13.439V83.16c0,2.121-1.719,3.84-3.84,3.84H26.84     C24.719,87,23,85.281,23,83.16V26.84z"/>
		</g>
		<g>
			<path fill="#FFEBB8" d="M55,23v9.6c0,2.121,1.719,3.84,3.84,3.84H71L55,23z"/>
		</g>
		<g>
			<polygon fill="#FFFFFF" points="77,41.5 82,31 87,41.5 87,80 77,80    "/>
		</g>
		<g>
			<polygon fill="#FFF4D1" points="87,47 87,41.5 82,31 82,47    "/>
		</g>
		<g>
			<path fill="#FFF4D1" d="M87,84c0,1.657-1.344,3-3,3h-4c-1.656,0-3-1.343-3-3v-2h10V84z"/>
		</g>
		<g>
			<path fill="#FFEBB8" d="M62,45c0,0.551-0.449,1-1,1H46c-0.55,0-1-0.449-1-1l0,0c0-0.549,0.45-1,1-1h15C61.551,44,62,44.451,62,45     L62,45z"/>
		</g>
		<g>
			<path fill="#FFEBB8" d="M56,50c0,0.551-0.449,1-1,1h-9c-0.55,0-1-0.449-1-1l0,0c0-0.549,0.45-1,1-1h9C55.551,49,56,49.451,56,50     L56,50z"/>
		</g>
		<g>
			<path fill="#FFEBB8" d="M62,58c0,0.551-0.449,1-1,1H46c-0.55,0-1-0.449-1-1l0,0c0-0.549,0.45-1,1-1h15C61.551,57,62,57.451,62,58     L62,58z"/>
		</g>
		<g>
			<path fill="#FFEBB8" d="M56,63c0,0.551-0.449,1-1,1h-9c-0.55,0-1-0.449-1-1l0,0c0-0.549,0.45-1,1-1h9C55.551,62,56,62.451,56,63     L56,63z"/>
		</g>
		<g>
			<path fill="#FFEBB8" d="M62,71c0,0.551-0.449,1-1,1H46c-0.55,0-1-0.449-1-1l0,0c0-0.549,0.45-1,1-1h15C61.551,70,62,70.451,62,71     L62,71z"/>
		</g>
		<g>
			<path fill="#FFEBB8" d="M56,76c0,0.551-0.449,1-1,1h-9c-0.55,0-1-0.449-1-1l0,0c0-0.549,0.45-1,1-1h9C55.551,75,56,75.451,56,76     L56,76z"/>
		</g>
		<g>
			<g>
				<path fill="#FF8000" d="M35.068,52l-3.774-3.774c-0.391-0.39-0.391-1.023,0-1.414s1.023-0.391,1.414,0l2.227,2.226l4.299-5.158      c0.354-0.425,0.984-0.482,1.408-0.129s0.48,0.984,0.127,1.408L35.068,52z"/>
			</g>
		</g>
		<g>
			<g>
				<path fill="#FF8000" d="M35.068,65l-3.774-3.774c-0.391-0.39-0.391-1.023,0-1.414s1.023-0.391,1.414,0l2.227,2.226l4.299-5.158      c0.354-0.425,0.984-0.482,1.408-0.129s0.48,0.984,0.127,1.408L35.068,65z"/>
			</g>
		</g>
		<g>
			<g>
				<path fill="#FF8000" d="M35.068,78l-3.774-3.774c-0.391-0.39-0.391-1.023,0-1.414s1.023-0.391,1.414,0l2.227,2.226l4.299-5.158      c0.354-0.425,0.984-0.482,1.408-0.129s0.48,0.984,0.127,1.408L35.068,78z"/>
			</g>
		</g>
		<g>
			<rect x="77" y="79" fill="#804B1C" width="10" height="3"/>
		</g>
		<g>
			<rect x="77" y="80" fill="#AB6C24" width="5" height="2"/>
		</g>
		<g>
			<path fill="#4C2720" d="M82.014,30.984l-1.857,3.9c0.512,0.677,1.152,1.1,1.857,1.1s1.344-0.423,1.856-1.1L82.014,30.984z"/>
		</g>
		<g>
			<path fill="#FC6100" d="M84.5,43c-1.154,0-2.125-0.782-2.414-1.846c-0.025-0.096-0.146-0.096-0.172,0     C81.625,42.218,80.655,43,79.5,43c-1.053,0-1.953-0.65-2.322-1.57C77.139,41.332,77,41.359,77,41.465V80h10V41.465     c0-0.105-0.139-0.133-0.178-0.035C86.454,42.35,85.553,43,84.5,43z"/>
		</g>
		<g>
			<path fill="#FF8000" d="M77,80V41.494c0-0.112,0.146-0.141,0.189-0.037C77.566,42.363,78.458,43,79.5,43     c1.159,0,2.134-0.789,2.416-1.858C81.931,41.09,82,41.096,82,41.15V80H77z"/>
		</g>
		<g>
			<path fill="#FFFFFF" d="M77,82v2c0,1.656,1.344,3,3,3h2v-5H77z"/>
		</g>
	</g>
</g>
<g id="R-Yellow" display="none">
	<g display="inline">
		<circle fill="#FFD600" cx="55" cy="55" r="55"/>
	</g>
	<g display="inline">
		<g>
			<path fill="#FFFFFF" d="M23,26.84c0-2.121,1.719-3.84,3.84-3.84H55l16,13.439V83.16c0,2.121-1.719,3.84-3.84,3.84H26.84     C24.719,87,23,85.281,23,83.16V26.84z"/>
		</g>
		<g>
			<path fill="#FFEBB8" d="M55,23v9.6c0,2.121,1.719,3.84,3.84,3.84H71L55,23z"/>
		</g>
		<g>
			<polygon fill="#FFFFFF" points="77,41.5 82,31 87,41.5 87,80 77,80    "/>
		</g>
		<g>
			<polygon fill="#FFF4D1" points="87,47 87,41.5 82,31 82,47    "/>
		</g>
		<g>
			<path fill="#FFF4D1" d="M87,84c0,1.657-1.344,3-3,3h-4c-1.656,0-3-1.343-3-3v-2h10V84z"/>
		</g>
		<g>
			<path fill="#FFEBB8" d="M62,45c0,0.551-0.449,1-1,1H46c-0.55,0-1-0.449-1-1l0,0c0-0.549,0.45-1,1-1h15C61.551,44,62,44.451,62,45     L62,45z"/>
		</g>
		<g>
			<path fill="#FFEBB8" d="M56,50c0,0.551-0.449,1-1,1h-9c-0.55,0-1-0.449-1-1l0,0c0-0.549,0.45-1,1-1h9C55.551,49,56,49.451,56,50     L56,50z"/>
		</g>
		<g>
			<path fill="#FFEBB8" d="M62,58c0,0.551-0.449,1-1,1H46c-0.55,0-1-0.449-1-1l0,0c0-0.549,0.45-1,1-1h15C61.551,57,62,57.451,62,58     L62,58z"/>
		</g>
		<g>
			<path fill="#FFEBB8" d="M56,63c0,0.551-0.449,1-1,1h-9c-0.55,0-1-0.449-1-1l0,0c0-0.549,0.45-1,1-1h9C55.551,62,56,62.451,56,63     L56,63z"/>
		</g>
		<g>
			<path fill="#FFEBB8" d="M62,71c0,0.551-0.449,1-1,1H46c-0.55,0-1-0.449-1-1l0,0c0-0.549,0.45-1,1-1h15C61.551,70,62,70.451,62,71     L62,71z"/>
		</g>
		<g>
			<path fill="#FFEBB8" d="M56,76c0,0.551-0.449,1-1,1h-9c-0.55,0-1-0.449-1-1l0,0c0-0.549,0.45-1,1-1h9C55.551,75,56,75.451,56,76     L56,76z"/>
		</g>
		<g>
			<g>
				<path fill="#FF8000" d="M35.068,52l-3.774-3.774c-0.391-0.39-0.391-1.023,0-1.414s1.023-0.391,1.414,0l2.227,2.226l4.299-5.158      c0.354-0.425,0.984-0.482,1.408-0.129s0.48,0.984,0.127,1.408L35.068,52z"/>
			</g>
		</g>
		<g>
			<g>
				<path fill="#FF8000" d="M35.068,65l-3.774-3.774c-0.391-0.39-0.391-1.023,0-1.414s1.023-0.391,1.414,0l2.227,2.226l4.299-5.158      c0.354-0.425,0.984-0.482,1.408-0.129s0.48,0.984,0.127,1.408L35.068,65z"/>
			</g>
		</g>
		<g>
			<g>
				<path fill="#FF8000" d="M35.068,78l-3.774-3.774c-0.391-0.39-0.391-1.023,0-1.414s1.023-0.391,1.414,0l2.227,2.226l4.299-5.158      c0.354-0.425,0.984-0.482,1.408-0.129s0.48,0.984,0.127,1.408L35.068,78z"/>
			</g>
		</g>
		<g>
			<rect x="77" y="79" fill="#804B1C" width="10" height="3"/>
		</g>
		<g>
			<rect x="77" y="80" fill="#AB6C24" width="5" height="2"/>
		</g>
		<g>
			<path fill="#4C2720" d="M82.014,30.984l-1.857,3.9c0.512,0.677,1.152,1.1,1.857,1.1s1.344-0.423,1.856-1.1L82.014,30.984z"/>
		</g>
		<g>
			<path fill="#FC6100" d="M84.5,43c-1.154,0-2.125-0.782-2.414-1.846c-0.025-0.096-0.146-0.096-0.172,0     C81.625,42.218,80.655,43,79.5,43c-1.053,0-1.953-0.65-2.322-1.57C77.139,41.332,77,41.359,77,41.465V80h10V41.465     c0-0.105-0.139-0.133-0.178-0.035C86.454,42.35,85.553,43,84.5,43z"/>
		</g>
		<g>
			<path fill="#FF8000" d="M77,80V41.494c0-0.112,0.146-0.141,0.189-0.037C77.566,42.363,78.458,43,79.5,43     c1.159,0,2.134-0.789,2.416-1.858C81.931,41.09,82,41.096,82,41.15V80H77z"/>
		</g>
		<g>
			<path fill="#FFFFFF" d="M77,82v2c0,1.656,1.344,3,3,3h2v-5H77z"/>
		</g>
	</g>
</g>
</svg>