<svg width="1785" height="738" xmlns="http://www.w3.org/2000/svg"><defs><linearGradient x1="50%" y1="0%" x2="50%" y2="100%" id="a"><stop stop-color="#006BE2" offset="0%"/><stop stop-color="#00CDFA" offset="100%"/></linearGradient><linearGradient x1="50%" y1="0%" x2="50%" y2="100%" id="b"><stop stop-color="#006BE2" offset="0%"/><stop stop-color="#00CDFA" offset="100%"/></linearGradient><linearGradient x1="50%" y1="0%" x2="50%" y2="100%" id="c"><stop stop-color="#006BE2" offset="0%"/><stop stop-color="#00CDFA" offset="100%"/></linearGradient><linearGradient x1="50%" y1="0%" x2="50%" y2="100%" id="d"><stop stop-color="#006BE2" offset="0%"/><stop stop-color="#00CDFA" offset="100%"/></linearGradient><linearGradient x1="50%" y1="0%" x2="50%" y2="100%" id="e"><stop stop-color="#006BE2" offset="0%"/><stop stop-color="#00CDFA" offset="100%"/></linearGradient><linearGradient x1="50%" y1="0%" x2="50%" y2="100%" id="f"><stop stop-color="#006BE2" offset="0%"/><stop stop-color="#00CDFA" offset="100%"/></linearGradient><linearGradient x1="50%" y1="0%" x2="50%" y2="100%" id="g"><stop stop-color="#006BE2" offset="0%"/><stop stop-color="#00CDFA" offset="100%"/></linearGradient></defs><g fill="none" fill-rule="evenodd"><path d="M1279.587 364.462v-17.85c-13.227-1.52-26.223-4.968-38.48-10.106-5.81-2.436-13.285-6.578-22.426-12.427-5.773-3.693-7.459-11.368-3.765-17.141.098-.153.199-.303.303-.45l4.634-6.59c3.932-5.59 11.645-6.945 17.247-3.03 6.466 4.521 11.659 7.767 15.58 9.74 8.596 4.325 17.492 7.309 27.207 8.804v-58.8c-43.8-11.4-64.2-27.9-64.2-62.1 0-32.4 26.4-54.3 63.9-57.3v-12.25c0-6.71 5.44-12.15 12.15-12.15s12.15 5.44 12.15 12.15v12.85c15.18 1.871 28.918 6.193 41.415 12.765a84.085 84.085 0 0 1 4.368 2.495c6.51 3.946 8.618 12.405 4.722 18.946l-4.332 7.27c-2.974 4.993-9.431 6.629-14.424 3.655a10.526 10.526 0 0 1-.275-.17c-2.773-1.77-5.084-3.14-6.934-4.11-8.107-4.253-16.365-7.248-24.84-9.051v57c45.6 11.4 65.1 29.7 65.1 62.4s-26.7 54.6-64.8 57.9v17.55c0 6.71-5.44 12.15-12.15 12.15s-12.15-5.44-12.15-12.15zm.3-144.15v-52.8c-18.9 1.5-28.8 11.7-28.8 25.5 0 12.3 5.7 20.4 28.8 27.3zm23.7 96.3c18.9-1.5 29.7-11.1 29.7-26.1 0-13.2-6.3-21.3-29.7-28.2v54.3z" fill-opacity=".04" fill="url(#a)" transform="rotate(36 1298.474 214.911)"/><path d="M892.694 351.577l11.013 36.02a5 5 0 0 1-3.32 6.244l-3.67 1.122a5 5 0 0 1-6.243-3.32l-11.013-36.02-33.815 10.338a5 5 0 0 1-6.243-3.32l-1.122-3.67a5 5 0 0 1 3.32-6.243l33.815-10.339-9.664-31.61a5 5 0 0 1 3.32-6.243l3.67-1.122a5 5 0 0 1 6.243 3.32l9.664 31.61 33.815-10.339a5 5 0 0 1 6.243 3.32l1.122 3.67a5 5 0 0 1-3.32 6.243l-33.815 10.339z" fill-opacity=".04" fill="url(#b)" fill-rule="nonzero" transform="translate(-16.055 -10.189)"/><path d="M379.139 746.295v-13.167c-9.683-1.118-19.197-3.653-28.17-7.432-4.25-1.79-9.717-4.833-16.402-9.13a9.151 9.151 0 0 1-2.549-12.946l3.393-4.846a9.065 9.065 0 0 1 12.636-2.22c4.728 3.32 8.526 5.705 11.394 7.155 6.293 3.18 12.805 5.375 19.917 6.474v-43.242c-32.063-8.384-46.997-20.518-46.997-45.669 0-23.827 19.326-39.932 46.778-42.138v-9.05a8.894 8.894 0 0 1 17.789 0v9.49c11.111 1.377 21.168 4.555 30.317 9.389.921.487 1.98 1.094 3.176 1.822 4.783 2.911 6.334 9.129 3.478 13.945l-3.171 5.348a7.697 7.697 0 0 1-10.774 2.553c-2.024-1.297-3.711-2.302-5.063-3.014-5.934-3.127-11.98-5.33-18.184-6.656v41.918c33.382 8.384 47.656 21.841 47.656 45.89 0 24.047-19.545 40.152-47.436 42.58v12.946a8.894 8.894 0 0 1-17.789 0zm.31-106.912v-39c-13.781 1.108-21 8.642-21 18.835 0 9.085 4.156 15.068 21 20.165zm17.505 71.133c14-1.105 22-8.176 22-19.226 0-9.724-4.666-15.69-22-20.774v40z" fill-opacity=".04" fill="url(#c)" transform="rotate(25 402.314 616.886)"/><path d="M441.633 157.822V147.26c-7.815-.899-15.493-2.937-22.734-5.976-3.431-1.44-7.847-3.889-13.245-7.347a7.343 7.343 0 0 1-2.048-10.405l2.737-3.896a7.323 7.323 0 0 1 10.191-1.79c3.82 2.672 6.886 4.592 9.202 5.758 5.079 2.557 10.334 4.322 16.074 5.206V94.037c-25.876-6.741-37.928-16.499-37.928-36.723 0-19.16 15.597-32.11 37.75-33.885v-7.251a7.178 7.178 0 0 1 14.356 0v7.606c8.968 1.107 17.084 3.662 24.467 7.549.747.393 1.606.884 2.576 1.473a8.201 8.201 0 0 1 2.794 11.206l-2.56 4.3a6.215 6.215 0 0 1-8.685 2.059c-1.637-1.046-3.002-1.856-4.095-2.43-4.789-2.514-9.667-4.286-14.674-5.352v33.707c26.94 6.742 38.46 17.564 38.46 36.901 0 19.337-15.774 32.288-38.283 34.24v10.385a7.178 7.178 0 1 1-14.356 0zm-.284-86.478v-31c-11.156.88-17 6.87-17 14.972 0 7.221 3.365 11.977 17 16.028zm14.187 57.354c11.455-.883 18-6.54 18-15.38 0-7.78-3.818-12.553-18-16.62v32z" fill-opacity=".06" fill="url(#d)" transform="rotate(-14 398.753 147.285)"/><path d="M94.158 553.622v-6.919a54.384 54.384 0 0 1-14.826-3.907c-2.237-.941-5.115-2.542-8.634-4.801a4.809 4.809 0 0 1-1.34-6.806l1.785-2.548a4.773 4.773 0 0 1 6.648-1.17l.002.002c2.489 1.746 4.488 3 5.998 3.763 3.312 1.672 6.74 2.826 10.483 3.404v-22.736c-16.876-4.408-24.736-10.787-24.736-24.011 0-12.528 10.172-20.996 24.62-22.156v-4.753a4.681 4.681 0 1 1 9.362 0v4.985c5.849.724 11.142 2.395 15.957 4.936a32.05 32.05 0 0 1 1.674.96 5.37 5.37 0 0 1 1.828 7.33l-1.669 2.812a4.051 4.051 0 0 1-5.669 1.344c-1.065-.683-1.954-1.211-2.666-1.586-3.123-1.644-6.305-2.803-9.57-3.5v22.04c17.569 4.407 25.082 11.483 25.082 24.127 0 12.644-10.287 21.111-24.967 22.387v6.803a4.681 4.681 0 1 1-9.362 0zm.48-56.013v-20c-7.218.568-11 4.432-11 9.66 0 4.658 2.177 7.726 11 10.34zm8.87 37.68c7-.58 11-4.292 11-10.093 0-5.105-2.332-8.238-11-10.906v21z" fill-opacity=".04" fill="url(#e)" transform="rotate(-28 70.027 534.405)"/><path d="M590.976 381.363v-4.797a38.24 38.24 0 0 1-10.378-2.72c-1.567-.656-3.584-1.771-6.05-3.346a3.336 3.336 0 0 1-.932-4.734l1.25-1.773a3.346 3.346 0 0 1 4.65-.817c1.744 1.218 3.145 2.092 4.203 2.623 2.319 1.164 4.718 1.967 7.338 2.37v-15.826c-11.813-3.068-17.315-7.51-17.315-16.714 0-8.72 7.12-14.614 17.234-15.422v-3.29a3.277 3.277 0 1 1 6.554 0v3.452c4.094.503 7.8 1.666 11.17 3.435.342.18.736.405 1.18.674a3.726 3.726 0 0 1 1.271 5.097l-1.168 1.957a2.838 2.838 0 0 1-3.962.939 26.648 26.648 0 0 0-1.873-1.108 26.035 26.035 0 0 0-6.699-2.436v15.342c12.298 3.068 17.557 7.993 17.557 16.794s-7.2 14.695-17.476 15.583v4.717a3.277 3.277 0 0 1-6.554 0zm1.02-38.304v-14c-5.25.397-8 3.102-8 6.76 0 3.262 1.583 5.41 8 7.24zm5.081 26.309c5.091-.414 8-3.066 8-7.21 0-3.646-1.696-5.884-8-7.79v15z" fill-opacity=".08" fill="url(#f)" transform="rotate(45 598.278 324.666)"/><path d="M1773.99 513.938v-4.798a38.24 38.24 0 0 1-10.38-2.72c-1.567-.656-3.583-1.77-6.05-3.346a3.336 3.336 0 0 1-.931-4.733l1.25-1.774a3.346 3.346 0 0 1 4.65-.816c1.744 1.217 3.145 2.091 4.203 2.622 2.319 1.164 4.718 1.968 7.338 2.37v-15.826c-11.813-3.068-17.315-7.509-17.315-16.714 0-8.72 7.12-14.614 17.234-15.422v-3.29a3.277 3.277 0 0 1 6.554 0v3.452c4.094.504 7.799 1.667 11.17 3.436.342.18.736.404 1.18.673a3.726 3.726 0 0 1 1.27 5.097l-1.167 1.957a2.838 2.838 0 0 1-3.963.94 26.65 26.65 0 0 0-1.872-1.108 26.035 26.035 0 0 0-6.7-2.436v15.34c12.3 3.07 17.558 7.994 17.558 16.795 0 8.801-7.2 14.696-17.476 15.584v4.717a3.277 3.277 0 0 1-6.554 0zm1.019-38.305v-14c-5.25.398-8 3.102-8 6.761 0 3.262 1.583 5.41 8 7.239zm5.081 26.31c5.091-.415 8-3.067 8-7.21 0-3.647-1.697-5.885-8-7.79v15z" fill-opacity=".06" fill="url(#f)" transform="rotate(-14 1727.503 541.999)"/><path d="M1427.475 612.239v-3.943a30.733 30.733 0 0 1-8.401-2.222c-1.267-.535-2.897-1.444-4.89-2.728a2.74 2.74 0 0 1-.762-3.872l1.011-1.449a2.702 2.702 0 0 1 3.771-.662c1.41.992 2.541 1.704 3.396 2.137 1.877.951 3.82 1.607 5.94 1.936v-12.928c-9.562-2.506-14.016-6.134-14.016-13.653 0-7.124 5.764-11.939 13.951-12.599v-2.712a2.653 2.653 0 1 1 5.305 0v2.844c3.315.412 6.314 1.362 9.043 2.807.274.145.588.326.943.543a3.06 3.06 0 0 1 1.041 4.171l-.946 1.599a2.295 2.295 0 0 1-3.215.762 21.442 21.442 0 0 0-1.508-.9 20.954 20.954 0 0 0-5.423-1.99v12.532c9.956 2.507 14.213 6.53 14.213 13.72s-5.83 12.004-14.148 12.73v3.877a2.653 2.653 0 0 1-5.305 0zm.081-31.774v-11c-3.937.312-6 2.437-6 5.312 0 2.563 1.188 4.25 6 5.688zm5.675 21.735c3.819-.331 6-2.453 6-5.768 0-2.917-1.272-4.707-6-6.232v12z" fill-opacity=".05" fill="url(#g)" transform="rotate(17 1455.987 527.084)"/><path d="M1573.457 333.499h26.845a5 5 0 0 1 0 10h-26.845v25.937a5 5 0 0 1-10 0v-25.937h-24.155a5 5 0 1 1 0-10h24.155v-25.063a5 5 0 0 1 10 0v25.063z" fill-opacity=".06" fill="url(#b)" fill-rule="nonzero" transform="rotate(-27 1540.556 367.279)"/><path d="M318.242 307.857l-3.753 15.054a3.003 3.003 0 1 1-5.827-1.453l3.753-15.054-14.083-3.51a3.003 3.003 0 1 1 1.453-5.828l14.083 3.511 3.269-13.111a3.003 3.003 0 0 1 5.827 1.453l-3.269 13.111 14.083 3.511a3.003 3.003 0 1 1-1.453 5.828l-14.083-3.512z" fill-opacity=".06" fill="url(#b)" fill-rule="nonzero" transform="translate(-16.055 -10.189)"/><path d="M1639.242 724.857l-3.753 15.054a3.003 3.003 0 0 1-5.828-1.453l3.754-15.054-14.083-3.51a3.003 3.003 0 0 1 1.453-5.828l14.083 3.511 3.269-13.111a3.003 3.003 0 0 1 5.827 1.453l-3.269 13.111 14.083 3.511a3.003 3.003 0 1 1-1.453 5.828l-14.083-3.512z" fill-opacity=".07" fill="url(#b)" fill-rule="nonzero" transform="translate(-16.055 -10.189)"/><path d="M60.555 116.651l-7.744 31.058a5 5 0 0 1-6.06 3.642l-1.944-.484a5 5 0 0 1-3.642-6.061l7.744-31.059-29.117-7.26a5 5 0 0 1-3.642-6.06l.484-1.944a5 5 0 0 1 6.061-3.642l29.117 7.26 6.776-27.176a5 5 0 0 1 6.061-3.642l1.944.485a5 5 0 0 1 3.642 6.06l-6.776 27.177 29.117 7.26a5 5 0 0 1 3.642 6.06l-.485 1.944a5 5 0 0 1-6.06 3.642l-29.118-7.26z" fill-opacity=".06" fill="url(#b)" fill-rule="nonzero" transform="rotate(-36 32.478 130.93)"/><path d="M1716.92 69l10.617 34.727a5 5 0 0 1-3.32 6.243l-3.25.994a5 5 0 0 1-6.243-3.32l-10.617-34.726-32.59 9.964a5 5 0 0 1-6.244-3.32l-.994-3.25a5 5 0 0 1 3.32-6.243l32.59-9.964-9.31-30.455a5 5 0 0 1 3.32-6.243l3.25-.994a5 5 0 0 1 6.243 3.32l9.311 30.455 32.59-9.964a5 5 0 0 1 6.244 3.32l.994 3.25a5 5 0 0 1-3.32 6.243l-32.59 9.964zm-599.226 629.577l11.013 36.02a5 5 0 0 1-3.32 6.244l-3.67 1.122a5 5 0 0 1-6.243-3.32l-11.013-36.02-33.815 10.338a5 5 0 0 1-6.243-3.32l-1.122-3.67a5 5 0 0 1 3.32-6.243l33.815-10.339-9.664-31.61a5 5 0 0 1 3.32-6.243l3.67-1.122a5 5 0 0 1 6.243 3.32l9.664 31.61 33.815-10.339a5 5 0 0 1 6.243 3.32l1.122 3.67a5 5 0 0 1-3.32 6.243l-33.815 10.339z" fill-opacity=".04" fill="url(#b)" fill-rule="nonzero" transform="translate(-16.055 -10.189)"/></g></svg>