<svg version="1.1" id="Слой_1" xmlns="http://www.w3.org/2000/svg" x="0" y="0" viewBox="0 0 94 94" enable-background="new 0 0 94 94" xml:space="preserve"><defs><filter id="Adobe_OpacityMaskFilter" filterUnits="userSpaceOnUse" x="-35.918" y="-5.828" width="191.572" height="74.761"><feColorMatrix values="1 0 0 0 0 0 1 0 0 0 0 0 1 0 0 0 0 0 1 0"/></filter></defs><mask maskUnits="userSpaceOnUse" x="-35.918" y="-5.828" width="191.572" height="74.761" id="mask-5_19_"><g filter="url(#Adobe_OpacityMaskFilter)"><circle id="path-4_19_" fill="#FFF" cx="47.033" cy="47.033" r="47"/></g></mask><path id="Shape_2_" mask="url(#mask-5_19_)" fill="none" stroke="#00C0EF" stroke-width="1.029" d="M-35.873 19.429c21.57 1.192 34.56 15.762 46.022 28.595C19.87 58.921 28.262 68.33 39.878 67.953c13.501-.445 20.789-13.847 29.225-29.366C79.15 20.111 90.534-.819 115.62-4.831c9.937-1.583 23.338.733 39.854 6.884m-.147.428c-16.448-6.123-29.77-8.433-39.621-6.853-16.94 2.703-27.597 13.235-35.829 25.484a129.965 129.965 0 0 0-3.125 4.898c-2.578 4.238-4.94 8.58-7.231 12.793-4.191 7.706-8.145 14.984-12.767 20.392-5.219 6.079-10.561 9.008-16.869 9.214l-.685.01c-11.462 0-19.782-9.324-29.386-20.09-11.4-12.778-24.329-27.259-45.704-28.441"/><defs><filter id="Adobe_OpacityMaskFilter_1_" filterUnits="userSpaceOnUse" x="42.84" y="-3.274" width="70.272" height="82.773"><feColorMatrix values="1 0 0 0 0 0 1 0 0 0 0 0 1 0 0 0 0 0 1 0"/></filter></defs><mask maskUnits="userSpaceOnUse" x="42.84" y="-3.274" width="70.272" height="82.773" id="mask-5_18_"><g filter="url(#Adobe_OpacityMaskFilter_1_)"><circle id="path-4_18_" fill="#FFF" cx="47.033" cy="47.033" r="47"/></g></mask><path id="Path_6_" mask="url(#mask-5_18_)" fill="#0076E4" stroke="#0077E5" stroke-width=".686" d="M43.374 79.075l-.11-.384c13.213-3.745 20.559-17.476 29.04-33.385C81.491 28.095 91.908 8.587 112.447-2.81l.195.343C92.206 8.875 81.803 28.328 72.657 45.505c-8.535 15.975-15.906 29.78-29.283 33.57z"/><defs><filter id="Adobe_OpacityMaskFilter_2_" filterUnits="userSpaceOnUse" x="-32.714" y="36.892" width="69.437" height="43.52"><feColorMatrix values="1 0 0 0 0 0 1 0 0 0 0 0 1 0 0 0 0 0 1 0"/></filter></defs><mask maskUnits="userSpaceOnUse" x="-32.714" y="36.892" width="69.437" height="43.52" id="mask-5_17_"><g filter="url(#Adobe_OpacityMaskFilter_2_)"><circle id="path-4_17_" fill="#FFF" cx="47.033" cy="47.033" r="47"/></g></mask><path id="Path_2_" mask="url(#mask-5_17_)" fill="#0076E4" stroke="#0077E5" stroke-width=".686" d="M36.222 80.069c-13.439 0-24.055-10.77-34.327-21.187S-18.966 37.72-32.371 37.638v-.401c13.576.065 24.243 10.883 34.557 21.348 10.211 10.359 20.768 21.067 34.04 21.067h.154v.401l-.158.016z"/><defs><filter id="Adobe_OpacityMaskFilter_3_" filterUnits="userSpaceOnUse" x="37.381" y="77.101" width="5.01" height="5.01"><feColorMatrix values="1 0 0 0 0 0 1 0 0 0 0 0 1 0 0 0 0 0 1 0"/></filter></defs><mask maskUnits="userSpaceOnUse" x="37.381" y="77.101" width="5.01" height="5.01" id="mask-5_16_"><g filter="url(#Adobe_OpacityMaskFilter_3_)"><circle id="path-4_16_" fill="#FFF" cx="47.033" cy="47.033" r="47"/></g></mask><path id="Path_1_" mask="url(#mask-5_16_)" fill="#0075E4" d="M42.39 79.606a2.505 2.505 0 1 1-5.01 0 2.505 2.505 0 0 1 5.01 0z"/><defs><filter id="Adobe_OpacityMaskFilter_4_" filterUnits="userSpaceOnUse" x="6.106" y="46.502" width="3.519" height="15.718"><feColorMatrix values="1 0 0 0 0 0 1 0 0 0 0 0 1 0 0 0 0 0 1 0"/></filter></defs><mask maskUnits="userSpaceOnUse" x="6.106" y="46.502" width="3.519" height="15.718" id="mask-5_15_"><g filter="url(#Adobe_OpacityMaskFilter_4_)"><circle id="path-4_15_" fill="#FFF" cx="47.033" cy="47.033" r="47"/></g></mask><path id="Rectangle_30_" mask="url(#mask-5_15_)" fill="#0079E5" d="M6.106 46.502h3.519V62.22H6.106z"/><defs><filter id="Adobe_OpacityMaskFilter_5_" filterUnits="userSpaceOnUse" x="12.298" y="48.866" width="3.519" height="3.899"><feColorMatrix values="1 0 0 0 0 0 1 0 0 0 0 0 1 0 0 0 0 0 1 0"/></filter></defs><mask maskUnits="userSpaceOnUse" x="12.298" y="48.866" width="3.519" height="3.899" id="mask-5_14_"><g filter="url(#Adobe_OpacityMaskFilter_5_)"><circle id="path-4_14_" fill="#FFF" cx="47.033" cy="47.033" r="47"/></g></mask><path id="Rectangle_14_" mask="url(#mask-5_14_)" fill="#FF8952" d="M12.298 48.866h3.519v3.899h-3.519z"/><defs><filter id="Adobe_OpacityMaskFilter_6_" filterUnits="userSpaceOnUse" x="18.486" y="38.477" width="3.519" height="15.718"><feColorMatrix values="1 0 0 0 0 0 1 0 0 0 0 0 1 0 0 0 0 0 1 0"/></filter></defs><mask maskUnits="userSpaceOnUse" x="18.486" y="38.477" width="3.519" height="15.718" id="mask-5_13_"><g filter="url(#Adobe_OpacityMaskFilter_6_)"><circle id="path-4_13_" fill="#FFF" cx="47.033" cy="47.033" r="47"/></g></mask><path id="Rectangle_13_" mask="url(#mask-5_13_)" fill="#0079E5" d="M18.486 38.477h3.519v15.718h-3.519z"/><defs><filter id="Adobe_OpacityMaskFilter_7_" filterUnits="userSpaceOnUse" x="24.678" y="37.033" width="3.519" height="16"><feColorMatrix values="1 0 0 0 0 0 1 0 0 0 0 0 1 0 0 0 0 0 1 0"/></filter></defs><mask maskUnits="userSpaceOnUse" x="24.678" y="37.033" width="3.519" height="16" id="mask-5_12_"><g filter="url(#Adobe_OpacityMaskFilter_7_)"><circle id="path-4_12_" fill="#FFF" cx="47.033" cy="47.033" r="47"/></g></mask><path id="Rectangle_12_" mask="url(#mask-5_12_)" fill="#FF8952" d="M24.678 37.033h3.519v16h-3.519z"/><defs><filter id="Adobe_OpacityMaskFilter_8_" filterUnits="userSpaceOnUse" x="30.867" y="22.32" width="3.519" height="31"><feColorMatrix values="1 0 0 0 0 0 1 0 0 0 0 0 1 0 0 0 0 0 1 0"/></filter></defs><mask maskUnits="userSpaceOnUse" x="30.867" y="22.32" width="3.519" height="31" id="mask-5_11_"><g filter="url(#Adobe_OpacityMaskFilter_8_)"><circle id="path-4_11_" fill="#FFF" cx="47.033" cy="47.033" r="47"/></g></mask><path id="Rectangle_11_" mask="url(#mask-5_11_)" fill="#0079E5" d="M30.867 22.32h3.519v31h-3.519z"/><defs><filter id="Adobe_OpacityMaskFilter_9_" filterUnits="userSpaceOnUse" x="37.058" y="23.58" width="3.519" height="17"><feColorMatrix values="1 0 0 0 0 0 1 0 0 0 0 0 1 0 0 0 0 0 1 0"/></filter></defs><mask maskUnits="userSpaceOnUse" x="37.058" y="23.58" width="3.519" height="17" id="mask-5_10_"><g filter="url(#Adobe_OpacityMaskFilter_9_)"><circle id="path-4_10_" fill="#FFF" cx="47.033" cy="47.033" r="47"/></g></mask><path id="Rectangle_10_" mask="url(#mask-5_10_)" fill="#FF8952" d="M37.058 23.58h3.519v17h-3.519z"/><defs><filter id="Adobe_OpacityMaskFilter_10_" filterUnits="userSpaceOnUse" x="43.247" y="34.68" width="3.519" height="8.628"><feColorMatrix values="1 0 0 0 0 0 1 0 0 0 0 0 1 0 0 0 0 0 1 0"/></filter></defs><mask maskUnits="userSpaceOnUse" x="43.247" y="34.68" width="3.519" height="8.628" id="mask-5_9_"><g filter="url(#Adobe_OpacityMaskFilter_10_)"><circle id="path-4_9_" fill="#FFF" cx="47.033" cy="47.033" r="47"/></g></mask><path id="Rectangle_9_" mask="url(#mask-5_9_)" fill="#0079E5" d="M43.247 34.68h3.519v8.628h-3.519z"/><defs><filter id="Adobe_OpacityMaskFilter_11_" filterUnits="userSpaceOnUse" x="49.439" y="19.033" width="3.519" height="17"><feColorMatrix values="1 0 0 0 0 0 1 0 0 0 0 0 1 0 0 0 0 0 1 0"/></filter></defs><mask maskUnits="userSpaceOnUse" x="49.439" y="19.033" width="3.519" height="17" id="mask-5_8_"><g filter="url(#Adobe_OpacityMaskFilter_11_)"><circle id="path-4_8_" fill="#FFF" cx="47.033" cy="47.033" r="47"/></g></mask><path id="Rectangle_8_" mask="url(#mask-5_8_)" fill="#0079E5" d="M49.439 19.033h3.519v17h-3.519z"/><defs><filter id="Adobe_OpacityMaskFilter_12_" filterUnits="userSpaceOnUse" x="55.627" y="32.32" width="3.519" height="15.718"><feColorMatrix values="1 0 0 0 0 0 1 0 0 0 0 0 1 0 0 0 0 0 1 0"/></filter></defs><mask maskUnits="userSpaceOnUse" x="55.627" y="32.32" width="3.519" height="15.718" id="mask-5_7_"><g filter="url(#Adobe_OpacityMaskFilter_12_)"><circle id="path-4_7_" fill="#FFF" cx="47.033" cy="47.033" r="47"/></g></mask><path id="Rectangle_7_" mask="url(#mask-5_7_)" fill="#FF8952" d="M55.627 32.32h3.519v15.718h-3.519z"/><defs><filter id="Adobe_OpacityMaskFilter_13_" filterUnits="userSpaceOnUse" x="61.819" y="36.673" width="3.519" height="9"><feColorMatrix values="1 0 0 0 0 0 1 0 0 0 0 0 1 0 0 0 0 0 1 0"/></filter></defs><mask maskUnits="userSpaceOnUse" x="61.819" y="36.673" width="3.519" height="9" id="mask-5_6_"><g filter="url(#Adobe_OpacityMaskFilter_13_)"><circle id="path-4_6_" fill="#FFF" cx="47.033" cy="47.033" r="47"/></g></mask><path id="Rectangle_6_" mask="url(#mask-5_6_)" fill="#0079E5" d="M61.819 36.673h3.519v9h-3.519z"/><defs><filter id="Adobe_OpacityMaskFilter_14_" filterUnits="userSpaceOnUse" x="68.007" y="42.13" width="3.519" height="13"><feColorMatrix values="1 0 0 0 0 0 1 0 0 0 0 0 1 0 0 0 0 0 1 0"/></filter></defs><mask maskUnits="userSpaceOnUse" x="68.007" y="42.13" width="3.519" height="13" id="mask-5_5_"><g filter="url(#Adobe_OpacityMaskFilter_14_)"><circle id="path-4_5_" fill="#FFF" cx="47.033" cy="47.033" r="47"/></g></mask><path id="Rectangle_5_" mask="url(#mask-5_5_)" fill="#0079E5" d="M68.007 42.13h3.519v13h-3.519z"/><defs><filter id="Adobe_OpacityMaskFilter_15_" filterUnits="userSpaceOnUse" x="74.199" y="48.866" width="3.519" height="15.718"><feColorMatrix values="1 0 0 0 0 0 1 0 0 0 0 0 1 0 0 0 0 0 1 0"/></filter></defs><mask maskUnits="userSpaceOnUse" x="74.199" y="48.866" width="3.519" height="15.718" id="mask-5_4_"><g filter="url(#Adobe_OpacityMaskFilter_15_)"><circle id="path-4_4_" fill="#FFF" cx="47.033" cy="47.033" r="47"/></g></mask><path id="Rectangle_4_" mask="url(#mask-5_4_)" fill="#FF8952" d="M74.199 48.866h3.519v15.718h-3.519z"/><defs><filter id="Adobe_OpacityMaskFilter_16_" filterUnits="userSpaceOnUse" x="80.387" y="34.68" width="3.519" height="10.992"><feColorMatrix values="1 0 0 0 0 0 1 0 0 0 0 0 1 0 0 0 0 0 1 0"/></filter></defs><mask maskUnits="userSpaceOnUse" x="80.387" y="34.68" width="3.519" height="10.992" id="mask-5_3_"><g filter="url(#Adobe_OpacityMaskFilter_16_)"><circle id="path-4_3_" fill="#FFF" cx="47.033" cy="47.033" r="47"/></g></mask><path id="Rectangle_3_" mask="url(#mask-5_3_)" fill="#0079E5" d="M80.387 34.68h3.519v10.992h-3.519z"/><defs><filter id="Adobe_OpacityMaskFilter_17_" filterUnits="userSpaceOnUse" x="86.579" y="25.227" width="3.519" height="15.718"><feColorMatrix values="1 0 0 0 0 0 1 0 0 0 0 0 1 0 0 0 0 0 1 0"/></filter></defs><mask maskUnits="userSpaceOnUse" x="86.579" y="25.227" width="3.519" height="15.718" id="mask-5_2_"><g filter="url(#Adobe_OpacityMaskFilter_17_)"><circle id="path-4_2_" fill="#FFF" cx="47.033" cy="47.033" r="47"/></g></mask><path id="Rectangle_2_" mask="url(#mask-5_2_)" fill="#0079E5" d="M86.579 25.227h3.519v15.718h-3.519z"/></svg>