<svg version="1.1" id="Слой_1" xmlns="http://www.w3.org/2000/svg" x="0" y="0" viewBox="0 0 94 94" xml:space="preserve"><path fill="#001F30" d="M58.705 46.804a8.93 8.93 0 0 0-5.352-5.793c-2.573-1.237-6.537-3.398-7.57-3.839l-.079-.034c-3.588-1.537-5.681-3.779-9.324-2.94-1.227.279-4.204 2.596-5.339 3.136-2.262 1.069-3.814 2.455-6.144 3.559a6.47 6.47 0 0 0-3.69 5.963c.007.309.024.629.051.959-.144 13.555 5.966 25.284 5.14 39.1-.017.196-.249 1.024-.553 2.098A46.492 46.492 0 0 0 46.836 94c4.61 0 9.059-.679 13.267-1.925.041-.701.084-1.485.125-2.348.314.688.629 1.365.944 2.021a46.486 46.486 0 0 0 7.573-3.207l-10.04-41.737z"/><path id="Path_2_" fill="none" stroke="#FFF" stroke-width=".2" stroke-linecap="round" stroke-linejoin="round" d="M59.089 56.356c1.35 13.208 1.631 27.11 1.203 32.347"/><path id="Path_3_" fill="none" stroke="#FFF" stroke-width=".2" stroke-linecap="round" stroke-linejoin="round" d="M55.477 42.44c.546.629.96 1.361 1.22 2.153a51.225 51.225 0 0 1 1.909 8.033"/><path id="Path_4_" fill="#611B2D" d="M43.008 31.182a3.4 3.4 0 0 1 2.196-3.208c2.399-.904 2.669-3.497 2.669-4.016l.918.038v4.508c0 2.998-2.265 5.13-5.246 5.258h-.535l-.002-2.58z"/><path id="Path_5_" fill="#561022" d="M36.121 17.964l.466-3.817a4.518 4.518 0 0 1 1.692-3.013 4.486 4.486 0 0 1 3.321-.927l3.026.371c2.802.358 4.792 2.918 4.455 5.732l-.881 5.502-10.348-1.633a1.992 1.992 0 0 1-1.731-2.215z"/><path id="Path_6_" fill="#FF8952" d="M46.171 20.681v8.147c.031 2.407.089 4.608.199 6.499.021.344.041.688.065 1.001a37.174 37.174 0 0 0 .287 2.769.669.669 0 0 1-.548.771c-5.109.887-9.803-.083-10.701-5.264l-1.809-10.828 12.507-3.095z"/><path id="Path_7_" fill="#FF8952" d="M43.45 29.666l-3.605.323c-3.264.231-6.15-2.11-6.61-5.361l-1.049-7.108c-.535-3.638 1.843-6.929 5.332-7.242l3.958-.344c3.485-.313 6.528 2.496 6.791 6.155l.507 7.156c.264 3.239-2.103 6.093-5.324 6.421z"/><path id="Path_8_" fill="#24364C" d="M44.718 21.757a438.74 438.74 0 0 0 1.467 5.643c0 .481.01.956.031 1.424.058 2.386.027 4.615.154 6.502-8.19.241-11.784-10.285-11.784-10.285l10.132-3.284z"/><path id="Path_9_" fill="#FF8952" d="M34.61 18.332v8.425s2.793 8.407 11.959 5.935c.685-.189 1.713-3.095 2.056-6.922v-.186c.038-.468.069-.949.086-1.444v-.784a26.554 26.554 0 0 0-.23-3.696c.021-2.892-2.015-6.877-6.809-6.894h-2.244c-5.408-.028-4.818 5.566-4.818 5.566z"/><path id="Path_10_" fill="#FF8952" d="M34.61 18.332v8.425s2.793 8.407 11.959 5.935c.685-.189 1.713-3.095 2.056-6.922v-.186c.038-.468.069-.949.086-1.444v-.784a26.554 26.554 0 0 0-.23-3.696c.021-2.892-2.015-6.877-6.809-6.894h-2.244c-5.408-.028-4.818 5.566-4.818 5.566z"/><path id="Path_11_" fill="#611B2D" d="M32.732 14.653a2.102 2.102 0 0 0-1.3.958 2.12 2.12 0 0 0-.242 1.6l1.515 6.169c.308-.402.61-.75 2.145.963.236-.299-.778-2.706-.562-2.971.387-.475.737-.884 1.028-1.197a1.645 1.645 0 0 0 .343-1.616l-.901-2.696a1.657 1.657 0 0 0-2.026-1.21z"/><ellipse id="Oval" transform="rotate(-27.164 33.133 24.956)" fill="#FF8952" cx="33.128" cy="24.956" rx="1.406" ry="2.409"/><path id="Path_14_" fill="#611B2D" d="M48.473 22.098a.11.11 0 0 0-.068-.064.112.112 0 0 0-.093.009 4.516 4.516 0 0 1-2.118.612.125.125 0 0 0-.12.117c.001.032.014.062.038.083s.054.032.086.031a4.695 4.695 0 0 0 2.231-.643.11.11 0 0 0 .045-.141v-.004z"/><path id="Path_15_" fill="none" stroke="#611B2D" stroke-width=".6" stroke-linecap="round" stroke-linejoin="round" d="M41.487 21.266a4.71 4.71 0 0 0-3.053-.158"/><path id="Path_16_" fill="none" stroke="#611B2D" stroke-width=".6" stroke-linecap="round" stroke-linejoin="round" d="M48.59 20.11a4.44 4.44 0 0 0-2.967.774"/><path id="Path_17_" fill="none" stroke="#611B2D" stroke-width=".2" stroke-linecap="round" stroke-linejoin="round" d="M40.459 23.377a.624.624 0 0 1-.606.233.63.63 0 0 1-.488-.429"/><path id="Path_18_" fill="#611B2D" d="M38.605 23.033a.11.11 0 0 1 .051-.079.11.11 0 0 1 .093-.013 5.211 5.211 0 0 0 2.378.117.12.12 0 0 1 .14.083c.008.031.003.064-.015.091s-.046.045-.078.05a5.424 5.424 0 0 1-2.491-.12.113.113 0 0 1-.078-.129z"/><path id="Path_19_" fill="none" stroke="#611B2D" stroke-width=".2" stroke-linecap="round" stroke-linejoin="round" d="M47.891 22.442a.625.625 0 1 1-1.066.313"/><path id="Path_20_" fill="#FFF" d="M40.453 28.301c.511.241-.022-.12.623 0 1.336.249 3.687.496 5.529-.334a2.241 2.241 0 0 1-2.258 2.111c-1.467.067-2.671-.627-3.469-1.253-.384-.301-.244-.346-.425-.524z"/><path id="Path_21_" fill="none" stroke="#DD7462" stroke-width=".3" stroke-linecap="round" stroke-linejoin="round" d="M43.288 30.544c.802.266 1.642.159 2.399-.304"/><path id="Path_22_" opacity=".28" fill="#DD7462" d="M48.059 25.897c.209-.074.405-.18.583-.313.038-.468.069-.949.086-1.444v-.784a3.158 3.158 0 0 0-1.007.251c-.841.444-.731 2.665.338 2.29z"/><path id="Path_23_" opacity=".28" fill="#DD7462" d="M38.389 24.364c1.234-.344 3.063 1.891 1.713 2.493-1.028.447-2.508.254-3.296-.547s1.083-1.822 1.583-1.946z"/><path id="Path_24_" fill="none" stroke="#A5633F" stroke-width=".5" stroke-linecap="round" stroke-linejoin="round" d="M36.097 29.432a9.364 9.364 0 0 0 3.495 2.909"/><path id="Path_26_" fill="#611B2D" d="M46.856 26.465c-1.905-.688-2.488-.636-5.685.588a1.644 1.644 0 0 0-.968.806 1.655 1.655 0 0 0-.115 1.257l.113.344 3.721-1.162c.319-.098.601-.291.809-.554.191.241.458.41.757.478l2.244.502.144-.657a1.346 1.346 0 0 0-1.02-1.602z"/><path fill="#611B2D" d="M36.025 13.952h.01c1.95.038 3.57.182 5.315.87 3.279 1.293 7.196-1.2 7.066-4.597-.069-2.104-2.594-1.822-6.449-1.915a13.758 13.758 0 0 0-6.243 1.358l-.006.003-.005-.003c-.549.268-1.078.574-1.583.918a13.76 13.76 0 0 0-2.128 2.349l-.144.21s-2.436 4.284 1.374 6.258l2.793-5.451zM48.439 28.146c-1.72 2.258-2.948 4.159-7.599 2.205a3.567 3.567 0 0 0-2.215-2.504c-2.45-.908-2.81-3.504-2.83-4.023l-.358.015-.859-3.488v-.001a.557.557 0 0 0-1.081.268l1.012 4.11v.001a.551.551 0 0 0 .419.403l.133 3.245a5.802 5.802 0 0 0 5.366 5.594c.38.111.778.183 1.199.165l3.313-.117c2.231-.086 3.666-2.118 3.564-4.302l-.064-1.571z"/><path id="Path_28_" fill="#DD7462" d="M42.559 26.196l.737.939c.212.239.522.366.84.344.415.035.814-.171 1.028-.53l.517-1.032c0-.024.021-.048.021-.072l-.764-.052-.192.11a.826.826 0 0 1-.685.086l-1.271-.1c-.024.024-.024.024-.024.048a.412.412 0 0 1-.207.259z"/><path id="Path_29_" fill="#FF8952" d="M42.494 25.908L43.57 23.9a.602.602 0 0 1 .898 0l1.234 1.757a.252.252 0 0 1-.103.395l-.887.505a.615.615 0 0 1-.404.058l-1.415-.241c-.293-.043-.481-.25-.399-.466z"/><path id="Path_30_" fill="#FF8952" d="M49.419 83.215l-.168-5.846-20.326-6.877c-1.37-.464-2.874-.295-4.108.46s-2.072 2.019-2.289 3.454a4.917 4.917 0 0 0 .917 3.66 4.887 4.887 0 0 0 3.236 1.924l22.738 3.225z"/><path id="Path_31_" fill="#001F30" d="M27.517 78.635l5.825-26.309c.829-4.88-2.44-9.51-7.302-10.343l-.648-.11a2.888 2.888 0 0 0-2.175.485 2.912 2.912 0 0 0-1.19 1.891L17.36 71.758c-.297 1.765.209 3.57 1.378 4.921s2.88 2.107 4.663 2.059l4.116-.103z"/><path id="Path_32_" fill="#001F30" d="M46.901 74.804l-28.002-8.507-1.539 6.97a5.7 5.7 0 0 0 .8 4.341 5.66 5.66 0 0 0 3.655 2.457L45.88 84.79l1.021-9.986z"/><path id="Path_33_" fill="none" stroke="#FFF" stroke-width=".2" stroke-linecap="round" stroke-linejoin="round" d="M31.426 70.286l14.871 4.518"/><path id="Path_34_" fill="#FF8952" d="M46.558 79.271l-.212 2.727 2.316 1.032 5.942 1.234c3.012-2.954 6.99-6.107 5.14-7.531l-6.881-1.537-6.305 4.075z"/><path id="Path_35_" fill="#FF8952" d="M46.558 79.271l2.423-3.243a9.307 9.307 0 0 1 4.211-3.16 2.11 2.11 0 0 0 1.097-.935l.805-1.424s1.467.289.48 2.046c-.987 1.757-3.427 6.024-3.427 6.024l-1.624 1.001-3.965-.309z"/><path id="Path_36_" fill="#FF8952" d="M55.203 77.411l4.263 1.51a1.127 1.127 0 0 0 1.442-.791 1.141 1.141 0 0 0-.87-1.407l-4.455-.829a.785.785 0 0 0-.915.567.79.79 0 0 0 .535.95z"/><path id="Path_37_" fill="#FF8952" d="M53.767 79.017l4.026 1.761a.99.99 0 0 0 1.305-.633 1.004 1.004 0 0 0-.686-1.276L54.199 77.7a.686.686 0 0 0-.833.461.688.688 0 0 0 .401.856z"/><path id="Path_38_" fill="#FF8952" d="M52.112 80.286l3.718 2.252a.878.878 0 0 0 1.217-.392.88.88 0 0 0-.459-1.196l-3.954-1.764a.605.605 0 0 0-.778.303.609.609 0 0 0 .256.797z"/><path id="Path_39_" fill="#FF8952" d="M50.087 83.212l4.242 1.069a.777.777 0 0 0 .959-.612.786.786 0 0 0-.662-.925l-4.335-.595a.541.541 0 0 0-.603.433.547.547 0 0 0 .399.63z"/><path id="Path_40_" fill="none" stroke="#FFF" stroke-width=".2" stroke-linecap="round" stroke-linejoin="round" d="M55.906 71.816c.058-.88-.212-1.097-.757-1.286a.088.088 0 0 0-.103.038l-.836 1.427"/><path id="Path_41_" fill="none" stroke="#FFF" stroke-width=".2" stroke-linecap="round" stroke-linejoin="round" d="M59.904 78.927c.541-.021.99-.428 1.066-.966a1.083 1.083 0 0 0-.898-1.197l-3.255-.688"/><path id="Path_42_" fill="none" stroke="#FFF" stroke-width=".2" stroke-linecap="round" stroke-linejoin="round" d="M58.229 80.86a1.03 1.03 0 0 0 .987-.894 1.01 1.01 0 0 0-.103-.564"/><path id="Path_43_" fill="#0D6FFB" d="M63.561 30.863H58.02a.94.94 0 0 1-.939-.942v-2.407c0-.521.42-.944.939-.946h5.541a.943.943 0 0 0 .942-.942v-5.502c0-.52.42-.942.939-.942h2.525a.94.94 0 0 1 .939.942v5.502a.941.941 0 0 0 .942.942h5.541a.944.944 0 0 1 .939.946v2.407a.94.94 0 0 1-.939.942h-5.541a.944.944 0 0 0-.942.946v5.519a.943.943 0 0 1-.939.945h-2.525a.938.938 0 0 1-.939-.945v-5.519a.948.948 0 0 0-.942-.946z"/><path id="Path_44_" fill="#0D6FFB" d="M71.908 47.041h-2.296a.392.392 0 0 1-.391-.392v-1.001c0-.216.175-.392.391-.392h2.296a.392.392 0 0 0 .391-.392v-2.269c0-.215.173-.39.387-.392h1.049a.386.386 0 0 1 .387.392v2.269c0 .216.175.392.391.392h2.296c.216 0 .391.176.391.392v1.008a.392.392 0 0 1-.391.392h-2.296a.392.392 0 0 0-.391.389v2.29a.384.384 0 0 1-.387.389h-1.049a.388.388 0 0 1-.387-.389v-2.29a.392.392 0 0 0-.391-.396z"/><path id="Path_45_" fill="#0D6FFB" d="M68.019 57.185h-1.573a.267.267 0 0 1-.267-.268v-.688c0-.148.12-.268.267-.268h1.573a.261.261 0 0 0 .264-.265v-1.558c0-.148.12-.268.267-.268h.716c.148 0 .267.12.267.268v1.558a.263.263 0 0 0 .267.264h1.573c.148 0 .267.12.267.268v.688c0 .148-.12.268-.267.268h-1.587a.267.267 0 0 0-.267.268v1.582c0 .148-.12.268-.267.268h-.716a.267.267 0 0 1-.267-.268v-1.582a.264.264 0 0 0-.25-.267z"/></svg>