<?xml version="1.0" encoding="UTF-8"?>
<!-- Generator: Adobe Illustrator 24.1.2, SVG Export Plug-In . SVG Version: 6.00 Build 0)  -->
<svg version="1.1" id="Слой_1" xmlns="http://www.w3.org/2000/svg" xmlns:xlink="http://www.w3.org/1999/xlink" x="0px" y="0px" viewBox="0 0 512 512" style="enable-background:new 0 0 512 512;" xml:space="preserve">
<style type="text/css">
	.st0{fill:#C3C8F6;}
	.st1{fill:#979FEF;}
	.st2{fill:#D8DAF7;}
	.st3{fill:#F25192;}
	.st4{fill:#FFFFFF;}
	.st5{fill:#6B77E8;}
	.st6{fill:#EBECFA;}
	.st7{fill:#E42A61;}
	.st8{fill:#3A4DE2;}
	.st9{fill:#858DDD;}
</style>
<g>
	<rect x="13.54" y="13.54" class="st0" width="484.53" height="484.53"/>
	<rect x="255.8" y="13.54" class="st1" width="242.26" height="484.53"/>
	<rect x="13.54" y="89.24" class="st2" width="208.19" height="408.82"/>
	<rect x="59.91" y="259.59" class="st3" width="115.46" height="28.39"/>
	<rect x="59.91" y="202.8" class="st4" width="96.53" height="28.39"/>
	<rect x="59.91" y="146.02" class="st3" width="105.99" height="28.39"/>
	<rect x="59.91" y="373.15" class="st3" width="87.07" height="28.39"/>
	<rect x="59.91" y="316.37" class="st4" width="77.6" height="28.39"/>
	<rect x="240.66" y="136.56" class="st5" width="28.39" height="56.78"/>
	<rect x="240.66" y="221.73" class="st5" width="28.39" height="56.78"/>
	<path class="st5" d="M288.92,335.29c0,13.07-10.6,23.66-23.66,23.66c-13.07,0-23.66-10.59-23.66-23.66   c0-13.07,10.59-23.66,23.66-23.66C278.33,311.63,288.92,322.22,288.92,335.29L288.92,335.29z M288.92,335.29"/>
	<rect x="250.12" y="382.61" class="st5" width="28.39" height="56.78"/>
	<rect x="13.54" y="13.54" class="st6" width="484.53" height="104.1"/>
	<path class="st5" d="M183.88,65.59c0,7.84-6.35,14.2-14.2,14.2c-7.84,0-14.2-6.35-14.2-14.2c0-7.84,6.35-14.2,14.2-14.2   C177.52,51.39,183.88,57.74,183.88,65.59L183.88,65.59z M183.88,65.59"/>
	<path class="st0" d="M136.56,65.59c0,7.84-6.35,14.2-14.2,14.2c-7.84,0-14.2-6.35-14.2-14.2c0-7.84,6.35-14.2,14.2-14.2   C130.21,51.39,136.56,57.74,136.56,65.59L136.56,65.59z M136.56,65.59"/>
	<path class="st4" d="M89.24,65.59c0,7.84-6.35,14.2-14.2,14.2c-7.84,0-14.2-6.35-14.2-14.2c0-7.84,6.35-14.2,14.2-14.2   C82.89,51.39,89.24,57.74,89.24,65.59L89.24,65.59z M89.24,65.59"/>
	<path class="st7" d="M335.29,164.95c0,13.07-10.59,23.66-23.66,23.66s-23.66-10.59-23.66-23.66c0-13.07,10.59-23.66,23.66-23.66   S335.29,151.88,335.29,164.95L335.29,164.95z M335.29,164.95"/>
	<rect x="354.22" y="136.56" class="st8" width="28.39" height="56.78"/>
	<path class="st7" d="M448.85,164.95c0,13.07-10.59,23.66-23.66,23.66c-13.07,0-23.66-10.59-23.66-23.66   c0-13.07,10.59-23.66,23.66-23.66C438.26,141.29,448.85,151.88,448.85,164.95L448.85,164.95z M448.85,164.95"/>
	<path class="st8" d="M335.29,250.12c0,13.07-10.59,23.66-23.66,23.66s-23.66-10.59-23.66-23.66c0-13.07,10.59-23.66,23.66-23.66   S335.29,237.05,335.29,250.12L335.29,250.12z M335.29,250.12"/>
	<path class="st8" d="M401.54,250.12c0,13.07-10.59,23.66-23.66,23.66c-13.07,0-23.66-10.59-23.66-23.66   c0-13.07,10.59-23.66,23.66-23.66C390.95,226.46,401.54,237.05,401.54,250.12L401.54,250.12z M401.54,250.12"/>
	<rect x="420.46" y="221.73" class="st8" width="28.39" height="56.78"/>
	<path class="st7" d="M355.17,335.29c0,13.07-10.6,23.66-23.66,23.66c-13.07,0-23.66-10.59-23.66-23.66   c0-13.07,10.59-23.66,23.66-23.66C344.57,311.63,355.17,322.22,355.17,335.29L355.17,335.29z M355.17,335.29"/>
	<rect x="369.36" y="306.9" class="st8" width="28.39" height="56.78"/>
	<path class="st8" d="M458.32,336.24c0,13.06-10.59,23.66-23.66,23.66c-13.07,0-23.66-10.6-23.66-23.66   c0-13.07,10.59-23.66,23.66-23.66C447.73,312.58,458.32,323.17,458.32,336.24L458.32,336.24z M458.32,336.24"/>
	<path class="st8" d="M344.76,411c0,13.07-10.59,23.66-23.66,23.66c-13.07,0-23.66-10.59-23.66-23.66s10.59-23.66,23.66-23.66   C334.16,387.34,344.76,397.93,344.76,411L344.76,411z M344.76,411"/>
	<rect x="363.68" y="382.61" class="st8" width="28.39" height="56.78"/>
	<path class="st7" d="M458.32,411c0,13.07-10.59,23.66-23.66,23.66c-13.07,0-23.66-10.59-23.66-23.66s10.59-23.66,23.66-23.66   C447.73,387.34,458.32,397.93,458.32,411L458.32,411z M458.32,411"/>
	<rect x="255.8" y="136.56" class="st8" width="13.25" height="56.78"/>
	<rect x="255.8" y="221.73" class="st8" width="13.25" height="56.78"/>
	<path class="st8" d="M265.26,311.63c-3.37,0-6.57,0.71-9.46,1.97v43.37c2.9,1.27,6.09,1.97,9.46,1.97   c13.06,0,23.66-10.59,23.66-23.66C288.92,322.22,278.33,311.63,265.26,311.63L265.26,311.63z M265.26,311.63"/>
	<rect x="255.8" y="382.61" class="st8" width="22.71" height="56.78"/>
	<rect x="255.8" y="13.54" class="st9" width="242.26" height="104.1"/>
</g>
</svg>