<?xml version="1.0" encoding="UTF-8"?>
<!-- Generator: Adobe Illustrator 24.1.2, SVG Export Plug-In . SVG Version: 6.00 Build 0)  -->
<svg version="1.1" id="Слой_1" xmlns="http://www.w3.org/2000/svg" xmlns:xlink="http://www.w3.org/1999/xlink" x="0px" y="0px" viewBox="0 0 512 512" style="enable-background:new 0 0 512 512;" xml:space="preserve">
<style type="text/css">
	.st0{fill:#e9a877;}
	.st1{fill:#e9773c;}
	.st2{fill:#783000;}
	.st3{fill:#EBECFA;}
	.st4{fill:#000000;}
	.st5{fill:#ff9a18;}
	.st6{fill:#e45f0a;}
</style>
<g>
	<path class="st0" d="M434.83,263.17H76.69v-23.69c0-39.18,31.88-71.06,71.06-71.06h216.02c39.18,0,71.06,31.88,71.06,71.06V263.17z    M434.83,263.17"/>
	<path class="st1" d="M434.83,239.48c0-39.18-31.88-71.06-71.06-71.06H255.76v94.75h179.07V239.48z M434.83,239.48"/>
	<path class="st0" d="M337.24,105.9H174.28V30.46l37.07-17l21.79,10.42l22.61-10.36l22.61,10.36l21.79-10.42l37.08,17V105.9z    M337.24,105.9"/>
	<path class="st2" d="M337.24,30.46l-37.08-17l-21.79,10.42l-22.61-10.36v92.37h81.48V30.46z M337.24,30.46"/>
	<path class="st3" d="M255.76,305.81c-67.4,0-122.22-54.83-122.22-122.22c0-67.39,54.82-122.22,122.22-122.22   c67.39,0,122.22,54.83,122.22,122.22C377.98,250.98,323.15,305.81,255.76,305.81L255.76,305.81z M255.76,305.81"/>
	<path class="st0" d="M255.76,61.37v244.44c67.39,0,122.22-54.83,122.22-122.22C377.98,116.19,323.15,61.37,255.76,61.37   L255.76,61.37z M255.76,61.37"/>
	<path class="st2" d="M446.05,498.14H65.48L44.23,234.75h423.05L446.05,498.14z M446.05,498.14"/>
	<path class="st2" d="M244.02,184.16l-20.1-20.1c17.56-17.56,46.12-17.56,63.68,0l-20.1,20.1   C261.03,177.69,250.49,177.69,244.02,184.16L244.02,184.16z M244.02,184.16"/>
	<path class="st4" d="M467.29,234.75H255.76v263.39h190.28L467.29,234.75z M467.29,234.75"/>
	<path class="st5" d="M255.76,413.82c-26.12,0-47.37-21.25-47.37-47.37c0-26.12,21.25-47.37,47.37-47.37   c26.12,0,47.37,21.25,47.37,47.37C303.13,392.56,281.88,413.82,255.76,413.82L255.76,413.82z M255.76,413.82"/>
	<path class="st6" d="M255.76,319.07v94.75c26.12,0,47.37-21.25,47.37-47.37C303.13,340.32,281.88,319.07,255.76,319.07   L255.76,319.07z M255.76,319.07"/>
	<path class="st2" d="M133.54,183.59c0,0.95,0.01,1.9,0.04,2.84h53.02v-28.42h-50.36C134.48,166.26,133.54,174.81,133.54,183.59   L133.54,183.59z M133.54,183.59"/>
	<path class="st4" d="M324.92,186.43h53.02c0.02-0.95,0.04-1.9,0.04-2.84c0-8.77-0.94-17.33-2.7-25.58h-50.35V186.43z    M324.92,186.43"/>
	<path class="st4" d="M255.76,150.9v28.41c4.25,0,8.5,1.62,11.74,4.85l20.1-20.1C278.82,155.29,267.29,150.9,255.76,150.9   L255.76,150.9z M255.76,150.9"/>
	<path class="st5" d="M210.28,210.11c-20.9,0-37.9-17-37.9-37.9c0-20.9,17-37.9,37.9-37.9c20.9,0,37.9,17,37.9,37.9   C248.18,193.11,231.18,210.11,210.28,210.11L210.28,210.11z M210.28,162.75c-5.22,0-9.48,4.25-9.48,9.47   c0,5.23,4.25,9.48,9.48,9.48s9.48-4.25,9.48-9.48C219.76,166.99,215.51,162.75,210.28,162.75L210.28,162.75z M210.28,162.75"/>
	<path class="st6" d="M301.24,210.11c-20.9,0-37.9-17-37.9-37.9c0-20.9,17-37.9,37.9-37.9c20.9,0,37.9,17,37.9,37.9   C339.13,193.11,322.13,210.11,301.24,210.11L301.24,210.11z M301.24,162.75c-5.22,0-9.47,4.25-9.47,9.47   c0,5.23,4.25,9.48,9.47,9.48c5.23,0,9.48-4.25,9.48-9.48C310.71,166.99,306.46,162.75,301.24,162.75L301.24,162.75z M301.24,162.75   "/>
</g>
</svg>