<?xml version="1.0" encoding="UTF-8"?>
<!-- Generator: Adobe Illustrator 24.1.2, SVG Export Plug-In . SVG Version: 6.00 Build 0)  -->
<svg version="1.1" id="Capa_1" xmlns="http://www.w3.org/2000/svg" xmlns:xlink="http://www.w3.org/1999/xlink" x="0px" y="0px" viewBox="0 0 512 512" style="enable-background:new 0 0 512 512;" xml:space="preserve">
<style type="text/css">
	.st0{fill:#e9a877;}
	.st1{fill:#e9773c;}
	.st2{fill:#EBECFA;}
	.st3{fill:#783000;}
	.st4{fill:#000000;}
	.st5{fill:#F3F5F9;}
	.st6{fill:#ff9a18;}
	.st7{fill:#e45f0a;}
</style>
<g>
	<path class="st0" d="M270,87.1V200c0,7.8-6.2,14-14,14c-7.8,0-14-6.2-14-14V87.1c0-7.8,6.2-14,14-14C263.8,73.1,270,79.2,270,87.1z   "/>
	<path class="st1" d="M424,73.1c-7.7,0-14,6.3-14,14v42h-42c-7.7,0-14,6.3-14,14V200c0,7.7,6.3,14,14,14s14-6.3,14-14v-42.9h42   c7.7,0,14-6.3,14-14v-56C438,79.3,431.7,73.1,424,73.1z"/>
	<path class="st0" d="M144,129.1h-42v-42c0-7.7-6.3-14-14-14s-14,6.3-14,14v56c0,7.7,6.3,14,14,14h42V200c0,7.7,6.3,14,14,14   s14-6.3,14-14v-56.9C158,135.3,151.7,129.1,144,129.1z"/>
	<path class="st1" d="M270,87.1V200c0,7.8-6.2,14-14,14V73.1C263.8,73.1,270,79.2,270,87.1z"/>
	<path class="st2" d="M438,298v182.9c0,7.8-6.2,14-14,14H88c-7.8,0-14-6.2-14-14V298l28-28h308L438,298z"/>
	<path class="st0" d="M438,298v182.9c0,7.8-6.2,14-14,14H256V270h154L438,298z"/>
	<path class="st3" d="M438,200v98H74v-98c0-7.8,6.2-14,14-14h336C431.8,186,438,192.2,438,200z"/>
	<path class="st4" d="M438,200v98H256V186h168C431.8,186,438,192.2,438,200z"/>
	<g>
		<circle class="st5" cx="144" cy="242" r="14"/>
		<circle class="st5" cx="200" cy="242" r="14"/>
		<circle class="st5" cx="256" cy="242" r="14"/>
	</g>
	<path class="st0" d="M270,242c0,7.8-6.2,14-14,14v-28C263.8,228,270,234.2,270,242z"/>
	<path class="st0" d="M256,17.1c-23.2,0-42,18.8-42,42c0,23.2,18.8,42,42,42s42-18.8,42-42C298,35.8,279.2,17.1,256,17.1z"/>
	<path class="st0" d="M88,101.1c-23.2,0-42-18.8-42-42s18.8-42,42-42s42,18.8,42,42S111.2,101.1,88,101.1z"/>
	<circle class="st1" cx="88" cy="59.1" r="14"/>
	<path class="st1" d="M424,101.1c-23.2,0-42-18.8-42-42s18.8-42,42-42s42,18.8,42,42S447.2,101.1,424,101.1z"/>
	<circle class="st3" cx="424" cy="59.1" r="14"/>
	<path class="st6" d="M368,438h-84c-7.7,0-14-6.3-14-14v-56c0-7.7,6.3-14,14-14h84c7.7,0,14,6.3,14,14v56   C382,431.7,375.7,438,368,438z"/>
	<path class="st7" d="M228,382h-84c-7.7,0-14-6.3-14-14s6.3-14,14-14h84c7.7,0,14,6.3,14,14S235.7,382,228,382z"/>
	<path class="st7" d="M228,438h-84c-7.7,0-14-6.3-14-14s6.3-14,14-14h84c7.7,0,14,6.3,14,14S235.7,438,228,438z"/>
	<path class="st1" d="M298,59.1c0,23.2-18.8,42-42,42v-84C279.2,17.1,298,35.8,298,59.1z"/>
	<circle class="st1" cx="256" cy="59.1" r="14"/>
	<path class="st3" d="M270,59.1c0-7.7-6.3-14-14-14v28C263.7,73.1,270,66.8,270,59.1z"/>
</g>
</svg>