<svg xmlns="http://www.w3.org/2000/svg" viewBox="0 0 101.07 140"><defs><style>.cls-1{fill:#fff;}.cls-2,.cls-3{fill:#c4161c;}.cls-3,.cls-4{fill-rule:evenodd;}.cls-4{fill:#231f20;}</style></defs><title>Монтажная область 51</title><g id="cards"><path class="cls-1" d="M98,0S68.82.79,50.53.79,3,0,3,0A2.94,2.94,0,0,0,0,3V135.9A3.17,3.17,0,0,0,3,139s29.21,1,47.5,1S98,139,98,139a3.17,3.17,0,0,0,3-3.13V3A2.94,2.94,0,0,0,98,0Z"/><polygon class="cls-2" points="10.26 16.91 5.97 23.58 10.26 30.25 14.55 23.58 10.26 16.91"/><path class="cls-2" d="M11.58,12.17,9.72,8.81,8.65,10.07v1.87Q8.72,13,9.07,13l.26,0a.57.57,0,0,1,.22,0,.46.46,0,0,1,.34.14.47.47,0,0,1,.14.35.59.59,0,0,1-.16.42.52.52,0,0,1-.39.17,5.53,5.53,0,0,1-.65-.1,3.58,3.58,0,0,0-.67-.07,3.9,3.9,0,0,0-.68.09,3.92,3.92,0,0,1-.68.09.52.52,0,0,1-.39-.17.58.58,0,0,1-.16-.42q0-.49.46-.49a.51.51,0,0,1,.22,0l.26,0q.28,0,.35-.43a17.43,17.43,0,0,0,.07-2.1V7.75a17.64,17.64,0,0,0-.07-2.11q-.07-.43-.35-.43l-.23,0a1,1,0,0,1-.25,0q-.46,0-.46-.5a.5.5,0,0,1,.57-.57,4,4,0,0,1,.67.07,4.44,4.44,0,0,0,.74.09,2.72,2.72,0,0,0,.57-.06,3.83,3.83,0,0,1,.7-.1.52.52,0,0,1,.39.17.57.57,0,0,1,.16.4.5.5,0,0,1-.14.35.45.45,0,0,1-.34.15l-.2,0a1.08,1.08,0,0,0-.28,0q-.35,0-.42,1.1V8.66l1.81-1.95a4.58,4.58,0,0,0,1-1.29q0-.13-.16-.13H11q-.45,0-.45-.55T11,4.22a2.09,2.09,0,0,1,.44.06,2.9,2.9,0,0,0,.45.07,3.1,3.1,0,0,0,.46,0,4.25,4.25,0,0,0,.68-.08,4.25,4.25,0,0,1,.67-.08.47.47,0,0,1,.54.54.56.56,0,0,1-.14.38.44.44,0,0,1-.34.16.49.49,0,0,1-.22,0l-.23,0q-.23,0-.62.42l-.49.54L10.46,8,13,12.48a2,2,0,0,0,.31.44.44.44,0,0,0,.3.09.81.81,0,0,0,.25,0l.28,0q.45,0,.45.52t-.52.55a4.15,4.15,0,0,1-.7-.09,4.18,4.18,0,0,0-.71-.09,4,4,0,0,0-.69.09,4,4,0,0,1-.69.09.48.48,0,0,1-.54-.54q0-.53.51-.53h.39q.19,0,.19-.17a.71.71,0,0,0-.1-.36Z"/><polygon class="cls-2" points="90.6 122.04 94.89 115.37 90.6 108.7 86.31 115.37 90.6 122.04"/><path class="cls-2" d="M89.28,126.78l1.86,3.37,1.07-1.26V127q-.07-1.09-.42-1.09l-.26,0a.57.57,0,0,1-.22,0,.46.46,0,0,1-.34-.14.47.47,0,0,1-.14-.35.59.59,0,0,1,.16-.42.52.52,0,0,1,.39-.17,5.54,5.54,0,0,1,.65.1,3.59,3.59,0,0,0,.67.07,3.9,3.9,0,0,0,.68-.09,3.92,3.92,0,0,1,.68-.09.52.52,0,0,1,.39.17.58.58,0,0,1,.16.42q0,.49-.46.49a.51.51,0,0,1-.22,0l-.26,0q-.28,0-.35.43a17.43,17.43,0,0,0-.07,2.1v2.76a17.64,17.64,0,0,0,.07,2.11q.07.43.35.43l.23,0a1,1,0,0,1,.25,0q.46,0,.46.5a.5.5,0,0,1-.57.57,4,4,0,0,1-.67-.07,4.45,4.45,0,0,0-.74-.09,2.71,2.71,0,0,0-.57.06,3.84,3.84,0,0,1-.7.1.52.52,0,0,1-.39-.17.57.57,0,0,1-.16-.4.5.5,0,0,1,.14-.35.45.45,0,0,1,.34-.15l.2,0a1.08,1.08,0,0,0,.28,0q.35,0,.42-1.1v-2.35l-1.81,1.95a4.58,4.58,0,0,0-1,1.29c0,.09.05.13.16.13h.33q.45,0,.45.55t-.49.52a2.09,2.09,0,0,1-.44-.06,2.9,2.9,0,0,0-.45-.07,3.09,3.09,0,0,0-.46,0,4.25,4.25,0,0,0-.68.08,4.24,4.24,0,0,1-.67.08.47.47,0,0,1-.54-.54.56.56,0,0,1,.14-.38.44.44,0,0,1,.34-.16.49.49,0,0,1,.22,0l.23,0q.23,0,.62-.42l.49-.54L90.4,131l-2.55-4.48a2,2,0,0,0-.31-.44.44.44,0,0,0-.3-.09.81.81,0,0,0-.25,0l-.28,0q-.45,0-.45-.52t.52-.55a4.15,4.15,0,0,1,.7.09,4.18,4.18,0,0,0,.71.09,4,4,0,0,0,.69-.09,4,4,0,0,1,.69-.09.48.48,0,0,1,.54.54q0,.53-.51.53h-.39q-.19,0-.19.17a.71.71,0,0,0,.1.36Z"/><path class="cls-3" d="M36.78,13.33h4A12,12,0,0,1,36.78,13.33Z"/><path class="cls-3" d="M40.86,13.33H66.53C58.29,13.55,49.11,13.55,40.86,13.33Z"/><path class="cls-4" d="M55.08,26.36c-1.54-.82-3.92-1.48-5.79-.53C50.07,23.47,54.37,24.82,55.08,26.36Z"/><path class="cls-4" d="M55,27.42c-1.14-.33-4.27-2.13-5.27,0,1.71-1.06,4.1.12,5.66,1.05-1.67.19-2.81,1.55-4.87.92.28.91,1.31,1.06,1.71,1.84-1.52-.32-1.83-2.11-3.29-2.11.55-.77-.13-1.07-.26-1.84.24,0,.28.16.53.13C50.18,25.31,53.66,26,55,27.42Zm-3.82,1.84c1.08.3,1.95-.76,1.32-1.32,0,1.56-1.73.78-1.84-.13A1.59,1.59,0,0,0,51.13,29.26ZM50.61,29c-.08-.36-.14-.74-.66-.66C49.92,28.81,50.14,29,50.61,29Zm2.24,0c.37,0,.56-.23.53-.66H53C53,28.66,52.74,28.63,52.84,29Z"/><path class="cls-4" d="M49.42,32.16a.92.92,0,0,1,.26,1.18c-.85.9-1.85-.42-3,.13-.09-.58.07-.9.4-1.05,1-.06,1.16.68,1.84.92A.75.75,0,0,0,49.42,32.16Z"/><path class="cls-4" d="M50.47,35.45c0,.43.22.66.13,1.19-.46,0-.5-.47-.92-.53-1.64.72-2.85-.22-4.34.26a1.46,1.46,0,0,1,.26-1.05c1.21.56,3-.5,4.08.39C50.18,35.85,50.06,35.38,50.47,35.45Z"/><path class="cls-4" d="M46.79,37c.25-.17,1.39.19,1.84-.13C48.33,37.61,47.3,37.41,46.79,37Z"/><path class="cls-3" d="M69.83,37.82c.73.9,1.16,2.08,2.11,2.77A4,4,0,0,0,74,38.21c1.08.93,2,2.08,3.69,2.37-3.57.29-7.7,0-11.32.26C67.68,40,69.08,39.22,69.83,37.82Z"/><path class="cls-3" d="M48,39.27h.13c.8,2.53,1.8,4.87,5.13,4.87.13.41-.36.84-.66,1.19-2.27,2.6-5.06,5.64-7.5,8.16a60.63,60.63,0,0,0-4-10.66,8.39,8.39,0,0,0,4,.26C46,42.85,48.16,40.8,48,39.27Z"/><path class="cls-4" d="M36.13,41a.71.71,0,0,1-.66.79C34.4,41.26,35.76,39.69,36.13,41Z"/><path class="cls-4" d="M38.36,41.37v.79c-.2.07-.33.19-.53.26C36.59,42.3,37.47,40.36,38.36,41.37Z"/><path class="cls-4" d="M36.39,42.29c.87.88,2,1.51,2.63,2.63A4.36,4.36,0,0,0,37.57,46,16.87,16.87,0,0,1,36.39,42.29Z"/><path class="cls-4" d="M62.72,42.82c.15.54,0,.81-.4,1.05C61.19,43.9,61.77,42.11,62.72,42.82Z"/><path class="cls-4" d="M36,43.08c0,.53,0,1-.4,1.05C34.56,44.08,35,42.41,36,43.08Z"/><path class="cls-4" d="M60.74,44.14c0,.53,0,1-.4,1.05C58.95,45.23,59.79,43.08,60.74,44.14Z"/><path class="cls-4" d="M61.8,44.66a23.74,23.74,0,0,0-.26,3.69c-.6.28-1.21-.42-1.84-.53A15.73,15.73,0,0,1,61.8,44.66Z"/><path class="cls-4" d="M62.45,46.11c-.81-1.46,1.56-1.42.79,0A.93.93,0,0,1,62.45,46.11Z"/><path class="cls-4" d="M38.89,47.16c-1.86-1.4,1.83-1.43,0,0Z"/><path class="cls-4" d="M41.39,46.9c.34.47.3,1.23-.39,1.32C40.13,48.21,40.32,46.5,41.39,46.9Z"/><path class="cls-4" d="M39.55,48a13.51,13.51,0,0,1,2.24,2.9,5.21,5.21,0,0,0-1.58.79A14.5,14.5,0,0,1,39.55,48Z"/><path class="cls-4" d="M39,48.61c0,.47-.09.79-.39.92C37.2,49.54,38.43,47.35,39,48.61Z"/><path class="cls-3" d="M36.13,49c1.14,1.53,1.76,3.59,2.63,5.4-1.58.18-3.08.43-3.69,1.58-.32-.42-1.07,0-1.45-.13-1.33-.36-2.77-2.46-2.5-3.55S35.2,49.95,36.13,49Z"/><path class="cls-4" d="M59.82,49.53c0,.57,0,1.06-.53,1.05C58.27,50.47,58.94,48.82,59.82,49.53Z"/><path class="cls-4" d="M57.85,50.85c0,.38.07.86-.13,1.05h-.79C56.44,51.2,57.08,50.28,57.85,50.85Z"/><path class="cls-3" d="M69.83,51.11c1.55.29,2,1.67,3,2.5V70.07H69.43c-.76,1.3-1.32,2.8-2.9,3.29.22-.93-.28-2.44,0-3.55A11.69,11.69,0,0,1,68,67.57,20.15,20.15,0,0,0,69.83,51.11Z"/><path class="cls-4" d="M58.77,51.38c.36,1.15-.19,2.53,0,3.95a6,6,0,0,0-1.84-.66C57.52,53.55,58.15,52.47,58.77,51.38Z"/><path class="cls-4" d="M40.73,52.69c.19-2.69,2,1,0,0Z"/><path class="cls-4" d="M60.48,51.77c0,.57,0,1.06-.53,1.05C58.95,52.73,59.61,51.07,60.48,51.77Z"/><path class="cls-4" d="M43.76,53.22a1.23,1.23,0,0,1-.13,1.05C42,54.62,42.84,52.15,43.76,53.22Z"/><path class="cls-3" d="M29.15,53.48c.43.13,0,1.27,0,1.58-1,.34-1.94.7-2.9,1.05A28.82,28.82,0,0,1,29.15,53.48Z"/><path class="cls-3" d="M54,55.46c-.07,2.48-.77,5.47-.92,8.29H47.05C48.85,61,51.81,58.25,54,55.46Z"/><path class="cls-4" d="M57.71,57.56a1,1,0,0,1-.92-.26C56.5,55.76,58.52,56.5,57.71,57.56Z"/><path class="cls-3" d="M65.48,56.64a1.68,1.68,0,0,1,0,1.45Z"/><path class="cls-4" d="M56.14,58.48c-.08.4-.21.76-.66.79C54.1,58.95,55.7,57.07,56.14,58.48Z"/><path class="cls-4" d="M56.92,58.48a25.34,25.34,0,0,1,.4,3.95,4.68,4.68,0,0,0-1.84-.4C55.86,60.76,56.47,59.7,56.92,58.48Z"/><path class="cls-4" d="M58.64,58.62c.19.43.24,1.22-.39,1.19C57.4,59.81,57.55,58.19,58.64,58.62Z"/><path class="cls-4" d="M75.62,61.25a11.47,11.47,0,0,1,2.76.13v1.05a10.38,10.38,0,0,1-2.63.13C75.52,62.32,75.65,61.7,75.62,61.25Z"/><path class="cls-3" d="M33.23,62.3a13.85,13.85,0,0,1,.13,3.55C33.09,67,31.21,69,30.6,70.33c-1.72,3.81-2,9.3-.53,14.35-1.68-.63-3.16-2.11-3.16-3.82,0-4.67.08-10.29.13-15.27h3.42C31.2,64.31,31.88,63,33.23,62.3Z"/><path class="cls-4" d="M56.14,64.8c-1.86-1.4,1.83-1.43,0,0Z"/><path class="cls-4" d="M78.25,63.49v1.18H75.62C75.11,62.89,77.13,63.63,78.25,63.49Z"/><path class="cls-4" d="M44.42,64.8a.68.68,0,0,1-1.18.66A.68.68,0,0,1,44.42,64.8Z"/><path class="cls-4" d="M55.08,65.73c0,.53,0,1-.39,1.05C53.25,66.86,54.15,64.65,55.08,65.73Z"/><path class="cls-4" d="M57.32,66.78c-.76,0-.6-1.16-.13-1.32C58,65.34,58.13,66.81,57.32,66.78Z"/><path class="cls-4" d="M55.87,65.73a12.2,12.2,0,0,1,.92,3.82A10,10,0,0,0,55,69.41C55.23,68.15,55.65,67,55.87,65.73Z"/><path class="cls-4" d="M78.38,66v.92a11.42,11.42,0,0,1-2.76.13C75,65.25,77.52,65.89,78.38,66Z"/><path class="cls-4" d="M44.68,66.25c.23,1.24-.62,2.54-.79,3.82A36.72,36.72,0,0,1,43,66.25,8.31,8.31,0,0,0,44.68,66.25Z"/><path class="cls-4" d="M21.64,66.65h2.5v.92h-2.5Z"/><path class="cls-4" d="M78.25,68.1v1.05h-2.5C74.94,67.66,77.21,68.16,78.25,68.1Z"/><path class="cls-4" d="M21.51,68.75h2.77v1.05H21.51Z"/><path class="cls-4" d="M42.84,69c.3.33.36,1-.13,1.18A.62.62,0,1,1,42.84,69Z"/><path class="cls-4" d="M45.87,69.28c0,.53,0,1-.4,1.05C44.09,70.39,44.93,68.23,45.87,69.28Z"/><path class="cls-3" d="M39,69.41a1.41,1.41,0,0,1,1.32,0Z"/><path class="cls-3" d="M48.89,69.41c.3.44,0,1.45.13,2.11C48.72,71.08,49,70.07,48.89,69.41Z"/><path class="cls-4" d="M56,71.25c-1.16-.1-.21-2.09.53-1.05C56.57,70.77,56.54,71.26,56,71.25Z"/><path class="cls-4" d="M44,71a.89.89,0,0,1,0,1.18C42.92,72.36,42.85,70.78,44,71Z"/><path class="cls-4" d="M21.64,71.12h2.63v1.05H21.64Z"/><path class="cls-3" d="M46.66,72h6.19a73.85,73.85,0,0,1-7.24,8.16A52.7,52.7,0,0,0,46.66,72Z"/><path class="cls-4" d="M24.28,73.23v1.18H21.51C21,72.58,23.13,73.4,24.28,73.23Z"/><path class="cls-4" d="M42.58,73.36c.84.06.89.32,1.84.39-.62,1.09-.84,2.58-1.71,3.42C42.8,75.77,42.49,74.76,42.58,73.36Z"/><path class="cls-4" d="M41.92,76c.3.33.36,1-.13,1.19A.62.62,0,1,1,41.92,76Z"/><path class="cls-4" d="M44.95,76.78a.88.88,0,0,1-.53,1.05C43.13,77.74,44.06,75.74,44.95,76.78Z"/><path class="cls-3" d="M30.33,76.78V79A3.9,3.9,0,0,1,30.33,76.78Z"/><path class="cls-3" d="M29.67,77v1.32A1.4,1.4,0,0,1,29.67,77Z"/><path class="cls-4" d="M43.1,78.89a.93.93,0,0,0-.26.4h-.66c-.07-.2-.19-.33-.26-.53C41.93,77.81,43.17,78,43.1,78.89Z"/><path class="cls-3" d="M73.51,79.55c-.36,1-2,1.89-2.89,2.76-.27-.28.16-1,0-1.58A16.23,16.23,0,0,0,73.51,79.55Z"/><path class="cls-3" d="M68.77,83.5c-1.37,1.4-3.36,2.16-5,3.29a19.78,19.78,0,0,1-2.63-5.66c1.52.24,3.15-.28,3.69-1.45A4,4,0,0,1,68.77,83.5Z"/><path class="cls-4" d="M42.84,81a26.13,26.13,0,0,1-1.71,3.29c-.31-1,0-2.5-.13-3.69C41.64,80.45,41.88,81,42.84,81Z"/><path class="cls-4" d="M57.19,81.79c.08.47-.15.64-.26.92a1,1,0,0,1-.92-.26C55.74,81.42,56.84,81.1,57.19,81.79Z"/><path class="cls-3" d="M51.79,96.53h-.13c-.69-2.69-1.78-5-5.27-4.87,2.58-3.3,5.59-6.17,8.16-9.48,1.33,3.59,2.36,7.47,4.21,10.53-1.07.14-2.93-.4-4.21.13-.5.21-.55.61-1.19,1.18S51.66,95,51.79,96.53Z"/><path class="cls-4" d="M58.9,82.84a.89.89,0,0,1,0,1.19h-.66C57.88,83.53,58,82.71,58.9,82.84Z"/><path class="cls-4" d="M40.34,83.1c0,.57,0,1.06-.53,1.05C38.79,84,39.46,82.39,40.34,83.1Z"/><path class="cls-4" d="M42.18,85.08c-.11-.11-.08-.36-.26-.39C41.9,82.43,44.39,85.19,42.18,85.08Z"/><path class="cls-4" d="M59.56,84.16c.61.93.52,2.55.79,3.82a17.11,17.11,0,0,1-2.24-3A6.28,6.28,0,0,0,59.56,84.16Z"/><path class="cls-4" d="M40.86,85.21a1.26,1.26,0,0,1,0,1.19h-.66C39.79,86,39.9,85,40.86,85.21Z"/><path class="cls-4" d="M61.66,87.45H61C60,86.07,62.73,86,61.66,87.45Z"/><path class="cls-4" d="M38.36,87.18c.59.28,1.21.55,1.84.79-.66,1-1.36,2.06-2,3.16C37.92,90,38.42,88.52,38.36,87.18Z"/><path class="cls-4" d="M59.43,88c.08.47-.15.64-.26.92a1,1,0,0,1-.92-.26C58,87.61,59.08,87.29,59.43,88Z"/><path class="cls-4" d="M61.53,89.55a1,1,0,0,1-.92.26C59.83,88.72,61.79,88.05,61.53,89.55Z"/><path class="cls-4" d="M36.65,90.74c-.82-1.46,1.55-1.42.79,0A.92.92,0,0,1,36.65,90.74Z"/><path class="cls-4" d="M62.19,89.82c.76.9.82,2.51,1.32,3.69a11,11,0,0,1-2.63-2.63A3.45,3.45,0,0,0,62.19,89.82Z"/><path class="cls-4" d="M39.94,91.92a.88.88,0,0,1-.92-.39C38.92,89.9,41,90.91,39.94,91.92Z"/><path class="cls-4" d="M64.69,92.84H64C63,91.6,65.52,91.24,64.69,92.84Z"/><path class="cls-4" d="M38,93.11a1,1,0,0,1-.92-.26C36.77,91.32,38.75,92,38,93.11Z"/><path class="cls-4" d="M61.66,94.69c-.11-.11-.08-.36-.26-.39C61.44,92,63.87,94.77,61.66,94.69Z"/><path class="cls-4" d="M63.9,95.21c-.81-1.46,1.56-1.42.79,0A.92.92,0,0,1,63.9,95.21Z"/><path class="cls-3" d="M33.36,95.08a11.28,11.28,0,0,0-3.42,2.76c-.67-.9-1-2.11-2.11-2.63A40.48,40.48,0,0,1,33.36,95.08Z"/><path class="cls-3" d="M22.17,95.21a41.09,41.09,0,0,1,5.27-.13c.24.53-1.41,1.39-1.58,2.37C24.64,96.69,23.92,95.44,22.17,95.21Z"/><path class="cls-4" d="M53.11,98.77c-.38.23-1.26-.41-1.71.13C51.11,98.19,52.75,98.36,53.11,98.77Z"/><path class="cls-4" d="M49.16,99.16c1.13,1.2,2.86-.5,4.08.53.55.07.74-.23,1.18-.26.19.19,0,.64-.13.92-1.81-.1-3,0-4.87-.13A3.36,3.36,0,0,1,49.16,99.16Z"/><path class="cls-4" d="M53.24,102.32c.08.47-.15.64-.26.92-1.22.25-1.23-.7-2.11-.79-.54,0-.57.49-.53,1.05C49.32,101.46,52.11,102.42,53.24,102.32Z"/><path class="cls-4" d="M47.58,104.69c1.48-.3,1.65,1.85,3.29,1.84a1.94,1.94,0,0,0,.39,1.84c-.11.39-.33-.17-.66,0-.91,2.07-4.48,1.27-5.66,0,1.2.25,4.14,2.12,5.13,0-1.69.89-4.38-.11-5.53-1.32,1.76.31,2.62-1.49,4.74-.79A3.72,3.72,0,0,0,47.58,104.69Zm-.4,3c.48-.13.24-1,.92-.92s.61.88,1.19,1.05C49.52,106.19,47,105.9,47.18,107.72Zm-.79-.53c.3.31.7,0,.66-.39C46.64,106.74,46.51,107,46.39,107.19Zm3.55.26q0-.7-.66-.66C49.36,107.16,49.43,107.54,49.95,107.46Z"/><path class="cls-4" d="M44.81,109.43a7.38,7.38,0,0,0,5.66.53C50.11,112.06,45.38,111,44.81,109.43Z"/><path class="cls-4" d="M19.8,12.15H80.23V123.52H19.67v-111C19.66,12.35,19.65,12.17,19.8,12.15Zm1.05,1.18V49.4C25.66,45.3,31,40.61,38.36,38.61c-.35-1.64-.67-4.43,1.05-4.48.8,0,1.07.49,1.45,1.19a14.2,14.2,0,0,0,1.05-3.69c-2.28,1.61-3.76-2-1.84-2.76.64-.25.93.37,1.32,0a13.74,13.74,0,0,0,.39-5.27A11.79,11.79,0,0,0,40.21,21c-1.68-2.59-3.58-5.29-5-7.64Zm15.93,0c-.15,0-.21.15-.26.26a6.74,6.74,0,0,0,3,3c1.85-.65,2,2.31.53,2.63a2.29,2.29,0,0,1,.39.53c1,.15.92-.75,1.58-.92a1.12,1.12,0,0,0,1.71-.66c-1.23.42-1.88-.69-1.58-1.84a2.34,2.34,0,0,1,1.18-.66c-.33-1.81,2.62-2,2.24,0,1.75,0,1.42,2.87-.26,2.63.6.89,1.88.38,2.5-.13.47.84,2.45.67,2.5-.39-1.93.37-1.64-2.93.13-2.5-.37-1.91,2.71-1.66,2.11.26,1.56-.12,1.43,3-.4,2.5,0,1.1,1.78.85,2.5.53.54.89,2.34.81,2.63-.26-2,.51-1.94-3,0-2.5-.05-1.57,1.62-1.82,2.11-.53.05.14,0,.69.13.92.28.44.78.24.92.79.32,1.21-.52,1.72-1.45,1.71,0,.76,1.26.81,1.71.39.21,1,2.16,1.44,2.5.26-1.87.38-1.89-2.19-.66-2.5.58-.14.65.22,1.05.26a1,1,0,0,1,1.58-.66c.64-1,1.38-2,2-3a.86.86,0,0,1-.66-.13H36.78Zm26.72,5c-.08.28-.45.72,0,.79.12-.36.4-.56.53-.92C63.79,18.17,63.74,18.35,63.51,18.33Zm5.13-5c-1.86,2.53-3.67,5.11-5.4,7.77h3.82c.1-1.59.18-3,1.45-3.16,1.66-.25,2,1.27,2.11,2.77.59-.58,1.8.26,2.63-.13a15.42,15.42,0,0,1,3.16,2.11,3.3,3.3,0,0,1,1.32-.13c2,.88,1.22,5-1.58,3.95a7.43,7.43,0,0,1-.92,2.37c0,1.55,1.83,3.06.53,4.34a30.41,30.41,0,0,0,2.11,5.92c.29.58.39,1.33.92,1.58.61-8.71.09-18.43.26-27.38Zm-17,4.21c0-.45.5-.66.13-1.32A1.12,1.12,0,0,0,51,16.1c-.5.69,0,1-.13,1.58-.63,2.73-5.41,3.53-6.06.13.13-.45.41-.82.13-1.32-.31,0-.39-.23-.79-.13-.57.59.06,1.11,0,1.71-.18,1.67-1.44,2.32-3.29,2.5,1.26,1.56,3.38-.06,3.69-1.45,1.43,3.33,5.71,2.06,6.71-.53.48,3.45,6,3.46,6.58.13.38,1.61,3,4.34,4.48,2-3.1.41-4.25-1.83-3.69-3.95-.32.05-.29-.24-.66-.13,0,.1-.11.15-.26.13C58.52,21,51.75,21.62,51.66,17.54Zm16.59.92c-1.49,2.65,0,6.7-.66,10.14a1.59,1.59,0,0,0-1.45.53c-.36,1.6,1.25,1.7,2,1.19,1.62-1.15.08-7.54.92-9.35-.18-.3-1,0-.79-.66.34-.33,1.15.28,1.58-.13A1.22,1.22,0,0,0,68.25,18.47Zm1.05,3.95c1,.27,1.65-1.32.79-1.71C69.23,20.68,69.55,21.83,69.3,22.41ZM71,23.6a1,1,0,0,1,1.45.26c.17-1-.3-2,0-2.76C70.74,19.86,70.85,21.94,71,23.6Zm1.84.53c.48-.12.7.23.92,0a14.25,14.25,0,0,0-.13-3c-.41.06-.3-.4-.79-.26A7.52,7.52,0,0,0,72.85,24.13Zm1.18.26c.4-.1.48.13.79.13A12.14,12.14,0,0,1,75,22c-.22-.26-.4-.56-.79-.66C73.88,22.29,74.33,23.33,74,24.39ZM62.59,22.15H63.9v-.66C63.18,21.43,62.55,21.46,62.59,22.15Zm1.84,4.34c.87-.27,2.92.64,2.76-.66-.49-.34-1.73.06-2.24-.26.09-1-.17-2.37.13-3.16.6-.15,1.81.31,2-.26v-.53c-.62-.31-1.8,0-2.63-.13Zm4.87-3.69c-.08,1.71.12,3.67,0,5,1.35,2,7.2,1.8,6.58-1.71-.82.23-1.8,1-2.9.53.43-.05.85-.11.92-.53-.33-.31-1.45-.13-1.84-.13.22.1.22,1.09,0,1.19a6.75,6.75,0,0,0-1.84-2.37,2.28,2.28,0,0,0,.26-2.63C70.3,22.59,69.79,22.68,69.3,22.81Zm5.79,1.58c.47-.08.64.15.92.26.34-.84.53-2.48-.79-2.37C74.94,23,75.33,23.82,75.09,24.39ZM61.93,22.94c.36.13,1.83.38,2-.13C63.72,22.33,62,22.41,61.93,22.94ZM48,39.27c.19,1.53-1.94,3.58-2.9,3.82a8.39,8.39,0,0,1-4-.26,60.63,60.63,0,0,1,4,10.66c2.44-2.52,5.23-5.56,7.5-8.16.3-.34.78-.78.66-1.19-3.34,0-4.33-2.34-5.13-4.87,0-.21,0-.46.26-.4.76,2.64,2,5.45,5.66,4.74,1.71-.75,1.62-4.06-.4-3.69a1.56,1.56,0,0,0-.53,2.5c.88.08,1.38-.2,1.32-1.05,0-.41-.77-.11-.92-.39.07-.46.76-.21,1.05-.13.14.59.38,1.12,0,1.58-1.77,2.12-6.07-1.67-5.4-3.42.94,1.29,1.23,3.24,3.29,3.42.06-.42-.24-.46-.13-.92a2.73,2.73,0,0,1-2.11-2.76c.71.78.77,2.21,2.11,2.37.17-.88-1.58-1.54-1.05-2.76.47.62.85,2.56,1.71,1.58-.27-.66-1.34-1.2-1.05-2,.69.42.91,1.82,1.84,1.58.1-.5-1.2-1.43-.79-2.24.61.84,1.11,2.49,2.11,2.5-.12-1.27-1.95-2.14-1.32-3.29.41.69.48,1.71,1.32,2,.33-1-1.09-1.91-.79-2.9.72.38.45,1.75,1.32,2,.51-1.19-.91-2.23-.79-3,1,.42.82,2,1.58,2.63.49-1.58-.82-3.09-.79-4.21,1.05.84.94,2.83,1.45,4.21,1.16-2.14-1.15-4.44-.92-5.66a10,10,0,0,1,1.58,3.82c.15,1.33-.4,2.71.39,3.29.95-6.25-3-9.78-3.42-15.53-4-.31-9.22-.61-12.64.39-.09.75.22,1.09.13,1.84.77-.37,1.07-.77,2-.79,4.32-.1,2.06,6,1.58,8.82.49.44,1.39.46,1.58,1.19-2.1-.25-2.16-2.22-1.32-3.95-.56.05-.56.67-1.18.66.22-.7,1.32-1.23,1.05-2-.86,1.1-2.46.18-3.42-.13-.53,2.73.82,5.15,1.05,6.71.41,2.74-1.2,4.26-3.82,4.08a2.68,2.68,0,0,0,2.37.66c1.35-.33,1.52-2.34,2.37-3a3.44,3.44,0,0,1-4.34,3.29c2.4,2.58,4.47-.66,5-2.5,0,2.09-1.7,4.63-4.48,3.55,2.5,2.51,5-.56,5.27-3a4.15,4.15,0,0,1-.4,2.37c-.31.69-1.22,1.21-.92,1.58.64-.25,1.08-.3,1.45-.79.63-.83.15-2.3.92-3a5.45,5.45,0,0,1-.26,2.24c1.08-.15.58-1.88,1.32-2.37Zm28.7-16.19c.1.8-.29,1.12-.26,1.84,1,.45,1-.81,1.05-1.45a1.86,1.86,0,0,1,.79.53c0-.48-.37-.59-.53-.92Zm1.58,1.18c.39,1.6-1.59,1.39-2,1.45C77.1,27,79,25,78.25,24.26Zm-20,14.88c-.51.15-.75.57-1.32.66-.36-.21-.83-.31-.79-.92.51,0,.63.86,1.18.4,1-1.82-1.54-2.35-2-.79-.87,3.16,3,2.77,3.82,1.18,1.62-3.08-.81-6.88-1.71-9.61-.81-2.44-1-4.86-2-6.85h-.39C55.48,28.92,59.93,33,58.24,39.13Zm8.69-15.8c-3.52-.2.89,3.69,0,0ZM57.85,30c1.16,3.48,3.41,7.71.92,10.79,1.7-.23,2.1-2,2-3.69-.27-3.87-2.89-8.4-3.69-12.11-.12-.55.12-1.55-.66-1.71h-.26C56.58,25.26,57.05,27.66,57.85,30Zm3.29-5.92H63.9v-.79C62.75,23.37,61.26,23.06,61.14,24.13Zm-3.82-.26c.38,5.8,5.73,11.84,2.9,17,3.91-1.69.61-7.57-.53-10.4-1-2.51-1.43-5-2.11-7h-.39C57.21,23.62,57.17,23.84,57.32,23.86Zm4.21,17c1.5-.35,1.72-2.37,1.58-3.69-.22-2.09-1.58-4.35-2.37-6.58-.86-2.43-1.23-4.78-2.11-6.85a.61.61,0,0,1-.39-.13C58.25,29.34,64.42,35.34,61.53,40.84ZM71.8,25.31a1.28,1.28,0,0,0,.13-1.58C70.81,23.5,71.07,25.25,71.8,25.31ZM61.27,31.1c1.3,3.39,3.29,6.48,1.45,9.74,1.51-.45,1.84-3.33,1.32-5C62.92,32.29,60,28,59.69,24c-.17,0-.18-.17-.4-.13A54.26,54.26,0,0,0,61.27,31.1Zm.79-.39c1.33,3.32,3.84,6.22,1.71,10.14,1.66-.27,1.88-2.91,1.45-4.48-1.08-4-4.38-8.06-4.74-12.24-.17,0-.18-.17-.4-.13A42,42,0,0,0,62.06,30.71ZM72.2,25.44a1.16,1.16,0,0,0,1.05.26c-.1-.59.17-.79.13-1.32C72.47,24.22,72.27,24.77,72.2,25.44Zm-11.06-.13H63.9v-.79H61C60.91,24.92,61.23,24.91,61.14,25.31Zm12.51.39c.61.31,1.26,0,1.05-.92C74,24.41,73.39,24.76,73.64,25.71ZM75,25.57c.33.34.44.08.92.26a2.46,2.46,0,0,0-.13-1.05C75.12,24.68,75,25.06,75,25.57ZM42.31,26.76c.92-.72,3.12-1,3.82.13C46.3,24.92,42.29,24.94,42.31,26.76Zm19.22-.26H63.9v-.79H61.27A2.94,2.94,0,0,0,61.53,26.5Zm-19,.79c1.23-.41,2.54-.54,3.42.26C45.73,26.07,43.16,26.11,42.58,27.29Zm23.17,12c.76-1.59,2.85-4.09,2.76-6.19,0-1.23-.16-2.06.53-3-.66,1.23-3.09,1.43-3.42,0-.28-1.2.65-1.6,1.58-2.24v-.92H61.66C62.57,31.39,66,34.08,65.75,39.27ZM44.68,29.39c.22-.23,1.09-1,.4-1.32-.25.23-.1.87-.66.79-.82.16-.75-.56-1.05-.92A1.08,1.08,0,0,0,44.68,29.39Zm-1.58-.53c-.08-.32-.11-.68-.53-.66C42.52,28.66,42.62,29,43.1,28.87Zm2.37.13c.43,0,.63-.16.66-.53C45.83,28.18,45.4,28.51,45.47,29ZM41.13,30c-.29-.24-.07-1-.66-.92a1.29,1.29,0,0,0,.13,2.5c1.37.14,1.9-1.64,1.18-3C41.65,29.17,41.68,29.9,41.13,30Zm28.44-1.18c-.76,2.57,3.85,1.94,5.4,1.45,0-.65.13-.65,0-1.19A10.31,10.31,0,0,1,69.56,28.87Zm-.66,3.82c.71,0,1.13-1.39.53-1.84C69.08,31.27,68.25,32.06,68.9,32.68Zm5.92-1.58c-.24.47-.06,1.51.66,1.45C76.18,32.23,75.73,31,74.83,31.1Zm-4.21,1.84c.36-.29.66-1.52,0-1.71C70.29,31.46,69.57,33,70.62,32.95Zm3,.13c.79.07.71-1.75,0-1.71A1.42,1.42,0,0,0,73.64,33.08Zm-2,.13c1,.19,1.1-1.2.66-1.71C71.45,31.42,71.42,32.57,71.67,33.21ZM39.15,36c.48.09,1,.26,1.32-.13-.34-3.1-3.37.26-1.32,1.45,2.57.19,3.5-2.62,2.9-4.74C41.88,34.25,40.91,37.57,39.15,36ZM68.9,33.21c-.26,2.46-1.72,4.43-2.37,6.06,1.32-1.54,3.25-3.84,2.9-6.19C69.41,33.27,69.11,33.2,68.9,33.21Zm6.32-.13h-.66c-.06,2.13,1.32,3.94,2.37,5.4A43.57,43.57,0,0,1,75.22,33.08Zm-3.16,4.34a5.77,5.77,0,0,0,1.58-3.82c-.47,1-.41,2.57-1.58,2.9-1-.48-1.05-1.84-1.32-3h-.39C70.57,35.15,70.9,36.7,72.06,37.42Zm-33.44,0c1.43,2.46,4.92-.69,3.82-2.76C42.2,36.53,40.77,38.28,38.63,37.42ZM74,34.66c-.45,1.21-.67,3.15-1.84,3.29s-1.78-1.59-2.11-3a28.51,28.51,0,0,1-3.42,5.13,7.77,7.77,0,0,0,3.16-3.16c.81.9,1.26,2.17,2.11,3A5.32,5.32,0,0,0,74,37.29c.9,1,2.08,2.4,3.29,2.63C75.87,38.53,75,36.51,74,34.66ZM38.76,38.34c1.14,2.89,5.71,0,4.21-2.5C42.68,37.72,40.78,39.44,38.76,38.34Zm27.65,2.5c3.62-.24,7.75,0,11.32-.26-1.73-.29-2.6-1.44-3.69-2.37a4,4,0,0,1-2.11,2.37c-.94-.68-1.38-1.87-2.11-2.77C69.08,39.22,67.68,40,66.4,40.84Zm-20,29.09a53.68,53.68,0,0,0-8-30.94,27.38,27.38,0,0,0-6.45,2.76A42.3,42.3,0,0,1,38,51.51c.49,1.09.68,2.74,2,3.29.29-.19-.05-1,.66-.79.85-.19.13,1.18.92,1.05.38-.14-.12-1.17.26-1.32.69,1.16,1.37,2.32,2,3.55-.57.92,0,.66.13,1.71.05.54-.56.4-.66.79a14.8,14.8,0,0,1,1.45,3.69c-.87,0-1.3.32-1.84.13-.05-.93.5-2,.13-2.76-1.08.19-1.09,1.46-1.84,2A38.45,38.45,0,0,1,32.57,93.5c-.22.26-.62.67-.53,1.05h3.42a2.08,2.08,0,0,1,.39-1.45c.44.4,1.13.54,1.58.92,0,.26-.36.17-.26.53h2.63C43.68,88.28,46,79.69,46.39,69.94Zm11.72-28.7C54,46,49.72,50.76,45.6,55.59c.68.13,1.11-1.06,1.71-1.45a10.25,10.25,0,0,1,1.58,2A21.82,21.82,0,0,1,47.18,58a2.49,2.49,0,0,1-.92-1.19c.47-.36.51-1.15,1.32-1.18.42.64-.83.94-.53,1.45A1.69,1.69,0,0,0,48.1,56a11.28,11.28,0,0,1-.66-.92c-1.68.53-1.62,2.44-.4,3.42,1.09-.58,1.65-1.69,2.5-2.5a17.8,17.8,0,0,1-1.84-2.37c.92-1,1.6-2.18,2.77-2.9.69.89,1.45,1.71,2.11,2.63a17.64,17.64,0,0,1-2.11,2.24,6.58,6.58,0,0,1-1.45-2c.4-.43.66-1,1.18-1.32a3,3,0,0,1,1.05,1.19c-.31.22-.32.73-.92.66-.1-.48.32-.73,0-1.05-.43,0-.28.51-.66.53a3,3,0,0,0,.92,1.19c.31-.61.93-.91,1.18-1.58-.56-.54-.89-1.31-1.58-1.71-.23,1.08-1.87,1.36-1.84,2.24,0,.66,2,1.53,1.84,2.37-1.07,1.08-1.87,2.43-3.16,3.29-.16-.45-.53-.7-.79-1.05a24.9,24.9,0,0,0,.26,2.5c2.39-2.4,4.68-5.25,6.84-7.77.73-.85,1.85-1.57,2-2.76A25.78,25.78,0,0,1,53,52.82a12.81,12.81,0,0,1-2.11-2.63c.63-.77,1.31-1.5,2-2.24a9.4,9.4,0,0,1,1.58,1.84A6.38,6.38,0,0,1,53,51.38a4.76,4.76,0,0,1-1.05-1.05c.4-.3.72-1.24,1.32-.92.15.66-.84.65-.39,1.18.5-.07.63-.51.79-.92-.27-.3-.44-.7-.92-.79-.35.57-.92.92-1.18,1.58.85.2.87,1.62,1.58,1.58s1-1.74,1.84-2.11c-.35-1-1.29-1.43-1.71-2.37a19,19,0,0,1,2.9-3c.41.12.81,1.5,1.05.92s-.85-.72-.79-1.45c1-.6,1.57-3,2.76-2.11,0-.33.21-.41.26-.66Zm1.84,0A51.85,51.85,0,0,0,53.5,64.41c-.61,13.4,2.83,24.56,8,32.38A33,33,0,0,0,68,94a42,42,0,0,1-6.06-9.74c-.52-1.15-.83-2.57-1.84-3.42-.55.06-.1,1.13-.92.92-.67.06,0-1.2-.79-1.05-.48-.43-.06,1.16-.39,1.32-.54-1.35-1.35-2.42-2-3.69.65-.73,0-.7-.13-1.58,0-.51.65-.41.66-.92a12.37,12.37,0,0,1-1.31-3.69c.66.25,1.31-.32,1.84,0a7.29,7.29,0,0,0-.26,2.77c1.07-.21,1.17-1.38,1.84-2-1.72-13.18,2.71-23.89,8.56-30.67.24-.28.76-.59.66-1.05H64.43A4.5,4.5,0,0,1,64,42.69c-.44-.4-1.17-.5-1.58-.92,0-.2.54-.59,0-.53Zm-3.29.13c-2.87,3.27-5.86,6.68-8.69,9.87-.9,1-2.33,2-2.5,3.29,3.43-3.2,7-7.91,10.27-11.58.44-.49,1.26-.88,1.18-1.58Zm-25.28.79a44.72,44.72,0,0,0-8.56,6.32c-.81.72-2.21,1.41-2,2.76,3.43-3.16,6.77-6.4,10.93-8.82C31.59,42.39,31.56,42.21,31.39,42.16Zm27.12.26c-.46.59-1,1.14-1.45,1.71.26.13.21.58.66.53C57.74,43.76,58.77,43.18,58.5,42.42ZM32.57,43.61c.06-.41-.35-.35-.39-.66-3.68,1.66-6.45,4.39-9.08,7-.84.83-2.36,1.63-2.24,3.16C24.34,49.6,28.33,45.91,32.57,43.61ZM67.19,67.83a16.29,16.29,0,0,0,3-8c.44-6.18-1.26-11.36-4.48-14.48,0-.1-.11-.15-.26-.13s-.17.18-.13.39c3.53,3.88,5.22,10.86,3.69,16.59a17.65,17.65,0,0,1-8,10.4C64,72.54,65.7,70,67.19,67.83ZM33.1,46.9c.67-.29.52-1.23,0-1.58C31.93,45.14,31.87,47.1,33.1,46.9Zm21.46.4c.46-.31.92-1.79,1.58-1.05-.22.5-1.22,1-.66,1.45.61.18,1-.95,1.45-1.32-.42-.28-.44-1-1.05-1.05-.46.95-1.43,1.38-1.84,2.37a16.11,16.11,0,0,0,1.71,2c-.07-.51.49-1.08.26-1.32C55.43,49,54.85,47.73,54.56,47.3ZM31.39,48c.51-.14.53-1.3.13-1.58C30.2,46,30.13,48.16,31.39,48Zm34,1.45c-.79-.67-.16-1.73-.13-2.5-1.74.89.16,4.43,1.71,2.76C66.49,49.22,65.92,49.89,65.35,49.4Zm-38,3a32.29,32.29,0,0,0-6.45,6.71c4.07-4,8.61-8.77,14.35-11.58,0-.15,0-.37-.13-.39A44.86,44.86,0,0,0,27.3,52.43Zm2.11-5A.8.8,0,0,0,29.54,49C30.52,48.64,30.25,47.36,29.41,47.43Zm6.45,1.18c0-.39-.3-.4-.26-.79a46.39,46.39,0,0,0-11.85,9.08c-1.11,1.19-2.77,2.34-2.9,4.21A46.68,46.68,0,0,1,35.86,48.61Zm29.75-.79c-.07.69.06,1.17.79,1.05C66.18,48.48,66.14,47.91,65.61,47.82ZM76.28,49c-.44-.21-.57-.62-1.05-.66,0-.08,0-.16-.13-.13A7.46,7.46,0,0,1,69.3,49.4a2.72,2.72,0,0,0,.39,1.18,7.39,7.39,0,0,0,5.13-1.45c.88.67,2.8,1.66,4.21.92C78.53,49.22,77.17,49.44,76.28,49ZM27.44,50.06h.79C29.5,48.18,26.16,48.18,27.44,50.06Zm3.69,2.24c-.26,1.1,1.17,3.19,2.5,3.55.38.1,1.13-.29,1.45.13.6-1.15,2.11-1.4,3.69-1.58-.87-1.8-1.49-3.86-2.63-5.4C35.2,49.95,31.4,51.14,31.12,52.3Zm34.36,5.79a11.19,11.19,0,0,1-4.08,8.69c-.81.66-1.82.93-2.5,1.84,6.5-1.49,8.71-11.43,5.4-17.77-.21-.4-.29-1.3-.92-1.18.76,1.74,2.22,3.93,2.11,7Zm-39.1-6.71c.74-.05.86-1.11.13-1.58C25.15,49.88,25.51,51.44,26.38,51.38Zm40.81-1.05c-1.74,0-.73,4.35,1.05,3A1.79,1.79,0,0,1,67.19,50.32Zm1.45,7c-.05-.75-.87-.57-1.05-1.32-.23-1,.33-1.4.79-2.11C66.79,53.59,66.75,57.46,68.64,57.3Zm-.26,3.82c0-.64-.82-.5-.92-1.05-.59-1.31.6-1.81,1.18-2.37C66.52,57,66.46,61.52,68.38,61.12Zm4.21-8.56C74.2,54,76,55.93,77.46,57.43c.5.5,1.22,1.37,1.58,1.18-.48-1.51-2.1-2.62-3.56-4.08-.9-.9-2.82-3.67-3.95-3.42-.1,0-.26,0-.26.13A7.44,7.44,0,0,0,72.59,52.56ZM24.67,51.11a.93.93,0,0,0-.26,1.58h.79C25.56,52.11,25.55,51.13,24.67,51.11Zm43.18,1.32a1.59,1.59,0,0,0-.4-1.18C67.15,51.65,67.33,52.44,67.85,52.43ZM68,67.57a11.69,11.69,0,0,0-1.45,2.24c-.28,1.11.22,2.63,0,3.55,1.58-.49,2.13-2,2.9-3.29h3.42V53.61c-1-.83-1.48-2.21-3-2.5A20.15,20.15,0,0,1,68,67.57ZM62.85,52.69c-.24-.12-.33-.37-.79-.26-.51,1.32,1,1.75,1.84,2.11,0-1.13.45-2.5-.53-2.9C62.95,51.74,63,52.34,62.85,52.69Zm-8.16-.26c-2.54,3.34-5.64,6.12-8,9.61A93.57,93.57,0,0,0,54.69,52.43Zm-32,.26a1.07,1.07,0,0,0,.39,1.45C24.39,54.24,24,51.81,22.7,52.69Zm7.37.39A5.4,5.4,0,0,0,30.2,57c-.66.7-1.71,1-2.11,2,.55.89,1.6,1.3,2.24,2.11a4.58,4.58,0,0,0-.26,3,13.32,13.32,0,0,1,1.18-3.55c-2.29-.38-1.91-3.22.4-3.29C31.19,56.34,30.05,55,30.07,53.09Zm.66.26c.16,1.68.65,3,2,3.55.25-.19.58-.29.53-.79C31.82,55.77,31.38,54.45,30.73,53.35Zm-4.48,2.76c1-.36,1.92-.71,2.9-1.05,0-.3.43-1.44,0-1.58A28.82,28.82,0,0,0,26.25,56.12Zm35.41,2.63c-.27,2.15-1.65,3.41-2.5,5.13,2.64-1.48,3.94-6.7,2.24-10.14C61.27,55.12,61.88,57,61.66,58.75ZM21.25,54.93c0,.33.23.71.92.66C23.83,54.46,21,53.22,21.25,54.93Zm52.13-.26V66.52c0,1.23-.41,3.17.53,3.55.48-3.44.26-8.23.26-12,0-1.28.28-2.73-.39-3.69-.17,0-.18-.17-.39-.13ZM36,55.33c-1.82,1.23-1.74,5.34-.4,6.71,1,1.05,3.21.84,4.87.4,0-.42-.3-.58-.26-1.05-.56-.17-1,.4-1.18-.13.69-.27,1.93,0,2.63-.26-.15-.6,0-.92-.13-1.32-.85-.1-2,.15-2.5,0,.67-.64,2.68,0,3.55-.4-.24-.24-.17-.79-.4-1.05-1.05-.24-2.29.51-2.9-.13,1,0,1.79-.23,2.9-.13-.34-.47.17-1.07-.13-1.45-1.24-.19-3,.33-3.69-.13a6.73,6.73,0,0,1,1.84-.13V55.19C38.45,54.86,37.22,54.5,36,55.33Zm32.65.79c-.12-.36,0-.93-.26-1.19A.72.72,0,0,0,68.64,56.12Zm-28,.13c.41,0,1,.09,1.18-.13.16-.87-.58-.83-1.32-.79C40.39,55.75,40.56,55.94,40.6,56.25Zm34,13.82H79V64.28c0-1.84.48-4.34-.66-5.13-.08.32.17,1-.13,1.05-.84-.09-2,.17-2.63-.13.08-.31-.17-1,.13-1.05h2.37c.16-.93-1.35-1.27-2.5-1.32a2,2,0,0,0-1.05-2.37ZM47.05,63.75h6.06c.16-2.83.86-5.81.92-8.29C51.81,58.25,48.85,61,47.05,63.75ZM29,55.59c-2,.82-4.64,1.77-5.4,3.42a19.89,19.89,0,0,1,5.66-3A.36.36,0,0,0,29,55.59Zm5.53,6.06a20,20,0,0,1,0-5.4C32.54,56.32,32.48,62,34.54,61.64Zm-5.4-5a25.65,25.65,0,0,0-4.87,2.5c-1.36,1-3.2,2.18-3.42,3.95,2.38-2.67,6.18-3.91,8.69-6.45ZM63.9,57c-.27-.17-.24-.64-.79-.53-.66,1,.2,2.34.92,2.76.28-.79,1.44-1.76.66-2.76C64.14,56.4,64.17,56.87,63.9,57Zm-21.59.53c.15,0,.21.15.26.26.49,0,.91-.06.92-.53C43.29,56.66,42.17,56.57,42.31,57.56ZM30.07,59a4.8,4.8,0,0,0,2.63,1.58c0-1.21-1.75-.62-1.84-1.71.22-.83,1.8-.31,1.84-1.32C31.62,57.85,30.53,58.11,30.07,59Zm12.77.39c.42,0,.79-.09.79-.53s-.39-.58-.92-.53A2.46,2.46,0,0,0,42.84,59.41ZM31.65,59a2.16,2.16,0,0,0,.92.26c-.07-.19.15-.68-.13-.66C32.33,58.9,31.76,58.73,31.65,59Zm37-.26c-.87-.22-.89,1.39-.13,1.32C68.42,59.49,68.73,59.32,68.64,58.75Zm-40.94.66c0-.13-.11-.16-.13-.26a13.36,13.36,0,0,0-4,2.37c-1,.84-2.66,1.8-2.76,3.55C23.18,63.23,25.19,61.07,27.7,59.41Zm14.22,1.45c.58,0,1.13-.09,1.19-.66C42.73,59.46,41.54,59.56,41.92,60.85Zm-13.82-.79a22.65,22.65,0,0,0-6.06,5h1.18c1.36-2,3.47-3.29,5.66-4.48C28.53,60.51,28.56,60,28.09,60.07Zm34.1,3.55c.92-.32,2.2-.94,1.71-2.24-.55-.15-.51.28-.92.26a1.13,1.13,0,0,0-.13-.79C61.32,60.83,62.22,62.61,62.19,63.62ZM31.78,61a5.69,5.69,0,0,0-.92,2.9,4.4,4.4,0,0,1,2.24-2C33.11,61.15,32.4,61.11,31.78,61ZM24,65.07c1.28.08,1.9-1,2.63-1.58A10.05,10.05,0,0,1,29.41,62c0-.39.39-.67.13-.92A11.5,11.5,0,0,0,24,65.07ZM40.6,61.38c-.05.54,0,.92.53.92.31-.09.8-.69.4-1.05C41.46,61.54,40.87,61.3,40.6,61.38Zm26.2,3.55c-1.88-1.32-3.28,2.58-1.58,2.9-.93-1.16,0-3.41,1.58-2.37a1.31,1.31,0,0,1,.4-.79c-1-1-.76-3,1.05-2.9C66.63,60.41,65.42,63.85,66.8,64.94Zm-36.33.66H27c0,5-.13,10.6-.13,15.27,0,1.71,1.48,3.19,3.16,3.82-1.43-5.05-1.19-10.54.53-14.35.61-1.36,2.49-3.32,2.76-4.48a13.85,13.85,0,0,0-.13-3.55C31.88,63,31.2,64.31,30.46,65.59Zm36.86-1.84c.38,0,.82-1.11.26-1.18A.88.88,0,0,0,67.33,63.75Zm-41.6,1.32c1.86.15,2.22-1.2,3.55-1.58-.08-.23.16-.77-.13-.79A14.69,14.69,0,0,0,25.72,65.07Zm4.61,11.72c.44-7,4.2-10.72,8.69-13.69H37.44c-4.21,3-7.42,7.06-7.77,14a1.4,1.4,0,0,0,0,1.32,18.78,18.78,0,0,0,2.9,10.27c.49.73,1.16,2,1.84,1.71C32.65,87.5,30.36,84,30.33,79Zm8.82-11.06c-.68,0-.75-.73-1.32-.66.37,2.24,4,.44,2.63-1.32C40.32,64.82,40.06,65.7,39.15,65.73Zm20.14.66c1.26.12,2.81,0,2.37-1.19-.09-.26-.73,0-.79-.26a.82.82,0,0,0,0-.92C59.75,63.7,59.59,65.44,59.29,66.38ZM29.41,64.15a4.93,4.93,0,0,0-1.58.92C28.64,65,29.27,64.84,29.41,64.15Zm9.35.66a.58.58,0,0,0,.92-.66C39.3,64.29,38.79,64.31,38.76,64.8ZM49,71.52h2V69.28h1.71a21.11,21.11,0,0,0,0-2.9c-.57.09-1.49-.17-1.84.13,1,.85.59,2.79-.53,3-2,.42-2.59-2.66-.79-3.42a1.85,1.85,0,0,1,1.32.26V64.15c-.64.06-1.54-.14-2,.13v2.11H47.18a16.07,16.07,0,0,0-.13,2.9c.57.08,1.49-.17,1.84.13C49,70.07,48.72,71.08,49,71.52ZM35.2,67.31c.41,2,3.84-.38,2.24-2C37.63,66.64,36.8,68.25,35.2,67.31ZM20.85,66c0,2.55,0,5.77,0,8.29,0,.78-.34,2,.53,2.24.38,0-.11-.9.26-.92.84.09,2-.17,2.63.13,0,.38.07.86-.13,1.05H21.78A2,2,0,0,0,24.28,78c-.16,1.3.17,2.12,1.05,2.37-.09-4.87.17-10.09-.13-14.74H20.85Zm5-.39c0,.17-.17.18-.13.39,0,3.8,0,8.33,0,12.11,0,1.2-.38,2.79.66,3.42.24-3.7.13-8.28.13-12.11,0-1.4.32-3.05-.4-3.82ZM65.75,67A4,4,0,0,0,66.4,66c-.1,0-.26,0-.26-.13C65.6,65.8,65.17,66.8,65.75,67ZM36.78,66c-.42.13-1,.57-.79.92C36.59,66.94,36.84,66.61,36.78,66ZM34.68,83c.44,1.29,1,2.69,1.84,3.29a18.66,18.66,0,0,1-2.24-7.11A12.85,12.85,0,0,1,38,69.28c1-.9,2.09-1.16,3-2.11,0-.1,0-.26-.13-.26C35.62,68.61,32.44,76.39,34.68,83ZM62.45,70.33c-.41-1.54,1.09-2.75,2.24-2C64.23,66.5,60.74,68.83,62.45,70.33Zm-28.57.26c-.39,0-.41-.3-.79-.26-.11.33-.36.52-.4.92a1.55,1.55,0,0,1,.66,1.45c-.12,1-1.24,1-1.71,1.58,2.3.37,2.42-2.31,1.45-3.42,2,.91,3.11-2.09,1.71-3C35,68.66,35.33,70.43,33.89,70.6Zm.26-2c-.15.39-.75.84-.53,1.19C34.45,70,34.62,68.91,34.15,68.62Zm29,1.05a1.49,1.49,0,0,0,.92-.79C63.38,68.81,63,69,63.11,69.67ZM39,69.41c-.53.12-1,.3-.92,1.05.25.38.67.11.92.26-.25.32-.36.78,0,1.05,1.15,0,1.45-1.53,1.32-2.37A1.41,1.41,0,0,0,39,69.41Zm20.41,2.5c-.19-1.66,1.65-2.43,2.5-1.18C62.09,68.61,58,69.9,59.43,71.91Zm11.19-.26c.44-.4,1.09-.57,1.45-1.05C71.36,70.64,70.33,71.06,70.62,71.65Zm3.55-1.05c-1.89-.17-2.1,1.32-3.55,1.58V73A8.46,8.46,0,0,0,74.17,70.6Zm1.71.26c0-.17.21-.27-.13-.26-1.17,0-1.76,1-2.5,1.58a6.65,6.65,0,0,1-2.76,1.45c0,.37-.24.55-.26.92C72.78,74,74.26,72.35,75.88,70.86Zm.92-.26A12.85,12.85,0,0,1,71,74.94a1.06,1.06,0,0,0,.79.66,19.12,19.12,0,0,0,6.06-5Zm1.84,0a24.58,24.58,0,0,1-4.87,4.61c-.53.36-1.45.47-1.58,1.18.68.37,1.4-.45,2-.79a16.05,16.05,0,0,0,2-1.32c1.15-.92,2.83-1.93,2.9-3.69Zm-18.56.92c.51,0,1-.09,1.05-.53C60.81,70.47,60.07,70.93,60.08,71.52Zm8.42,3.55c2.51.36,2,3.31-.39,3.42a6.63,6.63,0,0,1,1.71,4.08c.67-1.16.21-2.74-.13-3.95.74-.62,1.7-1,2.11-2-.55-.89-1.72-1.18-2.24-2.11.33-.52.73-2.31.13-2.9A6,6,0,0,1,68.51,75.07Zm-30,7c.17-1.38-.44-2.55-.39-3.95A10.17,10.17,0,0,1,40.73,72c0-.1,0-.26-.13-.26C38.16,73.4,36.68,78.6,38.49,82ZM69.17,71.91c-.48.53-1.66,1.5-2.37,2.24.18.44.86.37,1.19.66A6.1,6.1,0,0,0,69.17,71.91Zm-36.86,0c0,.52-.3.66-.26,1.19C32.84,73.22,32.84,72.07,32.31,71.91Zm5.13.13c-.64.58-2,1-1.58,2.24.55.43.67-.45,1.05-.13a1.13,1.13,0,0,0,.13.79C38.39,75.05,37.81,72.56,37.44,72Zm8.16,8.16A73.85,73.85,0,0,0,52.84,72H46.66A52.7,52.7,0,0,1,45.6,80.21Zm31.59-5c.91-.75,2.34-1.45,1.71-2.77-2,3.08-6.2,4-8.56,6.71C72.73,78.6,75.34,76.73,77.2,75.2ZM62.59,80.86c2.63-.4,3.92-5.5,1.45-7.37-1.15-.87-2.69-.56-4.61-.26,0,.42.23.56.13,1.05.36.12,1.23-.27,1.18.26-1-.1-1.57.18-2.5.13-.18.22.11.77,0,1.32,1,.16,1.86,0,2.63.13-.93.58-2.24,0-3.55.13,0,.43.22.66.13,1.19,1,.09,2.28-.17,3,.13-.66.31-1.88,0-2.76.13,0,.38,0,1,0,1.45,1.15.17,3-.34,3.69.26-.6.06-1.45-.13-1.84.13v.92A7.38,7.38,0,0,0,62.59,80.86Zm-17.51,2.5c2-2.36,4.19-4.93,6.19-7.24.67-.78,1.71-1.42,1.84-2.5C50.52,76.87,47.23,80.13,45.08,83.37Zm13-9a2.84,2.84,0,0,0,1.19-.13C59.48,73.07,57.9,73.44,58.11,74.41Zm7.11-.13c.47,1.28.29,3.78.13,5.27C67.36,79.51,67.43,73.24,65.22,74.28ZM66,86.92A54.74,54.74,0,0,0,79,75.73c-.08-.4.17-1.13-.13-1.32a41.52,41.52,0,0,1-13,11.72c-.6.36-1.71.59-1.84,1.45C64.71,88.25,65.48,87.24,66,86.92ZM31.52,74.68c.63.55,1.51,1.51.79,2.63-.18.44-1.1.13-1.05.79C33.22,78.68,33.54,74.31,31.52,74.68Zm.79,5.13c.21.9-.22,1.34-.79,2,1.7.31,1.51-3.54-.26-3.42C31.18,79.13,32.14,79.07,32.31,79.81Zm.92,3.82c.17.85-.39,1.07-.53,2,1.54-.57,1.09-3.88-1.05-3.42C32.07,82.91,33,82.72,33.23,83.63Zm12.9,2.5c.74,1.26,1.69.31,2.11-.79-.56-.49-.81-1.3-1.58-1.58-.49.87-1.29,1.43-1.84,2.24a15.33,15.33,0,0,1,1.84,2.24,39.91,39.91,0,0,1-2.9,3c-.54-.16-.65-1.31-1.19-1.05,0,.74.73.85.92,1.45a17.72,17.72,0,0,1-2.24,2.5c-.34-.46-.71-.11-.79.39h1.32C44.95,91,48,87.08,51.13,83.63c1-1.15,2.47-2.15,2.9-3.69-.55.5-.8,1.31-1.58,1.58a6.57,6.57,0,0,1-1.45-2c.52-.66,1.17-1.19,1.71-1.84.28.46.76.73.92,1.32-.58.26-.5,1.16-1.45,1.05,0-.68.62-.7.66-1.32-.45-.21-.85.6-1.19.92.36.29.49.83.92,1.05a2,2,0,0,0,0-3.55,29.2,29.2,0,0,0-2.24,2.63,18,18,0,0,1,1.84,2.37c-1,.91-1.71,2.06-2.76,2.89a26,26,0,0,1-2.11-2.76,21.9,21.9,0,0,1,2.11-2.24c.39.75,1.09,1.19,1.45,2-.39.49-.77,1-1.19,1.45a2.55,2.55,0,0,1-1.05-1.32c.29-.2.31-.66.79-.66.4.47-.32.61,0,1.05,1.24-.22.48-1.28-.26-1.58-.17.66-.9.77-1.05,1.45.46.63.82,1.38,1.58,1.71a15.62,15.62,0,0,1,1.71-2c-.35-1.06-1.39-1.42-1.71-2.5a17.81,17.81,0,0,1,3-3.29c.37.29.58.73.92,1.05a12.32,12.32,0,0,0-.4-2.63c-2.16,2.62-4.68,5.26-6.84,7.77-.74.85-1.75,1.74-1.84,2.9a17,17,0,0,1,2.37-2.63c.59,1,1.62,1.63,2.11,2.77-.75.7-1.3,1.59-2.11,2.24-.41-.73-1.19-1.09-1.45-2a17.65,17.65,0,0,1,1.45-1.58c.21.49.82.58.92,1.19-.4.34-.43,1.06-1.18,1.05C47.34,85.16,46.79,84.91,46.13,86.13ZM56.79,75.6c.14.34.54.43,1.05.4C58.58,74.81,56.88,74.43,56.79,75.6ZM69,76.78c-.19.86-1.66.44-1.84,1.32.82,0,2.29-.51,2.63-1.45a4.69,4.69,0,0,0-2.63-1.45C67.25,76.29,68.87,75.81,69,76.78Zm-37.78.13c.55.46,1.08-1.23.13-1.19C31.48,76.26,31.26,76.48,31.25,76.92Zm3.82,2.24c.67.19.56-.4.92-.53.15.25.16.63.66.53,1-.79-.28-2.21-.79-2.77C35.58,77.25,34.59,78,35.07,79.15Zm21.06-2.24c.24.28.38.67,1.05.53.1-.5-.16-.63-.13-1.05A.74.74,0,0,0,56.14,76.92Zm11.19-.53c0,.22,0,.44,0,.66.29-.15.85,0,.92-.39A2.15,2.15,0,0,1,67.33,76.39ZM72.2,83.5c2.69-2.3,5.52-4.43,6.85-7a64.79,64.79,0,0,1-14.48,12C67.12,87.69,69.76,85.58,72.2,83.5Zm-1.58-3.55c2.13-.24,5-1.63,5.66-3.29C74.77,78.13,72.49,78.83,70.62,79.94Zm-47.26-.66c-.93-.65-1.46-1.7-2.5-2.24.18,1.53,1.63,1.8,2.24,2.9a39.63,39.63,0,0,0,3,3c.76.6,1,1.74,2.37,1.71-.43-1.24-2.22-2.25-3.16-3.42A16.79,16.79,0,0,0,23.36,79.29Zm33-1.19c-.12.74.47.76.92.92C57.78,78.2,57.07,77.49,56.4,78.1Zm10.66.79c-.26.09-.35.35-.39.66a5.24,5.24,0,0,1,2.5,2.9C69,80.7,68.59,79.25,67.06,78.89Zm-9,1.32a1.64,1.64,0,0,0,1.19.26v-.92C58.85,79.27,57.78,79.3,58.11,80.21Zm12.51.53c.16.61-.27,1.3,0,1.58.92-.88,2.53-1.76,2.89-2.76A16.23,16.23,0,0,1,70.62,80.73ZM31.25,79.68a2.45,2.45,0,0,1,.13,1.05C31.86,80.8,31.77,79.47,31.25,79.68Zm33.57,0c-.53,1.17-2.16,1.68-3.69,1.45a19.78,19.78,0,0,0,2.63,5.66c1.64-1.13,3.63-1.9,5-3.29A4,4,0,0,0,64.82,79.68Zm13.82,1.58c-.94-3.39-2.27,1.94,0,0ZM45.74,91.4c1.93-2.18,3.88-4.18,5.79-6.32a27.78,27.78,0,0,0,2.9-3.29c.12-.2.05-.26,0-.53,0-.1,0-.26-.13-.26-3.82,4.52-7.84,8.83-11.58,13.43C44,93.87,44.8,92.46,45.74,91.4ZM36.65,84c.41,0,.11-.77.39-.92.25.06.24.38.66.26.76-1.09-.74-1.9-1.71-2.11C36,82.19,35.42,84,36.65,84Zm39.76-2.37c-.72.28-.65,1.69.4,1.58C77.55,83,77.53,81.44,76.41,81.65ZM51.66,96.53v.4c-.89-1.06-.84-2.85-2.11-3.95-1.63-1.42-5.29-1.44-5,2,.1,0,.15.11.13.26,1.15,1.61,3.46-.33,2.11-1.84-1-.12-1.46.21-1.32,1.19.11.28.84,0,.92.26-1.71.75-1.56-1.53-.26-1.84a3.83,3.83,0,0,1,4.48,3.82c-.78-1.33-1.34-3.58-3.29-3.29.53,1.31,2.71,1.67,2.24,3.55-.63-.87-.67-2.31-2.11-2.37.27,1,1.51,1.65,1.18,2.76C48,97,48,95.28,47.05,95.61c-.47.85,1.52,1.55.79,2.24-.49-.54-.88-1.81-1.71-1.58-.16.47,1.32,1.68.66,2.24-.57-1-.87-2.2-2-2.63,0,1.58,1.52,1.73,1.45,3.42-.71-.43-.57-1.72-1.45-2-.46,1.05,1.13,1.84.66,2.9-.54-.51-.47-1.64-1.18-2-.76,1,1,2.11.66,3-.85-.55-.75-2.06-1.58-2.63-.36,1.83,1.09,3.18.79,4.08-1.09-.83-.79-3.22-1.58-4.21-.66,2.36,1,4.16,1.19,5.66-1.75-1.47-1.34-4.64-2-7-1.17,5.91,3,9.66,3.29,15.4a44.64,44.64,0,0,0,12.64-.13c-.09-.66.17-1.66-.13-2.11-2,1.69-4.47.6-4.61-1.84-.12-2.06,1-4.24,1.18-5.92-.32-.65-1.38-.55-1.58-1.32,2.1.07,2,2.2,1.32,3.82.2.28.81-.84,1.05-.53-.3.75-1,1.11-1.18,2,.9-1.17,2.75,0,3.69-.13-.4-.7,0-1.2,0-2-.05-1.73-1.06-3.54-1.18-4.87-.21-2.27,1.18-4,3.82-3.55-1.74-2.13-4.24.39-4.48,2.24a3,3,0,0,1,4.08-3.16c-.14-1.12-1.78-1.19-2.9-.92-1.08.72-1.3,2.3-2.11,3.29.18-2.55,2-4.35,4.61-3.69a3.22,3.22,0,0,0-2.5-.79c-1.91.26-2.19,2.53-2.9,3.95,0-1.88.83-2.85,1.58-3.95-1.94.12-2.1,2-2.37,3.82-.67-.43.22-1.74-.13-2.24-.75.14-.64,2.91-1.19,2-.13-1.54.87-1.86,1.58-2.5s.68-1,1.19-1.18c1.28-.54,3.14,0,4.21-.13-1.85-3.06-2.89-6.94-4.21-10.53C52,85.49,49,88.36,46.39,91.66,49.88,91.55,51,93.84,51.66,96.53Zm17-5.27c-.43.25-1.11.56-1.32,1.05.28.78,1.12.23,1.58,0,3-1.52,5.21-3.76,7.5-6.06,1-1,3.08-2.2,2.5-3.69A42.27,42.27,0,0,1,68.64,91.26Zm5.79-7.11c.32.12.35.53.92.39C77,83.69,74.21,81.87,74.43,84.16Zm-42,.39c.18-.17.13-.57.13-.92-.26,0-.17-.36-.53-.26A1.59,1.59,0,0,0,32.44,84.55Zm41.21,1.32c.79-.06.88-1.84-.26-1.58C72.49,84.49,72.91,85.93,73.64,85.87ZM71,91.53c-1,.69-2.23,1-2.76,1.84,1,.19,2-.82,2.9-1.45a48.26,48.26,0,0,0,5.53-4.21c1-.87,2.8-2.13,2.24-3.29A57.05,57.05,0,0,1,71,91.53ZM25.07,86.66a8.36,8.36,0,0,0-1.45-.92c-.64-.22-2.46-.63-2.76.13,1.21.63,3,.67,3.82,1.71a8.31,8.31,0,0,1,5.92-1.32,3.45,3.45,0,0,0-.4-1.05A7.23,7.23,0,0,0,25.07,86.66Zm7.9-.53c.34.33.64-.13,1.18,0,1.36.36.23,2.44.79,2.76C36.15,87.52,34.52,84.66,33,86.13ZM72.2,87.32c.59-.15.68-1.14.26-1.58A.82.82,0,1,0,72.2,87.32Zm-28.3.13a.36.36,0,0,1,.26-.39,5.58,5.58,0,0,1,1.19,1.45c-.56.27-.79,1.58-1.58,1.19,0-.75,1.28-1,.53-1.71-.61.27-.85.91-1.32,1.32a3,3,0,0,0,.92,1.18c.6-.8,1.32-1.49,2-2.24a11.83,11.83,0,0,0-1.71-2.11C44.17,86.59,43.61,87.15,43.89,87.45Zm17.64,10c.34,1.69.48,4.11-1.05,4.21-.85.06-1.24-1.08-1.58-.92A8.89,8.89,0,0,0,58,104c1.8-1.47,3.83,1.84,2,2.76-.62.31-1.26-.22-1.45,0-.79,1.45-.38,3.49-.4,5.53,2.15,3.34,4.36,6.61,6.45,10H79c-.09-12,.18-24.31-.13-36.07A48.14,48.14,0,0,1,61.53,97.45ZM34.28,88a2.48,2.48,0,0,0-.13-1.05c-.19.07-.68-.15-.66.13C33.84,87.28,33.78,87.91,34.28,88Zm36.2.4c.78-.06.92-1.85-.26-1.58C69.3,87,69.75,88.43,70.48,88.37Zm-2-.53c-.56.25-.54.93-.26,1.45C69.42,90,70,87.63,68.51,87.84Zm-2.24,1.84c0,.4.36.66.92.79C68.91,89.29,66.15,88,66.27,89.69ZM41.39,93.37c.28-.77,1.12-1,1.32-1.84-.25-.05-.1-.51-.53-.39C42.12,92,40.94,92.89,41.39,93.37Zm2.37,1.32a.62.62,0,0,1,.39.13c-.07-.19.15-.68-.13-.66C44,94.42,43.67,94.33,43.76,94.69Zm0,3.55c1.46-.46.59-3.18-.26-3.42-2.62-.75-3.41,2.52-3.16,4.74.31,2.73,2.28,6.76,3,9.74.29,1.15.32,2.46,1.05,3.29.85-4.83-4.36-9.25-3.29-14.74A2.17,2.17,0,0,1,43,96c.34.19.74.31.79.79-.39.35-.7-.84-1.32-.26A1.12,1.12,0,0,0,43.76,98.24Zm-15.93-3c1.06.52,1.43,1.73,2.11,2.63a11.28,11.28,0,0,1,3.42-2.76A40.48,40.48,0,0,0,27.83,95.21Zm6.71,3.42c.25,2.15,1.63,4.24,2.63,6.45a29,29,0,0,1,1.71,5c.13.48.19,1.35.79,1.58C39.56,106,33.54,100.95,36,95.08c0-.08,0-.16-.13-.13C34.71,95.62,34.34,96.93,34.54,98.64Zm3.69,6.71c.9,2.37,1.36,4.55,2.24,6.58a30.58,30.58,0,0,0-1.84-6.85c-1.13-3.12-3.37-6.88-1.45-10-.17,0-.18-.17-.4-.13C34,98.53,37,102,38.23,105.35Zm.79-.26c.43,1.22.87,2.39,1.18,3.55s.16,2.76,1.32,3.42c.14-4.53-3.64-8.79-4.08-13.3a4.58,4.58,0,0,1,.92-3.69c-.17,0-.18-.17-.4-.13C35.22,97.82,37.81,101.68,39,105.09ZM39.28,95a3.21,3.21,0,0,0-1.58,3c0,2.9,1.62,5.22,2.63,7.9a47.56,47.56,0,0,1,1.45,4.87c.12.45.06,1.35.66,1.45.08-5.52-5.7-12.19-2.9-17.25Zm.92.13c-1,.94-1.26,2.5-1.05,4.34.35,3.09,2.41,6.72,3.16,9.74a9.22,9.22,0,0,0,1.05,3.29c.51-4.26-3-8.61-3.42-13.16A6.5,6.5,0,0,1,41,95C40.59,94.86,40.61,95.18,40.21,95.08ZM20.85,122.33H31.39c1.72-2.62,3.61-5.08,5.27-7.77H32.83c-.16,1.66-.18,3.16-1.58,3.29-1.58.15-1.87-1.4-2-2.9-.76.93-1.7-.35-2.5.26-1.24-.65-2.33-1.44-3.55-2.11-3,.84-3-5,.53-3.95a6.12,6.12,0,0,1,.92-2.24c-.15-1.66-1.76-3.12-.53-4.61A33.14,33.14,0,0,0,22,96.53c-.24-.5-.47-1.22-.92-1.45h-.26Zm5-24.88c.18-1,1.82-1.84,1.58-2.37a41.09,41.09,0,0,0-5.27.13C23.92,95.44,24.64,96.69,25.86,97.45Zm6.45-.66c.25-.3.83-.68.66-.92a10.39,10.39,0,0,0-3,3c-.55-.54-1.46-3.21-2.24-3.16s-1.5,2.5-1.84,2.77c-.87-.85-1.77-2.36-3-2.37,1.3,1.33,2,3.23,3,4.87.44-1.36.7-2.9,2.11-3.29,1.3.46,1.39,2.12,2.11,3.16A10.9,10.9,0,0,1,32.31,96.79ZM56.92,100a2.9,2.9,0,0,1,4.21-2.5C60,94.59,55.3,97.3,56.92,100Zm-26.46,2.63c.95-.65.88-2,1.32-3s1.17-2,1.58-2.9c.07,0,.15-.11,0-.13C32.08,98,30.09,100.41,30.46,102.59Zm.92,0c0,.41.31.77.26,1.19-.08.69-.94,1.28-.66,2,1.92-3.2,5.15,1.55,1.71,2.11,0,.31-.21.49-.13.92a45.65,45.65,0,0,0,5.53.13c-.58-4.25-4.26-7.23-3.95-12.37C33.31,98.3,31.34,100.23,31.39,102.59Zm-6.45.13c1.09-.5.07-1.77-.26-2.5a7.79,7.79,0,0,0-1.45-2.5C23.81,99.37,24.22,101.2,24.93,102.72Zm32.39-1.58c.25-1.81,2-3.82,3.95-2.63C60,95.75,56.24,99.08,57.32,101.14ZM27.83,98.37a5.68,5.68,0,0,0-1.58,3.69c.43-1.07.51-2.48,1.58-2.9,1.08.5.88,2.28,1.58,3.16C29.52,100.9,28.93,99,27.83,98.37Zm29.88,4.87c.26-1.65,1.2-5.06,3-3.42-.63-.08-.79-.37-1.32,0,.08,3.22,3.25,0,1.32-1.32C58.06,98.28,57.2,101.13,57.71,103.24ZM28,104.3a1.56,1.56,0,0,0,.26-1.71C27.26,102,26.91,104.26,28,104.3Zm-1.71,0c.41-.21.35-1.36,0-1.58h-.4C25.67,103.2,25.56,104.3,26.25,104.3Zm3-1.58c-.37.41-.6,1.52,0,1.84a2.23,2.23,0,0,0,.53-1.58C29.54,103,29.64,102.62,29.28,102.72Zm-4.21,2a1.64,1.64,0,0,0-.26-1.45C23.52,103.12,24.16,104.8,25.07,104.69Zm6.06-1.58h-.39c-.47.28-.58.91-.53,1.71A1.29,1.29,0,0,0,31.12,103.11ZM58,107.19c.22-.53.22-1.27.66-1.58.24.37.24,1,.79,1.05,1-.16,1-2,.26-2.5C57.73,103.72,57.33,105.86,58,107.19Zm-33-1.71c0,.6-.13.73.13,1.18a7.1,7.1,0,0,1,5.13.26,1.51,1.51,0,0,0,.13-1.32A6.63,6.63,0,0,0,24.93,105.48Zm5.92,9.21c.05.47,1,0,.79.79-.56.05-1.36-.13-1.71.13-.15,1.2.42,2,1.45,1.71,1.93-.51.25-8.35.79-10,.85-.25,1.85-.34,1.58-1.71C29.4,103.43,31.81,112,30.86,114.7Zm23.7-7c.51-.19.33-1.07,1.18-.92.48.09.41.73.79.92C56.85,105.58,54,106.3,54.56,107.72Zm-30.54,2c.79-.31,1.83-1.07,2.9-.66-.29.23-.95.11-.92.66.54.31,1.15-.2,1.71.13.08-.4-.17-1.13.13-1.32.3,1.1,1.21,1.59,1.71,2.5-.53.72-.44,1.34-.39,2.5.56-.1.7-.61,1.45-.53.07-1.87-.08-3.52-.13-5.27C28.81,106,23.46,106.17,24,109.69Zm29.75-2.37h.53c-.11-.37.19-.34.13-.66C54.06,106.74,53.68,106.81,53.77,107.33Zm3.42.26c.35-.36,0-.72-.4-.79A.75.75,0,0,0,57.19,107.59Zm.13.79a3.5,3.5,0,0,1-3.42-.13C54.17,109.65,56.87,109.56,57.32,108.38Zm0,.53c-.73,1.1-2.88.87-3.69,0C53.56,110.82,57.84,110.82,57.32,108.9ZM32.57,110c.51.28,1.51.07,2.24.13,0,1,.35,2.34,0,3.29-.6.15-1.81-.31-2,.26V114c.62.31,1.8,0,2.63.13a37.36,37.36,0,0,0-.13-5C34.37,109.39,32.36,108.57,32.57,110Zm3.29,0h2.63c.1-.4-.23-.39-.13-.79C37.48,109.38,35.58,108.58,35.86,110Zm-14.35.66c-.2,2,.17-.43.79-.53.47-.5,1.21.49,1.32-.13C22.81,109.15,21.57,110.08,21.51,110.62Zm1.84.13c-.57-.13-.6.27-.92.39-.15.43.4.81,0,1.05s-.47-.32-.79-.4a1.14,1.14,0,0,0,1.45.92C23.17,112.11,23.6,111.27,23.36,110.75Zm.92.26a.71.71,0,0,0,.66-.79c-.1,0-.15-.11-.13-.26H24A1.16,1.16,0,0,0,24.28,111Zm.92-.13a2.16,2.16,0,0,0,.92.26,1.25,1.25,0,0,0,0-1.18Q25,109.8,25.2,110.88Zm1.45.53c.79.13.79-.53,1.05-.92C27.27,109.4,26,110.37,26.65,111.41Zm9.21-.26a12.55,12.55,0,0,0,2.9.13v-.79a12.52,12.52,0,0,0-2.9-.13Zm-8.16.53c.31,0,.24.46.66.39.47-.4.31-.92.13-1.58C27.82,110.47,27.68,111,27.7,111.67Zm5.92.92c.82,0,1-1.31.26-1.84A.93.93,0,1,0,33.62,112.59Zm-9,.79a8.71,8.71,0,0,0,0-2.11,1.12,1.12,0,0,1-.79-.13C23.54,111.85,23.3,113.66,24.67,113.38Zm.26.26c.25.28.36.69.92.66a9.56,9.56,0,0,1,0-2.9c-.4.1-.39-.23-.79-.13C24.83,112,25.18,112.77,24.93,113.64ZM27,114.83a14.84,14.84,0,0,0,.13-3.16c-.5.1-.63-.16-1.05-.13C26.11,112.62,25.58,114.83,27,114.83Zm8.82-2.5c1-.15,2.85.48,2.76-.79C37.69,111.78,35.62,110.9,35.86,112.33Zm-8.42,2.24a2.56,2.56,0,0,0,1.18.53c.59-.63.23-1.89.13-2.9-.6.36-.86-.12-1.32-.26C27.32,112.87,27.61,114,27.44,114.57Zm8.42-1.32c.83,0,2,.24,2.11-.53H35.86Zm-5.92,1.84c.6-.19.45-1.13.66-1.71C29.8,112.82,28.73,114.84,29.94,115.09Zm5.92-.92c.68,0,1.42.1,1.45-.53H35.86Zm1.58.92c2.08-.31,3.73.59,3.95,2.37.09.7-.71,1.95.66,1.58-1-4.1,6.23-5.13,6.19-.79a1.23,1.23,0,0,0-.13,1.32c.25,0,.29.15.53.13.55-.08.43-1,.26-1.45.46-3.11,5.42-3.57,6.06-.53.12.56-.58,1.44.53,1.71.9-.41.15-1.34.26-2.11.21-1.38,1.35-2.06,3.16-2-1-2-3.19-.1-3.68,1.32-1.14-3.32-5.58-2.28-6.58.53-.47-3.57-6-3.39-6.71-.13C41.69,115.09,38.85,112.76,37.44,115.09Zm-.66,1.32c1.28-.65,1.85,2,.66,2.37-1.56-.52-1.44,1-2.9.53-.49,1.13-1.35,1.89-1.84,3,10.18-.09,20.71.18,30.67-.13a18.9,18.9,0,0,1-1.45-2.37c-1,.22-1.16-.42-1.58-.79-1.88.84-2-2.35-.53-2.5-.5-1.09-1.64-.2-2,.39-.48-.69-2,0-1.58.66,1.81-.76,1.92,2.71.13,2.5a1.1,1.1,0,1,1-2.11,0c-1.61-.05-1.7-2.76.13-2.63-.34-1.08-1.81-.26-2.37,0-.66-.69-2.29-.69-2.5.39,2.08-.1,1.29,3.07-.13,2.63.22,2-2.84,1.34-2.11-.26-1.52,0-1.63-2.93.39-2.5-.44-1.25-1.44-.95-2.5-.53-.38-1-2.79-.77-2.5.26,1.86-.55,1.49,3.07-.13,2.5-.07,1-.64,1.34-1.18,1.32-1.1,0-.6-1-1.05-1.71-.29-.45-.81-.27-.92-.79-.23-1,.2-1.9,1.45-1.71-.18-.83-1-.81-1.71-.53C39,115.57,36.48,115.18,36.78,116.41Zm-.39.13c-.12.36-.4.56-.53.92A.56.56,0,0,0,36.39,116.54Z"/><path class="cls-3" d="M71.27,51.24a7.43,7.43,0,0,1,1.32,1.32A7.44,7.44,0,0,1,71.27,51.24Z"/><path class="cls-3" d="M23.09,79.94a39.34,39.34,0,0,1,3,3A39.63,39.63,0,0,1,23.09,79.94Z"/><path class="cls-3" d="M23.36,79.29a16.79,16.79,0,0,1,2,2A16.75,16.75,0,0,1,23.36,79.29Z"/></g></svg>