<svg xmlns="http://www.w3.org/2000/svg" viewBox="0 0 101.07 140"><defs><style>.cls-1{fill:#fff;}.cls-2,.cls-3{fill:#c4161c;}.cls-3,.cls-4{fill-rule:evenodd;}.cls-4{fill:#231f20;}</style></defs><title>Монтажная область 48</title><g id="cards"><path class="cls-1" d="M98,0S68.82.79,50.53.79,3,0,3,0A2.94,2.94,0,0,0,0,3V135.9A3.17,3.17,0,0,0,3,139s29.21,1,47.5,1S98,139,98,139a3.17,3.17,0,0,0,3-3.13V3A2.94,2.94,0,0,0,98,0Z"/><path class="cls-2" d="M11.58,12.17,9.72,8.81,8.65,10.07v1.87Q8.72,13,9.07,13l.26,0a.57.57,0,0,1,.22,0,.46.46,0,0,1,.34.14.47.47,0,0,1,.14.35.59.59,0,0,1-.16.42.52.52,0,0,1-.39.17,5.53,5.53,0,0,1-.65-.1,3.58,3.58,0,0,0-.67-.07,3.9,3.9,0,0,0-.68.09,3.92,3.92,0,0,1-.68.09.52.52,0,0,1-.39-.17.58.58,0,0,1-.16-.42q0-.49.46-.49a.51.51,0,0,1,.22,0l.26,0q.28,0,.35-.43a17.43,17.43,0,0,0,.07-2.1V7.75a17.64,17.64,0,0,0-.07-2.11q-.07-.43-.35-.43l-.23,0a1,1,0,0,1-.25,0q-.46,0-.46-.5a.5.5,0,0,1,.57-.57,4,4,0,0,1,.67.07,4.44,4.44,0,0,0,.74.09,2.72,2.72,0,0,0,.57-.06,3.83,3.83,0,0,1,.7-.1.52.52,0,0,1,.39.17.57.57,0,0,1,.16.4.5.5,0,0,1-.14.35.45.45,0,0,1-.34.15l-.2,0a1.08,1.08,0,0,0-.28,0q-.35,0-.42,1.1V8.66l1.81-1.95a4.58,4.58,0,0,0,1-1.29q0-.13-.16-.13H11q-.45,0-.45-.55T11,4.22a2.09,2.09,0,0,1,.44.06,2.9,2.9,0,0,0,.45.07,3.1,3.1,0,0,0,.46,0,4.25,4.25,0,0,0,.68-.08,4.25,4.25,0,0,1,.67-.08.47.47,0,0,1,.54.54.56.56,0,0,1-.14.38.44.44,0,0,1-.34.16.49.49,0,0,1-.22,0l-.23,0q-.23,0-.62.42l-.49.54L10.46,8,13,12.48a2,2,0,0,0,.31.44.44.44,0,0,0,.3.09.81.81,0,0,0,.25,0l.28,0q.45,0,.45.52t-.52.55a4.15,4.15,0,0,1-.7-.09,4.18,4.18,0,0,0-.71-.09,4,4,0,0,0-.69.09,4,4,0,0,1-.69.09.48.48,0,0,1-.54-.54q0-.53.51-.53h.39q.19,0,.19-.17a.71.71,0,0,0-.1-.36Z"/><path class="cls-2" d="M89.28,126.78l1.86,3.37,1.07-1.26V127q-.07-1.09-.42-1.09l-.26,0a.57.57,0,0,1-.22,0,.46.46,0,0,1-.34-.14.47.47,0,0,1-.14-.35.59.59,0,0,1,.16-.42.52.52,0,0,1,.39-.17,5.54,5.54,0,0,1,.65.1,3.59,3.59,0,0,0,.67.07,3.9,3.9,0,0,0,.68-.09,3.92,3.92,0,0,1,.68-.09.52.52,0,0,1,.39.17.59.59,0,0,1,.16.42q0,.49-.46.49a.51.51,0,0,1-.22,0l-.26,0q-.28,0-.35.43a17.43,17.43,0,0,0-.07,2.1v2.76a17.64,17.64,0,0,0,.07,2.11q.07.43.35.43l.23,0a1,1,0,0,1,.25,0q.46,0,.46.5a.5.5,0,0,1-.57.57,4,4,0,0,1-.67-.07,4.45,4.45,0,0,0-.74-.09,2.71,2.71,0,0,0-.57.06,3.84,3.84,0,0,1-.7.1.52.52,0,0,1-.39-.17.57.57,0,0,1-.16-.4.5.5,0,0,1,.14-.35.45.45,0,0,1,.34-.15l.2,0a1.08,1.08,0,0,0,.28,0q.35,0,.42-1.1v-2.35l-1.81,1.95a4.58,4.58,0,0,0-1,1.29c0,.09.05.13.16.13h.33q.45,0,.45.55t-.49.52a2.09,2.09,0,0,1-.44-.06,2.9,2.9,0,0,0-.45-.07,3.09,3.09,0,0,0-.46,0,4.25,4.25,0,0,0-.68.08,4.24,4.24,0,0,1-.67.08.47.47,0,0,1-.54-.54.56.56,0,0,1,.14-.38.44.44,0,0,1,.34-.16.49.49,0,0,1,.22,0l.23,0q.23,0,.62-.42l.49-.54L90.4,131l-2.55-4.48a2,2,0,0,0-.31-.44.44.44,0,0,0-.3-.09.81.81,0,0,0-.25,0l-.28,0q-.45,0-.45-.52t.52-.55a4.15,4.15,0,0,1,.7.09,4.18,4.18,0,0,0,.71.09,4,4,0,0,0,.69-.09,4,4,0,0,1,.69-.09.48.48,0,0,1,.54.54q0,.53-.51.53h-.39q-.19,0-.19.17a.71.71,0,0,0,.1.36Z"/><path class="cls-2" d="M15.75,21a2.74,2.74,0,0,0-5.48,0,2.74,2.74,0,0,0-5.48,0c0,4.06,5.46,7.17,5.48,7.18S15.75,25.11,15.75,21Z"/><path class="cls-2" d="M85.11,117.9a2.74,2.74,0,0,0,5.48,0,2.74,2.74,0,0,0,5.48,0c0-4.06-5.46-7.17-5.48-7.18S85.11,113.84,85.11,117.9Z"/><path class="cls-3" d="M36.78,14.5h4A12,12,0,0,1,36.78,14.5Z"/><path class="cls-3" d="M40.86,14.5H66.53C58.29,14.72,49.11,14.72,40.86,14.5Z"/><path class="cls-4" d="M55.08,27.53c-1.54-.82-3.92-1.48-5.79-.53C50.07,24.63,54.37,26,55.08,27.53Z"/><path class="cls-4" d="M55,28.59c-1.14-.33-4.27-2.13-5.27,0,1.71-1.06,4.1.12,5.66,1.05-1.67.19-2.81,1.55-4.87.92.28.91,1.31,1.06,1.71,1.84-1.52-.32-1.83-2.11-3.29-2.11.55-.77-.13-1.07-.26-1.84.24,0,.28.16.53.13C50.18,26.47,53.66,27.16,55,28.59Zm-3.82,1.84c1.08.3,1.95-.76,1.32-1.32,0,1.56-1.73.78-1.84-.13A1.59,1.59,0,0,0,51.13,30.43Zm-.53-.26c-.08-.36-.14-.74-.66-.66C49.92,30,50.14,30.19,50.61,30.16Zm2.24,0c.37,0,.56-.23.53-.66H53C53,29.82,52.74,29.79,52.84,30.16Z"/><path class="cls-4" d="M49.42,33.32a.92.92,0,0,1,.26,1.18c-.85.9-1.85-.42-3,.13-.09-.58.07-.9.4-1.05,1-.06,1.16.68,1.84.92A.75.75,0,0,0,49.42,33.32Z"/><path class="cls-4" d="M50.47,36.62c0,.43.22.66.13,1.19-.46,0-.5-.47-.92-.53-1.64.72-2.85-.22-4.34.26a1.46,1.46,0,0,1,.26-1.05c1.21.56,3-.5,4.08.4C50.18,37,50.06,36.55,50.47,36.62Z"/><path class="cls-4" d="M46.79,38.2c.25-.17,1.39.19,1.84-.13C48.33,38.78,47.3,38.58,46.79,38.2Z"/><path class="cls-3" d="M69.83,39c.73.9,1.16,2.08,2.11,2.77A4,4,0,0,0,74,39.38c1.08.93,2,2.08,3.69,2.37-3.57.29-7.7,0-11.32.26C67.68,41.14,69.08,40.39,69.83,39Z"/><path class="cls-3" d="M48,40.43h.13c.8,2.53,1.8,4.87,5.13,4.87.13.41-.36.84-.66,1.18-2.27,2.6-5.06,5.64-7.5,8.16a60.62,60.62,0,0,0-4-10.66,8.39,8.39,0,0,0,4,.26C46,44,48.16,42,48,40.43Z"/><path class="cls-4" d="M36.13,42.14a.71.71,0,0,1-.66.79C34.4,42.43,35.76,40.86,36.13,42.14Z"/><path class="cls-4" d="M38.36,42.54v.79c-.2.07-.33.19-.53.26C36.59,43.47,37.47,41.53,38.36,42.54Z"/><path class="cls-4" d="M36.39,43.46c.87.88,2,1.51,2.63,2.63a4.36,4.36,0,0,0-1.45,1.05A16.87,16.87,0,0,1,36.39,43.46Z"/><path class="cls-4" d="M62.72,44c.15.54,0,.81-.4,1.05C61.19,45.07,61.77,43.27,62.72,44Z"/><path class="cls-4" d="M36,44.25c0,.53,0,1-.4,1.05C34.56,45.25,35,43.58,36,44.25Z"/><path class="cls-4" d="M60.74,45.3c0,.53,0,1-.4,1.05C58.95,46.4,59.79,44.24,60.74,45.3Z"/><path class="cls-4" d="M61.8,45.83a23.74,23.74,0,0,0-.26,3.69c-.6.28-1.21-.42-1.84-.53A15.73,15.73,0,0,1,61.8,45.83Z"/><path class="cls-4" d="M62.45,47.28c-.81-1.46,1.56-1.42.79,0A.93.93,0,0,1,62.45,47.28Z"/><path class="cls-4" d="M38.89,48.33c-1.86-1.4,1.83-1.43,0,0Z"/><path class="cls-4" d="M41.39,48.07c.34.47.3,1.23-.39,1.32C40.13,49.38,40.32,47.67,41.39,48.07Z"/><path class="cls-4" d="M39.55,49.12A13.52,13.52,0,0,1,41.79,52a5.21,5.21,0,0,0-1.58.79A14.5,14.5,0,0,1,39.55,49.12Z"/><path class="cls-4" d="M39,49.78c0,.47-.09.79-.39.92C37.2,50.71,38.43,48.52,39,49.78Z"/><path class="cls-3" d="M36.13,50.17c1.14,1.53,1.76,3.59,2.63,5.4-1.58.18-3.08.43-3.69,1.58-.32-.42-1.07,0-1.45-.13-1.33-.36-2.77-2.46-2.5-3.55S35.2,51.12,36.13,50.17Z"/><path class="cls-4" d="M59.82,50.7c0,.57,0,1.06-.53,1.05C58.27,51.64,58.94,50,59.82,50.7Z"/><path class="cls-4" d="M57.85,52c0,.38.07.86-.13,1.05h-.79C56.44,52.36,57.08,51.44,57.85,52Z"/><path class="cls-3" d="M69.83,52.28c1.55.29,2,1.67,3,2.5V71.24H69.43c-.76,1.3-1.32,2.8-2.9,3.29.22-.93-.28-2.44,0-3.55A11.68,11.68,0,0,1,68,68.74,20.15,20.15,0,0,0,69.83,52.28Z"/><path class="cls-4" d="M58.77,52.55c.36,1.15-.19,2.53,0,3.95a6,6,0,0,0-1.84-.66C57.52,54.72,58.15,53.63,58.77,52.55Z"/><path class="cls-4" d="M40.73,53.86c.19-2.69,2,1,0,0Z"/><path class="cls-4" d="M60.48,52.94c0,.57,0,1.06-.53,1.05C58.95,53.89,59.61,52.24,60.48,52.94Z"/><path class="cls-4" d="M43.76,54.39a1.23,1.23,0,0,1-.13,1.05C42,55.79,42.84,53.32,43.76,54.39Z"/><path class="cls-3" d="M29.15,54.65c.43.13,0,1.27,0,1.58-1,.34-1.94.7-2.9,1.05A28.84,28.84,0,0,1,29.15,54.65Z"/><path class="cls-3" d="M54,56.63c-.07,2.48-.77,5.47-.92,8.29H47.05C48.85,62.15,51.81,59.41,54,56.63Z"/><path class="cls-4" d="M57.71,58.73a1,1,0,0,1-.92-.26C56.5,56.92,58.52,57.66,57.71,58.73Z"/><path class="cls-3" d="M65.48,57.81a1.68,1.68,0,0,1,0,1.45Z"/><path class="cls-4" d="M56.14,59.65c-.08.4-.21.76-.66.79C54.1,60.12,55.7,58.24,56.14,59.65Z"/><path class="cls-4" d="M56.92,59.65a25.34,25.34,0,0,1,.4,3.95,4.68,4.68,0,0,0-1.84-.4C55.86,61.93,56.47,60.87,56.92,59.65Z"/><path class="cls-4" d="M58.64,59.78c.19.43.24,1.22-.39,1.19C57.4,61,57.55,59.36,58.64,59.78Z"/><path class="cls-4" d="M75.62,62.42a11.47,11.47,0,0,1,2.76.13V63.6a10.38,10.38,0,0,1-2.63.13C75.52,63.48,75.65,62.86,75.62,62.42Z"/><path class="cls-3" d="M33.23,63.47A13.85,13.85,0,0,1,33.36,67c-.27,1.16-2.15,3.12-2.76,4.48-1.72,3.81-2,9.3-.53,14.35-1.68-.63-3.16-2.11-3.16-3.82,0-4.67.08-10.29.13-15.27h3.42C31.2,65.47,31.88,64.14,33.23,63.47Z"/><path class="cls-4" d="M56.14,66c-1.86-1.4,1.83-1.43,0,0Z"/><path class="cls-4" d="M78.25,64.66v1.18H75.62C75.11,64.06,77.13,64.8,78.25,64.66Z"/><path class="cls-4" d="M44.42,66a.68.68,0,0,1-1.18.66A.68.68,0,0,1,44.42,66Z"/><path class="cls-4" d="M55.08,66.89c0,.53,0,1-.39,1.05C53.25,68,54.15,65.82,55.08,66.89Z"/><path class="cls-4" d="M57.32,67.95c-.76,0-.6-1.16-.13-1.32C58,66.51,58.13,68,57.32,67.95Z"/><path class="cls-4" d="M55.87,66.89a12.2,12.2,0,0,1,.92,3.82A10,10,0,0,0,55,70.58C55.23,69.32,55.65,68.21,55.87,66.89Z"/><path class="cls-4" d="M78.38,67.16v.92a11.42,11.42,0,0,1-2.76.13C75,66.42,77.52,67.06,78.38,67.16Z"/><path class="cls-4" d="M44.68,67.42c.23,1.24-.62,2.54-.79,3.82A36.72,36.72,0,0,1,43,67.42,8.32,8.32,0,0,0,44.68,67.42Z"/><path class="cls-4" d="M21.64,67.82h2.5v.92h-2.5Z"/><path class="cls-4" d="M78.25,69.26v1.05h-2.5C74.94,68.83,77.21,69.33,78.25,69.26Z"/><path class="cls-4" d="M21.51,69.92h2.77V71H21.51Z"/><path class="cls-4" d="M42.84,70.19c.3.33.36,1-.13,1.18A.62.62,0,1,1,42.84,70.19Z"/><path class="cls-4" d="M45.87,70.45c0,.53,0,1-.4,1.05C44.09,71.56,44.93,69.4,45.87,70.45Z"/><path class="cls-3" d="M39,70.58a1.41,1.41,0,0,1,1.32,0Z"/><path class="cls-3" d="M48.89,70.58c.3.44,0,1.45.13,2.11C48.72,72.24,49,71.24,48.89,70.58Z"/><path class="cls-4" d="M56,72.42c-1.16-.1-.21-2.09.53-1.05C56.57,71.94,56.54,72.43,56,72.42Z"/><path class="cls-4" d="M44,72.16a.89.89,0,0,1,0,1.18C42.92,73.53,42.85,72,44,72.16Z"/><path class="cls-4" d="M21.64,72.29h2.63v1.05H21.64Z"/><path class="cls-3" d="M46.66,73.21h6.19a73.86,73.86,0,0,1-7.24,8.16A52.69,52.69,0,0,0,46.66,73.21Z"/><path class="cls-4" d="M24.28,74.4v1.18H21.51C21,73.75,23.13,74.57,24.28,74.4Z"/><path class="cls-4" d="M42.58,74.53c.84.06.89.32,1.84.4-.62,1.09-.84,2.58-1.71,3.42C42.8,76.94,42.49,75.93,42.58,74.53Z"/><path class="cls-4" d="M41.92,77.16c.3.33.36,1-.13,1.19A.62.62,0,1,1,41.92,77.16Z"/><path class="cls-4" d="M44.95,78A.88.88,0,0,1,44.42,79C43.13,78.9,44.06,76.91,44.95,78Z"/><path class="cls-3" d="M30.33,78v2.24A3.9,3.9,0,0,1,30.33,78Z"/><path class="cls-3" d="M29.67,78.21v1.32A1.4,1.4,0,0,1,29.67,78.21Z"/><path class="cls-4" d="M43.1,80.06a.93.93,0,0,0-.26.39h-.66c-.07-.2-.19-.33-.26-.53C41.93,79,43.17,79.21,43.1,80.06Z"/><path class="cls-3" d="M73.51,80.72c-.36,1-2,1.89-2.89,2.76-.27-.28.16-1,0-1.58A16.23,16.23,0,0,0,73.51,80.72Z"/><path class="cls-3" d="M68.77,84.67c-1.37,1.4-3.36,2.16-5,3.29a19.78,19.78,0,0,1-2.63-5.66c1.52.24,3.15-.28,3.69-1.45A4,4,0,0,1,68.77,84.67Z"/><path class="cls-4" d="M42.84,82.16a26.13,26.13,0,0,1-1.71,3.29c-.31-1,0-2.5-.13-3.69C41.64,81.61,41.88,82.14,42.84,82.16Z"/><path class="cls-4" d="M57.19,83c.08.47-.15.64-.26.92a1,1,0,0,1-.92-.26C55.74,82.59,56.84,82.27,57.19,83Z"/><path class="cls-3" d="M51.79,97.7h-.13c-.69-2.69-1.78-5-5.27-4.87,2.58-3.3,5.59-6.17,8.16-9.48,1.33,3.59,2.36,7.47,4.21,10.53-1.07.14-2.93-.4-4.21.13-.5.21-.55.61-1.19,1.18S51.66,96.16,51.79,97.7Z"/><path class="cls-4" d="M58.9,84a.89.89,0,0,1,0,1.19h-.66C57.88,84.7,58,83.87,58.9,84Z"/><path class="cls-4" d="M40.34,84.27c0,.57,0,1.06-.53,1.05C38.79,85.21,39.46,83.56,40.34,84.27Z"/><path class="cls-4" d="M42.18,86.24c-.11-.11-.08-.36-.26-.39C41.9,83.6,44.39,86.36,42.18,86.24Z"/><path class="cls-4" d="M59.56,85.32c.61.93.52,2.55.79,3.82a17.11,17.11,0,0,1-2.24-3A6.27,6.27,0,0,0,59.56,85.32Z"/><path class="cls-4" d="M40.86,86.38a1.26,1.26,0,0,1,0,1.19h-.66C39.79,87.13,39.9,86.15,40.86,86.38Z"/><path class="cls-4" d="M61.66,88.61H61C60,87.24,62.73,87.2,61.66,88.61Z"/><path class="cls-4" d="M38.36,88.35c.59.28,1.21.55,1.84.79-.66,1-1.36,2.06-2,3.16C37.92,91.15,38.42,89.69,38.36,88.35Z"/><path class="cls-4" d="M59.43,89.14c.08.47-.15.64-.26.92a1,1,0,0,1-.92-.26C58,88.78,59.08,88.46,59.43,89.14Z"/><path class="cls-4" d="M61.53,90.72a1,1,0,0,1-.92.26C59.83,89.89,61.79,89.22,61.53,90.72Z"/><path class="cls-4" d="M36.65,91.91c-.82-1.46,1.55-1.42.79,0A.92.92,0,0,1,36.65,91.91Z"/><path class="cls-4" d="M62.19,91c.76.9.82,2.51,1.32,3.69A11,11,0,0,1,60.87,92,3.45,3.45,0,0,0,62.19,91Z"/><path class="cls-4" d="M39.94,93.09a.88.88,0,0,1-.92-.4C38.92,91.07,41,92.08,39.94,93.09Z"/><path class="cls-4" d="M64.69,94H64C63,92.77,65.52,92.41,64.69,94Z"/><path class="cls-4" d="M38,94.28A1,1,0,0,1,37,94C36.77,92.49,38.75,93.18,38,94.28Z"/><path class="cls-4" d="M61.66,95.86c-.11-.11-.08-.36-.26-.39C61.44,93.22,63.87,95.94,61.66,95.86Z"/><path class="cls-4" d="M63.9,96.38c-.81-1.46,1.56-1.42.79,0A.92.92,0,0,1,63.9,96.38Z"/><path class="cls-3" d="M33.36,96.25A11.28,11.28,0,0,0,29.94,99c-.67-.9-1-2.11-2.11-2.63A40.48,40.48,0,0,1,33.36,96.25Z"/><path class="cls-3" d="M22.17,96.38a41.09,41.09,0,0,1,5.27-.13c.24.53-1.41,1.39-1.58,2.37C24.64,97.86,23.92,96.61,22.17,96.38Z"/><path class="cls-4" d="M53.11,99.94c-.38.23-1.26-.41-1.71.13C51.11,99.36,52.75,99.53,53.11,99.94Z"/><path class="cls-4" d="M49.16,100.33c1.13,1.2,2.86-.5,4.08.53.55.07.74-.23,1.18-.26.19.19,0,.64-.13.92-1.81-.1-3,0-4.87-.13A3.36,3.36,0,0,1,49.16,100.33Z"/><path class="cls-4" d="M53.24,103.49c.08.47-.15.64-.26.92-1.22.25-1.23-.7-2.11-.79-.54,0-.57.49-.53,1.05C49.32,102.62,52.11,103.59,53.24,103.49Z"/><path class="cls-4" d="M47.58,105.86c1.48-.3,1.65,1.85,3.29,1.84a1.94,1.94,0,0,0,.39,1.84c-.11.39-.33-.17-.66,0-.91,2.07-4.48,1.27-5.66,0,1.2.25,4.14,2.12,5.13,0-1.69.89-4.38-.1-5.53-1.32,1.76.31,2.62-1.49,4.74-.79A3.72,3.72,0,0,0,47.58,105.86Zm-.4,3c.48-.13.24-1,.92-.92s.61.88,1.19,1.05C49.52,107.36,47,107.07,47.18,108.89Zm-.79-.53c.3.31.7,0,.66-.39C46.64,107.9,46.51,108.13,46.39,108.36Zm3.55.26q0-.7-.66-.66C49.36,108.33,49.43,108.71,49.95,108.63Z"/><path class="cls-4" d="M44.81,110.6a7.38,7.38,0,0,0,5.66.53C50.11,113.23,45.38,112.2,44.81,110.6Z"/><path class="cls-4" d="M19.8,13.31H80.23V124.69H19.67v-111C19.66,13.52,19.65,13.34,19.8,13.31Zm1.05,1.18V50.57c4.81-4.1,10.17-8.79,17.51-10.79-.35-1.64-.67-4.43,1.05-4.48.8,0,1.07.49,1.45,1.18a14.2,14.2,0,0,0,1.05-3.69c-2.28,1.61-3.76-2-1.84-2.76.64-.25.93.37,1.32,0a13.74,13.74,0,0,0,.39-5.27,11.8,11.8,0,0,0-1.58-2.63c-1.68-2.59-3.58-5.29-5-7.64Zm15.93,0c-.15,0-.21.15-.26.26a6.74,6.74,0,0,0,3,3c1.85-.65,2,2.31.53,2.63a2.28,2.28,0,0,1,.39.53c1,.15.92-.75,1.58-.92a1.12,1.12,0,0,0,1.71-.66c-1.23.42-1.88-.69-1.58-1.84a2.34,2.34,0,0,1,1.18-.66c-.33-1.81,2.62-2,2.24,0,1.75,0,1.42,2.87-.26,2.63.6.89,1.88.38,2.5-.13.47.84,2.45.67,2.5-.39-1.93.37-1.64-2.93.13-2.5-.37-1.91,2.71-1.66,2.11.26,1.56-.12,1.43,3-.4,2.5,0,1.1,1.78.85,2.5.53.54.89,2.34.81,2.63-.26-2,.51-1.94-3,0-2.5-.05-1.57,1.62-1.82,2.11-.53.05.14,0,.69.13.92.28.44.78.24.92.79C60.8,19.4,60,19.91,59,19.9c0,.76,1.26.81,1.71.4.21,1,2.16,1.44,2.5.26-1.87.38-1.89-2.19-.66-2.5.58-.14.65.22,1.05.26a1,1,0,0,1,1.58-.66c.64-1,1.38-2,2-3a.86.86,0,0,1-.66-.13H36.78Zm26.72,5c-.08.28-.45.72,0,.79.12-.36.4-.56.53-.92C63.79,19.34,63.74,19.52,63.51,19.5Zm5.13-5C66.79,17,65,19.61,63.24,22.27h3.82c.1-1.59.18-3,1.45-3.16,1.66-.25,2,1.27,2.11,2.77.59-.58,1.8.26,2.63-.13a15.42,15.42,0,0,1,3.16,2.11,3.3,3.3,0,0,1,1.32-.13c2,.88,1.22,5-1.58,3.95A7.43,7.43,0,0,1,75.22,30c0,1.55,1.83,3.06.53,4.34a30.4,30.4,0,0,0,2.11,5.92c.29.58.39,1.33.92,1.58.61-8.71.09-18.43.26-27.38Zm-17,4.21c0-.45.5-.66.13-1.32a1.12,1.12,0,0,0-.79-.13c-.5.69,0,1-.13,1.58-.63,2.73-5.41,3.53-6.06.13.13-.45.41-.82.13-1.32-.31,0-.39-.23-.79-.13-.57.59.06,1.11,0,1.71-.18,1.67-1.44,2.32-3.29,2.5,1.26,1.56,3.38-.06,3.69-1.45,1.43,3.33,5.71,2.06,6.71-.53.48,3.45,6,3.46,6.58.13.38,1.61,3,4.34,4.48,2-3.1.41-4.25-1.83-3.69-3.95-.32.05-.29-.24-.66-.13,0,.1-.11.15-.26.13C58.52,22.21,51.75,22.79,51.66,18.71Zm16.59.92c-1.49,2.65,0,6.7-.66,10.14a1.59,1.59,0,0,0-1.45.53c-.36,1.6,1.25,1.7,2,1.19,1.62-1.15.08-7.54.92-9.35-.18-.3-1,0-.79-.66.34-.33,1.15.28,1.58-.13A1.22,1.22,0,0,0,68.25,19.63Zm1.05,3.95c1,.27,1.65-1.32.79-1.71C69.23,21.85,69.55,23,69.3,23.58ZM71,24.77a1,1,0,0,1,1.45.26c.17-1-.3-2,0-2.76C70.74,21,70.85,23.11,71,24.77Zm1.84.53c.48-.12.7.23.92,0a14.25,14.25,0,0,0-.13-3c-.41.06-.3-.4-.79-.26A7.52,7.52,0,0,0,72.85,25.29Zm1.18.26c.4-.1.48.13.79.13a12.14,12.14,0,0,1,.13-2.5c-.22-.26-.4-.56-.79-.66C73.88,23.46,74.33,24.5,74,25.56ZM62.59,23.32H63.9v-.66C63.18,22.6,62.55,22.63,62.59,23.32Zm1.84,4.34c.87-.27,2.92.64,2.76-.66-.49-.34-1.73.06-2.24-.26.09-1-.17-2.37.13-3.16.6-.15,1.81.31,2-.26v-.53c-.62-.31-1.8,0-2.63-.13ZM69.3,24c-.08,1.71.12,3.67,0,5,1.35,2,7.2,1.8,6.58-1.71-.82.23-1.8,1-2.9.53.43-.05.85-.11.92-.53-.33-.31-1.45-.13-1.84-.13.22.1.22,1.09,0,1.18A6.75,6.75,0,0,0,70.22,26a2.28,2.28,0,0,0,.26-2.63C70.3,23.75,69.79,23.85,69.3,24Zm5.79,1.58c.47-.08.64.15.92.26.34-.84.53-2.48-.79-2.37C74.94,24.18,75.33,25,75.09,25.56ZM61.93,24.11c.36.13,1.83.38,2-.13C63.72,23.49,62,23.58,61.93,24.11ZM48,40.43C48.16,42,46,44,45.08,44.25a8.39,8.39,0,0,1-4-.26,60.62,60.62,0,0,1,4,10.66c2.44-2.52,5.23-5.56,7.5-8.16.3-.34.78-.78.66-1.18-3.34,0-4.33-2.34-5.13-4.87,0-.21,0-.46.26-.4.76,2.64,2,5.45,5.66,4.74,1.71-.75,1.62-4.06-.4-3.69a1.56,1.56,0,0,0-.53,2.5c.88.09,1.38-.2,1.32-1.05,0-.41-.77-.11-.92-.39.07-.46.76-.21,1.05-.13.14.59.38,1.12,0,1.58-1.77,2.12-6.07-1.67-5.4-3.42.94,1.29,1.23,3.24,3.29,3.42.06-.41-.24-.46-.13-.92a2.73,2.73,0,0,1-2.11-2.76c.71.78.77,2.21,2.11,2.37.17-.88-1.58-1.54-1.05-2.76.47.62.85,2.56,1.71,1.58-.27-.66-1.34-1.2-1.05-2,.69.42.91,1.82,1.84,1.58.1-.5-1.2-1.43-.79-2.24.61.84,1.11,2.49,2.11,2.5-.12-1.27-1.95-2.14-1.32-3.29.41.69.48,1.71,1.32,2,.33-1-1.09-1.91-.79-2.9.72.38.45,1.75,1.32,2,.51-1.18-.91-2.23-.79-3,1,.42.82,2,1.58,2.63.49-1.58-.82-3.09-.79-4.21,1.05.84.94,2.83,1.45,4.21,1.16-2.14-1.15-4.44-.92-5.66a10,10,0,0,1,1.58,3.82c.15,1.33-.4,2.71.39,3.29.95-6.25-3-9.78-3.42-15.53-4-.31-9.22-.61-12.64.39-.09.75.22,1.09.13,1.84.77-.37,1.07-.77,2-.79,4.32-.1,2.06,6,1.58,8.82.49.44,1.39.46,1.58,1.19-2.1-.25-2.16-2.22-1.32-3.95-.56.05-.56.67-1.18.66.22-.7,1.32-1.23,1.05-2-.86,1.1-2.46.18-3.42-.13-.53,2.73.82,5.15,1.05,6.71.41,2.74-1.2,4.26-3.82,4.08a2.68,2.68,0,0,0,2.37.66c1.35-.33,1.52-2.34,2.37-3A3.44,3.44,0,0,1,40.07,42c2.4,2.58,4.47-.66,5-2.5,0,2.09-1.7,4.63-4.48,3.55,2.5,2.51,5-.56,5.27-3a4.15,4.15,0,0,1-.4,2.37c-.31.69-1.22,1.21-.92,1.58.64-.25,1.08-.3,1.45-.79.63-.83.15-2.3.92-3a5.45,5.45,0,0,1-.26,2.24c1.08-.15.58-1.88,1.32-2.37Zm28.7-16.19c.1.8-.29,1.12-.26,1.84,1,.45,1-.81,1.05-1.45a1.86,1.86,0,0,1,.79.53c0-.48-.37-.59-.53-.92Zm1.58,1.18c.39,1.6-1.59,1.39-2,1.45C77.1,28.19,79,26.13,78.25,25.43Zm-20,14.88c-.51.15-.75.57-1.32.66-.36-.21-.83-.31-.79-.92.51,0,.63.86,1.18.4,1-1.82-1.54-2.35-2-.79-.87,3.16,3,2.77,3.82,1.18,1.62-3.08-.81-6.88-1.71-9.61-.81-2.44-1-4.86-2-6.85h-.39C55.48,30.09,59.93,34.21,58.24,40.3Zm8.69-15.8c-3.52-.2.89,3.69,0,0Zm-9.09,6.71C59,34.7,61.26,38.93,58.77,42c1.7-.23,2.1-2,2-3.69-.27-3.87-2.89-8.4-3.69-12.11-.12-.55.12-1.55-.66-1.71h-.26C56.58,26.43,57.05,28.83,57.85,31.22Zm3.29-5.92H63.9V24.5C62.75,24.54,61.26,24.23,61.14,25.29ZM57.32,25c.38,5.8,5.73,11.84,2.9,17,3.91-1.69.61-7.57-.53-10.4-1-2.51-1.43-5-2.11-7h-.39C57.21,24.79,57.17,25,57.32,25Zm4.21,17c1.5-.35,1.72-2.37,1.58-3.69-.22-2.09-1.58-4.35-2.37-6.58-.86-2.43-1.23-4.78-2.11-6.85a.61.61,0,0,1-.39-.13C58.25,30.51,64.42,36.5,61.53,42ZM71.8,26.48a1.28,1.28,0,0,0,.13-1.58C70.81,24.67,71.07,26.42,71.8,26.48ZM61.27,32.27c1.3,3.39,3.29,6.48,1.45,9.74,1.51-.45,1.84-3.33,1.32-5C62.92,33.46,60,29.2,59.69,25.16c-.17,0-.18-.17-.4-.13A54.25,54.25,0,0,0,61.27,32.27Zm.79-.39C63.39,35.2,65.9,38.1,63.77,42c1.66-.27,1.88-2.91,1.45-4.48-1.08-4-4.38-8.06-4.74-12.24-.17,0-.18-.17-.4-.13A42,42,0,0,0,62.06,31.88ZM72.2,26.61a1.16,1.16,0,0,0,1.05.26c-.1-.59.17-.79.13-1.32C72.47,25.39,72.27,25.94,72.2,26.61Zm-11.06-.13H63.9v-.79H61C60.91,26.09,61.23,26.08,61.14,26.48Zm12.51.39c.61.31,1.26,0,1.05-.92C74,25.58,73.39,25.93,73.64,26.87ZM75,26.74c.33.34.44.08.92.26A2.46,2.46,0,0,0,75.75,26C75.12,25.85,75,26.23,75,26.74ZM42.31,27.93c.92-.72,3.12-1,3.82.13C46.3,26.09,42.29,26.11,42.31,27.93Zm19.22-.26H63.9v-.79H61.27A2.94,2.94,0,0,0,61.53,27.66Zm-19,.79c1.23-.41,2.54-.54,3.42.26C45.73,27.24,43.16,27.28,42.58,28.45Zm23.17,12c.76-1.59,2.85-4.09,2.76-6.19,0-1.23-.17-2.06.53-3-.66,1.23-3.09,1.43-3.42,0-.28-1.2.65-1.6,1.58-2.24v-.92H61.66C62.57,32.56,66,35.25,65.75,40.43ZM44.68,30.56c.22-.23,1.09-1,.4-1.32-.25.23-.1.87-.66.79-.82.16-.75-.56-1.05-.92A1.08,1.08,0,0,0,44.68,30.56ZM43.1,30c-.08-.32-.11-.68-.53-.66C42.52,29.82,42.62,30.13,43.1,30Zm2.37.13c.43,0,.63-.16.66-.53C45.83,29.35,45.4,29.68,45.47,30.16Zm-4.34,1.05c-.29-.24-.07-1-.66-.92a1.29,1.29,0,0,0,.13,2.5c1.37.14,1.9-1.64,1.18-3C41.65,30.34,41.68,31.07,41.13,31.22ZM69.56,30C68.8,32.6,73.41,32,75,31.48c0-.65.13-.65,0-1.19A10.31,10.31,0,0,1,69.56,30Zm-.66,3.82c.71,0,1.13-1.39.53-1.84C69.08,32.44,68.25,33.23,68.9,33.85Zm5.92-1.58c-.24.47-.06,1.51.66,1.45C76.18,33.4,75.73,32.14,74.83,32.27Zm-4.21,1.84c.36-.29.66-1.52,0-1.71C70.29,32.62,69.57,34.12,70.62,34.11Zm3,.13c.79.07.71-1.75,0-1.71A1.42,1.42,0,0,0,73.64,34.25Zm-2,.13c1,.19,1.1-1.2.66-1.71C71.45,32.58,71.42,33.74,71.67,34.38ZM39.15,37.14c.48.09,1,.26,1.32-.13-.34-3.1-3.37.26-1.32,1.45,2.57.19,3.5-2.62,2.9-4.74C41.88,35.41,40.91,38.74,39.15,37.14ZM68.9,34.38c-.26,2.46-1.72,4.43-2.37,6.06,1.32-1.54,3.25-3.84,2.9-6.19C69.41,34.44,69.11,34.37,68.9,34.38Zm6.32-.13h-.66c-.06,2.13,1.32,3.94,2.37,5.4A43.57,43.57,0,0,1,75.22,34.25Zm-3.16,4.34a5.77,5.77,0,0,0,1.58-3.82c-.47,1-.41,2.57-1.58,2.9-1-.48-1.05-1.84-1.32-3h-.39C70.57,36.31,70.9,37.87,72.06,38.59Zm-33.44,0c1.43,2.46,4.92-.69,3.82-2.76C42.2,37.7,40.77,39.45,38.63,38.59ZM74,35.83C73.59,37,73.37,39,72.2,39.12s-1.78-1.59-2.11-3a28.51,28.51,0,0,1-3.42,5.13,7.77,7.77,0,0,0,3.16-3.16c.81.9,1.26,2.17,2.11,3A5.32,5.32,0,0,0,74,38.46c.9,1,2.08,2.4,3.29,2.63C75.87,39.7,75,37.67,74,35.83ZM38.76,39.51c1.14,2.89,5.71,0,4.21-2.5C42.68,38.89,40.78,40.6,38.76,39.51ZM66.4,42c3.62-.24,7.75,0,11.32-.26-1.73-.29-2.6-1.44-3.69-2.37a4,4,0,0,1-2.11,2.37c-.94-.68-1.38-1.87-2.11-2.77C69.08,40.39,67.68,41.14,66.4,42Zm-20,29.09a53.68,53.68,0,0,0-8-30.94,27.38,27.38,0,0,0-6.45,2.76A42.3,42.3,0,0,1,38,52.68c.49,1.09.68,2.74,2,3.29.29-.19-.05-1,.66-.79.85-.19.13,1.18.92,1.05.38-.14-.12-1.17.26-1.32.69,1.16,1.37,2.32,2,3.55-.57.92,0,.66.13,1.71.05.54-.56.4-.66.79a14.8,14.8,0,0,1,1.45,3.69c-.87,0-1.3.32-1.84.13-.05-.93.5-2,.13-2.76-1.08.19-1.09,1.46-1.84,2a38.45,38.45,0,0,1-8.56,30.67c-.22.26-.62.67-.53,1.05h3.42a2.08,2.08,0,0,1,.39-1.45c.44.4,1.13.54,1.58.92,0,.26-.36.17-.26.53h2.63C43.68,89.44,46,80.85,46.39,71.11Zm11.72-28.7C54,47.22,49.72,51.92,45.6,56.76c.68.13,1.11-1.06,1.71-1.45a10.26,10.26,0,0,1,1.58,2,21.81,21.81,0,0,1-1.71,1.84,2.49,2.49,0,0,1-.92-1.19c.47-.36.51-1.15,1.32-1.18.42.64-.83.94-.53,1.45a1.69,1.69,0,0,0,1.05-1.05,11.3,11.3,0,0,1-.66-.92c-1.68.53-1.62,2.44-.4,3.42,1.09-.58,1.65-1.69,2.5-2.5a17.78,17.78,0,0,1-1.84-2.37c.92-1,1.6-2.18,2.77-2.9.69.89,1.45,1.71,2.11,2.63a17.65,17.65,0,0,1-2.11,2.24,6.58,6.58,0,0,1-1.45-2c.4-.43.66-1,1.18-1.32a3,3,0,0,1,1.05,1.19c-.31.22-.32.73-.92.66-.1-.48.32-.73,0-1.05-.43,0-.28.51-.66.53A3,3,0,0,0,50.61,56c.31-.61.93-.91,1.18-1.58-.56-.54-.89-1.31-1.58-1.71C50,53.76,48.34,54,48.37,54.91c0,.66,2,1.53,1.84,2.37-1.07,1.08-1.87,2.43-3.16,3.29-.16-.45-.53-.7-.79-1.05a24.9,24.9,0,0,0,.26,2.5c2.39-2.4,4.68-5.25,6.84-7.77.73-.85,1.85-1.57,2-2.76A25.79,25.79,0,0,1,53,54a12.81,12.81,0,0,1-2.11-2.63c.63-.77,1.31-1.5,2-2.24A9.4,9.4,0,0,1,54.42,51,6.38,6.38,0,0,1,53,52.55a4.76,4.76,0,0,1-1.05-1.05c.4-.3.72-1.24,1.32-.92.15.66-.84.65-.39,1.18.5-.07.63-.51.79-.92-.27-.3-.44-.7-.92-.79-.35.57-.92.92-1.18,1.58.85.2.87,1.62,1.58,1.58s1-1.74,1.84-2.11c-.35-1-1.29-1.43-1.71-2.37a19,19,0,0,1,2.9-3c.41.12.81,1.5,1.05.92s-.85-.72-.79-1.45c1-.6,1.57-3,2.76-2.11,0-.33.21-.41.26-.66Zm1.84,0A51.86,51.86,0,0,0,53.5,65.58c-.61,13.4,2.84,24.56,8,32.38A33,33,0,0,0,68,95.2a42,42,0,0,1-6.06-9.74c-.52-1.15-.83-2.57-1.84-3.42-.55.06-.1,1.13-.92.92-.67.06,0-1.2-.79-1.05-.48-.43-.06,1.16-.39,1.32-.54-1.35-1.35-2.42-2-3.69.65-.73,0-.71-.13-1.58,0-.51.65-.41.66-.92a12.37,12.37,0,0,1-1.31-3.69c.66.25,1.31-.32,1.84,0a7.29,7.29,0,0,0-.26,2.77c1.07-.21,1.17-1.38,1.84-2C56.91,61,61.34,50.24,67.19,43.46c.24-.28.76-.59.66-1.05H64.43A4.5,4.5,0,0,1,64,43.86c-.44-.4-1.17-.5-1.58-.92,0-.2.54-.59,0-.53Zm-3.29.13c-2.87,3.27-5.86,6.68-8.69,9.87-.9,1-2.33,2-2.5,3.29,3.43-3.2,7-7.91,10.27-11.58.44-.49,1.26-.88,1.18-1.58Zm-25.28.79a44.72,44.72,0,0,0-8.56,6.32c-.81.72-2.21,1.41-2,2.76,3.43-3.16,6.77-6.4,10.93-8.82C31.59,43.56,31.56,43.38,31.39,43.33Zm27.12.26c-.46.59-1,1.14-1.45,1.71.26.13.21.58.66.53C57.74,44.93,58.77,44.35,58.5,43.59ZM32.57,44.78c.06-.41-.35-.35-.39-.66-3.68,1.66-6.45,4.39-9.08,7-.84.83-2.36,1.63-2.24,3.16C24.34,50.76,28.33,47.07,32.57,44.78ZM67.19,69a16.29,16.29,0,0,0,3-8c.44-6.18-1.26-11.36-4.48-14.48,0-.1-.11-.15-.26-.13s-.17.18-.13.39c3.53,3.88,5.22,10.86,3.69,16.59a17.65,17.65,0,0,1-8,10.4C64,73.71,65.7,71.19,67.19,69ZM33.1,48.07c.67-.29.52-1.23,0-1.58C31.93,46.31,31.87,48.27,33.1,48.07Zm21.46.4c.46-.31.92-1.79,1.58-1.05-.22.5-1.22,1-.66,1.45.61.18,1-.95,1.45-1.32-.42-.28-.44-1-1.05-1.05-.46.95-1.43,1.38-1.84,2.37a16.12,16.12,0,0,0,1.71,2c-.07-.51.49-1.08.26-1.32C55.43,50.21,54.85,48.9,54.56,48.46Zm-23.17.66c.51-.14.53-1.3.13-1.58C30.2,47.21,30.13,49.33,31.39,49.12Zm34,1.45c-.79-.67-.16-1.73-.13-2.5-1.74.89.16,4.43,1.71,2.76C66.49,50.39,65.92,51.05,65.35,50.57Zm-38,3a32.29,32.29,0,0,0-6.45,6.71c4.07-4,8.61-8.77,14.35-11.58,0-.15,0-.37-.13-.39A44.86,44.86,0,0,0,27.3,53.6Zm2.11-5a.8.8,0,0,0,.13,1.58C30.52,49.8,30.25,48.53,29.41,48.6Zm6.45,1.18c0-.39-.3-.4-.26-.79a46.39,46.39,0,0,0-11.85,9.08c-1.11,1.19-2.77,2.34-2.9,4.21A46.68,46.68,0,0,1,35.86,49.78ZM65.61,49c-.07.69.06,1.17.79,1.05C66.18,49.65,66.14,49.08,65.61,49Zm10.66,1.19c-.44-.21-.57-.62-1.05-.66,0-.08,0-.16-.13-.13a7.46,7.46,0,0,1-5.79,1.19,2.72,2.72,0,0,0,.39,1.18,7.39,7.39,0,0,0,5.13-1.45c.88.67,2.8,1.66,4.21.92C78.53,50.39,77.17,50.61,76.28,50.17ZM27.44,51.23h.79C29.5,49.35,26.16,49.35,27.44,51.23Zm3.69,2.24c-.26,1.1,1.17,3.19,2.5,3.55.38.1,1.13-.29,1.45.13.6-1.15,2.11-1.4,3.69-1.58-.87-1.8-1.49-3.86-2.63-5.4C35.2,51.12,31.4,52.31,31.12,53.47Zm34.36,5.79a11.19,11.19,0,0,1-4.08,8.69c-.81.66-1.82.93-2.5,1.84C65.4,68.3,67.61,58.36,64.3,52c-.21-.4-.29-1.3-.92-1.18.76,1.74,2.22,3.93,2.11,7Zm-39.1-6.71c.74-.05.86-1.11.13-1.58C25.15,51,25.51,52.6,26.38,52.55Zm40.81-1.05c-1.74,0-.73,4.35,1.05,3A1.79,1.79,0,0,1,67.19,51.49Zm1.45,7c-.05-.75-.87-.57-1.05-1.32-.23-1,.33-1.4.79-2.11C66.79,54.76,66.75,58.63,68.64,58.47Zm-.26,3.82c0-.64-.82-.5-.92-1.05-.59-1.31.6-1.81,1.18-2.37C66.52,58.18,66.46,62.69,68.38,62.29Zm4.21-8.56c1.61,1.42,3.36,3.36,4.87,4.87.5.5,1.22,1.37,1.58,1.18-.48-1.51-2.1-2.62-3.56-4.08-.9-.9-2.82-3.67-3.95-3.42-.1,0-.26,0-.26.13A7.44,7.44,0,0,0,72.59,53.73ZM24.67,52.28a.93.93,0,0,0-.26,1.58h.79C25.56,53.27,25.55,52.3,24.67,52.28ZM67.85,53.6a1.59,1.59,0,0,0-.4-1.19C67.15,52.82,67.33,53.61,67.85,53.6ZM68,68.74A11.68,11.68,0,0,0,66.53,71c-.28,1.11.22,2.63,0,3.55,1.58-.49,2.13-2,2.9-3.29h3.42V54.78c-1-.83-1.48-2.21-3-2.5A20.15,20.15,0,0,1,68,68.74ZM62.85,53.86c-.24-.12-.34-.37-.79-.26-.51,1.32,1,1.75,1.84,2.11,0-1.13.45-2.5-.53-2.9C62.95,52.91,63,53.51,62.85,53.86Zm-8.16-.26c-2.54,3.34-5.64,6.12-8,9.61A93.56,93.56,0,0,0,54.69,53.6Zm-32,.26a1.07,1.07,0,0,0,.39,1.45C24.39,55.41,24,53,22.7,53.86Zm7.37.39a5.4,5.4,0,0,0,.13,3.95c-.66.7-1.71,1-2.11,2,.55.9,1.6,1.3,2.24,2.11a4.58,4.58,0,0,0-.26,3,13.32,13.32,0,0,1,1.18-3.55c-2.29-.38-1.91-3.22.4-3.29C31.19,57.51,30.05,56.12,30.07,54.26Zm.66.26c.16,1.68.65,3,2,3.55.25-.19.58-.29.53-.79C31.82,56.94,31.38,55.62,30.73,54.52Zm-4.48,2.76c1-.36,1.92-.71,2.9-1.05,0-.3.43-1.44,0-1.58A28.84,28.84,0,0,0,26.25,57.28Zm35.41,2.63c-.27,2.15-1.65,3.41-2.5,5.13,2.64-1.48,3.94-6.7,2.24-10.14C61.27,56.29,61.88,58.16,61.66,59.92ZM21.25,56.1c0,.33.23.71.92.66C23.83,55.63,21,54.39,21.25,56.1Zm52.13-.26V67.68c0,1.23-.41,3.17.53,3.55.48-3.44.26-8.23.26-12,0-1.28.28-2.73-.39-3.69-.17,0-.18-.17-.39-.13ZM36,56.49c-1.82,1.23-1.74,5.34-.4,6.71,1,1.05,3.21.84,4.87.4,0-.42-.3-.58-.26-1.05-.56-.17-1,.4-1.18-.13.69-.27,1.93,0,2.63-.26-.15-.6,0-.92-.13-1.32-.85-.1-2,.15-2.5,0,.67-.64,2.68,0,3.55-.39-.24-.24-.17-.79-.4-1.05-1.05-.24-2.29.51-2.9-.13,1,0,1.79-.23,2.9-.13-.34-.47.17-1.07-.13-1.45-1.24-.19-3,.33-3.69-.13a6.73,6.73,0,0,1,1.84-.13V56.36C38.45,56,37.22,55.67,36,56.49Zm32.65.79c-.12-.36,0-.93-.26-1.19A.72.72,0,0,0,68.64,57.28Zm-28,.13c.41,0,1,.09,1.18-.13.16-.87-.58-.83-1.32-.79C40.39,56.92,40.56,57.11,40.6,57.42Zm34,13.82H79V65.45c0-1.84.48-4.34-.66-5.13-.08.31.17,1-.13,1.05-.84-.09-2,.17-2.63-.13.08-.31-.17-1,.13-1.05h2.37c.16-.93-1.35-1.27-2.5-1.32a2,2,0,0,0-1.05-2.37ZM47.05,64.92h6.06c.16-2.83.86-5.81.92-8.29C51.81,59.41,48.85,62.15,47.05,64.92ZM29,56.76c-2,.82-4.64,1.77-5.4,3.42a19.89,19.89,0,0,1,5.66-3A.36.36,0,0,0,29,56.76Zm5.53,6.06a20,20,0,0,1,0-5.4C32.54,57.49,32.48,63.22,34.54,62.81Zm-5.4-5a25.65,25.65,0,0,0-4.87,2.5c-1.36,1-3.2,2.18-3.42,3.95,2.38-2.67,6.18-3.91,8.69-6.45Zm34.75.4c-.27-.17-.24-.64-.79-.53-.66,1,.2,2.34.92,2.76.28-.79,1.44-1.76.66-2.76C64.14,57.57,64.17,58,63.9,58.21Zm-21.59.53c.15,0,.21.15.26.26.49,0,.91-.06.92-.53C43.29,57.83,42.17,57.74,42.31,58.73ZM30.07,60.18a4.8,4.8,0,0,0,2.63,1.58c0-1.21-1.75-.62-1.84-1.71.22-.83,1.8-.31,1.84-1.32C31.62,59,30.53,59.28,30.07,60.18Zm12.77.4c.42,0,.79-.09.79-.53s-.39-.58-.92-.53A2.46,2.46,0,0,0,42.84,60.57Zm-11.19-.4a2.16,2.16,0,0,0,.92.26c-.07-.19.15-.68-.13-.66C32.33,60.07,31.76,59.9,31.65,60.18Zm37-.26c-.87-.22-.89,1.39-.13,1.32C68.42,60.66,68.73,60.49,68.64,59.92Zm-40.94.66c0-.13-.11-.16-.13-.26a13.36,13.36,0,0,0-4,2.37c-1,.84-2.66,1.8-2.76,3.55C23.18,64.4,25.19,62.23,27.7,60.57ZM41.92,62c.58,0,1.13-.09,1.19-.66C42.73,60.63,41.54,60.72,41.92,62Zm-13.82-.79a22.65,22.65,0,0,0-6.06,5h1.18c1.36-2,3.47-3.29,5.66-4.48C28.53,61.68,28.56,61.21,28.09,61.23Zm34.1,3.55c.92-.32,2.2-.94,1.71-2.24-.55-.15-.51.28-.92.26a1.13,1.13,0,0,0-.13-.79C61.32,62,62.22,63.78,62.19,64.79ZM31.78,62.15a5.69,5.69,0,0,0-.92,2.9,4.4,4.4,0,0,1,2.24-2C33.11,62.32,32.4,62.28,31.78,62.15ZM24,66.24c1.28.08,1.9-1,2.63-1.58a10.05,10.05,0,0,1,2.76-1.45c0-.39.39-.67.13-.92A11.5,11.5,0,0,0,24,66.24ZM40.6,62.55c-.05.54,0,.92.53.92.31-.09.8-.69.4-1.05C41.46,62.71,40.87,62.47,40.6,62.55ZM66.8,66.1c-1.88-1.32-3.28,2.58-1.58,2.9-.93-1.16,0-3.41,1.58-2.37a1.31,1.31,0,0,1,.4-.79c-1-1-.76-3,1.05-2.9C66.63,61.58,65.42,65,66.8,66.1Zm-36.33.66H27c0,5-.13,10.6-.13,15.27,0,1.71,1.48,3.19,3.16,3.82-1.43-5.05-1.19-10.54.53-14.35.61-1.36,2.49-3.32,2.76-4.48a13.85,13.85,0,0,0-.13-3.55C31.88,64.14,31.2,65.47,30.46,66.76Zm36.86-1.84c.38,0,.82-1.11.26-1.19A.88.88,0,0,0,67.33,64.92Zm-41.6,1.32c1.86.15,2.22-1.2,3.55-1.58-.08-.23.16-.77-.13-.79A14.68,14.68,0,0,0,25.72,66.24ZM30.33,78c.44-7,4.2-10.72,8.69-13.69H37.44c-4.21,3-7.42,7.06-7.77,14a1.4,1.4,0,0,0,0,1.32,18.78,18.78,0,0,0,2.9,10.27c.49.73,1.16,2,1.84,1.71-1.76-2.85-4.06-6.3-4.08-11.32Zm8.82-11.06c-.68,0-.75-.73-1.32-.66.37,2.24,4,.44,2.63-1.32C40.32,66,40.06,66.87,39.15,66.89Zm20.14.66c1.26.12,2.81,0,2.37-1.19-.09-.26-.73,0-.79-.26a.82.82,0,0,0,0-.92C59.75,64.87,59.59,66.61,59.29,67.55ZM29.41,65.31a4.92,4.92,0,0,0-1.58.92C28.64,66.21,29.27,66,29.41,65.31Zm9.35.66a.58.58,0,0,0,.92-.66C39.3,65.46,38.79,65.48,38.76,66ZM49,72.69h2V70.45h1.71a21.11,21.11,0,0,0,0-2.9c-.57.08-1.49-.17-1.84.13,1,.85.59,2.79-.53,3-2,.42-2.59-2.66-.79-3.42a1.85,1.85,0,0,1,1.32.26V65.31c-.64.06-1.54-.14-2,.13v2.11H47.18a16.07,16.07,0,0,0-.13,2.9c.57.08,1.49-.17,1.84.13C49,71.24,48.72,72.24,49,72.69ZM35.2,68.47c.41,2,3.84-.38,2.24-2C37.63,67.81,36.8,69.42,35.2,68.47ZM20.85,67.16c0,2.55,0,5.77,0,8.29,0,.78-.34,2,.53,2.24.38,0-.11-.9.26-.92.84.09,2-.17,2.63.13,0,.38.07.86-.13,1.05H21.78a2,2,0,0,0,2.5,1.18c-.16,1.3.17,2.12,1.05,2.37-.09-4.87.17-10.09-.13-14.74H20.85Zm5-.4c0,.17-.17.18-.13.4,0,3.8,0,8.33,0,12.11,0,1.2-.38,2.79.66,3.42.24-3.7.13-8.28.13-12.11,0-1.4.32-3.05-.4-3.82Zm39.89,1.45a4,4,0,0,0,.66-1.05c-.1,0-.26,0-.26-.13C65.6,67,65.17,68,65.75,68.21Zm-29-1.05c-.42.13-1,.57-.79.92C36.59,68.11,36.84,67.78,36.78,67.16Zm-2.11,17c.44,1.29,1,2.69,1.84,3.29a18.66,18.66,0,0,1-2.24-7.11A12.85,12.85,0,0,1,38,70.45c1-.9,2.09-1.16,3-2.11,0-.1,0-.26-.13-.26C35.62,69.78,32.44,77.56,34.68,84.14ZM62.45,71.5c-.41-1.54,1.09-2.75,2.24-2C64.23,67.67,60.74,70,62.45,71.5Zm-28.57.26c-.39,0-.41-.3-.79-.26-.11.33-.36.52-.4.92a1.55,1.55,0,0,1,.66,1.45c-.12,1-1.24,1-1.71,1.58,2.3.37,2.42-2.31,1.45-3.42,2,.91,3.11-2.09,1.71-3C35,69.83,35.33,71.6,33.89,71.76Zm.26-2c-.15.39-.75.84-.53,1.19C34.45,71.2,34.62,70.08,34.15,69.79Zm29,1.05a1.49,1.49,0,0,0,.92-.79C63.38,70,63,70.18,63.11,70.84ZM39,70.58c-.53.12-1,.3-.92,1.05.25.38.67.11.92.26-.25.32-.36.78,0,1.05,1.15,0,1.45-1.53,1.32-2.37A1.41,1.41,0,0,0,39,70.58Zm20.41,2.5c-.19-1.66,1.65-2.43,2.5-1.18C62.09,69.78,58,71.07,59.43,73.08Zm11.19-.26c.44-.4,1.09-.57,1.45-1.05C71.36,71.81,70.33,72.22,70.62,72.82Zm3.55-1.05c-1.89-.17-2.1,1.32-3.55,1.58v.79A8.46,8.46,0,0,0,74.17,71.76Zm1.71.26c0-.17.21-.27-.13-.26-1.17,0-1.76,1-2.5,1.58a6.64,6.64,0,0,1-2.76,1.45c0,.37-.24.55-.26.92C72.78,75.16,74.26,73.52,75.88,72Zm.92-.26A12.85,12.85,0,0,1,71,76.11a1.06,1.06,0,0,0,.79.66,19.12,19.12,0,0,0,6.06-5Zm1.84,0a24.57,24.57,0,0,1-4.87,4.61c-.53.36-1.45.47-1.58,1.18.68.37,1.4-.45,2-.79a16.05,16.05,0,0,0,2-1.32c1.15-.92,2.83-1.93,2.9-3.69Zm-18.56.92c.51,0,1-.09,1.05-.53C60.81,71.63,60.07,72.1,60.08,72.69Zm8.42,3.55c2.51.36,2,3.31-.39,3.42a6.63,6.63,0,0,1,1.71,4.08c.67-1.16.21-2.74-.13-3.95.74-.62,1.7-1,2.11-2-.55-.89-1.72-1.18-2.24-2.11.33-.52.73-2.31.13-2.9A6,6,0,0,1,68.51,76.24Zm-30,7c.17-1.38-.44-2.55-.39-3.95a10.17,10.17,0,0,1,2.63-6.06c0-.1,0-.26-.13-.26C38.16,74.57,36.68,79.76,38.49,83.22ZM69.17,73.08c-.48.53-1.66,1.5-2.37,2.24.18.44.86.37,1.19.66A6.1,6.1,0,0,0,69.17,73.08Zm-36.86,0c0,.52-.3.66-.26,1.19C32.84,74.38,32.84,73.24,32.31,73.08Zm5.13.13c-.64.58-2,1-1.58,2.24.55.43.67-.45,1.05-.13a1.13,1.13,0,0,0,.13.79C38.39,76.22,37.81,73.73,37.44,73.21Zm8.16,8.16a73.86,73.86,0,0,0,7.24-8.16H46.66A52.69,52.69,0,0,1,45.6,81.37Zm31.59-5c.91-.75,2.34-1.45,1.71-2.77-2,3.08-6.2,4-8.56,6.71C72.73,79.77,75.34,77.9,77.2,76.37ZM62.59,82c2.63-.4,3.92-5.5,1.45-7.37-1.15-.87-2.69-.56-4.61-.26,0,.42.23.56.13,1.05.36.12,1.23-.27,1.18.26-1-.1-1.57.18-2.5.13-.18.22.11.77,0,1.32,1,.16,1.86,0,2.63.13-.93.58-2.24,0-3.55.13,0,.43.22.66.13,1.19,1,.09,2.28-.17,3,.13-.66.31-1.88,0-2.76.13,0,.38,0,1,0,1.45,1.15.17,3-.34,3.69.26-.6.06-1.45-.13-1.84.13v.92A7.38,7.38,0,0,0,62.59,82Zm-17.51,2.5c2-2.36,4.19-4.93,6.19-7.24.67-.78,1.71-1.42,1.84-2.5C50.52,78,47.23,81.29,45.08,84.53Zm13-9a2.84,2.84,0,0,0,1.19-.13C59.48,74.24,57.9,74.61,58.11,75.58Zm7.11-.13c.47,1.28.29,3.78.13,5.27C67.36,80.68,67.43,74.41,65.22,75.45ZM66,88.09A54.74,54.74,0,0,0,79,76.9c-.08-.4.17-1.13-.13-1.32a41.52,41.52,0,0,1-13,11.72c-.6.36-1.71.59-1.84,1.45C64.71,89.42,65.48,88.41,66,88.09ZM31.52,75.84c.63.55,1.51,1.51.79,2.63-.18.44-1.1.13-1.05.79C33.22,79.85,33.54,75.48,31.52,75.84ZM32.31,81c.21.9-.22,1.34-.79,2,1.7.31,1.51-3.54-.26-3.42C31.18,80.3,32.14,80.24,32.31,81Zm.92,3.82c.17.85-.39,1.07-.53,2,1.54-.57,1.09-3.88-1.05-3.42C32.07,84.07,33,83.89,33.23,84.8Zm12.9,2.5c.74,1.26,1.69.31,2.11-.79-.56-.49-.81-1.3-1.58-1.58-.49.87-1.29,1.43-1.84,2.24a15.33,15.33,0,0,1,1.84,2.24,39.89,39.89,0,0,1-2.9,3c-.54-.16-.65-1.31-1.19-1.05,0,.74.73.85.92,1.45a17.72,17.72,0,0,1-2.24,2.5c-.34-.46-.71-.11-.79.39h1.32C44.95,92.2,48,88.25,51.13,84.8c1-1.15,2.47-2.15,2.9-3.69-.55.5-.8,1.31-1.58,1.58a6.57,6.57,0,0,1-1.45-2c.52-.66,1.17-1.19,1.71-1.84.28.46.76.73.92,1.32-.58.26-.5,1.16-1.45,1.05,0-.68.62-.7.66-1.32-.45-.21-.85.6-1.19.92.36.29.49.83.92,1.05a2,2,0,0,0,0-3.55A29.22,29.22,0,0,0,50.34,81a18,18,0,0,1,1.84,2.37c-1,.91-1.71,2.06-2.76,2.89a26,26,0,0,1-2.11-2.76,21.9,21.9,0,0,1,2.11-2.24c.39.75,1.09,1.19,1.45,2-.39.49-.77,1-1.19,1.45a2.55,2.55,0,0,1-1.05-1.32c.29-.2.31-.66.79-.66.4.47-.32.61,0,1.05,1.24-.22.48-1.28-.26-1.58-.17.66-.9.77-1.05,1.45.46.63.82,1.38,1.58,1.71a15.61,15.61,0,0,1,1.71-2c-.35-1.06-1.39-1.42-1.71-2.5a17.8,17.8,0,0,1,3-3.29c.37.29.58.73.92,1.05a12.32,12.32,0,0,0-.4-2.63c-2.16,2.62-4.68,5.26-6.84,7.77-.74.85-1.75,1.74-1.84,2.9A17,17,0,0,1,46.92,84c.59,1,1.62,1.63,2.11,2.77-.75.7-1.3,1.59-2.11,2.24-.41-.73-1.19-1.09-1.45-2a17.65,17.65,0,0,1,1.45-1.58c.21.49.82.58.92,1.19-.4.34-.43,1.06-1.18,1.05C47.34,86.33,46.79,86.08,46.13,87.3ZM56.79,76.77c.14.34.54.43,1.05.4C58.58,76,56.88,75.6,56.79,76.77ZM69,78c-.19.86-1.66.44-1.84,1.32.82,0,2.29-.51,2.63-1.45a4.69,4.69,0,0,0-2.63-1.45C67.25,77.46,68.87,77,69,78Zm-37.78.13c.55.46,1.08-1.23.13-1.19C31.48,77.43,31.26,77.65,31.25,78.08Zm3.82,2.24c.67.19.56-.4.92-.53.15.25.16.63.66.53,1-.79-.28-2.21-.79-2.77C35.58,78.42,34.59,79.12,35.07,80.32Zm21.06-2.24c.24.28.38.67,1.05.53.1-.5-.16-.63-.13-1.05A.74.74,0,0,0,56.14,78.08Zm11.19-.53c0,.22,0,.44,0,.66.29-.15.85,0,.92-.39A2.15,2.15,0,0,1,67.33,77.56Zm4.87,7.11c2.69-2.3,5.52-4.43,6.85-7a64.79,64.79,0,0,1-14.48,12C67.12,88.86,69.76,86.75,72.2,84.67Zm-1.58-3.55c2.13-.24,5-1.63,5.66-3.29C74.77,79.3,72.49,80,70.62,81.11Zm-47.26-.66c-.93-.65-1.46-1.7-2.5-2.24.18,1.53,1.63,1.8,2.24,2.9a39.65,39.65,0,0,0,3,3c.76.6,1,1.74,2.37,1.71-.43-1.24-2.22-2.25-3.16-3.42A16.79,16.79,0,0,0,23.36,80.45Zm33-1.19c-.12.74.47.76.92.92C57.78,79.37,57.07,78.66,56.4,79.27Zm10.66.79c-.26.09-.35.35-.39.66a5.24,5.24,0,0,1,2.5,2.9C69,81.86,68.59,80.42,67.06,80.06Zm-9,1.32a1.64,1.64,0,0,0,1.19.26v-.92C58.85,80.43,57.78,80.47,58.11,81.37Zm12.51.53c.16.61-.27,1.3,0,1.58.92-.88,2.53-1.76,2.89-2.76A16.23,16.23,0,0,1,70.62,81.9ZM31.25,80.85a2.45,2.45,0,0,1,.13,1.05C31.86,82,31.77,80.64,31.25,80.85Zm33.57,0c-.53,1.16-2.16,1.68-3.69,1.45A19.78,19.78,0,0,0,63.77,88c1.64-1.13,3.63-1.9,5-3.29A4,4,0,0,0,64.82,80.85Zm13.82,1.58c-.94-3.39-2.27,1.94,0,0ZM45.74,92.56c1.93-2.18,3.88-4.18,5.79-6.32A27.77,27.77,0,0,0,54.42,83c.12-.2.05-.26,0-.53,0-.1,0-.26-.13-.26C50.48,86.69,46.45,91,42.71,95.59,44,95,44.8,93.63,45.74,92.56Zm-9.08-7.37c.41,0,.11-.77.39-.92.25.06.24.38.66.26.76-1.09-.74-1.9-1.71-2.11C36,83.35,35.42,85.19,36.65,85.19Zm39.76-2.37c-.72.28-.65,1.69.4,1.58C77.55,84.18,77.53,82.6,76.41,82.82ZM51.66,97.7v.39c-.89-1.06-.84-2.85-2.11-3.95-1.63-1.42-5.29-1.44-5,2,.1,0,.15.11.13.26,1.15,1.61,3.46-.33,2.11-1.84-1-.12-1.46.21-1.32,1.19.11.28.84,0,.92.26-1.71.75-1.56-1.53-.26-1.84A3.83,3.83,0,0,1,50.61,98c-.78-1.33-1.34-3.58-3.29-3.29.53,1.31,2.71,1.67,2.24,3.55-.63-.87-.67-2.31-2.11-2.37.27,1,1.51,1.65,1.18,2.76-.61-.46-.61-2.17-1.58-1.84-.47.85,1.52,1.55.79,2.24-.49-.54-.88-1.81-1.71-1.58-.16.47,1.32,1.68.66,2.24-.57-1-.87-2.2-2-2.63,0,1.58,1.52,1.73,1.45,3.42-.71-.43-.57-1.72-1.45-2-.46,1.05,1.13,1.84.66,2.9-.54-.51-.47-1.64-1.18-2-.76,1,1,2.11.66,3-.85-.55-.75-2.06-1.58-2.63-.36,1.83,1.09,3.18.79,4.08-1.09-.83-.79-3.22-1.58-4.21-.66,2.36,1,4.16,1.19,5.66-1.75-1.47-1.34-4.64-2-7-1.17,5.91,3,9.66,3.29,15.4a44.64,44.64,0,0,0,12.64-.13c-.09-.66.17-1.66-.13-2.11-2,1.69-4.47.6-4.61-1.84-.12-2.06,1-4.24,1.18-5.92-.32-.65-1.38-.55-1.58-1.32,2.1.07,2,2.2,1.32,3.82.2.28.81-.84,1.05-.53-.3.75-1,1.11-1.18,2,.9-1.17,2.75,0,3.69-.13-.4-.7,0-1.2,0-2-.05-1.73-1.06-3.54-1.18-4.87-.21-2.27,1.18-4,3.82-3.55-1.74-2.13-4.24.39-4.48,2.24a3,3,0,0,1,4.08-3.16c-.14-1.12-1.78-1.19-2.9-.92-1.08.72-1.3,2.3-2.11,3.29.18-2.55,2-4.35,4.61-3.69a3.22,3.22,0,0,0-2.5-.79c-1.91.26-2.19,2.53-2.9,3.95,0-1.88.83-2.85,1.58-3.95-1.94.12-2.1,2-2.37,3.82-.67-.43.22-1.74-.13-2.24-.75.14-.64,2.91-1.19,2-.13-1.54.87-1.86,1.58-2.5s.68-1,1.19-1.18c1.28-.54,3.14,0,4.21-.13-1.85-3.06-2.89-6.94-4.21-10.53C52,86.65,49,89.53,46.39,92.83,49.88,92.72,51,95,51.66,97.7Zm17-5.27c-.43.25-1.11.56-1.32,1.05.28.78,1.12.23,1.58,0,3-1.52,5.21-3.76,7.5-6.06,1-1,3.08-2.2,2.5-3.69A42.27,42.27,0,0,1,68.64,92.43Zm5.79-7.11c.32.12.35.53.92.39C77,84.86,74.21,83,74.43,85.32Zm-42,.39c.18-.17.13-.57.13-.92-.26,0-.17-.36-.53-.26A1.59,1.59,0,0,0,32.44,85.72ZM73.64,87c.79-.06.88-1.84-.26-1.58C72.49,85.66,72.91,87.1,73.64,87ZM71,92.7c-1,.69-2.23,1-2.76,1.84,1,.19,2-.82,2.9-1.45a48.27,48.27,0,0,0,5.53-4.21c1-.87,2.8-2.13,2.24-3.29A57.05,57.05,0,0,1,71,92.7ZM25.07,87.82a8.36,8.36,0,0,0-1.45-.92c-.64-.22-2.46-.63-2.76.13,1.21.63,3,.67,3.82,1.71a8.31,8.31,0,0,1,5.92-1.32,3.45,3.45,0,0,0-.4-1.05A7.22,7.22,0,0,0,25.07,87.82ZM33,87.3c.34.33.64-.13,1.18,0,1.36.36.23,2.44.79,2.76C36.15,88.69,34.52,85.82,33,87.3ZM72.2,88.48c.59-.15.68-1.14.26-1.58A.82.82,0,1,0,72.2,88.48Zm-28.3.13a.36.36,0,0,1,.26-.39,5.58,5.58,0,0,1,1.19,1.45c-.56.27-.79,1.58-1.58,1.19,0-.75,1.28-1,.53-1.71-.61.27-.85.91-1.32,1.32a3,3,0,0,0,.92,1.18c.6-.8,1.32-1.49,2-2.24a11.82,11.82,0,0,0-1.71-2.11C44.17,87.76,43.61,88.32,43.89,88.61Zm17.64,10c.34,1.69.48,4.11-1.05,4.21-.85.06-1.24-1.08-1.58-.92A8.89,8.89,0,0,0,58,105.2c1.8-1.47,3.83,1.84,2,2.76-.62.31-1.26-.22-1.45,0-.79,1.45-.38,3.49-.4,5.53,2.15,3.34,4.36,6.61,6.45,10H79c-.09-12,.18-24.31-.13-36.07A48.14,48.14,0,0,1,61.53,98.62ZM34.28,89.14a2.48,2.48,0,0,0-.13-1.05c-.19.07-.68-.15-.66.13C33.84,88.45,33.78,89.08,34.28,89.14Zm36.2.4c.78-.06.92-1.85-.26-1.58C69.3,88.16,69.75,89.59,70.48,89.54Zm-2-.53c-.56.25-.54.93-.26,1.45C69.42,91.21,70,88.79,68.51,89Zm-2.24,1.84c0,.4.36.66.92.79C68.91,90.46,66.15,89.17,66.27,90.85ZM41.39,94.54c.28-.77,1.12-1,1.32-1.84-.25-.05-.1-.51-.53-.4C42.12,93.13,40.94,94.06,41.39,94.54Zm2.37,1.32a.62.62,0,0,1,.39.13c-.07-.19.15-.68-.13-.66C44,95.59,43.67,95.5,43.76,95.86Zm0,3.55c1.46-.46.59-3.18-.26-3.42-2.62-.75-3.41,2.52-3.16,4.74.31,2.73,2.28,6.76,3,9.74.29,1.15.32,2.46,1.05,3.29.85-4.83-4.36-9.25-3.29-14.74A2.18,2.18,0,0,1,43,97.17c.34.19.74.31.79.79-.39.35-.7-.84-1.32-.26A1.12,1.12,0,0,0,43.76,99.41Zm-15.93-3c1.06.52,1.43,1.73,2.11,2.63a11.28,11.28,0,0,1,3.42-2.76A40.48,40.48,0,0,0,27.83,96.38Zm6.71,3.42c.25,2.15,1.63,4.24,2.63,6.45a29,29,0,0,1,1.71,5c.13.48.19,1.35.79,1.58-.12-5.71-6.14-10.72-3.69-16.59,0-.08,0-.16-.13-.13C34.71,96.79,34.34,98.1,34.54,99.8Zm3.69,6.71c.9,2.37,1.36,4.55,2.24,6.58a30.57,30.57,0,0,0-1.84-6.85c-1.13-3.12-3.37-6.88-1.45-10-.17,0-.18-.17-.4-.13C34,99.7,37,103.21,38.23,106.52Zm.79-.26c.43,1.22.87,2.39,1.18,3.55s.16,2.76,1.32,3.42c.14-4.53-3.64-8.79-4.08-13.3a4.58,4.58,0,0,1,.92-3.69c-.17,0-.18-.17-.4-.13C35.22,99,37.81,102.85,39,106.26Zm.26-10.14a3.21,3.21,0,0,0-1.58,3c0,2.9,1.62,5.22,2.63,7.9a47.55,47.55,0,0,1,1.45,4.87c.12.45.06,1.35.66,1.45.08-5.52-5.7-12.19-2.9-17.25Zm.92.13c-1,.94-1.26,2.5-1.05,4.34.35,3.09,2.41,6.72,3.16,9.74a9.22,9.22,0,0,0,1.05,3.29c.51-4.26-3-8.61-3.42-13.16A6.5,6.5,0,0,1,41,96.12C40.59,96,40.61,96.35,40.21,96.25ZM20.85,123.5H31.39c1.72-2.62,3.61-5.08,5.27-7.77H32.83c-.16,1.66-.18,3.16-1.58,3.29-1.58.15-1.87-1.4-2-2.9-.76.93-1.7-.35-2.5.26-1.24-.65-2.33-1.44-3.55-2.11-3,.83-3-5,.53-3.95a6.12,6.12,0,0,1,.92-2.24c-.15-1.66-1.76-3.12-.53-4.61A33.13,33.13,0,0,0,22,97.7c-.24-.5-.47-1.22-.92-1.45h-.26Zm5-24.88c.18-1,1.82-1.84,1.58-2.37a41.09,41.09,0,0,0-5.27.13C23.92,96.61,24.64,97.86,25.86,98.62ZM32.31,98c.25-.3.83-.68.66-.92a10.39,10.39,0,0,0-3,3c-.55-.54-1.46-3.21-2.24-3.16s-1.5,2.5-1.84,2.77c-.87-.85-1.77-2.36-3-2.37,1.3,1.33,2,3.23,3,4.87.44-1.36.7-2.9,2.11-3.29,1.3.46,1.39,2.12,2.11,3.16A10.9,10.9,0,0,1,32.31,98Zm24.62,3.16a2.9,2.9,0,0,1,4.21-2.5C60,95.76,55.3,98.47,56.92,101.12Zm-26.46,2.63c.95-.65.88-2,1.32-3s1.17-2,1.58-2.9c.07,0,.15-.11,0-.13C32.08,99.17,30.09,101.57,30.46,103.75Zm.92,0c0,.41.31.77.26,1.19-.08.69-.94,1.27-.66,2,1.92-3.2,5.15,1.55,1.71,2.11,0,.31-.21.49-.13.92a45.67,45.67,0,0,0,5.53.13c-.58-4.25-4.26-7.23-3.95-12.37C33.31,99.47,31.34,101.4,31.39,103.75Zm-6.45.13c1.09-.5.07-1.77-.26-2.5a7.79,7.79,0,0,0-1.45-2.5C23.81,100.54,24.22,102.37,24.93,103.89Zm32.39-1.58c.25-1.81,2-3.82,3.95-2.63C60,96.92,56.24,100.25,57.32,102.31ZM27.83,99.54a5.68,5.68,0,0,0-1.58,3.69c.43-1.07.51-2.48,1.58-2.9,1.08.5.88,2.28,1.58,3.16C29.52,102.06,28.93,100.2,27.83,99.54Zm29.88,4.87c.26-1.65,1.2-5.06,3-3.42-.63-.08-.79-.37-1.32,0,.08,3.22,3.25,0,1.32-1.32C58.06,99.45,57.2,102.3,57.71,104.41ZM28,105.47a1.56,1.56,0,0,0,.26-1.71C27.26,103.19,26.91,105.43,28,105.47Zm-1.71,0c.41-.21.35-1.36,0-1.58h-.4C25.67,104.37,25.56,105.46,26.25,105.47Zm3-1.58c-.37.41-.6,1.52,0,1.84a2.23,2.23,0,0,0,.53-1.58C29.54,104.15,29.64,103.79,29.28,103.89Zm-4.21,2a1.64,1.64,0,0,0-.26-1.45C23.52,104.29,24.16,106,25.07,105.86Zm6.06-1.58h-.39c-.47.28-.58.91-.53,1.71A1.29,1.29,0,0,0,31.12,104.28ZM58,108.36c.22-.53.22-1.27.66-1.58.24.37.24,1,.79,1.05,1-.16,1-2,.26-2.5C57.73,104.89,57.33,107,58,108.36Zm-33-1.71c0,.6-.13.73.13,1.18a7.1,7.1,0,0,1,5.13.26,1.51,1.51,0,0,0,.13-1.32A6.63,6.63,0,0,0,24.93,106.65Zm5.92,9.21c.05.47,1,0,.79.79-.56.05-1.36-.13-1.71.13-.15,1.2.42,2,1.45,1.71,1.93-.51.25-8.35.79-10,.85-.25,1.85-.34,1.58-1.71C29.4,104.6,31.81,113.18,30.86,115.87Zm23.7-7c.51-.19.33-1.07,1.18-.92.48.09.41.73.79.92C56.85,106.75,54,107.47,54.56,108.89Zm-30.54,2c.79-.31,1.83-1.07,2.9-.66-.29.23-.95.11-.92.66.54.31,1.15-.2,1.71.13.08-.4-.17-1.13.13-1.32.3,1.1,1.21,1.59,1.71,2.5-.53.72-.44,1.34-.39,2.5.56-.1.7-.61,1.45-.53.07-1.87-.08-3.52-.13-5.27C28.81,107.14,23.46,107.33,24,110.86Zm29.75-2.37h.53c-.11-.37.19-.34.13-.66C54.06,107.91,53.68,108,53.77,108.49Zm3.42.26c.35-.36,0-.72-.4-.79A.75.75,0,0,0,57.19,108.76Zm.13.79a3.5,3.5,0,0,1-3.42-.13C54.17,110.82,56.87,110.73,57.32,109.55Zm0,.53c-.73,1.1-2.88.87-3.69,0C53.56,112,57.84,112,57.32,110.07Zm-24.75,1.05c.51.28,1.51.07,2.24.13,0,1,.35,2.34,0,3.29-.6.15-1.81-.31-2,.26v.39c.62.31,1.8,0,2.63.13a37.36,37.36,0,0,0-.13-5C34.37,110.56,32.36,109.73,32.57,111.13Zm3.29,0h2.63c.1-.4-.23-.39-.13-.79C37.48,110.55,35.58,109.75,35.86,111.13Zm-14.35.66c-.2,2,.17-.43.79-.53.47-.5,1.21.49,1.32-.13C22.81,110.31,21.57,111.25,21.51,111.78Zm1.84.13c-.57-.13-.6.27-.92.39-.15.43.4.81,0,1.05S22,113,21.64,113a1.14,1.14,0,0,0,1.45.92C23.17,113.27,23.6,112.44,23.36,111.92Zm.92.26a.71.71,0,0,0,.66-.79c-.1,0-.15-.11-.13-.26H24A1.16,1.16,0,0,0,24.28,112.18Zm.92-.13a2.16,2.16,0,0,0,.92.26,1.25,1.25,0,0,0,0-1.18Q25,111,25.2,112Zm1.45.53c.79.13.79-.53,1.05-.92C27.27,110.57,26,111.54,26.65,112.57Zm9.21-.26a12.55,12.55,0,0,0,2.9.13v-.79a12.52,12.52,0,0,0-2.9-.13Zm-8.16.53c.31,0,.24.46.66.39.47-.4.31-.92.13-1.58C27.82,111.64,27.68,112.16,27.7,112.84Zm5.92.92c.82,0,1-1.31.26-1.84A.93.93,0,1,0,33.62,113.76Zm-9,.79a8.71,8.71,0,0,0,0-2.11,1.12,1.12,0,0,1-.79-.13C23.54,113,23.3,114.82,24.67,114.55Zm.26.26c.25.28.36.69.92.66a9.56,9.56,0,0,1,0-2.9c-.4.1-.39-.23-.79-.13C24.83,113.2,25.18,113.93,24.93,114.81ZM27,116a14.84,14.84,0,0,0,.13-3.16c-.5.1-.63-.16-1.05-.13C26.11,113.79,25.58,116,27,116Zm8.82-2.5c1-.15,2.85.48,2.76-.79C37.69,113,35.62,112.07,35.86,113.5Zm-8.42,2.24a2.56,2.56,0,0,0,1.18.53c.59-.63.23-1.89.13-2.9-.6.36-.86-.12-1.32-.26C27.32,114,27.61,115.17,27.44,115.73Zm8.42-1.32c.83,0,2,.24,2.11-.53H35.86Zm-5.92,1.84c.6-.19.45-1.13.66-1.71C29.8,114,28.73,116,29.94,116.26Zm5.92-.92c.68,0,1.42.1,1.45-.53H35.86Zm1.58.92c2.08-.31,3.73.59,3.95,2.37.09.7-.71,1.95.66,1.58-1-4.1,6.23-5.13,6.19-.79a1.23,1.23,0,0,0-.13,1.32c.25,0,.29.15.53.13.55-.08.43-1,.26-1.45.46-3.11,5.42-3.57,6.06-.53.12.56-.58,1.44.53,1.71.9-.41.15-1.34.26-2.11.21-1.38,1.35-2.06,3.16-2-1-2-3.19-.1-3.68,1.32-1.14-3.32-5.58-2.28-6.58.53-.47-3.57-6-3.39-6.71-.13C41.69,116.26,38.85,113.93,37.44,116.26Zm-.66,1.32c1.28-.65,1.85,2,.66,2.37-1.56-.52-1.44,1-2.9.53-.49,1.13-1.35,1.89-1.84,3,10.18-.09,20.71.18,30.67-.13A18.9,18.9,0,0,1,61.93,121c-1,.22-1.16-.42-1.58-.79-1.88.84-2-2.35-.53-2.5-.5-1.09-1.64-.2-2,.39-.48-.69-2,0-1.58.66,1.81-.76,1.92,2.71.13,2.5a1.1,1.1,0,1,1-2.11,0c-1.61-.05-1.7-2.76.13-2.63-.34-1.08-1.81-.26-2.37,0-.66-.69-2.29-.69-2.5.4,2.08-.1,1.29,3.07-.13,2.63.22,2-2.84,1.34-2.11-.26-1.52,0-1.63-2.93.39-2.5-.44-1.25-1.44-.95-2.5-.53-.38-1-2.79-.77-2.5.26,1.86-.55,1.49,3.07-.13,2.5-.07,1-.64,1.34-1.18,1.32-1.1,0-.6-1-1.05-1.71-.29-.45-.81-.27-.92-.79-.23-1,.2-1.9,1.45-1.71-.18-.83-1-.81-1.71-.53C39,116.74,36.48,116.35,36.78,117.58Zm-.39.13c-.12.36-.4.56-.53.92A.56.56,0,0,0,36.39,117.71Z"/><path class="cls-3" d="M71.27,52.41a7.43,7.43,0,0,1,1.32,1.32A7.44,7.44,0,0,1,71.27,52.41Z"/><path class="cls-3" d="M23.09,81.11a39.36,39.36,0,0,1,3,3A39.65,39.65,0,0,1,23.09,81.11Z"/><path class="cls-3" d="M23.36,80.45a16.79,16.79,0,0,1,2,2A16.75,16.75,0,0,1,23.36,80.45Z"/></g></svg>