<svg xmlns="http://www.w3.org/2000/svg" viewBox="0 0 101.07 140"><defs><style>.cls-1{fill:#fff;}.cls-2,.cls-4{fill:#231f20;}.cls-3{fill:#c4161c;}.cls-3,.cls-4{fill-rule:evenodd;}</style></defs><title>Монтажная область 42</title><g id="cards"><path class="cls-1" d="M98,0S68.82.79,50.53.79,3,0,3,0A2.94,2.94,0,0,0,0,3V135.9A3.17,3.17,0,0,0,3,139s29.21,1,47.5,1S98,139,98,139a3.17,3.17,0,0,0,3-3.13V3A2.94,2.94,0,0,0,98,0Z"/><path class="cls-2" d="M11.58,12.17,9.72,8.81,8.65,10.07v1.87Q8.72,13,9.07,13l.26,0a.57.57,0,0,1,.22,0,.46.46,0,0,1,.34.14.47.47,0,0,1,.14.35.59.59,0,0,1-.16.42.52.52,0,0,1-.39.17,5.53,5.53,0,0,1-.65-.1,3.58,3.58,0,0,0-.67-.07,3.9,3.9,0,0,0-.68.09,3.92,3.92,0,0,1-.68.09.52.52,0,0,1-.39-.17.58.58,0,0,1-.16-.42q0-.49.46-.49a.51.51,0,0,1,.22,0l.26,0q.28,0,.35-.43a17.45,17.45,0,0,0,.07-2.1V7.75a17.66,17.66,0,0,0-.07-2.11q-.07-.43-.35-.43l-.23,0a1,1,0,0,1-.25,0q-.46,0-.46-.5a.5.5,0,0,1,.57-.57,4,4,0,0,1,.67.07,4.44,4.44,0,0,0,.74.09,2.72,2.72,0,0,0,.57-.06,3.83,3.83,0,0,1,.7-.1.52.52,0,0,1,.39.17.57.57,0,0,1,.16.4.5.5,0,0,1-.14.35.45.45,0,0,1-.34.15l-.2,0a1.08,1.08,0,0,0-.28,0q-.35,0-.42,1.1V8.66l1.81-1.95a4.58,4.58,0,0,0,1-1.29q0-.13-.16-.13H11q-.45,0-.45-.55T11,4.22a2.09,2.09,0,0,1,.44.06,2.9,2.9,0,0,0,.45.07,3.1,3.1,0,0,0,.46,0,4.25,4.25,0,0,0,.68-.08,4.25,4.25,0,0,1,.67-.08.47.47,0,0,1,.54.54.56.56,0,0,1-.14.38.44.44,0,0,1-.34.16.49.49,0,0,1-.22,0l-.23,0q-.23,0-.62.42l-.49.54L10.46,8,13,12.48a2,2,0,0,0,.31.44.44.44,0,0,0,.3.09.81.81,0,0,0,.25,0l.28,0q.45,0,.45.52t-.52.55a4.15,4.15,0,0,1-.7-.09,4.18,4.18,0,0,0-.71-.09,4,4,0,0,0-.69.09,4,4,0,0,1-.69.09.48.48,0,0,1-.54-.54q0-.53.51-.53h.39q.19,0,.19-.17a.71.71,0,0,0-.1-.36Z"/><path class="cls-2" d="M89.28,126.78l1.86,3.37,1.07-1.26V127q-.07-1.09-.42-1.09l-.26,0a.57.57,0,0,1-.22,0,.46.46,0,0,1-.34-.14.47.47,0,0,1-.14-.35.59.59,0,0,1,.16-.42.52.52,0,0,1,.39-.17,5.54,5.54,0,0,1,.65.1,3.59,3.59,0,0,0,.67.07,3.9,3.9,0,0,0,.68-.09,3.92,3.92,0,0,1,.68-.09.52.52,0,0,1,.39.17.59.59,0,0,1,.16.42q0,.49-.46.49a.51.51,0,0,1-.22,0l-.26,0q-.28,0-.35.43a17.43,17.43,0,0,0-.07,2.1v2.76a17.64,17.64,0,0,0,.07,2.11q.07.43.35.43l.23,0a1,1,0,0,1,.25,0q.46,0,.46.5a.5.5,0,0,1-.57.57,4,4,0,0,1-.67-.07,4.45,4.45,0,0,0-.74-.09,2.71,2.71,0,0,0-.57.06,3.84,3.84,0,0,1-.7.1.52.52,0,0,1-.39-.17.57.57,0,0,1-.16-.4.5.5,0,0,1,.14-.35.45.45,0,0,1,.34-.15l.2,0a1.08,1.08,0,0,0,.28,0q.35,0,.42-1.1v-2.35l-1.81,1.95a4.58,4.58,0,0,0-1,1.29c0,.09.05.13.16.13h.33q.45,0,.45.55t-.49.52a2.09,2.09,0,0,1-.44-.06,2.9,2.9,0,0,0-.45-.07,3.09,3.09,0,0,0-.46,0,4.25,4.25,0,0,0-.68.08,4.24,4.24,0,0,1-.67.08.47.47,0,0,1-.54-.54.56.56,0,0,1,.14-.38.44.44,0,0,1,.34-.16.49.49,0,0,1,.22,0l.23,0q.23,0,.62-.42l.49-.54L90.4,131l-2.55-4.48a2,2,0,0,0-.31-.44.44.44,0,0,0-.3-.09.81.81,0,0,0-.25,0l-.28,0q-.45,0-.45-.52t.52-.55a4.15,4.15,0,0,1,.7.09,4.18,4.18,0,0,0,.71.09,4,4,0,0,0,.69-.09,4,4,0,0,1,.69-.09.48.48,0,0,1,.54.54q0,.53-.51.53h-.39q-.19,0-.19.17a.71.71,0,0,0,.1.36Z"/><path class="cls-2" d="M12.75,25.92a2.49,2.49,0,0,0,.07-5,2.74,2.74,0,1,0-5.12,0,2.49,2.49,0,1,0,2.36,3.48c-.77,3.58-3.4,4.15-3.4,4.15h7.22s-2.64-.58-3.4-4.15A2.49,2.49,0,0,0,12.75,25.92Z"/><path class="cls-2" d="M88.11,113a2.49,2.49,0,0,0-.07,5,2.7,2.7,0,0,0-.17,1,2.73,2.73,0,1,0,5.47,0,2.7,2.7,0,0,0-.17-1,2.49,2.49,0,1,0-2.36-3.48c.77-3.58,3.41-4.15,3.41-4.15H87s2.64.57,3.4,4.15A2.49,2.49,0,0,0,88.11,113Z"/><path class="cls-3" d="M36.78,15.71h4A12,12,0,0,1,36.78,15.71Z"/><path class="cls-3" d="M40.86,15.71H66.53C58.29,15.93,49.11,15.93,40.86,15.71Z"/><path class="cls-4" d="M55.08,28.74c-1.54-.82-3.92-1.48-5.79-.53C50.07,25.84,54.37,27.2,55.08,28.74Z"/><path class="cls-4" d="M55,29.79c-1.14-.33-4.27-2.13-5.27,0,1.71-1.06,4.1.12,5.66,1.05-1.67.19-2.81,1.55-4.87.92.28.91,1.31,1.06,1.71,1.84-1.52-.32-1.83-2.11-3.29-2.11.55-.77-.13-1.07-.26-1.84.24,0,.28.16.53.13C50.18,27.68,53.66,28.37,55,29.79Zm-3.82,1.84c1.08.3,1.95-.76,1.32-1.32,0,1.56-1.73.78-1.84-.13A1.59,1.59,0,0,0,51.13,31.64Zm-.53-.26c-.08-.36-.14-.74-.66-.66C49.92,31.18,50.14,31.4,50.61,31.37Zm2.24,0c.37,0,.56-.23.53-.66H53C53,31,52.74,31,52.84,31.37Z"/><path class="cls-4" d="M49.42,34.53a.92.92,0,0,1,.26,1.18c-.85.9-1.85-.42-3,.13-.09-.58.07-.9.4-1.05,1-.06,1.16.68,1.84.92A.75.75,0,0,0,49.42,34.53Z"/><path class="cls-4" d="M50.47,37.82c0,.43.22.66.13,1.19-.46,0-.5-.47-.92-.53-1.64.72-2.85-.22-4.34.26a1.46,1.46,0,0,1,.26-1.05c1.21.56,3-.5,4.08.4C50.18,38.23,50.06,37.76,50.47,37.82Z"/><path class="cls-4" d="M46.79,39.4c.25-.17,1.39.19,1.84-.13C48.33,40,47.3,39.79,46.79,39.4Z"/><path class="cls-3" d="M69.83,40.19c.73.9,1.16,2.08,2.11,2.77A4,4,0,0,0,74,40.59c1.08.93,2,2.08,3.69,2.37-3.57.29-7.7,0-11.32.26C67.68,42.34,69.08,41.6,69.83,40.19Z"/><path class="cls-3" d="M48,41.64h.13c.8,2.53,1.8,4.87,5.13,4.87.13.41-.36.84-.66,1.19-2.27,2.6-5.06,5.64-7.5,8.16a60.64,60.64,0,0,0-4-10.66,8.39,8.39,0,0,0,4,.26C46,45.22,48.16,43.17,48,41.64Z"/><path class="cls-4" d="M36.12,43.35a.71.71,0,0,1-.66.79C34.4,43.64,35.76,42.07,36.12,43.35Z"/><path class="cls-4" d="M38.36,43.75v.79c-.2.07-.33.19-.53.26C36.59,44.67,37.47,42.74,38.36,43.75Z"/><path class="cls-4" d="M36.39,44.67c.87.88,2,1.51,2.63,2.63a4.36,4.36,0,0,0-1.45,1.05A16.87,16.87,0,0,1,36.39,44.67Z"/><path class="cls-4" d="M62.72,45.2c.15.54,0,.81-.4,1.05C61.19,46.28,61.77,44.48,62.72,45.2Z"/><path class="cls-4" d="M36,45.46c0,.53,0,1-.4,1.05C34.56,46.45,35,44.79,36,45.46Z"/><path class="cls-4" d="M60.74,46.51c0,.53,0,1-.4,1.05C58.95,47.61,59.79,45.45,60.74,46.51Z"/><path class="cls-4" d="M61.8,47a23.74,23.74,0,0,0-.26,3.69c-.6.28-1.21-.42-1.84-.53A15.73,15.73,0,0,1,61.8,47Z"/><path class="cls-4" d="M62.45,48.49c-.81-1.46,1.56-1.42.79,0A.93.93,0,0,1,62.45,48.49Z"/><path class="cls-4" d="M38.89,49.54c-1.86-1.4,1.83-1.43,0,0Z"/><path class="cls-4" d="M41.39,49.28c.34.47.3,1.23-.39,1.32C40.13,50.59,40.32,48.87,41.39,49.28Z"/><path class="cls-4" d="M39.55,50.33a13.51,13.51,0,0,1,2.24,2.9,5.21,5.21,0,0,0-1.58.79A14.5,14.5,0,0,1,39.55,50.33Z"/><path class="cls-4" d="M39,51c0,.47-.09.79-.39.92C37.2,51.92,38.43,49.72,39,51Z"/><path class="cls-3" d="M36.12,51.38c1.14,1.53,1.76,3.59,2.63,5.4-1.58.18-3.08.43-3.69,1.58-.32-.42-1.07,0-1.45-.13-1.33-.36-2.77-2.46-2.5-3.55S35.2,52.32,36.12,51.38Z"/><path class="cls-4" d="M59.82,51.91c0,.57,0,1.06-.53,1.05C58.27,52.85,58.94,51.19,59.82,51.91Z"/><path class="cls-4" d="M57.85,53.23c0,.38.07.86-.13,1.05h-.79C56.44,53.57,57.08,52.65,57.85,53.23Z"/><path class="cls-3" d="M69.83,53.49c1.55.29,2,1.67,3,2.5V72.45H69.43c-.76,1.3-1.32,2.8-2.9,3.29.22-.93-.28-2.44,0-3.55A11.68,11.68,0,0,1,68,69.94,20.15,20.15,0,0,0,69.83,53.49Z"/><path class="cls-4" d="M58.77,53.75c.36,1.15-.19,2.53,0,3.95A6,6,0,0,0,56.92,57C57.52,55.93,58.15,54.84,58.77,53.75Z"/><path class="cls-4" d="M40.73,55.07c.19-2.69,2,1,0,0Z"/><path class="cls-4" d="M60.48,54.15c0,.57,0,1.06-.53,1.05C58.95,55.1,59.61,53.45,60.48,54.15Z"/><path class="cls-4" d="M43.76,55.6a1.23,1.23,0,0,1-.13,1.05C42,57,42.84,54.53,43.76,55.6Z"/><path class="cls-3" d="M29.15,55.86c.43.13,0,1.27,0,1.58-1,.34-1.94.7-2.9,1.05A28.85,28.85,0,0,1,29.15,55.86Z"/><path class="cls-3" d="M54,57.83c-.07,2.48-.77,5.47-.92,8.29H47.05C48.85,63.36,51.81,60.62,54,57.83Z"/><path class="cls-4" d="M57.71,59.94a1,1,0,0,1-.92-.26C56.5,58.13,58.52,58.87,57.71,59.94Z"/><path class="cls-3" d="M65.48,59a1.68,1.68,0,0,1,0,1.45Z"/><path class="cls-4" d="M56.14,60.86c-.08.4-.21.76-.66.79C54.1,61.33,55.7,59.45,56.14,60.86Z"/><path class="cls-4" d="M56.92,60.86a25.34,25.34,0,0,1,.4,3.95,4.68,4.68,0,0,0-1.84-.39C55.86,63.14,56.47,62.08,56.92,60.86Z"/><path class="cls-4" d="M58.64,61c.19.43.24,1.22-.39,1.19C57.4,62.19,57.55,60.57,58.64,61Z"/><path class="cls-4" d="M75.62,63.63a11.47,11.47,0,0,1,2.76.13v1.05a10.38,10.38,0,0,1-2.63.13C75.52,64.69,75.65,64.07,75.62,63.63Z"/><path class="cls-3" d="M33.23,64.68a13.85,13.85,0,0,1,.13,3.55c-.27,1.16-2.15,3.12-2.76,4.48-1.72,3.81-2,9.3-.53,14.35-1.68-.63-3.16-2.11-3.16-3.82,0-4.67.08-10.29.13-15.27h3.42C31.2,66.68,31.88,65.35,33.23,64.68Z"/><path class="cls-4" d="M56.14,67.18c-1.86-1.4,1.83-1.43,0,0Z"/><path class="cls-4" d="M78.25,65.86V67H75.62C75.11,65.27,77.13,66,78.25,65.86Z"/><path class="cls-4" d="M44.42,67.18a.68.68,0,0,1-1.18.66A.68.68,0,0,1,44.42,67.18Z"/><path class="cls-4" d="M55.08,68.1c0,.53,0,1-.39,1.05C53.25,69.23,54.15,67,55.08,68.1Z"/><path class="cls-4" d="M57.32,69.15c-.76,0-.6-1.16-.13-1.32C58,67.72,58.13,69.18,57.32,69.15Z"/><path class="cls-4" d="M55.87,68.1a12.2,12.2,0,0,1,.92,3.82A10,10,0,0,0,55,71.79C55.23,70.53,55.65,69.41,55.87,68.1Z"/><path class="cls-4" d="M78.38,68.37v.92a11.42,11.42,0,0,1-2.76.13C75,67.62,77.52,68.27,78.38,68.37Z"/><path class="cls-4" d="M44.68,68.63c.23,1.24-.62,2.54-.79,3.82A36.73,36.73,0,0,1,43,68.63,8.32,8.32,0,0,0,44.68,68.63Z"/><path class="cls-4" d="M21.64,69h2.5v.92h-2.5Z"/><path class="cls-4" d="M78.25,70.47v1.05h-2.5C74.94,70,77.21,70.54,78.25,70.47Z"/><path class="cls-4" d="M21.51,71.13h2.77v1.05H21.51Z"/><path class="cls-4" d="M42.84,71.39c.3.33.36,1-.13,1.18A.62.62,0,1,1,42.84,71.39Z"/><path class="cls-4" d="M45.87,71.66c0,.53,0,1-.4,1.05C44.09,72.77,44.93,70.61,45.87,71.66Z"/><path class="cls-3" d="M39,71.79a1.41,1.41,0,0,1,1.32,0Z"/><path class="cls-3" d="M48.89,71.79c.3.44,0,1.45.13,2.11C48.72,73.45,49,72.45,48.89,71.79Z"/><path class="cls-4" d="M56,73.63c-1.16-.1-.21-2.09.53-1.05C56.57,73.14,56.54,73.64,56,73.63Z"/><path class="cls-4" d="M44,73.37a.89.89,0,0,1,0,1.18C42.92,74.73,42.85,73.16,44,73.37Z"/><path class="cls-4" d="M21.64,73.5h2.63v1.05H21.64Z"/><path class="cls-3" d="M46.66,74.42h6.19a73.85,73.85,0,0,1-7.24,8.16A52.69,52.69,0,0,0,46.66,74.42Z"/><path class="cls-4" d="M24.28,75.61v1.18H21.51C21,75,23.13,75.78,24.28,75.61Z"/><path class="cls-4" d="M42.58,75.74c.84.06.89.32,1.84.39-.62,1.09-.84,2.58-1.71,3.42C42.8,78.14,42.49,77.14,42.58,75.74Z"/><path class="cls-4" d="M41.92,78.37c.3.33.36,1-.13,1.19A.62.62,0,1,1,41.92,78.37Z"/><path class="cls-4" d="M44.95,79.16a.88.88,0,0,1-.53,1.05C43.12,80.11,44.06,78.12,44.95,79.16Z"/><path class="cls-3" d="M30.33,79.16V81.4A3.9,3.9,0,0,1,30.33,79.16Z"/><path class="cls-3" d="M29.67,79.42v1.32A1.4,1.4,0,0,1,29.67,79.42Z"/><path class="cls-4" d="M43.1,81.27a.93.93,0,0,0-.26.39h-.66c-.07-.2-.19-.33-.26-.53C41.93,80.19,43.16,80.41,43.1,81.27Z"/><path class="cls-3" d="M73.51,81.92c-.36,1-2,1.89-2.89,2.76-.27-.28.16-1,0-1.58A16.23,16.23,0,0,0,73.51,81.92Z"/><path class="cls-3" d="M68.77,85.87c-1.37,1.4-3.36,2.16-5,3.29a19.78,19.78,0,0,1-2.63-5.66c1.52.24,3.15-.28,3.69-1.45A4,4,0,0,1,68.77,85.87Z"/><path class="cls-4" d="M42.84,83.37a26.12,26.12,0,0,1-1.71,3.29c-.31-1,0-2.5-.13-3.69C41.64,82.82,41.88,83.35,42.84,83.37Z"/><path class="cls-4" d="M57.19,84.16c.08.47-.15.64-.26.92a1,1,0,0,1-.92-.26C55.74,83.8,56.84,83.48,57.19,84.16Z"/><path class="cls-3" d="M51.79,98.91h-.13c-.69-2.69-1.78-5-5.27-4.87,2.58-3.3,5.59-6.17,8.16-9.48,1.33,3.59,2.36,7.47,4.21,10.53-1.07.14-2.93-.4-4.21.13-.5.21-.55.61-1.19,1.18S51.66,97.37,51.79,98.91Z"/><path class="cls-4" d="M58.9,85.21a.89.89,0,0,1,0,1.19h-.66C57.88,85.91,58,85.08,58.9,85.21Z"/><path class="cls-4" d="M40.34,85.48c0,.57,0,1.06-.53,1.05C38.79,86.42,39.46,84.76,40.34,85.48Z"/><path class="cls-4" d="M42.18,87.45c-.11-.11-.08-.36-.26-.39C41.9,84.81,44.39,87.57,42.18,87.45Z"/><path class="cls-4" d="M59.56,86.53c.61.93.52,2.55.79,3.82a17.11,17.11,0,0,1-2.24-3A6.27,6.27,0,0,0,59.56,86.53Z"/><path class="cls-4" d="M40.86,87.59a1.26,1.26,0,0,1,0,1.19h-.66C39.79,88.34,39.9,87.36,40.86,87.59Z"/><path class="cls-4" d="M61.66,89.82H61C60,88.45,62.73,88.41,61.66,89.82Z"/><path class="cls-4" d="M38.36,89.56c.59.28,1.21.55,1.84.79-.66,1-1.36,2.06-2,3.16C37.92,92.36,38.42,90.89,38.36,89.56Z"/><path class="cls-4" d="M59.43,90.35c.08.47-.15.64-.26.92a1,1,0,0,1-.92-.26C58,90,59.08,89.67,59.43,90.35Z"/><path class="cls-4" d="M61.53,91.93a1,1,0,0,1-.92.26C59.83,91.1,61.79,90.43,61.53,91.93Z"/><path class="cls-4" d="M36.65,93.11c-.82-1.46,1.55-1.42.79,0A.92.92,0,0,1,36.65,93.11Z"/><path class="cls-4" d="M62.19,92.19c.76.9.82,2.51,1.32,3.69a11,11,0,0,1-2.63-2.63A3.45,3.45,0,0,0,62.19,92.19Z"/><path class="cls-4" d="M39.94,94.3a.88.88,0,0,1-.92-.4C38.92,92.28,41,93.28,39.94,94.3Z"/><path class="cls-4" d="M64.69,95.22H64C63,94,65.52,93.62,64.69,95.22Z"/><path class="cls-4" d="M38,95.48a1,1,0,0,1-.92-.26C36.77,93.7,38.75,94.39,38,95.48Z"/><path class="cls-4" d="M61.66,97.06c-.11-.11-.08-.36-.26-.39C61.44,94.42,63.87,97.14,61.66,97.06Z"/><path class="cls-4" d="M63.9,97.59c-.81-1.46,1.56-1.42.79,0A.92.92,0,0,1,63.9,97.59Z"/><path class="cls-3" d="M33.36,97.46a11.28,11.28,0,0,0-3.42,2.76c-.67-.9-1-2.11-2.11-2.63A40.49,40.49,0,0,1,33.36,97.46Z"/><path class="cls-3" d="M22.17,97.59a41.1,41.1,0,0,1,5.27-.13c.24.53-1.41,1.39-1.58,2.37C24.64,99.07,23.92,97.82,22.17,97.59Z"/><path class="cls-4" d="M53.11,101.14c-.38.23-1.26-.41-1.71.13C51.11,100.56,52.75,100.73,53.11,101.14Z"/><path class="cls-4" d="M49.16,101.54c1.13,1.2,2.86-.5,4.08.53.55.07.74-.23,1.18-.26.19.19,0,.64-.13.92-1.81-.1-3,0-4.87-.13A3.36,3.36,0,0,1,49.16,101.54Z"/><path class="cls-4" d="M53.24,104.7c.08.47-.15.64-.26.92-1.22.25-1.23-.7-2.11-.79-.54,0-.57.49-.53,1.05C49.32,103.83,52.11,104.8,53.24,104.7Z"/><path class="cls-4" d="M47.58,107.07c1.48-.3,1.65,1.85,3.29,1.84a1.94,1.94,0,0,0,.39,1.84c-.11.39-.33-.17-.66,0-.91,2.07-4.48,1.27-5.66,0,1.2.25,4.14,2.12,5.13,0-1.69.89-4.38-.1-5.53-1.32,1.76.31,2.62-1.49,4.74-.79A3.72,3.72,0,0,0,47.58,107.07Zm-.4,3c.48-.13.24-1,.92-.92s.61.88,1.19,1.05C49.52,108.56,47,108.27,47.18,110.1Zm-.79-.53c.3.31.7,0,.66-.39C46.64,109.11,46.51,109.34,46.39,109.57Zm3.55.26q0-.7-.66-.66C49.36,109.54,49.43,109.91,49.95,109.83Z"/><path class="cls-4" d="M44.81,111.81a7.38,7.38,0,0,0,5.66.53C50.11,114.43,45.38,113.41,44.81,111.81Z"/><path class="cls-4" d="M19.8,14.52H80.23V125.89H19.67v-111C19.66,14.73,19.65,14.54,19.8,14.52Zm1.05,1.18V51.78C25.66,47.68,31,43,38.36,41c-.35-1.64-.67-4.43,1.05-4.48.8,0,1.07.49,1.45,1.18A14.19,14.19,0,0,0,41.92,34c-2.28,1.61-3.76-2-1.84-2.76.64-.25.93.37,1.32,0A13.74,13.74,0,0,0,41.79,26a11.79,11.79,0,0,0-1.58-2.63c-1.68-2.59-3.58-5.29-5-7.64Zm15.93,0c-.15,0-.21.15-.26.26a6.74,6.74,0,0,0,3,3c1.85-.65,2,2.31.53,2.63a2.28,2.28,0,0,1,.39.53c1,.15.92-.75,1.58-.92a1.12,1.12,0,0,0,1.71-.66c-1.23.42-1.88-.69-1.58-1.84a2.34,2.34,0,0,1,1.18-.66c-.33-1.81,2.62-2,2.24,0,1.75,0,1.42,2.87-.26,2.63.6.89,1.88.38,2.5-.13.47.84,2.45.67,2.5-.39-1.93.37-1.64-2.93.13-2.5-.37-1.91,2.71-1.66,2.11.26,1.56-.12,1.43,3-.4,2.5,0,1.1,1.78.85,2.5.53.54.89,2.34.81,2.63-.26-2,.51-1.94-3,0-2.5-.05-1.57,1.62-1.82,2.11-.53.05.14,0,.69.13.92.28.44.78.24.92.79C60.8,20.61,60,21.12,59,21.1c0,.76,1.26.81,1.71.4.21,1,2.16,1.44,2.5.26-1.87.38-1.89-2.19-.66-2.5.58-.14.65.22,1.05.26a1,1,0,0,1,1.58-.66c.64-1,1.38-2,2-3a.86.86,0,0,1-.66-.13H36.78Zm26.72,5c-.08.28-.45.72,0,.79.12-.36.4-.56.53-.92C63.79,20.55,63.74,20.73,63.51,20.71Zm5.13-5c-1.86,2.53-3.67,5.11-5.4,7.77h3.82c.1-1.59.18-3,1.45-3.16,1.66-.25,2,1.27,2.11,2.77.59-.58,1.8.26,2.63-.13a15.42,15.42,0,0,1,3.16,2.11,3.3,3.3,0,0,1,1.32-.13c2,.88,1.22,5-1.58,3.95a7.43,7.43,0,0,1-.92,2.37c0,1.55,1.83,3.06.53,4.34a30.39,30.39,0,0,0,2.11,5.92c.29.58.39,1.33.92,1.58.61-8.71.09-18.43.26-27.38Zm-17,4.21c0-.45.5-.66.13-1.32a1.12,1.12,0,0,0-.79-.13c-.5.69,0,1-.13,1.58-.63,2.73-5.41,3.53-6.06.13.13-.45.41-.82.13-1.32-.31,0-.39-.23-.79-.13-.57.59.06,1.11,0,1.71-.18,1.67-1.44,2.32-3.29,2.5,1.26,1.56,3.37-.06,3.69-1.45,1.43,3.33,5.71,2.06,6.71-.53.48,3.45,6,3.46,6.58.13.38,1.61,3,4.34,4.48,2-3.1.41-4.25-1.83-3.69-3.95-.32.05-.29-.24-.66-.13,0,.1-.11.15-.26.13C58.52,23.42,51.75,24,51.66,19.92Zm16.59.92c-1.49,2.65,0,6.7-.66,10.14a1.59,1.59,0,0,0-1.45.53c-.36,1.6,1.25,1.7,2,1.19,1.62-1.15.08-7.54.92-9.35-.18-.3-1,0-.79-.66.34-.33,1.15.28,1.58-.13A1.22,1.22,0,0,0,68.25,20.84Zm1.05,3.95c1,.27,1.65-1.32.79-1.71C69.23,23.05,69.55,24.21,69.3,24.79ZM71,26a1,1,0,0,1,1.45.26c.17-1-.3-2,0-2.76C70.74,22.24,70.85,24.32,71,26Zm1.84.53c.48-.12.7.23.92,0a14.25,14.25,0,0,0-.13-3c-.42.06-.3-.4-.79-.26A7.52,7.52,0,0,0,72.85,26.5Zm1.18.26c.4-.1.48.13.79.13A12.14,12.14,0,0,1,75,24.4c-.22-.26-.4-.56-.79-.66C73.88,24.66,74.33,25.71,74,26.77ZM62.59,24.53H63.9v-.66C63.18,23.81,62.55,23.83,62.59,24.53Zm1.84,4.34c.87-.27,2.92.64,2.76-.66-.49-.34-1.73.06-2.24-.26.09-1-.17-2.37.13-3.16.6-.15,1.81.31,2-.26V24c-.62-.31-1.8,0-2.63-.13Zm4.87-3.69c-.08,1.71.12,3.67,0,5,1.35,2,7.2,1.8,6.58-1.71-.82.23-1.8,1-2.9.53.43-.05.85-.11.92-.53-.33-.31-1.45-.13-1.84-.13.22.1.22,1.09,0,1.19a6.75,6.75,0,0,0-1.84-2.37,2.28,2.28,0,0,0,.26-2.63C70.3,25,69.79,25.06,69.3,25.19Zm5.79,1.58c.47-.08.64.15.92.26.34-.84.53-2.48-.79-2.37C74.94,25.39,75.33,26.19,75.09,26.77ZM61.93,25.32c.36.13,1.83.38,2-.13C63.72,24.7,62,24.79,61.93,25.32ZM48,41.64c.19,1.53-1.94,3.58-2.9,3.82a8.39,8.39,0,0,1-4-.26,60.64,60.64,0,0,1,4,10.66c2.44-2.52,5.23-5.56,7.5-8.16.3-.34.78-.78.66-1.19-3.34,0-4.33-2.34-5.13-4.87,0-.21,0-.46.26-.4.76,2.64,2,5.45,5.66,4.74,1.71-.75,1.62-4.06-.4-3.69a1.56,1.56,0,0,0-.53,2.5c.87.09,1.38-.2,1.32-1.05,0-.41-.77-.11-.92-.4.07-.46.76-.21,1.05-.13.14.59.38,1.12,0,1.58-1.77,2.12-6.07-1.67-5.4-3.42.94,1.29,1.23,3.24,3.29,3.42.06-.41-.24-.46-.13-.92a2.73,2.73,0,0,1-2.11-2.76c.71.78.77,2.21,2.11,2.37.17-.88-1.58-1.54-1.05-2.76.47.62.85,2.56,1.71,1.58-.27-.66-1.34-1.2-1.05-2,.69.42.91,1.82,1.84,1.58.1-.5-1.2-1.43-.79-2.24.61.84,1.11,2.49,2.11,2.5C55,40.9,53.14,40,53.77,38.88c.41.69.48,1.71,1.32,2,.33-1-1.09-1.91-.79-2.9.72.38.45,1.75,1.32,2,.51-1.18-.91-2.23-.79-3,1,.42.82,2,1.58,2.63.49-1.58-.82-3.09-.79-4.21,1.05.84.94,2.83,1.45,4.21,1.16-2.14-1.15-4.44-.92-5.66a10,10,0,0,1,1.58,3.82c.15,1.33-.4,2.71.39,3.29.95-6.25-3-9.78-3.42-15.53-4-.31-9.22-.61-12.64.4-.09.75.22,1.09.13,1.84.77-.37,1.07-.77,2-.79,4.32-.1,2.06,6,1.58,8.82.49.44,1.39.45,1.58,1.18-2.1-.25-2.16-2.22-1.32-3.95-.56.05-.56.67-1.18.66.22-.7,1.32-1.23,1.05-2-.86,1.1-2.46.18-3.42-.13-.53,2.73.82,5.15,1.05,6.71.41,2.74-1.2,4.26-3.82,4.08A2.68,2.68,0,0,0,42,43c1.35-.33,1.52-2.34,2.37-3a3.44,3.44,0,0,1-4.34,3.29c2.4,2.58,4.47-.66,5-2.5,0,2.09-1.7,4.63-4.48,3.55,2.5,2.51,5-.56,5.27-3a4.15,4.15,0,0,1-.4,2.37c-.31.69-1.22,1.21-.92,1.58.64-.25,1.08-.3,1.45-.79.63-.83.15-2.3.92-3a5.45,5.45,0,0,1-.26,2.24c1.08-.15.58-1.88,1.32-2.37Zm28.7-16.19c.1.8-.29,1.12-.26,1.84,1,.45,1-.81,1.05-1.45a1.86,1.86,0,0,1,.79.53c0-.48-.37-.59-.53-.92Zm1.58,1.18c.39,1.6-1.59,1.39-2,1.45C77.1,29.4,79,27.34,78.25,26.63Zm-20,14.88c-.51.15-.75.57-1.32.66-.36-.21-.83-.31-.79-.92.51,0,.63.86,1.18.4,1-1.82-1.54-2.35-2-.79-.87,3.16,3,2.77,3.82,1.18,1.62-3.08-.81-6.88-1.71-9.61-.81-2.44-1-4.86-2-6.85h-.39C55.48,31.3,59.93,35.42,58.24,41.51Zm8.69-15.8c-3.52-.2.89,3.69,0,0Zm-9.08,6.71c1.16,3.48,3.41,7.71.92,10.79,1.7-.23,2.1-2,2-3.69-.27-3.87-2.89-8.4-3.69-12.11-.12-.55.12-1.55-.66-1.71h-.26C56.58,27.63,57.05,30,57.85,32.43Zm3.29-5.92H63.9v-.79C62.75,25.74,61.26,25.44,61.14,26.5Zm-3.82-.26c.38,5.8,5.73,11.84,2.9,17,3.91-1.69.61-7.57-.53-10.4-1-2.51-1.43-5-2.11-7h-.39C57.21,26,57.17,26.22,57.32,26.24Zm4.21,17c1.5-.35,1.72-2.37,1.58-3.69-.22-2.09-1.58-4.35-2.37-6.58-.86-2.43-1.23-4.78-2.11-6.85a.61.61,0,0,1-.39-.13C58.25,31.72,64.42,37.71,61.53,43.22ZM71.8,27.69a1.28,1.28,0,0,0,.13-1.58C70.81,25.88,71.07,27.63,71.8,27.69ZM61.27,33.48c1.3,3.39,3.29,6.48,1.45,9.74,1.51-.45,1.84-3.33,1.32-5C62.92,34.66,60,30.4,59.69,26.37c-.17,0-.18-.17-.4-.13A54.26,54.26,0,0,0,61.27,33.48Zm.79-.39c1.33,3.32,3.84,6.22,1.71,10.14,1.66-.27,1.87-2.91,1.45-4.48-1.08-4-4.38-8.06-4.74-12.24-.17,0-.18-.17-.4-.13A42,42,0,0,0,62.06,33.08ZM72.2,27.82a1.16,1.16,0,0,0,1.05.26c-.1-.59.17-.79.13-1.32C72.47,26.6,72.27,27.15,72.2,27.82Zm-11.06-.13H63.9V26.9H61C60.91,27.3,61.23,27.28,61.14,27.69Zm12.51.39c.61.31,1.26,0,1.05-.92C74,26.79,73.39,27.14,73.64,28.08ZM75,28c.33.34.44.08.92.26a2.46,2.46,0,0,0-.13-1.05C75.12,27.06,75,27.44,75,28ZM42.31,29.13c.92-.72,3.12-1,3.82.13C46.3,27.3,42.29,27.32,42.31,29.13Zm19.22-.26H63.9v-.79H61.27A2.94,2.94,0,0,0,61.53,28.87Zm-19,.79c1.23-.41,2.54-.54,3.42.26C45.73,28.44,43.16,28.49,42.58,29.66Zm23.17,12c.76-1.59,2.85-4.09,2.76-6.19,0-1.23-.17-2.06.53-3-.66,1.23-3.09,1.43-3.42,0-.28-1.2.65-1.6,1.58-2.24v-.92H61.66C62.57,33.77,66,36.46,65.75,41.64ZM44.68,31.77c.22-.23,1.09-1,.4-1.32-.25.23-.1.87-.66.79-.82.16-.75-.56-1.05-.92A1.08,1.08,0,0,0,44.68,31.77Zm-1.58-.53c-.08-.32-.11-.68-.53-.66C42.52,31,42.62,31.33,43.1,31.24Zm2.37.13c.43,0,.63-.16.66-.53C45.83,30.56,45.4,30.89,45.47,31.37Zm-4.34,1.05c-.29-.24-.07-1-.66-.92A1.29,1.29,0,0,0,40.6,34c1.37.14,1.9-1.64,1.18-3C41.65,31.55,41.68,32.27,41.13,32.43Zm28.44-1.18c-.76,2.57,3.85,1.94,5.4,1.45,0-.65.13-.65,0-1.19A10.31,10.31,0,0,1,69.56,31.24Zm-.66,3.82c.71,0,1.13-1.39.53-1.84C69.08,33.65,68.25,34.43,68.9,35.06Zm5.92-1.58c-.24.47-.06,1.51.66,1.45C76.18,34.61,75.73,33.35,74.83,33.48Zm-4.21,1.84c.36-.29.66-1.52,0-1.71C70.29,33.83,69.57,35.33,70.62,35.32Zm3,.13c.79.07.71-1.75,0-1.71A1.42,1.42,0,0,0,73.64,35.45Zm-2,.13c1,.19,1.1-1.2.66-1.71C71.45,33.79,71.42,34.95,71.67,35.59ZM39.15,38.35c.48.09,1,.26,1.32-.13-.34-3.1-3.37.26-1.32,1.45,2.57.19,3.5-2.62,2.9-4.74C41.87,36.62,40.91,39.95,39.15,38.35ZM68.9,35.59C68.64,38,67.19,40,66.53,41.64c1.32-1.54,3.25-3.84,2.9-6.19C69.41,35.65,69.11,35.57,68.9,35.59Zm6.32-.13h-.66c-.06,2.13,1.32,3.94,2.37,5.4A43.58,43.58,0,0,1,75.22,35.45ZM72.06,39.8A5.77,5.77,0,0,0,73.64,36c-.47,1-.41,2.57-1.58,2.9-1-.48-1.05-1.84-1.32-3h-.39C70.57,37.52,70.9,39.08,72.06,39.8Zm-33.44,0c1.43,2.46,4.92-.69,3.82-2.76C42.2,38.91,40.77,40.66,38.63,39.8ZM74,37c-.45,1.21-.67,3.15-1.84,3.29s-1.78-1.59-2.11-3a28.52,28.52,0,0,1-3.42,5.13,7.77,7.77,0,0,0,3.16-3.16c.81.9,1.26,2.17,2.11,3A5.32,5.32,0,0,0,74,39.67c.9,1,2.08,2.4,3.29,2.63C75.87,40.9,75,38.88,74,37ZM38.76,40.72c1.14,2.89,5.71,0,4.21-2.5C42.68,40.1,40.78,41.81,38.76,40.72Zm27.65,2.5c3.62-.24,7.75,0,11.32-.26-1.73-.29-2.6-1.44-3.69-2.37A4,4,0,0,1,71.93,43c-.94-.68-1.38-1.87-2.11-2.77C69.08,41.6,67.68,42.34,66.4,43.22Zm-20,29.09a53.68,53.68,0,0,0-8-30.94,27.38,27.38,0,0,0-6.45,2.76A42.3,42.3,0,0,1,38,53.88c.49,1.09.68,2.74,2,3.29.29-.19-.05-1,.66-.79.85-.19.13,1.18.92,1.05.38-.14-.12-1.17.26-1.32.69,1.16,1.37,2.32,2,3.55-.57.92,0,.66.13,1.71.05.54-.56.4-.66.79a14.8,14.8,0,0,1,1.45,3.69c-.87,0-1.3.32-1.84.13-.05-.93.5-2,.13-2.76-1.08.19-1.09,1.46-1.84,2a38.45,38.45,0,0,1-8.56,30.67c-.22.26-.62.67-.53,1.05h3.42a2.08,2.08,0,0,1,.39-1.45c.44.4,1.13.54,1.58.92,0,.26-.36.17-.26.53h2.63C43.68,90.65,46,82.06,46.39,72.31Zm11.72-28.7C54,48.42,49.72,53.13,45.6,58c.68.13,1.11-1.07,1.71-1.45a10.25,10.25,0,0,1,1.58,2,21.82,21.82,0,0,1-1.71,1.84,2.49,2.49,0,0,1-.92-1.18c.47-.36.51-1.15,1.32-1.18.41.64-.83.94-.53,1.45a1.69,1.69,0,0,0,1.05-1.05,11.26,11.26,0,0,1-.66-.92c-1.68.53-1.62,2.44-.4,3.42,1.09-.58,1.65-1.69,2.5-2.5A17.78,17.78,0,0,1,47.71,56c.92-1,1.6-2.18,2.77-2.9.69.89,1.45,1.71,2.11,2.63A17.64,17.64,0,0,1,50.47,58,6.58,6.58,0,0,1,49,56c.4-.43.66-1,1.18-1.32a3,3,0,0,1,1.05,1.18c-.31.22-.32.73-.92.66-.1-.48.32-.73,0-1.05-.43,0-.28.51-.66.53a3,3,0,0,0,.92,1.19c.31-.61.93-.91,1.18-1.58-.56-.54-.89-1.31-1.58-1.71C50,55,48.34,55.25,48.37,56.12c0,.66,2,1.53,1.84,2.37-1.07,1.08-1.87,2.43-3.16,3.29-.16-.45-.53-.7-.79-1.05a24.9,24.9,0,0,0,.26,2.5c2.39-2.4,4.68-5.25,6.84-7.77.73-.85,1.85-1.57,2-2.76A25.78,25.78,0,0,1,53,55.2a12.81,12.81,0,0,1-2.11-2.63c.63-.77,1.31-1.5,2-2.24a9.4,9.4,0,0,1,1.58,1.84A6.38,6.38,0,0,1,53,53.75a4.76,4.76,0,0,1-1.05-1.05c.4-.3.72-1.24,1.32-.92.15.66-.84.65-.39,1.18.5-.07.63-.51.79-.92-.27-.3-.44-.7-.92-.79-.35.57-.92.92-1.18,1.58.85.2.87,1.62,1.58,1.58s1-1.74,1.84-2.11c-.35-1-1.29-1.43-1.71-2.37a19,19,0,0,1,2.9-3c.41.12.81,1.5,1.05.92s-.85-.72-.79-1.45c1-.6,1.57-3,2.76-2.11,0-.33.21-.41.26-.66Zm1.84,0A51.85,51.85,0,0,0,53.5,66.79c-.61,13.4,2.83,24.56,8,32.38A33,33,0,0,0,68,96.4a42,42,0,0,1-6.06-9.74c-.52-1.15-.83-2.57-1.84-3.42-.55.06-.1,1.13-.92.92-.67.06,0-1.2-.79-1.05-.48-.43-.06,1.16-.39,1.32-.54-1.35-1.35-2.42-2-3.69.65-.73,0-.71-.13-1.58,0-.51.65-.41.66-.92a12.37,12.37,0,0,1-1.31-3.69c.66.25,1.31-.32,1.84,0a7.29,7.29,0,0,0-.26,2.77c1.07-.2,1.17-1.38,1.84-2-1.72-13.18,2.71-23.89,8.56-30.67.24-.28.76-.59.66-1.05H64.43A4.5,4.5,0,0,1,64,45.06c-.44-.4-1.17-.5-1.58-.92,0-.2.54-.59,0-.53Zm-3.29.13C53.79,47,50.8,50.43,48,53.62c-.9,1-2.33,2-2.5,3.29,3.43-3.2,7-7.91,10.27-11.58.44-.49,1.26-.88,1.18-1.58Zm-25.28.79a44.72,44.72,0,0,0-8.56,6.32c-.81.72-2.21,1.41-2,2.76,3.43-3.16,6.77-6.4,10.93-8.82C31.59,44.77,31.56,44.58,31.39,44.54Zm27.12.26c-.46.59-1,1.14-1.45,1.71.26.13.21.58.66.53C57.74,46.14,58.77,45.55,58.5,44.8ZM32.57,46c.06-.41-.35-.35-.39-.66-3.68,1.66-6.45,4.39-9.08,7-.84.83-2.36,1.63-2.24,3.16C24.34,52,28.33,48.28,32.57,46ZM67.19,70.21a16.29,16.29,0,0,0,3-8C70.66,56,69,50.82,65.75,47.7c0-.1-.11-.15-.26-.13s-.17.18-.13.4c3.53,3.88,5.22,10.86,3.69,16.59a17.65,17.65,0,0,1-8,10.4C64,74.91,65.7,72.4,67.19,70.21ZM33.1,49.28c.67-.29.52-1.23,0-1.58C31.93,47.51,31.87,49.47,33.1,49.28Zm21.46.39c.46-.31.92-1.79,1.58-1.05-.22.5-1.22,1-.66,1.45.61.18,1-.95,1.45-1.32-.42-.28-.44-1-1.05-1.05-.46.95-1.43,1.38-1.84,2.37a16.11,16.11,0,0,0,1.71,2c-.07-.51.49-1.08.26-1.32C55.43,51.42,54.85,50.11,54.56,49.67Zm-23.17.66c.51-.14.53-1.3.13-1.58C30.2,48.42,30.13,50.54,31.39,50.33Zm34,1.45c-.79-.67-.16-1.73-.13-2.5-1.74.89.16,4.43,1.71,2.76C66.49,51.6,65.92,52.26,65.35,51.78Zm-38,3a32.29,32.29,0,0,0-6.45,6.71c4.07-4,8.61-8.77,14.35-11.58,0-.15,0-.37-.13-.4A44.86,44.86,0,0,0,27.3,54.81Zm2.11-5a.8.8,0,0,0,.13,1.58C30.52,51,30.25,49.74,29.41,49.8ZM35.86,51c0-.39-.3-.4-.26-.79a46.39,46.39,0,0,0-11.85,9.08c-1.11,1.19-2.77,2.34-2.9,4.21A46.68,46.68,0,0,1,35.86,51Zm29.75-.79c-.07.69.06,1.17.79,1.05C66.18,50.86,66.14,50.29,65.61,50.2Zm10.66,1.19c-.44-.21-.57-.62-1.05-.66,0-.08,0-.16-.13-.13a7.46,7.46,0,0,1-5.79,1.19A2.72,2.72,0,0,0,69.69,53a7.39,7.39,0,0,0,5.13-1.45c.88.67,2.8,1.66,4.21.92C78.53,51.6,77.17,51.81,76.28,51.38ZM27.44,52.44h.79C29.5,50.56,26.16,50.56,27.44,52.44Zm3.69,2.24c-.26,1.1,1.17,3.19,2.5,3.55.37.1,1.13-.29,1.45.13.6-1.15,2.11-1.4,3.69-1.58-.87-1.8-1.49-3.86-2.63-5.4C35.2,52.32,31.4,53.52,31.12,54.67Zm34.36,5.79a11.19,11.19,0,0,1-4.08,8.69c-.81.66-1.82.93-2.5,1.84,6.5-1.49,8.71-11.43,5.4-17.77-.21-.4-.29-1.3-.92-1.18.76,1.74,2.22,3.93,2.11,7Zm-39.1-6.71c.74-.05.86-1.11.13-1.58C25.15,52.25,25.51,53.81,26.38,53.75ZM67.19,52.7c-1.74,0-.73,4.35,1.05,3A1.79,1.79,0,0,1,67.19,52.7Zm1.45,7c-.05-.75-.87-.57-1.05-1.32-.23-1,.33-1.4.79-2.11C66.79,56,66.75,59.84,68.64,59.68Zm-.26,3.82c0-.64-.82-.5-.92-1.05-.58-1.31.6-1.81,1.18-2.37C66.52,59.39,66.46,63.9,68.38,63.49Zm4.21-8.56c1.61,1.42,3.36,3.36,4.87,4.87.5.5,1.22,1.37,1.58,1.18-.48-1.51-2.1-2.62-3.56-4.08-.9-.9-2.82-3.67-3.95-3.42-.1,0-.26,0-.26.13A7.44,7.44,0,0,0,72.59,54.94ZM24.67,53.49a.93.93,0,0,0-.26,1.58h.79C25.56,54.48,25.55,53.51,24.67,53.49Zm43.18,1.32a1.59,1.59,0,0,0-.4-1.19C67.15,54,67.33,54.82,67.85,54.81ZM68,69.94a11.68,11.68,0,0,0-1.45,2.24c-.28,1.11.22,2.63,0,3.55,1.58-.49,2.13-2,2.9-3.29h3.42V56c-1-.83-1.48-2.21-3-2.5A20.15,20.15,0,0,1,68,69.94ZM62.85,55.07c-.24-.12-.33-.37-.79-.26-.51,1.32,1,1.75,1.84,2.11,0-1.13.45-2.5-.53-2.9C62.95,54.11,63,54.72,62.85,55.07Zm-8.16-.26c-2.54,3.34-5.64,6.12-8,9.61A93.56,93.56,0,0,0,54.69,54.81Zm-32,.26a1.07,1.07,0,0,0,.39,1.45C24.39,56.62,24,54.19,22.7,55.07Zm7.37.39a5.4,5.4,0,0,0,.13,3.95c-.66.7-1.71,1-2.11,2,.55.9,1.6,1.3,2.24,2.11a4.58,4.58,0,0,0-.26,3A13.32,13.32,0,0,1,31.25,63c-2.29-.38-1.91-3.22.4-3.29C31.19,58.72,30.05,57.33,30.07,55.46Zm.66.26c.16,1.68.65,3,2,3.55.25-.19.58-.29.53-.79C31.82,58.15,31.38,56.83,30.73,55.73Zm-4.48,2.76c1-.36,1.92-.71,2.9-1.05,0-.3.43-1.44,0-1.58A28.85,28.85,0,0,0,26.25,58.49Zm35.41,2.63c-.27,2.15-1.65,3.41-2.5,5.13,2.64-1.48,3.94-6.7,2.24-10.14C61.27,57.49,61.88,59.37,61.66,61.12ZM21.25,57.31c0,.33.23.71.92.66C23.83,56.84,21,55.59,21.25,57.31ZM73.38,57V68.89c0,1.23-.41,3.17.53,3.55.48-3.44.26-8.23.26-12,0-1.28.28-2.73-.39-3.69-.17,0-.18-.17-.39-.13ZM36,57.7c-1.82,1.23-1.74,5.34-.4,6.71,1,1.05,3.21.84,4.87.39,0-.42-.3-.58-.26-1.05-.56-.17-1,.4-1.18-.13.69-.27,1.93,0,2.63-.26-.15-.6,0-.92-.13-1.32-.85-.1-2,.15-2.5,0,.67-.64,2.68,0,3.55-.4-.24-.24-.17-.79-.4-1.05-1.05-.24-2.29.51-2.9-.13,1,0,1.79-.23,2.9-.13-.34-.47.17-1.07-.13-1.45-1.24-.19-3,.33-3.69-.13a6.73,6.73,0,0,1,1.84-.13V57.57C38.45,57.23,37.22,56.87,36,57.7Zm32.65.79c-.12-.36,0-.93-.26-1.19A.72.72,0,0,0,68.64,58.49Zm-28,.13c.41,0,1,.09,1.18-.13.16-.87-.58-.83-1.32-.79C40.39,58.13,40.56,58.31,40.6,58.62Zm34,13.82H79V66.65c0-1.84.48-4.34-.66-5.13-.08.31.17,1-.13,1.05-.84-.09-2,.17-2.63-.13.08-.31-.17-1,.13-1.05h2.37c.16-.93-1.35-1.27-2.5-1.32a2,2,0,0,0-1.05-2.37ZM47.05,66.13h6.06c.16-2.83.86-5.81.92-8.29C51.81,60.62,48.85,63.36,47.05,66.13ZM29,58c-2,.82-4.64,1.77-5.4,3.42a19.9,19.9,0,0,1,5.66-3A.36.36,0,0,0,29,58ZM34.54,64a19.94,19.94,0,0,1,0-5.4C32.54,58.7,32.48,64.42,34.54,64Zm-5.4-5a25.66,25.66,0,0,0-4.87,2.5c-1.36,1-3.2,2.18-3.42,3.95C23.23,62.8,27,61.56,29.54,59Zm34.75.4c-.27-.17-.24-.64-.79-.53-.66,1,.2,2.34.92,2.76.28-.79,1.44-1.76.66-2.76C64.14,58.77,64.17,59.24,63.9,59.41Zm-21.59.53c.15,0,.21.15.26.26.49,0,.91-.06.92-.53C43.29,59,42.17,58.95,42.31,59.94ZM30.07,61.39A4.8,4.8,0,0,0,32.7,63c0-1.21-1.75-.62-1.84-1.71.22-.83,1.8-.31,1.84-1.32C31.62,60.22,30.53,60.49,30.07,61.39Zm12.77.4c.42,0,.79-.09.79-.53s-.39-.58-.92-.53A2.46,2.46,0,0,0,42.84,61.78Zm-11.19-.4a2.16,2.16,0,0,0,.92.26c-.07-.19.15-.68-.13-.66C32.33,61.28,31.76,61.1,31.65,61.39Zm37-.26c-.87-.22-.89,1.39-.13,1.32C68.42,61.87,68.73,61.7,68.64,61.12Zm-40.94.66c0-.13-.11-.16-.13-.26a13.36,13.36,0,0,0-4,2.37c-1,.84-2.66,1.8-2.76,3.55C23.18,65.61,25.19,63.44,27.7,61.78Zm14.22,1.45c.58,0,1.13-.09,1.19-.66C42.73,61.84,41.54,61.93,41.92,63.23Zm-13.82-.79a22.65,22.65,0,0,0-6.06,5h1.18c1.36-2,3.47-3.29,5.66-4.48C28.53,62.89,28.56,62.42,28.09,62.44ZM62.19,66c.92-.32,2.2-.94,1.71-2.24-.55-.15-.51.28-.92.26a1.13,1.13,0,0,0-.13-.79C61.32,63.21,62.22,65,62.19,66ZM31.78,63.36a5.69,5.69,0,0,0-.92,2.9,4.4,4.4,0,0,1,2.24-2C33.11,63.53,32.4,63.49,31.78,63.36ZM24,67.44c1.28.08,1.9-1,2.63-1.58a10.05,10.05,0,0,1,2.76-1.45c0-.39.39-.67.13-.92A11.5,11.5,0,0,0,24,67.44ZM40.6,63.76c-.05.54,0,.92.53.92.31-.09.8-.69.4-1.05C41.46,63.92,40.87,63.68,40.6,63.76Zm26.2,3.55c-1.88-1.32-3.28,2.58-1.58,2.9-.93-1.16,0-3.41,1.58-2.37a1.31,1.31,0,0,1,.4-.79c-1-1-.76-3,1.05-2.9C66.63,62.79,65.42,66.23,66.8,67.31ZM30.46,68H27c0,5-.13,10.6-.13,15.27,0,1.71,1.48,3.19,3.16,3.82-1.43-5.05-1.19-10.54.53-14.35.61-1.35,2.49-3.32,2.76-4.48a13.85,13.85,0,0,0-.13-3.55C31.88,65.35,31.2,66.68,30.46,68Zm36.86-1.84c.38,0,.82-1.11.26-1.19A.88.88,0,0,0,67.33,66.13Zm-41.6,1.32c1.86.15,2.22-1.2,3.55-1.58-.08-.23.16-.77-.13-.79A14.68,14.68,0,0,0,25.72,67.44Zm4.61,11.72c.44-7,4.2-10.72,8.69-13.69H37.44c-4.21,3-7.42,7.06-7.77,14a1.4,1.4,0,0,0,0,1.32A18.78,18.78,0,0,0,32.57,91c.49.73,1.16,2,1.84,1.71-1.76-2.85-4.06-6.3-4.08-11.32ZM39.15,68.1c-.68,0-.75-.73-1.32-.66.37,2.24,4,.44,2.63-1.32C40.32,67.2,40.06,68.07,39.15,68.1Zm20.14.66c1.26.12,2.81,0,2.37-1.19-.09-.26-.73,0-.79-.26a.82.82,0,0,0,0-.92C59.75,66.08,59.59,67.81,59.29,68.76ZM29.41,66.52a4.93,4.93,0,0,0-1.58.92C28.64,67.41,29.27,67.21,29.41,66.52Zm9.35.66a.58.58,0,0,0,.92-.66C39.3,66.67,38.79,66.69,38.76,67.18ZM49,73.89h2V71.66h1.71a21.11,21.11,0,0,0,0-2.9c-.57.08-1.49-.17-1.84.13,1,.85.58,2.79-.53,3-2,.42-2.59-2.66-.79-3.42a1.85,1.85,0,0,1,1.32.26V66.52c-.64.06-1.54-.14-2,.13v2.11H47.18a16.08,16.08,0,0,0-.13,2.9c.57.08,1.49-.17,1.84.13C49,72.45,48.72,73.45,49,73.89ZM35.2,69.68c.41,2,3.84-.38,2.24-2C37.63,69,36.8,70.63,35.2,69.68ZM20.85,68.37c0,2.55,0,5.77,0,8.29,0,.78-.34,2,.53,2.24.38,0-.11-.9.26-.92.84.09,2-.17,2.63.13,0,.38.07.86-.13,1.05H21.78a2,2,0,0,0,2.5,1.18c-.16,1.3.17,2.12,1.05,2.37-.09-4.87.17-10.09-.13-14.74H20.85Zm5-.4c0,.17-.17.18-.13.4,0,3.8,0,8.33,0,12.11,0,1.2-.38,2.79.66,3.42.24-3.7.13-8.28.13-12.11,0-1.4.32-3.05-.4-3.82Zm39.89,1.45a4,4,0,0,0,.66-1.05c-.1,0-.26,0-.26-.13C65.6,68.18,65.17,69.17,65.75,69.42Zm-29-1.05c-.41.13-1,.57-.79.92C36.59,69.31,36.83,69,36.78,68.37Zm-2.11,17c.44,1.29,1,2.69,1.84,3.29a18.66,18.66,0,0,1-2.24-7.11A12.85,12.85,0,0,1,38,71.66c1-.9,2.09-1.16,3-2.11,0-.1,0-.26-.13-.26C35.62,71,32.44,78.77,34.68,85.35ZM62.45,72.71c-.41-1.54,1.09-2.75,2.24-2C64.23,68.88,60.74,71.21,62.45,72.71ZM33.89,73c-.39,0-.41-.3-.79-.26-.11.33-.36.52-.4.92a1.55,1.55,0,0,1,.66,1.45c-.12,1-1.24,1-1.71,1.58,2.3.37,2.42-2.31,1.45-3.42,2,.91,3.11-2.09,1.71-3C35,71,35.33,72.81,33.89,73Zm.26-2c-.15.39-.75.84-.53,1.19C34.45,72.41,34.62,71.28,34.15,71Zm29,1.05a1.49,1.49,0,0,0,.92-.79C63.38,71.18,63,71.39,63.11,72.05ZM39,71.79c-.53.12-1,.3-.92,1.05.25.38.67.11.92.26-.25.32-.36.78,0,1.05,1.15,0,1.45-1.53,1.32-2.37A1.41,1.41,0,0,0,39,71.79Zm20.41,2.5c-.19-1.66,1.65-2.43,2.5-1.18C62.09,71,58,72.28,59.43,74.29ZM70.62,74c.44-.4,1.09-.57,1.45-1.05C71.36,73,70.33,73.43,70.62,74ZM74.17,73c-1.89-.17-2.1,1.32-3.55,1.58v.79A8.46,8.46,0,0,0,74.17,73Zm1.71.26c0-.17.21-.27-.13-.26-1.17,0-1.76,1-2.5,1.58A6.65,6.65,0,0,1,70.48,76c0,.37-.24.55-.26.92C72.78,76.36,74.26,74.73,75.88,73.24ZM76.8,73A12.85,12.85,0,0,1,71,77.32a1.06,1.06,0,0,0,.79.66,19.12,19.12,0,0,0,6.06-5Zm1.84,0a24.57,24.57,0,0,1-4.87,4.61c-.53.36-1.45.47-1.58,1.18.68.37,1.4-.45,2-.79a16.06,16.06,0,0,0,2-1.32C77.29,75.74,79,74.73,79,73Zm-18.56.92c.51,0,1-.09,1.05-.53C60.81,72.84,60.07,73.31,60.08,73.89Zm8.42,3.55c2.51.36,2,3.31-.39,3.42A6.63,6.63,0,0,1,69.83,85c.67-1.16.21-2.74-.13-3.95.74-.62,1.7-1,2.11-2-.55-.89-1.72-1.18-2.24-2.11.33-.52.73-2.31.13-2.9A6,6,0,0,1,68.51,77.45Zm-30,7c.17-1.38-.44-2.55-.39-3.95a10.17,10.17,0,0,1,2.63-6.06c0-.1,0-.26-.13-.26C38.16,75.78,36.68,81,38.49,84.43ZM69.17,74.29c-.48.53-1.66,1.5-2.37,2.24.18.44.86.37,1.19.66A6.1,6.1,0,0,0,69.17,74.29Zm-36.86,0c0,.52-.3.66-.26,1.19C32.84,75.59,32.84,74.45,32.31,74.29Zm5.13.13c-.64.58-2,1-1.58,2.24.55.43.67-.45,1.05-.13a1.13,1.13,0,0,0,.13.79C38.39,77.43,37.81,74.94,37.44,74.42Zm8.16,8.16a73.85,73.85,0,0,0,7.24-8.16H46.66A52.69,52.69,0,0,1,45.6,82.58Zm31.59-5c.91-.75,2.34-1.45,1.71-2.77-2,3.08-6.2,4-8.56,6.71C72.73,81,75.34,79.11,77.2,77.58ZM62.59,83.24c2.63-.4,3.92-5.5,1.45-7.37-1.15-.87-2.69-.56-4.61-.26,0,.42.23.56.13,1.05.36.12,1.23-.27,1.18.26-1-.1-1.57.18-2.5.13-.18.22.11.77,0,1.32,1,.16,1.86,0,2.63.13-.93.58-2.24,0-3.55.13,0,.43.22.66.13,1.18,1,.09,2.28-.17,3,.13-.66.31-1.88,0-2.76.13,0,.38,0,1,0,1.45,1.15.17,3-.34,3.69.26-.6.06-1.45-.13-1.84.13v.92A7.38,7.38,0,0,0,62.59,83.24Zm-17.51,2.5c2-2.36,4.19-4.93,6.19-7.24.67-.78,1.71-1.42,1.84-2.5C50.52,79.25,47.23,82.5,45.08,85.74Zm13-9a2.84,2.84,0,0,0,1.19-.13C59.48,75.45,57.9,75.82,58.11,76.79Zm7.11-.13c.47,1.28.29,3.78.13,5.27C67.36,81.89,67.43,75.62,65.22,76.66ZM66,89.3A54.74,54.74,0,0,0,79,78.11c-.08-.4.17-1.13-.13-1.32a41.52,41.52,0,0,1-13,11.72c-.6.36-1.71.59-1.84,1.45C64.71,90.62,65.48,89.61,66,89.3ZM31.52,77.05c.63.55,1.51,1.51.79,2.63-.18.44-1.1.13-1.05.79C33.22,81.05,33.54,76.68,31.52,77.05Zm.79,5.13c.21.9-.22,1.34-.79,2,1.7.31,1.51-3.54-.26-3.42C31.18,81.51,32.14,81.44,32.31,82.19ZM33.23,86c.17.85-.39,1.07-.53,2,1.54-.57,1.09-3.88-1.05-3.42C32.07,85.28,33,85.1,33.23,86Zm12.9,2.5c.74,1.26,1.69.31,2.11-.79-.56-.49-.81-1.3-1.58-1.58-.49.87-1.29,1.43-1.84,2.24a15.33,15.33,0,0,1,1.84,2.24,39.91,39.91,0,0,1-2.9,3c-.54-.16-.65-1.31-1.19-1.05,0,.74.73.85.92,1.45a17.72,17.72,0,0,1-2.24,2.5c-.34-.46-.71-.11-.79.4h1.32C44.95,93.41,48,89.45,51.13,86c1-1.15,2.47-2.15,2.9-3.69-.55.5-.8,1.31-1.58,1.58a6.57,6.57,0,0,1-1.45-2c.52-.66,1.17-1.19,1.71-1.84.28.46.76.73.92,1.32-.58.26-.5,1.16-1.45,1.05,0-.68.62-.7.66-1.32-.45-.21-.85.6-1.19.92.36.29.49.83.92,1.05a2,2,0,0,0,0-3.55,29.22,29.22,0,0,0-2.24,2.63,18,18,0,0,1,1.84,2.37c-1,.91-1.71,2.06-2.76,2.89a26,26,0,0,1-2.11-2.76,21.91,21.91,0,0,1,2.11-2.24c.39.75,1.09,1.19,1.45,2-.39.49-.77,1-1.19,1.45a2.55,2.55,0,0,1-1.05-1.32c.29-.2.31-.66.79-.66.4.47-.32.61,0,1.05,1.24-.22.48-1.28-.26-1.58-.17.66-.9.77-1.05,1.45.46.63.82,1.38,1.58,1.71a15.61,15.61,0,0,1,1.71-2C51,83.5,50,83.13,49.68,82.06a17.8,17.8,0,0,1,3-3.29c.37.29.58.73.92,1.05a12.32,12.32,0,0,0-.4-2.63c-2.16,2.62-4.68,5.26-6.84,7.77-.74.85-1.75,1.74-1.84,2.9a17,17,0,0,1,2.37-2.63c.59,1,1.62,1.63,2.11,2.77-.75.7-1.3,1.59-2.11,2.24-.41-.73-1.19-1.09-1.45-2a17.65,17.65,0,0,1,1.45-1.58c.21.49.82.58.92,1.19-.4.34-.43,1.06-1.18,1.05C47.34,87.53,46.79,87.28,46.13,88.51ZM56.79,78c.14.34.54.43,1.05.39C58.58,77.18,56.88,76.81,56.79,78ZM69,79.16c-.19.86-1.66.44-1.84,1.32.82,0,2.29-.51,2.63-1.45a4.69,4.69,0,0,0-2.63-1.45C67.25,78.67,68.87,78.18,69,79.16Zm-37.78.13c.55.46,1.08-1.23.13-1.19C31.48,78.64,31.26,78.86,31.25,79.29Zm3.82,2.24c.67.19.56-.4.92-.53.15.25.16.63.66.53,1-.79-.28-2.21-.79-2.77C35.58,79.63,34.59,80.33,35.07,81.53Zm21.06-2.24c.24.28.38.67,1.05.53.1-.5-.16-.63-.13-1.05A.74.74,0,0,0,56.14,79.29Zm11.19-.53c0,.22,0,.44,0,.66.29-.15.85,0,.92-.39A2.15,2.15,0,0,1,67.33,78.76Zm4.87,7.11c2.69-2.3,5.52-4.43,6.85-7a64.79,64.79,0,0,1-14.48,12C67.12,90.07,69.76,88,72.2,85.87Zm-1.58-3.55c2.13-.24,5-1.63,5.66-3.29C74.77,80.51,72.49,81.21,70.62,82.32Zm-47.26-.66c-.93-.65-1.46-1.7-2.5-2.24.18,1.53,1.63,1.8,2.24,2.9a39.61,39.61,0,0,0,3,3c.76.6,1,1.74,2.37,1.71-.43-1.24-2.22-2.25-3.16-3.42A16.8,16.8,0,0,0,23.36,81.66Zm33-1.19c-.12.74.47.76.92.92C57.78,80.58,57.07,79.87,56.4,80.48Zm10.66.79c-.26.09-.35.35-.39.66a5.24,5.24,0,0,1,2.5,2.9C69,83.07,68.59,81.63,67.06,81.27Zm-9,1.32a1.64,1.64,0,0,0,1.19.26v-.92C58.85,81.64,57.78,81.68,58.11,82.58Zm12.51.53c.16.61-.27,1.3,0,1.58.92-.88,2.53-1.76,2.89-2.76A16.23,16.23,0,0,1,70.62,83.11ZM31.25,82.06a2.45,2.45,0,0,1,.13,1.05C31.86,83.17,31.77,81.85,31.25,82.06Zm33.57,0c-.53,1.16-2.16,1.68-3.69,1.45a19.78,19.78,0,0,0,2.63,5.66c1.64-1.13,3.63-1.9,5-3.29A4,4,0,0,0,64.82,82.06Zm13.82,1.58c-.94-3.39-2.27,1.94,0,0ZM45.74,93.77c1.93-2.18,3.88-4.18,5.79-6.32a27.77,27.77,0,0,0,2.9-3.29c.12-.2.05-.26,0-.53,0-.1,0-.26-.13-.26-3.82,4.52-7.84,8.83-11.58,13.43C44,96.24,44.8,94.83,45.74,93.77ZM36.65,86.4c.41,0,.11-.77.39-.92.25.06.24.38.66.26.76-1.09-.74-1.9-1.71-2.11C36,84.56,35.42,86.39,36.65,86.4ZM76.41,84c-.72.28-.65,1.69.4,1.58C77.55,85.39,77.53,83.81,76.41,84ZM51.66,98.91v.39c-.89-1.06-.84-2.85-2.11-3.95-1.63-1.42-5.29-1.44-5,2,.1,0,.15.11.13.26,1.15,1.61,3.46-.33,2.11-1.84-1-.12-1.46.21-1.32,1.19.11.28.84,0,.92.26-1.71.75-1.56-1.53-.26-1.84a3.83,3.83,0,0,1,4.48,3.82c-.78-1.33-1.34-3.58-3.29-3.29.53,1.31,2.71,1.67,2.24,3.55-.63-.87-.67-2.31-2.11-2.37.27,1,1.51,1.65,1.18,2.76C48,99.36,48,97.66,47.05,98c-.47.85,1.52,1.55.79,2.24-.49-.54-.88-1.81-1.71-1.58-.16.47,1.32,1.68.66,2.24-.57-1-.87-2.2-2-2.63,0,1.58,1.52,1.73,1.45,3.42-.71-.43-.57-1.72-1.45-2-.46,1.05,1.13,1.84.66,2.9-.54-.51-.47-1.64-1.18-2-.76,1,1,2.11.66,3-.85-.55-.75-2.06-1.58-2.63-.36,1.83,1.09,3.18.79,4.08-1.09-.83-.79-3.22-1.58-4.21-.66,2.36,1,4.16,1.19,5.66-1.75-1.47-1.34-4.64-2-7-1.17,5.91,3,9.66,3.29,15.4a44.64,44.64,0,0,0,12.64-.13c-.09-.66.17-1.66-.13-2.11-2,1.69-4.47.6-4.61-1.84-.12-2.06,1-4.24,1.18-5.92-.32-.65-1.38-.55-1.58-1.32,2.1.07,2,2.2,1.32,3.82.2.28.81-.84,1.05-.53-.3.75-1,1.11-1.18,2,.9-1.17,2.75,0,3.69-.13-.4-.7,0-1.2,0-2-.05-1.73-1.06-3.54-1.18-4.87-.21-2.27,1.18-4,3.82-3.55-1.74-2.13-4.24.39-4.48,2.24a3,3,0,0,1,4.08-3.16c-.14-1.12-1.78-1.19-2.9-.92-1.08.72-1.29,2.3-2.11,3.29.18-2.55,2-4.35,4.61-3.69a3.22,3.22,0,0,0-2.5-.79c-1.91.26-2.19,2.53-2.9,3.95,0-1.88.83-2.85,1.58-3.95-1.94.12-2.1,2-2.37,3.82-.67-.43.22-1.74-.13-2.24-.75.14-.64,2.91-1.19,2-.13-1.54.87-1.86,1.58-2.5s.68-1,1.19-1.18c1.28-.54,3.14,0,4.21-.13-1.85-3.06-2.89-6.94-4.21-10.53C52,87.86,49,90.73,46.39,94,49.88,93.93,51,96.21,51.66,98.91Zm17-5.27c-.43.25-1.11.56-1.32,1.05.28.78,1.12.23,1.58,0,3-1.52,5.21-3.76,7.5-6.06,1-1,3.08-2.2,2.5-3.69A42.28,42.28,0,0,1,68.64,93.64Zm5.79-7.11c.32.12.35.53.92.39C77,86.07,74.21,84.24,74.43,86.53Zm-42,.39c.18-.17.13-.57.13-.92-.26,0-.17-.36-.53-.26A1.59,1.59,0,0,0,32.44,86.93Zm41.21,1.32c.79-.06.88-1.84-.26-1.58C72.49,86.86,72.91,88.3,73.64,88.24ZM71,93.9c-1,.69-2.23,1-2.76,1.84,1,.19,2-.82,2.9-1.45a48.28,48.28,0,0,0,5.53-4.21c1-.87,2.8-2.13,2.24-3.29A57.05,57.05,0,0,1,71,93.9ZM25.07,89a8.35,8.35,0,0,0-1.45-.92c-.64-.22-2.45-.63-2.76.13,1.21.63,3,.67,3.82,1.71a8.31,8.31,0,0,1,5.92-1.32,3.46,3.46,0,0,0-.4-1.05A7.23,7.23,0,0,0,25.07,89Zm7.9-.53c.34.33.64-.13,1.18,0,1.36.36.23,2.44.79,2.76C36.15,89.89,34.52,87,33,88.51ZM72.2,89.69c.59-.15.68-1.14.26-1.58A.82.82,0,1,0,72.2,89.69Zm-28.3.13a.36.36,0,0,1,.26-.39,5.58,5.58,0,0,1,1.19,1.45c-.56.27-.79,1.58-1.58,1.19,0-.75,1.28-1,.53-1.71-.61.27-.85.91-1.32,1.32a3,3,0,0,0,.92,1.18c.6-.8,1.32-1.49,2-2.24a11.83,11.83,0,0,0-1.71-2.11C44.17,89,43.61,89.53,43.89,89.82Zm17.64,10c.34,1.69.48,4.11-1.05,4.21-.85.06-1.24-1.08-1.58-.92a8.89,8.89,0,0,0-.92,3.29c1.8-1.47,3.83,1.84,2,2.76-.62.31-1.26-.22-1.45,0-.79,1.45-.38,3.49-.4,5.53,2.15,3.34,4.36,6.61,6.45,10H79c-.09-12,.18-24.31-.13-36.07A48.14,48.14,0,0,1,61.53,99.83ZM34.28,90.35a2.48,2.48,0,0,0-.13-1.05c-.19.07-.68-.15-.66.13C33.84,89.65,33.78,90.28,34.28,90.35Zm36.2.4c.78-.06.92-1.85-.26-1.58C69.3,89.37,69.75,90.8,70.48,90.74Zm-2-.53c-.56.25-.54.93-.26,1.45C69.42,92.41,70,90,68.51,90.22Zm-2.24,1.84c0,.4.36.66.92.79C68.91,91.66,66.15,90.38,66.27,92.06ZM41.39,95.75c.28-.77,1.12-1,1.32-1.84-.25-.05-.1-.51-.53-.4C42.12,94.34,40.94,95.26,41.39,95.75Zm2.37,1.32a.62.62,0,0,1,.39.13c-.07-.19.15-.68-.13-.66C44,96.8,43.66,96.7,43.76,97.06Zm0,3.55c1.46-.46.59-3.18-.26-3.42-2.62-.75-3.41,2.52-3.16,4.74.31,2.73,2.28,6.76,3,9.74.29,1.15.32,2.46,1.05,3.29.85-4.83-4.36-9.25-3.29-14.74A2.18,2.18,0,0,1,43,98.38c.34.19.74.31.79.79-.39.35-.7-.84-1.32-.26A1.12,1.12,0,0,0,43.76,100.62Zm-15.93-3c1.06.52,1.43,1.73,2.11,2.63a11.28,11.28,0,0,1,3.42-2.76A40.49,40.49,0,0,0,27.83,97.59ZM34.54,101c.25,2.15,1.63,4.24,2.63,6.45a29,29,0,0,1,1.71,5c.13.48.19,1.35.79,1.58-.12-5.71-6.14-10.72-3.69-16.59,0-.08,0-.16-.13-.13C34.71,98,34.34,99.3,34.54,101Zm3.69,6.71c.9,2.37,1.36,4.55,2.24,6.58a30.57,30.57,0,0,0-1.84-6.85c-1.13-3.12-3.37-6.88-1.45-10-.17,0-.18-.17-.4-.13C34,100.91,37,104.42,38.23,107.73Zm.79-.26c.43,1.22.87,2.39,1.18,3.55s.16,2.76,1.32,3.42c.14-4.53-3.64-8.79-4.08-13.3a4.58,4.58,0,0,1,.92-3.69c-.17,0-.18-.17-.4-.13C35.22,100.19,37.81,104.06,39,107.46Zm.26-10.14a3.21,3.21,0,0,0-1.58,3c0,2.9,1.62,5.22,2.63,7.9a47.52,47.52,0,0,1,1.45,4.87c.12.45.06,1.35.66,1.45.08-5.52-5.7-12.19-2.9-17.25Zm.92.13c-1,.94-1.26,2.5-1.05,4.34.35,3.09,2.41,6.72,3.16,9.74a9.22,9.22,0,0,0,1.05,3.29c.51-4.26-3-8.61-3.42-13.16A6.5,6.5,0,0,1,41,97.33C40.59,97.23,40.61,97.55,40.21,97.46ZM20.85,124.71H31.39c1.72-2.62,3.61-5.08,5.27-7.77H32.83c-.16,1.66-.18,3.16-1.58,3.29-1.58.15-1.87-1.4-2-2.9-.76.93-1.7-.35-2.5.26-1.24-.65-2.33-1.44-3.55-2.11-3,.83-3-5,.53-3.95a6.12,6.12,0,0,1,.92-2.24c-.15-1.66-1.76-3.12-.53-4.61A33.13,33.13,0,0,0,22,98.91c-.24-.5-.47-1.22-.92-1.45h-.26Zm5-24.88c.18-1,1.82-1.84,1.58-2.37a41.1,41.1,0,0,0-5.27.13C23.92,97.82,24.64,99.07,25.86,99.83Zm6.45-.66c.25-.3.83-.68.66-.92a10.39,10.39,0,0,0-3,3c-.55-.54-1.46-3.21-2.24-3.16s-1.5,2.5-1.84,2.77c-.87-.85-1.77-2.36-3-2.37,1.3,1.33,2,3.23,3,4.87.44-1.36.7-2.9,2.11-3.29,1.3.46,1.39,2.12,2.11,3.16A10.9,10.9,0,0,1,32.31,99.17Zm24.62,3.16a2.9,2.9,0,0,1,4.21-2.5C60,97,55.3,99.68,56.92,102.33ZM30.46,105c.95-.65.87-2,1.32-3s1.17-2,1.58-2.9c.07,0,.15-.11,0-.13C32.08,100.38,30.09,102.78,30.46,105Zm.92,0c0,.41.31.77.26,1.19-.08.69-.94,1.27-.66,2,1.92-3.2,5.15,1.55,1.71,2.11,0,.31-.21.49-.13.92a45.67,45.67,0,0,0,5.53.13c-.58-4.25-4.26-7.23-3.95-12.37C33.31,100.67,31.34,102.6,31.39,105Zm-6.45.13c1.09-.5.07-1.77-.26-2.5a7.79,7.79,0,0,0-1.45-2.5C23.81,101.75,24.22,103.57,24.93,105.09Zm32.39-1.58c.25-1.81,2-3.82,3.95-2.63C60,98.13,56.24,101.46,57.32,103.51Zm-29.49-2.76a5.68,5.68,0,0,0-1.58,3.69c.43-1.07.51-2.48,1.58-2.9,1.08.5.87,2.28,1.58,3.16C29.52,103.27,28.93,101.41,27.83,100.75Zm29.88,4.87c.26-1.65,1.2-5.06,3-3.42-.63-.08-.79-.37-1.32,0,.08,3.22,3.25,0,1.32-1.32C58.06,100.66,57.2,103.5,57.71,105.62ZM28,106.67a1.56,1.56,0,0,0,.26-1.71C27.26,104.4,26.91,106.64,28,106.67Zm-1.71,0c.41-.21.35-1.36,0-1.58h-.4C25.67,105.58,25.56,106.67,26.25,106.67Zm3-1.58c-.37.41-.6,1.52,0,1.84a2.23,2.23,0,0,0,.53-1.58C29.54,105.36,29.64,105,29.28,105.09Zm-4.21,2a1.64,1.64,0,0,0-.26-1.45C23.52,105.5,24.16,107.17,25.07,107.07Zm6.06-1.58h-.39c-.47.28-.58.91-.53,1.71A1.29,1.29,0,0,0,31.12,105.49ZM58,109.57c.22-.53.22-1.27.66-1.58.24.37.24,1,.79,1.05,1-.16,1-2,.26-2.5C57.73,106.09,57.33,108.24,58,109.57Zm-33-1.71c0,.6-.13.73.13,1.18a7.1,7.1,0,0,1,5.13.26,1.51,1.51,0,0,0,.13-1.32A6.63,6.63,0,0,0,24.93,107.86Zm5.92,9.21c.05.47,1,0,.79.79-.56.05-1.36-.13-1.71.13-.15,1.2.42,2,1.45,1.71,1.93-.51.25-8.35.79-10,.85-.25,1.85-.34,1.58-1.71C29.4,105.81,31.81,114.39,30.86,117.07Zm23.7-7c.51-.19.33-1.07,1.18-.92.48.09.41.73.79.92C56.85,108,54,108.68,54.56,110.1Zm-30.54,2c.79-.31,1.83-1.07,2.9-.66-.29.23-.95.11-.92.66.54.31,1.15-.2,1.71.13.08-.4-.17-1.13.13-1.32.3,1.1,1.21,1.59,1.71,2.5-.53.72-.44,1.34-.39,2.5.56-.1.7-.61,1.45-.53.07-1.87-.08-3.52-.13-5.27C28.81,108.35,23.46,108.54,24,112.07Zm29.75-2.37h.53c-.11-.37.19-.34.13-.66C54.06,109.12,53.68,109.18,53.77,109.7Zm3.42.26c.35-.36,0-.72-.4-.79A.75.75,0,0,0,57.19,110Zm.13.79a3.5,3.5,0,0,1-3.42-.13C54.17,112,56.87,111.94,57.32,110.75Zm0,.53c-.73,1.1-2.88.87-3.69,0C53.56,113.19,57.84,113.19,57.32,111.28Zm-24.75,1.05c.51.28,1.51.07,2.24.13,0,1,.35,2.34,0,3.29-.6.15-1.81-.31-2,.26v.4c.62.31,1.8,0,2.63.13a37.34,37.34,0,0,0-.13-5C34.37,111.76,32.36,110.94,32.57,112.33Zm3.29,0h2.63c.1-.4-.23-.39-.13-.79C37.48,111.76,35.58,111,35.86,112.33ZM21.51,113c-.2,2,.17-.43.79-.53.47-.5,1.21.49,1.32-.13C22.81,111.52,21.57,112.46,21.51,113Zm1.84.13c-.57-.13-.6.27-.92.39-.15.43.4.81,0,1.05s-.47-.32-.79-.39a1.14,1.14,0,0,0,1.45.92C23.17,114.48,23.6,113.65,23.36,113.12Zm.92.26a.71.71,0,0,0,.66-.79c-.1,0-.15-.11-.13-.26H24A1.16,1.16,0,0,0,24.28,113.39Zm.92-.13a2.16,2.16,0,0,0,.92.26,1.25,1.25,0,0,0,0-1.18Q25,112.18,25.2,113.26Zm1.45.53c.79.13.79-.53,1.05-.92C27.27,111.78,26,112.75,26.65,113.78Zm9.21-.26a12.55,12.55,0,0,0,2.9.13v-.79a12.52,12.52,0,0,0-2.9-.13ZM27.7,114c.31,0,.24.46.66.39.47-.4.31-.92.13-1.58C27.82,112.85,27.68,113.36,27.7,114Zm5.92.92c.82,0,1-1.31.26-1.84A.93.93,0,1,0,33.62,115Zm-9,.79a8.72,8.72,0,0,0,0-2.11,1.12,1.12,0,0,1-.79-.13C23.54,114.22,23.3,116,24.67,115.76Zm.26.26c.25.28.36.69.92.66a9.56,9.56,0,0,1,0-2.9c-.4.1-.39-.23-.79-.13C24.83,114.41,25.18,115.14,24.93,116ZM27,117.2a14.83,14.83,0,0,0,.13-3.16c-.5.1-.63-.16-1.05-.13C26.11,115,25.58,117.21,27,117.2Zm8.82-2.5c1-.15,2.85.48,2.76-.79C37.69,114.16,35.62,113.27,35.86,114.7Zm-8.42,2.24a2.56,2.56,0,0,0,1.18.53c.59-.63.23-1.89.13-2.9-.6.36-.86-.12-1.32-.26C27.32,115.24,27.61,116.37,27.44,116.94Zm8.42-1.32c.83,0,2,.24,2.11-.53H35.86Zm-5.92,1.84c.6-.19.45-1.13.66-1.71C29.8,115.2,28.73,117.21,29.94,117.47Zm5.92-.92c.68,0,1.42.1,1.45-.53H35.86Zm1.58.92c2.08-.31,3.73.59,3.95,2.37.09.7-.71,1.95.66,1.58-1-4.1,6.23-5.13,6.19-.79a1.23,1.23,0,0,0-.13,1.32c.25,0,.29.15.53.13.55-.08.43-1,.26-1.45.46-3.11,5.42-3.57,6.06-.53.12.56-.58,1.44.53,1.71.9-.41.15-1.34.26-2.11.21-1.38,1.35-2.06,3.16-2-1-2-3.19-.1-3.68,1.32-1.14-3.32-5.58-2.28-6.58.53-.47-3.57-6-3.39-6.71-.13C41.69,117.47,38.85,115.14,37.44,117.47Zm-.66,1.32c1.28-.65,1.85,2,.66,2.37-1.56-.52-1.44,1-2.9.53-.49,1.13-1.35,1.89-1.84,3,10.18-.09,20.71.18,30.67-.13a18.92,18.92,0,0,1-1.45-2.37c-1,.22-1.16-.42-1.58-.79-1.88.84-2-2.35-.53-2.5-.5-1.09-1.64-.2-2,.4-.48-.69-2,0-1.58.66,1.81-.76,1.92,2.71.13,2.5a1.1,1.1,0,1,1-2.11,0c-1.61-.05-1.7-2.76.13-2.63-.34-1.08-1.81-.26-2.37,0-.66-.69-2.29-.69-2.5.39,2.08-.1,1.29,3.07-.13,2.63.22,2-2.84,1.34-2.11-.26-1.52,0-1.63-2.93.39-2.5-.44-1.25-1.44-.95-2.5-.53-.38-1-2.79-.77-2.5.26,1.86-.55,1.49,3.07-.13,2.5-.07,1-.64,1.34-1.18,1.32-1.1,0-.6-1-1.05-1.71-.29-.45-.81-.27-.92-.79-.23-1,.2-1.9,1.45-1.71-.18-.83-1-.81-1.71-.53C39,117.95,36.48,117.55,36.78,118.78Zm-.39.13c-.12.36-.4.56-.53.92A.56.56,0,0,0,36.39,118.92Z"/><path class="cls-3" d="M71.27,53.62a7.43,7.43,0,0,1,1.32,1.32A7.44,7.44,0,0,1,71.27,53.62Z"/><path class="cls-3" d="M23.09,82.32a39.38,39.38,0,0,1,3,3A39.61,39.61,0,0,1,23.09,82.32Z"/><path class="cls-3" d="M23.36,81.66a16.8,16.8,0,0,1,2,2A16.75,16.75,0,0,1,23.36,81.66Z"/></g></svg>