<svg xmlns="http://www.w3.org/2000/svg" viewBox="0 0 101.07 140"><defs><style>.cls-1{fill:#fff;}.cls-2{fill:#231f20;}</style></defs><title>Монтажная область 24</title><g id="cards"><path class="cls-1" d="M98,0S68.82.79,50.53.79,3,0,3,0A2.94,2.94,0,0,0,0,3V135.9A3.17,3.17,0,0,0,3,139s29.21,1,47.5,1S98,139,98,139a3.17,3.17,0,0,0,3-3.13V3A2.94,2.94,0,0,0,98,0Z"/><path class="cls-2" d="M8,9.29a2.21,2.21,0,0,1,1.13-.64,2,2,0,0,1-1.32-2,2.41,2.41,0,0,1,.73-1.8,2.51,2.51,0,0,1,1.83-.71,2.33,2.33,0,0,1,1.73.68,2.39,2.39,0,0,1,.67,1.76,2.24,2.24,0,0,1-1.29,2.12,2.31,2.31,0,0,1,1.67,2.45,3,3,0,0,1-.82,2.2,2.82,2.82,0,0,1-2.13.85,2.85,2.85,0,0,1-2.08-.82,2.76,2.76,0,0,1-.83-2.05A3,3,0,0,1,8,9.29Zm2.22-.09a1.77,1.77,0,0,0-1.33.55,1.94,1.94,0,0,0-.53,1.4,2.08,2.08,0,0,0,.52,1.46,1.7,1.7,0,0,0,1.31.56,1.74,1.74,0,0,0,1.33-.56,2,2,0,0,0,.52-1.45,2,2,0,0,0-.49-1.43A1.73,1.73,0,0,0,10.26,9.2Zm.09-4.13a1.3,1.3,0,0,0-1,.43A1.53,1.53,0,0,0,9,6.57a1.51,1.51,0,0,0,.39,1.06,1.34,1.34,0,0,0,2,0,1.5,1.5,0,0,0,.4-1.05,1.53,1.53,0,0,0-.39-1.07A1.26,1.26,0,0,0,10.35,5.06Z"/><path class="cls-2" d="M92.82,129.66a2.21,2.21,0,0,1-1.13.64,2,2,0,0,1,1.32,2,2.41,2.41,0,0,1-.73,1.8,2.51,2.51,0,0,1-1.83.71,2.33,2.33,0,0,1-1.73-.68,2.39,2.39,0,0,1-.67-1.76,2.24,2.24,0,0,1,1.29-2.12,2.31,2.31,0,0,1-1.67-2.45,3,3,0,0,1,.82-2.2,3.07,3.07,0,0,1,4.21,0,2.76,2.76,0,0,1,.83,2.05A3,3,0,0,1,92.82,129.66Zm-2.22.09a1.77,1.77,0,0,0,1.33-.55,1.94,1.94,0,0,0,.53-1.4,2.08,2.08,0,0,0-.52-1.46,1.7,1.7,0,0,0-1.31-.56,1.74,1.74,0,0,0-1.33.56,2.29,2.29,0,0,0,0,2.88A1.73,1.73,0,0,0,90.6,129.75Zm-.09,4.13a1.3,1.3,0,0,0,1-.43,1.53,1.53,0,0,0,.39-1.08,1.51,1.51,0,0,0-.39-1.06,1.34,1.34,0,0,0-2,0,1.5,1.5,0,0,0-.4,1.05,1.53,1.53,0,0,0,.39,1.07A1.26,1.26,0,0,0,90.51,133.88Z"/><path class="cls-2" d="M12.75,25.92a2.49,2.49,0,0,0,2.49-2.49c0-3.69-5-6.51-5-6.52s-5,2.84-5,6.52a2.49,2.49,0,0,0,4.77,1c-.77,3.58-3.4,4.15-3.4,4.15h7.22s-2.64-.58-3.4-4.15A2.49,2.49,0,0,0,12.75,25.92Z"/><path class="cls-2" d="M88.11,113a2.49,2.49,0,0,0-2.49,2.49c0,3.69,5,6.51,5,6.52s5-2.84,5-6.52a2.49,2.49,0,0,0-4.77-1c.77-3.58,3.4-4.15,3.4-4.15H87s2.63.57,3.4,4.15A2.49,2.49,0,0,0,88.11,113Z"/><path class="cls-2" d="M56.25,95.57a5.81,5.81,0,0,0,5.81-5.81c0-8.6-11.56-15.19-11.62-15.22S38.83,81.16,38.83,89.76A5.81,5.81,0,0,0,50,92.09c-1.79,8.35-7.94,9.69-7.94,9.69H58.87s-6.15-1.34-7.94-9.69A5.81,5.81,0,0,0,56.25,95.57Z"/><path class="cls-2" d="M56.31,55.57a5.81,5.81,0,0,0,5.81-5.81c0-8.6-11.56-15.19-11.62-15.22S38.89,41.16,38.89,49.76A5.81,5.81,0,0,0,50,52.09c-1.79,8.35-7.94,9.69-7.94,9.69H58.93S52.78,60.44,51,52.09A5.81,5.81,0,0,0,56.31,55.57Z"/><path class="cls-2" d="M36.23,75.57A5.81,5.81,0,0,0,42,69.76c0-8.6-11.56-15.19-11.62-15.22S18.81,61.16,18.81,69.76a5.81,5.81,0,0,0,11.13,2.33C28.15,80.44,22,81.78,22,81.78H38.85s-6.15-1.34-7.94-9.69A5.81,5.81,0,0,0,36.23,75.57Z"/><path class="cls-2" d="M36.23,35.57A5.81,5.81,0,0,0,42,29.76c0-8.6-11.56-15.19-11.62-15.22S18.81,21.16,18.81,29.76a5.81,5.81,0,0,0,11.13,2.33C28.15,40.44,22,41.78,22,41.78H38.85s-6.15-1.34-7.94-9.69A5.81,5.81,0,0,0,36.23,35.57Z"/><path class="cls-2" d="M36.23,115.57A5.81,5.81,0,0,0,42,109.76c0-8.6-11.56-15.19-11.62-15.22s-11.62,6.62-11.62,15.22a5.81,5.81,0,0,0,11.13,2.33c-1.79,8.35-7.94,9.69-7.94,9.69H38.85s-6.15-1.34-7.94-9.69A5.81,5.81,0,0,0,36.23,115.57Z"/><path class="cls-2" d="M76.23,75.57A5.81,5.81,0,0,0,82,69.76c0-8.6-11.56-15.19-11.62-15.22S58.81,61.16,58.81,69.76a5.81,5.81,0,0,0,11.13,2.33C68.15,80.44,62,81.78,62,81.78H78.85s-6.15-1.34-7.94-9.69A5.81,5.81,0,0,0,76.23,75.57Z"/><path class="cls-2" d="M76.23,35.57A5.81,5.81,0,0,0,82,29.76c0-8.6-11.56-15.19-11.62-15.22S58.81,21.16,58.81,29.76a5.81,5.81,0,0,0,11.13,2.33C68.15,40.44,62,41.78,62,41.78H78.85s-6.15-1.34-7.94-9.69A5.81,5.81,0,0,0,76.23,35.57Z"/><path class="cls-2" d="M76.23,115.57A5.81,5.81,0,0,0,82,109.76c0-8.6-11.56-15.19-11.62-15.22s-11.62,6.62-11.62,15.22a5.81,5.81,0,0,0,11.13,2.33c-1.79,8.35-7.94,9.69-7.94,9.69H78.85s-6.15-1.34-7.94-9.69A5.81,5.81,0,0,0,76.23,115.57Z"/></g></svg>