<svg xmlns="http://www.w3.org/2000/svg" viewBox="0 0 101.07 140"><defs><style>.cls-1{fill:#fff;}.cls-2{fill:#231f20;}</style></defs><title>Монтажная область 25</title><g id="cards"><path class="cls-1" d="M98,0S68.82.79,50.53.79,3,0,3,0A2.94,2.94,0,0,0,0,3V135.9A3.17,3.17,0,0,0,3,139s29.21,1,47.5,1S98,139,98,139a3.17,3.17,0,0,0,3-3.13V3A2.94,2.94,0,0,0,98,0Z"/><path class="cls-2" d="M8.55,4.69v.38a2.11,2.11,0,0,1,.52-.65,1.16,1.16,0,0,1,.66-.16,2.71,2.71,0,0,1,1,.34,2.7,2.7,0,0,0,1.08.34,1.4,1.4,0,0,0,.35-.06A.43.43,0,0,1,12,4.56q0-.46.49-.46.75,0,.75,1.35a3.49,3.49,0,0,1-.61,2,8.11,8.11,0,0,1-.64.84A5.55,5.55,0,0,0,11,10a6.25,6.25,0,0,0-.26,1.93v.22c0,.11,0,.18,0,.23q0,.45,0,.74,0,1.07-.62,1.07t-.61-.62a9.32,9.32,0,0,1,0-1,7.3,7.3,0,0,1,.65-3.13,9.28,9.28,0,0,1,1.35-1.94,5.89,5.89,0,0,0,.7-.92,3.26,3.26,0,0,0,.3-.91,1.45,1.45,0,0,1-.88.39,1.21,1.21,0,0,1-.42-.09l-.57-.23a2.81,2.81,0,0,0-1-.26,1,1,0,0,0-.75.34,1.21,1.21,0,0,0-.3.83,4.19,4.19,0,0,0,0,.46c0,.26,0,.45,0,.57q0,.74-.51.74t-.51-.55a4.51,4.51,0,0,1,.09-.77A6.11,6.11,0,0,0,7.8,6a6.2,6.2,0,0,0-.06-.7,6.2,6.2,0,0,1-.06-.7q0-.49.45-.49T8.55,4.69Z"/><path class="cls-2" d="M92.31,134.26v-.38a2.11,2.11,0,0,1-.52.65,1.17,1.17,0,0,1-.67.16,2.71,2.71,0,0,1-1-.34A2.7,2.7,0,0,0,89,134a1.4,1.4,0,0,0-.35.06.43.43,0,0,1,.13.32q0,.46-.49.46-.75,0-.75-1.35a3.49,3.49,0,0,1,.61-2,8.11,8.11,0,0,1,.64-.84,5.55,5.55,0,0,0,1-1.67,6.25,6.25,0,0,0,.26-1.93v-.22c0-.11,0-.18,0-.23q0-.45,0-.74,0-1.07.62-1.07t.61.62a9.35,9.35,0,0,1,0,1,7.3,7.3,0,0,1-.65,3.13,9.28,9.28,0,0,1-1.35,1.94,5.89,5.89,0,0,0-.7.92,3.26,3.26,0,0,0-.3.91,1.45,1.45,0,0,1,.88-.39,1.21,1.21,0,0,1,.42.09l.57.23a2.81,2.81,0,0,0,1,.26,1,1,0,0,0,.75-.34,1.21,1.21,0,0,0,.3-.83,4.21,4.21,0,0,0,0-.46q0-.39,0-.57,0-.74.51-.74t.51.55a4.52,4.52,0,0,1-.09.77,6.12,6.12,0,0,0-.1,1.07,6.19,6.19,0,0,0,.06.7,6.17,6.17,0,0,1,.06.7q0,.49-.45.49T92.31,134.26Z"/><path class="cls-2" d="M12.75,25.92a2.49,2.49,0,0,0,2.49-2.49c0-3.69-5-6.51-5-6.52s-5,2.84-5,6.52a2.49,2.49,0,0,0,4.77,1c-.77,3.58-3.4,4.15-3.4,4.15h7.22s-2.64-.58-3.4-4.15A2.49,2.49,0,0,0,12.75,25.92Z"/><path class="cls-2" d="M88.11,113a2.49,2.49,0,0,0-2.49,2.49c0,3.69,5,6.51,5,6.52s5-2.84,5-6.52a2.49,2.49,0,0,0-4.77-1c.77-3.58,3.4-4.15,3.4-4.15H87s2.64.57,3.4,4.15A2.49,2.49,0,0,0,88.11,113Z"/><path class="cls-2" d="M56.27,55.57a5.81,5.81,0,0,0,5.81-5.81c0-8.6-11.56-15.19-11.62-15.22S38.85,41.16,38.85,49.76A5.81,5.81,0,0,0,50,52.09C48.19,60.44,42,61.78,42,61.78H58.89S52.74,60.44,51,52.09A5.81,5.81,0,0,0,56.27,55.57Z"/><path class="cls-2" d="M36.19,75.57A5.81,5.81,0,0,0,42,69.76c0-8.6-11.56-15.19-11.62-15.22S18.77,61.16,18.77,69.76A5.81,5.81,0,0,0,29.9,72.09C28.11,80.44,22,81.78,22,81.78H38.81s-6.15-1.34-7.94-9.69A5.81,5.81,0,0,0,36.19,75.57Z"/><path class="cls-2" d="M36.19,35.57A5.81,5.81,0,0,0,42,29.76c0-8.6-11.56-15.19-11.62-15.22S18.77,21.16,18.77,29.76A5.81,5.81,0,0,0,29.9,32.09C28.11,40.44,22,41.78,22,41.78H38.81s-6.15-1.34-7.94-9.69A5.81,5.81,0,0,0,36.19,35.57Z"/><path class="cls-2" d="M36.19,115.57A5.81,5.81,0,0,0,42,109.76c0-8.6-11.56-15.19-11.62-15.22s-11.62,6.62-11.62,15.22a5.81,5.81,0,0,0,11.13,2.33c-1.79,8.35-7.94,9.69-7.94,9.69H38.81s-6.15-1.34-7.94-9.69A5.81,5.81,0,0,0,36.19,115.57Z"/><path class="cls-2" d="M76.19,75.57A5.81,5.81,0,0,0,82,69.76c0-8.6-11.56-15.19-11.62-15.22S58.77,61.16,58.77,69.76A5.81,5.81,0,0,0,69.9,72.09C68.11,80.44,62,81.78,62,81.78H78.81s-6.15-1.34-7.94-9.69A5.81,5.81,0,0,0,76.19,75.57Z"/><path class="cls-2" d="M76.19,35.57A5.81,5.81,0,0,0,82,29.76c0-8.6-11.56-15.19-11.62-15.22S58.77,21.16,58.77,29.76A5.81,5.81,0,0,0,69.9,32.09C68.11,40.44,62,41.78,62,41.78H78.81s-6.15-1.34-7.94-9.69A5.81,5.81,0,0,0,76.19,35.57Z"/><path class="cls-2" d="M76.19,115.57A5.81,5.81,0,0,0,82,109.76c0-8.6-11.56-15.19-11.62-15.22s-11.62,6.62-11.62,15.22a5.81,5.81,0,0,0,11.13,2.33c-1.79,8.35-7.94,9.69-7.94,9.69H78.81s-6.15-1.34-7.94-9.69A5.81,5.81,0,0,0,76.19,115.57Z"/></g></svg>