<svg xmlns="http://www.w3.org/2000/svg" viewBox="0 0 101.07 140"><defs><style>.cls-1{fill:#fff;}.cls-2{fill:#c4161c;}</style></defs><title>Монтажная область 12</title><g id="cards"><path class="cls-1" d="M98,0S68.82.79,50.53.79,3,0,3,0A2.94,2.94,0,0,0,0,3V135.9A3.17,3.17,0,0,0,3,139s29.21,1,47.5,1S98,139,98,139a3.17,3.17,0,0,0,3-3.13V3A2.94,2.94,0,0,0,98,0Z"/><path class="cls-2" d="M6.76,8.66V5.91q0-.7-.4-.7A1.77,1.77,0,0,0,6,5.26a1.77,1.77,0,0,1-.35.05q-.47,0-.47-.51a.51.51,0,0,1,.16-.38.56.56,0,0,1,.41-.15,3.09,3.09,0,0,1,.52.06,3.24,3.24,0,0,0,.58.06,1.34,1.34,0,0,0,.38,0,1.33,1.33,0,0,1,.42-.12q.22,0,.22.35v.15l0,.55q0,.73-.09,2.19V8.68l0,3.44a2.45,2.45,0,0,0,.11.78Q8,13,8.3,13l.38,0,.38,0a.44.44,0,0,1,.51.49A.47.47,0,0,1,9,14a6.13,6.13,0,0,1-.84-.09,6.12,6.12,0,0,0-.86-.09,6.54,6.54,0,0,0-1,.09,5.87,5.87,0,0,1-.75.09A.46.46,0,0,1,5,13.51Q5,13,5.5,13l.33,0,.33,0q.49,0,.51-.78,0-.16,0-.7Q6.76,10.53,6.76,8.66Z"/><path class="cls-2" d="M11.27,12.8a6.48,6.48,0,0,1-.91-3.69,6.4,6.4,0,0,1,.92-3.68,2.63,2.63,0,0,1,2.17-1.33,2.58,2.58,0,0,1,2.22,1.32,6.6,6.6,0,0,1,.93,3.71,6.41,6.41,0,0,1-.92,3.69,2.63,2.63,0,0,1-2.17,1.33A2.66,2.66,0,0,1,11.27,12.8Zm2.2-7.68q-.86,0-1.42,1.13a6.37,6.37,0,0,0-.57,2.86A6.42,6.42,0,0,0,12.06,12q.57,1.14,1.42,1.14T14.9,12a6.38,6.38,0,0,0,.57-2.86,6.42,6.42,0,0,0-.57-2.87Q14.33,5.12,13.48,5.12Z"/><path class="cls-2" d="M94.1,130.29V133q0,.7.4.7a1.77,1.77,0,0,0,.35-.05,1.77,1.77,0,0,1,.35-.05q.47,0,.47.51a.51.51,0,0,1-.16.38.56.56,0,0,1-.41.15,3.1,3.1,0,0,1-.52-.06,3.24,3.24,0,0,0-.58-.06,1.34,1.34,0,0,0-.38,0,1.33,1.33,0,0,1-.42.12q-.22,0-.22-.35v-.15l0-.55q0-.73.09-2.19v-1.22l0-3.44a2.44,2.44,0,0,0-.11-.78q-.08-.15-.4-.15l-.38,0-.38,0a.44.44,0,0,1-.51-.49.47.47,0,0,1,.52-.54,6.13,6.13,0,0,1,.84.09,6.12,6.12,0,0,0,.86.09,6.54,6.54,0,0,0,1-.09,5.87,5.87,0,0,1,.75-.09.46.46,0,0,1,.52.52q0,.51-.45.51l-.33,0-.33,0q-.49,0-.51.78,0,.16,0,.7Q94.1,128.42,94.1,130.29Z"/><path class="cls-2" d="M89.59,126.15a6.48,6.48,0,0,1,.91,3.69,6.4,6.4,0,0,1-.92,3.68,2.63,2.63,0,0,1-2.17,1.33,2.58,2.58,0,0,1-2.22-1.32,6.6,6.6,0,0,1-.93-3.71,6.41,6.41,0,0,1,.92-3.69,2.63,2.63,0,0,1,2.17-1.33A2.66,2.66,0,0,1,89.59,126.15Zm-2.21,7.68q.86,0,1.42-1.13a7.52,7.52,0,0,0,0-5.72q-.57-1.14-1.42-1.14T86,127a7.52,7.52,0,0,0,0,5.72Q86.53,133.83,87.38,133.83Z"/><path class="cls-2" d="M15.75,21a2.74,2.74,0,0,0-5.48,0,2.74,2.74,0,0,0-5.48,0c0,4.06,5.46,7.17,5.48,7.18S15.75,25.11,15.75,21Z"/><path class="cls-2" d="M85.11,117.9a2.74,2.74,0,0,0,5.48,0,2.74,2.74,0,0,0,5.48,0c0-4.06-5.46-7.17-5.48-7.18S85.11,113.84,85.11,117.9Z"/><path class="cls-2" d="M39.43,20.65a5.76,5.76,0,0,0-11.51,0,5.76,5.76,0,0,0-11.51,0c0,8.52,11.46,15.05,11.51,15.08S39.43,29.18,39.43,20.65Z"/><path class="cls-2" d="M39.43,50.65a5.76,5.76,0,0,0-11.51,0,5.76,5.76,0,0,0-11.51,0c0,8.52,11.46,15.05,11.51,15.08S39.43,59.18,39.43,50.65Z"/><path class="cls-2" d="M39.43,80.65a5.76,5.76,0,0,0-11.51,0,5.76,5.76,0,0,0-11.51,0c0,8.52,11.46,15.05,11.51,15.08S39.43,89.18,39.43,80.65Z"/><path class="cls-2" d="M39.43,110.65a5.76,5.76,0,0,0-11.51,0,5.76,5.76,0,0,0-11.51,0c0,8.52,11.46,15.05,11.51,15.08S39.43,119.18,39.43,110.65Z"/><path class="cls-2" d="M84.43,20.65a5.76,5.76,0,0,0-11.51,0,5.76,5.76,0,0,0-11.51,0c0,8.52,11.46,15.05,11.51,15.08S84.43,29.18,84.43,20.65Z"/><path class="cls-2" d="M84.43,50.65a5.76,5.76,0,0,0-11.51,0,5.76,5.76,0,0,0-11.51,0c0,8.52,11.46,15.05,11.51,15.08S84.43,59.18,84.43,50.65Z"/><path class="cls-2" d="M84.43,80.65a5.76,5.76,0,0,0-11.51,0,5.76,5.76,0,0,0-11.51,0c0,8.52,11.46,15.05,11.51,15.08S84.43,89.18,84.43,80.65Z"/><path class="cls-2" d="M84.43,110.65a5.76,5.76,0,0,0-11.51,0,5.76,5.76,0,0,0-11.51,0c0,8.52,11.46,15.05,11.51,15.08S84.43,119.18,84.43,110.65Z"/><path class="cls-2" d="M62.34,34.65a5.76,5.76,0,0,0-11.51,0,5.76,5.76,0,0,0-11.51,0c0,8.52,11.46,15.05,11.51,15.08S62.34,43.18,62.34,34.65Z"/><path class="cls-2" d="M62.34,94.65a5.76,5.76,0,0,0-11.51,0,5.76,5.76,0,0,0-11.51,0c0,8.52,11.46,15.05,11.51,15.08S62.34,103.18,62.34,94.65Z"/></g></svg>