<svg xmlns="http://www.w3.org/2000/svg" viewBox="0 0 101.07 140"><defs><style>.cls-1{fill:#fff;}.cls-2,.cls-3{fill:#c4161c;}.cls-3,.cls-4{fill-rule:evenodd;}.cls-4{fill:#231f20;}</style></defs><title>Монтажная область 53</title><g id="cards"><path class="cls-1" d="M98,0S68.83.79,50.53.79,3,0,3,0A2.94,2.94,0,0,0,0,3V135.9A3.17,3.17,0,0,0,3,139s29.21,1,47.5,1S98,139,98,139a3.17,3.17,0,0,0,3-3.13V3A2.94,2.94,0,0,0,98,0Z"/><polygon class="cls-2" points="10.27 16.91 5.97 23.58 10.27 30.25 14.55 23.58 10.27 16.91"/><path class="cls-2" d="M8.4,10.5a.78.78,0,0,1,.14-.44A1.13,1.13,0,0,0,8,11.19a2,2,0,0,0,.43,1.35A1.41,1.41,0,0,0,9.52,13a1.6,1.6,0,0,0,.94-.3,1.69,1.69,0,0,0,.62-.8,3.39,3.39,0,0,0,.22-.87q0-.42,0-1.71v-3q-.07-1.1-.42-1.1a.94.94,0,0,0-.24,0,.94.94,0,0,1-.24,0,.45.45,0,0,1-.34-.15A.5.5,0,0,1,10,4.8a.57.57,0,0,1,.16-.4.52.52,0,0,1,.39-.17,3.86,3.86,0,0,1,.65.08,3.88,3.88,0,0,0,.66.08,4.58,4.58,0,0,0,.73-.08,4.51,4.51,0,0,1,.67-.08.52.52,0,0,1,.39.17.57.57,0,0,1,.16.4.5.5,0,0,1-.14.35.45.45,0,0,1-.34.15l-.2,0a1.08,1.08,0,0,0-.28,0q-.35,0-.42,1.1v4.06a4.23,4.23,0,0,1-.82,2.81,2.6,2.6,0,0,1-2.07,1,2.29,2.29,0,0,1-1.82-.82,3.1,3.1,0,0,1-.7-2.1,2.55,2.55,0,0,1,.45-1.55,1.36,1.36,0,0,1,1.13-.61,1,1,0,0,1,.78.34,1.21,1.21,0,0,1,.32.86,1,1,0,0,1-.19.64.59.59,0,0,1-.49.25Q8.4,11.16,8.4,10.5Z"/><polygon class="cls-2" points="90.6 122.04 94.89 115.37 90.6 108.7 86.31 115.37 90.6 122.04"/><path class="cls-2" d="M92.46,128.44a.78.78,0,0,1-.14.44,1.13,1.13,0,0,0,.58-1.12,2,2,0,0,0-.43-1.35,1.41,1.41,0,0,0-1.13-.51,1.6,1.6,0,0,0-.94.3,1.69,1.69,0,0,0-.62.8,3.4,3.4,0,0,0-.22.87q0,.42,0,1.71v3q.07,1.1.42,1.1a.94.94,0,0,0,.24,0,.94.94,0,0,1,.24,0,.45.45,0,0,1,.34.15.5.5,0,0,1,.14.35.57.57,0,0,1-.16.4.52.52,0,0,1-.39.17,3.85,3.85,0,0,1-.65-.08,3.87,3.87,0,0,0-.66-.08,4.58,4.58,0,0,0-.73.08,4.49,4.49,0,0,1-.67.08.52.52,0,0,1-.39-.17.57.57,0,0,1-.16-.4.5.5,0,0,1,.14-.35.45.45,0,0,1,.34-.15l.2,0a1.08,1.08,0,0,0,.28,0q.35,0,.42-1.1v-4.06a4.23,4.23,0,0,1,.82-2.81,2.6,2.6,0,0,1,2.07-1,2.29,2.29,0,0,1,1.82.82,3.1,3.1,0,0,1,.7,2.1,2.55,2.55,0,0,1-.45,1.55,1.36,1.36,0,0,1-1.13.61,1,1,0,0,1-.78-.34,1.21,1.21,0,0,1-.32-.86,1,1,0,0,1,.19-.64.59.59,0,0,1,.49-.25Q92.46,127.79,92.46,128.44Z"/><path class="cls-3" d="M39.92,13.25q1.14,2.15,2.37,4.21a19.29,19.29,0,0,1,5.13-.39c-.21-1.46-.92-2.42-1.18-3.82h1.71a36.08,36.08,0,0,0,1.18,3.69,31.55,31.55,0,0,1,6.06.39c.74-1.1.93-2.76,1.45-4.08h1.84c-.47,1.37-.75,2.94-1.18,4.34,1.68.47,3.53.77,5.13,1.32,1.54-1.58,2.46-3.77,3.69-5.66h1.71c-1.43,2.3-2.69,4.77-4.21,7a57,57,0,0,0-17.64-2c-1.13.06-2.6.6-3.29.39s-1.59-2-2-2.63c-.62-.92-1.23-1.76-1.84-2.63C39,13.08,39.6,13.33,39.92,13.25Z"/><path class="cls-3" d="M41.37,13.25h3.29a20.13,20.13,0,0,1,1.05,2.63,20.52,20.52,0,0,1-2.9.26Z"/><path class="cls-3" d="M49.4,13.25h5.79A10.17,10.17,0,0,1,54.4,16c-1.43-.06-2.81-.18-4.21-.26A16.69,16.69,0,0,0,49.4,13.25Z"/><path class="cls-3" d="M59.8,13.25h4.48a38.42,38.42,0,0,1-2.37,4.34c-.88-.48-2.12-.6-3-1.05C59.08,15.34,59.55,14.41,59.8,13.25Z"/><path class="cls-3" d="M79.28,18.78c.15,0,.23,0,.26.13A7.45,7.45,0,0,1,77,21.28C77.47,20.13,78.53,19.6,79.28,18.78Z"/><path class="cls-3" d="M79.54,20c-.48,1.19-1.59,1.74-2.5,2.5A4.63,4.63,0,0,1,79.54,20Z"/><path class="cls-3" d="M76.25,20.36c-.08.57.17,1.49-.13,1.84C76.21,21.63,75.95,20.71,76.25,20.36Z"/><path class="cls-3" d="M79.54,21.15A6.48,6.48,0,0,1,77,23.52,4.63,4.63,0,0,1,79.54,21.15Z"/><path class="cls-3" d="M79.54,22.2A6.28,6.28,0,0,1,77,24.7,5.07,5.07,0,0,1,79.54,22.2Z"/><path class="cls-3" d="M79.54,23.39C79,24.56,78,25.13,77,25.89A4.53,4.53,0,0,1,79.54,23.39Z"/><path class="cls-3" d="M79.54,24.57A6.67,6.67,0,0,1,77,26.94,4.49,4.49,0,0,1,79.54,24.57Z"/><path class="cls-3" d="M71.25,24.7h3.82A11.14,11.14,0,0,1,71.25,24.7Z"/><path class="cls-3" d="M79.54,25.62c-.47,1.2-1.57,1.77-2.5,2.5A5,5,0,0,1,79.54,25.62Z"/><path class="cls-3" d="M70.86,25.62h4.48A15.31,15.31,0,0,1,70.86,25.62Z"/><path class="cls-3" d="M71.12,26.68h2.5A4.84,4.84,0,0,1,71.12,26.68Z"/><path class="cls-3" d="M79.54,26.81a7.58,7.58,0,0,1-2.5,2.5A4.53,4.53,0,0,1,79.54,26.81Z"/><path class="cls-4" d="M44.79,28c.67-.46.75.93.53,1.45A1.78,1.78,0,0,1,42.95,29c-.49-.14-.21.49-.66.39a1,1,0,0,1,.13-1.18c1.27-.22,1.27.83,2.11,1.05.45.06.4-.39.66-.53C45.08,28.49,45.11,28.07,44.79,28Z"/><path class="cls-3" d="M79.54,28A6.81,6.81,0,0,1,77,30.36,4.42,4.42,0,0,1,79.54,28Z"/><path class="cls-3" d="M79.54,29c-.47,1.19-1.58,1.75-2.5,2.5A4.85,4.85,0,0,1,79.54,29Z"/><path class="cls-4" d="M44.39,31.42c.32-2.65,3.87,1.59,4.34-.26a.82.82,0,0,0-.66-1.05c.45-.6,1.15.36,1.18.79C49.49,33.42,45.68,31.23,44.39,31.42Z"/><path class="cls-3" d="M79.54,30.23c-.47,1.16-1.63,1.62-2.37,2.5C77.08,31.63,78.83,30.53,79.54,30.23Z"/><path class="cls-3" d="M79.54,31.42A7.16,7.16,0,0,1,77,33.79,4.35,4.35,0,0,1,79.54,31.42Z"/><path class="cls-3" d="M76.12,31.68v1.71A2.31,2.31,0,0,1,76.12,31.68Z"/><path class="cls-3" d="M79.54,32.47C79.07,33.66,78,34.22,77,35A4.74,4.74,0,0,1,79.54,32.47Z"/><path class="cls-3" d="M79.54,33.65c-.48,1.14-1.64,1.61-2.37,2.5C77.09,35.06,78.81,33.93,79.54,33.65Z"/><path class="cls-3" d="M76.12,34.18c-.09.66.17,1.66-.13,2.11C76.08,35.63,75.82,34.62,76.12,34.18Z"/><path class="cls-3" d="M79.54,34.84A7.44,7.44,0,0,1,77,37.21,4.23,4.23,0,0,1,79.54,34.84Z"/><path class="cls-3" d="M79.54,35.89c-.48,1.19-1.59,1.74-2.5,2.5A4.63,4.63,0,0,1,79.54,35.89Z"/><path class="cls-3" d="M79.54,37.08c-.48,1.14-1.65,1.6-2.37,2.5C77.09,38.49,78.81,37.35,79.54,37.08Z"/><path class="cls-3" d="M76,37.47a2.31,2.31,0,0,1,0,1.71Z"/><path class="cls-3" d="M64.67,37.6c.35.31.79.52.92,1.05q-7,10.87-13.69,22c-.17-.18-.57-.13-.92-.13C54.66,54.44,58.37,48.41,62,42.34c-1.1-.39-3.11.13-4.21-.26A26.15,26.15,0,0,0,62,41.95a13,13,0,0,0,2.5-4.08C64.64,37.84,64.69,37.76,64.67,37.6Z"/><path class="cls-3" d="M79.54,38.13a6.29,6.29,0,0,1-2.5,2.5A5.07,5.07,0,0,1,79.54,38.13Z"/><path class="cls-3" d="M79.54,39.31C79,40.48,78,41.06,77,41.82A4.63,4.63,0,0,1,79.54,39.31Z"/><path class="cls-3" d="M79.54,40.5A6.49,6.49,0,0,1,77,42.87,4.49,4.49,0,0,1,79.54,40.5Z"/><path class="cls-3" d="M79.54,41.55a4.43,4.43,0,0,1-2.37,2.24A5.17,5.17,0,0,1,79.54,41.55Z"/><path class="cls-3" d="M46,42.08H57.56A102.13,102.13,0,0,1,46,42.08Z"/><path class="cls-3" d="M79.54,42.74c-.27.76-1,1.68-1.71,1.58C77.79,43.77,79.07,42.77,79.54,42.74Z"/><path class="cls-3" d="M79.54,43.92c0,.57-.59,1.18-1.05.92C78.64,44.42,79.19,43.7,79.54,43.92Z"/><path class="cls-3" d="M69,71.57a28,28,0,0,0-.39-16.19,26.93,26.93,0,0,0-1.32-2.76A15.36,15.36,0,0,1,65.85,50c0-1.38,2.07-2.56,2.11-3.82,3,2.1,5.94,6.89,7.11,11.72.33,1.34,1,4.22.66,5.4-.25.89-3,3-3.69,3.82A20,20,0,0,0,69,71.57Z"/><path class="cls-3" d="M29.78,47.34c-.08.49.17,1.31-.13,1.58C29.73,48.44,29.48,47.61,29.78,47.34Z"/><path class="cls-3" d="M27.68,49.06c.87,3.74-2.31,6.33-6.19,6.58A52.33,52.33,0,0,1,27.68,49.06Z"/><path class="cls-3" d="M35.71,51.29c.44,1.23,1.56,2.63,1.45,3.82-.16,1.7-2.85,2.69-3,4.48C34.51,57.21,35.53,54.32,35.71,51.29Z"/><path class="cls-3" d="M27.41,53c.22,1.1-.49,2.41-.79,3.42-1.55.34-4.19,1.22-5.27-.13A8.24,8.24,0,0,0,27.41,53Z"/><path class="cls-3" d="M26.1,57c.5.48-.59,1.58-.79,2.24-1.79-.19-3.56-.39-3.95-2A7.61,7.61,0,0,0,26.1,57Z"/><path class="cls-3" d="M57,58.14c.27-.3,1.09,0,1.58-.13C58.34,58.31,57.52,58.06,57,58.14Z"/><path class="cls-3" d="M21.36,58.53a11,11,0,0,0,3.55,1.19,4.91,4.91,0,0,1-1.05,1.58C22.75,60.65,21.47,60.18,21.36,58.53Z"/><path class="cls-3" d="M21.36,60.25c.83.36,1.26,1.11,2.11,1.45A1.9,1.9,0,0,1,22.28,63,2.77,2.77,0,0,1,21.36,60.25Z"/><path class="cls-3" d="M21.36,62.88c.39,0,.49.3.66.53a.72.72,0,0,1-.66.66Z"/><path class="cls-3" d="M66,63.54a1.4,1.4,0,0,1,0,1.32Z"/><path class="cls-3" d="M31.89,64.06c-2.22,7-.67,17,3.16,21.46-.5,1.52-1.58,2.46-2.11,3.95-4.51-3.82-7.44-9.23-7.77-17.25C27.71,69.81,30.22,67.35,31.89,64.06Z"/><path class="cls-4" d="M46.9,66.43a1.1,1.1,0,0,1,1.45,1.05c.25,1.87-2.63,2.42-2.5.13A1.16,1.16,0,0,1,46.9,66.43Zm.26,2.37c1.15-.08,1-2.63-.39-2C45.92,67.24,46.16,68.87,47.16,68.8Z"/><path class="cls-4" d="M54.93,66.83c1,2.71-2.54,2.85-2.24.66A1.26,1.26,0,0,1,54.93,66.83Zm-1.05,2c1.24,0,1.17-2.52-.26-2C52.69,67.18,52.91,68.77,53.87,68.8Z"/><path class="cls-3" d="M46.76,66.83c1.36-.66,1.54,1.9.39,2S45.92,67.24,46.76,66.83Z"/><path class="cls-3" d="M53.61,66.83c1.44-.54,1.51,2,.26,2C52.91,68.77,52.69,67.18,53.61,66.83Z"/><path class="cls-3" d="M35.31,70.91v1.58A2,2,0,0,1,35.31,70.91Z"/><path class="cls-3" d="M79.28,71.57c.53-.05.15.82.26,1.19-.39,0-.49-.3-.66-.53C78.82,71.81,79.24,71.88,79.28,71.57Z"/><path class="cls-3" d="M78.36,72.49a2.55,2.55,0,0,1,1.18,2.9c-.83-.36-1.19-1.18-2.11-1.45C77.5,73.21,78.08,73,78.36,72.49Z"/><path class="cls-3" d="M76.91,74.2c1.15.65,2.45,1.15,2.63,2.76-.87-.16-2.06-1.09-3.55-1.05C76.12,75.17,76.73,74.9,76.91,74.2Z"/><path class="cls-3" d="M79.54,78.28a12.21,12.21,0,0,0-5,.26,9.38,9.38,0,0,1,1.05-2.11C77,76.45,79.21,76.77,79.54,78.28Z"/><path class="cls-3" d="M79.54,79.33c-2.95,0-4.78,1.89-6.19,3a20.9,20.9,0,0,1,.79-3C75.36,78.73,78.61,77.86,79.54,79.33Z"/><path class="cls-3" d="M79.41,79.86A34.47,34.47,0,0,1,73,86.57C72.74,82,75.66,80.5,79.41,79.86Z"/><path class="cls-3" d="M71.64,86.57v1.19C71.48,88.13,71.39,86.63,71.64,86.57Z"/><path class="cls-3" d="M21.75,90.13c0,.34,0,.57-.4.53C21.32,90.31,21.41,90.09,21.75,90.13Z"/><path class="cls-3" d="M22.41,90.79a1.69,1.69,0,0,1-1.05,1.05C21.33,91.15,21.93,90.55,22.41,90.79Z"/><path class="cls-3" d="M23.07,91.45c-.49.5-1.1,1.5-1.71,1.45C21.59,92.2,22.52,91,23.07,91.45Z"/><path class="cls-3" d="M23.73,91.84a6,6,0,0,1-2.37,2.24A4.13,4.13,0,0,1,23.73,91.84Z"/><path class="cls-3" d="M23.73,92.63c.06,1.2-1.51,1.91-2.37,2.63C21.67,93.91,23,93.58,23.73,92.63Z"/><path class="cls-3" d="M23.86,93.95a5.49,5.49,0,0,1-2.5,2.37A5,5,0,0,1,23.86,93.95Z"/><path class="cls-3" d="M24.91,94.34a26.15,26.15,0,0,1-.13,4.21A26.17,26.17,0,0,1,24.91,94.34Z"/><path class="cls-3" d="M23.73,94.87c0,1.19-1.45,2-2.37,2.63C21.76,96.23,23,95.82,23.73,94.87Z"/><path class="cls-3" d="M23.86,96.19c-.47,1.2-1.57,1.77-2.5,2.5A4.85,4.85,0,0,1,23.86,96.19Z"/><path class="cls-3" d="M23.86,97.37a5.67,5.67,0,0,1-2.5,2.37A4.9,4.9,0,0,1,23.86,97.37Z"/><path class="cls-3" d="M36.36,98c5.92.09,12.2-.18,17.9.13C48.34,98.07,42.07,98.34,36.36,98Z"/><path class="cls-3" d="M23.73,98.29c.13,0,.1.16.13.26a8,8,0,0,1-2.5,2.37C21.67,99.57,23,99.28,23.73,98.29Z"/><path class="cls-3" d="M23.86,99.61a5.64,5.64,0,0,1-2.5,2.37A5,5,0,0,1,23.86,99.61Z"/><path class="cls-3" d="M23.73,100.53c0,1.19-1.45,2-2.37,2.63C21.75,101.88,23,101.47,23.73,100.53Z"/><path class="cls-3" d="M23.86,101.85c-.47,1.19-1.58,1.75-2.5,2.5A4.85,4.85,0,0,1,23.86,101.85Z"/><path class="cls-3" d="M23.86,103a5.85,5.85,0,0,1-2.5,2.37A4.9,4.9,0,0,1,23.86,103Z"/><path class="cls-4" d="M56.51,104.21c-.85,2.43-3.29-1.55-4.34.26-.24.73.8.86.53,1.19a1,1,0,0,1-.92-.66c-.67-2.23,2.59-1.79,3.55-.79C55.9,104.21,56.13,103.73,56.51,104.21Z"/><path class="cls-3" d="M23.73,104c0,1.18-1.46,2-2.37,2.63C21.75,105.31,23,104.9,23.73,104Z"/><path class="cls-3" d="M23.86,105.27c-.48,1.19-1.59,1.74-2.5,2.5A4.85,4.85,0,0,1,23.86,105.27Z"/><path class="cls-4" d="M58.74,106.32a.88.88,0,0,1-.53,1.05c-.95,0-1.18-.75-1.71-1.19a.79.79,0,0,0-.4,1.45c-1.89-.46.72-3.07,1.71-1.19C58.33,106.58,58.37,105.94,58.74,106.32Z"/><path class="cls-3" d="M23.86,106.45a6.09,6.09,0,0,1-2.5,2.37A4.78,4.78,0,0,1,23.86,106.45Z"/><path class="cls-3" d="M27.81,106.45c.49.08,1.31-.17,1.58.13C28.9,106.5,28.08,106.76,27.81,106.45Z"/><path class="cls-3" d="M45.45,107.11a1.68,1.68,0,0,1,0,1.45Z"/><path class="cls-3" d="M23.73,107.38c0,1.19-1.49,1.93-2.37,2.63C21.71,108.7,23,108.32,23.73,107.38Z"/><path class="cls-4" d="M53.21,108.16c1.71-.53,1.76,1.75,3.42,1.71.06.63-.67.47-.66,1.05,0,.85.79.88.79,1.71-.78-.4-1.21.45-2,.53a4.21,4.21,0,0,1-3.69-2.11c1,.73,2.72,2.16,4.21,1.18-2.12.3-3.46-1.15-4.48-2.37a1.84,1.84,0,0,1,1.45.39c.84-.22,1.25-.86,2.5-.66C54.61,108.79,53.8,108.59,53.21,108.16Zm-.13,2.37a2.51,2.51,0,0,0,.79.53A2.62,2.62,0,0,0,54.4,110C53.74,110,53.18,110,53.08,110.53Zm1.19.66c.46,0,.91-.66.53-1.05C54.63,110.5,54.21,110.61,54.27,111.19Z"/><path class="cls-3" d="M23.86,108.69c-.48,1.19-1.59,1.74-2.5,2.5A4.63,4.63,0,0,1,23.86,108.69Z"/><path class="cls-3" d="M23.86,109.88a6.09,6.09,0,0,1-2.5,2.37A4.68,4.68,0,0,1,23.86,109.88Z"/><path class="cls-3" d="M23.73,110.8c.06,1.2-1.51,1.91-2.37,2.63C21.7,112.1,23,111.74,23.73,110.8Z"/><path class="cls-4" d="M50.71,111.85a7.12,7.12,0,0,0,6.19,1.71c.17.32.48.48.39,1.05C54.73,114.61,51.42,114.43,50.71,111.85Z"/><path class="cls-3" d="M23.86,112.11c-.5,1.17-1.59,1.74-2.5,2.5A4.63,4.63,0,0,1,23.86,112.11Z"/><path class="cls-3" d="M23.73,113c.06,1.2-1.44,2-2.37,2.63C21.76,114.4,23,114,23.73,113Z"/><path class="cls-3" d="M23.73,114.22c0,1.17-1.57,1.85-2.37,2.63C21.67,115.5,23,115.17,23.73,114.22Z"/><path class="cls-3" d="M60.85,122.25c-.6-1.55-1.55-2.75-2.24-4.21a16.68,16.68,0,0,1-5.13.53c.34,1.32.89,2.44,1.32,3.69v.13c-.6-.06-1.45.13-1.84-.13-.29-1.34-.8-2.44-1.18-3.69a19.27,19.27,0,0,1-6.06-.4c-.74,1.1-.93,2.76-1.45,4.08a2.79,2.79,0,0,1-1.84,0c.47-1.33.71-2.88,1.19-4.21-1.66-.58-3.68-.8-5.27-1.45a47.72,47.72,0,0,0-3.42,5.66c-.35.26-1.15.08-1.71.13,1.09-2.6,2.75-4.63,3.95-7.11,5.8,1.7,14.07,2.84,21.19,1.58,1.23,1.84,2.58,3.56,3.69,5.53C61.62,122.36,61.07,122.47,60.85,122.25Z"/><path class="cls-3" d="M41.1,122.25a15.36,15.36,0,0,1-4.48,0,33.62,33.62,0,0,1,2.5-4.34c.64.67,2,.67,2.9,1.05C41.83,120.17,41.32,121.07,41.1,122.25Z"/><path class="cls-3" d="M59.53,122.38H56.24c-.25-1-.87-1.68-1.05-2.76a27.86,27.86,0,0,0,2.9-.26C58.55,120.38,59.14,121.28,59.53,122.38Z"/><path class="cls-3" d="M51.37,122.25a24.45,24.45,0,0,1-5.66,0,7.81,7.81,0,0,1,.92-2.76,22.85,22.85,0,0,0,3.95.26A9.15,9.15,0,0,1,51.37,122.25Z"/><path class="cls-4" d="M43.61,21c3.05-.27,5.71.48,6.71,2.63-.91-.2-1.86-1.52-3.42-1.71C45.7,21.79,43.63,22.76,43.61,21Z"/><path class="cls-3" d="M71.12,22.07c.12-.49,1.06-.17,1.58-.26C72.44,22.16,71.39,21.73,71.12,22.07Z"/><path class="cls-4" d="M45.58,23.25c2.16-.32,3.22,1.36,4.61,2.24-.36.64-1.3,0-1.58-.26a3.78,3.78,0,0,1-2.5.79c0,.46,1,1.06,1.58,1.32-1.75.6-1.75-1.68-3.42-1.58-.11-.73.72-.51.66-1.18s-.82-.85-.79-1.71a.58.58,0,0,1,.53.26c1.71-1.48,4.43-.06,5.27,1.32C49,24.17,47.35,22.27,45.58,23.25ZM46,25.36c.47-.06.63-.42.66-.92C46,24.38,46,24.83,46,25.36Zm.66.26a1.69,1.69,0,0,0,1.18-.39c-.06-.47-.42-.63-.92-.66C46.92,25,46.34,25.29,46.63,25.62Z"/><path class="cls-4" d="M20.3,12.06H80.73V123.44c-19.88.22-40.68.22-60.56,0v-111C20.16,12.27,20.15,12.09,20.3,12.06Zm2.37,40.68c-1.11-.47-.22-2-.4-2.9-.13-.66-.85-.75-.79-1.32.67-.86.19-1,.13-2.24.62-.59.63-1,.53-2.24.64-.37.82-1.2,1.18-1.84a2.85,2.85,0,0,1,1.19-.13c.53-.73.5-1.39.92-2,1.88-2.57,7.35-1.35,9.35-3.29-.1,2.43-.85,3.74-2.5,4.61-2,1-5.12.19-6.45,2.11,2.57-.24,3,1.63,3.55,3.42a78,78,0,0,1,11.32-8.29c-.58-2.93,1.88-4,3.69-3,0-1.23-1.43-1.34-.79-2.76-.2-.24-.9,0-.79-.53,0-.61.26-.88.26-1.45-.73-.85-2.24-.94-2.37-2.11-.16-1.49,2.39-3.25,2.37-5.4,0-1.17-1-1.5-.66-3-1.62-2.38-3.25-4.74-4.87-7.11H21.36V54.72c.87-.86,2.29-1.81,2.37-3C23.21,51.87,23.59,53,22.67,52.74ZM66.12,13.25H39.92c-.32.08-1-.17-1.05.13.61.87,1.23,1.71,1.84,2.63.39.58,1.2,2.41,2,2.63s2.16-.33,3.29-.39a57,57,0,0,1,17.64,2c1.52-2.21,2.78-4.68,4.21-7Zm3.29,0c-.8,1.17-1.82,2.68-2.9,4.48-.82,1.37-2.27,3.38-2.37,4.34a12.92,12.92,0,0,0,.53,2.9c.61,3.05,1.1,5.89,2.24,8.16,3.36-1.9,6,2.39,3.95,5.13a40.29,40.29,0,0,0,4.61,3.82V27.73c-1.7.71-2.88,3.08-2.63,6.19-4.65-2.61-5.58-13.79-.92-17.11.12,3.21,1.31,5.36,3.69,6.32v-2.9c1.2-1.34,2.67-2.42,3.95-3.69V13.25ZM76,39.18c.41.74-.62,3.22.53,3.82V20.75c.68-1.21,2.61-1.86,2.76-3.16-1,.94-2,1.84-3,2.76-.3.35,0,1.27-.13,1.84,0,2.66,0,6.39,0,9.48a2.31,2.31,0,0,0,0,1.71v.79c-.3.44,0,1.45-.13,2.11a1.25,1.25,0,0,1,0,1.19Zm-3.55-6.32c.11-1.4-1.11-2.37-1.58-3.69a12.49,12.49,0,0,1,.92-10.27c-.28-.24-.08-1-.4-1.19C68.23,21.18,68.68,30.45,72.43,32.86ZM77,21.28a7.45,7.45,0,0,0,2.5-2.37c0-.1-.11-.15-.26-.13C78.53,19.6,77.47,20.13,77,21.28Zm-34.1-.92c-.5,1.43.76,2,.79,3,.05,1.93-2.32,3.26-2.37,5.53.58.65,1.57.89,2.11,1.58.07.51-.24.64-.13,1.19,1.15.13,2,1.11,2.76.53a13.22,13.22,0,0,0,.53,1.71c-.89-.2-1.61-1.06-2.63-.39.31.87,1,1.34.79,2.76a2.74,2.74,0,0,0,2.5.66,9.64,9.64,0,0,0,7.11-6.58,1.16,1.16,0,0,1-.79-2.11,1,1,0,0,0,.66,1.45c1.59-2.71.08-7.13-.66-9.61A43.15,43.15,0,0,0,42.95,20.36ZM77,22.46c.91-.76,2-1.32,2.5-2.5A4.63,4.63,0,0,0,77,22.46ZM57.16,36.29c-1.52-3.79-1-10.58-2.24-14.48-.16-.52-.29-1.25-.79-1.45C56.43,24.94,54.3,32,57.16,36.29ZM54.93,20.23c1.08,2.33,1.25,5.18,1.45,8.29.18,2.76.26,6,1.84,7.77C56.25,31.81,57.76,23.84,54.93,20.23Zm4.21,16.06c-1.57-4.18-.75-12.59-3.29-15.8C58.31,24.75,56.5,32.09,59.14,36.29ZM57,20.62c-.16,0-.3-.23-.39,0,1.79,3,1.65,8.47,2.37,12.24.25,1.29.21,2.95,1.45,3.42C58.41,32.5,59.38,24.55,57,20.62Zm.79.4c1.09,2,1.31,4.93,1.58,7.9s.45,6,2.24,7.37C59.38,32,60.32,24.53,57.69,20.62,57.71,20.78,57.67,21,57.82,21Zm3.29,12c.28,1.21.47,2.77,1.58,3.29-2.25-4.11-2-10.73-3.82-15.27a.13.13,0,0,0-.26,0C60.18,24.22,60.25,29.33,61.11,33Zm2.63,3.29c-2.52-4-2-11-4.21-15.27C61.35,25.7,60.67,32.87,63.75,36.29Zm9-15c0-.43-1.7-.38-1.19.13C71.87,21.33,72.56,21.58,72.7,21.28ZM77,23.52a6.48,6.48,0,0,0,2.5-2.37A4.63,4.63,0,0,0,77,23.52Zm-9.61,15.4c4.74,1.33,4.87-7.5,0-5.53-.42.54-.49,2.22.53,2.11.27-.3-.5-1.14.13-1.45,3-1.24,3.17,3.5,1.18,4.21A3.43,3.43,0,0,1,66,37.6c-3.6-3-3.51-11.91-5.27-16.32-.16,0-.3-.23-.4,0C62.67,26.83,61.79,37.33,67.43,38.92Zm-4.08-8c.85,3.18,2.34,7.73,5.53,7,1.51-.36,2-3.92-.53-3.42.47.69,1.13.31,1.32,1.19.5,2.38-2.92,1.58-3.69.79-2.8-2.89-2.61-11.45-4.21-14.88-.17,0-.18-.17-.39-.13C62.48,23.83,62.44,27.48,63.35,30.89Zm3.16,5.27c.89.82,3.14,1,2.5-.79-.73-.07-.5.82-1.32.66-4-2.55-3.13-9.95-5.27-14.35C63.84,25.32,63.86,33.74,66.51,36.15ZM72.7,21.81c-.52.09-1.46-.23-1.58.26.44.3,1.45,0,2.11.13C73.26,21.85,72.95,21.86,72.7,21.81ZM66.64,34.31c-.46-2-1.29-3.83-1.71-5.92s-.82-4.21-1.32-6.32c-.16,0-.3-.23-.4,0C64.59,25.92,64.64,31.09,66.64,34.31ZM77,24.7a6.28,6.28,0,0,0,2.5-2.5A5.07,5.07,0,0,0,77,24.7ZM71,23a8.32,8.32,0,0,0,3.29,0C73.71,22.61,71.54,22.51,71,23ZM77,25.89c.91-.76,2-1.33,2.5-2.5A4.53,4.53,0,0,0,77,25.89Zm-1.58-2.11a31.77,31.77,0,0,0-4.61-.13C71.83,24.17,74.27,23.92,75.46,23.78Zm-.39.92c.21,0,.46,0,.39-.26-1.5.17-3.68-.34-4.74.26h.53A11.14,11.14,0,0,0,75.07,24.7Zm2,2.24a6.67,6.67,0,0,0,2.5-2.37A4.49,4.49,0,0,0,77,26.94Zm-6.19-1.32a15.31,15.31,0,0,0,4.48,0h.13v-.39C74.18,25.42,70.58,24.8,70.86,25.62ZM77,28.12c.93-.73,2-1.3,2.5-2.5A5,5,0,0,0,77,28.12Zm-5.92-1.45a4.84,4.84,0,0,0,2.5,0c.56-.15,1.71.31,1.84-.26-.33-.47-1.52-.26-2.37-.26s-2.11-.3-2.24.4C70.88,26.65,71,26.7,71.12,26.68ZM77,29.31a7.58,7.58,0,0,0,2.5-2.5A4.53,4.53,0,0,0,77,29.31ZM74.94,27.2c-1.27.09-2.89-.17-3.95.13C72,27.48,74.16,27.71,74.94,27.2ZM77,30.36A6.81,6.81,0,0,0,79.54,28,4.42,4.42,0,0,0,77,30.36ZM74,28H71.25C71.42,28.65,73.83,28.59,74,28ZM71.51,29c.48-.09,2.07.23,1.71-.26C72.76,29.26,71.73,28.47,71.51,29ZM77,31.55c.92-.75,2-1.31,2.5-2.5A4.85,4.85,0,0,0,77,31.55Zm-4.08-2H71.78C71.63,30.16,73.11,30.16,73,29.57Zm4.21,3.16c.74-.89,1.9-1.35,2.37-2.5C78.83,30.53,77.08,31.63,77.17,32.73ZM54.93,30.36c-.21,2.13.13,4.76,1.32,5.92A29.14,29.14,0,0,1,54.93,30.36ZM77,33.79a7.16,7.16,0,0,0,2.5-2.37A4.35,4.35,0,0,0,77,33.79ZM54.27,32.21c-.16,1.36-.06,3.56,1.05,4.08A27.09,27.09,0,0,1,54.27,32.21ZM77,35c.92-.75,2-1.31,2.5-2.5A4.74,4.74,0,0,0,77,35ZM53.61,33.52c-.69-.1-.55,2.79.66,2.76A21.81,21.81,0,0,1,53.61,33.52Zm23.56,2.63c.73-.89,1.89-1.36,2.37-2.5C78.81,33.93,77.09,35.06,77.17,36.15ZM52.69,34.57c-.52-.34-.59,2,.39,1.71C53,35.7,52.76,35.21,52.69,34.57ZM77,37.21a7.44,7.44,0,0,0,2.5-2.37A4.23,4.23,0,0,0,77,37.21Zm-25.41-2c-.3.18-.51,1.24.26,1.05C51.91,35.84,51.94,35.37,51.63,35.23Zm-10.27,3c.06-.43-.17-1.14.26-1.19.2.07.33.2.53.26-.15-1,1.06,0,1.05-.92.35.06.67.49,1.05.13C43.38,34.45,40.1,36.38,41.37,38.26ZM77,38.39c.91-.76,2-1.31,2.5-2.5A4.63,4.63,0,0,0,77,38.39ZM64.67,37.6s0-.13,0-.13c-6.09-.55-15.18.83-20-.53A12.13,12.13,0,0,0,42.95,38c7.16-.08,14.65.17,21.59-.13A13,13,0,0,1,62,41.95H48.34c-.58,0-5,0-2.37.13a102.13,102.13,0,0,0,11.58,0h.26c1.1.39,3.11-.13,4.21.26C58.37,48.41,54.66,54.44,51,60.51c-.29.3-.45-.11-.92,0a48.27,48.27,0,0,0-6.45-20c-.39-.71-.67-1.72-1.45-2.11a58.57,58.57,0,0,1,6.58,15.67,20.53,20.53,0,0,1,.92,6.06C49,59.58,49,59,48.21,58.53c-.62-.34-1.61-.16-1.84-1.05C46,56.14,47.52,55,47.69,53.66c.35-2.74-1.1-3.33-3.55-4.08-.17-2.58,1.75-5.84-.79-7.11-1.37-.68-3.83.21-3.42-2.63-.52.27-1.14.44-1.32,1.05.56,1.19.28,1.86,1.32,2.5s3.06.19,3.42,1.45c.56,2-1.9,3.9-.66,5.79.63,1,2,.5,3.16,1.05,1.64,2.36-1.43,3.46-1.32,5.92-1.17,0-2.37,1-3.16,1.84.93,1.64,3.46.7,3.42-1.19.08,1.55,2.68,1.26,2.76,2.37-.64.15-1.9-.32-2.11.26v.4c.49.39,1.88-.13,2.37.26,0,.77-1.08,1.78-.53,2.24,1.09-.18.7-1.84,1.45-2.37.84.09,2-.17,2.63.13-.21.78-.89,1.71-.79,2.37,1.08-.28.84-1.88,1.58-2.5.79.09,1.93-.17,2.5.13a12,12,0,0,0-.79,2.24c1.54.13.78-2,1.71-2.5,1.12-.15,3,.45,3.16-.66H57.69c.29-.4.5-1.42-.4-1.32-.74.21,0,1-.26,1.32H56c-.7-.76-.6-2.92,1.05-2.5.49-.08,1.31.17,1.58-.13h.53c2.9-1-.12-5.35,1.58-7.11,2.34.19,4.13-.26,4.34-2.24.14-1.3-.88-2.78-.53-3.95.44-1.46,1.57-.52,3.42-1.05,1.44-.41,2.13-2.71,1.58-4.34-.53,0-.79.26-1.32.26.85,4.25-4.58,1.87-5.13,4.74-.24,1.22,1,2.83.53,4.21-.35,1.05-1.73.54-2.9.79-3,.65-1.47,4-1.71,6.71-2.12.74-4.38.29-4.87,2.63-.11.53.19,1.3-.13,2H51.9q6.72-11.12,13.69-22C65.46,38.13,65,37.91,64.67,37.6Zm12.51,2c.72-.9,1.89-1.36,2.37-2.5C78.81,37.35,77.09,38.49,77.17,39.58ZM26.62,42.21c2.91-.6,8-.82,7.64-4.74-2.78,1.74-9.13.61-9.08,4.74,1.33-2.41,3.68-3,5.92-2.9.41-.85,1.08.1,1.45-.79.29.57.69-.26,1.05.13C33,41.58,28.75,40.83,26.62,42.21ZM77,40.63a6.29,6.29,0,0,0,2.5-2.5A5.07,5.07,0,0,0,77,40.63Zm-34-2c.15.2.38.32.4.66a1.77,1.77,0,0,0,1.05-.79C44.08,38.61,43.3,38.36,43.08,38.66Zm4.34-.13c-2-.29-2.44,1-3.29,1.84.13.27.27.52.4.79C45.86,40.65,46.32,39.27,47.42,38.52ZM47.29,40c-.58.58-1.44,1-1.18,1.45.82.25.27-.87.79-.92s.87-.08.79.39a21.15,21.15,0,0,0,2.5-2.37C48.44,38.27,48.08,39.18,47.29,40Zm2.37.53c.68-.2.65.31,1.05.39.67-.87,1.54-1.54,2.24-2.37C50.91,38.24,50.63,39.72,49.66,40.5Zm6.19-2c-2.13-.33-2.44,1.15-3.42,2,.71-.18.7.36,1.18.39A13.36,13.36,0,0,1,55.85,38.52Zm-3.69,2.11c-.11.42-.68.37-.79.79h.79C52,41,52.52,40.75,52.16,40.63Zm3.16-.13c.66-.17.56.4,1.05.39a18.09,18.09,0,0,1,2.24-2.37C56.53,38.2,56.21,39.63,55.32,40.5Zm-.4.13c-.14.35-.52.44-.66.79h.66C54.89,41.19,55.3,40.76,54.93,40.63Zm6.45-2.11H60.06c-1,.94-2,1.92-3,2.9H58c0-.42,0-.8.26-.92.71-.18.7.36,1.19.39C59.73,39.94,61.5,39.06,61.38,38.52Zm-.53,2.11c.52,0,.4.56.92.53.52-.93,1.23-1.67,1.71-2.63C62,38.66,61.82,40,60.85,40.63ZM77,41.82c.91-.76,2-1.33,2.5-2.5A4.63,4.63,0,0,0,77,41.82ZM66.25,39.71a.84.84,0,0,0-.13,1.18h.66C67.1,40.44,66.88,39.62,66.25,39.71ZM41.5,40c-.26.36-.19,1.27.4,1.18S42.41,39.7,41.5,40Zm36.2,5c-1.36-1.17-2.64-2.31-3.95-3.42-.68-.58-1.42-1.46-2-1.32-.51.8.75,1.51,1.32,2,1.42,1.17,2.87,2.31,4.21,3.42.68.57,1.57,1.47,2.11,1.32C79.38,46,78.37,45.55,77.7,45ZM77,42.87a6.49,6.49,0,0,0,2.5-2.37A4.49,4.49,0,0,0,77,42.87ZM48.61,41.42a1.12,1.12,0,0,0,.79-.13c0-.2,0-.49-.13-.53C49.07,41,48.72,41.09,48.61,41.42Zm-5.13,13a53.28,53.28,0,0,0-5.53-12.9c-.13,0-.16-.11-.26-.13s-.15-.08-.26,0-.16.11-.26.13a58.06,58.06,0,0,1,3.55,6.71c1,2.54,1.63,5.41,2.77,7.9C44.07,55.77,43.61,54.95,43.47,54.45ZM70.72,41.95c1.13.63,1.63,1.88,3,2.24.57,1.45,2.38,1.66,3,3,.37.07.68.19,1.05.26a2.67,2.67,0,0,0,1.71,1.71v-.92c-2.82-2.36-5.57-4.78-8.56-7C70.93,41.54,70.7,41.62,70.72,41.95Zm6.45,1.84a4.43,4.43,0,0,0,2.37-2.24A5.17,5.17,0,0,0,77.17,43.79Zm-53.05.39c.4-.22,1-.27,1.18-.66C25,41.27,22,43.11,24.12,44.18Zm47-.53a1,1,0,0,0-.79-1.32C69.89,43,70.82,43.3,71.12,43.66Zm6.71.66c.7.1,1.44-.82,1.71-1.58C79.07,42.77,77.79,43.77,77.83,44.32ZM71.12,45c.14-1.14-.58-1.43-1.32-1.71C69.2,44.06,70.64,44.45,71.12,45ZM36.76,47.08c1.49-.31,1.58-3.36,0-3.69C34.12,42.85,34.14,47.62,36.76,47.08Zm-12.9-.53a1.57,1.57,0,0,1,0-2.24C21.77,42.48,22.39,47,23.86,46.55Zm.66-2.24c.57.94-.47,1.58-.26,2.11a9.11,9.11,0,0,0,1.58-.79,4.72,4.72,0,0,0,1.05.66c-1.06.39-.6,2.32.13,2.76a17,17,0,0,1,2-1.71C29.06,44.71,26.88,42.95,24.52,44.32Zm48.58.79c.17-.91-.57-.92-.92-1.32A1,1,0,0,0,73.09,45.11Zm5.4-.26c.46.26,1-.35,1.05-.92C79.19,43.7,78.64,44.42,78.49,44.84Zm-9.35-.53c.32.95,1.31,1.23,2,1.84A2.05,2.05,0,0,0,69.14,44.32Zm-32.25,7.5a38.51,38.51,0,0,0-3.69-7.11c0-.1-.11-.15-.26-.13-.72.48,1.19,2.47,1.71,3.42,2,3.63,3.18,8.11,4.21,12C39.23,57,37.89,54.27,36.89,51.82ZM23.73,45.76c.5,0,.71-.34.66-.92-.17,0-.18-.17-.39-.13C23.83,45,23.39,45.39,23.73,45.76ZM66.12,45c-.45.33-.35,1.42.53,1.18C67,45.78,67,44.81,66.12,45Zm7,1.45c.11-.86-.45-1-.92-1.32A1,1,0,0,0,73.09,46.42Zm-31.73,0c1.49-1.48-1.76-1.09,0,0Zm35.15,14a24.55,24.55,0,0,0-6.19-13.69c-.45-.49-1.32-1.52-1.71-1.18a37,37,0,0,0,2.76,3.42,26.83,26.83,0,0,1,5,14.09C77,62.27,76.62,61.21,76.52,60.38ZM75.07,46.82c.06-.9-.5-1.16-1.05-1.45C73.86,46.35,74.54,46.51,75.07,46.82ZM22.15,46c-.68,1,.51,2,1.32,2.37C24.32,47.25,23.35,46.46,22.15,46ZM72,67.09c.68-.79,3.44-2.93,3.69-3.82.32-1.18-.33-4.05-.66-5.4C73.9,53,71,48.26,68,46.16c0,1.25-2.13,2.44-2.11,3.82a15.36,15.36,0,0,0,1.45,2.63,26.93,26.93,0,0,1,1.32,2.76A28,28,0,0,1,69,71.57,20,20,0,0,1,72,67.09ZM29.65,48.92v1.71c2.34.11,2.48-3,1.32-4.21a3,3,0,0,0-1.18.92C29.48,47.61,29.73,48.44,29.65,48.92Zm43.44-1.32c.06-.77-.49-.92-.92-1.18C72.07,47.23,72.53,47.47,73.09,47.61Zm-49-.79c-.11.42.34.27.4.53a.71.71,0,0,0,.66-.79C24.59,46.41,24.52,46.78,24.12,46.82Zm.13,2.37c.44,0,.21.76.26,1.18-.29.11-.45.34-.92.26.13.49.22,1,.66,1.19.69-1,1.79-1.55,2.37-2.63A4.58,4.58,0,0,1,26,46.55h-.4C24.83,47.36,25.41,48.74,24.25,49.19Zm37.25-1.32a.82.82,0,0,0,.66,0c.16-.36.29-.55.13-.92C61.66,46.39,61,47.31,61.51,47.87Zm13.56.26c.15-1-.53-1.14-1.05-1.45C73.92,47.61,74.56,47.81,75.07,48.13Zm2.11.53c.17-1-.56-1.19-1.05-1.58C76,48.13,76.68,48.27,77.17,48.66ZM33.6,47.34c-.21.75-1.45.48-1.45,1.45.93.43,1.3,1.42,2,2.11C34.85,49.87,34.52,47.85,33.6,47.34Zm11.85,1.45c2.11-.32-.79-2.17,0,0ZM77.7,52.22c-.61-.62-.9-1.56-2.11-1.58A10,10,0,0,0,72,47.74a44.58,44.58,0,0,0,7.5,6.06C79.32,52.88,78.56,52.5,77.7,52.22ZM23.86,47.87c-.05.53,0,.92.53.92a.76.76,0,0,0,.26-1.05A1.12,1.12,0,0,0,23.86,47.87Zm4.61.53a20,20,0,0,1-4.61,13.82,14.62,14.62,0,0,0-2.37,3.16c4.69-3.2,7.63-9.31,7.77-17.51C28.79,47.85,28.82,48.32,28.47,48.4ZM23.2,50a1.69,1.69,0,0,1,.39-1.05c-.6-.19-.85-.73-1.45-.92C21.43,48.78,22.58,49.69,23.2,50Zm16.06,1.71c1.47-.44,1.31-3.74-.66-3.69C36.26,48.07,36.75,52.44,39.26,51.69Zm35.81-2.37c.11-.9-.51-1.07-1.05-1.32C73.95,48.86,74.65,48.95,75.07,49.32Zm.92-.79c.06.78.73.93,1.18,1.32C77.27,49,76.48,48.39,76,48.53Zm2.11.39c0,1,.75,1.26,1.45,1.58C79.62,49.48,78.56,49,78.1,48.92ZM21.49,55.64c3.88-.25,7.06-2.84,6.19-6.58A52.33,52.33,0,0,0,21.49,55.64Zm2.11-5.4h.53c.28-.32.1-1-.39-.92C23.62,49.6,23.41,50.06,23.59,50.24ZM31,64.72c2.09-3.44,4.65-9.79,4.08-15,0-.07-.11-.15-.13,0C34.27,60,30.33,67.28,23.86,71.44c-.77.49-2.61.8-2.37,2.37A23,23,0,0,0,31,64.72ZM77.17,50.9c0-.86-.62-1-1.18-1.32C76,50.45,76.66,50.58,77.17,50.9Zm2.37,4.21c-.31-1.41-1.88-2.09-2.9-2.9a13.29,13.29,0,0,0-3.29-2.37A26.42,26.42,0,0,0,79.54,55.11Zm0-3.42c0-1-.86-1.16-1.45-1.58C78.12,51.1,79,51.22,79.54,51.69Zm-56.61.66c.09-.69.55-2-.26-2.11C22.56,50.74,22.25,52.24,22.94,52.35ZM66.64,52c-.4-.44-.58-1.09-1.05-1.45C64.41,51.09,65.74,53.19,66.64,52ZM28.47,56.16c2.82.53,3.34-4.26,1.05-4.74A46.54,46.54,0,0,1,28.47,56.16Zm5.66,3.42c.18-1.79,2.87-2.77,3-4.48.11-1.19-1-2.58-1.45-3.82C35.53,54.32,34.51,57.21,34.13,59.59Zm45.42-6.85c-.08-.89-.77-1.17-1.45-1.45C78.15,52.2,78.94,52.38,79.54,52.74Zm0,3.55c-.34-1.09-1.45-1.71-2.24-2.37a27.81,27.81,0,0,0-2.63-2C75.62,54.07,77.74,55,79.54,56.3ZM62,53.4c0-.19.29-.15.39-.26C62.55,51.16,60.4,53.09,62,53.4Zm-18.17.53c.25,0,.29.15.53.13A1.16,1.16,0,0,0,44.66,53C44,52.45,43.41,53.39,43.87,53.93Zm-12.64.66c.91.62,1.19,1.88,1.84,2.76.71-1,.74-2.69,1.05-4.08-.27,0-.26-.36-.53-.39C33.38,54,31.88,53.88,31.23,54.59ZM21.36,56.3c1.07,1.35,3.72.48,5.27.13.3-1,1-2.32.79-3.42A8.24,8.24,0,0,1,21.36,56.3Zm19.22.53c1.69-.07,2.2-4-.26-3.82C38.22,53.2,38.62,56.9,40.58,56.82Zm25.41,8c-.1,4.5-2,7.25-3.42,10.4,4.59-3.81,5.52-16.45,1.05-21.59.13,1.38,1.24,2.71,1.71,4.34A20.08,20.08,0,0,1,66,63.54ZM67.3,53.8c-1.08.44-.36,2.5.92,1.71C68,54.84,68,54,67.3,53.8Zm-10,.13c-1.49,1.63,2.06.9,0,0Zm22.25,3.69c0-1-1.16-1.57-1.84-2.11a6.13,6.13,0,0,0-2.24-1.45C76.42,55.65,78.1,56.51,79.54,57.61ZM62.82,54.85c4.66,7.23,1.69,18.31-3.82,22.38-.77.57-2.2.91-2.11,1.84,7.5-2.43,11.51-16.34,6.32-24.49,0-.08,0-.16-.13-.13A.36.36,0,0,1,62.82,54.85Zm-1.45,2.63a2,2,0,0,0,2.5,1.19,7.39,7.39,0,0,0-1.45-3.16C62.21,56.29,61.58,56.68,61.38,57.48ZM79.54,58.8c-.49-1.75-2.36-2.11-3.42-3.29C76.58,57.29,78.3,57.8,79.54,58.8ZM37.15,55.9c-.12.4-.64.41-.66.92a.88.88,0,0,0,1.05.66A2.19,2.19,0,0,0,37.15,55.9Zm11.06,1.32c1.49-1.48-1.76-1.09,0,0ZM35.31,72.49a17.36,17.36,0,0,0,1.58,7.11c.22.47.41,1.33.92,1.19.35-.49-.2-1.16-.4-1.58-3.56-7.64-.58-17.31,4.74-21.06.77-.54,1.92-.7,1.84-1.58-2.63.77-4.53,3-5.92,5.4a19,19,0,0,0-2.76,9A2,2,0,0,0,35.31,72.49ZM26.36,61c2.67,1.06,3.86-3.28,1.84-4.21C27.75,58.39,26.91,59.56,26.36,61Zm-5-3.82c.39,1.59,2.16,1.79,3.95,2,.2-.66,1.29-1.75.79-2.24A7.61,7.61,0,0,1,21.36,57.22Zm58.19,2.9c-.34-1.68-2-2-3-3C76.83,58.79,78.41,59.23,79.54,60.11Zm-10.66-2.9c-1.16.07-1.2,2.2.26,2C69.47,58.59,68.93,57.87,68.88,57.22ZM34.39,60c1.26.69,1.9-1.23.92-1.71C35,58.87,34.46,59.17,34.39,60ZM23.86,61.3a4.91,4.91,0,0,0,1.05-1.58,11,11,0,0,1-3.55-1.19C21.47,60.18,22.75,60.65,23.86,61.3ZM79.54,61a6.92,6.92,0,0,0-2.63-2.24A3.67,3.67,0,0,0,79.54,61ZM29.26,60c-.31.56.41.9.66,1.45s.15,1.4.66,1.84c.8-.92,2.19-2.87,1.45-4.08C31.51,59.91,30.13,60,29.26,60ZM61,61.43c1,0,1.27-1.45.39-2.11A1.07,1.07,0,1,0,61,61.43Zm3.29-1.58c-1.76,0-2.36,4.61.53,4.34A16.26,16.26,0,0,0,64.27,59.85ZM78.89,61.3c-.68-.37-1.15-1-1.84-1.32C77.21,60.82,78.23,62.17,78.89,61.3ZM37.29,81.84c-.39-1.37-1.11-2.66-1.58-4.21a20.77,20.77,0,0,1-.92-5.13c-.24-5.2,1.93-9,3.55-12.11,0-.1-.11-.15-.26-.13C33.82,64.84,32.83,76.66,37.29,81.84ZM22.28,63a1.9,1.9,0,0,0,1.18-1.32c-.84-.34-1.28-1.09-2.11-1.45A2.77,2.77,0,0,0,22.28,63Zm15.67,1.18c2.35.91,3.66-2.29,2.37-3.82A16.3,16.3,0,0,0,37.94,64.19Zm21.19-3c.56,4.24-.39,7.63-2.24,9.61-.43.46-1.35.72-1.19,1.58,3.18-1.31,5.16-6.57,3.82-11.58h-.39C59.12,60.93,58.9,61.07,59.14,61.17Zm9.61,1.58a2.45,2.45,0,0,0,1.05.13A12.26,12.26,0,0,1,69.67,61C68.55,60.78,68.45,62,68.75,62.75Zm8.69-.4c.12-.23.48-.22.53-.53-.36-.08-.33-.55-.79-.53C77.26,61.65,77.23,62.12,77.44,62.35ZM26.1,61.56c-1.09,1-1.94,2.27-3,3.29C24.88,66.71,27.36,64,26.1,61.56Zm7.24,0c0,.72-.54,1-.53,1.71C34.06,64.08,34.71,61.58,33.34,61.56Zm9.74,2.24c.88-.08,1.24-2.29-.13-2.24S42.08,63.89,43.08,63.8Zm15.53-2.24a26.75,26.75,0,0,0,0,3c-.23,3.14-1.73,4.84-2.9,6.45C57.94,69.8,59.52,65.5,58.61,61.56Zm20.67,1.32c.3-.14,0-.83.13-1.18-7,3.79-12.22,11-13.56,20.4-.18,1.27-.59,2.8.13,3.95C66.6,74.5,71.34,67.1,79.28,62.88Zm-24.35,2a9.35,9.35,0,0,1-2.5-.13c.26-.75.59-1.43.79-2.24-1.46-.06-.94,1.87-1.84,2.37-.71-.09-1.75.17-2.24-.13.13-.74.82-1.51.53-2.24-1.16.16-.77,1.86-1.58,2.37H45.71c-.34,2,.29,5-1.05,6.06.64.5-.5,1.4-.39,2.24,1.27-.09.91-1.81,1.71-2.37.79.09,1.93-.17,2.5.13-.17.73-.81,1.61-.66,2.24,1.25-.11.86-1.86,1.71-2.37.71.09,1.75-.17,2.24.13A15.1,15.1,0,0,0,51.11,73c1.41.1.86-1.78,1.71-2.24h2.37c.37-2-.34-5.08,1.05-6.06-.83-.39.54-1.41.4-2.37C55.38,62.49,55.68,64.21,54.93,64.85Zm-9.21-.26c.21-.67.5-1.26.66-2h-.66A3.11,3.11,0,0,0,45.71,64.59Zm-24.35-.53A.72.72,0,0,0,22,63.4c-.17-.23-.27-.52-.66-.53Zm20.27,6.32c.27-3,1.67-4.69,3.55-6.45.17-.16-.13-.67,0-.79-3.06,1.27-5.49,7.12-3.55,11.72C41.8,73.1,41.51,71.72,41.63,70.38Zm19.75-4.61c.83-.07,1.12-1.4.39-2.11C59.67,63.38,60.24,65.87,61.38,65.77Zm14.88,0a3.66,3.66,0,0,1,2.63,1.05c.87-.23.62-2.67.26-3.29C78.1,64.2,76.61,64.42,76.25,65.77ZM25.17,72.23c.33,8,3.25,13.42,7.77,17.25C33.47,88,34.55,87,35,85.52,31.22,81.06,29.67,71,31.89,64.06,30.22,67.35,27.71,69.81,25.17,72.23Zm17.11,1.71c-.34-3.9.75-7.38,2.9-9.21,0-.1,0-.26-.13-.26C42.85,66.2,41.43,70,42.29,73.94ZM26.23,64.85c-.53.73.62,2.32,0,3.56.72.14,1.38-.67,1.84-1.19A3,3,0,0,0,29.12,65,3.08,3.08,0,0,1,26.23,64.85Zm43.31,2a5.07,5.07,0,0,0,.13-2C68.35,64.66,68.28,66.9,69.54,66.83ZM32,65.12c0,.71-.31,1.18-.39,1.84C32.94,67.29,33.26,65.12,32,65.12Zm4.34,4.48c2.53.3,2.59-3.47,1.05-4.34A20.88,20.88,0,0,0,36.36,69.59ZM21.49,66c.09.79-.17,1.93.13,2.5C23,68.37,23.11,64.07,21.49,66Zm19.22,1.45c.79-.11,1-1.29.4-2C39.18,64.73,39.22,67.7,40.71,67.49Zm22.78,2.76a16.37,16.37,0,0,0,1.05-4.34C62.13,65.86,61.72,69.28,63.48,70.25Zm14.88-.13c.55,0,.55-.5,1.05-.53v-2.5C78.19,67.34,78,69,78.36,70.12Zm-3.69-2.9c-.17,0-.18-.17-.39-.13-1.05.93-2.32,1.63-2.5,3.42a3.11,3.11,0,0,1,2.9.26C75.2,70,74.08,68.49,74.67,67.22Zm-14.22,3c.82-.08,1.33-2.34-.26-2.11C58.87,68.34,59.48,70.35,60.46,70.25Zm8.29.26a12.32,12.32,0,0,0,.53-1.84C68.19,68.06,67.55,70.31,68.75,70.51ZM21.88,68.8c-.71.36-.39,2.39-.26,3.16a4.9,4.9,0,0,0,3-2A11.49,11.49,0,0,1,21.88,68.8Zm9.21,1.84c1.49.42,1.54-2,.26-1.84C31.07,69.21,31.37,70.22,31.1,70.65Zm7.77,1.05c1,.82,2-.44,1.45-1.58C39.32,69.25,38.25,70.56,38.87,71.7ZM74.8,74.07c1.06-1.09,1.94-2.36,3-3.42C75.69,68.88,73.53,71.94,74.8,74.07ZM71.64,87.76h.13c1-.45.59-1.64.66-2.76A20.46,20.46,0,0,1,77,73.41a16.8,16.8,0,0,0,2.37-3.16c-4.57,2.94-7.34,8.81-7.77,16.32C71.39,86.63,71.48,88.13,71.64,87.76ZM54.66,73c.37.11.34-.19.66-.13-.08-.57.17-1.49-.13-1.84C55,71.66,54.5,72.5,54.66,73Zm5.92,2.11A14.1,14.1,0,0,0,63,71.44C60.89,70.23,59.12,73.63,60.59,75.12ZM36.1,71.3a11.27,11.27,0,0,0,.66,4.48C38.54,75.23,38.63,71.11,36.1,71.3Zm42.78.92c.17.23.27.52.66.53-.12-.36.27-1.24-.26-1.19C79.24,71.88,78.82,71.81,78.89,72.23ZM49.92,75c.35,0,.75,0,.92.13a47.34,47.34,0,0,0,7.9,22.12C55.2,91.08,51.93,84,51.24,75.39c.72.48.36.93,1.05,1.45s2,.26,2.24,1.18c.39,1.3-1.13,2.44-1.32,3.95-.13,1,0,2.52.92,3.16.75.52,1.83,0,2.63.92.16,2.49-1.54,5.15.26,6.71.92.8,2.16.17,3.16.79.71.44.65,1.36.92,2.24.24-.51,1.1-.39,1.18-1.05-.53-1.16-.18-1.57-.92-2.24-1-.88-3.43-.38-3.82-1.71-.53-1.82,1.49-3.47.92-5.27-.36-1.12-1.64-1.36-3.16-1.45-2.1-2.15,1.12-3.69,1.05-6.19,1.27.2,2.16-1.08,3.16-1.58-.64-1.89-3.67-.95-3.42,1.05-.16-1.51-2-1.32-2.76-2.24.4-.43,1.92.26,2.11-.39.25-1.3-1.84-.27-2.37-.79.17-.74.89-1.53.66-2.24-1.12.15-.85,1.7-1.45,2.37H49.53c.11-.74,1.14-1.9.66-2.37-.89.38-.69,1.86-1.45,2.37h-2.5A11.9,11.9,0,0,0,47,71.83c-1.46-.1-.83,1.89-1.71,2.37-1.14.13-3-.42-3.16.66.14.3.94-.06,1.05.26a.68.68,0,0,0,.26,1.19c.76-.24.29-1.08.26-1.32h1.32a2.87,2.87,0,0,1,.13,2.11c-1.88.72-4.57-.09-4.87,2.5-.23,2,1.53,4.7-.53,5.27-.6.16-1.81-.29-2.37-.13-2.53.7-1.1,3.82-1.05,6.19-.5,1.44-2.15.7-3.42,1.05-1.59.44-2,2.65-1.58,4.34a5.7,5.7,0,0,1,1.32-.26c-1.29-4.26,4.53-1.68,5.13-4.74.32-1.62-.7-2.18-.53-4.34.1,0,.15-.11.13-.26.75-.81,1.54-.23,2.5-.39,2.9-.49,2.12-3.5,1.84-6.58.58-1,1.91-.42,3-.66,1.81-.38,2.09-2,2.11-4.08H49c-3.88,6.49-8.62,13.85-12.64,20.27-.45.73-1.67,2.09-.13,2.76h.13c5.71.31,12,0,17.9.13,1.73.34,2.45.61,3.55-.53-7.11.09-14.56-.17-21.46.13a11.45,11.45,0,0,1,2.5-4.08h17c-.2-.45-2.78-.26-4.21-.26-4.3,0-9,.11-12.77-.13C42.47,87.1,46.32,81.17,49.92,75Zm8.56-3c-1.35-.62-1.91,1-1.18,1.84C58.64,74.46,59.21,72.71,58.48,72Zm9,2.11a4.12,4.12,0,0,0,.66-1.84C66.83,71.57,66.31,73.74,67.43,74.07Zm1.45,2.37c.37-.86,1.75-.7,2.76-.92-.06-.86-1.12-1.74-1.05-3.16C69.33,72.9,68.19,75.21,68.88,76.44Zm8.56-2.5c.91.27,1.28,1.09,2.11,1.45a2.55,2.55,0,0,0-1.18-2.9C78.08,73,77.5,73.21,77.44,73.94ZM31.1,88.68c-3.63-3.89-6.06-9.15-6.45-16.06-.78.64-.36,1.89-.26,2.63a22.61,22.61,0,0,0,7.9,15C32.39,89.45,31.51,89.12,31.1,88.68Zm.26-14.09c.95.12,1.08-1,.79-1.71-.28-.11-.45-.34-.92-.26A4.05,4.05,0,0,0,31.36,74.6Zm-8.43-1.05c0,.44.39.57.66.79.21-.21-.12-.55,0-1.05C23.27,73.26,23.19,73.49,22.94,73.54Zm-.79.53c0,.5,1.06,1,1.58,1.45A1.43,1.43,0,0,0,22.15,74.07Zm17.77,2.24c.86,0,1.19-1.08.66-2C38.66,73.55,38.58,76.3,39.92,76.31ZM76,75.91c1.5,0,2.69.9,3.55,1.05-.18-1.62-1.49-2.11-2.63-2.76C76.73,74.9,76.12,75.17,76,75.91ZM21.36,74.46c.47,1.2,1.71,1.63,2.63,2.37A3.92,3.92,0,0,0,21.36,74.46ZM72.7,78.81a29.26,29.26,0,0,1,1.84-4.21C71.76,73.45,70.74,77.88,72.7,78.81Zm-10,1.71a44.76,44.76,0,0,0,4.21,9.22c.2.35.49,1.53,1.18,1.05.23-.53-.38-1.07-.66-1.45-2.62-3.6-4.2-8.49-5.13-13.56-.08,0-.16,0-.13-.13s0-.16-.13-.13C61.52,76.63,62.18,78.84,62.69,80.52Zm3-3.29c.12-.67.76-.82.79-1.58C65.51,74.64,64.33,77,65.72,77.23ZM24.38,78.41c-.41-1.56-1.82-2.13-3-2.9C21.74,77.11,23.29,77.54,24.38,78.41Zm39.36,2c-.16,1.27,1,2.65,1.45,3.95a46.93,46.93,0,0,1,1.71-8.56C66.71,77.4,63.92,79,63.75,80.39ZM31.89,76.31c-.6.42.11,1.34.13,2C33.25,78.35,33,76.17,31.89,76.31Zm43.71.13a9.38,9.38,0,0,0-1.05,2.11,12.21,12.21,0,0,1,5-.26C79.21,76.77,77,76.45,75.59,76.44ZM37,76.83A16.56,16.56,0,0,0,38.21,80a3.8,3.8,0,0,0,1.32-2A2.28,2.28,0,0,0,37,76.83ZM24.78,80c-.52-1.67-2.11-2.28-3.42-3.16C21.94,78.44,23.61,79,24.78,80Zm-3.42-1.45c.61.43,1.28,1.15,2,1.71s1.68,1.31,2,1.19C24.44,79.85,22.8,79,21.36,78Zm42-.39a1.66,1.66,0,0,0,.39,1.45c.12-.4.64-.41.66-.92A.88.88,0,0,0,63.35,78.15Zm3.82,4.48A7.36,7.36,0,0,1,69.67,81,7.06,7.06,0,0,1,68,78.15C67.22,79,66.48,81.58,67.17,82.63ZM52.42,79.47a.82.82,0,0,0,.66,0c.18-.17.13-.57.13-.92C52.59,78,52,78.93,52.42,79.47Zm21.72-.13a20.9,20.9,0,0,0-.79,3c1.41-1.14,3.24-3,6.19-3C78.61,77.86,75.36,78.73,74.15,79.33Zm-14,3.16c2.42.26,2.44-4.32-.26-3.69C58.3,79.19,58.51,82.31,60.19,82.49ZM21.36,79.73c1.59,1.36,3.19,2.69,4.87,3.95-.9-2.21-3.14-3.09-4.87-4.48Zm36.2-.39c-.83.32-.29,1.28-.13,1.84a51.86,51.86,0,0,0,3.95,10c.53,1,1.21,3.26,2.37,2.76C61.07,90.22,59.12,84.62,57.56,79.33Zm13.82,4.87a36.84,36.84,0,0,1,1.05-4.74C69.49,78.88,69.18,83.71,71.38,84.21Zm-38.7-4.08a9.18,9.18,0,0,0,.66,1.71C34.79,81.65,33.87,79.06,32.68,80.12ZM73,86.57a34.47,34.47,0,0,0,6.45-6.71C75.66,80.5,72.74,82,73,86.57ZM21.36,81c2,1.56,4.15,3.66,6.19,4.74-1.6-2.26-4-3.7-6.19-5.4Zm22,.66a.69.69,0,0,0,.39-1.19C42.78,80.29,42.79,81.48,43.34,81.7Zm33.83,2.11c.52-.18.17-1.23,1.19-.92.94.73.1,1.86.26,2.76.09.5.6.86.66,1.32s-.39.59-.39,1.05.75.66.39,1.18c-.56.7-.66,1.06-.53,2.37-.73.33-.78,1.33-1.32,1.84-.22.22-.77.1-1.18.13a7.09,7.09,0,0,1-1.05,2.24c-1.65,1.87-5.11,1.17-7.5,2.11-.76.3-1,.9-1.71.92.31-1.91.53-3,1.58-3.95,1.95-1.79,5.68-.68,7.37-2.76-2.33.09-3-1.44-3.29-3.42-3.71,2.83-7.19,5.88-11.45,8.16.43,2.78-1.57,4.33-3.69,3-.11,1.3,1.43,1.35.79,2.77.19.3.86.11.79.66s-.31.83-.26,1.45c.85.74,2.29,1,2.37,2.11.09,1.28-2.43,4-2.5,5.13.28,1.09.94,1.78.79,3.29.81,1.16,1.63,2.28,2.5,3.55.55.81,1.73,3.26,2.63,3.55s2.71,0,3.95,0H79.41c.22-13.56.22-28,0-41.6C78.82,81.86,77.17,82.56,77.17,83.81ZM56.11,82.36c.21.15.27.43.66.39C58,82.19,56,80.71,56.11,82.36ZM23.33,83.42c1.52,1.81,3.64,3,5.4,4.61-.57-1.49-2.2-2.31-3.42-3.29a42.36,42.36,0,0,0-3.95-3C21.49,82.8,22.42,83.1,23.33,83.42Zm15.67,0c.44,0,.52-.86.26-1.19C38.31,81.93,38.19,83.45,39,83.42Zm-16.19.79a1.9,1.9,0,0,0-1.45-1.32C21.48,83.62,22.29,84.28,22.8,84.21Zm11.59-.79A1.73,1.73,0,0,0,35.44,85C36.17,84.33,35.45,82.69,34.39,83.42Zm43.84,2c.08-.47.48-2.05-.26-2.11C77.72,83.89,77.43,85.19,78.23,85.39Zm-17.64.13a1.67,1.67,0,1,0,3.29,0c-.06-1-.53-2-2-1.71A1.78,1.78,0,0,0,60.59,85.52Zm13.56.79c.73.54.5,2,1.05,2.76.39-.78.89-.92.66-2.11.2-.15.27-.43.66-.4-.07-.37-.19-.68-.26-1.05.24-.28.38-.67,1.05-.53-.13-.49-.22-1-.66-1.19A31.15,31.15,0,0,1,74.15,86.31ZM22.8,85.39c-.11-.86-.82-1.12-1.45-1.45A1.67,1.67,0,0,0,22.8,85.39Zm44.5,2.9c.2-.77,1.38-.55,1.45-1.45a4.45,4.45,0,0,1-1.84-2.24C65.93,85.17,66.33,87.76,67.3,88.29ZM24.91,85.92c-.06-.73-.64-.94-1.18-1.19A1.18,1.18,0,0,0,24.91,85.92ZM71.38,85c-2.2-.54-2.91,3.09-1.32,4.21C71.62,88.64,71.07,86.64,71.38,85ZM22.67,86.71c.07-1-.66-1.28-1.32-1.58C21.28,86.17,22.11,86.3,22.67,86.71Zm54.5-.39c.18-.19.27-1-.13-1.05S76.49,86.35,77.17,86.31Zm.13.39c.6.19.85.73,1.45.92.69-.81-.41-1.67-1.05-2A3.44,3.44,0,0,1,77.31,86.71Zm-52.53.53c.14-1-.57-1.1-1.05-1.45C23.6,86.74,24.33,86.85,24.78,87.23Zm2.11.39c.07-.86-.64-.94-1.05-1.32C25.72,87.21,26.34,87.39,26.89,87.63Zm-3.56,1.45c2.3,1.92,4.56,3.75,6.58,5.27.74-1.31-1.57-1.5-1.84-2.63a4.9,4.9,0,0,1-.92-.26c-.56-1.46-2.37-1.67-3-3-.37-.07-.68-.19-1.05-.26a2.63,2.63,0,0,0-1.71-1.71C21.21,87.73,22.52,88.4,23.33,89.08Zm51.34-.66c-.23-.69-.13-1.72-.92-1.84-.43,1-1.65,1-1.84,2-.42,2.19,2.5,4.37,4.48,2.63,0-.42-.35-.44-.26-.92s.68-.46.66-1.05c-.76.07-1.14.53-1.71.79-.27-.25-.64-.42-.92-.66C74.29,89,74.62,88.85,74.67,88.42ZM55.06,88c.59.08.66-.83.4-1.19C54.49,86.61,54.51,87.8,55.06,88Zm21.2-.13c.74.2,1-.6.66-1.05C76.2,86.75,76,87.34,76.25,87.89Zm-51.47.66c.17-1-.56-1.19-1.05-1.58C23.53,88,24.34,88.11,24.78,88.55Zm52.13-.26c.85.2.78,1.33,1.84,1.32.53-1.25-.49-2-1.32-2.37A1.88,1.88,0,0,1,76.91,88.29Zm-50,.53c0-.82-.58-1-1.05-1.32A1.1,1.1,0,0,0,26.89,88.81Zm12-1.18a.84.84,0,0,0-.13,1.18C39.76,89.09,39.76,87.5,38.87,87.63ZM28.73,89.21c.1-.8-.35-1.05-.92-1.18C27.74,88.79,28.29,88.94,28.73,89.21Zm-3.42,3.16c1.49,1.29,2.53,2.66,4,3,.3-1-.91-1.4-1.45-1.84-2-1.64-4.08-3.37-5.92-5-.17,0-.18-.17-.39-.13C21.71,90.07,24.14,91.36,25.31,92.37Zm50.42-3.29a1,1,0,0,0,1.05-.53A.6.6,0,0,0,75.73,89.08ZM64.54,92.24c2.13,0,2.24-4.46-.53-3.69C62.36,89,62.75,92.22,64.54,92.24ZM26.89,90.13c.12-.91-.55-1-1.05-1.32A1.14,1.14,0,0,0,26.89,90.13ZM77.57,90c.12.81-1.09,1.5.39,1.84.27,0,.26-.36.53-.39A2.36,2.36,0,0,0,77,88.94C76.87,89.68,77.49,89.45,77.57,90Zm-48.84.53c.08-.83-.24-1.25-.92-1.32C27.7,90.06,28.26,90.25,28.73,90.52Zm30.54-1.32a.84.84,0,0,0,.13,1.18c.33,0,.41-.21.66-.26C60.14,89.48,59.93,89.11,59.27,89.21ZM34.65,90.66a.88.88,0,0,0,.39-.92C34.24,88.81,33.5,90.57,34.65,90.66Zm-2.9.66c-.3-1-1.28-1.26-2-1.84A2.09,2.09,0,0,0,31.76,91.31Zm44.89-.4c.5,0,.51-.54.66-.92C76.77,89.5,76.23,90.46,76.65,90.92Zm-55.29-.26c.35,0,.43-.18.4-.53C21.41,90.09,21.32,90.31,21.36,90.66Zm7.37,1.05c.06-.76-.29-1.12-.92-1.19C27.68,91.36,28.23,91.51,28.73,91.71Zm-7.37.13a1.69,1.69,0,0,0,1.05-1.05C21.93,90.55,21.33,91.15,21.36,91.84Zm9.74.53c.62-.82-.84-1.19-1.32-1.71C29.65,91.8,30.37,92.09,31.1,92.37Zm-9.74.53c.61.05,1.22-1,1.71-1.45C22.52,91,21.59,92.2,21.36,92.89Zm54.24-.79c.18.84,1.25,1.64,2,.79C77.84,91.29,76.15,91.21,75.59,92.1Zm-54.24,2a6,6,0,0,0,2.37-2.24A4.13,4.13,0,0,0,21.36,94.08Zm9.21-.79c.38-.68-.3-1-.79-1.18A1,1,0,0,0,30.57,93.29Zm-9.21,2c.86-.73,2.43-1.43,2.37-2.63C23,93.58,21.67,93.91,21.36,95.26Zm3.55-.92c0-.78.07-1.56-.53-1.71v22.25c-.82,1.06-2.58,1.89-2.76,3.16.88-1.09,2.13-1.82,3-2.9.31-.88,0-2.32.13-3.42V98.55A26.15,26.15,0,0,0,24.91,94.34ZM66.51,98c3-1.54,9.27-.56,9.21-4.74a4.15,4.15,0,0,1-4.21,2.63,1.44,1.44,0,0,1-1.71.4c-.89.68-1.33.43-2.5.79.23-3.2,5.8-2.44,7-3.82C71.09,94.27,66.64,94,66.51,98ZM25.31,108c2-1,3-3.69,2.77-6.45,4.49,2.49,5.6,13.91.92,17.11-.18-3.15-1.37-5.3-3.69-6.32v3c-.69,1.24-3.55,2.42-3.95,3.82a11.37,11.37,0,0,0,.13,3.16h10c.82-1.35,1.8-2.73,2.76-4.34.71-1.18,2.4-3.32,2.5-4.61a12.24,12.24,0,0,0-.66-2.76c-.62-3-.81-5.92-2.11-8.16-3,1.71-6.22-2.33-4-5.27-1.64-1.13-2.86-2.67-4.61-3.69C25.52,98.51,25.32,103.18,25.31,108ZM21.36,96.32a5.49,5.49,0,0,0,2.5-2.37A5,5,0,0,0,21.36,96.32Zm22.51-2.11h-.92c.05.53,0,.92-.53.92s-.43-.45-.92-.39c-.51,1-1.51,1.47-2.11,2.37C42.06,97.32,42.31,95.11,43.87,94.21Zm2,.66c.44,0,.57-.39.79-.66H46C46.08,94.58,45.79,94.55,45.84,94.87Zm-3.55,2.24c2,.29,2.32-1.19,3.29-2C44,94.2,43.42,96.41,42.29,97.11Zm7.24-2.9h-.79c.15.35-.25.77,0,.79C48.85,94.59,49.42,94.63,49.53,94.21Zm-2.24.53c-.54,1-1.5,1.49-2.11,2.37,2,.26,2.33-1.18,3.29-2C47.76,95.32,47.78,94.78,47.29,94.74Zm4.34.13c.09-.35.6-.28.66-.66h-.66C51.71,94.44,51.25,94.76,51.63,94.87Zm2.24.26c-.58.14-.43-.45-.92-.39-.62.91-1.54,1.53-2.24,2.37,2.55.14,3-1.85,4.34-2.9H54.4C54.32,94.61,54.37,95.14,53.87,95.13Zm2.37-.79a27.59,27.59,0,0,0-2.63,2.76C55.46,97.26,57.38,95.53,56.24,94.34ZM37.42,97.11c1.31-.27,1.78-1.38,2.5-2.24-.47.07-.32-.47-.79-.39A29.72,29.72,0,0,0,37.42,97.11Zm21.72-1.45c.3-.1.39-.4.53-.66C59.28,93.68,57.84,95.39,59.14,95.66Zm-25,.13h.66C35.56,94.39,33.35,94.39,34.13,95.79Zm13.82,1.32c2,.26,2.33-1.18,3.29-2-.71.18-.55-.5-1.18-.39C49.59,95.76,48.56,96.23,47.95,97.11Zm-26.59.4c.92-.66,2.42-1.45,2.37-2.63C23,95.82,21.76,96.23,21.36,97.5Zm0,1.18c.93-.73,2-1.31,2.5-2.5A4.85,4.85,0,0,0,21.36,98.69Zm35-1.58h1.45a1.1,1.1,0,0,0-.53-.92A4.07,4.07,0,0,0,56.37,97.11ZM36,98.42a4.5,4.5,0,0,0-3.29-1.84c-3.79.08-4,6.63.53,5.79.54-.26,1-2.25-.13-2.24-.34.48.23,1-.39,1.45-1.94,1.52-3-2.59-1.84-3.82,1.4-1.44,3.81-.13,4.61.79,3.14,3.62,2.77,11,5,15.8C38.87,109.73,38.76,102,36,98.42ZM21.36,99.74a5.67,5.67,0,0,0,2.5-2.37A4.9,4.9,0,0,0,21.36,99.74Zm37.91-1.18a.58.58,0,0,0-.53-.26c.08,1-1,0-1.05.92-.4,0-.47-.41-1.05-.26.41,2,4.1.71,3-1.71C59.38,97.52,59.71,98.42,59.27,98.55Zm-24.88-.26c-.77-.59-2.73-.76-3.29,0-.72,1-.14,3.78,1.45,2.63-3-1.06,0-3.6,2-2.11,3.32,2.52,2.84,12.29,4.87,15.27C38.17,110.26,37.82,100.92,34.39,98.29Zm-13,2.63a8,8,0,0,0,2.5-2.37c0-.1,0-.26-.13-.26C23,99.28,21.67,99.57,21.36,100.92ZM53,98.82c-2.78.82-5.92,3.67-6.45,6.32,1.26-.22,1.74,2.06.79,2.11a1,1,0,0,0-.66-1.45c-1.52,2.79-.14,7.33.79,9.74,3.44.2,7.58.3,10.53-.4.43-1.44-.78-2-.79-3,0-1.89,2.23-3.26,2.37-5.4-.53-.75-1.62-.93-2.11-1.71-.09-.49.22-.56.13-1.05-.54-.38-1.6-.25-1.84-.92-.58-.14-.43.45-.92.4.06-.85-.42-1.16-.53-1.84.63.32,1.79,1.11,2.63.39-.32-.82-1.07-1.21-.79-2.63A3.09,3.09,0,0,0,53,98.82Zm-18.83.4c-.69-.45-3.06-.64-2.11,1.05a1.4,1.4,0,0,1,2.11-.26c2.17,1.82,2.55,8.38,3.55,11.32C37,107.92,36.53,100.77,34.13,99.21Zm4.34,14.61a5.53,5.53,0,0,0-.53-1.45C38,112.93,38,113.66,38.47,113.83Zm2.9.79C39.69,110,40,103.38,37.55,99.48c-.16,0-.3-.23-.39,0C39.77,103.31,39.11,110.42,41.37,114.61ZM39.92,103c-.3-1.42-.59-3-1.71-3.69a35.73,35.73,0,0,1,2.37,8.29A38.51,38.51,0,0,0,39.92,103Zm1.71,10.27c-.37-1.47-.62-3.07-.92-4.61A12.08,12.08,0,0,0,41.63,113.3Zm1.58,1.58c-2.35-4-1-11.73-3.55-15.53-.15,0-.37,0-.4.13C41.63,103.55,40.53,111.1,43.21,114.88Zm-2.5-15.53h-.26c2.21,3.71.85,12.14,3.69,15.67C41.84,110.94,43.24,103.18,40.71,99.34Zm4.08,15.4c-1.87-4.18-.84-11.27-2.76-15.4h-.4C43.54,103.63,42.43,110.92,44.79,114.75Zm1.05.53c-1.79-3.92-.86-11.69-2.76-15.93h-.39C44.64,103.75,43.23,111.53,45.84,115.27Zm-.4-8.16c-.26-2.9-.2-6.12-1.71-7.77,1.92,4.45.56,12.16,3,16.06a22.66,22.66,0,0,1-1.32-6.85A1.68,1.68,0,0,0,45.45,107.11Zm-.79-7.77c.75,1.62.93,3.81,1.32,5.79C46.17,103.08,45.83,100.46,44.66,99.34Zm1.05,0a33.65,33.65,0,0,0,1.05,3.95C46.68,101.71,46.69,100,45.71,99.34Zm1.71,2.9c.68-.7,0-1.91-.13-2.9-.19.07-.68-.15-.66.13C47.1,100.19,47.06,101.42,47.42,102.24Zm.79-1.19c.79-.07.18-1.27.13-1.71-.2,0-.49,0-.53.13A4.07,4.07,0,0,1,48.21,101.06Zm1.19-.79c.14-.16.37-1.14-.26-.92C48.85,99.51,49,100.36,49.4,100.27Zm-28,1.71a5.64,5.64,0,0,0,2.5-2.37A5,5,0,0,0,21.36,102Zm0,1.19c.92-.66,2.42-1.45,2.37-2.63C23,101.47,21.75,101.88,21.36,103.16Zm12.9-1.84c.45,2,1.42,3.84,1.84,6.06s.51,4.34,1.45,6.19C36.43,109.5,36.17,104.58,34.26,101.32Zm-12.9,3c.92-.75,2-1.31,2.5-2.5A4.85,4.85,0,0,0,21.36,104.35Zm8.56,1.84a12.64,12.64,0,0,1,.79,5.92c-.23,2.07-1.71,3.46-1.32,5.53,3.36-2.77,2.77-12.65-.92-15C28.46,104.33,29.43,105,29.91,106.19Zm-8.56-.79a5.85,5.85,0,0,0,2.5-2.37A4.9,4.9,0,0,0,21.36,105.4Zm0,1.19c.91-.67,2.4-1.46,2.37-2.63C23,104.9,21.75,105.31,21.36,106.59Zm0,1.18c.91-.76,2-1.31,2.5-2.5A4.85,4.85,0,0,0,21.36,107.77Zm7.77-1.71c.08-.61-.72-.33-1.18-.39v.39Zm-7.77,2.77a6.09,6.09,0,0,0,2.5-2.37A4.78,4.78,0,0,0,21.36,108.82Zm5.4-1.19c.89-.16,2.44.33,2.9-.26C29,107.23,27,107,26.75,107.64ZM21.36,110c.88-.7,2.42-1.44,2.37-2.63C23,108.32,21.71,108.7,21.36,110Zm5-1.84c-1.07.19.81,0,.92.26h2.24c.41-.11.5-.34-.13-.26A7.06,7.06,0,0,0,26.36,108.16Zm-5,3c.91-.76,2-1.32,2.5-2.5A4.63,4.63,0,0,0,21.36,111.19Zm8.56-2.37h-.4c-1.2.23-3.63-.49-4.08.39a8.25,8.25,0,0,0,4.61,0A.62.62,0,0,0,29.91,108.82Zm-8.56,3.42a6.09,6.09,0,0,0,2.5-2.37A4.68,4.68,0,0,0,21.36,112.25ZM25.44,110v.26c1.05.31,2.68,0,4,.13.09-.3.91.12.79-.39H30A16.22,16.22,0,0,0,25.44,110Zm-4.08,3.42c.86-.73,2.43-1.43,2.37-2.63C23,111.74,21.7,112.1,21.36,113.43Zm4.08-2.37c1.24.14,3.72.39,4.74-.13C28.94,110.79,26.46,110.54,25.44,111.06Zm.66.53c-.26.32-.56-.22-.66.26,1.2.13,3.63.39,4.61-.13C29,111.41,27.37,111.67,26.1,111.59Zm-4.74,3c.91-.76,2-1.33,2.5-2.5A4.63,4.63,0,0,0,21.36,114.61Zm5.4-2c.5.31,2.89.62,3.16-.13-.83-.31-2.24,0-3.29-.13C26.65,112.48,26.63,112.64,26.75,112.64Zm-5.4,3c.93-.65,2.43-1.43,2.37-2.63C23,114,21.76,114.4,21.36,115.67Zm6.32-2.24c.2.42,1.91.42,2.11,0-.43.08-.61-.09-.92-.13S27.36,113.19,27.68,113.43Zm.53.92c.19.32,1.32.48,1.32-.13C29.12,114.3,28.38,114.05,28.2,114.35Zm-6.85,2.5c.8-.78,2.4-1.46,2.37-2.63C23,115.17,21.67,115.5,21.36,116.85Zm13.56,5.4a2.37,2.37,0,0,0,1.71,0,15.36,15.36,0,0,0,4.48,0,1.41,1.41,0,0,0,1.32,0,2.79,2.79,0,0,0,1.84,0c.22.25,1.21.17,1.45,0a24.45,24.45,0,0,0,5.66,0,2,2,0,0,0,1.58,0c.39.27,1.24.07,1.84.13v-.13c.28.24,1,.09,1.45.13h3.29c.4-.08,1.13.17,1.32-.13.22.22.77.1,1.19.13-1.1-2-2.45-3.69-3.69-5.53-7.12,1.26-15.39.12-21.19-1.58-1.2,2.48-2.86,4.51-3.95,7.11C33.77,122.33,34.56,122.51,34.92,122.25Z"/><path class="cls-4" d="M50.32,66.43c2-.49,1.73,3.32-.26,2.63C48.93,68.67,49.11,66.72,50.32,66.43Zm.13,2.24c.88.12,1.26-1.15.53-1.84A1,1,0,1,0,50.45,68.67Z"/><path class="cls-3" d="M49,75h.92c-3.61,6.18-7.46,12.11-11.06,18.3,3.74.24,8.47.13,12.77.13,1.43,0,4-.19,4.21.26-5.35-.22-11.63-.22-17,0a11.45,11.45,0,0,0-2.5,4.08c-.13,0-.1.16-.13.26-1.54-.67-.32-2,.13-2.76C40.38,88.84,45.12,81.48,49,75Z"/><path class="cls-3" d="M66.91,75.78a46.93,46.93,0,0,0-1.71,8.56c-.41-1.3-1.6-2.68-1.45-3.95S66.71,77.4,66.91,75.78Z"/><path class="cls-4" d="M38.21,50.64a1.28,1.28,0,0,1-.13-1.32C39.7,48.44,39.74,51.35,38.21,50.64Z"/><path class="cls-4" d="M61.51,79.73a1.54,1.54,0,0,1-1.18,2.5C57.38,82.1,60,77.25,61.51,79.73Zm-.66-.13c-1.46-.26-1.66,1.24-1.05,2C61.26,82.36,61.87,80.2,60.85,79.6Z"/><path class="cls-4" d="M36.1,43.66c2.06-.26,2.08,2.84.66,3.16C34.85,47.25,34.14,43.9,36.1,43.66ZM37.29,45c-.37-1.78-2.94-.16-1.45,1.32C37.06,46.5,37.42,45.65,37.29,45Z"/><path class="cls-4" d="M36.89,45.9c-3.1.51.56-3.36,0,0Z"/><path class="cls-4" d="M38.21,48.4c2.21-.72,2.34,3.09.53,3.16C37.15,51.61,36.69,48.89,38.21,48.4ZM38.73,51c1-.06,1.28-2.48-.26-2.24C37.21,49,37.72,51.09,38.73,51Z"/><path class="cls-4" d="M40.45,53.27c2.1,0,1.65,3.22.13,3.29C38.85,56.64,38.39,53.32,40.45,53.27Zm0,2.76c.74,0,1.05-.59.92-1.71C39.83,52.51,38.72,56,40.45,56Z"/><path class="cls-4" d="M41,55.64c-.37-.11-.34.19-.66.13A1,1,0,0,1,40,54.19C41,53.82,41.51,54.9,41,55.64Z"/><path class="cls-4" d="M60.19,79.86c1.2-.27,1,1.52.26,1.58S59.27,80.07,60.19,79.86Z"/><path class="cls-4" d="M61.9,84.07c2.11-.4,2.12,2.83.79,3.16C60.84,87.69,60.06,84.42,61.9,84.07Zm1.32,1.45c-.24-2.2-3.31.14-1.45,1.18A1.11,1.11,0,0,0,63.22,85.52Z"/><path class="cls-4" d="M62,84.86c1.2-.27,1,1.52.26,1.58S61.12,85.07,62,84.86Z"/><path class="cls-4" d="M64.8,88.81c1.72.37,1.4,3.19-.26,3.16S62.62,88.34,64.8,88.81Zm-.26,2.63c.49,0,.46-.27.92-.53C65.62,86.8,61.86,91.43,64.54,91.45Z"/><path class="cls-4" d="M64.67,91.18c-.4,0-.51-.28-.79-.39C63.6,88.33,66.37,90.27,64.67,91.18Z"/></g></svg>