<svg xmlns="http://www.w3.org/2000/svg" viewBox="0 0 101.07 140"><defs><style>.cls-1{fill:#fff;}.cls-2,.cls-4{fill:#231f20;}.cls-3{fill:#c4161c;}.cls-3,.cls-4{fill-rule:evenodd;}</style></defs><title>Монтажная область 46</title><g id="cards"><path class="cls-1" d="M98,0S68.82.79,50.53.79,3,0,3,0A2.94,2.94,0,0,0,0,3V135.9A3.17,3.17,0,0,0,3,139s29.21,1,47.5,1S98,139,98,139a3.17,3.17,0,0,0,3-3.13V3A2.94,2.94,0,0,0,98,0Z"/><path class="cls-2" d="M12.76,12.3a3.5,3.5,0,0,1-1.09,1.36v.93q0,1.26.57,1.26t.55-1q0-.68.44-.68t.44.68a2.11,2.11,0,0,1-.39,1.34,1.27,1.27,0,0,1-1,.5,1.18,1.18,0,0,1-1.06-.46,3.25,3.25,0,0,1-.33-1.61v-.59a3.35,3.35,0,0,1-.59.07A2.36,2.36,0,0,1,9,13.74a2.93,2.93,0,0,1-1-1A7.08,7.08,0,0,1,7.16,9.1,6.68,6.68,0,0,1,8,5.48a2.63,2.63,0,0,1,2.29-1.41,2.51,2.51,0,0,1,2.24,1.38,7.41,7.41,0,0,1,.82,3.79A7.05,7.05,0,0,1,12.76,12.3Zm-1.09-.58q0,.17,0,.65a4.67,4.67,0,0,0,.46-1.1A9.31,9.31,0,0,0,12.35,9a6.22,6.22,0,0,0-.55-2.84A1.65,1.65,0,0,0,10.34,5,1.67,1.67,0,0,0,8.75,6.23a7.17,7.17,0,0,0-.57,2.88A6.77,6.77,0,0,0,8.68,12a2.47,2.47,0,0,0,.23.38,5.79,5.79,0,0,1-.07-.83,1.64,1.64,0,0,1,.41-1.15,1.37,1.37,0,0,1,1.06-.44Q11.67,9.92,11.67,11.72ZM10.39,13.2a2,2,0,0,0,.42-.07V12q0-1.16-.59-1.16a.68.68,0,0,0-.57.33,1.39,1.39,0,0,0-.23.81,1.29,1.29,0,0,0,.28.84A.86.86,0,0,0,10.39,13.2Z"/><path class="cls-2" d="M88.1,126.65a3.5,3.5,0,0,1,1.09-1.36v-.93q0-1.26-.57-1.26t-.55,1q0,.68-.43.68t-.44-.68a2.11,2.11,0,0,1,.39-1.34,1.27,1.27,0,0,1,1-.5,1.18,1.18,0,0,1,1.06.46A3.25,3.25,0,0,1,90,124.3v.59a3.36,3.36,0,0,1,.59-.07,2.36,2.36,0,0,1,1.25.39,2.93,2.93,0,0,1,1,1,7.08,7.08,0,0,1,.81,3.64,6.68,6.68,0,0,1-.89,3.61,2.63,2.63,0,0,1-2.29,1.41,2.51,2.51,0,0,1-2.24-1.38,7.41,7.41,0,0,1-.82-3.79A7.05,7.05,0,0,1,88.1,126.65Zm1.09.58q0-.17,0-.65a4.67,4.67,0,0,0-.46,1.1,9.31,9.31,0,0,0-.26,2.31,6.23,6.23,0,0,0,.55,2.84,1.65,1.65,0,0,0,1.47,1.07,1.67,1.67,0,0,0,1.58-1.18,7.17,7.17,0,0,0,.57-2.88,6.77,6.77,0,0,0-.49-2.86,2.48,2.48,0,0,0-.23-.38,5.79,5.79,0,0,1,.07.83,1.64,1.64,0,0,1-.41,1.15,1.37,1.37,0,0,1-1.06.44Q89.19,129,89.19,127.23Zm1.28-1.48a2,2,0,0,0-.42.07v1.1q0,1.16.59,1.16a.68.68,0,0,0,.57-.33,1.39,1.39,0,0,0,.23-.81,1.29,1.29,0,0,0-.28-.84A.86.86,0,0,0,90.47,125.75Z"/><path class="cls-2" d="M12.75,25.92a2.49,2.49,0,0,0,2.49-2.49c0-3.69-5-6.51-5-6.52s-5,2.84-5,6.52a2.49,2.49,0,0,0,4.77,1c-.77,3.58-3.4,4.15-3.4,4.15h7.22s-2.64-.58-3.4-4.15A2.49,2.49,0,0,0,12.75,25.92Z"/><path class="cls-2" d="M88.11,113a2.49,2.49,0,0,0-2.49,2.49c0,3.69,5,6.51,5,6.52s5-2.84,5-6.52a2.49,2.49,0,0,0-4.77-1c.77-3.58,3.4-4.15,3.4-4.15H87s2.63.57,3.4,4.15A2.49,2.49,0,0,0,88.11,113Z"/><path class="cls-3" d="M69.26,33.89c-1.16.74-1.44-1-1.71-1.58-2.64-5.64-6.22-12.07-8.42-17.64.28.06.35-.09.53-.13s.12.05.13.13C63.15,20.77,66.42,27.69,69.26,33.89Z"/><path class="cls-4" d="M58.6,22.43c-1-.15-2-1.35-3.55-1.18-1,.1-1.3.85-2.24,1.05C52.89,19,58.18,20.43,58.6,22.43Z"/><path class="cls-4" d="M54.91,33.89c-1.1-.81-3.83-.34-5.13,0V32.44a18.82,18.82,0,0,0,4.61-.26C54.85,32.45,54.62,33.43,54.91,33.89Z"/><path class="cls-4" d="M53.07,34c.51.52-1.46.87-1.45.13C51.93,34.37,52.92,34.38,53.07,34Z"/><path class="cls-4" d="M53.59,35.86c-.53.17-1.45-.37-2.11.13C51.53,35,53.32,35.25,53.59,35.86Z"/><path class="cls-3" d="M75.71,38.36c2.38-.8,2.36,3.24.53,3.29S74.16,38.88,75.71,38.36Zm.4,2.63c1,0,1.27-1.45.39-2.11A1.07,1.07,0,1,0,76.11,41Z"/><path class="cls-4" d="M76.5,38.89c.88.65.57,2.11-.39,2.11A1.07,1.07,0,1,1,76.5,38.89Zm-.92,1.32c.25.06.24.38.66.26C77.47,39.82,75.37,38.46,75.58,40.21Z"/><path class="cls-3" d="M76.24,40.47c-.42.11-.41-.21-.66-.26C75.37,38.46,77.47,39.82,76.24,40.47Z"/><path class="cls-3" d="M52.41,41.92h1.71A2.31,2.31,0,0,1,52.41,41.92Z"/><path class="cls-3" d="M46,51.66a10.11,10.11,0,0,1-4.08-1.05,27.36,27.36,0,0,1-7-4.34,7.54,7.54,0,0,1-2.5-2.9c.36.1.26-.26.53-.26.11,0,.13.13.26.13a28.91,28.91,0,0,0,9.48,6.45C43.79,50.19,45.37,50.42,46,51.66Z"/><path class="cls-3" d="M62.28,51v1.05c-.54-.1-.68.2-1.19.13-.11-.46.2-.51.13-.92C61.65,51.24,61.81,51,62.28,51Z"/><path class="cls-3" d="M53.33,51.53H56.1A5.88,5.88,0,0,1,53.33,51.53Z"/><path class="cls-3" d="M29.5,55a2.47,2.47,0,0,1-1.05-.13C27.27,52.56,31.09,53,29.5,55Z"/><path class="cls-3" d="M62.15,53.37a43.12,43.12,0,0,1,.26,7c-2.54,1.94-4.09,4.86-5,8.43-.92-.09-.5-1-.39-1.58.88-4.3,2.69-9.32,3.69-13.56A5.2,5.2,0,0,0,62.15,53.37Z"/><path class="cls-3" d="M46.49,53.77c.83,3.25,1.7,6.46,2.37,9.87a12.89,12.89,0,0,0-6.32-1.45,6.78,6.78,0,0,0-1.19-1.84c-.16-.22-1.44-1.36-1.45-1.58,0-.66,2.1-2.12,2.9-2.77A9.16,9.16,0,0,1,46.49,53.77Z"/><path class="cls-3" d="M52.41,56.93c.3.27,0,1.09.13,1.58C52.24,58.24,52.49,57.41,52.41,56.93Z"/><path class="cls-3" d="M52.54,63c.3.44,0,1.45.13,2.11C52.37,64.65,52.63,63.64,52.54,63Z"/><path class="cls-3" d="M24.5,65.35a1.68,1.68,0,0,1,.13,1.58,1.5,1.5,0,0,1-1.19,0C23.13,66.15,23.28,65,24.5,65.35Z"/><path class="cls-3" d="M36.75,66.27a3.44,3.44,0,0,1-.4,3.82C36.14,69.35,36.6,67.48,36.75,66.27Z"/><path class="cls-3" d="M64.92,68.25a10.27,10.27,0,0,1-.39,3.69A3.4,3.4,0,0,1,64.92,68.25Z"/><path class="cls-3" d="M44.51,69.69c-1.1,5.13-2.57,9.9-3.82,14.88-.6.06-1.08.24-1.71.26.07-2.92-.18-3.94-.13-6.85a14.56,14.56,0,0,0,5-8.43C44.23,69.45,44.19,69.75,44.51,69.69Z"/><path class="cls-3" d="M76.5,72.59c-.38-1.32,1-1.88,1.58-1.05C78.5,72.9,77.09,73.4,76.5,72.59Z"/><path class="cls-3" d="M48.59,73.51c.3.14.05.83.13,1.19-.17,0-.12-.23-.26-.26V74.3C48.75,74.29,48.52,73.74,48.59,73.51Z"/><path class="cls-3" d="M52.41,74.57A12,12,0,0,0,58.73,76a24,24,0,0,0,2.63,3.69c-2,1.77-3.62,3.93-6.58,4.74C54.06,81.08,53.18,77.88,52.41,74.57Z"/><path class="cls-3" d="M71.89,85.1c-.66-.53-.52-2.16.79-1.84C73.37,83.72,73.24,85.5,71.89,85.1Z"/><path class="cls-3" d="M40.3,86c0,.47-.24.64-.26,1.05-.42-.06-.47.24-.92.13v-.92A5,5,0,0,1,40.3,86Z"/><path class="cls-3" d="M55.31,86.41c5,.93,9.38,4,12.64,7,.4.37,1.17.95.92,1.58-1.31-.06-2.09-1.35-3-2.11a37.44,37.44,0,0,0-10.4-5.66C55.53,86.8,55.3,86.72,55.31,86.41Z"/><path class="cls-3" d="M46.62,95.36a2,2,0,0,1,1.58,0Z"/><path class="cls-3" d="M46.62,95.76a2,2,0,0,1,1.58,0Z"/><path class="cls-3" d="M24.63,96.81c2.48-1,2.7,3.94,0,3.16C23.4,99.61,23.51,97.26,24.63,96.81Zm.13,2.5a2.85,2.85,0,0,0,1.18-.13C27.37,96.68,22.92,97.19,24.76,99.31Z"/><path class="cls-4" d="M25.95,99.18a2.85,2.85,0,0,1-1.18.13C22.92,97.19,27.37,96.68,25.95,99.18Zm-1.18-.53c.23.12.34.37.79.26a1,1,0,0,0-.13-1.18C24.83,97.67,24.76,98.13,24.76,98.66Z"/><path class="cls-3" d="M25.42,97.73a1,1,0,0,1,.13,1.18c-.46.1-.56-.15-.79-.26C24.76,98.13,24.83,97.67,25.42,97.73Z"/><path class="cls-3" d="M46.75,98c.57.08,1.49-.17,1.84.13C48,98,47.1,98.3,46.75,98Z"/><path class="cls-4" d="M47.8,102.21a2.4,2.4,0,0,0,2.11,0C49.9,103.14,47.82,103.12,47.8,102.21Z"/><path class="cls-4" d="M49.78,103.92c-.17.23-1.28-.28-1.45.26C47.91,103.61,49.49,103.49,49.78,103.92Z"/><path class="cls-3" d="M42.27,123.67c-1.31.26-1.5-1.23-1.84-2-2.63-5.62-6-11.66-8.29-17.38.17-.13.49-.13.66-.26C36,110.46,39.48,117.29,42.27,123.67Z"/><path class="cls-4" d="M51.36,104.32c.36.15.35,1.14.13,1.45a27.49,27.49,0,0,0-4.87.26c0-.54.13-1.27-.26-1.45C47.41,104.76,50.16,104.9,51.36,104.32Z"/><path class="cls-4" d="M42.8,115.64c1.36,1.4,4.27,1.73,5.79.26C48.54,119.17,43,117.92,42.8,115.64Z"/><path class="cls-3" d="M28.06,123.54H38.59A84.6,84.6,0,0,1,28.06,123.54Z"/><path class="cls-4" d="M20.29,13.48h61V124.85H20.16v-111C20.15,13.69,20.13,13.5,20.29,13.48Zm1.05,1.45V52.05c4.43-5,10.68-9.24,17.24-12.51.63-6.5,2-10.67,5-14.74.82-1.1,2.76-2.46,3-3.55.55-2.28-.41-4.3,0-6.71H21.47C21.32,14.56,21.33,14.74,21.34,14.93ZM47,15.59c.54-.12,1.24-.63,1.05-1.05h-.92C46.94,14.73,47,15.21,47,15.59Zm0,1.32c1-.46,2.18-1.4,2.24-2.37C48.29,15.11,47.2,15.56,47,16.9ZM49,16c-.6.67-1.85.87-2,2a4.26,4.26,0,0,0,3.29-3.42C49.47,14.63,49.42,15.5,49,16Zm.39,1.19c-.71.66-2.21.62-2.37,1.84,2.45-.45,3.46-2.33,4.34-4.34-.17,0-.18-.17-.4-.13A11.29,11.29,0,0,1,49.38,17.17Zm10.27,6.19c-.4-1-.93-1.88-1.32-2.9-3-.95-4.68-3.3-6.06-5.92h-.4c-1,2.27-2.27,4.32-4.87,5v1.32c5.41-2.95,4.26,5.72,2.9,8.43a5.53,5.53,0,0,0,1.45,1.05c0-.45.39-.57.79-.66.66.21.86.89,1.84.79.5-.2.06-1.13.26-1.32.5.12.56,1.45.13,1.71-.94.47-1.63-.36-2.5-.39-.3.14.06.94-.26,1.05-.74-.73-1.94-1-2.11-2s.89-2,.66-3.29c-.12-.36-.62.67-.79.26.24-.46.78-.63.79-1.32a8,8,0,0,1-3-.13c0,5.15,1.39,11.89,4.48,13.3a4,4,0,0,0,1.71.13c3.25-.4,5.5-3.63,7.24-5.79C58.77,30.8,58.32,26.17,59.65,23.36Zm-4.21-5.92c-.94-.94-1.53-2.36-2.63-2.76,1.16,2.3,2.65,4.28,5.13,5.27C57.76,18.62,56.27,18.26,55.44,17.43Zm1.84.92a9.43,9.43,0,0,0-3.42-3.82C54.3,16,55.95,17.36,57.28,18.35ZM56.23,16c-.42-.45-.3-1.45-1.18-1.45C54.9,15,55.9,16,56.23,16Zm3.55-1.32c0-.08,0-.16-.13-.13s-.25.19-.53.13c2.21,5.57,5.78,12,8.42,17.64.27.58.55,2.32,1.71,1.58C66.42,27.69,63.15,20.77,59.78,14.67Zm14.61-.13C72.19,20.46,74,29.23,75.58,34a9.63,9.63,0,0,0-6.45,1.32c1.47,3.31,3.16,6.41,4.61,9.74a13.53,13.53,0,0,0-2.5,1.84c.3.18.31.66.66.79.07-.19-.15-.68.13-.66,1.91.21,2.85,2.06,3.95,2.63a43.63,43.63,0,0,1-.13-5c-.49-.52-1.18-.84-1.32-1.71H73.21c.18-.26.13-.75.26-1.05A2.29,2.29,0,0,1,72.16,39c.29-.76,1.06-.65,1.32-1.32.12-.44-.47-.83-.13-1.05h1.18a1.73,1.73,0,0,1,3.42.26c.49.09.57-.22,1.05-.13-.25.19,0,.86-.26,1.05.56.1.82.5,1.32.66-.09-7.94.18-16.24-.13-24Zm-9.61,8a6.49,6.49,0,0,1-.53-3.42c-1.74-.76-2.64-2.36-3-4.48h-.4A65.33,65.33,0,0,0,64.78,22.57Zm.26.79c.66,1.62,1.5,3.06,2.24,4.61a13.15,13.15,0,0,1,.13-2.9A4.73,4.73,0,0,1,65,23.36Zm-3.29-8.69a5,5,0,0,0,2.9,4.21c-.18,3.21.88,5.18,3.16,5.92.08.23-.16.77.13.79-.11-.46.2-.51.13-.92-2.14-.73-3.54-2.84-3-5.79A8.2,8.2,0,0,1,61.76,14.67Zm5.92,11.19c-.12,2.58.49,4.42,2.5,4.87A5.73,5.73,0,0,1,67.68,25.86ZM63.73,15.72c0,.83-.19,1.31.39,1.71.1-2.27,2-1.19,3.42-1.18,1.39.58,1.13,2.5,0,3.16a1.29,1.29,0,0,1-1.84,1.45,13.3,13.3,0,0,1,1.45,2.5c.07-.66.35-1.44,1.05-1.58s.94.35,1.58.53.92-.2,1.32.13c.58.48.3,1,.39,1.84-1,.53-.75,2.24-1.84,2.63a1.63,1.63,0,0,1-1.18-.26,10.71,10.71,0,0,1,.92,2.5,1.35,1.35,0,0,1,1.19-1.45c.61.44,1.66.44,2.37.79a38.28,38.28,0,0,1,.26-13.82H62.81C62.78,15.36,63.46,15.33,63.73,15.72Zm1.71,2.37c-.05.54.13.83.66.79.27-.31.13-1-.26-1.05C65.8,18,65.55,18,65.44,18.09ZM47.28,22.43c.91-.09,2.35-.46,3.29.26C50.42,21.52,47.5,20.83,47.28,22.43Zm.26.66a4.08,4.08,0,0,1,3,.4C50.26,22.34,48.19,22.13,47.54,23.09ZM69.13,24.8c.18-.17.13-.57.13-.92C68.22,23.53,68.26,25,69.13,24.8Zm-20,.26c.2-.28.57-.39.53-.92-.46.07-.45.61-1.19.39-.12-.28,0-.79-.53-.66C48,24.58,48.26,25.13,49.12,25.07Zm15.66,9.35c0-.46-.38-.59-.39-1.05-3.22-.6-4.83-3.19-4.48-7,.07-.8.56-1.51.13-2.24,0-.1-.11-.15-.26-.13C58.3,28.82,60,34.16,64.78,34.41Zm-15-9.61c.52.16.71-.46.26-.53C50,24.47,49.85,24.61,49.78,24.8ZM64,32.7c-.09-1.14-1.33-1.07-2-1.71-1.3-1.28-1.12-3.21-1.32-5.4,0-.15-.15-.2-.26-.26C59.79,28.8,60.69,32.38,64,32.7Zm-.66-1.45a28.38,28.38,0,0,0-2.24-4.48C61.15,29,61.69,30.66,63.34,31.25ZM43.46,37.31c.73-1.41,1-2.92,1.58-4.34s1.4-2.62,2-3.95c0-.15-.15-.21-.26-.26A22.84,22.84,0,0,0,43.46,37.31Zm27.38-7.64c-.4,0-.41,1.08.13.92A.47.47,0,0,0,70.84,29.67ZM44.12,37c1.2-.45,1.27-2.07,1.71-3.16a19.65,19.65,0,0,0,1.45-3.55c-.22,0-.07-.37-.26-.39A21,21,0,0,0,44.12,37Zm28.43-6.19c.23,1.41-.85,1.52-1.58,2,.48.86,2-.32,3.16,0a5.86,5.86,0,0,0-.92-2.63C73.22,30.65,72.82,30.69,72.55,30.86Zm-2.9,1.84V31c-.56,0-.67-.38-1.05-.53A13.56,13.56,0,0,0,69.66,32.7ZM45.56,36.65c.87-1.41,1.36-3.21,2.11-4.74-.32.05.07-.6-.4-.4C46.75,33.11,45.19,35,45.56,36.65Zm24.62-4.74c0,.54-.13,1.27.26,1.45C70.41,32.82,70.57,32.09,70.18,31.91ZM46.35,36.26c.78-.65,1.63-2.54,1.32-3.42A21.66,21.66,0,0,0,46.35,36.26ZM60.83,33C59.07,35,55.77,40,51.62,38.76c-1.44-.45-1.69-2-2.9-2.9a12.44,12.44,0,0,0-3.29,1.32c4.22,3.23,13.84,2.61,18.3,0a10,10,0,0,1,.53-2.37A6.17,6.17,0,0,1,60.83,33Zm-13.3,2.9c.21-.54.75-1.44.53-2C47.93,34.44,47,35.5,47.54,35.86Zm.53-.26c.37.11.34-.19.66-.13a.75.75,0,0,0-.4-.79A2.16,2.16,0,0,1,48.07,35.6ZM70.18,45.87c-.77-1.34-2.21-1.09-3.29-2-2.41-2-2.48-5.53-1.84-9.08h-.39C62.71,40,65.25,45.44,70.18,45.87ZM75.05,38a2.2,2.2,0,0,1,2.11,0C78.6,35.31,74,35.08,75.05,38Zm-5.4,6.58a2.61,2.61,0,0,1-.4-.92c-2.8-.69-4.34-3.67-3.42-7.24-.27,0-.12-.49-.39-.53C64.09,40,66.15,44.42,69.66,44.55ZM44.91,37.31c-.13,0-.16.11-.26.13s-.08.15,0,.26c3.6,2.65,10.58,2.91,15.27,1.58,1.37-.39,2.92-.64,3.55-1.58C58.63,40.34,49.25,40.69,44.91,37.31Zm24,5.53c-1-1.72-1.7-3.83-2.76-5.53C65.49,40.07,66.87,42.68,68.87,42.84ZM63.6,39.15c-2.67.74-5.89,2-9.35,2A21,21,0,0,1,43.33,38h-.26C47,42.13,58.48,42.72,63.6,39.15Zm12.64,2.5c1.83-.06,1.85-4.09-.53-3.29C74.16,38.88,74.56,41.71,76.24,41.65Zm-23.83.26a15.16,15.16,0,0,1-5.66-1.32C45,39.93,43.66,38.82,42,38.49c3.31,4.21,13.84,4.85,20,2.63.53-.19,1.61-.32,1.58-1.05a27.88,27.88,0,0,1-9.48,1.84Zm22-.79a3.92,3.92,0,0,1,.13-2.5C71.86,37.43,72.2,42.47,74.39,41.13Zm3.42-2.37c.44.45.26,1.72.13,2.37.43,0,.5.38,1.05.26C80.73,40.68,79.55,37.31,77.82,38.76ZM60.18,42.18c-6.87,1.88-15.24,0-19-3.42,0,.08,0,.16-.13.13s-.16.11-.26.13c4.15,4.08,14,5.56,20.93,3.42.76-.24,2.32-.23,2.24-1.32C62.7,41,61.5,41.82,60.18,42.18ZM40.3,39.42c-.32.77-.87,1.32-1.18,2.11a6.41,6.41,0,0,0,2.24,1.58c.22-.88.79-1.41,1.05-2.24A12.31,12.31,0,0,0,40.3,39.42ZM35,41.92c.45,1,1.39,1.42,2.11,2.11a13.61,13.61,0,0,0,1.32-2.24c-.47-.26-.9-1.16-1.58-.79-.22.36.79.61.79,1.19-.28.29-.41.73-.79.92-.35-.31-.79-.52-.92-1.05.1-.3.81-.67.53-.92A4.2,4.2,0,0,1,35,41.92Zm43.84,0c-.08.4.17,1.13-.13,1.32a4.9,4.9,0,0,1-.92-.26c-.94,1-.7,2.35-.66,4.21.95-.9,1.38-3,2.5-3.29a11.53,11.53,0,0,1-1.45,7.9c.66.14.57,1.41.4,2,1,.08.55,1.55,1.45,1.71-.09-4.74.18-9.83-.13-14.35A1.64,1.64,0,0,1,78.87,41.92Zm-3.82-.13c-.71,3,3.12,2.56,2.11,0A1.79,1.79,0,0,1,75.05,41.79Zm-30.94,2.9c.89.3,1.59.78,2.5,1.05.16-1,.58-1.7.79-2.63-.76-.33-1.52-.67-2.24-1.05C44.85,43,44.37,43.71,44.12,44.68Zm12,6.85c4.65-.12,8.25-1.67,11.58-3.16,1-.46,2.46-.78,2.76-2-1.57.08-2.8,1.21-4.21,1.84a28.07,28.07,0,0,1-4.74,1.58,28.8,28.8,0,0,1-24.35-5.13c-1.08-.86-2.15-2.76-3.55-2a16.29,16.29,0,0,0,5.13,4.34,28,28,0,0,0,14.61,4.48A5.88,5.88,0,0,0,56.1,51.53Zm6.71-8.82a7.64,7.64,0,0,1-2,.66,20.42,20.42,0,0,0,.4,2.9c1-.16,1.7-.58,2.63-.79A10.38,10.38,0,0,0,62.81,42.71Zm-20.14,7a28.91,28.91,0,0,1-9.48-6.45c-.13,0-.16-.11-.26-.13-.26,0-.17.36-.53.26a7.54,7.54,0,0,0,2.5,2.9,27.36,27.36,0,0,0,7,4.34A10.11,10.11,0,0,0,46,51.66C45.37,50.42,43.79,50.19,42.67,49.68ZM40.3,46a15.19,15.19,0,0,0,2.5,1.45c.27-.91.69-1.68.92-2.63-.85-.33-1.54-.83-2.37-1.18C41,44.42,40.61,45.17,40.3,46Zm-8.43-2.24a2.5,2.5,0,0,1-.92.53c3.6,4.56,8.89,7.43,15.4,9.08.09-.49-.23-.57-.13-1.05A27.28,27.28,0,0,1,31.87,43.76Zm18.43,0c-.35.79-.35,1.94-.66,2.77a18.59,18.59,0,0,0,2.76.53c.24-.82.1-2,.26-2.9C51.9,44,51,44,50.3,43.76Zm5.27.39v2.9a25.36,25.36,0,0,0,2.63-.13C58.1,46,58,45,57.94,44A13.62,13.62,0,0,0,55.57,44.16Zm21.06.4c-.65.33-.28,1.42-.26,2.24a54.34,54.34,0,0,0,.26,5.92C77.17,50.48,76.43,47.31,76.63,44.55Zm-10.4.13c-.57.44-1.54.48-2,1.05.42.72.42,1.86.92,2.5a11,11,0,0,1,2.24-1.18A6,6,0,0,0,66.23,44.68Zm12.9.26c-.61,1.32-1.92,2.64-1.71,4.34.57-.83.78-2,1.58-2.63.09,1.63-1.45,3.46-1.45,5A8.61,8.61,0,0,0,79.13,44.95ZM46.75,46.26c-.05,1-.5,1.52-.53,2.5a13.19,13.19,0,0,0,2.63.66c.13-.88.36-1.66.53-2.5A13.23,13.23,0,0,0,46.75,46.26Zm11.85.92a15.27,15.27,0,0,0,.26,2.63c.93-.12,1.64-.47,2.63-.53-.23-.86-.15-2-.79-2.5C60.05,47,59.25,47,58.6,47.18Zm-5.92.4a10,10,0,0,1-.13,2.5h2.9a15.19,15.19,0,0,1-.13-2.63A10.36,10.36,0,0,0,52.67,47.58ZM76,52.45c-1-1-2.71-1.94-2.63-3.55.87.75,1.39,1.85,2.5,2.37a4.84,4.84,0,0,0-3.42-3.42C73.08,49.9,73.83,51.87,76,52.45Zm-42-2.5a1.41,1.41,0,0,0-.39-1.19,1.9,1.9,0,0,0-1.71.13c-.09,1.44-.72,3.92,1.19,3.95.51-.23.67-.82.92-1.32a3.21,3.21,0,0,1,1.32,0,7.15,7.15,0,0,0,.26-1.32C34.74,50,34.68,50.37,34,49.95Zm37.39-1.19a28.47,28.47,0,0,0-5.53,13.69c-.8,6-.27,11.32-2.9,15.8-1.79,3.05-4.55,4.6-7.24,6.45,1.59,0,3.09-1.12,4.21-2.11,3.57-3.13,5.5-7.75,5.92-13.82.3-4.21.56-8,1.71-11.45A21,21,0,0,1,71,50.87c.36-.48,1.2-1.21.79-2C71.59,48.89,71.58,48.73,71.37,48.76Zm-10,37.65a14.62,14.62,0,0,1-1.84-1.84,34.15,34.15,0,0,1,2.9-3c.44.62,1.49.91,1.45,1.58s-1.36.74-1.05,1.45c1-.06,1.64-1.6,2.37-2.37a7.9,7.9,0,0,1-1.84-2c.8-.91,1.2-2.23,2-3.16a8.63,8.63,0,0,1,1.45,1.18c-.09.44-1,1.36-.39,1.58.64-.33,1.1-2,1.58-2.9a22.29,22.29,0,0,1-2.37-1.58c.38-1.07.46-2.44,1.05-3.29.55.37,1.58.27,2,.79,0,.39-.59,1.24,0,1.32.59-.55.54-1.74.79-2.63a10.7,10.7,0,0,1-2.63-.92c.2-1.29.08-2.9.4-4.08a6.54,6.54,0,0,1,2,.26c.15.56-.31,1.71.26,1.84,1.07-.11.29-2.08.53-3a15.17,15.17,0,0,1-2.76-.4A29.08,29.08,0,0,1,67.55,61a7.4,7.4,0,0,1,2,.13c-.13.44-.51,2.14.53,1.84a8.65,8.65,0,0,0,.53-2.76,26.84,26.84,0,0,1-2.5-1.32,35.31,35.31,0,0,1,1.45-3.69c.64.28,1.32.52,1.58,1.18-.08.39-.85,1.33,0,1.45.5-.12.82-1.54,1.05-2.37-.45-.83-1.47-1.08-1.84-2,.72-1.3,1.86-2.18,2.37-3.69-1.22.27-1.73,1.63-2.37,2.63a24.7,24.7,0,0,0-1.84,3.29C67,59.11,66.74,62.8,66.36,67.06c-.77,8.76-3,14.8-9.35,17.9C58.43,85.39,60.18,86.19,61.36,86.41ZM27.66,52.58c-.55-.11-.62.26-1.05.26a1.56,1.56,0,0,0,1.18,2.63c-.75,2.65,3.12,2.18,2.37-.13,2.27,1,2.19-3.61-.13-2.5-.33.49.68.59.66,1.18-.74.44-.87,2-1.58,2s-1-1.58-1.71-2A14.71,14.71,0,0,1,29,52.19c.4.12.41.64.92.66A1.3,1.3,0,1,0,27.66,52.58Zm35.28,7.64a34.7,34.7,0,0,0,0-9.48h-.26C62.66,53.48,62.68,57.32,62.94,60.22Zm-1.71-9c.06.42-.24.46-.13.92.51.07.64-.23,1.19-.13V51C61.81,51,61.65,51.24,61.23,51.26Zm-19.35,2.5c0,.65-2.87,2.27-3,3-.39-.62-1.11-.91-1.32-1.71.21-.53,1.24-.81.92-1.45-.87.15-1.6,1.55-2.24,2.37.47.76,1.35,1.11,1.71,2-.72,1-1.12,2.3-2,3.16-.4-.43-1.1-.56-1.32-1.19,0-.51.93-1.29.26-1.58a8.33,8.33,0,0,0-1.45,2.9c.66.66,1.71.92,2.24,1.71a17,17,0,0,1-.92,3.16,6.91,6.91,0,0,1-2-.66c-.14-.59.63-1.42-.13-1.45A8.67,8.67,0,0,0,32,66.8a10.08,10.08,0,0,1,2.5.79,21.92,21.92,0,0,1-.4,4.08c-.62-.09-1.58.17-2-.13-.06-.72.23-1.08.13-1.84h-.66c-.25.8-.09,2-.26,2.9.82.24,2,.13,2.76.39a19.74,19.74,0,0,1-.39,4.34c-.4-.3-1.47.06-1.84-.26-.15-.56.31-1.71-.26-1.84h-.39a10.42,10.42,0,0,0-.4,2.9,9.05,9.05,0,0,1,2.5,1.32c-.67,1.09-.82,2.69-1.58,3.69-.43-.49-1.24-.6-1.58-1.19.33-.53.9-1.59-.13-1.71-.23,1-.65,1.72-.92,2.63a11.21,11.21,0,0,1,2,1.84c-.75,1.27-1.85,2.19-2.37,3.69,1.23-.25,1.74-1.64,2.37-2.63A29,29,0,0,0,35,71.67c.43-9.29,3.07-15.29,9.35-18.43-1.75-.48-3.69-1.49-5.13-1.84C39.51,52,41.9,53,41.88,53.77ZM37.8,51.4C32.75,55.89,30,63.28,29.5,72.59c-.25,4.46-.35,8.26-2.37,10.79-.56.7-1.73,1.18-1.58,1.84,1,.73,1.3-1,2.24-1.19.37.51,1,.74,1.32,1.32-.31.39-1,1-.66,1.58a9.94,9.94,0,0,0,1.71-2.24c-.61-.62-1.48-1-1.84-1.84a23.42,23.42,0,0,1,1.45-3.55c.59.38,1.4.53,1.84,1.05,0,.48-1,1.43-.13,1.58a13.77,13.77,0,0,0,.92-2.37,9,9,0,0,1-2.5-1.32c.43-1.11.28-2.8.79-3.82.57.18,1.48,0,2,.26.15.56-.31,1.71.26,1.84.66-.48.21-2.07.53-2.9-.79-.31-2.09-.1-2.76-.53-.1-1.55.21-2.69.13-4.21a4.4,4.4,0,0,1,2.11.26c.18.57-.41,1.9.4,1.84.59-.55.32-2,.39-3a7.55,7.55,0,0,1-2.63-.92c.37-1.3.6-2.74,1.05-3.95a5.32,5.32,0,0,1,1.71.66c0,.39-.58,1.24,0,1.32.88.4.8-1.31,1.05-2a9.36,9.36,0,0,1-2.37-1.71,34.48,34.48,0,0,1,2.11-4.34c.49.44,1,.84,1.45,1.32-.13.59-.9,1.28-.39,1.71A6.3,6.3,0,0,0,37,58c-.54-.74-1.31-1.24-1.84-2,.57-.22,2.51-3.72,3.16-3.69.45,0,.74,1.16,1.18,1.58-.07.75-1.51,1-.79,1.71.72-.13,1.42-1.37,2.11-2C39.67,53,39.17,51.78,37.8,51.4Zm33.44,2.24a6.4,6.4,0,0,1,1.84,1.71c-.55,1.12-.81,2.53-1.45,3.55A7.2,7.2,0,0,1,69.79,58c0-.58.63-1.15.26-1.71-.68.47-.72,1.56-1.05,2.37A12.35,12.35,0,0,1,71.37,60a26.77,26.77,0,0,1-.66,3.82,4.6,4.6,0,0,1-2-.26c-.17-.53.39-1.8-.39-1.71-.5.6-.31,1.89-.39,2.9a13.37,13.37,0,0,1,2.76.4c-.22,1.36.13,3.29-.4,4.34-.5-.25-1.52,0-2-.26a6.69,6.69,0,0,0,.13-1.84h-.79c.1,1.11-.18,1.84-.13,2.9.86.41,2.15.4,2.76,1.05-.47,1.2-.67,2.66-1.05,3.95a12.4,12.4,0,0,1-1.84-.79,2.7,2.7,0,0,0,.26-1.32c-.37.11-.34-.19-.66-.13a20.83,20.83,0,0,0-.66,2.11c.84.61,1.92,1,2.5,1.84a41.56,41.56,0,0,1-2.24,4.21c-.49-.44-1-.84-1.45-1.32.22-.44.76-1.11.53-1.58-.7-.1-.81,1.46-1.45,1.84.39,1,1.46,1.26,1.84,2.24-1,1.19-2,2.41-3,3.55a6.11,6.11,0,0,1-1.32-1.58c.2-.58,1.33-.82.92-1.58-.91-.05-1.58,1.21-2.11,2a27.09,27.09,0,0,1,2.5,2.5C68.7,82.62,71.33,74.85,71.89,65c.31-5.51.75-9.2,4.08-12-1.31-.53-1.42.95-2.37,1.18-.4-.48-1.12-.64-1.32-1.32a4.19,4.19,0,0,0,.79-1.32c-.17,0-.18-.17-.4-.13A13.5,13.5,0,0,0,71.24,53.63ZM49.78,55.35c-.1-.8.22-1.19.26-1.84-.57-.27-1-1.27-.26-1.71-.37.11-.34-.19-.66-.13A24.61,24.61,0,0,0,49.78,55.35Zm6.45-3.16c0,2,1.25,4.43-1.32,4.48a4.08,4.08,0,0,0,.66,3.82c.48-1.22-.61-1.78-.4-2.76.17-.78.93-.52,1.45-1.18.73-.94.13-1.71.26-3.29a1.71,1.71,0,0,0,.53-1.32A5,5,0,0,0,56.23,52.19Zm17,.79c.58.55.94-.27,1.32-.66C74,51.54,73.31,52.24,73.21,53Zm-23.56-.4c0,.55.59.46.79.79a5.53,5.53,0,0,0-.4,3.16,3,3,0,0,0,1.19.26c1.41.84-.86,2.87.26,3.69.54-1.56.93-4.08-.79-4.21-.65-1.57.85-3,.13-4.21C50.24,52,49.62,52,49.65,52.58Zm1.71,3.82c.19-.11.42-.2.4-.53.08-.52-.54-.34-.66-.66a4,4,0,0,0,.4-3.16h-.4C51.75,53.39,49.91,55.54,51.36,56.4Zm3.29.39c.29-.66.18-1.41.66-2.11-.72-.53-.25-2.1-.66-2.63A17.27,17.27,0,0,0,54.65,56.79ZM55.7,55c-.45.21-1,1-.39,1.45,2.12-.34.19-2.89.79-4.34h-.92A3.35,3.35,0,0,0,55.7,55Zm21.46-2a.93.93,0,0,1,.39.26,1,1,0,0,0,.92-1.18A1.67,1.67,0,0,0,77.16,53Zm-16.32-.26a.74.74,0,0,1-.13.53c.66.09.92-.22,1.58-.13v-.66A3.07,3.07,0,0,0,60.83,52.71ZM52.67,65.09v1.45a13,13,0,0,0,1.58.53c-.08-.4.17-1.13-.13-1.32,0,.45-.28.68-.79.66A.75.75,0,0,1,53.59,65c.41,0,.4.47.66.66V53c-.27.08-.87-.16-.92.13.59-.06.66.39.66.92a1,1,0,0,1-1.05.39c0-.19-.22-.22-.26-.39-.39-.73.86-1,.26-1.05-1.21-.51-.1,3.58-.53,3.95.08.49-.17,1.31.13,1.58V63C52.63,63.64,52.37,64.65,52.67,65.09ZM76.76,53c-1.78,1.17-5.83,6.39-3.16,9,1.08,1,3.7.76,4.74-.39-1.55-.72-1.06-2.68-2-3.95-.26.62-.48,2-1.05,1.84a9.15,9.15,0,0,0,.79-3.69c.92-.75,2.2-1.14,2.37-2.63-.44,0-.45.43-.92.4C77.28,53.34,77.17,53,76.76,53Zm-16.06.66c-1,4.23-2.81,9.26-3.69,13.56-.11.54-.53,1.49.39,1.58.91-3.56,2.47-6.49,5-8.43a43.12,43.12,0,0,0-.26-7A5.2,5.2,0,0,1,60.7,53.63Zm-16.19.13c-5.74,2.87-8.57,8.34-9.08,16.46-.46,7.16-1.84,13.08-5,17.25-.36.47-1.34,1.12-.79,2,1.23-.76,1.92-2.24,2.63-3.55,2.37-4.41,3.19-9.73,3.55-16.06.47-8.18,4.2-13.31,9.74-16.32A1.21,1.21,0,0,0,44.51,53.77ZM42.8,56c-.79.64-2.92,2.11-2.9,2.77,0,.22,1.28,1.36,1.45,1.58a6.78,6.78,0,0,1,1.19,1.84,12.89,12.89,0,0,1,6.32,1.45c-.67-3.41-1.54-6.62-2.37-9.87A9.16,9.16,0,0,0,42.8,56Zm9.08-.66c-.08-.4.17-1.13-.13-1.32C51.91,54.62,51.06,55.26,51.88,55.35Zm24.62.92c.4-.78,1.06.36,1.45.26a2.28,2.28,0,0,0,1.19-2.24C78.12,53.89,77,55.32,76.5,56.27Zm-51.74-.92c-1.55.19-2.79-2.48-3.42-.13,0,.57.73.32.66.92-1.72,3.65,1,6.68,3.95,4.74.16,1.25,1.39,1.41,2.11,2.11.14.71-.31.83-.39,1.32,1.5.36,2-.82,1.58-2,1.12-.67,1.29-3.31-.13-3.29-1.12,0-.94,1.44-.66,2.11-1.65.19-1.34-1.69-1.05-2.77-.42,0-.44-.35-.92-.26-.59.88-1.56,2.6-3.16,2-1.21-.47-.82-4.16.66-2.9-.59-.07-.56.49-.53,1.05C25.16,59.36,26.17,56.26,24.76,55.35Zm52.79,1.71c.13.48.71.52.66,1.18a2.39,2.39,0,0,0,1.45-2.76c-.17,0-.18-.17-.39-.13A4.68,4.68,0,0,1,77.55,57.06Zm-1.32.26a1.18,1.18,0,0,0,1.32-.66V56.4A1,1,0,0,0,76.24,57.32Zm3.29.13c.25,0,.29.15.53.13-.08-.27.21-.91-.26-.79C79.81,57.12,79.58,57.2,79.53,57.45Zm-28,0c-.2-.59-1.32-.76-1.32.13,0,.48.46.5.66.79-.52,1-.62,3.15.53,3.55.52-.08.63-.71.4-1.18-.14-.31-.61.28-.79-.13C50.62,59.46,51.49,58.67,51.49,57.45Zm3.95.13c-.19,1.18,1.18,2.37.13,3.16-.4,0-.51-.42-.79-.13a.79.79,0,0,0,.66,1.18c1.22,0,1-2.55.53-3.55.47.07.58-.21.79-.4C56.92,56.57,55.75,57,55.44,57.58ZM77,58.77c.43.08.61-.09.92-.13C78.31,56.79,75.9,57.54,77,58.77Zm1.32-.26c.08.44.38.68.26,1.32a2,2,0,0,0,1.05-2.11C78.9,57.66,79,58.46,78.34,58.5Zm-28,.66c.27-.31.14-1-.26-1.05C50.23,58.36,50,59,50.3,59.16ZM56.49,59a.85.85,0,0,0,.13-.66h-.39A.65.65,0,0,0,56.49,59Zm23.56.39c-.08-.27.16-.87-.13-.92C79.7,58.8,79.48,59.37,80.05,59.43ZM54.65,60.61c.44-.35.18-1.47-.13-1.84C54.6,59.34,54.34,60.26,54.65,60.61ZM77.29,60a1,1,0,0,0,1.18,0,3.31,3.31,0,0,0-.26-1.05C77.41,58.76,77.24,59.24,77.29,60Zm1.84,1.19c.3-.44.81-.68.66-1.58A.88.88,0,0,0,79.13,61.14Zm-1.45-.66c0,.6.3.84.92.79C79.07,60.63,78.26,60,77.69,60.48Zm-40,3a2.66,2.66,0,0,0,1.71-2C38.48,60.09,37.2,62.38,37.67,63.51Zm17-1.05c.43-.36.41-.67-.13-.92C54.59,61.81,54.35,62.4,54.65,62.45Zm1.45,0c-.14-.34.4-.63,0-.79C55.86,61.89,55.73,62.26,56.1,62.45Zm-5.13.4c.09.4.6.37.79.66-.3.48-.87,1.28-.53,2,.82-.48.89-2.42.53-3.29C51.21,62.14,50.92,62.33,51,62.85Zm4.21,2.63a.88.88,0,0,0-.53,1.05,1.12,1.12,0,0,0,.79.13c.61-1-.15-2-.13-3.16a.94.94,0,0,0,.39-1.32C53.95,62.13,54.81,64.68,55.17,65.48Zm9.35-.39c1.18-.36.54-1.89.13-2.77C62.83,62.51,64.13,64.23,64.52,65.09ZM38.06,64c.58-.1.42.55.79.66.55-.54,1.57-.63,1.58-1.71C39.62,62.09,38.42,63.26,38.06,64Zm-15.27.79c-2.12-.47-1.86,3.3,0,2.9-.51,3,3.13,1.93,2.37-.13,2.28,1,2.23-3.68-.13-2.5,0,.57.66.48.66,1.05-.62.6-.87,1.59-1.71,2-.37-.81-1.22-1.15-1.58-2,.56-.58.9-1.38,1.58-1.84.35,0,.79,1.13.92.53C26.22,62.47,21.79,62.08,22.79,64.82Zm20.27-2.11c-.1,0-.15.11-.13.26s.11.16.13.26c4.26.23,6.42,2.1,9.08,3.82,1.61,1,3.16,2.68,5.4,2.37C51.89,68,49.86,63,43.06,62.72Zm30,.13c-.67,1.35.41,2.93,1.45,3.42.56-.14.5-.91.92-1.18a2.79,2.79,0,0,1,.4,2.63H77c.1-1.22,0-2.68.92-3a2.19,2.19,0,0,0,1.71,2.5c.94-2.36-1.23-5.57-3.16-3C75.88,62.92,73.47,64.17,73.08,62.85Zm-22,1.45a2.94,2.94,0,0,0,.26-.79c-.18,0-.25-.19-.53-.13A1.74,1.74,0,0,0,51.09,64.3Zm4.74.39c-.12-.43.51-1.21-.13-1.32C55.31,63.63,55.59,64.33,55.83,64.69Zm8,1.45c0-.39,0-.74.53-.66a8.18,8.18,0,0,0-1.05-2C61.4,63.77,63.15,65.76,63.86,66.14Zm-25-.92c.23.12.29.41.26.79a3.75,3.75,0,0,0,2.11-.66v-.79C40.45,63.91,39.19,64.61,38.85,65.22Zm15.67.53c.45-.32.2-1.16-.13-1.45C54.47,64.74,54.21,65.52,54.52,65.75ZM52.15,66c-.08-.49.17-1.31-.13-1.58C52,65,51.35,65.83,52.15,66ZM37.67,68c0,1.56-1,2.56-1.45,3.82,1.77-.66,2.81-5.32.92-7.11C36.92,65.82,37.69,66.77,37.67,68ZM61.1,66c.07.78,1.11.92,1.84,1.32-.05-.58.3-.75.53-1.05C63.12,65,61,64.35,61.1,66Zm-17-.92c.25.49-.08.33-.39.53a2.44,2.44,0,0,1,.13,1.05c.54.12.71.61,1.19.79a.92.92,0,0,1,.26-.39c.62.34.85,1.08,1.58,1.32.27,0,.12-.49.39-.53.53.52.73,1.38,1.58,1.58,0-.16,0-.37.13-.4.55.4,1,1.79,1.71,1.19A2.67,2.67,0,0,0,52,71.54c0-.16,0-.37.13-.4.62.34.85,1.08,1.58,1.32.22,0,.07-.37.26-.39.65.23.87.89,1.71.92,0-.15,0-.37.13-.39a2.47,2.47,0,0,0,1.32.66,1.54,1.54,0,0,0-.66-2.37c-.42-.12-.27.34-.53.39-.44-.48-.69-1.15-1.45-1.32-.3,0-.15.38-.4.39-.61-.36-.72-1.21-1.45-1.45-.22,0-.07.37-.26.4-.56-.39-.92-1.84-1.71-1.19a3.37,3.37,0,0,0-1.32-1.45c-.18.08,0,.51-.26.53-.43-.54-.74-1.19-1.58-1.32-.22,0-.07.36-.26.39a4.41,4.41,0,0,0-1.58-1.05c0,.2,0,.49-.13.53C45.16,65.45,44.93,65,44.12,65.09Zm-5,1.45c.61.31.11.82.26,1.18C42.89,68.29,41.19,64.72,39.11,66.54Zm-2.76,3.55a3.44,3.44,0,0,0,.4-3.82C36.6,67.48,36.14,69.35,36.35,70.09Zm27.78,3.56c.32-1.16-.66-2.57-.39-4.21.19-1.19,1-1.82,1.32-2.76,0-.1,0-.26-.13-.26C63.2,67.61,62.51,71.75,64.13,73.64Zm-9.74-6.32c.5,0,.56.5,1.05.53-.06-.42.24-.47.13-.92a1.64,1.64,0,0,1-1.19-.26Zm5.92.53a3.53,3.53,0,0,0,2.11.66c-.1-.5.16-.63.13-1.05C61.83,67.2,60.16,66,60.31,67.85Zm-21.19.39c.52.31,0,.69-.13,1.05.93.24,2.7.94,2.5-.79A2.19,2.19,0,0,0,39.11,68.25Zm25.41,3.69a10.27,10.27,0,0,0,.39-3.69A3.4,3.4,0,0,0,64.52,71.93Zm-8,2.9c-5.12-.66-7.71-5.39-12.51-6.32-.1,0-.15.11-.13.26V69c5.79.91,8,7,14.61,6.19C57.93,74.5,57,74.9,56.49,74.83ZM59.91,70c.43.4,1.44.23,2.24.26-.29-.58-.18-.69.13-1.19C61.44,68.46,59.23,68.38,59.91,70Zm16.32.66c-2.34-.93-2.08,3.94.13,2.5-.12-.45-.63-.51-.66-1.05.58-.56.77-1.51,1.58-1.84A16.19,16.19,0,0,1,79,72.06c-.62.57-.85,1.52-1.71,1.84-.39-.08-.53-.85-.92-.53-1,2.41,2.95,2.9,2.24,0,.48.35,1-.21,1.32-.39V71.14a1.59,1.59,0,0,0-1.45-.53C79.45,68.3,75.58,67.92,76.24,70.62ZM43.85,69.56a14.56,14.56,0,0,1-5,8.43c0,2.9.2,3.92.13,6.85.63,0,1.11-.2,1.71-.26,1.25-5,2.72-9.75,3.82-14.88C44.19,69.75,44.23,69.45,43.85,69.56Zm-5.13,1.19c.64.24,1.06.7,1.84.79,1.33-1-.47-1.76-1.58-1.84C39.09,70.24,38.73,70.32,38.72,70.75Zm9.87,2.76V71.67c-1.07-.17-2-1.1-2.76-1.18v.92a1,1,0,0,1,1.32.92c0-.37.23-.56.66-.53a.72.72,0,0,1,.66.66.71.71,0,0,1-.79.66c-.58-.09-.46-.6-.92-.53s0,1.68.26,1.05v2.24c-.26-.25-.61.16-.66.53.42.27.45.33.66.26v1.05c-.27-.28-.49.17-.66.4.27.45.22,1.56.66,1.45v5.66h1.84c-.06-3.46-.21-7.17-.13-10.53C48.64,74.34,48.89,73.65,48.59,73.51Zm-23-3H24.24c.17.88-.12,3-.79,3,0-.31.21-.49.13-.92-.72-.34-1.09-2.11-2.24-1.18.46,1.52-.13,4.08,2.37,3.55.44-.22.68-.64,1.19-.79.48,1.05,3.18-.1,3.29,1.32,1-1.12-.38-2.28-.66-3.29-.31,0-.49-.21-.92-.13s-.32.82-.66,1.05C25.36,72.76,25.28,71.27,25.55,70.48ZM59.78,71c-.4,1.65,1.89,1.3,2.37.66-.44-.34-.33-.53-.13-1.05C61.12,70.6,60.2,70.55,59.78,71ZM37.93,72.06c.45.51.73,1.2,1.58,1.32C41,72.62,39.6,71,38.32,71,38.52,71.69,38,71.66,37.93,72.06Zm8.16,2.63c-.13.4-.79.27-.66.92.17.23.27.52.66.53,1.08-.61.47-2.3.13-3.29.17-.36.59-.47.53-1.05C45.13,70.84,45.81,73.84,46.09,74.7ZM37,73c.48.56.45,1.68,1.18,1.71,1.44.07.34-2.25-.79-2.5C37.65,72.84,37,72.55,37,73Zm12.11.66c.41-.16.4-.74.53-1.19-.2-.07-.33-.2-.53-.26Zm13.3-.39c0-.62-.34-.44-.13-1.05C58.92,72.14,60.25,75.26,62.41,73.25ZM49.51,76c.64.11.89-.17.92-.66-.13-.31-.57-.31-.79-.53.11-.69,1.2-1.79.13-2.11C49.62,73.71,49.13,74.9,49.51,76Zm-12.9-.13c2,0,.57-2.22,0-2.77C35.77,73.73,36.24,75.05,36.61,75.88ZM45.43,75c.58-.14.42-1.21,0-1.45C45.61,74.09,45.14,74.7,45.43,75Zm15.4.13c0,.27.36.26.4.53a2.1,2.1,0,0,0,2-1.45c-.64.2-.4-.48-.66-.66C62,74.06,61,74.15,60.83,75.09ZM72.16,76a2.24,2.24,0,0,0-.39,3.16,1.64,1.64,0,0,0,1.18-.26c.4-.53-.14-1.49,0-1.71,1.35-.45,1.53,1.54,1.05,2.63.33.11.52.36.92.39.08-1.62,3.26-3.09,3.82-1.19.22.74-.09,3-1.32,2.11.28-.24.67-.39.53-1.05-2.32-1.59-2.93,3.77,0,2.9.25.62.55,1.2,1.58,1.05.17-.32.48-.48.4-1.05s-.64-.41-.66-.92c1.77-3.05-.68-6.79-3.95-4.74-.06-1.39-1.61-1.29-2.11-2.24,0-.61.41-.73.53-1.18C72.16,73.52,71.76,74.86,72.16,76ZM49.91,74.7c.19.07.33.19.53.26-.1-.3.24-1-.26-.92C50.19,74.37,50,74.45,49.91,74.7Zm4.87,9.74c3-.81,4.58-3,6.58-4.74A24,24,0,0,1,58.73,76a12,12,0,0,1-6.32-1.45C53.18,77.88,54.06,81.08,54.78,84.44Zm7.5-7.24c1.23.14,1.75-1.71,1.18-2.5C62.89,75.26,61.46,76.08,62.28,77.2Zm-33.83.39c-.47-2.14-3.89-2.62-5.4-.79,1.46.47,1,2.81,2,3.82.32-.64.19-1.74,1.05-1.84-.63.86-.65,2.34-.79,3.69-1,.71-2.14,1.28-2.5,2.63a1.67,1.67,0,0,1,1.84.13C26.2,83.6,29.24,81.2,28.45,77.59ZM45.3,76.54c0-.1.11-.15.26-.13,0-.33-.2-.41-.39-.53C45.24,76.07,45,76.56,45.3,76.54Zm-.4,2c0,.53.48.66.4,1.32,0,.43-.79.09-.66.66-.09.4.13.48.13.79,2.39-.12,0-2.65.79-3.69.43-.08.61.09.92.13C46.7,75.37,44.74,76.77,44.91,78.51Zm4.61-1.05c.29.38.82-.3.92.26.16,1.43-.69,1.86-.53,3.29.26.19.85.43,1.18.13.21-.82-.36-.87-.53-1.32.32-1,.6-3.15-.53-3.42C49.45,76.34,49.48,76.9,49.51,77.46ZM23.05,78c0-.19.32-.12.53-.13.11-.68-.21-.93-.79-.92C22.52,77.24,22.65,77.95,23.05,78Zm-1.45.79c.62,0,.75-.48,1.05-.79-.39-.05-.11-.77-.39-.92A1.49,1.49,0,0,0,21.61,78.78Zm24.49,2c-.2.62-1.42.67-1.71,1.45-.35,1,.14,1.33.13,2.63-.16.5-.7.62-.53,1.45h.92c.66-1.14-.34-2.32-.13-3.82.25-.75,1.34-.68,1.84-1.19-.06-1.43,0-3-.92-3.55C45.29,79,46.45,79.66,46.09,80.75ZM49.65,78c.25.88-.76,2.55,0,3.55.18.26.92,0,.92.4.45,1.23-1,6.09,1.19,3.69-.06-.47-.71-.35-.79-.79a5.07,5.07,0,0,0,.26-3.16c-2.62,0-.87-2.48-1.19-3.95C50,77.94,49.67,77.8,49.65,78Zm-.26.79c.18-.18.25-.92-.13-.92C49.33,78.13,49.09,78.72,49.38,78.78Zm-26.33.53h.79a2,2,0,0,0,.26-1.05C23.29,77.73,22.56,78.46,23.05,79.3Zm15.14-.79c0,2.16,0,5,0,7.11,0,.62-.24,1.69.26,1.84.5-2.58,0-6.36,0-9.22,0-.1-.11-.15-.26-.13ZM21.74,80.62c.66-.08.65-.84,1.32-.92-.32-.3-.11-1.12-.53-1.32C22.23,79,21.26,79.63,21.74,80.62Zm-.26-.79c-.13-.53.39-.4.26-.92a.61.61,0,0,1-.39-.13C21.42,79.09,21.18,79.73,21.47,79.83Zm29.75.26A1.33,1.33,0,0,0,51,79C51,79.61,50.69,79.91,51.23,80.09Zm-6.06-.39c-.27,0,0-.58-.4-.53C44.63,79.55,44.92,80.15,45.17,79.7Zm-21.85.13a.87.87,0,0,0,1.18.92C25,79.79,23.88,79,23.32,79.83Zm-1.32,3A22.26,22.26,0,0,1,23.84,81c-.54-.12-.49-.83-.92-1.05C22.4,80.59,20.69,82.05,22,82.86Zm-.53-1.32c-.06-.41.4-.3.26-.79a.62.62,0,0,1-.39-.13C21.42,80.89,21.18,81.49,21.47,81.54Zm49.76,1.32c-2.25-1-2.23,3.64.13,2.5-.08-.54-.61-.62-.66-1.19.53-.61.8-1.49,1.58-1.84a10.11,10.11,0,0,1,1.58,1.84A4.2,4.2,0,0,1,72.29,86c-.3,0-.7-1-.79-.39-1.27,2.12,2.81,3.05,2.11,0,2.18.25,1.89-3.07,0-2.9C74.09,79.91,70.45,80.86,71.24,82.86Zm-47.39-.92c.79,0,1.3-.19,1.18-1.05C24.33,80.93,23.75,81.1,23.84,81.94ZM46,83.52c.76.34.3,2.28.66,2.63.52-1,.27-3.5.13-4.74C46.23,81.86,46.64,83,46,83.52Zm-23.3.66c.73-.64,2.14-1.29,2.11-2.24a.8.8,0,0,1-1.32-.26C23,82.25,21.34,83.48,22.66,84.18Zm22.64,2c.22.23.44-.12.92,0a3.94,3.94,0,0,0-.53-2.9,1.54,1.54,0,0,0,.66-1.05C44.22,81.25,45.43,84.62,45.3,86.15Zm4.34-3.55c0,.35.55.23.66.53-.53.36-1.13,2.56-.26,3-.24-1.22,1-2.89.26-4.21h-.53A.85.85,0,0,0,49.65,82.6ZM21.34,96.94c.26.25.51-.62,1.05-.53V95c.45,0,.63.33,1.18.26.78-.85.7-2.54.66-4.21-1,1-1.2,2.83-2.63,3.42-.13-3.29.14-6.18,1.58-7.9-.82,0-.55-1.59-.39-2.11-1.12.06-.53-1.57-1.45-1.71ZM49.51,84.44c-.06-.67.31-.91.4-1.45-.25,0-.29-.15-.53-.13C49.47,83.35,49.21,84.17,49.51,84.44Zm1.71.39c.39.1.57.4.79.66a10.19,10.19,0,0,0-.4-2.37A14.36,14.36,0,0,1,51.23,84.83Zm3.95,1.05c5.61,1.23,9.86,4.34,13.3,7.64.41.39,1.06,1.27,1.71.53-.24-1.44-1.7-2.15-2.76-3a27.85,27.85,0,0,0-12.51-6.19C55,85.2,55.1,85.52,55.17,85.89ZM39,85.23v.66c.48-.09,1-.14,1.45-.26-.05-.32.24-.29.13-.66C40.07,85.08,39.45,85.08,39,85.23ZM23.05,86.28c.32-.38.91-.49,1.18-.92C23.71,84.63,22.44,85.5,23.05,86.28ZM26.87,86c.27.08.43.28.66.4.25-.32.41-.73.66-1.05C27.69,84.77,27,85.48,26.87,86Zm40.41.79H65.84v1.32c.52,0,1.26-.12,1.58.13a1.64,1.64,0,0,0,.26,1.19,2,2,0,0,0,1.71,0,5.73,5.73,0,0,0-.13-3.82C68.06,85,67.62,86.12,67.29,86.81ZM25,93.65a75.88,75.88,0,0,0-.26-8.16A22.27,22.27,0,0,0,25,93.65ZM25.42,86a5.66,5.66,0,0,1,2.76,3.42c-1-.73-1.47-2-2.76-2.5a5.4,5.4,0,0,0,3.42,3.55C28.61,88.32,27,85.88,25.42,86Zm26.33.53h.39c-.08-.23.16-.77-.13-.79C52,86.11,51.46,86.26,51.75,86.55Zm-12.64-.26v.92c.46.11.51-.2.92-.13,0-.42.3-.58.26-1.05A5,5,0,0,0,39.11,86.28ZM62.68,98.66c-.5,6.58-2,10.78-5,14.74-.82,1.09-2.78,2.64-3,3.69-.54,2.24.4,4.24,0,6.58H80.05C80,111.16,80.23,98.3,79.92,86,75.47,91.53,69.37,95.39,62.68,98.66ZM23.84,86.41a9.47,9.47,0,0,0-1.71,7.11c.66-1.4,2.06-2.77,1.84-4.61-.61.83-.95,1.95-1.58,2.76C22.24,89.88,23.93,88.14,23.84,86.41Zm31.59.79a37.44,37.44,0,0,1,10.4,5.66c.94.76,1.71,2,3,2.11.25-.63-.52-1.21-.92-1.58-3.25-3-7.65-6-12.64-7C55.3,86.72,55.53,86.8,55.44,87.2Zm4.34,2.5a27,27,0,0,0-11.06-3,28.25,28.25,0,0,0-12.11,1.84c-2.13.81-4.48,1.63-5.79,3.29,1.24.24,2.23-.7,3.16-1.19a26.26,26.26,0,0,1,10.93-3,27.18,27.18,0,0,1,20.8,7.24c.44.39,1.15,1.55,2,.66C65.93,93.11,63,91.31,59.78,89.7ZM46.22,90.89h2.37a20.74,20.74,0,0,0,.13-2.76H46A10.74,10.74,0,0,0,46.22,90.89ZM25.55,93.65c.44.48,1.14.7,1.18,1.58.4.08,1.13-.17,1.32.13.09.49-.22.57-.13,1.05,1.73.18,1.82,3.81-.13,3.82,0,.59.52,1.06.26,1.45-.22-.22-.77-.1-1.18-.13-.24,1.85-3.5,1.91-3.42-.26-.39-.07-.93.37-1.05.13,0-.42.23-.56.13-1.05-.54.13-1.07-1-1.18-.39v23.7h5.79c1.82-6.27.3-14.47-1.32-19.48,2.52.35,5.08-.22,6.45-1.45-1.6-3.1-3.18-6.21-4.61-9.48a13,13,0,0,1,2.5-1.71,2.76,2.76,0,0,0-.79-1.19c-.11.34.4.72,0,.92a7.33,7.33,0,0,1-3.95-3C25.35,90.18,25.65,91.71,25.55,93.65Zm16.72-5.27c-.74.32-1.75.36-2.5.66a22.34,22.34,0,0,1,.53,2.5,19,19,0,0,1,2.5-.39C42.48,90.18,43,88.71,42.27,88.39Zm9.74,3c.82.23,1.72.38,2.5.66a25.93,25.93,0,0,0,.66-2.63,22.72,22.72,0,0,0-2.63-.66A25.55,25.55,0,0,0,52,91.42Zm-18.17,0c.44.62.62,1.49,1.05,2.11A12.41,12.41,0,0,0,37,92.73,12.24,12.24,0,0,0,36.22,90C35.54,90.57,34.38,90.68,33.85,91.42Zm23.83,2.11c1,.19,1.36.92,2.37,1.05.22-.87.75-1.44.92-2.37a26.72,26.72,0,0,0-2.37-1.45A16.14,16.14,0,0,0,57.68,93.52ZM43.2,91.28a30.31,30.31,0,0,0,.26,3A13,13,0,0,0,45.83,94c-.09-1.15,0-1.88-.13-2.9C44.72,91.05,44.15,91.37,43.2,91.28Zm5.66-.13c0,1.38-.19,1.66-.13,3,.9,0,1.49.26,2.37.26a15.22,15.22,0,0,0,.53-2.76A15.26,15.26,0,0,0,48.86,91.15ZM37.4,93a17.79,17.79,0,0,1,.92,2.5,16.5,16.5,0,0,0,2.24-.66c-.07-1-.39-1.8-.39-2.9A9.29,9.29,0,0,0,37.4,93Zm-6.06-.13c3.35,1.06,5.75,3.53,5.27,8-.09.88-.78,1.76-.26,2.63C39,98.88,36,92.78,31.22,92.34A.73.73,0,0,0,31.35,92.86ZM54,95.23c.8.25,1.42.68,2.24.92.36-.83.68-1.69,1.05-2.5a16.52,16.52,0,0,0-2.5-1.05A25.5,25.5,0,0,0,54,95.23Zm-21.85-.53a4.83,4.83,0,0,1,2.76,2c1.07,1.57.66,3.78.79,5.66,1.75-3.8-.47-8.19-4-8.82C31.69,94.1,32.12,94.2,32.14,94.71Zm-8,1.84a1.83,1.83,0,0,1,2.24,0C27,93.38,23.17,93.92,24.11,96.55Zm40-2.24c-.4.79-1,1.4-1.32,2.24.66.17.92,1.15,1.71.79-.21-.49-.71-.69-.92-1.19a2.88,2.88,0,0,1,.92-1.05c.23.43.69.62.92,1.05-.15.25-.78.7-.53.92.43-.36,1-.54,1.45-.92A19.08,19.08,0,0,0,64.13,94.31ZM48.2,95.36A19.45,19.45,0,0,1,57.81,98c.87.5,1.61,1.33,2.63,1.32-.36-.81-1.48-1.25-2.37-1.71A25.8,25.8,0,0,0,38.72,96c-.42.15-1.61.28-1.32,1.05,1.23.21,2.59-.68,4.08-1.05a22,22,0,0,1,5.13-.66ZM59,97.47c.7.44,1.17,1.11,2.11,1.32a20.31,20.31,0,0,1,1.19-2.11c-.79-.48-1.41-1.13-2.24-1.58C59.85,96,59.16,96.5,59,97.47ZM35.3,101c.47-2.88-.75-5-2.76-5.79A36.84,36.84,0,0,0,35.3,101Zm11.32-5.27a25,25,0,0,0-5.4.79c-1.36.36-3.05.8-3.55,1.58,3.28-.92,7.19-2.16,11.58-1.84a19.93,19.93,0,0,1,7.9,2.63c.71.38,1.47,1.09,2.24.79-2.31-2.18-6.8-3.82-11.19-3.95A2,2,0,0,0,46.62,95.76Zm-22,4.21c2.7.79,2.48-4.14,0-3.16C23.51,97.26,23.4,99.61,24.63,100ZM41.22,97.6c-1.25.32-2.86.48-3.42,1.58,4.33-2.14,11.5-2.49,16.06-.92,1.67.57,3.05,1.68,4.48,2C54.92,96.79,47,96.11,41.22,97.6ZM23.58,99.45c-.52-.61-.27-1.43-.13-2.24C20.64,95.73,21.12,101.36,23.58,99.45Zm3.29-2.24a3.13,3.13,0,0,1,0,2.37C29.29,101,29.4,95.73,26.87,97.21ZM46.75,98a40.56,40.56,0,0,0-5.66.92c-1.25.36-2.65.82-3.16,1.58,4-1.95,10.55-2.79,15.14-1.19,1.38.48,2.54,1.54,3.82,1.32a18.44,18.44,0,0,0-8.29-2.5C48.24,97.83,47.32,98.08,46.75,98Zm-9.08,3A11.9,11.9,0,0,1,37,103.4a7.57,7.57,0,0,1,3.55,1.84c1.67-2.18,4.6-6.18,8.29-5.92,2,.14,2.54,1.88,3.69,3.16A26.8,26.8,0,0,1,56,101.29C52.05,97.67,42.18,98.48,37.67,101Zm13.56,12.11c1-.55,1.9,0,3,0-.4-4.91-.95-11-4.08-13A3.08,3.08,0,0,0,49,99.71c-3.95-.45-6.21,3.66-8.29,5.92,2,1.87,2.31,6.56.92,9.35a18.34,18.34,0,0,1,1.45,2.9c.52,0,.66.3,1.18.26a12.46,12.46,0,0,1,3.69,3.69c.42.62.71,1.65,1.58,1.84.94-2.35,2.36-4.22,4.87-5v-1.32c-5.27,3-4.46-5.33-3-8.42A2.88,2.88,0,0,0,50,108c-.23.25-.38.58-.92.53-.61-.22-1-1.05-1.84-.66-.39.42-.14.79,0,1.32a1.15,1.15,0,0,1-.13-2c1.14-.18,1.36.57,2.37.53.3-.14-.06-.94.26-1.05.63.73,1.69,1,2.11,2a16.06,16.06,0,0,0-.79,3.42C52.82,111.06,51,112.31,51.23,113.14Zm-24.88-12.9a3.25,3.25,0,0,1-2.24.13C22.93,103.22,27.52,102.9,26.34,100.24Zm29.75,5.4c-.57,1.31-1.59,2.5-1.58,3.95A19.68,19.68,0,0,0,57.81,101c.14,0,.1-.17-.13-.13A21.23,21.23,0,0,1,56.1,105.63Zm.39-4.21c-.27,2.45-2.37,4.85-2.37,6.85a14.75,14.75,0,0,0,3-7c0-.1-.11-.15-.26-.13C56.85,101.34,56.6,101.31,56.49,101.42Zm-2.5,5.4a17.39,17.39,0,0,0,2-5.13h-.39C55.29,103.49,53.49,105.1,54,106.82Zm-.39-1.32c.54-1.08,1-2.27,1.45-3.42h-.53C54.45,103.38,53.25,104.23,53.59,105.5Zm-.53-1.18c.49-.24,1.18-1.59.66-2A20.45,20.45,0,0,1,53.07,104.32Zm-.53-1.58a1.31,1.31,0,0,0,.39.79,2.15,2.15,0,0,0,.26-.92C52.88,102.55,52.91,102.85,52.54,102.74ZM37,105c2.41.49,4,1.85,4.34,4.48.2,1.67-.54,3.53.13,4.87,1.67-4.68-.2-10.16-4.87-10.53C36.54,104.39,36.88,104.58,37,105Zm-4.21-.92c-.17.13-.49.13-.66.26,2.26,5.72,5.66,11.76,8.29,17.38.35.74.53,2.24,1.84,2C39.48,117.29,36,110.46,32.79,104.05Zm-1.71.79c-.5.13-.1,1.46.13,1.71A6.09,6.09,0,0,0,31.08,104.84Zm-3.95.66c.31,1,.58,2,.92,2.9.69-1,1-3,2.5-2.76-.3-.05,0-.72-.39-.66A16.39,16.39,0,0,1,27.13,105.5Zm4.48-.13v1.84c.62-.09,1,.79,1.32.53C32.38,107.05,32.15,106.06,31.61,105.37Zm7.9,2.11c1.28,1.56.66,3.48,1.32,5.53.86-3.5-.43-7.46-3.55-7.37C37.48,106.68,38.78,106.59,39.51,107.48Zm.66,4.08c.09-2.24-.68-4.32-2.24-4.48C38.77,108.48,39.3,110.19,40.17,111.56Zm-9-4.08c.09.67,1,.82,1.45,1.45a5.21,5.21,0,0,1,.53,4.61c2.15.81,3.67,2.89,3,6.06,1.75.66,2.56,2.27,3.29,3.95a4.82,4.82,0,0,0-2.9-4.21c.29-3.32-.86-5.19-3.16-5.92C34.06,110.88,33.48,107.92,31.22,107.48Zm-1.05,1.05h.53c.28-.28.07-.74-.13-.92C30.06,107.56,29.88,108.21,30.16,108.53Zm8.42,15c-1-.44-.71-2.1-1.45-2.76,0,1-.52,1.67-1.32,1.71-.54,0-.37-.51-1.19-.66-.37-.07-.69.24-.92.13-1.48-.73-1-2.4.13-3-.45-1.1.93-1.94,1.84-1.71-1-.34-.92-1.72-1.58-2.37-.42,3-1.82.83-3.42,1.18-1.32-.63-.87-2.52.13-3.16a1.27,1.27,0,0,1,2.24-1.05A9.86,9.86,0,0,1,32,109.06c-.15.73-.42,1.33-1.19,1.45-.85-.54-1.71-.29-2.5-.79a35.68,35.68,0,0,1-.26,13.82A84.6,84.6,0,0,0,38.59,123.54ZM37,119.19c1.13.23,1.58,1.14,2.24,1.84-1.65-3.71-3.39-7.32-5.27-10.79a15.45,15.45,0,0,1,0,3C36.33,113.9,37.19,116,37,119.19Zm3.42,4.34a8.58,8.58,0,0,0-1.18-2.5C39.75,121.76,39.62,123.11,40.43,123.54Zm11.45-9.35c.13-.31.23-.65.79-.53s.17.71.66.66C53.66,112.81,51.28,112.91,51.88,114.19Zm-19.35.26c.19,0,.22-.22.39-.26C33.06,112.49,31.1,114.19,32.53,114.45Zm18.56-.53c.35,0,.43-.18.4-.53C51.13,113.41,50.86,113.7,51.09,113.93Zm2.63,1.19a3,3,0,0,1-2.9-.39C51,115.85,53.2,116.15,53.73,115.11Zm.26.66a3.64,3.64,0,0,1-3.16-.26C50.82,116.68,53.92,117.44,54,115.77Zm-10.27,3.56a9.66,9.66,0,0,1,1.84,1.18c1.1,1,1.76,2.68,3,3-1.33-2.18-2.69-4.33-5.26-5.27A9,9,0,0,0,43.72,119.32ZM50,123.67c1.1-.87,1.44-2.14,2.5-2.9.62-.45,1.86-.49,1.84-1.58C52,119.75,50.79,121.47,50,123.67Zm-14.88-3.29c.49.05.77-.11.79-.53C35.75,119,34.54,119.67,35.16,120.38ZM46,122.48c.44.47,1,1.49,1.71,1.05-1.12-1.25-2-2.7-3.55-3.56A6,6,0,0,0,46,122.48Zm5,1.19c1,0,1.09-1.08,1.58-1.58s1.72-.71,1.84-1.71A4.38,4.38,0,0,0,51,123.67Zm1.05,0a3.37,3.37,0,0,0,2.37-2.24A3.85,3.85,0,0,0,52,123.67Zm-5.53-.13a9.47,9.47,0,0,0-1.32-1.32C45.42,122.77,45.62,124,46.49,123.54Zm6.71.13h1.05c-.08-.31.17-1-.13-1.05C53.89,123,53.25,123.07,53.2,123.67ZM37.14,41.92c-.19,0-.22-.22-.39-.26C36,42.16,37.18,43.11,37.14,41.92Zm-8.69,12.9A2.47,2.47,0,0,0,29.5,55C31.09,53,27.27,52.56,28.45,54.82Zm-5,12.11a1.5,1.5,0,0,0,1.19,0,1.68,1.68,0,0,0-.13-1.58C23.28,65,23.13,66.15,23.45,66.93ZM72.68,83.25c-1.31-.31-1.45,1.32-.79,1.84C73.24,85.5,73.37,83.72,72.68,83.25Zm5.4-11.72c-.61-.83-2-.27-1.58,1.05C77.09,73.4,78.5,72.9,78.08,71.54Zm-14,24.75c.26,0,.17.36.53.26-.05-.32.24-.29.13-.66C64.51,95.62,64.12,95.89,64.13,96.29Z"/><path class="cls-4" d="M41.61,40.86c0,.67-.46.85-.53,1.45-.59-.11-.78-.62-1.32-.79.31-.44.45-1,.92-1.32A1.9,1.9,0,0,1,41.61,40.86Zm-.92-.13c-.08.27-.28.42-.39.66.25.06.33.28.66.26,0-.33.21-.41.26-.66C41,40.93,40.89,40.8,40.69,40.73Z"/><path class="cls-4" d="M23.05,55.74c.55-.3.87-.17,1.58-.13.92.71.45,3.28-.92,2.24-.16-.55.56-.23.66-.53-.86-2-2.57.2-2,2.11.28.9,1.26,1.15,2.24.92s1.4-1.25,2.24-1.84c-.44,1.49.57,3.95,2.24,2.5-.17-.44-.74-.49-.53-1.32.25-.06.24-.38.66-.26,1,.5.39,2.38-.39,2.63.15.58.42,2.09-.53,2,.79-2.29-2.4-1.6-2.11-3.82a4.13,4.13,0,0,1-2.5.92c-2.33-.28-1.85-2.91-1.45-5.27.1-.54-.63-.25-.53-.79C21.89,54.07,23.39,54.69,23.05,55.74Z"/><path class="cls-4" d="M52.94,57.71a1.16,1.16,0,0,1-.26-1.05C53.79,55.5,54.72,58,52.94,57.71Z"/><path class="cls-4" d="M54,60.87c-.67.34-1.43,0-1.18-.92A.75.75,0,0,1,54,60.87Z"/><path class="cls-4" d="M54,62.59c-.67.34-1.43,0-1.18-.92A.75.75,0,0,1,54,62.59Z"/><path class="cls-4" d="M54,64.3c-.67.34-1.43,0-1.18-.92A.75.75,0,0,1,54,64.3Z"/><path class="cls-4" d="M76.5,64.56c.47-.76,2.35-1.46,2.9-.26a6,6,0,0,0,.26,2.5c-1,0-.85-1.09-1.58-1.32a1.73,1.73,0,0,1,.53-1.19c-1.85-.58-1.48,2.1-2.11,3.16-.58-.82,0-2.78-1.45-2.77-.28.29,0,1.12-.53,1.19-.9-.33-1.08-1.38-1.45-2.24C73.84,64,75.94,63.46,76.5,64.56Z"/><path class="cls-4" d="M26.34,73.51c.25-.33.07-1.07.53-1.19a4.82,4.82,0,0,1,1.45,2.37c-.88-.68-2.91.19-3.42-1.05-1.65,1.93-3.29.74-3.16-2.24.91,0,.51,1.24,1.45,1.18a1.52,1.52,0,0,1-.39,1.32c1.77.63,1.59-1.83,2-3C25.63,71.42,24.67,73.78,26.34,73.51Z"/><path class="cls-4" d="M47.14,75.75a1.17,1.17,0,0,1,1.05-.26C49.35,76.61,46.87,77.5,47.14,75.75Z"/><path class="cls-4" d="M47.54,80.09c-1.48-2.21,3.11-.72,0,0Z"/><path class="cls-4" d="M47.28,84a1.16,1.16,0,0,1,1.05-.26C49.49,84.89,47,85.82,47.28,84Z"/><path class="cls-3" d="M67.81,86.81c0,.7-1,.28-1.58.39C66.51,86.83,67.71,87.36,67.81,86.81Z"/><path class="cls-3" d="M47.67,89.7c-.06.29-.7.1-.79,0V89c.13-.28,1.21-.1.79.13,0-.29-.47-.06-.66-.13v.66Z"/><path class="cls-3" d="M45.3,92.6c.4,1.06-.7,1.31-1.32.92C45,93.77,45.25,93.3,45.3,92.6Z"/><path class="cls-3" d="M44.51,93.26c-.47.08-.4-.39-.4-.79a.74.74,0,0,1,.53-.13c0,.15-.24.11-.4.13v.66C44.4,93.11,44.48,93.16,44.51,93.26Z"/><path class="cls-4" d="M54.91,49.55c-.36.26-1.15.08-1.71.13a5.49,5.49,0,0,1,.13-1.58h1.32A10,10,0,0,1,54.91,49.55Zm-1.18-.26c.53.05.76-.2.66-.79h-.66C53.69,48.81,53.47,49,53.73,49.29Z"/><path class="cls-4" d="M47.14,77.46a.94.94,0,0,1,1.32,0C48.8,78.85,46.85,78.77,47.14,77.46Z"/><path class="cls-4" d="M47.28,80.75c2.65-1.24.34,2.9,0,0Z"/><path class="cls-4" d="M67.81,86.81c1.38-3.76,2.76,4.39-.13,2.11,0-.38-.07-.86.13-1.05-.64-.07-1.48.08-1.71-.4,0-.15,0-.23.13-.26C66.78,87.09,67.85,87.51,67.81,86.81Z"/><path class="cls-4" d="M48.07,90.1H46.62c0-.54-.23-.82-.13-1.45H48.2C48.27,89.25,48,89.47,48.07,90.1Zm-.39-.92c.42-.23-.66-.41-.79-.13v.66c.09.1.73.29.79,0Z"/><path class="cls-4" d="M54.52,90a6.66,6.66,0,0,0-.4,1.32c-.54-.07-.85-.38-1.45-.4,0-.61.26-.88.26-1.45A4.67,4.67,0,0,1,54.52,90ZM54,90.1c-.31,0-.39-.23-.79-.13-.1.59.12.84.66.79C53.75,90.39,54,90.42,54,90.1Z"/><path class="cls-4" d="M36.35,92.07c-.18.43-.74.49-1.19.66a13.06,13.06,0,0,1-.53-1.58c.54,0,.74-.4,1.32-.39C36.11,91.17,36.1,91.75,36.35,92.07Zm-.92-.79c-.5.12-.1.53-.13.92.25,0,.29-.15.53-.13C35.82,91.68,35.83,91.27,35.43,91.28Z"/><path class="cls-4" d="M51.09,92.47a3,3,0,0,0-.26,1.32,3.09,3.09,0,0,1-1.45-.26,2.61,2.61,0,0,1,.26-1.58A3.47,3.47,0,0,1,51.09,92.47Zm-1.32.79c.37-.11.34.19.66.13-.1-.4.23-.39.13-.79-.37.11-.34-.19-.66-.13C49.91,92.78,49.68,92.86,49.78,93.26Z"/><path class="cls-4" d="M60.18,92.47a5.72,5.72,0,0,1-.53,1.18c-.61,0-.75-.57-1.32-.66.05-.56.37-.86.53-1.32C59.53,91.72,59.75,92.19,60.18,92.47Zm-1.05-.26c-.07.2-.2.33-.26.53.31,0,.25.46.66.39-.05-.32.24-.29.13-.66C59.29,92.57,59.39,92.21,59.12,92.21Z"/><path class="cls-4" d="M58.47,23.62c-.91-.63-2.93-1.9-4.08-.66a4.39,4.39,0,0,1,4.34,1.45c-1.22.47-2.71,1.55-4.34.79-.05.61,1.15,1,1.58,1.58-1.07.06-1.76-1.4-2.9-1.71.17-.4.48-.66.66-1.05-.11-.42-.39-.66-.4-1.18,1-.08,1.58-.86,2.63-.79A3.63,3.63,0,0,1,58.47,23.62Zm-2.9,1.71a1.13,1.13,0,0,0,1.05-1.18c-.54,0-.29.85-.92.79-.44-.17-.55-.68-.92-.92C54.7,24.8,55.21,25,55.57,25.33Zm-1.45-.79c0,.35.18.43.53.39C54.64,24.58,54.35,24.3,54.12,24.54Z"/><path class="cls-4" d="M45.43,111.29c1.11.38,1.54,1.44,2.76,1.71-.22.81-.87,1.5-.13,2.24a6.22,6.22,0,0,0-1.71.92c-1.83.16-2.64-.69-3.55-1.45.74.1,3,2,4.08.53-1.51.65-3.42-.47-4.34-1.58,1.59-.15,2.7-1.49,4.47-.66C46.75,112.17,45.7,112.13,45.43,111.29Zm-.53,2.76c.24-.25.21-.76.66-.79.65,0,.47.85,1.05.92C46.87,112.5,44.08,113,44.91,114.06Zm2.37-.66c-.23.08-.55-.39-.66,0C46.73,113.69,47.27,114.06,47.28,113.4Z"/><path class="cls-4" d="M45.3,43.23c.15-.59,1,.2,1.32.26a7.91,7.91,0,0,1-.4,1.45c-.57-.09-.81-.51-1.32-.66A2.88,2.88,0,0,1,45.3,43.23Zm.13.92c.25,0,.29.15.53.13.35-.36,0-.72-.39-.79C45.62,43.81,45.32,43.78,45.43,44.16Z"/><path class="cls-4" d="M62.41,43.37c.44.3.53,1,.66,1.58-.33.24-1,.14-1.32.4-.45-.21-.14-1.18-.39-1.58C61.62,43.54,62.18,43.61,62.41,43.37Zm-.26,1.45c0-.15.21-.14.39-.13-.07-.33,0-.79-.39-.79S61.77,44.82,62.15,44.81Z"/><path class="cls-4" d="M52,44.68c.09.66-.22.92-.13,1.58-.69.07-1-.25-1.58-.26,0-.66.31-.92.26-1.58C51.18,44.38,51.45,44.68,52,44.68Zm-.53,1.05v-.79A.45.45,0,1,0,51.49,45.74Z"/><path class="cls-4" d="M41.61,44.68c.49-.26.91.54,1.45.66l-.66,1.32c-.54-.17-.82-.58-1.32-.79C41.23,45.44,41.47,45.11,41.61,44.68Zm.13.53c0,.25-.15.29-.13.53.25.06.33.28.66.26.07-.19.2-.33.26-.53C42.12,45.54,42.24,45.07,41.75,45.21Z"/><path class="cls-4" d="M57.54,44.68v1.58H56.1V44.68Zm-1.05,1.19h.66v-.79h-.66Z"/><path class="cls-4" d="M66.63,47.05c-.31.21-.76.3-1.05.53-.42-.28-.44-1-.53-1.58C65.87,45.21,66.72,45.87,66.63,47.05ZM66,46.92c.26-.25,0-.48,0-.79C65.2,45.94,65.46,46.94,66,46.92Z"/><path class="cls-4" d="M48.72,47.45a13.77,13.77,0,0,1-.4,1.45c-.44-.22-1-.31-1.45-.53,0-.56.34-.71.26-1.32C47.65,46.85,48.23,47.25,48.72,47.45Zm-1.32.66c.31,0,.54.26.79,0,.15-.59-.4-.47-.66-.66C47.59,47.76,47.3,47.73,47.41,48.1Z"/><path class="cls-4" d="M60.7,47.45A7.78,7.78,0,0,0,61,48.89a11.42,11.42,0,0,1-1.58.4c-.25-.32-.08-1.06-.13-1.58A3.08,3.08,0,0,1,60.7,47.45ZM59.65,48a1.12,1.12,0,0,0,.13.79c.37.11.34-.19.66-.13,0-.39,0-.8-.4-.79C60,48,59.84,48,59.65,48Z"/><path class="cls-4" d="M33.58,50.34c.41.14,1,0,1.58.26v.26c0,.55-1,.13-1.45.26-.33.37-.25,1.15-.79,1.32-1.56-.05-.52-1.88-.92-3C32.43,48.49,34,48.91,33.58,50.34Z"/><path class="cls-4" d="M52.67,55.74c.59-3,2.34,1.56,0,0Z"/><path class="cls-4" d="M52.67,59c.61-3.06,2.32,1.59,0,0Z"/><path class="cls-4" d="M48.46,74.43c-.37,1.76-2.35-.66-.53-.79.13.26.58.21.53.66Z"/><path class="cls-4" d="M73.08,74.17c0,.43-.22.66-.13,1.18.67,1,2.34.91,2.24,2.63.56-.1,1.14-.88,2-.92,2.42-.11,2.84,2.72,1.84,5,0,.62.67.65.66,1.32-.45.7-1.46.1-1.45-.79-1.44.56-2.41-.69-1.84-2.11.37-.17,1-.67,1.32-.13.16.55-.55.23-.66.53,1.07,2.63,2.91-1.39,1.58-2.76-2-1-3.12.82-4.21,1.58.75-1.88-.84-3.86-2.24-2.37.35.26.81.42.66,1.18a2.28,2.28,0,0,0-.53.39c-1.31-.41-.65-2.28.13-2.76C72.26,75.34,72.1,74.18,73.08,74.17Z"/><path class="cls-4" d="M48.59,83.12a1.16,1.16,0,0,1-1.05.26c-.11-.11-.08-.36-.26-.39C47.06,81.76,48.94,81.8,48.59,83.12Z"/><path class="cls-4" d="M42,89a6.45,6.45,0,0,1,.13,1.58,3.74,3.74,0,0,0-1.32.26c-.36-.29-.28-1-.39-1.58A6.59,6.59,0,0,1,42,89Zm-1.19.53c0,.31.23.39.13.79h.53c.18-.17.13-.57.13-.92C41.31,89.44,41.23,89.67,40.83,89.57Z"/><path class="cls-4" d="M44,93.52a2.88,2.88,0,0,1-.26-1.45c.32-.25,1.06-.08,1.58-.13v.66C45.25,93.3,45,93.77,44,93.52Zm.66-1.18a.74.74,0,0,0-.53.13c0,.4-.08.87.4.79h.26C45,93.08,45,92.34,44.64,92.34Z"/><path class="cls-4" d="M39.77,93c-.1.67.18,1,.13,1.58a3,3,0,0,1-1.18.26c-.24-.38-.24-1-.53-1.32C38.48,93.1,39.15,93.08,39.77,93Zm-1.05.66c-.05.32.24.29.13.66h.66c.09-.4-.13-.48-.13-.79C39,93.41,39,93.71,38.72,93.65Z"/><path class="cls-4" d="M56.49,94a7.12,7.12,0,0,0-.39,1.19c-.67.09-.78-.36-1.32-.4-.1-.68.28-.86.26-1.45A3.09,3.09,0,0,1,56.49,94Zm-1.32.53c.32-.05.29.24.66.13,0-.25.15-.29.13-.53-.36.1-.26-.26-.53-.26C55.3,94.09,55.31,94.4,55.17,94.58Z"/><path class="cls-4" d="M61.49,96.81c-.15.55-.55.85-.79,1.32-.52-.05-.56-.58-1.05-.66.06-.59.42-.9.53-1.45A2.23,2.23,0,0,1,61.49,96.81Zm-1.19.66c.49,0,.55-.33.66-.66-.36.1-.26-.26-.53-.26C60.46,97,60,97.14,60.31,97.47Z"/></g></svg>