<svg xmlns="http://www.w3.org/2000/svg" viewBox="0 0 101.07 140"><defs><style>.cls-1{fill:#fff;}.cls-2{fill:#c4161c;}</style></defs><title>Монтажная область 11</title><g id="cards"><path class="cls-1" d="M98,0S68.82.79,50.53.79,3,0,3,0A2.94,2.94,0,0,0,0,3V135.9A3.17,3.17,0,0,0,3,139s29.21,1,47.5,1S98,139,98,139a3.17,3.17,0,0,0,3-3.13V3A2.94,2.94,0,0,0,98,0Z"/><path class="cls-2" d="M6.76,8.66V5.91q0-.7-.4-.7A1.77,1.77,0,0,0,6,5.26a1.77,1.77,0,0,1-.35.05q-.47,0-.47-.51a.51.51,0,0,1,.16-.38.56.56,0,0,1,.41-.15,3.09,3.09,0,0,1,.52.06,3.24,3.24,0,0,0,.58.06,1.34,1.34,0,0,0,.38,0,1.33,1.33,0,0,1,.42-.12q.22,0,.22.35v.15l0,.55q0,.73-.09,2.19V8.68l0,3.44a2.45,2.45,0,0,0,.11.78Q8,13,8.3,13l.38,0,.38,0a.44.44,0,0,1,.51.49A.47.47,0,0,1,9,14a6.13,6.13,0,0,1-.84-.09,6.12,6.12,0,0,0-.86-.09,6.54,6.54,0,0,0-1,.09,5.87,5.87,0,0,1-.75.09A.46.46,0,0,1,5,13.51Q5,13,5.5,13l.33,0,.33,0q.49,0,.51-.78,0-.16,0-.7Q6.76,10.53,6.76,8.66Z"/><path class="cls-2" d="M11.27,12.8a6.48,6.48,0,0,1-.91-3.69,6.4,6.4,0,0,1,.92-3.68,2.63,2.63,0,0,1,2.17-1.33,2.58,2.58,0,0,1,2.22,1.32,6.6,6.6,0,0,1,.93,3.71,6.41,6.41,0,0,1-.92,3.69,2.63,2.63,0,0,1-2.17,1.33A2.66,2.66,0,0,1,11.27,12.8Zm2.2-7.68q-.86,0-1.42,1.13a6.37,6.37,0,0,0-.57,2.86A6.42,6.42,0,0,0,12.06,12q.57,1.14,1.42,1.14T14.9,12a6.38,6.38,0,0,0,.57-2.86,6.42,6.42,0,0,0-.57-2.87Q14.33,5.12,13.48,5.12Z"/><polygon class="cls-2" points="90.6 122.04 94.89 115.37 90.6 108.7 86.31 115.37 90.6 122.04"/><path class="cls-2" d="M94.1,130.29V133q0,.7.4.7a1.77,1.77,0,0,0,.35-.05,1.77,1.77,0,0,1,.35-.05q.47,0,.47.51a.51.51,0,0,1-.16.38.56.56,0,0,1-.41.15,3.1,3.1,0,0,1-.52-.06,3.24,3.24,0,0,0-.58-.06,1.34,1.34,0,0,0-.38,0,1.33,1.33,0,0,1-.42.12q-.22,0-.22-.35v-.15l0-.55q0-.73.09-2.19v-1.22l0-3.44a2.44,2.44,0,0,0-.11-.78q-.08-.15-.4-.15l-.38,0-.38,0a.44.44,0,0,1-.51-.49.47.47,0,0,1,.52-.54,6.13,6.13,0,0,1,.84.09,6.12,6.12,0,0,0,.86.09,6.54,6.54,0,0,0,1-.09,5.87,5.87,0,0,1,.75-.09.46.46,0,0,1,.52.52q0,.51-.45.51l-.33,0-.33,0q-.49,0-.51.78,0,.16,0,.7Q94.1,128.42,94.1,130.29Z"/><path class="cls-2" d="M89.59,126.15a6.48,6.48,0,0,1,.91,3.69,6.4,6.4,0,0,1-.92,3.68,2.63,2.63,0,0,1-2.17,1.33,2.58,2.58,0,0,1-2.22-1.32,6.6,6.6,0,0,1-.93-3.71,6.41,6.41,0,0,1,.92-3.69,2.63,2.63,0,0,1,2.17-1.33A2.66,2.66,0,0,1,89.59,126.15Zm-2.21,7.68q.86,0,1.42-1.13a7.52,7.52,0,0,0,0-5.72q-.57-1.14-1.42-1.14T86,127a7.52,7.52,0,0,0,0,5.72Q86.53,133.83,87.38,133.83Z"/><polygon class="cls-2" points="10.26 19.91 5.97 26.58 10.26 33.25 14.55 26.58 10.26 19.91"/><polygon class="cls-2" points="27.9 12.29 18.89 26.3 27.9 40.31 36.9 26.3 27.9 12.29"/><polygon class="cls-2" points="27.9 42.29 18.89 56.3 27.9 70.31 36.9 56.3 27.9 42.29"/><polygon class="cls-2" points="27.9 72.29 18.89 86.3 27.9 100.31 36.9 86.3 27.9 72.29"/><polygon class="cls-2" points="27.9 102.29 18.89 116.3 27.9 130.31 36.9 116.3 27.9 102.29"/><polygon class="cls-2" points="72.9 12.29 63.89 26.3 72.9 40.31 81.9 26.3 72.9 12.29"/><polygon class="cls-2" points="72.9 42.29 63.89 56.3 72.9 70.31 81.9 56.3 72.9 42.29"/><polygon class="cls-2" points="72.9 72.29 63.89 86.3 72.9 100.31 81.9 86.3 72.9 72.29"/><polygon class="cls-2" points="72.9 102.29 63.89 116.3 72.9 130.31 81.9 116.3 72.9 102.29"/><polygon class="cls-2" points="50.81 26.29 41.8 40.3 50.81 54.31 59.81 40.3 50.81 26.29"/><polygon class="cls-2" points="50.81 86.29 41.8 100.3 50.81 114.31 59.81 100.3 50.81 86.29"/></g></svg>