<?xml version="1.0" encoding="UTF-8"?>
<svg className="world_map" width="200px" viewBox="0 0 500 260" enableBackground="new 0 0 500 260" version="1.1" xmlns="http://www.w3.org/2000/svg" xmlnsXlink="http://www.w3.org/1999/xlink" x="0px" y="0px" xmlSpace="preserve">
    <g> <path className="headerMap" fill="#007ED4" d="M163.9,159.4c0.7,2.6,3.2,5.7,5.6,6.9l11.8,5.7c2.4,1.2,3.5,4.1,2.3,6.6l-7.4,15.3c-1.2,2.4-4.3,4.8-7,5.2l-2,0.3c-2.7,0.4-5.3,2.9-5.8,5.5c-0.5,2.6-2.6,6.2-4.6,8l-16.7,14.3c-2.1,1.8-4.8,5.2-6,7.5l-6.6,12.6c-1.3,2.4-0.8,6,1.1,8.1l1.5,1.6c1.8,2,1.2,3-1.4,2.4l-4-1c-2.6-0.7-5.6-3.3-6.6-5.8l-1.1-2.6c-1-2.5-1.3-6.7-0.7-9.4l11.3-45.4c0.6-2.6-0.5-6.3-2.5-8.2l-3.8-3.4c-2-1.8-4.2-5.4-4.9-8.2l-2.9-11.7c-0.7-2.6,0-6.7,1.4-9.1l1.2-1.9c1.4-2.3,1.3-4-0.3-3.8c-1.6,0.2-4.2-1.3-5.9-3.5l-2.2-2.8c-1.7-2.1-4.6-4.7-6.6-5.6c-1.9-1-5.6-2.5-8.3-3.4l-7.2-2.6c-2.5-0.9-5.8-3.5-7.3-5.8l-8.3-13c-1.5-2.3-3.7-6.1-5-8.6l-3.6-6.6c-1.3-2.4-2.3-6.5-2.3-9.4v-11c0-2.7-1.1-6.8-2.5-9.3L47.4,53c-1.4-2.3-4.4-5.4-6.7-6.8l-8.8-5.4c-2.3-1.4-6.1-1.5-8.6-0.2l-2,1.1c-2.4,1.3-6.3,3.4-8.8,4.5L2,51.3c-2.4,1.2-2.7,0.8-0.6-0.9l4.7-3.8c2.1-1.7,2.1-3.5,0-4c-2.1-0.5-4.4-3-5.2-5.6l-0.2-0.5c-0.8-2.6,0.4-6.1,2.5-7.9l1.1-0.9c2.1-1.7,1.9-3.3-0.6-3.7c-2.4-0.3-4-2-3.5-3.8c0.5-1.8,2.3-3.2,4.1-3.2c1.8,0,2-1.8,0.5-4.1l-0.4-0.6C2.9,9.8,3.6,6.9,5.9,5.5l7.4-4.4c2.3-1.4,6.2-1.4,8.6-0.1L42.3,12c2.4,1.3,5.9,0.9,8-1l3.4-3.2c2-1.9,5.5-2.2,7.9-0.9L76,15.5c2.3,1.4,6.4,2.3,9.2,2l34.5-3.7c2.7-0.3,4.9,1.7,4.9,4.4v12.6c0,2.7-2.2,5.4-4.8,5.9l-8.1,1.6c-2.7,0.5-5.6,3-6.6,5.6l-0.1,0.2c-1,2.5-0.2,6.2,1.6,8.3L117,63.5c1.9,2,4.3,3.5,5.4,3.3c1.1-0.2,2.3-2.5,2.7-5.2l1.7-13.3c0.3-2.7,2.8-5,5.5-5.1l1.4-0.1c2.7-0.1,5.7,1.8,6.6,4.4l1.3,3.6c0.9,2.5,3,3.8,4.6,2.9c1.6-1,3.9,0.3,5,2.7l9,20c1.1,2.5,0,5.4-2.5,6.5l-9.3,4.2c-2.5,1.1-6.4,3.1-8.9,4.4l-5.5,3c-2.4,1.3-5.6,4.1-7.2,6.3l-5.4,7.3c-1.6,2.2-2.9,5.7-2.9,7.9c0,2.1-0.9,4-2.1,4.1c-1.1,0.2-2.7-1.6-3.5-3.8c-0.8-2.3-3.6-3.8-6.3-3.4l-6.1,0.9c-2.7,0.4-5.6,2.8-6.5,5.4l-0.2,0.7c-0.9,2.6-0.7,6,0.4,7.7c1.1,1.6,3.4,1.9,5,0.6c1.6-1.3,4.3-2.2,5.9-2.1c1.6,0.2,2.3,2.2,1.5,4.5c-0.8,2.3,0.1,4.3,2.1,4.4c1.9,0.1,4.1,2.2,4.7,4.7c0.6,2.4,2.3,4.8,3.6,5.2c1.3,0.4,3.2-0.5,4.1-2.1c1-1.6,4-2.6,6.6-2.4l13.8,1.4c2.7,0.3,6.7,1.8,8.9,3.4l8,5.9C160.9,153.3,163.2,156.8,163.9,159.4z M447.7,163.2c-1.3-2.4-2.6-2.1-2.9,0.5v0.2c-0.3,2.7-2.5,4.2-4.8,3.3c-2.3-0.8-3.9-2.8-3.4-4.2c0.4-1.5-1.3-2.9-3.9-3.1s-6.2,1.1-8.3,3l-4.8,4.5c-2,1.8-5.7,4.1-8.3,5l-3.5,1.3c-2.5,0.9-4.2,3.9-3.8,6.5l1.4,7.7c0.5,2.7,0.6,5.6,0.3,6.6s0.5,2.3,1.7,3.1s4.5,0.8,7.1,0.2l9.4-2.3c2.6-0.6,6.4-0.2,8.5,1s4.4,1.7,5.4,1.2c1-0.5,2.3,0.6,2.9,2.5c0.6,1.9,3.3,4.1,5.9,4.8h0.1c2.6,0.7,6.3,0.4,8.3-0.8s3.9-4.3,4.4-7l2-11.2c0.5-2.7-0.7-6.4-2.6-8.4l-3.5-3.5c-1.9-1.9-4.5-5.4-5.8-7.9L447.7,163.2z M397.5,146c0.4,1.7,3,3.5,5.6,4l0.3,0.1c2.7,0.5,5.5-1.2,6.4-3.8l1.6-4.9c0.8-2.6,0.9-5.2,0.2-5.8c-0.7-0.6-3.2,0-5.5,1.5l-5.1,3.2C398.6,141.7,397.1,144.3,397.5,146z M433.4,144.8c-2.2,0.2-2.5,2-0.6,3.9l3.6,3.7c1.9,1.9,4.8,3.6,6.4,3.7c1.6,0.1,3.5-0.3,4.2-1c0.7-0.6,3.1,0,5.4,1.5l0.2,0.1c2.3,1.4,3.4,1,2.4-1c-1-2-3.7-4.6-6.2-5.8l-7-3.4C439.4,145.4,435.6,144.6,433.4,144.8z M448.9,59.6c-0.3-1.3-1.2-2.3-1.9-2.3s-1.4,2.2-1.5,4.9l-0.1,4c-0.1,2.7-1.1,6.9-2.2,9.5l-2.7,5.8c-1.2,2.4-3.9,5.8-6.1,7.4l-0.9,0.7c-2.2,1.6-4,4.2-4.2,5.8c-0.1,1.6,1.7,1.8,4,0.4l7.8-4.6c2.3-1.4,4.4-4.7,4.6-7.4v-0.2c0.2-2.7,1.6-6,3.1-7.4c1.5-1.4,1.7-3.3,0.6-4.2c-1.2-0.9-1.6-3.5-1-5.8C449,63.7,449.2,60.8,448.9,59.6z M493.2,200.3c-1.6-1.3-2.6-0.1-2.3,2.6l0.1,1c0.3,2.7-1.1,6.4-3.1,8.4l-4.8,4.5c-2,1.9-1.9,3.5,0.3,3.8c2.1,0.2,5.1-1.5,6.6-3.7l1.5-2.2c1.5-2.3,3.9-5.7,5.4-7.9c1.5-2,1.9-3.7,1-3.8C496.8,202.7,494.7,201.6,493.2,200.3z M229.7,38.5c0.7-2.1,1.2-1.5,1.2,1.2v1.4c0,2.7,1.8,4.2,3.9,3.2c2.1-0.9,4.4-2.5,5-3.4c0.6-0.9,0.1-3.7-1.2-6.1l-3.9-7.5c-1.2-2.4-3.4-3.6-4.8-2.6c-1.4,1-2.4,2.7-2.3,3.9c0.1,1.2-0.9,3.4-2.2,5c-1.3,1.6-2.4,4.2-2.5,5.8c-0.1,1.6,1.1,3,2.7,3C227.2,42.4,229,40.6,229.7,38.5z M305.8,164.7c-2.1,1.7-3.9,5.2-4,8l-0.1,2.7c-0.1,2.7,1,5.4,2.4,6c1.4,0.6,3.2-1,4.1-3.6l1.9-5.6c0.9-2.6,1.3-6.1,0.9-7.9s-2.4-1.8-4.5-0.1L305.8,164.7z M481.2,35.2c-2.6,0.6-4.7,3-4.6,5.4c0.1,2.4-1.2,6.2-2.9,8.4l-3.8,4.7c-1.7,2.1-3.2,1.6-3.2-1.1l-0.1-4c-0.1-2.7,1.3-6.6,3-8.8l6.8-8.3c1.7-2.1,1.3-3.5-0.9-3.2c-2.2,0.3-5.7,2-8,3.7l-2.8,2.3c-2.1,1.7-6,3-8.8,2.8L453,37c-2.7-0.2-6.5,1.2-8.6,3.1l-2.5,2.4c-1.9,1.9-2,4.5-0.1,5.9c1.9,1.4,2.7,4.6,1.8,7.1l-4.7,13.2c-0.9,2.5-3.2,4.9-5.1,5.2c-1.9,0.3-4.4,2-5.6,3.7c-1.2,1.7-1.7,4.9-1.2,7.1c0.5,2.2-0.2,4.6-1.5,5.4c-1.4,0.7-2.8-0.3-3.3-2.3c-0.5-2-1.7-5-2.9-6.6c-1.2-1.6-3.4-1.5-5,0.2c-1.6,1.7-2.2,5.2-1.3,7.8l1.3,3.8c0.9,2.6,0.6,6.6-0.7,9.1l-1.8,3.3c-1.3,2.4-4.6,4.4-7.3,4.6l-4.4,0.2c-2.7,0.1-5.6,1.4-6.4,2.8c-0.8,1.4-0.3,4.3,1.2,6.6l1,1.5c1.5,2.2,1.2,5.4-0.7,7c-1.9,1.6-5,1.3-6.9-0.7l-0.3-0.3c-1.9-2-3.5-2-3.5-0.1c-0.1,1.9,1.3,5,3,7c1.7,1.9,3.6,5.6,4.2,8.4l0.6,2.7c0.6,2.6,2.8,5.4,4.9,6.2c2.1,0.8,5.9,2.2,8.5,3.2l1.3,0.5c2.5,1,2.4,1.5-0.3,1l-9.7-1.7c-2.7-0.5-6.4-2.4-8.5-4.3l-1-0.9c-2-1.9-4.8-5.2-6.4-7.4l-1.7-2.4c-1.6-2.2-0.8-3,1.6-1.8l1.2,0.6c2.4,1.2,3.4,0.3,2.1-2c-1.3-2.3-2.5-6.4-2.7-9.2l-0.1-1.7c-0.2-2.7-1.4-4.7-2.6-4.3c-1.2,0.3-3.1-1.4-4.3-3.9l-1.2-2.6c-1.1-2.5-3.9-3.2-6.1-1.7l-7,4.8c-2.2,1.5-4,4.3-4,6.1c0,1.8-1.2,4.5-2.7,6c-1.5,1.5-3.5,0.6-4.5-1.9l-3.3-8.3c-1-2.5-3.2-6.3-5-8.5l-1.4-1.7c-1.7-2.1-5.3-4.2-8.1-4.7l-8.9-1.7c-2.7-0.5-6-1.9-7.5-3.2c-1.5-1.3-3.3-2-4-1.5c-0.7,0.4-0.5,2.8,0.5,5.3l0.1,0.2c1,2.5,3.3,3.9,5,3c1.7-0.9,4.8-0.2,7,1.4l0.3,0.2c2.2,1.6,2,4.1-0.3,5.5l-15.5,9.3c-2.3,1.4-5.2,0.6-6.5-1.9l-8-15.6c-1.2-2.4-2.8-4.3-3.5-4.2c-0.7,0.1-0.4,2.3,0.7,4.7l8.8,19.9c1.1,2.5,4,3.6,6.4,2.4l3.4-1.6c2.4-1.2,3.8,0,3.1,2.6l-1.1,4c-0.7,2.6-3,6.2-5,8.1l-5,4.5c-2,1.8-3.4,5.5-3.1,8.3l0.8,6.8c0.3,2.7-1,6.1-2.9,7.7s-4.5,4.6-5.8,7l-8.2,15.3c-1.3,2.4-4.5,4.7-7.1,5.2l-3,0.6c-2.7,0.5-5.7-1.2-6.7-3.7l-7.4-18c-1-2.5-1.4-6.7-0.8-9.5l0.6-2.7c0.6-2.6,0.4-6.9-0.4-9.6l-3.9-12.3c-0.8-2.6-3.7-4.5-6.4-4.4l-13.8,0.9c-2.7,0.2-6.5-1.2-8.5-3.1l-6.1-5.9c-1.9-1.9-3.3-5.6-3-8.4l1.2-11.1c0.3-2.7,2-6.6,3.7-8.8l6.5-7.9c1.7-2.1,5.3-4.2,8.1-4.6l15-2.6c2.7-0.5,5.2,0.6,5.6,2.4c0.4,1.8,2.6,4.5,4.9,6l1.8,1.2c2.3,1.5,5,1.5,6,0c1-1.5,4.1-2.1,6.7-1.5l5.8,1.5c2.6,0.7,5.7,0.7,6.7,0c1.1-0.7,2.4-2.5,2.9-4.1c0.5-1.6-1.3-3.2-4-3.7l-0.9-0.1c-2.7-0.4-5.6-2.1-6.6-3.8c-0.9-1.6-2.3-3.2-3-3.6c-0.7-0.4-1.7,1-2.3,3.1c-0.6,2.1-2.2,2.4-3.4,0.8c-1.3-1.6-2.3-4.1-2.2-5.5c0.1-1.4-1.3-3.6-3-5c-1.7-1.4-4-2.9-5-3.4c-1-0.5-1.8,0.2-1.7,1.6c0.1,1.4,1.9,3.7,4.1,5.1c2.2,1.4,3,3.7,1.9,5c-1.1,1.3-3.3,0.7-4.8-1.4s-3.7-4.8-4.8-6.1c-1.1-1.3-4-1.4-6.4-0.1l-0.6,0.3c-2.4,1.2-5.6,4.1-7,6.4l-1.3,2c-1.5,2.3-4.8,3.8-7.5,3.4h-0.3c-2.7-0.4-5-3-5.1-5.7l-0.1-2.6c-0.1-2.7,2-4.8,4.7-4.6l3,0.2c2.7,0.2,4-1.1,2.9-2.9s-2.6-4.5-3.3-5.9c-0.7-1.5,0.9-3.4,3.4-4.2l0.3-0.1c2.6-0.8,5.9-3.1,7.3-5.1c1.5-2,3.6-3.6,4.8-3.7c1.2-0.1,2-1.1,1.7-2.2c-0.3-1.1,0.2-2.9,0.9-3.9c0.8-1,1.9-0.5,2.5,1.2s3.3,3.2,6,3.2l2.3,0.1c2.7,0.1,5.7-1.8,6.6-4.3c0.9-2.4,2.8-4,4.1-3.6c1.3,0.4,2-0.5,1.6-2.2c-0.4-1.6,0.8-3.5,2.8-4.1c2-0.6,3.1-1.8,2.5-2.5c-0.6-0.7-2.6-0.9-4.4-0.4c-1.8,0.5-3.8-0.3-4.4-1.9c-0.6-1.5-1.2-2.8-1.3-2.8s-0.1-0.1,0-0.2c0.1-0.1-0.1-0.7-0.4-1.4c-0.3-0.6,0.1-1.6,0.8-2.1c0.7-0.5,1.8-2.3,2.5-3.9c0.6-1.6,0.6-3-0.1-3.1c-0.7-0.1-2.1,0.9-3.3,2.3c-1.1,1.4-2.8,4.2-3.7,6.2c-0.9,2-0.9,4.6,0.2,5.7c1,1.1,1.1,4.1,0.1,6.6l-0.3,0.8c-1,2.5-3,5.1-4.6,5.7c-1.5,0.6-3.5-1-4.3-3.6l-0.2-0.6c-0.8-2.6-2.9-3.9-4.7-2.8c-1.8,1-4,1.5-4.8,0.9c-0.9-0.5-1.5-3.1-1.4-5.8c0.1-2.7,1.4-5.8,3-7c1.5-1.2,3.6-4.2,4.7-6.7l1-2.4c1-2.5,3.8-5.6,6.2-6.9l3.2-1.8c2.4-1.3,6.5-2,9.3-1.5l20,3.7c2.7,0.5,7,0.7,9.8,0.4L389.7,1c2.7-0.3,7.1-0.2,9.9,0.2l93.1,13.2c2.7,0.4,5.6,2.8,6.5,5.3l0.5,1.5c0.9,2.5-0.3,5.7-2.6,7l-5.3,2.9c-2.4,1.3-6.5,2.8-9.2,3.4L481.2,35.2z M298.4,77.9c0.8-1.3-0.6-3.4-3-4.6l-7.5-3.9c-2.4-1.2-5.5-0.3-6.8,2l-0.1,0.2c-1.3,2.4-1.9,5.2-1.4,6.3c0.5,1.1,3.2,1.7,5.8,1.2c2.6-0.5,6.2-0.3,8.2,0.2C295.5,79.8,297.6,79.2,298.4,77.9z M312.6,85.8c2.4,0.2,4-1.9,3.6-4.5c-0.4-2.7-1.5-5.9-2.3-7.2c-0.9-1.3-0.7-2.7,0.3-3.1c1-0.4,1.9-1.8,1.9-3.1c0-1.3-1.9-1.3-4.3,0l-1.1,0.6c-2.4,1.3-3.6,4.3-2.6,6.7c0.9,2.4,1.4,5.7,0.9,7.3C308.4,84.1,310.1,85.7,312.6,85.8z M178.9,14.2c-1.4-2.3-4.4-4.8-6.8-5.4c-2.4-0.7-5.9,0.4-7.8,2.4l-4,4.3c-1.8,2-2.6,5.7-1.6,8.3L169,50.6c1,2.5,3.2,5,5,5.4c1.8,0.4,3.4-1.4,3.5-4.1l0.1-1.8c0.1-2.7,1.2-5.5,2.4-6.3c1.2-0.8,2.3-2.4,2.3-3.6c0.1-1.2,1.2-4.1,2.4-6.5c1.3-2.4,1.6-5.7,0.7-7.5c-0.9-1.8-2.7-5.1-4.1-7.5L178.9,14.2z"/> </g>
</svg>