<svg xmlns="http://www.w3.org/2000/svg" width="42" height="57.1"><path fill="#00C94C" d="M36 57.1H6c-.3 0-.6-.1-.8-.4s-.2-.5-.2-.8l1-6c.1-.5.5-.8 1-.8h28c.5 0 .9.4 1 .8l1 6c0 .3 0 .6-.2.8-.2.3-.5.4-.8.4zm-28.8-2h27.6l-.7-4H7.8l-.6 4zM1 41.1c-.3 0-.5-.1-.7-.3-.3-.3-.4-.9-.1-1.3l15.6-22.4-6.6-8.4c-.2-.3-.3-.8 0-1.1.2-.4.6-.6 1-.5l11 2.4L27.4.4c.2-.3.6-.5 1-.4.4.1.7.4.8.8l1.9 10.8 10.2 2.5c.4.1.7.4.8.9 0 .4-.2.8-.6 1L32 20.5 33 31c0 .4-.2.8-.6 1-.4.2-.8.1-1.1-.2l-6.9-6.7L1.6 40.9c-.2.1-.4.2-.6.2zM12.5 9.7l5.3 6.8c.3.3.3.8 0 1.2L5 36.1 23.9 23c.4-.3.9-.2 1.3.1l5.6 5.4L30 20c0-.4.2-.8.6-1l7.6-3.6-8.1-2c-.4-.1-.7-.4-.7-.8l-1.5-9-5.2 7.6c-.2.3-.6.5-1 .4l-9.2-1.9z"/><linearGradient id="grad" gradientUnits="userSpaceOnUse" x1="25.5" y1="8.091" x2="25.5" y2="51.091"><stop offset="0" stop-color="#00c94c" stop-opacity="0"/><stop offset="1" stop-color="#00c94c"/></linearGradient><path fill="url(#grad)" d="M21 51.1h-.1c-.4-.1-.7-.3-.8-.7L9 9.4c-.1-.6.2-1.1.7-1.3.6-.1 1.1.2 1.3.7l10.4 38.7 18.8-32.9c.3-.5.9-.6 1.4-.4.5.3.6.9.4 1.4l-20 35c-.3.3-.6.5-1 .5z"/></svg>