<svg xmlns="http://www.w3.org/2000/svg" width="70" height="70"><path fill="#00C94C" d="M30.5 22c-4.7 0-8.5 5.6-8.5 12.5S25.8 47 30.5 47 39 41.4 39 34.5 35.2 22 30.5 22zm0 23C27 45 24 40.2 24 34.5S27 24 30.5 24 37 28.8 37 34.5 34 45 30.5 45zM18 22H6c-.5 0-.9.3-1 .8L3 33.2c-.1.4.1.9.5 1.1.4.2.9.1 1.2-.2C6 32.8 7.7 32 9.5 32c3.6 0 6.5 2.9 6.5 6.5S13.1 45 9.5 45c-2.2 0-4.2-1.1-5.4-2.9-.3-.5-.9-.6-1.4-.3-.5.3-.6.9-.3 1.4C4 45.6 6.6 47 9.5 47c4.7 0 8.5-3.8 8.5-8.5S14.2 30 9.5 30c-1.4 0-2.8.4-4 1l1.4-7H18c.6 0 1-.4 1-1s-.4-1-1-1zM54 27.5c0-3-2.5-5.5-5.5-5.5S43 24.5 43 27.5s2.5 5.5 5.5 5.5 5.5-2.5 5.5-5.5zm-9 0c0-1.9 1.6-3.5 3.5-3.5s3.5 1.6 3.5 3.5-1.6 3.5-3.5 3.5-3.5-1.6-3.5-3.5zM64.6 22.2c-.5-.3-1.1-.2-1.4.2l-16 23c-.3.5-.2 1.1.2 1.4.2.1.4.2.6.2.3 0 .6-.1.8-.4l16-23c.3-.5.2-1.1-.2-1.4zM69 41.5c0-3-2.5-5.5-5.5-5.5S58 38.5 58 41.5s2.5 5.5 5.5 5.5 5.5-2.5 5.5-5.5zM63.5 45c-1.9 0-3.5-1.6-3.5-3.5s1.6-3.5 3.5-3.5 3.5 1.6 3.5 3.5-1.6 3.5-3.5 3.5zM63 5h2v2c0 .6.4 1 1 1s1-.4 1-1V5h2c.6 0 1-.4 1-1s-.4-1-1-1h-2V1c0-.6-.4-1-1-1s-1 .4-1 1v2h-2c-.6 0-1 .4-1 1s.4 1 1 1zM33 10c0 .6.4 1 1 1s1-.4 1-1c.6 0 1-.4 1-1s-.4-1-1-1c0-.6-.4-1-1-1s-1 .4-1 1c-.6 0-1 .4-1 1s.4 1 1 1zM5 7h1v1c0 .6.4 1 1 1s1-.4 1-1V7h1c.6 0 1-.4 1-1s-.4-1-1-1H8V4c0-.6-.4-1-1-1s-1 .4-1 1v1H5c-.6 0-1 .4-1 1s.4 1 1 1zM44 17v-1h1c.6 0 1-.4 1-1s-.4-1-1-1h-1v-1c0-.6-.4-1-1-1s-1 .4-1 1v1h-1c-.6 0-1 .4-1 1s.4 1 1 1h1v1c0 .6.4 1 1 1s1-.4 1-1zM38 58h-2v-2c0-.6-.4-1-1-1s-1 .4-1 1v2h-2c-.6 0-1 .4-1 1s.4 1 1 1h2v2c0 .6.4 1 1 1s1-.4 1-1v-2h2c.6 0 1-.4 1-1s-.4-1-1-1zM31 67c0-.6-.4-1-1-1s-1 .4-1 1c-.6 0-1 .4-1 1s.4 1 1 1c0 .6.4 1 1 1s1-.4 1-1c.6 0 1-.4 1-1s-.4-1-1-1zM18 54h-1v-1c0-.6-.4-1-1-1s-1 .4-1 1v1h-1c-.6 0-1 .4-1 1s.4 1 1 1h1v1c0 .6.4 1 1 1s1-.4 1-1v-1h1c.6 0 1-.4 1-1s-.4-1-1-1zM59 64h-1v-1c0-.6-.4-1-1-1s-1 .4-1 1v1h-1c-.6 0-1 .4-1 1s.4 1 1 1h1v1c0 .6.4 1 1 1s1-.4 1-1v-1h1c.6 0 1-.4 1-1s-.4-1-1-1zM69 53c0-.6-.4-1-1-1s-1 .4-1 1c-.6 0-1 .4-1 1s.4 1 1 1c0 .6.4 1 1 1s1-.4 1-1c.6 0 1-.4 1-1s-.4-1-1-1zM3 59c0-.6-.4-1-1-1s-1 .4-1 1c-.6 0-1 .4-1 1s.4 1 1 1c0 .6.4 1 1 1s1-.4 1-1c.6 0 1-.4 1-1s-.4-1-1-1z"/></svg>