<svg xmlns="http://www.w3.org/2000/svg" width="90" height="54"><path fill="#00C94C" d="M44.9 23c-.3 0-.5-.1-.7-.3l-3-3c-.4-.4-.4-1 0-1.4s1-.4 1.4 0l2.3 2.3 2.3-2.3c.4-.4 1-.4 1.4 0s.4 1 0 1.4l-3 3c-.1.2-.4.3-.7.3zM47.9 36c-.3 0-.5-.1-.7-.3l-2.3-2.3-2.3 2.3c-.4.4-1 .4-1.4 0s-.4-1 0-1.4l3-3c.4-.4 1-.4 1.4 0l3 3c.4.4.4 1 0 1.4-.1.2-.4.3-.7.3z"/><path fill="#00C94C" d="M1 44c-.3 0-.6-.1-.8-.4-.4-.4-.3-1.1.1-1.4l24.3-20.1c3.6-3.1 9-3.5 13.1-.9l15.4 9.9c3.5 2.2 7.9 1.9 10.9-.7L88.3 9.2c.4-.4 1-.3 1.4.1.4.4.3 1-.1 1.4L65.3 31.9c-3.7 3.2-9.1 3.5-13.1.9l-15.4-9.9c-3.4-2.2-7.8-1.9-10.8.7L1.6 43.8c-.1.1-.4.2-.6.2zM43 52h-3v-2h2c.6 0 1-.4 1-1s-.4-1-1-1h-2v-2h3c.6 0 1-.4 1-1s-.4-1-1-1h-4c-.6 0-1 .4-1 1v8c0 .6.4 1 1 1h4c.6 0 1-.4 1-1s-.4-1-1-1zM51 54h-4c-.6 0-1-.4-1-1v-8c0-.6.4-1 1-1s1 .4 1 1v7h3c.6 0 1 .4 1 1s-.4 1-1 1zM59 54h-4c-.6 0-1-.4-1-1v-8c0-.6.4-1 1-1s1 .4 1 1v7h3c.6 0 1 .4 1 1s-.4 1-1 1zM34 54h-3c-.6 0-1-.4-1-1s.4-1 1-1h3v-2h-2c-1.1 0-2-.9-2-2v-2c0-1.1.9-2 2-2h3c.6 0 1 .4 1 1s-.4 1-1 1h-3v2h2c1.1 0 2 .9 2 2v2c0 1.1-.9 2-2 2zM38 4.3V2c0-1.1-.9-2-2-2h-3c-.6 0-1 .4-1 1v8c0 .6.4 1 1 1h4c1.1 0 2-.9 2-2V6c0-.7-.4-1.4-1-1.7zM34 2h2v2h-2V2zm3 6h-3V6h3v2zM47 0c-.6 0-1 .4-1 1v7h-3V1c0-.6-.4-1-1-1s-1 .4-1 1v7c0 1.1.9 2 2 2h3c1.1 0 2-.9 2-2V1c0-.6-.4-1-1-1zM57.5.1c-.5-.2-1.1-.1-1.4.4L54 4.1 51.9.5c-.3-.5-.9-.6-1.4-.4-.5.3-.6.9-.4 1.4L53 6.3V9c0 .6.4 1 1 1s1-.4 1-1V6.3l2.9-4.8c.2-.5.1-1.1-.4-1.4z"/></svg>