<?xml version="1.0" encoding="UTF-8"?>
<!-- Generator: Adobe Illustrator 16.0.0, SVG Export Plug-In . SVG Version: 6.00 Build 0)  -->
<!DOCTYPE svg PUBLIC "-//W3C//DTD SVG 1.1//EN" "http://www.w3.org/Graphics/SVG/1.1/DTD/svg11.dtd">
<svg version="1.1" xmlns="http://www.w3.org/2000/svg" xmlns:xlink="http://www.w3.org/1999/xlink" x="0px" y="0px" width="110px" height="110px" viewBox="0 0 110 110" enable-background="new 0 0 110 110" xml:space="preserve">
<g id="R-Multicolor" display="none">
	<circle display="inline" fill="#0091EA" cx="55" cy="55" r="55"/>
	<g display="inline">
		<rect x="54" y="53.333" fill="#5B5C5F" width="2" height="14"/>
		<path fill="#5B5C5F" d="M66.908,68.765l13.82-14.684c-0.492,0.097-1.008,0.076-1.498-0.098c-0.301-0.107-0.582-0.209-0.863-0.311    L65.455,67.391C66.154,67.554,66.705,68.083,66.908,68.765z"/>
		<path fill="#5B5C5F" d="M44.545,67.391L31.633,53.672c-0.281,0.102-0.563,0.204-0.863,0.311c-0.49,0.174-1.006,0.195-1.498,0.098    l13.82,14.684C43.295,68.083,43.846,67.554,44.545,67.391z"/>
		<path fill="#EDBC7C" d="M69,84.667C69,85.956,67.955,87,66.667,87H43.333C42.045,87,41,85.956,41,84.667V66    c0-1.289,1.045-2.333,2.333-2.333h23.334C67.955,63.667,69,64.711,69,66V84.667z"/>
		<rect x="45" y="67.333" fill="#A97A45" width="20" height="16"/>
		<path fill="#EF5350" d="M55,23.333c0,0-14.62,3.66-15.91,28.44c-3.281,0.282-5.253,1.115-8.32,2.209    c-0.869,0.311-1.83,0.18-2.569-0.35c-0.75-0.52-1.2-1.38-1.2-2.3C27,35.874,39.54,23.333,55,23.333z"/>
		<path fill="#EF5350" d="M83,51.333c0,0.92-0.45,1.78-1.2,2.3c-0.739,0.529-1.7,0.66-2.569,0.35    c-3.067-1.094-5.039-1.928-8.32-2.209C69.62,26.993,55,23.333,55,23.333C70.46,23.333,83,35.874,83,51.333z"/>
		<path fill="#F0F0F0" d="M70.91,51.774c-5.703-0.493-9.211,1.164-14.561,3.08c-0.869,0.31-1.83,0.31-2.699,0    c-5.349-1.915-8.857-3.572-14.561-3.08C40.38,26.993,55,23.333,55,23.333S69.62,26.993,70.91,51.774z"/>
		<line fill="#8F4D38" x1="45" y1="79.162" x2="45" y2="73.506"/>
		<polygon fill="#D4A263" points="65,67.333 63.172,67.333 47.172,83.333 52.828,83.333 65,71.162   "/>
		<polygon fill="#D4A263" points="65,77.506 59.172,83.333 65,83.333   "/>
		<path fill="#E57373" d="M55,23.333c0,0,4.582,1.15,8.842,6.508l3.594-3.594C63.688,24.386,59.468,23.333,55,23.333z"/>
		<path fill="#FFFFFF" d="M55,23.333c0,0-14.62,3.66-15.91,28.44c1.024-0.088,1.961-0.087,2.867-0.048l21.885-21.885    C59.582,24.484,55,23.333,55,23.333z"/>
		<polygon fill="#D4A263" points="51.172,67.333 45,73.506 45,79.162 56.828,67.333   "/>
	</g>
</g>
<g id="Multicolor_1_" display="none">
	<g display="inline">
		<rect x="54" y="53.333" fill="#5B5C5F" width="2" height="14"/>
		<path fill="#5B5C5F" d="M66.908,68.765l13.82-14.684c-0.492,0.097-1.008,0.076-1.498-0.098c-0.301-0.107-0.582-0.209-0.863-0.311    L65.455,67.391C66.154,67.554,66.705,68.083,66.908,68.765z"/>
		<path fill="#5B5C5F" d="M44.545,67.391L31.633,53.672c-0.281,0.102-0.563,0.204-0.863,0.311c-0.49,0.174-1.006,0.195-1.498,0.098    l13.82,14.684C43.295,68.083,43.846,67.554,44.545,67.391z"/>
		<path fill="#EDBC7C" d="M69,84.667C69,85.956,67.955,87,66.667,87H43.333C42.045,87,41,85.956,41,84.667V66    c0-1.289,1.045-2.333,2.333-2.333h23.334C67.955,63.667,69,64.711,69,66V84.667z"/>
		<rect x="45" y="67.333" fill="#A97A45" width="20" height="16"/>
		<path fill="#EF5350" d="M55,23.333c0,0-14.62,3.66-15.91,28.44c-3.281,0.282-5.253,1.115-8.32,2.209    c-0.869,0.311-1.83,0.18-2.569-0.35c-0.75-0.52-1.2-1.38-1.2-2.3C27,35.874,39.54,23.333,55,23.333z"/>
		<path fill="#EF5350" d="M83,51.333c0,0.92-0.45,1.78-1.2,2.3c-0.739,0.529-1.7,0.66-2.569,0.35    c-3.067-1.094-5.039-1.928-8.32-2.209C69.62,26.993,55,23.333,55,23.333C70.46,23.333,83,35.874,83,51.333z"/>
		<path fill="#F0F0F0" d="M70.91,51.774c-5.703-0.493-9.211,1.164-14.561,3.08c-0.869,0.31-1.83,0.31-2.699,0    c-5.349-1.915-8.857-3.572-14.561-3.08C40.38,26.993,55,23.333,55,23.333S69.62,26.993,70.91,51.774z"/>
		<line fill="#8F4D38" x1="45" y1="79.162" x2="45" y2="73.506"/>
		<polygon fill="#D4A263" points="65,67.333 63.172,67.333 47.172,83.333 52.828,83.333 65,71.162   "/>
		<polygon fill="#D4A263" points="65,77.506 59.172,83.333 65,83.333   "/>
		<path fill="#E57373" d="M55,23.333c0,0,4.582,1.15,8.842,6.508l3.594-3.594C63.688,24.386,59.468,23.333,55,23.333z"/>
		<path fill="#FFFFFF" d="M55,23.333c0,0-14.62,3.66-15.91,28.44c1.024-0.088,1.961-0.087,2.867-0.048l21.885-21.885    C59.582,24.484,55,23.333,55,23.333z"/>
		<polygon fill="#D4A263" points="51.172,67.333 45,73.506 45,79.162 56.828,67.333   "/>
	</g>
</g>
<g id="Blue" display="none">
	<g display="inline">
		<g>
			<rect x="54" y="53.334" fill="#0D57A1" width="2" height="14"/>
		</g>
		<g>
			<path fill="#0D57A1" d="M66.908,68.766l13.82-14.684c-0.492,0.097-1.008,0.076-1.498-0.099c-0.301-0.106-0.582-0.21-0.863-0.312     L65.455,67.391C66.154,67.554,66.705,68.083,66.908,68.766z"/>
		</g>
		<g>
			<path fill="#0D57A1" d="M44.545,67.391L31.633,53.672c-0.281,0.103-0.563,0.205-0.863,0.312c-0.49,0.175-1.006,0.195-1.499,0.099     l13.821,14.684C43.295,68.083,43.846,67.554,44.545,67.391z"/>
		</g>
		<g>
			<path fill="#E8EAF6" d="M69,84.667C69,85.955,67.955,87,66.667,87H43.333C42.045,87,41,85.955,41,84.667V66     c0-1.289,1.045-2.333,2.333-2.333h23.334C67.955,63.667,69,64.711,69,66V84.667z"/>
		</g>
		<g>
			<rect x="45" y="67.334" fill="#1565C0" width="20" height="16"/>
		</g>
		<g>
			<path fill="#2979FF" d="M55,23.334c0,0-14.62,3.659-15.91,28.439c-3.281,0.282-5.253,1.115-8.32,2.21     c-0.869,0.311-1.83,0.181-2.569-0.351c-0.75-0.52-1.2-1.379-1.2-2.299C27,35.873,39.54,23.334,55,23.334z"/>
		</g>
		<g>
			<path fill="#2962FF" d="M83,51.334c0,0.92-0.45,1.779-1.2,2.299c-0.739,0.531-1.7,0.661-2.569,0.351     c-3.067-1.095-5.039-1.928-8.32-2.21C69.62,26.993,55,23.334,55,23.334C70.46,23.334,83,35.873,83,51.334z"/>
		</g>
		<g>
			<path fill="#E8EAF6" d="M70.91,51.773c-5.703-0.492-9.211,1.164-14.561,3.08c-0.869,0.311-1.83,0.311-2.699,0     c-5.349-1.915-8.857-3.572-14.561-3.08C40.38,26.993,55,23.334,55,23.334S69.62,26.993,70.91,51.773z"/>
		</g>
		<g>
			<line fill="#0D57A1" x1="45" y1="79.162" x2="45" y2="73.506"/>
		</g>
		<g>
			<polygon fill="#0D57A1" points="65,67.334 63.172,67.334 47.172,83.334 52.828,83.334 65,71.162    "/>
		</g>
		<g>
			<polygon fill="#0D57A1" points="65,77.506 59.172,83.334 65,83.334    "/>
		</g>
		<g>
			<path fill="#2979FF" d="M55,23.334c0,0,4.582,1.15,8.842,6.508l3.594-3.594C63.688,24.386,59.468,23.334,55,23.334z"/>
		</g>
		<g>
			<path fill="#FFFFFF" d="M55,23.334c0,0-14.62,3.66-15.91,28.439c1.024-0.088,1.961-0.087,2.867-0.047l21.885-21.885     C59.582,24.484,55,23.334,55,23.334z"/>
		</g>
		<g>
			<polygon fill="#0D57A1" points="51.172,67.334 45,73.506 45,79.162 56.828,67.334    "/>
		</g>
	</g>
</g>
<g id="R-Blue" display="none">
	<g display="inline">
		<circle fill="#00B0FF" cx="55" cy="55" r="55"/>
	</g>
	<g display="inline">
		<g>
			<rect x="54" y="53.334" fill="#0D57A1" width="2" height="14"/>
		</g>
		<g>
			<path fill="#0D57A1" d="M66.908,68.766l13.82-14.684c-0.492,0.097-1.008,0.076-1.498-0.099c-0.301-0.106-0.582-0.21-0.863-0.312     L65.455,67.391C66.154,67.554,66.705,68.083,66.908,68.766z"/>
		</g>
		<g>
			<path fill="#0D57A1" d="M44.545,67.391L31.633,53.672c-0.281,0.103-0.563,0.205-0.863,0.312c-0.49,0.175-1.006,0.195-1.499,0.099     l13.821,14.684C43.295,68.083,43.846,67.554,44.545,67.391z"/>
		</g>
		<g>
			<path fill="#E8EAF6" d="M69,84.667C69,85.955,67.955,87,66.667,87H43.333C42.045,87,41,85.955,41,84.667V66     c0-1.289,1.045-2.333,2.333-2.333h23.334C67.955,63.667,69,64.711,69,66V84.667z"/>
		</g>
		<g>
			<rect x="45" y="67.334" fill="#1565C0" width="20" height="16"/>
		</g>
		<g>
			<path fill="#2979FF" d="M55,23.334c0,0-14.62,3.659-15.91,28.439c-3.281,0.282-5.253,1.115-8.32,2.21     c-0.869,0.311-1.83,0.181-2.569-0.351c-0.75-0.52-1.2-1.379-1.2-2.299C27,35.873,39.54,23.334,55,23.334z"/>
		</g>
		<g>
			<path fill="#2962FF" d="M83,51.334c0,0.92-0.45,1.779-1.2,2.299c-0.739,0.531-1.7,0.661-2.569,0.351     c-3.067-1.095-5.039-1.928-8.32-2.21C69.62,26.993,55,23.334,55,23.334C70.46,23.334,83,35.873,83,51.334z"/>
		</g>
		<g>
			<path fill="#E8EAF6" d="M70.91,51.773c-5.703-0.492-9.211,1.164-14.561,3.08c-0.869,0.311-1.83,0.311-2.699,0     c-5.349-1.915-8.857-3.572-14.561-3.08C40.38,26.993,55,23.334,55,23.334S69.62,26.993,70.91,51.773z"/>
		</g>
		<g>
			<line fill="#0D57A1" x1="45" y1="79.162" x2="45" y2="73.506"/>
		</g>
		<g>
			<polygon fill="#0D57A1" points="65,67.334 63.172,67.334 47.172,83.334 52.828,83.334 65,71.162    "/>
		</g>
		<g>
			<polygon fill="#0D57A1" points="65,77.506 59.172,83.334 65,83.334    "/>
		</g>
		<g>
			<path fill="#2979FF" d="M55,23.334c0,0,4.582,1.15,8.842,6.508l3.594-3.594C63.688,24.386,59.468,23.334,55,23.334z"/>
		</g>
		<g>
			<path fill="#FFFFFF" d="M55,23.334c0,0-14.62,3.66-15.91,28.439c1.024-0.088,1.961-0.087,2.867-0.047l21.885-21.885     C59.582,24.484,55,23.334,55,23.334z"/>
		</g>
		<g>
			<polygon fill="#0D57A1" points="51.172,67.334 45,73.506 45,79.162 56.828,67.334    "/>
		</g>
	</g>
</g>
<g id="Green" display="none">
	<g display="inline">
		<g>
			<rect x="54" y="53.334" fill="#006E31" width="2" height="14"/>
		</g>
		<g>
			<path fill="#006E31" d="M66.908,68.766l13.82-14.684c-0.492,0.097-1.008,0.076-1.498-0.099c-0.301-0.106-0.582-0.21-0.863-0.312     L65.455,67.391C66.154,67.554,66.705,68.083,66.908,68.766z"/>
		</g>
		<g>
			<path fill="#006E31" d="M44.545,67.391L31.633,53.672c-0.281,0.103-0.563,0.205-0.863,0.312c-0.49,0.175-1.006,0.195-1.499,0.099     l13.821,14.684C43.295,68.083,43.846,67.554,44.545,67.391z"/>
		</g>
		<g>
			<path fill="#ECF5E1" d="M69,84.667C69,85.955,67.955,87,66.667,87H43.333C42.045,87,41,85.955,41,84.667V66     c0-1.289,1.045-2.333,2.333-2.333h23.334C67.955,63.667,69,64.711,69,66V84.667z"/>
		</g>
		<g>
			<rect x="45" y="67.334" fill="#008232" width="20" height="16"/>
		</g>
		<g>
			<path fill="#00C250" d="M55,23.334c0,0-14.62,3.659-15.91,28.439c-3.281,0.282-5.253,1.115-8.32,2.21     c-0.869,0.311-1.83,0.181-2.569-0.351c-0.75-0.52-1.2-1.379-1.2-2.299C27,35.873,39.54,23.334,55,23.334z"/>
		</g>
		<g>
			<path fill="#00A344" d="M83,51.334c0,0.92-0.45,1.779-1.2,2.299c-0.739,0.531-1.7,0.661-2.569,0.351     c-3.067-1.095-5.039-1.928-8.32-2.21C69.62,26.993,55,23.334,55,23.334C70.46,23.334,83,35.873,83,51.334z"/>
		</g>
		<g>
			<path fill="#ECF5E1" d="M70.91,51.773c-5.703-0.492-9.211,1.164-14.561,3.08c-0.869,0.311-1.83,0.311-2.699,0     c-5.349-1.915-8.857-3.572-14.561-3.08C40.38,26.993,55,23.334,55,23.334S69.62,26.993,70.91,51.773z"/>
		</g>
		<g>
			<line fill="#006E31" x1="45" y1="79.162" x2="45" y2="73.506"/>
		</g>
		<g>
			<polygon fill="#006E31" points="65,67.334 63.172,67.334 47.172,83.334 52.828,83.334 65,71.162    "/>
		</g>
		<g>
			<polygon fill="#006E31" points="65,77.506 59.172,83.334 65,83.334    "/>
		</g>
		<g>
			<path fill="#00C250" d="M55,23.334c0,0,4.582,1.15,8.842,6.508l3.594-3.594C63.688,24.386,59.468,23.334,55,23.334z"/>
		</g>
		<g>
			<path fill="#FFFFFF" d="M55,23.334c0,0-14.62,3.66-15.91,28.439c1.024-0.088,1.961-0.087,2.867-0.047l21.885-21.885     C59.582,24.484,55,23.334,55,23.334z"/>
		</g>
		<g>
			<polygon fill="#006E31" points="51.172,67.334 45,73.506 45,79.162 56.828,67.334    "/>
		</g>
	</g>
</g>
<g id="R-Green" display="none">
	<g display="inline">
		<circle fill="#64DD17" cx="55" cy="55" r="55"/>
	</g>
	<g display="inline">
		<g>
			<rect x="54" y="53.334" fill="#006E31" width="2" height="14"/>
		</g>
		<g>
			<path fill="#006E31" d="M66.908,68.766l13.82-14.684c-0.492,0.097-1.008,0.076-1.498-0.099c-0.301-0.106-0.582-0.21-0.863-0.312     L65.455,67.391C66.154,67.554,66.705,68.083,66.908,68.766z"/>
		</g>
		<g>
			<path fill="#006E31" d="M44.545,67.391L31.633,53.672c-0.281,0.103-0.563,0.205-0.863,0.312c-0.49,0.175-1.006,0.195-1.499,0.099     l13.821,14.684C43.295,68.083,43.846,67.554,44.545,67.391z"/>
		</g>
		<g>
			<path fill="#ECF5E1" d="M69,84.667C69,85.955,67.955,87,66.667,87H43.333C42.045,87,41,85.955,41,84.667V66     c0-1.289,1.045-2.333,2.333-2.333h23.334C67.955,63.667,69,64.711,69,66V84.667z"/>
		</g>
		<g>
			<rect x="45" y="67.334" fill="#008232" width="20" height="16"/>
		</g>
		<g>
			<path fill="#00C250" d="M55,23.334c0,0-14.62,3.659-15.91,28.439c-3.281,0.282-5.253,1.115-8.32,2.21     c-0.869,0.311-1.83,0.181-2.569-0.351c-0.75-0.52-1.2-1.379-1.2-2.299C27,35.873,39.54,23.334,55,23.334z"/>
		</g>
		<g>
			<path fill="#00A344" d="M83,51.334c0,0.92-0.45,1.779-1.2,2.299c-0.739,0.531-1.7,0.661-2.569,0.351     c-3.067-1.095-5.039-1.928-8.32-2.21C69.62,26.993,55,23.334,55,23.334C70.46,23.334,83,35.873,83,51.334z"/>
		</g>
		<g>
			<path fill="#ECF5E1" d="M70.91,51.773c-5.703-0.492-9.211,1.164-14.561,3.08c-0.869,0.311-1.83,0.311-2.699,0     c-5.349-1.915-8.857-3.572-14.561-3.08C40.38,26.993,55,23.334,55,23.334S69.62,26.993,70.91,51.773z"/>
		</g>
		<g>
			<line fill="#006E31" x1="45" y1="79.162" x2="45" y2="73.506"/>
		</g>
		<g>
			<polygon fill="#006E31" points="65,67.334 63.172,67.334 47.172,83.334 52.828,83.334 65,71.162    "/>
		</g>
		<g>
			<polygon fill="#006E31" points="65,77.506 59.172,83.334 65,83.334    "/>
		</g>
		<g>
			<path fill="#00C250" d="M55,23.334c0,0,4.582,1.15,8.842,6.508l3.594-3.594C63.688,24.386,59.468,23.334,55,23.334z"/>
		</g>
		<g>
			<path fill="#FFFFFF" d="M55,23.334c0,0-14.62,3.66-15.91,28.439c1.024-0.088,1.961-0.087,2.867-0.047l21.885-21.885     C59.582,24.484,55,23.334,55,23.334z"/>
		</g>
		<g>
			<polygon fill="#006E31" points="51.172,67.334 45,73.506 45,79.162 56.828,67.334    "/>
		</g>
	</g>
</g>
<g id="Red" display="none">
	<g display="inline">
		<g>
			<rect x="54" y="53.334" fill="#7A1C05" width="2" height="14"/>
		</g>
		<g>
			<path fill="#7A1C05" d="M66.908,68.766l13.82-14.684c-0.492,0.097-1.008,0.076-1.498-0.099c-0.301-0.106-0.582-0.21-0.863-0.312     L65.455,67.391C66.154,67.554,66.705,68.083,66.908,68.766z"/>
		</g>
		<g>
			<path fill="#7A1C05" d="M44.545,67.391L31.633,53.672c-0.281,0.103-0.563,0.205-0.863,0.312c-0.49,0.175-1.006,0.195-1.499,0.099     l13.821,14.684C43.295,68.083,43.846,67.554,44.545,67.391z"/>
		</g>
		<g>
			<path fill="#FFE4DE" d="M69,84.667C69,85.955,67.955,87,66.667,87H43.333C42.045,87,41,85.955,41,84.667V66     c0-1.289,1.045-2.333,2.333-2.333h23.334C67.955,63.667,69,64.711,69,66V84.667z"/>
		</g>
		<g>
			<rect x="45" y="67.334" fill="#99412B" width="20" height="16"/>
		</g>
		<g>
			<path fill="#D22600" d="M55,23.334c0,0-14.62,3.659-15.91,28.439c-3.281,0.282-5.253,1.115-8.32,2.21     c-0.869,0.311-1.83,0.181-2.569-0.351c-0.75-0.52-1.2-1.379-1.2-2.299C27,35.873,39.54,23.334,55,23.334z"/>
		</g>
		<g>
			<path fill="#AC2200" d="M83,51.334c0,0.92-0.45,1.779-1.2,2.299c-0.739,0.531-1.7,0.661-2.569,0.351     c-3.067-1.095-5.039-1.928-8.32-2.21C69.62,26.993,55,23.334,55,23.334C70.46,23.334,83,35.873,83,51.334z"/>
		</g>
		<g>
			<path fill="#FFE4DE" d="M70.91,51.773c-5.703-0.492-9.211,1.164-14.561,3.08c-0.869,0.311-1.83,0.311-2.699,0     c-5.349-1.915-8.857-3.572-14.561-3.08C40.38,26.993,55,23.334,55,23.334S69.62,26.993,70.91,51.773z"/>
		</g>
		<g>
			<line fill="#7A1C05" x1="45" y1="79.162" x2="45" y2="73.506"/>
		</g>
		<g>
			<polygon fill="#7A1C05" points="65,67.334 63.172,67.334 47.172,83.334 52.828,83.334 65,71.162    "/>
		</g>
		<g>
			<polygon fill="#7A1C05" points="65,77.506 59.172,83.334 65,83.334    "/>
		</g>
		<g>
			<path fill="#D22600" d="M55,23.334c0,0,4.582,1.15,8.842,6.508l3.594-3.594C63.688,24.386,59.468,23.334,55,23.334z"/>
		</g>
		<g>
			<path fill="#FFFFFF" d="M55,23.334c0,0-14.62,3.66-15.91,28.439c1.024-0.088,1.961-0.087,2.867-0.047l21.885-21.885     C59.582,24.484,55,23.334,55,23.334z"/>
		</g>
		<g>
			<polygon fill="#7A1C05" points="51.172,67.334 45,73.506 45,79.162 56.828,67.334    "/>
		</g>
	</g>
</g>
<g id="R-Red">
	<g>
		<circle fill="#FF5722" cx="55" cy="55" r="55"/>
	</g>
	<g>
		<g>
			<rect x="54" y="53.334" fill="#7A1C05" width="2" height="14"/>
		</g>
		<g>
			<path fill="#7A1C05" d="M66.908,68.766l13.82-14.684c-0.492,0.097-1.008,0.076-1.498-0.099c-0.301-0.106-0.582-0.21-0.863-0.312     L65.455,67.391C66.154,67.554,66.705,68.083,66.908,68.766z"/>
		</g>
		<g>
			<path fill="#7A1C05" d="M44.545,67.391L31.633,53.672c-0.281,0.103-0.563,0.205-0.863,0.312c-0.49,0.175-1.006,0.195-1.499,0.099     l13.821,14.684C43.295,68.083,43.846,67.554,44.545,67.391z"/>
		</g>
		<g>
			<path fill="#FFE4DE" d="M69,84.667C69,85.955,67.955,87,66.667,87H43.333C42.045,87,41,85.955,41,84.667V66     c0-1.289,1.045-2.333,2.333-2.333h23.334C67.955,63.667,69,64.711,69,66V84.667z"/>
		</g>
		<g>
			<rect x="45" y="67.334" fill="#99412B" width="20" height="16"/>
		</g>
		<g>
			<path fill="#D22600" d="M55,23.334c0,0-14.62,3.659-15.91,28.439c-3.281,0.282-5.253,1.115-8.32,2.21     c-0.869,0.311-1.83,0.181-2.569-0.351c-0.75-0.52-1.2-1.379-1.2-2.299C27,35.873,39.54,23.334,55,23.334z"/>
		</g>
		<g>
			<path fill="#AC2200" d="M83,51.334c0,0.92-0.45,1.779-1.2,2.299c-0.739,0.531-1.7,0.661-2.569,0.351     c-3.067-1.095-5.039-1.928-8.32-2.21C69.62,26.993,55,23.334,55,23.334C70.46,23.334,83,35.873,83,51.334z"/>
		</g>
		<g>
			<path fill="#FFE4DE" d="M70.91,51.773c-5.703-0.492-9.211,1.164-14.561,3.08c-0.869,0.311-1.83,0.311-2.699,0     c-5.349-1.915-8.857-3.572-14.561-3.08C40.38,26.993,55,23.334,55,23.334S69.62,26.993,70.91,51.773z"/>
		</g>
		<g>
			<line fill="#7A1C05" x1="45" y1="79.162" x2="45" y2="73.506"/>
		</g>
		<g>
			<polygon fill="#7A1C05" points="65,67.334 63.172,67.334 47.172,83.334 52.828,83.334 65,71.162    "/>
		</g>
		<g>
			<polygon fill="#7A1C05" points="65,77.506 59.172,83.334 65,83.334    "/>
		</g>
		<g>
			<path fill="#D22600" d="M55,23.334c0,0,4.582,1.15,8.842,6.508l3.594-3.594C63.688,24.386,59.468,23.334,55,23.334z"/>
		</g>
		<g>
			<path fill="#FFFFFF" d="M55,23.334c0,0-14.62,3.66-15.91,28.439c1.024-0.088,1.961-0.087,2.867-0.047l21.885-21.885     C59.582,24.484,55,23.334,55,23.334z"/>
		</g>
		<g>
			<polygon fill="#7A1C05" points="51.172,67.334 45,73.506 45,79.162 56.828,67.334    "/>
		</g>
	</g>
</g>
<g id="Yellow" display="none">
	<g display="inline">
		<g>
			<rect x="54" y="53.334" fill="#804B1C" width="2" height="14"/>
		</g>
		<g>
			<path fill="#804B1C" d="M66.908,68.766l13.82-14.684c-0.492,0.097-1.008,0.076-1.498-0.099c-0.301-0.106-0.582-0.21-0.863-0.312     L65.455,67.391C66.154,67.554,66.705,68.083,66.908,68.766z"/>
		</g>
		<g>
			<path fill="#804B1C" d="M44.545,67.391L31.633,53.672c-0.281,0.103-0.563,0.205-0.863,0.312c-0.49,0.175-1.006,0.195-1.499,0.099     l13.821,14.684C43.295,68.083,43.846,67.554,44.545,67.391z"/>
		</g>
		<g>
			<path fill="#FFF4D1" d="M69,84.667C69,85.955,67.955,87,66.667,87H43.333C42.045,87,41,85.955,41,84.667V66     c0-1.289,1.045-2.333,2.333-2.333h23.334C67.955,63.667,69,64.711,69,66V84.667z"/>
		</g>
		<g>
			<rect x="45" y="67.334" fill="#AB6C24" width="20" height="16"/>
		</g>
		<g>
			<path fill="#FF8000" d="M55,23.334c0,0-14.62,3.659-15.91,28.439c-3.281,0.282-5.253,1.115-8.32,2.21     c-0.869,0.311-1.83,0.181-2.569-0.351c-0.75-0.52-1.2-1.379-1.2-2.299C27,35.873,39.54,23.334,55,23.334z"/>
		</g>
		<g>
			<path fill="#FC6100" d="M83,51.334c0,0.92-0.45,1.779-1.2,2.299c-0.739,0.531-1.7,0.661-2.569,0.351     c-3.067-1.095-5.039-1.928-8.32-2.21C69.62,26.993,55,23.334,55,23.334C70.46,23.334,83,35.873,83,51.334z"/>
		</g>
		<g>
			<path fill="#FFF4D1" d="M70.91,51.773c-5.703-0.492-9.211,1.164-14.561,3.08c-0.869,0.311-1.83,0.311-2.699,0     c-5.349-1.915-8.857-3.572-14.561-3.08C40.38,26.993,55,23.334,55,23.334S69.62,26.993,70.91,51.773z"/>
		</g>
		<g>
			<line fill="#804B1C" x1="45" y1="79.162" x2="45" y2="73.506"/>
		</g>
		<g>
			<polygon fill="#804B1C" points="65,67.334 63.172,67.334 47.172,83.334 52.828,83.334 65,71.162    "/>
		</g>
		<g>
			<polygon fill="#804B1C" points="65,77.506 59.172,83.334 65,83.334    "/>
		</g>
		<g>
			<path fill="#FF8000" d="M55,23.334c0,0,4.582,1.15,8.842,6.508l3.594-3.594C63.688,24.386,59.468,23.334,55,23.334z"/>
		</g>
		<g>
			<path fill="#FFFFFF" d="M55,23.334c0,0-14.62,3.66-15.91,28.439c1.024-0.088,1.961-0.087,2.867-0.047l21.885-21.885     C59.582,24.484,55,23.334,55,23.334z"/>
		</g>
		<g>
			<polygon fill="#804B1C" points="51.172,67.334 45,73.506 45,79.162 56.828,67.334    "/>
		</g>
	</g>
</g>
<g id="R-Yellow" display="none">
	<g display="inline">
		<circle fill="#FFD600" cx="55" cy="55" r="55"/>
	</g>
	<g display="inline">
		<g>
			<rect x="54" y="53.334" fill="#804B1C" width="2" height="14"/>
		</g>
		<g>
			<path fill="#804B1C" d="M66.908,68.766l13.82-14.684c-0.492,0.097-1.008,0.076-1.498-0.099c-0.301-0.106-0.582-0.21-0.863-0.312     L65.455,67.391C66.154,67.554,66.705,68.083,66.908,68.766z"/>
		</g>
		<g>
			<path fill="#804B1C" d="M44.545,67.391L31.633,53.672c-0.281,0.103-0.563,0.205-0.863,0.312c-0.49,0.175-1.006,0.195-1.499,0.099     l13.821,14.684C43.295,68.083,43.846,67.554,44.545,67.391z"/>
		</g>
		<g>
			<path fill="#FFF4D1" d="M69,84.667C69,85.955,67.955,87,66.667,87H43.333C42.045,87,41,85.955,41,84.667V66     c0-1.289,1.045-2.333,2.333-2.333h23.334C67.955,63.667,69,64.711,69,66V84.667z"/>
		</g>
		<g>
			<rect x="45" y="67.334" fill="#AB6C24" width="20" height="16"/>
		</g>
		<g>
			<path fill="#FF8000" d="M55,23.334c0,0-14.62,3.659-15.91,28.439c-3.281,0.282-5.253,1.115-8.32,2.21     c-0.869,0.311-1.83,0.181-2.569-0.351c-0.75-0.52-1.2-1.379-1.2-2.299C27,35.873,39.54,23.334,55,23.334z"/>
		</g>
		<g>
			<path fill="#FC6100" d="M83,51.334c0,0.92-0.45,1.779-1.2,2.299c-0.739,0.531-1.7,0.661-2.569,0.351     c-3.067-1.095-5.039-1.928-8.32-2.21C69.62,26.993,55,23.334,55,23.334C70.46,23.334,83,35.873,83,51.334z"/>
		</g>
		<g>
			<path fill="#FFF4D1" d="M70.91,51.773c-5.703-0.492-9.211,1.164-14.561,3.08c-0.869,0.311-1.83,0.311-2.699,0     c-5.349-1.915-8.857-3.572-14.561-3.08C40.38,26.993,55,23.334,55,23.334S69.62,26.993,70.91,51.773z"/>
		</g>
		<g>
			<line fill="#804B1C" x1="45" y1="79.162" x2="45" y2="73.506"/>
		</g>
		<g>
			<polygon fill="#804B1C" points="65,67.334 63.172,67.334 47.172,83.334 52.828,83.334 65,71.162    "/>
		</g>
		<g>
			<polygon fill="#804B1C" points="65,77.506 59.172,83.334 65,83.334    "/>
		</g>
		<g>
			<path fill="#FF8000" d="M55,23.334c0,0,4.582,1.15,8.842,6.508l3.594-3.594C63.688,24.386,59.468,23.334,55,23.334z"/>
		</g>
		<g>
			<path fill="#FFFFFF" d="M55,23.334c0,0-14.62,3.66-15.91,28.439c1.024-0.088,1.961-0.087,2.867-0.047l21.885-21.885     C59.582,24.484,55,23.334,55,23.334z"/>
		</g>
		<g>
			<polygon fill="#804B1C" points="51.172,67.334 45,73.506 45,79.162 56.828,67.334    "/>
		</g>
	</g>
</g>
</svg>