<?xml version="1.0" encoding="UTF-8"?>
<!-- Generator: Adobe Illustrator 16.0.0, SVG Export Plug-In . SVG Version: 6.00 Build 0)  -->
<!DOCTYPE svg PUBLIC "-//W3C//DTD SVG 1.1//EN" "http://www.w3.org/Graphics/SVG/1.1/DTD/svg11.dtd">
<svg version="1.1" xmlns="http://www.w3.org/2000/svg" xmlns:xlink="http://www.w3.org/1999/xlink" x="0px" y="0px" width="110px" height="110px" viewBox="0 0 110 110" enable-background="new 0 0 110 110" xml:space="preserve">
<g id="R-Multicolor" display="none">
	<circle display="inline" fill="#00C853" cx="55" cy="55" r="55"/>
	<g display="inline">
		<rect x="37" y="27" fill="#FFFFFF" width="50" height="60"/>
		<g>
			<path fill="#FFEE58" d="M65.725,73c0,4.418,3.581,8,8,8c4.418,0,8.415-3.602,8-8c-0.423-4.476-3.894-8.042-8-8     C69.306,65.046,65.725,68.582,65.725,73z"/>
			<path fill="#1E88E5" d="M65.725,73c0,4.42,3.58,8,8,8c3.359,0,6.233-2.066,7.42-5l-14.78-6.153     C65.951,70.813,65.725,71.88,65.725,73z"/>
			<path fill="#4DB6AC" d="M65.712,73.003c0,2.82,1.46,5.3,3.667,6.728l4.326-6.82l-7.354-3.061     C65.938,70.816,65.712,71.884,65.712,73.003z"/>
			<path fill="#EF5350" d="M66.364,69.847l7.36,3.067V65C70.424,65,67.591,67,66.364,69.847z"/>
		</g>
		<rect x="77" y="40" fill="#4DB6AC" width="4" height="18"/>
		<rect x="69.712" y="48" fill="#4DB6AC" width="4" height="10"/>
		<g>
			<circle fill="#CFD3D4" cx="60.333" cy="68.167" r="1.5"/>
			<rect x="46.712" y="67.667" fill="#CFD3D4" width="10" height="1"/>
		</g>
		<g>
			<circle fill="#CFD3D4" cx="60.333" cy="73.333" r="1.5"/>
			<rect x="46.712" y="72.833" fill="#CFD3D4" width="10" height="1"/>
		</g>
		<g>
			<circle fill="#CFD3D4" cx="60.333" cy="78.5" r="1.5"/>
			<rect x="46.712" y="78" fill="#CFD3D4" width="10" height="1"/>
		</g>
		<path fill="#733725" d="M39.742,58.021L28.944,68.819c-1.345,1.345-3.522,1.345-4.867,0c-1.344-1.345-1.344-3.522,0-4.866    l10.822-10.822C36.098,55.126,37.758,56.805,39.742,58.021z"/>
		<path fill="#8F4D38" d="M36.992,55.826l-12.951,12.95c-1.308-1.344-1.296-3.491,0.03-4.823l10.828-10.828    C35.489,54.104,36.195,55.011,36.992,55.826z"/>
		<path fill="#FFFFFF" d="M47.4,60.1c-7.995,0-14.5-6.505-14.5-14.5s6.505-14.5,14.5-14.5s14.5,6.505,14.5,14.5    S55.396,60.1,47.4,60.1z"/>
		<path fill="#CFD3D4" d="M47.4,31.088c8.012,0,14.512,6.5,14.512,14.512s-6.5,14.512-14.512,14.512    c-8.041,0-14.512-6.562-14.512-14.512C32.889,37.588,39.389,31.088,47.4,31.088 M47.4,29.1c-9.098,0-16.5,7.402-16.5,16.5    c0,9.099,7.402,16.5,16.5,16.5s16.5-7.401,16.5-16.5C63.9,36.502,56.498,29.1,47.4,29.1L47.4,29.1z"/>
		<circle fill="#90CAF9" cx="47.4" cy="45.6" r="11.559"/>
		<path fill="#BBDEFB" d="M47.4,34.042c-6.383,0-11.559,5.175-11.559,11.558c0,3.158,1.271,6.018,3.323,8.104l16.339-16.339    C53.418,35.312,50.559,34.042,47.4,34.042z"/>
	</g>
</g>
<g id="Multicolor_1_" display="none">
	<g display="inline">
		<rect x="37" y="27" fill="#FFFFFF" width="50" height="60"/>
		<g>
			<path fill="#FFEE58" d="M65.725,73c0,4.418,3.581,8,8,8c4.418,0,8.415-3.602,8-8c-0.423-4.476-3.894-8.042-8-8     C69.306,65.046,65.725,68.582,65.725,73z"/>
			<path fill="#1E88E5" d="M65.725,73c0,4.42,3.58,8,8,8c3.359,0,6.233-2.066,7.42-5l-14.78-6.153     C65.951,70.813,65.725,71.88,65.725,73z"/>
			<path fill="#4DB6AC" d="M65.712,73.003c0,2.82,1.46,5.3,3.667,6.728l4.326-6.82l-7.354-3.061     C65.938,70.816,65.712,71.884,65.712,73.003z"/>
			<path fill="#EF5350" d="M66.364,69.847l7.36,3.067V65C70.424,65,67.591,67,66.364,69.847z"/>
		</g>
		<rect x="77" y="40" fill="#4DB6AC" width="4" height="18"/>
		<rect x="69.712" y="48" fill="#4DB6AC" width="4" height="10"/>
		<g>
			<circle fill="#CFD3D4" cx="60.333" cy="68.167" r="1.5"/>
			<rect x="46.712" y="67.667" fill="#CFD3D4" width="10" height="1"/>
		</g>
		<g>
			<circle fill="#CFD3D4" cx="60.333" cy="73.333" r="1.5"/>
			<rect x="46.712" y="72.833" fill="#CFD3D4" width="10" height="1"/>
		</g>
		<g>
			<circle fill="#CFD3D4" cx="60.333" cy="78.5" r="1.5"/>
			<rect x="46.712" y="78" fill="#CFD3D4" width="10" height="1"/>
		</g>
		<path fill="#733725" d="M39.742,58.021L28.944,68.819c-1.345,1.345-3.522,1.345-4.867,0c-1.344-1.345-1.344-3.522,0-4.866    l10.822-10.822C36.098,55.126,37.758,56.805,39.742,58.021z"/>
		<path fill="#8F4D38" d="M36.992,55.826l-12.951,12.95c-1.308-1.344-1.296-3.491,0.03-4.823l10.828-10.828    C35.489,54.104,36.195,55.011,36.992,55.826z"/>
		<path fill="#FFFFFF" d="M47.4,60.1c-7.995,0-14.5-6.505-14.5-14.5s6.505-14.5,14.5-14.5s14.5,6.505,14.5,14.5    S55.396,60.1,47.4,60.1z"/>
		<path fill="#CFD3D4" d="M47.4,31.088c8.012,0,14.512,6.5,14.512,14.512s-6.5,14.512-14.512,14.512    c-8.041,0-14.512-6.562-14.512-14.512C32.889,37.588,39.389,31.088,47.4,31.088 M47.4,29.1c-9.098,0-16.5,7.402-16.5,16.5    c0,9.099,7.402,16.5,16.5,16.5s16.5-7.401,16.5-16.5C63.9,36.502,56.498,29.1,47.4,29.1L47.4,29.1z"/>
		<circle fill="#90CAF9" cx="47.4" cy="45.6" r="11.559"/>
		<path fill="#BBDEFB" d="M47.4,34.042c-6.383,0-11.559,5.175-11.559,11.558c0,3.158,1.271,6.018,3.323,8.104l16.339-16.339    C53.418,35.312,50.559,34.042,47.4,34.042z"/>
	</g>
</g>
<g id="Blue" display="none">
	<g display="inline">
		<g>
			<rect x="37" y="27" fill="#FFFFFF" width="50" height="60"/>
		</g>
		<g>
			<path fill="#448AFF" d="M65.725,73c0,4.418,3.581,8,8,8c4.418,0,8.415-3.602,8-8c-0.423-4.476-3.894-8.042-8-8     C69.306,65.046,65.725,68.582,65.725,73z"/>
		</g>
		<g>
			<path fill="#2962FF" d="M65.725,73c0,4.42,3.58,8,8,8c3.359,0,6.233-2.066,7.42-5l-14.78-6.153     C65.951,70.813,65.725,71.88,65.725,73z"/>
		</g>
		<g>
			<path fill="#C5CAE9" d="M65.712,73.004c0,2.819,1.46,5.3,3.667,6.727l4.326-6.82l-7.354-3.061     C65.938,70.816,65.712,71.884,65.712,73.004z"/>
		</g>
		<g>
			<path fill="#1565C0" d="M66.364,69.847l7.36,3.067V65C70.424,65,67.591,67,66.364,69.847z"/>
		</g>
		<g>
			<rect x="77" y="40" fill="#2979FF" width="4" height="18"/>
		</g>
		<g>
			<rect x="69.712" y="48" fill="#448AFF" width="4" height="10"/>
		</g>
		<g>
			<circle fill="#448AFF" cx="60.333" cy="68.167" r="1.5"/>
		</g>
		<g>
			<rect x="46.712" y="67.667" fill="#C5CAE9" width="10" height="1"/>
		</g>
		<g>
			<circle fill="#448AFF" cx="60.333" cy="73.334" r="1.5"/>
		</g>
		<g>
			<rect x="46.712" y="72.834" fill="#C5CAE9" width="10" height="1"/>
		</g>
		<g>
			<circle fill="#448AFF" cx="60.333" cy="78.5" r="1.5"/>
		</g>
		<g>
			<rect x="46.712" y="78" fill="#C5CAE9" width="10" height="1"/>
		</g>
		<g>
			<path fill="#1A3B7E" d="M39.742,58.021L28.944,68.819c-1.345,1.345-3.522,1.345-4.867,0c-1.344-1.345-1.344-3.522,0-4.866     l10.822-10.822C36.098,55.126,37.758,56.805,39.742,58.021z"/>
		</g>
		<g>
			<path fill="#0D57A1" d="M36.992,55.826l-12.951,12.95c-1.308-1.344-1.296-3.491,0.03-4.823l10.828-10.828     C35.489,54.104,36.195,55.011,36.992,55.826z"/>
		</g>
		<g>
			<path fill="#FFFFFF" d="M47.4,60.1c-7.995,0-14.5-6.505-14.5-14.5s6.505-14.5,14.5-14.5s14.5,6.505,14.5,14.5     S55.396,60.1,47.4,60.1z"/>
		</g>
		<g>
			<path fill="#1E88E5" d="M47.5,30.988c8.012,0,14.512,6.5,14.512,14.512s-6.5,14.512-14.512,14.512     c-8.041,0-14.512-6.561-14.512-14.512C32.988,37.488,39.488,30.988,47.5,30.988 M47.5,29C38.402,29,31,36.402,31,45.5     C31,54.599,38.402,62,47.5,62S64,54.599,64,45.5C64,36.402,56.598,29,47.5,29L47.5,29z"/>
		</g>
		<g>
			<circle fill="#2979FF" cx="47.4" cy="45.6" r="11.559"/>
		</g>
		<g>
			<path fill="#448AFF" d="M47.4,34.042c-6.383,0-11.559,5.175-11.559,11.558c0,3.158,1.271,6.018,3.323,8.104l16.339-16.339     C53.418,35.312,50.559,34.042,47.4,34.042z"/>
		</g>
	</g>
</g>
<g id="R-Blue">
	<g>
		<circle fill="#00B0FF" cx="55" cy="55" r="55"/>
	</g>
	<g>
		<g>
			<rect x="37" y="27" fill="#FFFFFF" width="50" height="60"/>
		</g>
		<g>
			<path fill="#448AFF" d="M65.725,73c0,4.418,3.581,8,8,8c4.418,0,8.415-3.602,8-8c-0.423-4.476-3.894-8.042-8-8     C69.306,65.046,65.725,68.582,65.725,73z"/>
		</g>
		<g>
			<path fill="#2962FF" d="M65.725,73c0,4.42,3.58,8,8,8c3.359,0,6.233-2.066,7.42-5l-14.78-6.153     C65.951,70.813,65.725,71.88,65.725,73z"/>
		</g>
		<g>
			<path fill="#C5CAE9" d="M65.712,73.004c0,2.819,1.46,5.3,3.667,6.727l4.326-6.82l-7.354-3.061     C65.938,70.816,65.712,71.884,65.712,73.004z"/>
		</g>
		<g>
			<path fill="#1565C0" d="M66.364,69.847l7.36,3.067V65C70.424,65,67.591,67,66.364,69.847z"/>
		</g>
		<g>
			<rect x="77" y="40" fill="#2979FF" width="4" height="18"/>
		</g>
		<g>
			<rect x="69.712" y="48" fill="#448AFF" width="4" height="10"/>
		</g>
		<g>
			<circle fill="#448AFF" cx="60.333" cy="68.167" r="1.5"/>
		</g>
		<g>
			<rect x="46.712" y="67.667" fill="#C5CAE9" width="10" height="1"/>
		</g>
		<g>
			<circle fill="#448AFF" cx="60.333" cy="73.334" r="1.5"/>
		</g>
		<g>
			<rect x="46.712" y="72.834" fill="#C5CAE9" width="10" height="1"/>
		</g>
		<g>
			<circle fill="#448AFF" cx="60.333" cy="78.5" r="1.5"/>
		</g>
		<g>
			<rect x="46.712" y="78" fill="#C5CAE9" width="10" height="1"/>
		</g>
		<g>
			<path fill="#1A3B7E" d="M39.742,58.021L28.944,68.819c-1.345,1.345-3.522,1.345-4.867,0c-1.344-1.345-1.344-3.522,0-4.866     l10.822-10.822C36.098,55.126,37.758,56.805,39.742,58.021z"/>
		</g>
		<g>
			<path fill="#0D57A1" d="M36.992,55.826l-12.951,12.95c-1.308-1.344-1.296-3.491,0.03-4.823l10.828-10.828     C35.489,54.104,36.195,55.011,36.992,55.826z"/>
		</g>
		<g>
			<path fill="#FFFFFF" d="M47.4,60.1c-7.995,0-14.5-6.505-14.5-14.5s6.505-14.5,14.5-14.5s14.5,6.505,14.5,14.5     S55.396,60.1,47.4,60.1z"/>
		</g>
		<g>
			<path fill="#1E88E5" d="M47.5,30.988c8.012,0,14.512,6.5,14.512,14.512s-6.5,14.512-14.512,14.512     c-8.041,0-14.512-6.561-14.512-14.512C32.988,37.488,39.488,30.988,47.5,30.988 M47.5,29C38.402,29,31,36.402,31,45.5     C31,54.599,38.402,62,47.5,62S64,54.599,64,45.5C64,36.402,56.598,29,47.5,29L47.5,29z"/>
		</g>
		<g>
			<circle fill="#2979FF" cx="47.4" cy="45.6" r="11.559"/>
		</g>
		<g>
			<path fill="#448AFF" d="M47.4,34.042c-6.383,0-11.559,5.175-11.559,11.558c0,3.158,1.271,6.018,3.323,8.104l16.339-16.339     C53.418,35.312,50.559,34.042,47.4,34.042z"/>
		</g>
	</g>
</g>
<g id="Green" display="none">
	<g display="inline">
		<g>
			<rect x="37" y="27" fill="#FFFFFF" width="50" height="60"/>
		</g>
		<g>
			<path fill="#00E676" d="M65.725,73c0,4.418,3.581,8,8,8c4.418,0,8.415-3.602,8-8c-0.423-4.476-3.894-8.042-8-8     C69.306,65.046,65.725,68.582,65.725,73z"/>
		</g>
		<g>
			<path fill="#00A344" d="M65.725,73c0,4.42,3.58,8,8,8c3.359,0,6.233-2.066,7.42-5l-14.78-6.153     C65.951,70.813,65.725,71.88,65.725,73z"/>
		</g>
		<g>
			<path fill="#C5EB98" d="M65.712,73.004c0,2.819,1.46,5.3,3.667,6.727l4.326-6.82l-7.354-3.061     C65.938,70.816,65.712,71.884,65.712,73.004z"/>
		</g>
		<g>
			<path fill="#008232" d="M66.364,69.847l7.36,3.067V65C70.424,65,67.591,67,66.364,69.847z"/>
		</g>
		<g>
			<rect x="77" y="40" fill="#00C250" width="4" height="18"/>
		</g>
		<g>
			<rect x="69.712" y="48" fill="#00E676" width="4" height="10"/>
		</g>
		<g>
			<circle fill="#00E676" cx="60.333" cy="68.167" r="1.5"/>
		</g>
		<g>
			<rect x="46.712" y="67.667" fill="#C5EB98" width="10" height="1"/>
		</g>
		<g>
			<circle fill="#00E676" cx="60.333" cy="73.334" r="1.5"/>
		</g>
		<g>
			<rect x="46.712" y="72.834" fill="#C5EB98" width="10" height="1"/>
		</g>
		<g>
			<circle fill="#00E676" cx="60.333" cy="78.5" r="1.5"/>
		</g>
		<g>
			<rect x="46.712" y="78" fill="#C5EB98" width="10" height="1"/>
		</g>
		<g>
			<path fill="#003B15" d="M39.742,58.021L28.944,68.819c-1.345,1.345-3.522,1.345-4.867,0c-1.344-1.345-1.344-3.522,0-4.866     l10.822-10.822C36.098,55.126,37.758,56.805,39.742,58.021z"/>
		</g>
		<g>
			<path fill="#006E31" d="M36.992,55.826l-12.951,12.95c-1.308-1.344-1.296-3.491,0.03-4.823l10.828-10.828     C35.489,54.104,36.195,55.011,36.992,55.826z"/>
		</g>
		<g>
			<path fill="#FFFFFF" d="M47.4,60.1c-7.995,0-14.5-6.505-14.5-14.5s6.505-14.5,14.5-14.5s14.5,6.505,14.5,14.5     S55.396,60.1,47.4,60.1z"/>
		</g>
		<g>
			<path fill="#56C435" d="M47.5,30.988c8.012,0,14.512,6.5,14.512,14.512s-6.5,14.512-14.512,14.512     c-8.041,0-14.512-6.561-14.512-14.512C32.988,37.488,39.488,30.988,47.5,30.988 M47.5,29C38.402,29,31,36.402,31,45.5     C31,54.599,38.402,62,47.5,62S64,54.599,64,45.5C64,36.402,56.598,29,47.5,29L47.5,29z"/>
		</g>
		<g>
			<circle fill="#00C250" cx="47.4" cy="45.6" r="11.559"/>
		</g>
		<g>
			<path fill="#00E676" d="M47.4,34.042c-6.383,0-11.559,5.175-11.559,11.558c0,3.158,1.271,6.018,3.323,8.104l16.339-16.339     C53.418,35.312,50.559,34.042,47.4,34.042z"/>
		</g>
	</g>
</g>
<g id="R-Green" display="none">
	<g display="inline">
		<circle fill="#64DD17" cx="55" cy="55" r="55"/>
	</g>
	<g display="inline">
		<g>
			<rect x="37" y="27" fill="#FFFFFF" width="50" height="60"/>
		</g>
		<g>
			<path fill="#00E676" d="M65.725,73c0,4.418,3.581,8,8,8c4.418,0,8.415-3.602,8-8c-0.423-4.476-3.894-8.042-8-8     C69.306,65.046,65.725,68.582,65.725,73z"/>
		</g>
		<g>
			<path fill="#00A344" d="M65.725,73c0,4.42,3.58,8,8,8c3.359,0,6.233-2.066,7.42-5l-14.78-6.153     C65.951,70.813,65.725,71.88,65.725,73z"/>
		</g>
		<g>
			<path fill="#C5EB98" d="M65.712,73.004c0,2.819,1.46,5.3,3.667,6.727l4.326-6.82l-7.354-3.061     C65.938,70.816,65.712,71.884,65.712,73.004z"/>
		</g>
		<g>
			<path fill="#008232" d="M66.364,69.847l7.36,3.067V65C70.424,65,67.591,67,66.364,69.847z"/>
		</g>
		<g>
			<rect x="77" y="40" fill="#00C250" width="4" height="18"/>
		</g>
		<g>
			<rect x="69.712" y="48" fill="#00E676" width="4" height="10"/>
		</g>
		<g>
			<circle fill="#00E676" cx="60.333" cy="68.167" r="1.5"/>
		</g>
		<g>
			<rect x="46.712" y="67.667" fill="#C5EB98" width="10" height="1"/>
		</g>
		<g>
			<circle fill="#00E676" cx="60.333" cy="73.334" r="1.5"/>
		</g>
		<g>
			<rect x="46.712" y="72.834" fill="#C5EB98" width="10" height="1"/>
		</g>
		<g>
			<circle fill="#00E676" cx="60.333" cy="78.5" r="1.5"/>
		</g>
		<g>
			<rect x="46.712" y="78" fill="#C5EB98" width="10" height="1"/>
		</g>
		<g>
			<path fill="#003B15" d="M39.742,58.021L28.944,68.819c-1.345,1.345-3.522,1.345-4.867,0c-1.344-1.345-1.344-3.522,0-4.866     l10.822-10.822C36.098,55.126,37.758,56.805,39.742,58.021z"/>
		</g>
		<g>
			<path fill="#006E31" d="M36.992,55.826l-12.951,12.95c-1.308-1.344-1.296-3.491,0.03-4.823l10.828-10.828     C35.489,54.104,36.195,55.011,36.992,55.826z"/>
		</g>
		<g>
			<path fill="#FFFFFF" d="M47.4,60.1c-7.995,0-14.5-6.505-14.5-14.5s6.505-14.5,14.5-14.5s14.5,6.505,14.5,14.5     S55.396,60.1,47.4,60.1z"/>
		</g>
		<g>
			<path fill="#56C435" d="M47.5,30.988c8.012,0,14.512,6.5,14.512,14.512s-6.5,14.512-14.512,14.512     c-8.041,0-14.512-6.561-14.512-14.512C32.988,37.488,39.488,30.988,47.5,30.988 M47.5,29C38.402,29,31,36.402,31,45.5     C31,54.599,38.402,62,47.5,62S64,54.599,64,45.5C64,36.402,56.598,29,47.5,29L47.5,29z"/>
		</g>
		<g>
			<circle fill="#00C250" cx="47.4" cy="45.6" r="11.559"/>
		</g>
		<g>
			<path fill="#00E676" d="M47.4,34.042c-6.383,0-11.559,5.175-11.559,11.558c0,3.158,1.271,6.018,3.323,8.104l16.339-16.339     C53.418,35.312,50.559,34.042,47.4,34.042z"/>
		</g>
	</g>
</g>
<g id="Red" display="none">
	<g display="inline">
		<g>
			<rect x="37" y="27" fill="#FFFFFF" width="50" height="60"/>
		</g>
		<g>
			<path fill="#FF2F00" d="M65.725,73c0,4.418,3.581,8,8,8c4.418,0,8.415-3.602,8-8c-0.423-4.476-3.894-8.042-8-8     C69.306,65.046,65.725,68.582,65.725,73z"/>
		</g>
		<g>
			<path fill="#AC2200" d="M65.725,73c0,4.42,3.58,8,8,8c3.359,0,6.233-2.066,7.42-5l-14.78-6.153     C65.951,70.813,65.725,71.88,65.725,73z"/>
		</g>
		<g>
			<path fill="#FFC7B2" d="M65.712,73.004c0,2.819,1.46,5.3,3.667,6.727l4.326-6.82l-7.354-3.061     C65.938,70.816,65.712,71.884,65.712,73.004z"/>
		</g>
		<g>
			<path fill="#99412B" d="M66.364,69.847l7.36,3.067V65C70.424,65,67.591,67,66.364,69.847z"/>
		</g>
		<g>
			<rect x="77" y="40" fill="#D22600" width="4" height="18"/>
		</g>
		<g>
			<rect x="69.712" y="48" fill="#FF2F00" width="4" height="10"/>
		</g>
		<g>
			<circle fill="#FF2F00" cx="60.333" cy="68.167" r="1.5"/>
		</g>
		<g>
			<rect x="46.712" y="67.667" fill="#FFC7B2" width="10" height="1"/>
		</g>
		<g>
			<circle fill="#FF2F00" cx="60.333" cy="73.334" r="1.5"/>
		</g>
		<g>
			<rect x="46.712" y="72.834" fill="#FFC7B2" width="10" height="1"/>
		</g>
		<g>
			<circle fill="#FF2F00" cx="60.333" cy="78.5" r="1.5"/>
		</g>
		<g>
			<rect x="46.712" y="78" fill="#FFC7B2" width="10" height="1"/>
		</g>
		<g>
			<path fill="#2C0900" d="M39.742,58.021L28.944,68.819c-1.345,1.345-3.522,1.345-4.867,0c-1.344-1.345-1.344-3.522,0-4.866     l10.822-10.822C36.098,55.126,37.758,56.805,39.742,58.021z"/>
		</g>
		<g>
			<path fill="#7A1C05" d="M36.992,55.826l-12.951,12.95c-1.308-1.344-1.296-3.491,0.03-4.823l10.828-10.828     C35.489,54.104,36.195,55.011,36.992,55.826z"/>
		</g>
		<g>
			<path fill="#FFFFFF" d="M47.4,60.1c-7.995,0-14.5-6.505-14.5-14.5s6.505-14.5,14.5-14.5s14.5,6.505,14.5,14.5     S55.396,60.1,47.4,60.1z"/>
		</g>
		<g>
			<path fill="#DE5735" d="M47.5,30.988c8.012,0,14.512,6.5,14.512,14.512s-6.5,14.512-14.512,14.512     c-8.041,0-14.512-6.561-14.512-14.512C32.988,37.488,39.488,30.988,47.5,30.988 M47.5,29C38.402,29,31,36.402,31,45.5     C31,54.599,38.402,62,47.5,62S64,54.599,64,45.5C64,36.402,56.598,29,47.5,29L47.5,29z"/>
		</g>
		<g>
			<circle fill="#D22600" cx="47.4" cy="45.6" r="11.559"/>
		</g>
		<g>
			<path fill="#FF2F00" d="M47.4,34.042c-6.383,0-11.559,5.175-11.559,11.558c0,3.158,1.271,6.018,3.323,8.104l16.339-16.339     C53.418,35.312,50.559,34.042,47.4,34.042z"/>
		</g>
	</g>
</g>
<g id="R-Red" display="none">
	<g display="inline">
		<circle fill="#FF5722" cx="55" cy="55" r="55"/>
	</g>
	<g display="inline">
		<g>
			<rect x="37" y="27" fill="#FFFFFF" width="50" height="60"/>
		</g>
		<g>
			<path fill="#FF2F00" d="M65.725,73c0,4.418,3.581,8,8,8c4.418,0,8.415-3.602,8-8c-0.423-4.476-3.894-8.042-8-8     C69.306,65.046,65.725,68.582,65.725,73z"/>
		</g>
		<g>
			<path fill="#AC2200" d="M65.725,73c0,4.42,3.58,8,8,8c3.359,0,6.233-2.066,7.42-5l-14.78-6.153     C65.951,70.813,65.725,71.88,65.725,73z"/>
		</g>
		<g>
			<path fill="#FFC7B2" d="M65.712,73.004c0,2.819,1.46,5.3,3.667,6.727l4.326-6.82l-7.354-3.061     C65.938,70.816,65.712,71.884,65.712,73.004z"/>
		</g>
		<g>
			<path fill="#99412B" d="M66.364,69.847l7.36,3.067V65C70.424,65,67.591,67,66.364,69.847z"/>
		</g>
		<g>
			<rect x="77" y="40" fill="#D22600" width="4" height="18"/>
		</g>
		<g>
			<rect x="69.712" y="48" fill="#FF2F00" width="4" height="10"/>
		</g>
		<g>
			<circle fill="#FF2F00" cx="60.333" cy="68.167" r="1.5"/>
		</g>
		<g>
			<rect x="46.712" y="67.667" fill="#FFC7B2" width="10" height="1"/>
		</g>
		<g>
			<circle fill="#FF2F00" cx="60.333" cy="73.334" r="1.5"/>
		</g>
		<g>
			<rect x="46.712" y="72.834" fill="#FFC7B2" width="10" height="1"/>
		</g>
		<g>
			<circle fill="#FF2F00" cx="60.333" cy="78.5" r="1.5"/>
		</g>
		<g>
			<rect x="46.712" y="78" fill="#FFC7B2" width="10" height="1"/>
		</g>
		<g>
			<path fill="#2C0900" d="M39.742,58.021L28.944,68.819c-1.345,1.345-3.522,1.345-4.867,0c-1.344-1.345-1.344-3.522,0-4.866     l10.822-10.822C36.098,55.126,37.758,56.805,39.742,58.021z"/>
		</g>
		<g>
			<path fill="#7A1C05" d="M36.992,55.826l-12.951,12.95c-1.308-1.344-1.296-3.491,0.03-4.823l10.828-10.828     C35.489,54.104,36.195,55.011,36.992,55.826z"/>
		</g>
		<g>
			<path fill="#FFFFFF" d="M47.4,60.1c-7.995,0-14.5-6.505-14.5-14.5s6.505-14.5,14.5-14.5s14.5,6.505,14.5,14.5     S55.396,60.1,47.4,60.1z"/>
		</g>
		<g>
			<path fill="#DE5735" d="M47.5,30.988c8.012,0,14.512,6.5,14.512,14.512s-6.5,14.512-14.512,14.512     c-8.041,0-14.512-6.561-14.512-14.512C32.988,37.488,39.488,30.988,47.5,30.988 M47.5,29C38.402,29,31,36.402,31,45.5     C31,54.599,38.402,62,47.5,62S64,54.599,64,45.5C64,36.402,56.598,29,47.5,29L47.5,29z"/>
		</g>
		<g>
			<circle fill="#D22600" cx="47.4" cy="45.6" r="11.559"/>
		</g>
		<g>
			<path fill="#FF2F00" d="M47.4,34.042c-6.383,0-11.559,5.175-11.559,11.558c0,3.158,1.271,6.018,3.323,8.104l16.339-16.339     C53.418,35.312,50.559,34.042,47.4,34.042z"/>
		</g>
	</g>
</g>
<g id="Yellow" display="none">
	<g display="inline">
		<g>
			<rect x="37" y="27" fill="#FFFFFF" width="50" height="60"/>
		</g>
		<g>
			<path fill="#FFAA00" d="M65.725,73c0,4.418,3.581,8,8,8c4.418,0,8.415-3.602,8-8c-0.423-4.476-3.894-8.042-8-8     C69.306,65.046,65.725,68.582,65.725,73z"/>
		</g>
		<g>
			<path fill="#FC6100" d="M65.725,73c0,4.42,3.58,8,8,8c3.359,0,6.233-2.066,7.42-5l-14.78-6.153     C65.951,70.813,65.725,71.88,65.725,73z"/>
		</g>
		<g>
			<path fill="#FFEBB8" d="M65.712,73.004c0,2.819,1.46,5.3,3.667,6.727l4.326-6.82l-7.354-3.061     C65.938,70.816,65.712,71.884,65.712,73.004z"/>
		</g>
		<g>
			<path fill="#AB6C24" d="M66.364,69.847l7.36,3.067V65C70.424,65,67.591,67,66.364,69.847z"/>
		</g>
		<g>
			<rect x="77" y="40" fill="#FF8000" width="4" height="18"/>
		</g>
		<g>
			<rect x="69.712" y="48" fill="#FFAA00" width="4" height="10"/>
		</g>
		<g>
			<circle fill="#FFAA00" cx="60.333" cy="68.167" r="1.5"/>
		</g>
		<g>
			<rect x="46.712" y="67.667" fill="#FFEBB8" width="10" height="1"/>
		</g>
		<g>
			<circle fill="#FFAA00" cx="60.333" cy="73.334" r="1.5"/>
		</g>
		<g>
			<rect x="46.712" y="72.834" fill="#FFEBB8" width="10" height="1"/>
		</g>
		<g>
			<circle fill="#FFAA00" cx="60.333" cy="78.5" r="1.5"/>
		</g>
		<g>
			<rect x="46.712" y="78" fill="#FFEBB8" width="10" height="1"/>
		</g>
		<g>
			<path fill="#4C2720" d="M39.742,58.021L28.944,68.819c-1.345,1.345-3.522,1.345-4.867,0c-1.344-1.345-1.344-3.522,0-4.866     l10.822-10.822C36.098,55.126,37.758,56.805,39.742,58.021z"/>
		</g>
		<g>
			<path fill="#804B1C" d="M36.992,55.826l-12.951,12.95c-1.308-1.344-1.296-3.491,0.03-4.823l10.828-10.828     C35.489,54.104,36.195,55.011,36.992,55.826z"/>
		</g>
		<g>
			<path fill="#FFFFFF" d="M47.4,60.1c-7.995,0-14.5-6.505-14.5-14.5s6.505-14.5,14.5-14.5s14.5,6.505,14.5,14.5     S55.396,60.1,47.4,60.1z"/>
		</g>
		<g>
			<path fill="#F7B90C" d="M47.5,30.988c8.012,0,14.512,6.5,14.512,14.512s-6.5,14.512-14.512,14.512     c-8.041,0-14.512-6.561-14.512-14.512C32.988,37.488,39.488,30.988,47.5,30.988 M47.5,29C38.402,29,31,36.402,31,45.5     C31,54.599,38.402,62,47.5,62S64,54.599,64,45.5C64,36.402,56.598,29,47.5,29L47.5,29z"/>
		</g>
		<g>
			<circle fill="#FF8000" cx="47.4" cy="45.6" r="11.559"/>
		</g>
		<g>
			<path fill="#FFAA00" d="M47.4,34.042c-6.383,0-11.559,5.175-11.559,11.558c0,3.158,1.271,6.018,3.323,8.104l16.339-16.339     C53.418,35.312,50.559,34.042,47.4,34.042z"/>
		</g>
	</g>
</g>
<g id="R-Yellow" display="none">
	<g display="inline">
		<circle fill="#FFD600" cx="55" cy="55" r="55"/>
	</g>
	<g display="inline">
		<g>
			<rect x="37" y="27" fill="#FFFFFF" width="50" height="60"/>
		</g>
		<g>
			<path fill="#FFAA00" d="M65.725,73c0,4.418,3.581,8,8,8c4.418,0,8.415-3.602,8-8c-0.423-4.476-3.894-8.042-8-8     C69.306,65.046,65.725,68.582,65.725,73z"/>
		</g>
		<g>
			<path fill="#FC6100" d="M65.725,73c0,4.42,3.58,8,8,8c3.359,0,6.233-2.066,7.42-5l-14.78-6.153     C65.951,70.813,65.725,71.88,65.725,73z"/>
		</g>
		<g>
			<path fill="#FFEBB8" d="M65.712,73.004c0,2.819,1.46,5.3,3.667,6.727l4.326-6.82l-7.354-3.061     C65.938,70.816,65.712,71.884,65.712,73.004z"/>
		</g>
		<g>
			<path fill="#AB6C24" d="M66.364,69.847l7.36,3.067V65C70.424,65,67.591,67,66.364,69.847z"/>
		</g>
		<g>
			<rect x="77" y="40" fill="#FF8000" width="4" height="18"/>
		</g>
		<g>
			<rect x="69.712" y="48" fill="#FFAA00" width="4" height="10"/>
		</g>
		<g>
			<circle fill="#FFAA00" cx="60.333" cy="68.167" r="1.5"/>
		</g>
		<g>
			<rect x="46.712" y="67.667" fill="#FFEBB8" width="10" height="1"/>
		</g>
		<g>
			<circle fill="#FFAA00" cx="60.333" cy="73.334" r="1.5"/>
		</g>
		<g>
			<rect x="46.712" y="72.834" fill="#FFEBB8" width="10" height="1"/>
		</g>
		<g>
			<circle fill="#FFAA00" cx="60.333" cy="78.5" r="1.5"/>
		</g>
		<g>
			<rect x="46.712" y="78" fill="#FFEBB8" width="10" height="1"/>
		</g>
		<g>
			<path fill="#4C2720" d="M39.742,58.021L28.944,68.819c-1.345,1.345-3.522,1.345-4.867,0c-1.344-1.345-1.344-3.522,0-4.866     l10.822-10.822C36.098,55.126,37.758,56.805,39.742,58.021z"/>
		</g>
		<g>
			<path fill="#804B1C" d="M36.992,55.826l-12.951,12.95c-1.308-1.344-1.296-3.491,0.03-4.823l10.828-10.828     C35.489,54.104,36.195,55.011,36.992,55.826z"/>
		</g>
		<g>
			<path fill="#FFFFFF" d="M47.4,60.1c-7.995,0-14.5-6.505-14.5-14.5s6.505-14.5,14.5-14.5s14.5,6.505,14.5,14.5     S55.396,60.1,47.4,60.1z"/>
		</g>
		<g>
			<path fill="#F7B90C" d="M47.5,30.988c8.012,0,14.512,6.5,14.512,14.512s-6.5,14.512-14.512,14.512     c-8.041,0-14.512-6.561-14.512-14.512C32.988,37.488,39.488,30.988,47.5,30.988 M47.5,29C38.402,29,31,36.402,31,45.5     C31,54.599,38.402,62,47.5,62S64,54.599,64,45.5C64,36.402,56.598,29,47.5,29L47.5,29z"/>
		</g>
		<g>
			<circle fill="#FF8000" cx="47.4" cy="45.6" r="11.559"/>
		</g>
		<g>
			<path fill="#FFAA00" d="M47.4,34.042c-6.383,0-11.559,5.175-11.559,11.558c0,3.158,1.271,6.018,3.323,8.104l16.339-16.339     C53.418,35.312,50.559,34.042,47.4,34.042z"/>
		</g>
	</g>
</g>
</svg>