<svg xmlns="http://www.w3.org/2000/svg" width="180" height="160" viewBox="0 0 180 160"><path stroke="#010101" stroke-linecap="round" stroke-linejoin="round" stroke-miterlimit="10" fill="none" d="M104.5 108h-25.5v-34.5h19.5l6 6zM91 73.5v3h1.5v7.5h-4.5v-7.5"/><path fill="#010101" d="M91 81h-1.5v1.5h1.5z"/><path stroke="#010101" stroke-linecap="round" stroke-linejoin="round" stroke-miterlimit="10" fill="none" d="M89.5 87h1.5M89.5 90h1.5M89.5 93h1.5M89.5 96h1.5M89.5 99h1.5M89.5 102h1.5M89.5 105h1.5M91 88.5h1.5M91 91.5h1.5M91 94.5h1.5M91 97.5h1.5M91 100.5h1.5M91 103.5h1.5M16.468 20h6.75M16.468 24.5h12M16.468 29h9M16.468 33.5h7.5"/><path stroke="#010101" stroke-linejoin="round" stroke-miterlimit="10" d="M38.215 45.449s8.25-6 8.25-10.445c0-5.128-6.75-6.75-8.25-.512-1.5-6.238-8.25-4.616-8.25.512 0 4.445 8.25 10.445 8.25 10.445z" fill="none"/><g stroke="#010101" stroke-linejoin="round" stroke-miterlimit="10" fill="none"><path d="M29.971 42.5h-17.971v-31.5h16.5l7.5 7.5v8.25"/><path stroke-linecap="round" d="M28.5 11v7.5h7.5"/></g><g stroke="#010101" stroke-linecap="round" stroke-linejoin="round" stroke-miterlimit="10" fill="none"><path d="M43 108.5h-28.5v-34.5h19.5l9 9zM34 74v9h9"/></g><path stroke="#010101" stroke-linecap="round" stroke-linejoin="round" stroke-miterlimit="10" fill="none" d="M20.5 84.5h7.5M20.5 89h13.5M20.5 93.5h3M20.5 98h3M20.5 102.5h3"/><path stroke="#010101" stroke-linecap="round" stroke-linejoin="round" stroke-miterlimit="10" fill="none" d="M28.063 104h8.937l-3.718-6zM28 93.5h9v10.5h-9z"/><path fill="#010101" d="M31 95.75c-.413 0-.75.336-.75.75s.337.75.75.75c.415 0 .75-.336.75-.75s-.335-.75-.75-.75z"/><g stroke="#010101" stroke-linecap="round" stroke-linejoin="round" stroke-miterlimit="10" fill="none"><path d="M106.5 45h-28.5v-34.5h19.5l9 9zM97.5 10.5v9h9"/><path d="M96.75 26.498l-4.5 8.25-3-3-3.75 7.5h15zM90 23.498c0 1.242-1.011 2.25-2.25 2.25-1.245 0-2.25-1.008-2.25-2.25 0-1.241 1.005-2.25 2.25-2.25 1.239 0 2.25 1.009 2.25 2.25z"/></g><path stroke="#010101" stroke-linecap="round" stroke-linejoin="round" stroke-miterlimit="10" d="M162.156 31.861c-.252-1.119-.82-1.861-2.039-1.861-1.887 0-2.215 1.779-2.215 3.976s.328 3.976 2.215 3.976c1.572 0 2.062-1.234 2.183-2.918h-2.165M151.051 30l2.199 7.779 2.199-7.779M144.357 36.09c.061 1.038.869 1.861 1.856 1.861 1.03 0 1.863-.891 1.863-1.989 0-1.62-1.534-1.893-1.86-1.986-.324-.095-1.859-.369-1.859-1.987 0-1.1.832-1.988 1.859-1.988.99 0 1.801.823 1.86 1.86" fill="none"/><g stroke="#010101" stroke-linecap="round" stroke-linejoin="round" stroke-miterlimit="10" fill="none"><path d="M167.5 45h-28.5v-34.5h19.5l9 9zM158.5 10.5v9h9"/></g><g stroke="#010101" stroke-linejoin="round" stroke-miterlimit="10" fill="none"><path d="M155.75 98.5h14.25v-18l-7.5-7.5h-12v21"/><path stroke-linecap="round" d="M162.5 73v7.5h7.5"/><path d="M135.5 97h6v10.5h-6z"/><path stroke-linecap="round" d="M141.5 106h25.5c0-2.25-5.25-4.5-11.25-4.5h-10.5"/><path d="M141.5 98.5h5.25c3.529 0 5.25 2.25 6 3"/></g><g enable-background="new" fill="#888688"><path d="M14.436 149.5v-8h5.241v.888h-4.246v2.579h4.162v.887h-4.162v3.646h-.995zM21.047 149.5v-8h.996v8h-.996zM23.784 149.5v-8h.995v7.112h3.718v.888h-4.713zM29.832 149.5v-8h5.241v.888h-4.246v2.579h4.162v.887h-4.162v2.759h4.246v.888h-5.241zM36.179 148.373l.6-.768c.516.6 1.379 1.151 2.506 1.151 1.427 0 1.883-.768 1.883-1.392 0-2.062-4.737-.911-4.737-3.766 0-1.319 1.175-2.231 2.759-2.231 1.211 0 2.159.42 2.83 1.128l-.6.731c-.6-.672-1.439-.96-2.314-.96-.948 0-1.643.516-1.643 1.271 0 1.799 4.737.768 4.737 3.754 0 1.151-.792 2.351-2.951 2.351-1.378.002-2.41-.526-3.07-1.269z"/></g><g enable-background="new" fill="#888688"><path d="M115.826 149.25v-2.027h-3.802v-.827l3.431-5.146h1.367v5.098h1.127v.875h-1.127v2.027h-.996zm0-7.076l-2.807 4.174h2.807v-4.174zM118.684 148.074l.588-.623c.469.623 1.283 1.056 2.231 1.056 1.163 0 1.87-.588 1.87-1.5 0-.995-.814-1.415-1.99-1.415-.336 0-.707 0-.828.012v-.911c.133.012.504.012.828.012 1.008 0 1.859-.396 1.859-1.319 0-.887-.816-1.367-1.787-1.367-.876 0-1.523.336-2.111.972l-.552-.623c.575-.708 1.499-1.235 2.747-1.235 1.535 0 2.698.779 2.698 2.122 0 1.164-.972 1.739-1.716 1.859.721.072 1.848.684 1.848 1.979 0 1.332-1.08 2.303-2.842 2.303-1.355-.002-2.351-.602-2.843-1.322zM125.368 148.074l.588-.623c.468.623 1.283 1.056 2.23 1.056 1.163 0 1.871-.588 1.871-1.5 0-.995-.815-1.415-1.991-1.415-.336 0-.707 0-.827.012v-.911c.132.012.504.012.827.012 1.008 0 1.859-.396 1.859-1.319 0-.887-.815-1.367-1.787-1.367-.875 0-1.523.336-2.111.972l-.551-.623c.575-.708 1.499-1.235 2.746-1.235 1.535 0 2.699.779 2.699 2.122 0 1.164-.973 1.739-1.716 1.859.72.072 1.847.684 1.847 1.979 0 1.332-1.079 2.303-2.842 2.303-1.355-.002-2.351-.602-2.842-1.322zM135.748 149.25v-8h.996v8h-.996zM138.292 145.256c0-2.458 1.812-4.138 4.114-4.138 1.414 0 2.398.672 3.033 1.583l-.827.468c-.456-.684-1.296-1.163-2.206-1.163-1.752 0-3.083 1.331-3.083 3.25 0 1.896 1.331 3.251 3.083 3.251.91 0 1.75-.492 2.206-1.164l.84.456c-.672.924-1.632 1.595-3.046 1.595-2.302 0-4.114-1.679-4.114-4.138zM146.404 145.256c0-2.362 1.606-4.138 3.969-4.138 2.363 0 3.982 1.775 3.982 4.138s-1.619 4.138-3.982 4.138c-2.362 0-3.969-1.775-3.969-4.138zm6.92 0c0-1.871-1.164-3.25-2.951-3.25-1.799 0-2.938 1.379-2.938 3.25 0 1.859 1.139 3.251 2.938 3.251 1.787 0 2.951-1.392 2.951-3.251zM161.568 149.25l-4.665-6.381v6.381h-.995v-8h1.02l4.605 6.249v-6.249h.994v8h-.959zM163.924 148.123l.6-.768c.516.6 1.379 1.151 2.507 1.151 1.427 0 1.883-.768 1.883-1.392 0-2.062-4.737-.911-4.737-3.766 0-1.319 1.176-2.231 2.759-2.231 1.211 0 2.158.42 2.83 1.128l-.6.731c-.6-.672-1.439-.96-2.314-.96-.948 0-1.644.516-1.644 1.271 0 1.799 4.737.768 4.737 3.754 0 1.151-.791 2.351-2.95 2.351-1.38.002-2.411-.526-3.071-1.269z"/></g></svg>