<?xml version="1.0" encoding="UTF-8"?>
<!-- Generator: Adobe Illustrator 16.2.1, SVG Export Plug-In . SVG Version: 6.00 Build 0)  -->
<!DOCTYPE svg PUBLIC "-//W3C//DTD SVG 1.1//EN" "http://www.w3.org/Graphics/SVG/1.1/DTD/svg11.dtd">
<svg version="1.1" id="Layer_1" xmlns="http://www.w3.org/2000/svg" xmlns:xlink="http://www.w3.org/1999/xlink" x="0px" y="0px" width="180px" height="160px" viewBox="0 0 180 160" enable-background="new 0 0 180 160" xml:space="preserve">
<g enable-background="new    ">
	<path fill="#888688" d="M14.436,149.5v-8h3.214c1.607,0,2.506,1.104,2.506,2.411c0,1.307-0.912,2.409-2.506,2.409h-2.219v3.18   H14.436z M19.125,143.911c0-0.899-0.648-1.522-1.595-1.522h-2.099v3.047h2.099C18.477,145.436,19.125,144.811,19.125,143.911z    M21.479,149.5v-8h5.241v0.889h-4.246v2.578h4.162v0.887h-4.162v2.76h4.246v0.888L21.479,149.5L21.479,149.5z M27.983,145.506   c0-2.361,1.607-4.138,3.97-4.138c2.363,0,3.982,1.774,3.982,4.138s-1.619,4.139-3.982,4.139   C29.59,149.645,27.983,147.869,27.983,145.506z M34.903,145.506c0-1.871-1.163-3.25-2.95-3.25c-1.799,0-2.938,1.379-2.938,3.25   c0,1.859,1.14,3.251,2.938,3.251C33.74,148.757,34.903,147.365,34.903,145.506z M37.487,149.5v-8h3.214   c1.607,0,2.506,1.104,2.506,2.411c0,1.307-0.912,2.409-2.506,2.409h-2.219v3.18H37.487z M42.177,143.911   c0-0.899-0.648-1.522-1.595-1.522h-2.099v3.047h2.099C41.529,145.436,42.177,144.811,42.177,143.911z M44.399,149.5v-8h0.995v7.111   h3.718v0.889H44.399L44.399,149.5z M50.447,149.5v-8h5.241v0.889h-4.246v2.578h4.162v0.887h-4.162v2.76h4.246v0.888L50.447,149.5   L50.447,149.5z"/>
</g>
<g enable-background="new    ">
	<path fill="#888688" d="M116.699,149.25v-6.691l-1.268,1.366l-0.593-0.61l1.979-2.063h0.863v8L116.699,149.25L116.699,149.25z    M122.74,149.25v-2.027h-3.754v-0.826l3.387-5.146h1.35v5.098h1.113v0.875h-1.113v2.027H122.74z M122.74,142.174l-2.771,4.174   h2.771V142.174z M125.998,148.111l0.604-0.672c0.521,0.684,1.222,1.065,2.181,1.065c1.077,0,1.823-0.743,1.823-1.715   c0-1.056-0.746-1.728-1.812-1.728c-0.688,0-1.291,0.229-1.824,0.744l-0.722-0.252v-4.307h4.831v0.888h-3.85v2.782   c0.393-0.383,1.055-0.719,1.849-0.719c1.325,0,2.522,0.898,2.522,2.555c0,1.619-1.232,2.639-2.818,2.639   C127.455,149.395,126.59,148.902,125.998,148.111L125.998,148.111z M136.195,149.25v-8h0.984v8H136.195z M138.708,145.256   c0-2.459,1.788-4.137,4.062-4.137c1.396,0,2.369,0.671,2.996,1.582l-0.816,0.469c-0.45-0.684-1.279-1.164-2.18-1.164   c-1.729,0-3.043,1.332-3.043,3.25c0,1.896,1.314,3.25,3.043,3.25c0.899,0,1.729-0.49,2.18-1.162l0.828,0.455   c-0.664,0.924-1.61,1.596-3.008,1.596C140.496,149.395,138.708,147.715,138.708,145.256z M146.715,145.256   c0-2.361,1.587-4.137,3.92-4.137c2.332,0,3.932,1.773,3.932,4.137s-1.6,4.139-3.932,4.139   C148.302,149.395,146.715,147.619,146.715,145.256z M153.547,145.256c0-1.871-1.148-3.25-2.912-3.25c-1.775,0-2.9,1.379-2.9,3.25   c0,1.859,1.125,3.25,2.9,3.25C152.398,148.506,153.547,147.115,153.547,145.256z M161.686,149.25l-4.605-6.381v6.381h-0.982v-8   h1.008l4.547,6.249v-6.249h0.981v8H161.686z M164.009,148.123l0.593-0.768c0.51,0.6,1.361,1.149,2.476,1.149   c1.407,0,1.858-0.769,1.858-1.392c0-2.062-4.678-0.911-4.678-3.766c0-1.32,1.16-2.229,2.723-2.229c1.197,0,2.133,0.419,2.795,1.127   l-0.592,0.731c-0.592-0.672-1.42-0.961-2.285-0.961c-0.936,0-1.623,0.517-1.623,1.271c0,1.799,4.679,0.768,4.679,3.754   c0,1.15-0.781,2.352-2.913,2.352C165.68,149.395,164.66,148.866,164.009,148.123L164.009,148.123z"/>
</g>
<g>
	<g>
		
			<circle fill="none" stroke="#010101" stroke-linecap="round" stroke-linejoin="round" stroke-miterlimit="10" cx="150.083" cy="25.561" r="13.5"/>
		<path fill="none" stroke="#010101" stroke-linecap="round" stroke-linejoin="round" stroke-miterlimit="10" d="M159.628,35.106    l11.455,11.455"/>
	</g>
	<path fill="none" stroke="#010101" stroke-linejoin="round" stroke-miterlimit="10" d="M158.298,32.272l-5.965-2.478v-2.663    M147.833,27.248v2.546l-6,2.415"/>
	
		<ellipse fill="none" stroke="#010101" stroke-linejoin="round" stroke-miterlimit="10" cx="150.021" cy="22.119" rx="4.795" ry="5.756"/>
	<path fill="none" stroke="#010101" stroke-linejoin="round" stroke-miterlimit="10" d="M154.771,21.372l-0.525,0.04   c-1.562,0.3-2.564-0.266-3.426-1.771c-0.519,0.989-2.129,1.771-3.453,1.771c-0.654,0-1.459-0.164-2.021-0.457"/>
</g>
<g>
	<path fill="none" stroke="#010101" stroke-linejoin="round" stroke-miterlimit="10" d="M88.579,107.508h13.504   c0,0,0-5.027-0.711-7.172c-0.619-1.865-5.095-3.113-9.789-4.883v-3.75c0,0,1.5-0.93,1.5-4.5c1.5,0,1.5-3,0-3   c0-0.35,1.617-2.518,1.125-4.5c-0.711-2.856-9.227-2.856-9.938,0c-3.554-0.713-1.688,4.021-1.688,4.5v3c0,3.57,3,4.5,3,4.5v3.75   c-4.168,1.584-9.172,3.018-9.789,4.883c-0.711,2.145-0.711,7.172-0.711,7.172H88.579z"/>
	<path fill="none" stroke="#010101" stroke-linecap="round" stroke-linejoin="round" stroke-miterlimit="10" d="M105.833,107.508   h3.75c0,0,0-5.027-0.711-7.172c-0.619-1.865-5.095-3.863-9.789-5.633v-2.25c0,0,1.5-0.93,1.5-4.5c1.5,0,1.5-3,0-3   c0-0.35,1.617-2.793,1.125-4.775c-0.332-1.336-3.188-3.446-5.438-1.946"/>
</g>
<g>
	<path fill="none" stroke="#010101" stroke-linecap="round" stroke-linejoin="round" stroke-miterlimit="10" d="M82.583,23.561   c0,0.828,0.671,1.5,1.5,1.5h1.5l4.5,4.5v-4.5h10.5c0.828,0,1.5-0.672,1.5-1.5v-10.5c0-0.827-0.672-1.5-1.5-1.5h-16.5   c-0.829,0-1.5,0.673-1.5,1.5V23.561z"/>
	
		<circle fill="none" stroke="#010101" stroke-linecap="round" stroke-linejoin="round" stroke-miterlimit="10" cx="103.583" cy="31.833" r="3.75"/>
	<path fill="none" stroke="#010101" stroke-linecap="round" stroke-linejoin="round" stroke-miterlimit="10" d="M109.583,41.583h-12   c0-3.313,2.687-6,6-6S109.583,38.27,109.583,41.583z"/>
	
		<circle fill="none" stroke="#010101" stroke-linecap="round" stroke-linejoin="round" stroke-miterlimit="10" cx="81.083" cy="31.833" r="3.75"/>
	<path fill="none" stroke="#010101" stroke-linecap="round" stroke-linejoin="round" stroke-miterlimit="10" d="M87.083,41.583h-12   c0-3.313,2.686-6,6-6S87.083,38.27,87.083,41.583z"/>
	
		<circle fill="none" stroke="#010101" stroke-linecap="round" stroke-linejoin="round" stroke-miterlimit="10" cx="92.333" cy="36.333" r="3.75"/>
	<path fill="none" stroke="#010101" stroke-linecap="round" stroke-linejoin="round" stroke-miterlimit="10" d="M98.333,46.083h-12   c0-3.313,2.686-6,6-6C95.646,40.083,98.333,42.77,98.333,46.083z M87.083,14.561h10.453 M87.083,17.561h10.453 M87.083,20.561   h10.453"/>
</g>
<circle fill="none" stroke="#010101" stroke-linejoin="round" stroke-miterlimit="10" cx="21.583" cy="16.311" r="5.25"/>
<path fill="none" stroke="#010101" stroke-linejoin="round" stroke-miterlimit="10" d="M29.833,24.561h-16.5  c0,6.104,2.459,9.663,5.25,11.25v9.75h6v-9.75C27.37,34.224,29.833,30.664,29.833,24.561z M22.333,24.561h-1.5l-0.75,9l1.5,1.5  l1.5-1.5L22.333,24.561z"/>
<path fill="none" stroke="#010101" stroke-linecap="round" stroke-linejoin="round" stroke-miterlimit="10" d="M31.271,13.873  l5.718,5.719 M36.989,13.873l-5.718,5.719"/>
<circle fill="none" stroke="#010101" stroke-linecap="round" stroke-linejoin="round" stroke-miterlimit="10" cx="44.083" cy="27.561" r="3"/>
<path fill="none" stroke="#010101" stroke-linecap="round" stroke-linejoin="round" stroke-miterlimit="10" d="M34.356,27.9  c2.279-4.59,6.313-8.155,11.224-9.816 M41.083,17.154l4.497,0.93l-1.802,3.922"/>
<g>
	<path fill="none" stroke="#010101" stroke-linejoin="round" stroke-miterlimit="10" d="M33.583,80.061h13.5v25.5h-34.5v-25.5h13.5"/>
	<circle fill="none" stroke="#010101" stroke-linejoin="round" stroke-miterlimit="10" cx="22.333" cy="93.561" r="3"/>
	<path fill="none" stroke="#010101" stroke-linejoin="round" stroke-miterlimit="10" d="M22.333,96.561c-3.75,0-5.25,2.25-5.25,4.5   h10.5C27.583,98.811,26.083,96.561,22.333,96.561z M33.583,83.061h-7.5v-6c0-2.062,1.688-3.75,3.75-3.75s3.75,1.688,3.75,3.75   V83.061z M12.583,86.061h34.5 M31.333,99.561h12 M31.333,96.561h12 M31.333,93.561h12 M31.333,90.561h6"/>
	<path fill="none" stroke="#010101" stroke-linejoin="round" stroke-miterlimit="10" d="M30.583,77.054   c0,0.414-0.335,0.75-0.75,0.75c-0.414,0-0.75-0.336-0.75-0.75c0-0.415,0.336-0.75,0.75-0.75   C30.248,76.304,30.583,76.639,30.583,77.054z"/>
</g>
<g>
	<path fill="none" stroke="#000000" stroke-linecap="round" stroke-linejoin="round" stroke-miterlimit="10" d="M149.987,96.666   l-9.511,2.633c-2.342,0.877-3.893,3.117-3.893,5.617v3.75h34.499v-3.75c0-2.5-1.55-4.74-3.894-5.617l-9.536-2.633"/>
	<path fill="none" stroke="#000000" stroke-linecap="round" stroke-linejoin="round" stroke-miterlimit="10" d="M149.334,87.67   c0-0.83,0.671-0.75,1.5-0.75c0.828,0,1.5-0.08,1.5,0.75"/>
	<path fill="none" stroke="#000000" stroke-linecap="round" stroke-linejoin="round" stroke-miterlimit="10" d="M155.333,87.67   c0-0.83,0.672-0.75,1.5-0.75c0.829,0,1.5-0.08,1.5,0.75"/>
	<path fill="none" stroke="#000000" stroke-linecap="round" stroke-linejoin="round" stroke-miterlimit="10" d="M146.334,82.416   v3.75c-2.25,0-2.25,4.5,0,4.5c0,4.5,5.25,7.5,7.499,7.5"/>
	<path fill="none" stroke="#000000" stroke-linecap="round" stroke-linejoin="round" stroke-miterlimit="10" d="M161.333,82.416   v3.75c2.25,0,2.25,4.5,0,4.5c0,4.5-5.25,7.5-7.5,7.5"/>
	<polygon fill="none" stroke="#000000" stroke-linecap="round" stroke-linejoin="round" stroke-miterlimit="10" points="   153.833,80.167 171.083,77.167 153.833,74.167 136.584,77.167  "/>
	<path fill="none" stroke="#000000" stroke-linecap="round" stroke-linejoin="round" stroke-miterlimit="10" d="M146.334,78.863   v3.553c0,0,2.25,2.25,7.499,2.25c5.25,0,7.5-2.25,7.5-2.25v-3.553"/>
	
		<line fill="none" stroke="#000000" stroke-linecap="round" stroke-linejoin="round" stroke-miterlimit="10" x1="140.334" y1="77.818" x2="140.334" y2="83.166"/>
	<polyline fill="none" stroke="#000000" stroke-linecap="round" stroke-linejoin="round" stroke-miterlimit="10" points="   140.334,83.166 138.084,93.666 142.584,93.666 140.334,83.166  "/>
	<polyline fill="none" stroke="#000000" stroke-linecap="round" stroke-linejoin="round" stroke-miterlimit="10" points="   145.958,97.791 153.833,105.666 161.723,97.777  "/>
</g>
</svg>