<svg xmlns="http://www.w3.org/2000/svg" width="180" height="160" viewBox="0 0 180 160"><g enable-background="new" fill="#888688"><path d="M14.436 149.5v-8h3.562c1.391 0 2.243.84 2.243 2.039 0 1.008-.671 1.68-1.403 1.835.852.132 1.559 1.008 1.559 1.967 0 1.283-.851 2.159-2.314 2.159h-3.647zm4.773-5.816c0-.72-.48-1.296-1.379-1.296h-2.398v2.579h2.398c.899 0 1.379-.552 1.379-1.283zm.156 3.549c0-.731-.504-1.38-1.475-1.38h-2.458v2.759h2.458c.923 0 1.475-.527 1.475-1.379zM21.983 146.394v-4.894h1.007v4.87c0 1.463.78 2.387 2.255 2.387s2.267-.924 2.267-2.387v-4.87h1.007v4.882c0 1.991-1.103 3.262-3.274 3.262-2.158 0-3.262-1.284-3.262-3.25zM29.916 148.373l.6-.768c.516.6 1.379 1.151 2.506 1.151 1.427 0 1.883-.768 1.883-1.392 0-2.062-4.737-.911-4.737-3.766 0-1.319 1.175-2.231 2.759-2.231 1.211 0 2.159.42 2.83 1.128l-.6.731c-.6-.672-1.439-.96-2.314-.96-.948 0-1.643.516-1.643 1.271 0 1.799 4.737.768 4.737 3.754 0 1.151-.792 2.351-2.951 2.351-1.379.002-2.411-.526-3.07-1.269zM37.427 149.5v-8h.996v8h-.996zM45.956 149.5l-4.665-6.381v6.381h-.996v-8h1.02l4.605 6.249v-6.249h.995v8h-.959zM48.791 149.5v-8h5.241v.888h-4.246v2.579h4.162v.887h-4.162v2.759h4.246v.888h-5.241zM55.139 148.373l.6-.768c.516.6 1.379 1.151 2.506 1.151 1.427 0 1.883-.768 1.883-1.392 0-2.062-4.737-.911-4.737-3.766 0-1.319 1.175-2.231 2.759-2.231 1.211 0 2.159.42 2.83 1.128l-.6.731c-.6-.672-1.439-.96-2.314-.96-.948 0-1.643.516-1.643 1.271 0 1.799 4.737.768 4.737 3.754 0 1.151-.792 2.351-2.951 2.351-1.378.002-2.41-.526-3.07-1.269zM62.171 148.373l.6-.768c.516.6 1.379 1.151 2.507 1.151 1.427 0 1.883-.768 1.883-1.392 0-2.062-4.737-.911-4.737-3.766 0-1.319 1.175-2.231 2.759-2.231 1.211 0 2.159.42 2.83 1.128l-.6.731c-.6-.672-1.439-.96-2.314-.96-.948 0-1.643.516-1.643 1.271 0 1.799 4.737.768 4.737 3.754 0 1.151-.792 2.351-2.951 2.351-1.38.002-2.411-.526-3.071-1.269z"/></g><g enable-background="new" fill="#888688"><path d="M120.537 149.25l3.186-7.112h-4.251v-.888h5.388v.684l-3.232 7.316h-1.091zM126.199 148.422l.497-.743c.403.479.876.815 1.693.815 1.599 0 2.226-1.619 2.226-3.143l-.012-.311c-.343.551-1.219 1.246-2.226 1.246-1.421 0-2.593-.852-2.593-2.555 0-1.379 1.041-2.613 2.771-2.613 2.202 0 3.055 1.954 3.055 4.137 0 2.159-1.007 4.126-3.221 4.126-1.006.001-1.693-.395-2.19-.959zm4.381-4.197c-.095-.983-.615-2.219-1.989-2.219-1.208 0-1.812.924-1.812 1.691 0 1.176.805 1.727 1.824 1.727.782 0 1.551-.491 1.977-1.199zM136.196 149.25v-8h.983v8h-.983zM138.708 145.256c0-2.459 1.788-4.137 4.062-4.137 1.396 0 2.368.671 2.996 1.582l-.817.469c-.45-.684-1.279-1.164-2.179-1.164-1.729 0-3.043 1.332-3.043 3.25 0 1.896 1.314 3.25 3.043 3.25.899 0 1.729-.491 2.179-1.162l.829.455c-.664.924-1.611 1.596-3.008 1.596-2.274 0-4.062-1.68-4.062-4.139zM146.715 145.256c0-2.362 1.587-4.137 3.92-4.137 2.332 0 3.931 1.774 3.931 4.137 0 2.363-1.599 4.139-3.931 4.139-2.333 0-3.92-1.776-3.92-4.139zm6.832 0c0-1.871-1.148-3.25-2.912-3.25-1.776 0-2.901 1.379-2.901 3.25 0 1.859 1.125 3.25 2.901 3.25 1.763 0 2.912-1.391 2.912-3.25zM161.686 149.25l-4.606-6.381v6.381h-.982v-8h1.007l4.547 6.249v-6.249h.982v8h-.948zM164.009 148.123l.593-.768c.509.6 1.361 1.15 2.475 1.15 1.408 0 1.858-.768 1.858-1.391 0-2.062-4.677-.912-4.677-3.766 0-1.32 1.16-2.23 2.723-2.23 1.196 0 2.132.419 2.795 1.127l-.592.731c-.592-.672-1.421-.96-2.285-.96-.936 0-1.623.516-1.623 1.271 0 1.799 4.678.768 4.678 3.754 0 1.151-.781 2.352-2.913 2.352-1.362.002-2.381-.527-3.032-1.27z"/></g><g stroke="#010101" stroke-linecap="round" stroke-linejoin="round" stroke-miterlimit="10" fill="none"><path d="M46.833 41.2c0 1.658-1.344 3-3 3h-28.5c-1.656 0-3-1.342-3-3v-27c0-1.655 1.344-3 3-3h28.5c1.656 0 3 1.345 3 3v27zM15.333 44.2v1.5M43.833 44.2v1.5M16.833 35.2v1.5c0 1.658 1.344 3 3 3h19.5c1.656 0 3-1.342 3-3v-18c0-1.655-1.344-3-3-3h-19.5c-1.656 0-3 1.345-3 3v1.5M16.833 24.7v6"/><path d="M15.333 20.2h3v4.5h-3zM15.333 30.7h3v4.5h-3z"/><circle cx="30.333" cy="27.7" r="6.75"/><circle cx="30.333" cy="27.7" r="3.75"/><path d="M30.333 20.95v3M25.561 22.928l2.121 2.121M23.583 27.7h3M25.561 32.473l2.121-2.121M30.333 34.45v-3M35.105 32.474l-2.121-2.122M37.083 27.7h-3M35.105 22.928l-2.121 2.121"/></g><g stroke="#010101" stroke-linejoin="round" stroke-miterlimit="10" fill="none"><path stroke-linecap="round" d="M163.333 79.2h-19.5"/><path stroke-linecap="round" d="M153.583 90.452l-9.75-11.252 4.5-6h10.5l4.5 6z"/><path d="M157.333 103.2h9v4.5h-9z"/><path stroke-linecap="round" d="M164.833 103.2v-2.298s4.778-4.73 6-5.952v-12.095s-3.75-1.358-3.75 9.095l-4.453 4.452 1.031-4.5c.516-2.155-1.456-3.077-2.531-1.405-.989 1.539-2.297 5.94-2.297 5.94v6.763"/><path d="M140.833 103.2h9v4.5h-9z"/><path stroke-linecap="round" d="M142.333 103.2v-2.298s-4.5-4.73-6-5.952v-12.095s3.75-1.358 3.75 9.095l4.453 4.452-1.031-4.5c-.517-2.155 1.456-3.077 2.531-1.405.989 1.539 2.297 5.94 2.297 5.94v6.763M148.333 73.2l1.453 6 3.797 11.252M158.833 73.2l-1.5 6-3.688 11.252"/></g><g stroke="#010101" stroke-linecap="round" stroke-linejoin="round" stroke-miterlimit="10" fill="none"><path d="M46.833 90.95s-7.721 9.75-17.25 9.75c-9.527 0-17.25-9.75-17.25-9.75s7.723-9.75 17.25-9.75c9.529 0 17.25 9.75 17.25 9.75z"/><circle cx="29.583" cy="90.95" r="9.75"/><path d="M27.054 93.48c0 1.398 1.133 2.531 2.529 2.531 1.397 0 2.533-1.133 2.533-2.531 0-1.396-1.136-2.53-2.533-2.53-1.396 0-2.529-1.134-2.529-2.528 0-1.398 1.133-2.533 2.529-2.533 1.397 0 2.533 1.135 2.533 2.533M29.583 96.014v1.686M29.583 84.202v1.687"/></g><g stroke="#010101" stroke-linejoin="round" stroke-miterlimit="10" fill="none"><path d="M75.833 73.7h33v4.5h-33z"/><path stroke-linecap="round" d="M75.864 99.2h32.938"/><path d="M78.833 78.2h27v21h-27zM92.333 99.2v4.405"/><circle cx="92.333" cy="105.95" r="2.25"/><path stroke-linecap="round" d="M84.833 87.2h3v9h-3zM90.833 90.2h3v6h-3zM96.833 81.2h3v15h-3zM81.833 81.2v15h21"/></g><g stroke="#010101" stroke-linecap="round" stroke-linejoin="round" stroke-miterlimit="10" fill="none"><path d="M169.583 46.7h-33.75v-33.75"/><circle cx="147.833" cy="22.126" r="2.25"/><circle cx="146.661" cy="36.2" r="2.25"/><circle cx="159.271" cy="25.7" r="2.25"/><circle cx="157.771" cy="36.2" r="2.25"/><circle cx="168.083" cy="30.2" r="2.25"/><circle cx="168.083" cy="14.731" r="2.25"/><path d="M160.645 23.922l5.925-7.528M149.98 22.819l7.118 2.297M135.833 29.403l10.078-6.113M159.719 35.078l6.422-3.744M148.911 36.2h6.61M136.107 43.022l8.622-5.673"/></g><g stroke="#010101" stroke-linecap="round" stroke-linejoin="round" stroke-miterlimit="10" fill="none"><path d="M86.583 41.7h7.5M86.583 44.7h7.5M90.333 44.7v1.5"/><path d="M103.833 24.45c0-7.04-6.045-12.75-13.5-12.75-7.456 0-13.5 5.71-13.5 12.75 0 5.81 4.121 10.705 9.75 12.242v2.008h7.5v-2.008c5.629-1.537 9.75-6.432 9.75-12.242zM87.266 27.4c0 1.693 1.374 3.067 3.067 3.067 1.692 0 3.067-1.373 3.067-3.067s-1.375-3.067-3.067-3.067c-1.693 0-3.067-1.373-3.067-3.067 0-1.693 1.374-3.067 3.067-3.067 1.692 0 3.067 1.374 3.067 3.067M90.333 30.468v2.045M90.333 16.153v2.045"/></g></svg>