<?xml version="1.0" encoding="UTF-8"?>
<!-- Generator: Adobe Illustrator 16.0.0, SVG Export Plug-In . SVG Version: 6.00 Build 0)  -->
<!DOCTYPE svg PUBLIC "-//W3C//DTD SVG 1.1//EN" "http://www.w3.org/Graphics/SVG/1.1/DTD/svg11.dtd">
<svg version="1.1" xmlns="http://www.w3.org/2000/svg" xmlns:xlink="http://www.w3.org/1999/xlink" x="0px" y="0px" width="110px" height="110px" viewBox="0 0 110 110" enable-background="new 0 0 110 110" xml:space="preserve">
<g id="R-Multicolor" display="none">
	<circle display="inline" fill="#00C853" cx="55" cy="55" r="55"/>
	<g display="inline">
		<g>
			<path fill="#F0F0F0" d="M83,79h-4V31H31v48h-4V31c0-2.206,1.795-4,4-4h48c2.205,0,4,1.794,4,4V79z"/>
		</g>
		<rect x="31" y="75" fill="#E2E4E5" width="48" height="4"/>
		<path fill="#FFFFFF" d="M64.277,41.17c0.406-0.506,0.657-1.137,0.706-1.906L60,36.42V26h-2v10.42l-3,1.71l-2.02,1.15L55,40.44    l2.02-1.159L59,38.15L64.277,41.17z"/>
		<path fill="#D32F2F" d="M59,67h10V46l3,3l5-4l-5-6h-7c0,3-3,4-6,4"/>
		<path fill="#FDD835" d="M64,39h-7c0,3-3,4-6,4s-6-1-6-4h-7l-5,6l5,4l3-3v21h10h10V46l3,3l5-4L64,39z"/>
		<path fill="#212121" d="M81,87c2.209,0,4-1.79,4-4h-8C77,85.21,78.791,87,81,87z"/>
		<path fill="#FFFFFF" d="M81,77c-3.314,0-6,2.687-6,6h12C87,79.687,84.314,77,81,77z"/>
		<path fill="#212121" d="M29,87c2.209,0,4-1.79,4-4h-8C25,85.21,26.791,87,29,87z"/>
		<path fill="#FFFFFF" d="M29,77c-3.314,0-6,2.687-6,6h12C35,79.687,32.314,77,29,77z"/>
		<path fill="#FFFFFF" d="M45.723,41.17L51,38.15l1.98,1.131L55,40.44l1.277,0.73c0.406-0.508,0.658-1.14,0.706-1.911L55,38.13    l-3-1.71V26h-2v10.42l-4.983,2.844C45.065,40.033,45.316,40.664,45.723,41.17z"/>
		<path fill="#FFEE58" d="M63.904,39H57c0,3-3,4-6,4s-6-1-6-4h-7l-5,6l5,4l3-3v15.904L63.904,39z"/>
		<polygon fill="#212121" points="52,46 46,53 51,53 47,59 56,51 50,51   "/>
	</g>
</g>
<g id="Multicolor_1_" display="none">
	<g display="inline">
		<g>
			<path fill="#F0F0F0" d="M83,79h-4V31H31v48h-4V31c0-2.206,1.795-4,4-4h48c2.205,0,4,1.794,4,4V79z"/>
		</g>
		<rect x="31" y="75" fill="#E2E4E5" width="48" height="4"/>
		<path fill="#FFFFFF" d="M64.277,41.17c0.406-0.506,0.657-1.137,0.706-1.906L60,36.42V26h-2v10.42l-3,1.71l-2.02,1.15L55,40.44    l2.02-1.159L59,38.15L64.277,41.17z"/>
		<path fill="#D32F2F" d="M59,67h10V46l3,3l5-4l-5-6h-7c0,3-3,4-6,4"/>
		<path fill="#FDD835" d="M64,39h-7c0,3-3,4-6,4s-6-1-6-4h-7l-5,6l5,4l3-3v21h10h10V46l3,3l5-4L64,39z"/>
		<path fill="#212121" d="M81,87c2.209,0,4-1.79,4-4h-8C77,85.21,78.791,87,81,87z"/>
		<path fill="#FFFFFF" d="M81,77c-3.314,0-6,2.687-6,6h12C87,79.687,84.314,77,81,77z"/>
		<path fill="#212121" d="M29,87c2.209,0,4-1.79,4-4h-8C25,85.21,26.791,87,29,87z"/>
		<path fill="#FFFFFF" d="M29,77c-3.314,0-6,2.687-6,6h12C35,79.687,32.314,77,29,77z"/>
		<path fill="#FFFFFF" d="M45.723,41.17L51,38.15l1.98,1.131L55,40.44l1.277,0.73c0.406-0.508,0.658-1.14,0.706-1.911L55,38.13    l-3-1.71V26h-2v10.42l-4.983,2.844C45.065,40.033,45.316,40.664,45.723,41.17z"/>
		<path fill="#FFEE58" d="M63.904,39H57c0,3-3,4-6,4s-6-1-6-4h-7l-5,6l5,4l3-3v15.904L63.904,39z"/>
		<polygon fill="#212121" points="52,46 46,53 51,53 47,59 56,51 50,51   "/>
	</g>
</g>
<g id="Blue" display="none">
	<g display="inline">
		<g>
			<g>
				<path fill="#E8EAF6" d="M83,79h-4V31H31v48h-4V31c0-2.205,1.795-4,4-4h48c2.205,0,4,1.795,4,4V79z"/>
			</g>
		</g>
		<g>
			<rect x="31" y="75" fill="#C5CAE9" width="48" height="4"/>
		</g>
		<g>
			<path fill="#FFFFFF" d="M64.277,41.17c0.406-0.506,0.657-1.137,0.706-1.906L60,36.42V26h-2v10.42l-3,1.711l-2.02,1.15L55,40.439     l2.02-1.158L59,38.15L64.277,41.17z"/>
		</g>
		<g>
			<path fill="#1A3B7E" d="M59,67h10V46l3,3l5-4l-5-6h-7c0,3-3,4-6,4"/>
		</g>
		<g>
			<path fill="#2962FF" d="M64,39h-7c0,3-3,4-6,4s-6-1-6-4h-7l-5,6l5,4l3-3v21h10h10V46l3,3l5-4L64,39z"/>
		</g>
		<g>
			<path fill="#1A3B7E" d="M81,87c2.209,0,4-1.79,4-4h-8C77,85.21,78.791,87,81,87z"/>
		</g>
		<g>
			<path fill="#FFFFFF" d="M81,77c-3.314,0-6,2.687-6,6h12C87,79.687,84.314,77,81,77z"/>
		</g>
		<g>
			<path fill="#1A3B7E" d="M29,87c2.209,0,4-1.79,4-4h-8C25,85.21,26.791,87,29,87z"/>
		</g>
		<g>
			<path fill="#FFFFFF" d="M29,77c-3.314,0-6,2.687-6,6h12C35,79.687,32.314,77,29,77z"/>
		</g>
		<g>
			<path fill="#FFFFFF" d="M45.723,41.17L51,38.15l1.98,1.131L55,40.439l1.277,0.73c0.406-0.508,0.658-1.139,0.706-1.91L55,38.131     l-3-1.711V26h-2v10.42l-4.983,2.844C45.065,40.033,45.316,40.664,45.723,41.17z"/>
		</g>
		<g>
			<path fill="#2979FF" d="M63.904,39H57c0,3-3,4-6,4s-6-1-6-4h-7l-5,6l5,4l3-3v15.904L63.904,39z"/>
		</g>
		<g>
			<polygon fill="#FFFFFF" points="52,46 46,53 51,53 47,59 56,51 50,51    "/>
		</g>
	</g>
</g>
<g id="R-Blue" display="none">
	<g display="inline">
		<circle fill="#00B0FF" cx="55" cy="55" r="55"/>
	</g>
	<g display="inline">
		<g>
			<g>
				<path fill="#E8EAF6" d="M83,79h-4V31H31v48h-4V31c0-2.205,1.795-4,4-4h48c2.205,0,4,1.795,4,4V79z"/>
			</g>
		</g>
		<g>
			<rect x="31" y="75" fill="#C5CAE9" width="48" height="4"/>
		</g>
		<g>
			<path fill="#FFFFFF" d="M64.277,41.17c0.406-0.506,0.657-1.137,0.706-1.906L60,36.42V26h-2v10.42l-3,1.711l-2.02,1.15L55,40.439     l2.02-1.158L59,38.15L64.277,41.17z"/>
		</g>
		<g>
			<path fill="#1A3B7E" d="M59,67h10V46l3,3l5-4l-5-6h-7c0,3-3,4-6,4"/>
		</g>
		<g>
			<path fill="#2962FF" d="M64,39h-7c0,3-3,4-6,4s-6-1-6-4h-7l-5,6l5,4l3-3v21h10h10V46l3,3l5-4L64,39z"/>
		</g>
		<g>
			<path fill="#1A3B7E" d="M81,87c2.209,0,4-1.79,4-4h-8C77,85.21,78.791,87,81,87z"/>
		</g>
		<g>
			<path fill="#FFFFFF" d="M81,77c-3.314,0-6,2.687-6,6h12C87,79.687,84.314,77,81,77z"/>
		</g>
		<g>
			<path fill="#1A3B7E" d="M29,87c2.209,0,4-1.79,4-4h-8C25,85.21,26.791,87,29,87z"/>
		</g>
		<g>
			<path fill="#FFFFFF" d="M29,77c-3.314,0-6,2.687-6,6h12C35,79.687,32.314,77,29,77z"/>
		</g>
		<g>
			<path fill="#FFFFFF" d="M45.723,41.17L51,38.15l1.98,1.131L55,40.439l1.277,0.73c0.406-0.508,0.658-1.139,0.706-1.91L55,38.131     l-3-1.711V26h-2v10.42l-4.983,2.844C45.065,40.033,45.316,40.664,45.723,41.17z"/>
		</g>
		<g>
			<path fill="#2979FF" d="M63.904,39H57c0,3-3,4-6,4s-6-1-6-4h-7l-5,6l5,4l3-3v15.904L63.904,39z"/>
		</g>
		<g>
			<polygon fill="#FFFFFF" points="52,46 46,53 51,53 47,59 56,51 50,51    "/>
		</g>
	</g>
</g>
<g id="Green" display="none">
	<g display="inline">
		<g>
			<g>
				<path fill="#ECF5E1" d="M83,79h-4V31H31v48h-4V31c0-2.205,1.795-4,4-4h48c2.205,0,4,1.795,4,4V79z"/>
			</g>
		</g>
		<g>
			<rect x="31" y="75" fill="#C5EB98" width="48" height="4"/>
		</g>
		<g>
			<path fill="#FFFFFF" d="M64.277,41.17c0.406-0.506,0.657-1.137,0.706-1.906L60,36.42V26h-2v10.42l-3,1.711l-2.02,1.15L55,40.439     l2.02-1.158L59,38.15L64.277,41.17z"/>
		</g>
		<g>
			<path fill="#003B15" d="M59,67h10V46l3,3l5-4l-5-6h-7c0,3-3,4-6,4"/>
		</g>
		<g>
			<path fill="#00A344" d="M64,39h-7c0,3-3,4-6,4s-6-1-6-4h-7l-5,6l5,4l3-3v21h10h10V46l3,3l5-4L64,39z"/>
		</g>
		<g>
			<path fill="#003B15" d="M81,87c2.209,0,4-1.79,4-4h-8C77,85.21,78.791,87,81,87z"/>
		</g>
		<g>
			<path fill="#FFFFFF" d="M81,77c-3.314,0-6,2.687-6,6h12C87,79.687,84.314,77,81,77z"/>
		</g>
		<g>
			<path fill="#003B15" d="M29,87c2.209,0,4-1.79,4-4h-8C25,85.21,26.791,87,29,87z"/>
		</g>
		<g>
			<path fill="#FFFFFF" d="M29,77c-3.314,0-6,2.687-6,6h12C35,79.687,32.314,77,29,77z"/>
		</g>
		<g>
			<path fill="#FFFFFF" d="M45.723,41.17L51,38.15l1.98,1.131L55,40.439l1.277,0.73c0.406-0.508,0.658-1.139,0.706-1.91L55,38.131     l-3-1.711V26h-2v10.42l-4.983,2.844C45.065,40.033,45.316,40.664,45.723,41.17z"/>
		</g>
		<g>
			<path fill="#00C250" d="M63.904,39H57c0,3-3,4-6,4s-6-1-6-4h-7l-5,6l5,4l3-3v15.904L63.904,39z"/>
		</g>
		<g>
			<polygon fill="#FFFFFF" points="52,46 46,53 51,53 47,59 56,51 50,51    "/>
		</g>
	</g>
</g>
<g id="R-Green" display="none">
	<g display="inline">
		<circle fill="#64DD17" cx="55" cy="55" r="55"/>
	</g>
	<g display="inline">
		<g>
			<g>
				<path fill="#ECF5E1" d="M83,79h-4V31H31v48h-4V31c0-2.205,1.795-4,4-4h48c2.205,0,4,1.795,4,4V79z"/>
			</g>
		</g>
		<g>
			<rect x="31" y="75" fill="#C5EB98" width="48" height="4"/>
		</g>
		<g>
			<path fill="#FFFFFF" d="M64.277,41.17c0.406-0.506,0.657-1.137,0.706-1.906L60,36.42V26h-2v10.42l-3,1.711l-2.02,1.15L55,40.439     l2.02-1.158L59,38.15L64.277,41.17z"/>
		</g>
		<g>
			<path fill="#003B15" d="M59,67h10V46l3,3l5-4l-5-6h-7c0,3-3,4-6,4"/>
		</g>
		<g>
			<path fill="#00A344" d="M64,39h-7c0,3-3,4-6,4s-6-1-6-4h-7l-5,6l5,4l3-3v21h10h10V46l3,3l5-4L64,39z"/>
		</g>
		<g>
			<path fill="#003B15" d="M81,87c2.209,0,4-1.79,4-4h-8C77,85.21,78.791,87,81,87z"/>
		</g>
		<g>
			<path fill="#FFFFFF" d="M81,77c-3.314,0-6,2.687-6,6h12C87,79.687,84.314,77,81,77z"/>
		</g>
		<g>
			<path fill="#003B15" d="M29,87c2.209,0,4-1.79,4-4h-8C25,85.21,26.791,87,29,87z"/>
		</g>
		<g>
			<path fill="#FFFFFF" d="M29,77c-3.314,0-6,2.687-6,6h12C35,79.687,32.314,77,29,77z"/>
		</g>
		<g>
			<path fill="#FFFFFF" d="M45.723,41.17L51,38.15l1.98,1.131L55,40.439l1.277,0.73c0.406-0.508,0.658-1.139,0.706-1.91L55,38.131     l-3-1.711V26h-2v10.42l-4.983,2.844C45.065,40.033,45.316,40.664,45.723,41.17z"/>
		</g>
		<g>
			<path fill="#00C250" d="M63.904,39H57c0,3-3,4-6,4s-6-1-6-4h-7l-5,6l5,4l3-3v15.904L63.904,39z"/>
		</g>
		<g>
			<polygon fill="#FFFFFF" points="52,46 46,53 51,53 47,59 56,51 50,51    "/>
		</g>
	</g>
</g>
<g id="Red" display="none">
	<g display="inline">
		<g>
			<g>
				<path fill="#FFE4DE" d="M83,79h-4V31H31v48h-4V31c0-2.205,1.795-4,4-4h48c2.205,0,4,1.795,4,4V79z"/>
			</g>
		</g>
		<g>
			<rect x="31" y="75" fill="#FFC7B2" width="48" height="4"/>
		</g>
		<g>
			<path fill="#FFFFFF" d="M64.277,41.17c0.406-0.506,0.657-1.137,0.706-1.906L60,36.42V26h-2v10.42l-3,1.711l-2.02,1.15L55,40.439     l2.02-1.158L59,38.15L64.277,41.17z"/>
		</g>
		<g>
			<path fill="#2C0900" d="M59,67h10V46l3,3l5-4l-5-6h-7c0,3-3,4-6,4"/>
		</g>
		<g>
			<path fill="#AC2200" d="M64,39h-7c0,3-3,4-6,4s-6-1-6-4h-7l-5,6l5,4l3-3v21h10h10V46l3,3l5-4L64,39z"/>
		</g>
		<g>
			<path fill="#2C0900" d="M81,87c2.209,0,4-1.79,4-4h-8C77,85.21,78.791,87,81,87z"/>
		</g>
		<g>
			<path fill="#FFFFFF" d="M81,77c-3.314,0-6,2.687-6,6h12C87,79.687,84.314,77,81,77z"/>
		</g>
		<g>
			<path fill="#2C0900" d="M29,87c2.209,0,4-1.79,4-4h-8C25,85.21,26.791,87,29,87z"/>
		</g>
		<g>
			<path fill="#FFFFFF" d="M29,77c-3.314,0-6,2.687-6,6h12C35,79.687,32.314,77,29,77z"/>
		</g>
		<g>
			<path fill="#FFFFFF" d="M45.723,41.17L51,38.15l1.98,1.131L55,40.439l1.277,0.73c0.406-0.508,0.658-1.139,0.706-1.91L55,38.131     l-3-1.711V26h-2v10.42l-4.983,2.844C45.065,40.033,45.316,40.664,45.723,41.17z"/>
		</g>
		<g>
			<path fill="#D22600" d="M63.904,39H57c0,3-3,4-6,4s-6-1-6-4h-7l-5,6l5,4l3-3v15.904L63.904,39z"/>
		</g>
		<g>
			<polygon fill="#FFFFFF" points="52,46 46,53 51,53 47,59 56,51 50,51    "/>
		</g>
	</g>
</g>
<g id="R-Red" display="none">
	<g display="inline">
		<circle fill="#FF5722" cx="55" cy="55" r="55"/>
	</g>
	<g display="inline">
		<g>
			<g>
				<path fill="#FFE4DE" d="M83,79h-4V31H31v48h-4V31c0-2.205,1.795-4,4-4h48c2.205,0,4,1.795,4,4V79z"/>
			</g>
		</g>
		<g>
			<rect x="31" y="75" fill="#FFC7B2" width="48" height="4"/>
		</g>
		<g>
			<path fill="#FFFFFF" d="M64.277,41.17c0.406-0.506,0.657-1.137,0.706-1.906L60,36.42V26h-2v10.42l-3,1.711l-2.02,1.15L55,40.439     l2.02-1.158L59,38.15L64.277,41.17z"/>
		</g>
		<g>
			<path fill="#2C0900" d="M59,67h10V46l3,3l5-4l-5-6h-7c0,3-3,4-6,4"/>
		</g>
		<g>
			<path fill="#AC2200" d="M64,39h-7c0,3-3,4-6,4s-6-1-6-4h-7l-5,6l5,4l3-3v21h10h10V46l3,3l5-4L64,39z"/>
		</g>
		<g>
			<path fill="#2C0900" d="M81,87c2.209,0,4-1.79,4-4h-8C77,85.21,78.791,87,81,87z"/>
		</g>
		<g>
			<path fill="#FFFFFF" d="M81,77c-3.314,0-6,2.687-6,6h12C87,79.687,84.314,77,81,77z"/>
		</g>
		<g>
			<path fill="#2C0900" d="M29,87c2.209,0,4-1.79,4-4h-8C25,85.21,26.791,87,29,87z"/>
		</g>
		<g>
			<path fill="#FFFFFF" d="M29,77c-3.314,0-6,2.687-6,6h12C35,79.687,32.314,77,29,77z"/>
		</g>
		<g>
			<path fill="#FFFFFF" d="M45.723,41.17L51,38.15l1.98,1.131L55,40.439l1.277,0.73c0.406-0.508,0.658-1.139,0.706-1.91L55,38.131     l-3-1.711V26h-2v10.42l-4.983,2.844C45.065,40.033,45.316,40.664,45.723,41.17z"/>
		</g>
		<g>
			<path fill="#D22600" d="M63.904,39H57c0,3-3,4-6,4s-6-1-6-4h-7l-5,6l5,4l3-3v15.904L63.904,39z"/>
		</g>
		<g>
			<polygon fill="#FFFFFF" points="52,46 46,53 51,53 47,59 56,51 50,51    "/>
		</g>
	</g>
</g>
<g id="Yellow" display="none">
	<g display="inline">
		<g>
			<g>
				<path fill="#FFF4D1" d="M83,79h-4V31H31v48h-4V31c0-2.205,1.795-4,4-4h48c2.205,0,4,1.795,4,4V79z"/>
			</g>
		</g>
		<g>
			<rect x="31" y="75" fill="#FFEBB8" width="48" height="4"/>
		</g>
		<g>
			<path fill="#FFFFFF" d="M64.277,41.17c0.406-0.506,0.657-1.137,0.706-1.906L60,36.42V26h-2v10.42l-3,1.711l-2.02,1.15L55,40.439     l2.02-1.158L59,38.15L64.277,41.17z"/>
		</g>
		<g>
			<path fill="#4C2720" d="M59,67h10V46l3,3l5-4l-5-6h-7c0,3-3,4-6,4"/>
		</g>
		<g>
			<path fill="#FC6100" d="M64,39h-7c0,3-3,4-6,4s-6-1-6-4h-7l-5,6l5,4l3-3v21h10h10V46l3,3l5-4L64,39z"/>
		</g>
		<g>
			<path fill="#4C2720" d="M81,87c2.209,0,4-1.79,4-4h-8C77,85.21,78.791,87,81,87z"/>
		</g>
		<g>
			<path fill="#FFFFFF" d="M81,77c-3.314,0-6,2.687-6,6h12C87,79.687,84.314,77,81,77z"/>
		</g>
		<g>
			<path fill="#4C2720" d="M29,87c2.209,0,4-1.79,4-4h-8C25,85.21,26.791,87,29,87z"/>
		</g>
		<g>
			<path fill="#FFFFFF" d="M29,77c-3.314,0-6,2.687-6,6h12C35,79.687,32.314,77,29,77z"/>
		</g>
		<g>
			<path fill="#FFFFFF" d="M45.723,41.17L51,38.15l1.98,1.131L55,40.439l1.277,0.73c0.406-0.508,0.658-1.139,0.706-1.91L55,38.131     l-3-1.711V26h-2v10.42l-4.983,2.844C45.065,40.033,45.316,40.664,45.723,41.17z"/>
		</g>
		<g>
			<path fill="#FF8000" d="M63.904,39H57c0,3-3,4-6,4s-6-1-6-4h-7l-5,6l5,4l3-3v15.904L63.904,39z"/>
		</g>
		<g>
			<polygon fill="#FFFFFF" points="52,46 46,53 51,53 47,59 56,51 50,51    "/>
		</g>
	</g>
</g>
<g id="R-Yellow">
	<g>
		<circle fill="#FFD600" cx="55" cy="55" r="55"/>
	</g>
	<g>
		<g>
			<g>
				<path fill="#FFF4D1" d="M83,79h-4V31H31v48h-4V31c0-2.205,1.795-4,4-4h48c2.205,0,4,1.795,4,4V79z"/>
			</g>
		</g>
		<g>
			<rect x="31" y="75" fill="#FFEBB8" width="48" height="4"/>
		</g>
		<g>
			<path fill="#FFFFFF" d="M64.277,41.17c0.406-0.506,0.657-1.137,0.706-1.906L60,36.42V26h-2v10.42l-3,1.711l-2.02,1.15L55,40.439     l2.02-1.158L59,38.15L64.277,41.17z"/>
		</g>
		<g>
			<path fill="#4C2720" d="M59,67h10V46l3,3l5-4l-5-6h-7c0,3-3,4-6,4"/>
		</g>
		<g>
			<path fill="#FC6100" d="M64,39h-7c0,3-3,4-6,4s-6-1-6-4h-7l-5,6l5,4l3-3v21h10h10V46l3,3l5-4L64,39z"/>
		</g>
		<g>
			<path fill="#4C2720" d="M81,87c2.209,0,4-1.79,4-4h-8C77,85.21,78.791,87,81,87z"/>
		</g>
		<g>
			<path fill="#FFFFFF" d="M81,77c-3.314,0-6,2.687-6,6h12C87,79.687,84.314,77,81,77z"/>
		</g>
		<g>
			<path fill="#4C2720" d="M29,87c2.209,0,4-1.79,4-4h-8C25,85.21,26.791,87,29,87z"/>
		</g>
		<g>
			<path fill="#FFFFFF" d="M29,77c-3.314,0-6,2.687-6,6h12C35,79.687,32.314,77,29,77z"/>
		</g>
		<g>
			<path fill="#FFFFFF" d="M45.723,41.17L51,38.15l1.98,1.131L55,40.439l1.277,0.73c0.406-0.508,0.658-1.139,0.706-1.91L55,38.131     l-3-1.711V26h-2v10.42l-4.983,2.844C45.065,40.033,45.316,40.664,45.723,41.17z"/>
		</g>
		<g>
			<path fill="#FF8000" d="M63.904,39H57c0,3-3,4-6,4s-6-1-6-4h-7l-5,6l5,4l3-3v15.904L63.904,39z"/>
		</g>
		<g>
			<polygon fill="#FFFFFF" points="52,46 46,53 51,53 47,59 56,51 50,51    "/>
		</g>
	</g>
</g>
</svg>