<svg xmlns="http://www.w3.org/2000/svg" width="137" height="139" viewBox="0 0 137 139"><script xmlns="" type="text/javascript" charset="utf-8" id="zm-extension"/>
    <path fill="#030807" fill-rule="evenodd" d="M87.755 44.74c-.641.666-.678 1.757-.077 2.323.698.66 1.871.669 2.539.023.717-.695.641-1.617-.199-2.43-.673-.65-1.59-.616-2.263.084zm37.008-32.286c.69.7 1.99.686 2.623-.03.574-.646.486-1.834-.18-2.436-.669-.605-1.775-.54-2.426.142-.63.66-.638 1.695-.017 2.324zM3.227 133.289c7.877-11.996 16.563-23.381 26.132-34.113 10.067-11.292 20.703-22.043 31.282-32.848 4.14-4.23 8.236-8.503 12.331-12.775.683-.712 1.216-1.57 1.899-2.281 1.31-1.366 2.689-2.667 4.018-4.016 2.703-2.745 5.495-5.411 8.07-8.271 9.993-11.101 20.148-22.046 31.163-32.148 2.197-2.016 4.706-3.778 7.289-5.269 4.63-2.674 8.335-.468 10.11 3.96 1.491 3.719 1.03 7.63-.522 11.425-.635 1.552-1.836 2.417-3.455 2.274-3.32-.295-5.87 1.28-8.058 3.514-3.95 4.038-7.66 8.313-11.678 12.282-3.03 2.995-6.303 5.758-9.608 8.453-3.277 2.67-6.734 5.118-10.1 7.681-.481.367-.902.823-1.332 1.254-1.82 1.829-2.265 3.889-1.26 6.198 1.138 2.606 2.264 5.221 3.402 7.828 1.316 3.016 1.212 3.86-1.225 6.172-5.568 5.281-11.198 10.496-16.788 15.756-4.977 4.683-9.874 9.457-14.916 14.067-9.439 8.632-19.03 17.095-29.872 23.942-7.693 4.856-15.755 8.93-24.515 11.344-1.737.48-3.514.78-5.274 1.163l-.28-.37c1.059-1.743 2.068-3.517 3.187-5.222z"/>
</svg>