<svg width="41" height="33" viewBox="0 0 41 33" fill="none" xmlns="http://www.w3.org/2000/svg">
<path d="M31.9219 32.2344H3.03125C1.55313 32.2344 0.34375 30.7437 0.34375 28.9219V4.07812C0.34375 2.25625 1.55313 0.765625 3.03125 0.765625H37.9688C39.4469 0.765625 40.6562 2.25625 40.6562 4.07812V28.9219C40.6562 30.7437 39.4469 32.2344 37.9688 32.2344" fill="url(#paint0_linear)"/>
<path d="M40.6565 23.9531V7.39062L28.1597 15.5891L40.6565 23.9531Z" fill="#CC9D19"/>
<path d="M0.34375 7.39062V23.9531L12.8406 15.5891L0.34375 7.39062Z" fill="#CC9D19"/>
<path d="M37.9688 0.765625H3.03125C1.55313 0.765625 0.34375 2.25625 0.34375 4.07812V7.39062L18.2828 19.15C19.6938 20.0609 21.3734 20.0609 22.7172 19.15L40.6562 7.39062V4.07812C40.6562 2.25625 39.4469 0.765625 37.9688 0.765625Z" fill="#FFC900"/>
<defs>
<linearGradient id="paint0_linear" x1="20.5" y1="30.0605" x2="20.5" y2="3.34855" gradientUnits="userSpaceOnUse">
<stop stop-color="#FFC900"/>
<stop offset="1" stop-color="#CC9D19"/>
</linearGradient>
</defs>
</svg>