<?xml version="1.0" encoding="UTF-8"?>
<!-- Generator: Adobe Illustrator 22.0.1, SVG Export Plug-In . SVG Version: 6.00 Build 0)  -->
<svg version="1.1" id="Layer_1" xmlns="http://www.w3.org/2000/svg" xmlns:xlink="http://www.w3.org/1999/xlink" x="0px" y="0px" width="400px" height="233.333px" viewBox="0 0 400 233.333" enable-background="new 0 0 400 233.333" xml:space="preserve">
<g id="UNITED_KINGDOM_2_">
	<g id="XMLID_12296_">
		<g id="XMLID_12297_">
			<defs>
				<rect id="XMLID_12298_" x="0.079" y="-0.448" width="399.91" height="233.268"/>
			</defs>
			<clipPath id="XMLID_2_">
				<use xlink:href="#XMLID_12298_" overflow="visible"/>
			</clipPath>
			<rect id="XMLID_12312_" x="0.079" y="-0.448" clip-path="url(#XMLID_2_)" fill="#FFFFFF" width="399.91" height="233.268"/>
			<polygon id="XMLID_12311_" clip-path="url(#XMLID_2_)" fill="#BD0034" points="267.848,83.891 399.989,9.92 399.989,-0.448      390.876,-0.448 240.212,83.891    "/>
			<polygon id="XMLID_12310_" clip-path="url(#XMLID_2_)" fill="#BD0034" points="261.611,153.159 399.989,230.598 399.989,215.122      289.258,153.159    "/>
			<polygon id="XMLID_12309_" clip-path="url(#XMLID_2_)" fill="#BD0034" points="0.079,17.309 118.453,83.891 146.111,83.891      0.079,1.821    "/>
			<polygon id="XMLID_12308_" clip-path="url(#XMLID_2_)" fill="#BD0034" points="139.84,153.159 0.079,231.471 0.079,232.82      25.328,232.82 167.509,153.159    "/>
			<polygon id="XMLID_12307_" clip-path="url(#XMLID_2_)" fill="#1A237B" points="372.62,-0.448 232.602,-0.448 232.602,77.967         "/>
			<polygon id="XMLID_12306_" clip-path="url(#XMLID_2_)" fill="#1A237B" points="170.781,-0.448 31.322,-0.448 170.781,77.967         "/>
			<polygon id="XMLID_12305_" clip-path="url(#XMLID_2_)" fill="#1A237B" points="399.989,83.891 399.989,30.376 305.003,83.891         "/>
			<polygon id="XMLID_12304_" clip-path="url(#XMLID_2_)" fill="#1A237B" points="399.989,206.104 399.989,153.159 305.003,153.159         "/>
			<polygon id="XMLID_12303_" clip-path="url(#XMLID_2_)" fill="#1A237B" points="39.233,232.82 170.781,232.82 170.781,159.106         "/>
			<polygon id="XMLID_12302_" clip-path="url(#XMLID_2_)" fill="#1A237B" points="232.602,232.82 364.567,232.82 232.602,159.106         "/>
			<polygon id="XMLID_12301_" clip-path="url(#XMLID_2_)" fill="#1A237B" points="0.079,153.159 0.079,208.489 98.368,153.159         "/>
			<polygon id="XMLID_12300_" clip-path="url(#XMLID_2_)" fill="#1A237B" points="0.079,83.891 98.368,83.891 0.079,28.479    "/>
			<polygon id="XMLID_12299_" clip-path="url(#XMLID_2_)" fill="#BD0034" points="183.148,-0.448 183.148,97.749 0.079,97.749      0.079,139.336 183.148,139.336 183.148,232.82 220.234,232.82 220.234,139.336 399.989,139.336 399.989,97.749 220.234,97.749      220.234,-0.448    "/>
		</g>
	</g>
</g>
</svg>