<svg width="62" height="62" viewBox="0 0 62 62" fill="none" xmlns="http://www.w3.org/2000/svg">
<path d="M60 52V17C60 14.243 57.757 12 55 12H52V3C52 1.346 50.654 0 49 0H13C11.346 0 10 1.346 10 3V12H7C4.243 12 2 14.243 2 17V52H0V53C0 57.963 4.037 62 9 62H53C57.963 62 62 57.963 62 53V52H60ZM13 36H49C50.654 36 52 34.654 52 33V18H54V48H8V18H10V33C10 34.654 11.346 36 13 36ZM12 3C12 2.449 12.448 2 13 2H49C49.552 2 50 2.449 50 3V33C50 33.552 49.552 34 49 34H13C12.448 34 12 33.552 12 33V3ZM4 17C4 15.346 5.346 14 7 14H10V16H8C6.897 16 6 16.897 6 18V48C6 49.103 6.897 50 8 50H54C55.103 50 56 49.103 56 48V18C56 16.897 55.103 16 54 16H52V14H55C56.654 14 58 15.346 58 17V52H4V17ZM38.816 54C38.402 55.161 37.302 56 36 56H26C24.698 56 23.598 55.161 23.184 54H38.816ZM53 60H9C5.479 60 2.558 57.388 2.071 54H21.101C21.566 56.279 23.585 58 26 58H36C38.414 58 40.434 56.279 40.899 54H59.929C59.442 57.388 56.521 60 53 60Z" fill="#03A87C"/>
<path d="M10 43H16.142C16.589 44.721 18.141 46 20 46C21.859 46 23.411 44.721 23.858 43H38V41H23.858C23.411 39.279 21.859 38 20 38C18.141 38 16.589 39.279 16.142 41H10V43ZM20 40C21.103 40 22 40.897 22 42C22 43.103 21.103 44 20 44C18.897 44 18 43.103 18 42C18 40.897 18.897 40 20 40Z" fill="#03A87C"/>
<path d="M46 41H48V43H46V41Z" fill="#03A87C"/>
<path d="M42 41H44V43H42V41Z" fill="#03A87C"/>
<path d="M50 41H52V43H50V41Z" fill="#03A87C"/>
<path d="M39 22C43.963 22 48 17.962 48 13C48 8.038 43.963 4 39 4C34.037 4 30 8.038 30 13C30 17.962 34.037 22 39 22ZM45.92 12H40V6.08C43.059 6.521 45.479 8.941 45.92 12ZM38 6.08V14H45.92C45.432 17.387 42.519 20 39 20C35.141 20 32 16.86 32 13C32 9.481 34.614 6.568 38 6.08Z" fill="#03A87C"/>
<path d="M20 4H14V20H20V4ZM18 18H16V6H18V18Z" fill="#03A87C"/>
<path d="M28 10H22V20H28V10ZM26 18H24V12H26V18Z" fill="#03A87C"/>
<path d="M28 22H14V32H28V22ZM26 30H16V24H26V30Z" fill="#03A87C"/>
<path d="M30 30H32V32H30V30Z" fill="#03A87C"/>
<path d="M34 30H48V32H34V30Z" fill="#03A87C"/>
<path d="M30 26H48V28H30V26Z" fill="#03A87C"/>
</svg>