<svg xmlns="http://www.w3.org/2000/svg" width="95" height="79" viewBox="0 0 95 79">
  <path fill-rule="evenodd" fill="#3fa35d" d="M681.548,2935.11a0.4,0.4,0,0,0-.051-0.29,0.884,0.884,0,0,0-1.1.19,0.875,0.875,0,0,0-.443,1.03,0.357,0.357,0,0,0,.232.11,1.066,1.066,0,0,0,.116.5,1.282,1.282,0,0,0,.186.19c0.027,0.03.06,0.06,0.09,0.09a0.816,0.816,0,0,0,.163.15,1.122,1.122,0,0,0,.312.16,0.939,0.939,0,0,0,.237,0,0.761,0.761,0,0,0,.95-0.44,1.173,1.173,0,0,0-.13-1.37A1.03,1.03,0,0,0,681.548,2935.11Zm53.071,37.64a6.7,6.7,0,0,0-2.855-2.76c-4.406-2.87-9.3-5.18-13.2-8.74-2.9-2.64-4.254-6.13-6.786-8.98-4.127-4.66-10.906-6.2-14.951-10.77-1.4-1.58-1.138-2.18-1.519-4.29-1.092-6.03-4.546-12.43-11.281-13.14-5.484-.58-12.531,2.32-13.266,8.22a6.026,6.026,0,0,0-4.1,5.49,8.055,8.055,0,0,0-1.67,4.88,1.628,1.628,0,0,0,1,1.6,1.8,1.8,0,0,0,1.336.18,51.56,51.56,0,0,1,6.294-.87,11.429,11.429,0,0,1,.827,1.41c1.088,3.37.007,2.08-.574,3.6-1.222,3.2-2.764,6.22-3.689,9.55a26.334,26.334,0,0,0,2.582,19.95c4.3,7.65,11.947,10.65,20.289,10.82,0.229,0.35.457,0.71,0.686,1.06l-1.034,2.7c-1.685-.57-3.369-1.15-5.054-1.72-2.257-.77-3.226,2.79-0.983,3.55,0.3,0.11.593,0.21,0.89,0.31-0.5.14-1,.28-1.494,0.41-2.288.64-1.316,4.2,0.983,3.56l7.1-1.98a1.321,1.321,0,0,0,.332-0.11,1.67,1.67,0,0,0,1-1.01c0.033-.07.068-0.14,0.094-0.2,0.619-1.62,1.351-3.23,1.868-4.87a2.68,2.68,0,0,0-.122-1.85,33.044,33.044,0,0,0,4.938-.78l1.184,1.17c-0.3,1.16-.591,2.32-0.887,3.47-1.522.21-3.044,0.41-4.566,0.61-2.325.31-2.355,4,0,3.69,0.509-.07,1.018-0.14,1.527-0.2l-0.136.15a1.891,1.891,0,0,0,0,2.61,1.871,1.871,0,0,0,2.615,0q1.677-1.95,3.355-3.91l0.025-.03a1.62,1.62,0,0,0,.45-0.78c0.453-1.77.964-3.54,1.36-5.32a2.914,2.914,0,0,0-.931-2.76,16.318,16.318,0,0,0,3.975-2.39c3.521,0.29,12.733-.45,15.347-2.87,2.739-.29,6.131-1.61,6.087-4.1C733.858,2976.63,735.851,2975.47,734.619,2972.75Zm-10.26,5.04a81.057,81.057,0,0,1-9.193-2.22,40.546,40.546,0,0,1-11.012-6.19c-0.014-.01-0.028.01-0.017,0.03a37.216,37.216,0,0,0,15.586,10.61,29.267,29.267,0,0,1-4.953.76,12.877,12.877,0,0,1-4.632-.22,1.8,1.8,0,0,0-.691-0.05c-8.662-2.68-20.225-7.84-20.337-17.72a0.074,0.074,0,0,0-.142-0.02c-3.3,9.89,7.789,17.18,17.124,19.92-4.59,2.66-11.183,2.8-15.953,2.35-9.241-.87-14.985-7.28-16.784-16.06-1.359-6.63,1-13.15,4.03-19,1.531-2.96,1.439-7.29-1.543-9.55a3.287,3.287,0,0,0-.813-0.43,7.011,7.011,0,0,0-.049-1.79,0.043,0.043,0,0,0-.084,0,3.206,3.206,0,0,1-1.127,1.49,14.421,14.421,0,0,0-4.367.42c0.8-2.05,2.123-4.44,3.162-4.3a1.389,1.389,0,0,0,.745-0.14,3.793,3.793,0,0,1,1.67,2.5,0.044,0.044,0,0,0,.083,0,5.831,5.831,0,0,0-.649-4.21,4.935,4.935,0,0,1,.176-1.68,9.157,9.157,0,0,1,3.21-3.39,10.242,10.242,0,0,1,3.187-1.22,8.689,8.689,0,0,1,8.547,4.14c2.455,4.1,1.518,9.13,5,12.6,2.638,2.64,6.2,4.25,9.442,6.22a21.523,21.523,0,0,0-4.782-1.22c-6.079-.77-8.847,2.77-9.5,8.42a0.029,0.029,0,0,0,.057.01c1.232-3.07,2.326-5.56,5.834-6.15,2.617-.45,5.545.51,7.917,1.52a32.693,32.693,0,0,1,8.242,5.33,27.62,27.62,0,0,0,4.986,6c4,3.41,8.779,5.77,13.171,8.63,0.267,0.17,1.674,1.3,1.036.66,0.978,0.98-.164-0.1-0.3-0.07-0.629.13-1.249,0.33-1.875,0.48a1.526,1.526,0,0,0-.362.14c-5.375-1.02-10.48-4.22-14.991-7a0.031,0.031,0,0,0-.035.05c3.372,3.79,8.75,8.17,14.229,9.41,0.02,0.03.03,0.07,0.054,0.11C728.037,2977.52,725.226,2977.76,724.359,2977.79Zm-51.622-41.3a1.063,1.063,0,0,1-.449.38,0.415,0.415,0,1,0,.4.3,1.049,1.049,0,0,1,.2-0.56A0.1,0.1,0,0,0,672.737,2936.49Zm8.55-4.5a4.18,4.18,0,1,0,4.192,4.18A4.187,4.187,0,0,0,681.287,2931.99Zm0,6.88a2.705,2.705,0,1,1,2.713-2.7A2.707,2.707,0,0,1,681.287,2938.87ZM668,2993a3,3,0,1,1-3,3A3,3,0,0,1,668,2993Zm-26,3a2,2,0,1,1-2,2A2,2,0,0,1,642,2996Zm37,5a1,1,0,1,1-1,1A1,1,0,0,1,679,3001Zm-24.5-3a1.5,1.5,0,1,1-1.5,1.5A1.5,1.5,0,0,1,654.5,2998Z" transform="translate(-640 -2924)"/>
</svg>