<svg xmlns="http://www.w3.org/2000/svg" xmlns:xlink="http://www.w3.org/1999/xlink" viewBox="0 0 52 52"><defs><style>.cls-1{fill:#cecdce;}.cls-2{fill:url(#linear-gradient);}.cls-3{fill:url(#linear-gradient-2);}.cls-4{fill:url(#linear-gradient-3);}.cls-5{fill:url(#linear-gradient-4);}.cls-6{fill:url(#linear-gradient-5);}.cls-7{fill:none;}</style><linearGradient id="linear-gradient" x1="25.94" y1="24.53" x2="25.94" y2="86.72" gradientUnits="userSpaceOnUse"><stop offset="0" stop-color="#757be5"/><stop offset="1" stop-color="#ebecfa"/></linearGradient><linearGradient id="linear-gradient-2" x1="32.13" y1="24.53" x2="32.13" y2="86.72" xlink:href="#linear-gradient"/><linearGradient id="linear-gradient-3" x1="19.91" y1="24.53" x2="19.91" y2="86.72" xlink:href="#linear-gradient"/><linearGradient id="linear-gradient-4" x1="26.02" y1="38.48" x2="26.02" y2="52.16" xlink:href="#linear-gradient"/><linearGradient id="linear-gradient-5" x1="26" y1="-0.71" x2="26" y2="26.38" xlink:href="#linear-gradient"/></defs><title>growth</title><g id="Layer_2" data-name="Layer 2"><g id="Layer_1-2" data-name="Layer 1"><path class="cls-1" d="M9.75,28.34H9.44A9.49,9.49,0,0,1,6.76,28,12.82,12.82,0,0,0,9.75,28.34Z"/><path class="cls-1" d="M48.83,26.59a8.24,8.24,0,0,1-3.37,1.57A12.08,12.08,0,0,0,48.83,26.59Z"/><rect class="cls-2" x="23.95" y="23.53" width="4" height="22.48"/><path class="cls-3" d="M31.11,46h-4V35.26a17.2,17.2,0,0,1,.61-4.73c.79-2.84,4.49-8.41,9.42-8.41v4c-2.46,0-5,3.62-5.57,5.51a13.39,13.39,0,0,0-.47,3.67Z"/><path class="cls-4" d="M24.89,46h-4V35.26a13.4,13.4,0,0,0-.46-3.67c-.52-1.86-3-5.28-5.49-5.28v-4c5,0,8.54,5.33,9.34,8.18a17.59,17.59,0,0,1,.61,4.73Z"/><path class="cls-5" d="M47.63,52H4.41a5.87,5.87,0,0,1,5.38-3.45,5.63,5.63,0,0,1,1.6.23,9.42,9.42,0,0,1,17-3.16,9.46,9.46,0,0,1,12.91,3.55A4.9,4.9,0,0,1,43,48.86,5,5,0,0,1,47.63,52Z"/><path class="cls-6" d="M52,20.12a8.22,8.22,0,0,1-3,6.36l-.15.11a12.08,12.08,0,0,1-3.37,1.57l-.09,0A12.31,12.31,0,0,1,31.05,22,9.38,9.38,0,0,1,26,23.53a9.55,9.55,0,0,1-4.84-1.31A13.15,13.15,0,0,1,10,28.35H9.75a12.82,12.82,0,0,1-3-.38l-.13,0a9.32,9.32,0,0,1,0-17.86,9.45,9.45,0,0,1,8.84-6c.31,0,.62,0,.93.05A7.68,7.68,0,0,1,18,4.34,9.49,9.49,0,0,1,33.67,4a9.24,9.24,0,0,1,2.25-.27,9.58,9.58,0,0,1,3.83.8,9.35,9.35,0,0,1,5.55,7.55A8.23,8.23,0,0,1,52,20.12Z"/><rect class="cls-7" x="0.02" y="0.28" width="51.95" height="51.44"/></g></g></svg>