<?xml version="1.0" encoding="UTF-8"?>
<!-- Generator: Adobe Illustrator 18.0.0, SVG Export Plug-In . SVG Version: 6.00 Build 0) -->
<svg xmlns="http://www.w3.org/2000/svg" xmlns:xlink="http://www.w3.org/1999/xlink" id="Layer_1" x="0px" y="0px" viewBox="0 0 1000 1000" style="enable-background:new 0 0 1000 1000;" xml:space="preserve"><script xmlns="" type="text/javascript" charset="utf-8" id="zm-extension"/> <linearGradient id="SVGID_1_" gradientUnits="userSpaceOnUse" x1="-657.8517" y1="261.6024" x2="-105.8793" y2="261.6024"> <stop offset="0" style="stop-color:#E9E400"/> <stop offset="0.055" style="stop-color:#E9DE09"/> <stop offset="0.1466" style="stop-color:#E9CF23"/> <stop offset="0.2634" style="stop-color:#E9B64D"/> <stop offset="0.4009" style="stop-color:#EA9486"/> <stop offset="0.5539" style="stop-color:#EA68CF"/> <stop offset="0.6459" style="stop-color:#EA4CFE"/> <stop offset="0.9944" style="stop-color:#6C009A"/> </linearGradient> <rect x="-657.852" y="231.604" style="display:none;fill:url(#SVGID_1_);" width="551.972" height="59.997"/> <g> <g> <path d="M1319.428,481.607v77.828h-66.194v202.995h-80.235V559.436h-66.193v-77.828H1319.428z"/> <path d="M1376.791,546.598c-11.233,0-20.931-4.074-29.086-12.235c-8.161-8.155-12.235-17.715-12.235-28.685 c0-10.963,4.074-20.522,12.235-28.684c8.155-8.155,17.853-12.236,29.086-12.236c10.963,0,20.522,4.081,28.684,12.236 c8.155,8.161,12.236,17.721,12.236,28.684c0,10.97-4.081,20.529-12.236,28.685 C1397.313,542.523,1387.754,546.598,1376.791,546.598z M1339.481,762.431V561.843h74.218v200.588H1339.481z"/> <path d="M1445.793,762.431V469.572h74.218v292.858H1445.793z"/> <path d="M1688.103,481.607h74.218v280.823h-74.218v-18.053c-12.837,15.783-30.759,23.669-53.757,23.669 c-27.017,0-49.082-10.029-66.194-30.088c-17.119-20.059-25.675-45.333-25.675-75.822s8.556-55.764,25.675-75.822 c17.112-20.059,39.178-30.089,66.194-30.089c22.998,0,40.92,7.893,53.757,23.67V481.607z M1626.522,689.016 c6.551,7.221,15.176,10.832,25.876,10.832c10.693,0,19.319-3.611,25.876-10.832c6.55-7.222,9.828-16.179,9.828-26.879 c0-10.694-3.278-19.658-9.828-26.879c-6.557-7.222-15.183-10.832-25.876-10.832c-10.7,0-19.325,3.61-25.876,10.832 c-6.557,7.221-9.829,16.185-9.829,26.879C1616.693,672.837,1619.966,681.794,1626.522,689.016z"/> <path d="M1930.408,561.843h74.218v200.588h-74.218v-18.053c-12.837,15.783-30.759,23.669-53.757,23.669 c-27.017,0-49.082-10.029-66.194-30.088c-17.119-20.059-25.676-45.333-25.676-75.822s8.557-55.764,25.676-75.822 c17.112-20.059,39.178-30.089,66.194-30.089c22.998,0,40.92,7.893,53.757,23.67V561.843z M1868.828,689.016 c6.551,7.221,15.176,10.832,25.876,10.832c10.693,0,19.319-3.611,25.876-10.832c6.55-7.222,9.828-16.179,9.828-26.879 c0-10.694-3.278-19.658-9.828-26.879c-6.557-7.222-15.183-10.832-25.876-10.832c-10.7,0-19.325,3.61-25.876,10.832 c-6.557,7.221-9.829,16.185-9.829,26.879C1858.999,672.837,1862.271,681.794,1868.828,689.016z"/> </g> <g> <linearGradient id="SVGID_2_" gradientUnits="userSpaceOnUse" x1="1106.8047" y1="616.4026" x2="2004.626" y2="616.4026"> <stop offset="0" style="stop-color:#E9E400"/> <stop offset="0.055" style="stop-color:#E9DE09"/> <stop offset="0.1466" style="stop-color:#E9CF23"/> <stop offset="0.2634" style="stop-color:#E9B64D"/> <stop offset="0.4009" style="stop-color:#EA9486"/> <stop offset="0.5539" style="stop-color:#EA68CF"/> <stop offset="0.6459" style="stop-color:#EA4CFE"/> <stop offset="0.9944" style="stop-color:#6C009A"/> </linearGradient> <path style="fill:url(#SVGID_2_);" d="M1319.428,481.607v77.828h-66.194v202.995h-80.235V559.436h-66.193v-77.828H1319.428z"/> <linearGradient id="SVGID_3_" gradientUnits="userSpaceOnUse" x1="1106.8047" y1="616.4026" x2="2004.626" y2="616.4026"> <stop offset="0" style="stop-color:#E9E400"/> <stop offset="0.055" style="stop-color:#E9DE09"/> <stop offset="0.1466" style="stop-color:#E9CF23"/> <stop offset="0.2634" style="stop-color:#E9B64D"/> <stop offset="0.4009" style="stop-color:#EA9486"/> <stop offset="0.5539" style="stop-color:#EA68CF"/> <stop offset="0.6459" style="stop-color:#EA4CFE"/> <stop offset="0.9944" style="stop-color:#6C009A"/> </linearGradient> <path style="fill:url(#SVGID_3_);" d="M1376.791,546.598c-11.233,0-20.931-4.074-29.086-12.235 c-8.161-8.155-12.235-17.715-12.235-28.685c0-10.963,4.074-20.522,12.235-28.684c8.155-8.155,17.853-12.236,29.086-12.236 c10.963,0,20.522,4.081,28.684,12.236c8.155,8.161,12.236,17.721,12.236,28.684c0,10.97-4.081,20.529-12.236,28.685 C1397.313,542.523,1387.754,546.598,1376.791,546.598z M1339.481,762.431V561.843h74.218v200.588H1339.481z"/> <linearGradient id="SVGID_4_" gradientUnits="userSpaceOnUse" x1="1106.8047" y1="616.4026" x2="2004.626" y2="616.4026"> <stop offset="0" style="stop-color:#E9E400"/> <stop offset="0.055" style="stop-color:#E9DE09"/> <stop offset="0.1466" style="stop-color:#E9CF23"/> <stop offset="0.2634" style="stop-color:#E9B64D"/> <stop offset="0.4009" style="stop-color:#EA9486"/> <stop offset="0.5539" style="stop-color:#EA68CF"/> <stop offset="0.6459" style="stop-color:#EA4CFE"/> <stop offset="0.9944" style="stop-color:#6C009A"/> </linearGradient> <path style="fill:url(#SVGID_4_);" d="M1445.793,762.431V469.572h74.218v292.858H1445.793z"/> <linearGradient id="SVGID_5_" gradientUnits="userSpaceOnUse" x1="1106.8047" y1="616.4026" x2="2004.626" y2="616.4026"> <stop offset="0" style="stop-color:#E9E400"/> <stop offset="0.055" style="stop-color:#E9DE09"/> <stop offset="0.1466" style="stop-color:#E9CF23"/> <stop offset="0.2634" style="stop-color:#E9B64D"/> <stop offset="0.4009" style="stop-color:#EA9486"/> <stop offset="0.5539" style="stop-color:#EA68CF"/> <stop offset="0.6459" style="stop-color:#EA4CFE"/> <stop offset="0.9944" style="stop-color:#6C009A"/> </linearGradient> <path style="fill:url(#SVGID_5_);" d="M1688.103,481.607h74.218v280.823h-74.218v-18.053 c-12.837,15.783-30.759,23.669-53.757,23.669c-27.017,0-49.082-10.029-66.194-30.088c-17.119-20.059-25.675-45.333-25.675-75.822 s8.556-55.764,25.675-75.822c17.112-20.059,39.178-30.089,66.194-30.089c22.998,0,40.92,7.893,53.757,23.67V481.607z M1626.522,689.016c6.551,7.221,15.176,10.832,25.876,10.832c10.693,0,19.319-3.611,25.876-10.832 c6.55-7.222,9.828-16.179,9.828-26.879c0-10.694-3.278-19.658-9.828-26.879c-6.557-7.222-15.183-10.832-25.876-10.832 c-10.7,0-19.325,3.61-25.876,10.832c-6.557,7.221-9.829,16.185-9.829,26.879C1616.693,672.837,1619.966,681.794,1626.522,689.016z "/> <linearGradient id="SVGID_6_" gradientUnits="userSpaceOnUse" x1="1106.8047" y1="616.4026" x2="2004.626" y2="616.4026"> <stop offset="0" style="stop-color:#E9E400"/> <stop offset="0.055" style="stop-color:#E9DE09"/> <stop offset="0.1466" style="stop-color:#E9CF23"/> <stop offset="0.2634" style="stop-color:#E9B64D"/> <stop offset="0.4009" style="stop-color:#EA9486"/> <stop offset="0.5539" style="stop-color:#EA68CF"/> <stop offset="0.6459" style="stop-color:#EA4CFE"/> <stop offset="0.9944" style="stop-color:#6C009A"/> </linearGradient> <path style="fill:url(#SVGID_6_);" d="M1930.408,561.843h74.218v200.588h-74.218v-18.053 c-12.837,15.783-30.759,23.669-53.757,23.669c-27.017,0-49.082-10.029-66.194-30.088c-17.119-20.059-25.676-45.333-25.676-75.822 s8.557-55.764,25.676-75.822c17.112-20.059,39.178-30.089,66.194-30.089c22.998,0,40.92,7.893,53.757,23.67V561.843z M1868.828,689.016c6.551,7.221,15.176,10.832,25.876,10.832c10.693,0,19.319-3.611,25.876-10.832 c6.55-7.222,9.828-16.179,9.828-26.879c0-10.694-3.278-19.658-9.828-26.879c-6.557-7.222-15.183-10.832-25.876-10.832 c-10.7,0-19.325,3.61-25.876,10.832c-6.557,7.221-9.829,16.185-9.829,26.879C1858.999,672.837,1862.271,681.794,1868.828,689.016z "/> </g> </g> <g> <linearGradient id="SVGID_7_" gradientUnits="userSpaceOnUse" x1="480.8429" y1="485.2102" x2="517.7172" y2="485.2102"> <stop offset="0" style="stop-color:#E9E400"/> <stop offset="0.055" style="stop-color:#E9DE09"/> <stop offset="0.1466" style="stop-color:#E9CF23"/> <stop offset="0.2634" style="stop-color:#E9B64D"/> <stop offset="0.4009" style="stop-color:#EA9486"/> <stop offset="0.5539" style="stop-color:#EA68CF"/> <stop offset="0.6459" style="stop-color:#EA4CFE"/> <stop offset="0.9944" style="stop-color:#6C009A"/> </linearGradient> <path style="fill:url(#SVGID_7_);" d="M512.324,498.252c7.19-7.209,7.19-18.88,0-26.07c-7.209-7.209-18.88-7.209-26.089,0 c-7.19,7.19-7.19,18.861,0,26.07C493.445,505.443,505.115,505.443,512.324,498.252z"/> <linearGradient id="SVGID_8_" gradientUnits="userSpaceOnUse" x1="589.6519" y1="302.6648" x2="773.9951" y2="302.6648"> <stop offset="0" style="stop-color:#E9E400"/> <stop offset="0.055" style="stop-color:#E9DE09"/> <stop offset="0.1466" style="stop-color:#E9CF23"/> <stop offset="0.2634" style="stop-color:#E9B64D"/> <stop offset="0.4009" style="stop-color:#EA9486"/> <stop offset="0.5539" style="stop-color:#EA68CF"/> <stop offset="0.6459" style="stop-color:#EA4CFE"/> <stop offset="0.9944" style="stop-color:#6C009A"/> </linearGradient> <path style="fill:url(#SVGID_8_);" d="M746.975,367.885c36.022-36.022,36.03-94.345,0-130.373 c-36.026-36.024-94.346-36.026-130.374,0c-35.932,35.932-35.934,94.415,0.005,130.376 C652.552,403.812,711.034,403.826,746.975,367.885z M642.677,263.586c21.614-21.614,56.608-21.618,78.225,0 c21.614,21.612,21.617,56.608,0,78.223c-21.559,21.56-56.652,21.56-78.221,0.004C621.118,320.238,621.116,285.145,642.677,263.586z "/> <linearGradient id="SVGID_9_" gradientUnits="userSpaceOnUse" x1="194.0184" y1="406.9874" x2="960.9668" y2="406.9874"> <stop offset="0" style="stop-color:#E9E400"/> <stop offset="0.055" style="stop-color:#E9DE09"/> <stop offset="0.1466" style="stop-color:#E9CF23"/> <stop offset="0.2634" style="stop-color:#E9B64D"/> <stop offset="0.4009" style="stop-color:#EA9486"/> <stop offset="0.5539" style="stop-color:#EA68CF"/> <stop offset="0.6459" style="stop-color:#EA4CFE"/> <stop offset="0.9944" style="stop-color:#6C009A"/> </linearGradient> <path style="fill:url(#SVGID_9_);" d="M205.405,476.161c2.281,0.946,4.678,1.405,7.052,1.405c4.799,0,9.514-1.875,13.041-5.4 c37.027-37.027,82.698-34.712,97.617-32.75l6.457,6.457c-12.707,30.237-22.943,60.304-30.451,89.547 c-2.71,10.583-1.796,21.782,2.233,32.025c-17.751,8.181-34.878,20.192-49.789,35.104c-47.459,47.461-57.096,163.124-57.483,168.025 c-0.424,5.378,1.527,10.673,5.341,14.488c3.472,3.47,8.168,5.4,13.035,5.4c0.483,0,0.968-0.018,1.453-0.057 c4.901-0.385,120.568-10.022,168.027-57.481c14.906-14.906,26.916-32.031,35.097-49.778c10.845,4.265,22.007,4.79,32.044,2.218 c29.23-7.506,59.294-17.738,89.534-30.447l6.457,6.457c1.96,14.921,4.276,60.592-32.75,97.615 c-5.271,5.273-6.849,13.203-3.995,20.091c2.852,6.89,9.574,11.381,17.032,11.381c72.974,0,174.996-43.458,212.571-113.669 c16.319-30.489,27.429-78.725-8.004-138.92c15.021-12.696,29.488-25.971,43.135-39.618 c60.879-60.879,108.672-139.685,142.054-234.223c41.705-117.994,45.693-217.252,45.842-221.419 c0.184-5.116-1.768-10.078-5.387-13.699c-3.621-3.619-8.562-5.581-13.699-5.387c-4.169,0.149-103.425,4.139-221.413,45.842 c-94.546,33.382-173.351,81.177-234.229,142.056c-13.642,13.642-26.916,28.107-39.618,43.136 c-60.194-35.432-108.429-24.322-138.922-8.004c-70.21,37.575-113.669,139.599-113.669,212.573 C194.024,466.585,198.517,473.309,205.405,476.161z M355.863,706.848c-25.351,25.351-84.82,38.722-122.408,44.181 c5.461-37.59,18.834-97.057,44.183-122.406c14.197-14.197,30.657-24.96,47.203-31.022l62.045,62.045 C380.823,676.191,370.062,692.651,355.863,706.848z M439.918,649.643c-5.336,1.366-11.516-0.64-16.11-5.227 c-89.496-89.494,25.388,25.39-83.727-83.727c-4.598-4.607-6.604-10.786-5.242-16.112c5.905-22.998,13.629-46.594,23.021-70.417 l152.466,152.466C486.499,636.02,462.907,643.741,439.918,649.643z M705.42,659.393c-24.156,45.132-84.977,78.4-140.402,89.852 c17.672-33.255,21.568-75.589,15.111-101.259c-1.499-5.963-5.389-8.96-5.607-9.313c44.679-21.64,86.99-47.601,126.268-77.464 C719.978,596.266,721.558,629.237,705.42,659.393z M889.638,223.716L760.77,94.848c70.21-21.807,131.291-29.973,161.778-32.908 C919.611,92.433,911.444,153.513,889.638,223.716z M512.308,237.498c54.62-54.622,125.113-98.093,209.577-129.384l154.488,154.488 c-31.288,84.462-74.759,154.955-129.384,209.578c-16.614,16.612-34.503,32.661-53.173,47.701 c-44.88,36.137-94.276,66.746-146.977,91.113L373.493,437.651c24.367-52.704,54.976-102.101,91.109-146.975 C479.654,271.994,495.701,254.102,512.308,237.498z M325.093,279.066c30.161-16.14,63.129-14.558,98.181,4.63 c-29.863,39.275-55.824,81.588-77.464,126.27c-0.275-0.17-3.593-4.342-9.759-5.732c-2.535-0.573-51.318-11.066-100.812,15.238 C246.693,364.045,279.959,303.222,325.093,279.066z"/> <linearGradient id="SVGID_10_" gradientUnits="userSpaceOnUse" x1="376.5507" y1="824.1744" x2="465.5647" y2="824.1744"> <stop offset="0" style="stop-color:#E9E400"/> <stop offset="0.055" style="stop-color:#E9DE09"/> <stop offset="0.1466" style="stop-color:#E9CF23"/> <stop offset="0.2634" style="stop-color:#E9B64D"/> <stop offset="0.4009" style="stop-color:#EA9486"/> <stop offset="0.5539" style="stop-color:#EA68CF"/> <stop offset="0.6459" style="stop-color:#EA4CFE"/> <stop offset="0.9944" style="stop-color:#6C009A"/> </linearGradient> <path style="fill:url(#SVGID_10_);" d="M408.027,863.289l52.14-52.159c7.198-7.202,7.196-18.876-0.004-26.074 c-7.203-7.2-18.878-7.196-26.076,0.004l-52.14,52.159c-7.198,7.202-7.196,18.876,0.004,26.074 C389.155,870.49,400.829,870.49,408.027,863.289z"/> <linearGradient id="SVGID_11_" gradientUnits="userSpaceOnUse" x1="115.7966" y1="563.4274" x2="204.8285" y2="563.4274"> <stop offset="0" style="stop-color:#E9E400"/> <stop offset="0.055" style="stop-color:#E9DE09"/> <stop offset="0.1466" style="stop-color:#E9CF23"/> <stop offset="0.2634" style="stop-color:#E9B64D"/> <stop offset="0.4009" style="stop-color:#EA9486"/> <stop offset="0.5539" style="stop-color:#EA68CF"/> <stop offset="0.6459" style="stop-color:#EA4CFE"/> <stop offset="0.9944" style="stop-color:#6C009A"/> </linearGradient> <path style="fill:url(#SVGID_11_);" d="M147.267,602.536l52.159-52.14c7.202-7.198,7.203-18.872,0.006-26.074 c-7.198-7.202-18.87-7.202-26.074-0.004l-52.159,52.14c-7.202,7.198-7.203,18.872-0.006,26.074 C128.39,609.73,140.062,609.738,147.267,602.536z"/> <linearGradient id="SVGID_12_" gradientUnits="userSpaceOnUse" x1="173.4303" y1="886.6208" x2="335.1982" y2="886.6208"> <stop offset="0" style="stop-color:#E9E400"/> <stop offset="0.055" style="stop-color:#E9DE09"/> <stop offset="0.1466" style="stop-color:#E9CF23"/> <stop offset="0.2634" style="stop-color:#E9B64D"/> <stop offset="0.4009" style="stop-color:#EA9486"/> <stop offset="0.5539" style="stop-color:#EA68CF"/> <stop offset="0.6459" style="stop-color:#EA4CFE"/> <stop offset="0.9944" style="stop-color:#6C009A"/> </linearGradient> <path style="fill:url(#SVGID_12_);" d="M303.725,811.145L178.832,936.02c-7.202,7.2-7.202,18.874-0.002,26.074 c7.196,7.2,18.872,7.203,26.074,0.002l124.893-124.875c7.202-7.2,7.202-18.874,0.002-26.074 C322.603,803.947,310.926,803.947,303.725,811.145z"/> <linearGradient id="SVGID_13_" gradientUnits="userSpaceOnUse" x1="25.9333" y1="886.6208" x2="187.7011" y2="886.6208"> <stop offset="0" style="stop-color:#E9E400"/> <stop offset="0.055" style="stop-color:#E9DE09"/> <stop offset="0.1466" style="stop-color:#E9CF23"/> <stop offset="0.2634" style="stop-color:#E9B64D"/> <stop offset="0.4009" style="stop-color:#EA9486"/> <stop offset="0.5539" style="stop-color:#EA68CF"/> <stop offset="0.6459" style="stop-color:#EA4CFE"/> <stop offset="0.9944" style="stop-color:#6C009A"/> </linearGradient> <path style="fill:url(#SVGID_13_);" d="M156.228,811.145L31.335,936.02c-7.202,7.2-7.202,18.874-0.002,26.074 c7.196,7.2,18.872,7.203,26.074,0.002L182.3,837.221c7.202-7.2,7.202-18.874,0.002-26.074 C175.104,803.947,163.427,803.947,156.228,811.145z"/> <linearGradient id="SVGID_14_" gradientUnits="userSpaceOnUse" x1="16.9913" y1="730.1716" x2="178.7407" y2="730.1716"> <stop offset="0" style="stop-color:#E9E400"/> <stop offset="0.055" style="stop-color:#E9DE09"/> <stop offset="0.1466" style="stop-color:#E9CF23"/> <stop offset="0.2634" style="stop-color:#E9B64D"/> <stop offset="0.4009" style="stop-color:#EA9486"/> <stop offset="0.5539" style="stop-color:#EA68CF"/> <stop offset="0.6459" style="stop-color:#EA4CFE"/> <stop offset="0.9944" style="stop-color:#6C009A"/> </linearGradient> <path style="fill:url(#SVGID_14_);" d="M48.466,805.654l124.875-124.893c7.2-7.202,7.2-18.874-0.002-26.076 c-7.198-7.198-18.874-7.198-26.074,0.002L22.391,779.581c-7.2,7.202-7.2,18.874,0.002,26.076 C29.592,812.856,41.267,812.856,48.466,805.654z"/> <linearGradient id="SVGID_15_" gradientUnits="userSpaceOnUse" x1="532.9908" y1="420.0225" x2="595.9362" y2="420.0225"> <stop offset="0" style="stop-color:#E9E400"/> <stop offset="0.055" style="stop-color:#E9DE09"/> <stop offset="0.1466" style="stop-color:#E9CF23"/> <stop offset="0.2634" style="stop-color:#E9B64D"/> <stop offset="0.4009" style="stop-color:#EA9486"/> <stop offset="0.5539" style="stop-color:#EA68CF"/> <stop offset="0.6459" style="stop-color:#EA4CFE"/> <stop offset="0.9944" style="stop-color:#6C009A"/> </linearGradient> <path style="fill:url(#SVGID_15_);" d="M564.466,446.095l26.07-26.07c7.2-7.2,7.2-18.874,0-26.076c-7.202-7.2-18.872-7.2-26.076,0 l-26.07,26.07c-7.2,7.2-7.2,18.874,0,26.076C545.592,453.295,557.265,453.295,564.466,446.095z"/> </g> <g> </g> <g> </g> <g> </g> <g> </g> <g> </g> <g> </g> <g> </g> <g> </g> <g> </g> <g> </g> <g> </g> <g> </g> <g> </g> <g> </g> <g> </g> </svg>