<?xml version="1.0" encoding="UTF-8"?>
                  <svg width="76px" height="76px" viewBox="0 0 76 76" version="1.1" xmlns="http://www.w3.org/2000/svg" xmlns:xlink="http://www.w3.org/1999/xlink">
                      <!-- Generator: Sketch 63.1 (92452) - https://sketch.com -->
                      <title>icon_bus</title>
                      <desc>Created with Sketch.</desc>
                      <defs>
                          <rect id="path-1" x="0" y="0" width="264" height="325"></rect>
                          <filter x="-4.9%" y="-3.4%" width="109.8%" height="108.0%" filterUnits="objectBoundingBox" id="filter-2">
                              <feOffset dx="0" dy="2" in="SourceAlpha" result="shadowOffsetOuter1"></feOffset>
                              <feGaussianBlur stdDeviation="4" in="shadowOffsetOuter1" result="shadowBlurOuter1"></feGaussianBlur>
                              <feColorMatrix values="0 0 0 0 0   0 0 0 0 0   0 0 0 0 0  0 0 0 0.2 0" type="matrix" in="shadowBlurOuter1"></feColorMatrix>
                          </filter>
                      </defs>
                      <g id="Page-1" stroke="none" stroke-width="1" fill="none" fill-rule="evenodd">
                          <g id="01_homepage_mcparking" transform="translate(-832.000000, -1040.000000)">
                              <g id="Group-5" transform="translate(738.000000, 1007.000000)">
                                  <g id="Rectangle">
                                      <use fill="black" fill-opacity="1" filter="url(#filter-2)" xlink:href="#path-1"></use>
                                      <use fill="#FFFFFF" fill-rule="evenodd" xlink:href="#path-1"></use>
                                  </g>
                                  <g id="icon_bus" transform="translate(82.000000, 20.000000)" fill="#0153B8">
                                      <path d="M71.2856552,50 L63.5714515,50 C62.1512545,50 61,51.1640495 61,52.6000305 L61,60.3999695 C61,61.8359505 62.1512545,63 63.5714515,63 L77.7142086,63 C78.1815809,63 78.6121901,62.7436075 78.8387949,62.3301498 C79.0653996,61.9168444 79.0522915,61.4116765 78.8045932,61.0110155 L72.3760399,50.611046 C72.1409977,50.230799 71.7289206,50 71.2856552,50 Z M63.5714515,60.3998172 L63.5714515,52.5998781 L70.5734474,52.5998781 L75.3948248,60.3998172 L63.5714515,60.3998172 Z" id="Shape" fill-rule="nonzero"></path>
                                      <path d="M42.5000244,63 L52.4999756,63 C53.8807238,63 55,61.8359505 55,60.3999695 L55,52.6000305 C55,51.1640495 53.8807238,50 52.4999756,50 L42.5000244,50 C41.1192762,50 40,51.1640495 40,52.6000305 L40,60.3999695 C40,61.8359505 41.1192762,63 42.5000244,63 Z M42.5000244,52.6000305 L52.4999756,52.6000305 L52.4999756,60.3999695 L42.5000244,60.3999695 L42.5000244,52.6000305 Z" id="Shape" fill-rule="nonzero"></path>
                                      <path d="M32.4998291,50 L22.5000244,50 C21.1192762,50 20,51.1640495 20,52.6000305 L20,60.3999695 C20,61.8359505 21.1192762,63 22.5000244,63 L32.4999756,63 C33.8807238,63 35,61.8359505 35,60.3999695 L35,52.6000305 C35,51.1640495 33.8805773,50 32.4998291,50 Z M32.4998291,60.3998172 L22.5000244,60.3998172 L22.5000244,52.5998781 L32.4999756,52.5998781 L32.4999756,60.3998172 L32.4998291,60.3998172 Z" id="Shape" fill-rule="nonzero"></path>
                                      <path d="M28.7498901,66 L26.2499634,66 C25.5595758,66 25,66.6715106 25,67.5 C25,68.3284894 25.5597223,69 26.2499634,69 L28.7500366,69 C29.4404242,69 30,68.3284894 30,67.5 C30,66.6715106 29.4402777,66 28.7498901,66 Z" id="Path"></path>
                                      <path d="M46.2499634,66 C45.5595758,66 45,66.6715106 45,67.5 C45,68.3284894 45.5595758,69 46.2499634,69 L48.7500366,69 C49.4404242,69 50,68.3284894 50,67.5 C50,66.6715106 49.4404242,66 48.7500366,66 L46.2499634,66 Z" id="Path"></path>
                                      <path d="M68.7500366,66 L66.2499634,66 C65.5595758,66 65,66.6715106 65,67.5 C65,68.3284894 65.5595758,69 66.2499634,69 L68.7500366,69 C69.4404242,69 70,68.3284894 70,67.5 C70,66.6715106 69.4404242,66 68.7500366,66 Z" id="Path"></path>
                                      <path d="M81.5308405,28.5567006 L75.7498784,23.8062907 L75.7498784,19.2845496 C75.7498784,18.5750591 75.1903407,18 74.5,18 C73.8096593,18 73.2501216,18.5750591 73.2501216,19.2845496 L73.2501216,23.8062907 L67.4691595,28.5592597 C66.9299819,29.0025972 66.8426823,29.8112929 67.2742001,30.3654271 C67.7055715,30.9195613 68.4924397,31.0092826 69.0316173,30.5657946 L73.2501216,27.094816 L73.2501216,32.8831925 L72.3664329,33.7913946 C72.0415494,34.1138492 71.9111859,34.5915095 72.0255836,35.040718 C72.1399812,35.4899265 72.4812699,35.8405319 72.9182074,35.9581029 C73.3552913,36.0756739 73.8199127,35.9416942 74.1338104,35.6077986 L74.5,35.231451 L74.8661896,35.6077986 C75.3565907,36.0946418 76.1362817,36.087717 76.6183337,35.5921425 C77.1005321,35.096568 77.10727,34.2953993 76.6335671,33.7913946 L75.7498784,32.8831925 L75.7498784,27.094816 L79.9683827,30.5632354 C80.5075603,31.0065729 81.294282,30.9168516 81.7257999,30.362868 C82.1573177,29.8087338 82.0700181,29.0001886 81.5308405,28.5567006 Z" id="Path"></path>
                                      <path d="M84.2,40.8670526 C86.2986094,40.8670526 88,39.1657838 88,37.0669932 L88,16.8000594 C88,14.7014172 86.2987578,13 84.2,13 L63.9333828,13 C61.8347734,13 60.1333828,14.7012688 60.1333828,16.8000594 L60.1333828,37.0669932 C60.1333828,39.1656354 61.8347734,40.8670526 63.9333828,40.8670526 L72.8,40.8670526 L72.8,44.6847763 C72.7530938,44.6847763 72.7100469,44.667112 72.6631406,44.667112 L15.8,44.667112 C13.7013906,44.667112 12,46.3683808 12,48.4671714 L12,78.8676464 C12,80.9662885 13.7012422,82.6677057 15.8,82.6677057 L19.714,82.6677057 C20.3286797,86.3230363 23.4933672,89 27.2,89 C30.9066328,89 34.0711719,86.3230363 34.686,82.6677057 L64.0473828,82.6677057 C64.6620625,86.3230363 67.82675,89 71.5333828,89 C75.2400156,89 78.4047031,86.3230363 79.0193828,82.6677057 L84.2,82.6677057 C86.2986094,82.6677057 88,80.9662885 88,78.8676464 L88,66.9278895 C88,66.2156752 87.7999062,65.5178597 87.4224297,64.913858 L75.8855703,46.4531399 C75.7277812,46.2077689 75.5425312,45.9812497 75.3332344,45.7780356 L75.3332344,40.8670526 L84.2,40.8670526 Z M27.2,86.4677651 C24.4018047,86.4677651 22.1333828,84.1993078 22.1333828,81.4010688 C22.1333828,78.6028297 24.4018047,76.3343724 27.2,76.3343724 C29.9981953,76.3343724 32.2666172,78.6028297 32.2666172,81.4010688 C32.2666172,84.1993078 29.9981953,86.4677651 27.2,86.4677651 Z M71.5333828,86.4677651 C68.7351875,86.4677651 66.4667656,84.1993078 66.4667656,81.4010688 C66.4667656,78.6028297 68.7351875,76.3343724 71.5333828,76.3343724 C74.3315781,76.3343724 76.6,78.6028297 76.6,81.4010688 C76.6,84.1993078 74.3315781,86.4677651 71.5333828,86.4677651 Z M85.2740938,66.2566446 C85.3999688,66.457929 85.4666172,66.6905342 85.4666172,66.9280379 L85.4666172,75.0677354 L81.6666172,75.0677354 C80.9670313,75.0677354 80.4,75.6347755 80.4,76.3343724 C80.4,77.0339693 80.9670313,77.6010094 81.6666172,77.6010094 L85.4666172,77.6010094 L85.4666172,78.8676464 C85.4666172,79.5672432 84.8995859,80.1342833 84.2,80.1342833 L79.0193828,80.1342833 C78.4047031,76.4789528 75.2400156,73.8021375 71.5333828,73.8021375 C67.82675,73.8021375 64.6620625,76.4789528 64.0473828,80.1342833 L34.686,80.1342833 C34.0711719,76.4789528 30.9066328,73.8021375 27.2,73.8021375 C23.4933672,73.8021375 20.3286797,76.4789528 19.714,80.1342833 L15.8,80.1342833 C15.1004141,80.1342833 14.5333828,79.5672432 14.5333828,78.8676464 L14.5333828,77.6010094 L17.0667656,77.6010094 C17.7663516,77.6010094 18.3333828,77.0339693 18.3333828,76.3343724 C18.3333828,75.6347755 17.7663516,75.0677354 17.0667656,75.0677354 L14.5333828,75.0677354 L14.5333828,48.4673198 C14.5333828,47.7677229 15.1004141,47.2006755 15.8,47.2006755 L72.6631406,47.2006755 C73.0999922,47.1991984 73.5061172,47.4245301 73.7360469,47.7960749 L85.2740938,66.2566446 Z M63.9333828,38.3337787 C63.2337969,38.3337787 62.6667656,37.7667385 62.6667656,37.0671417 L62.6667656,16.8000594 C62.6667656,16.1004625 63.2337969,15.5334224 63.9333828,15.5334224 L84.2,15.5334224 C84.8995859,15.5334224 85.4666172,16.1004625 85.4666172,16.8000594 L85.4666172,37.0669932 C85.4666172,37.7665901 84.8995859,38.3337787 84.2,38.3337787 L63.9333828,38.3337787 L63.9333828,38.3337787 Z" id="Shape" fill-rule="nonzero"></path>
                                      <path d="M61.7143288,75 L37.2856712,75 C36.5755612,75 36,75.6715106 36,76.5 C36,77.3284894 36.5755612,78 37.2856712,78 L61.7143288,78 C62.4244388,78 63,77.3284894 63,76.5 C63,75.6715106 62.4244388,75 61.7143288,75 Z" id="Path"></path>
                                  </g>
                              </g>
                          </g>
                      </g>
                  </svg>