<svg xmlns="http://www.w3.org/2000/svg" xmlns:xlink="http://www.w3.org/1999/xlink" viewBox="0 0 52 52"><defs><style>.cls-1{fill:url(#linear-gradient);}.cls-2{fill:url(#linear-gradient-2);}.cls-3{fill:url(#linear-gradient-3);}.cls-4{fill:url(#linear-gradient-4);}.cls-5{fill:url(#linear-gradient-5);}.cls-6{fill:#fff;}.cls-7{fill:url(#linear-gradient-6);}.cls-8{fill:url(#linear-gradient-7);}.cls-9{fill:none;}</style><linearGradient id="linear-gradient" x1="0.18" y1="46.16" x2="11.5" y2="46.16" gradientUnits="userSpaceOnUse"><stop offset="0" stop-color="#757be5"/><stop offset="1" stop-color="#ebecfa"/></linearGradient><linearGradient id="linear-gradient-2" x1="40.5" y1="46.16" x2="51.82" y2="46.16" xlink:href="#linear-gradient"/><linearGradient id="linear-gradient-3" x1="26" y1="-1.06" x2="26" y2="51.45" xlink:href="#linear-gradient"/><linearGradient id="linear-gradient-4" x1="7.85" y1="26" x2="44.15" y2="26" xlink:href="#linear-gradient"/><linearGradient id="linear-gradient-5" x1="15.54" y1="26" x2="36.46" y2="26" xlink:href="#linear-gradient"/><linearGradient id="linear-gradient-6" x1="25.54" y1="15.43" x2="47.58" y2="15.43" xlink:href="#linear-gradient"/><linearGradient id="linear-gradient-7" x1="42.22" y1="5.13" x2="51.52" y2="5.13" xlink:href="#linear-gradient"/></defs><title>result</title><g id="Layer_2" data-name="Layer 2"><g id="Layer_1-2" data-name="Layer 1"><path class="cls-1" d="M1.76,51.49.51,50.24a1.11,1.11,0,0,1,0-1.58L8.67,40.5l2.83,2.83L3.34,51.49A1.11,1.11,0,0,1,1.76,51.49Z"/><path class="cls-2" d="M48.66,51.49,40.5,43.33l2.83-2.83,8.16,8.16a1.11,1.11,0,0,1,0,1.58l-1.25,1.25A1.11,1.11,0,0,1,48.66,51.49Z"/><circle class="cls-3" cx="26" cy="26" r="26"/><path class="cls-4" d="M26,11.85A14.15,14.15,0,1,1,11.85,26,14.17,14.17,0,0,1,26,11.85m0-4A18.15,18.15,0,1,0,44.15,26,18.16,18.16,0,0,0,26,7.85Z"/><path class="cls-5" d="M26,19.54A6.46,6.46,0,1,1,19.54,26,6.47,6.47,0,0,1,26,19.54m0-4A10.46,10.46,0,1,0,36.46,26,10.46,10.46,0,0,0,26,15.54Z"/><circle class="cls-6" cx="26" cy="26" r="2.52"/><path class="cls-7" d="M26,26.2l-.27-.27a.83.83,0,0,1,0-1.15L46.16,4.42l1.42,1.42L27.19,26.2A.83.83,0,0,1,26,26.2Z"/><polygon class="cls-8" points="47.66 0.48 47.89 4.11 51.52 4.33 46.08 9.78 42.45 9.55 42.22 5.92 47.66 0.48"/><rect class="cls-9" width="52" height="52"/></g></g></svg>