<svg xmlns="http://www.w3.org/2000/svg" width="64" height="60" viewBox="0 0 64 60"><g><g><g><path d="M61.897 57.996H2.13V6h59.767zM3.108 2h1.016c-.55 0-.99.447-.99 1A.998.998 0 1 0 5.13 3c0-.553-.446-1-.996-1h2.977c-.55 0-.99.447-.99 1A.998.998 0 1 0 8.12 3c0-.553-.446-1-.996-1h2.978c-.55 0-.99.447-.99 1a.998.998 0 1 0 1.997 0c0-.553-.446-1-.996-1h50.772c.55 0 .996.448.996 1v1H2.113V3a.997.997 0 0 1 .995-1zm60.763 1c0-1.654-1.34-3-2.988-3H3.108A2.998 2.998 0 0 0 .12 3v2c0 .031.015.057.018.087v53.909c0 .553.445 1 .996 1h61.759c.55 0 .996-.447.996-1V5c0-.031-.015-.057-.018-.087z"/></g><g><path d="M6.113 11.02h51.796v27.997H6.113zm-.997 29.996h53.789c.55 0 .996-.447.996-1V10.02c0-.553-.445-1-.996-1H5.116a.997.997 0 0 0-.996 1v29.996c0 .552.445 1 .996 1z"/></g><g><path d="M49.942 46.52c0-.827.67-1.5 1.494-1.5s1.495.673 1.495 1.5-.67 1.5-1.495 1.5a1.499 1.499 0 0 1-1.494-1.5zm4.98 0c0-1.93-1.563-3.5-3.486-3.5a3.497 3.497 0 0 0-3.486 3.5c0 1.93 1.564 3.5 3.486 3.5a3.498 3.498 0 0 0 3.487-3.5z"/></g><g><path d="M30.505 46.52c0-.827.67-1.5 1.491-1.5.823 0 1.492.673 1.492 1.5s-.67 1.5-1.492 1.5a1.497 1.497 0 0 1-1.49-1.5zm4.978 0c0-1.93-1.564-3.5-3.487-3.5a3.497 3.497 0 0 0-3.486 3.5c0 1.93 1.564 3.5 3.486 3.5a3.498 3.498 0 0 0 3.487-3.5z"/></g><g><path d="M11.072 46.52c0-.827.67-1.5 1.494-1.5s1.495.673 1.495 1.5-.67 1.5-1.495 1.5a1.499 1.499 0 0 1-1.494-1.5zm4.98 0c0-1.93-1.563-3.5-3.486-3.5a3.497 3.497 0 0 0-3.486 3.5c0 1.93 1.564 3.5 3.486 3.5a3.498 3.498 0 0 0 3.487-3.5z"/></g><g><path d="M19.06 51.02H6.116a.997.997 0 0 0-.996 1c0 .553.445 1 .996 1H19.06c.55 0 .996-.447.996-1 0-.553-.447-1-.996-1z"/></g><g><path d="M57.91 51.02H44.966a.997.997 0 0 0-.996 1c0 .553.445 1 .996 1H57.91c.55 0 .996-.447.996-1 0-.553-.446-1-.996-1z"/></g><g><path d="M38.47 51.02H25.526a.997.997 0 0 0-.996 1c0 .553.445 1 .996 1H38.47c.55 0 .996-.447.996-1 0-.553-.446-1-.996-1z"/></g><g><path d="M35.5 54.02h-7.004a.997.997 0 0 0-.996 1c0 .553.445 1 .996 1H35.5c.55 0 .996-.447.996-1 0-.553-.446-1-.996-1z"/></g><g><path d="M54.925 54.02h-6.979a.997.997 0 0 0-.996 1c0 .553.445 1 .996 1h6.979c.55 0 .996-.447.996-1 0-.553-.446-1-.996-1z"/></g><g><path d="M16.077 54.02h-6.97a.997.997 0 0 0-.997 1c0 .553.445 1 .996 1h6.97c.552 0 .997-.447.997-1 0-.553-.446-1-.996-1z"/></g><g><path d="M23.894 33.105l-3.39-1.783a.995.995 0 0 0-.925 0l-3.39 1.783a8.985 8.985 0 0 1-2.69-1.978l.646-3.771a1.003 1.003 0 0 0-.287-.886l-2.703-2.638a8.955 8.955 0 0 1 1.061-3.229l3.716-.549a1 1 0 0 0 .75-.548l1.643-3.349a8.979 8.979 0 0 1 1.715-.169c.587 0 1.16.061 1.716.17l1.646 3.349a.996.996 0 0 0 .748.547l3.715.548a8.948 8.948 0 0 1 1.062 3.229l-2.701 2.639c-.235.23-.343.561-.287.886l.644 3.771a8.972 8.972 0 0 1-2.69 1.978zm-4.952.81l1.095-.578 1.095.578a8.81 8.81 0 0 1-1.095.075c-.37 0-.736-.03-1.095-.075zm-3.348-16.736l-.475.975-1.07.159a8.895 8.895 0 0 1 1.545-1.134zm-3.718 11.533a8.94 8.94 0 0 1-.636-2.006l.834.827zm14.147-10.401l-1.067-.158-.474-.973a9.038 9.038 0 0 1 1.54 1.131zm1.969 9.226l.842-.83a9.025 9.025 0 0 1-.642 2.013zm1.271-8.456a10.979 10.979 0 0 0-6.497-4.731l-.032-.009a10.857 10.857 0 0 0-2.697-.351c-.935 0-1.84.131-2.707.354l-.016.004a10.985 10.985 0 0 0-6.51 4.745 10.973 10.973 0 0 0 .817 12.928c0 .002.002.003.003.004 2.012 2.421 5.035 3.965 8.413 3.965s6.402-1.544 8.413-3.965l.003-.003a10.973 10.973 0 0 0 .827-12.915c-.007-.009-.01-.018-.017-.026z"/></g><g><path d="M21.586 26.99h-3.084l-.954-2.942 2.496-1.821 2.496 1.821zm-.956-6.808a.99.99 0 0 0-1.172 0l-3.667 2.676c-.35.255-.495.706-.362 1.118l1.402 4.324c.133.412.516.69.947.69h4.531a.996.996 0 0 0 .947-.69l1.402-4.324a1.003 1.003 0 0 0-.362-1.118z"/></g><g><path d="M53.911 17H34.986a.997.997 0 0 0-.996 1c0 .553.445 1 .996 1h18.925c.551 0 .996-.447.996-1 0-.553-.445-1-.996-1z"/></g><g><path d="M53.911 20H34.986a.997.997 0 0 0-.996 1c0 .553.445 1 .996 1h18.925c.551 0 .996-.447.996-1 0-.553-.445-1-.996-1z"/></g><g><path d="M53.911 23H34.986a.997.997 0 0 0-.996 1c0 .553.445 1 .996 1h18.925c.551 0 .996-.447.996-1 0-.553-.445-1-.996-1z"/></g><g><path d="M44.937 26h-9.95a.997.997 0 0 0-.997 1c0 .553.445 1 .996 1h9.951c.551 0 .996-.447.996-1 0-.553-.445-1-.996-1z"/></g><g><path d="M38.955 31h-3.969a.997.997 0 0 0-.996 1c0 .553.445 1 .996 1h3.969c.55 0 .996-.447.996-1 0-.553-.446-1-.996-1z"/></g></g></g></svg>