<svg width="84" height="84" viewBox="0 0 84 84" fill="none" xmlns="http://www.w3.org/2000/svg">
<path d="M63.5 65V70.5L56.5 65H43C42.6 65 38.8333 64 37 63.5L36 61V49.5L42 47L46 43L48.5 38.5L49.5 34.5H63.5L69.5 36L71 38.5V59L70 63.5L68 65H63.5Z" fill="white"/>
<path d="M32.0159 14.1523C22.1503 14.1523 14.1523 22.1503 14.1523 32.0159C14.1523 35.9415 15.4195 39.5705 17.5657 42.5185L15.3637 47.3565L20.8134 45.9318V45.9296C23.8775 48.3999 27.7739 49.88 32.0159 49.88C41.882 49.88 49.88 41.882 49.88 32.0159C49.88 22.1503 41.882 14.1523 32.0159 14.1523V14.1523Z" fill="#93DD00"/>
<path d="M67.1602 33.7422H50.9531C51.0044 33.1737 51.0323 32.5979 51.0323 32.0159C51.0323 21.5305 42.5014 13 32.0159 13C28.6759 13 25.3904 13.8787 22.5145 15.5406C21.9635 15.8588 21.7749 16.5637 22.0932 17.1147C22.4119 17.6661 23.1168 17.8542 23.6677 17.536C26.1934 16.0762 29.0801 15.3047 32.0159 15.3047C41.2306 15.3047 48.7276 22.8012 48.7276 32.0159C48.7276 41.2306 41.2306 48.7276 32.0159 48.7276C28.1587 48.7276 24.5351 47.4497 21.5368 45.0325C21.2361 44.7903 20.8377 44.7178 20.4749 44.829L17.4163 45.6289L18.6145 42.9956C18.7869 42.6175 18.7419 42.1764 18.4975 41.8401C16.4089 38.9714 15.3047 35.5742 15.3047 32.0159C15.3047 29.0725 16.0803 26.1786 17.5477 23.6475C17.8669 23.0965 17.6791 22.3916 17.1286 22.0725C16.5781 21.7533 15.8732 21.9406 15.5536 22.4915C13.8832 25.3733 13 28.6669 13 32.0159C13 35.8371 14.1195 39.4963 16.2441 42.6404L14.3148 46.8794C14.1303 47.284 14.1956 47.7585 14.4818 48.0988C14.7681 48.4391 15.2246 48.584 15.6549 48.4715L20.5555 47.1904C23.8406 49.672 27.8868 51.0323 32.0159 51.0323C32.9148 51.0323 33.7985 50.9679 34.6641 50.8468V60.9375C34.6641 63.6059 36.8351 65.7773 39.5035 65.7773H55.8015L63.0887 71.7394C63.2985 71.9113 63.5573 71.9995 63.8184 71.9995C63.9863 71.9995 64.1546 71.9631 64.3117 71.8888C64.7141 71.698 64.9707 71.2928 64.9707 70.8472V65.7773H67.1602C69.829 65.7773 72 63.6059 72 60.9375V38.582C72 35.9132 69.829 33.7422 67.1602 33.7422ZM69.6953 60.9375C69.6953 62.3352 68.5583 63.4727 67.1602 63.4727H63.8184C63.1819 63.4727 62.666 63.9885 62.666 64.625V68.4156L56.9745 63.7589C56.6608 63.4727 56.3862 63.4727 55.7691 63.4727H39.5035C38.1058 63.4727 36.9688 62.3352 36.9688 60.9375V50.3764C43.7851 48.5359 49.0958 42.9929 50.6006 36.0469H67.1602C68.5583 36.0469 69.6953 37.1839 69.6953 38.582V60.9375Z" fill="black"/>
<path d="M59.0663 53.1713C59.457 52.9872 59.728 52.5907 59.728 52.1297C59.728 51.4937 59.2122 50.9774 58.5757 50.9774H58.1039L54.3876 42.5077C54.2035 42.0886 53.7894 41.8181 53.3321 41.8181C52.8747 41.8181 52.4606 42.0886 52.2769 42.5077L48.5606 50.9774H48.0889C47.4524 50.9774 46.9366 51.4937 46.9366 52.1297C46.9366 52.5907 47.2075 52.9872 47.5983 53.1713L46.2141 56.3259C45.9584 56.9088 46.2235 57.5885 46.806 57.8442C47.3889 58.0999 48.0686 57.8347 48.3243 57.2518L50.0663 53.2821H56.5982L58.3403 57.2518C58.5298 57.6839 58.9524 57.9414 59.3963 57.9414C59.5507 57.9414 59.7078 57.9104 59.8586 57.8442C60.441 57.5885 60.7066 56.9088 60.4505 56.3259L59.0663 53.1713ZM51.0773 50.9774L53.3321 45.8387L55.5868 50.9774H51.0773Z" fill="black"/>
<path d="M19.3843 20.5361C19.6872 20.5361 19.9843 20.4128 20.199 20.1985C20.4133 19.9843 20.5366 19.6872 20.5366 19.3838C20.5366 19.0808 20.4133 18.7838 20.199 18.569C19.9843 18.3548 19.6872 18.2314 19.3843 18.2314C19.08 18.2314 18.7838 18.3548 18.5695 18.569C18.3553 18.7838 18.2319 19.0808 18.2319 19.3838C18.2319 19.6872 18.3553 19.9843 18.5695 20.1985C18.7838 20.4132 19.0809 20.5361 19.3843 20.5361Z" fill="black"/>
<path d="M25.1372 39.029C24.579 39.3351 24.3747 40.0355 24.6808 40.5937C24.8905 40.9759 25.2853 41.1924 25.6922 41.1924C25.8795 41.1924 26.0694 41.1465 26.2454 41.0501C28.8153 39.6408 30.7923 37.4486 31.9486 34.8635C33.1055 37.4486 35.082 39.6408 37.6518 41.0501C37.8279 41.1465 38.0178 41.1924 38.2051 41.1924C38.612 41.1924 39.0068 40.9759 39.2165 40.5937C39.5226 40.0355 39.3182 39.3351 38.7601 39.029C35.7518 37.3793 33.7271 34.4309 33.2243 31.0995H38.3406C38.977 31.0995 39.4929 30.5836 39.4929 29.9471C39.4929 29.3106 38.977 28.7948 38.3406 28.7948H33.101V23.9927C33.101 23.3562 32.5851 22.8404 31.9486 22.8404C31.3122 22.8404 30.7963 23.3562 30.7963 23.9927V28.7948H26.6335C25.997 28.7948 25.4811 29.3106 25.4811 29.9471C25.4811 30.5836 25.997 31.0995 26.6335 31.0995H30.673C30.1702 34.4309 28.1455 37.3797 25.1372 39.029Z" fill="black"/>
</svg>