<svg width="56" height="54" viewBox="0 0 56 54" fill="none" xmlns="http://www.w3.org/2000/svg">
<mask id="path-1-inside-1" fill="white">
<path d="M4.4673 48.2476H27.6977V46.4603H4.4673C2.98699 46.4603 1.78687 45.2602 1.78687 43.7799V4.46727C1.78687 2.98657 2.98699 1.78686 4.4673 1.78686H43.7802C45.2611 1.78686 46.4606 2.98652 46.4606 4.46727V25.0169H48.2479V4.46727C48.2449 2.00116 46.2465 0.00292458 43.7802 0H4.4673C2.00163 0.00292458 0.00315398 2.00116 0 4.46727V43.7799C0.00315398 46.246 2.00163 48.2442 4.4673 48.2476Z"/>
<path d="M3.5743 3.57426H5.36094V5.36089H3.5743V3.57426Z"/>
<path d="M7.14758 3.57426H8.93492V5.36089H7.14758V3.57426Z"/>
<path d="M10.7216 3.57426H12.5087V5.36089H10.7216V3.57426Z"/>
<path d="M3.5743 7.1476H44.6738V8.93493H3.5743V7.1476Z"/>
<path d="M12.7705 10.9833L10.501 13.2528C8.58273 11.9828 6.01384 12.3725 4.55797 14.1542C3.10232 15.9357 3.2329 18.5307 4.8596 20.1573C6.48614 21.7844 9.08146 21.915 10.8632 20.4591C12.6446 19.0035 13.0345 16.4342 11.7643 14.5163L14.0336 12.2469L12.7705 10.9833ZM8.04099 19.6561C6.56091 19.6561 5.3608 18.4562 5.3608 16.9759C5.3608 15.4954 6.56091 14.2957 8.04099 14.2957C8.4396 14.297 8.83172 14.3884 9.18938 14.5633L7.40974 16.3432L8.67282 17.6067L10.4538 15.8279C10.6287 16.1853 10.7203 16.5775 10.7217 16.9758C10.7216 18.4561 9.52198 19.6561 8.04099 19.6561Z"/>
<path d="M15.1891 14.2958H30.3778V16.0825H15.1891V14.2958Z"/>
<path d="M15.1891 17.8695H21.4433V19.6561H15.1891V17.8695Z"/>
<path d="M23.2304 17.8695H35.7387V19.6561H23.2304V17.8695Z"/>
<path d="M32.165 14.2958H41.0998V16.0825H32.165V14.2958Z"/>
<path d="M12.7705 21.705L10.501 23.9745C8.58273 22.7045 6.01384 23.0941 4.55797 24.8759C3.10232 26.6576 3.2329 29.2524 4.8596 30.8794C6.48614 32.5062 9.08146 32.6367 10.8632 31.1808C12.6446 29.725 13.0345 27.1566 11.7643 25.238L14.0336 22.9686L12.7705 21.705ZM8.04099 30.3779C6.56091 30.3779 5.3608 29.1778 5.3608 27.6975C5.3608 26.217 6.56091 25.0169 8.04099 25.0169C8.4396 25.0185 8.83172 25.1101 9.18938 25.285L7.40968 27.0654L8.67276 28.3285L10.4538 26.5494C10.6287 26.9071 10.7203 27.2992 10.7216 27.6976C10.7216 29.1778 9.52198 30.3779 8.04099 30.3779Z"/>
<path d="M15.1891 25.0169H30.3778V26.804H15.1891V25.0169Z"/>
<path d="M15.1891 28.5911H21.4433V30.378H15.1891V28.5911Z"/>
<path d="M23.2304 28.5911H30.3779V30.378H23.2304V28.5911Z"/>
<path d="M32.165 25.0169H35.7387V26.804H32.165V25.0169Z"/>
<path d="M12.7705 32.4266L10.501 34.6961C8.58273 33.426 6.01384 33.8157 4.55797 35.5975C3.10232 37.3792 3.2329 39.974 4.8596 41.601C6.48614 43.228 9.08146 43.3581 10.8632 41.9024C12.6446 40.4465 13.0345 37.8779 11.7643 35.9594L14.0336 33.6901L12.7705 32.4266ZM8.04099 41.0995C6.56091 41.0995 5.3608 39.8994 5.3608 38.4191C5.3608 36.9386 6.56091 35.7387 8.04099 35.7387C8.4396 35.74 8.83172 35.8314 9.18938 36.0065L7.40968 37.7869L8.67276 39.05L10.4538 37.271C10.6287 37.6287 10.7203 38.021 10.7216 38.4192C10.7216 39.8994 9.52198 41.0995 8.04099 41.0995Z"/>
<path d="M15.1891 35.7387H26.8041V37.526H15.1891V35.7387Z"/>
<path d="M15.1891 39.3128H21.4433V41.0996H15.1891V39.3128Z"/>
<path d="M23.2304 39.3128H26.8042V41.0996H23.2304V39.3128Z"/>
<path d="M41.9935 53.6084C49.3956 53.6084 55.3954 47.6076 55.3954 40.2062C55.3954 32.8042 49.3956 26.804 41.9935 26.804C34.5914 26.804 28.5912 32.8042 28.5912 40.2062C28.5999 47.6042 34.595 53.5994 41.9935 53.6084ZM41.9935 28.5911C48.408 28.5911 53.6087 33.7913 53.6087 40.2062C53.6087 46.6211 48.408 51.8211 41.9935 51.8211C35.5784 51.8211 30.3779 46.6211 30.3779 40.2062C30.3854 33.7944 35.5812 28.5983 41.9935 28.5911Z"/>
<path d="M36.5434 40.7L34.9439 41.4986L36.731 45.0725C36.8591 45.3296 37.1037 45.5094 37.3874 45.5554C37.4336 45.5625 37.4797 45.5663 37.526 45.567C37.7627 45.567 37.9901 45.4727 38.158 45.3052L48.8792 34.5836L47.6161 33.3202L37.7705 43.1652L36.5434 40.7Z"/>
</mask>
<path d="M4.4673 48.2476H27.6977V46.4603H4.4673C2.98699 46.4603 1.78687 45.2602 1.78687 43.7799V4.46727C1.78687 2.98657 2.98699 1.78686 4.4673 1.78686H43.7802C45.2611 1.78686 46.4606 2.98652 46.4606 4.46727V25.0169H48.2479V4.46727C48.2449 2.00116 46.2465 0.00292458 43.7802 0H4.4673C2.00163 0.00292458 0.00315398 2.00116 0 4.46727V43.7799C0.00315398 46.246 2.00163 48.2442 4.4673 48.2476Z" fill="#F4B71A"/>
<path d="M3.5743 3.57426H5.36094V5.36089H3.5743V3.57426Z" fill="#F4B71A"/>
<path d="M7.14758 3.57426H8.93492V5.36089H7.14758V3.57426Z" fill="#F4B71A"/>
<path d="M10.7216 3.57426H12.5087V5.36089H10.7216V3.57426Z" fill="#F4B71A"/>
<path d="M3.5743 7.1476H44.6738V8.93493H3.5743V7.1476Z" fill="#F4B71A"/>
<path d="M12.7705 10.9833L10.501 13.2528C8.58273 11.9828 6.01384 12.3725 4.55797 14.1542C3.10232 15.9357 3.2329 18.5307 4.8596 20.1573C6.48614 21.7844 9.08146 21.915 10.8632 20.4591C12.6446 19.0035 13.0345 16.4342 11.7643 14.5163L14.0336 12.2469L12.7705 10.9833ZM8.04099 19.6561C6.56091 19.6561 5.3608 18.4562 5.3608 16.9759C5.3608 15.4954 6.56091 14.2957 8.04099 14.2957C8.4396 14.297 8.83172 14.3884 9.18938 14.5633L7.40974 16.3432L8.67282 17.6067L10.4538 15.8279C10.6287 16.1853 10.7203 16.5775 10.7217 16.9758C10.7216 18.4561 9.52198 19.6561 8.04099 19.6561Z" fill="#F4B71A"/>
<path d="M15.1891 14.2958H30.3778V16.0825H15.1891V14.2958Z" fill="#F4B71A"/>
<path d="M15.1891 17.8695H21.4433V19.6561H15.1891V17.8695Z" fill="#F4B71A"/>
<path d="M23.2304 17.8695H35.7387V19.6561H23.2304V17.8695Z" fill="#F4B71A"/>
<path d="M32.165 14.2958H41.0998V16.0825H32.165V14.2958Z" fill="#F4B71A"/>
<path d="M12.7705 21.705L10.501 23.9745C8.58273 22.7045 6.01384 23.0941 4.55797 24.8759C3.10232 26.6576 3.2329 29.2524 4.8596 30.8794C6.48614 32.5062 9.08146 32.6367 10.8632 31.1808C12.6446 29.725 13.0345 27.1566 11.7643 25.238L14.0336 22.9686L12.7705 21.705ZM8.04099 30.3779C6.56091 30.3779 5.3608 29.1778 5.3608 27.6975C5.3608 26.217 6.56091 25.0169 8.04099 25.0169C8.4396 25.0185 8.83172 25.1101 9.18938 25.285L7.40968 27.0654L8.67276 28.3285L10.4538 26.5494C10.6287 26.9071 10.7203 27.2992 10.7216 27.6976C10.7216 29.1778 9.52198 30.3779 8.04099 30.3779Z" fill="#F4B71A"/>
<path d="M15.1891 25.0169H30.3778V26.804H15.1891V25.0169Z" fill="#F4B71A"/>
<path d="M15.1891 28.5911H21.4433V30.378H15.1891V28.5911Z" fill="#F4B71A"/>
<path d="M23.2304 28.5911H30.3779V30.378H23.2304V28.5911Z" fill="#F4B71A"/>
<path d="M32.165 25.0169H35.7387V26.804H32.165V25.0169Z" fill="#F4B71A"/>
<path d="M12.7705 32.4266L10.501 34.6961C8.58273 33.426 6.01384 33.8157 4.55797 35.5975C3.10232 37.3792 3.2329 39.974 4.8596 41.601C6.48614 43.228 9.08146 43.3581 10.8632 41.9024C12.6446 40.4465 13.0345 37.8779 11.7643 35.9594L14.0336 33.6901L12.7705 32.4266ZM8.04099 41.0995C6.56091 41.0995 5.3608 39.8994 5.3608 38.4191C5.3608 36.9386 6.56091 35.7387 8.04099 35.7387C8.4396 35.74 8.83172 35.8314 9.18938 36.0065L7.40968 37.7869L8.67276 39.05L10.4538 37.271C10.6287 37.6287 10.7203 38.021 10.7216 38.4192C10.7216 39.8994 9.52198 41.0995 8.04099 41.0995Z" fill="#F4B71A"/>
<path d="M15.1891 35.7387H26.8041V37.526H15.1891V35.7387Z" fill="#F4B71A"/>
<path d="M15.1891 39.3128H21.4433V41.0996H15.1891V39.3128Z" fill="#F4B71A"/>
<path d="M23.2304 39.3128H26.8042V41.0996H23.2304V39.3128Z" fill="#F4B71A"/>
<path d="M41.9935 53.6084C49.3956 53.6084 55.3954 47.6076 55.3954 40.2062C55.3954 32.8042 49.3956 26.804 41.9935 26.804C34.5914 26.804 28.5912 32.8042 28.5912 40.2062C28.5999 47.6042 34.595 53.5994 41.9935 53.6084ZM41.9935 28.5911C48.408 28.5911 53.6087 33.7913 53.6087 40.2062C53.6087 46.6211 48.408 51.8211 41.9935 51.8211C35.5784 51.8211 30.3779 46.6211 30.3779 40.2062C30.3854 33.7944 35.5812 28.5983 41.9935 28.5911Z" fill="#F4B71A"/>
<path d="M36.5434 40.7L34.9439 41.4986L36.731 45.0725C36.8591 45.3296 37.1037 45.5094 37.3874 45.5554C37.4336 45.5625 37.4797 45.5663 37.526 45.567C37.7627 45.567 37.9901 45.4727 38.158 45.3052L48.8792 34.5836L47.6161 33.3202L37.7705 43.1652L36.5434 40.7Z" fill="#F4B71A"/>
<path d="M4.4673 48.2476H27.6977V46.4603H4.4673C2.98699 46.4603 1.78687 45.2602 1.78687 43.7799V4.46727C1.78687 2.98657 2.98699 1.78686 4.4673 1.78686H43.7802C45.2611 1.78686 46.4606 2.98652 46.4606 4.46727V25.0169H48.2479V4.46727C48.2449 2.00116 46.2465 0.00292458 43.7802 0H4.4673C2.00163 0.00292458 0.00315398 2.00116 0 4.46727V43.7799C0.00315398 46.246 2.00163 48.2442 4.4673 48.2476Z" stroke="#F4B71A" stroke-width="2" mask="url(#path-1-inside-1)"/>
<path d="M3.5743 3.57426H5.36094V5.36089H3.5743V3.57426Z" stroke="#F4B71A" stroke-width="2" mask="url(#path-1-inside-1)"/>
<path d="M7.14758 3.57426H8.93492V5.36089H7.14758V3.57426Z" stroke="#F4B71A" stroke-width="2" mask="url(#path-1-inside-1)"/>
<path d="M10.7216 3.57426H12.5087V5.36089H10.7216V3.57426Z" stroke="#F4B71A" stroke-width="2" mask="url(#path-1-inside-1)"/>
<path d="M3.5743 7.1476H44.6738V8.93493H3.5743V7.1476Z" stroke="#F4B71A" stroke-width="2" mask="url(#path-1-inside-1)"/>
<path d="M12.7705 10.9833L10.501 13.2528C8.58273 11.9828 6.01384 12.3725 4.55797 14.1542C3.10232 15.9357 3.2329 18.5307 4.8596 20.1573C6.48614 21.7844 9.08146 21.915 10.8632 20.4591C12.6446 19.0035 13.0345 16.4342 11.7643 14.5163L14.0336 12.2469L12.7705 10.9833ZM8.04099 19.6561C6.56091 19.6561 5.3608 18.4562 5.3608 16.9759C5.3608 15.4954 6.56091 14.2957 8.04099 14.2957C8.4396 14.297 8.83172 14.3884 9.18938 14.5633L7.40974 16.3432L8.67282 17.6067L10.4538 15.8279C10.6287 16.1853 10.7203 16.5775 10.7217 16.9758C10.7216 18.4561 9.52198 19.6561 8.04099 19.6561Z" stroke="#F4B71A" stroke-width="2" mask="url(#path-1-inside-1)"/>
<path d="M15.1891 14.2958H30.3778V16.0825H15.1891V14.2958Z" stroke="#F4B71A" stroke-width="2" mask="url(#path-1-inside-1)"/>
<path d="M15.1891 17.8695H21.4433V19.6561H15.1891V17.8695Z" stroke="#F4B71A" stroke-width="2" mask="url(#path-1-inside-1)"/>
<path d="M23.2304 17.8695H35.7387V19.6561H23.2304V17.8695Z" stroke="#F4B71A" stroke-width="2" mask="url(#path-1-inside-1)"/>
<path d="M32.165 14.2958H41.0998V16.0825H32.165V14.2958Z" stroke="#F4B71A" stroke-width="2" mask="url(#path-1-inside-1)"/>
<path d="M12.7705 21.705L10.501 23.9745C8.58273 22.7045 6.01384 23.0941 4.55797 24.8759C3.10232 26.6576 3.2329 29.2524 4.8596 30.8794C6.48614 32.5062 9.08146 32.6367 10.8632 31.1808C12.6446 29.725 13.0345 27.1566 11.7643 25.238L14.0336 22.9686L12.7705 21.705ZM8.04099 30.3779C6.56091 30.3779 5.3608 29.1778 5.3608 27.6975C5.3608 26.217 6.56091 25.0169 8.04099 25.0169C8.4396 25.0185 8.83172 25.1101 9.18938 25.285L7.40968 27.0654L8.67276 28.3285L10.4538 26.5494C10.6287 26.9071 10.7203 27.2992 10.7216 27.6976C10.7216 29.1778 9.52198 30.3779 8.04099 30.3779Z" stroke="#F4B71A" stroke-width="2" mask="url(#path-1-inside-1)"/>
<path d="M15.1891 25.0169H30.3778V26.804H15.1891V25.0169Z" stroke="#F4B71A" stroke-width="2" mask="url(#path-1-inside-1)"/>
<path d="M15.1891 28.5911H21.4433V30.378H15.1891V28.5911Z" stroke="#F4B71A" stroke-width="2" mask="url(#path-1-inside-1)"/>
<path d="M23.2304 28.5911H30.3779V30.378H23.2304V28.5911Z" stroke="#F4B71A" stroke-width="2" mask="url(#path-1-inside-1)"/>
<path d="M32.165 25.0169H35.7387V26.804H32.165V25.0169Z" stroke="#F4B71A" stroke-width="2" mask="url(#path-1-inside-1)"/>
<path d="M12.7705 32.4266L10.501 34.6961C8.58273 33.426 6.01384 33.8157 4.55797 35.5975C3.10232 37.3792 3.2329 39.974 4.8596 41.601C6.48614 43.228 9.08146 43.3581 10.8632 41.9024C12.6446 40.4465 13.0345 37.8779 11.7643 35.9594L14.0336 33.6901L12.7705 32.4266ZM8.04099 41.0995C6.56091 41.0995 5.3608 39.8994 5.3608 38.4191C5.3608 36.9386 6.56091 35.7387 8.04099 35.7387C8.4396 35.74 8.83172 35.8314 9.18938 36.0065L7.40968 37.7869L8.67276 39.05L10.4538 37.271C10.6287 37.6287 10.7203 38.021 10.7216 38.4192C10.7216 39.8994 9.52198 41.0995 8.04099 41.0995Z" stroke="#F4B71A" stroke-width="2" mask="url(#path-1-inside-1)"/>
<path d="M15.1891 35.7387H26.8041V37.526H15.1891V35.7387Z" stroke="#F4B71A" stroke-width="2" mask="url(#path-1-inside-1)"/>
<path d="M15.1891 39.3128H21.4433V41.0996H15.1891V39.3128Z" stroke="#F4B71A" stroke-width="2" mask="url(#path-1-inside-1)"/>
<path d="M23.2304 39.3128H26.8042V41.0996H23.2304V39.3128Z" stroke="#F4B71A" stroke-width="2" mask="url(#path-1-inside-1)"/>
<path d="M41.9935 53.6084C49.3956 53.6084 55.3954 47.6076 55.3954 40.2062C55.3954 32.8042 49.3956 26.804 41.9935 26.804C34.5914 26.804 28.5912 32.8042 28.5912 40.2062C28.5999 47.6042 34.595 53.5994 41.9935 53.6084ZM41.9935 28.5911C48.408 28.5911 53.6087 33.7913 53.6087 40.2062C53.6087 46.6211 48.408 51.8211 41.9935 51.8211C35.5784 51.8211 30.3779 46.6211 30.3779 40.2062C30.3854 33.7944 35.5812 28.5983 41.9935 28.5911Z" stroke="#F4B71A" stroke-width="2" mask="url(#path-1-inside-1)"/>
<path d="M36.5434 40.7L34.9439 41.4986L36.731 45.0725C36.8591 45.3296 37.1037 45.5094 37.3874 45.5554C37.4336 45.5625 37.4797 45.5663 37.526 45.567C37.7627 45.567 37.9901 45.4727 38.158 45.3052L48.8792 34.5836L47.6161 33.3202L37.7705 43.1652L36.5434 40.7Z" stroke="#F4B71A" stroke-width="2" mask="url(#path-1-inside-1)"/>
</svg>