<svg xmlns="http://www.w3.org/2000/svg" width="45" height="45" viewBox="0 0 45 45">
  <metadata><?xpacket begin="﻿" id="W5M0MpCehiHzreSzNTczkc9d"?>
<x:xmpmeta xmlns:x="adobe:ns:meta/" x:xmptk="Adobe XMP Core 5.6-c142 79.160924, 2017/07/13-01:06:39        ">
   <rdf:RDF xmlns:rdf="http://www.w3.org/1999/02/22-rdf-syntax-ns#">
      <rdf:Description rdf:about=""/>
   </rdf:RDF>
</x:xmpmeta>
                                                                                                    
                                                                                                    
                                                                                                    
                                                                                                    
                                                                                                    
                                                                                                    
                                                                                                    
                                                                                                    
                                                                                                    
                                                                                                    
                                                                                                    
                                                                                                    
                                                                                                    
                                                                                                    
                                                                                                    
                                                                                                    
                                                                                                    
                                                                                                    
                                                                                                    
                                                                                                    
                           
<?xpacket end="w"?></metadata>
<defs>
    <style>
      .cls-1 {
        fill: #d82541;
        fill-rule: evenodd;
      }
    </style>
  </defs>
  <path class="cls-1" d="M1491.56,1848.65a0.88,0.88,0,0,0,0-1.76A0.88,0.88,0,0,0,1491.56,1848.65Zm7.56,14.59h-1.41v-24.26a0.871,0.871,0,0,0-.87-0.87h-5.28a0.879,0.879,0,0,0-.88.87v5.28a0.88,0.88,0,1,0,1.76,0v-4.4h3.52v23.38h-3.52v-11.95a0.88,0.88,0,1,0-1.76,0v11.95h-3.51v-17.22a0.881,0.881,0,0,0-.88-0.88h-5.27a0.875,0.875,0,0,0-.88.88v17.22h-3.52v-11.95a0.875,0.875,0,0,0-.88-0.88h-5.27a0.875,0.875,0,0,0-.88.88v11.95h-3.52v-8.44a0.871,0.871,0,0,0-.87-0.87h-5.28a0.879,0.879,0,0,0-.88.87v8.44h-2.28v-42.36a0.88,0.88,0,0,0-1.76,0v43.24a0.875,0.875,0,0,0,.88.88h43.24A0.88,0.88,0,0,0,1499.12,1863.24Zm-34.8,0h-3.52v-7.56h3.52v7.56Zm10.54,0h-3.51v-11.07h3.51v11.07Zm10.55,0h-3.52v-16.35h3.52v16.35Zm-22.15-15.49a0.887,0.887,0,0,0-.68,1.05,0.866,0.866,0,0,0,1.04.67,43.051,43.051,0,0,0,27.07-18.54l1.46,1.02a0.878,0.878,0,0,0,1.37-.59l0.86-5.83a0.871,0.871,0,0,0-1.28-.9l-5.19,2.8a0.885,0.885,0,0,0-.08,1.5l1.42,0.99A41.5,41.5,0,0,1,1463.26,1847.75Zm29.13-20.74-0.4,2.69-1.99-1.4Z" transform="translate(-1455 -1820)"/>
</svg>