<svg xmlns="http://www.w3.org/2000/svg" width="47" height="44" viewBox="0 0 47 44">
  <metadata><?xpacket begin="﻿" id="W5M0MpCehiHzreSzNTczkc9d"?>
<x:xmpmeta xmlns:x="adobe:ns:meta/" x:xmptk="Adobe XMP Core 5.6-c142 79.160924, 2017/07/13-01:06:39        ">
   <rdf:RDF xmlns:rdf="http://www.w3.org/1999/02/22-rdf-syntax-ns#">
      <rdf:Description rdf:about=""/>
   </rdf:RDF>
</x:xmpmeta>
                                                                                                    
                                                                                                    
                                                                                                    
                                                                                                    
                                                                                                    
                                                                                                    
                                                                                                    
                                                                                                    
                                                                                                    
                                                                                                    
                                                                                                    
                                                                                                    
                                                                                                    
                                                                                                    
                                                                                                    
                                                                                                    
                                                                                                    
                                                                                                    
                                                                                                    
                                                                                                    
                           
<?xpacket end="w"?></metadata>
<defs>
    <style>
      .cls-1 {
        fill: #d82541;
        fill-rule: evenodd;
      }
    </style>
  </defs>
  <path class="cls-1" d="M1802,7790.26v1.03a2.413,2.413,0,0,0-.08.25,4.19,4.19,0,0,1-3.59,3.42,4.141,4.141,0,0,1-3.64-1.36c-1.82-1.85-3.64-3.69-5.45-5.54a0.951,0.951,0,0,0-.76-0.32q-7.785.015-15.59,0.01c-4.59,0-9.18-.01-13.76,0a4.082,4.082,0,0,1-2.76-.94,4.4,4.4,0,0,1-1.37-2.52v-29.84a1.723,1.723,0,0,0,.07-0.21,3.88,3.88,0,0,1,3.83-3.23c0.52-.02,1.04-0.01,1.56-0.01q16.83,0.015,33.65.02a4.86,4.86,0,0,1,2.03.42,3.81,3.81,0,0,1,2.19,3.77v27.6a6.826,6.826,0,0,0,.07,2.4,6.115,6.115,0,0,0,1.64,1.78A5.811,5.811,0,0,1,1802,7790.26Zm-5.52-30.64h-39.64v0.35q0,11.85,0,23.69a2.049,2.049,0,0,0,2.22,2.22h27.58c0.11,0,.23-0.02.3-0.02-1.28-1.3-2.55-2.59-3.9-3.95-0.18.21-.36,0.47-0.59,0.7a0.923,0.923,0,0,1-1.36.05,0.961,0.961,0,0,1,.07-1.37c0.17-.19.35-0.37,0.59-0.62h-20.54a1.041,1.041,0,0,1-1.25-1.29v-16.09a1.033,1.033,0,0,1,1.22-1.27q11.82-.015,23.64,0a1.025,1.025,0,0,1,1.21,1.24c0,2.26-.01,4.51.01,6.76a0.953,0.953,0,0,0,.18.58,6.039,6.039,0,0,1,1.52,3.28c0.02,0.19.04,0.38,0.07,0.6,0.96-.8,1.39-0.92,1.79-0.49a0.748,0.748,0,0,1,.26.56,10.725,10.725,0,0,1-.6,1.32l7.22,7.34v-23.59Zm-12.3,4.3h-22.35v13.58a6.19,6.19,0,0,1,.41-0.5l7.33-7.45a1,1,0,0,1,1.72-.01l3.6,3.66c0.1,0.1.22,0.2,0.25,0.23,0.04-1.46.09-2.95,0.13-4.45a0.962,0.962,0,0,1,1.73-.71,2.651,2.651,0,0,0,1.73.75,9.422,9.422,0,0,0,1.19-.02,10.221,10.221,0,0,1,4.26.18v-5.26Zm12.31-6.22v-2.41a2.105,2.105,0,0,0-2.39-2.42h-27.53c-2.54,0-5.07-.01-7.61,0a1.914,1.914,0,0,0-2.05,1.63,31,31,0,0,0-.02,3.2h39.6Zm-11.98,22.92c0.05,0.05.1,0.11,0.16,0.16l9.24,9.39c0.73,0.74,1.44,1.48,2.18,2.21a2.31,2.31,0,0,0,2.73.53,2.409,2.409,0,0,0,.52-3.98q-4.77-4.86-9.57-9.72c-0.65-.66-1.3-1.34-1.92-1.98C1786.72,7778.38,1785.63,7779.49,1784.51,7780.62Zm-7.52-10.12a9.7,9.7,0,0,0,1.39,6.11,4.518,4.518,0,0,0,2.49,1.93,3.919,3.919,0,0,0,4.22-1.4,4.08,4.08,0,0,0,.32-4.5,3.625,3.625,0,0,0-3.77-1.9A9.452,9.452,0,0,1,1776.99,7770.5Zm-13.79,8.26h14.45c-2.41-2.46-4.82-4.92-7.21-7.35C1768.04,7773.84,1765.63,7776.3,1763.2,7778.76Zm2.54-12.46c0.32,0,.64-0.02.96,0a0.939,0.939,0,0,1,.95.93,0.909,0.909,0,0,1-.91.92q-1.005.045-2.01,0a0.923,0.923,0,0,1-.91-0.93,0.935,0.935,0,0,1,.91-0.92C1765.07,7766.28,1765.4,7766.3,1765.74,7766.3Zm5.61,0.94a0.913,0.913,0,0,1-.91.91,0.927,0.927,0,0,1-.89-0.93,0.942,0.942,0,0,1,.91-0.92A0.923,0.923,0,0,1,1771.35,7767.24Zm11.65-11.01h-8.81a2.548,2.548,0,0,1-.55-0.04,0.888,0.888,0,0,1-.74-0.87,0.915,0.915,0,0,1,.75-0.93,2.271,2.271,0,0,1,.45-0.03h17.76a2.748,2.748,0,0,1,.41.02,0.921,0.921,0,0,1,0,1.83,3.54,3.54,0,0,1-.46.02H1783Zm-23.42-.96a0.911,0.911,0,0,1,.91-0.9,0.938,0.938,0,0,1,.89.95,0.949,0.949,0,0,1-.93.9A0.915,0.915,0,0,1,1759.58,7755.27Zm7.62-.9a0.925,0.925,0,1,1-.89.94A0.951,0.951,0,0,1,1767.2,7754.37Zm-2.46.92a0.9,0.9,0,1,1-1.8.03,0.952,0.952,0,0,1,.92-0.96A0.926,0.926,0,0,1,1764.74,7755.29Z" transform="translate(-1755 -7751)"/>
</svg>