<svg width="52" height="51" viewBox="0 0 52 51" fill="none" xmlns="http://www.w3.org/2000/svg">
<path d="M20.5702 40.2081L19.7549 40.3503L18.7565 34.7199C18.7311 34.579 18.6689 34.4468 18.5759 34.3367L17.5323 33.0979L16.2624 34.1532L17.1638 35.2228L18.1249 40.6366L9.97279 42.0646L9.82889 41.2544C9.79576 41.0705 9.70114 40.9034 9.56056 40.7796L5.79918 37.4891L2.68699 19.9505C2.54113 19.0616 3.14125 18.2217 4.03371 18.0654C4.92577 17.9092 5.779 18.4949 5.94753 19.3793L6.94103 24.9735C6.80966 25.0514 6.68399 25.1378 6.56432 25.2325C5.16863 26.4034 4.98643 28.4741 6.15613 29.868L12.2395 37.0721L13.5074 36.0149L7.42531 28.8128C6.84248 28.1171 6.93223 27.0848 7.62614 26.4987C7.77283 26.3749 7.94095 26.2794 8.12284 26.2171C8.1511 26.2083 8.37099 26.14 8.41022 26.1348C8.99347 26.0292 9.58924 26.2441 9.96792 26.6976L11.3098 28.2863L12.5769 27.2282L11.2363 25.64C10.5681 24.8534 9.56946 24.4212 8.53507 24.4707L7.57801 19.0958C7.38442 17.9273 6.57363 16.9525 5.45528 16.5431C4.33693 16.1342 3.0839 16.3539 2.17373 17.1183C1.26346 17.8826 0.837051 19.0744 1.05693 20.2381L4.21923 38.0607C4.25153 38.2446 4.34614 38.4121 4.48725 38.5355L8.24862 41.826L8.34241 42.3519L7.52718 42.4949C7.07654 42.574 6.77581 43.0006 6.85583 43.4485L8.00535 49.9292C8.07522 50.322 8.4184 50.6084 8.81976 50.6084C8.86862 50.6084 8.91676 50.6044 8.96489 50.5963L22.0079 48.3107C22.4585 48.232 22.7588 47.805 22.6792 47.3575L21.5329 40.8752C21.4945 40.6595 21.3716 40.4679 21.191 40.3426C21.0103 40.2173 20.7867 40.1691 20.5702 40.2081ZM9.49182 48.8317L8.6301 43.9706L14.336 42.9744L20.0427 41.9706L20.9044 46.8317L9.49182 48.8317Z" fill="#F4B71A"/>
<path d="M50.4014 17.7786C49.6334 16.6876 48.2794 16.1643 46.9715 16.4522C45.6636 16.7406 44.6595 17.7834 44.4271 19.0949L43.4736 24.465C42.4394 24.4152 41.4406 24.8478 40.7733 25.6347L39.4318 27.2234L40.6989 28.2814L42.0408 26.6927C42.4195 26.24 43.0141 26.0247 43.5969 26.1299C43.6333 26.1367 43.8576 26.205 43.886 26.2122C44.0642 26.2729 44.23 26.3656 44.3742 26.4862C45.0734 27.0719 45.1656 28.1087 44.5803 28.8067L38.5022 36.0157L39.7701 37.0729L45.8535 29.8687C46.4885 29.1486 46.7686 28.1845 46.617 27.2389C46.4654 26.2929 45.8983 25.4631 45.0698 24.9742L46.0628 19.38C46.2229 18.4855 47.0826 17.889 47.9828 18.048C48.8833 18.2067 49.4835 19.0611 49.3235 19.9561L46.2113 37.4946L42.4499 40.7851C42.3092 40.9089 42.2147 41.0764 42.1816 41.2599L42.0377 42.0701L33.8857 40.6421L34.8468 35.2283L35.7482 34.1591L34.4783 33.1034L33.4298 34.3366C33.3364 34.4471 33.2742 34.5796 33.2492 34.7213L32.2508 40.3501L31.4355 40.2079C30.9853 40.1284 30.5556 40.4272 30.476 40.8751L29.3265 47.3557C29.2465 47.8032 29.5472 48.2302 29.9978 48.3089L43.0408 50.5945C43.0885 50.6026 43.137 50.6066 43.1855 50.6066C43.5869 50.6066 43.9305 50.3202 44 49.9274L45.1499 43.4467C45.2295 42.9988 44.9292 42.5718 44.4785 42.4931L43.6633 42.3501L43.7567 41.8242L47.5181 38.5337C47.6592 38.4103 47.7537 38.2429 47.7864 38.0589L50.9484 20.2363C51.1034 19.3777 50.9066 18.4924 50.4014 17.7786ZM42.5133 48.8317L31.1012 46.8318L31.9625 41.9706L37.6691 42.9745L43.3702 43.9707L42.5133 48.8317Z" fill="#F4B71A"/>
<path d="M26.0026 23.6423C24.1741 23.6423 22.6916 25.1156 22.6916 26.9328C22.6916 28.5296 24.9365 31.0971 25.3867 31.5955C25.5439 31.7695 25.7679 31.8687 26.0026 31.8687C26.2374 31.8687 26.4613 31.7695 26.6186 31.5955C27.0688 31.0971 29.3137 28.5294 29.3137 26.9328C29.3137 25.1156 27.8312 23.6423 26.0026 23.6423ZM26.0026 29.7719C25.1235 28.6762 24.3471 27.443 24.3471 26.9328C24.3471 26.0242 25.0884 25.2876 26.0026 25.2876C26.917 25.2876 27.6582 26.0243 27.6582 26.9328C27.6582 27.4571 26.8809 28.681 26.0026 29.7719Z" fill="#F4B71A"/>
<path d="M18.5528 26.9329C19.4671 26.9329 20.2083 27.6696 20.2083 28.5782H21.8638C21.8655 26.92 20.625 25.5194 18.9699 25.3105C17.3148 25.1016 15.7614 26.1496 15.346 27.7555C13.5175 27.7271 12.0114 29.1771 11.9827 30.9943C11.9541 32.8116 13.4131 34.3082 15.2417 34.3367V32.6915C14.3274 32.6915 13.5862 31.9547 13.5862 31.0462C13.5862 30.1376 14.3275 29.4009 15.2417 29.4009C15.4249 29.3986 15.6063 29.4298 15.7781 29.4929C16.0578 29.5961 16.3718 29.5435 16.6022 29.3551C16.8326 29.1668 16.945 28.8711 16.8973 28.5783C16.8973 27.6695 17.6386 26.9329 18.5528 26.9329Z" fill="#F4B71A"/>
<path d="M36.7636 32.6915V34.3368C38.5921 34.3083 40.0513 32.8116 40.0226 30.9944C39.9939 29.1772 38.4879 27.7271 36.6594 27.7556C36.2438 26.1497 34.6906 25.1017 33.0355 25.3105C31.3799 25.5194 30.1398 26.9201 30.1415 28.5782H31.797C31.8015 27.6696 32.5464 26.9366 33.4606 26.941C34.3752 26.9458 35.1125 27.6861 35.1081 28.5947C35.0608 28.8859 35.1736 29.18 35.4044 29.3655C35.6351 29.551 35.948 29.5996 36.2249 29.4928C36.397 29.4294 36.5798 29.3984 36.7636 29.4009C37.6779 29.4009 38.4191 30.1376 38.4191 31.0461C38.4192 31.9548 37.6779 32.6915 36.7636 32.6915Z" fill="#F4B71A"/>
<path d="M37.5914 12.1254H39.2469V15.4159H37.5914V12.1254Z" fill="#F4B71A"/>
<path d="M37.5914 17.0614H39.2469V18.7066H37.5914V17.0614Z" fill="#F4B71A"/>
<path d="M40.9026 14.5934H42.5581V19.5292H40.9026V14.5934Z" fill="#F4B71A"/>
<path d="M40.9026 21.1744H42.5581V22.8197H40.9026V21.1744Z" fill="#F4B71A"/>
<path d="M12.7584 12.1254H14.4139V15.4159H12.7584V12.1254Z" fill="#F4B71A"/>
<path d="M12.7584 17.0614H14.4139V18.7066H12.7584V17.0614Z" fill="#F4B71A"/>
<path d="M9.44736 14.5934H11.1029V19.5292H9.44736V14.5934Z" fill="#F4B71A"/>
<path d="M9.44736 21.1744H11.1029V22.8197H9.44736V21.1744Z" fill="#F4B71A"/>
<path d="M20.4508 15.657L30.3845 5.7848L31.555 6.94807L21.6214 16.8202L20.4508 15.657Z" fill="#F4B71A"/>
<path d="M29.3138 12.1254C27.9425 12.1254 26.8305 13.2304 26.8305 14.5933C26.8305 15.9561 27.9425 17.0612 29.3138 17.0612C30.6852 17.0612 31.7971 15.9561 31.7971 14.5933C31.7971 13.2304 30.6852 12.1254 29.3138 12.1254ZM29.3138 15.4159C28.8567 15.4159 28.486 15.0476 28.486 14.5933C28.486 14.1389 28.8567 13.7706 29.3138 13.7706C29.771 13.7706 30.1416 14.1389 30.1416 14.5933C30.1416 15.0476 29.771 15.4159 29.3138 15.4159Z" fill="#F4B71A"/>
<path d="M22.6917 10.4801C24.063 10.4801 25.1749 9.375 25.1749 8.01214C25.1749 6.64927 24.063 5.54423 22.6917 5.54423C21.3203 5.54423 20.2084 6.64927 20.2084 8.01214C20.2084 9.375 21.3202 10.4801 22.6917 10.4801ZM22.6917 7.1894C23.1488 7.1894 23.5194 7.55771 23.5194 8.01204C23.5194 8.46636 23.1488 8.83467 22.6917 8.83467C22.2345 8.83467 21.8639 8.46636 21.8639 8.01204C21.8639 7.55771 22.2345 7.1894 22.6917 7.1894Z" fill="#F4B71A"/>
<path d="M26.0028 21.9971C31.9459 21.9971 36.7639 17.209 36.7639 11.3027C36.7639 5.39638 31.9459 0.608398 26.0028 0.608398C20.0597 0.608398 15.2418 5.39648 15.2418 11.3028C15.2486 17.2062 20.0625 21.9903 26.0028 21.9971ZM26.0028 2.25367C31.0317 2.25367 35.1083 6.30503 35.1083 11.3028C35.1083 16.3005 31.0317 20.3519 26.0028 20.3519C20.9739 20.3519 16.8973 16.3005 16.8973 11.3028C16.9034 6.3075 20.9764 2.25974 26.0028 2.25367Z" fill="#F4B71A"/>
<path d="M20.5702 40.2081L19.7549 40.3503L18.7565 34.7199C18.7311 34.579 18.6689 34.4468 18.5759 34.3367L17.5323 33.0979L16.2624 34.1532L17.1638 35.2228L18.1249 40.6366L9.97279 42.0646L9.82889 41.2544C9.79576 41.0705 9.70114 40.9034 9.56056 40.7796L5.79918 37.4891L2.68699 19.9505C2.54113 19.0616 3.14125 18.2217 4.03371 18.0654C4.92577 17.9092 5.779 18.4949 5.94753 19.3793L6.94103 24.9735C6.80966 25.0514 6.68399 25.1378 6.56432 25.2325C5.16863 26.4034 4.98643 28.4741 6.15613 29.868L12.2395 37.0721L13.5074 36.0149L7.42531 28.8128C6.84248 28.1171 6.93223 27.0848 7.62614 26.4987C7.77283 26.3749 7.94095 26.2794 8.12284 26.2171C8.1511 26.2083 8.37099 26.14 8.41022 26.1348C8.99347 26.0292 9.58924 26.2441 9.96792 26.6976L11.3098 28.2863L12.5769 27.2282L11.2363 25.64C10.5681 24.8534 9.56946 24.4212 8.53507 24.4707L7.57801 19.0958C7.38442 17.9273 6.57363 16.9525 5.45528 16.5431C4.33693 16.1342 3.0839 16.3539 2.17373 17.1183C1.26346 17.8826 0.837051 19.0744 1.05693 20.2381L4.21923 38.0607C4.25153 38.2446 4.34614 38.4121 4.48725 38.5355L8.24862 41.826L8.34241 42.3519L7.52718 42.4949C7.07654 42.574 6.77581 43.0006 6.85583 43.4485L8.00535 49.9292C8.07522 50.322 8.4184 50.6084 8.81976 50.6084C8.86862 50.6084 8.91676 50.6044 8.96489 50.5963L22.0079 48.3107C22.4585 48.232 22.7588 47.805 22.6792 47.3575L21.5329 40.8752C21.4945 40.6595 21.3716 40.4679 21.191 40.3426C21.0103 40.2173 20.7867 40.1691 20.5702 40.2081ZM9.49182 48.8317L8.6301 43.9706L14.336 42.9744L20.0427 41.9706L20.9044 46.8317L9.49182 48.8317Z" stroke="#F4B71A" stroke-width="0.5"/>
<path d="M50.4014 17.7786C49.6334 16.6876 48.2794 16.1643 46.9715 16.4522C45.6636 16.7406 44.6595 17.7834 44.4271 19.0949L43.4736 24.465C42.4394 24.4152 41.4406 24.8478 40.7733 25.6347L39.4318 27.2234L40.6989 28.2814L42.0408 26.6927C42.4195 26.24 43.0141 26.0247 43.5969 26.1299C43.6333 26.1367 43.8576 26.205 43.886 26.2122C44.0642 26.2729 44.23 26.3656 44.3742 26.4862C45.0734 27.0719 45.1656 28.1087 44.5803 28.8067L38.5022 36.0157L39.7701 37.0729L45.8535 29.8687C46.4885 29.1486 46.7686 28.1845 46.617 27.2389C46.4654 26.2929 45.8983 25.4631 45.0698 24.9742L46.0628 19.38C46.2229 18.4855 47.0826 17.889 47.9828 18.048C48.8833 18.2067 49.4835 19.0611 49.3235 19.9561L46.2113 37.4946L42.4499 40.7851C42.3092 40.9089 42.2147 41.0764 42.1816 41.2599L42.0377 42.0701L33.8857 40.6421L34.8468 35.2283L35.7482 34.1591L34.4783 33.1034L33.4298 34.3366C33.3364 34.4471 33.2742 34.5796 33.2492 34.7213L32.2508 40.3501L31.4355 40.2079C30.9853 40.1284 30.5556 40.4272 30.476 40.8751L29.3265 47.3557C29.2465 47.8032 29.5472 48.2302 29.9978 48.3089L43.0408 50.5945C43.0885 50.6026 43.137 50.6066 43.1855 50.6066C43.5869 50.6066 43.9305 50.3202 44 49.9274L45.1499 43.4467C45.2295 42.9988 44.9292 42.5718 44.4785 42.4931L43.6633 42.3501L43.7567 41.8242L47.5181 38.5337C47.6592 38.4103 47.7537 38.2429 47.7864 38.0589L50.9484 20.2363C51.1034 19.3777 50.9066 18.4924 50.4014 17.7786ZM42.5133 48.8317L31.1012 46.8318L31.9625 41.9706L37.6691 42.9745L43.3702 43.9707L42.5133 48.8317Z" stroke="#F4B71A" stroke-width="0.5"/>
<path d="M26.0026 23.6423C24.1741 23.6423 22.6916 25.1156 22.6916 26.9328C22.6916 28.5296 24.9365 31.0971 25.3867 31.5955C25.5439 31.7695 25.7679 31.8687 26.0026 31.8687C26.2374 31.8687 26.4613 31.7695 26.6186 31.5955C27.0688 31.0971 29.3137 28.5294 29.3137 26.9328C29.3137 25.1156 27.8312 23.6423 26.0026 23.6423ZM26.0026 29.7719C25.1235 28.6762 24.3471 27.443 24.3471 26.9328C24.3471 26.0242 25.0884 25.2876 26.0026 25.2876C26.917 25.2876 27.6582 26.0243 27.6582 26.9328C27.6582 27.4571 26.8809 28.681 26.0026 29.7719Z" stroke="#F4B71A" stroke-width="0.5"/>
<path d="M18.5528 26.9329C19.4671 26.9329 20.2083 27.6696 20.2083 28.5782H21.8638C21.8655 26.92 20.625 25.5194 18.9699 25.3105C17.3148 25.1016 15.7614 26.1496 15.346 27.7555C13.5175 27.7271 12.0114 29.1771 11.9827 30.9943C11.9541 32.8116 13.4131 34.3082 15.2417 34.3367V32.6915C14.3274 32.6915 13.5862 31.9547 13.5862 31.0462C13.5862 30.1376 14.3275 29.4009 15.2417 29.4009C15.4249 29.3986 15.6063 29.4298 15.7781 29.4929C16.0578 29.5961 16.3718 29.5435 16.6022 29.3551C16.8326 29.1668 16.945 28.8711 16.8973 28.5783C16.8973 27.6695 17.6386 26.9329 18.5528 26.9329Z" stroke="#F4B71A" stroke-width="0.5"/>
<path d="M36.7636 32.6915V34.3368C38.5921 34.3083 40.0513 32.8116 40.0226 30.9944C39.9939 29.1772 38.4879 27.7271 36.6594 27.7556C36.2438 26.1497 34.6906 25.1017 33.0355 25.3105C31.3799 25.5194 30.1398 26.9201 30.1415 28.5782H31.797C31.8015 27.6696 32.5464 26.9366 33.4606 26.941C34.3752 26.9458 35.1125 27.6861 35.1081 28.5947C35.0608 28.8859 35.1736 29.18 35.4044 29.3655C35.6351 29.551 35.948 29.5996 36.2249 29.4928C36.397 29.4294 36.5798 29.3984 36.7636 29.4009C37.6779 29.4009 38.4191 30.1376 38.4191 31.0461C38.4192 31.9548 37.6779 32.6915 36.7636 32.6915Z" stroke="#F4B71A" stroke-width="0.5"/>
<path d="M37.5914 12.1254H39.2469V15.4159H37.5914V12.1254Z" stroke="#F4B71A" stroke-width="0.5"/>
<path d="M37.5914 17.0614H39.2469V18.7066H37.5914V17.0614Z" stroke="#F4B71A" stroke-width="0.5"/>
<path d="M40.9026 14.5934H42.5581V19.5292H40.9026V14.5934Z" stroke="#F4B71A" stroke-width="0.5"/>
<path d="M40.9026 21.1744H42.5581V22.8197H40.9026V21.1744Z" stroke="#F4B71A" stroke-width="0.5"/>
<path d="M12.7584 12.1254H14.4139V15.4159H12.7584V12.1254Z" stroke="#F4B71A" stroke-width="0.5"/>
<path d="M12.7584 17.0614H14.4139V18.7066H12.7584V17.0614Z" stroke="#F4B71A" stroke-width="0.5"/>
<path d="M9.44736 14.5934H11.1029V19.5292H9.44736V14.5934Z" stroke="#F4B71A" stroke-width="0.5"/>
<path d="M9.44736 21.1744H11.1029V22.8197H9.44736V21.1744Z" stroke="#F4B71A" stroke-width="0.5"/>
<path d="M20.4508 15.657L30.3845 5.7848L31.555 6.94807L21.6214 16.8202L20.4508 15.657Z" stroke="#F4B71A" stroke-width="0.5"/>
<path d="M29.3138 12.1254C27.9425 12.1254 26.8305 13.2304 26.8305 14.5933C26.8305 15.9561 27.9425 17.0612 29.3138 17.0612C30.6852 17.0612 31.7971 15.9561 31.7971 14.5933C31.7971 13.2304 30.6852 12.1254 29.3138 12.1254ZM29.3138 15.4159C28.8567 15.4159 28.486 15.0476 28.486 14.5933C28.486 14.1389 28.8567 13.7706 29.3138 13.7706C29.771 13.7706 30.1416 14.1389 30.1416 14.5933C30.1416 15.0476 29.771 15.4159 29.3138 15.4159Z" stroke="#F4B71A" stroke-width="0.5"/>
<path d="M22.6917 10.4801C24.063 10.4801 25.1749 9.375 25.1749 8.01214C25.1749 6.64927 24.063 5.54423 22.6917 5.54423C21.3203 5.54423 20.2084 6.64927 20.2084 8.01214C20.2084 9.375 21.3202 10.4801 22.6917 10.4801ZM22.6917 7.1894C23.1488 7.1894 23.5194 7.55771 23.5194 8.01204C23.5194 8.46636 23.1488 8.83467 22.6917 8.83467C22.2345 8.83467 21.8639 8.46636 21.8639 8.01204C21.8639 7.55771 22.2345 7.1894 22.6917 7.1894Z" stroke="#F4B71A" stroke-width="0.5"/>
<path d="M26.0028 21.9971C31.9459 21.9971 36.7639 17.209 36.7639 11.3027C36.7639 5.39638 31.9459 0.608398 26.0028 0.608398C20.0597 0.608398 15.2418 5.39648 15.2418 11.3028C15.2486 17.2062 20.0625 21.9903 26.0028 21.9971ZM26.0028 2.25367C31.0317 2.25367 35.1083 6.30503 35.1083 11.3028C35.1083 16.3005 31.0317 20.3519 26.0028 20.3519C20.9739 20.3519 16.8973 16.3005 16.8973 11.3028C16.9034 6.3075 20.9764 2.25974 26.0028 2.25367Z" stroke="#F4B71A" stroke-width="0.5"/>
</svg>