<?xml version="1.0" encoding="UTF-8"?>
<!-- Generator: Adobe Illustrator 21.0.0, SVG Export Plug-In . SVG Version: 6.00 Build 0)  -->
<svg version="1.1" xmlns="http://www.w3.org/2000/svg" xmlns:xlink="http://www.w3.org/1999/xlink" x="0px" y="0px" viewBox="0 0 160 160" style="enable-background:new 0 0 160 160;" xml:space="preserve">
<style type="text/css">
	.st0{fill:#0784FF;}
	.st1{fill:#90C661;}
	.st2{fill:#689F38;}
	.st3{fill:#B8C2FF;}
	.st4{fill:#7388FF;}
	.st5{fill:#DFE5FF;}
	.st6{fill:#CCD4FF;}
	.st7{fill:#EFF2FF;}
	.st8{fill:#A4B1FF;}
	.st9{fill:#002755;}
	.st10{fill:#B4D813;}
	.st11{fill:#333333;}
	.st12{fill:#1E1E1D;}
	.st13{fill:#DAEFF6;}
	.st14{fill:#DD2E2B;}
	.st15{fill:#EF5122;}
	.st16{fill:#FFDB6F;}
	.st17{fill:#62BEFF;}
	.st18{fill:#E64028;}
	.st19{fill:#D43B25;}
	.st20{fill:#869F15;}
	.st21{fill:#E8E1D5;}
	.st22{fill:#D6CFC4;}
	.st23{fill:#716680;}
	.st24{fill:#9AD5ED;}
	.st25{fill:#CEE8F2;}
	.st26{fill:#98B70E;}
	.st27{fill:#90AB13;}
	.st28{fill:#FFCFB4;}
	.st29{fill:#604631;}
	.st30{fill:#FCDAC4;}
	.st31{fill:#2F2C29;}
	.st32{fill:#F4F4F4;}
	.st33{fill:#FFDC0F;}
	.st34{fill:#63635F;}
	.st35{fill:#71D182;}
	.st36{fill:#14DDF7;}
	.st37{fill:#008EE5;}
	.st38{fill:#FCD2BE;}
	.st39{fill:#FAB998;}
	.st40{fill:#F9CE55;}
	.st41{fill:#E2A11E;}
	.st42{fill:#6B4B3D;}
	.st43{fill:#5B3D2D;}
	.st44{fill:#D45B5B;}
	.st45{fill:#B3D5E4;}
	.st46{fill:#FFFFFF;}
	.st47{fill:#E4D9B3;}
	.st48{fill:#E2780E;}
	.st49{fill:#A85000;}
	.st50{fill:#CECECE;}
</style>
<g id="Слой_1">
</g>
<g id="Слой_2">
</g>
<g id="Слой_3">
</g>
<g id="Слой_4">
</g>
<g id="Слой_5">
	<g>
		<path class="st28" d="M108.7,29.9c-1.1,1.3-2.5,2.3-3.1,4c-0.5,1.3-0.9,2.5-1,3.9c-0.1,1.4,0,2.7,0.2,4c0.1,0.8,0.4,2.2,0.1,2.9    c-0.3,0.6-1.4,0.8-2,1.1c-1.2,0.7-2.2,1.6-3.3,2.4c-0.4,0.3-1.8,1.1-1.5,1.7c0.2,0.4,1.6,0.7,2,0.8c1.1,0.6,2.3,1,3.5,1.5    c0.7,0.3,1.4,0.6,1.7,1.3c0.4,0.9,0.5,1.9,0.5,2.9c0.1,1.7,0.2,3.3,0.5,5c0.2,1.3,0.7,2.3,1.4,3.4c0.5,0.9,1.4,2.2,2.3,2.7    c2.1,1.4,4.8-0.2,7.1,0.3c1.6,0.3,2.6,2.2,3.1,3.5c0.8,2,1.9,4.8,4.4,4.9c0.9,0,1.8-0.3,2.8-0.4c1.1-0.1,2.1-0.4,3.3-0.6    c1-0.2,2.1-0.1,3.2-0.4c1.2-0.3,2.4-0.8,3.5-1.3c1.4-0.6,3.1-1.1,4.4-1.8c1.3-0.7,1.4-2,1.4-3.4c0-1.4-0.8-2.5-1.1-3.9    c-0.2-1.2-0.7-2.5-0.5-3.7c0.2-0.9,0.7-1.7,0.6-2.6c-0.2-1.1-1.3-1.7-1.7-2.8c-0.5-1.3,0.2-3,0.6-4.2c0.4-1.5,1.1-3.8,0.3-5.3    c-0.7-1.3-1.8-1.8-3.2-1.7c-0.8,0-1.2,0.8-1.7,1.3c-0.8,1-1.2,2.2-1.8,3.3c-0.8,1.6-0.4,3.6-2.4,4.1c-0.8,0.2-1.9-0.2-2.7-0.3    c-0.9-0.1-1.7-0.3-2.6-0.6c-0.3-0.1-0.8-0.1-1-0.4c-0.1-0.2,0.2-0.8,0.2-1c0.1-0.6,0.1-1.1,0.2-1.7c0.2-1.1,0.1-2.1,0.2-3.2    c0.1-0.9,0.3-1.3-0.4-1.9c-1.3-1.2-2.9-1.3-4.4-2.2c-0.8-0.5-1.8-1.3-1.8-2.2c0-1.3,0.3-2.4,0.9-3.5c0.3-0.5,1.1-1.3,1.1-2    c0-0.5-0.6-0.8-1-1.1c-0.7-0.4-1.6-0.3-2.4-0.4c-1.5-0.2-3,0.1-4.4-0.1c-1.4-0.2-2.4-0.4-3.5-1.3C110,30.8,108.4,29.3,108.7,29.9z    "/>
		<path class="st29" d="M128.2,16.2c-2.1,0.3-4,1.2-6,1.9c-2.3,0.8-4.2,2.2-6.3,3.3c-1.3,0.7-2.7,1.7-3.7,2.8    c-0.9,0.9-1.2,2.1-1.7,3.1c-0.8,1.8-1.2,4.1,1,4.9c2.1,0.8,4.6,1,6.8,1c0.8,0,1.5-0.2,2.3-0.4c0.5-0.2,1.7-0.6,2.2-0.4    c-0.7,0.7-1.1,1.7-1.6,2.5c-0.8,1.4-2.1,3-1.6,4.7c0.4,1.5,1.6,1.7,2.8,2.4c0.8,0.4,1.8,0.5,2.6,1c2.4,1.5,0.9,5.6,0.8,7.9    c-0.1,1.3,0.5,1.9,1.7,2.2c0.8,0.2,1.5,0.1,2.3,0c0.6,0,1.2,0.2,1.8-0.1c0.4-0.3,0.7-0.8,0.9-1.2c0.5-1.1,1-2.3,1.4-3.5    c0.5-1.5,1.3-3.2,2.7-4.1c0.6-0.4,1.1-0.5,1.8-0.4c0.9,0.1,1.3,0.5,1.8,1.2c1.1,1.4,1.1,2.9,0.6,4.6c-0.3,1-0.7,2-0.9,3    c-0.2,0.8-0.7,1.9-0.5,2.7c0.1,0.6,0.8,1.2,1.3,1.6c0.4,0.3,0.9,0.6,1.3,0.9c0.3,0.2,0.7,0.7,1.1,0.7c1,0,1.9-2.3,2.4-2.9    c1.5-1.9,2.9-3.7,3.9-6c0.9-2,1.8-4.1,2.4-6.2c0.6-1.9,0.8-3.7,0.8-5.7c0-1.6,0.2-3.1-0.3-4.6c-0.5-1.5-1.3-2.9-2-4.4    c-1.1-2.4-2.5-4.9-4.7-6.5c-1.1-0.8-2.2-1.7-3.4-2.4c-1.4-0.8-2.7-1.6-4.2-2.2c-1.7-0.7-3.5-0.9-5.3-1.2    C131.7,16.2,129.5,15.9,128.2,16.2z"/>
		<path class="st30" d="M51.6,95.7c1.1,1.3,2.5,2.3,3.1,4c0.5,1.3,0.9,2.5,1,3.9c0.1,1.4,0,2.7-0.2,4c-0.1,0.8-0.4,2.2-0.1,2.9    c0.3,0.6,1.4,0.8,2,1.1c1.2,0.7,2.2,1.6,3.3,2.4c0.4,0.3,1.8,1.1,1.5,1.7c-0.2,0.4-1.6,0.7-2,0.8c-1.1,0.6-2.3,1-3.5,1.5    c-0.7,0.3-1.4,0.6-1.7,1.3c-0.4,0.9-0.5,1.9-0.5,2.9c-0.1,1.7-0.2,3.3-0.5,5c-0.2,1.3-0.7,2.3-1.4,3.4c-0.5,0.9-1.4,2.2-2.3,2.7    c-2.1,1.4-4.8-0.2-7.1,0.3c-1.6,0.3-2.6,2.2-3.1,3.5c-0.8,2-1.9,4.8-4.4,4.9c-0.9,0-1.8-0.3-2.8-0.4c-1.1-0.1-2.1-0.4-3.3-0.6    c-1-0.2-2.1-0.1-3.2-0.4c-1.2-0.3-2.4-0.8-3.5-1.3c-1.4-0.6-3.1-1.1-4.4-1.8c-1.3-0.7-1.4-2-1.4-3.4c0-1.4,0.8-2.5,1.1-3.9    c0.2-1.2,0.7-2.5,0.5-3.7c-0.2-0.9-0.7-1.7-0.6-2.6c0.2-1.1,1.3-1.7,1.7-2.8c0.5-1.3-0.2-3-0.6-4.2c-0.4-1.5-1.1-3.8-0.3-5.3    c0.7-1.3,1.8-1.8,3.2-1.7c0.8,0,1.2,0.8,1.7,1.3c0.8,1,1.2,2.2,1.8,3.3c0.8,1.6,0.4,3.6,2.4,4.1c0.8,0.2,1.9-0.2,2.7-0.3    c0.9-0.1,1.7-0.3,2.6-0.6c0.3-0.1,0.8-0.1,1-0.4c0.1-0.2-0.2-0.8-0.2-1c-0.1-0.6-0.1-1.1-0.2-1.7c-0.2-1.1-0.1-2.1-0.2-3.2    c-0.1-0.9-0.3-1.3,0.4-1.9c1.3-1.2,2.9-1.3,4.4-2.2c0.8-0.5,1.8-1.3,1.8-2.2c0-1.3-0.3-2.4-0.9-3.5c-0.3-0.5-1.1-1.3-1.1-2    c0-0.5,0.6-0.8,1-1.1c0.7-0.4,1.6-0.3,2.4-0.4c1.5-0.2,3,0.1,4.4-0.1c1.4-0.2,2.4-0.4,3.5-1.3C50.3,96.5,51.9,95,51.6,95.7z"/>
		<path class="st31" d="M32,81.9c2.1,0.3,4,1.2,6,1.9c2.3,0.8,4.2,2.2,6.3,3.3c1.3,0.7,2.7,1.7,3.7,2.8c0.9,0.9,1.2,2.1,1.7,3.1    c0.8,1.8,1.2,4.1-1,4.9c-2.1,0.8-4.6,1-6.8,1c-0.8,0-1.5-0.2-2.3-0.4c-0.5-0.2-1.7-0.6-2.2-0.4c0.7,0.7,1.1,1.7,1.6,2.5    c0.8,1.4,2.1,3,1.6,4.7c-0.4,1.5-1.6,1.7-2.8,2.4c-0.8,0.4-1.8,0.5-2.6,1c-2.4,1.5-0.9,5.6-0.8,7.9c0.1,1.4-0.5,1.9-1.7,2.2    c-0.8,0.2-1.5,0.1-2.3,0c-0.6,0-1.3,0.2-1.8-0.1c-0.4-0.3-0.7-0.8-0.9-1.2c-0.5-1.1-1-2.3-1.4-3.5c-0.5-1.5-1.3-3.2-2.7-4.1    c-0.6-0.4-1.1-0.5-1.8-0.4c-0.9,0.1-1.3,0.5-1.8,1.2c-1.1,1.4-1.1,2.9-0.6,4.6c0.3,1,0.7,2,0.9,3c0.2,0.8,0.7,1.9,0.5,2.7    c-0.1,0.6-0.8,1.2-1.3,1.6c-0.4,0.3-0.9,0.6-1.3,0.9c-0.3,0.2-0.7,0.7-1.1,0.7c-1,0-1.9-2.3-2.4-2.9c-1.5-1.9-2.9-3.7-3.9-6    c-0.9-2-1.8-4.1-2.4-6.2c-0.6-1.9-0.8-3.7-0.8-5.7c0-1.6-0.2-3.1,0.3-4.6c0.5-1.5,1.3-2.9,2-4.4c1.1-2.4,2.5-4.9,4.7-6.5    c1.1-0.8,2.2-1.7,3.4-2.4c1.4-0.8,2.7-1.6,4.2-2.2c1.7-0.7,3.5-0.9,5.3-1.2C28.5,81.9,30.7,81.6,32,81.9z"/>
		<path class="st32" d="M70.7,21.6c-1.4-0.1-2.4,0.3-3.7,0.7c-1.6,0.4-3.3-0.2-5-0.3c-1.4-0.1-2.6-0.5-4-0.7    c-0.9-0.1-1.8-0.3-2.7-0.4c-0.7,0-1.5,0.2-2.2,0.2c-1.7,0.1-3.4,0-5.1-0.2c-2.4-0.3-4.7-0.8-7.1-0.8c-1.4,0-2.7,0.4-4.1,0.4    c-0.7,0-1.5-0.2-2.2-0.4C33.8,20,32.9,20,32.1,20c-2.1-0.1-4.1,0.3-6.2,0.7c-1.8,0.3-3.6,0.9-5.5,1.1c-1.3,0.1-2.2,0.3-3.2,1.1    c-0.7,0.5-1.3,1-1.8,1.8c-0.5,0.8-1.1,1.6-1.4,2.5c-0.4,1.2-0.4,2.5-0.6,3.8c-0.2,1.5-0.5,3.1-0.6,4.7c-0.3,3.4-0.8,6.7-0.9,10.1    c-0.1,1.3,0.3,2.5,0.2,3.8c0,1.7,0.1,3.3,0.3,5c0.2,1.9,0.3,3.8,0.7,5.7c0.4,2.2,0.3,4.4,1.6,6.3c0.6,0.9,1.4,1.1,2.4,1.3    c2.4,0.5,4.7,0.6,7.1,0.6c3.5,0,6.9,0.4,10.4,0.6c1.2,0.1,2.5,0.1,3.8,0c0.8-0.1,1.5-0.4,2.3-0.4c1.1,0,2.2,0.2,3.4,0.2    c1.3,0,2.6,0.3,3.9,0.4c1.3,0.1,2.6,0.2,3.8,0.1c1.4-0.1,2.7-0.3,4.1-0.4c2.2-0.2,4.4-0.6,6.7-0.6c1.3,0,2.7,0.1,4,0.1    c1.1,0.1,2.2,0.4,3.3,0.5c3.2,0.2,6.3,1.2,9.4,1.9c1.4,0.3,2.8,0.5,4.2,0.8c1.4,0.2,2.6,0.9,3.9,1.4c0.9,0.4,1.8,0.6,2.6,1    c2.9,1.3,5.8,2.3,9.1,2.1c-0.2-1.1-1.1-1.9-1.8-2.7c-1-1.1-2.1-2.2-3.1-3.3c-1.4-1.7-3-3-3.7-5.1c-0.5-1.5-0.3-3.1-0.4-4.6    c-0.1-2.9-0.2-5.8-0.1-8.6c0.1-2.1,0.1-4.2,0.3-6.3c0.1-1,0.1-2.1,0.2-3.1c0.3-2.1,0.7-4.1,0.8-6.2c0.1-1.3-0.2-2.4-0.3-3.7    c-0.1-1.1-0.1-2.2-0.4-3.2c-1.2-3.4-4.2-5.8-7.8-6.5C78.9,22.1,74.8,21.8,70.7,21.6z"/>
		<path class="st32" d="M88.9,87.9c1.4-0.1,2.4,0.3,3.7,0.7c1.6,0.4,3.3-0.2,5-0.3c1.4-0.1,2.6-0.5,4-0.7c0.9-0.1,1.8-0.3,2.7-0.4    c0.7,0,1.5,0.2,2.2,0.2c1.7,0.1,3.4,0,5.1-0.2c2.4-0.3,4.7-0.8,7.1-0.8c1.4,0,2.7,0.4,4.1,0.4c0.7,0,1.5-0.2,2.2-0.4    c0.8-0.1,1.7-0.1,2.5-0.1c2.1-0.1,4.1,0.3,6.2,0.7c1.8,0.3,3.6,0.9,5.5,1.1c1.3,0.1,2.2,0.3,3.2,1.1c0.7,0.5,1.3,1,1.8,1.8    c0.5,0.8,1.1,1.6,1.4,2.5c0.4,1.2,0.4,2.5,0.6,3.8c0.2,1.5,0.5,3.1,0.6,4.7c0.3,3.4,0.8,6.7,0.9,10.1c0.1,1.3-0.3,2.5-0.2,3.8    c0,1.7-0.1,3.3-0.3,5c-0.2,1.9-0.3,3.8-0.7,5.7c-0.4,2.2-0.3,4.4-1.6,6.3c-0.6,0.9-1.4,1.1-2.4,1.3c-2.4,0.5-4.7,0.6-7.1,0.6    c-3.5,0-6.9,0.4-10.4,0.6c-1.2,0.1-2.5,0.1-3.8,0c-0.8-0.1-1.5-0.4-2.3-0.4c-1.1,0-2.2,0.2-3.4,0.2c-1.3,0-2.6,0.3-3.9,0.4    c-1.3,0.1-2.6,0.2-3.8,0.1c-1.4-0.1-2.7-0.3-4.1-0.4c-2.2-0.2-4.4-0.6-6.7-0.6c-1.3,0-2.7,0.1-4,0.1c-1.1,0.1-2.2,0.4-3.3,0.5    c-3.2,0.2-6.3,1.2-9.4,1.9c-1.4,0.3-2.8,0.5-4.2,0.8c-1.4,0.2-2.6,0.9-3.9,1.4c-0.9,0.4-1.8,0.6-2.6,1c-2.9,1.3-5.8,2.3-9.1,2.1    c0.2-1.1,1.1-1.9,1.8-2.7c1-1.1,2.1-2.2,3.1-3.3c1.4-1.7,3-3,3.7-5.1c0.5-1.5,0.3-3.1,0.4-4.6c0.1-2.9,0.2-5.8,0.1-8.6    c-0.1-2.1-0.1-4.2-0.3-6.3c-0.1-1-0.1-2.1-0.2-3.1c-0.3-2.1-0.7-4.1-0.8-6.2c-0.1-1.3,0.2-2.4,0.3-3.7c0.1-1.1,0.1-2.2,0.4-3.2    c1.2-3.4,4.2-5.8,7.8-6.5C80.8,88.4,84.9,88.1,88.9,87.9z"/>
		<path class="st33" d="M47.3,30.9c-0.4,0-0.7,0.2-1,0.5c-0.6,0.5-1.2,1.1-1.8,1.7c-1,1.2-1.7,2.9-1.9,4.4c-0.3,2.1-0.5,4.2,0.3,6.1    c0.4,0.9,1,1.6,1.6,2.3c0.3,0.3,0.7,0.6,0.9,0.9c0.3,0.3,0.5,0.7,0.8,1c0.5,0.4,1,0.6,1.2,1.2c0.3,0.7,0.1,1.6,0.1,2.3    c0,0.7,0,1.6,0.5,2.1c0.5,0.5,1.4,0.4,2.1,0.5c0.4,0,0.7,0.1,1.1,0.1c0.5,0,0.9-0.1,1.4-0.1c0.6,0,1.2,0,1.8-0.2    c0.4-0.1,0.4-0.3,0.5-0.7c0.1-0.7,0.2-1.4,0.3-2.1c0-0.7-0.1-1.5,0-2.2c0.1-0.4,0.4-0.8,0.7-1.1c0.4-0.5,1-1,1.5-1.3    c0.8-0.5,1.5-1.1,2.3-1.7c1.2-1,2.7-1.8,3-3.5c0.1-0.6,0-1.4-0.1-2c-0.1-0.7-0.6-1.4-0.9-2.1c-0.3-0.7-0.6-1.5-1-2.1    c-0.4-0.6-1.1-1.1-1.6-1.6c-0.7-0.6-1.5-1-2.2-1.4c-0.9-0.5-1.9-1-2.9-1.4c-1.1-0.4-2.4-0.6-3.6-0.4    C49.6,30.5,48.6,30.7,47.3,30.9z"/>
		<path class="st34" d="M47.9,55c-0.2,1,0.4,2.3,1.1,3c0.5,0.5,1.4,0.9,2.1,1c1.4,0.3,3.2-0.6,4-1.6c0.6-0.7,0.5-1.6,0.5-2.5    c0-0.2,0-0.4-0.1-0.6c0-0.1,0-0.5,0-0.6c-0.2-0.4-0.9-0.1-1.2,0c-1,0.2-2.1,0.2-3.2,0.3c-0.9,0.1-1.6-0.1-2.5-0.1    C47.9,53.9,47.7,54.6,47.9,55z"/>
		<path class="st35" d="M97.1,95.8c-1.5,0.3-2.2,2-3.5,2.7c-0.3,0.2-0.7,0.3-0.9,0.5c-0.9,0.9-1.6,2.2-2.2,3.3    c-0.9,1.7-1.8,3.3-2.4,5.2c-0.2,0.7-0.3,1.3-0.4,2c-0.1,0.6,0,1,0.1,1.6c0.1,0.6,0.1,1.3,0.3,1.9c0.2,0.7,0.4,1.3,0.6,1.9    c0.4,1.1,0.9,2.1,1.5,3c0.2,0.4,0.5,0.6,0.9,0.8c0.4,0.3,0.8,0.6,1.2,0.9c0.6,0.4,1.4,0.6,2.1,0.9c0.6,0.3,1.2,0.7,1.9,0.9    c0.8,0.2,1.6,0.5,2.4,0.7c0.7,0.2,1.6,0.1,2.3,0c0.4,0,0.8,0,1.2,0c0.5,0,0.9-0.1,1.4-0.3c1.4-0.5,3.1-0.8,4.3-1.7    c0.3-0.3,0.7-0.6,0.9-0.9c0.3-0.4,1.3-1.4,1.2-1.9c-0.1-0.2-0.7-0.2-0.9-0.3c-0.8-0.2-1.6-0.1-2.4-0.1c-0.8,0-1.5,0-2.2-0.3    c-0.5-0.2-1.2-0.3-1.5-0.8c-0.2-0.4-0.1-0.9-0.2-1.3c0-0.5-0.1-0.9-0.1-1.4c-0.1-1-0.1-2.1,0.1-3.1c0.1-0.4,0.2-1,0.6-1.2    c0.5-0.3,1.3-0.4,1.9-0.4c0.6,0,1.2-0.1,1.9-0.2c0.8,0,1.5,0.1,2.3,0c0.8-0.1,1.7,0,2.5-0.2c0.4-0.1,1.2-0.3,1.2-0.8    c0-0.3-0.1-0.6-0.1-0.9c0-0.3,0-0.6,0-0.9c-0.2-0.7-0.3-1.3-0.5-2c-0.3-0.9-0.8-2.1-1.4-2.8c-0.6-0.7-1.2-1.6-2-2.1    c-0.5-0.3-0.9-0.5-1.4-0.8c-0.4-0.3-0.8-0.7-1.2-0.9c-0.4-0.2-0.7-0.3-1.1-0.5c-0.8-0.4-1.8-0.7-2.7-0.9c-1-0.2-1.9-0.4-2.8-0.3    c-0.5,0.1-0.9,0.3-1.3,0.4C98.2,95.6,97.6,95.7,97.1,95.8z"/>
		<path class="st36" d="M113.8,110.5c-0.3,0.8-0.4,1.7-0.7,2.6c-0.3,1.1-0.9,2-1.3,3.1c-0.2,0.6,0,0.6,0.6,0.8    c1,0.2,1.8,0.2,2.8,0.2c1.2,0,2.3,0.1,3.4,0c1.1-0.1,2.1-0.1,3.2-0.2c0.8-0.1,1.6,0,2.4-0.2c0.7-0.1,1.3-0.1,2-0.2    c1-0.1,2.3-0.4,3.2-0.9c1.3-0.7,1.5-2.6,1.5-3.9c0-0.8,0.1-1.9-0.3-2.7c-0.3-0.6-1-1.4-1.7-1.6c-1-0.3-2.2-0.4-3.2-0.5    c-0.6,0-1.2-0.1-1.8-0.1c-0.7,0-1.4,0.1-2.1,0.1c-2.2,0.1-4.5,0.5-6.7,0.7c-0.2,0-0.5-0.1-0.7,0c-0.2,0.1-0.1,0.2-0.1,0.4    c0,0.4-0.2,0.8-0.2,1.1C114,109.7,114.2,110.2,113.8,110.5z"/>
		<path class="st37" d="M111.6,108c-0.4-0.1-0.9-0.2-1.4-0.2c-0.5,0-0.9,0.1-1.4,0c-0.9-0.1-1.6,0.2-2.4,0.4c-0.7,0.2-1.3,0.2-2,0.5    c-0.6,0.2-1,0.8-1.4,1.3c-0.5,0.7-0.9,1.3-1,2.1c-0.1,0.7-0.2,1.5-0.1,2.2c0,0.4,0,1,0.3,1.4c0.3,0.3,0.8,0.4,1.2,0.5    c0.7,0.2,1.3,0.3,2,0.3c1.9,0.1,3.8,0.3,5.6,0.1c1.3-0.2,1.6-1.7,2-2.7c0.3-0.8,0.5-1.5,0.6-2.4c0.1-0.6,0.2-1.2,0.1-1.8    C113.6,108.5,112.7,108.2,111.6,108z"/>
		<path d="M150.6,26c-4.8-6.2-11.4-10.1-19.2-10.4c-7.9-0.3-16.6,3.3-21.4,9.7c-0.7,0.9-1.2,1.9-1.5,2.9c-1.9,1.2-3.6,3.5-4.4,5.4    c-0.6,1.5-0.9,3.2-0.9,4.8c0,1.1,0.5,2.3,0.4,3.4c-0.1,2.4-1.1,2.6-2.8,3.7c-1.5,1-4.4,2.6-4,4.8c0.7,3.7,7.1,0.8,7.5,5    c0.4,3.5,0.7,7.3,2.2,10.5c1.3,2.8,4.1,3.4,7,3.5c2.6,0.1,4.5-0.6,5.6,2.2c0.5,1.3,0.9,3,1.8,4.2c1.8,2.6,5.5,2.2,8.2,1.7    c4-0.8,8.3-2.4,12.1-3.9c2.7-1.1,4.3-2.7,3.7-5.7c-0.4-1.7-1.7-3.3-2-5c-0.4-2.4,2.4-4.3,3.7-5.8c2.6-3.2,4.8-6.5,6.1-10.5    C154.9,39.7,155.2,32,150.6,26z M141.1,69.6c-1,1.4-2.7,1.6-4.2,2.1c-3.1,1.1-7.1,3.2-10.5,3c-4.4-0.2-3.5-4.1-5.6-6.7    c-1.3-1.6-3.3-1.6-5.2-1.6c-1.4,0-3.2,0.3-4.5-0.2c-2.1-0.8-2.3-2.8-2.8-4.7c-0.2-0.7-0.4-1.5-0.5-2.2c0.8,0.1,1.7,0,2.6-0.2    c1.2-0.3,3.2-0.5,4.1-1.4c0.5-0.5,0.1-1.4-0.6-1.4c-1.2-0.1-2.4,0.5-3.6,0.9c-1,0.3-2,0.3-3,0.4c-0.1-0.4-0.1-0.8-0.2-1.2    c-0.1-1.2,0-2.5-0.6-3.7c-1-1.9-3.5-2.6-5.5-2.8c-0.5,0-0.7-0.1-0.9-0.2c0.6-0.7,1.6-1.2,2.2-1.6c1.1-0.7,2.2-1.3,3.1-2.3    c1.7-2,0.9-4.2,0.7-6.6c-0.3-2.7,0.6-6,2.4-8.4c0.3,0.7,0.7,1.3,1.5,1.8c2.9,2,6.5,1.7,9.9,1.5c-0.9,1-1.8,2.1-2,3.7    c-0.3,2,0.6,3.5,2.4,4.5c1.1,0.6,2.5,0.7,3.5,1.3c1.8,1.1,0.7,3.5,0.4,5.3c-0.3,2.1-0.2,4,2,4.9c1.9,0.7,5.5,1,7.3,0.1    c2.8-1.4,0.7-5.4,2.6-7.4c1.4-1.5,3.4-0.4,3.8,1.4c0.3,1.4-0.3,2.9-0.8,4.2c-0.4,1-1,1.9-0.8,3.1c0.2,1.5,1.2,2.9,2.5,3.8    c-1.1,1.7-1.5,3.6-0.4,6.2C141.3,66.9,142.3,68,141.1,69.6z M145.9,53c-1,1.3-2.1,2.5-3.2,3.6c-3-0.8-0.2-5.3-0.1-7.3    c0.1-1.9-0.5-4.2-1.9-5.6c-3.2-2.9-7.4,0.3-8.2,3.7c-0.2,0.7,0,2.9-0.4,3.4c-0.9,1.3-3.6,0.5-4.4-0.4c-1.7-2,0.7-4.8-0.2-7.2    c-0.7-2-2.6-2.1-4.4-2.7c-5.1-1.8-0.3-5,1.1-7.2c0.6-0.9-0.2-2.1-1.2-2.1c-2.7,0-7.8,1.4-10.1-0.3c-3.9-2.9,2.5-7,4.8-8.5    c5.7-3.6,14-5.3,20.4-2.5c5.6,2.5,11.2,7.5,12.7,13.6C152.4,40.2,149.8,47.6,145.9,53z"/>
		<path d="M112.2,40.8c-0.7-0.3-1.7-0.1-2.1,0.7c-0.3,0.5-0.6,1-0.6,1.6c0,0.7,0.7,1.6,1.5,1.5c0.2,0,0.3-0.1,0.5-0.1    c0.4,0,0.7-0.2,1-0.5c0.4-0.4,0.4-0.9,0.6-1.3c0.1-0.4,0-1-0.2-1.3C112.8,41.2,112.5,41,112.2,40.8z"/>
		<path d="M12.2,65.3c0.6,3.5,4.1,4.3,7.3,4.8c4.4,0.7,9,0.5,13.5,0.7c4.8,0.2,9.6,0,14.4,0.2c5.6,0.2,11.2,0,16.8,0    c4.7,0,10.4-0.6,14.9,0.6c4.3,1.1,8.7,2.7,12.8,4.3c2.1,0.8,6.9,3.6,9.2,2.4c0.7-0.4,0.9-1.4,0.5-2c-1.7-2.8-4.4-5.1-6.9-7.2    c-1.8-1.5-2.8-3.4-3.2-5.5c-0.1-2.9,0.1-5.9,0.2-8.7c0.2-4.9,0.6-9.8,0.8-14.7c0.3-6.3,1.8-14.4-5.6-16.9    c-3.8-1.3-8.1-1.5-12.1-1.9c-4.9-0.5-9.8-1-14.7-1.4c-9.7-0.7-19.4-0.8-29.2-0.7c-4.2,0-8.4,0.5-12.4,1.8c-3.4,1.1-5,3-5.9,6.3    c-2.2,8.3-1.4,16.8-1.3,25.3C11.4,56.7,11.5,61.3,12.2,65.3z M14.2,38.4c0.1-3.7,0.5-7.6,1.6-11.2c1.3-4.2,8.8-4.8,12.4-5    c16.5-0.8,33.2,0.6,49.6,2.4c2.4,0.2,4.8,0.5,7.1,1.1c2.8,0.8,4.1,2,4.6,4.9c0.7,4,0.1,8.5-0.2,12.6c-0.3,4.4-0.6,8.9-0.6,13.3    c0,0.8,0,1.7,0,2.5c-0.5,3-0.4,6.9,1.2,9.3c1.5,2.2,3.8,3.8,5.8,5.5c-1.2-0.5-2.5-0.9-3.7-1.3c-3.3-1.2-6.7-2.1-10.1-3.3    c-6.6-2.2-14.2-1.5-21.2-1.5c-8.1,0-16.2,0.3-24.3-0.1c-4-0.2-8-0.1-12-0.3c-1.9-0.1-3.9-0.2-5.7-0.6c-1.1-0.2-3.1-0.6-3.7-1.7    c-0.6-1-0.3-3.2-0.3-4.3C14.5,53.4,14.1,46,14.2,38.4z"/>
		<path d="M63.1,116.3c0.4-2.3-2.5-3.9-4-4.8c-1.7-1.1-2.7-1.3-2.8-3.7c0-1.1,0.4-2.3,0.4-3.4c0.1-1.6-0.3-3.4-0.9-4.8    c-0.8-1.9-2.5-4.1-4.4-5.4c-0.3-1-0.8-2-1.5-2.9c-4.8-6.4-13.5-10-21.4-9.7C20.8,81.8,14.2,85.7,9.4,92c-4.6,6-4.3,13.7-2.1,20.7    c1.3,3.9,3.4,7.3,6.1,10.5c1.3,1.6,4.1,3.4,3.7,5.8c-0.3,1.6-1.6,3.2-2,5c-0.7,3,1,4.6,3.7,5.7c3.8,1.5,8.1,3.1,12.1,3.9    c2.7,0.5,6.4,0.8,8.2-1.7c0.8-1.2,1.3-2.9,1.8-4.2c1.1-2.9,3-2.1,5.6-2.2c2.9-0.1,5.6-0.7,7-3.5c1.5-3.2,1.9-7,2.2-10.5    C56.1,117.1,62.4,120,63.1,116.3z M17.3,122.7c-1.1-1.1-2.2-2.3-3.2-3.6c-3.9-5.4-6.5-12.8-4.9-19.6c1.5-6.2,7-11.1,12.7-13.6    c6.3-2.8,14.7-1.1,20.4,2.5c2.3,1.4,8.7,5.6,4.8,8.5c-2.3,1.7-7.4,0.3-10.1,0.3c-1.1,0-1.8,1.2-1.2,2.1c1.4,2.3,6.2,5.4,1.1,7.2    c-1.8,0.6-3.6,0.8-4.4,2.7c-0.9,2.4,1.5,5.3-0.2,7.2c-0.7,0.8-3.4,1.7-4.4,0.4c-0.4-0.5-0.3-2.8-0.4-3.4c-0.8-3.4-5-6.6-8.2-3.7    c-1.4,1.3-2,3.7-1.9,5.6C17.5,117.4,20.3,121.9,17.3,122.7z M59,115.8c-2,0.2-4.5,0.9-5.5,2.8c-0.6,1.2-0.5,2.4-0.6,3.7    c0,0.4-0.1,0.8-0.2,1.2c-1-0.1-2-0.1-3-0.4c-1.1-0.3-2.3-0.9-3.6-0.9c-0.7,0-1.1,0.9-0.6,1.4c0.9,0.9,2.9,1.1,4.1,1.4    c0.9,0.2,1.8,0.3,2.6,0.2c-0.2,0.7-0.4,1.5-0.5,2.2c-0.5,1.9-0.7,3.8-2.8,4.7c-1.3,0.5-3.1,0.3-4.5,0.2c-1.9,0-3.9,0-5.2,1.6    c-2.2,2.6-1.3,6.5-5.6,6.7c-3.4,0.2-7.4-1.8-10.5-3c-1.5-0.6-3.3-0.7-4.2-2.1c-1.2-1.7-0.1-2.7,0.7-4.4c1.1-2.6,0.7-4.5-0.4-6.2    c1.3-0.9,2.3-2.3,2.5-3.8c0.1-1.2-0.5-2-0.8-3.1c-0.5-1.3-1.1-2.7-0.8-4.2c0.4-1.8,2.4-2.9,3.8-1.4c2,2-0.2,6,2.6,7.4    c1.9,0.9,5.4,0.6,7.3-0.1c2.2-0.9,2.3-2.8,2-4.9c-0.3-1.8-1.4-4.2,0.4-5.3c1-0.6,2.5-0.7,3.5-1.3c1.7-1,2.7-2.5,2.4-4.5    c-0.2-1.7-1.1-2.7-2-3.7c3.4,0.2,7.1,0.5,9.9-1.5c0.8-0.5,1.2-1.2,1.5-1.8c1.8,2.3,2.7,5.7,2.4,8.4c-0.2,2.4-1,4.6,0.7,6.6    c0.8,1,2,1.6,3.1,2.3c0.6,0.4,1.6,0.9,2.2,1.6C59.7,115.7,59.4,115.8,59,115.8z"/>
		<path d="M47.8,106.8c-0.3,0.1-0.6,0.4-0.8,0.7c-0.2,0.3-0.3,0.9-0.2,1.3c0.2,0.5,0.2,0.9,0.6,1.3c0.3,0.3,0.6,0.4,1,0.5    c0.2,0,0.3,0.1,0.5,0.1c0.8,0.1,1.5-0.8,1.5-1.5c0-0.7-0.3-1.1-0.6-1.6C49.5,106.7,48.5,106.5,47.8,106.8z"/>
		<path d="M141.5,87c-4.1-1.3-8.2-1.8-12.4-1.8c-9.7,0-19.4,0.1-29.2,0.7c-4.9,0.3-9.8,0.9-14.7,1.4c-4,0.4-8.3,0.6-12.1,1.9    c-7.4,2.5-5.9,10.6-5.6,16.9c0.2,4.9,0.5,9.8,0.8,14.7c0.1,2.8,0.3,5.8,0.2,8.7c-0.5,2.1-1.4,3.9-3.2,5.5    c-2.5,2.1-5.2,4.4-6.9,7.2c-0.4,0.7-0.2,1.7,0.5,2c2.3,1.2,7.1-1.6,9.2-2.4c4.1-1.6,8.5-3.1,12.8-4.3c4.5-1.2,10.2-0.6,14.9-0.6    c5.6,0,11.2,0.3,16.8,0c4.8-0.2,9.6-0.1,14.4-0.2c4.5-0.2,9.1,0,13.5-0.7c3.1-0.5,6.6-1.3,7.3-4.8c0.7-4,0.8-8.5,0.9-12.6    c0.1-8.5,0.9-17-1.3-25.3C146.5,90,144.9,88.1,141.5,87z M144.8,131.2c-0.6,1-2.6,1.4-3.7,1.7c-1.8,0.4-3.8,0.6-5.7,0.6    c-4,0.2-8,0.2-12,0.3c-8.1,0.3-16.2,0.1-24.3,0.1c-7,0-14.5-0.7-21.2,1.5c-3.3,1.1-6.8,2-10.1,3.3c-1.2,0.5-2.5,0.9-3.7,1.4    c2-1.8,4.3-3.3,5.8-5.5c1.6-2.4,1.8-6.2,1.2-9.3c0-0.9,0-1.7,0-2.5c0.1-4.4-0.3-8.9-0.6-13.3c-0.3-4.1-0.9-8.6-0.2-12.6    c0.5-2.9,1.8-4.1,4.6-4.9c2.3-0.6,4.8-0.9,7.1-1.1c16.4-1.7,33.1-3.2,49.6-2.4c3.7,0.2,11.1,0.8,12.4,5c1.1,3.6,1.5,7.4,1.6,11.2    c0.1,7.5-0.3,15-0.7,22.5C145,128,145.3,130.2,144.8,131.2z"/>
		<path d="M44.7,48.1c1.3,1.1,1.4,0.9,1.8,2.3c0.1,0.4,0.1,0.7,0.2,1.1c-0.1,0.5-0.1,1-0.1,1.5c-0.3,1.4-0.2,3.1,0.3,4.3    c0.7,1.8,3.2,2.7,5,2.7c2.1,0,3.4-1.2,4.2-2.9c0.5-1.1,1-2.6,0.6-3.8c0.3-1.5-0.4-3.3,0.3-4.5c0.6-1,2.8-2,3.7-2.9    c2.5-2.4,4-5.6,2.6-9c-1.4-3.5-6.3-6.4-9.8-7.2c-3.7-0.8-7.8,0.2-10.2,3.4c-2.3,3-3.3,7.8-1.7,11.3C42.3,45.9,43.4,47.1,44.7,48.1    z M54,56.5c-0.8,1.5-2.2,1.7-3.7,1.1c-1.5-0.5-1.8-1.4-1.9-2.7c0,0,0.1,0,0.1,0c1.7,0.3,3.7-0.2,5.4-0.2c0.2,0,0.4,0,0.6,0    C54.4,55.4,54.3,55.9,54,56.5z M50.9,47.9c-0.3-1.9-1.4-3.7-1.5-5.6c1.2-0.2,2.4-0.6,3.5-0.6c1.1,0,0.6-0.4,0.4,0.7    c-0.1,0.9-0.4,1.8-0.6,2.6c-0.4,1.7-1,3.4-1.4,5.2C51.2,49.4,51,48.6,50.9,47.9z M43.1,39.2c0.6-4.6,4-8.1,8.9-7.7    c4.3,0.4,11.6,5,9.3,10.1c-1.2,2.7-3.7,3.7-5.7,5.4c-1.7,1.5-0.4,2.9-1.1,4.8c-0.4,1.2-0.5,0.9-1.9,0.9c-0.1,0-0.2,0-0.3,0    c0.7-2,1-4.4,1.6-6.4c0.5-1.6,1.4-4.1,0.9-5.8c-0.1-0.2-0.3-0.5-0.5-0.5c-1.7-0.3-4,0.8-5.7,0.9c-0.4,0-0.7,0.3-0.7,0.7    c-0.2,1.9,0.8,3.6,1.3,5.4c0.5,2,0.7,4.1,1.2,6.1c-0.3,0-0.6,0-0.8-0.1c-0.9-0.5-0.6-1.2-0.7-2c-0.2-2.9-1.8-3.3-3.7-5.1    C43.3,44,42.7,41.7,43.1,39.2z"/>
		<path d="M130.4,106.9c-3-1.7-7.9-0.9-11.5-0.2c-1.4,0-2.9,0-4.3,0c-1.4-7.6-8-14.6-16.8-12.4c-6.5,1.6-10.3,7.4-10.7,13.7    c-0.4,2.4-0.2,4.8,0.7,7.3c3,7.7,12.3,9.4,19.3,6.3c2.1-0.9,3.8-2.2,5-3.8c3.7,0,7.5-0.3,11.2-0.5c2.6-0.2,7.5,0.3,8.5-2.7    C132.7,112.5,132.7,108.1,130.4,106.9z M94,119.5c-5.1-3-6-9.2-4.1-14.4c2.1-5.7,7-10.2,13.4-8.8c2.5,0.6,4.6,2.1,6.1,4.1    c0.4,0.5,3.3,6.4,3.1,6.4c-0.5,0-1,0-1.5,0.1c-2.3,0.1-7.5-0.9-9.1,1.2c-0.6,0.8-0.5,2.3-0.6,3.3c-0.2,1.5-0.8,3.5,0,4.9    c1.2,1.9,5.2,1.5,7.5,1.5C105,121.2,98.9,122.3,94,119.5z M110.7,115.7c-0.8,0-1.6-0.1-2.4-0.1c-2.3-0.1-5,0.6-5.2-2    c-0.1-1.4,0.2-3.9,1.6-4.6c1-0.5,3.1-0.1,4.3-0.2c1.3-0.1,2.6-0.1,3.8-0.2c0,0.3,0,0.6,0,0.9C112.7,111.9,111.9,114,110.7,115.7z     M130.1,113.3c-0.7,1.9-2.3,1.7-4.2,1.8c-4.1,0.4-8.2,0.6-12.4,0.7c1.1-2.2,1.5-4.6,1.4-7.1c0.9,0,1.8-0.1,2.6-0.1c0,0,0,0,0,0    c0,0,0,0,0.1,0c3.3-0.1,6.7-0.3,10-0.4c0,0,0,0,0.1,0c0.5,0.1,0.9,0.2,1.2,0.4C130.1,109.4,130.6,111.9,130.1,113.3z"/>
		<path d="M114.7,96.2c5.4,0.8,11.3,0.9,16.7,0.4c1-0.1,1-1.4,0-1.5c-5.4-0.5-11.2-0.5-16.6,0C114.2,95.1,114,96.1,114.7,96.2z"/>
		<path d="M116.9,98.5c-0.6,0.1-0.9,1-0.2,1.1c5.4,0.8,11.3,0.9,16.7,0.4c1-0.1,1-1.4,0-1.5C128.1,97.9,122.2,98,116.9,98.5z"/>
		<path d="M136.7,102.1c-5.4-0.5-11.2-0.5-16.6,0c-0.6,0.1-0.9,1-0.2,1.1c5.4,0.8,11.3,0.9,16.7,0.4    C137.7,103.5,137.7,102.2,136.7,102.1z"/>
	</g>
</g>
<g id="Слой_6">
</g>
<g id="Слой_7">
</g>
<g id="Слой_8">
</g>
</svg>