<svg xmlns="http://www.w3.org/2000/svg" width="64" height="64" viewBox="0 0 64 64"><g><g><g><path d="M25.001 45C13.973 45 5 36.027 5 24.999a19.867 19.867 0 0 1 5.856-14.141A19.877 19.877 0 0 1 25 5c11.028 0 20 8.973 20 20.001C45 36.028 36.028 45 25.001 45zm-.003-42c-5.876 0-11.4 2.289-15.556 6.444A21.846 21.846 0 0 0 3 24.999C3 37.131 12.869 47 25.001 47 37.131 47 47 37.131 47 25.001 47 12.869 37.13 3 24.998 3z"/></g><g><path d="M56.879 61.121L46.006 50.248l.705-.706.002-.001.001-.002 2.823-2.823.004-.003.003-.004.704-.705L61.121 56.88h.001v.001c.566.565.878 1.317.878 2.118 0 .802-.312 1.556-.88 2.122-1.131 1.136-3.109 1.132-4.241 0zM41.953 43.366c.244-.226.488-.453.725-.689.237-.237.464-.48.689-.725l4.053 4.053-1.414 1.415zM8.736 41.263A22.858 22.858 0 0 1 2 24.999 22.851 22.851 0 0 1 8.736 8.736 22.857 22.857 0 0 1 25 2c6.144 0 11.92 2.393 16.264 6.736 8.967 8.967 8.967 23.559 0 32.526A22.853 22.853 0 0 1 25 47.998a22.853 22.853 0 0 1-16.264-6.735zm53.799 14.203l-11.58-11.583a.999.999 0 0 0-1.414 0l-.708.708-4.166-4.167c7.698-9.803 7.04-24.072-1.989-33.102C37.956 2.601 31.678 0 25 0 18.323 0 12.045 2.601 7.322 7.322A24.836 24.836 0 0 0 0 24.999c.001 6.678 2.601 12.956 7.322 17.678 4.721 4.722 11 7.321 17.678 7.321a24.812 24.812 0 0 0 15.426-5.331l4.166 4.167-.707.707a.999.999 0 0 0 0 1.414l11.58 11.58A4.969 4.969 0 0 0 59.001 64a4.963 4.963 0 0 0 3.534-1.465A4.969 4.969 0 0 0 64 58.999a4.96 4.96 0 0 0-1.465-3.533z"/></g><g><path d="M31.179 38.677l-5.705-2.996a1.005 1.005 0 0 0-.93 0l-5.705 2.996a15.068 15.068 0 0 1-4.976-3.653l1.084-6.319a1.002 1.002 0 0 0-.288-.886l-4.557-4.437a14.889 14.889 0 0 1 1.98-5.937l6.24-.911a1 1 0 0 0 .752-.547l2.776-5.627a14.997 14.997 0 0 1 3.157-.341c1.084 0 2.139.122 3.157.341l2.776 5.627a1 1 0 0 0 .752.547l6.24.911a14.874 14.874 0 0 1 1.98 5.935l-4.557 4.438a1 1 0 0 0-.288.886l1.084 6.319a15 15 0 0 1-4.972 3.654zm-9.741.895l3.571-1.876 3.571 1.876a14.965 14.965 0 0 1-3.571.447c-1.232 0-2.425-.165-3.571-.447zm-9.223-6.762a14.857 14.857 0 0 1-2.149-6.673l2.822 2.748zm7-21.624l-1.7 3.445-3.808.557a15.054 15.054 0 0 1 5.508-4.002zm17.096 4.002l-3.808-.557-1.7-3.445a15.054 15.054 0 0 1 5.508 4.002zm.819 13.697l2.822-2.749a14.873 14.873 0 0 1-2.149 6.674zm2.243-12.918c-.012-.016-.019-.034-.03-.05a17.036 17.036 0 0 0-10.155-7.356l-.025-.007a16.94 16.94 0 0 0-4.153-.534c-1.438 0-2.825.198-4.159.536l-.017.004a17.033 17.033 0 0 0-10.155 7.354c-.018.021-.027.047-.042.069A16.88 16.88 0 0 0 8.01 25.02a16.92 16.92 0 0 0 3.965 10.894c.01.014.023.023.033.036a17.077 17.077 0 0 0 6.562 4.795l.003.001a16.907 16.907 0 0 0 6.438 1.274c5.214 0 9.881-2.363 13.002-6.07.01-.013.023-.022.033-.036a16.9 16.9 0 0 0 1.327-19.947z"/></g><g><path d="M28.176 29.011h-6.348l-1.962-6.032 5.137-3.731 5.137 3.731zm-2.585-11.809a.996.996 0 0 0-1.176 0l-6.313 4.586a.999.999 0 0 0-.363 1.118l2.411 7.414a1 1 0 0 0 .951.69h7.801a1 1 0 0 0 .951-.69l2.413-7.414a1 1 0 0 0-.363-1.118z"/></g></g></g></svg>