<?xml version="1.0" encoding="UTF-8"?>
<svg width="202px" height="133px" viewBox="0 0 202 133" version="1.1" xmlns="http://www.w3.org/2000/svg" xmlns:xlink="http://www.w3.org/1999/xlink">
    <!-- Generator: Sketch 52.2 (67145) - http://www.bohemiancoding.com/sketch -->
    <title>Group 37</title>
    <desc>Created with Sketch.</desc>
    <defs>
        <linearGradient x1="50.002375%" y1="3.7464722%" x2="50.002375%" y2="98.7385279%" id="linearGradient-1">
            <stop stop-color="#71E4DC" stop-opacity="0.441661005" offset="0%"/>
            <stop stop-color="#7AE6DE" stop-opacity="0.581408514" offset="13.11%"/>
            <stop stop-color="#93EBE4" stop-opacity="0.6524" offset="34.76%"/>
            <stop stop-color="#BCF2EF" stop-opacity="0.3772" offset="62.28%"/>
            <stop stop-color="#F4FDFC" stop-opacity="0.484771286" offset="94.29%"/>
            <stop stop-color="#E8FBFA" stop-opacity="0.469429348" offset="100%"/>
        </linearGradient>
        <linearGradient x1="49.7618377%" y1="-58.3238712%" x2="50%" y2="100%" id="linearGradient-2">
            <stop stop-color="#71E4DC" offset="0%"/>
            <stop stop-color="#00C1B8" offset="15.36%"/>
            <stop stop-color="#1692AE" offset="29.26%"/>
            <stop stop-color="#2670A6" offset="41.62%"/>
            <stop stop-color="#2F5BA2" offset="51.78%"/>
            <stop stop-color="#3353A0" offset="58.46%"/>
            <stop stop-color="#2C5FA0" offset="67.22%"/>
            <stop stop-color="#197FA0" offset="83.09%"/>
            <stop stop-color="#00A8A0" offset="100%"/>
        </linearGradient>
        <linearGradient x1="50.0033437%" y1="99.9949072%" x2="50.0033437%" y2="-0.005211212%" id="linearGradient-3">
            <stop stop-color="#00A09A" offset="0%"/>
            <stop stop-color="#13B6AC" offset="31.82%"/>
            <stop stop-color="#27CEBF" offset="73.91%"/>
            <stop stop-color="#2ED7C6" offset="100%"/>
        </linearGradient>
        <linearGradient x1="100%" y1="0%" x2="0%" y2="100%" id="linearGradient-4">
            <stop stop-color="#71E4DC" offset="0%"/>
            <stop stop-color="#00C1B8" offset="15.36%"/>
            <stop stop-color="#1692AE" offset="29.26%"/>
            <stop stop-color="#2670A6" offset="41.62%"/>
            <stop stop-color="#2F5BA2" offset="51.78%"/>
            <stop stop-color="#3353A0" offset="58.46%"/>
            <stop stop-color="#2C5FA0" offset="67.22%"/>
            <stop stop-color="#197FA0" offset="83.09%"/>
            <stop stop-color="#00A8A0" offset="100%"/>
        </linearGradient>
        <radialGradient cx="100%" cy="-15.3689639%" fx="100%" fy="-15.3689639%" r="389.062268%" gradientTransform="translate(1.000000,-0.153690),scale(0.334018,1.000000),rotate(156.979329),translate(-1.000000,0.153690)" id="radialGradient-5">
            <stop stop-color="#71E4DC" offset="0%"/>
            <stop stop-color="#00C1B8" offset="15.36%"/>
            <stop stop-color="#1692AE" offset="29.26%"/>
            <stop stop-color="#2670A6" offset="41.62%"/>
            <stop stop-color="#2F5BA2" offset="51.78%"/>
            <stop stop-color="#3353A0" offset="58.46%"/>
            <stop stop-color="#2C5FA0" offset="67.22%"/>
            <stop stop-color="#197FA0" offset="83.09%"/>
            <stop stop-color="#00A8A0" offset="100%"/>
        </radialGradient>
        <linearGradient x1="48.3970528%" y1="101.071307%" x2="51.5871951%" y2="-0.861079545%" id="linearGradient-6">
            <stop stop-color="#E62E58" offset="0%"/>
            <stop stop-color="#BD1057" stop-opacity="0.678725091" offset="66.02%"/>
            <stop stop-color="#AD0456" offset="100%"/>
        </linearGradient>
        <linearGradient x1="49.9920732%" y1="-1.18409091%" x2="49.9920732%" y2="101.394318%" id="linearGradient-7">
            <stop stop-color="#AABBF9" stop-opacity="0.605553668" offset="0%"/>
            <stop stop-color="#DD93BB" offset="59.36%"/>
            <stop stop-color="#FD7B95" offset="100%"/>
        </linearGradient>
        <linearGradient x1="49.99685%" y1="-0.0380196937%" x2="49.99685%" y2="100.005963%" id="linearGradient-8">
            <stop stop-color="#00C1B8" offset="0%"/>
            <stop stop-color="#00B8B0" offset="46.48%"/>
            <stop stop-color="#00A8A0" offset="100%"/>
        </linearGradient>
    </defs>
    <g id="Page-1" stroke="none" stroke-width="1" fill="none" fill-rule="evenodd">
        <g id="main-page" transform="translate(-879.000000, -4845.000000)">
            <g id="Group-37" transform="translate(880.000000, 4845.000000)">
                <g id="Group-32" transform="translate(68.181818, 61.034247) rotate(90.000000) translate(-68.181818, -61.034247) translate(7.272727, -7.287671)">
                    <path d="M28.4952947,2.13372552 C27.9066939,2.13372552 27.4200994,1.65653962 27.4200994,1.0669962 C27.4200994,0.477452777 27.8859197,0 28.4723899,0 L28.4952947,0 C29.0814986,0 29.5598366,0.477185895 29.5598366,1.0669962 C29.5598366,1.65680651 29.0814986,2.13372552 28.4952947,2.13372552 Z" id="Path" fill="#0DA5B2"/>
                    <path d="M75.3383345,6.40090967 C74.75,6.40090967 74.2631392,5.92372378 74.2631392,5.33391347 C74.2631392,4.74437005 74.7292259,4.26718416 75.3154297,4.26718416 L75.3383345,4.26718416 C75.9245384,4.26718416 76.4031428,4.74437005 76.4031428,5.33391347 C76.4031428,5.92372378 75.9248047,6.40090967 75.3383345,6.40090967 Z" id="Path" fill="#0DA5B2"/>
                    <path d="M13.5885121,89.6124686 C12.9999112,89.6124686 12.5135831,89.1331476 12.5135831,88.5457392 C12.5135831,87.9537939 12.9794034,87.4790099 13.5656072,87.4790099 L13.5885121,87.4790099 C14.1747159,87.4790099 14.653054,87.9537939 14.653054,88.5457392 C14.653054,89.1331476 14.1747159,89.6124686 13.5885121,89.6124686 Z" id="Path" fill="#0DA5B2"/>
                    <path d="M117.92294,136.552028 C117.334606,136.552028 116.848278,136.076977 116.848278,135.485032 C116.848278,134.897623 117.313832,134.418303 117.900036,134.418303 L117.92294,134.418303 C118.509144,134.418303 118.987749,134.897623 118.987749,135.485032 C118.987749,136.076977 118.509144,136.552028 117.92294,136.552028 Z" id="Path" fill="#0DA5B2"/>
                    <path d="M120.054155,70.4089389 C119.46582,70.4089389 118.979492,69.9320199 118.979492,69.3422096 C118.979492,68.7523993 119.445046,68.2754803 120.03125,68.2754803 L120.054155,68.2754803 C120.640891,68.2754803 121.118963,68.7523993 121.118963,69.3422096 C121.118963,69.9320199 120.640891,70.4089389 120.054155,70.4089389 Z" id="Path" fill="#0DA5B2"/>
                    <g id="Group-18" transform="translate(0.413223, 57.141968)" fill-rule="nonzero" stroke="#0DA5B2" stroke-linecap="round" stroke-width="0.4">
                        <path d="M1.08754964,0.420667462 L1.08754964,4.95463403" id="Line-3"/>
                        <path d="M4.77395901e-15,3.10554172 L2.47933884,3.10554172" id="Line-4"/>
                    </g>
                    <g id="Group-18" transform="translate(40.082645, 126.706102)" fill-rule="nonzero" stroke="#0DA5B2" stroke-linecap="round" stroke-width="0.4">
                        <path d="M1.08754964,0.420667462 L1.08754964,4.95463403" id="Line-3"/>
                        <path d="M4.77395901e-15,3.10554172 L2.47933884,3.10554172" id="Line-4"/>
                    </g>
                    <g id="Group-18" transform="translate(84.710744, 114.283935)" fill-rule="nonzero" stroke="#0DA5B2" stroke-linecap="round" stroke-width="0.4">
                        <path d="M1.08754964,0.420667462 L1.08754964,4.95463403" id="Line-3"/>
                        <path d="M4.77395901e-15,3.10554172 L2.47933884,3.10554172" id="Line-4"/>
                    </g>
                </g>
                <g id="Group-32" transform="translate(133.636364, 71.965753) scale(1, -1) rotate(90.000000) translate(-133.636364, -71.965753) translate(72.727273, 5.465753)">
                    <path d="M28.4952947,2.13372552 C27.9066939,2.13372552 27.4200994,1.65653962 27.4200994,1.0669962 C27.4200994,0.477452777 27.8859197,0 28.4723899,0 L28.4952947,0 C29.0814986,0 29.5598366,0.477185895 29.5598366,1.0669962 C29.5598366,1.65680651 29.0814986,2.13372552 28.4952947,2.13372552 Z" id="Path" fill="#0DA5B2"/>
                    <path d="M75.3383345,6.40090967 C74.75,6.40090967 74.2631392,5.92372378 74.2631392,5.33391347 C74.2631392,4.74437005 74.7292259,4.26718416 75.3154297,4.26718416 L75.3383345,4.26718416 C75.9245384,4.26718416 76.4031428,4.74437005 76.4031428,5.33391347 C76.4031428,5.92372378 75.9248047,6.40090967 75.3383345,6.40090967 Z" id="Path" fill="#0DA5B2"/>
                    <path d="M13.5885121,89.6124686 C12.9999112,89.6124686 12.5135831,89.1331476 12.5135831,88.5457392 C12.5135831,87.9537939 12.9794034,87.4790099 13.5656072,87.4790099 L13.5885121,87.4790099 C14.1747159,87.4790099 14.653054,87.9537939 14.653054,88.5457392 C14.653054,89.1331476 14.1747159,89.6124686 13.5885121,89.6124686 Z" id="Path" fill="#0DA5B2"/>
                    <path d="M120.054155,70.4089389 C119.46582,70.4089389 118.979492,69.9320199 118.979492,69.3422096 C118.979492,68.7523993 119.445046,68.2754803 120.03125,68.2754803 L120.054155,68.2754803 C120.640891,68.2754803 121.118963,68.7523993 121.118963,69.3422096 C121.118963,69.9320199 120.640891,70.4089389 120.054155,70.4089389 Z" id="Path" fill="#0DA5B2"/>
                    <g id="Group-18" transform="translate(17.768595, 14.906600)" fill-rule="nonzero" stroke="#0DA5B2" stroke-linecap="round" stroke-width="0.4">
                        <path d="M1.08754964,0.420667462 L1.08754964,4.95463403" id="Line-3"/>
                        <path d="M4.77395901e-15,3.10554172 L2.47933884,3.10554172" id="Line-4"/>
                    </g>
                    <g id="Group-18" transform="translate(0.413223, 57.141968)" fill-rule="nonzero" stroke="#0DA5B2" stroke-linecap="round" stroke-width="0.4">
                        <path d="M1.08754964,0.420667462 L1.08754964,4.95463403" id="Line-3"/>
                        <path d="M4.77395901e-15,3.10554172 L2.47933884,3.10554172" id="Line-4"/>
                    </g>
                    <g id="Group-18" transform="translate(40.082645, 126.706102)" fill-rule="nonzero" stroke="#0DA5B2" stroke-linecap="round" stroke-width="0.4">
                        <path d="M1.08754964,0.420667462 L1.08754964,4.95463403" id="Line-3"/>
                        <path d="M4.77395901e-15,3.10554172 L2.47933884,3.10554172" id="Line-4"/>
                    </g>
                    <g id="Group-18" transform="translate(84.710744, 114.283935)" fill-rule="nonzero" stroke="#0DA5B2" stroke-linecap="round" stroke-width="0.4">
                        <path d="M1.08754964,0.420667462 L1.08754964,4.95463403" id="Line-3"/>
                        <path d="M4.77395901e-15,3.10554172 L2.47933884,3.10554172" id="Line-4"/>
                    </g>
                </g>
                <path d="M176.233911,111.092285 L164.778642,111.092285 C167.941656,111.092285 170.506456,108.806642 170.506456,105.993198 C170.506456,103.174652 167.941656,100.894111 164.778642,100.894111 L153.323374,100.894111 C156.486388,100.894111 159.051187,98.6084677 159.051187,95.7950243 C159.051187,92.9767973 156.486388,90.6959374 153.323374,90.6959374 L136.141008,90.6959374 C139.304022,90.6959374 141.868821,88.4106126 141.868821,85.5971693 C141.868821,82.7786234 139.304022,80.4980823 136.141008,80.4980823 L167.641833,80.4980823 C170.804847,80.4980823 173.369646,78.2124387 173.369646,75.3989954 C173.369646,72.5804494 170.804847,70.2986327 167.641833,70.2986327 L153.323015,70.2986327 C156.486029,70.2986327 159.050829,68.0155404 159.050829,65.1995458 C159.050829,62.3835511 156.486029,60.1004588 153.323015,60.1004588 L147.595918,60.1004588 C150.758932,60.1004588 153.323015,57.8173664 153.323015,55.0013718 C153.323015,52.1853772 150.758932,49.9022848 147.595918,49.9022848 L176.233195,49.9022848 C179.396209,49.9022848 181.961008,47.6191925 181.961008,44.8031979 C181.961008,41.9872032 179.396209,39.7041109 176.233195,39.7041109 L164.777926,39.7041109 C167.94094,39.7041109 170.505739,37.4210185 170.505739,34.6050239 C170.505739,31.7890293 167.94094,29.5059369 164.777926,29.5059369 L153.322657,29.5059369 C156.485671,29.5059369 159.050471,27.2228446 159.050471,24.40685 C159.050471,21.5908553 156.485671,19.307763 153.322657,19.307763 L144.732012,19.307763 C147.895026,19.307763 150.459109,17.0246706 150.459109,14.208676 C150.459109,11.3926814 147.895026,9.10958904 144.732012,9.10958904 L58.8201828,9.10958904 C55.6571688,9.10958904 53.0927275,11.3926814 53.0927275,14.208676 C53.0927275,17.0246706 55.6571688,19.307763 58.8201828,19.307763 L38.7739103,19.307763 C35.6108963,19.307763 33.046455,21.5908553 33.046455,24.40685 C33.046455,27.2228446 35.6108963,29.5059369 38.7739103,29.5059369 L33.046455,29.5059369 C29.8834411,29.5059369 27.3189998,31.7890293 27.3189998,34.6050239 C27.3189998,37.4210185 29.8834411,39.7041109 33.046455,39.7041109 L50.229179,39.7041109 C47.0661651,39.7041109 44.5017237,41.9872032 44.5017237,44.8031979 C44.5017237,47.6191925 47.0661651,49.9022848 50.229179,49.9022848 L18.727996,49.9022848 C15.5649821,49.9022848 13.0005407,52.1856961 13.0005407,55.0013718 C13.0005407,57.8170475 15.5649821,60.1004588 18.727996,60.1004588 L33.0468132,60.1004588 C29.8837993,60.1004588 27.319358,62.3835511 27.319358,65.1995458 C27.319358,68.0155404 29.8837993,70.2986327 33.0468132,70.2986327 L18.727996,70.2986327 C15.5649821,70.2986327 13.0005407,72.5804494 13.0005407,75.3989954 C13.0005407,78.2124387 15.5649821,80.4980823 18.727996,80.4980823 L13.0001825,80.4980823 C9.83716859,80.4980823 7.27272727,82.7786234 7.27272727,85.5971693 C7.27272727,88.4106126 9.83716859,90.6959374 13.0001825,90.6959374 L27.319358,90.6959374 C24.156344,90.6959374 21.5919027,92.9767973 21.5919027,95.7950243 C21.5919027,98.6084677 24.156344,100.894111 27.319358,100.894111 L21.5915445,100.894111 C18.4285306,100.894111 15.8640893,103.174652 15.8640893,105.993198 C15.8640893,108.806642 18.4285306,111.092285 21.5915445,111.092285 L50.229179,111.092285 C47.0661651,111.092285 44.5017237,113.372826 44.5017237,116.191372 C44.5017237,119.004497 47.0661651,121.290459 50.229179,121.290459 L38.7739103,121.290459 C35.6108963,121.290459 33.046455,123.570681 33.046455,126.389227 C33.046455,129.202671 35.6108963,131.488314 38.7739103,131.488314 L136.141366,131.488314 C139.30438,131.488314 141.869179,129.202671 141.869179,126.389227 C141.869179,123.570681 139.30438,121.290459 136.141366,121.290459 L176.233911,121.290459 C179.396925,121.290459 181.961724,119.004497 181.961724,116.191372 C181.962083,113.372826 179.396925,111.092285 176.233911,111.092285 Z" id="Path" fill="url(#linearGradient-1)" opacity="0.497512091" transform="translate(94.617226, 70.298952) scale(1, -1) translate(-94.617226, -70.298952) "/>
                <g id="article" transform="translate(37.272727, 20.041096)">
                    <polygon id="Path" stroke="#36E9D9" stroke-width="0.5" fill="url(#linearGradient-2)" points="115.544761 13.5682244 115.544761 74.8513711 107.08201 81.6354833 7.37934264 81.6354833 0 74.8513711 0 13.5682244"/>
                    <polygon id="Path" fill="url(#linearGradient-3)" points="6.77020082 20.3523366 108.77456 20.3523366 108.77456 81.6354833 6.77020082 81.6354833"/>
                    <polygon id="Path" stroke="#36E9D9" stroke-width="0.4" fill="url(#linearGradient-4)" points="74.2695495 77.1881209 67.4993487 97.7665945 47.5960162 97.7665945 40.8258154 77.1881209"/>
                    <polygon id="Path" stroke="#36E9D9" stroke-width="0.4" fill="url(#linearGradient-3)" points="13.766075 0 101.778686 0 101.778686 81.9400146 13.766075 81.9400146"/>
                    <polygon id="Path" stroke="#36E9D9" stroke-width="0.4" fill="url(#linearGradient-4)" points="26.9604441 93.3976263 87.8922515 93.3976263 87.8922515 101.116438 26.9604441 101.116438"/>
                    <polygon id="Path" stroke="#36E9D9" stroke-width="0.4" fill="url(#radialGradient-5)" points="27.3064766 6.78411219 27.3064766 27.1364487 88.238284 27.1364487 88.238284 6.78411219"/>
                    <g id="Group" transform="translate(27.306477, 33.920561)" fill="url(#linearGradient-6)" opacity="0.437058222" stroke="url(#linearGradient-7)">
                        <polygon id="Path" points="0 0 60.9318073 0 60.9318073 6.78411219 0 6.78411219"/>
                        <polygon id="Path" points="0 13.7943614 60.9318073 13.7943614 60.9318073 20.5784736 0 20.5784736"/>
                        <polygon id="Path" points="0 27.3625858 60.9318073 27.3625858 60.9318073 34.146698 0 34.146698"/>
                    </g>
                    <polygon id="Path" stroke="#36E9D9" stroke-width="0.4" fill="url(#linearGradient-8)" points="0 74.8724773 115.544761 74.8724773 115.544761 85.1903581 0 85.1903581"/>
                </g>
            </g>
        </g>
    </g>
</svg>