<svg xmlns="http://www.w3.org/2000/svg" width="54" height="33" viewBox="0 0 54 33"><g><g><g><path d="M52.2 30.6h-2.586a3.613 3.613 0 0 1 2.586-2.587zm-50.4 0v-2.587A3.613 3.613 0 0 1 4.386 30.6zm0-28.8h2.586A3.613 3.613 0 0 1 1.8 4.387zm50.4 0v2.587A3.613 3.613 0 0 1 49.614 1.8zm0 8.1v12.6h-5.4V9.9zm-24.3 1.89a4.5 4.5 0 0 1 0 8.82zm-1.8 8.82a4.5 4.5 0 0 1 0-8.82zM1.8 9.9h5.4v12.6H1.8zm0 16.28V24.3h6.3a.9.9 0 0 0 .9-.9V9a.9.9 0 0 0-.9-.9H1.8V6.22A5.408 5.408 0 0 0 6.22 1.8H26.1v8.172a6.292 6.292 0 0 0 0 12.456V30.6H6.22a5.408 5.408 0 0 0-4.42-4.42zm45.98 4.42H27.9v-8.172a6.292 6.292 0 0 0 0-12.456V1.8h19.88a5.408 5.408 0 0 0 4.42 4.42V8.1h-6.3a.9.9 0 0 0-.9.9v14.4a.9.9 0 0 0 .9.9h6.3v1.88a5.408 5.408 0 0 0-4.42 4.42zM53.1 0H.9a.9.9 0 0 0-.9.9v30.6a.9.9 0 0 0 .9.9h52.2a.9.9 0 0 0 .9-.9V.9a.9.9 0 0 0-.9-.9z"/></g></g></g></svg>