<svg xmlns="http://www.w3.org/2000/svg" width="106" height="99.03" viewBox="0 0 106 99.03">
  <path fill-rule="evenodd" fill="#3fa35d" d="M162.255,2715.88a1.608,1.608,0,0,0-.447-0.18c-0.306-.15-0.608-0.32-0.913-0.47-1.778-.88-3.6-1.67-5.446-2.41-6.211-2.47-11.967-5.82-17.8-9.08-2.977-1.67-5.947-3.35-8.956-4.96-2.437-1.31-5.115-2.96-7.976-2.78-4.167.26-5.279,3.71-6.812,6.9-3.014,6.28-6.322,12.64-8.491,19.28-1.862,5.69,2.771,9.12,7.864,10.34,7.644,3.57,15,7.78,22.348,11.91,4.178,2.34,11.436,8.36,16.026,4.03,2.623-2.48,3.933-7.11,5.466-10.23q2.28-4.65,4.539-9.32c1.172-2.42,2.977-5.22,3.29-7.94A4.733,4.733,0,0,0,162.255,2715.88ZM127.6,2701.84c2.715,1.46,5.4,2.98,8.093,4.48,4.807,2.7,9.589,5.54,14.59,7.86,2.673,1.24,5.481,2.15,8.148,3.42a26.627,26.627,0,0,1,2.445,1.07c-4.491.54-9.226,2.89-13.453,3.64a44.678,44.678,0,0,1-9.652.82,6.607,6.607,0,0,1-3.065-.73,1.294,1.294,0,0,0-.172-0.25c-1.7-1.96-2.542-4.3-3.818-6.51s-2.867-4.16-4.08-6.42a44.252,44.252,0,0,0-6.87-9.68,2.934,2.934,0,0,1,.71-0.28C122.744,2698.72,125.666,2700.79,127.6,2701.84Zm-18.4,19.32c1.967-5.12,4.364-10.09,6.722-15.04,0.838-1.76,1.653-5.03,3.488-6.35,1.054,1.72,1.945,3.6,3,5.29a67.268,67.268,0,0,1,3.319,6.41c0.809,1.68,1.834,3.19,2.737,4.79-6.645,3.02-13.826,5.87-19.617,10.41C107.593,2725.05,108.414,2723.19,109.193,2721.16Zm34.909,24.32c-2.662-1.45-5.3-2.96-7.94-4.44-7.038-3.95-14.083-7.95-21.4-11.36a1.626,1.626,0,0,0-.537-0.24,12.57,12.57,0,0,1-4.442-1.88,5.534,5.534,0,0,1-.645-0.56,68.726,68.726,0,0,0,9.845-4.53c3.328-1.7,6.9-3.16,9.979-5.29,0.206,0.4.405,0.81,0.584,1.23,0.206,0.49.41,0.96,0.621,1.43,0.875,6.26,6.279,6.32,11.689,5.46,0.824-.13,1.645-0.26,2.464-0.4,0.7,3.65.9,7.43,1.727,11.07,0.513,2.27,1.49,4.51,1.793,6.81a18.97,18.97,0,0,0,.532,3.81C147.086,2746.95,145.6,2746.29,144.1,2745.48Zm15.2-19.06q-1.986,4.14-4.007,8.24c-1.673,3.42-3.116,7.22-5.136,10.45a4.227,4.227,0,0,1-.7.85c-0.6-1.6-.546-3.71-0.918-5.34-0.607-2.66-1.381-5.22-1.788-7.93-0.384-2.56-.408-5.56-1.639-7.92a68.335,68.335,0,0,0,8.429-1.83c2.617-.78,5.629-1.45,8.3-2.51C161.752,2722.33,159.9,2725.18,159.306,2726.42Zm-21.546-41.71c0.945-3.64-.5-7.02-0.73-10.64a0.075,0.075,0,0,0-.149,0,30.234,30.234,0,0,1-2,9.85C134.17,2685.68,137.265,2686.63,137.76,2684.71Zm16.914,6.68c2.244-3.03,4.828-5.93,5.99-9.6a0.134,0.134,0,0,0-.246-0.1c-2.006,3.25-5.17,5.41-7.835,8.08C151.255,2691.1,153.5,2692.99,154.674,2691.39Zm16.7,11.61a25.351,25.351,0,0,0,2.243-1.56,4.8,4.8,0,0,0,1.7-2.37,0.134,0.134,0,0,0-.246-0.1c-0.378.75-2.311,1.19-3.055,1.5-0.694.29-1.387,0.57-2.075,0.87a8.5,8.5,0,0,1-1.764.74c-3.006.17-.411,4.69,1.24,2.17A7.087,7.087,0,0,1,171.377,2703Zm-62.812-18.84c0.938,1.32,2.2,2.85,2.473,4.47,0.492,2.89,5.607.17,2.592-2-1.363-.99-2.56-2.32-3.862-3.4a34.544,34.544,0,0,1-3.975-3.46,0.09,0.09,0,0,0-.14.11C106.642,2681.3,107.559,2682.76,108.565,2684.16ZM94.82,2695.51c0.669,0.51,1.369.98,2.068,1.44,0.609,0.41,1.928.99,2.3,1.66a1.678,1.678,0,1,0,1.446-2.53,8.47,8.47,0,0,1-2-.83c-0.737-.3-1.477-0.59-2.217-0.89-1.17-.46-3.088-0.88-3.967-1.83a0.15,0.15,0,0,0-.235.18A10.57,10.57,0,0,0,94.82,2695.51Zm-3.52,25.72c-3.812,1.13-7.365,3.15-11.125,4.46a0.247,0.247,0,0,0,0,.47c3.955,0.85,8.072-1.34,11.944-1.94C94.037,2723.92,93.25,2720.66,91.3,2721.23Zm9.813,16.14a26.181,26.181,0,0,0-4.709,3.7c-0.748.65-1.5,1.29-2.237,1.96a4.788,4.788,0,0,1-1.832,1.42,0.046,0.046,0,0,0,.012.09c1.219-.09,2.689-1.13,3.747-1.68a29.094,29.094,0,0,1,6.23-2.61C104.466,2739.71,103.217,2736.29,101.114,2737.37Zm12.337,19.22c-0.561,1.08-1.135,2.17-1.788,3.19a10.907,10.907,0,0,1-1.715,2.39c-0.316.28,0.086,0.69,0.416,0.54a17.412,17.412,0,0,0,5.271-4.43C117.021,2756.73,114.362,2754.84,113.451,2756.59Zm24.729,10.43a21.585,21.585,0,0,1-.988-5.25c-0.021-2.39-3.94-1.58-2.815.77,0.869,1.82,1.33,3.85,2.11,5.71a34.574,34.574,0,0,0,2.708,4.59,0.359,0.359,0,0,0,.62-0.36A31.382,31.382,0,0,1,138.18,2767.02Zm19.4-10.5c-0.595-1.16-1.538-2.26-2.023-3.45-1.063-2.62-4.273.3-2.131,1.64a10.986,10.986,0,0,1,2.528,3.05c0.708,1.02,1.371,2.06,2.02,3.11a0.747,0.747,0,0,0,1.291-.75C158.738,2758.9,158.19,2757.69,157.583,2756.52Zm17.863-13.19c-1.285-.75-2.653-1.36-4-1.99a1.42,1.42,0,1,0-1.094,2.61c1.345,0.41,2.695.81,4.009,1.32a17.6,17.6,0,0,1,3.781,1.54,0.466,0.466,0,0,0,.562-0.73A24.438,24.438,0,0,0,175.446,2743.33Zm9.941-19.3a31.6,31.6,0,0,0-7.01-.1c-2.315.26-1.125,3.6,0.68,2.52,1.867-1.11,4.221-1.07,6.33-1.19A0.615,0.615,0,0,0,185.387,2724.03Z" transform="translate(-80 -2674)"/>
</svg>