<svg xmlns="http://www.w3.org/2000/svg" width="76.656" height="99.015" viewBox="0 0 76.656 99.015">
    <defs>
        <style>
            .cls-1{fill:#97f2ff}
        </style>
    </defs>
    <g id="Safe_ico" transform="translate(-69 .001)">
        <path id="Path_29693" d="M116.243 8.3L114.3 6.891 112.357 8.3a55.378 55.378 0 0 1-32.569 10.6v28.418A52.519 52.519 0 0 0 109.647 94.7l4.653 2.226 4.653-2.226a52.521 52.521 0 0 0 29.859-47.379V18.9a55.379 55.379 0 0 1-32.569-10.6z" class="cls-1" data-name="Path 29693" transform="translate(-8.634 -5.516)"/>
        <path id="Path_29694" d="M107.328 99.014a1.588 1.588 0 0 1-.689-.157l-4.952-2.368A57.781 57.781 0 0 1 69 44.623v-30.25a1.6 1.6 0 0 1 1.6-1.6 56.974 56.974 0 0 0 33.72-10.964l2.07-1.5a1.594 1.594 0 0 1 1.878 0l2.069 1.5a56.98 56.98 0 0 0 33.724 10.967 1.6 1.6 0 0 1 1.6 1.6v30.25a57.784 57.784 0 0 1-32.686 51.866l-4.953 2.368a1.594 1.594 0 0 1-.694.154zM72.194 15.949v28.674a54.564 54.564 0 0 0 30.872 48.983l4.262 2.041 4.262-2.039a54.568 54.568 0 0 0 30.872-48.985V15.949a60.123 60.123 0 0 1-34.005-11.557l-1.129-.821-1.131.821a60.1 60.1 0 0 1-34.003 11.557z" data-name="Path 29694"/>
        <path id="Path_29695" d="M206.537 273.556H174.6a1.6 1.6 0 0 1-1.6-1.6V249.6a1.6 1.6 0 0 1 1.6-1.6h31.94a1.6 1.6 0 0 1 1.6 1.6v22.358a1.6 1.6 0 0 1-1.603 1.598zm-30.343-3.194h28.746V251.2h-28.746z" data-name="Path 29695" transform="translate(-83.239 -198.497)"/>
        <path id="Path_29696" d="M196.985 161.556H190.6a1.6 1.6 0 0 1-1.6-1.6v-9.582a14.373 14.373 0 1 1 28.746 0v9.582h-3.194v-9.582a11.179 11.179 0 0 0-22.358 0v7.985h3.194v-7.985a7.985 7.985 0 0 1 15.97 0v9.582h-3.194v-9.582a4.791 4.791 0 1 0-9.582 0v9.582a1.6 1.6 0 0 1-1.597 1.6z" data-name="Path 29696" transform="translate(-96.045 -108.855)"/>
        <path id="Path_29697" d="M241.791 297.586a4.791 4.791 0 1 1 4.791-4.791 4.8 4.8 0 0 1-4.791 4.791zm0-6.388a1.6 1.6 0 1 0 1.6 1.6 1.6 1.6 0 0 0-1.6-1.598z" data-name="Path 29697" transform="translate(-134.463 -230.512)"/>
        <path id="Path_29698" d="M181 304h7.985v3.2H181z" data-name="Path 29698" transform="translate(-89.642 -243.318)"/>
        <path id="Path_29699" d="M301 304h7.985v3.2H301z" data-name="Path 29699" transform="translate(-185.687 -243.318)"/>
        <path id="Path_29700" d="M253 80h3.194v3.2H253z" data-name="Path 29700" transform="translate(-147.269 -64.034)"/>
        <path id="Path_29701" d="M285 80h3.194v3.2H285z" data-name="Path 29701" transform="translate(-172.881 -64.034)"/>
        <path id="Path_29702" d="M317 80h3.194v3.2H317z" data-name="Path 29702" transform="translate(-198.493 -64.034)"/>
        <path id="Path_29703" d="M221 80h3.194v3.2H221z" data-name="Path 29703" transform="translate(-121.657 -64.034)"/>
        <path id="Path_29704" d="M189 80h3.194v3.2H189z" data-name="Path 29704" transform="translate(-96.045 -64.034)"/>
    </g>
</svg>