<svg xmlns="http://www.w3.org/2000/svg" width="81.969" height="89.031" viewBox="0 0 81.969 89.031">
  <defs>
    <style>
      .cls-1 {
        fill: #3fa35d;
        fill-rule: evenodd;
      }
    </style>
  </defs>
  <path id="decor-6.svg" class="cls-1" d="M613.394,614.026A293.679,293.679,0,0,1,581.023,644.3c-13.363,10.622-27.232,20.429-39.77,32.088a2.041,2.041,0,0,1-2.457.319,65.678,65.678,0,0,1-5.487-3.915c-1.372-1.217-1.35-2.054-1.278-3.825,0.34-8.374,2.133-16.137,6.59-23.294a87.788,87.788,0,0,0,6.923-13.661,44.884,44.884,0,0,1,2.322-5.427c3.554-6.261,5.619-13.048,8.365-19.675a11.723,11.723,0,0,1,5.722-18.218c5.014-1.718,8.71.056,13.2,1.917,7.519,3.113,15.036,6.23,22.528,9.407,6.455,2.737,11.917,5.476,16.026,11.538A2.084,2.084,0,0,1,613.394,614.026Zm-59.76,10.719c-0.384.763-.8,1.512-1.234,2.25,5.422,2.257,13.458,1.717,15.965-4.67,1.837-4.678-4.155-10.839-9.35-11.49C557.271,615.5,555.864,620.315,553.634,624.745Zm51.823-16.079a6.871,6.871,0,0,0-6.406.539c-3.6,2.44-1.648,6.351.055,9.271a0.032,0.032,0,0,1-.05.038c-2.878-2.971-5.685-7.729-2.328-11.538a7.817,7.817,0,0,1,2.546-1.853c-0.817-.376-1.651-0.741-2.5-1.1-5.959-2.533-11.941-5.016-17.921-7.5-3.3-1.369-6.732-3.271-10.185-4.211-7.046-1.92-13.658,5.7-9.481,11.788a13.179,13.179,0,0,1,1.753-.07,10.562,10.562,0,0,1,2.564-.59c2.067-.131,3.9.59,5.873,1.124,4.091,1.109,8.179,2.066,11.848,4.29,5.321,3.226,12.817,2.57,16.424,8.335a0.016,0.016,0,0,1-.025.02c-2.825-3.229-6.689-2.642-10.531-2.994a14.607,14.607,0,0,1-6.81-2.26c-3.891-2.383-8.129-3.183-12.4-4.571a11.767,11.767,0,0,0-4.84-.828,11.489,11.489,0,0,1-2.6.624,2.372,2.372,0,0,1-.131.407c-0.123.284-.234,0.573-0.352,0.859,5.575-1.046,12.869,7.443,12.378,12.685-0.44,4.7-4.692,8.06-8.748,9.712-4.334,1.765-8.758.848-12.846-1.182-0.908,1.961-1.559,4.132-2.386,6.106-2.877,6.862-7.817,12.869-10.157,19.908a45.965,45.965,0,0,0-2.092,12.524c1.1-.858,1.747-2.217,2.728-3.276,1.226-1.323,2.877-2.085,4.121-3.378a70.8,70.8,0,0,1,6.666-6.272c-4.645-4.944-2.173-12.948,3.515-15.877,3.9-2.007,14.376-3.674,15.75,2.392a39.726,39.726,0,0,0,3.16-3.124,0.08,0.08,0,0,1,.133.077c-2.681,7.72-11.427,11.139-17.66,15.327a54.7,54.7,0,0,0-7.106,5.431c-1.584,1.493-2.762,3.305-4.4,4.735a19.866,19.866,0,0,0-4.2,4.727,14.149,14.149,0,0,1-1.32,1.833l2.183,1.558c12.2-11.151,25.555-20.686,38.487-30.931a288.414,288.414,0,0,0,31.17-29A20.557,20.557,0,0,0,605.457,608.666Zm-55.572,46.4c0.693-.55,1.409-1.09,2.169-1.62,5.026-3.5,10.14-6.273,14.774-9.939a1.252,1.252,0,0,1-.337-0.8c-0.327-5.046-11.249-2.025-13.53-.661C547.784,645.14,548.077,650.045,549.885,655.065Zm7.587-12.224a0.492,0.492,0,0,1,.664.513,1.77,1.77,0,0,1,1.35,1.389c0.329,1.567-.772,4.04-2.559,4.14-1.5.084-1.878-1.591-1.736-2.769A3.842,3.842,0,0,1,557.472,642.841Zm-0.657,4.391a0.954,0.954,0,0,0,.172-0.092,5.706,5.706,0,0,0,.935-1.068,1.671,1.671,0,0,0,.252-1.753,0.613,0.613,0,0,0-.676-0.264,2.3,2.3,0,0,0-.9,1.668A2.239,2.239,0,0,0,556.815,647.232Zm38.361-30.12a1.358,1.358,0,0,1,.208,1.621c-1.034,1.828-3.251,2.7-4.89,3.9a33.867,33.867,0,0,0-7.46,7.574,1.292,1.292,0,0,1-2.2,0,11.013,11.013,0,0,1-2.482-6.311,7.7,7.7,0,0,1,2.038-6.427C584.057,613.5,591.215,613.9,595.176,617.112Zm-13.329,10.353a28.289,28.289,0,0,1,4.788-5.151c1.067-.884,2.176-1.722,3.3-2.532,0.641-.463,1.574-0.918,2.3-1.481-3.073-1.7-7.839-1.778-10.331.69a6.965,6.965,0,0,0-1.685,2.793,1.045,1.045,0,0,1,.3.908A6.279,6.279,0,0,0,581.847,627.465Zm1.341-7.814c0.461-1,1.6-1.715,2.588-.939a2.448,2.448,0,0,1-.978,4.157,1.2,1.2,0,0,1-1.586-1.211,3.588,3.588,0,0,1,.159-0.956A0.86,0.86,0,0,1,583.188,619.651Zm1.787,0.562-0.016.009-0.014.01C584.986,620.234,585.005,620.2,584.975,620.213Zm-0.832,1.327a0.068,0.068,0,0,0,0-.007l-0.01,0C584.139,621.546,584.148,621.552,584.143,621.54Zm-0.076-.076a0.6,0.6,0,0,0,.039.049l0.01,0a0.012,0.012,0,0,0-.008,0l0.018,0.018a0.014,0.014,0,0,0,.011,0,0.061,0.061,0,0,0-.017-0.022c0.048-.01.108-0.021,0.074-0.009a0.744,0.744,0,0,0,.427-0.391c0.012-.034.04-0.1,0.044-0.119s0.012-.068.019-0.108,0-.1,0-0.11c0-.077,0-0.153,0-0.23,0-.009,0-0.034,0-0.061-0.061.064-.128,0.122-0.185,0.192a0.716,0.716,0,0,1-.651.227A1.877,1.877,0,0,0,584.067,621.464Zm-24.281,4.368a2.082,2.082,0,0,1-3.479-.452,3.583,3.583,0,0,1-.2-1.846,0.534,0.534,0,0,1-.313-0.379c-0.292-1.262.214-2.651,1.725-2.469C559.793,620.959,561.645,624,559.786,625.832Zm-2.234-3.392a0.837,0.837,0,0,0-.36-0.132c-0.027,0-.087-0.012-0.107-0.015a0.447,0.447,0,0,0-.026.076,2.258,2.258,0,0,0-.048.621,0.554,0.554,0,0,1-.161.419,2.8,2.8,0,0,0,.889,1.4c0.24,0.163.4,0.053,0.68-.179a1.165,1.165,0,0,0,.322-0.415,0.593,0.593,0,0,0,.025-0.281A2.432,2.432,0,0,0,557.552,622.44Zm3.948-7.766a2.1,2.1,0,0,1,2.666.645,3,3,0,0,1-.438,3.465c-1.213,1.276-3.024.172-3.342-1.182A2.318,2.318,0,0,1,561.5,614.674Zm0.5,3.291a0.548,0.548,0,0,0,.662-0.184,1.785,1.785,0,0,0,.381-1.24,0.548,0.548,0,0,0-.293-0.519,0.907,0.907,0,0,0-.569-0.112,0.765,0.765,0,0,0-.582.376,2.579,2.579,0,0,0-.044,1.121,0.578,0.578,0,0,1-.072.255A1.345,1.345,0,0,0,562,617.965Z" transform="translate(-532.031 -587.969)"/>
</svg>