<svg xmlns="http://www.w3.org/2000/svg" width="64" height="52" viewBox="0 0 64 52"><g><g><g><path d="M61 41.994H3c-.552 0-1-.446-1-.995v-.995h30.023a.99.99 0 0 0-.975.99c0 .551.452.996 1.005.996.552 0 1-.445 1-.995a.995.995 0 0 0-.98-.991H62v.995c0 .55-.448.995-1 .995zm-18.966 4.987H22.013v-2.977h20.021zm-27.04 2.02h34.022c.552 0 1 .444 1 .99H13.994c0-.546.448-.99 1-.99zM3 2.001h58a1 1 0 0 1 1 1v34.992H2V3a1 1 0 0 1 1-1zM61 0H3C1.346 0 0 1.346 0 3v37.996c0 1.654 1.346 3 3 3h17.013v2.996h-5.019c-1.654 0-3 1.346-3 3v1a1 1 0 0 0 1 1h38.012a1 1 0 0 0 1-1v-1c0-1.654-1.346-3-3-3h-4.972v-2.996H61c1.654 0 3-1.346 3-3V3c0-1.654-1.346-3-3-3z"/></g><g><path d="M26.886 7.16l-1.095 2.228-2.483.362a12.066 12.066 0 0 1 3.578-2.59zm9.761 3.582a1 1 0 0 0 .753.548l4.988.729a11.876 11.876 0 0 1 1.523 4.583l-3.63 3.543a.999.999 0 0 0-.287.884l.86 5.043a12.022 12.022 0 0 1-3.839 2.815l-4.55-2.394a.998.998 0 0 0-.932 0l-4.55 2.394a12.052 12.052 0 0 1-3.839-2.815l.86-5.043a.999.999 0 0 0-.287-.884l-3.629-3.541a11.92 11.92 0 0 1 1.524-4.585l4.988-.729a1 1 0 0 0 .753-.548l2.209-4.492a12.016 12.016 0 0 1 4.876 0zm1.562-1.354L37.114 7.16c1.35.64 2.561 1.52 3.578 2.59zm3.845 11.818l1.858-1.809a11.886 11.886 0 0 1-1.416 4.397zM32 28.508l2.382 1.253a11.99 11.99 0 0 1-4.764 0zm-10.496-4.714a11.874 11.874 0 0 1-1.415-4.396l1.857 1.809zm-.188 3.232C23.886 30.063 27.719 32 32.001 32c4.282 0 8.114-1.937 10.685-4.974.021-.024.045-.043.063-.069A13.944 13.944 0 0 0 46 18c0-2.728-.796-5.267-2.15-7.422-.021-.032-.035-.065-.059-.096a14.027 14.027 0 0 0-8.325-6.03c-.017-.006-.033-.008-.05-.013A13.946 13.946 0 0 0 32 4c-1.181 0-2.32.163-3.416.439-.016.004-.031.006-.047.012a14.032 14.032 0 0 0-8.328 6.031c-.023.03-.038.063-.059.096A13.905 13.905 0 0 0 18 18c0 3.405 1.225 6.527 3.253 8.957.018.026.042.045.063.069z"/></g><g><path d="M36.084 16.204l-1.566 4.806H29.47l-1.564-4.806 4.088-2.97zm-9.941-1.195a.998.998 0 0 0-.363 1.12l2.018 6.181a1 1 0 0 0 .95.69h6.504a.999.999 0 0 0 .95-.69l2.02-6.18a1 1 0 0 0-.363-1.12l-5.271-3.82a1 1 0 0 0-1.174 0z"/></g><g><path d="M19 36.01h26a1 1 0 1 0 0-2H19a1 1 0 1 0 0 2z"/></g><g><path d="M10 11a1 1 0 1 1 0 2 1 1 0 0 1 0-2zm0 4c1.654 0 3-1.346 3-3s-1.346-3-3-3-3 1.346-3 3 1.346 3 3 3z"/></g><g><path d="M6 19h8a1 1 0 1 0 0-2H6a1 1 0 1 0 0 2z"/></g><g><path d="M6 22h8a1 1 0 1 0 0-2H6a1 1 0 1 0 0 2z"/></g><g><path d="M6 25h8a1 1 0 1 0 0-2H6a1 1 0 1 0 0 2z"/></g><g><path d="M12 26.01H8a1 1 0 1 0 0 2h4a1 1 0 1 0 0-2z"/></g><g><path d="M54.05 11a1 1 0 1 1 0 2 1 1 0 0 1 0-2zm0 4c1.654 0 3-1.346 3-3s-1.346-3-3-3-3 1.346-3 3 1.346 3 3 3z"/></g><g><path d="M50.04 19h8a1 1 0 1 0 0-2h-8a1 1 0 1 0 0 2z"/></g><g><path d="M50.04 22h8a1 1 0 1 0 0-2h-8a1 1 0 1 0 0 2z"/></g><g><path d="M50.04 25h8a1 1 0 1 0 0-2h-8a1 1 0 1 0 0 2z"/></g><g><path d="M56.04 26.01h-4a1 1 0 1 0 0 2h4a1 1 0 1 0 0-2z"/></g></g></g></svg>