<svg xmlns="http://www.w3.org/2000/svg" width="80" height="80" viewBox="0 0 80 80">
  <metadata><?xpacket begin="﻿" id="W5M0MpCehiHzreSzNTczkc9d"?>
<x:xmpmeta xmlns:x="adobe:ns:meta/" x:xmptk="Adobe XMP Core 5.6-c142 79.160924, 2017/07/13-01:06:39        ">
   <rdf:RDF xmlns:rdf="http://www.w3.org/1999/02/22-rdf-syntax-ns#">
      <rdf:Description rdf:about=""/>
   </rdf:RDF>
</x:xmpmeta>
                                                                                                    
                                                                                                    
                                                                                                    
                                                                                                    
                                                                                                    
                                                                                                    
                                                                                                    
                                                                                                    
                                                                                                    
                                                                                                    
                                                                                                    
                                                                                                    
                                                                                                    
                                                                                                    
                                                                                                    
                                                                                                    
                                                                                                    
                                                                                                    
                                                                                                    
                                                                                                    
                           
<?xpacket end="w"?></metadata>
<defs>
    <style>
      .cls-1 {
        fill: #fff;
        fill-rule: evenodd;
      }
    </style>
  </defs>
  <path id="landing" class="cls-1" d="M910.33,5717.98h-8.438a1.556,1.556,0,0,0-1.562,1.56v5.36a1.562,1.562,0,0,0,1.562,1.56h8.438a1.563,1.563,0,0,0,1.563-1.56v-5.36A1.556,1.556,0,0,0,910.33,5717.98Zm-1.562,5.36h-5.313v-2.24h5.313v2.24Zm-14.532-5.36H885.8a1.556,1.556,0,0,0-1.563,1.56v5.36a1.563,1.563,0,0,0,1.563,1.56h8.437a1.563,1.563,0,0,0,1.563-1.56v-5.36A1.556,1.556,0,0,0,894.236,5717.98Zm-1.562,5.36h-5.313v-2.24h5.313v2.24Zm-14.531-5.36h-8.438a1.555,1.555,0,0,0-1.562,1.56v5.36a1.562,1.562,0,0,0,1.562,1.56h8.438a1.562,1.562,0,0,0,1.562-1.56v-5.36A1.555,1.555,0,0,0,878.143,5717.98Zm-1.563,5.36h-5.312v-2.24h5.312v2.24Zm9.219,14.03H869.705a1.57,1.57,0,0,0-1.562,1.57v8.43a1.564,1.564,0,0,0,1.562,1.57H885.8a1.564,1.564,0,0,0,1.562-1.57v-8.43A1.57,1.57,0,0,0,885.8,5737.37Zm-1.563,8.44H871.268v-5.31h12.968v5.31Zm25.8-8.44H892.771a1.565,1.565,0,0,0,0,3.13h17.263A1.565,1.565,0,0,0,910.034,5737.37Zm-6.232,6.25H892.771a1.565,1.565,0,0,0,0,3.13H903.8A1.565,1.565,0,0,0,903.8,5743.62Zm-28.673-54.57a4.685,4.685,0,1,0,4.688,4.69A4.692,4.692,0,0,0,875.129,5689.05Zm0,6.25a1.565,1.565,0,1,1,1.563-1.56A1.563,1.563,0,0,1,875.129,5695.3Zm53.308,56.14h-1.093v-39.69a7.818,7.818,0,0,0-7.813-7.81h-1.406v-19.38a1.563,1.563,0,0,0-1.563-1.56H863.437a1.562,1.562,0,0,0-1.562,1.56v19.38h-1.406a7.818,7.818,0,0,0-7.813,7.81v11.61a1.563,1.563,0,1,0,3.125,0v-11.61a4.7,4.7,0,0,1,4.688-4.69h1.406v44.38h-6.094v-15.78a1.563,1.563,0,1,0-3.125,0v15.78h-1.093A1.563,1.563,0,0,0,850,5753v2.19a7.818,7.818,0,0,0,7.812,7.81h64.375a7.818,7.818,0,0,0,7.813-7.81V5753A1.563,1.563,0,0,0,928.437,5751.44Zm-10.312-40.7h0v-3.68h1.406a4.7,4.7,0,0,1,4.687,4.69v39.69h-6.093v-40.7ZM865,5686.12h50v20.85l-13.231-13.23a1.556,1.556,0,0,0-2.209,0l-6.493,6.49-2.691-2.69a1.563,1.563,0,0,0-2.21,0l-12.646,12.65H865v-24.07Zm30.277,16.32,5.387-5.39,13.133,13.14H903.021Zm3.325,7.75H879.94l9.331-9.33Zm-33.6,3.12h50v17.81H865v-17.81Zm0,20.94h50v17.19H865v-17.19Zm61.875,20.94a4.7,4.7,0,0,1-4.688,4.69H857.812a4.7,4.7,0,0,1-4.687-4.69v-0.63h73.75v0.63Zm-71.552-26.26a1.562,1.562,0,1,0,.458,1.1A1.576,1.576,0,0,0,855.323,5728.93Z" transform="translate(-850 -5683)"/>
</svg>