<svg width="84" height="84" viewBox="0 0 84 84" fill="none" xmlns="http://www.w3.org/2000/svg">
<path d="M22 19L18 15V67L19.5 70.5L21.5 72H63.5L67 70.5L68.5 68V43.5H59V15.5L55 19L50.5 15.5L46.5 19L42.5 15L38.5 19L34.5 15L30.5 19L26 15L22 19Z" fill="white"/>
<path d="M63.7841 71.8478C61.1112 71.8478 58.9443 69.681 58.9443 67.0081V43.5001H68.6238V67.0081C68.6238 69.681 66.457 71.8478 63.7841 71.8478Z" fill="#93DD00"/>
<path d="M68.6238 42.3479H60.095V15.1524C60.095 14.6864 59.8142 14.2662 59.3837 14.0878C58.953 13.9093 58.4573 14.0082 58.1279 14.3375L54.8634 17.6019L51.5992 14.3377C51.1492 13.8877 50.4195 13.8877 49.9694 14.3377L46.705 17.6021L43.441 14.3377C42.991 13.8877 42.2614 13.8877 41.8113 14.3377L38.5469 17.6021L35.2824 14.3377C34.8324 13.8877 34.1028 13.8877 33.6528 14.3377L30.3884 17.6021L27.1243 14.3377C26.6743 13.8877 25.9446 13.8877 25.4945 14.3377L22.2302 17.6021L18.9659 14.3377C18.5187 13.8905 17.7954 13.8882 17.3442 14.3314C17.1073 14.5643 16.9924 14.8746 17.0004 15.1829V67.0081C17.0004 70.3121 19.6883 73.0001 22.9923 73.0001H63.7825C63.7823 73.0001 63.7828 73.0001 63.7825 73.0001C63.7829 73.0001 63.7838 73.0001 63.7842 73.0001C67.0882 73.0001 69.7761 70.3121 69.7761 67.0081V43.5001C69.7761 42.8636 69.2602 42.3479 68.6238 42.3479ZM19.305 67.008V17.936L21.4154 20.0464C21.8653 20.4964 22.595 20.4964 23.0451 20.0464L26.3095 16.7821L29.5738 20.0464C30.0238 20.4964 30.7535 20.4964 31.2036 20.0464L34.468 16.7821L37.7324 20.0464C38.1824 20.4964 38.9121 20.4964 39.3621 20.0464L42.6264 16.7821L45.8908 20.0464C46.3408 20.4964 47.0704 20.4964 47.5205 20.0464L50.7849 16.7821L54.0493 20.0464C54.4994 20.4964 55.229 20.4964 55.6789 20.0464L57.791 17.9344V43.5001C57.791 43.5106 57.7923 43.5208 57.7927 43.5313V67.008C57.7927 68.398 58.2697 69.6778 59.0668 70.6954H22.9923C20.959 70.6954 19.305 69.0413 19.305 67.008ZM67.4714 67.008C67.4714 69.0412 65.8172 70.6954 63.784 70.6954C61.7508 70.6954 60.0967 69.0412 60.0967 67.008V44.6524H67.4714V67.008Z" fill="black"/>
<path d="M38.5477 38.1621C37.404 38.1621 36.4736 37.3654 36.4736 36.3863C36.4736 35.7498 35.9577 35.2339 35.3213 35.2339C34.6848 35.2339 34.1689 35.7498 34.1689 36.3863C34.1689 38.2647 35.5384 39.8496 37.3954 40.3223V41.2626C37.3954 41.8991 37.9113 42.415 38.5477 42.415C39.1842 42.415 39.7001 41.8991 39.7001 41.2626V40.3223C41.5572 39.8496 42.9265 38.2647 42.9265 36.3863C42.9265 34.1363 40.9622 32.3057 38.5477 32.3057C37.404 32.3057 36.4736 31.509 36.4736 30.5298C36.4736 29.5506 37.4041 28.7538 38.5477 28.7538C39.6913 28.7538 40.6218 29.5506 40.6218 30.5298C40.6218 31.1663 41.1377 31.6822 41.7742 31.6822C42.4106 31.6822 42.9265 31.1663 42.9265 30.5298C42.9265 28.6514 41.5571 27.0665 39.7001 26.5938V25.8132C39.7001 25.1767 39.1842 24.6608 38.5477 24.6608C37.9113 24.6608 37.3954 25.1767 37.3954 25.8132V26.5938C35.5383 27.0665 34.1689 28.6515 34.1689 30.5298C34.1689 32.7798 36.1333 34.6103 38.5477 34.6103C39.6914 34.6103 40.6218 35.407 40.6218 36.3863C40.6218 37.3655 39.6914 38.1621 38.5477 38.1621Z" fill="black"/>
<path d="M47.8789 34.6105H50.1248C50.7613 34.6105 51.2772 34.0946 51.2772 33.4581C51.2772 32.8217 50.7613 32.3058 50.1248 32.3058H47.8789C47.2425 32.3058 46.7266 32.8217 46.7266 33.4581C46.7267 34.0946 47.2426 34.6105 47.8789 34.6105Z" fill="black"/>
<path d="M29.2166 32.3058H26.9707C26.3343 32.3058 25.8184 32.8217 25.8184 33.4581C25.8184 34.0946 26.3343 34.6105 26.9707 34.6105H29.2166C29.8531 34.6105 30.369 34.0946 30.369 33.4581C30.369 32.8217 29.8531 32.3058 29.2166 32.3058Z" fill="black"/>
<path d="M50.7079 45.1143H32.4521C31.8157 45.1143 31.2998 45.6302 31.2998 46.2666C31.2998 46.903 31.8157 47.4189 32.4521 47.4189H50.7079C51.3444 47.4189 51.8603 46.903 51.8603 46.2666C51.8602 45.6302 51.3444 45.1143 50.7079 45.1143Z" fill="black"/>
<path d="M26.3877 45.1143C26.0846 45.1143 25.7873 45.2376 25.573 45.4519C25.3587 45.6662 25.2354 45.9635 25.2354 46.2666C25.2354 46.5697 25.3587 46.867 25.573 47.0813C25.7873 47.2956 26.0846 47.4189 26.3877 47.4189C26.6908 47.4189 26.9881 47.2956 27.2024 47.0813C27.4167 46.867 27.54 46.5697 27.54 46.2666C27.54 45.9635 27.4167 45.6662 27.2024 45.4519C26.9881 45.2376 26.6908 45.1143 26.3877 45.1143Z" fill="black"/>
<path d="M50.7079 52.7195H32.4521C31.8157 52.7195 31.2998 53.2354 31.2998 53.8718C31.2998 54.5083 31.8157 55.0242 32.4521 55.0242H50.7079C51.3444 55.0242 51.8603 54.5083 51.8603 53.8718C51.8603 53.2354 51.3444 52.7195 50.7079 52.7195Z" fill="black"/>
<path d="M26.3877 52.7195C26.0846 52.7195 25.7873 52.8428 25.573 53.0571C25.3587 53.2715 25.2354 53.5688 25.2354 53.8718C25.2354 54.1749 25.3587 54.4722 25.573 54.6865C25.7873 54.9009 26.0846 55.0242 26.3877 55.0242C26.6908 55.0242 26.9881 54.9009 27.2024 54.6865C27.4167 54.4722 27.54 54.1749 27.54 53.8718C27.54 53.5688 27.4167 53.2715 27.2024 53.0571C26.9881 52.8428 26.6908 52.7195 26.3877 52.7195Z" fill="black"/>
<path d="M50.7079 60.3247H32.4521C31.8157 60.3247 31.2998 60.8406 31.2998 61.4771C31.2998 62.1135 31.8157 62.6294 32.4521 62.6294H50.7079C51.3444 62.6294 51.8603 62.1135 51.8603 61.4771C51.8602 60.8406 51.3444 60.3247 50.7079 60.3247Z" fill="black"/>
<path d="M26.3877 60.3247C26.0846 60.3247 25.7873 60.448 25.573 60.6623C25.3587 60.8767 25.2354 61.174 25.2354 61.4771C25.2354 61.7801 25.3587 62.0774 25.573 62.2918C25.7873 62.5061 26.0846 62.6294 26.3877 62.6294C26.6908 62.6294 26.9881 62.5061 27.2024 62.2918C27.4167 62.0774 27.54 61.7801 27.54 61.4771C27.54 61.174 27.4167 60.8767 27.2024 60.6623C26.9881 60.448 26.6908 60.3247 26.3877 60.3247Z" fill="black"/>
</svg>