<?xml version="1.0" encoding="UTF-8"?>
<!-- Generator: Adobe Illustrator 22.1.0, SVG Export Plug-In . SVG Version: 6.00 Build 0)  -->
<svg version="1.1" id="icon" xmlns="http://www.w3.org/2000/svg" xmlns:xlink="http://www.w3.org/1999/xlink" x="0px" y="0px" viewBox="0 0 486 295.8" enable-background="new 0 0 486 295.8" xml:space="preserve">
<g id="elements" opacity="0.5">
	
		<linearGradient id="SVGID_1_" gradientUnits="userSpaceOnUse" x1="-19.6058" y1="-16239.1357" x2="871.3483" y2="-16239.1357" gradientTransform="matrix(1 0 0 -1 0 -16089.4893)">
		<stop offset="0" style="stop-color:#E0AC24"/>
		<stop offset="0.5319" style="stop-color:#D63C20"/>
		<stop offset="1" style="stop-color:#F91939"/>
	</linearGradient>
	<path fill="url(#SVGID_1_)" d="M452.8,141.4h-34.3c-4.5,0-8.2,3.7-8.2,8.2c0,4.5,3.7,8.2,8.2,8.2h34.3c4.5,0,8.2-3.7,8.2-8.2   C461,145.1,457.3,141.4,452.8,141.4z"/>
	
		<linearGradient id="SVGID_2_" gradientUnits="userSpaceOnUse" x1="-10.4032" y1="-16299.8975" x2="880.551" y2="-16299.8975" gradientTransform="matrix(1 0 0 -1 0 -16089.4893)">
		<stop offset="0" style="stop-color:#E0AC24"/>
		<stop offset="0.5319" style="stop-color:#D63C20"/>
		<stop offset="1" style="stop-color:#F91939"/>
	</linearGradient>
	<path fill="url(#SVGID_2_)" d="M56.5,202.2H22.1c-4.5,0-8.2,3.7-8.2,8.2c0,4.5,3.7,8.2,8.2,8.2h34.3c4.5,0,8.2-3.7,8.2-8.2   C64.7,205.9,61,202.2,56.5,202.2z"/>
	
		<linearGradient id="SVGID_3_" gradientUnits="userSpaceOnUse" x1="-9.9511" y1="-16097.6934" x2="881.0031" y2="-16097.6934" gradientTransform="matrix(1 0 0 -1 0 -16089.4893)">
		<stop offset="0" style="stop-color:#E0AC24"/>
		<stop offset="0.5319" style="stop-color:#D63C20"/>
		<stop offset="1" style="stop-color:#F91939"/>
	</linearGradient>
	<path fill="url(#SVGID_3_)" d="M375.9,0h-34.3c-4.5,0-8.2,3.7-8.2,8.2c0,4.5,3.7,8.2,8.2,8.2h34.3c4.5,0,8.2-3.7,8.2-8.2   C384.1,3.7,380.4,0,375.9,0z"/>
	
		<linearGradient id="SVGID_4_" gradientUnits="userSpaceOnUse" x1="-34.607" y1="-16331.0254" x2="856.3497" y2="-16331.0254" gradientTransform="matrix(1 0 0 -1 0 -16089.4893)">
		<stop offset="0" style="stop-color:#E0AC24"/>
		<stop offset="0.5319" style="stop-color:#D63C20"/>
		<stop offset="1" style="stop-color:#F91939"/>
	</linearGradient>
	<path fill="url(#SVGID_4_)" d="M412.4,233.3h-20.1c0,0.2,0,0.4,0,0.6c0.1,5.1,1.2,11.7-3.1,15.5c-0.1,0.1-0.3,0.2-0.4,0.3l5.7,0   h13.9l-0.1,0h4.1c4.5,0,8.2-3.7,8.2-8.2C420.6,237,416.9,233.3,412.4,233.3z"/>
	
		<linearGradient id="SVGID_5_" gradientUnits="userSpaceOnUse" x1="-19.6059" y1="-16225.5449" x2="871.3447" y2="-16225.5449" gradientTransform="matrix(1 0 0 -1 0 -16089.4893)">
		<stop offset="0" style="stop-color:#E0AC24"/>
		<stop offset="0.5319" style="stop-color:#D63C20"/>
		<stop offset="1" style="stop-color:#F91939"/>
	</linearGradient>
	<path fill="url(#SVGID_5_)" d="M86.9,99.7H36.6c-4.5,0-8.2,3.7-8.2,8.2c0,4.5,3.7,8.2,8.2,8.2h4.7l-4,0h22.4c2.9,0,5.2,2.3,5.2,5.2   c0,2.9-2.3,5.2-5.2,5.2h-28l0,0h-8.9c-4.5,0-8.2,3.7-8.2,8.2c0,4.5,3.7,8.2,8.2,8.2h22.3c3.5,0.1,6.3,3,6.3,6.6   c0,3.3-2.5,6.1-5.7,6.5H8.2c-4.5,0-8.2,3.7-8.2,8.2s3.7,8.2,8.2,8.2h12.7l0,0h32.2l33.7,0V99.7z"/>
	
		<linearGradient id="SVGID_6_" gradientUnits="userSpaceOnUse" x1="10.0629" y1="-16291.6934" x2="850.4012" y2="-16291.6934" gradientTransform="matrix(1 0 0 -1 0 -16089.4893)">
		<stop offset="0" style="stop-color:#E0AC24"/>
		<stop offset="0.5319" style="stop-color:#D63C20"/>
		<stop offset="1" style="stop-color:#F91939"/>
	</linearGradient>
	<path fill="url(#SVGID_6_)" d="M478.3,206.8h-50.9c-2.4-0.4-4.3-2.6-4.3-5.3c0-2.4,1.5-4.5,3.7-5.1h31.7c4.3,0,7.7-3.7,7.7-8.2   c0-4.5-3.5-8.2-7.7-8.2h-68.7v44.4c1-0.8,2.2-1.2,3.6-1.2h85c4.3,0,7.7-3.7,7.7-8.2C486,210.5,482.6,206.8,478.3,206.8z"/>
	<g>
		<g>
			
				<linearGradient id="SVGID_7_" gradientUnits="userSpaceOnUse" x1="28.6936" y1="-16313.1279" x2="28.6936" y2="-16594.0488" gradientTransform="matrix(1 0 0 -1 0 -16089.4893)">
				<stop offset="0" style="stop-color:#E0AC24"/>
				<stop offset="0.5319" style="stop-color:#D63C20"/>
				<stop offset="1" style="stop-color:#F91939"/>
			</linearGradient>
			<path fill="url(#SVGID_7_)" d="M34.7,271.8h-12c-1.3,0-2.4-1.1-2.4-2.4c0-1.3,1.1-2.4,2.4-2.4h12c1.3,0,2.4,1.1,2.4,2.4     C37.1,270.7,36,271.8,34.7,271.8z"/>
		</g>
		<g>
			
				<linearGradient id="SVGID_8_" gradientUnits="userSpaceOnUse" x1="50.9394" y1="-16313.1279" x2="50.9394" y2="-16594.0488" gradientTransform="matrix(1 0 0 -1 0 -16089.4893)">
				<stop offset="0" style="stop-color:#E0AC24"/>
				<stop offset="0.5319" style="stop-color:#D63C20"/>
				<stop offset="1" style="stop-color:#F91939"/>
			</linearGradient>
			<path fill="url(#SVGID_8_)" d="M54.3,271.8h-6.8c-1.3,0-2.4-1.1-2.4-2.4c0-1.3,1.1-2.4,2.4-2.4h6.8c1.3,0,2.4,1.1,2.4,2.4     C56.7,270.7,55.6,271.8,54.3,271.8z"/>
		</g>
		<g>
			
				<linearGradient id="SVGID_9_" gradientUnits="userSpaceOnUse" x1="441.8875" y1="-16313.1279" x2="441.8875" y2="-16594.0488" gradientTransform="matrix(1 0 0 -1 0 -16089.4893)">
				<stop offset="0" style="stop-color:#E0AC24"/>
				<stop offset="0.5319" style="stop-color:#D63C20"/>
				<stop offset="1" style="stop-color:#F91939"/>
			</linearGradient>
			<path fill="url(#SVGID_9_)" d="M447.9,271.8h-12c-1.3,0-2.4-1.1-2.4-2.4c0-1.3,1.1-2.4,2.4-2.4h12c1.3,0,2.4,1.1,2.4,2.4     C450.3,270.7,449.2,271.8,447.9,271.8z"/>
		</g>
		<g>
			
				<linearGradient id="SVGID_10_" gradientUnits="userSpaceOnUse" x1="225.6815" y1="-16361.1758" x2="225.6815" y2="-16642.0957" gradientTransform="matrix(1 0 0 -1 0 -16089.4893)">
				<stop offset="0" style="stop-color:#E0AC24"/>
				<stop offset="0.5319" style="stop-color:#D63C20"/>
				<stop offset="1" style="stop-color:#F91939"/>
			</linearGradient>
			<path fill="url(#SVGID_10_)" d="M246.6,295.8h-41.7c-1.3,0-2.4-1.1-2.4-2.4c0-1.3,1.1-2.4,2.4-2.4h41.7c1.3,0,2.4,1.1,2.4,2.4     C248.9,294.7,247.9,295.8,246.6,295.8z"/>
		</g>
		<g>
			
				<linearGradient id="SVGID_11_" gradientUnits="userSpaceOnUse" x1="260.3641" y1="-16361.1758" x2="260.3641" y2="-16642.0957" gradientTransform="matrix(1 0 0 -1 0 -16089.4893)">
				<stop offset="0" style="stop-color:#E0AC24"/>
				<stop offset="0.5319" style="stop-color:#D63C20"/>
				<stop offset="1" style="stop-color:#F91939"/>
			</linearGradient>
			<path fill="url(#SVGID_11_)" d="M265,295.8h-9.2c-1.3,0-2.4-1.1-2.4-2.4c0-1.3,1.1-2.4,2.4-2.4h9.2c1.3,0,2.4,1.1,2.4,2.4     C267.4,294.7,266.3,295.8,265,295.8z"/>
		</g>
		<g>
			
				<linearGradient id="SVGID_12_" gradientUnits="userSpaceOnUse" x1="418.4904" y1="-16313.1279" x2="418.4904" y2="-16594.0488" gradientTransform="matrix(1 0 0 -1 0 -16089.4893)">
				<stop offset="0" style="stop-color:#E0AC24"/>
				<stop offset="0.5319" style="stop-color:#D63C20"/>
				<stop offset="1" style="stop-color:#F91939"/>
			</linearGradient>
			<path fill="url(#SVGID_12_)" d="M421.9,271.8h-6.8c-1.3,0-2.4-1.1-2.4-2.4c0-1.3,1.1-2.4,2.4-2.4h6.8c1.3,0,2.4,1.1,2.4,2.4     C424.3,270.7,423.2,271.8,421.9,271.8z"/>
		</g>
		<g>
			
				<linearGradient id="SVGID_13_" gradientUnits="userSpaceOnUse" x1="62.5261" y1="-15839.415" x2="62.5261" y2="-16120.3301" gradientTransform="matrix(1 0 0 -1 0 -16089.4893)">
				<stop offset="0" style="stop-color:#E0AC24"/>
				<stop offset="0.5319" style="stop-color:#D63C20"/>
				<stop offset="1" style="stop-color:#F91939"/>
			</linearGradient>
			<path fill="url(#SVGID_13_)" d="M62.5,36.3c-1.1,0-1.9-0.9-1.9-1.9v-3.8c0-1.1,0.9-1.9,1.9-1.9c1.1,0,1.9,0.9,1.9,1.9v3.8     C64.4,35.5,63.6,36.3,62.5,36.3z"/>
		</g>
		<g>
			
				<linearGradient id="SVGID_14_" gradientUnits="userSpaceOnUse" x1="62.5261" y1="-15865.4443" x2="62.5261" y2="-16146.3594" gradientTransform="matrix(1 0 0 -1 0 -16089.4893)">
				<stop offset="0" style="stop-color:#E0AC24"/>
				<stop offset="0.5319" style="stop-color:#D63C20"/>
				<stop offset="1" style="stop-color:#F91939"/>
			</linearGradient>
			<path fill="url(#SVGID_14_)" d="M62.5,49.4c-1.1,0-1.9-0.9-1.9-1.9v-3.8c0-1.1,0.9-1.9,1.9-1.9c1.1,0,1.9,0.9,1.9,1.9v3.8     C64.4,48.5,63.6,49.4,62.5,49.4z"/>
		</g>
		<g>
			
				<linearGradient id="SVGID_15_" gradientUnits="userSpaceOnUse" x1="69.0333" y1="-15852.4268" x2="69.0333" y2="-16133.3447" gradientTransform="matrix(1 0 0 -1 0 -16089.4893)">
				<stop offset="0" style="stop-color:#E0AC24"/>
				<stop offset="0.5319" style="stop-color:#D63C20"/>
				<stop offset="1" style="stop-color:#F91939"/>
			</linearGradient>
			<path fill="url(#SVGID_15_)" d="M70.9,41h-3.8c-1.1,0-1.9-0.9-1.9-1.9c0-1.1,0.9-1.9,1.9-1.9h3.8c1.1,0,1.9,0.9,1.9,1.9     C72.9,40.1,72,41,70.9,41z"/>
		</g>
		<g>
			
				<linearGradient id="SVGID_16_" gradientUnits="userSpaceOnUse" x1="56.0179" y1="-15852.4268" x2="56.0179" y2="-16133.3447" gradientTransform="matrix(1 0 0 -1 0 -16089.4893)">
				<stop offset="0" style="stop-color:#E0AC24"/>
				<stop offset="0.5319" style="stop-color:#D63C20"/>
				<stop offset="1" style="stop-color:#F91939"/>
			</linearGradient>
			<path fill="url(#SVGID_16_)" d="M57.9,41h-3.8c-1.1,0-1.9-0.9-1.9-1.9c0-1.1,0.9-1.9,1.9-1.9h3.8c1.1,0,1.9,0.9,1.9,1.9     C59.8,40.1,59,41,57.9,41z"/>
		</g>
		<g>
			
				<linearGradient id="SVGID_17_" gradientUnits="userSpaceOnUse" x1="42.5582" y1="-15901.4277" x2="42.5582" y2="-16182.3428" gradientTransform="matrix(1 0 0 -1 0 -16089.4893)">
				<stop offset="0" style="stop-color:#E0AC24"/>
				<stop offset="0.5319" style="stop-color:#D63C20"/>
				<stop offset="1" style="stop-color:#F91939"/>
			</linearGradient>
			<path fill="url(#SVGID_17_)" d="M41.2,66.8c-0.5,0-1-0.2-1.4-0.6c-0.7-0.7-0.7-2,0-2.7l2.7-2.7c0.7-0.7,2-0.7,2.7,0     c0.7,0.7,0.7,2,0,2.7l-2.7,2.7C42.2,66.6,41.7,66.8,41.2,66.8z"/>
		</g>
		<g>
			
				<linearGradient id="SVGID_18_" gradientUnits="userSpaceOnUse" x1="33.3554" y1="-15919.835" x2="33.3554" y2="-16200.75" gradientTransform="matrix(1 0 0 -1 0 -16089.4893)">
				<stop offset="0" style="stop-color:#E0AC24"/>
				<stop offset="0.5319" style="stop-color:#D63C20"/>
				<stop offset="1" style="stop-color:#F91939"/>
			</linearGradient>
			<path fill="url(#SVGID_18_)" d="M32,76c-0.5,0-1-0.2-1.4-0.6c-0.7-0.7-0.7-2,0-2.7l2.7-2.7c0.7-0.7,2-0.7,2.7,0     c0.7,0.7,0.7,2,0,2.7l-2.7,2.7C33,75.8,32.5,76,32,76z"/>
		</g>
		<g>
			
				<linearGradient id="SVGID_19_" gradientUnits="userSpaceOnUse" x1="42.5582" y1="-15919.835" x2="42.5582" y2="-16200.75" gradientTransform="matrix(1 0 0 -1 0 -16089.4893)">
				<stop offset="0" style="stop-color:#E0AC24"/>
				<stop offset="0.5319" style="stop-color:#D63C20"/>
				<stop offset="1" style="stop-color:#F91939"/>
			</linearGradient>
			<path fill="url(#SVGID_19_)" d="M43.9,76c-0.5,0-1-0.2-1.4-0.6l-2.7-2.7c-0.7-0.7-0.7-2,0-2.7c0.7-0.7,2-0.7,2.7,0l2.7,2.7     c0.7,0.7,0.7,2,0,2.7C44.9,75.8,44.4,76,43.9,76z"/>
		</g>
		<g>
			
				<linearGradient id="SVGID_20_" gradientUnits="userSpaceOnUse" x1="33.3554" y1="-15901.4277" x2="33.3554" y2="-16182.3428" gradientTransform="matrix(1 0 0 -1 0 -16089.4893)">
				<stop offset="0" style="stop-color:#E0AC24"/>
				<stop offset="0.5319" style="stop-color:#D63C20"/>
				<stop offset="1" style="stop-color:#F91939"/>
			</linearGradient>
			<path fill="url(#SVGID_20_)" d="M34.7,66.8c-0.5,0-1-0.2-1.4-0.6l-2.7-2.7c-0.7-0.7-0.7-2,0-2.7c0.7-0.7,2-0.7,2.7,0l2.7,2.7     c0.7,0.7,0.7,2,0,2.7C35.7,66.6,35.2,66.8,34.7,66.8z"/>
		</g>
		<g>
			
				<linearGradient id="SVGID_21_" gradientUnits="userSpaceOnUse" x1="412.9747" y1="-15926.3252" x2="412.9747" y2="-16207.2363" gradientTransform="matrix(1 0 0 -1 0 -16089.4893)">
				<stop offset="0" style="stop-color:#E0AC24"/>
				<stop offset="0.5319" style="stop-color:#D63C20"/>
				<stop offset="1" style="stop-color:#F91939"/>
			</linearGradient>
			<path fill="url(#SVGID_21_)" d="M414.9,77.9h-3.8c-1.1,0-1.9-0.9-1.9-1.9c0-1.1,0.9-1.9,1.9-1.9h3.8c1.1,0,1.9,0.9,1.9,1.9     C416.8,77,415.9,77.9,414.9,77.9z"/>
		</g>
		<g>
			
				<linearGradient id="SVGID_22_" gradientUnits="userSpaceOnUse" x1="399.9598" y1="-15926.3252" x2="399.9598" y2="-16207.2363" gradientTransform="matrix(1 0 0 -1 0 -16089.4893)">
				<stop offset="0" style="stop-color:#E0AC24"/>
				<stop offset="0.5319" style="stop-color:#D63C20"/>
				<stop offset="1" style="stop-color:#F91939"/>
			</linearGradient>
			<path fill="url(#SVGID_22_)" d="M401.9,77.9h-3.8c-1.1,0-1.9-0.9-1.9-1.9c0-1.1,0.9-1.9,1.9-1.9h3.8c1.1,0,1.9,0.9,1.9,1.9     C403.8,77,402.9,77.9,401.9,77.9z"/>
		</g>
		<g>
			
				<linearGradient id="SVGID_23_" gradientUnits="userSpaceOnUse" x1="406.4675" y1="-15939.3389" x2="406.4675" y2="-16220.2539" gradientTransform="matrix(1 0 0 -1 0 -16089.4893)">
				<stop offset="0" style="stop-color:#E0AC24"/>
				<stop offset="0.5319" style="stop-color:#D63C20"/>
				<stop offset="1" style="stop-color:#F91939"/>
			</linearGradient>
			<path fill="url(#SVGID_23_)" d="M406.5,86.3c-1.1,0-1.9-0.9-1.9-1.9v-3.8c0-1.1,0.9-1.9,1.9-1.9c1.1,0,1.9,0.9,1.9,1.9v3.8     C408.4,85.4,407.5,86.3,406.5,86.3z"/>
		</g>
		<g>
			
				<linearGradient id="SVGID_24_" gradientUnits="userSpaceOnUse" x1="406.4675" y1="-15913.3047" x2="406.4675" y2="-16194.2236" gradientTransform="matrix(1 0 0 -1 0 -16089.4893)">
				<stop offset="0" style="stop-color:#E0AC24"/>
				<stop offset="0.5319" style="stop-color:#D63C20"/>
				<stop offset="1" style="stop-color:#F91939"/>
			</linearGradient>
			<path fill="url(#SVGID_24_)" d="M406.5,73.3c-1.1,0-1.9-0.9-1.9-1.9v-3.8c0-1.1,0.9-1.9,1.9-1.9c1.1,0,1.9,0.9,1.9,1.9v3.8     C408.4,72.4,407.5,73.3,406.5,73.3z"/>
		</g>
		<g>
			
				<linearGradient id="SVGID_25_" gradientUnits="userSpaceOnUse" x1="426.4704" y1="-15874.6475" x2="426.4704" y2="-16155.5625" gradientTransform="matrix(1 0 0 -1 0 -16089.4893)">
				<stop offset="0" style="stop-color:#E0AC24"/>
				<stop offset="0.5319" style="stop-color:#D63C20"/>
				<stop offset="1" style="stop-color:#F91939"/>
			</linearGradient>
			<path fill="url(#SVGID_25_)" d="M427.8,53.4c-0.5,0-1-0.2-1.4-0.6l-2.7-2.7c-0.7-0.7-0.7-2,0-2.7c0.7-0.7,2-0.7,2.7,0l2.7,2.7     c0.7,0.7,0.7,2,0,2.7C428.8,53.2,428.3,53.4,427.8,53.4z"/>
		</g>
		<g>
			
				<linearGradient id="SVGID_26_" gradientUnits="userSpaceOnUse" x1="417.2672" y1="-15856.2422" x2="417.2672" y2="-16137.1563" gradientTransform="matrix(1 0 0 -1 0 -16089.4893)">
				<stop offset="0" style="stop-color:#E0AC24"/>
				<stop offset="0.5319" style="stop-color:#D63C20"/>
				<stop offset="1" style="stop-color:#F91939"/>
			</linearGradient>
			<path fill="url(#SVGID_26_)" d="M418.6,44.2c-0.5,0-1-0.2-1.4-0.6l-2.7-2.7c-0.7-0.7-0.7-2,0-2.7c0.7-0.7,2-0.7,2.7,0l2.7,2.7     c0.7,0.7,0.7,2,0,2.7C419.6,44,419.1,44.2,418.6,44.2z"/>
		</g>
		<g>
			
				<linearGradient id="SVGID_27_" gradientUnits="userSpaceOnUse" x1="417.2672" y1="-15874.6475" x2="417.2672" y2="-16155.5625" gradientTransform="matrix(1 0 0 -1 0 -16089.4893)">
				<stop offset="0" style="stop-color:#E0AC24"/>
				<stop offset="0.5319" style="stop-color:#D63C20"/>
				<stop offset="1" style="stop-color:#F91939"/>
			</linearGradient>
			<path fill="url(#SVGID_27_)" d="M415.9,53.4c-0.5,0-1-0.2-1.4-0.6c-0.7-0.7-0.7-2,0-2.7l2.7-2.7c0.7-0.7,2-0.7,2.7,0     c0.7,0.7,0.7,2,0,2.7l-2.7,2.7C416.9,53.2,416.4,53.4,415.9,53.4z"/>
		</g>
		<g>
			
				<linearGradient id="SVGID_28_" gradientUnits="userSpaceOnUse" x1="426.4704" y1="-15856.2422" x2="426.4704" y2="-16137.1563" gradientTransform="matrix(1 0 0 -1 0 -16089.4893)">
				<stop offset="0" style="stop-color:#E0AC24"/>
				<stop offset="0.5319" style="stop-color:#D63C20"/>
				<stop offset="1" style="stop-color:#F91939"/>
			</linearGradient>
			<path fill="url(#SVGID_28_)" d="M425.1,44.2c-0.5,0-1-0.2-1.4-0.6c-0.7-0.7-0.7-2,0-2.7l2.7-2.7c0.7-0.7,2-0.7,2.7,0     c0.7,0.7,0.7,2,0,2.7l-2.7,2.7C426.1,44,425.6,44.2,425.1,44.2z"/>
		</g>
	</g>
</g>
<g>
	<linearGradient id="SVGID_29_" gradientUnits="userSpaceOnUse" x1="239.5114" y1="280.2556" x2="239.5114" y2="9.0891">
		<stop offset="0" style="stop-color:#640057"/>
		<stop offset="0.1834" style="stop-color:#7B0F4F"/>
		<stop offset="0.5687" style="stop-color:#B6343A"/>
		<stop offset="1" style="stop-color:#FF6221"/>
	</linearGradient>
	<path fill="url(#SVGID_29_)" d="M362.3,242.9H116.8c-5.1,0-9.3-3.5-9.3-7.9V101c0-4.3,4.2-7.9,9.3-7.9h47.9c1.3,0,2.4-1.1,2.4-2.4   c0-1.3-1.1-2.4-2.4-2.4h-47.9c-7.8,0-14.1,5.7-14.1,12.7v134c0,7,6.3,12.7,14.1,12.7h245.5c7.8,0,14.1-5.7,14.1-12.7V101   c0-7-6.3-12.7-14.1-12.7h-47.9c-1.3,0-2.4,1.1-2.4,2.4c0,1.3,1.1,2.4,2.4,2.4h47.9c5.1,0,9.3,3.5,9.3,7.9v134   C371.5,239.4,367.4,242.9,362.3,242.9z"/>
	<linearGradient id="SVGID_30_" gradientUnits="userSpaceOnUse" x1="239.5117" y1="280.2556" x2="239.5117" y2="9.0891">
		<stop offset="0" style="stop-color:#640057"/>
		<stop offset="0.1834" style="stop-color:#7B0F4F"/>
		<stop offset="0.5687" style="stop-color:#B6343A"/>
		<stop offset="1" style="stop-color:#FF6221"/>
	</linearGradient>
	<path fill="url(#SVGID_30_)" d="M414,257.9h-21V82.6c0-6.4-5.9-11.5-13.3-11.5h-83.6c-1.3,0-2.4,1.1-2.4,2.4c0,1.3,1.1,2.4,2.4,2.4   h83.6c4.6,0,8.4,3.1,8.4,6.7v174.7H91V82.6c0-3.6,3.8-6.7,8.4-6.7h78c1.3,0,2.4-1.1,2.4-2.4c0-1.3-1.1-2.4-2.4-2.4h-78   c-7.3,0-13.3,5.2-13.3,11.5v175.3h-21c-1,0-1.8,0.8-1.8,1.8c0,10.4,8.4,18.8,18.8,18.8H397c10.4,0,18.8-8.4,18.8-18.8   C415.8,258.7,415,257.9,414,257.9z M397,274.9H82.1c-7.7,0-14.2-5.8-15.1-13.3h19.9c0.4,0.4,1,0.6,1.6,0.6h302   c0.6,0,1.2-0.2,1.6-0.6H412C411.1,269.1,404.7,274.9,397,274.9z"/>
	<g>
		<linearGradient id="SVGID_31_" gradientUnits="userSpaceOnUse" x1="286.5752" y1="283.4989" x2="286.5752" y2="12.3324">
			<stop offset="0" style="stop-color:#640057"/>
			<stop offset="0.1834" style="stop-color:#7B0F4F"/>
			<stop offset="0.5687" style="stop-color:#B6343A"/>
			<stop offset="1" style="stop-color:#FF6221"/>
		</linearGradient>
		<path fill="url(#SVGID_31_)" d="M288.3,44.8c0.9-0.9,0.9-2.4,0-3.4c-0.9-0.9-2.4-0.9-3.4,0c-0.9,0.9-0.9,2.4,0,3.4    C285.8,45.7,287.3,45.7,288.3,44.8z"/>
		<linearGradient id="SVGID_32_" gradientUnits="userSpaceOnUse" x1="196.3409" y1="283.4989" x2="196.3409" y2="12.3324">
			<stop offset="0" style="stop-color:#640057"/>
			<stop offset="0.1834" style="stop-color:#7B0F4F"/>
			<stop offset="0.5687" style="stop-color:#B6343A"/>
			<stop offset="1" style="stop-color:#FF6221"/>
		</linearGradient>
		<path fill="url(#SVGID_32_)" d="M194.7,44.2c-0.9,0.9-0.9,2.4,0,3.4c0.9,0.9,2.4,0.9,3.4,0c0.9-0.9,0.9-2.4,0-3.4    C197.1,43.3,195.6,43.3,194.7,44.2z"/>
		<linearGradient id="SVGID_33_" gradientUnits="userSpaceOnUse" x1="241.458" y1="283.4989" x2="241.458" y2="12.3324">
			<stop offset="0" style="stop-color:#640057"/>
			<stop offset="0.1834" style="stop-color:#7B0F4F"/>
			<stop offset="0.5687" style="stop-color:#B6343A"/>
			<stop offset="1" style="stop-color:#FF6221"/>
		</linearGradient>
		<path fill="url(#SVGID_33_)" d="M197.4,63.8l1.9,9.3l-3.9,3.9c-3.3,3.3-3.3,8.5,0,11.8c1.6,1.6,3.7,2.5,6,2.4c0,2.2,0.8,4.3,2.4,6    c1.6,1.6,3.8,2.4,5.9,2.4c0,0,0.1,0,0.1,0c0,2.2,0.8,4.3,2.4,6c1.6,1.6,3.7,2.4,5.9,2.4c0,0,0.1,0,0.1,0c0,2.2,0.8,4.3,2.4,6    c3.3,3.2,8.5,3.2,11.8,0l0.8-0.8l4.2,4.2c3.3,3.3,8.5,3.3,11.8,0c1.6-1.6,2.5-3.8,2.4-6c0,0,0.1,0,0.1,0c2.1,0,4.3-0.8,5.9-2.4    c1.6-1.6,2.5-3.8,2.4-6c2.3,0,4.4-0.9,6-2.4c1.6-1.6,2.5-3.8,2.4-6c0,0,0.1,0,0.1,0c2.1,0,4.3-0.8,5.9-2.4c3.2-3.3,3.2-8.5,0-11.8    l-1.2-1.2l11.7-17.7l16.7-16.7c0.9-0.9,0.9-2.4,0-3.4l-26.9-26.9c-0.9-0.9-2.4-0.9-3.4,0c-2.5,2.5-14.1,14.1-16.5,16.5l-11.5,4.7    l-15.7-2.2l-16.2-16.2c-0.8-0.8-1.7-0.7-1.7-0.7c-0.6,0-1.2,0.3-1.7,0.7l-26.9,26.9c-0.9,0.9-0.9,2.4,0,3.4L197.4,63.8z     M198.8,85.4c-1.4-1.4-1.4-3.7,0-5c0.5-0.5-1.9,1.9,5.1-5.1c1.4-1.4,3.7-1.4,5.1,0c1.4,1.4,1.4,3.7,0,5.1c0,0,0,0,0,0l-5.1,5.1    C202.4,86.8,200.2,86.8,198.8,85.4z M207.2,93.8c-1.4-1.4-1.4-3.7,0-5.1c0,0,0,0,0,0c0,0,0,0,0,0l5.1-5c0,0,0,0,0,0c0,0,0,0,0,0    c1.4-1.4,3.7-1.4,5.1,0c1.4,1.4,1.4,3.7,0,5.1l-5.1,5.1C210.8,95.2,208.6,95.2,207.2,93.8z M215.6,102.2c-1.4-1.4-1.4-3.7,0-5.1    l5.1-5.1c1.4-1.4,3.7-1.4,5.1,0c1.4,1.4,1.4,3.7,0,5.1l-5.1,5.1C219.3,103.6,217,103.6,215.6,102.2z M224,110.6    c-1.4-1.4-1.4-3.7,0-5.1l5.1-5.1c1.4-1.4,3.7-1.4,5,0c1.4,1.4,1.4,3.6,0,5.1l-5.1,5.1C227.7,112,225.4,112,224,110.6z M256.9,62.6    l1.7-1.7c0.9-0.9,0.9-2.4,0-3.4c-0.9-0.9-2.4-0.9-3.4,0c-1.5,1.4-2,2.1-3.1,2.9c-3.6,2.4-8.7,2.1-12-1.2c-2.8-2.8-7.3-2.8-10.1,0    l-5.9,5.9c-1.4,1.4-3.7,1.4-5.1,0c-1.4-1.4-1.4-3.7,0-5.1l15.7-15.7l21.1-8.7l24.5,24.5L270,75.7L256.9,62.6z M266.4,26.2    L278.2,38c0.9,0.9,2.4,0.9,3.4,0c0.9-0.9,0.9-2.4,0-3.4l-11.8-11.8l3.4-3.4l23.6,23.6l-13.5,13.5L259.6,33L266.4,26.2z     M232.4,40.2c-0.3,0.1-0.6,0.3-0.8,0.5l-16,16c-3.2,3.2-3.2,8.5,0,11.8c3.3,3.3,8.5,3.3,11.8,0l5.9-5.9c0.9-0.9,2.4-0.9,3.4,0    c4.5,4.5,11.1,5.3,16.3,2.8l15.7,15.7c0,0,0,0,0,0l2.5,2.5c1.4,1.4,1.4,3.7,0,5.1c-1.4,1.4-3.7,1.4-5.1,0c0,0,0,0,0,0l-2.5-2.5    c-0.9-0.9-2.4-0.9-3.4,0c-0.9,0.9-0.9,2.4,0,3.4l2.5,2.5c1.4,1.4,1.4,3.7,0,5.1c-1.4,1.4-3.7,1.4-5,0c0,0,0,0,0,0l-2.5-2.5    c-0.9-0.9-2.4-0.9-3.4,0c-0.9,0.9-0.9,2.4,0,3.4l2.5,2.5c1.4,1.4,1.4,3.7,0,5.1c-1.4,1.4-3.7,1.4-5.1,0l-2.5-2.5    c-0.9-0.9-2.4-0.9-3.4,0c-0.9,0.9-0.9,2.4,0,3.4l2.5,2.5c1.4,1.4,1.4,3.7,0,5.1c-1.4,1.4-3.7,1.4-5.1,0l-4.2-4.2l0.8-0.8    c3.2-3.3,3.3-8.5,0-11.8c-1.6-1.6-3.8-2.5-6-2.4c0-2.3-0.9-4.4-2.4-6c-1.6-1.6-3.7-2.5-6-2.4c0-2.3-0.9-4.4-2.4-6    c-1.6-1.6-3.7-2.5-6-2.4c0-2.3-0.9-4.4-2.4-6c-2.4-2.4-5.8-3-8.7-1.9l-1.3-6.5l25.2-25.2l7.3,1L232.4,40.2z M209.8,22.3l3.4,3.4    l-11.8,11.8c-0.9,0.9-0.9,2.4,0,3.4c0.9,0.9,2.4,0.9,3.4,0l11.8-11.8l6.6,6.6l-23.6,23.6l-13.4-13.4L209.8,22.3z"/>
	</g>
	<g>
		<linearGradient id="SVGID_34_" gradientUnits="userSpaceOnUse" x1="138.7261" y1="280.2556" x2="138.7261" y2="9.0891">
			<stop offset="0" style="stop-color:#640057"/>
			<stop offset="0.1834" style="stop-color:#7B0F4F"/>
			<stop offset="0.5687" style="stop-color:#B6343A"/>
			<stop offset="1" style="stop-color:#FF6221"/>
		</linearGradient>
		<path fill="url(#SVGID_34_)" d="M148.9,211.9c0,3.2-1,5.7-3.1,7.4c-2.1,1.7-5.1,2.6-9,2.6h-3.2v11.5h-5v-30.7h8.8    c3.8,0,6.7,0.8,8.6,2.4C147.9,206.5,148.9,208.8,148.9,211.9z M133.6,217.6h2.7c2.6,0,4.5-0.4,5.7-1.3c1.2-0.9,1.8-2.3,1.8-4.2    c0-1.8-0.5-3.1-1.6-3.9c-1.1-0.9-2.8-1.3-5-1.3h-3.5V217.6z"/>
		<linearGradient id="SVGID_35_" gradientUnits="userSpaceOnUse" x1="166.729" y1="280.2556" x2="166.729" y2="9.0891">
			<stop offset="0" style="stop-color:#640057"/>
			<stop offset="0.1834" style="stop-color:#7B0F4F"/>
			<stop offset="0.5687" style="stop-color:#B6343A"/>
			<stop offset="1" style="stop-color:#FF6221"/>
		</linearGradient>
		<path fill="url(#SVGID_35_)" d="M175.6,233.3l-3.1-8.5h-11.7l-3,8.5h-5.3l11.5-30.8h5.5l11.5,30.8H175.6z M171.2,220.5l-2.9-8.4    c-0.2-0.6-0.5-1.4-0.9-2.6c-0.4-1.2-0.6-2.1-0.8-2.6c-0.4,1.7-0.9,3.6-1.7,5.6l-2.8,8H171.2z"/>
		<linearGradient id="SVGID_36_" gradientUnits="userSpaceOnUse" x1="198.0603" y1="280.2556" x2="198.0603" y2="9.0891">
			<stop offset="0" style="stop-color:#640057"/>
			<stop offset="0.1834" style="stop-color:#7B0F4F"/>
			<stop offset="0.5687" style="stop-color:#B6343A"/>
			<stop offset="1" style="stop-color:#FF6221"/>
		</linearGradient>
		<path fill="url(#SVGID_36_)" d="M191.6,221.1v12.3h-5v-30.7h8.7c4,0,6.9,0.7,8.8,2.2c1.9,1.5,2.9,3.7,2.9,6.7c0,3.8-2,6.5-6,8.2    l8.7,13.6h-5.7l-7.3-12.3H191.6z M191.6,216.9h3.5c2.3,0,4-0.4,5.1-1.3s1.6-2.2,1.6-3.9c0-1.7-0.6-3-1.7-3.7s-2.8-1.1-5.1-1.1    h-3.3V216.9z"/>
		<linearGradient id="SVGID_37_" gradientUnits="userSpaceOnUse" x1="223.6697" y1="280.2556" x2="223.6697" y2="9.0891">
			<stop offset="0" style="stop-color:#640057"/>
			<stop offset="0.1834" style="stop-color:#7B0F4F"/>
			<stop offset="0.5687" style="stop-color:#B6343A"/>
			<stop offset="1" style="stop-color:#FF6221"/>
		</linearGradient>
		<path fill="url(#SVGID_37_)" d="M226.2,233.3h-5v-26.4h-9v-4.3h23.1v4.3h-9V233.3z"/>
		<linearGradient id="SVGID_38_" gradientUnits="userSpaceOnUse" x1="254.2446" y1="280.2556" x2="254.2446" y2="9.0891">
			<stop offset="0" style="stop-color:#640057"/>
			<stop offset="0.1834" style="stop-color:#7B0F4F"/>
			<stop offset="0.5687" style="stop-color:#B6343A"/>
			<stop offset="1" style="stop-color:#FF6221"/>
		</linearGradient>
		<path fill="url(#SVGID_38_)" d="M267,233.3h-6.2l-15.1-24.5h-0.2l0.1,1.4c0.2,2.6,0.3,5,0.3,7.1v16h-4.6v-30.7h6.1l15.1,24.3h0.1    c0-0.3-0.1-1.5-0.2-3.5c-0.1-2-0.1-3.6-0.1-4.7v-16.1h4.6V233.3z"/>
		<linearGradient id="SVGID_39_" gradientUnits="userSpaceOnUse" x1="285.3657" y1="280.2556" x2="285.3657" y2="9.0891">
			<stop offset="0" style="stop-color:#640057"/>
			<stop offset="0.1834" style="stop-color:#7B0F4F"/>
			<stop offset="0.5687" style="stop-color:#B6343A"/>
			<stop offset="1" style="stop-color:#FF6221"/>
		</linearGradient>
		<path fill="url(#SVGID_39_)" d="M294,233.3h-17.4v-30.7H294v4.2h-12.3v8.4h11.6v4.2h-11.6v9.6H294V233.3z"/>
		<linearGradient id="SVGID_40_" gradientUnits="userSpaceOnUse" x1="313.747" y1="280.2556" x2="313.747" y2="9.0891">
			<stop offset="0" style="stop-color:#640057"/>
			<stop offset="0.1834" style="stop-color:#7B0F4F"/>
			<stop offset="0.5687" style="stop-color:#B6343A"/>
			<stop offset="1" style="stop-color:#FF6221"/>
		</linearGradient>
		<path fill="url(#SVGID_40_)" d="M307.2,221.1v12.3h-5v-30.7h8.7c4,0,6.9,0.7,8.8,2.2c1.9,1.5,2.9,3.7,2.9,6.7c0,3.8-2,6.5-6,8.2    l8.7,13.6h-5.7l-7.3-12.3H307.2z M307.2,216.9h3.5c2.3,0,4-0.4,5.1-1.3c1.1-0.9,1.6-2.2,1.6-3.9c0-1.7-0.6-3-1.7-3.7    c-1.1-0.8-2.8-1.1-5.1-1.1h-3.3V216.9z"/>
		<linearGradient id="SVGID_41_" gradientUnits="userSpaceOnUse" x1="339.1357" y1="280.2556" x2="339.1357" y2="9.0891">
			<stop offset="0" style="stop-color:#640057"/>
			<stop offset="0.1834" style="stop-color:#7B0F4F"/>
			<stop offset="0.5687" style="stop-color:#B6343A"/>
			<stop offset="1" style="stop-color:#FF6221"/>
		</linearGradient>
		<path fill="url(#SVGID_41_)" d="M349,225c0,2.7-1,4.9-3,6.4c-2,1.6-4.7,2.3-8.2,2.3c-3.5,0-6.3-0.5-8.5-1.6v-4.7    c1.4,0.7,2.9,1.2,4.5,1.6c1.6,0.4,3,0.6,4.4,0.6c2,0,3.5-0.4,4.4-1.1c0.9-0.8,1.4-1.8,1.4-3c0-1.1-0.4-2.1-1.3-2.9    c-0.9-0.8-2.7-1.7-5.4-2.8c-2.8-1.1-4.8-2.4-5.9-3.9c-1.1-1.5-1.7-3.2-1.7-5.2c0-2.6,0.9-4.6,2.7-6c1.8-1.5,4.3-2.2,7.3-2.2    c2.9,0,5.9,0.6,8.8,1.9l-1.6,4.1c-2.7-1.1-5.2-1.7-7.3-1.7c-1.6,0-2.9,0.4-3.7,1.1s-1.3,1.6-1.3,2.8c0,0.8,0.2,1.5,0.5,2    c0.3,0.6,0.9,1.1,1.7,1.6s2.2,1.2,4.2,2c2.3,0.9,3.9,1.8,5,2.6c1,0.8,1.8,1.7,2.3,2.8C348.7,222.4,349,223.6,349,225z"/>
	</g>
	<linearGradient id="SVGID_42_" gradientUnits="userSpaceOnUse" x1="239.5114" y1="280.2556" x2="239.5114" y2="9.0891">
		<stop offset="0" style="stop-color:#640057"/>
		<stop offset="0.1834" style="stop-color:#7B0F4F"/>
		<stop offset="0.5687" style="stop-color:#B6343A"/>
		<stop offset="1" style="stop-color:#FF6221"/>
	</linearGradient>
	<path fill="url(#SVGID_42_)" d="M203.9,180c4.5,0,8.2-3.7,8.2-8.2c0-1.2-0.3-2.5-0.8-3.5l11-11c1.1,0.5,2.3,0.8,3.5,0.8   s2.5-0.3,3.5-0.8l5.5,5.5c-0.5,1.1-0.8,2.3-0.8,3.5c0,4.5,3.7,8.2,8.2,8.2c4.5,0,8.2-3.7,8.2-8.2c0-1.2-0.3-2.5-0.8-3.5l21.9-21.9   c1.1,0.5,2.3,0.8,3.5,0.8c4.5,0,8.2-3.7,8.2-8.2c0-4.5-3.7-8.2-8.2-8.2s-8.2,3.7-8.2,8.2c0,1.2,0.3,2.5,0.8,3.5l-21.9,21.9   c-1.1-0.5-2.3-0.8-3.5-0.8c-1.2,0-2.5,0.3-3.5,0.8l-5.5-5.5c0.5-1.1,0.8-2.3,0.8-3.5c0-4.5-3.7-8.2-8.2-8.2s-8.2,3.7-8.2,8.2   c0,1.2,0.3,2.5,0.8,3.5l-11,11c-1.1-0.5-2.3-0.8-3.5-0.8c-4.5,0-8.2,3.7-8.2,8.2S199.4,180,203.9,180z M275.1,130.7   c1.5,0,2.7,1.2,2.7,2.7s-1.2,2.7-2.7,2.7c-1.5,0-2.7-1.2-2.7-2.7C272.4,131.9,273.6,130.7,275.1,130.7z M245,166.3   c0,1.5-1.2,2.7-2.7,2.7c-1.5,0-2.7-1.2-2.7-2.7c0-1.5,1.2-2.7,2.7-2.7C243.7,163.5,245,164.8,245,166.3z M225.8,147.1   c1.5,0,2.7,1.2,2.7,2.7c0,1.5-1.2,2.7-2.7,2.7s-2.7-1.2-2.7-2.7C223.1,148.3,224.3,147.1,225.8,147.1z M203.9,169   c1.5,0,2.7,1.2,2.7,2.7c0,1.5-1.2,2.7-2.7,2.7c-1.5,0-2.7-1.2-2.7-2.7S202.4,169,203.9,169z"/>
</g>
</svg>