<svg width="50" height="50" viewBox="0 0 50 50" fill="none" xmlns="http://www.w3.org/2000/svg">
<path d="M25.2013 39.351C17.0048 39.351 10.3363 32.8203 10.3363 24.7933C10.3363 16.7662 17.0048 10.2355 25.2013 10.2355C33.3978 10.2355 40.0663 16.7662 40.0663 24.7933C40.0676 32.8203 33.3991 39.351 25.2013 39.351ZM25.2013 11.7896C17.881 11.7896 11.9245 17.623 11.9245 24.7933C11.9245 31.9635 17.881 37.7956 25.2013 37.7956C32.5229 37.7956 38.4794 31.9622 38.4794 24.792C38.4794 17.6218 32.5241 11.7896 25.2013 11.7896Z" fill="#F4B71A"/>
<path d="M25.3567 48.9998C24.3104 48.9998 23.3043 48.5576 22.5991 47.7862L21.5783 46.6736C21.1754 46.2279 20.5807 45.97 19.9507 45.97C19.6558 45.97 19.3718 46.027 19.1048 46.1376L17.7017 46.7236C17.2381 46.9197 16.7453 47.0183 16.2355 47.0183C14.5885 47.0183 13.1211 45.9402 12.6672 44.3986L12.2436 42.9627C11.9911 42.0879 11.1901 41.4698 10.2518 41.4306L8.72498 41.3699C7.66904 41.326 6.67742 40.8351 6.00259 40.0232C5.33868 39.2138 5.0571 38.1594 5.22944 37.1348L5.48797 35.6621C5.63604 34.7552 5.18575 33.8625 4.36527 33.4346L3.02653 32.7274C2.09196 32.2388 1.4147 31.3747 1.1671 30.3537C0.923142 29.3433 1.13554 28.2747 1.7509 27.4201L2.62843 26.197C3.17461 25.4553 3.16975 24.4545 2.61265 23.7116L1.71449 22.5098C1.087 21.6719 0.857601 20.6056 1.087 19.5858C1.31518 18.5695 1.97908 17.6959 2.9088 17.1871L4.24026 16.4585C5.05831 16.0116 5.49404 15.107 5.32169 14.2072L5.04253 12.7428C4.85076 11.723 5.11535 10.6675 5.77077 9.8473C6.42982 9.02358 7.41415 8.5196 8.4701 8.46611L9.9909 8.37458C10.9315 8.32347 11.7265 7.69587 11.9668 6.8139L12.3686 5.3709C12.8043 3.79596 14.2766 2.69647 15.9467 2.69647C16.4127 2.69647 16.8885 2.79037 17.3619 2.97461L18.771 3.53921C19.0307 3.64262 19.305 3.69492 19.5878 3.69492C20.2287 3.69492 20.8319 3.42867 21.2434 2.96391L22.2362 1.82995C22.9414 1.0407 23.9645 0.585449 25.0375 0.585449C26.0837 0.585449 27.0887 1.02762 27.7951 1.79905L28.817 2.91161C29.2188 3.35735 29.8135 3.61528 30.4446 3.61528C30.7383 3.61528 31.0236 3.55823 31.2894 3.44769L32.6924 2.86169C33.1488 2.66794 33.6549 2.56691 34.1586 2.56691C35.8056 2.56691 37.273 3.645 37.727 5.18666L38.1724 6.61897C38.4249 7.48786 39.2259 8.10476 40.1617 8.14399L41.6898 8.20461C42.7457 8.24859 43.7361 8.73949 44.411 9.55133C45.0749 10.3608 45.3565 11.4151 45.1841 12.4397L44.9268 13.9124C44.7787 14.8194 45.229 15.7132 46.0483 16.1399L47.3882 16.846C48.324 17.3357 49.0001 18.1999 49.2465 19.2185C49.4904 20.2289 49.278 21.2974 48.6627 22.1521L47.7851 23.3752C47.2402 24.1169 47.2438 25.1165 47.8009 25.8606L48.6966 27.0718C49.3266 27.911 49.5548 28.9772 49.3266 29.9971C49.0996 31.0122 48.4357 31.887 47.5048 32.3957L46.1733 33.1244C45.354 33.5713 44.9195 34.4758 45.0931 35.3756L45.3722 36.8389C45.5628 37.8611 45.297 38.9166 44.644 39.7356C43.9922 40.551 43.0067 41.0538 41.9398 41.1168L40.413 41.2083C39.4735 41.2606 38.6785 41.8882 38.4382 42.769L38.0353 44.212C37.5995 45.7869 36.1285 46.8864 34.4584 46.8864C33.9899 46.8864 33.5141 46.7925 33.0432 46.6083L31.6341 46.0437C31.3743 45.9402 31.1 45.8879 30.8172 45.8879C30.1764 45.8879 29.572 46.1542 29.1617 46.6201L28.1604 47.7517C27.4516 48.5445 26.4296 48.9998 25.3567 48.9998ZM19.9495 44.4414C21.0043 44.4414 22.0129 44.8835 22.718 45.6538L23.7388 46.7663C24.1514 47.2204 24.7255 47.4724 25.3567 47.4724C26.0012 47.4724 26.5862 47.2109 27.0025 46.7378L28.0014 45.6193C28.7102 44.8265 29.7334 44.3712 30.8063 44.3712C31.2748 44.3712 31.7506 44.4651 32.2215 44.6494L33.6319 45.214C33.9013 45.3186 34.178 45.3709 34.4584 45.3709C35.4415 45.3709 36.3045 44.7243 36.5582 43.7995L36.9599 42.3672C37.3786 40.8612 38.7319 39.7914 40.328 39.7011L41.8464 39.6096C42.4836 39.5703 43.048 39.2815 43.4339 38.7977C43.8272 38.3056 43.9789 37.7006 43.8612 37.0944L43.582 35.6312C43.2907 34.0979 44.0323 32.5586 45.4305 31.799L46.762 31.0704C47.3178 30.7637 47.6978 30.2657 47.8288 29.6678C47.9551 29.1008 47.841 28.4863 47.5169 27.9823L46.5993 26.7521C45.6563 25.4909 45.6417 23.7853 46.5629 22.5075L47.4417 21.2844C47.7985 20.7911 47.9211 20.1659 47.7766 19.5692C47.6286 18.9618 47.239 18.4685 46.6782 18.1808L45.3419 17.476C43.934 16.7378 43.1657 15.2081 43.4291 13.6688L43.6876 12.1949C43.7944 11.5887 43.633 10.9884 43.2324 10.5034C42.8356 10.0232 42.2675 9.74389 41.6291 9.71774L40.1022 9.65712C38.5135 9.5858 37.1456 8.53267 36.6977 7.03499L36.2766 5.60149C36.0096 4.69813 35.1527 4.06815 34.1914 4.06815C33.8892 4.06815 33.61 4.12402 33.3357 4.23813L31.9326 4.82413C31.469 5.02025 30.9762 5.11891 30.4665 5.11891C29.4117 5.11891 28.4043 4.67673 27.7004 3.90531L26.6772 2.79394C26.2658 2.33988 25.6917 2.08789 25.0605 2.08789C24.4148 2.08789 23.831 2.3482 23.4159 2.82246L22.417 3.94097C21.7082 4.73379 20.685 5.18904 19.6121 5.18904C19.1436 5.18904 18.6678 5.09514 18.1969 4.9109L16.7866 4.34629C16.5195 4.24169 16.2428 4.18939 15.96 4.18939C14.9781 4.18939 14.1139 4.83601 13.8603 5.76196L13.4585 7.20496C13.0289 8.71216 11.6755 9.78431 10.0892 9.87226L8.56962 9.96379C7.93484 10.003 7.37046 10.2907 6.98207 10.7744C6.58761 11.2677 6.43589 11.8727 6.55483 12.4801L6.82185 13.9303C7.11315 15.4648 6.37156 17.0053 4.97456 17.7648L3.6431 18.4934C3.086 18.8001 2.70732 19.2982 2.57624 19.896C2.4318 20.482 2.5641 21.1108 2.94036 21.61L3.8373 22.8106C4.77915 24.0717 4.79372 25.7774 3.8725 27.0552L2.99497 28.2795C2.63086 28.7633 2.5022 29.392 2.65028 29.9947C2.79835 30.6021 3.18796 31.0954 3.7487 31.3818L5.0838 32.0867C6.49172 32.8248 7.26122 34.3546 6.99785 35.8951L6.73932 37.3678C6.63251 37.974 6.79394 38.5743 7.19326 39.058C7.57072 39.5299 8.15331 39.8176 8.78567 39.8449L10.3137 39.9055C11.9025 39.9769 13.2716 41.03 13.717 42.5277L14.1394 43.9612C14.4064 44.8645 15.2645 45.4945 16.2258 45.4945C16.5268 45.4945 16.806 45.4386 17.0815 45.3233L18.4846 44.7373C18.9458 44.5412 19.4385 44.4414 19.9495 44.4414Z" fill="#F4B71A"/>
<path d="M23.2722 28.8C23.0579 28.8 22.8586 28.719 22.7082 28.5717L19.9267 25.8367C19.6246 25.5359 19.6284 25.0412 19.9367 24.7393C20.0871 24.5919 20.2864 24.5097 20.497 24.5097C20.7076 24.5097 20.9069 24.5907 21.0573 24.7393L23.2697 26.9194L29.3453 21.0038C29.4932 20.8626 29.6926 20.7828 29.9069 20.7828C30.1225 20.7828 30.3256 20.8651 30.4772 21.0136C30.7793 21.3143 30.7756 21.8091 30.4672 22.111L23.8288 28.5693C23.6796 28.7178 23.4778 28.8 23.2722 28.8Z" fill="#F4B71A"/>
<path d="M25.2013 39.351C17.0048 39.351 10.3363 32.8203 10.3363 24.7933C10.3363 16.7662 17.0048 10.2355 25.2013 10.2355C33.3978 10.2355 40.0663 16.7662 40.0663 24.7933C40.0676 32.8203 33.3991 39.351 25.2013 39.351ZM25.2013 11.7896C17.881 11.7896 11.9245 17.623 11.9245 24.7933C11.9245 31.9635 17.881 37.7956 25.2013 37.7956C32.5229 37.7956 38.4794 31.9622 38.4794 24.792C38.4794 17.6218 32.5241 11.7896 25.2013 11.7896Z" stroke="#F4B71A" stroke-width="0.5"/>
<path d="M25.3567 48.9998C24.3104 48.9998 23.3043 48.5576 22.5991 47.7862L21.5783 46.6736C21.1754 46.2279 20.5807 45.97 19.9507 45.97C19.6558 45.97 19.3718 46.027 19.1048 46.1376L17.7017 46.7236C17.2381 46.9197 16.7453 47.0183 16.2355 47.0183C14.5885 47.0183 13.1211 45.9402 12.6672 44.3986L12.2436 42.9627C11.9911 42.0879 11.1901 41.4698 10.2518 41.4306L8.72498 41.3699C7.66904 41.326 6.67742 40.8351 6.00259 40.0232C5.33868 39.2138 5.0571 38.1594 5.22944 37.1348L5.48797 35.6621C5.63604 34.7552 5.18575 33.8625 4.36527 33.4346L3.02653 32.7274C2.09196 32.2388 1.4147 31.3747 1.1671 30.3537C0.923142 29.3433 1.13554 28.2747 1.7509 27.4201L2.62843 26.197C3.17461 25.4553 3.16975 24.4545 2.61265 23.7116L1.71449 22.5098C1.087 21.6719 0.857601 20.6056 1.087 19.5858C1.31518 18.5695 1.97908 17.6959 2.9088 17.1871L4.24026 16.4585C5.05831 16.0116 5.49404 15.107 5.32169 14.2072L5.04253 12.7428C4.85076 11.723 5.11535 10.6675 5.77077 9.8473C6.42982 9.02358 7.41415 8.5196 8.4701 8.46611L9.9909 8.37458C10.9315 8.32347 11.7265 7.69587 11.9668 6.8139L12.3686 5.3709C12.8043 3.79596 14.2766 2.69647 15.9467 2.69647C16.4127 2.69647 16.8885 2.79037 17.3619 2.97461L18.771 3.53921C19.0307 3.64262 19.305 3.69492 19.5878 3.69492C20.2287 3.69492 20.8319 3.42867 21.2434 2.96391L22.2362 1.82995C22.9414 1.0407 23.9645 0.585449 25.0375 0.585449C26.0837 0.585449 27.0887 1.02762 27.7951 1.79905L28.817 2.91161C29.2188 3.35735 29.8135 3.61528 30.4446 3.61528C30.7383 3.61528 31.0236 3.55823 31.2894 3.44769L32.6924 2.86169C33.1488 2.66794 33.6549 2.56691 34.1586 2.56691C35.8056 2.56691 37.273 3.645 37.727 5.18666L38.1724 6.61897C38.4249 7.48786 39.2259 8.10476 40.1617 8.14399L41.6898 8.20461C42.7457 8.24859 43.7361 8.73949 44.411 9.55133C45.0749 10.3608 45.3565 11.4151 45.1841 12.4397L44.9268 13.9124C44.7787 14.8194 45.229 15.7132 46.0483 16.1399L47.3882 16.846C48.324 17.3357 49.0001 18.1999 49.2465 19.2185C49.4904 20.2289 49.278 21.2974 48.6627 22.1521L47.7851 23.3752C47.2402 24.1169 47.2438 25.1165 47.8009 25.8606L48.6966 27.0718C49.3266 27.911 49.5548 28.9772 49.3266 29.9971C49.0996 31.0122 48.4357 31.887 47.5048 32.3957L46.1733 33.1244C45.354 33.5713 44.9195 34.4758 45.0931 35.3756L45.3722 36.8389C45.5628 37.8611 45.297 38.9166 44.644 39.7356C43.9922 40.551 43.0067 41.0538 41.9398 41.1168L40.413 41.2083C39.4735 41.2606 38.6785 41.8882 38.4382 42.769L38.0353 44.212C37.5995 45.7869 36.1285 46.8864 34.4584 46.8864C33.9899 46.8864 33.5141 46.7925 33.0432 46.6083L31.6341 46.0437C31.3743 45.9402 31.1 45.8879 30.8172 45.8879C30.1764 45.8879 29.572 46.1542 29.1617 46.6201L28.1604 47.7517C27.4516 48.5445 26.4296 48.9998 25.3567 48.9998ZM19.9495 44.4414C21.0043 44.4414 22.0129 44.8835 22.718 45.6538L23.7388 46.7663C24.1514 47.2204 24.7255 47.4724 25.3567 47.4724C26.0012 47.4724 26.5862 47.2109 27.0025 46.7378L28.0014 45.6193C28.7102 44.8265 29.7334 44.3712 30.8063 44.3712C31.2748 44.3712 31.7506 44.4651 32.2215 44.6494L33.6319 45.214C33.9013 45.3186 34.178 45.3709 34.4584 45.3709C35.4415 45.3709 36.3045 44.7243 36.5582 43.7995L36.9599 42.3672C37.3786 40.8612 38.7319 39.7914 40.328 39.7011L41.8464 39.6096C42.4836 39.5703 43.048 39.2815 43.4339 38.7977C43.8272 38.3056 43.9789 37.7006 43.8612 37.0944L43.582 35.6312C43.2907 34.0979 44.0323 32.5586 45.4305 31.799L46.762 31.0704C47.3178 30.7637 47.6978 30.2657 47.8288 29.6678C47.9551 29.1008 47.841 28.4863 47.5169 27.9823L46.5993 26.7521C45.6563 25.4909 45.6417 23.7853 46.5629 22.5075L47.4417 21.2844C47.7985 20.7911 47.9211 20.1659 47.7766 19.5692C47.6286 18.9618 47.239 18.4685 46.6782 18.1808L45.3419 17.476C43.934 16.7378 43.1657 15.2081 43.4291 13.6688L43.6876 12.1949C43.7944 11.5887 43.633 10.9884 43.2324 10.5034C42.8356 10.0232 42.2675 9.74389 41.6291 9.71774L40.1022 9.65712C38.5135 9.5858 37.1456 8.53267 36.6977 7.03499L36.2766 5.60149C36.0096 4.69813 35.1527 4.06815 34.1914 4.06815C33.8892 4.06815 33.61 4.12402 33.3357 4.23813L31.9326 4.82413C31.469 5.02025 30.9762 5.11891 30.4665 5.11891C29.4117 5.11891 28.4043 4.67673 27.7004 3.90531L26.6772 2.79394C26.2658 2.33988 25.6917 2.08789 25.0605 2.08789C24.4148 2.08789 23.831 2.3482 23.4159 2.82246L22.417 3.94097C21.7082 4.73379 20.685 5.18904 19.6121 5.18904C19.1436 5.18904 18.6678 5.09514 18.1969 4.9109L16.7866 4.34629C16.5195 4.24169 16.2428 4.18939 15.96 4.18939C14.9781 4.18939 14.1139 4.83601 13.8603 5.76196L13.4585 7.20496C13.0289 8.71216 11.6755 9.78431 10.0892 9.87226L8.56962 9.96379C7.93484 10.003 7.37046 10.2907 6.98207 10.7744C6.58761 11.2677 6.43589 11.8727 6.55483 12.4801L6.82185 13.9303C7.11315 15.4648 6.37156 17.0053 4.97456 17.7648L3.6431 18.4934C3.086 18.8001 2.70732 19.2982 2.57624 19.896C2.4318 20.482 2.5641 21.1108 2.94036 21.61L3.8373 22.8106C4.77915 24.0717 4.79372 25.7774 3.8725 27.0552L2.99497 28.2795C2.63086 28.7633 2.5022 29.392 2.65028 29.9947C2.79835 30.6021 3.18796 31.0954 3.7487 31.3818L5.0838 32.0867C6.49172 32.8248 7.26122 34.3546 6.99785 35.8951L6.73932 37.3678C6.63251 37.974 6.79394 38.5743 7.19326 39.058C7.57072 39.5299 8.15331 39.8176 8.78567 39.8449L10.3137 39.9055C11.9025 39.9769 13.2716 41.03 13.717 42.5277L14.1394 43.9612C14.4064 44.8645 15.2645 45.4945 16.2258 45.4945C16.5268 45.4945 16.806 45.4386 17.0815 45.3233L18.4846 44.7373C18.9458 44.5412 19.4385 44.4414 19.9495 44.4414Z" stroke="#F4B71A" stroke-width="0.5"/>
<path d="M23.2722 28.8C23.0579 28.8 22.8586 28.719 22.7082 28.5717L19.9267 25.8367C19.6246 25.5359 19.6284 25.0412 19.9367 24.7393C20.0871 24.5919 20.2864 24.5097 20.497 24.5097C20.7076 24.5097 20.9069 24.5907 21.0573 24.7393L23.2697 26.9194L29.3453 21.0038C29.4932 20.8626 29.6926 20.7828 29.9069 20.7828C30.1225 20.7828 30.3256 20.8651 30.4772 21.0136C30.7793 21.3143 30.7756 21.8091 30.4672 22.111L23.8288 28.5693C23.6796 28.7178 23.4778 28.8 23.2722 28.8Z" stroke="#F4B71A" stroke-width="0.5"/>
</svg>