<svg xmlns="http://www.w3.org/2000/svg" width="64" height="56" viewBox="0 0 64 56"><g><g><g><g><path d="M63 51.5H1c-.369 0-.708-.202-.882-.526a1.002 1.002 0 0 1 .05-1.027l10-15a1 1 0 1 1 1.664 1.112L2.868 49.5h58.264l-8.964-13.445a.999.999 0 0 1 .277-1.387.998.998 0 0 1 1.387.277l10 15A1 1 0 0 1 63 51.5z"/></g><g><path d="M2 51.5h60v2H2zm62 3v-4a1 1 0 0 0-1-1H1a1 1 0 0 0-1 1v4a1 1 0 0 0 1 1h62a1 1 0 0 0 1-1z"/></g><g><path d="M9.85 51.501a1 1 0 0 1-.902-1.432l5.243-11a.998.998 0 0 1 1.333-.47c.498.235.71.833.472 1.331l-5.243 11a.997.997 0 0 1-.903.571z"/></g><g><path d="M20.13 46.5a1 1 0 0 1-.962-1.275l1.435-5a1 1 0 0 1 1.922.55l-1.434 5a.998.998 0 0 1-.96.724z"/></g><g><path d="M54.147 51.502a1 1 0 0 1-.902-.568l-1.908-4.002a1 1 0 0 1 1.805-.86l1.908 4.001a.999.999 0 0 1-.903 1.43z"/></g><g><path d="M50.334 43.494a1 1 0 0 1-.903-.569l-3.334-6.994a1 1 0 0 1 1.805-.86l3.334 6.993a1 1 0 0 1-.902 1.43z"/></g><g><path d="M43.863 46.499a.998.998 0 0 1-.96-.725l-1.434-5a.998.998 0 0 1 .686-1.236 1.002 1.002 0 0 1 1.236.686l1.434 5a.999.999 0 0 1-.962 1.275z"/></g><g><path d="M15.091 40.5H8.33a1 1 0 1 1 0-2h6.761a1 1 0 1 1 0 2z"/></g><g><path d="M60.329 47.5H52.24a1 1 0 1 1 0-2h8.089c.554 0 1 .447 1 1 0 .553-.446 1-1 1z"/></g><g><path d="M57.67 43.5h-7.33a1 1 0 1 1 0-2h7.33c.554 0 1 .447 1 1 0 .553-.446 1-1 1z"/></g><g><path d="M30.004 41.5H21.57a1 1 0 1 1 0-2h8.434a1 1 0 1 1 0 2z"/></g><g><path d="M42.431 41.5H34.09a1 1 0 1 1 0-2h8.341a1 1 0 1 1 0 2z"/></g><g><path d="M43.864 46.5H20.13a1 1 0 1 1 0-2h23.734a1 1 0 1 1 0 2z"/></g><g><path d="M46 16.5c0 10.735-11.145 21.946-14 24.641-2.856-2.698-14-13.907-14-24.641 0-7.72 6.28-14 14-14 7.721 0 14 6.28 14 14zM32.659 43.252C33.285 42.703 48 29.659 48 16.5c0-8.822-7.178-16-16-16s-16 7.178-16 16c0 13.159 14.715 26.203 15.341 26.752a.998.998 0 0 0 1.318 0z"/></g><g><path d="M25.427 36.5H11a1 1 0 1 1 0-2h14.427a1 1 0 1 1 0 2z"/></g><g><path d="M52.998 36.5H38.57a1 1 0 1 1 0-2h14.428a1 1 0 1 1 0 2z"/></g></g><g><g><path d="M31.99 7.5c4.963 0 9 4.037 9 9s-4.037 9-9 9-9-4.037-9-9 4.037-9 9-9zm11 9c0-6.065-4.935-11-11-11s-11 4.935-11 11 4.935 11 11 11c6.066 0 11-4.935 11-11z"/></g><g><path d="M40.459 12.192a.906.906 0 0 1-.146-.01l-4.197-.618a1.002 1.002 0 0 1-.752-.547l-1.86-3.775a1 1 0 1 1 1.793-.885l1.63 3.305 3.678.541a1 1 0 0 1-.146 1.99z"/></g><g><path d="M39.617 23.953a.999.999 0 0 1-.984-.83l-.729-4.259a1.004 1.004 0 0 1 .29-.886l3.053-2.975a.999.999 0 1 1 1.394 1.434l-2.679 2.607.64 3.74a.996.996 0 0 1-.985 1.17z"/></g><g><path d="M35.828 26.722c-.156 0-.313-.036-.464-.114l-3.375-1.769-3.374 1.769a1.001 1.001 0 0 1-.928-1.772l3.838-2.012c.289-.152.637-.152.928 0l3.84 2.012a1 1 0 0 1-.465 1.886z"/></g><g><path d="M24.359 23.952a.998.998 0 0 1-.986-1.169l.642-3.739-2.682-2.607a1 1 0 0 1 1.394-1.434l3.059 2.975a1 1 0 0 1 .288.886l-.73 4.258a1 1 0 0 1-.985.83z"/></g><g><path d="M23.519 12.192a1 1 0 0 1-.144-1.99l3.678-.54 1.627-3.304a1 1 0 0 1 1.795.883l-1.86 3.775c-.145.295-.426.5-.751.548l-4.197.617a.854.854 0 0 1-.148.01z"/></g><g><path d="M29.487 15.558l2.504-1.821 2.504 1.821-.957 2.942h-3.094zm4.78 4.942c.431 0 .816-.278.951-.69l1.407-4.324a1 1 0 0 0-.362-1.118l-3.683-2.676a.996.996 0 0 0-1.176 0l-3.682 2.676a1 1 0 0 0-.363 1.118l1.407 4.324a1 1 0 0 0 .951.69z"/></g></g></g></g></svg>