<svg width="64" height="64" viewBox="0 0 64 64" fill="none" xmlns="http://www.w3.org/2000/svg">
<path d="M59.7334 8.53345V10.6668C60.9115 10.6668 61.8667 11.622 61.8667 12.8001V44.8001H59.7334V46.9334H61.8667V49.0668C61.8667 50.2449 60.9115 51.2001 59.7334 51.2001V53.3334C62.0896 53.3334 64.0001 51.423 64.0001 49.0668V12.8001C64.0001 10.4439 62.0896 8.53345 59.7334 8.53345Z" fill="#03A87C"/>
<path d="M4.26667 53.3335H25.2328L22.6729 61.8668H20.2667V64.0001H43.7333V61.8668H24.9005L27.4604 53.3335H28.8V51.2001H4.26667C3.08854 51.2001 2.13333 50.2449 2.13333 49.0668V46.9334H36.2667V44.8001H2.13333V12.8001C2.13333 11.622 3.08854 10.6668 4.26667 10.6668V8.53345C1.91042 8.53345 0 10.4439 0 12.8001V49.0668C0 51.423 1.91042 53.3335 4.26667 53.3335Z" fill="#03A87C"/>
<path d="M8.53372 4.26667C8.53372 3.08854 9.48893 2.13333 10.6671 2.13333H53.3337C54.5118 2.13333 55.4671 3.08854 55.4671 4.26667V42.6667H57.6004V4.26667C57.6004 1.91042 55.69 0 53.3337 0H10.6671C8.31081 0 6.40039 1.91042 6.40039 4.26667V42.6667H8.53372V4.26667Z" fill="#03A87C"/>
<path d="M10.666 4.2666H12.7993V6.39993H10.666V4.2666Z" fill="#03A87C"/>
<path d="M14.9336 4.2666H17.0669V6.39993H14.9336V4.2666Z" fill="#03A87C"/>
<path d="M19.2002 4.2666H21.3335V6.39993H19.2002V4.2666Z" fill="#03A87C"/>
<path d="M19.2005 40.5334H36.2672V38.4H19.2005C17.4333 38.4 16.0005 36.9672 16.0005 35.2C16.0005 33.4328 17.4333 32 19.2005 32H44.8005C46.0943 31.999 47.2609 32.7771 47.7578 33.9714C48.2547 35.1657 47.9833 36.5417 47.0703 37.4584C46.8698 37.6563 46.6448 37.8287 46.4005 37.9703L47.4672 39.8177C47.8724 39.5818 48.2464 39.2953 48.5786 38.9641C50.1 37.4375 50.5526 35.1448 49.726 33.1547C48.8995 31.1641 46.9557 29.8667 44.8005 29.8667H19.2005C16.2552 29.8667 13.8672 32.2547 13.8672 35.2C13.8672 38.1453 16.2552 40.5334 19.2005 40.5334Z" fill="#03A87C"/>
<path d="M30.9336 34.1333H33.0669V36.2666H30.9336V34.1333Z" fill="#03A87C"/>
<path d="M35.2002 34.1333H37.3335V36.2666H35.2002V34.1333Z" fill="#03A87C"/>
<path d="M26.666 34.1333H28.7993V36.2666H26.666V34.1333Z" fill="#03A87C"/>
<path d="M22.4004 34.1333H24.5337V36.2666H22.4004V34.1333Z" fill="#03A87C"/>
<path d="M18.1328 34.1333H20.2661V36.2666H18.1328V34.1333Z" fill="#03A87C"/>
<path d="M25.3298 25.0292C25.4064 25.1031 25.4897 25.1672 25.5678 25.2427C25.7011 25.363 25.8329 25.4859 25.973 25.5989C26.0871 25.6906 26.2053 25.7739 26.3215 25.8604C26.4381 25.9469 26.5767 26.051 26.71 26.1396C26.8433 26.2281 26.9928 26.3146 27.1366 26.4C27.2548 26.4693 27.3715 26.5427 27.4939 26.6135C27.6548 26.6984 27.8215 26.7745 27.9866 26.851C28.0996 26.9036 28.2105 26.9578 28.3261 27.0078C28.5011 27.0807 28.6814 27.1411 28.8595 27.2041C28.9725 27.2437 29.0834 27.2875 29.1985 27.3229C29.3829 27.3791 29.573 27.4229 29.7616 27.4677C29.8767 27.4953 29.9902 27.5297 30.1074 27.5531C30.3131 27.5937 30.5209 27.6203 30.7303 27.6479C30.8371 27.662 30.936 27.6833 31.0418 27.6937C31.3616 27.725 31.6819 27.7416 32.0017 27.7416C32.3215 27.7416 32.6418 27.725 32.9616 27.6937C33.0683 27.6833 33.1689 27.662 33.273 27.6479C33.4866 27.6203 33.6902 27.5937 33.8959 27.5531C34.0136 27.5297 34.1267 27.4953 34.2418 27.4677C34.4303 27.4229 34.6204 27.3791 34.8048 27.3229C34.9199 27.2875 35.0308 27.2437 35.1439 27.2041C35.3246 27.1411 35.5048 27.0807 35.6772 27.0078C35.7928 26.9599 35.9038 26.9015 36.0168 26.851C36.1819 26.7745 36.3485 26.6984 36.5095 26.6135C36.6319 26.5474 36.7485 26.4734 36.8668 26.4C37.0105 26.3146 37.1548 26.2323 37.2933 26.1396C37.4319 26.0469 37.5527 25.9541 37.6819 25.8604C37.8105 25.7661 37.9163 25.6906 38.0303 25.5989C38.1704 25.4859 38.3027 25.363 38.436 25.2427C38.5136 25.1713 38.597 25.1073 38.6735 25.0292C38.6814 25.0219 38.6845 25.0135 38.6918 25.0057C41.4949 22.2828 42.3678 18.1318 40.8985 14.5104C39.4293 10.889 35.911 8.51978 32.0027 8.51978C28.0944 8.51978 24.5767 10.889 23.1069 14.5104C21.6376 18.1318 22.5105 22.2828 25.3136 25.0057C25.3189 25.0135 25.322 25.0219 25.3298 25.0292ZM29.8673 17.0666C29.8673 15.8885 30.8225 14.9333 32.0006 14.9333C33.1788 14.9333 34.134 15.8885 34.134 17.0666C34.134 18.2448 33.1788 19.2 32.0006 19.2C30.8225 19.2 29.8673 18.2448 29.8673 17.0666ZM32.0006 21.3333C33.9038 21.3286 35.6642 22.3437 36.6131 23.9937L36.5511 24.0396C36.248 24.2776 35.9272 24.4916 35.5913 24.6797L35.572 24.6911C35.2454 24.8666 34.9064 25.0172 34.5574 25.1422C34.4944 25.1646 34.4324 25.1896 34.3699 25.2104C34.0308 25.325 33.684 25.414 33.3319 25.4771C33.2636 25.4901 33.1933 25.4984 33.1183 25.5094C32.3741 25.6344 31.6142 25.6344 30.8699 25.5094C30.8006 25.4984 30.7303 25.4901 30.6569 25.4771C30.3048 25.414 29.9579 25.325 29.6189 25.2104C29.5558 25.1896 29.4939 25.1646 29.4308 25.1422C29.0824 25.0172 28.7433 24.8666 28.4168 24.6911L28.3975 24.6797C28.061 24.4916 27.7402 24.2776 27.4376 24.0396L27.3756 23.9937C28.3267 22.3396 30.0928 21.3239 32.0006 21.3333ZM32.0006 10.6667C34.785 10.663 37.3397 12.2114 38.6251 14.6818C39.9105 17.1515 39.7126 20.1323 38.1116 22.4104C37.3678 21.3291 36.3511 20.4635 35.1642 19.9031C36.7084 18.1969 36.6209 15.5734 34.9668 13.9734C33.3131 12.3734 30.6881 12.3734 29.0345 13.9734C27.3803 15.5734 27.2928 18.1969 28.8371 19.9031C27.6501 20.4635 26.6334 21.3291 25.8897 22.4104C24.2886 20.1323 24.0907 17.1515 25.3761 14.6818C26.6616 12.2114 29.2163 10.663 32.0006 10.6667Z" fill="#03A87C"/>
<path d="M32.7327 49.6416L32.564 49.726C31.639 50.1885 31.0239 51.102 30.9426 52.1333C30.8619 53.165 31.327 54.163 32.1687 54.7645L38.8468 59.5348C39.0275 59.664 39.2442 59.7333 39.4666 59.7333H56.5332C57.1223 59.7333 57.5999 59.2557 57.5999 58.6666V47.0473C57.6202 45.4551 56.4968 44.0775 54.9332 43.777C54.0025 43.6218 53.0504 43.8848 52.3306 44.4947L52.2666 44.5494C51.053 43.4598 49.2134 43.4598 47.9999 44.5494C47.1176 43.7932 45.9041 43.5525 44.7999 43.9145V37.3333C44.8207 35.7411 43.6973 34.363 42.1332 34.063C41.2041 33.9057 40.2536 34.1661 39.5338 34.7744C38.8145 35.3828 38.3994 36.277 38.3999 37.2192V51.4494L35.5692 49.7505C34.7051 49.2286 33.6338 49.1874 32.7327 49.6416ZM38.9192 54.2473C39.2489 54.4442 39.6582 54.4489 39.9921 54.2598C40.3259 54.0708 40.5327 53.7171 40.5332 53.3333V37.2192C40.5332 36.9031 40.6728 36.6036 40.915 36.401C41.1572 36.1979 41.4765 36.113 41.7874 36.1687C42.3202 36.2989 42.6874 36.7854 42.6666 37.3333V46.9333C42.6666 47.5223 43.1442 47.9999 43.7332 47.9999C44.3223 47.9999 44.7999 47.5223 44.7999 46.9333C44.7999 46.3442 45.2775 45.8666 45.8666 45.8666C46.4556 45.8666 46.9332 46.3442 46.9332 46.9333C46.9332 47.5223 47.4108 47.9999 47.9999 47.9999C48.589 47.9999 49.0666 47.5223 49.0666 46.9333C49.0666 46.3442 49.5442 45.8666 50.1332 45.8666C50.7223 45.8666 51.1999 46.3442 51.1999 46.9333C51.1999 47.5223 51.6775 47.9999 52.2666 47.9999C52.8556 47.9999 53.3332 47.5223 53.3332 46.9333C53.3332 46.6203 53.4713 46.3229 53.7098 46.1203C53.9525 45.915 54.2733 45.8275 54.5864 45.8817C55.1192 46.0124 55.4864 46.4994 55.4666 47.0473V57.5999H39.8077L33.4077 53.0291C33.1937 52.8755 33.0666 52.6275 33.0666 52.3635C33.065 52.0546 33.24 51.7713 33.5166 51.6343L33.6853 51.5499C33.9348 51.4234 34.2312 51.4348 34.4702 51.5796L38.9192 54.2473Z" fill="#03A87C"/>
</svg>