<?xml version="1.0" encoding="UTF-8"?>
<!-- Generator: Adobe Illustrator 22.1.0, SVG Export Plug-In . SVG Version: 6.00 Build 0)  -->
<svg version="1.1" id="Capa_1" xmlns="http://www.w3.org/2000/svg" xmlns:xlink="http://www.w3.org/1999/xlink" x="0px" y="0px" viewBox="-48.9 141 511.7 512" enable-background="new -48.9 141 511.7 512" xml:space="preserve">
<linearGradient id="SVGID_1_" gradientUnits="userSpaceOnUse" x1="-47.855" y1="363" x2="460.063" y2="363">
	<stop offset="0" style="stop-color:#DF0231"/>
	<stop offset="1" style="stop-color:#FD5F42"/>
</linearGradient>
<path fill="url(#SVGID_1_)" d="M107.6,355.4c-1.7-1.5-4-2.4-6.4-2.4c-5.5,0-10,4.5-10,10c0,3.5,1.8,6.5,4.4,8.3  c1.6,1.1,3.5,1.7,5.6,1.7c5.5,0,10-4.5,10-10C111.1,359.9,109.8,357.2,107.6,355.4z"/>
<linearGradient id="SVGID_2_" gradientUnits="userSpaceOnUse" x1="-48.855" y1="397" x2="462.8553" y2="397">
	<stop offset="0" style="stop-color:#DF0231"/>
	<stop offset="1" style="stop-color:#FD5F42"/>
</linearGradient>
<path fill="url(#SVGID_2_)" d="M181.1,653c127.1,0,230-102.9,230-230c0-40.4-10.5-79.8-30.6-114.6c90.7-91,78.1-78.4,79.3-79.6  c2.7-2.7,3.6-6.8,2.3-10.4c-1.3-3.6-4.5-6.2-8.3-6.6l-55.7-6.2l-6.2-55.7c-0.4-3.8-3-7.1-6.6-8.3c-3.6-1.3-7.7-0.3-10.4,2.4  c-1.2,1.2,11.4-11.4-79.3,79.6c-34.8-20-74.2-30.6-114.6-30.6c-127.1,0-230,102.9-230,230C-48.9,550.1,54,653,181.1,653z   M365.6,295.1l-38.4-4.3c52.9-52.9-16,16,65.6-65.7l38.2,4.2C429.7,230.8,442.5,218,365.6,295.1z M251.4,338.4  C231.7,322,207.1,313,181.1,313c-19.3,0-37.3,4.8-55,14.8c-4.8,2.7-6.5,8.8-3.8,13.6c2.7,4.8,8.8,6.5,13.6,3.8  c14.8-8.3,29.1-12.2,45.2-12.2c20.6,0,40.2,6.9,56.1,19.7l-28.5,28.6c-8.1-5.4-17.6-8.3-27.5-8.3c-27.6,0-50,22.4-50,50  s22.4,50,50,50s50-22.4,50-50c0-10-2.9-19.5-8.3-27.6l28.5-28.6c12.8,15.9,19.8,35.5,19.8,56.2c0,49.6-40.4,90-90,90s-90-40.4-90-90  c0-8.6,1-14.8,2.6-21.6c1.3-5.4-2.1-10.8-7.5-12c-5.4-1.3-10.8,2.1-12,7.5c-2.2,9.6-3.1,17.1-3.1,26.1c0,60.7,49.3,110,110,110  s110-49.3,110-110c0-26-9-50.7-25.5-70.4l28.3-28.4c28.3,32.3,41.4,74.7,36,118C320.4,516.8,256.4,573,181.1,573  c-82.7,0-150-67.3-150-150s67.3-150,150-150c36.6,0,71.3,13.1,98.6,37.1L251.4,338.4z M211.1,423c0,16.5-13.5,30-30,30  s-30-13.5-30-30s13.5-30,30-30c4.5,0,8.9,1,12.9,2.9l-20,20c-3.9,3.9-3.9,10.2,0,14.1c3.9,3.9,10.2,3.9,14.1,0l20-20  C210.1,414,211.1,418.4,211.1,423z M374.5,172.8l4.2,38.1c-10.3,10.3-60.8,60.9-65.5,65.6l-4.2-38  C385.8,161.6,373.1,174.3,374.5,172.8z M181.1,213c38.3,0,75.7,10.4,108.3,30l5.7,51.6l-1.2,1.2c-31.2-27.7-70.8-42.9-112.8-42.9  c-93.7,0-170,76.3-170,170s76.3,170,170,170c85.3,0,157.8-63.8,168.6-148.3c6.2-49.4-9-98-41.7-134.6l1.1-1.1l51.9,5.8  c19.7,32.6,30,69.9,30,108.3c0,115.8-94.2,210-210,210s-210-94.2-210-210S65.3,213,181.1,213z"/>
</svg>