<svg width="35" height="59" viewBox="0 0 35 59" fill="none" xmlns="http://www.w3.org/2000/svg">
<path d="M18.2828 48.2349C18.1729 47.9031 17.8662 47.6644 17.5046 47.6644C17.143 47.6644 16.8364 47.9031 16.7265 48.2349C15.2075 47.2522 12.2678 44.7743 10.6894 41.9538L13.1877 41.0389C13.1895 41.0534 13.1921 41.0669 13.1939 41.0805C13.1983 41.1121 13.2037 41.1429 13.2081 41.1745C13.2143 41.2143 13.2214 41.2532 13.2285 41.292C13.2347 41.3228 13.2409 41.3535 13.2471 41.3842C13.2551 41.4231 13.2639 41.462 13.2737 41.5C13.2808 41.5298 13.2879 41.5605 13.2958 41.5904C13.3056 41.6292 13.3171 41.6672 13.3277 41.7061C13.3366 41.735 13.3446 41.7639 13.3534 41.7929C13.3659 41.8317 13.3791 41.8706 13.3924 41.9086C13.4022 41.9357 13.4111 41.9637 13.4208 41.9908C13.4359 42.0315 13.4509 42.0713 13.4669 42.1102C13.4766 42.1346 13.4864 42.1599 13.4961 42.1843C13.5147 42.2295 13.5351 42.2738 13.5555 42.3181C13.5635 42.3362 13.5715 42.3552 13.5803 42.3732C13.6096 42.4356 13.6406 42.4971 13.6725 42.5577C13.6778 42.5676 13.6831 42.5766 13.6884 42.5857C13.7159 42.6363 13.7443 42.6869 13.7735 42.7366C13.785 42.7565 13.7983 42.7764 13.8107 42.7963C13.8347 42.8343 13.8577 42.8732 13.8825 42.9102C13.8976 42.9328 13.9127 42.9545 13.9286 42.9771C13.9517 43.0115 13.9747 43.0449 13.9995 43.0784C14.0164 43.101 14.0332 43.1236 14.0509 43.1471C14.0749 43.1787 14.0988 43.2104 14.1236 43.2411C14.1413 43.2637 14.1599 43.2863 14.1785 43.3089C14.2034 43.3387 14.2282 43.3686 14.2539 43.3984C14.2734 43.4201 14.2929 43.4427 14.3124 43.4644C14.3381 43.4933 14.3647 43.5213 14.3921 43.5494C14.4125 43.5702 14.4329 43.5909 14.4533 43.6117C14.4808 43.6398 14.5091 43.6669 14.5375 43.6931C14.5579 43.713 14.5791 43.7329 14.6004 43.7519C14.6296 43.779 14.6598 43.8052 14.6899 43.8314C14.7112 43.8495 14.7316 43.8685 14.7537 43.8857C14.7856 43.9128 14.8184 43.9381 14.8512 43.9643C14.8716 43.9806 14.892 43.9968 14.9124 44.0122C14.9496 44.0402 14.9877 44.0683 15.0267 44.0954C15.0435 44.1071 15.0604 44.1198 15.0772 44.1315C15.133 44.1704 15.1898 44.2075 15.2474 44.2427C15.2518 44.2455 15.2571 44.2482 15.2615 44.2518C15.3147 44.2843 15.3679 44.316 15.422 44.3458C15.4415 44.3566 15.4618 44.3666 15.4822 44.3774C15.5221 44.3991 15.562 44.4199 15.6019 44.4398C15.6258 44.4516 15.6497 44.4624 15.6745 44.4742C15.7118 44.4922 15.749 44.5094 15.7871 44.5257C15.8128 44.5374 15.8394 44.5483 15.866 44.5591C15.9023 44.5745 15.9395 44.5899 15.9767 44.6034C16.0042 44.6143 16.0317 44.6242 16.0601 44.6342C16.0973 44.6477 16.1336 44.6604 16.1708 44.673C16.1992 44.6821 16.2276 44.6911 16.2568 44.7002C16.294 44.7119 16.3321 44.7228 16.3694 44.7327C16.3986 44.7409 16.4278 44.749 16.4571 44.7562C16.4952 44.7662 16.5342 44.7752 16.5723 44.7833C16.6016 44.7897 16.6308 44.796 16.6609 44.8023C16.7008 44.8105 16.7407 44.8177 16.7806 44.824C16.8098 44.8285 16.8382 44.834 16.8674 44.8385C16.9091 44.8448 16.9516 44.8502 16.9942 44.8548C17.0216 44.8584 17.0491 44.862 17.0766 44.8647C17.1236 44.8692 17.1714 44.8728 17.2184 44.8756C17.2423 44.8774 17.2654 44.8792 17.2893 44.881C17.3602 44.8846 17.432 44.8864 17.5046 44.8864C18.5965 44.8864 19.6263 44.4796 20.4275 43.7374C20.4807 43.6877 20.533 43.6371 20.5844 43.5846C20.6322 43.5358 20.6783 43.4861 20.7226 43.4364C20.7368 43.4201 20.751 43.4038 20.7652 43.3875C20.7953 43.3523 20.8254 43.3179 20.8547 43.2818C20.8706 43.2628 20.8857 43.2429 20.9008 43.2239C20.9282 43.1896 20.9548 43.1552 20.9805 43.12C20.9947 43.1001 21.0098 43.0811 21.0239 43.0612C21.0514 43.0232 21.078 42.9844 21.1037 42.9455C21.1152 42.9283 21.1267 42.912 21.1374 42.8949C21.1737 42.8388 21.2092 42.7828 21.2428 42.7249C21.2455 42.7204 21.2473 42.7168 21.2499 42.7122C21.281 42.6589 21.3111 42.6047 21.3403 42.5504C21.3501 42.5314 21.3598 42.5125 21.3696 42.4935C21.39 42.4528 21.4103 42.4121 21.4298 42.3705C21.4405 42.3488 21.4502 42.3262 21.46 42.3045C21.4777 42.2648 21.4954 42.2241 21.5123 42.1843C21.5211 42.1626 21.5309 42.1409 21.5397 42.1183C21.5575 42.074 21.5743 42.0297 21.5903 41.9845C21.5965 41.9664 21.6035 41.9483 21.6098 41.9303C21.6319 41.867 21.6523 41.8037 21.6718 41.7395C21.6744 41.7314 21.6762 41.7233 21.6789 41.7151C21.6948 41.6591 21.7108 41.603 21.725 41.5461C21.7303 41.5244 21.7347 41.5036 21.74 41.4819C21.7507 41.4376 21.7604 41.3933 21.7693 41.349C21.7746 41.3246 21.779 41.3002 21.7835 41.2767C21.7914 41.2333 21.7985 41.1899 21.8056 41.1456C21.8092 41.1221 21.8127 41.0977 21.8162 41.0742C21.818 41.0624 21.8198 41.0507 21.8216 41.0389L24.319 41.9538C22.7415 44.7734 19.8009 47.2522 18.2828 48.2349ZM26.5081 42.7547C28.7645 43.5819 30.2808 45.7805 30.2808 48.2249V56.3249H21.062V52.2894C21.062 51.238 20.2237 50.3828 19.1929 50.3828H18.3262V50.1134C19.496 49.5701 21.1312 48.2059 21.9917 47.405C23.0446 46.4232 24.7604 44.6387 25.885 42.5269L26.5081 42.7547ZM15.5903 56.3249V52.2894C15.5903 52.1628 15.6914 52.0589 15.8163 52.0589H17.4976C17.5002 52.0589 17.5029 52.0589 17.5046 52.0589C17.5073 52.0589 17.51 52.0589 17.5117 52.0589H19.1929C19.317 52.0589 19.4189 52.1619 19.4189 52.2894V56.3249H15.5903ZM4.72846 48.2249C4.72846 45.7796 6.24483 43.5819 8.50122 42.7547L9.12514 42.526C10.2498 44.6387 11.9656 46.4223 13.0184 47.4041C13.8781 48.2059 15.5141 49.5692 16.684 50.1125V50.3819H15.8172C14.7865 50.3819 13.9481 51.2371 13.9481 52.2885V56.324H4.72846V48.2249ZM9.80578 33.9822C8.57478 32.6406 7.8968 31.2421 7.8968 30.0443V27.7444H14.2654C15.4228 27.7444 16.3649 26.7844 16.3649 25.6028V24.3571C17.0296 23.8716 17.93 23.8707 18.5947 24.3571V25.6028C18.5947 26.7835 19.5359 27.7444 20.6943 27.7444H27.1089C27.1107 27.7444 27.1125 27.7444 27.1143 27.7444V30.0443C27.1143 30.4863 27.023 30.9582 26.8431 31.4464C26.6835 31.8794 26.898 32.3631 27.3225 32.5258C27.4182 32.5629 27.5157 32.58 27.6123 32.58C27.9447 32.58 28.2575 32.373 28.3816 32.0367C28.4631 31.8161 28.5305 31.5965 28.5854 31.3786C28.8132 31.4138 29.0427 31.4319 29.2749 31.4319C29.5984 31.4319 29.9139 31.3976 30.2188 31.3334L30.0805 31.7908C29.695 33.0637 28.5588 33.9198 27.2534 33.9198H25.9559C25.6209 32.9986 24.7506 32.3396 23.7323 32.3396H21.4626C20.1554 32.3396 19.0919 33.4253 19.0919 34.7587C19.0919 35.8716 19.8328 36.8108 20.8378 37.0911C20.7997 37.1073 20.7616 37.1254 20.7244 37.1417C19.574 37.6353 18.4618 37.8956 17.5082 37.8956C17.3885 37.8956 17.2671 37.892 17.1431 37.8839C16.3995 37.8351 15.5753 37.6425 14.7209 37.3162C14.5791 37.2619 14.4356 37.2041 14.292 37.1426C12.6312 36.432 10.9978 35.2803 9.80578 33.9822ZM3.15093 28.0238C2.82302 27.6902 2.64311 27.2463 2.64311 26.7735C2.64311 25.9888 3.1465 25.3226 3.84043 25.0903C3.85816 25.0848 3.87588 25.0794 3.89361 25.074C3.92729 25.064 3.96096 25.055 3.99553 25.0469C4.01502 25.0423 4.03452 25.0378 4.05402 25.0342C4.08947 25.027 4.12581 25.0215 4.16303 25.017C4.18075 25.0152 4.19848 25.0116 4.2162 25.0098C4.27026 25.0044 4.32521 25.0017 4.38016 25.0017H5.75207V25.6028C5.75207 25.6607 5.75473 25.7176 5.75916 25.7746C5.76005 25.7882 5.76094 25.8008 5.76271 25.8144C5.76803 25.8704 5.77512 25.9265 5.78487 25.9807C5.78575 25.9861 5.78752 25.9916 5.78841 25.997C5.79727 26.0476 5.80879 26.0982 5.82209 26.148C5.82475 26.1597 5.82829 26.1715 5.83095 26.1832C5.84602 26.2365 5.86197 26.289 5.88058 26.3414C5.88324 26.3486 5.88678 26.3559 5.88944 26.364C5.90717 26.411 5.92667 26.458 5.94705 26.5032C5.95148 26.5123 5.95503 26.5213 5.95946 26.5304C5.98339 26.581 6.00909 26.6298 6.03656 26.6777C6.04099 26.6858 6.04631 26.6931 6.05074 26.7012C6.07644 26.7455 6.10392 26.7889 6.13316 26.8314C6.13759 26.8377 6.14114 26.8431 6.14557 26.8495C6.17747 26.8956 6.21204 26.9399 6.24837 26.9833C6.25103 26.986 6.25281 26.9896 6.25546 26.9932V28.5427H4.38016C3.91576 28.5436 3.47973 28.3592 3.15093 28.0238ZM7.85072 26.0684C7.72398 26.0684 7.63004 26.0169 7.57332 25.9717C7.45988 25.8831 7.39518 25.7493 7.39518 25.6028V22.4795C7.39518 22.3339 7.45988 22.1992 7.57686 22.1088C7.63181 22.0663 7.7231 22.0148 7.85072 22.0148H14.2654C14.5162 22.0148 14.7209 22.2236 14.7209 22.4795V25.6028C14.7209 25.8596 14.5162 26.0675 14.2654 26.0675L7.85072 26.0684ZM11.8149 15.1208L20.1483 16.5925C20.1528 16.5934 20.1563 16.5934 20.1607 16.5943C21.8951 16.8737 23.6428 16.4216 25.0289 15.3549C26.2723 15.8539 27.1134 17.0834 27.1134 18.4756V20.3387C27.1116 20.3387 27.1098 20.3387 27.108 20.3387H20.6925C19.535 20.3387 18.593 21.2988 18.593 22.4795V22.4975C17.8698 22.2553 17.0863 22.2562 16.3631 22.4975V22.4795C16.3631 21.2988 15.422 20.3378 14.2636 20.3378H7.8968V18.0344C7.8968 17.9684 7.89946 17.9033 7.90389 17.8382C7.90478 17.8211 7.90655 17.8048 7.90744 17.7876C7.91275 17.727 7.91896 17.6674 7.92693 17.6077C7.92782 17.6023 7.92782 17.5969 7.92871 17.5914C7.93757 17.53 7.94998 17.4694 7.96238 17.4088C7.96681 17.3871 7.97213 17.3663 7.97656 17.3446C7.9872 17.3004 7.99872 17.2561 8.01201 17.2118C8.12014 16.8384 8.29916 16.4967 8.53313 16.202C8.54022 16.1929 8.54642 16.1848 8.55351 16.1758C8.57921 16.1441 8.6058 16.1134 8.63239 16.0826C8.63948 16.0745 8.64745 16.0664 8.65454 16.0582C9.11451 15.5511 9.74818 15.2103 10.4581 15.1361C10.459 15.1361 10.4598 15.1361 10.4607 15.1361C10.5024 15.1316 10.544 15.1289 10.5857 15.1262C10.5928 15.1262 10.5999 15.1253 10.6061 15.1244C10.6539 15.1217 10.7027 15.1208 10.7514 15.1208H11.8149ZM20.2369 22.4804C20.2369 22.2236 20.4417 22.0157 20.6925 22.0157H27.1072C27.3589 22.0157 27.5636 22.2245 27.5636 22.4804V25.6037C27.5636 25.7402 27.5051 25.8695 27.4023 25.9581C27.3438 26.0087 27.2454 26.0684 27.1072 26.0684H20.6925C20.4408 26.0684 20.2369 25.8596 20.2369 25.6037V22.4804ZM32.3662 26.5005C32.3662 28.2959 30.9783 29.7559 29.2723 29.7559C29.0986 29.7559 28.9266 29.7405 28.7565 29.7098V26.929C28.7591 26.9254 28.7618 26.9209 28.7645 26.9173C28.7955 26.8766 28.8256 26.8341 28.854 26.7907C28.8593 26.7835 28.8637 26.7753 28.8681 26.7681C28.893 26.7292 28.916 26.6895 28.9382 26.6497C28.9435 26.6406 28.9488 26.6316 28.9532 26.6217C28.9772 26.5765 29.0002 26.5304 29.0206 26.4824C29.025 26.4725 29.0286 26.4626 29.033 26.4526C29.0507 26.4101 29.0675 26.3676 29.0826 26.3242C29.0853 26.3161 29.0888 26.308 29.0915 26.2998C29.1083 26.251 29.1225 26.2013 29.1358 26.1507C29.1384 26.1389 29.1411 26.1272 29.1447 26.1163C29.1562 26.0693 29.1659 26.0223 29.1739 25.9753C29.1748 25.9699 29.1766 25.9644 29.1774 25.9581C29.1863 25.9066 29.1925 25.8542 29.1969 25.8017C29.1978 25.7891 29.1987 25.7764 29.1996 25.7647C29.2031 25.7113 29.2067 25.6571 29.2067 25.6037V23.2452C29.228 23.2452 29.2501 23.2443 29.2714 23.2443C30.9774 23.2443 32.3662 24.7051 32.3662 26.5005ZM23.766 35.4991C23.7554 35.4991 23.7447 35.5 23.7332 35.5009H21.4591C21.0576 35.5009 20.7315 35.1682 20.7315 34.7587C20.7315 34.3492 21.0576 34.0156 21.4591 34.0156H23.7288C24.1302 34.0156 24.4564 34.3492 24.4564 34.7587C24.4573 35.1565 24.1533 35.4801 23.766 35.4991ZM20.2175 40.4432C20.2175 41.1817 19.9356 41.8769 19.4225 42.4004C18.9111 42.9229 18.2305 43.2104 17.5046 43.2104C17.4577 43.2104 17.4116 43.2094 17.3655 43.2067C16.0725 43.1398 15.016 42.1454 14.8237 40.8644C14.8033 40.727 14.7927 40.5869 14.7927 40.4432V39.1133C14.806 39.1179 14.8193 39.1215 14.8326 39.1251C14.9345 39.1567 15.0364 39.1875 15.1375 39.2164C15.1419 39.2173 15.1463 39.2191 15.1508 39.22C15.2562 39.2499 15.3608 39.277 15.4654 39.3032C15.4929 39.3095 15.5194 39.3168 15.5469 39.3231C15.6338 39.3439 15.7206 39.3638 15.8075 39.3818C15.8261 39.3855 15.8456 39.39 15.8642 39.3945C15.9661 39.4153 16.0671 39.4343 16.1682 39.4524C16.1921 39.4569 16.2151 39.4605 16.2391 39.4641C16.3206 39.4777 16.4021 39.4894 16.4828 39.5003C16.5076 39.5039 16.5315 39.5075 16.5564 39.5102C16.6547 39.5229 16.7531 39.5337 16.8497 39.5428C16.8665 39.5446 16.8825 39.5455 16.8993 39.5464C16.9818 39.5536 17.0633 39.559 17.1448 39.5627C17.1705 39.5636 17.1962 39.5654 17.2219 39.5663C17.3176 39.5699 17.4125 39.5726 17.5055 39.5726C17.5986 39.5726 17.6934 39.5699 17.7891 39.5663C17.8148 39.5654 17.8405 39.5636 17.8671 39.5627C17.9478 39.5581 18.0293 39.5527 18.1117 39.5464C18.1286 39.5446 18.1445 39.5437 18.1614 39.5428C18.258 39.5337 18.3563 39.5229 18.4547 39.5111C18.4795 39.5084 18.5043 39.5039 18.53 39.5012C18.6098 39.4903 18.6904 39.4786 18.772 39.465C18.7959 39.4614 18.8198 39.4578 18.8447 39.4533C18.9448 39.4361 19.0458 39.4171 19.1477 39.3963C19.1672 39.3927 19.1876 39.3873 19.2071 39.3837C19.2922 39.3656 19.3782 39.3457 19.4641 39.3249C19.4916 39.3186 19.5191 39.3122 19.5466 39.305C19.6511 39.2788 19.7548 39.2517 19.8603 39.2227C19.8656 39.2209 19.8709 39.22 19.8762 39.2182C19.9764 39.1893 20.0774 39.1595 20.1793 39.1278C20.1926 39.1233 20.2059 39.1206 20.2192 39.1161V39.8646L20.2175 40.4432ZM21.8606 38.4588C22.6263 38.0954 23.3725 37.6561 24.0877 37.1489C24.9562 37.016 25.6608 36.4085 25.9524 35.5958H27.2498C29.2803 35.5958 31.0474 34.2651 31.6474 32.2853L32.2341 30.3453C33.3153 29.4404 34.0093 28.0536 34.0093 26.5014C34.0093 23.7812 31.8841 21.5691 29.2723 21.5691C29.1836 21.5691 29.0959 21.5718 29.0082 21.5772C28.9399 21.4281 28.8557 21.2889 28.7574 21.1614V18.4774C28.7574 18.4484 28.7547 18.4204 28.7547 18.3915C28.7538 18.33 28.752 18.2686 28.7485 18.208C28.7458 18.1646 28.7441 18.1212 28.7405 18.0787C28.7343 17.9982 28.7263 17.9169 28.7166 17.8373C28.7113 17.7958 28.7051 17.7551 28.6989 17.7135C28.6909 17.6592 28.682 17.605 28.6723 17.5517C28.6652 17.511 28.6581 17.4703 28.6492 17.4296C28.6333 17.3519 28.6147 17.2759 28.5952 17.1991C28.5845 17.1566 28.573 17.115 28.5606 17.0725C28.5447 17.0174 28.5278 16.9632 28.511 16.9089C28.4924 16.852 28.4738 16.7959 28.4534 16.7399C28.4348 16.6892 28.4162 16.6386 28.3958 16.588C28.3798 16.5473 28.3639 16.5075 28.3461 16.4668C28.316 16.3963 28.2841 16.3258 28.2513 16.2571C28.2327 16.2191 28.2132 16.1812 28.1937 16.1441C28.1698 16.098 28.1458 16.0528 28.121 16.0076C28.098 15.9651 28.0741 15.9226 28.0492 15.881C28.0138 15.8214 27.9775 15.7626 27.9402 15.7048C27.9172 15.6686 27.8933 15.6333 27.8693 15.5981C27.8365 15.5493 27.802 15.5014 27.7674 15.4543C27.7346 15.4101 27.701 15.3658 27.6673 15.3233C27.6336 15.2799 27.5981 15.2374 27.5627 15.1949C27.5361 15.1633 27.5104 15.1325 27.4829 15.1018C27.4315 15.043 27.3784 14.9861 27.3243 14.93C27.2968 14.902 27.2693 14.8749 27.2419 14.8478C27.2011 14.8071 27.1595 14.7682 27.1169 14.7293C27.0886 14.704 27.0611 14.6778 27.0327 14.6525C26.9742 14.6019 26.914 14.5521 26.8537 14.5033C26.8244 14.4798 26.7952 14.4572 26.7651 14.4346C26.7048 14.3885 26.6428 14.3433 26.5798 14.2999C26.5515 14.28 26.5231 14.262 26.4939 14.243C26.4372 14.2059 26.3804 14.1697 26.3219 14.1354C26.3042 14.1254 26.2883 14.1137 26.2705 14.1028C26.2714 14.1019 26.2714 14.101 26.2723 14.101C26.3211 14.0368 26.368 13.9709 26.4132 13.9049C26.4283 13.8832 26.4425 13.8615 26.4575 13.8398C26.4894 13.7928 26.5205 13.7458 26.5506 13.6978C26.5665 13.6734 26.5816 13.6481 26.5976 13.6237C26.6277 13.5758 26.6569 13.527 26.6853 13.4782C26.6986 13.4556 26.7119 13.433 26.7252 13.4104C26.7651 13.3408 26.8032 13.2711 26.8404 13.1997C26.8422 13.1961 26.8439 13.1934 26.8457 13.1898C26.8829 13.1193 26.9184 13.047 26.9521 12.9746C26.9636 12.9511 26.9742 12.9267 26.9849 12.9023C27.0088 12.8508 27.0318 12.7983 27.0549 12.7459C27.0664 12.7188 27.0779 12.6926 27.0886 12.6655C27.1107 12.6121 27.132 12.5588 27.1524 12.5054C27.1621 12.481 27.171 12.4566 27.1807 12.4322C27.2091 12.3545 27.2374 12.2767 27.2631 12.1981L28.0953 9.67136C29.5373 9.84312 30.6601 11.0961 30.6601 12.613V22.361C30.6601 22.8239 31.0279 23.1991 31.4817 23.1991C31.9355 23.1991 32.3032 22.8239 32.3032 22.361V12.6148C32.3032 10.3566 30.7124 8.47082 28.6138 8.0604L30.2879 2.78275C30.4793 2.17978 30.2923 1.53069 29.8102 1.12931C29.3281 0.72883 28.6678 0.671877 28.1272 0.984667L21.2517 4.96143L11.5083 3.75638C10.0796 3.581 8.68379 4.34399 8.03771 5.65481L6.88293 7.9926C4.54766 8.18425 2.70515 10.1839 2.70515 12.6148C2.70515 13.0777 3.07294 13.4529 3.5267 13.4529C3.98046 13.4529 4.34825 13.0777 4.34825 12.6148C4.34825 10.9822 5.65016 9.65328 7.25072 9.65328H7.39607C7.70626 9.65328 7.98986 9.47519 8.12988 9.19223L9.50534 6.40786C9.84123 5.72623 10.5671 5.32846 11.3106 5.42067L21.1365 6.63567C21.4006 6.66731 21.6682 6.62211 21.9093 6.50459C21.9261 6.49645 21.9439 6.48741 21.9598 6.47747L28.6067 2.63359L26.7314 8.54766L25.7051 11.6656C25.6714 11.7687 25.6342 11.8699 25.5943 11.9694C25.3134 12.6682 24.8765 13.291 24.319 13.7864C24.3181 13.7873 24.3172 13.7873 24.3172 13.7882C23.2475 14.7447 21.8287 15.1633 20.4222 14.9391L12.0258 13.4565C12.0223 13.4556 12.0179 13.4565 12.0143 13.4556C11.9727 13.4492 11.9292 13.4447 11.8858 13.4447H10.7541C10.677 13.4447 10.6007 13.4465 10.5245 13.451C10.5139 13.452 10.5033 13.4529 10.4917 13.4538C10.4262 13.4574 10.3597 13.4628 10.2941 13.4691C10.2923 13.4691 10.2914 13.4691 10.2897 13.47C9.26251 13.5767 8.31068 14.0359 7.57155 14.7899C7.52989 14.8324 7.49001 14.8785 7.45013 14.9228C7.43861 14.9354 7.4262 14.9481 7.41468 14.9617C7.37214 15.0096 7.33137 15.0584 7.29061 15.1072C7.2782 15.1226 7.26668 15.1379 7.25427 15.1533C7.21882 15.1985 7.1816 15.2428 7.14792 15.288C7.08765 15.3703 7.02562 15.4616 6.96447 15.5583C6.90863 15.646 6.85457 15.7391 6.79874 15.8431C6.79608 15.8485 6.79253 15.8539 6.78987 15.8593C6.75974 15.919 6.72872 15.9787 6.69682 16.0465C6.63212 16.1848 6.57451 16.3231 6.52666 16.4578C6.50096 16.5292 6.47703 16.6015 6.45576 16.6712C6.43449 16.7399 6.41588 16.8095 6.39815 16.8791C6.39549 16.8899 6.39283 16.9008 6.39017 16.9116C6.37599 16.9677 6.36359 17.0246 6.35207 17.0816C6.34852 17.0988 6.34498 17.1159 6.34143 17.1331C6.32814 17.1964 6.3175 17.2588 6.30775 17.322C6.30687 17.3284 6.30598 17.3347 6.30421 17.341C6.29446 17.4088 6.2856 17.4775 6.27851 17.5462C6.27673 17.5661 6.27496 17.5869 6.27319 17.6077C6.26876 17.6592 6.26433 17.7108 6.26167 17.7623C6.26078 17.7831 6.25901 17.8048 6.25812 17.8256C6.25458 17.8961 6.25281 17.9657 6.25281 18.0362V21.0909C5.93021 21.4742 5.75119 21.9606 5.75119 22.4804V23.3265H4.38016C4.37041 23.3265 4.35978 23.3265 4.34914 23.3265V12.3427C4.34914 11.8799 3.98135 11.5047 3.52759 11.5047C3.07383 11.5047 2.70603 11.8799 2.70603 12.3427V23.7803C1.68773 24.3752 1 25.4934 1 26.7735C1 27.6947 1.35184 28.5608 1.98994 29.2099C2.62804 29.8608 3.47707 30.2196 4.37927 30.2196H6.25812C6.37422 33.55 9.77654 36.8461 13.1478 38.4579V39.2716L9.99367 40.426C9.98569 40.4043 9.97683 40.3826 9.96974 40.3609C9.82262 39.9234 9.35557 39.6901 8.92574 39.8402C8.49679 39.9902 8.26814 40.4676 8.41526 40.9051C8.42501 40.934 8.43564 40.9639 8.44628 40.9928L7.94466 41.1763C5.03776 42.2422 3.08446 45.0744 3.08446 48.224V56.4913C3.08446 57.3229 3.74826 58.0001 4.56361 58.0001H30.4448C31.2601 58.0001 31.9239 57.3229 31.9239 56.4913V48.224C31.9239 45.0735 29.9706 42.2412 27.0629 41.1763L26.5612 40.9928C26.571 40.9639 26.5825 40.9349 26.5923 40.9051C26.7394 40.4676 26.5107 39.9902 26.0818 39.8402C25.6528 39.6901 25.1849 39.9234 25.0378 40.3609C25.0307 40.3826 25.0218 40.4043 25.0138 40.426L21.8597 39.2716L21.8606 38.4588Z" fill="#F4B71A"/>
<path d="M20.9123 30.5823C21.2384 30.2605 21.2464 29.7298 20.9309 29.3972C20.6154 29.0645 20.0951 29.0563 19.769 29.3782C18.4848 30.6474 16.4739 30.6474 15.1897 29.3782C14.8636 29.0554 14.3434 29.0645 14.0279 29.3972C13.7124 29.7298 13.7203 30.2605 14.0465 30.5823C15.0089 31.5342 16.2444 32.0098 17.4798 32.0098C18.7152 32.0098 19.9498 31.5342 20.9123 30.5823Z" fill="#F4B71A"/>
<path d="M21.8171 24.8491C22.1601 25.1528 22.6786 25.1148 22.9764 24.7659C23.1226 24.5941 23.3069 24.5001 23.4957 24.5001C23.6845 24.5001 23.8688 24.5941 24.015 24.7659C24.1772 24.9566 24.4059 25.0543 24.6354 25.0543C24.826 25.0543 25.0183 24.9865 25.1734 24.8491C25.5163 24.5453 25.5527 24.0165 25.2549 23.6666C24.7985 23.1305 24.1568 22.8231 23.4948 22.8231C22.8328 22.8231 22.1911 23.1305 21.7347 23.6666C21.4378 24.0155 21.4742 24.5453 21.8171 24.8491Z" fill="#F4B71A"/>
<path d="M11.5136 22.8231C10.8516 22.8231 10.2099 23.1305 9.7535 23.6666C9.45572 24.0164 9.49294 24.5453 9.83503 24.849C9.99013 24.9865 10.1824 25.0543 10.373 25.0543C10.6025 25.0543 10.8312 24.9566 10.9934 24.7659C11.1396 24.5941 11.3239 24.5001 11.5127 24.5001C11.7015 24.5001 11.8858 24.5941 12.032 24.7659C12.3298 25.1157 12.8483 25.1528 13.1913 24.849C13.5342 24.5453 13.5706 24.0164 13.2728 23.6666C12.8173 23.1305 12.1765 22.8231 11.5136 22.8231Z" fill="#F4B71A"/>
<path d="M18.2828 48.2349C18.1729 47.9031 17.8662 47.6644 17.5046 47.6644C17.143 47.6644 16.8364 47.9031 16.7265 48.2349C15.2075 47.2522 12.2678 44.7743 10.6894 41.9538L13.1877 41.0389C13.1895 41.0534 13.1921 41.0669 13.1939 41.0805C13.1983 41.1121 13.2037 41.1429 13.2081 41.1745C13.2143 41.2143 13.2214 41.2532 13.2285 41.292C13.2347 41.3228 13.2409 41.3535 13.2471 41.3842C13.2551 41.4231 13.2639 41.462 13.2737 41.5C13.2808 41.5298 13.2879 41.5605 13.2958 41.5904C13.3056 41.6292 13.3171 41.6672 13.3277 41.7061C13.3366 41.735 13.3446 41.7639 13.3534 41.7929C13.3659 41.8317 13.3791 41.8706 13.3924 41.9086C13.4022 41.9357 13.4111 41.9637 13.4208 41.9908C13.4359 42.0315 13.4509 42.0713 13.4669 42.1102C13.4766 42.1346 13.4864 42.1599 13.4961 42.1843C13.5147 42.2295 13.5351 42.2738 13.5555 42.3181C13.5635 42.3362 13.5715 42.3552 13.5803 42.3732C13.6096 42.4356 13.6406 42.4971 13.6725 42.5577C13.6778 42.5676 13.6831 42.5766 13.6884 42.5857C13.7159 42.6363 13.7443 42.6869 13.7735 42.7366C13.785 42.7565 13.7983 42.7764 13.8107 42.7963C13.8347 42.8343 13.8577 42.8732 13.8825 42.9102C13.8976 42.9328 13.9127 42.9545 13.9286 42.9771C13.9517 43.0115 13.9747 43.0449 13.9995 43.0784C14.0164 43.101 14.0332 43.1236 14.0509 43.1471C14.0749 43.1787 14.0988 43.2104 14.1236 43.2411C14.1413 43.2637 14.1599 43.2863 14.1785 43.3089C14.2034 43.3387 14.2282 43.3686 14.2539 43.3984C14.2734 43.4201 14.2929 43.4427 14.3124 43.4644C14.3381 43.4933 14.3647 43.5213 14.3921 43.5494C14.4125 43.5702 14.4329 43.5909 14.4533 43.6117C14.4808 43.6398 14.5091 43.6669 14.5375 43.6931C14.5579 43.713 14.5791 43.7329 14.6004 43.7519C14.6296 43.779 14.6598 43.8052 14.6899 43.8314C14.7112 43.8495 14.7316 43.8685 14.7537 43.8857C14.7856 43.9128 14.8184 43.9381 14.8512 43.9643C14.8716 43.9806 14.892 43.9968 14.9124 44.0122C14.9496 44.0402 14.9877 44.0683 15.0267 44.0954C15.0435 44.1071 15.0604 44.1198 15.0772 44.1315C15.133 44.1704 15.1898 44.2075 15.2474 44.2427C15.2518 44.2455 15.2571 44.2482 15.2615 44.2518C15.3147 44.2843 15.3679 44.316 15.422 44.3458C15.4415 44.3566 15.4618 44.3666 15.4822 44.3774C15.5221 44.3991 15.562 44.4199 15.6019 44.4398C15.6258 44.4516 15.6497 44.4624 15.6745 44.4742C15.7118 44.4922 15.749 44.5094 15.7871 44.5257C15.8128 44.5374 15.8394 44.5483 15.866 44.5591C15.9023 44.5745 15.9395 44.5899 15.9767 44.6034C16.0042 44.6143 16.0317 44.6242 16.0601 44.6342C16.0973 44.6477 16.1336 44.6604 16.1708 44.673C16.1992 44.6821 16.2276 44.6911 16.2568 44.7002C16.294 44.7119 16.3321 44.7228 16.3694 44.7327C16.3986 44.7409 16.4278 44.749 16.4571 44.7562C16.4952 44.7662 16.5342 44.7752 16.5723 44.7833C16.6016 44.7897 16.6308 44.796 16.6609 44.8023C16.7008 44.8105 16.7407 44.8177 16.7806 44.824C16.8098 44.8285 16.8382 44.834 16.8674 44.8385C16.9091 44.8448 16.9516 44.8502 16.9942 44.8548C17.0216 44.8584 17.0491 44.862 17.0766 44.8647C17.1236 44.8692 17.1714 44.8728 17.2184 44.8756C17.2423 44.8774 17.2654 44.8792 17.2893 44.881C17.3602 44.8846 17.432 44.8864 17.5046 44.8864C18.5965 44.8864 19.6263 44.4796 20.4275 43.7374C20.4807 43.6877 20.533 43.6371 20.5844 43.5846C20.6322 43.5358 20.6783 43.4861 20.7226 43.4364C20.7368 43.4201 20.751 43.4038 20.7652 43.3875C20.7953 43.3523 20.8254 43.3179 20.8547 43.2818C20.8706 43.2628 20.8857 43.2429 20.9008 43.2239C20.9282 43.1896 20.9548 43.1552 20.9805 43.12C20.9947 43.1001 21.0098 43.0811 21.0239 43.0612C21.0514 43.0232 21.078 42.9844 21.1037 42.9455C21.1152 42.9283 21.1267 42.912 21.1374 42.8949C21.1737 42.8388 21.2092 42.7828 21.2428 42.7249C21.2455 42.7204 21.2473 42.7168 21.2499 42.7122C21.281 42.6589 21.3111 42.6047 21.3403 42.5504C21.3501 42.5314 21.3598 42.5125 21.3696 42.4935C21.39 42.4528 21.4103 42.4121 21.4298 42.3705C21.4405 42.3488 21.4502 42.3262 21.46 42.3045C21.4777 42.2648 21.4954 42.2241 21.5123 42.1843C21.5211 42.1626 21.5309 42.1409 21.5397 42.1183C21.5575 42.074 21.5743 42.0297 21.5903 41.9845C21.5965 41.9664 21.6035 41.9483 21.6098 41.9303C21.6319 41.867 21.6523 41.8037 21.6718 41.7395C21.6744 41.7314 21.6762 41.7233 21.6789 41.7151C21.6948 41.6591 21.7108 41.603 21.725 41.5461C21.7303 41.5244 21.7347 41.5036 21.74 41.4819C21.7507 41.4376 21.7604 41.3933 21.7693 41.349C21.7746 41.3246 21.779 41.3002 21.7835 41.2767C21.7914 41.2333 21.7985 41.1899 21.8056 41.1456C21.8092 41.1221 21.8127 41.0977 21.8162 41.0742C21.818 41.0624 21.8198 41.0507 21.8216 41.0389L24.319 41.9538C22.7415 44.7734 19.8009 47.2522 18.2828 48.2349ZM26.5081 42.7547C28.7645 43.5819 30.2808 45.7805 30.2808 48.2249V56.3249H21.062V52.2894C21.062 51.238 20.2237 50.3828 19.1929 50.3828H18.3262V50.1134C19.496 49.5701 21.1312 48.2059 21.9917 47.405C23.0446 46.4232 24.7604 44.6387 25.885 42.5269L26.5081 42.7547ZM15.5903 56.3249V52.2894C15.5903 52.1628 15.6914 52.0589 15.8163 52.0589H17.4976C17.5002 52.0589 17.5029 52.0589 17.5046 52.0589C17.5073 52.0589 17.51 52.0589 17.5117 52.0589H19.1929C19.317 52.0589 19.4189 52.1619 19.4189 52.2894V56.3249H15.5903ZM4.72846 48.2249C4.72846 45.7796 6.24483 43.5819 8.50122 42.7547L9.12514 42.526C10.2498 44.6387 11.9656 46.4223 13.0184 47.4041C13.8781 48.2059 15.5141 49.5692 16.684 50.1125V50.3819H15.8172C14.7865 50.3819 13.9481 51.2371 13.9481 52.2885V56.324H4.72846V48.2249ZM9.80578 33.9822C8.57478 32.6406 7.8968 31.2421 7.8968 30.0443V27.7444H14.2654C15.4228 27.7444 16.3649 26.7844 16.3649 25.6028V24.3571C17.0296 23.8716 17.93 23.8707 18.5947 24.3571V25.6028C18.5947 26.7835 19.5359 27.7444 20.6943 27.7444H27.1089C27.1107 27.7444 27.1125 27.7444 27.1143 27.7444V30.0443C27.1143 30.4863 27.023 30.9582 26.8431 31.4464C26.6835 31.8794 26.898 32.3631 27.3225 32.5258C27.4182 32.5629 27.5157 32.58 27.6123 32.58C27.9447 32.58 28.2575 32.373 28.3816 32.0367C28.4631 31.8161 28.5305 31.5965 28.5854 31.3786C28.8132 31.4138 29.0427 31.4319 29.2749 31.4319C29.5984 31.4319 29.9139 31.3976 30.2188 31.3334L30.0805 31.7908C29.695 33.0637 28.5588 33.9198 27.2534 33.9198H25.9559C25.6209 32.9986 24.7506 32.3396 23.7323 32.3396H21.4626C20.1554 32.3396 19.0919 33.4253 19.0919 34.7587C19.0919 35.8716 19.8328 36.8108 20.8378 37.0911C20.7997 37.1073 20.7616 37.1254 20.7244 37.1417C19.574 37.6353 18.4618 37.8956 17.5082 37.8956C17.3885 37.8956 17.2671 37.892 17.1431 37.8839C16.3995 37.8351 15.5753 37.6425 14.7209 37.3162C14.5791 37.2619 14.4356 37.2041 14.292 37.1426C12.6312 36.432 10.9978 35.2803 9.80578 33.9822ZM3.15093 28.0238C2.82302 27.6902 2.64311 27.2463 2.64311 26.7735C2.64311 25.9888 3.1465 25.3226 3.84043 25.0903C3.85816 25.0848 3.87588 25.0794 3.89361 25.074C3.92729 25.064 3.96096 25.055 3.99553 25.0469C4.01502 25.0423 4.03452 25.0378 4.05402 25.0342C4.08947 25.027 4.12581 25.0215 4.16303 25.017C4.18075 25.0152 4.19848 25.0116 4.2162 25.0098C4.27026 25.0044 4.32521 25.0017 4.38016 25.0017H5.75207V25.6028C5.75207 25.6607 5.75473 25.7176 5.75916 25.7746C5.76005 25.7882 5.76094 25.8008 5.76271 25.8144C5.76803 25.8704 5.77512 25.9265 5.78487 25.9807C5.78575 25.9861 5.78752 25.9916 5.78841 25.997C5.79727 26.0476 5.80879 26.0982 5.82209 26.148C5.82475 26.1597 5.82829 26.1715 5.83095 26.1832C5.84602 26.2365 5.86197 26.289 5.88058 26.3414C5.88324 26.3486 5.88678 26.3559 5.88944 26.364C5.90717 26.411 5.92667 26.458 5.94705 26.5032C5.95148 26.5123 5.95503 26.5213 5.95946 26.5304C5.98339 26.581 6.00909 26.6298 6.03656 26.6777C6.04099 26.6858 6.04631 26.6931 6.05074 26.7012C6.07644 26.7455 6.10392 26.7889 6.13316 26.8314C6.13759 26.8377 6.14114 26.8431 6.14557 26.8495C6.17747 26.8956 6.21204 26.9399 6.24837 26.9833C6.25103 26.986 6.25281 26.9896 6.25546 26.9932V28.5427H4.38016C3.91576 28.5436 3.47973 28.3592 3.15093 28.0238ZM7.85072 26.0684C7.72398 26.0684 7.63004 26.0169 7.57332 25.9717C7.45988 25.8831 7.39518 25.7493 7.39518 25.6028V22.4795C7.39518 22.3339 7.45988 22.1992 7.57686 22.1088C7.63181 22.0663 7.7231 22.0148 7.85072 22.0148H14.2654C14.5162 22.0148 14.7209 22.2236 14.7209 22.4795V25.6028C14.7209 25.8596 14.5162 26.0675 14.2654 26.0675L7.85072 26.0684ZM11.8149 15.1208L20.1483 16.5925C20.1528 16.5934 20.1563 16.5934 20.1607 16.5943C21.8951 16.8737 23.6428 16.4216 25.0289 15.3549C26.2723 15.8539 27.1134 17.0834 27.1134 18.4756V20.3387C27.1116 20.3387 27.1098 20.3387 27.108 20.3387H20.6925C19.535 20.3387 18.593 21.2988 18.593 22.4795V22.4975C17.8698 22.2553 17.0863 22.2562 16.3631 22.4975V22.4795C16.3631 21.2988 15.422 20.3378 14.2636 20.3378H7.8968V18.0344C7.8968 17.9684 7.89946 17.9033 7.90389 17.8382C7.90478 17.8211 7.90655 17.8048 7.90744 17.7876C7.91275 17.727 7.91896 17.6674 7.92693 17.6077C7.92782 17.6023 7.92782 17.5969 7.92871 17.5914C7.93757 17.53 7.94998 17.4694 7.96238 17.4088C7.96681 17.3871 7.97213 17.3663 7.97656 17.3446C7.9872 17.3004 7.99872 17.2561 8.01201 17.2118C8.12014 16.8384 8.29916 16.4967 8.53313 16.202C8.54022 16.1929 8.54642 16.1848 8.55351 16.1758C8.57921 16.1441 8.6058 16.1134 8.63239 16.0826C8.63948 16.0745 8.64745 16.0664 8.65454 16.0582C9.11451 15.5511 9.74818 15.2103 10.4581 15.1361C10.459 15.1361 10.4598 15.1361 10.4607 15.1361C10.5024 15.1316 10.544 15.1289 10.5857 15.1262C10.5928 15.1262 10.5999 15.1253 10.6061 15.1244C10.6539 15.1217 10.7027 15.1208 10.7514 15.1208H11.8149ZM20.2369 22.4804C20.2369 22.2236 20.4417 22.0157 20.6925 22.0157H27.1072C27.3589 22.0157 27.5636 22.2245 27.5636 22.4804V25.6037C27.5636 25.7402 27.5051 25.8695 27.4023 25.9581C27.3438 26.0087 27.2454 26.0684 27.1072 26.0684H20.6925C20.4408 26.0684 20.2369 25.8596 20.2369 25.6037V22.4804ZM32.3662 26.5005C32.3662 28.2959 30.9783 29.7559 29.2723 29.7559C29.0986 29.7559 28.9266 29.7405 28.7565 29.7098V26.929C28.7591 26.9254 28.7618 26.9209 28.7645 26.9173C28.7955 26.8766 28.8256 26.8341 28.854 26.7907C28.8593 26.7835 28.8637 26.7753 28.8681 26.7681C28.893 26.7292 28.916 26.6895 28.9382 26.6497C28.9435 26.6406 28.9488 26.6316 28.9532 26.6217C28.9772 26.5765 29.0002 26.5304 29.0206 26.4824C29.025 26.4725 29.0286 26.4626 29.033 26.4526C29.0507 26.4101 29.0675 26.3676 29.0826 26.3242C29.0853 26.3161 29.0888 26.308 29.0915 26.2998C29.1083 26.251 29.1225 26.2013 29.1358 26.1507C29.1384 26.1389 29.1411 26.1272 29.1447 26.1163C29.1562 26.0693 29.1659 26.0223 29.1739 25.9753C29.1748 25.9699 29.1766 25.9644 29.1774 25.9581C29.1863 25.9066 29.1925 25.8542 29.1969 25.8017C29.1978 25.7891 29.1987 25.7764 29.1996 25.7647C29.2031 25.7113 29.2067 25.6571 29.2067 25.6037V23.2452C29.228 23.2452 29.2501 23.2443 29.2714 23.2443C30.9774 23.2443 32.3662 24.7051 32.3662 26.5005ZM23.766 35.4991C23.7554 35.4991 23.7447 35.5 23.7332 35.5009H21.4591C21.0576 35.5009 20.7315 35.1682 20.7315 34.7587C20.7315 34.3492 21.0576 34.0156 21.4591 34.0156H23.7288C24.1302 34.0156 24.4564 34.3492 24.4564 34.7587C24.4573 35.1565 24.1533 35.4801 23.766 35.4991ZM20.2175 40.4432C20.2175 41.1817 19.9356 41.8769 19.4225 42.4004C18.9111 42.9229 18.2305 43.2104 17.5046 43.2104C17.4577 43.2104 17.4116 43.2094 17.3655 43.2067C16.0725 43.1398 15.016 42.1454 14.8237 40.8644C14.8033 40.727 14.7927 40.5869 14.7927 40.4432V39.1133C14.806 39.1179 14.8193 39.1215 14.8326 39.1251C14.9345 39.1567 15.0364 39.1875 15.1375 39.2164C15.1419 39.2173 15.1463 39.2191 15.1508 39.22C15.2562 39.2499 15.3608 39.277 15.4654 39.3032C15.4929 39.3095 15.5194 39.3168 15.5469 39.3231C15.6338 39.3439 15.7206 39.3638 15.8075 39.3818C15.8261 39.3855 15.8456 39.39 15.8642 39.3945C15.9661 39.4153 16.0671 39.4343 16.1682 39.4524C16.1921 39.4569 16.2151 39.4605 16.2391 39.4641C16.3206 39.4777 16.4021 39.4894 16.4828 39.5003C16.5076 39.5039 16.5315 39.5075 16.5564 39.5102C16.6547 39.5229 16.7531 39.5337 16.8497 39.5428C16.8665 39.5446 16.8825 39.5455 16.8993 39.5464C16.9818 39.5536 17.0633 39.559 17.1448 39.5627C17.1705 39.5636 17.1962 39.5654 17.2219 39.5663C17.3176 39.5699 17.4125 39.5726 17.5055 39.5726C17.5986 39.5726 17.6934 39.5699 17.7891 39.5663C17.8148 39.5654 17.8405 39.5636 17.8671 39.5627C17.9478 39.5581 18.0293 39.5527 18.1117 39.5464C18.1286 39.5446 18.1445 39.5437 18.1614 39.5428C18.258 39.5337 18.3563 39.5229 18.4547 39.5111C18.4795 39.5084 18.5043 39.5039 18.53 39.5012C18.6098 39.4903 18.6904 39.4786 18.772 39.465C18.7959 39.4614 18.8198 39.4578 18.8447 39.4533C18.9448 39.4361 19.0458 39.4171 19.1477 39.3963C19.1672 39.3927 19.1876 39.3873 19.2071 39.3837C19.2922 39.3656 19.3782 39.3457 19.4641 39.3249C19.4916 39.3186 19.5191 39.3122 19.5466 39.305C19.6511 39.2788 19.7548 39.2517 19.8603 39.2227C19.8656 39.2209 19.8709 39.22 19.8762 39.2182C19.9764 39.1893 20.0774 39.1595 20.1793 39.1278C20.1926 39.1233 20.2059 39.1206 20.2192 39.1161V39.8646L20.2175 40.4432ZM21.8606 38.4588C22.6263 38.0954 23.3725 37.6561 24.0877 37.1489C24.9562 37.016 25.6608 36.4085 25.9524 35.5958H27.2498C29.2803 35.5958 31.0474 34.2651 31.6474 32.2853L32.2341 30.3453C33.3153 29.4404 34.0093 28.0536 34.0093 26.5014C34.0093 23.7812 31.8841 21.5691 29.2723 21.5691C29.1836 21.5691 29.0959 21.5718 29.0082 21.5772C28.9399 21.4281 28.8557 21.2889 28.7574 21.1614V18.4774C28.7574 18.4484 28.7547 18.4204 28.7547 18.3915C28.7538 18.33 28.752 18.2686 28.7485 18.208C28.7458 18.1646 28.7441 18.1212 28.7405 18.0787C28.7343 17.9982 28.7263 17.9169 28.7166 17.8373C28.7113 17.7958 28.7051 17.7551 28.6989 17.7135C28.6909 17.6592 28.682 17.605 28.6723 17.5517C28.6652 17.511 28.6581 17.4703 28.6492 17.4296C28.6333 17.3519 28.6147 17.2759 28.5952 17.1991C28.5845 17.1566 28.573 17.115 28.5606 17.0725C28.5447 17.0174 28.5278 16.9632 28.511 16.9089C28.4924 16.852 28.4738 16.7959 28.4534 16.7399C28.4348 16.6892 28.4162 16.6386 28.3958 16.588C28.3798 16.5473 28.3639 16.5075 28.3461 16.4668C28.316 16.3963 28.2841 16.3258 28.2513 16.2571C28.2327 16.2191 28.2132 16.1812 28.1937 16.1441C28.1698 16.098 28.1458 16.0528 28.121 16.0076C28.098 15.9651 28.0741 15.9226 28.0492 15.881C28.0138 15.8214 27.9775 15.7626 27.9402 15.7048C27.9172 15.6686 27.8933 15.6333 27.8693 15.5981C27.8365 15.5493 27.802 15.5014 27.7674 15.4543C27.7346 15.4101 27.701 15.3658 27.6673 15.3233C27.6336 15.2799 27.5981 15.2374 27.5627 15.1949C27.5361 15.1633 27.5104 15.1325 27.4829 15.1018C27.4315 15.043 27.3784 14.9861 27.3243 14.93C27.2968 14.902 27.2693 14.8749 27.2419 14.8478C27.2011 14.8071 27.1595 14.7682 27.1169 14.7293C27.0886 14.704 27.0611 14.6778 27.0327 14.6525C26.9742 14.6019 26.914 14.5521 26.8537 14.5033C26.8244 14.4798 26.7952 14.4572 26.7651 14.4346C26.7048 14.3885 26.6428 14.3433 26.5798 14.2999C26.5515 14.28 26.5231 14.262 26.4939 14.243C26.4372 14.2059 26.3804 14.1697 26.3219 14.1354C26.3042 14.1254 26.2883 14.1137 26.2705 14.1028C26.2714 14.1019 26.2714 14.101 26.2723 14.101C26.3211 14.0368 26.368 13.9709 26.4132 13.9049C26.4283 13.8832 26.4425 13.8615 26.4575 13.8398C26.4894 13.7928 26.5205 13.7458 26.5506 13.6978C26.5665 13.6734 26.5816 13.6481 26.5976 13.6237C26.6277 13.5758 26.6569 13.527 26.6853 13.4782C26.6986 13.4556 26.7119 13.433 26.7252 13.4104C26.7651 13.3408 26.8032 13.2711 26.8404 13.1997C26.8422 13.1961 26.8439 13.1934 26.8457 13.1898C26.8829 13.1193 26.9184 13.047 26.9521 12.9746C26.9636 12.9511 26.9742 12.9267 26.9849 12.9023C27.0088 12.8508 27.0318 12.7983 27.0549 12.7459C27.0664 12.7188 27.0779 12.6926 27.0886 12.6655C27.1107 12.6121 27.132 12.5588 27.1524 12.5054C27.1621 12.481 27.171 12.4566 27.1807 12.4322C27.2091 12.3545 27.2374 12.2767 27.2631 12.1981L28.0953 9.67136C29.5373 9.84312 30.6601 11.0961 30.6601 12.613V22.361C30.6601 22.8239 31.0279 23.1991 31.4817 23.1991C31.9355 23.1991 32.3032 22.8239 32.3032 22.361V12.6148C32.3032 10.3566 30.7124 8.47082 28.6138 8.0604L30.2879 2.78275C30.4793 2.17978 30.2923 1.53069 29.8102 1.12931C29.3281 0.72883 28.6678 0.671877 28.1272 0.984667L21.2517 4.96143L11.5083 3.75638C10.0796 3.581 8.68379 4.34399 8.03771 5.65481L6.88293 7.9926C4.54766 8.18425 2.70515 10.1839 2.70515 12.6148C2.70515 13.0777 3.07294 13.4529 3.5267 13.4529C3.98046 13.4529 4.34825 13.0777 4.34825 12.6148C4.34825 10.9822 5.65016 9.65328 7.25072 9.65328H7.39607C7.70626 9.65328 7.98986 9.47519 8.12988 9.19223L9.50534 6.40786C9.84123 5.72623 10.5671 5.32846 11.3106 5.42067L21.1365 6.63567C21.4006 6.66731 21.6682 6.62211 21.9093 6.50459C21.9261 6.49645 21.9439 6.48741 21.9598 6.47747L28.6067 2.63359L26.7314 8.54766L25.7051 11.6656C25.6714 11.7687 25.6342 11.8699 25.5943 11.9694C25.3134 12.6682 24.8765 13.291 24.319 13.7864C24.3181 13.7873 24.3172 13.7873 24.3172 13.7882C23.2475 14.7447 21.8287 15.1633 20.4222 14.9391L12.0258 13.4565C12.0223 13.4556 12.0179 13.4565 12.0143 13.4556C11.9727 13.4492 11.9292 13.4447 11.8858 13.4447H10.7541C10.677 13.4447 10.6007 13.4465 10.5245 13.451C10.5139 13.452 10.5033 13.4529 10.4917 13.4538C10.4262 13.4574 10.3597 13.4628 10.2941 13.4691C10.2923 13.4691 10.2914 13.4691 10.2897 13.47C9.26251 13.5767 8.31068 14.0359 7.57155 14.7899C7.52989 14.8324 7.49001 14.8785 7.45013 14.9228C7.43861 14.9354 7.4262 14.9481 7.41468 14.9617C7.37214 15.0096 7.33137 15.0584 7.29061 15.1072C7.2782 15.1226 7.26668 15.1379 7.25427 15.1533C7.21882 15.1985 7.1816 15.2428 7.14792 15.288C7.08765 15.3703 7.02562 15.4616 6.96447 15.5583C6.90863 15.646 6.85457 15.7391 6.79874 15.8431C6.79608 15.8485 6.79253 15.8539 6.78987 15.8593C6.75974 15.919 6.72872 15.9787 6.69682 16.0465C6.63212 16.1848 6.57451 16.3231 6.52666 16.4578C6.50096 16.5292 6.47703 16.6015 6.45576 16.6712C6.43449 16.7399 6.41588 16.8095 6.39815 16.8791C6.39549 16.8899 6.39283 16.9008 6.39017 16.9116C6.37599 16.9677 6.36359 17.0246 6.35207 17.0816C6.34852 17.0988 6.34498 17.1159 6.34143 17.1331C6.32814 17.1964 6.3175 17.2588 6.30775 17.322C6.30687 17.3284 6.30598 17.3347 6.30421 17.341C6.29446 17.4088 6.2856 17.4775 6.27851 17.5462C6.27673 17.5661 6.27496 17.5869 6.27319 17.6077C6.26876 17.6592 6.26433 17.7108 6.26167 17.7623C6.26078 17.7831 6.25901 17.8048 6.25812 17.8256C6.25458 17.8961 6.25281 17.9657 6.25281 18.0362V21.0909C5.93021 21.4742 5.75119 21.9606 5.75119 22.4804V23.3265H4.38016C4.37041 23.3265 4.35978 23.3265 4.34914 23.3265V12.3427C4.34914 11.8799 3.98135 11.5047 3.52759 11.5047C3.07383 11.5047 2.70603 11.8799 2.70603 12.3427V23.7803C1.68773 24.3752 1 25.4934 1 26.7735C1 27.6947 1.35184 28.5608 1.98994 29.2099C2.62804 29.8608 3.47707 30.2196 4.37927 30.2196H6.25812C6.37422 33.55 9.77654 36.8461 13.1478 38.4579V39.2716L9.99367 40.426C9.98569 40.4043 9.97683 40.3826 9.96974 40.3609C9.82262 39.9234 9.35557 39.6901 8.92574 39.8402C8.49679 39.9902 8.26814 40.4676 8.41526 40.9051C8.42501 40.934 8.43564 40.9639 8.44628 40.9928L7.94466 41.1763C5.03776 42.2422 3.08446 45.0744 3.08446 48.224V56.4913C3.08446 57.3229 3.74826 58.0001 4.56361 58.0001H30.4448C31.2601 58.0001 31.9239 57.3229 31.9239 56.4913V48.224C31.9239 45.0735 29.9706 42.2412 27.0629 41.1763L26.5612 40.9928C26.571 40.9639 26.5825 40.9349 26.5923 40.9051C26.7394 40.4676 26.5107 39.9902 26.0818 39.8402C25.6528 39.6901 25.1849 39.9234 25.0378 40.3609C25.0307 40.3826 25.0218 40.4043 25.0138 40.426L21.8597 39.2716L21.8606 38.4588Z" stroke="#F4B71A" stroke-width="0.2"/>
<path d="M20.9123 30.5823C21.2384 30.2605 21.2464 29.7298 20.9309 29.3972C20.6154 29.0645 20.0951 29.0563 19.769 29.3782C18.4848 30.6474 16.4739 30.6474 15.1897 29.3782C14.8636 29.0554 14.3434 29.0645 14.0279 29.3972C13.7124 29.7298 13.7203 30.2605 14.0465 30.5823C15.0089 31.5342 16.2444 32.0098 17.4798 32.0098C18.7152 32.0098 19.9498 31.5342 20.9123 30.5823Z" stroke="#F4B71A" stroke-width="0.2"/>
<path d="M21.8171 24.8491C22.1601 25.1528 22.6786 25.1148 22.9764 24.7659C23.1226 24.5941 23.3069 24.5001 23.4957 24.5001C23.6845 24.5001 23.8688 24.5941 24.015 24.7659C24.1772 24.9566 24.4059 25.0543 24.6354 25.0543C24.826 25.0543 25.0183 24.9865 25.1734 24.8491C25.5163 24.5453 25.5527 24.0165 25.2549 23.6666C24.7985 23.1305 24.1568 22.8231 23.4948 22.8231C22.8328 22.8231 22.1911 23.1305 21.7347 23.6666C21.4378 24.0155 21.4742 24.5453 21.8171 24.8491Z" stroke="#F4B71A" stroke-width="0.2"/>
<path d="M11.5136 22.8231C10.8516 22.8231 10.2099 23.1305 9.7535 23.6666C9.45572 24.0164 9.49294 24.5453 9.83503 24.849C9.99013 24.9865 10.1824 25.0543 10.373 25.0543C10.6025 25.0543 10.8312 24.9566 10.9934 24.7659C11.1396 24.5941 11.3239 24.5001 11.5127 24.5001C11.7015 24.5001 11.8858 24.5941 12.032 24.7659C12.3298 25.1157 12.8483 25.1528 13.1913 24.849C13.5342 24.5453 13.5706 24.0164 13.2728 23.6666C12.8173 23.1305 12.1765 22.8231 11.5136 22.8231Z" stroke="#F4B71A" stroke-width="0.2"/>
</svg>