<svg xmlns="http://www.w3.org/2000/svg" width="54" height="54" viewBox="0 0 54 54"><g><g><g><path d="M39.33 44.01l7.23-1.14a25.297 25.297 0 0 1-11.066 7.853zm-17.565 7.64l-5.37-8.409L21.15 36.9h11.7l4.824 6.372-4.68 8.202c-3.681.906-7.52.968-11.228.18zM7.444 42.87l7.316 1.156 4.424 6.93a25.283 25.283 0 0 1-11.74-8.086zm9.163-38.82L26.1 7.812v9.756l-8.28 6.623-9.858-3.286-1.872-7.954A25.358 25.358 0 0 1 16.607 4.05zm18.299-.976L27.005 6.23l-7.943-3.143a25.139 25.139 0 0 1 15.844-.014zM47.779 21.37l1.46-6.21a25.036 25.036 0 0 1 2.953 11.5zM21.403 35.1l-2.388-9.56L27 19.153l7.987 6.39-2.39 9.557zM1.808 26.664a25.037 25.037 0 0 1 2.953-11.5l1.46 6.21zm13.097 15.562L5.94 40.811A25.04 25.04 0 0 1 1.917 29.35l5.58-6.701 9.749 3.248 2.476 9.906zm24.23-.006l-4.86-6.42 2.476-9.9 9.748-3.249 5.585 6.701a25.035 25.035 0 0 1-4.024 11.459zm8.775-29.269l-1.872 7.954-9.858 3.286-8.28-6.623V7.809l9.45-3.78a25.352 25.352 0 0 1 10.56 8.922zM27 0C12.088 0 0 12.088 0 27s12.088 27 27 27 27-12.088 27-27C53.983 12.096 41.904.017 27 0z"/></g></g></g></svg>