<svg xmlns="http://www.w3.org/2000/svg" width="45" height="41" viewBox="0 0 45 41">
  <metadata><?xpacket begin="﻿" id="W5M0MpCehiHzreSzNTczkc9d"?>
<x:xmpmeta xmlns:x="adobe:ns:meta/" x:xmptk="Adobe XMP Core 5.6-c142 79.160924, 2017/07/13-01:06:39        ">
   <rdf:RDF xmlns:rdf="http://www.w3.org/1999/02/22-rdf-syntax-ns#">
      <rdf:Description rdf:about=""/>
   </rdf:RDF>
</x:xmpmeta>
                                                                                                    
                                                                                                    
                                                                                                    
                                                                                                    
                                                                                                    
                                                                                                    
                                                                                                    
                                                                                                    
                                                                                                    
                                                                                                    
                                                                                                    
                                                                                                    
                                                                                                    
                                                                                                    
                                                                                                    
                                                                                                    
                                                                                                    
                                                                                                    
                                                                                                    
                                                                                                    
                           
<?xpacket end="w"?></metadata>
<defs>
    <style>
      .cls-1 {
        fill: #d82541;
        fill-rule: evenodd;
      }
    </style>
  </defs>
  <path class="cls-1" d="M1660.11,1666.4a1.025,1.025,0,1,1-1.02,1.03A1.029,1.029,0,0,1,1660.11,1666.4Zm34.78,0a1.025,1.025,0,1,1-1.03,1.03A1.026,1.026,0,0,1,1694.89,1666.4Zm-26.59,9.23a0.963,0.963,0,0,0-1.03,1.02v8.2a1.025,1.025,0,1,0,2.05,0v-8.2A0.961,0.961,0,0,0,1668.3,1675.63Zm6.13,0a0.961,0.961,0,0,0-1.02,1.02v8.2a1.02,1.02,0,1,0,2.04,0v-8.2A0.955,0.955,0,0,0,1674.43,1675.63Zm6.14,0a0.955,0.955,0,0,0-1.02,1.02v8.2a1.02,1.02,0,1,0,2.04,0v-8.2A0.961,0.961,0,0,0,1680.57,1675.63Zm6.13,0a0.961,0.961,0,0,0-1.02,1.02v8.2a1.025,1.025,0,1,0,2.05,0v-8.2A0.963,0.963,0,0,0,1686.7,1675.63Zm10.23-13.33h-3.37l-2.46-8.1a2.963,2.963,0,0,0-2.86-2.15h-2.56v-1.03a0.966,0.966,0,0,0-1.02-1.02h-14.32a0.966,0.966,0,0,0-1.02,1.02v1.03h-1.64a2.89,2.89,0,0,0-2.86,1.95l-3.38,8.3h-3.37a3.015,3.015,0,0,0-3.07,3.07v4.1a3.017,3.017,0,0,0,3.07,3.08h0.1l1.74,15.68a3.09,3.09,0,0,0,3.07,2.77h29.04a3.09,3.09,0,0,0,3.07-2.77l1.74-15.68h0.1a3.017,3.017,0,0,0,3.07-3.08v-4.1A3.015,3.015,0,0,0,1696.93,1662.3Zm-25.57-10.25h12.28v2.05h-12.28v-2.05Zm26.7,17.43h-0.11a0.961,0.961,0,0,1-1.02,1.02h-33.75a1.025,1.025,0,0,0,0,2.05h31.6l-1.73,15.48a1.1,1.1,0,0,1-1.03.92h-29.04a1.1,1.1,0,0,1-1.03-.92l-1.84-16.61a1.085,1.085,0,0,0-1.02-.92h-1.02a0.961,0.961,0,0,1-1.02-1.02v-4.11a0.961,0.961,0,0,1,1.02-1.02h30.68a1.025,1.025,0,0,0,0-2.05h-25.06l2.97-7.59a1.016,1.016,0,0,1,1.02-.61h1.64v1.03a0.966,0.966,0,0,0,1.02,1.02h14.32a0.966,0.966,0,0,0,1.02-1.02v-1.03h2.56a1.223,1.223,0,0,1,1.02.72l2.66,8.81a1.014,1.014,0,0,0,1.02.72h4.09a0.968,0.968,0,0,1,1.03,1.02v4.11h0Z" transform="translate(-1655 -1650)"/>
</svg>