<svg xmlns="http://www.w3.org/2000/svg" width="116.844" height="120.25" viewBox="0 0 116.844 120.25">
  <defs>
    <style>
      .cls-1 {
        fill: #3fa35d;
        fill-rule: evenodd;
      }
    </style>
  </defs>
  <path id="decor-4.svg" class="cls-1" d="M161.027,71.012c-1.579,11.789-3.18,23.584-4.579,35.4-0.5,4.211-1.373,8.487-5.153,11.027-4.478,3.01-12.786,3.459-17.862,2.083-15.666-4.244-9.048-26.237-15.242-37.364-4.061-7.3-15-8.437-21.9-4.766C90.535,80.449,85.6,85.755,80.335,89.61c-8.142,5.962-15.427,12.1-25.3,4.783-5.263-3.9-9.592-10.13-8.543-16.964,1.084-7.058,6.455-13.259,10.288-18.991,7.924-11.851,15.75-23.767,23.735-35.577,6.146-10.808,25.2-4.486,29.6,4.727,1.425,2.979,1.986,5.448,4.995,7.346a29.829,29.829,0,0,0,4.981,2.444c3.55-2.945,8.409-7.53,8.572-12.085,0.156-4.378-3.757-8.629-4.183-13.1-0.928-9.739,7.4-19,15.413-23.4,2.825-1.552,5.063,2.916,2.245,4.464a28.4,28.4,0,0,0-10,9.442c-4.052,6.4-2.449,10.718.129,17.01,3.1,7.556-1.141,14.194-6.594,19.37a26.617,26.617,0,0,0,4.456.637c4.283,0.188,7.852-2.844,12.158-3.112,4.19-.261,7.812,1.316,11.511,3.069,4.75,2.251,8.165,5.008,9.072,10.5C163.978,56.836,161.917,64.369,161.027,71.012Zm-3.959-22.867c-2.623-4.654-12-7.336-16.594-6.228-2.985.719-5.355,2.5-8.486,2.765a25.109,25.109,0,0,1-8.879-1.366c-5.562-1.581-12.331-3.495-15.483-8.846-1.076-1.826-1.405-4.027-2.569-5.8-1.637-2.495-4.511-3.818-7.2-4.832C93.79,22.305,87.347,20.91,84.669,25.62,76.834,37.209,69.126,48.883,61.38,60.532c-3.608,5.426-10.89,13.032-10.054,20.134,0.82,6.959,9.546,14.007,16.474,11.656,0.157-.053.252-0.083,0.322-0.1a20.309,20.309,0,0,0,1.835-1.283q3.561-2.5,7.076-5.067c4.671-3.421,8.94-7.366,13.608-10.765,8.852-6.446,23.815-6.9,30.721,2.743,3.514,4.905,4.383,11.237,5.091,17.089,0.745,6.165.339,16.42,6.972,19.328,5.165,2.265,15.834,1.157,17.58-4.91a45.008,45.008,0,0,0,.892-6.558c1.5-11.82,3.011-23.638,4.613-35.444C157.272,61.749,159.973,53.3,157.068,48.145Zm-11.383,60.136c-2.174,2.212-6.276,4.711-8.791,1.672a0.08,0.08,0,0,1,.083-0.127c10.637,2.579,8.518-15.152,9.786-20.982,0.558-2.568,4.512-1.3,3.883,1.269C149.165,96.163,150.393,103.489,145.685,108.281Zm1.044-33.243a3.981,3.981,0,0,1-4.321-1.95,3.83,3.83,0,0,1-.052-3.324,2.156,2.156,0,0,1,.376-0.907,3.634,3.634,0,0,1,2.873-1.508,4.444,4.444,0,0,1,2.024.139,3.615,3.615,0,0,1,2.225,4.577A4.364,4.364,0,0,1,146.729,75.038Zm-3.245-12.946a3.88,3.88,0,0,1-4.669.314,4.114,4.114,0,0,1-1.668-4.566,3.928,3.928,0,0,1,.762-1.319c0.065-.085.139-0.162,0.211-0.241l0.02-.021a3.9,3.9,0,0,1,3.07-1.235,4.045,4.045,0,0,1,3.638,3.015A4.189,4.189,0,0,1,143.484,62.092Zm-6.64,16.346a3.688,3.688,0,0,1-4.477,1.636,3.743,3.743,0,0,1-1.7-1.3,3.294,3.294,0,0,1-.525-0.572c-0.044-.062-0.072-0.13-0.112-0.193a2.622,2.622,0,0,1-.66-2.3,3.425,3.425,0,0,1,1.687-2.974,4.385,4.385,0,0,1,4.64.651A3.9,3.9,0,0,1,136.844,78.438Zm-5.731-14.064a3.545,3.545,0,0,1-1.561,1.74,4.283,4.283,0,0,1-5.073-.9,3.971,3.971,0,0,1-1.156-3.256,3.794,3.794,0,0,1,.05-0.411c0-.02.007-0.04,0.012-0.06,0.02-.108.03-0.217,0.06-0.323a3.341,3.341,0,0,1,.315-0.738c0.031-.065.054-0.132,0.088-0.2a4.485,4.485,0,0,1,3.947-2.2,4.828,4.828,0,0,1,4.181,2.359A3.278,3.278,0,0,1,131.113,64.374ZM97.8,62.255c-2.193.39-3.642-1.152-5.588-1.2-2.3-.057-3.872,3.876-6.162,4.96A5.609,5.609,0,0,1,78.3,62.792c-1.006-3.085,3.288-7.586,2.2-9.039-0.637-.848-2.738-1.428-3.618-2.169a6.968,6.968,0,0,1-2.484-3.443,5.423,5.423,0,0,1,4.888-6.565,6.249,6.249,0,0,1,3.158,1.015c2.3,1.218,3.736,2.618,4.867-.462a2.8,2.8,0,0,1,.265-0.536c0.011-.023.015-0.046,0.027-0.07,1.786-3.582,6.134-6.525,9.614-3.1a5.858,5.858,0,0,1,1.575,5.092,12.086,12.086,0,0,1-1.07,3.179c-0.775,1.819-1.642,2.385-.365,3.88,2.293,2.683,6.459,3.882,4.467,8.436A5.364,5.364,0,0,1,97.8,62.255Zm-1.618-6.462A9.093,9.093,0,0,0,94.207,54.5a6.79,6.79,0,0,1-2.574-3.052,6.026,6.026,0,0,1,.28-4.409c0.139-.364,1.895-2.919,1.716-3.34-0.666-1.568-1.206-.813-1.58-0.056,0,0.01,0,.02-0.008.03C91,46.512,89.5,49.522,86.033,49.49c-1.306-.012-6.634-2.956-6.837-2.641-0.312.484,4.415,2.964,4.944,3.447,2.126,1.946,2.287,4.448,1.065,6.956-0.535,1.1-2.188,2.324-1.286,3.4,0.848,1.008,1-.074,1.71-0.7a20.614,20.614,0,0,0,1.3-1.747c2.268-2.509,4.3-2.736,7.334-1.678C95.221,56.856,98.094,58.541,96.183,55.792ZM82.772,77.636c-5.192,3.762-10.193,8.7-16.843,9.507-5.092.619-7.372-2.724-9.783-6.638a0.118,0.118,0,0,1,.192-0.131C60.42,85.061,64.512,86.158,70.193,83c3.815-2.121,6.605-5.61,10.026-8.258C82.194,73.212,84.772,76.186,82.772,77.636Z" transform="translate(-46.344)"/>
</svg>