<svg xmlns="http://www.w3.org/2000/svg" width="53" height="46" viewBox="0 0 53 46">
  <metadata><?xpacket begin="﻿" id="W5M0MpCehiHzreSzNTczkc9d"?>
<x:xmpmeta xmlns:x="adobe:ns:meta/" x:xmptk="Adobe XMP Core 5.6-c142 79.160924, 2017/07/13-01:06:39        ">
   <rdf:RDF xmlns:rdf="http://www.w3.org/1999/02/22-rdf-syntax-ns#">
      <rdf:Description rdf:about=""/>
   </rdf:RDF>
</x:xmpmeta>
                                                                                                    
                                                                                                    
                                                                                                    
                                                                                                    
                                                                                                    
                                                                                                    
                                                                                                    
                                                                                                    
                                                                                                    
                                                                                                    
                                                                                                    
                                                                                                    
                                                                                                    
                                                                                                    
                                                                                                    
                                                                                                    
                                                                                                    
                                                                                                    
                                                                                                    
                                                                                                    
                           
<?xpacket end="w"?></metadata>
<defs>
    <style>
      .cls-1 {
        fill: #d82541;
        fill-rule: evenodd;
      }
    </style>
  </defs>
  <path class="cls-1" d="M1055,1661.55v22.09a7.471,7.471,0,0,0,7.57,7.36h37.86a7.471,7.471,0,0,0,7.57-7.36v-22.09a7.471,7.471,0,0,0-7.57-7.36h-7.57v-4.6a4.675,4.675,0,0,0-4.73-4.6h-13.26a4.675,4.675,0,0,0-4.73,4.6v4.6h-7.57A7.471,7.471,0,0,0,1055,1661.55Zm13.4,12.89h-11.51v-3.69h11.51A11.422,11.422,0,0,0,1068.4,1674.44Zm32.03,14.72h-37.86a5.612,5.612,0,0,1-5.68-5.52v-7.36h11.92a13.352,13.352,0,0,0,25.38,0h11.92v7.36A5.612,5.612,0,0,1,1100.43,1689.16Zm-30.29-16.57a11.364,11.364,0,1,1,11.36,11.05A11.211,11.211,0,0,1,1070.14,1672.59Zm24.46-1.84h11.51v3.69H1094.6A11.422,11.422,0,0,0,1094.6,1670.75Zm-3.64-21.16v4.6h-1.89v-4.6a0.928,0.928,0,0,0-.94-0.92h-1.9v-1.84h1.9A2.794,2.794,0,0,1,1090.96,1649.59Zm-12.3-.92v-1.84h5.68v1.84h-5.68Zm8.52,1.84v3.68h-11.24v-3.68h11.24Zm-15.14-.92a2.794,2.794,0,0,1,2.83-2.76h1.9v1.84h-1.78a0.928,0.928,0,0,0-.94.92v4.6h-2.01v-4.6Zm-9.47,6.44h37.86a5.612,5.612,0,0,1,5.68,5.52v7.36h-11.92a13.352,13.352,0,0,0-25.38,0h-11.92v-7.36A5.612,5.612,0,0,1,1062.57,1656.03Zm32.18,29.45h1.89v1.84h-1.89v-1.84Zm7.57-2.76a2.8,2.8,0,0,1-2.84,2.76h-0.94v1.84h0.94a4.668,4.668,0,0,0,4.73-4.6v-0.92h-1.89v0.92Zm-27.45-6.44h2.84v2.76a0.937,0.937,0,0,0,.95.92h5.68a0.937,0.937,0,0,0,.95-0.92v-2.76h2.84a0.935,0.935,0,0,0,.94-0.92v-5.53a0.935,0.935,0,0,0-.94-0.92h-2.84v-2.76a0.944,0.944,0,0,0-.95-0.92h-5.68a0.944,0.944,0,0,0-.95.92v2.76h-2.84a0.935,0.935,0,0,0-.94.92v5.53A0.935,0.935,0,0,0,1074.87,1676.28Zm0.95-5.53h2.84a0.937,0.937,0,0,0,.95-0.92v-2.76h3.78v2.76a0.937,0.937,0,0,0,.95.92h2.84v3.69h-2.84a0.937,0.937,0,0,0-.95.92v2.76h-3.78v-2.76a0.937,0.937,0,0,0-.95-0.92h-2.84v-3.69Z" transform="translate(-1055 -1645)"/>
</svg>