<svg xmlns="http://www.w3.org/2000/svg" width="62" height="80" viewBox="0 0 62 80">
  <metadata><?xpacket begin="﻿" id="W5M0MpCehiHzreSzNTczkc9d"?>
<x:xmpmeta xmlns:x="adobe:ns:meta/" x:xmptk="Adobe XMP Core 5.6-c142 79.160924, 2017/07/13-01:06:39        ">
   <rdf:RDF xmlns:rdf="http://www.w3.org/1999/02/22-rdf-syntax-ns#">
      <rdf:Description rdf:about=""/>
   </rdf:RDF>
</x:xmpmeta>
                                                                                                    
                                                                                                    
                                                                                                    
                                                                                                    
                                                                                                    
                                                                                                    
                                                                                                    
                                                                                                    
                                                                                                    
                                                                                                    
                                                                                                    
                                                                                                    
                                                                                                    
                                                                                                    
                                                                                                    
                                                                                                    
                                                                                                    
                                                                                                    
                                                                                                    
                                                                                                    
                           
<?xpacket end="w"?></metadata>
<defs>
    <style>
      .cls-1 {
        fill: #fff;
        fill-rule: evenodd;
      }
    </style>
  </defs>
  <path class="cls-1" d="M146.519,328.429c-0.436.635-.854,1.252-1.283,1.862-0.1.138-.242,0.241-0.347,0.375a0.509,0.509,0,0,0-.126.28q-0.009,3,0,5.99a0.611,0.611,0,0,0,.042.13h0.372c1.559,0,3.119.036,4.676-.009a8.324,8.324,0,0,1,5.233,1.716,17.823,17.823,0,0,1,4.587,5.128,29.57,29.57,0,0,1,4.265,11.117,20.715,20.715,0,0,1,.192,2.364,1.686,1.686,0,0,1-.968,1.64,47.735,47.735,0,0,1-6.882,2.94,66.813,66.813,0,0,1-20.929,3.689,67.745,67.745,0,0,1-30.013-6.484,1.88,1.88,0,0,1-1.21-1.98,26.027,26.027,0,0,1,2.708-10.067,24.681,24.681,0,0,1,4.2-6.421,10.9,10.9,0,0,1,4.794-3.277,8.4,8.4,0,0,1,2.165-.341c1.742-.048,3.486-0.015,5.229-0.015h0.424c0.007-.137.019-0.251,0.019-0.365,0-1.715,0-3.429,0-5.144a0.693,0.693,0,0,0-.114-0.418,23.2,23.2,0,0,1-2.972-4.794,0.658,0.658,0,0,0-.5-0.386,4.788,4.788,0,0,1-2.541-1.657,10.679,10.679,0,0,1-2.477-5.8,6.393,6.393,0,0,1,.336-3.2,4.066,4.066,0,0,1,.535-0.96,0.779,0.779,0,0,0,.157-0.657,25.714,25.714,0,0,1-.3-5.416,17.348,17.348,0,0,1,2.882-9.149,15.043,15.043,0,0,1,7.94-5.78c0.533-.177,1.082-0.305,1.618-0.471a0.649,0.649,0,0,0,.332-0.221,15.8,15.8,0,0,1,8.379-6.143,16.627,16.627,0,0,1,7.94-.638,20.6,20.6,0,0,1,7.322,2.4,17.522,17.522,0,0,1,7.752,9.125,26.283,26.283,0,0,1,1.74,7.607c0.13,1.6.181,3.2,0.2,4.807,0.047,3.341.022,6.683,0.082,10.024a55.213,55.213,0,0,0,.559,7.811,10.669,10.669,0,0,0,3.053,6.214,1.582,1.582,0,0,1,.381,1.854,1.614,1.614,0,0,1-1.574,1.055,17.193,17.193,0,0,1-4.326-.609,30.28,30.28,0,0,1-13.05-7.269Zm10.611,18.184a0.392,0.392,0,0,0-.013-0.094,18.023,18.023,0,0,0-3.5-4.455,5.557,5.557,0,0,0-4.049-1.52c-1.708.069-3.42,0.016-5.131,0.016-0.433,0-.866.008-1.3,0a1.8,1.8,0,0,1-1.89-1.93v-4.055c-0.188.135-.312,0.234-0.445,0.319-0.692.443-1.364,0.922-2.084,1.315a9.55,9.55,0,0,1-5.883,1.161,10.914,10.914,0,0,1-5.258-2.219c-0.115-.087-0.232-0.172-0.382-0.282-0.011.139-.021,0.213-0.021,0.288,0,1.226,0,2.453,0,3.679a1.565,1.565,0,0,1-1.738,1.726c-2.274,0-4.548.039-6.82-.014a5.523,5.523,0,0,0-3.784,1.36,16.691,16.691,0,0,0-3.688,4.624,0.153,0.153,0,0,0,.009.068,56.06,56.06,0,0,1,8.627,1.243,40.046,40.046,0,0,1,9.548,3.358,25.875,25.875,0,0,1,4.8,3.159c0.061-.044.115-0.078,0.165-0.119A25.879,25.879,0,0,1,140,350.681a47.836,47.836,0,0,1,15.649-3.945C156.143,346.688,156.636,346.654,157.13,346.613Zm-7.459-29.651c-0.113-.006-0.188-0.012-0.263-0.015-2.139-.1-4.281-0.141-6.416-0.3a39.618,39.618,0,0,1-8.816-1.638,22.263,22.263,0,0,1-7.518-3.791c-0.638-.513-1.226-1.09-1.838-1.638-0.253.418-.5,0.862-0.783,1.285a27.624,27.624,0,0,1-5.138,5.618,0.914,0.914,0,0,0-.337.7,6.953,6.953,0,0,0,.76,3.454,4.712,4.712,0,0,0,1.217,1.665,0.5,0.5,0,0,0,.368.109,1.779,1.779,0,0,1,2.261,1.115,27.189,27.189,0,0,0,2.439,4.361,16.864,16.864,0,0,0,4.536,4.689,6.766,6.766,0,0,0,7.887.108,15.781,15.781,0,0,0,4.173-4.051,27.657,27.657,0,0,0,3-5.158,1.768,1.768,0,0,1,2.125-1.06,0.543,0.543,0,0,0,.4-0.116,5.192,5.192,0,0,0,1.4-2.08A6.423,6.423,0,0,0,149.671,316.962Zm-13.777,45.159a63.295,63.295,0,0,0,24.324-5.565,0.452,0.452,0,0,0,.3-0.571A24.189,24.189,0,0,0,159,350.452a0.357,0.357,0,0,0-.428-0.267c-1.1.089-2.2,0.147-3.3,0.256a47.683,47.683,0,0,0-9.652,1.917,24.768,24.768,0,0,0-10.343,5.8,1.683,1.683,0,0,1-2.332-.035,21.986,21.986,0,0,0-7.307-4.677,48.4,48.4,0,0,0-16-3.259,0.31,0.31,0,0,0-.352.24,24.076,24.076,0,0,0-1.537,5.627,0.358,0.358,0,0,0,.252.46A66.408,66.408,0,0,0,135.894,362.121Zm-16.5-50.976c1.5-1.873,3.035-3.714,3.143-6.292a1.7,1.7,0,0,1,1.576-1.556,1.722,1.722,0,0,1,1.878,1.349,4.456,4.456,0,0,0,.394.957,9.406,9.406,0,0,0,2.521,2.854,19.872,19.872,0,0,0,6.815,3.311,37.449,37.449,0,0,0,7.488,1.353c1.637,0.136,3.281.186,4.923,0.262,0.421,0.02.477-.038,0.456-0.464-0.058-1.147-.088-2.3-0.212-3.438a20.292,20.292,0,0,0-1.731-6.434,11.592,11.592,0,0,0-8.135-6.815,19.776,19.776,0,0,0-11.31.654,11.058,11.058,0,0,0-6.724,6.247A16.44,16.44,0,0,0,119.392,311.145Zm14.382-19c0.974,0.055,1.9.08,2.827,0.165a16.81,16.81,0,0,1,6.324,1.8,15.577,15.577,0,0,1,7.2,8.079,28.074,28.074,0,0,1,2.008,11.637,0.982,0.982,0,0,0,.13.413,12.906,12.906,0,0,1,.73,1.472,6.63,6.63,0,0,1,.134,3.345,10.246,10.246,0,0,1-2.61,5.459,17.038,17.038,0,0,1-1.592,1.31,28.066,28.066,0,0,0,11.427,6.841c-0.04-.123-0.055-0.194-0.084-0.258a17.929,17.929,0,0,1-1.466-6.1c-0.2-2.615-.312-5.237-0.39-7.858-0.066-2.212-.014-4.427-0.038-6.64-0.021-1.886-.023-3.775-0.128-5.657a23.666,23.666,0,0,0-1.557-7.381,14.078,14.078,0,0,0-6.969-7.851,18.355,18.355,0,0,0-7.985-1.723,11.118,11.118,0,0,0-3.711.705A14.89,14.89,0,0,0,133.774,292.142Z" transform="translate(-104.125 -285.656)"/>
</svg>