<svg xmlns="http://www.w3.org/2000/svg" width="56" height="80" viewBox="0 0 56 80">
  <metadata><?xpacket begin="﻿" id="W5M0MpCehiHzreSzNTczkc9d"?>
<x:xmpmeta xmlns:x="adobe:ns:meta/" x:xmptk="Adobe XMP Core 5.6-c142 79.160924, 2017/07/13-01:06:39        ">
   <rdf:RDF xmlns:rdf="http://www.w3.org/1999/02/22-rdf-syntax-ns#">
      <rdf:Description rdf:about=""/>
   </rdf:RDF>
</x:xmpmeta>
                                                                                                    
                                                                                                    
                                                                                                    
                                                                                                    
                                                                                                    
                                                                                                    
                                                                                                    
                                                                                                    
                                                                                                    
                                                                                                    
                                                                                                    
                                                                                                    
                                                                                                    
                                                                                                    
                                                                                                    
                                                                                                    
                                                                                                    
                                                                                                    
                                                                                                    
                                                                                                    
                           
<?xpacket end="w"?></metadata>
<defs>
    <style>
      .cls-1 {
        fill: #fff;
        fill-rule: evenodd;
      }
    </style>
  </defs>
  <path class="cls-1" d="M913.338,5683H866.722a4.7,4.7,0,0,0-4.663,4.72v4.16a1.554,1.554,0,1,0,3.108,0v-4.16a1.568,1.568,0,0,1,1.555-1.57h46.616a1.567,1.567,0,0,1,1.554,1.57v70.56a1.567,1.567,0,0,1-1.554,1.57H866.722a1.568,1.568,0,0,1-1.555-1.57v-53.8a1.554,1.554,0,1,0-3.108,0v53.8a4.7,4.7,0,0,0,4.663,4.72h46.616a4.7,4.7,0,0,0,4.662-4.72v-70.56A4.7,4.7,0,0,0,913.338,5683Zm-3.287,6.33H869.832a1.56,1.56,0,0,0-1.554,1.57v19.94a1.56,1.56,0,0,0,1.554,1.57h40.22a1.56,1.56,0,0,0,1.553-1.57V5690.9A1.56,1.56,0,0,0,910.051,5689.33Zm-1.554,19.93h-37.11v-16.78H908.5v16.78Zm-40.219,16.53a1.569,1.569,0,0,0,1.554,1.58h9.141a1.569,1.569,0,0,0,1.554-1.58v-9.26a1.56,1.56,0,0,0-1.554-1.57h-9.141a1.56,1.56,0,0,0-1.554,1.57v9.26Zm3.109-7.68h6.032v6.11h-6.032v-6.11Zm-3.109,22.08a1.569,1.569,0,0,0,1.554,1.58h9.141a1.569,1.569,0,0,0,1.554-1.58v-9.26a1.569,1.569,0,0,0-1.554-1.58h-9.141a1.569,1.569,0,0,0-1.554,1.58v9.26Zm3.109-7.69h6.032v6.12h-6.032v-6.12Zm-3.109,22.09a1.56,1.56,0,0,0,1.554,1.57h9.141a1.56,1.56,0,0,0,1.554-1.57v-9.27a1.56,1.56,0,0,0-1.554-1.57h-9.141a1.56,1.56,0,0,0-1.554,1.57v9.27Zm3.109-7.69h6.032v6.11h-6.032v-6.11Zm24.8-30.37a1.56,1.56,0,0,0-1.554-1.57h-9.141a1.56,1.56,0,0,0-1.554,1.57v9.26a1.569,1.569,0,0,0,1.554,1.58h9.141a1.568,1.568,0,0,0,1.554-1.58v-9.26Zm-3.108,7.69h-6.033v-6.11h6.033v6.11Zm3.108,6.71a1.568,1.568,0,0,0-1.554-1.58h-9.141a1.569,1.569,0,0,0-1.554,1.58v9.26a1.569,1.569,0,0,0,1.554,1.58h9.141a1.568,1.568,0,0,0,1.554-1.58v-9.26Zm-3.108,7.69h-6.033v-6.12h6.033v6.12Zm1.554,5.13h-9.141a1.56,1.56,0,0,0-1.554,1.57v9.27a1.56,1.56,0,0,0,1.554,1.57h9.141a1.56,1.56,0,0,0,1.554-1.57v-9.27A1.56,1.56,0,0,0,894.634,5743.75Zm-1.554,9.26h-6.033v-6.11h6.033v6.11Zm17.468-38.05h-9.141a1.56,1.56,0,0,0-1.554,1.57v9.26a1.569,1.569,0,0,0,1.554,1.58h9.141a1.569,1.569,0,0,0,1.554-1.58v-9.26A1.56,1.56,0,0,0,910.548,5714.96Zm-1.554,9.26h-6.033v-6.11h6.033v6.11Zm1.554,17.51a1.56,1.56,0,0,0,1.554-1.57v-9.23a1.569,1.569,0,0,0-1.554-1.58h-9.141a1.569,1.569,0,0,0-1.554,1.58v23.66a1.56,1.56,0,0,0,1.554,1.57h9.141a1.56,1.56,0,0,0,1.554-1.57v-2.33a1.554,1.554,0,1,0-3.108,0v0.75h-6.033V5732.5h6.033v7.66A1.56,1.56,0,0,0,910.548,5741.73Zm-9.474-41.96v4.92a1.25,1.25,0,0,0,.673,1.11,2.249,2.249,0,0,0,2.022,0,1.247,1.247,0,0,0,.674-1.11v-7.5a1.243,1.243,0,0,0-.6-1.07,1.7,1.7,0,0,0-.976-0.3,1.4,1.4,0,0,0-.745.2l-1.521.94a1.449,1.449,0,0,0-.722,1.3,1.664,1.664,0,0,0,.315.98A1.28,1.28,0,0,0,901.074,5699.77Zm-37.52.02a2.18,2.18,0,0,0,.356-0.04l0.117-.03a1.582,1.582,0,0,0,1.158-1.9,1.555,1.555,0,0,0-1.868-1.17l-0.117.03a1.577,1.577,0,0,0-1.158,1.89A1.559,1.559,0,0,0,863.554,5699.79Zm48.565,46.04a1.548,1.548,0,0,0-1.868-1.17l-0.117.03a1.567,1.567,0,0,0-1.158,1.89,1.549,1.549,0,0,0,1.512,1.21,1.446,1.446,0,0,0,.356-0.04l0.118-.03A1.566,1.566,0,0,0,912.119,5745.83Z" transform="translate(-862 -5683)"/>
</svg>