<svg xmlns="http://www.w3.org/2000/svg" width="54" height="40" viewBox="0 0 54 40"><g><g><g><path d="M10.8 31.56a.9.9 0 1 1 0-1.8.9.9 0 0 1 0 1.8zm0-3.6a2.7 2.7 0 1 0 0 5.4 2.7 2.7 0 0 0 0-5.4z"/></g><g><path d="M36 17.16a.9.9 0 1 1 0-1.8.9.9 0 0 1 0 1.8zm0-3.6a2.7 2.7 0 1 0 0 5.4 2.7 2.7 0 0 0 0-5.4z"/></g><g><path d="M37.755 37.86a10.791 10.791 0 0 0-21.51 0H1.8V6.28a5.408 5.408 0 0 0 4.42-4.42h7.28v8.1a.9.9 0 0 0 .9.9h25.2a.9.9 0 0 0 .9-.9v-8.1h7.28a5.408 5.408 0 0 0 4.42 4.42v31.58zm-19.71 0a9.004 9.004 0 0 1 8.96-8.101 9.004 9.004 0 0 1 8.96 8.101zM1.8 1.86h2.587A3.613 3.613 0 0 1 1.8 4.446zm17.1 0v2.7a.9.9 0 0 0 .9.9h14.4a.9.9 0 0 0 .9-.9v-2.7h3.6v7.2H15.3v-7.2zm14.4 0v1.8H20.7v-1.8zm18.9 0v2.586a3.613 3.613 0 0 1-2.587-2.586zm.9-1.8H.9a.9.9 0 0 0-.9.9v37.8a.9.9 0 0 0 .9.9h52.2a.9.9 0 0 0 .9-.9V.96a.9.9 0 0 0-.9-.9z"/></g><g><path d="M8.363 20.495a.9.9 0 0 0 1.273 0l1.614-1.613 1.613 1.613a.9.9 0 0 0 1.273-1.272l-1.614-1.614 1.614-1.614a.9.9 0 0 0-1.273-1.272l-1.613 1.613-1.614-1.613a.9.9 0 0 0-1.273 1.272l1.614 1.614-1.614 1.614a.9.9 0 0 0 0 1.272z"/></g><g><path d="M44.737 21.923a.9.9 0 0 0-1.272 0l-1.614 1.614-1.614-1.614a.9.9 0 0 0-1.272 1.273l1.613 1.614-1.613 1.613a.9.9 0 1 0 1.272 1.273l1.614-1.614 1.614 1.614a.9.9 0 0 0 1.272-1.273l-1.613-1.613 1.613-1.614a.9.9 0 0 0 0-1.273z"/></g><g><path d="M27.414 13.733a.9.9 0 1 0-1.033 1.475l1.751 1.225c-10.898 1.468-14.405 9.02-14.554 9.355a.9.9 0 0 0 1.645.73c.032-.073 3.3-7.099 13.473-8.34l-1.431 2.042a.9.9 0 1 0 1.475 1.033l2.581-3.69a.9.9 0 0 0-.22-1.254z"/></g></g></g></svg>