<svg width="148" height="148" viewBox="0 0 148 148" xmlns="http://www.w3.org/2000/svg"><script xmlns="" type="text/javascript" charset="utf-8" id="zm-extension"/><title>26443969-FAC0-4E1D-8577-5C2C2992690B</title><g fill="none" fill-rule="evenodd"><path d="M1 74c0 40.316 32.683 73 73 73 40.316 0 73-32.684 73-73 0-40.317-32.684-73-73-73C33.683 1 1 33.683 1 74z" stroke="#2A2421" stroke-width="2"/><path d="M74.482 146.373c39.855 0 72.165-32.31 72.165-72.165 0-39.856-32.31-72.165-72.165-72.165v144.33z" fill="#FF1628"/><path d="M1 74c0 40.316 32.683 73 73 73 40.316 0 73-32.684 73-73 0-40.317-32.684-73-73-73C33.683 1 1 33.683 1 74z" stroke="#2A2421" stroke-width="2"/><path d="M67.034 39.895H44.392a4.155 4.155 0 0 0-4.155 4.156v13.626m0 6.249v8.003" stroke="#2A2421" stroke-width="3" stroke-linecap="round"/><path d="M66.993 71.478h-5.64c0-.02.003-.039.003-.058a5.08 5.08 0 0 0-10.159 0c0 .02.003.038.003.058H40.25v28.225a4.156 4.156 0 0 0 4.155 4.155h27.88V92.724a5.078 5.078 0 0 1 0-10.155v-6.767m.457 28.06h27.4a4.157 4.157 0 0 0 4.156-4.156V76.005" stroke="#2A2421" stroke-width="3"/><path d="M77.765 75.952h3.157c0 .024-.003.048-.003.073a6.44 6.44 0 0 0 12.878 0c0-.025-.003-.049-.004-.073h13.884V40.17a5.269 5.269 0 0 0-5.268-5.269h-7.707" stroke="#FFF" stroke-width="3" stroke-linecap="round"/><path d="M77.867 34.901h-6.802a4 4 0 0 0-4 4v10.116a6.438 6.438 0 0 1 0 12.874v14.062h6.364" stroke="#2A2421" stroke-width="3" stroke-linecap="round"/><path d="M86.06 48.565V24.02m-3.517-4.061a3.488 3.488 0 1 0 6.976 0 3.488 3.488 0 0 0-6.976 0z" stroke="#FFF" stroke-width="3" stroke-linecap="round"/><path stroke="#2A2421" stroke-width="3" stroke-linecap="round" d="M72.285 94.966v8.876l-12.402.038.03 5.086m-4.174 9.23h8.079v-8.547h-8.079zm48.527-18.844v10.354h3.946"/><path d="M112.272 105.796a3.88 3.88 0 1 0 0 7.762 3.88 3.88 0 0 0 0-7.762z" stroke="#FFF" stroke-width="3" stroke-linecap="round"/><path d="M48.606 71.468h-19.76m-5.916 5.125a5.084 5.084 0 1 0 0-10.167 5.084 5.084 0 0 0 0 10.167z" stroke="#2A2421" stroke-width="3" stroke-linecap="round"/></g></svg>