<svg xmlns="http://www.w3.org/2000/svg" width="50" height="50" viewBox="0 0 50 50">
  <metadata><?xpacket begin="﻿" id="W5M0MpCehiHzreSzNTczkc9d"?>
<x:xmpmeta xmlns:x="adobe:ns:meta/" x:xmptk="Adobe XMP Core 5.6-c142 79.160924, 2017/07/13-01:06:39        ">
   <rdf:RDF xmlns:rdf="http://www.w3.org/1999/02/22-rdf-syntax-ns#">
      <rdf:Description rdf:about=""/>
   </rdf:RDF>
</x:xmpmeta>
                                                                                                    
                                                                                                    
                                                                                                    
                                                                                                    
                                                                                                    
                                                                                                    
                                                                                                    
                                                                                                    
                                                                                                    
                                                                                                    
                                                                                                    
                                                                                                    
                                                                                                    
                                                                                                    
                                                                                                    
                                                                                                    
                                                                                                    
                                                                                                    
                                                                                                    
                                                                                                    
                           
<?xpacket end="w"?></metadata>
<defs>
    <style>
      .cls-1 {
        fill: #d82541;
        fill-rule: evenodd;
      }
    </style>
  </defs>
  <path class="cls-1" d="M1093.25,1825.29a0.944,0.944,0,0,0,.69-0.29,0.985,0.985,0,0,0,.29-0.69,1.022,1.022,0,0,0-.29-0.69,0.99,0.99,0,0,0-1.38,0,1.022,1.022,0,0,0-.29.69,0.985,0.985,0,0,0,.29.69A0.944,0.944,0,0,0,1093.25,1825.29Zm11.23,8.55-8.01-4.27a0.968,0.968,0,0,0-1.43.86v2.64l-6.57-3.5a0.992,0.992,0,0,0-.96.02,0.982,0.982,0,0,0-.48.84v2.64l-6.57-3.5a0.993,0.993,0,0,0-.96.02,0.982,0.982,0,0,0-.48.84v10.74h-15.04v-10.74a0.973,0.973,0,0,0-.97-0.98h-1.4v-1.38a0.423,0.423,0,0,1,.42-0.42,0.98,0.98,0,0,0,0-1.96,2.386,2.386,0,0,0-2.38,2.38v1.38h-1.72v-4.59a3.372,3.372,0,0,1,3.37-3.37h1.58a3.657,3.657,0,0,0-.09.81,3.739,3.739,0,0,0,3.73,3.74h3.69a0.98,0.98,0,0,0,0-1.96h-3.69a1.784,1.784,0,0,1-1.78-1.78,1.931,1.931,0,0,1,.56-1.33,1.761,1.761,0,0,1,1.25-.5,1.708,1.708,0,0,1,.74.17,0.974,0.974,0,0,0,1.34-.53,4.926,4.926,0,0,1,9.19-.02,5.45,5.45,0,0,0-.84.58,4.817,4.817,0,0,0-1.06,1.32,0.97,0.97,0,0,0,.38,1.32,0.891,0.891,0,0,0,.47.12,0.979,0.979,0,0,0,.86-0.5,2.831,2.831,0,0,1,1.7-1.36,2.739,2.739,0,0,1,.81-0.12,2.868,2.868,0,0,1,2.87,2.86,0.982,0.982,0,0,0,.98.98h5.32a0.975,0.975,0,1,0,0-1.95h-4.45a4.827,4.827,0,0,0-4.72-3.85c-0.15,0-.3.01-0.45,0.02a6.887,6.887,0,0,0-12.5-.94,5.538,5.538,0,0,0-.6-0.06,3.665,3.665,0,0,0-2.6,1.02h-2.69a5.333,5.333,0,0,0-5.32,5.33v4.59a0.982,0.982,0,0,0-.98.98v33.59a0.982,0.982,0,0,0,.98.98h48.04a0.982,0.982,0,0,0,.98-0.98V1834.7A0.974,0.974,0,0,0,1104.48,1833.84Zm-47.53,1.47h5.08v23.83h-5.08v-23.83Zm5.08-1.95h-5.08v-1.95h5.08v1.95Zm-5.08,27.73h5.08v1.96h-5.08v-1.96Zm23.05,1.96h-16.02v-16.02h8.79a0.975,0.975,0,1,0,0-1.95h-8.79v-1.95h29.3v19.92H1080Zm23.05,0h-7.82v-20.9a0.973,0.973,0,0,0-.97-0.98h-13.28v-9.11l6.57,3.5a0.968,0.968,0,0,0,1.43-.86v-2.64l6.58,3.5a0.968,0.968,0,0,0,1.43-.86v-2.64l6.06,3.23v27.76Zm-31.45-13.28h-4.69a0.965,0.965,0,0,0-.97.97v4.69a0.973,0.973,0,0,0,.97.98h4.69a0.982,0.982,0,0,0,.98-0.98v-4.69A0.973,0.973,0,0,0,1071.6,1849.77Zm-0.98,4.68h-2.73v-2.73h2.73v2.73Zm10.36-4.68h-4.69a0.973,0.973,0,0,0-.98.97v4.69a0.982,0.982,0,0,0,.98.98h4.69a0.973,0.973,0,0,0,.97-0.98v-4.69A0.965,0.965,0,0,0,1080.98,1849.77Zm-0.98,4.68h-2.73v-2.73H1080v2.73Zm10.35-4.68h-4.69a0.965,0.965,0,0,0-.97.97v4.69a0.973,0.973,0,0,0,.97.98h4.69a0.982,0.982,0,0,0,.98-0.98v-4.69A0.973,0.973,0,0,0,1090.35,1849.77Zm-0.98,4.68h-2.73v-2.73h2.73v2.73Zm-12.97-7.42a0.975,0.975,0,1,0,0-1.95,0.993,0.993,0,0,0-.69.28,1,1,0,0,0,0,1.39A0.993,0.993,0,0,0,1076.4,1847.03Z" transform="translate(-1055 -1815)"/>
</svg>