<svg xmlns="http://www.w3.org/2000/svg" width="112.91" height="134.84" viewBox="0 0 112.91 134.84">
  <defs>
    <style>
      .cls-1 {
        fill: #3fa35d;
        fill-rule: evenodd;
      }
    </style>
  </defs>
  <path id="Shape_142.svg" data-name="Shape 142.svg" class="cls-1" d="M1221.29,1612.17c-9.3.82-17.11-8.24-23.7-13.72-7.97-6.65-16.13-13.38-23.1-21.09-11.05-12.2-9.43-29.76-3.57-44.17q-7.785-11.88-15.55-23.75c-8.08.26-17.37-4.61-16.24-13.81,1.26-10.25,14.28-17.24,23.59-18.17,4.82-.48,8.92,1.38,10.87,5.97,1.1,2.58,2.22,8.69.63,11.53a14.96,14.96,0,0,1,1.74,2.53q3.18,4.485,6.34,8.99,4.26,6.03,8.5,12.06c0.13,0.15.27,0.29,0.4,0.44a58.192,58.192,0,0,1,18.85-.33c4.73,0.73,9.5,2.31,13.18,5.46,3.36,2.87,5.37,6.98,7.37,10.84a355.3,355.3,0,0,1,20.24,46.11C1257,1598.71,1236.06,1610.87,1221.29,1612.17Zm-51.58-123.77c-1.03-9.64-11.27-5.24-16.8-2.28-5.36,2.87-13.43,11.01-5.81,16.33,2.64,1.84,6.42,2.24,9.56,1.91a2.008,2.008,0,0,1,2.26,1.38c0.3,0.46.6,0.93,0.91,1.39a18.481,18.481,0,0,0,3.68-2.35,5.45,5.45,0,0,1-3.15-.04,0.043,0.043,0,0,1-.02-0.07c1.76-1.98,4.18-3.21,5.93-5.23a15.378,15.378,0,0,0,2.7-4.41C1168.92,1492.9,1169.93,1490.49,1169.71,1488.4Zm76.8,95.44c-1.01-4.43-3.48-8.88-5.21-13.05-3.98-9.61-8.08-19.2-12.64-28.56a103.118,103.118,0,0,0-5.86-10.98c-2.86-4.45-7.42-6.53-12.49-7.51a48.907,48.907,0,0,0-15.05-.35,12.87,12.87,0,0,1,1.78,2.68,2.681,2.681,0,0,1,.25,1.29,4.9,4.9,0,0,1,.52,3.88,11.98,11.98,0,0,1-3.08,4.76,10.3,10.3,0,0,1-10.58,3.09,0.036,0.036,0,0,1,0-.07,19.419,19.419,0,0,0,7.32-4.73,9.416,9.416,0,0,0,2.39-3.35,1.843,1.843,0,0,0-.25-1.42,0.031,0.031,0,0,0-.02-0.01c-2.23-1.33-3.86-3.99-5.45-6.16a3.369,3.369,0,0,1-.29-0.35c-0.13-.18-0.25-0.37-0.38-0.55-0.43-.55-0.86-1.15-1.26-1.78q-3.69-5.235-7.38-10.46-3.165-4.5-6.35-9.01c-0.4-.57-0.9-1.17-1.41-1.8a14.166,14.166,0,0,1-2.08,2.22c-0.22.19-.46,0.39-0.7,0.58a8.94,8.94,0,0,1-4.49,5.23,12.085,12.085,0,0,1-3.03,1.14q5.01,7.665,10.03,15.32c1.53,2.34,3.97,5,4.99,7.63,0.89,2.29-.33,3.59-1.15,6.03-3.36,9.95-5.75,22.69.13,32.15,5.1,8.23,14.14,14.83,21.41,21.03q6.045,5.175,12.24,10.17c1.67,1.36,3.31,2.83,5.07,4.07,3.41,2.42,6.74,2.51,10.72,1.75C1234.65,1604.71,1249.47,1596.71,1246.51,1583.84Zm-9.8-19.3a9.768,9.768,0,0,1-5.08-.31,11.687,11.687,0,0,1-.4,5.36c-0.64,1.68-3.37,1.55-3.31-.45,0.07-2.15.17-4.34,0.29-6.51-2.05-1.46-3.73-4.4-6.23-4.87a0.156,0.156,0,0,1,0-.3c2.03-.43,3.83.75,5.53,1.69a9.492,9.492,0,0,0,.92.43c0.3-2.33.96-4.7,0.76-7.02-0.02-.28.38-0.3,0.46-0.06a31.087,31.087,0,0,1,1.56,7.9,42.093,42.093,0,0,1,5.5,1.09A1.6,1.6,0,0,1,1236.71,1564.54Zm-13.03,10.77a37.921,37.921,0,0,0-5.14-1.84,43.216,43.216,0,0,1-.48,6.76c-0.32,1.97-3.28,1.36-3.34-.45-0.08-2.53-.06-5.15.07-7.77a32.974,32.974,0,0,1-7.76-5.21,0.257,0.257,0,0,1,.24-0.43,51.392,51.392,0,0,1,7.72,2.57c0.18-2.18.45-4.33,0.8-6.41a0.47,0.47,0,0,1,.9,0c0.38,2.58,1.46,4.92,1.71,7.54,2.39,0.64,4.81,1.05,7.01,2.28C1227.37,1573.44,1225.65,1576.26,1223.68,1575.31Zm-12.25,8.87a0.921,0.921,0,0,1-1.44,1.11,22.559,22.559,0,0,0-7.2-3.65,44.093,44.093,0,0,0,.91,6.18c0.5,2.05-2.36,2.73-3.1.85a21.884,21.884,0,0,1-1.21-8.14c-3.73-1.19-7.41-2.52-10.2-5.48a0.2,0.2,0,0,1,.08-0.33c3.21-.51,6.86,1.2,10.16,2.65a35.7,35.7,0,0,0-.26-6.04c-0.02-.08.09-0.18,0.16-0.09a14.329,14.329,0,0,1,3.08,7.35C1205.58,1579.71,1209.69,1581.09,1211.43,1584.18Zm-53.08-91.37c-2.66,2.66-9.99,1.55-9.99,1.55l8.71-3.59,4.75-4.91,0.37,1.44A19.415,19.415,0,0,1,1158.35,1492.81Z" transform="translate(-1139.03 -1477.38)"/>
</svg>