<svg width="80" height="58" xmlns="http://www.w3.org/2000/svg"><script xmlns="" type="text/javascript" charset="utf-8" id="zm-extension"/><g fill="none"><path d="M42 3.418C31.684 7.56 24.316 17.504 24.316 29.104S31.579 50.75 42 54.789c10.316-4.143 17.684-14.085 17.684-25.685 0-11.6-7.368-21.543-17.684-25.686z" fill="#FEDD00"/><path d="M29.368 57.379C13.578 57.379.632 44.743.632 29.104.632 13.568 13.474.829 29.368.829c15.895 0 28.737 12.635 28.737 28.275C58 44.743 45.158 57.379 29.368 57.379zm0-55.411c-15.263 0-27.684 12.221-27.684 27.24 0 15.017 12.421 27.238 27.684 27.238 15.264 0 27.685-12.221 27.685-27.239S44.632 1.967 29.368 1.967zM68.737 8.39c-1.58-1.347-3.369-2.486-5.158-3.419l.526-.932c1.895.932 3.79 2.175 5.369 3.625l-.737.725z" fill="#3F3F3F"/><path d="M50.737 57.379C34.947 57.379 22 44.743 22 29.104 22 13.568 34.842.829 50.737.829c2.842 0 5.684.414 8.42 1.242l-.315 1.036c-2.631-.828-5.368-1.14-8.105-1.14-15.263 0-27.684 12.222-27.684 27.24 0 15.018 12.42 27.24 27.684 27.24 15.263 0 27.684-12.222 27.684-27.24 0-5.282-1.579-10.46-4.526-14.914l.842-.518c3.052 4.557 4.631 9.943 4.631 15.432.106 15.536-12.736 28.172-28.631 28.172z" fill="#3F3F3F"/><path fill="#3F3F3F" d="M28.702 17.73l15.79-8.42.488.914-15.79 8.42zm-1.02 9.756L50.875 14.83l.496.91-23.193 12.656zm1.098 8.176l25.263-13.699.494.91-25.263 13.7zm3.029 6.573l22.105-11.563.48.918L32.29 43.153zm5.341 5.511l14.782-7.39.463.926-14.78 7.39z"/></g></svg>