<svg width="80" height="58" xmlns="http://www.w3.org/2000/svg"><script xmlns="" type="text/javascript" charset="utf-8" id="zm-extension"/><g fill="none" fill-rule="evenodd"><path d="M20.8 38.432c0 4.143-3.398 7.502-7.588 7.502-4.191 0-7.59-3.359-7.59-7.502 0-4.144 3.399-7.502 7.59-7.502 4.19 0 7.588 3.358 7.588 7.502M1.6 10.438H72V5.166H1.6z" fill="#FEDD00"/><path d="M44.267 49.456h-43.2a.53.53 0 0 1-.534-.527V1.475a.53.53 0 0 1 .534-.528h71.466a.53.53 0 0 1 .534.528v23.727H72v-23.2H1.6v46.4h42.667v1.054z" fill="#3F3F3F"/><path fill="#3F3F3F" d="M62.222 10.438h10.845V9.384H62.222zm-10.667 0h6.401V9.384h-6.4zm-51.022 0H47.29V9.384H.533zM11.717 47.35a8.021 8.021 0 0 1-4.234-1.21c-3.738-2.32-4.87-7.209-2.527-10.903a8.002 8.002 0 0 1 5.583-3.62l.528-.078.16 1.043-.528.078a6.936 6.936 0 0 0-4.838 3.137c-2.033 3.201-1.051 7.44 2.188 9.449a6.952 6.952 0 0 0 5.232.874 6.88 6.88 0 0 0 4.325-3.04c1-1.576 1.309-3.44.867-5.249l-.125-.513 1.037-.247.126.512a7.776 7.776 0 0 1-1 6.057 7.943 7.943 0 0 1-4.99 3.508c-.6.136-1.205.202-1.804.202m5.913-11.558l-.318-.424a6.823 6.823 0 0 0-1.895-1.737l-.452-.28.567-.894.452.28a7.936 7.936 0 0 1 2.19 2.004l.315.425-.86.626z"/><path d="M26.315 49.229l-1.504-2.043a.524.524 0 0 1-.035-.568 14.57 14.57 0 0 0 1.38-3.407.53.53 0 0 1 .485-.392c.28-.034 2.884-.456 4.84-.774l-.03-5.43-4.922-.785a.53.53 0 0 1-.429-.378 14.628 14.628 0 0 0-1.217-3.014.518.518 0 0 1 .042-.566l2.985-3.931-3.79-3.93c-1.563 1.074-3.744 2.578-3.994 2.767a.539.539 0 0 1-.638.062 14.902 14.902 0 0 0-3.781-1.62.53.53 0 0 1-.413-.472l-.813-4.819H8.985l-.812 4.819a.524.524 0 0 1-.413.472c-1.42.387-2.766.977-4.003 1.753a.54.54 0 0 1-.575-.002L.669 25.367l.579-.886 2.23 1.422a15.983 15.983 0 0 1 3.691-1.612l.838-4.975a.532.532 0 0 1 .526-.441h6.4c.26 0 .483.187.526.44l.838 4.976c1.205.354 2.365.85 3.455 1.477.563-.429 1.727-1.228 4.136-2.88a.538.538 0 0 1 .689.07l4.417 4.579a.52.52 0 0 1 .042.68l-3.054 4.022a15.85 15.85 0 0 1 1.05 2.603l5.035.802c.258.04.447.26.448.517l.035 6.327a.528.528 0 0 1-.446.523c-2.891.473-4.295.703-5.004.782a15.53 15.53 0 0 1-1.23 3.041l1.307 1.775-.862.62zm52.618 8.664H45.867a.53.53 0 0 1-.534-.527V26.784a.53.53 0 0 1 .534-.528h5.066v1.055H46.4v29.527h32V27.311H55.022v-1.055h23.911a.53.53 0 0 1 .534.528v30.582a.53.53 0 0 1-.534.527M4.8 6.22h9.6V5.166H4.8zm13.867 0H24V5.166h-5.333z" fill="#3F3F3F"/><path d="M52.848 45.238h.01-.01zm.533-9.49v9.49a.533.533 0 0 1-.019.143l-1.323 4.653 5.322-2.63a.551.551 0 0 1 .239-.057h14.885v-11.6H53.381zM51.2 51.565a.542.542 0 0 1-.34-.12.522.522 0 0 1-.173-.55l1.628-5.73V35.22c0-.29.24-.527.533-.527h20.17a.53.53 0 0 1 .534.527v12.655a.53.53 0 0 1-.533.527H57.726l-6.287 3.108a.55.55 0 0 1-.24.056z" fill="#3F3F3F"/></g></svg>