<svg xmlns="http://www.w3.org/2000/svg" width="101.602" height="96.025" viewBox="0 0 101.602 96.025">
    <defs>
        <style>
            .cls-1{fill:#97f2ff}
        </style>
    </defs>
    <g id="Device_app" transform="translate(-556 -2.349)">
        <rect id="Rectangle_5005" width="23.791" height="43.942" class="cls-1" data-name="Rectangle 5005" rx="11.895" transform="translate(633.811 48.419)"/>
        <rect id="Rectangle_5006" width="39.487" height="59.439" class="cls-1" data-name="Rectangle 5006" rx="12" transform="translate(561.829 38.936)"/>
        <rect id="Rectangle_5007" width="88.048" height="59.725" class="cls-1" data-name="Rectangle 5007" rx="12" transform="translate(569.163 8.93)"/>
        <g id="Group_3033" data-name="Group 3033" transform="translate(556 2.349)">
            <g id="Group_3032" data-name="Group 3032">
                <path id="Path_29844" d="M649.786 46.774v-36.2a8.236 8.236 0 0 0-8.227-8.227h-72.4a8.236 8.236 0 0 0-8.227 8.227v24.682A4.942 4.942 0 0 0 556 40.192v49.362a4.942 4.942 0 0 0 4.936 4.936h36.2a4.942 4.942 0 0 0 4.936-4.936h13.79a4.936 4.936 0 0 0 4.762-6.234l-3.235-11.865h9.364v18.1a4.942 4.942 0 0 0 4.936 4.936h18.1a4.942 4.942 0 0 0 4.936-4.936V51.71a4.942 4.942 0 0 0-4.939-4.936zm-51.006 42.78a1.648 1.648 0 0 1-1.645 1.645h-36.2a1.648 1.648 0 0 1-1.645-1.645v-3.291h39.49zm0-6.581h-39.489v-36.2h39.489zm0-39.489h-39.489v-3.292a1.648 1.648 0 0 1 1.645-1.645h36.2a1.648 1.648 0 0 1 1.645 1.645zm18.668 40.7a1.645 1.645 0 0 1-1.588 2.078h-13.79v-3.29h15.047zm-15.378-4.5v-8.23h11.906l2.244 8.227zm24.681-11.518H602.07v-9.874h24.681zm0-16.454V55H602.07V40.192a4.942 4.942 0 0 0-4.936-4.936h-32.907v-24.68a4.942 4.942 0 0 1 4.936-4.936h72.4a4.942 4.942 0 0 1 4.936 4.936v36.2h-14.812a4.942 4.942 0 0 0-4.936 4.934zm24.68 37.843a1.648 1.648 0 0 1-1.645 1.645h-18.1a1.648 1.648 0 0 1-1.645-1.645v-3.292h21.39zm0-6.581h-21.39V58.292h21.39zm0-27.971h-21.39V51.71a1.648 1.648 0 0 1 1.645-1.645h18.1a1.648 1.648 0 0 1 1.645 1.645z" data-name="Path 29844" transform="translate(-556 -2.349)"/>
            </g>
        </g>
        <g id="Group_3035" data-name="Group 3035" transform="translate(564.708 63.708)">
            <g id="Group_3034" data-name="Group 3034">
                <path id="Rectangle_5008" d="M0 0h9.308v3.291H0z" data-name="Rectangle 5008" transform="rotate(-45 7.945 3.291)"/>
            </g>
        </g>
        <g id="Group_3037" data-name="Group 3037" transform="translate(571.289 55.481)">
            <g id="Group_3036" data-name="Group 3036">
                <path id="Rectangle_5009" d="M0 0h27.923v3.291H0z" data-name="Rectangle 5009" transform="rotate(-45 23.834 9.873)"/>
            </g>
        </g>
        <g id="Group_3039" data-name="Group 3039" transform="translate(574.579 50.548)">
            <g id="Group_3038" data-name="Group 3038">
                <path id="Rectangle_5010" d="M0 0h13.961v3.291H0z" data-name="Rectangle 5010" transform="rotate(-45 11.917 4.936)"/>
            </g>
        </g>
        <g id="Group_3041" data-name="Group 3041" transform="translate(633.811 62.067)">
            <g id="Group_3040" data-name="Group 3040">
                <path id="Rectangle_5011" d="M0 0h11.632v3.291H0z" data-name="Rectangle 5011" transform="rotate(-45 9.928 4.112)"/>
            </g>
        </g>
        <g id="Group_3043" data-name="Group 3043" transform="translate(637.101 68.655)">
            <g id="Group_3042" data-name="Group 3042">
                <path id="Rectangle_5012" d="M0 0h11.632v3.291H0z" data-name="Rectangle 5012" transform="rotate(-45 9.928 4.112)"/>
            </g>
        </g>
        <g id="Group_3045" data-name="Group 3045" transform="translate(599.26 20.931)">
            <g id="Group_3044" data-name="Group 3044">
                <path id="Rectangle_5013" d="M0 0h13.961v3.291H0z" data-name="Rectangle 5013" transform="rotate(-45 11.917 4.936)"/>
            </g>
        </g>
        <g id="Group_3047" data-name="Group 3047" transform="translate(614.069 17.64)">
            <g id="Group_3046" data-name="Group 3046">
                <path id="Rectangle_5014" d="M0 0h13.961v3.291H0z" data-name="Rectangle 5014" transform="rotate(-45 11.917 4.936)"/>
            </g>
        </g>
        <g id="Group_3049" data-name="Group 3049" transform="translate(604.195 30.804)">
            <g id="Group_3048" data-name="Group 3048">
                <path id="Rectangle_5015" d="M0 0h9.308v3.291H0z" data-name="Rectangle 5015" transform="rotate(-45 7.945 3.291)"/>
            </g>
        </g>
        <g id="Group_3051" data-name="Group 3051" transform="translate(612.413 11.062)">
            <g id="Group_3050" data-name="Group 3050">
                <path id="Rectangle_5016" d="M0 0h9.331v3.291H0z" data-name="Rectangle 5016" transform="rotate(-45 7.964 3.299)"/>
            </g>
        </g>
    </g>
</svg>