<svg xmlns="http://www.w3.org/2000/svg" width="64" height="55" viewBox="0 0 64 55"><g><g><g><path d="M55 0H1a1 1 0 1 0 0 2h54c3.859 0 7 3.14 7 7v44.998a1 1 0 1 0 2 0V9c0-4.962-4.037-9-9-9z"/></g><g><path d="M9 37h8v8H9zm0-9.999h8V35H9zM9 17h8v8.001H9zM9 7h8v8H9zm48 2v6h-7.405a16.692 16.692 0 0 0-.595-.595V7h6c1.103 0 2 .897 2 2zm-8 36v-7.408c.203-.192.399-.39.592-.592H57v8zm-10-3.054a15.843 15.843 0 0 0 5.048-1.143c.012-.003.023-.009.035-.013 1.03-.425 2.008-.95 2.917-1.571v5.78h-8zm-10-2.735a15.924 15.924 0 0 0 2.975 1.597l.01.004a15.898 15.898 0 0 0 5.016 1.135v3.054H29zm-6.943-12.21A15.898 15.898 0 0 0 24.789 35H19v-7.999zm2.73-10V17zm-.271.429l-.021.036a15.863 15.863 0 0 0-2.438 7.536H19v-8.001h5.786c-.095.14-.178.286-.27.429zM27 14.416c-.199.19-.394.384-.583.584H19V7h8zm10-4.365a15.896 15.896 0 0 0-8 2.735V7h8zm4.937.458l-.004-.001A15.927 15.927 0 0 0 39 10.05V7h8v5.777a15.915 15.915 0 0 0-5.063-2.268zM57 25.001h-3.045a15.876 15.876 0 0 0-2.448-7.551l-.01-.016c-.092-.144-.176-.293-.272-.434H57zm0 2V35h-5.777a15.889 15.889 0 0 0 2.732-7.999zm-7.564 2.643l2.51-2.444a13.88 13.88 0 0 1-1.912 5.926zm-.998-12.939l-3.361-.491-1.505-3.054a14.064 14.064 0 0 1 4.866 3.545zM32.44 13.16l-1.505 3.054-3.361.491a14.054 14.054 0 0 1 4.866-3.545zm-6.463 19.963a13.88 13.88 0 0 1-1.91-5.921l2.508 2.442zm12.029 6.874c-1.094 0-2.154-.139-3.177-.377l3.177-1.669 3.177 1.669a13.987 13.987 0 0 1-3.177.377zm.46-4.061a.999.999 0 0 0-.93-.001l-5.319 2.795a14.06 14.06 0 0 1-4.596-3.376l1.011-5.892a1.002 1.002 0 0 0-.288-.886l-4.246-4.136c.22-1.984.864-3.838 1.827-5.485l5.816-.847a1 1 0 0 0 .752-.547l2.595-5.252c.94-.2 1.913-.31 2.913-.31 1 0 1.973.11 2.913.31l2.595 5.252a1 1 0 0 0 .752.547l5.816.848a13.892 13.892 0 0 1 1.827 5.483l-4.248 4.138a1 1 0 0 0-.288.886l1.011 5.894a14.055 14.055 0 0 1-4.596 3.374zM19 45v-8h7.42c.188.198.382.392.58.581V45zM1 45a1 1 0 1 0 0 2h6v6.998a1 1 0 1 0 2 0V47h8v6.998a1 1 0 1 0 2 0V47h8v6.998a1 1 0 1 0 2 0V47h8v6.998a1 1 0 1 0 2 0V47h8v6.998a1 1 0 1 0 2 0V47h8v6.998a1 1 0 1 0 2 0V9c0-2.206-1.794-4-4-4H1a1 1 0 1 0 0 2h6v8H1a1 1 0 1 0 0 2h6v8.001H1a1 1 0 1 0 0 2h6V35H1a1 1 0 1 0 0 2h6v8z"/></g><g><path d="M41.174 30h-6.346l-1.963-6.032 5.137-3.732 5.135 3.731zM38.59 18.191a1 1 0 0 0-1.176 0l-6.312 4.586a1 1 0 0 0-.363 1.12l2.412 7.413a1 1 0 0 0 .951.69h7.8a1 1 0 0 0 .95-.69l2.412-7.414a1.002 1.002 0 0 0-.363-1.119z"/></g></g></g></svg>