<svg width="84" height="84" viewBox="0 0 84 84" fill="none" xmlns="http://www.w3.org/2000/svg">
<path d="M14.5 35.5H23V62.5H14V73.5L18.5 76H51.5L57 75L59 73V69.5V46L66 49L76.5 43.5L80 38.5L81.5 32.5V15L74 13.5L69 10.5L66 8.5L61 12L54.5 15H50V21.5H18.5L15.5 23L14.5 26V35.5Z" fill="white"/>
<path d="M66 45.1669L63.8344 44.3929C57.7268 42.2115 53.625 36.3896 53.625 29.9051V18.3041L54.5981 18.1714C58.5086 17.6381 62.211 16.0631 65.3025 13.6196L66 13.0673L66.6975 13.6196C69.789 16.0643 73.4914 17.6381 77.4019 18.1714L78.375 18.3041V29.9051C78.375 36.3908 74.2721 42.2126 68.1645 44.394L66 45.1669Z" fill="#93DD00"/>
<path d="M26.625 25.125H46.875V30.75H26.625V25.125Z" fill="#93DD00"/>
<path d="M55.875 63.375H42.375V56.625H55.875V63.375Z" fill="#93DD00"/>
<path d="M55.875 72.375H42.375V65.625H55.875V72.375Z" fill="#93DD00"/>
<path d="M81.75 13.875C76.2465 13.875 71.0726 11.7318 67.1824 7.84158L66 6.65808L64.8188 7.84046C60.9274 11.7318 55.7535 13.875 50.25 13.875H49.125V20.625H18.75C15.6484 20.625 13.125 23.1483 13.125 26.25V36.375H22.125V61.125H13.125V71.2499C13.125 74.3516 15.6484 76.8749 18.75 76.8749H54.75C57.8516 76.8749 60.375 74.3516 60.375 71.2499V47.8016C61.0061 48.1065 61.6508 48.3922 62.3213 48.6318L66 49.9447L69.6787 48.6318C77.5717 45.8115 82.875 38.2863 82.875 29.9051V13.875H81.75ZM53.625 42.4837V52.125H28.875V36.375H50.2241C50.9947 38.6025 52.1456 40.6713 53.625 42.4837ZM15.375 34.125V26.25C15.375 24.3892 16.8892 22.875 18.75 22.875C20.6108 22.875 22.125 24.3892 22.125 26.25V34.125H15.375ZM15.375 71.2499V63.375H22.125V71.2499C22.125 73.1107 20.6108 74.6249 18.75 74.6249C16.8892 74.6249 15.375 73.1107 15.375 71.2499ZM58.125 71.2499C58.125 73.1107 56.6108 74.6249 54.75 74.6249H23.2207C23.9351 73.6822 24.375 72.5212 24.375 71.2499V26.25C24.375 24.9787 23.9351 23.8177 23.2207 22.875H49.125V29.9051C49.125 31.3451 49.2926 32.7558 49.5919 34.125H26.625V54.375H55.875V44.8192C56.5804 45.4425 57.3308 46.0196 58.125 46.5405V71.2499ZM80.625 29.9051C80.625 37.338 75.9214 44.0126 68.9227 46.5123L66 47.5552L63.0773 46.5123C56.0786 44.0126 51.375 37.338 51.375 29.9051V16.098C56.8672 15.8336 62.004 13.6365 66 9.83171C69.9949 13.6365 75.1328 15.8336 80.625 16.098V29.9051Z" fill="black"/>
<path d="M61.1704 31.0796L59.5796 32.6704L63.75 36.8408L74.6704 25.9204L73.0796 24.3296L63.75 33.6593L61.1704 31.0796Z" fill="black"/>
<path d="M26.625 25.125H28.875V27.375H26.625V25.125Z" fill="black"/>
<path d="M31.125 25.125H46.875V27.375H31.125V25.125Z" fill="black"/>
<path d="M26.625 29.625H46.875V31.875H26.625V29.625Z" fill="black"/>
<path d="M34.5 61.125C35.121 61.125 35.625 61.6301 35.625 62.25H37.875C37.875 60.3892 36.3608 58.875 34.5 58.875V56.625H32.25V58.875H28.875V62.25C28.875 64.1107 30.3892 65.625 32.25 65.625H34.5C35.121 65.625 35.625 66.1301 35.625 66.75V67.875H32.25C31.629 67.875 31.125 67.3698 31.125 66.75H28.875C28.875 68.6107 30.3892 70.125 32.25 70.125V72.375H34.5V70.125H37.875V66.75C37.875 64.8892 36.3608 63.375 34.5 63.375H32.25C31.629 63.375 31.125 62.8698 31.125 62.25V61.125H34.5Z" fill="black"/>
<path d="M31.125 38.625H33.375V40.875H31.125V38.625Z" fill="black"/>
<path d="M35.625 38.625H37.875V40.875H35.625V38.625Z" fill="black"/>
<path d="M40.125 38.625H42.375V40.875H40.125V38.625Z" fill="black"/>
</svg>