<?xml version="1.0" encoding="UTF-8"?>
<!-- Generator: Adobe Illustrator 21.0.0, SVG Export Plug-In . SVG Version: 6.00 Build 0)  -->
<svg version="1.1" xmlns="http://www.w3.org/2000/svg" xmlns:xlink="http://www.w3.org/1999/xlink" x="0px" y="0px" viewBox="0 0 160 160" style="enable-background:new 0 0 160 160;" xml:space="preserve">
<style type="text/css">
	.st0{fill:#0784FF;}
	.st1{fill:#90C661;}
	.st2{fill:#689F38;}
	.st3{fill:#B8C2FF;}
	.st4{fill:#7388FF;}
	.st5{fill:#DFE5FF;}
	.st6{fill:#CCD4FF;}
	.st7{fill:#EFF2FF;}
	.st8{fill:#A4B1FF;}
	.st9{fill:#002755;}
	.st10{fill:#B4D813;}
	.st11{fill:#333333;}
	.st12{fill:#1E1E1D;}
	.st13{fill:#DAEFF6;}
	.st14{fill:#DD2E2B;}
	.st15{fill:#EF5122;}
	.st16{fill:#FFDB6F;}
	.st17{fill:#62BEFF;}
	.st18{fill:#E64028;}
	.st19{fill:#D43B25;}
	.st20{fill:#869F15;}
	.st21{fill:#E8E1D5;}
	.st22{fill:#D6CFC4;}
	.st23{fill:#716680;}
	.st24{fill:#9AD5ED;}
	.st25{fill:#CEE8F2;}
	.st26{fill:#98B70E;}
	.st27{fill:#90AB13;}
	.st28{fill:#FFCFB4;}
	.st29{fill:#604631;}
	.st30{fill:#FCDAC4;}
	.st31{fill:#2F2C29;}
	.st32{fill:#F4F4F4;}
	.st33{fill:#FFDC0F;}
	.st34{fill:#63635F;}
	.st35{fill:#71D182;}
	.st36{fill:#14DDF7;}
	.st37{fill:#008EE5;}
	.st38{fill:#FCD2BE;}
	.st39{fill:#FAB998;}
	.st40{fill:#F9CE55;}
	.st41{fill:#E2A11E;}
	.st42{fill:#6B4B3D;}
	.st43{fill:#5B3D2D;}
	.st44{fill:#D45B5B;}
	.st45{fill:#B3D5E4;}
	.st46{fill:#FFFFFF;}
	.st47{fill:#E4D9B3;}
	.st48{fill:#E2780E;}
	.st49{fill:#A85000;}
	.st50{fill:#CECECE;}
</style>
<g id="Слой_1">
</g>
<g id="Слой_2">
</g>
<g id="Слой_3">
</g>
<g id="Слой_4">
</g>
<g id="Слой_5">
</g>
<g id="Слой_6">
</g>
<g id="Слой_7">
</g>
<g id="Слой_8">
	<g>
		<path class="st10" d="M120.6,73.3c-0.3,0-0.5,0-0.8,0c-10,0.4-17.9,8.6-17.9,18.7c0,8.7,6,16.1,14.1,18.1c1.5,0.4,3,0.6,4.6,0.6    c10.3,0,18.7-8.4,18.7-18.7C139.3,81.6,130.9,73.3,120.6,73.3z M120.6,102c-0.6,0-1.1,0-1.6-0.1c-4.7-0.8-8.4-4.9-8.4-9.9    c0-5.3,4.1-9.6,9.2-10c0.3,0,0.5,0,0.8,0c5.5,0,10,4.5,10,10C130.6,97.5,126.1,102,120.6,102z"/>
		<path class="st2" d="M110.6,92c0,5,3.6,9.1,8.4,9.9c-0.7,2.9-1.7,5.7-3,8.3c-8.1-2.1-14.1-9.4-14.1-18.1c0-10.1,8-18.3,17.9-18.7    V82C114.6,82.4,110.6,86.7,110.6,92z"/>
		<path class="st10" d="M115,70.5v23.1c0,19.6-15.7,35.8-35.3,36c-4.2,0-8.2-0.7-11.9-1.9c-12.1-4.2-21.2-14.6-23.4-27.5    c-0.4-2-0.5-4.1-0.5-6.2V70.5c0-1.4,1.2-2.6,2.6-2.6h66.1C113.8,68,115,69.1,115,70.5z"/>
		<path class="st2" d="M69.2,125.4c-0.4,0.8-0.9,1.5-1.5,2.3c-12.1-4.2-21.2-14.6-23.4-27.5c0.9,0.3,1.7,0.7,2.5,1.3    c1.9,1.3,3.4,3.1,4.3,5.2c1.2-0.2,2.3-0.3,3.5-0.3c8.1,0,14.6,4.5,15.9,10.9C71,120,70.6,122.8,69.2,125.4z"/>
		<path class="st2" d="M115,86.7V94c0,19.7-15.9,35.6-35.6,35.6c-19.7,0-35.6-15.9-35.6-35.6v-7.3c0,19.7,15.9,35.6,35.6,35.6    S115,106.4,115,86.7z"/>
		<path class="st2" d="M107.8,136.1H50.9v9.4h56.9V136.1z"/>
		<path class="st48" d="M65.9,120.2c-0.1,1-0.4,2-0.9,3c-1.7,3.2-5.5,5.9-10.2,6.8c-7.1,1.4-13.7-1.6-14.7-6.7c0,0,0-0.1,0-0.1    c-0.9-5.1,4-10.3,11-11.7c6.2-1.2,12,0.9,14,4.8c0.3,0.6,0.5,1.2,0.7,1.9C65.9,118.9,66,119.6,65.9,120.2z"/>
		<path class="st49" d="M65,123.2c-1.7,3.2-5.5,5.9-10.2,6.8c-7.1,1.4-13.7-1.6-14.7-6.7c0,0,0-0.1,0-0.1H65z"/>
		<path class="st49" d="M54.8,130.1c-7.1,1.4-13.7-1.6-14.7-6.7c-0.1-0.7-0.2-1.4-0.1-2.1c2.1,3.9,7.8,6,14,4.8    c6.1-1.2,10.7-5.3,11.1-9.7c0.3,0.6,0.6,1.3,0.7,1.9C66.8,123.4,61.9,128.6,54.8,130.1z"/>
		<path class="st49" d="M65.9,120.2l-14.5,2.9c-0.1,0-0.3,0-0.4,0c-0.9,0-1.7-0.6-1.9-1.6c-0.2-1.1,0.5-2.1,1.5-2.3l14.5-2.9    c0.3,0.6,0.5,1.2,0.7,1.9C65.9,118.9,66,119.6,65.9,120.2z"/>
		<path class="st48" d="M44.7,121.6c-0.4,0.6-0.8,1.1-1.3,1.7c-4.1,4.8-10,6.6-13.9,4c-1.4-0.9-2.4-2.3-2.9-4    c-1.1-3.5-0.4-8.1,2.4-12.1c3.5-5.2,9.1-7.8,13.3-6.5c0.6,0.2,1.2,0.5,1.8,0.8c0.6,0.4,1,0.8,1.5,1.3    C48.5,110.2,48.2,116.3,44.7,121.6z"/>
		<path class="st49" d="M43.5,123.2c-4.1,4.8-10,6.6-13.9,4c-1.4-0.9-2.4-2.3-2.9-4H43.5z"/>
		<path class="st49" d="M44.7,121.6c-4,6-10.8,8.5-15.1,5.6c-0.6-0.4-1.1-0.9-1.5-1.4c4.2,1.3,9.8-1.3,13.3-6.5    c3.5-5.2,3.8-11.3,1-14.7c0.7,0.2,1.3,0.5,1.9,0.9C48.5,108.3,48.7,115.6,44.7,121.6z"/>
		<path class="st49" d="M45.6,106.8l-8.2,12.3c-0.4,0.6-1,0.9-1.6,0.9c-0.4,0-0.7-0.1-1.1-0.3c-0.9-0.6-1.1-1.8-0.5-2.7l8.2-12.3    c0.6,0.2,1.2,0.5,1.8,0.8C44.7,105.8,45.2,106.3,45.6,106.8z"/>
		<path class="st10" d="M20.7,130.2c0,1.2,0.9,2.3,2.1,2.5l28,5.3h57.2l28-5.3c1.2-0.2,2.1-1.3,2.1-2.5c0-1.4-1.1-2.5-2.5-2.5H23.2    C21.8,127.7,20.7,128.8,20.7,130.2z"/>
		<path class="st2" d="M115,73.8H43.8v3.9H115V73.8z"/>
		<path class="st50" d="M92.8,26.2c0-4.6-2.3-8.8-6.2-11.3c-0.9-0.6-2.1-0.3-2.7,0.6c-0.6,0.9-0.3,2.1,0.6,2.7    c2.8,1.7,4.4,4.7,4.4,8c0,3.3-1.7,6.3-4.4,8c-1.2,0.7-1.2,2.5,0,3.3c2.8,1.7,4.4,4.7,4.4,8c0,3.3-1.7,6.3-4.4,8    c-0.9,0.6-1.2,1.8-0.6,2.7c0.4,0.6,1,0.9,1.6,0.9c0.4,0,0.7-0.1,1-0.3c3.9-2.5,6.2-6.7,6.2-11.3c0-3.7-1.5-7.2-4.1-9.6    C91.3,33.3,92.8,29.9,92.8,26.2z"/>
		<path class="st50" d="M100.2,34.2c-0.9-0.6-2.1-0.3-2.7,0.6c-0.6,0.9-0.3,2.1,0.6,2.7c2.8,1.7,4.4,4.7,4.4,8c0,3.3-1.7,6.3-4.4,8    c-0.9,0.6-1.2,1.8-0.6,2.7c0.4,0.6,1,0.9,1.6,0.9c0.4,0,0.7-0.1,1-0.3c3.9-2.5,6.2-6.7,6.2-11.3C106.5,40.8,104.1,36.6,100.2,34.2    z"/>
		<path class="st50" d="M71.7,34.2c-0.9-0.6-2.1-0.3-2.7,0.6c-0.6,0.9-0.3,2.1,0.6,2.7c2.8,1.7,4.4,4.7,4.4,8c0,3.3-1.7,6.3-4.4,8    c-0.9,0.6-1.2,1.8-0.6,2.7c0.4,0.6,1,0.9,1.6,0.9c0.4,0,0.7-0.1,1-0.3c3.9-2.5,6.2-6.7,6.2-11.3C78,40.8,75.6,36.6,71.7,34.2z"/>
	</g>
</g>
</svg>