<svg xmlns="http://www.w3.org/2000/svg" xmlns:xlink="http://www.w3.org/1999/xlink" viewBox="0 0 52 52"><defs><style>.cls-1{fill:url(#linear-gradient);}.cls-2{fill:url(#linear-gradient-2);}.cls-3{fill:url(#linear-gradient-3);}.cls-4{fill:url(#linear-gradient-4);}.cls-5{fill:url(#linear-gradient-5);}.cls-6{fill:url(#linear-gradient-6);}.cls-7{fill:url(#linear-gradient-7);}.cls-8{fill:url(#linear-gradient-8);}.cls-9{fill:url(#linear-gradient-9);}.cls-10{fill:none;}</style><linearGradient id="linear-gradient" x1="26" y1="1.36" x2="26" y2="18.62" gradientUnits="userSpaceOnUse"><stop offset="0" stop-color="#757be5"/><stop offset="1" stop-color="#ebecfa"/></linearGradient><linearGradient id="linear-gradient-2" x1="26" y1="-9.09" x2="26" y2="50.81" xlink:href="#linear-gradient"/><linearGradient id="linear-gradient-3" x1="36.46" y1="20.11" x2="36.46" y2="58.29" xlink:href="#linear-gradient"/><linearGradient id="linear-gradient-4" x1="10.46" y1="20.11" x2="10.46" y2="58.29" xlink:href="#linear-gradient"/><linearGradient id="linear-gradient-5" x1="25.85" y1="21.88" x2="25.85" y2="11.28" xlink:href="#linear-gradient"/><linearGradient id="linear-gradient-6" x1="28.87" y1="3.49" x2="36.55" y2="3.49" xlink:href="#linear-gradient"/><linearGradient id="linear-gradient-7" x1="36.29" y1="30.13" x2="36.29" y2="21.55" xlink:href="#linear-gradient"/><linearGradient id="linear-gradient-8" x1="10.66" y1="38.46" x2="10.66" y2="31.64" xlink:href="#linear-gradient"/><linearGradient id="linear-gradient-9" x1="25.04" y1="2.24" x2="32.71" y2="2.24" xlink:href="#linear-gradient"/></defs><title>happieness</title><g id="Layer_2" data-name="Layer 2"><g id="Layer_1-2" data-name="Layer 1"><rect class="cls-1" x="25" y="3.49" width="2" height="11.08"/><polygon class="cls-2" points="26 11.55 5.74 52 46.26 52 26 11.55"/><polygon class="cls-3" points="36.46 20.97 20.92 52 52 52 36.46 20.97"/><polygon class="cls-4" points="10.46 31.12 0 52 20.92 52 10.46 31.12"/><polygon class="cls-5" points="25.73 19.39 22.44 18.66 26 11.55 29.26 18.06 25.73 19.39"/><polygon class="cls-6" points="36.55 5.73 28.88 5.73 28.88 1.24 36.55 1.24 35.41 3.49 36.55 5.73"/><polygon class="cls-7" points="36.46 29.33 40.1 28.25 36.46 20.97 32.48 28.92 36.46 29.33"/><polygon class="cls-8" points="10.46 37.45 7.99 36.04 10.46 31.12 13.33 36.85 10.46 37.45"/><rect class="cls-9" x="25.04" width="7.67" height="4.49"/><rect class="cls-10" width="52" height="52"/></g></g></svg>