<svg xmlns="http://www.w3.org/2000/svg" width="80" height="80" viewBox="0 0 80 80">
  <metadata><?xpacket begin="﻿" id="W5M0MpCehiHzreSzNTczkc9d"?>
<x:xmpmeta xmlns:x="adobe:ns:meta/" x:xmptk="Adobe XMP Core 5.6-c142 79.160924, 2017/07/13-01:06:39        ">
   <rdf:RDF xmlns:rdf="http://www.w3.org/1999/02/22-rdf-syntax-ns#">
      <rdf:Description rdf:about=""/>
   </rdf:RDF>
</x:xmpmeta>
                                                                                                    
                                                                                                    
                                                                                                    
                                                                                                    
                                                                                                    
                                                                                                    
                                                                                                    
                                                                                                    
                                                                                                    
                                                                                                    
                                                                                                    
                                                                                                    
                                                                                                    
                                                                                                    
                                                                                                    
                                                                                                    
                                                                                                    
                                                                                                    
                                                                                                    
                                                                                                    
                           
<?xpacket end="w"?></metadata>
<defs>
    <style>
      .cls-1 {
        fill: #fff;
        fill-rule: evenodd;
      }
    </style>
  </defs>
  <path class="cls-1" d="M850,5696.61a1.291,1.291,0,0,0,.182-0.18,2.189,2.189,0,0,1,1.748-.94c0.161-.01.324-0.01,0.486-0.01q15.339,0,30.68.01a5.646,5.646,0,0,1,1,.08,1.406,1.406,0,0,1,1.286,1.3,5.958,5.958,0,0,1,.07.89q0.009,5.76,0,11.51a3.973,3.973,0,0,1-.067.71,1.561,1.561,0,0,1-2.22,1.17,4.584,4.584,0,0,1-.737-0.44,3.253,3.253,0,0,0-1.676-.57,3.056,3.056,0,0,0-3.1,3.1,3,3,0,0,0,4.413,2.59c0.187-.1.357-0.22,0.539-0.33a5.126,5.126,0,0,1,.62-0.34,1.555,1.555,0,0,1,2.149,1.16,4.2,4.2,0,0,1,.075.81q0,5.04,0,10.06v0.38h10.414a4.481,4.481,0,0,1,.818.07,1.555,1.555,0,0,1,1.175,2.19,6.175,6.175,0,0,1-.5.83,2.931,2.931,0,0,0-.445,2.42,3.032,3.032,0,0,0,3.017,2.27,2.991,2.991,0,0,0,2.9-2.41,2.871,2.871,0,0,0-.492-2.34,4.5,4.5,0,0,1-.454-0.73,1.568,1.568,0,0,1,1.156-2.23,4.085,4.085,0,0,1,.78-0.07q3.592,0,7.184.01c1.471,0,2.943-.01,4.414,0a5.119,5.119,0,0,1,.782.06,1.429,1.429,0,0,1,1.286,1.27,5.629,5.629,0,0,1,.074.93q0.006,8.52,0,17.04,0,6.705.01,13.42a8.322,8.322,0,0,1-.062,1.08,1.972,1.972,0,0,1-.964,1.48,1.533,1.533,0,0,0-.175.14H850v-66.39Zm3.378,34.24v28.73h28.779v-8.13c-0.1.01-.17,0.01-0.242,0.02a7.3,7.3,0,0,1-2.088,0,6.348,6.348,0,0,1-5.308-7.66,5.4,5.4,0,0,1,3.3-3.98,9.257,9.257,0,0,1,3.6-.76c0.222-.01.443,0,0.685,0v-8.22H871.69a3.363,3.363,0,0,1-.449-0.01,1.663,1.663,0,0,1-1.339-.7,1.558,1.558,0,0,1-.054-1.73c0.151-.27.34-0.52,0.5-0.79a2.914,2.914,0,0,0-.719-3.89,2.843,2.843,0,0,0-3.2-.34,2.874,2.874,0,0,0-1.7,2.73,3.234,3.234,0,0,0,.6,1.78,4.562,4.562,0,0,1,.441.77,1.56,1.56,0,0,1-1.1,2.1,3.381,3.381,0,0,1-.778.08H853.378Zm52.732,0.05c0.012,0.2.017,0.37,0.035,0.54a7.154,7.154,0,0,1-.094,2.05,6.244,6.244,0,0,1-5.713,5.12,6.1,6.1,0,0,1-4.81-1.74,6.365,6.365,0,0,1-1.937-5.4c0.013-.18.027-0.36,0.041-0.55H885.46c0,0.17,0,.32,0,0.47q0,4.95,0,9.9a4.215,4.215,0,0,1-.058.74,1.576,1.576,0,0,1-2.329,1.17,5.521,5.521,0,0,1-.633-0.39,2.992,2.992,0,0,0-4.751,2.03,3.048,3.048,0,0,0,2.029,3.29,2.978,2.978,0,0,0,2.707-.41,5.894,5.894,0,0,1,.771-0.45,1.559,1.559,0,0,1,2.193,1.17,4.908,4.908,0,0,1,.065.86q0.006,4.98,0,9.98c0,0.1.019,0.21,0.028,0.31,0.695,0.07,28.439.04,28.707-.03V5730.9H906.11Zm-44.58-3.35c-0.01-.17-0.01-0.28-0.025-0.39a7.051,7.051,0,0,1,.1-2.38,6.289,6.289,0,0,1,7.226-4.89,6.191,6.191,0,0,1,4.288,2.91,6.3,6.3,0,0,1,.871,4.38c-0.013.1-.02,0.21-0.03,0.33h8.135c0.078-.42.065-7.84-0.016-8.13a6.578,6.578,0,0,1-5.341-1.33,6.216,6.216,0,0,1-2.344-4.96,6.413,6.413,0,0,1,7.7-6.14v-8.08c-0.614-.09-28.432-0.05-28.693.03v28.65h8.13ZM930,5717.32a2.081,2.081,0,0,1-1.776,1.06c-0.534.02-1.071,0.01-1.606,0.01h-7.782c-0.085,0-.171.02-0.3,0.03,0.019,0.17.038,0.33,0.055,0.48a6.379,6.379,0,0,1-.765,4.08,6.118,6.118,0,0,1-4.625,3.13,6.282,6.282,0,0,1-7-4.9,7.047,7.047,0,0,1-.1-2.45c0.015-.11.014-0.22,0.023-0.37h-7.54c-0.673,0-1.346,0-2.019-.01-0.125,0-.25-0.01-0.374-0.02a1.531,1.531,0,0,1-1.516-1.51c-0.021-.22-0.024-0.44-0.024-0.67q0-4.38,0-8.78v-0.49c-0.185.02-.329,0.03-0.474,0.05a6.8,6.8,0,0,1-3.719-.58,6.265,6.265,0,0,1,1.371-11.8,7.491,7.491,0,0,1,2.454-.09,2.293,2.293,0,0,0,.261.02,0.843,0.843,0,0,0,.107-0.04v-7.9c0-.59-0.023-1.17.009-1.76a2.011,2.011,0,0,1,1.092-1.75,0.2,0.2,0,0,0,.044-0.06H930v34.32Zm-3.3-30.93H897.934c-0.006.12-.016,0.22-0.016,0.32,0,3.15.01,6.31,0.012,9.46a11.45,11.45,0,0,1-.037,1.19,1.579,1.579,0,0,1-2.34,1.29c-0.233-.12-0.45-0.27-0.668-0.41a2.992,2.992,0,0,0-1.866-.56,3.039,3.039,0,0,0-2.831,3.57,3,3,0,0,0,3.732,2.38,4.422,4.422,0,0,0,1.134-.56,3.337,3.337,0,0,1,.969-0.46,1.554,1.554,0,0,1,1.867,1.46c0.048,0.56.026,1.12,0.027,1.68,0.006,3.01.01,6.03,0.016,9.04,0,0.1.018,0.2,0.031,0.33h10.411a5.023,5.023,0,0,1,.672.03,1.6,1.6,0,0,1,1.244,2.35,5.385,5.385,0,0,1-.385.6,2.977,2.977,0,0,0-.568,1.36,3.033,3.033,0,1,0,6.013,0,3.367,3.367,0,0,0-.548-1.34,4.6,4.6,0,0,1-.5-0.91,1.524,1.524,0,0,1,1.032-1.98,3.867,3.867,0,0,1,.961-0.11H926.7v-28.73Zm-6.19,6.15h-4.62a4.053,4.053,0,0,1-.779-0.08,1.607,1.607,0,0,1-1.273-1.7,1.642,1.642,0,0,1,1.5-1.47,4.5,4.5,0,0,1,.635-0.03c1.958,0,3.916.01,5.874,0.01,0.137,0,.275,0,0.412.01a1.575,1.575,0,0,1,1.518,1.48,2.765,2.765,0,0,1,.017.34c0,2.09,0,4.19,0,6.28a2.066,2.066,0,0,1-.261,1.04,1.481,1.481,0,0,1-1.343.8,1.511,1.511,0,0,1-1.39-.79,2.02,2.02,0,0,1-.265-1.04c-0.006-1.5,0-2.99-.007-4.48C920.53,5692.8,920.52,5692.69,920.513,5692.54Zm1.654,12.91a1.62,1.62,0,1,1,1.627-1.62A1.643,1.643,0,0,1,922.167,5705.45Z" transform="translate(-850 -5683)"/>
</svg>