<svg xmlns="http://www.w3.org/2000/svg" width="110.218" height="99.406" viewBox="0 0 110.218 99.406">
  <defs>
    <style>
      .cls-1 {
        fill: #3fa35d;
        fill-rule: evenodd;
      }
    </style>
  </defs>
  <path id="decor-55.svg" class="cls-1" d="M548.173,118.8a8.756,8.756,0,0,1-12.755,2.426,5.62,5.62,0,0,1-6.913-2.2c-1.126-1.981-.563-4.074.605-5.827L507.442,94.208a10.215,10.215,0,0,1-8.346-1.876,9.57,9.57,0,0,1-2.379-3c-3.54,1.374-7.506.931-10-1.972-7.726,6.394-20.645,7.067-29.049,1.891-1.937-1.193-.564-3.616,1.283-3.741-1.115.075,0.916-.113,1.214-0.153,1.12-.147,2.235-0.345,3.34-0.576a40.85,40.85,0,0,0,10.467-3.623c0.066-.034.125-0.073,0.19-0.108a12.525,12.525,0,0,1-8.723-5.193,14.02,14.02,0,0,1-.878-14.039,13.534,13.534,0,0,1,12.155-7.893c4.882-.007,8.164,2.279,10.632,5.607,0.082-1.065.128-2.141,0.119-3.231-0.1-11.078-7.624-17.857-18.614-18.1-12.2-.272-21.811,7.648-25.485,18.875a1.84,1.84,0,0,1-1.986,1.324,1.784,1.784,0,0,1-1.988-1.578c-0.006-.041-0.008-0.083-0.014-0.124s-0.014-.108-0.018-0.163A27.3,27.3,0,0,1,441.08,43.4c6.715-17.514,30.988-24.645,47.235-16.352a31.514,31.514,0,0,1,15.309,17.189c1.955,5.592,1.963,12.31,1.922,18.331,0.009,0.009.021,0.016,0.03,0.026,4.224,2.041,4.973,6.987,4.925,11.494,4.052,0.824,6.928,4.559,7.356,8.8,0.013,0.128.024,0.238,0.034,0.34,0.2,0.19.395,0.457,0.557,0.576,1.361,1.012,2.567,2.343,3.819,3.485l16.072,14.666c2.125-1.26,4.833-2.013,6.776-.191,1.806,1.694,1.463,4.226.642,6.411C549.041,110.75,550.7,114.976,548.173,118.8ZM476.126,58.069a9.4,9.4,0,0,0-8.043,5.94,9.825,9.825,0,0,0,1.041,9.936c2.731,3.38,6.975,3.657,10.9,2.811a24.754,24.754,0,0,0,6.255-10.974C484.171,61.445,481.624,57.8,476.126,58.069Zm22.046-15.975A28.031,28.031,0,0,0,473.23,27.667c-12,.148-25.3,7.416-29.018,18.734a28.88,28.88,0,0,1,18.2-11.781c8.865-1.623,19.469.243,25.045,7.876,5.493,7.517,4.765,17.844,2.245,26.3a24.917,24.917,0,0,1-6.713,10.873,1.914,1.914,0,0,1-.75.7A36.761,36.761,0,0,1,466.97,88.25a26.756,26.756,0,0,0,7.382.038,20.235,20.235,0,0,0,8.393-3.082,19.078,19.078,0,0,0,2.164-1.689c0.038-.033.22-0.219,0.389-0.391a5.349,5.349,0,0,1,.461-3.1A6.477,6.477,0,0,1,489.47,76.9a7.779,7.779,0,0,1,2.324-.623,4.043,4.043,0,0,1,1.19.144,6.915,6.915,0,0,1-2.277-3.9,3.343,3.343,0,0,1,2.244-3.787,5.4,5.4,0,0,1,2.426-.3,3.926,3.926,0,0,1,2.721,1.152,8.218,8.218,0,0,1,.848-4.125,5.627,5.627,0,0,1,2.475-2.5C501.47,56.021,501.531,48.263,498.172,42.094Zm45.028,69.3a43.251,43.251,0,0,1-6.112,4.438,0.081,0.081,0,0,1-.1-0.116,38.614,38.614,0,0,0,4.2-6.368,2.694,2.694,0,0,1,.293-1.554c1.106-2.144.092-3.332-1.954-1.685-0.014.01-.028,0.017-0.041,0.027-0.743.733-1.419,1.526-2.138,2.3a9.032,9.032,0,0,1-3.531,2.269c-0.035.013-.088-0.017-0.068-0.059a38.007,38.007,0,0,1,1.856-4.018q0.324-.508.689-0.994L521.9,92.5c-1.8-1.641-3.966-3.248-5.763-5.027a6.5,6.5,0,0,1-5.756,3.055,0.114,0.114,0,0,1-.1-0.148c0.471-1.829,2.02-2.885,2.814-4.553a6.859,6.859,0,0,0,.606-2.092c-0.7-2.206-1.092-4.816-3.126-5.569a2.081,2.081,0,0,1-1.509.074c-0.577-.171-2.491.733-3.335,1.247-1.608.978-2.832,2.368-4.488,3.292a0.032,0.032,0,0,1-.008,0c0,0.026,0,.051,0,0.077a0.016,0.016,0,0,1-.032,0c0-.026,0-0.053,0-0.079a0.04,0.04,0,0,1-.027-0.053,19.456,19.456,0,0,1,3.507-5.844,13.278,13.278,0,0,1,1.653-1.509c0.16-3.028.337-7.256-2.382-8.937a2.387,2.387,0,0,1-.582-0.182c-2.663-1.2-4.1,2.047-4.877,4.074,0,0.015.013,0.027,0.017,0.042a0.075,0.075,0,0,1-.068.09c-0.022.06-.046,0.123-0.068,0.18a0.081,0.081,0,0,1-.155-0.01c-0.029-.141-0.046-0.284-0.066-0.426-0.846-.846-1.85-0.573-2.805.013a2.12,2.12,0,0,1-1.529,1.131c-0.292.236-.565,0.454-0.805,0.613a0.9,0.9,0,0,1-.293.125c-0.845,1.168-.127,3.251.627,4.431a6.824,6.824,0,0,0,1.1.22,0.016,0.016,0,0,1,.007.03c-2.076.954-3.924,1.841-4.86,4.077-0.668,1.6.079,2.966,1.191,4.107a1.468,1.468,0,0,1,.371.639,5.806,5.806,0,0,0,5.83-1.013c1.479-1.141,4.229.2,3.316,2.208-0.729,1.606,2.913,3.338,4.041,3.493,1.092,0.149,2.12-.3,3.163-0.262a3.665,3.665,0,0,1,2.456,1c2.558,1.943,4.891,4.286,7.3,6.4l16.218,14.212a2.053,2.053,0,0,1-.184,2.89c-1.308,1.283-.22,3.51,1.474,2.49a2.123,2.123,0,0,1,2.476.479c2.544,2.516,7.782,1.526,8.1-2.5C545.467,113.538,544.387,112.286,543.2,111.39ZM498.925,78.565c-1.228-.4-1.324-1.544-1.8-2.4a3.281,3.281,0,0,1-.679-1.7l-0.049-.083a0.275,0.275,0,0,1,.223-0.451,1.315,1.315,0,0,0,.181,0c0.636-.355,1.527.131,2.077,0.455,0.311,0.184.622,0.4,0.825,0.49a2.27,2.27,0,0,1,1.558,1.642A1.8,1.8,0,0,1,498.925,78.565Zm3.746-9.473c0.652-.207,1.293,1.014,1.487,1.408,0.486,0.985,1.2,2.45.362,3.419a1.4,1.4,0,0,1-2.166.137c-0.728-.817-0.524-2.167-0.565-3.21A1.648,1.648,0,0,1,502.671,69.092Zm-4.227,12.163c0.606,1.194-.359,3.031-1.851,2.775a2.385,2.385,0,0,1-1.146-.456,6.482,6.482,0,0,1-.9-0.57c-0.109-.084-0.208-0.214-0.317-0.3-0.03-.008-0.207-0.109-0.243-0.126a3.878,3.878,0,0,0-.5-0.231,0.306,0.306,0,0,1-.1-0.515,1.869,1.869,0,0,1,.48-0.321c0.116-.053.246-0.075,0.363-0.126a0.284,0.284,0,0,0,.164-0.108,10.244,10.244,0,0,1,1.038-.544A1.927,1.927,0,0,1,498.444,81.255Z" transform="translate(-439.188 -23.594)"/>
</svg>