<svg xmlns="http://www.w3.org/2000/svg" width="79" height="71" viewBox="0 0 79 71">
  <path fill-rule="evenodd" fill="#3fa35d" d="M906.69,1912.62c-3.661,2.67-8.076,1.07-11.264-1.56-8.363-6.88-16.53-14.03-24.788-21.04-10.938,6.75-24,5.74-33.07-3.96-15.269-16.34-1.944-43.05,19.726-43.05a25.582,25.582,0,0,1,24.281,16.85,24.261,24.261,0,0,1-.466,17.92l15.3,12.75c3.8,3.16,8.732,6.18,11.7,10.23C910.9,1904.58,910.713,1909.68,906.69,1912.62Zm-33.639-59.28a21.913,21.913,0,0,0-15.5-6.25A22.748,22.748,0,0,0,843.4,1852c-9.034,7.2-11.306,19.4-5.283,28.39a23.809,23.809,0,0,0,13.754,9.75,17.467,17.467,0,0,0,4.091.49c4.373,0,9.114-1.64,13.712-4.73,5.833-4.27,9.187-10.06,9.435-16.28A21.869,21.869,0,0,0,873.051,1853.34Zm32.978,52.18c-0.312-1.88-1.684-3.19-3.183-4.47-5.009-4.27-9.984-8.39-15.483-12.94a10.85,10.85,0,0,1-1.368,1.65,9.258,9.258,0,0,1-3.04,1.82l-0.32.14-0.122.01a0.473,0.473,0,0,1-.424-0.27,0.466,0.466,0,0,1,.08-0.5,14.792,14.792,0,0,0,1.76-2.79,9.39,9.39,0,0,0,.873-2.17c-1.769-1.46-3.535-2.93-5.3-4.39a29.121,29.121,0,0,1-5.325,6.19l11.586,9.81c1.249,1.06,2.5,2.11,3.754,3.17,2.48,2.08,5.045,4.24,7.535,6.39l0.282,0.25a12.328,12.328,0,0,0,2.681,1.95,4.83,4.83,0,0,0,2.116.49,4.174,4.174,0,0,0,3.178-1.36A3.58,3.58,0,0,0,906.029,1905.52Zm-50.7-19.46a21.031,21.031,0,0,1-3.358-.26,16.133,16.133,0,0,1-11.118-7.9c-2.38-4.37-2.591-9.7-.6-15.02a19.553,19.553,0,0,1,17.986-12.49,17.314,17.314,0,0,1,5.543.9c7.951,2.68,12.451,11.4,10.469,20.28C872.316,1880.24,864.71,1886.06,855.325,1886.06Zm7.486-30.49a12.913,12.913,0,0,0-4.588-.82,15.078,15.078,0,0,0-13.806,9.35c-1.3,3.32-1.987,8.15-.042,11.8,1.534,2.87,4.456,4.78,8.685,5.69a16.758,16.758,0,0,0,2.464.19,14.6,14.6,0,0,0,14.533-11.33C871.273,1864.87,869.175,1857.97,862.811,1855.57Zm-3.689,5.43h-0.114c-4.575-.23-10.546,2.72-11.846,7.62l-0.072.27-0.32.03a0.42,0.42,0,0,1-.3-0.13l-0.108-.12,0.008-.19a12.566,12.566,0,0,1,12.649-11.55h0.05a1.932,1.932,0,0,1,1.93,2.05A1.891,1.891,0,0,1,859.122,1861Zm-0.054-3.7h0v0Z" transform="translate(-831 -1843)"/>
</svg>