<?xml version="1.0" encoding="UTF-8"?>
<!-- Generator: Adobe Illustrator 21.0.0, SVG Export Plug-In . SVG Version: 6.00 Build 0)  -->
<svg version="1.1" xmlns="http://www.w3.org/2000/svg" xmlns:xlink="http://www.w3.org/1999/xlink" x="0px" y="0px" viewBox="0 0 160 160" style="enable-background:new 0 0 160 160;" xml:space="preserve">
<style type="text/css">
	.st0{fill:#0784FF;}
	.st1{fill:#90C661;}
	.st2{fill:#689F38;}
	.st3{fill:#B8C2FF;}
	.st4{fill:#7388FF;}
	.st5{fill:#DFE5FF;}
	.st6{fill:#CCD4FF;}
	.st7{fill:#EFF2FF;}
	.st8{fill:#A4B1FF;}
	.st9{fill:#002755;}
	.st10{fill:#B4D813;}
	.st11{fill:#333333;}
	.st12{fill:#1E1E1D;}
	.st13{fill:#DAEFF6;}
	.st14{fill:#DD2E2B;}
	.st15{fill:#EF5122;}
	.st16{fill:#FFDB6F;}
	.st17{fill:#62BEFF;}
	.st18{fill:#E64028;}
	.st19{fill:#D43B25;}
	.st20{fill:#869F15;}
	.st21{fill:#E8E1D5;}
	.st22{fill:#D6CFC4;}
	.st23{fill:#716680;}
	.st24{fill:#9AD5ED;}
	.st25{fill:#CEE8F2;}
	.st26{fill:#98B70E;}
	.st27{fill:#90AB13;}
	.st28{fill:#FFCFB4;}
	.st29{fill:#604631;}
	.st30{fill:#FCDAC4;}
	.st31{fill:#2F2C29;}
	.st32{fill:#F4F4F4;}
	.st33{fill:#FFDC0F;}
	.st34{fill:#63635F;}
	.st35{fill:#71D182;}
	.st36{fill:#14DDF7;}
	.st37{fill:#008EE5;}
	.st38{fill:#FCD2BE;}
	.st39{fill:#FAB998;}
	.st40{fill:#F9CE55;}
	.st41{fill:#E2A11E;}
	.st42{fill:#6B4B3D;}
	.st43{fill:#5B3D2D;}
	.st44{fill:#D45B5B;}
	.st45{fill:#B3D5E4;}
	.st46{fill:#FFFFFF;}
	.st47{fill:#E4D9B3;}
	.st48{fill:#E2780E;}
	.st49{fill:#A85000;}
	.st50{fill:#CECECE;}
</style>
<g id="Слой_1">
</g>
<g id="Слой_2">
</g>
<g id="Слой_3">
</g>
<g id="Слой_4">
	<g>
		<path class="st18" d="M90.8,118.9c0,20.7-4.8,23.1-10.8,23.1c-5.9,0-10.8-2.4-10.8-23.1c0-20.7,4.8-51.7,10.8-51.7    C85.9,67.2,90.8,98.2,90.8,118.9z"/>
		<path class="st19" d="M80,67.2c-1.3,0-2.6,1.5-3.8,4.1c4.1,9.1,7,31.5,7,47.6c0,16.1-2.9,21.1-7,22.6c1.2,0.4,2.4,0.5,3.8,0.5    c5.9,0,10.8-2.4,10.8-23.1C90.8,98.2,85.9,67.2,80,67.2z"/>
		<path class="st10" d="M108.8,55.4C108.8,34.8,95.9,18,80,18S51.2,34.8,51.2,55.4S64.1,92.8,80,92.8S108.8,76.1,108.8,55.4z"/>
		<path class="st20" d="M80,18c-1.3,0-2.5,0.1-3.8,0.3c14.1,2.4,25,18.1,25,37.1c0,19-10.9,34.7-25,37.1c1.2,0.2,2.5,0.3,3.8,0.3    c15.9,0,28.8-16.7,28.8-37.4S95.9,18,80,18z"/>
		<path class="st21" d="M80,85.4c-5.3,0-10.4-2.9-14.4-8c-4.4-5.8-6.9-13.5-6.9-21.9c0-8.4,2.4-16.1,6.9-21.9c4-5.2,9.1-8,14.4-8    c5.3,0,10.4,2.8,14.4,8c4.4,5.8,6.9,13.5,6.9,21.9c0,8.4-2.4,16.1-6.9,21.9C90.4,82.5,85.3,85.4,80,85.4z"/>
		<path class="st22" d="M94.4,33.5c-4-5.2-9.1-8-14.4-8c-1.3,0-2.5,0.2-3.8,0.5c3.9,1,7.6,3.6,10.6,7.5c4.4,5.8,6.9,13.5,6.9,21.9    c0,8.4-2.4,16.1-6.9,21.9c-3,3.9-6.7,6.5-10.6,7.5c1.2,0.3,2.5,0.5,3.8,0.5c5.3,0,10.4-2.9,14.4-8c4.4-5.8,6.9-13.5,6.9-21.9    C101.3,47.1,98.8,39.3,94.4,33.5z"/>
		<path class="st23" d="M81.9,55.4c0,1-0.8,1.9-1.9,1.9c-1,0-1.9-0.8-1.9-1.9c0-1,0.8-1.9,1.9-1.9C81,53.6,81.9,54.4,81.9,55.4z"/>
		<path class="st23" d="M97,55.4c0,1-0.8,1.9-1.9,1.9c-1,0-1.9-0.8-1.9-1.9c0-1,0.8-1.9,1.9-1.9C96.1,53.6,97,54.4,97,55.4z"/>
		<path class="st23" d="M66.8,55.4c0,1-0.8,1.9-1.9,1.9c-1,0-1.9-0.8-1.9-1.9c0-1,0.8-1.9,1.9-1.9C65.9,53.6,66.8,54.4,66.8,55.4z"/>
		<path class="st23" d="M89.4,55.4c0,1-0.8,1.9-1.9,1.9c-1,0-1.9-0.8-1.9-1.9c0-1,0.8-1.9,1.9-1.9C88.5,53.6,89.4,54.4,89.4,55.4z"/>
		<path class="st23" d="M74.4,55.4c0,1-0.8,1.9-1.9,1.9c-1,0-1.9-0.8-1.9-1.9c0-1,0.8-1.9,1.9-1.9C73.5,53.6,74.4,54.4,74.4,55.4z"/>
		<path class="st23" d="M88.6,73.2c0,1-0.8,1.9-1.9,1.9c-1,0-1.9-0.8-1.9-1.9s0.8-1.9,1.9-1.9C87.8,71.3,88.6,72.2,88.6,73.2z"/>
		<path class="st23" d="M75.1,73.2c0,1-0.8,1.9-1.9,1.9c-1,0-1.9-0.8-1.9-1.9s0.8-1.9,1.9-1.9C74.3,71.3,75.1,72.2,75.1,73.2z"/>
		<path class="st23" d="M81.9,69.3c0,1-0.8,1.9-1.9,1.9c-1,0-1.9-0.8-1.9-1.9c0-1,0.8-1.9,1.9-1.9C81,67.4,81.9,68.2,81.9,69.3z"/>
		<path class="st23" d="M81.9,78c0,1-0.8,1.9-1.9,1.9c-1,0-1.9-0.8-1.9-1.9c0-1,0.8-1.9,1.9-1.9C81,76.1,81.9,76.9,81.9,78z"/>
		<path class="st23" d="M71.3,67.8c0,1-0.8,1.9-1.9,1.9c-1,0-1.9-0.8-1.9-1.9c0-1,0.8-1.9,1.9-1.9C70.4,65.9,71.3,66.8,71.3,67.8z"/>
		<path class="st23" d="M92.5,67.8c0,1-0.8,1.9-1.9,1.9c-1,0-1.9-0.8-1.9-1.9c0-1,0.8-1.9,1.9-1.9C91.6,65.9,92.5,66.8,92.5,67.8z"/>
		<path class="st23" d="M86.5,63.2c0,1-0.8,1.9-1.9,1.9c-1,0-1.9-0.8-1.9-1.9c0-1,0.8-1.9,1.9-1.9C85.7,61.3,86.5,62.1,86.5,63.2z"/>
		<path class="st23" d="M96,61.9c0,1-0.8,1.9-1.9,1.9c-1,0-1.9-0.8-1.9-1.9c0-1,0.8-1.9,1.9-1.9C95.2,60,96,60.8,96,61.9z"/>
		<path class="st23" d="M67.7,61.9c0,1-0.8,1.9-1.9,1.9c-1,0-1.9-0.8-1.9-1.9c0-1,0.8-1.9,1.9-1.9C66.9,60,67.7,60.8,67.7,61.9z"/>
		<path class="st23" d="M77.3,63.2c0,1-0.8,1.9-1.9,1.9c-1,0-1.9-0.8-1.9-1.9c0-1,0.8-1.9,1.9-1.9C76.4,61.3,77.3,62.1,77.3,63.2z"/>
		<path class="st23" d="M88.6,37.7c0,1-0.8,1.9-1.9,1.9c-1,0-1.9-0.8-1.9-1.9c0-1,0.8-1.9,1.9-1.9C87.8,35.8,88.6,36.6,88.6,37.7z"/>
		<path class="st23" d="M75.1,37.7c0,1-0.8,1.9-1.9,1.9c-1,0-1.9-0.8-1.9-1.9c0-1,0.8-1.9,1.9-1.9C74.3,35.8,75.1,36.6,75.1,37.7z"/>
		<path class="st23" d="M81.9,41.6c0,1-0.8,1.9-1.9,1.9c-1,0-1.9-0.8-1.9-1.9c0-1,0.8-1.9,1.9-1.9C81,39.7,81.9,40.6,81.9,41.6z"/>
		<path class="st23" d="M81.9,32.9c0,1-0.8,1.9-1.9,1.9c-1,0-1.9-0.8-1.9-1.9S79,31,80,31C81,31,81.9,31.9,81.9,32.9z"/>
		<path class="st23" d="M71.3,43.1c0,1-0.8,1.9-1.9,1.9c-1,0-1.9-0.8-1.9-1.9c0-1,0.8-1.9,1.9-1.9C70.4,41.2,71.3,42,71.3,43.1z"/>
		<path class="st23" d="M92.5,43.1c0,1-0.8,1.9-1.9,1.9c-1,0-1.9-0.8-1.9-1.9c0-1,0.8-1.9,1.9-1.9C91.6,41.2,92.5,42,92.5,43.1z"/>
		<path class="st23" d="M86.5,47.7c0,1-0.8,1.9-1.9,1.9c-1,0-1.9-0.8-1.9-1.9c0-1,0.8-1.9,1.9-1.9C85.7,45.8,86.5,46.7,86.5,47.7z"/>
		<path class="st23" d="M96,49c0,1-0.8,1.9-1.9,1.9c-1,0-1.9-0.8-1.9-1.9s0.8-1.9,1.9-1.9C95.2,47.1,96,48,96,49z"/>
		<path class="st23" d="M67.7,49c0,1-0.8,1.9-1.9,1.9c-1,0-1.9-0.8-1.9-1.9s0.8-1.9,1.9-1.9C66.9,47.1,67.7,48,67.7,49z"/>
		<path class="st23" d="M77.3,47.7c0,1-0.8,1.9-1.9,1.9c-1,0-1.9-0.8-1.9-1.9c0-1,0.8-1.9,1.9-1.9C76.4,45.8,77.3,46.7,77.3,47.7z"/>
		<path class="st24" d="M56,121.9L63,129l13.1-6.3l34.4-34.4c3.6-3.6,3.6-9.5,0-13.1c-0.1-0.1-0.3-0.2-0.5-0.2    c-0.2,0-0.4,0.1-0.5,0.2L69,115.7L56,121.9z"/>
		<path class="st10" d="M63.3,116.8l-5.3-5.3c-6.2-6.2-16.4-6.2-22.6,0l-3.2,3.2c-6.3,6.2-6.3,16.3,0,22.6c3.1,3.1,7.2,4.7,11.3,4.7    c4.1,0,8.2-1.6,11.3-4.7l8.5-8.5C66.6,125.5,66.6,120.1,63.3,116.8z M52.7,128.8l-3.2,3.2c-1.7,1.7-3.8,2.5-6,2.5    c-2.2,0-4.4-0.8-6-2.5c-3.3-3.3-3.3-8.7,0-12l3.2-3.2c3.3-3.3,8.7-3.3,12,0C56,120.1,56,125.5,52.7,128.8z"/>
		<path class="st25" d="M104,121.9L97,129l-13.1-6.3L49.4,88.4c-3.6-3.6-3.6-9.5,0-13.1c0.1-0.1,0.3-0.2,0.5-0.2    c0.2,0,0.4,0.1,0.5,0.2L91,115.7L104,121.9z"/>
		<path class="st10" d="M127.8,114.7l-3.2-3.2c-6.2-6.2-16.4-6.2-22.6,0l-5.3,5.3c-3.3,3.3-3.3,8.7,0,12l8.5,8.5    c3.1,3.1,7.2,4.7,11.3,4.7s8.2-1.6,11.3-4.7C134.1,131.1,134.1,121,127.8,114.7z M122.7,131.3c-1.7,1.7-3.8,2.5-6,2.5    c-2.2,0-4.4-0.8-6-2.5l-3.2-3.2c-3.3-3.3-3.3-8.7,0-12c3.3-3.3,8.7-3.3,12,0l3.2,3.2C126,122.6,126,128,122.7,131.3z"/>
		<path class="st26" d="M63.3,116.8l-5.3-5.3c-4.5-4.5-11-5.7-16.6-3.8c2.2,0.8,4.3,2,6,3.8l5.3,5.3c3.3,3.3,3.3,8.7,0,12l-8.5,8.5    c-1.8,1.8-3.8,3-6,3.8c1.7,0.6,3.5,0.9,5.3,0.9c4.1,0,8.2-1.6,11.3-4.7l8.5-8.5C66.6,125.5,66.6,120.1,63.3,116.8z"/>
		<path class="st27" d="M127.8,114.7l-3.2-3.2c-4.1-4.1-9.8-5.5-15-4.2c2.8,0.7,5.4,2.1,7.6,4.2l3.2,3.2c2.1,2.1,3.5,4.7,4.2,7.3    c0.7,1.6,0.8,3.4,0.5,5.1c-0.3,3.7-1.8,7.3-4.6,10.1c-2.2,2.2-4.8,3.6-7.6,4.2c1.2,0.3,2.5,0.4,3.7,0.4c4.1,0,8.2-1.6,11.3-4.7    C134.1,131.1,134.1,121,127.8,114.7z"/>
	</g>
</g>
<g id="Слой_5">
</g>
<g id="Слой_6">
</g>
<g id="Слой_7">
</g>
<g id="Слой_8">
</g>
</svg>