<svg xmlns="http://www.w3.org/2000/svg" width="103.717" height="101.348" viewBox="0 0 103.717 101.348">
    <defs>
        <style>
            .cls-1{fill:#97f2ff}
        </style>
    </defs>
    <g id="Server_ico" transform="translate(576.996 17.759)">
        <circle id="Ellipse_417" cx="35.45" cy="35.45" r="35.45" class="cls-1" data-name="Ellipse 417" transform="translate(-565.194 -4.183)"/>
        <g id="Group_2902" data-name="Group 2902" transform="translate(-564.895 -6.279)">
            <g id="Group_2901" data-name="Group 2901">
                <path id="Path_29705" d="M-477.5 38.91a39.8 39.8 0 0 0-39.759 39.759 39.8 39.8 0 0 0 39.759 39.758 39.8 39.8 0 0 0 39.759-39.759A39.8 39.8 0 0 0-477.5 38.91zm0 76.06a36.342 36.342 0 0 1-36.3-36.3 36.342 36.342 0 0 1 36.3-36.3 36.341 36.341 0 0 1 36.3 36.3 36.341 36.341 0 0 1-36.3 36.3z" data-name="Path 29705" transform="translate(517.262 -38.91)"/>
            </g>
        </g>
        <g id="Group_2904" data-name="Group 2904" transform="translate(-533.717 -2.822)">
            <g id="Group_2903" data-name="Group 2903">
                <path id="Path_29706" d="M-338.09 56.193a1.75 1.75 0 0 0-.5-.145l-.4-.054a1.709 1.709 0 0 0-1.6.662 1.729 1.729 0 0 0-.223 1.718c1.188 2.838 2.6 8.576.793 9.893l-4.007 1.6a8.951 8.951 0 0 0-5.549 7.283l-.026.2a1.073 1.073 0 0 1-.894.923 1.226 1.226 0 0 1-1.329-.567l-1.717-2.861a3.292 3.292 0 0 0-3.006-1.6 3.286 3.286 0 0 0-2.814 1.893c-1.544 3.3-3.481 8.054-3.952 11.993a6.309 6.309 0 0 0 .629 3.571l1.993 3.986a8.708 8.708 0 0 0 3.138 3.457 22.658 22.658 0 0 1 5.008 4.133 10.4 10.4 0 0 0 6.329 3.71c-.1 3.238.116 8.56 2.32 10.911a3.974 3.974 0 0 0 2.807 1.309 7.453 7.453 0 0 0 .975.061 8.424 8.424 0 0 0 5.383-1.908c2.728-2.254 4.126-6.22 4.157-11.788l2.475-11.143.94 1.566a5.277 5.277 0 0 0 3.5 2.456 5.275 5.275 0 0 0 4.171-.954l3.779-2.835a1.728 1.728 0 0 0 .691-1.383 39.9 39.9 0 0 0-23.071-36.087zm16.529 37.537a1.8 1.8 0 0 1-1.431.327 1.781 1.781 0 0 1-1.2-.844l-1.793-2.989a2.776 2.776 0 0 0-2.845-1.321 2.786 2.786 0 0 0-2.282 2.154L-333.99 104a1.7 1.7 0 0 0-.042.375c0 4.489-.989 7.7-2.859 9.279a4.926 4.926 0 0 1-3.727 1.124c-.223-.042-.392.138-.755-.249-1.077-1.15-1.621-5.162-1.324-9.76a2 2 0 0 0-.536-1.49 2.015 2.015 0 0 0-1.466-.633 6.8 6.8 0 0 1-5.184-2.576 25.45 25.45 0 0 0-5.825-4.854 5.232 5.232 0 0 1-1.889-2.08l-1.993-3.986a2.857 2.857 0 0 1-.289-1.618c.424-3.537 2.335-8.093 3.525-10.664l1.568 2.612a4.661 4.661 0 0 0 4.987 2.175 4.517 4.517 0 0 0 3.625-3.839l.036-.273a5.485 5.485 0 0 1 3.4-4.469l4.168-1.666a1.828 1.828 0 0 0 .254-.126c3.284-1.995 2.859-6.769 2-10.265a36.462 36.462 0 0 1 17.84 30.4z" data-name="Path 29706" transform="translate(363.356 -55.977)"/>
            </g>
        </g>
        <g id="Group_2906" data-name="Group 2906" transform="translate(-563.592 38.323)">
            <g id="Group_2905" data-name="Group 2905">
                <path id="Path_29707" d="M-480.526 278.22l-1.048-1.046a13.993 13.993 0 0 0-4.406-2.984l-5.331-2.285a5.83 5.83 0 0 1-3.537-5.366v-2.6a4.856 4.856 0 0 0-2.09-3.99 4.866 4.866 0 0 0-4.47-.555l-8.3 3.112a1.729 1.729 0 0 0-1.063 2.067 39.982 39.982 0 0 0 30.612 28.662 1.755 1.755 0 0 0 .339.033 1.731 1.731 0 0 0 1.663-1.253l.633-2.216a11.8 11.8 0 0 0-3.002-11.579zm-.323 10.628l-.187.65a36.54 36.54 0 0 1-25.955-24.318l6.8-2.548a1.37 1.37 0 0 1 1.288.159 1.379 1.379 0 0 1 .6 1.148v2.6a9.283 9.283 0 0 0 5.632 8.543l5.331 2.285a10.59 10.59 0 0 1 3.324 2.251l1.047 1.046a8.339 8.339 0 0 1 2.12 8.183z" data-name="Path 29707" transform="translate(510.831 -259.085)"/>
            </g>
        </g>
        <g id="Group_2908" data-name="Group 2908" transform="translate(-564.838 -.922)">
            <g id="Group_2907" data-name="Group 2907">
                <path id="Path_29708" d="M-495.4 66a1.728 1.728 0 0 0-2.228-.394 39.7 39.7 0 0 0-19.35 32.025 1.728 1.728 0 0 0 .712 1.492 1.716 1.716 0 0 0 1.013.328 1.765 1.765 0 0 0 .626-.116l10.723-4.232a5.237 5.237 0 0 0 3.02-6.512 1.769 1.769 0 0 1 .429-1.815l4.982-4.982a8.939 8.939 0 0 0 2.638-6.367v-2.252A11.437 11.437 0 0 0-495.4 66zm-.894 9.426a5.5 5.5 0 0 1-1.627 3.922l-4.982 4.982a5.2 5.2 0 0 0-1.262 5.352 1.775 1.775 0 0 1-1.023 2.207l-8.094 3.208a36.238 36.238 0 0 1 16.038-25.655 7.893 7.893 0 0 1 .949 3.734v2.249z" data-name="Path 29708" transform="translate(516.984 -65.357)"/>
            </g>
        </g>
        <g id="Group_2910" data-name="Group 2910" transform="translate(-576.995 28.233)">
            <g id="Group_2909" data-name="Group 2909">
                <path id="Path_29709" d="M-572.856 220.929a48.94 48.94 0 0 1-.681-8.135q0-.866.031-1.729a1.73 1.73 0 0 0-1.668-1.787 1.724 1.724 0 0 0-1.787 1.668q-.034.92-.033 1.848a52.536 52.536 0 0 0 .728 8.712 1.73 1.73 0 0 0 1.7 1.44 1.685 1.685 0 0 0 .292-.024 1.729 1.729 0 0 0 1.418-1.993z" data-name="Path 29709" transform="translate(576.995 -209.276)"/>
            </g>
        </g>
        <g id="Group_2912" data-name="Group 2912" transform="translate(-573.556 48.309)">
            <g id="Group_2911" data-name="Group 2911">
                <path id="Path_29710" d="M-552.148 318.26a48.349 48.349 0 0 1-4.531-8.782 1.729 1.729 0 0 0-2.24-.978 1.727 1.727 0 0 0-.978 2.24 51.877 51.877 0 0 0 4.854 9.409 1.726 1.726 0 0 0 1.449.783 1.742 1.742 0 0 0 .945-.28 1.729 1.729 0 0 0 .501-2.392z" data-name="Path 29710" transform="translate(560.017 -308.38)"/>
            </g>
        </g>
        <g id="Group_2914" data-name="Group 2914" transform="translate(-575.569 8.457)">
            <g id="Group_2913" data-name="Group 2913">
                <path id="Path_29711" d="M-564.044 111.822a1.731 1.731 0 0 0-2.3.816 51.544 51.544 0 0 0-3.556 9.976 1.728 1.728 0 0 0 1.269 2.09 1.781 1.781 0 0 0 .411.048 1.732 1.732 0 0 0 1.678-1.319 48.125 48.125 0 0 1 3.317-9.307 1.727 1.727 0 0 0-.819-2.304z" data-name="Path 29711" transform="translate(569.953 -111.654)"/>
            </g>
        </g>
        <g id="Group_2916" data-name="Group 2916" transform="translate(-566.803 -7.759)">
            <g id="Group_2915" data-name="Group 2915">
                <path id="Path_29712" d="M-516.663 32.2a1.728 1.728 0 0 0-2.439-.166 52.349 52.349 0 0 0-7.227 7.736 1.728 1.728 0 0 0 .329 2.42 1.713 1.713 0 0 0 1.044.353 1.731 1.731 0 0 0 1.378-.683 48.717 48.717 0 0 1 6.749-7.222 1.729 1.729 0 0 0 .166-2.438z" data-name="Path 29712" transform="translate(526.682 -31.605)"/>
            </g>
        </g>
        <g id="Group_2918" data-name="Group 2918" transform="translate(-545.443 76.599)">
            <g id="Group_2917" data-name="Group 2917">
                <path id="Path_29713" d="M-409.368 450.858a48.258 48.258 0 0 1-9.5-2.7 1.727 1.727 0 0 0-2.247.965 1.728 1.728 0 0 0 .965 2.246 51.586 51.586 0 0 0 10.185 2.894 1.778 1.778 0 0 0 .3.026 1.732 1.732 0 0 0 1.7-1.428 1.73 1.73 0 0 0-1.403-2.003z" data-name="Path 29713" transform="translate(421.241 -448.034)"/>
            </g>
        </g>
        <g id="Group_2920" data-name="Group 2920" transform="translate(-525.391 78.799)">
            <g id="Group_2919" data-name="Group 2919">
                <path id="Path_29714" d="M-308.693 460.225a1.732 1.732 0 0 0-2.081-1.283 48.516 48.516 0 0 1-9.8 1.288 1.728 1.728 0 0 0-1.679 1.777 1.729 1.729 0 0 0 1.727 1.678h.052a52.021 52.021 0 0 0 10.5-1.378 1.731 1.731 0 0 0 1.281-2.082z" data-name="Path 29714" transform="translate(322.253 -458.896)"/>
            </g>
        </g>
        <g id="Group_2922" data-name="Group 2922" transform="translate(-551.46 -17.759)">
            <g id="Group_2921" data-name="Group 2921">
                <path id="Path_29715" d="M-438.183-16.554a1.731 1.731 0 0 0-2.171-1.124 51.671 51.671 0 0 0-9.71 4.232 1.73 1.73 0 0 0-.655 2.356 1.73 1.73 0 0 0 1.507.878 1.727 1.727 0 0 0 .847-.223 48.106 48.106 0 0 1 9.058-3.948 1.73 1.73 0 0 0 1.124-2.171z" data-name="Path 29715" transform="translate(450.943 17.759)"/>
            </g>
        </g>
        <g id="Group_2924" data-name="Group 2924" transform="translate(-562.422 65.357)">
            <g id="Group_2923" data-name="Group 2923">
                <path id="Path_29716" d="M-494.46 399.317a48.707 48.707 0 0 1-7.642-6.266 1.728 1.728 0 0 0-2.444-.007 1.732 1.732 0 0 0-.007 2.446 52.324 52.324 0 0 0 8.185 6.712 1.728 1.728 0 0 0 .953.287 1.72 1.72 0 0 0 1.442-.776 1.73 1.73 0 0 0-.487-2.396z" data-name="Path 29716" transform="translate(505.055 -392.541)"/>
            </g>
        </g>
        <g id="Group_2926" data-name="Group 2926" transform="translate(-505.502 72.932)">
            <g id="Group_2925" data-name="Group 2925">
                <path id="Path_29717" d="M-216.3 430.765a1.729 1.729 0 0 0-2.375-.583 48.574 48.574 0 0 1-4.408 2.366 1.729 1.729 0 0 0-.826 2.3 1.729 1.729 0 0 0 1.564.992 1.74 1.74 0 0 0 .738-.166 51.689 51.689 0 0 0 4.724-2.536 1.731 1.731 0 0 0 .583-2.373z" data-name="Path 29717" transform="translate(224.072 -429.931)"/>
            </g>
        </g>
        <g id="Group_2928" data-name="Group 2928" transform="translate(-492.292 55.95)">
            <g id="Group_2927" data-name="Group 2927">
                <path id="Path_29718" d="M-140.211 346.771a1.727 1.727 0 0 0-2.425-.3l-15.558 12.1a1.734 1.734 0 0 0-.667 1.366v5.186a1.729 1.729 0 0 0 1.729 1.729 1.729 1.729 0 0 0 1.729-1.729v-4.341l14.889-11.582a1.728 1.728 0 0 0 .303-2.429z" data-name="Path 29718" transform="translate(158.861 -346.102)"/>
            </g>
        </g>
        <g id="Group_2930" data-name="Group 2930" transform="translate(-497.477 66.321)">
            <g id="Group_2929" data-name="Group 2929">
                <path id="Path_29719" d="M-177 399.117l-5.186-1.729a1.725 1.725 0 0 0-2.187 1.092 1.728 1.728 0 0 0 1.092 2.187l5.186 1.729a1.726 1.726 0 0 0 .546.09 1.73 1.73 0 0 0 1.64-1.183 1.728 1.728 0 0 0-1.091-2.186z" data-name="Path 29719" transform="translate(184.46 -397.298)"/>
            </g>
        </g>
        <g id="Group_2932" data-name="Group 2932" transform="translate(-492.293 55.949)">
            <g id="Group_2931" data-name="Group 2931">
                <path id="Path_29720" d="M-143.434 361.011l-3.457-8.643a1.727 1.727 0 0 0-.716-.84l-8.643-5.186a1.728 1.728 0 0 0-2.372.593 1.728 1.728 0 0 0 .593 2.372l8.144 4.887 3.241 8.1a1.731 1.731 0 0 0 1.606 1.087 1.675 1.675 0 0 0 .641-.126 1.728 1.728 0 0 0 .963-2.244z" data-name="Path 29720" transform="translate(158.869 -346.096)"/>
            </g>
        </g>
    </g>
</svg>