<svg xmlns="http://www.w3.org/2000/svg" width="83.063" height="90.38" viewBox="0 0 83.063 90.38">
  <path fill-rule="evenodd" fill="#3fa35d" d="M150.739,1927.57a5.229,5.229,0,0,1,1.441,4.52c-0.486,3.67-3.373,4.61-6.418,5.05,0.3,3.84-1.3,8.3-5.606,8.8-4.63.54-7.251-3.62-7.466-7.76-2.285.2-4.638,0.32-6.583-1.12-3.335-2.46-2.826-5.22-.984-7.54a4.792,4.792,0,0,1-3.154-5.71,4.508,4.508,0,0,1,1.57-2.77,19.764,19.764,0,0,1-12.344-16.19c-2.339-18.32,17.791-27.27,33.3-22.64,15.074,4.49,13.7,25.24,5.27,35.79a5.429,5.429,0,0,1,3.191,4.6A5.671,5.671,0,0,1,150.739,1927.57Zm-21.716-8.63,2.4-.24q-0.718-3.96-1.439-7.92c-3.748-.76-7.532-3.01-7.6-7.23-0.067-4.15,2.8-6.77,6.122-6.19,1.127-5.29,9.978-5.58,12.111-.95a5.693,5.693,0,0,1,7,5.48c0.1,3.62-3.543,6.28-6.641,7.79q0.478,3.975.957,7.94c1.244-.12,2.488-0.25,3.732-0.38,5.393-5.42,7.528-14.16,6.387-21.6-1.633-10.63-12.877-11.79-21.783-10.41-8.385,1.29-15.5,7.33-15.707,16.22C114.351,1910.72,120.282,1917.21,129.023,1918.94Zm9.39-.96c-0.377-3.12-.753-6.25-1.13-9.37a1.7,1.7,0,0,1,.883-1.54,17.372,17.372,0,0,0,3.629-2.07c0.884-.67,2.381-1.69,2.244-2.97a3.439,3.439,0,0,0-.245-0.87,4.426,4.426,0,0,0-.43-0.88,1.59,1.59,0,0,0-1.192-.73,2.49,2.49,0,0,0-1.609.64,10.375,10.375,0,0,0-1.993,1.94c-0.58.74-1.3,1.36-1.927,2.07,0-.02,0-0.04,0-0.06a24.26,24.26,0,0,0,.822-4.44,1.765,1.765,0,0,1,0-.23c0.009-.08.011-0.15,0.015-0.22,0-.19-0.009-0.38-0.026-0.57-0.424-2.63-4.925-2.85-5.388-.33-0.475.94-.1,1.96,0.206,3.04a7.384,7.384,0,0,0,.787,1.96c0.191,0.31.333,0.64,0.507,0.94-0.006.06-.01,0.12-0.016,0.18a17.841,17.841,0,0,0-2.031-2.16,8.05,8.05,0,0,0-2.548-1.52c-1.424-.5-3.292.46-2.98,1.99a3.846,3.846,0,0,0,.537,2.39c1,1.43,3.305,2.1,4.982,2.27a1.814,1.814,0,0,1,1.72,1.31q0.872,4.785,1.742,9.59Zm3.812,19.53c-2,.18-3.991.3-5.987,0.42,0,0.01,0,.02,0,0.03,0.059,1.95,1.11,5.06,3.826,4.4C142.011,1941.89,142.32,1939.39,142.225,1937.51Zm3.994-8.15c-1.28.03-2.624-.12-3.826-0.11-2.52.02-5.065-.97-7.539-0.75-0.116.01-.123-0.16-0.026-0.19a71.808,71.808,0,0,1,10.316-2.27,2.684,2.684,0,0,1,.852-0.24c1.482-.25,3.364-0.84,3.417-2.65,0.052-1.77-1.567-2.32-3.062-2.29a1.43,1.43,0,0,1-.509-0.07l-15.507,1.59a1.735,1.735,0,0,1-.739.27,7.4,7.4,0,0,0-2.86.53c-1.253.72-1.718,2.38-.256,3.25a6.068,6.068,0,0,0,2.447.17c1.9-.04,2.249,2.35.9,3.32a19.829,19.829,0,0,0-1.907,1.47q0.27,3.78,2.956,3.38a15.15,15.15,0,0,0,3-.26c2.329-.16,4.659-0.2,6.987-0.41,1.776-.16,6.269.06,7.37-1.47C149.494,1930.88,148.06,1929.39,146.219,1929.36Zm-40.52-46.29c-2.922-3.96-7.531-5.28-11.4-8.03a0.1,0.1,0,0,0-.123.15,39.572,39.572,0,0,1,8.332,10.15C103.715,1887.51,107.23,1885.15,105.7,1883.07Zm17.733-12.84c-0.536-4.9-.623-9.98-2.763-14.53a0.177,0.177,0,0,0-.329.12c0.961,4.9-.157,9.78-0.352,14.71C119.891,1872.98,123.714,1872.81,123.432,1870.23Zm26.331-3.67a32.458,32.458,0,0,0,.769-3.49,6.262,6.262,0,0,0-.461-3.78,0.177,0.177,0,0,0-.328.12c0.3,1.05-1.162,3.2-1.6,4.15-0.412.89-.827,1.77-1.222,2.67a10.667,10.667,0,0,1-1.037,2.28c-2.733,2.83,3.764,4.86,3.115.98C148.869,1868.74,149.541,1867.36,149.763,1866.56Zm26.325,13.89a40.588,40.588,0,0,0-8.357,3.76c-2.6,1.58.651,4.88,2.2,2.61,1.6-2.35,4.407-3.61,6.841-4.91A0.806,0.806,0,0,0,176.088,1880.45Z" transform="translate(-94.156 -1855.59)"/>
</svg>