<svg xmlns="http://www.w3.org/2000/svg" width="100" height="124" viewBox="0 0 100 124">
  <path fill-rule="evenodd" fill="#3fa35d" d="M237.963,1017.34a31.663,31.663,0,0,0-2.92,2.35c-0.426.37-.843,0.76-1.265,1.14a7.614,7.614,0,0,0-.94.81,1.6,1.6,0,1,1-1.377-2.4c1.084,0.08,2.5-.69,3.479-1.09a18.029,18.029,0,0,1,2.95-.98A0.093,0.093,0,0,1,237.963,1017.34Zm-1.041,21.91c0.052,0.01.03,0.09-.021,0.08a20.97,20.97,0,0,0-3.765.22c-1.132.09-2.281,0.24-3.407,0.4-2.323.33-2.662-3.05-.42-3.09a9.268,9.268,0,0,1,3.813.79C234.334,1038.14,235.661,1039.07,236.922,1039.25Zm-11.406,21.47c-1.382-.61-2.829-0.95-4.177-1.65-1.157-.6-2.809-1.15-3.662-2.17-1.652-1.98,1.7-3.98,2.579-1.98a6.843,6.843,0,0,0,2.172,3.05c1.071,0.84,2.095,1.76,3.216,2.53A0.127,0.127,0,0,1,225.516,1060.72Zm-46.365,35.49a6.961,6.961,0,0,1,2.657,4.97c0.233,5.69-5.452,8.08-10.01,6.41q-7.39,9.54-14.782,19.07c1.753,3.44.558,7.88-4.041,8.3-3.667.34-6.071-2.37-8.768-4.41-2.411-1.83-6.118-3.61-6.218-7.05a5.708,5.708,0,0,1,7.2-5.66q2.043-2.925,4.086-5.86a9.95,9.95,0,0,1-2.976-.93c-1.4-.67-2.547-1.68-2.345-3.34,0.346-2.86,3.7-5.81,6.086-7.12a1.89,1.89,0,0,1,2.208.29c0.973,0.89,1.907,1.82,2.843,2.75,1.289-1.85,2.578-3.69,3.866-5.54-2.883-3.38-2.907-9.3,2.124-10.93,1.871-.6,3.887-0.04,5.831.95q10.922-14.115,21.841-28.24,12.115-15.675,24.231-31.34c2.164-2.79,7.468-8.36,10.187-3.13,1.866,3.59-1.387,7.54-3.313,10.4Q199.507,1066.01,179.151,1096.21Zm-28.425,8.28a17.719,17.719,0,0,0-3.382,3.62c-0.006.01,0,.01-0.01,0.02a5.765,5.765,0,0,0,.485.33c0.616,0.39,1.313.63,1.952,0.98a4.41,4.41,0,0,1,.866.59l2.3-3.3C152.205,1105.98,151.469,1105.23,150.726,1104.49Zm15.584-11.9a0.345,0.345,0,0,0-.068-0.05c-0.264-.17-0.52-0.34-0.786-0.5-1.325-.79-3.516-2.33-4.444.77-0.385,1.28.6,2.59,1.634,3.23a2.042,2.042,0,0,1,.725,2.76q-7.842,11.265-15.685,22.51a2.144,2.144,0,0,1-.469.48,1.822,1.822,0,0,1-2.3.25c-1.308-.79-2.393,2.06-2.848,1.94a10.086,10.086,0,0,0,1.039.71c1.359,1.04,2.729,2.07,4.093,3.1a31.546,31.546,0,0,0,3.575,2.71c0.412,0.23.34,0.28,0.263,0.29,0.05,0.01.129,0.01,0.291,0.03,1.821,0.23,3.139-1.32,1.795-2.84a2.084,2.084,0,0,1,0-2.85q7.85-10.125,15.7-20.24a10.486,10.486,0,0,1-1.219-1.21c-1.08-1.27-2.576-2.76-3.124-4.35a0.064,0.064,0,0,1,.078-0.08c1.565,0.36,2.835,1.7,4.264,2.43,1.108,0.57,2.21,1.1,3.322,1.62,0.027,0.02.064,0.02,0.089,0.04s0.064,0.03.1,0.05c0.3,0.13.591,0.27,0.891,0.41,3.213,1.07,6.107-2.33,2.869-4.91-0.145-.11-0.305-0.22-0.456-0.33a1.443,1.443,0,0,1-.261-0.13Q170.842,1095.52,166.31,1092.59Zm53.287-65.11c-0.3-.19-1.955,1.67-2.2,1.94,0.163-.18-0.646.8-1.15,1.45l-3.6,4.65q-21.151,27.36-42.3,54.71c1.117,0.78,2.157,1.55,3.059,2.13,0,0,0,.01.006,0.01,0.757,0.49,1.6.98,2.457,1.5q8.925-13.245,17.849-26.48,11.221-16.65,22.442-33.31c0.738-1.09,1.537-2.16,2.221-3.29,0.133-.22.278-0.42,0.4-0.64C218.851,1030,219.983,1027.72,219.6,1027.48Zm-9.652-6.79c0.081-3.2.02-6.4,0.192-9.59a0.1,0.1,0,0,1,.186-0.02c0.793,3.12,2.228,6.04,3,9.15C213.949,1022.74,209.883,1023.14,209.945,1020.69Zm-12.354,17.24c-1.435-3.23-1.765-6.75-3.322-9.92-0.027-.05.046-0.09,0.082-0.05a75.858,75.858,0,0,0,6.142,7.74C202.5,1037.75,198.617,1040.24,197.591,1037.93ZM184.8,1052.4a25.777,25.777,0,0,1-2.271-4.17,15.489,15.489,0,0,0-1.593-2.3c-0.424-.56-0.709-1.21-1.125-1.77-0.011-.01.012-0.03,0.025-0.02a39.013,39.013,0,0,0,4.337,3.12c1.236,0.88,2.384,1.92,3.579,2.87C189.731,1051.69,186.564,1054.7,184.8,1052.4Zm-8.517,16.98a2.066,2.066,0,0,1-2.81,0,17.372,17.372,0,0,1-2.443-3.48,20.715,20.715,0,0,0-1.629-2.07c-0.751-.9-1.335-1.92-1.994-2.89a0.1,0.1,0,0,1,.129-0.13c1.709,1.1,3.472,2.07,5.121,3.26a17.5,17.5,0,0,0,3.224,2.2,1.929,1.929,0,0,1,.984,1.71A1.845,1.845,0,0,1,176.281,1069.38Zm-12.006,13.11c-3.107-1.43-6.525-2.3-9.443-4.09a0.066,0.066,0,0,1,.032-0.12c1.591,0.13,3.172.3,4.761,0.45,1.62,0.14,3.494.83,5.084,0.45C167.873,1078.42,167.477,1083.96,164.275,1082.49Zm23.834,11.88c-0.036,2.19,1.82,4.53,2.737,6.45,0.877,1.84,1.761,3.67,2.551,5.54,0.046,0.11-.115.15-0.173,0.08-2.847-3.73-5.75-7.39-8.529-11.15C182.951,1092.93,188.162,1091.13,188.109,1094.37Zm11.282-11.36c0.587,1.41,2.14,2.59,3.117,3.76,1.173,1.39,2.254,2.91,3.476,4.26a0.078,0.078,0,0,1-.095.12c-3.137-2.22-6.822-3.63-9.587-6.35C194.281,1082.81,198.167,1080.07,199.391,1083.01Zm8.468-13.41c1.376,2.66,3.633,4.73,5.761,6.8a0.128,0.128,0,0,1-.153.2c-2.686-1.79-5.776-2.89-8.337-4.9C203.172,1070.17,206.65,1067.27,207.859,1069.6Z" transform="translate(-138 -1011)"/>
</svg>