<?xml version="1.0" encoding="UTF-8"?>
<!-- Generator: Adobe Illustrator 21.0.0, SVG Export Plug-In . SVG Version: 6.00 Build 0)  -->
<svg version="1.1" xmlns="http://www.w3.org/2000/svg" xmlns:xlink="http://www.w3.org/1999/xlink" x="0px" y="0px" viewBox="0 0 160 160" style="enable-background:new 0 0 160 160;" xml:space="preserve">
<style type="text/css">
	.st0{fill:#0784FF;}
	.st1{fill:#90C661;}
	.st2{fill:#689F38;}
	.st3{fill:#B8C2FF;}
	.st4{fill:#7388FF;}
	.st5{fill:#DFE5FF;}
	.st6{fill:#CCD4FF;}
	.st7{fill:#EFF2FF;}
	.st8{fill:#A4B1FF;}
	.st9{fill:#002755;}
	.st10{fill:#B4D813;}
	.st11{fill:#333333;}
	.st12{fill:#1E1E1D;}
	.st13{fill:#DAEFF6;}
	.st14{fill:#DD2E2B;}
	.st15{fill:#EF5122;}
	.st16{fill:#FFDB6F;}
	.st17{fill:#62BEFF;}
	.st18{fill:#E64028;}
	.st19{fill:#D43B25;}
	.st20{fill:#869F15;}
	.st21{fill:#E8E1D5;}
	.st22{fill:#D6CFC4;}
	.st23{fill:#716680;}
	.st24{fill:#9AD5ED;}
	.st25{fill:#CEE8F2;}
	.st26{fill:#98B70E;}
	.st27{fill:#90AB13;}
	.st28{fill:#FFCFB4;}
	.st29{fill:#604631;}
	.st30{fill:#FCDAC4;}
	.st31{fill:#2F2C29;}
	.st32{fill:#F4F4F4;}
	.st33{fill:#FFDC0F;}
	.st34{fill:#63635F;}
	.st35{fill:#71D182;}
	.st36{fill:#14DDF7;}
	.st37{fill:#008EE5;}
	.st38{fill:#FCD2BE;}
	.st39{fill:#FAB998;}
	.st40{fill:#F9CE55;}
	.st41{fill:#E2A11E;}
	.st42{fill:#6B4B3D;}
	.st43{fill:#5B3D2D;}
	.st44{fill:#D45B5B;}
	.st45{fill:#B3D5E4;}
	.st46{fill:#FFFFFF;}
	.st47{fill:#E4D9B3;}
	.st48{fill:#E2780E;}
	.st49{fill:#A85000;}
	.st50{fill:#CECECE;}
</style>
<g id="Слой_1">
</g>
<g id="Слой_2">
	<g>
		<path class="st10" d="M91.8,76.3c-2.4-2.8-5.9-4.4-9.6-4.4h-4.8V56.3c0-1.2-1-2.2-2.2-2.2H42.5c-1.2,0-2.2,1-2.2,2.2v15.5h-4.8    c-3.7,0-7.2,1.6-9.6,4.4c-2.4,2.8-3.4,6.5-2.8,10.2l9.9,59c0.2,1.1,1.1,1.9,2.2,1.9h47.5c1.1,0,2-0.8,2.2-1.9l9.9-59    C95.2,82.9,94.2,79.1,91.8,76.3z"/>
		<path d="M120.4,88c-1.2,0-2.2-1-2.2-2.2V44.5c0-1.2,1-2.2,2.2-2.2c1.2,0,2.2,1,2.2,2.2v41.3C122.7,87,121.7,88,120.4,88z"/>
		<path class="st10" d="M75.1,54.1H42.5c-1.2,0-2.2,1-2.2,2.2v15.5h2.2h2.2h28.2h2.2h2.2V56.3C77.4,55.1,76.4,54.1,75.1,54.1z"/>
		<path class="st2" d="M78.1,67.4H39.5c-1.2,0-2.2-1-2.2-2.2s1-2.2,2.2-2.2h38.6c1.2,0,2.2,1,2.2,2.2S79.3,67.4,78.1,67.4z"/>
		<path class="st11" d="M134.9,83.7h-29.7c-1.2,0-2.2,1-2.2,2.2v44.4c0,9.4,7.7,17,17.1,17c9.4,0,17.1-7.6,17.1-17V85.9    C137.2,84.7,136.2,83.7,134.9,83.7z"/>
		<path class="st12" d="M134.9,83.7h-9.1v1.9c0,0.1,0,0.2,0,0.3v44.4c0,7.4-4.8,13.7-11.4,16.1c1.8,0.6,3.7,1,5.6,1    c9.4,0,17.1-7.6,17.1-17V85.9C137.2,84.7,136.2,83.7,134.9,83.7z"/>
		<path class="st10" d="M132.6,13.6c-0.4-0.6-1.1-0.9-1.8-0.9h-21.4c-0.7,0-1.4,0.4-1.8,1c-0.4,0.6-0.5,1.4-0.3,2l11,29.6    c0.3,0.9,1.2,1.4,2.1,1.4c0,0,0,0,0,0c0.9,0,1.8-0.6,2.1-1.5l10.3-29.6C133.1,14.9,133,14.2,132.6,13.6z"/>
		<path class="st2" d="M132.6,13.6c-0.4-0.6-1.1-0.9-1.8-0.9h-8.4l-7.8,22.4l3.8,10.2c0.3,0.9,1.2,1.4,2.1,1.4c0,0,0,0,0,0    c0.9,0,1.8-0.6,2.1-1.5l10.3-29.6C133.1,14.9,133,14.2,132.6,13.6z"/>
		<path class="st2" d="M91.8,76.3c-2.4-2.8-5.9-4.4-9.6-4.4H70.7c3.7,0,7.2,1.6,9.6,4.4c2.4,2.8,3.4,6.5,2.8,10.2l-9.9,59    c-0.2,1.1-1.1,1.9-2.2,1.9h11.5c1.1,0,2-0.8,2.2-1.9l9.9-59C95.2,82.9,94.2,79.1,91.8,76.3z"/>
	</g>
</g>
<g id="Слой_3">
</g>
<g id="Слой_4">
</g>
<g id="Слой_5">
</g>
<g id="Слой_6">
</g>
<g id="Слой_7">
</g>
<g id="Слой_8">
</g>
</svg>