<?xml version="1.0" encoding="UTF-8"?>
<svg width="159px" height="150px" viewBox="0 0 159 150" version="1.1" xmlns="http://www.w3.org/2000/svg" xmlns:xlink="http://www.w3.org/1999/xlink">
    <!-- Generator: Sketch 52.2 (67145) - http://www.bohemiancoding.com/sketch -->
    <title>Group 36</title>
    <desc>Created with Sketch.</desc>
    <defs>
        <linearGradient x1="54.5040925%" y1="-74.3624043%" x2="50.002375%" y2="98.7385279%" id="linearGradient-1">
            <stop stop-color="#71E4DC" stop-opacity="0.441661005" offset="0%"/>
            <stop stop-color="#7AE6DE" stop-opacity="0.581408514" offset="13.11%"/>
            <stop stop-color="#93EBE4" stop-opacity="0.6524" offset="34.76%"/>
            <stop stop-color="#BCF2EF" stop-opacity="0.3772" offset="62.28%"/>
            <stop stop-color="#F4FDFC" stop-opacity="0.484771286" offset="94.29%"/>
            <stop stop-color="#E8FBFA" stop-opacity="0.469429348" offset="100%"/>
        </linearGradient>
        <linearGradient x1="50.002375%" y1="3.7464722%" x2="50.002375%" y2="98.7385279%" id="linearGradient-2">
            <stop stop-color="#71E4DC" stop-opacity="0.441661005" offset="0%"/>
            <stop stop-color="#7AE6DE" stop-opacity="0.581408514" offset="13.11%"/>
            <stop stop-color="#93EBE4" stop-opacity="0.6524" offset="34.76%"/>
            <stop stop-color="#BCF2EF" stop-opacity="0.3772" offset="62.28%"/>
            <stop stop-color="#F4FDFC" stop-opacity="0.484771286" offset="94.29%"/>
            <stop stop-color="#E8FBFA" stop-opacity="0.469429348" offset="100%"/>
        </linearGradient>
        <linearGradient x1="50.0087719%" y1="-0.0307017544%" x2="50.0087719%" y2="99.8842105%" id="linearGradient-3">
            <stop stop-color="#71E4DC" offset="0%"/>
            <stop stop-color="#00C1B8" offset="15.36%"/>
            <stop stop-color="#1692AE" offset="29.26%"/>
            <stop stop-color="#2670A6" offset="41.62%"/>
            <stop stop-color="#2F5BA2" offset="51.78%"/>
            <stop stop-color="#3353A0" offset="58.46%"/>
            <stop stop-color="#2C5FA0" offset="67.22%"/>
            <stop stop-color="#197FA0" offset="83.09%"/>
            <stop stop-color="#00A8A0" offset="100%"/>
        </linearGradient>
        <linearGradient x1="49.9283626%" y1="-0.0479532164%" x2="49.9283626%" y2="99.8669591%" id="linearGradient-4">
            <stop stop-color="#71E4DC" offset="0%"/>
            <stop stop-color="#00C1B8" offset="15.36%"/>
            <stop stop-color="#1692AE" offset="29.26%"/>
            <stop stop-color="#2670A6" offset="41.62%"/>
            <stop stop-color="#2F5BA2" offset="51.78%"/>
            <stop stop-color="#3353A0" offset="58.46%"/>
            <stop stop-color="#2C5FA0" offset="67.22%"/>
            <stop stop-color="#197FA0" offset="83.09%"/>
            <stop stop-color="#00A8A0" offset="100%"/>
        </linearGradient>
        <linearGradient x1="79.8657584%" y1="-33.2394871%" x2="87.0732455%" y2="88.7737583%" id="linearGradient-5">
            <stop stop-color="#71E4DC" offset="0%"/>
            <stop stop-color="#00C1B8" offset="15.36%"/>
            <stop stop-color="#1692AE" offset="29.26%"/>
            <stop stop-color="#2670A6" offset="41.62%"/>
            <stop stop-color="#2F5BA2" offset="51.78%"/>
            <stop stop-color="#3353A0" offset="58.46%"/>
            <stop stop-color="#2C5FA0" offset="67.22%"/>
            <stop stop-color="#197FA0" offset="83.09%"/>
            <stop stop-color="#00A8A0" offset="100%"/>
        </linearGradient>
        <linearGradient x1="50.0033437%" y1="99.9949072%" x2="50.0033437%" y2="-0.005211212%" id="linearGradient-6">
            <stop stop-color="#00A09A" offset="0%"/>
            <stop stop-color="#13B6AC" offset="31.82%"/>
            <stop stop-color="#27CEBF" offset="73.91%"/>
            <stop stop-color="#2ED7C6" offset="100%"/>
        </linearGradient>
        <linearGradient x1="29.5217352%" y1="0%" x2="93.6032234%" y2="131.098484%" id="linearGradient-7">
            <stop stop-color="#66F6EE" offset="0%"/>
            <stop stop-color="#36E9D9" stop-opacity="0.360677083" offset="100%"/>
        </linearGradient>
        <linearGradient x1="50%" y1="0%" x2="96.5612532%" y2="109.922654%" id="linearGradient-8">
            <stop stop-color="#66F6EE" stop-opacity="0.234233469" offset="0%"/>
            <stop stop-color="#36E9D8" offset="100%"/>
        </linearGradient>
        <linearGradient x1="-19.9571469%" y1="32.6024923%" x2="72.5008753%" y2="118.449215%" id="linearGradient-9">
            <stop stop-color="#66F6EE" offset="0%"/>
            <stop stop-color="#36E9D9" stop-opacity="0" offset="100%"/>
        </linearGradient>
        <linearGradient x1="115.600732%" y1="57.5810813%" x2="33.0804065%" y2="20.8387563%" id="linearGradient-10">
            <stop stop-color="#66F6EE" stop-opacity="0" offset="0%"/>
            <stop stop-color="#36E9D9" offset="100%"/>
        </linearGradient>
    </defs>
    <g id="Page-1" stroke="none" stroke-width="1" fill="none" fill-rule="evenodd">
        <g id="main-page" transform="translate(-1278.000000, -4837.000000)">
            <g id="Group-36" transform="translate(1278.000000, 4837.000000)">
                <g id="Group-34">
                    <path d="M153.193047,114.685308 L142.80683,114.685308 C145.674659,114.685308 148.000101,112.383917 148.000101,109.55109 C148.000101,106.713126 145.674659,104.416873 142.80683,104.416873 L132.420613,104.416873 C135.288442,104.416873 137.613884,102.115483 137.613884,99.282656 C137.613884,96.4450128 135.288442,94.1484388 132.420613,94.1484388 L116.841775,94.1484388 C119.709604,94.1484388 122.035046,91.8473693 122.035046,89.0145427 C122.035046,86.1765784 119.709604,83.8803255 116.841775,83.8803255 L145.402816,83.8803255 C148.270645,83.8803255 150.596087,81.5789349 150.596087,78.7461083 C150.596087,75.9081439 148.270645,73.6106066 145.402816,73.6106066 L132.420289,73.6106066 C135.288117,73.6106066 137.61356,71.3117849 137.61356,68.4763894 C137.61356,65.6409939 135.288117,63.3421722 132.420289,63.3421722 L127.227667,63.3421722 C130.095496,63.3421722 132.420289,61.0433504 132.420289,58.207955 C132.420289,55.3725595 130.095496,53.0737378 127.227667,53.0737378 L153.192398,53.0737378 C156.060227,53.0737378 158.385669,50.774916 158.385669,47.9395205 C158.385669,45.1041251 156.060227,42.8053033 153.192398,42.8053033 L142.806181,42.8053033 C145.67401,42.8053033 147.999452,40.5064816 147.999452,37.6710861 C147.999452,34.8356906 145.67401,32.5368689 142.806181,32.5368689 L132.419964,32.5368689 C135.287793,32.5368689 137.613235,30.2380471 137.613235,27.4026517 C137.613235,24.5672562 135.287793,22.2684344 132.419964,22.2684344 L124.631032,22.2684344 C127.498861,22.2684344 129.823653,19.9696127 129.823653,17.1342172 C129.823653,14.2988218 127.498861,12 124.631032,12 L46.7368399,12 C43.8690111,12 41.5438938,14.2988218 41.5438938,17.1342172 C41.5438938,19.9696127 43.8690111,22.2684344 46.7368399,22.2684344 L28.5613661,22.2684344 C25.6935373,22.2684344 23.36842,24.5672562 23.36842,27.4026517 C23.36842,30.2380471 25.6935373,32.5368689 28.5613661,32.5368689 L23.36842,32.5368689 C20.5005912,32.5368689 18.1754738,34.8356906 18.1754738,37.6710861 C18.1754738,40.5064816 20.5005912,42.8053033 23.36842,42.8053033 L38.9475831,42.8053033 C36.0797543,42.8053033 33.754637,45.1041251 33.754637,47.9395205 C33.754637,50.774916 36.0797543,53.0737378 38.9475831,53.0737378 L10.386217,53.0737378 C7.51838826,53.0737378 5.19327091,55.3728806 5.19327091,58.207955 C5.19327091,61.0430293 7.51838826,63.3421722 10.386217,63.3421722 L23.3687447,63.3421722 C20.500916,63.3421722 18.1757986,65.6409939 18.1757986,68.4763894 C18.1757986,71.3117849 20.500916,73.6106066 23.3687447,73.6106066 L10.386217,73.6106066 C7.51838826,73.6106066 5.19327091,75.9081439 5.19327091,78.7461083 C5.19327091,81.5789349 7.51838826,83.8803255 10.386217,83.8803255 L5.19294613,83.8803255 C2.32511735,83.8803255 0,86.1765784 0,89.0145427 C0,91.8473693 2.32511735,94.1484388 5.19294613,94.1484388 L18.1757986,94.1484388 C15.3079698,94.1484388 12.9828525,96.4450128 12.9828525,99.282656 C12.9828525,102.115483 15.3079698,104.416873 18.1757986,104.416873 L12.9825277,104.416873 C10.1146989,104.416873 7.78958158,106.713126 7.78958158,109.55109 C7.78958158,112.383917 10.1146989,114.685308 12.9825277,114.685308 L38.9475831,114.685308 C36.0797543,114.685308 33.754637,116.981561 33.754637,119.819525 C33.754637,122.65203 36.0797543,124.953742 38.9475831,124.953742 L28.5613661,124.953742 C25.6935373,124.953742 23.36842,127.249674 23.36842,130.087638 C23.36842,132.920465 25.6935373,135.221855 28.5613661,135.221855 L116.8421,135.221855 C119.709929,135.221855 122.035371,132.920465 122.035371,130.087638 C122.035371,127.249674 119.709929,124.953742 116.8421,124.953742 L153.193047,124.953742 C156.060876,124.953742 158.386318,122.65203 158.386318,119.819525 C158.386643,116.981561 156.060876,114.685308 153.193047,114.685308 Z" id="Path" fill="url(#linearGradient-1)" transform="translate(79.193159, 73.610928) scale(1, -1) translate(-79.193159, -73.610928) "/>
                    <g id="Group-31" opacity="0.497512091" transform="translate(7.000000, 0.000000)">
                        <g id="Group">
                            <g id="Group-32" transform="translate(5.000000, 0.000000)">
                                <path d="M31.3448242,2.34228516 C30.6973633,2.34228516 30.1621094,1.81845703 30.1621094,1.17128906 C30.1621094,0.524121094 30.6745117,0 31.3196289,0 L31.3448242,0 C31.9896484,0 32.5158203,0.523828125 32.5158203,1.17128906 C32.5158203,1.81875 31.9896484,2.34228516 31.3448242,2.34228516 Z" id="Path" fill="#0DA5B2"/>
                                <path d="M82.872168,7.0265625 C82.225,7.0265625 81.6894531,6.50273437 81.6894531,5.85527344 C81.6894531,5.20810547 82.2021484,4.68427734 82.8469727,4.68427734 L82.872168,4.68427734 C83.5169922,4.68427734 84.043457,5.20810547 84.043457,5.85527344 C84.043457,6.50273437 83.5172852,7.0265625 82.872168,7.0265625 Z" id="Path" fill="#0DA5B2"/>
                                <path d="M129.715234,149.899219 C129.068066,149.899219 128.533105,149.377734 128.533105,148.72793 C128.533105,148.083105 129.045215,147.556934 129.690039,147.556934 L129.715234,147.556934 C130.360059,147.556934 130.886523,148.083105 130.886523,148.72793 C130.886523,149.377734 130.360059,149.899219 129.715234,149.899219 Z" id="Path" fill="#0DA5B2"/>
                                <path d="M132.05957,77.2910156 C131.412402,77.2910156 130.877441,76.7674805 130.877441,76.1200195 C130.877441,75.4725586 131.389551,74.9490234 132.034375,74.9490234 L132.05957,74.9490234 C132.70498,74.9490234 133.230859,75.4725586 133.230859,76.1200195 C133.230859,76.7674805 132.70498,77.2910156 132.05957,77.2910156 Z" id="Path" fill="#0DA5B2"/>
                                <g id="Group-18" transform="translate(19.545455, 16.363636)" fill-rule="nonzero" stroke="#0DA5B2" stroke-linecap="round" stroke-width="0.4">
                                    <path d="M1.1963046,0.461785334 L1.1963046,5.43892156" id="Line-3"/>
                                    <path d="M4.77395901e-15,3.40909091 L2.72727273,3.40909091" id="Line-4"/>
                                </g>
                                <g id="Group-18" transform="translate(0.454545, 62.727273)" fill-rule="nonzero" stroke="#0DA5B2" stroke-linecap="round" stroke-width="0.4">
                                    <path d="M1.1963046,0.461785334 L1.1963046,5.43892156" id="Line-3"/>
                                    <path d="M4.77395901e-15,3.40909091 L2.72727273,3.40909091" id="Line-4"/>
                                </g>
                                <g id="Group-18" transform="translate(44.090909, 139.090909)" fill-rule="nonzero" stroke="#0DA5B2" stroke-linecap="round" stroke-width="0.4">
                                    <path d="M1.1963046,0.461785334 L1.1963046,5.43892156" id="Line-3"/>
                                    <path d="M4.77395901e-15,3.40909091 L2.72727273,3.40909091" id="Line-4"/>
                                </g>
                                <g id="Group-18" transform="translate(93.181818, 125.454545)" fill-rule="nonzero" stroke="#0DA5B2" stroke-linecap="round" stroke-width="0.4">
                                    <path d="M1.1963046,0.461785334 L1.1963046,5.43892156" id="Line-3"/>
                                    <path d="M4.77395901e-15,3.40909091 L2.72727273,3.40909091" id="Line-4"/>
                                </g>
                            </g>
                            <path d="M1.21259766,35.1322266 C0.565429688,35.1322266 0.0298828125,34.6083984 0.0298828125,33.9609375 C0.0298828125,33.3137695 0.542285156,32.7899414 1.18740234,32.7899414 L1.21259766,32.7899414 C1.85771484,32.7899414 2.38359375,33.3137695 2.38359375,33.9609375 C2.38359375,34.6086914 1.85742187,35.1322266 1.21259766,35.1322266 Z" id="Path" fill="#0DA5B2"/>
                            <path d="M78.384668,147.556934 C77.7375,147.556934 77.2025391,147.030762 77.2025391,146.385937 C77.2025391,145.736133 77.7146484,145.214648 78.3594727,145.214648 L78.384668,145.214648 C79.0294922,145.214648 79.555957,145.736133 79.555957,146.385937 C79.555957,147.030762 79.0294922,147.556934 78.384668,147.556934 Z" id="Path" fill="#0DA5B2"/>
                            <path d="M108.95625,86.6610352 C108.309082,86.6610352 107.773535,86.1348633 107.773535,85.4900391 C107.773535,84.8402344 108.28623,84.319043 108.931055,84.319043 L108.95625,84.319043 C109.601074,84.319043 110.126953,84.8402344 110.126953,85.4900391 C110.126953,86.1348633 109.601074,86.6610352 108.95625,86.6610352 Z" id="Path" fill="#0DA5B2"/>
                        </g>
                        <g id="Group" transform="translate(75.121804, 26.445668)">
                            <path d="M48.4910866,19.6974964 C48.1919656,19.6974964 47.8919656,19.5832386 47.663157,19.35443 L31.0805398,2.79466442 C30.6232156,2.3373402 30.6232156,1.59612926 31.0805398,1.13880504 C31.538157,0.681480824 32.2793679,0.681480824 32.7363991,1.13880504 L49.3190163,17.6985707 C49.7766335,18.1561879 49.7766335,18.8971058 49.3190163,19.35443 C49.0905007,19.5832386 48.7907937,19.6974964 48.4910866,19.6974964 Z" id="Path"/>
                        </g>
                        <g id="Group-18-Copy" transform="translate(68.181818, 8.181818)" fill-rule="nonzero" stroke="#0DA5B2" stroke-linecap="round" stroke-width="0.4">
                            <path d="M1.1963046,0.461785334 L1.1963046,5.43892156" id="Line-3"/>
                            <path d="M4.77395901e-15,3.40909091 L2.72727273,3.40909091" id="Line-4"/>
                        </g>
                    </g>
                </g>
                <g id="handshake" transform="translate(5.000000, 29.000000)">
                    <path d="M122.297661,43.3049708 L118.494737,12.4122807 L111.368421,13.2894737 L111.371345,13.2845029 L97.5555556,5.50935673 C96.0818713,4.68011696 94.3906433,4.31929825 92.7067251,4.4748538 L70.8921053,6.49239766 C68.2105263,6.74035088 65.8143275,8.27046784 64.4614035,10.5991228 L49.0859649,37.0634503 C47.9505848,39.0175439 48.8418129,41.5236842 50.9561404,42.3222222 L51.5850877,42.5596491 C52.7950292,43.0166667 54.0385965,43.2812865 55.2815789,43.3847953 L53.3333333,45.0815789 L49.4356725,48.4774854 L38.35,57.9336257 C36.3766082,59.6526316 36.1716374,62.6438596 37.8906433,64.6172515 L39.0152047,65.9052632 C41.222807,68.4368421 45.0652047,68.6997076 47.601462,66.4915205 L51.8383041,71.3511696 C53.2157895,72.9330409 55.2339181,73.6327485 57.172807,73.394152 C58.3380117,73.2508772 59.4748538,72.7678363 60.424269,71.9374269 L64.6564327,76.7973684 C66.0388889,78.3833333 68.0567251,79.0783626 69.995614,78.8397661 C71.1608187,78.6961988 72.2979532,78.2178363 73.2476608,77.3877193 L75.5476608,79.3754386 C77.755848,81.9114035 81.6026316,82.1736842 84.1388889,79.9654971 L87.2654971,77.2377193 L113.550877,56.7663743 L113.57924,56.7403509 L123.95,56.730117 L122.297661,43.3049708 Z" id="Path" stroke="#36E9D9" stroke-width="0.4" fill="url(#linearGradient-4)"/>
                    <path d="M111.032456,48.7815789 L111.004094,48.8076023 L84.7187135,69.2789474 L81.5921053,72.0067251 C79.0561404,74.2149123 75.2090643,73.9526316 73.0008772,71.4166667 L70.7008772,69.4289474 C69.7511696,70.2590643 68.6137427,70.7377193 67.4488304,70.8809942 C65.5099415,71.1195906 63.4923977,70.4245614 62.1096491,68.8385965 L57.8774854,63.978655 C56.9277778,64.8087719 55.7909357,65.2918129 54.6260234,65.4353801 C52.6871345,65.6739766 50.6690058,64.9745614 49.2915205,63.3923977 L45.0546784,58.5327485 C42.8833333,60.4233918 39.7570175,60.497076 37.5163743,58.8915205 C36.3672515,60.624269 36.4590643,62.972807 37.8915205,64.6172515 L39.0160819,65.9052632 C41.2236842,68.4368421 45.0660819,68.6997076 47.6023392,66.4915205 L51.8391813,71.3511696 C53.2166667,72.9330409 55.2347953,73.6327485 57.1736842,73.394152 C58.3388889,73.2508772 59.4754386,72.7678363 60.4251462,71.9374269 L64.6573099,76.7976608 C66.0397661,78.3836257 68.0576023,79.078655 69.9964912,78.8400585 C71.1616959,78.6964912 72.2988304,78.2181287 73.248538,77.3880117 L75.548538,79.375731 C77.7567251,81.9116959 81.6035088,82.1739766 84.1397661,79.9657895 L87.2663743,77.2380117 L113.551754,56.7666667 L113.580117,56.7406433 L123.950877,56.7304094 L122.803509,47.4099415 L111.032456,48.7815789 Z" id="Path" fill="url(#linearGradient-5)"/>
                    <path d="M115.819006,62.144152 L101.735673,50.0008772 L97.8192982,46.6266082 L95.0169591,44.2131579 L82.9681287,33.827193 L84.3596491,21.9821637 C84.8304094,17.9760234 82.3084795,14.2254386 78.4207602,13.1497076 L52.1561404,5.88216374 C49.377193,5.11315789 46.4400585,6.40263158 45.1254386,8.96900585 L41.8225146,15.4163743 L27.6447368,14.4540936 L24.0131579,45.3675439 L22.4347953,58.8017544 L36.2353801,59.7195906 L36.2640351,59.745614 L65.0950292,84.5973684 L68.2368421,87.3078947 C70.7850877,89.5020468 74.6304094,89.2184211 76.8245614,86.6701754 L81.0292398,81.7912281 C81.9833333,82.6160819 83.1233918,83.0883041 84.2894737,83.2254386 C86.2295322,83.4535088 88.2435673,82.747076 89.6172515,81.1535088 L93.8225146,76.2701754 C94.7766082,77.0950292 95.9160819,77.5719298 97.0821637,77.7087719 C99.0222222,77.9368421 101.03655,77.2260234 102.405263,75.6362573 L106.614912,70.7532164 C109.163158,72.9473684 113.004094,72.6631579 115.197661,70.1192982 L116.315205,68.8248538 C118.023392,66.8423977 117.801754,63.8523392 115.819006,62.144152 Z" id="Path" stroke="url(#linearGradient-7)" stroke-width="0.4" fill="url(#linearGradient-6)"/>
                    <g id="Group" transform="translate(66.081871, 58.187135)" fill="url(#linearGradient-6)" stroke-width="0.4">
                        <path d="M49.7371345,3.95701754 L45.4473684,0.258187135 C46.8415205,2.10701754 46.8128655,4.7371345 45.2394737,6.56345029 L44.0532164,7.9374269 C41.7245614,10.6377193 37.6473684,10.9394737 34.9421053,8.61023392 L30.4730994,13.7938596 C29.0201754,15.4812865 26.8818713,16.2356725 24.8222222,15.9938596 C23.5845029,15.848538 22.3748538,15.3423977 21.3619883,14.4666667 L16.8976608,19.6508772 C15.4394737,21.3423977 13.3017544,22.0921053 11.2421053,21.8502924 C10.004386,21.7049708 8.79415205,21.2035088 7.78128655,20.3277778 L3.31754386,25.5073099 C2.47660819,26.4842105 1.40555556,27.1423977 0.25497076,27.4815789 L2.15526316,29.1210526 C4.70350877,31.3152047 8.54883041,31.0315789 10.7429825,28.4833333 L14.9476608,23.604386 C15.9017544,24.4292398 17.0418129,24.901462 18.2078947,25.0385965 C20.1479532,25.2663743 22.1619883,24.5602339 23.5356725,22.9666667 L27.7409357,18.0833333 C28.6950292,18.9081871 29.8345029,19.3850877 31.0005848,19.5219298 C32.9406433,19.75 34.9549708,19.0391813 36.3236842,17.4494152 L40.5333333,12.5663743 C43.0815789,14.7605263 46.9225146,14.4763158 49.1160819,11.9324561 L50.2336257,10.6380117 C51.9415205,8.65526316 51.719883,5.66520468 49.7371345,3.95701754 Z" id="Path" stroke="url(#linearGradient-8)"/>
                        <path d="M41.9590643,10.9403509 L34.2421053,4.28654971 C33.3254386,3.49590643 31.9403509,3.59824561 31.1491228,4.51549708 C30.3581871,5.43274854 30.4608187,6.81754386 31.3780702,7.60847953 L39.0812865,14.2505848 L40.5333333,12.5663743 C41.1128655,13.0654971 41.7611111,13.4295322 42.4397661,13.6748538 C42.9406433,12.7833333 42.7631579,11.6336257 41.9590643,10.9403509 Z" id="Path" stroke="url(#linearGradient-9)"/>
                        <path d="M29.6207602,19.1891813 C30.1491228,18.2929825 29.9798246,17.1207602 29.1640351,16.4172515 L22.2318713,10.4403509 C21.3146199,9.6497076 19.930117,9.75204678 19.1388889,10.6692982 C18.3479532,11.5865497 18.4505848,12.971345 19.3678363,13.7622807 L26.3,19.7391813 C26.302924,19.7415205 26.305848,19.7435673 26.3087719,19.7459064 L27.7409357,18.0827485 C28.3119883,18.5766082 28.9505848,18.9429825 29.6207602,19.1891813 Z" id="Path" stroke="url(#linearGradient-9)"/>
                    </g>
                    <g id="Group" transform="translate(33.918129, 4.385965)">
                        <path d="M3.03654971,55.3026316 L1.36608187,57.5084795 C-0.452923977,59.9105263 0.0195906433,63.3324561 2.42163743,65.1517544 C4.82368421,66.9707602 8.24561404,66.4982456 10.0649123,64.0961988 L11.7353801,61.8903509 C13.554386,59.4883041 13.0818713,56.0663743 10.6798246,54.247076 C8.27777778,52.4280702 4.85555556,52.9005848 3.03654971,55.3026316 Z" id="Path" stroke="#36E9D9" stroke-width="0.4" fill="url(#linearGradient-6)"/>
                        <path d="M13.2108187,59.9421053 L10.0649123,64.0961988 C8.24590643,66.4982456 8.71842105,69.9201754 11.1204678,71.7394737 C13.5225146,73.5584795 16.9444444,73.0859649 18.7637427,70.6839181 L21.9096491,66.5298246 C23.728655,64.1277778 23.2561404,60.705848 20.8540936,58.8865497 C18.4517544,57.0675439 15.0298246,57.5400585 13.2108187,59.9421053 Z" id="Path" fill="url(#linearGradient-6)"/>
                        <path d="M23.0508772,65.0225146 L18.7634503,70.6839181 C16.9444444,73.0859649 17.4169591,76.5078947 19.8190058,78.327193 C22.2210526,80.1461988 25.6429825,79.6736842 27.4622807,77.2716374 L31.7497076,71.6102339 C33.5687135,69.2081871 33.0961988,65.7862573 30.694152,63.9669591 C28.2921053,62.1476608 24.8701754,62.6204678 23.0508772,65.0225146 Z" id="Path" stroke="#36E9D9" stroke-width="0.4" fill="url(#linearGradient-6)"/>
                        <path d="M31.998538,71.2815789 L27.4622807,77.271345 C25.6432749,79.6733918 26.1157895,83.0953216 28.5178363,84.9146199 C30.919883,86.7336257 34.3418129,86.2611111 36.1611111,83.8590643 L40.6973684,77.8692982 C42.5163743,75.4672515 42.0438596,72.0453216 39.6418129,70.2260234 C37.2394737,68.4070175 33.8175439,68.8795322 31.998538,71.2815789 Z" id="Path" stroke="#36E9D9" stroke-width="0.4" fill="url(#linearGradient-6)"/>
                        <path d="M77.4532164,8.89853801 L63.6374269,1.12339181 C62.1637427,0.294152047 60.4725146,-0.0666666667 58.7885965,0.0888888889 L36.9739766,2.10643275 C34.2923977,2.35438596 31.8961988,3.88450292 30.5432749,6.21315789 L15.1678363,32.6774854 C14.0324561,34.6318713 14.9236842,37.1377193 17.0380117,37.9362573 L17.6669591,38.1736842 C23.302924,40.3023392 29.6678363,38.4909357 33.3383041,33.7140351 L39.2292398,26.0473684 C39.2292398,26.0473684 53.3897661,42.4429825 68.9804094,23.2959064 L77.4532164,8.89853801 Z" id="Path" stroke="url(#linearGradient-10)" stroke-width="0.4" fill="url(#linearGradient-4)"/>
                    </g>
                    <path d="M149.69152,60.8611111 L142.465497,2.1619883 C142.394444,1.58479532 142.097076,1.05935673 141.638596,0.701461988 C141.180117,0.343567251 140.598538,0.182748538 140.021053,0.253508772 L123.123977,2.33362573 C118.73538,2.87397661 115.604678,6.88391813 116.145029,11.2722222 L121.947368,58.4067251 C122.446784,62.4643275 125.911988,65.4464912 129.900585,65.4464912 C130.225731,65.4464912 130.555263,65.4266082 130.885965,65.3859649 L147.783041,63.305848 C148.984795,63.1576023 149.839474,62.0631579 149.69152,60.8611111 Z" id="Path" stroke="#36E9D9" stroke-width="0.4" fill="url(#linearGradient-6)"/>
                    <path d="M149.69152,60.8611111 L148.898246,54.4178363 C148.538596,54.945614 147.964327,55.322807 147.280702,55.4070175 L129.568129,57.5874269 C129.221345,57.630117 128.876023,57.6508772 128.535088,57.6508772 C125.552632,57.6508772 122.850585,56.0596491 121.355848,53.6040936 L121.947076,58.4064327 C122.446491,62.4640351 125.911696,65.4461988 129.900292,65.4461988 C130.225439,65.4461988 130.554971,65.4263158 130.885673,65.3856725 L147.782749,63.3055556 C148.984795,63.1576023 149.839474,62.0631579 149.69152,60.8611111 Z" id="Path" stroke="#36E9D9" stroke-width="0.4" fill="url(#linearGradient-6)"/>
                    <path d="M26.5842105,2.33333333 L9.6871345,0.253216374 C9.10906433,0.182163743 8.52807018,0.343274854 8.06959064,0.701169591 C7.61111111,1.05906433 7.31374269,1.58450292 7.24269006,2.16169591 L0.0166666667,60.8611111 C-0.13128655,62.0631579 0.723391813,63.1576023 1.9251462,63.3055556 L18.8222222,65.3856725 C19.1532164,65.4263158 19.4821637,65.4461988 19.8076023,65.4461988 C23.7959064,65.4461988 27.2614035,62.4637427 27.7608187,58.4064327 L33.5631579,11.2719298 C34.1035088,6.88362573 30.972807,2.87368421 26.5842105,2.33333333 Z" id="Path" stroke="#36E9D9" stroke-width="0.4" fill="url(#linearGradient-4)"/>
                    <path d="M0.0166666667,60.8611111 L0.80994152,54.4178363 C1.16959064,54.945614 1.74385965,55.322807 2.42748538,55.4070175 L20.1400585,57.5874269 C20.4868421,57.630117 20.8321637,57.6508772 21.1730994,57.6508772 C24.1555556,57.6508772 26.8576023,56.0596491 28.3523392,53.6040936 L27.7611111,58.4064327 C27.2616959,62.4640351 23.7964912,65.4461988 19.8078947,65.4461988 C19.4827485,65.4461988 19.1532164,65.4263158 18.8225146,65.3856725 L1.9254386,63.3055556 C0.723099415,63.1576023 -0.13128655,62.0631579 0.0166666667,60.8611111 Z" id="Path" stroke="#36E9D9" stroke-width="0.4" fill="url(#linearGradient-4)"/>
                    <g id="Group" transform="translate(9.356725, 44.076023)" opacity="0.682640439" stroke="#36E9D9" stroke-width="0.4">
                        <circle id="Oval" fill="url(#linearGradient-4)" cx="126.315789" cy="4.38625731" r="4.23918129"/>
                        <circle id="Oval" fill="url(#linearGradient-6)" cx="4.44152047" cy="4.38625731" r="4.23918129"/>
                    </g>
                </g>
            </g>
        </g>
    </g>
</svg>