<svg width="54" height="54" viewBox="0 0 54 54" fill="none" xmlns="http://www.w3.org/2000/svg">
<path d="M3.4834 17.4193H5.22533V19.1612H3.4834V17.4193Z" fill="#03A87C"/>
<path d="M6.96777 17.4193H8.70971V19.1612H6.96777V17.4193Z" fill="#03A87C"/>
<path d="M10.4512 17.4193H12.1931V19.1612H10.4512V17.4193Z" fill="#03A87C"/>
<path d="M54 13.9355C54 6.25181 47.7482 0 40.0645 0C32.3808 0 26.129 6.25181 26.129 13.9355H2.6129C1.17232 13.9355 0 15.1078 0 16.5484V51.3871C0 52.8277 1.17232 54 2.6129 54H40.9355C42.3761 54 43.5484 52.8277 43.5484 51.3871V27.412C49.5485 25.859 54 20.4146 54 13.9355ZM2.6129 15.6774H26.2501C26.487 17.5622 27.1002 19.3285 28.0147 20.9032H1.74194V16.5484C1.74194 16.0685 2.133 15.6774 2.6129 15.6774ZM41.8064 51.3871C41.8064 51.8679 41.4154 52.2581 40.9355 52.2581H2.6129C2.133 52.2581 1.74194 51.8679 1.74194 51.3871V22.6452H29.2035C31.7598 25.8268 35.6757 27.871 40.0645 27.871C40.6559 27.871 41.2342 27.8222 41.8064 27.7499V51.3871ZM40.0645 26.129C33.3406 26.129 27.871 20.6594 27.871 13.9355C27.871 7.21161 33.3406 1.74194 40.0645 1.74194C46.7884 1.74194 52.2581 7.21161 52.2581 13.9355C52.2581 20.6594 46.7884 26.129 40.0645 26.129Z" fill="#03A87C"/>
<path d="M3.4834 32.2258H5.22533V33.9678H3.4834V32.2258Z" fill="#03A87C"/>
<path d="M6.96777 32.2258H40.0645V33.9678H6.96777V32.2258Z" fill="#03A87C"/>
<path d="M38.3223 35.7097H40.0642V37.4517H38.3223V35.7097Z" fill="#03A87C"/>
<path d="M3.4834 35.7097H36.5802V37.4517H3.4834V35.7097Z" fill="#03A87C"/>
<path d="M3.4834 39.1936H5.22533V40.9355H3.4834V39.1936Z" fill="#03A87C"/>
<path d="M6.96777 39.1936H40.0645V40.9355H6.96777V39.1936Z" fill="#03A87C"/>
<path d="M38.3223 42.6774H40.0642V44.4193H38.3223V42.6774Z" fill="#03A87C"/>
<path d="M3.4834 42.6774H36.5802V44.4193H3.4834V42.6774Z" fill="#03A87C"/>
<path d="M46.1612 14.0844V13.0645C46.1612 10.6389 44.7337 8.54508 42.6774 7.56437V6.96776C42.6774 5.52718 41.505 4.35486 40.0645 4.35486C38.6239 4.35486 37.4516 5.52718 37.4516 6.96776V7.56437C35.3952 8.54508 33.9677 10.6389 33.9677 13.0645V14.0844C33.9677 15.4405 33.4399 16.7156 32.4809 17.6746C32.2318 17.9237 32.1569 18.2982 32.2919 18.6239C32.4269 18.9488 32.7448 19.1613 33.0967 19.1613H36.7043C37.0936 20.6594 38.4462 21.7742 40.0645 21.7742C41.6827 21.7742 43.0353 20.6594 43.4247 19.1613H47.0322C47.3841 19.1613 47.702 18.9488 47.837 18.6239C47.972 18.2982 47.8971 17.9237 47.648 17.6746C46.689 16.7156 46.1612 15.4414 46.1612 14.0844ZM39.1935 6.96776C39.1935 6.48786 39.5846 6.09679 40.0645 6.09679C40.5444 6.09679 40.9354 6.48786 40.9354 6.96776V7.03744C40.6497 6.9965 40.3606 6.96776 40.0645 6.96776C39.7683 6.96776 39.4792 6.9965 39.1935 7.03744V6.96776ZM40.0645 20.0323C39.4226 20.0323 38.8669 19.6795 38.5647 19.1613H41.5643C41.262 19.6795 40.7064 20.0323 40.0645 20.0323ZM34.8421 17.4194C35.4083 16.4125 35.7096 15.2716 35.7096 14.0844V13.0645C35.7096 10.6633 37.6632 8.7097 40.0645 8.7097C42.4657 8.7097 44.4193 10.6633 44.4193 13.0645V14.0844C44.4193 15.2716 44.7207 16.4117 45.2868 17.4194H34.8421Z" fill="#03A87C"/>
</svg>