<svg xmlns="http://www.w3.org/2000/svg" width="80" height="75" viewBox="0 0 80 75">
  <metadata><?xpacket begin="﻿" id="W5M0MpCehiHzreSzNTczkc9d"?>
<x:xmpmeta xmlns:x="adobe:ns:meta/" x:xmptk="Adobe XMP Core 5.6-c142 79.160924, 2017/07/13-01:06:39        ">
   <rdf:RDF xmlns:rdf="http://www.w3.org/1999/02/22-rdf-syntax-ns#">
      <rdf:Description rdf:about=""/>
   </rdf:RDF>
</x:xmpmeta>
                                                                                                    
                                                                                                    
                                                                                                    
                                                                                                    
                                                                                                    
                                                                                                    
                                                                                                    
                                                                                                    
                                                                                                    
                                                                                                    
                                                                                                    
                                                                                                    
                                                                                                    
                                                                                                    
                                                                                                    
                                                                                                    
                                                                                                    
                                                                                                    
                                                                                                    
                                                                                                    
                           
<?xpacket end="w"?></metadata>
<defs>
    <style>
      .cls-1 {
        fill: #fff;
        fill-rule: evenodd;
      }
    </style>
  </defs>
  <path class="cls-1" d="M879.688,5693.82H908.75a1.56,1.56,0,1,0,0-3.12H879.688A1.56,1.56,0,1,0,879.688,5693.82Zm-9.444-.96a1.967,1.967,0,0,0,.144.27,1.764,1.764,0,0,0,.193.24,1.871,1.871,0,0,0,.238.19,0.979,0.979,0,0,0,.27.14,1.494,1.494,0,0,0,.292.09,1.561,1.561,0,0,0,.305.03,1.587,1.587,0,0,0,.306-0.03,1.5,1.5,0,0,0,.293-0.09,1,1,0,0,0,.268-0.14,1.86,1.86,0,0,0,.237-0.19,1.787,1.787,0,0,0,.2-0.24,2.083,2.083,0,0,0,.144-0.27,1.785,1.785,0,0,0,.089-0.29,1.626,1.626,0,0,0,.029-0.31,1.525,1.525,0,0,0-.029-0.3,1.894,1.894,0,0,0-.089-0.3,2.083,2.083,0,0,0-.144-0.27,1.7,1.7,0,0,0-.2-0.23,1.926,1.926,0,0,0-.237-0.2,2.341,2.341,0,0,0-.268-0.14,1.547,1.547,0,0,0-.293-0.09,1.571,1.571,0,0,0-.611,0,1.494,1.494,0,0,0-.292.09,2.214,2.214,0,0,0-.27.14,1.936,1.936,0,0,0-.238.2,1.68,1.68,0,0,0-.193.23,1.967,1.967,0,0,0-.144.27,1.706,1.706,0,0,0-.089.3,1.454,1.454,0,0,0-.03.3,1.551,1.551,0,0,0,.03.31A1.608,1.608,0,0,0,870.244,5692.86Zm-13.488,10.07a1.428,1.428,0,0,0,.27.15,1.477,1.477,0,0,0,.293.08,1.574,1.574,0,0,0,.3.04,1.615,1.615,0,0,0,.307-0.04,1.477,1.477,0,0,0,.291-0.08,1.459,1.459,0,0,0,.27-0.15,1.267,1.267,0,0,0,.237-0.19,1.582,1.582,0,0,0,.458-1.11,1.529,1.529,0,0,0-.119-0.59,1.282,1.282,0,0,0-.144-0.27,1.24,1.24,0,0,0-.2-0.24,1.926,1.926,0,0,0-.237-0.2,2.442,2.442,0,0,0-.269-0.14,1.516,1.516,0,0,0-.292-0.09,1.57,1.57,0,0,0-.611,0,1.5,1.5,0,0,0-.293.09,2.2,2.2,0,0,0-.269.14,1.936,1.936,0,0,0-.238.2,1.621,1.621,0,0,0-.338.51,1.608,1.608,0,0,0-.12.59,1.586,1.586,0,0,0,.458,1.11A1.267,1.267,0,0,0,856.756,5702.93Zm30.113,2.64a1.583,1.583,0,0,0-.34-0.51,1.926,1.926,0,0,0-.237-0.2,2.341,2.341,0,0,0-.268-0.14,1.525,1.525,0,0,0-.293-0.09,1.571,1.571,0,0,0-.611,0,1.494,1.494,0,0,0-.292.09,2.457,2.457,0,0,0-.27.14,2.014,2.014,0,0,0-.238.2,1.269,1.269,0,0,0-.193.24,1.238,1.238,0,0,0-.144.27,1.4,1.4,0,0,0-.089.29,1.457,1.457,0,0,0-.032.3,1.554,1.554,0,0,0,.032.31,1.4,1.4,0,0,0,.089.29,1.238,1.238,0,0,0,.144.27,1.269,1.269,0,0,0,.193.24,1.307,1.307,0,0,0,.238.19,0.993,0.993,0,0,0,.27.14,1.494,1.494,0,0,0,.292.09,1.187,1.187,0,0,0,.611,0,1.525,1.525,0,0,0,.293-0.09,1,1,0,0,0,.268-0.14,1.267,1.267,0,0,0,.237-0.19,1.583,1.583,0,0,0,.34-0.51,1.526,1.526,0,0,0,.089-0.29,1.629,1.629,0,0,0,.031-0.31A1.555,1.555,0,0,0,886.869,5705.57Zm3.131,2.16a1.567,1.567,0,0,0,1.563-1.57,1.529,1.529,0,0,0-.032-0.3,1.458,1.458,0,0,0-.089-0.29,1.238,1.238,0,0,0-.144-0.27,1.269,1.269,0,0,0-.193-0.24,1.566,1.566,0,0,0-1.41-.43,1.525,1.525,0,0,0-.293.09,2.275,2.275,0,0,0-.269.14,1.936,1.936,0,0,0-.238.2,1.362,1.362,0,0,0-.195.24,1.282,1.282,0,0,0-.144.27,1.529,1.529,0,0,0-.119.59,1.628,1.628,0,0,0,.03.31,1.53,1.53,0,0,0,.091.29,1.28,1.28,0,0,0,.143.27,1.314,1.314,0,0,0,.194.24,1.273,1.273,0,0,0,.238.19,0.987,0.987,0,0,0,.269.14,1.525,1.525,0,0,0,.293.09A1.594,1.594,0,0,0,890,5707.73Zm3.131-.97a1.469,1.469,0,0,0,.577.7,0.982,0.982,0,0,0,.268.14,1.547,1.547,0,0,0,.293.09,1.584,1.584,0,0,0,.306.04,1.6,1.6,0,0,0,.3-0.04,1.464,1.464,0,0,0,.291-0.09,1.013,1.013,0,0,0,.271-0.14,1.3,1.3,0,0,0,.237-0.19,1.319,1.319,0,0,0,.2-0.24,1.28,1.28,0,0,0,.143-0.27,1.458,1.458,0,0,0,.089-0.29,1.551,1.551,0,0,0,.03-0.31,1.526,1.526,0,0,0-.03-0.3,1.458,1.458,0,0,0-.089-0.29,1.28,1.28,0,0,0-.143-0.27,1.319,1.319,0,0,0-.2-0.24,1.926,1.926,0,0,0-.237-0.2,2.385,2.385,0,0,0-.271-0.14,1.464,1.464,0,0,0-.291-0.09,1.571,1.571,0,0,0-.611,0,1.547,1.547,0,0,0-.293.09,2.261,2.261,0,0,0-.268.14,1.947,1.947,0,0,0-.239.2,1.621,1.621,0,0,0-.338.51,1.555,1.555,0,0,0-.12.59,1.629,1.629,0,0,0,.031.31A1.526,1.526,0,0,0,893.131,5706.76Zm5.306,43.31H881.25a1.56,1.56,0,1,0,0,3.12h17.187A1.56,1.56,0,1,0,898.437,5750.07Zm-26.562-23.45h10.938a1.56,1.56,0,1,0,0-3.12H871.875A1.56,1.56,0,1,0,871.875,5726.62Zm9.375,4.7a1.562,1.562,0,0,0-1.562-1.56h-7.813a1.56,1.56,0,1,0,0,3.12h7.813A1.562,1.562,0,0,0,881.25,5731.32Zm45.313-35.95h-10v-5.93a3.441,3.441,0,0,0-3.438-3.44h-46.25a3.44,3.44,0,0,0-3.437,3.44v5.93h-10a3.441,3.441,0,0,0-3.438,3.44v52.51a3.439,3.439,0,0,0,3.438,3.43h10v2.81a3.44,3.44,0,0,0,3.437,3.44h46.25a3.441,3.441,0,0,0,3.438-3.44v-2.81h10a3.438,3.438,0,0,0,3.437-3.43v-52.51A3.44,3.44,0,0,0,926.563,5695.37Zm0.312,3.44v5.93H916.563v-1.54h5.624a1.565,1.565,0,0,0,0-3.13h-5.624v-1.57h10A0.314,0.314,0,0,1,926.875,5698.81Zm-60.313-.31h46.876v15.64H866.562V5698.5Zm46.876,20.4v18.03l-8.9-8.9Zm-11.113,6.92-8.554-8.56h16.9Zm-2.182,2.24-8.58,8.79v-17.38Zm2.209,2.21,8.877,8.88H893.693Zm-35.477-41.15h46.25a0.323,0.323,0,0,1,.313.32v5.93H866.562v-5.93A0.323,0.323,0,0,1,866.875,5689.12Zm-13.437,9.38h10v6.24H853.125v-5.93A0.314,0.314,0,0,1,853.438,5698.5Zm0,53.13a0.321,0.321,0,0,1-.313-0.31v-43.45h10.313v43.76h-10Zm60,5.93a0.323,0.323,0,0,1-.313.32h-46.25a0.323,0.323,0,0,1-.313-0.32v-15.29h3.372a1.56,1.56,0,1,0,0-3.12h-3.372v-21.89h21.875v21.89h-6a1.56,1.56,0,1,0,0,3.12h31v15.29Zm13.125-5.93h-10v-10.92h0v-32.84h10.312v43.45A0.321,0.321,0,0,1,926.563,5751.63Zm-49.835-12.39a1.494,1.494,0,0,0-.292-0.09,1.565,1.565,0,0,0-.61,0,1.464,1.464,0,0,0-.291.09,2.228,2.228,0,0,0-.271.14,1.926,1.926,0,0,0-.237.2,1.563,1.563,0,0,0-.458,1.1,1.629,1.629,0,0,0,.031.31,1.531,1.531,0,0,0,.089.29,1.864,1.864,0,0,0,.144.27,2.552,2.552,0,0,0,.194.24,1.793,1.793,0,0,0,.237.19,1.363,1.363,0,0,0,.271.14,1.464,1.464,0,0,0,.291.09,1.565,1.565,0,0,0,.61,0,1.494,1.494,0,0,0,.292-0.09,1.356,1.356,0,0,0,.27-0.14,1.871,1.871,0,0,0,.238-0.19,2.722,2.722,0,0,0,.194-0.24,2.073,2.073,0,0,0,.143-0.27,1.8,1.8,0,0,0,.091-0.29,1.626,1.626,0,0,0,.029-0.31,1.566,1.566,0,0,0-.457-1.1,1.936,1.936,0,0,0-.238-0.2A2.143,2.143,0,0,0,876.728,5739.24Z" transform="translate(-850 -5686)"/>
</svg>