<svg width="80" height="60" xmlns="http://www.w3.org/2000/svg"><script xmlns="" type="text/javascript" charset="utf-8" id="zm-extension"/><g fill="none" fill-rule="evenodd"><path fill="#3F3F3F" d="M39.69 10.93h1.012V.813h-1.013zm0 45.16h1.012V45.972h-1.013zM.655 29.42h10.076v-1.017H.655zm6.337-24.8a1.84 1.84 0 0 1-1.835 1.842A1.84 1.84 0 0 1 3.32 4.62a1.84 1.84 0 0 1 1.836-1.842A1.84 1.84 0 0 1 6.991 4.62m68.832 0a1.84 1.84 0 0 1-1.835 1.842 1.84 1.84 0 0 1-1.836-1.843 1.84 1.84 0 0 1 1.836-1.842 1.84 1.84 0 0 1 1.835 1.842m3.671 53.455a1.84 1.84 0 0 1-1.835 1.843 1.84 1.84 0 0 1-1.836-1.843 1.84 1.84 0 0 1 1.836-1.842 1.84 1.84 0 0 1 1.835 1.842m0-37.596a1.84 1.84 0 0 1-1.835 1.843 1.84 1.84 0 0 1-1.836-1.843 1.84 1.84 0 0 1 1.836-1.843 1.84 1.84 0 0 1 1.835 1.843m-24.78 0a1.84 1.84 0 0 1-1.835 1.843 1.84 1.84 0 0 1-1.836-1.843 1.84 1.84 0 0 1 1.836-1.843 1.84 1.84 0 0 1 1.835 1.843m0 37.596a1.84 1.84 0 0 1-1.835 1.843 1.84 1.84 0 0 1-1.836-1.843 1.84 1.84 0 0 1 1.836-1.842 1.84 1.84 0 0 1 1.835 1.842m-47.722-5.53a1.84 1.84 0 0 1-1.835 1.843 1.84 1.84 0 0 1-1.836-1.843 1.84 1.84 0 0 1 1.836-1.843 1.84 1.84 0 0 1 1.835 1.843"/><path d="M51.57 52.922H5.155a.508.508 0 0 1-.506-.508V4.488c0-.28.227-.509.506-.509h69.29c.28 0 .507.228.507.509v14.56H73.94V4.995H5.663v46.91h45.906v1.016z" fill="#3F3F3F"/><path d="M52.928 58.027H77.61V21.253H52.928v36.774zm25.19 1.017H52.42a.506.506 0 0 1-.506-.509v-37.79c0-.281.225-.51.506-.51h25.696c.28 0 .507.229.507.51v37.79c0 .28-.227.509-.507.509z" fill="#3F3F3F"/><path fill="#3F3F3F" d="M50.127 20.744h3.038v-1.017h-3.038zm-9.452 0h5.74v-1.017h-5.74zm-7.552 1.727l-.755-.677 1.685-1.897a.502.502 0 0 1 .377-.17h2.532v1.017h-2.304l-1.535 1.727zm-5.928 6.669l-.755-.676 3.638-4.094.756.678-3.639 4.093zm-5.926 6.672l-.755-.677 3.637-4.095.756.677-3.638 4.095zm-5.927 6.67l-.755-.678 3.638-4.093.756.677-3.639 4.093zm-5.926 6.67l-.755-.677 3.637-4.095.756.677-3.638 4.095zm-4.312 4.853l-.756-.678 2.023-2.276.755.678z"/><path d="M52.928 58.027H77.61V21.253H52.928v36.774zm25.19 1.017H52.42a.506.506 0 0 1-.506-.509v-37.79c0-.281.225-.51.506-.51h25.696c.28 0 .507.229.507.51v37.79c0 .28-.227.509-.507.509z" fill="#3F3F3F"/><path fill="#FEDD00" d="M52.42 20.744h22.01v-4.203H46.993v36.237h5.427z"/><path fill="#3F3F3F" d="M63.797 40.066h4.051V39.05h-4.05z"/><path fill="#3F3F3F" d="M65.316 41.592h1.013v-4.068h-1.013z"/></g></svg>