<?xml version="1.0" encoding="UTF-8"?>
<svg width="191px" height="153px" viewBox="0 0 191 153" version="1.1" xmlns="http://www.w3.org/2000/svg" xmlns:xlink="http://www.w3.org/1999/xlink">
    <!-- Generator: Sketch 52.2 (67145) - http://www.bohemiancoding.com/sketch -->
    <title>Group 42@1x</title>
    <desc>Created with Sketch.</desc>
    <defs>
        <linearGradient x1="50.002375%" y1="3.7464722%" x2="50.002375%" y2="98.7385279%" id="linearGradient-1">
            <stop stop-color="#71E4DC" stop-opacity="0.441661005" offset="0%"/>
            <stop stop-color="#7AE6DE" stop-opacity="0.581408514" offset="13.11%"/>
            <stop stop-color="#93EBE4" stop-opacity="0.6524" offset="34.76%"/>
            <stop stop-color="#BCF2EF" stop-opacity="0.3772" offset="62.28%"/>
            <stop stop-color="#F4FDFC" stop-opacity="0.484771286" offset="94.29%"/>
            <stop stop-color="#E8FBFA" stop-opacity="0.469429348" offset="100%"/>
        </linearGradient>
        <linearGradient x1="49.99685%" y1="-0.0380196937%" x2="49.99685%" y2="100.005963%" id="linearGradient-2">
            <stop stop-color="#00C1B8" offset="0%"/>
            <stop stop-color="#00B8B0" offset="46.48%"/>
            <stop stop-color="#00A8A0" offset="100%"/>
        </linearGradient>
        <linearGradient x1="50.0033437%" y1="99.9949072%" x2="50.0033437%" y2="-0.005211212%" id="linearGradient-3">
            <stop stop-color="#00A09A" offset="0%"/>
            <stop stop-color="#13B6AC" offset="31.82%"/>
            <stop stop-color="#27CEBF" offset="73.91%"/>
            <stop stop-color="#2ED7C6" offset="100%"/>
        </linearGradient>
        <linearGradient x1="100%" y1="0%" x2="0%" y2="100%" id="linearGradient-4">
            <stop stop-color="#71E4DC" offset="0%"/>
            <stop stop-color="#00C1B8" offset="15.36%"/>
            <stop stop-color="#1692AE" offset="29.26%"/>
            <stop stop-color="#2670A6" offset="41.62%"/>
            <stop stop-color="#2F5BA2" offset="51.78%"/>
            <stop stop-color="#3353A0" offset="58.46%"/>
            <stop stop-color="#2C5FA0" offset="67.22%"/>
            <stop stop-color="#197FA0" offset="83.09%"/>
            <stop stop-color="#00A8A0" offset="100%"/>
        </linearGradient>
        <radialGradient cx="100%" cy="-15.3689639%" fx="100%" fy="-15.3689639%" r="342.174769%" gradientTransform="translate(1.000000,-0.153690),scale(0.390244,1.000000),rotate(153.599066),translate(-1.000000,0.153690)" id="radialGradient-5">
            <stop stop-color="#71E4DC" offset="0%"/>
            <stop stop-color="#00C1B8" offset="15.36%"/>
            <stop stop-color="#1692AE" offset="29.26%"/>
            <stop stop-color="#2670A6" offset="41.62%"/>
            <stop stop-color="#2F5BA2" offset="51.78%"/>
            <stop stop-color="#3353A0" offset="58.46%"/>
            <stop stop-color="#2C5FA0" offset="67.22%"/>
            <stop stop-color="#197FA0" offset="83.09%"/>
            <stop stop-color="#00A8A0" offset="100%"/>
        </radialGradient>
        <linearGradient x1="49.9283626%" y1="-0.0479532164%" x2="49.9283626%" y2="99.8669591%" id="linearGradient-6">
            <stop stop-color="#71E4DC" offset="0%"/>
            <stop stop-color="#00C1B8" offset="15.36%"/>
            <stop stop-color="#1692AE" offset="29.26%"/>
            <stop stop-color="#2670A6" offset="41.62%"/>
            <stop stop-color="#2F5BA2" offset="51.78%"/>
            <stop stop-color="#3353A0" offset="58.46%"/>
            <stop stop-color="#2C5FA0" offset="67.22%"/>
            <stop stop-color="#197FA0" offset="83.09%"/>
            <stop stop-color="#00A8A0" offset="100%"/>
        </linearGradient>
        <path d="M44.8139053,21.2783368 C44.8139053,32.068028 34.7813149,37.4918137 22.4097328,37.4918137 C10.0353706,37.4918137 1.42108547e-12,32.068028 1.42108547e-12,21.2783368 C-0.000173760614,10.486077 10.0351968,-4.61852778e-14 22.4095591,-4.61852778e-14 C34.7813149,-4.61852778e-14 44.8139053,10.486077 44.8139053,21.2783368 Z" id="path-7"/>
        <radialGradient cx="100%" cy="-15.3689639%" fx="100%" fy="-15.3689639%" r="218.669334%" gradientTransform="translate(1.000000,-0.153690),scale(0.761532,1.000000),rotate(135.909796),translate(-1.000000,0.153690)" id="radialGradient-9">
            <stop stop-color="#71E4DC" offset="0%"/>
            <stop stop-color="#00C1B8" offset="15.36%"/>
            <stop stop-color="#1692AE" offset="29.26%"/>
            <stop stop-color="#2670A6" offset="41.62%"/>
            <stop stop-color="#2F5BA2" offset="51.78%"/>
            <stop stop-color="#3353A0" offset="58.46%"/>
            <stop stop-color="#2C5FA0" offset="67.22%"/>
            <stop stop-color="#197FA0" offset="83.09%"/>
            <stop stop-color="#00A8A0" offset="100%"/>
        </radialGradient>
        <path d="M44.8139053,21.2783368 C44.8139053,32.068028 34.7813149,37.4918137 22.4097328,37.4918137 C10.0353706,37.4918137 1.42108547e-12,32.068028 1.42108547e-12,21.2783368 C-0.000173760614,10.486077 10.0351968,-4.61852778e-14 22.4095591,-4.61852778e-14 C34.7813149,-4.61852778e-14 44.8139053,10.486077 44.8139053,21.2783368 Z" id="path-10"/>
        <radialGradient cx="100%" cy="-15.3689639%" fx="100%" fy="-15.3689639%" r="333.655341%" gradientTransform="translate(1.000000,-0.153690),scale(0.402783,1.000000),rotate(152.870493),translate(-1.000000,0.153690)" id="radialGradient-12">
            <stop stop-color="#71E4DC" offset="0%"/>
            <stop stop-color="#00C1B8" offset="15.36%"/>
            <stop stop-color="#1692AE" offset="29.26%"/>
            <stop stop-color="#2670A6" offset="41.62%"/>
            <stop stop-color="#2F5BA2" offset="51.78%"/>
            <stop stop-color="#3353A0" offset="58.46%"/>
            <stop stop-color="#2C5FA0" offset="67.22%"/>
            <stop stop-color="#197FA0" offset="83.09%"/>
            <stop stop-color="#00A8A0" offset="100%"/>
        </radialGradient>
        <path d="M54.9604499,26.4797081 C54.9604499,39.9068793 42.6563296,46.6564793 27.4836346,46.6564793 C12.30753,46.6564793 1.42108547e-12,39.9068793 1.42108547e-12,26.4797081 C-0.00021310264,13.0493403 12.3073169,-4.61852778e-14 27.4834215,-4.61852778e-14 C42.6563296,-4.61852778e-14 54.9604499,13.0493403 54.9604499,26.4797081 Z" id="path-13"/>
        <radialGradient cx="100%" cy="-15.3689639%" fx="100%" fy="-15.3689639%" r="217.040786%" gradientTransform="translate(1.000000,-0.153690),scale(0.772727,1.000000),rotate(135.491842),translate(-1.000000,0.153690)" id="radialGradient-15">
            <stop stop-color="#71E4DC" offset="0%"/>
            <stop stop-color="#00C1B8" offset="15.36%"/>
            <stop stop-color="#1692AE" offset="29.26%"/>
            <stop stop-color="#2670A6" offset="41.62%"/>
            <stop stop-color="#2F5BA2" offset="51.78%"/>
            <stop stop-color="#3353A0" offset="58.46%"/>
            <stop stop-color="#2C5FA0" offset="67.22%"/>
            <stop stop-color="#197FA0" offset="83.09%"/>
            <stop stop-color="#00A8A0" offset="100%"/>
        </radialGradient>
    </defs>
    <g id="Page-1" stroke="none" stroke-width="1" fill="none" fill-rule="evenodd">
        <g id="main-page" transform="translate(-506.000000, -4834.000000)">
            <g id="Group-42" transform="translate(506.000000, 4834.000000)">
                <g id="Group-32" transform="translate(29.000000, 3.000000)">
                    <path d="M31.3448242,2.34228516 C30.6973633,2.34228516 30.1621094,1.81845703 30.1621094,1.17128906 C30.1621094,0.524121094 30.6745117,0 31.3196289,0 L31.3448242,0 C31.9896484,0 32.5158203,0.523828125 32.5158203,1.17128906 C32.5158203,1.81875 31.9896484,2.34228516 31.3448242,2.34228516 Z" id="Path" fill="#0DA5B2"/>
                    <path d="M82.872168,7.0265625 C82.225,7.0265625 81.6894531,6.50273437 81.6894531,5.85527344 C81.6894531,5.20810547 82.2021484,4.68427734 82.8469727,4.68427734 L82.872168,4.68427734 C83.5169922,4.68427734 84.043457,5.20810547 84.043457,5.85527344 C84.043457,6.50273437 83.5172852,7.0265625 82.872168,7.0265625 Z" id="Path" fill="#0DA5B2"/>
                    <path d="M14.9473633,98.371582 C14.2999023,98.371582 13.7649414,97.8454102 13.7649414,97.2005859 C13.7649414,96.5507812 14.2773438,96.0295898 14.922168,96.0295898 L14.9473633,96.0295898 C15.5921875,96.0295898 16.1183594,96.5507812 16.1183594,97.2005859 C16.1183594,97.8454102 15.5921875,98.371582 14.9473633,98.371582 Z" id="Path" fill="#0DA5B2"/>
                    <path d="M129.715234,149.899219 C129.068066,149.899219 128.533105,149.377734 128.533105,148.72793 C128.533105,148.083105 129.045215,147.556934 129.690039,147.556934 L129.715234,147.556934 C130.360059,147.556934 130.886523,148.083105 130.886523,148.72793 C130.886523,149.377734 130.360059,149.899219 129.715234,149.899219 Z" id="Path" fill="#0DA5B2"/>
                    <path d="M132.05957,77.2910156 C131.412402,77.2910156 130.877441,76.7674805 130.877441,76.1200195 C130.877441,75.4725586 131.389551,74.9490234 132.034375,74.9490234 L132.05957,74.9490234 C132.70498,74.9490234 133.230859,75.4725586 133.230859,76.1200195 C133.230859,76.7674805 132.70498,77.2910156 132.05957,77.2910156 Z" id="Path" fill="#0DA5B2"/>
                    <g id="Group-18" transform="translate(19.545455, 16.363636)" fill-rule="nonzero" stroke="#0DA5B2" stroke-linecap="round" stroke-width="0.4">
                        <path d="M1.1963046,0.461785334 L1.1963046,5.43892156" id="Line-3"/>
                        <path d="M4.77395901e-15,3.40909091 L2.72727273,3.40909091" id="Line-4"/>
                    </g>
                    <g id="Group-18" transform="translate(0.454545, 62.727273)" fill-rule="nonzero" stroke="#0DA5B2" stroke-linecap="round" stroke-width="0.4">
                        <path d="M1.1963046,0.461785334 L1.1963046,5.43892156" id="Line-3"/>
                        <path d="M4.77395901e-15,3.40909091 L2.72727273,3.40909091" id="Line-4"/>
                    </g>
                    <g id="Group-18" transform="translate(44.090909, 139.090909)" fill-rule="nonzero" stroke="#0DA5B2" stroke-linecap="round" stroke-width="0.4">
                        <path d="M1.1963046,0.461785334 L1.1963046,5.43892156" id="Line-3"/>
                        <path d="M4.77395901e-15,3.40909091 L2.72727273,3.40909091" id="Line-4"/>
                    </g>
                    <g id="Group-18" transform="translate(93.181818, 125.454545)" fill-rule="nonzero" stroke="#0DA5B2" stroke-linecap="round" stroke-width="0.4">
                        <path d="M1.1963046,0.461785334 L1.1963046,5.43892156" id="Line-3"/>
                        <path d="M4.77395901e-15,3.40909091 L2.72727273,3.40909091" id="Line-4"/>
                    </g>
                </g>
                <g id="Group-39">
                    <g id="Group-35" fill="url(#linearGradient-1)" opacity="0.497512091">
                        <g id="Path-2">
                            <path d="M183.922879,124.450982 L171.453234,124.450982 C174.896336,124.450982 177.688252,121.661777 177.688252,118.228491 C177.688252,114.788978 174.896336,112.006 171.453234,112.006 L158.983589,112.006 C162.426691,112.006 165.218607,109.216796 165.218607,105.78351 C165.218607,102.344386 162.426691,99.5610189 158.983589,99.5610189 L140.279706,99.5610189 C143.722808,99.5610189 146.514724,96.7722036 146.514724,93.3389174 C146.514724,89.8994044 143.722808,87.1164267 140.279706,87.1164267 L174.569963,87.1164267 C178.013065,87.1164267 180.804981,84.3272222 180.804981,80.893936 C180.804981,77.454423 178.013065,74.6698886 174.569963,74.6698886 L158.983199,74.6698886 C162.426301,74.6698886 165.218217,71.8837974 165.218217,68.4473979 C165.218217,65.0109983 162.426301,62.2249071 158.983199,62.2249071 L152.748961,62.2249071 C156.192064,62.2249071 158.983199,59.438816 158.983199,56.0024164 C158.983199,52.5660168 156.192064,49.7799257 152.748961,49.7799257 L183.9221,49.7799257 C187.365202,49.7799257 190.157117,46.9938346 190.157117,43.557435 C190.157117,40.1210354 187.365202,37.3349443 183.9221,37.3349443 L171.452454,37.3349443 C174.895557,37.3349443 177.687472,34.5488532 177.687472,31.1124536 C177.687472,27.676054 174.895557,24.8899629 171.452454,24.8899629 L158.982809,24.8899629 C162.425911,24.8899629 165.217827,22.1038717 165.217827,18.6674721 C165.217827,15.2310726 162.425911,12.4449814 158.982809,12.4449814 L149.631453,12.4449814 C153.074555,12.4449814 155.86569,9.6588903 155.86569,6.22249071 C155.86569,2.78609113 153.074555,-1.13686838e-13 149.631453,-1.13686838e-13 L56.1120385,-1.13686838e-13 C52.6689362,-1.13686838e-13 49.8774108,2.78609113 49.8774108,6.22249071 C49.8774108,9.6588903 52.6689362,12.4449814 56.1120385,12.4449814 L34.2906468,12.4449814 C30.8475446,12.4449814 28.0560192,15.2310726 28.0560192,18.6674721 C28.0560192,22.1038717 30.8475446,24.8899629 34.2906468,24.8899629 L28.0560192,24.8899629 C24.612917,24.8899629 21.8213916,27.676054 21.8213916,31.1124536 C21.8213916,34.5488532 24.612917,37.3349443 28.0560192,37.3349443 L46.760292,37.3349443 C43.3171898,37.3349443 40.5256644,40.1210354 40.5256644,43.557435 C40.5256644,46.9938346 43.3171898,49.7799257 46.760292,49.7799257 L12.4696452,49.7799257 C9.02654291,49.7799257 6.23501755,52.566406 6.23501755,56.0024164 C6.23501755,59.4384268 9.02654291,62.2249071 12.4696452,62.2249071 L28.0564092,62.2249071 C24.6133069,62.2249071 21.8217815,65.0109983 21.8217815,68.4473979 C21.8217815,71.8837974 24.6133069,74.6698886 28.0564092,74.6698886 L12.4696452,74.6698886 C9.02654291,74.6698886 6.23501755,77.454423 6.23501755,80.893936 C6.23501755,84.3272222 9.02654291,87.1164267 12.4696452,87.1164267 L6.23462761,87.1164267 C2.79152537,87.1164267 0,89.8994044 0,93.3389174 C0,96.7722036 2.79152537,99.5610189 6.23462761,99.5610189 L21.8217815,99.5610189 C18.3786793,99.5610189 15.5871539,102.344386 15.5871539,105.78351 C15.5871539,109.216796 18.3786793,112.006 21.8217815,112.006 L15.586764,112.006 C12.1436618,112.006 9.35213639,114.788978 9.35213639,118.228491 C9.35213639,121.661777 12.1436618,124.450982 15.586764,124.450982 L46.760292,124.450982 C43.3171898,124.450982 40.5256644,127.23396 40.5256644,130.673473 C40.5256644,134.10637 43.3171898,136.895963 46.760292,136.895963 L34.2906468,136.895963 C30.8475446,136.895963 28.0560192,139.678552 28.0560192,143.118065 C28.0560192,146.551351 30.8475446,149.340555 34.2906468,149.340555 L140.280096,149.340555 C143.723198,149.340555 146.515114,146.551351 146.515114,143.118065 C146.515114,139.678552 143.723198,136.895963 140.280096,136.895963 L183.922879,136.895963 C187.365982,136.895963 190.157897,134.10637 190.157897,130.673473 C190.158287,127.23396 187.365982,124.450982 183.922879,124.450982 Z" id="Path" transform="translate(95.078948, 74.670278) scale(1, -1) translate(-95.078948, -74.670278) "/>
                        </g>
                    </g>
                    <g id="Group-38" transform="translate(20.000000, 19.000000)">
                        <g id="superheroe-copy" opacity="0.804827009" transform="translate(98.644068, 14.508475)">
                            <g id="Group" transform="translate(11.016949, 59.322034)" fill="url(#linearGradient-2)">
                                <path d="M38.8946209,7.37239183 C38.8946209,11.3760606 35.6493845,32.9648331 31.6445941,32.9648331 C27.6447279,32.9648331 24.4011329,11.3744184 24.4011329,7.37239183 C24.4011329,3.3703653 27.6463693,0.121733867 31.6445941,0.121733867 C35.6493845,0.121733867 38.8946209,3.3703653 38.8946209,7.37239183 Z" id="Path"/>
                                <path d="M14.6120785,7.37239183 C14.6120785,11.3760606 11.3668421,32.9648331 7.36205174,32.9648331 C3.36218555,32.9648331 0.118590544,11.3744184 0.118590544,7.37239183 C0.118590544,3.3703653 3.36382694,0.121733867 7.36205174,0.121733867 C11.3668421,0.121733867 14.6120785,3.3703653 14.6120785,7.37239183 Z" id="Path"/>
                            </g>
                            <path d="M50.8474576,56.9963856 C50.8474576,82.5828071 41.7439751,74.0618988 30.5084746,74.0618988 C19.2762399,74.0618988 10.1694915,82.5828071 10.1694915,56.9963856 C10.1694915,42.3669799 19.2795058,30.5084746 30.5084746,30.5084746 C41.7407092,30.5102974 50.8474576,42.3686002 50.8474576,56.9963856 Z" id="Path" stroke="#36E9D9" stroke-width="0.4" fill="url(#linearGradient-3)"/>
                            <g id="Group" transform="translate(12.711864, 78.813559)" fill="url(#linearGradient-3)">
                                <path d="M0.184921099,0.0171509282 C1.31122151,5.52582728 2.90964348,11.0552865 4.71917008,12.5986683 L6.68334307,12.5986683 C8.49757452,11.0554883 10.097633,5.52602906 11.2222969,0.0171509282 L0.184921099,0.0171509282 Z" id="Path"/>
                                <path d="M24.3960842,0.0171509282 C25.5223846,5.52582728 27.1208065,11.0552865 28.9303331,12.5986683 L30.8945061,12.5986683 C32.7087376,11.0554883 34.308796,5.52602906 35.43346,0.0171509282 L24.3960842,0.0171509282 Z" id="Path"/>
                            </g>
                            <path d="M27.1186441,92.209576 C27.1186441,95.348838 23.5120816,95.7627119 19.0677966,95.7627119 C14.6235116,95.7627119 11.0169492,95.3505195 11.0169492,92.209576 C11.0169492,89.0686325 14.6235116,84.7457627 19.0677966,84.7457627 C23.5120816,84.7457627 27.1186441,89.0688427 27.1186441,92.209576 Z" id="Path" stroke="#36E9D9" stroke-width="0.5" fill="url(#linearGradient-4)"/>
                            <path d="M27.1186441,92.3728814 C27.1186441,95.36786 23.5120816,95.7627119 19.0677966,95.7627119 C14.6235116,95.7627119 11.0169492,95.3694643 11.0169492,92.3728814" id="Path" stroke="#36E9D9" stroke-width="0.5" fill="url(#linearGradient-4)"/>
                            <path d="M50.8474576,92.209576 C50.8474576,95.348838 47.2408951,95.7627119 42.7966102,95.7627119 C38.3523252,95.7627119 34.7457627,95.3505195 34.7457627,92.209576 C34.7457627,89.0686325 38.3523252,84.7457627 42.7966102,84.7457627 C47.2408951,84.7457627 50.8474576,89.0688427 50.8474576,92.209576 Z" id="Path" stroke="#36E9D9" stroke-width="0.5" fill="url(#linearGradient-4)"/>
                            <path d="M50.8474576,92.3728814 C50.8474576,95.36786 47.2408951,95.7627119 42.7966102,95.7627119 C38.3523252,95.7627119 34.7457627,95.3694643 34.7457627,92.3728814" id="Path" stroke="#36E9D9" stroke-width="0.5" fill="url(#linearGradient-4)"/>
                            <g id="Group" transform="translate(0.000000, 33.050847)" fill="url(#linearGradient-3)" stroke="#36E9D9" stroke-width="0.4">
                                <path d="M28.693818,1.35727778 C30.7478393,3.61940743 29.44418,8.03617544 25.7812746,11.228626 C22.1183691,14.416464 2.42479796,28.2796287 0.367294309,26.0221115 C-1.68365417,23.7567732 14.6846026,6.22566956 18.3475081,3.03803209 C22.007136,-0.149605382 26.6397968,-0.903247509 28.693818,1.35727778 Z M33.1957852,1.35727778 C35.2498064,-0.903247509 39.8824672,-0.149605382 43.5420951,3.03803209 C47.2050006,6.22566956 63.5732574,23.7567732 61.5223089,26.0221115 C59.4648053,28.2796287 39.7712341,14.416464 36.1083287,11.228626 C32.4454232,8.03617544 31.1417639,3.61940743 33.1957852,1.35727778 Z" id="Combined-Shape"/>
                            </g>
                            <path d="M13.559322,40.7385326 C18.3623921,42.9454697 24.3799228,44.0677966 30.934843,44.0677966 C37.4862438,44.0677966 43.5037745,42.9454697 48.3050847,40.7385326 C44.2991902,34.5294144 38.0163742,30.5084746 30.9313235,30.5084746 C23.8480326,30.5084746 17.5634568,34.527818 13.559322,40.7385326 Z" id="Path" stroke="#36E9D9" stroke-width="0.4" fill="url(#radialGradient-5)"/>
                            <path d="M30.5067264,30.5084746 C24.5560332,30.5084746 19.1805016,33.4319781 15.2542373,38.1436421 C19.6523002,39.8230671 24.8798894,40.6779661 30.5102228,40.6779661 C36.1390265,40.6779661 41.3666157,39.8230671 45.7627119,38.1436421 C41.836229,33.433598 36.4606974,30.5084746 30.5067264,30.5084746 Z" id="Path" fill="#3157A1"/>
                            <g id="Combined-Shape" transform="translate(8.474576, 0.000000)">
                                <mask id="mask-8" fill="white">
                                    <use xlink:href="#path-7"/>
                                </mask>
                                <use id="Mask" stroke="#36E9D9" stroke-width="0.4" fill="url(#linearGradient-6)" xlink:href="#path-7"/>
                                <path d="M30.4041721,7.92192436 C30.4041721,9.93778568 28.4582477,11.5768765 26.0607189,11.5768765 L19.5455392,11.5768765 C17.1480104,11.5768765 15.202086,9.93940969 15.202086,7.92192436 L15.202086,0.736372867 C17.6539287,0.266801763 20.194824,0 22.8074025,0 C25.4155697,0 27.9545351,0.266801763 30.4041721,0.736372867 L30.4041721,7.92192436 Z" stroke="#36E9D9" stroke-width="0.4" fill="url(#radialGradient-9)" mask="url(#mask-8)"/>
                            </g>
                            <g id="Group" transform="translate(0.000000, 51.694915)" fill="url(#linearGradient-4)" stroke="#36E9D9" stroke-width="0.5">
                                <path d="M4.50299136,0.153782555 C1.5613593,4.02377015 -0.429773263,7.31107896 0.368933101,8.21785862 C1.15145639,9.10355519 4.4947974,7.57792476 8.53196206,5.1715585 L9.00475362,4.69450186 L4.50299136,0.153782555 Z" id="Path"/>
                                <path d="M52.7346953,4.79723026 C57.0494304,7.41690781 60.6992255,9.1508888 61.5206701,8.2195122 C62.3210153,7.30942538 60.3169772,4.00744109 57.3640785,0.126085159 L52.7346953,4.79723026 Z" id="Path"/>
                            </g>
                            <g id="Group-33" transform="translate(22.881356, 50.847458)" stroke="#36E9D9" stroke-width="0.5">
                                <polygon id="Rectangle" transform="translate(5.211707, 5.485953) rotate(135.008103) translate(-5.211707, -5.485953) " points="1.60187418 1.8765602 8.86164426 1.83645091 8.82153993 9.09534593 1.56176985 9.13545522"/>
                                <polygon id="Rectangle" transform="translate(10.096069, 5.485953) rotate(135.008103) translate(-10.096069, -5.485953) " points="6.48623587 1.8765602 13.746006 1.83645091 13.7059016 9.09534593 6.44613155 9.13545522"/>
                            </g>
                        </g>
                        <g id="superheroe-copy" opacity="0.804827009" transform="translate(0.338983, 14.508475)">
                            <g id="Group" transform="translate(11.016949, 59.322034)" fill="url(#linearGradient-2)">
                                <path d="M38.8946209,7.37239183 C38.8946209,11.3760606 35.6493845,32.9648331 31.6445941,32.9648331 C27.6447279,32.9648331 24.4011329,11.3744184 24.4011329,7.37239183 C24.4011329,3.3703653 27.6463693,0.121733867 31.6445941,0.121733867 C35.6493845,0.121733867 38.8946209,3.3703653 38.8946209,7.37239183 Z" id="Path"/>
                                <path d="M14.6120785,7.37239183 C14.6120785,11.3760606 11.3668421,32.9648331 7.36205174,32.9648331 C3.36218555,32.9648331 0.118590544,11.3744184 0.118590544,7.37239183 C0.118590544,3.3703653 3.36382694,0.121733867 7.36205174,0.121733867 C11.3668421,0.121733867 14.6120785,3.3703653 14.6120785,7.37239183 Z" id="Path"/>
                            </g>
                            <path d="M50.8474576,56.9963856 C50.8474576,82.5828071 41.7439751,74.0618988 30.5084746,74.0618988 C19.2762399,74.0618988 10.1694915,82.5828071 10.1694915,56.9963856 C10.1694915,42.3669799 19.2795058,30.5084746 30.5084746,30.5084746 C41.7407092,30.5102974 50.8474576,42.3686002 50.8474576,56.9963856 Z" id="Path" stroke="#36E9D9" stroke-width="0.4" fill="url(#linearGradient-3)"/>
                            <g id="Group" transform="translate(12.711864, 78.813559)" fill="url(#linearGradient-3)">
                                <path d="M0.184921099,0.0171509282 C1.31122151,5.52582728 2.90964348,11.0552865 4.71917008,12.5986683 L6.68334307,12.5986683 C8.49757452,11.0554883 10.097633,5.52602906 11.2222969,0.0171509282 L0.184921099,0.0171509282 Z" id="Path"/>
                                <path d="M24.3960842,0.0171509282 C25.5223846,5.52582728 27.1208065,11.0552865 28.9303331,12.5986683 L30.8945061,12.5986683 C32.7087376,11.0554883 34.308796,5.52602906 35.43346,0.0171509282 L24.3960842,0.0171509282 Z" id="Path"/>
                            </g>
                            <path d="M27.1186441,92.209576 C27.1186441,95.348838 23.5120816,95.7627119 19.0677966,95.7627119 C14.6235116,95.7627119 11.0169492,95.3505195 11.0169492,92.209576 C11.0169492,89.0686325 14.6235116,84.7457627 19.0677966,84.7457627 C23.5120816,84.7457627 27.1186441,89.0688427 27.1186441,92.209576 Z" id="Path" stroke="#36E9D9" stroke-width="0.5" fill="url(#linearGradient-4)"/>
                            <path d="M27.1186441,92.3728814 C27.1186441,95.36786 23.5120816,95.7627119 19.0677966,95.7627119 C14.6235116,95.7627119 11.0169492,95.3694643 11.0169492,92.3728814" id="Path" stroke="#36E9D9" stroke-width="0.5" fill="url(#linearGradient-4)"/>
                            <path d="M50.8474576,92.209576 C50.8474576,95.348838 47.2408951,95.7627119 42.7966102,95.7627119 C38.3523252,95.7627119 34.7457627,95.3505195 34.7457627,92.209576 C34.7457627,89.0686325 38.3523252,84.7457627 42.7966102,84.7457627 C47.2408951,84.7457627 50.8474576,89.0688427 50.8474576,92.209576 Z" id="Path" stroke="#36E9D9" stroke-width="0.5" fill="url(#linearGradient-4)"/>
                            <path d="M50.8474576,92.3728814 C50.8474576,95.36786 47.2408951,95.7627119 42.7966102,95.7627119 C38.3523252,95.7627119 34.7457627,95.3694643 34.7457627,92.3728814" id="Path" stroke="#36E9D9" stroke-width="0.5" fill="url(#linearGradient-4)"/>
                            <g id="Group" transform="translate(0.000000, 33.050847)" fill="url(#linearGradient-3)" stroke="#36E9D9" stroke-width="0.4">
                                <path d="M28.693818,1.35727778 C30.7478393,3.61940743 29.44418,8.03617544 25.7812746,11.228626 C22.1183691,14.416464 2.42479796,28.2796287 0.367294309,26.0221115 C-1.68365417,23.7567732 14.6846026,6.22566956 18.3475081,3.03803209 C22.007136,-0.149605382 26.6397968,-0.903247509 28.693818,1.35727778 Z M33.1957852,1.35727778 C35.2498064,-0.903247509 39.8824672,-0.149605382 43.5420951,3.03803209 C47.2050006,6.22566956 63.5732574,23.7567732 61.5223089,26.0221115 C59.4648053,28.2796287 39.7712341,14.416464 36.1083287,11.228626 C32.4454232,8.03617544 31.1417639,3.61940743 33.1957852,1.35727778 Z" id="Combined-Shape"/>
                            </g>
                            <path d="M13.559322,40.7385326 C18.3623921,42.9454697 24.3799228,44.0677966 30.934843,44.0677966 C37.4862438,44.0677966 43.5037745,42.9454697 48.3050847,40.7385326 C44.2991902,34.5294144 38.0163742,30.5084746 30.9313235,30.5084746 C23.8480326,30.5084746 17.5634568,34.527818 13.559322,40.7385326 Z" id="Path" stroke="#36E9D9" stroke-width="0.4" fill="url(#radialGradient-5)"/>
                            <path d="M30.5067264,30.5084746 C24.5560332,30.5084746 19.1805016,33.4319781 15.2542373,38.1436421 C19.6523002,39.8230671 24.8798894,40.6779661 30.5102228,40.6779661 C36.1390265,40.6779661 41.3666157,39.8230671 45.7627119,38.1436421 C41.836229,33.433598 36.4606974,30.5084746 30.5067264,30.5084746 Z" id="Path" fill="#3157A1"/>
                            <g id="Combined-Shape" transform="translate(8.474576, 0.000000)">
                                <mask id="mask-11" fill="white">
                                    <use xlink:href="#path-10"/>
                                </mask>
                                <use id="Mask" stroke="#36E9D9" stroke-width="0.4" fill="url(#linearGradient-6)" xlink:href="#path-10"/>
                                <path d="M30.4041721,7.92192436 C30.4041721,9.93778568 28.4582477,11.5768765 26.0607189,11.5768765 L19.5455392,11.5768765 C17.1480104,11.5768765 15.202086,9.93940969 15.202086,7.92192436 L15.202086,0.736372867 C17.6539287,0.266801763 20.194824,0 22.8074025,0 C25.4155697,0 27.9545351,0.266801763 30.4041721,0.736372867 L30.4041721,7.92192436 Z" stroke="#36E9D9" stroke-width="0.4" fill="url(#radialGradient-9)" mask="url(#mask-11)"/>
                            </g>
                            <g id="Group" transform="translate(0.000000, 51.694915)" fill="url(#linearGradient-4)" stroke="#36E9D9" stroke-width="0.5">
                                <path d="M4.50299136,0.153782555 C1.5613593,4.02377015 -0.429773263,7.31107896 0.368933101,8.21785862 C1.15145639,9.10355519 4.4947974,7.57792476 8.53196206,5.1715585 L9.00475362,4.69450186 L4.50299136,0.153782555 Z" id="Path"/>
                                <path d="M52.7346953,4.79723026 C57.0494304,7.41690781 60.6992255,9.1508888 61.5206701,8.2195122 C62.3210153,7.30942538 60.3169772,4.00744109 57.3640785,0.126085159 L52.7346953,4.79723026 Z" id="Path"/>
                            </g>
                            <g id="Group-33" transform="translate(22.881356, 50.847458)" stroke="#36E9D9" stroke-width="0.5">
                                <polygon id="Rectangle" transform="translate(5.211707, 5.485953) rotate(135.008103) translate(-5.211707, -5.485953) " points="1.60187418 1.8765602 8.86164426 1.83645091 8.82153993 9.09534593 1.56176985 9.13545522"/>
                                <polygon id="Rectangle" transform="translate(10.096069, 5.485953) rotate(135.008103) translate(-10.096069, -5.485953) " points="6.48623587 1.8765602 13.746006 1.83645091 13.7059016 9.09534593 6.44613155 9.13545522"/>
                            </g>
                        </g>
                        <g id="superheroe" transform="translate(43.000000, 0.000000)">
                            <g id="Group" transform="translate(14.096325, 73.586172)" fill="url(#linearGradient-2)">
                                <path d="M47.7183252,9.04002349 C47.7183252,13.9493204 43.7368686,40.4214633 38.8235442,40.4214633 C33.9162611,40.4214633 29.9368183,13.9473066 29.9368183,9.04002349 C29.9368183,4.13274039 33.9182749,0.149270012 38.8235442,0.149270012 C43.7368686,0.149270012 47.7183252,4.13274039 47.7183252,9.04002349 Z" id="Path"/>
                                <path d="M17.9270012,9.04002349 C17.9270012,13.9493204 13.9455446,40.4214633 9.03222017,40.4214633 C4.12493707,40.4214633 0.14549421,13.9473066 0.14549421,9.04002349 C0.14549421,4.13274039 4.12695083,0.149270012 9.03222017,0.149270012 C13.9455446,0.149270012 17.9270012,4.13274039 17.9270012,9.04002349 Z" id="Path"/>
                            </g>
                            <path d="M62.8761537,71.055798 C62.8761537,102.855597 51.6496895,92.2654808 37.7940091,92.2654808 C23.9423561,92.2654808 12.7118644,102.855597 12.7118644,71.055798 C12.7118644,52.8738043 23.9463836,38.1355932 37.7940091,38.1355932 C51.645662,38.1378587 62.8761537,52.8758181 62.8761537,71.055798 Z" id="Path" stroke="#36E9D9" stroke-width="0.4" fill="url(#linearGradient-3)"/>
                            <g id="Group" transform="translate(16.110086, 97.751301)" fill="url(#linearGradient-3)">
                                <path d="M0.227554959,0.0213962074 C1.61352576,6.89360631 3.58046652,13.7917436 5.80718241,15.7171505 L8.22419869,15.7171505 C10.4567041,13.7919953 12.4256587,6.89385803 13.8096157,0.0213962074 L0.227554959,0.0213962074 Z" id="Path"/>
                                <path d="M30.020641,0.0213962074 C31.4066118,6.89360631 33.3735526,13.7917436 35.6002685,15.7171505 L38.0172848,15.7171505 C40.2497902,13.7919953 42.2187448,6.89385803 43.6027018,0.0213962074 L30.020641,0.0213962074 Z" id="Path"/>
                            </g>
                            <path d="M33.1336634,114.168233 C33.1336634,117.927672 28.6525424,118.423309 23.1305588,118.423309 C17.6085753,118.423309 13.1274543,117.929686 13.1274543,114.168233 C13.1274543,110.40678 17.6085753,105.229904 23.1305588,105.229904 C28.6525424,105.229904 33.1336634,110.407031 33.1336634,114.168233 Z" id="Path" stroke="#36E9D9" stroke-width="0.5" fill="url(#linearGradient-4)"/>
                            <path d="M33.1336634,114.168233 C33.1336634,117.927672 28.6525424,118.423309 23.1305588,118.423309 C17.6085753,118.423309 13.1274543,117.929686 13.1274543,114.168233" id="Path" stroke="#36E9D9" stroke-width="0.5" fill="url(#linearGradient-4)"/>
                            <path d="M62.9270012,114.168233 C62.9270012,117.927672 58.4458802,118.423309 52.9238966,118.423309 C47.4019131,118.423309 42.9207921,117.929686 42.9207921,114.168233 C42.9207921,110.40678 47.4019131,105.229904 52.9238966,105.229904 C58.4458802,105.229904 62.9270012,110.407031 62.9270012,114.168233 Z" id="Path" stroke="#36E9D9" stroke-width="0.5" fill="url(#linearGradient-4)"/>
                            <path d="M62.9270012,114.168233 C62.9270012,117.927672 58.4458802,118.423309 52.9238966,118.423309 C47.4019131,118.423309 42.9207921,117.929686 42.9207921,114.168233" id="Path" stroke="#36E9D9" stroke-width="0.5" fill="url(#linearGradient-4)"/>
                            <g id="Group" transform="translate(0.000000, 41.114281)" fill="url(#linearGradient-3)" stroke="#36E9D9" stroke-width="0.4">
                                <path d="M35.2591878,1.70364155 C37.7831851,4.54304413 36.1812385,10.0869273 31.6802316,14.0940594 C27.1792247,18.0954019 2.97961067,35.4963081 0.451334116,32.6626951 C-2.0688874,29.819265 18.0445545,7.81439839 22.5455613,3.8133076 C27.0425407,-0.187783185 32.7351905,-1.13374727 35.2591878,1.70364155 Z M40.7912401,1.70364155 C43.3152375,-1.13374727 49.0078872,-0.187783185 53.5048666,3.8133076 C58.0058735,7.81439839 78.1193153,29.819265 75.5990938,32.6626951 C73.0708173,35.4963081 48.8712032,18.0954019 44.3701963,14.0940594 C39.8691895,10.0869273 38.2672428,4.54304413 40.7912401,1.70364155 Z" id="Combined-Shape"/>
                            </g>
                            <path d="M16.7752681,50.8641551 C22.6451229,53.6479275 29.999176,55.0636013 38.0099753,55.0636013 C46.0164734,55.0636013 53.3705265,53.6479275 59.2382307,50.8641551 C54.3426078,43.0321363 46.6643484,37.9602282 38.0056741,37.9602282 C29.3491504,37.9602282 21.6687404,43.0301225 16.7752681,50.8641551 Z" id="Path" stroke="#36E9D9" stroke-width="0.4" fill="url(#radialGradient-12)"/>
                            <path d="M38.0056741,37.9602282 C30.6852245,37.9602282 24.0723297,41.5945628 19.2423007,47.4518376 C24.6527289,49.539604 31.0836273,50.6023662 38.0099753,50.6023662 C44.9344416,50.6023662 51.36534,49.539604 56.7733487,47.4518376 C51.9430509,41.5965766 45.3301561,37.9602282 38.0056741,37.9602282 Z" id="Path" fill="#3157A1"/>
                            <g id="Combined-Shape" transform="translate(10.169492, 0.000000)">
                                <mask id="mask-14" fill="white">
                                    <use xlink:href="#path-13"/>
                                </mask>
                                <use id="Mask" stroke="#36E9D9" stroke-width="0.4" fill="url(#linearGradient-6)" xlink:href="#path-13"/>
                                <path d="M37.2881356,9.85839476 C37.2881356,12.3670222 34.9016246,14.4067797 31.9612591,14.4067797 L23.9709443,14.4067797 C21.0305788,14.4067797 18.6440678,12.3690432 18.6440678,9.85839476 L18.6440678,0.916375123 C21.6510446,0.332019972 24.7672369,0 27.9713427,0 C31.1700384,0 34.2838638,0.332019972 37.2881356,0.916375123 L37.2881356,9.85839476 Z" stroke="#36E9D9" stroke-width="0.4" fill="url(#radialGradient-15)" mask="url(#mask-14)"/>
                            </g>
                            <g id="Group" transform="translate(0.000000, 63.769089)" fill="url(#linearGradient-4)" stroke="#36E9D9" stroke-width="0.5">
                                <path d="M5.53331096,0.187279745 C1.91861051,4.90023494 -0.528108743,8.90359121 0.453347877,10.0078872 C1.41491861,11.0865078 5.52324215,9.22856184 10.4841416,6.29803658 L11.0651116,5.71706662 L5.53331096,0.187279745 Z" id="Path"/>
                                <path d="M64.8008055,5.84217151 C70.1027857,9.03247189 74.5876825,11.1441517 75.59708,10.009901 C76.5805504,8.90157745 74.1179728,4.88034905 70.4894278,0.153549253 L64.8008055,5.84217151 Z" id="Path"/>
                            </g>
                            <g id="Group-33" transform="translate(27.966102, 62.711864)" stroke="#36E9D9" stroke-width="0.5">
                                <polygon id="Rectangle" transform="translate(6.485680, 6.751942) rotate(135.008103) translate(-6.485680, -6.751942) " points="1.99343945 2.2602573 10.9779203 2.2602573 10.9779203 11.2436272 1.99343945 11.2436272"/>
                                <polygon id="Rectangle" transform="translate(12.563997, 6.751942) rotate(135.008103) translate(-12.563997, -6.751942) " points="8.07175623 2.2602573 17.0562371 2.2602573 17.0562371 11.2436272 8.07175623 11.2436272"/>
                            </g>
                        </g>
                    </g>
                </g>
            </g>
        </g>
    </g>
</svg>