<svg xmlns="http://www.w3.org/2000/svg" width="117.435" height="116.934" viewBox="0 0 117.435 116.934">
    <defs>
        <style>
            .cls-1,.cls-3{fill:#97f2ff;stroke:#fff;stroke-linecap:round;stroke-linejoin:round}.cls-1{stroke-width:10px}.cls-2{fill:#ebebeb}.cls-3{stroke-width:2px}
        </style>
    </defs>
    <g id="Idea_ico" transform="translate(-1290.509 43.622)">
        <path id="Path_29679" d="M1456.92 35.158a34.149 34.149 0 1 0-52.575 28.756 10.879 10.879 0 0 1 5.145 9.11v7.667a5.691 5.691 0 0 0 5.692 5.692h15.177a5.692 5.692 0 0 0 5.691-5.692v-7.509a11.176 11.176 0 0 1 5.255-9.338 34.119 34.119 0 0 0 15.615-28.686z" class="cls-1" data-name="Path 29679" transform="translate(-74.845 -32.042)"/>
        <path id="Path_29680" d="M1492.621 372.38a5.692 5.692 0 0 0 5.692 5.691h7.589a5.692 5.692 0 0 0 5.692-5.691V361h-18.972z" class="cls-2" data-name="Path 29680" transform="translate(-154.182 -306.657)"/>
        <path id="Path_29681" d="M1556.995-9.335l5.965-4.474-6.83-9.106-5.965 4.474a3.794 3.794 0 0 1-5.312-.762 3.794 3.794 0 0 1-.72-2.81l1.053-7.378L1533.918-31l-1.053 7.378a3.794 3.794 0 0 1-4.292 3.221 3.792 3.792 0 0 1-2.5-1.48l-4.472-5.965-9.107 6.83 4.472 5.965a3.8 3.8 0 0 1-.762 5.312 3.793 3.793 0 0 1-2.81.72l-7.378-1.053-1.611 11.269 7.38 1.053a3.794 3.794 0 0 1 1.74 6.792l-5.963 4.474 6.83 9.106 5.963-4.472a3.794 3.794 0 0 1 6.033 3.572l-1.062 7.376 11.269 1.611 1.062-7.38a3.794 3.794 0 0 1 6.792-1.74l4.474 5.963 9.106-6.83-4.475-5.963a3.794 3.794 0 0 1 3.573-6.033l7.378 1.055 1.611-11.269-7.378-1.055a3.794 3.794 0 0 1-3.219-4.293 3.794 3.794 0 0 1 1.478-2.5zm-21.734 22.466a13.28 13.28 0 0 1-13.28-13.28 13.28 13.28 0 0 1 13.28-13.28 13.28 13.28 0 0 1 13.28 13.28 13.28 13.28 0 0 1-13.28 13.28z" class="cls-1" data-name="Path 29681" transform="translate(-163.171 -7.619)"/>
        <path id="Path_29682" d="M1335.609 173.753a34.226 34.226 0 0 1-4.675-3.62 9.471 9.471 0 1 1-9.152-11.855c.29 0 .569.061.846.085A34.119 34.119 0 0 1 1319.9 145h-2.415l-1.311 6.236a1.9 1.9 0 0 1-2.933 1.172l-5.241-3.617-5.692 5.692 3.6 5.242a1.9 1.9 0 0 1-1.172 2.933l-6.227 1.311v7.589l6.234 1.311a1.9 1.9 0 0 1 1.172 2.933l-3.612 5.242 5.692 5.692 5.242-3.6a1.9 1.9 0 0 1 2.935 1.172l1.309 6.227h7.589l1.309-6.236a1.9 1.9 0 0 1 2.935-1.172l5.242 3.614 5.955-5.955a11.047 11.047 0 0 0-4.91-7.027z" class="cls-3" data-name="Path 29682" transform="translate(-6.109 -141.881)"/>
        <path id="Path_29683" d="M1403.213-9.473l-7.38-1.053a1.9 1.9 0 0 1-1.611-2.146 1.9 1.9 0 0 1 .74-1.25l5.965-4.474a1.9 1.9 0 0 0 .379-2.656l-6.83-9.106a1.9 1.9 0 0 0-2.656-.379l-5.963 4.474a1.9 1.9 0 0 1-2.658-.364 1.9 1.9 0 0 1-.366-1.421l1.055-7.38a1.9 1.9 0 0 0-1.609-2.147l-11.262-1.609a1.9 1.9 0 0 0-2.148 1.608L1367.813-30a1.9 1.9 0 0 1-2.146 1.611 1.9 1.9 0 0 1-1.25-.74l-4.472-5.965a1.9 1.9 0 0 0-2.656-.379l-5.7 4.278a36.707 36.707 0 0 0-7.759 0 36.046 36.046 0 0 0-31.784 32.325c-.051.537-.07 1.07-.1 1.6h-.569a1.9 1.9 0 0 0-1.855 1.518l-1.311 6.234-5.251-3.622a1.9 1.9 0 0 0-2.419.22l-5.691 5.692a1.9 1.9 0 0 0-.22 2.417l3.6 5.242-6.23 1.314a1.9 1.9 0 0 0-1.491 1.857v7.589a1.9 1.9 0 0 0 1.506 1.857l6.236 1.311-3.6 5.242a1.9 1.9 0 0 0 .22 2.417l5.692 5.692a1.9 1.9 0 0 0 2.419.22l5.242-3.614 1.311 6.236a1.9 1.9 0 0 0 1.855 1.518h7.589a1.9 1.9 0 0 0 1.857-1.506l1.311-6.236 5.242 3.6a1.9 1.9 0 0 0 2.417-.22l2.946-2.956v5.407a7.564 7.564 0 0 0 3.794 6.534v10.545a7.589 7.589 0 0 0 7.589 7.589h7.589a7.589 7.589 0 0 0 7.589-7.589V56.7a7.565 7.565 0 0 0 3.794-6.534v-7.512a9.3 9.3 0 0 1 4.388-7.744 36.39 36.39 0 0 0 4.466-3.415l-2.531-2.827a32.3 32.3 0 0 1-4 3.056 13.068 13.068 0 0 0-6.12 10.93v7.509a3.794 3.794 0 0 1-3.794 3.794h-15.177a3.794 3.794 0 0 1-3.794-3.794V42.5a12.765 12.765 0 0 0-6.018-10.708 32.155 32.155 0 0 1 16.993-59.382 2.07 2.07 0 0 0-.074.207 1.9 1.9 0 0 0 .362 1.406l4.472 5.963a1.858 1.858 0 0 1 .114 2.106 1.885 1.885 0 0 1-1.9.913l-7.38-1.055a1.9 1.9 0 0 0-2.147 1.609l-1.611 11.267a1.9 1.9 0 0 0 1.609 2.147l7.38 1.055a1.9 1.9 0 0 1 1.611 2.146 1.9 1.9 0 0 1-.74 1.25l-5.963 4.472a1.9 1.9 0 0 0-.379 2.656l6.83 9.106a1.9 1.9 0 0 0 2.656.379l5.965-4.472a1.9 1.9 0 0 1 3.015 1.785l-1.053 7.38a1.9 1.9 0 0 0 1.608 2.148l11.269 1.611a2.1 2.1 0 0 0 .268.017 1.9 1.9 0 0 0 1.88-1.628l1.053-7.38a1.9 1.9 0 0 1 3.4-.871l4.474 5.963a1.9 1.9 0 0 0 2.656.379l9.106-6.83a1.9 1.9 0 0 0 .38-2.656l-4.472-5.963a1.865 1.865 0 0 1-.114-2.106 1.842 1.842 0 0 1 1.9-.911l7.38 1.053a1.9 1.9 0 0 0 2.147-1.608l1.609-11.269a1.9 1.9 0 0 0-1.608-2.147zm-87.968 29.281a35.917 35.917 0 0 0 7.042 10.142 7.577 7.577 0 1 1-7.115-10.142zm36.475 51.224h-7.589a3.794 3.794 0 0 1-3.794-3.794v-1.9h15.177v1.9a3.794 3.794 0 0 1-3.794 3.794zm3.794-13.28v3.794h-15.177v-3.794zM1332.3 39.84l-4.07 4.062-3.94-2.717a3.794 3.794 0 0 0-5.866 2.343l-.994 4.737h-4.51l-.994-4.73a3.795 3.795 0 0 0-5.866-2.343l-3.942 2.709-3.457-3.449 2.715-3.939a3.795 3.795 0 0 0-2.341-5.868l-4.73-1v-4.502l4.73-1a3.794 3.794 0 0 0 2.343-5.857l-2.717-3.95 3.457-3.449 3.944 2.717a3.794 3.794 0 0 0 5.864-2.345l.332-1.578a36.109 36.109 0 0 0 1.5 6.433 11.383 11.383 0 1 0 11.472 16.505 35.806 35.806 0 0 0 3.242 2.362 9.262 9.262 0 0 1 3.823 4.855zm67.42-38.314l-5.5-.785a5.692 5.692 0 0 0-5.358 9.05l3.333 4.445-6.071 4.553-3.335-4.443a5.692 5.692 0 0 0-10.188 2.609l-.768 5.509-7.511-1.074.786-5.5a5.692 5.692 0 0 0-9.05-5.36l-4.445 3.333-4.553-6.071 4.443-3.335a5.692 5.692 0 0 0 1.139-7.968 5.693 5.693 0 0 0-3.748-2.22l-5.5-.785 1.074-7.511 5.5.785a5.692 5.692 0 0 0 6.441-4.827 5.693 5.693 0 0 0-1.081-4.222l-3.345-4.449 6.071-4.553 3.335 4.445a5.691 5.691 0 0 0 7.968 1.139 5.693 5.693 0 0 0 2.22-3.748l.785-5.5 7.511 1.072-.785 5.5a5.691 5.691 0 0 0 4.83 6.439 5.691 5.691 0 0 0 4.22-1.081l4.445-3.333 4.553 6.071-4.445 3.335a5.691 5.691 0 0 0-1.139 7.968 5.691 5.691 0 0 0 3.748 2.22l5.5.785z" data-name="Path 29683" transform="translate(0 -1.514)"/>
        <path id="Path_29684" d="M1585.687 35.109a15.177 15.177 0 1 0 15.177 15.177 15.177 15.177 0 0 0-15.177-15.177zm0 26.561a11.383 11.383 0 1 1 11.383-11.383 11.383 11.383 0 0 1-11.383 11.383z" data-name="Path 29684" transform="translate(-213.599 -58.052)"/>
        <path id="Path_29685" d="M1524.621 313h3.794v5.692h-3.794z" data-name="Path 29685" transform="translate(-178.593 -270.04)"/>
        <path id="Path_29686" d="M1438.831 93.912a22.766 22.766 0 0 1-3.844-40.473l-2.028-3.21a26.561 26.561 0 0 0 4.494 47.213 12.112 12.112 0 0 1 7.779 11.307h3.794a15.874 15.874 0 0 0-10.195-14.837z" data-name="Path 29686" transform="translate(-99.204 -69.587)"/>
        <path id="Path_29687" d="M1684.621 257h13.28v3.794h-13.28z" data-name="Path 29687" transform="translate(-300.649 -227.32)"/>
        <path id="Path_29688" d="M1671.5 301.771l2.429-2.915 11.384 9.484-2.429 2.915z" data-name="Path 29688" transform="translate(-290.641 -259.252)"/>
        <path id="Path_29689" d="M1636.621 321h3.794v13.28h-3.794z" data-name="Path 29689" transform="translate(-264.032 -276.143)"/>
        <path id="Path_29690" d="M1298.682 85.031l15.177-3.794.92 3.679-15.179 3.794z" data-name="Path 29690" transform="translate(-6.235 -93.241)"/>
        <path id="Path_29691" d="M1311.97 5.583l2.2-3.086 13.28 9.486-2.2 3.086z" data-name="Path 29691" transform="translate(-16.372 -33.174)"/>
        <path id="Path_29692" d="M1380.516-40.05l3.676-.94 3.88 15.177-3.676.94z" data-name="Path 29692" transform="translate(-68.662)"/>
    </g>
</svg>