<svg xmlns="http://www.w3.org/2000/svg" width="55" height="36" viewBox="0 0 55 36">
  <metadata><?xpacket begin="﻿" id="W5M0MpCehiHzreSzNTczkc9d"?>
<x:xmpmeta xmlns:x="adobe:ns:meta/" x:xmptk="Adobe XMP Core 5.6-c142 79.160924, 2017/07/13-01:06:39        ">
   <rdf:RDF xmlns:rdf="http://www.w3.org/1999/02/22-rdf-syntax-ns#">
      <rdf:Description rdf:about=""/>
   </rdf:RDF>
</x:xmpmeta>
                                                                                                    
                                                                                                    
                                                                                                    
                                                                                                    
                                                                                                    
                                                                                                    
                                                                                                    
                                                                                                    
                                                                                                    
                                                                                                    
                                                                                                    
                                                                                                    
                                                                                                    
                                                                                                    
                                                                                                    
                                                                                                    
                                                                                                    
                                                                                                    
                                                                                                    
                                                                                                    
                           
<?xpacket end="w"?></metadata>
<defs>
    <style>
      .cls-1 {
        fill: #d82541;
        fill-rule: evenodd;
      }
    </style>
  </defs>
  <path class="cls-1" d="M1262.89,1843.74a0.927,0.927,0,0,0,1.2-.48l2.73-6.25a3.816,3.816,0,0,1,3.76-2.2h12.83a6.846,6.846,0,0,1,5.68,3.24l5.47,7.14a4.2,4.2,0,0,0,3.51,2.22h2.75c3.93,0,5.49,2.13,6.1,3.6h-1.52a0.9,0.9,0,1,0,0,1.8h1.97l0.76,4.55a0.609,0.609,0,0,1-.07.56,1.036,1.036,0,0,1-.82.28h-2.83a6.3,6.3,0,1,0,0,1.8h2.83a2.822,2.822,0,0,0,2.28-.98,2.314,2.314,0,0,0,.4-2.03l-0.87-5.26c-0.6-2.96-3.08-6.12-8.23-6.12h-2.75a2.428,2.428,0,0,1-1.91-1.3,0.419,0.419,0,0,0-.09-0.14l-5.48-7.15a8.718,8.718,0,0,0-7.18-4.01h-12.83a5.642,5.642,0,0,0-5.42,3.25l-2.75,6.29A0.9,0.9,0,0,0,1262.89,1843.74Zm35.18,19.86a4.5,4.5,0,1,1,4.58-4.5A4.544,4.544,0,0,1,1298.07,1863.6Zm11.01,3.6h-14.67a0.9,0.9,0,1,0,0,1.8h14.67A0.9,0.9,0,1,0,1309.08,1867.2Zm-51.33-7.2h0.47a0.9,0.9,0,1,0,0-1.8h-0.47a0.907,0.907,0,0,1-.92-0.9v-4.49h0.92a0.9,0.9,0,1,0,0-1.8h-0.92v-2.7a0.907,0.907,0,0,1,.92-0.9h17.58l1.68,8.27a0.919,0.919,0,0,0,.9.72,1.087,1.087,0,0,0,.18-0.01,0.9,0.9,0,0,0,.72-1.06l-1.61-7.92h15.37a0.9,0.9,0,1,0,0-1.8h-3.1l1.17-2.3a0.9,0.9,0,0,0-.41-1.21,0.927,0.927,0,0,0-1.23.41l-1.58,3.1H1277v-8.1a0.92,0.92,0,0,0-1.84,0v8.1h-17.41a2.725,2.725,0,0,0-2.75,2.7v8.99A2.725,2.725,0,0,0,1257.75,1860Zm32.07-.9a0.914,0.914,0,0,0-.92-0.9h-15.64a6.3,6.3,0,1,0,0,1.8h15.64A0.907,0.907,0,0,0,1289.82,1859.1Zm-22.9,4.5a4.5,4.5,0,1,1,4.58-4.5A4.552,4.552,0,0,1,1266.92,1863.6Zm31.15-7.2a2.7,2.7,0,1,0,2.75,2.7A2.732,2.732,0,0,0,1298.07,1856.4Zm0,3.6a0.9,0.9,0,1,1,.92-0.9A0.913,0.913,0,0,1,1298.07,1860Zm-17.41-10.79a0.9,0.9,0,1,0,0,1.8h0.92a0.9,0.9,0,1,0,0-1.8h-0.92Zm2.75,17.99h-9.16a0.9,0.9,0,1,0,0,1.8h9.16A0.9,0.9,0,1,0,1283.41,1867.2Zm-16.49-10.8a2.7,2.7,0,1,0,2.74,2.7A2.732,2.732,0,0,0,1266.92,1856.4Zm0,3.6a0.9,0.9,0,1,1,.91-0.9A0.907,0.907,0,0,1,1266.92,1860Zm1.83,7.2h-12.83a0.9,0.9,0,1,0,0,1.8h12.83A0.9,0.9,0,1,0,1268.75,1867.2Zm22,0h-1.84a0.9,0.9,0,1,0,0,1.8h1.84A0.9,0.9,0,1,0,1290.75,1867.2Z" transform="translate(-1255 -1833)"/>
</svg>