<svg width="68" height="64" xmlns="http://www.w3.org/2000/svg"><script xmlns="" type="text/javascript" charset="utf-8" id="zm-extension"/><g fill="none" fill-rule="evenodd"><path d="M4.96 62.103c-.805 0-1.62-.202-2.37-.628a4.871 4.871 0 0 1-2.3-2.956 4.94 4.94 0 0 1 .874-4.387l.293-.373.74.593-.293.373a3.65 3.65 0 0 0-.348.528 3.97 3.97 0 0 0-.357 3.009 3.928 3.928 0 0 0 1.852 2.381 3.895 3.895 0 0 0 5.33-1.514c1.056-1.903.384-4.322-1.497-5.391a3.84 3.84 0 0 0-2.504-.462l-.466.073-.144-.945.467-.071a4.754 4.754 0 0 1 3.109.573c2.336 1.326 3.17 4.327 1.859 6.691a4.852 4.852 0 0 1-4.245 2.506m28.258-29.629c-2.221 0-4.231-1.554-4.74-3.836-.588-2.643 1.06-5.278 3.674-5.873.257-.06.512-.096.767-.112l.472-.03.06.953-.471.03a3.781 3.781 0 0 0-.62.09c-2.107.48-3.435 2.602-2.96 4.733.474 2.129 2.571 3.469 4.678 2.992 2.106-.48 3.434-2.602 2.96-4.733a3.93 3.93 0 0 0-1.336-2.191l-.366-.302.6-.74.365.303a4.873 4.873 0 0 1 1.658 2.72c.588 2.645-1.06 5.28-3.673 5.875a4.772 4.772 0 0 1-1.068.12M62.505 11.31a4.761 4.761 0 0 1-2.435-.67 4.88 4.88 0 0 1-2.252-2.993 4.936 4.936 0 0 1 .5-3.727c1.348-2.342 4.327-3.138 6.644-1.773a4.874 4.874 0 0 1 2.252 2.993 4.93 4.93 0 0 1-.943 4.372l-.3.37-.73-.607.301-.37a3.997 3.997 0 0 0 .76-3.522 3.938 3.938 0 0 0-1.816-2.411 3.894 3.894 0 0 0-5.352 1.43 3.968 3.968 0 0 0-.403 3 3.935 3.935 0 0 0 1.815 2.413 3.847 3.847 0 0 0 2.496.502l.468-.064.127.946-.467.064c-.222.03-.446.047-.665.047m-8.5 21.328h11.278v-.956H54.005zM33.013 11.407h.945V0h-.945zm0 51.855h.945V51.856h-.945zM2.112 32.638h11.277v-.956H2.112z" fill="#3F3F3F"/><path d="M33.549 6.84C19.745 6.84 8.515 18.2 8.515 32.16s11.23 25.32 25.034 25.32c13.804 0 25.034-11.359 25.034-25.32S47.353 6.84 33.55 6.84m0 51.595c-14.324 0-25.979-11.787-25.979-26.274 0-14.488 11.655-26.276 25.979-26.276s25.979 11.788 25.979 26.276c0 14.487-11.655 26.274-25.979 26.274" fill="#3F3F3F"/><path fill="#3F3F3F" d="M50.51 32.549h9.54v-.955h-9.54zM33.048 14.888h.944v-9.65h-.944zm0 43.136h.944v-9.65h-.944zM7.343 32.549h9.54v-.955h-9.54z"/><path d="M33.574 11.09c-11.438 0-20.745 9.412-20.745 20.981 0 11.57 9.307 20.982 20.745 20.982s20.745-9.412 20.745-20.982c0-11.569-9.307-20.982-20.745-20.982m0 42.92c-11.96 0-21.69-9.842-21.69-21.938 0-12.096 9.73-21.937 21.69-21.937s21.689 9.841 21.689 21.937c0 12.096-9.73 21.938-21.69 21.938" fill="#3F3F3F"/><path d="M64.81 7.063c0 1.17-.936 2.117-2.093 2.117-1.155 0-2.093-.948-2.093-2.117 0-1.17.938-2.117 2.093-2.117 1.157 0 2.093.948 2.093 2.117M7.261 56.802a2.104 2.104 0 0 1-2.093 2.116c-1.155 0-2.091-.947-2.091-2.116 0-1.17.936-2.117 2.091-2.117 1.157 0 2.093.948 2.093 2.117M36.56 27.17c0 1.753-1.406 3.174-3.14 3.174-1.733 0-3.138-1.421-3.138-3.174 0-1.754 1.405-3.175 3.138-3.175 1.734 0 3.14 1.421 3.14 3.175" fill="#FEDD00"/><path d="M7.947 54.49l-.777-.543L21 33.776a.49.49 0 0 1 .154-.143l7.734-4.47.468.83-7.64 4.417L7.947 54.49zM37.81 27.234l-.267-.917 18.05-5.37 5.683-10.763.833.451-5.776 10.94a.47.47 0 0 1-.284.232l-18.24 5.427z" fill="#3F3F3F"/><path d="M24.003 33.52a2.104 2.104 0 0 1-2.093 2.116 2.105 2.105 0 0 1-2.093-2.116c0-1.17.938-2.117 2.093-2.117 1.156 0 2.093.947 2.093 2.117m37.668 16.932c0 1.17-.937 2.117-2.093 2.117-1.155 0-2.093-.948-2.093-2.117 0-1.17.938-2.116 2.093-2.116 1.156 0 2.093.947 2.093 2.116M13.54 3.888c0 1.17-.937 2.117-2.093 2.117-1.155 0-2.093-.948-2.093-2.117 0-1.17.938-2.117 2.093-2.117 1.156 0 2.092.948 2.092 2.117" fill="#3F3F3F"/><path fill="#3F3F3F" d="M60.337 51.613l-.43-.196-38.622-17.658.389-.871.431.196 38.622 17.659z"/><path fill="#3F3F3F" d="M21.624 34.13L10.844 3.599l.89-.321 10.78 30.53z"/></g></svg>