<svg width="148" height="148" viewBox="0 0 148 148" xmlns="http://www.w3.org/2000/svg"><script xmlns="" type="text/javascript" charset="utf-8" id="zm-extension"/><title>12754A9F-D9F6-4A64-A003-B9222C6623B1</title><g fill="none" fill-rule="evenodd"><path d="M1 74c0 40.317 32.684 73 73 73s73-32.683 73-73c0-40.316-32.684-73-73-73S1 33.683 1 74z" stroke="#2A2421" stroke-width="2"/><path d="M74.481 146.373c39.856 0 72.166-32.31 72.166-72.165 0-39.856-32.31-72.165-72.165-72.165v144.33z" fill="#FF1628"/><path d="M1 74c0 40.317 32.684 73 73 73s73-32.683 73-73c0-40.316-32.684-73-73-73S1 33.683 1 74z" stroke="#2A2421" stroke-width="2"/><path d="M74.775 106.18a1 1 0 0 1 1 1v19.833a1 1 0 1 1-2 0V107.18a1 1 0 0 1 1-1" fill="#000"/><path d="M90.327 106.482a.999.999 0 0 1 1.414 0l14.024 14.023a1 1 0 1 1-1.414 1.415l-14.024-14.024a.999.999 0 0 1 0-1.414" fill="#FFF"/><path d="M60.078 106.502a.999.999 0 0 1 0 1.414L46.054 121.94a.999.999 0 1 1-1.414-1.414l14.024-14.024a.999.999 0 0 1 1.414 0" fill="#2A2421"/><path d="M119.216 71.414a4.02 4.02 0 1 0 8.041 0 4.02 4.02 0 0 0-8.041 0z" stroke="#FFF"/><path d="M129.063 81.238a5.825 5.825 0 0 0-5.826-5.825 5.824 5.824 0 0 0-5.825 5.825" stroke="#FFF"/><path d="M58.868 83.48c0 8.741 7.087 15.828 15.828 15.828 8.742 0 15.83-7.087 15.83-15.828 0-8.742-7.088-15.829-15.83-15.829-8.74 0-15.828 7.087-15.828 15.829z" stroke="#000" stroke-width="2"/><path d="M68.365 80.793a6.331 6.331 0 1 0 12.664 0 6.331 6.331 0 0 0-12.664 0zM83.87 96.264a9.174 9.174 0 0 0-18.347 0" stroke="#000"/><path d="M85.632 40.886c0 8.742 7.087 15.83 15.828 15.83 8.742 0 15.829-7.088 15.829-15.83s-7.087-15.828-15.83-15.828c-8.74 0-15.827 7.086-15.827 15.828z" stroke="#FFF" stroke-width="2"/><path d="M95.129 38.2a6.332 6.332 0 1 0 12.663 0 6.332 6.332 0 0 0-12.663 0z" stroke="#FFF"/><path d="M110.634 53.67a9.173 9.173 0 0 0-9.174-9.173 9.173 9.173 0 0 0-9.173 9.173" stroke="#FFF"/><path d="M113.28 73.263c0 5.552 4.501 10.052 10.052 10.052 5.552 0 10.052-4.5 10.052-10.052s-4.5-10.053-10.052-10.053c-5.55 0-10.052 4.501-10.052 10.053z" stroke="#FFF" stroke-width="2"/><path d="M14.716 81.478c0 8.742 7.087 15.829 15.828 15.829 8.742 0 15.829-7.087 15.829-15.829 0-8.741-7.087-15.828-15.83-15.828-8.74 0-15.827 7.087-15.827 15.828z" stroke="#000" stroke-width="2"/><path d="M24.213 78.793a6.331 6.331 0 1 0 12.664 0 6.331 6.331 0 0 0-12.664 0zm15.505 15.47a9.174 9.174 0 0 0-18.348 0" stroke="#000"/><path d="M37.798 44.34c0 6.18 5.01 11.188 11.189 11.188 6.18 0 11.19-5.009 11.19-11.189 0-6.179-5.01-11.188-11.19-11.188s-11.19 5.01-11.19 11.188z" stroke="#000" stroke-width="2"/><path d="M44.512 42.44a4.476 4.476 0 1 0 8.952 0 4.476 4.476 0 0 0-8.952 0zm10.96 10.937a6.485 6.485 0 0 0-12.97 0M58.978 82.84L46.37 80.955" stroke="#000"/><path d="M91.378 62.627l-.302.398" stroke="#000" stroke-linecap="round"/><path d="M89.897 64.584l-4.125 5.455" stroke="#000" stroke-linecap="round" stroke-dasharray="1.954,1.954,1.954,1.954"/><path d="M85.183 70.819l-.302.398" stroke="#000" stroke-linecap="round"/><path d="M96.003 56.095l-3.737 5.082" stroke="#FFF" stroke-linecap="round"/><path d="M64.612 69.965l-1.15-1.636" stroke="#000" stroke-linecap="round"/><path d="M61.734 65.876l-6.044-8.59" stroke="#000" stroke-linecap="round" stroke-dasharray="3.001,3.001,3.001,3.001"/><path d="M54.827 56.06l-1.15-1.636" stroke="#000" stroke-linecap="round"/><path d="M108.943 55.036l7.53 10.553" stroke="#FFF" stroke-width="2"/><path d="M105.299 79.01l8.225-2.414" stroke="#FFF" stroke-linecap="round"/><path d="M90.904 83.236l.962-.273" stroke="#000" stroke-linecap="round"/><path d="M93.714 82.438l6.466-1.838" stroke="#000" stroke-linecap="round" stroke-dasharray="1.921,1.921,1.921,1.921"/><path d="M101.104 80.338l.962-.273" stroke="#000" stroke-linecap="round"/></g></svg>