<?xml version="1.0" encoding="UTF-8"?>
<svg width="69px" height="69px" viewBox="0 0 69 69" version="1.1" xmlns="http://www.w3.org/2000/svg" xmlns:xlink="http://www.w3.org/1999/xlink">
    <!-- Generator: Sketch 63.1 (92452) - https://sketch.com -->
    <title>icon_airplane</title>
    <desc>Created with Sketch.</desc>
    <defs>
        <rect id="path-1" x="0" y="0" width="264" height="325"></rect>
        <filter x="-4.9%" y="-3.4%" width="109.8%" height="108.0%" filterUnits="objectBoundingBox" id="filter-2">
            <feOffset dx="0" dy="2" in="SourceAlpha" result="shadowOffsetOuter1"></feOffset>
            <feGaussianBlur stdDeviation="4" in="shadowOffsetOuter1" result="shadowBlurOuter1"></feGaussianBlur>
            <feColorMatrix values="0 0 0 0 0   0 0 0 0 0   0 0 0 0 0  0 0 0 0.2 0" type="matrix" in="shadowBlurOuter1"></feColorMatrix>
        </filter>
    </defs>
    <g id="Page-1" stroke="none" stroke-width="1" fill="none" fill-rule="evenodd">
        <g id="01_homepage_mcparking" transform="translate(-1136.000000, -1042.000000)">
            <g id="Group-5" transform="translate(1038.000000, 1007.000000)">
                <g id="Rectangle">
                    <use fill="black" fill-opacity="1" filter="url(#filter-2)" xlink:href="#path-1"></use>
                    <use fill="#FFFFFF" fill-rule="evenodd" xlink:href="#path-1"></use>
                </g>
                <g id="icon_airplane" transform="translate(82.000000, 21.000000)" fill="#0153B8">
                    <path d="M47.4397637,49.4397637 C46.8534121,50.024358 46.8534121,50.9738847 47.4397637,51.5602363 C48.0261153,52.1465879 48.9750561,52.1465879 49.5602363,51.5602363 C50.1465879,50.9738847 50.1465879,50.024358 49.5602363,49.4397637 C48.9750561,48.8534121 48.0261153,48.8534121 47.4397637,49.4397637 Z" id="Path"></path>
                    <path d="M69.9368337,17.9423726 C67.624238,19.732768 66.9941044,20.6556035 58.7923651,28.7726594 L53.8755329,27.9719562 L56.1318008,25.7156684 C57.712136,24.1353193 57.7126624,21.5784388 56.1318008,19.9980897 C54.5519921,18.4182672 51.9935548,18.4177408 50.4137461,19.9980897 L44.0408156,26.3710763 L21.7529311,22.7423802 C20.3126257,22.5086443 18.8391553,22.9850653 17.8084104,24.0158192 C15.8264112,25.997836 16.0954155,29.2769813 18.3564214,30.9131321 L40.5669211,46.9977372 L36.4086708,51.1565506 C34.9836317,52.5816021 33.48384,54.5415087 31.9424605,56.9888913 L21.5844744,53.9429555 C20.0557291,53.4939089 18.4048527,53.9145281 17.2756659,55.0416191 C15.3531529,56.9641491 15.6437409,60.1569595 17.8768459,61.7036168 L26.3681204,67.5817572 C24.8899122,70.8440567 23.9913006,73.2029987 23.9497128,73.3119702 C23.7612518,73.8078691 23.8818037,74.3685193 24.25662,74.743339 C24.633542,75.1202643 25.1947136,75.2376587 25.6879762,75.0502488 C25.7969466,75.0091871 28.155868,74.1100412 31.4181387,72.63182 L37.2967539,81.1236955 C38.8460298,83.3605053 42.0388122,83.6437258 43.9592194,81.7233017 C45.0857741,80.5951577 45.5063895,78.9442668 45.0568206,77.4155081 L42.0114379,67.0579573 C44.4603783,65.5155113 46.4192148,64.0157064 47.8437273,62.5917077 L52.0025041,58.4328945 L68.0864413,80.6435895 C69.7252099,82.9083001 73.0043263,83.1715162 74.98422,81.1916052 C76.0144384,80.1613777 76.4908552,78.6868416 76.2576478,77.2459969 L72.6289836,54.9594958 L79.0013876,48.5870356 C80.5817228,47.0066866 80.5817228,44.4482268 79.0013876,42.8684043 C77.4215789,41.2880551 74.8647209,41.2880551 73.2843857,42.8684043 L71.0275913,45.124692 L70.2274216,40.2078166 C78.352829,31.9975822 79.2609163,31.3821831 81.0523489,29.069567 C81.0544546,29.0669349 81.0570868,29.0637763 81.0591924,29.0606177 C85.2158634,23.6736384 86.1887013,18.2329631 83.4781265,15.5213115 C80.7670253,12.8117658 75.3258714,13.7835593 69.9368337,17.9423726 Z M52.3194134,21.9043003 C52.8458408,21.3773419 53.6991796,21.3773419 54.2261336,21.9043003 C54.7530874,22.4312588 54.752561,23.2824994 54.2261336,23.8094578 L50.5969428,27.4381541 L47.3188792,26.904352 L52.3194134,21.9043003 Z M19.9367566,28.7294919 C19.0144557,28.0625025 18.9086437,26.7269444 19.7146041,25.9215034 C20.1341668,25.5014106 20.7353469,25.3071572 21.3207342,25.4024413 L56.4439723,31.1210728 L42.4973305,45.0673109 L19.9367566,28.7294919 Z M19.1813332,56.948356 C19.6119507,56.5182611 20.241558,56.3571728 20.8243131,56.5287897 L30.5121572,59.37784 C29.5214207,61.1129601 28.521735,63.0296992 27.5246815,65.1043679 L19.4113819,59.4878643 C18.5601488,58.8982604 18.4485462,57.6806231 19.1813332,56.948356 Z M42.0524992,79.8186704 C41.3260293,80.5451467 40.1068234,80.4472304 39.5124869,79.589146 L33.8960327,71.4752488 C35.9722625,70.4771336 37.8895111,69.4769127 39.6225102,68.4882732 L42.471009,78.175676 C42.6426243,78.7589627 42.482064,79.3885755 42.0524992,79.8186704 Z M75.1905795,44.7740882 C75.717007,44.2476561 76.5687665,44.2471297 77.0957203,44.7740882 C77.6226741,45.3010468 77.6221477,46.1538667 77.0957203,46.6808252 L72.0951863,51.6808768 L71.5619152,48.4027845 L75.1905795,44.7740882 Z M73.5970837,77.6781976 C73.692367,78.2651694 73.4981153,78.8663549 73.0785526,79.2859212 C72.2768037,80.0876772 70.9402044,79.9897608 70.2700623,79.0632404 L53.932387,56.5029945 L67.8790289,42.5562299 L73.5970837,77.6781976 Z M45.9380602,60.6854973 C44.455114,62.1689827 42.2846537,63.7703891 39.4872184,65.4460224 C35.8506577,67.6238718 31.5471134,69.6864325 27.6652376,71.3352178 C29.3587546,67.3480214 31.4602529,62.9749503 33.6849352,59.2967694 C35.3121224,56.6045959 36.8698212,54.5067641 38.3148644,53.0622345 C71.2344774,20.2212969 69.2840636,21.9153554 71.2818558,20.317634 C73.4981153,20.1760238 75.4490553,20.834064 76.8072381,22.1922586 C78.1654208,23.5504534 78.8239816,25.501937 78.6823726,27.7176895 C77.0809803,29.7202371 78.7550196,27.7887578 45.9380602,60.6854973 Z M80.9886512,24.1763811 C80.5580335,22.6907898 79.7931345,21.3662867 78.7134318,20.2865746 C77.6337292,19.2073889 76.3092378,18.4419567 74.824186,18.0113352 C76.7745996,17.0221693 80.0589804,15.9145563 81.5724592,17.4269957 C82.7674495,18.6225228 82.4705444,21.2541567 80.9886512,24.1763811 L80.9886512,24.1763811 Z" id="Shape" fill-rule="nonzero"></path>
                    <path d="M56.8786407,40.3640887 L53.3640777,43.878273 C52.8786408,44.3637246 52.8786408,45.1506417 53.3640777,45.6360933 C53.8495145,46.121545 54.6359224,46.1210594 55.1218447,45.6360933 L58.6359223,42.1214237 C59.1213592,41.6364575 59.1213592,40.8495403 58.6359223,40.3640887 C58.1504855,39.8786371 57.3640776,39.8786371 56.8786407,40.3640887 L56.8786407,40.3640887 Z" id="Path"></path>
                    <path d="M63.8790269,33.3640114 L60.3636474,36.8789054 C59.8787842,37.364254 59.8787842,38.151004 60.3636474,38.6363526 C60.8494813,39.1212158 61.635746,39.1212158 62.1210946,38.6363526 L65.6359886,35.1214584 C66.1213371,34.6361099 66.1213371,33.8493599 65.6359886,33.3640114 C65.1506401,32.8786629 64.3643754,32.8786629 63.8790269,33.3640114 L63.8790269,33.3640114 Z" id="Path"></path>
                </g>
            </g>
        </g>
    </g>
</svg>