<svg width="80" height="56" xmlns="http://www.w3.org/2000/svg"><script xmlns="" type="text/javascript" charset="utf-8" id="zm-extension"/><g fill="none" fill-rule="evenodd"><path d="M25.241 37.442a6.257 6.257 0 0 0-4.686 5.771c-.174 3.463 2.462 6.411 5.886 6.585 3.242.166 6.025-2.215 6.46-5.408a22.521 22.521 0 0 1-7.66-6.948M18.68 14.636c-2.835 0-5.132-2.323-5.132-5.188 0-2.866 2.297-5.188 5.132-5.188 2.834 0 5.13 2.322 5.13 5.188 0 2.865-2.296 5.188-5.13 5.188" fill="#FEDD00"/><path d="M16.095 13.538c-3.377 0-6.124-2.777-6.124-6.191 0-.328.026-.66.078-.986l.07-.438.867.14-.07.439a5.46 5.46 0 0 0-.066.845c0 2.924 2.353 5.302 5.245 5.302 2.891 0 5.244-2.378 5.244-5.302 0-2.924-2.353-5.302-5.244-5.302a5.156 5.156 0 0 0-3.225 1.12l-.346.275-.542-.7.346-.274a6.016 6.016 0 0 1 3.767-1.31c3.376 0 6.124 2.777 6.124 6.191 0 3.414-2.748 6.191-6.124 6.191z" fill="#3F3F3F"/><path d="M46.43 31.095c-3.22 0-5.83-2.64-5.83-5.896 0-3.257 2.61-5.897 5.83-5.897 3.221 0 5.832 2.64 5.832 5.897 0 3.256-2.61 5.896-5.832 5.896" fill="#FEDD00"/><path d="M49.904 29.96c-3.223 0-5.845-2.65-5.845-5.91 0-1.757.765-3.41 2.1-4.538l.337-.284.564.681-.338.286a5.032 5.032 0 0 0-1.783 3.856c0 2.769 2.226 5.021 4.965 5.021 2.738 0 4.967-2.252 4.967-5.021 0-2.77-2.229-5.023-4.967-5.023h-.44v-.888h.44c3.224 0 5.846 2.652 5.846 5.91 0 3.26-2.622 5.91-5.846 5.91M21.76 49.518c-1.11 0-2.196-.32-3.152-.942a5.873 5.873 0 0 1-2.548-3.717 5.945 5.945 0 0 1 1.101-4.886l.27-.35.694.545-.27.352a5.051 5.051 0 0 0-.936 4.15 4.994 4.994 0 0 0 2.166 3.16 4.889 4.889 0 0 0 3.74.684c2.676-.587 4.381-3.266 3.8-5.973-.58-2.706-3.229-4.428-5.906-3.843l-.429.095-.186-.87.43-.093c3.15-.69 6.269 1.338 6.952 4.524.682 3.184-1.325 6.338-4.474 7.028-.417.09-.835.136-1.251.136M79.12 7.793L59.44 7.7l.005-.889 19.678.093zM0 7.792h10.84v-.89H0z" fill="#3F3F3F"/><path fill="#3F3F3F" d="M55.38 24.799h6.975v-.89H55.38zm12.73-.001h7.27v-.89h-7.27zm-41.43.001h11.287v-.89H26.68zm-26.233 0h18.722v-.89H.447zM69.315 44.28h7.77v-.888h-7.77zm-53.053.076L.445 44.279l.004-.888 15.816.076z"/><path d="M43.625 1.537c-12.084 0-21.915 9.94-21.915 22.16 0 12.218 9.831 22.158 21.915 22.158s21.915-9.94 21.915-22.159c0-12.218-9.831-22.159-21.915-22.159m0 45.207c-12.57 0-22.794-10.34-22.794-23.048C20.83 10.988 31.056.648 43.625.648c12.568 0 22.794 10.34 22.794 23.048 0 12.709-10.226 23.048-22.794 23.048" fill="#3F3F3F"/><path d="M43.625 5.647c-9.842 0-17.85 8.097-17.85 18.05 0 9.951 8.008 18.047 17.85 18.047 9.843 0 17.851-8.096 17.851-18.048 0-9.952-8.008-18.05-17.851-18.05m0 36.987c-10.327 0-18.73-8.495-18.73-18.937 0-10.442 8.403-18.938 18.73-18.938 10.328 0 18.73 8.496 18.73 18.938 0 10.442-8.402 18.937-18.73 18.937m15.329-1.965l13.573 13.724 1.899-1.92L60.852 38.75l-1.898 1.92zm13.573 14.797a.435.435 0 0 1-.31-.13L58.022 40.983a.45.45 0 0 1 0-.63l2.52-2.547a.436.436 0 0 1 .622 0L75.358 52.16a.448.448 0 0 1 0 .628l-2.52 2.548a.435.435 0 0 1-.311.13z" fill="#3F3F3F"/></g></svg>