<?xml version="1.0" encoding="UTF-8"?>
<!-- Generator: Adobe Illustrator 21.0.0, SVG Export Plug-In . SVG Version: 6.00 Build 0)  -->
<svg version="1.1" xmlns="http://www.w3.org/2000/svg" xmlns:xlink="http://www.w3.org/1999/xlink" x="0px" y="0px" viewBox="0 0 160 160" style="enable-background:new 0 0 160 160;" xml:space="preserve">
<style type="text/css">
	.st0{fill:#0784FF;}
	.st1{fill:#90C661;}
	.st2{fill:#689F38;}
	.st3{fill:#B8C2FF;}
	.st4{fill:#7388FF;}
	.st5{fill:#DFE5FF;}
	.st6{fill:#CCD4FF;}
	.st7{fill:#EFF2FF;}
	.st8{fill:#A4B1FF;}
	.st9{fill:#002755;}
	.st10{fill:#B4D813;}
	.st11{fill:#333333;}
	.st12{fill:#1E1E1D;}
	.st13{fill:#DAEFF6;}
	.st14{fill:#DD2E2B;}
	.st15{fill:#EF5122;}
	.st16{fill:#FFDB6F;}
	.st17{fill:#62BEFF;}
	.st18{fill:#E64028;}
	.st19{fill:#D43B25;}
	.st20{fill:#869F15;}
	.st21{fill:#E8E1D5;}
	.st22{fill:#D6CFC4;}
	.st23{fill:#716680;}
	.st24{fill:#9AD5ED;}
	.st25{fill:#CEE8F2;}
	.st26{fill:#98B70E;}
	.st27{fill:#90AB13;}
	.st28{fill:#FFCFB4;}
	.st29{fill:#604631;}
	.st30{fill:#FCDAC4;}
	.st31{fill:#2F2C29;}
	.st32{fill:#F4F4F4;}
	.st33{fill:#FFDC0F;}
	.st34{fill:#63635F;}
	.st35{fill:#71D182;}
	.st36{fill:#14DDF7;}
	.st37{fill:#008EE5;}
	.st38{fill:#FCD2BE;}
	.st39{fill:#FAB998;}
	.st40{fill:#F9CE55;}
	.st41{fill:#E2A11E;}
	.st42{fill:#6B4B3D;}
	.st43{fill:#5B3D2D;}
	.st44{fill:#D45B5B;}
	.st45{fill:#B3D5E4;}
	.st46{fill:#FFFFFF;}
	.st47{fill:#E4D9B3;}
	.st48{fill:#E2780E;}
	.st49{fill:#A85000;}
	.st50{fill:#CECECE;}
</style>
<g id="Слой_1">
</g>
<g id="Слой_2">
</g>
<g id="Слой_3">
	<g>
		<path class="st13" d="M112.9,45.8l-0.8,11.4l-7.4,4.1c-7.3,4-16.1,4.4-23.7,0.9c-7.6-3.4-16.4-3.1-23.7,0.9l-8.9,4.9l-1.5-22    l48.3-0.2l13.2-0.1L112.9,45.8z"/>
		<path class="st10" d="M112.2,57.2l-4.9,73.1l-55.7-16.5l-3.1-45.7l8.9-4.9c7.3-4,16.1-4.4,23.7-0.9c7.6,3.4,16.4,3.1,23.7-0.9    L112.2,57.2z"/>
		<path class="st10" d="M108.5,87.5h35.1c0,31.5-25.5,57-57,57c0,0-0.1,0-0.1,0H57.6L108.5,87.5z"/>
		<path class="st14" d="M106.3,87.9h29.4v-0.4c0,27.2-22,49.2-49.2,49.2L106.3,87.9z"/>
		<path d="M47.1,100.9h-4.4c0-8.2,2.8-16.3,7.8-22.8l0.3-0.3l3.5,2.7L54,80.8C49.5,86.5,47.1,93.6,47.1,100.9z"/>
		<path class="st10" d="M25.3,81.3c10.8,0,19.6,8.8,19.6,19.6C34,100.9,25.3,92.1,25.3,81.3L25.3,81.3z"/>
		<path class="st15" d="M42.7,142.7c-4.3,2.4-9.7,2.2-13.8-0.5c-5.1-3.4-8.8-8.6-10.4-14.6l-1.4-5.2c-2.4-9.2,0.6-18.9,7.7-25.2    l0.6-0.6c1.2-1.1,2.7-1.8,4.2-2.2h0.6c3.7,4.1,9,6.4,14.5,6.4v0c0.9,0,1.7-0.3,2.4-0.9l4.2-3.5c3.7-3.1,9.1-3,12.8,0.2l0.6,0.6    c5.7,5,8.8,12.4,8.5,19.9L42.7,142.7z"/>
		<path class="st16" d="M106.3,76.9c1.9,0.8,3.2,2.7,3.2,4.8v9.2c0,11.5-3.4,22.7-9.8,32.2c-9.7,14.1-26.1,22.2-43.2,21.3    c-8.2-0.4-16.3-2.8-23.4-6.9l-0.3-0.2v-8l9.7-0.7c27.6-2.1,50.2-22.6,55-49.8c0.4-2.2,2.5-3.8,4.7-3.4c0.3,0.1,0.6,0.1,0.9,0.3    L106.3,76.9z"/>
		<path class="st17" d="M82.2,70h-4.4V32.7c0-0.8,0.4-1.4,1-1.9L103,15.5l2.4,3.7L82.2,33.9V70z"/>
		<path d="M119.5,94.1h-4.4v4.4h4.4V94.1z"/>
		<path d="M112.9,116h-4.4v4.4h4.4V116z"/>
		<path d="M119.5,107.2h-4.4v4.4h4.4V107.2z"/>
	</g>
</g>
<g id="Слой_4">
</g>
<g id="Слой_5">
</g>
<g id="Слой_6">
</g>
<g id="Слой_7">
</g>
<g id="Слой_8">
</g>
</svg>