<svg width="148" height="148" viewBox="0 0 148 148" xmlns="http://www.w3.org/2000/svg"><script xmlns="" type="text/javascript" charset="utf-8" id="zm-extension"/><title>AD67CA63-CECA-4D55-A830-9F4ECA1BEFD3</title><g fill="none" fill-rule="evenodd"><path d="M74.482 146.373c39.855 0 72.165-32.31 72.165-72.165 0-39.856-32.31-72.165-72.165-72.165v144.33z" fill="#FF1628"/><path d="M74 2C34.299 2 2 34.299 2 74s32.299 72 72 72 72-32.299 72-72S113.701 2 74 2m0 146c-40.804 0-74-33.196-74-74S33.196 0 74 0s74 33.196 74 74-33.196 74-74 74" fill="#2A2421"/><path d="M73.257 75.564a1 1 0 0 1-1-1V46.053c0-3.957 3.22-7.177 7.177-7.177h4.632a1 1 0 0 1 0 2h-4.632a5.183 5.183 0 0 0-5.177 5.177v28.51a1 1 0 0 1-1 1" fill="#2A2421"/><path d="M72.555 108.13c-.623 0-1.19-.34-1.487-.925l-1.884-3.708H27.65V39.505h41.49c2.882 0 5.117 3.281 5.117 6.104a1 1 0 1 1-2 0c0-1.792-1.512-4.104-3.117-4.104H29.65v59.992h40.76l1.847 3.633V73.96c0-4.336 3.527-7.863 7.862-7.863h8.15v-6.09h11.238V55.43a1 1 0 1 1 2 0v6.575H90.27v6.091H80.119a5.87 5.87 0 0 0-5.862 5.863v32.482c0 .795-.52 1.454-1.293 1.64a1.751 1.751 0 0 1-.41.048" fill="#2A2421"/><path d="M37.057 109.33H22.16V61.094a1 1 0 1 1 2 0v46.238h12.896a1 1 0 1 1 0 2m26.591-.002H50.903a1 1 0 1 1 0-2h12.744a1 1 0 1 1 0 2M23.16 58.432a1 1 0 0 1-1-1V49.77a4.436 4.436 0 0 1 4.431-4.43h1.988a1 1 0 1 1 0 2h-1.988a2.434 2.434 0 0 0-2.43 2.43v7.663a1 1 0 0 1-1 1" fill="#2A2421"/><path d="M45.462 111.491l3.69 2.703v-9.81h-7.35v9.802l3.66-2.695zm-5.66 6.652v-15.759h11.35v15.752l-5.686-4.164-5.663 4.171z" fill="#2A2421"/><path fill="#000" d="M35.398 48.783h7.291V47.41h-7.291zm9.894 0h15.531V47.41H45.292zm-9.614 6.948h30.638v-1.373H35.678zm.001 6.777H57.39v-1.373H35.679zm-.001 13.639h25.145v-1.373H35.678zm.001-7.119H55.33v-1.373H35.679zm22.474 0h5.918v-1.373h-5.918z"/><path d="M102.451 96.036h5.377v-4.948h-5.392l.02 2.573a.93.93 0 0 1-.005.106v2.269zM72.886 115.32a7.012 7.012 0 0 1-7.005-7.005 1 1 0 1 1 2 0 5.01 5.01 0 0 0 5.005 5.005 5.01 5.01 0 0 0 5.003-5.005v-1h15.013v-12.94c0-.93.756-1.686 1.686-1.686h5.861l-.015-1.904a1.67 1.67 0 0 1 .49-1.2 1.676 1.676 0 0 1 1.197-.498h6.02c.93 0 1.687.756 1.687 1.686v5.576c0 .93-.757 1.686-1.687 1.686h-6.004c-.93 0-1.686-.756-1.686-1.686v-1.66h-5.549v12.94c0 .93-.757 1.686-1.686 1.686H79.818c-.486 3.39-3.41 6.005-6.932 6.005z" fill="#2A2421"/><path d="M118.178 113.505h-21.36a1 1 0 1 1 0-2h19.36v-2.946a1 1 0 1 1 2 0v4.946z" fill="#FFF"/><path d="M117.15 102.01a2.49 2.49 0 0 0-2.49 2.488 2.492 2.492 0 0 0 2.49 2.49 2.492 2.492 0 0 0 2.487-2.49 2.49 2.49 0 0 0-2.488-2.488m0 6.977a4.494 4.494 0 0 1-4.489-4.489 4.494 4.494 0 0 1 4.49-4.488 4.493 4.493 0 0 1 4.487 4.488 4.494 4.494 0 0 1-4.488 4.49m.143-40.318H94.119a1 1 0 1 1 0-2h23.173a1 1 0 1 1 0 2M83.683 56.231a1 1 0 0 1-1-1v-6.006a1 1 0 1 1 2 0v6.006a1 1 0 0 1-1 1" fill="#FFF"/><path d="M121.353 65.152a2.49 2.49 0 0 0-2.488 2.488 2.492 2.492 0 0 0 2.488 2.49 2.492 2.492 0 0 0 2.488-2.49 2.49 2.49 0 0 0-2.488-2.488m0 6.977a4.494 4.494 0 0 1-4.488-4.489 4.493 4.493 0 0 1 4.488-4.488 4.493 4.493 0 0 1 4.488 4.488 4.494 4.494 0 0 1-4.488 4.49m-7.575-31.197H89.232a1 1 0 1 1 0-2h24.546a1 1 0 1 1 0 2" fill="#FFF"/><path d="M117.839 37.416a2.49 2.49 0 0 0-2.488 2.488 2.492 2.492 0 0 0 2.488 2.489 2.492 2.492 0 0 0 2.488-2.489 2.49 2.49 0 0 0-2.488-2.488m0 6.977a4.494 4.494 0 0 1-4.488-4.489 4.493 4.493 0 0 1 4.488-4.488 4.493 4.493 0 0 1 4.488 4.488 4.494 4.494 0 0 1-4.488 4.489M105.712 79.55H90.256c-.93 0-1.686-.757-1.686-1.687v-6.048a1 1 0 0 1 2 0v5.734h15.142a1 1 0 1 1 0 2" fill="#FFF"/><path d="M109.772 76.032a2.492 2.492 0 0 0-2.489 2.49 2.49 2.49 0 0 0 2.489 2.487 2.49 2.49 0 0 0 2.488-2.488 2.492 2.492 0 0 0-2.489-2.489m0 6.977a4.493 4.493 0 0 1-4.487-4.488 4.494 4.494 0 0 1 4.487-4.489 4.494 4.494 0 0 1 4.49 4.49 4.494 4.494 0 0 1-4.49 4.487m-25.934 5.448a1 1 0 0 1-1-1v-4.633a1 1 0 1 1 2 0v4.633a1 1 0 0 1-1 1" fill="#FFF"/><path d="M83.865 89.028a2.492 2.492 0 0 0-2.488 2.49 2.49 2.49 0 0 0 2.488 2.487 2.49 2.49 0 0 0 2.488-2.488 2.492 2.492 0 0 0-2.488-2.489m0 6.977a4.493 4.493 0 0 1-4.488-4.488 4.494 4.494 0 0 1 4.488-4.489 4.494 4.494 0 0 1 4.488 4.49 4.493 4.493 0 0 1-4.488 4.487" fill="#FFF"/><path d="M97.532 47.681v6.35h5.894v-6.35h-5.894zm5.893 8.35h-5.893c-1.103 0-2-.897-2-2v-6.35c0-1.103.897-2 2-2h5.893c1.102 0 2 .897 2 2v6.35c0 1.103-.898 2-2 2z" fill="#2A2421"/></g></svg>