<svg xmlns="http://www.w3.org/2000/svg" width="74" height="156" viewBox="0 0 74 156">
  <defs>
    <style>
      .cls-1 {
        fill: #3fa35d;
        fill-rule: evenodd;
      }
    </style>
  </defs>
  <path id="decor-7.svg" class="cls-1" d="M139.164,273.494l-16.506,4.977q2.131,7.746,4.265,15.491a10.371,10.371,0,0,1,3.456.745l0.008,0c9.072,3.695,8.529,19.837-2.342,22.663-6.028,1.566-12.433.336-16.146-4.892-2.958-4.163-2.307-10.544,1.117-14.27l-4.41-16.541-6.591,1.571-9.162,2.224c-4.873,1.183-9.691,2.2-13.427-2.222-4.678-5.54-1.24-12.746,5.322-14.194,4.033-.891,8.019-2.133,12.009-3.194l1.933-.514c-7.3-16.671-14.007-33.651-19.843-50.88-5.408-15.964-7.95-35.986,1.369-51.228a2.532,2.532,0,0,1,3.425-.9A81.749,81.749,0,0,1,103.871,180.1c7.332,8.833,10.647,18.849,13.163,29.848a399.224,399.224,0,0,1,7.528,48.509l10.471-2.784c5.932-1.578,10.938,1.127,12.642,7.091C149.336,268.583,143.836,272.085,139.164,273.494Zm-23.8,34.52c1.029,4.529,5.755,5.182,9.592,4.863,7.461-.621,9.248-11.771,2.913-13.647a18.752,18.752,0,0,0-2.287-.258c-0.183.007-.364,0.01-0.556,0.029a1.816,1.816,0,0,1-.606-0.055c-3.4.036-6.964,1.042-8.537,3.964a2.882,2.882,0,0,1-.171.254A7.613,7.613,0,0,0,115.363,308.014Zm2.067-12.683a17.769,17.769,0,0,1,4.364-1.133l-4.05-14.706-4.265,1.016Zm-4.737-81.837c-2.151-10.126-4.827-19.555-10.959-28.048a71.463,71.463,0,0,0-18.461-17.415c-7.672,14.926-3.669,33.262,1.47,48.231,5.552,16.173,11.921,32.129,18.808,47.786l16.135-4.29A430.149,430.149,0,0,0,112.693,213.494Zm26.12,46.676c-2.563-.224-5.707,1.195-8.1,1.832l-19.783,5.261-18.822,5c-2.753.732-6.05,1.183-8.54,2.653-3.876,2.288.7,7.408,4.144,6.647,1.814-.4,3.615-0.878,5.421-1.316l16.59-4.028a2.536,2.536,0,0,1,.429-0.062l13.561-3.233h0l10.556-3.183,5.369-1.619A4.046,4.046,0,0,0,138.813,260.17ZM94.871,204.405c-0.537-5.08-3.217-9.625-3.343-14.754,0-.065.1-0.082,0.115-0.015,0.707,4.531,3.617,8.336,4.829,12.745,1.611,5.862,3.975,11.452,5.992,17.181,3.906,11.1,7.524,22.668,10.485,34.052,0.855,3.288-4.37,4.676-5.054,1.392-2.406-11.549-6.506-22.888-9.384-34.356C97.159,215.26,95.458,209.961,94.871,204.405Z" transform="translate(-74 -162)"/>
</svg>