<svg xmlns="http://www.w3.org/2000/svg" width="80" height="71" viewBox="0 0 80 71">
  <metadata><?xpacket begin="﻿" id="W5M0MpCehiHzreSzNTczkc9d"?>
<x:xmpmeta xmlns:x="adobe:ns:meta/" x:xmptk="Adobe XMP Core 5.6-c142 79.160924, 2017/07/13-01:06:39        ">
   <rdf:RDF xmlns:rdf="http://www.w3.org/1999/02/22-rdf-syntax-ns#">
      <rdf:Description rdf:about=""/>
   </rdf:RDF>
</x:xmpmeta>
                                                                                                    
                                                                                                    
                                                                                                    
                                                                                                    
                                                                                                    
                                                                                                    
                                                                                                    
                                                                                                    
                                                                                                    
                                                                                                    
                                                                                                    
                                                                                                    
                                                                                                    
                                                                                                    
                                                                                                    
                                                                                                    
                                                                                                    
                                                                                                    
                                                                                                    
                                                                                                    
                           
<?xpacket end="w"?></metadata>
<defs>
    <style>
      .cls-1 {
        fill: #fff;
        fill-rule: evenodd;
      }
    </style>
  </defs>
  <path class="cls-1" d="M850,5713.48a2.424,2.424,0,0,1,2.012-.79q12.956,0.03,25.909.02h1.042v-22.54c0-1.67.494-2.16,2.2-2.16H927.81c1.705,0,2.19.49,2.191,2.17q0,21.015-.017,42.05a2.808,2.808,0,0,1-.4,1.51,1.47,1.47,0,0,1-2.319.05c-0.817-.76-1.6-1.55-2.391-2.34-2.012-1.98-4.016-3.97-6.041-5.94a1.484,1.484,0,0,0-.839-0.44c-5.662-.02-11.323-0.01-17.111-0.01v0.9q0,10.815,0,21.61c0,1.69-.487,2.18-2.177,2.18q-18.2,0-36.4-.01a1.889,1.889,0,0,0-1.49.62c-2.639,2.64-5.3,5.25-7.965,7.86-1.069,1.06-1.8,1.05-2.852.02v-44.76Zm3.013,40.24c2.149-2.12,4.172-4.09,6.15-6.1a3,3,0,0,1,2.347-.97q17.683,0.03,35.366.01h0.812v-30.81H853.013v37.87Zm73.823-62.57H882.158v21.55c5.464,0,10.863.01,16.262,0a0.867,0.867,0,0,0,.507-0.13c0.978-.76,1.939-1.55,2.937-2.35a20.4,20.4,0,0,1-3.607-6.36,1.024,1.024,0,0,0-.68-0.42,1.619,1.619,0,0,1-1.38-1.55,1.552,1.552,0,0,1,1.485-1.51c0.518-.05,1.042-0.02,1.564-0.02,1.058-.01,2.115-0.01,3.2-0.01,0-.54-0.015-0.98,0-1.42a1.564,1.564,0,1,1,3.123-.01c0.022,0.46,0,.91,0,1.44H906.5c1.252,0,2.5-.03,3.756.01a1.569,1.569,0,0,1,1.567,1.35,1.353,1.353,0,0,1-.981,1.56c-1.056.08-1.173,0.8-1.435,1.5a6.941,6.941,0,0,1-.457,1.07c-0.859,1.48-1.74,2.95-2.638,4.46,0.259,0.22.571,0.49,0.892,0.75,0.827,0.67,1.681,1.31,2.48,2.01a1.475,1.475,0,0,1,.233,2.13,1.548,1.548,0,0,1-2.107.28,6.2,6.2,0,0,1-.564-0.41c-1.071-.85-2.139-1.71-3.247-2.6-0.3.25-.577,0.48-0.851,0.71-0.749.63-1.8,1.14-2.162,1.94-0.379.84-.1,1.97-0.1,2.97,0,1.28,0,2.55,0,3.88h0.792c5.53,0,11.06.01,16.589-.02a3.093,3.093,0,0,1,2.424.97c1.829,1.87,3.715,3.69,5.581,5.52,0.155,0.15.325,0.29,0.569,0.5v-37.79Zm-23.008,16.76c0.125,0,.251,0,0.376-0.01,0.816-1.43,1.631-2.87,2.515-4.42H901.3C902.193,5705.04,903.011,5706.48,903.828,5707.91Zm-26.308,26.28H873.2c-0.32,1.57-.632,3.15-0.967,4.72a1.569,1.569,0,1,1-3.062-.6c0.619-3.09,1.247-6.19,1.876-9.28,0.384-1.89.767-3.78,1.165-5.66a1.642,1.642,0,0,1,1.832-1.52c0.886-.03,1.773-0.03,2.659-0.01a1.614,1.614,0,0,1,1.779,1.4q1.56,7.59,3.085,15.17a1.563,1.563,0,1,1-3.059.63C878.157,5737.43,877.851,5735.82,877.52,5734.19Zm-3.689-3.15h3.061c-0.4-1.93-.78-3.81-1.186-5.69a1.336,1.336,0,0,0-.349-0.41,1.389,1.389,0,0,0-.338.42C874.612,5727.24,874.229,5729.12,873.831,5731.04Zm-17.725-2.98c0-1.41-.008-2.83,0-4.24a1.584,1.584,0,1,1,3.126,0q0.014,4.32,0,8.64a1.584,1.584,0,1,1-3.126,0C856.1,5731,856.106,5729.53,856.106,5728.06Zm3.123,10.9a1.556,1.556,0,1,1-1.521-1.55A1.6,1.6,0,0,1,859.229,5738.96Zm64.509-35.51c0,1.44.008,2.88,0,4.32a1.586,1.586,0,1,1-3.13,0c-0.007-2.88-.006-5.77,0-8.65a1.585,1.585,0,1,1,3.126.01C923.746,5700.57,923.738,5702.01,923.738,5703.45Zm-0.012,10.8a1.553,1.553,0,1,1-1.555-1.53A1.6,1.6,0,0,1,923.726,5714.25Z" transform="translate(-850 -5688)"/>
</svg>