<?xml version="1.0" encoding="UTF-8"?>
<!-- Generator: Adobe Illustrator 21.0.0, SVG Export Plug-In . SVG Version: 6.00 Build 0)  -->
<svg version="1.1" xmlns="http://www.w3.org/2000/svg" xmlns:xlink="http://www.w3.org/1999/xlink" x="0px" y="0px" viewBox="0 0 160 160" style="enable-background:new 0 0 160 160;" xml:space="preserve">
<style type="text/css">
	.st0{fill:#0784FF;}
	.st1{fill:#90C661;}
	.st2{fill:#689F38;}
	.st3{fill:#B8C2FF;}
	.st4{fill:#7388FF;}
	.st5{fill:#DFE5FF;}
	.st6{fill:#CCD4FF;}
	.st7{fill:#EFF2FF;}
	.st8{fill:#A4B1FF;}
	.st9{fill:#002755;}
	.st10{fill:#B4D813;}
	.st11{fill:#333333;}
	.st12{fill:#1E1E1D;}
	.st13{fill:#DAEFF6;}
	.st14{fill:#DD2E2B;}
	.st15{fill:#EF5122;}
	.st16{fill:#FFDB6F;}
	.st17{fill:#62BEFF;}
	.st18{fill:#E64028;}
	.st19{fill:#D43B25;}
	.st20{fill:#869F15;}
	.st21{fill:#E8E1D5;}
	.st22{fill:#D6CFC4;}
	.st23{fill:#716680;}
	.st24{fill:#9AD5ED;}
	.st25{fill:#CEE8F2;}
	.st26{fill:#98B70E;}
	.st27{fill:#90AB13;}
	.st28{fill:#FFCFB4;}
	.st29{fill:#604631;}
	.st30{fill:#FCDAC4;}
	.st31{fill:#2F2C29;}
	.st32{fill:#F4F4F4;}
	.st33{fill:#FFDC0F;}
	.st34{fill:#63635F;}
	.st35{fill:#71D182;}
	.st36{fill:#14DDF7;}
	.st37{fill:#008EE5;}
	.st38{fill:#FCD2BE;}
	.st39{fill:#FAB998;}
	.st40{fill:#F9CE55;}
	.st41{fill:#E2A11E;}
	.st42{fill:#6B4B3D;}
	.st43{fill:#5B3D2D;}
	.st44{fill:#D45B5B;}
	.st45{fill:#B3D5E4;}
	.st46{fill:#FFFFFF;}
	.st47{fill:#E4D9B3;}
	.st48{fill:#E2780E;}
	.st49{fill:#A85000;}
	.st50{fill:#CECECE;}
</style>
<g id="Слой_1">
</g>
<g id="Слой_2">
</g>
<g id="Слой_3">
</g>
<g id="Слой_4">
</g>
<g id="Слой_5">
</g>
<g id="Слой_6">
	<g>
		<path class="st38" d="M60.7,93.7v24.4c0,11.2-8.9,20.3-19.9,20.3c-2.9,0-5.7-0.7-8.2-1.8v0c-6.1-2.8-10.5-8.7-11.4-15.7    c-0.9-0.3-1.7-0.8-2.4-1.6c-2.5-2.6-2.5-6.7,0-9.2c2.5-2.6,6.6-2.6,9.1,0l1.7-9.8l1.1-6.6L60.7,93.7L60.7,93.7z"/>
		<path class="st39" d="M32.6,136.6c-6.1-2.8-10.5-8.7-11.4-15.7c-0.9-0.3-1.7-0.8-2.4-1.6c-2.5-2.6-2.5-6.7,0-9.2    c2.5-2.6,6.6-2.6,9.1,0l1.7-9.8l5.2,1.1C32.5,105.3,23.2,119.5,32.6,136.6z"/>
		<path class="st40" d="M70,83.8c0,9.7-7.7,17.6-17.2,17.6h-18v1.6c0,3.9-3.1,7-6.9,7c-1.8-1.9-4.5-2.4-6.8-1.5v-7.2    c0-9.7,7.7-17.6,17.2-17.6H70z"/>
		<path class="st41" d="M52.3,83.8H38.2c-9.5,0-17.2,7.9-17.2,17.6v7.2c2.3-0.9,5-0.4,6.8,1.5c3.8,0,6.9-3.2,6.9-7v-1.6H35    C35,91.7,42.8,83.8,52.3,83.8z"/>
		<path class="st2" d="M81.5,30.2h-49c-3.1,0-5.6,2.6-5.6,5.7v25.3c0,3.2,2.5,5.7,5.6,5.7h27.6v10.4L69.2,67h12.3    c3.1,0,5.6-2.6,5.6-5.7V36C87.2,32.8,84.6,30.2,81.5,30.2z"/>
		<path class="st10" d="M82.2,17.4h49c3.1,0,5.6,2.6,5.6,5.7v25.3c0,3.2-2.5,5.7-5.6,5.7h-27.6v10.4l-9.1-10.4H82.2    c-3.1,0-5.6-2.6-5.6-5.7V23.2C76.6,20,79.1,17.4,82.2,17.4z"/>
		<path class="st42" d="M134.7,142.6C134.7,142.6,134.6,142.6,134.7,142.6c-1.1-0.5-10.3-5-10.3-16.8l-30-30.3    c-1.4-5.3-1-14.7,12-15.7c0.8-0.1,1.7-0.1,2.6-0.1c15.4,0,30.6,1.3,33.8,24.5C144.8,119.6,139.2,134.7,134.7,142.6z"/>
		<path class="st43" d="M134.7,142.6C134.7,142.6,134.6,142.6,134.7,142.6C134.6,142.5,134.6,142.5,134.7,142.6    c5.1-45.3-15-62.9-28.4-62.9c0.8-0.1,1.7-0.1,2.6-0.1c15.4,0,30.6,1.3,33.8,24.5C144.8,119.6,139.2,134.7,134.7,142.6z"/>
		<path class="st38" d="M133,112.3c-0.7,0.7-1.4,1.1-2.2,1.4c-1,7.6-6.6,13.8-13.8,15.6c-1.4,0.3-2.8,0.5-4.3,0.5    c-10.1,0-18.3-8.4-18.3-18.7V95.4c0,0,8.1,0.3,11.3-3c4.7,6.2,10.7,7,14.7,6.8c0,0,0,0,0,0c2.6-0.2,4.3-0.8,4.3-0.8v5.4l0,0    c1.7-1.7,4.2-2.2,6.3-1.4c0.7,0.3,1.5,0.7,2.1,1.4C135.3,106.2,135.3,110,133,112.3z"/>
		<path class="st39" d="M133,112.3c-0.7,0.7-1.4,1.1-2.2,1.4c-1,7.6-6.6,13.8-13.8,15.6c9.5-5.3,3.5-29.8,3.4-30.2c0,0,0,0,0,0    c2.6-0.2,4.3-0.8,4.3-0.8v5.4l0,0c1.7-1.7,4.2-2.2,6.3-1.4c0.7,0.3,1.4,0.7,2.1,1.4C135.3,106.2,135.3,110,133,112.3z"/>
		<path d="M45.7,113.4v-3.4c0-1.1-0.9-2-2-2s-2,0.9-2,2v3.4c0,1.1,0.9,2,2,2S45.7,114.5,45.7,113.4z"/>
		<path d="M50.3,110.1v3.4c0,1.1,0.9,2,2,2s2-0.9,2-2v-3.4c0-1.1-0.9-2-2-2S50.3,109,50.3,110.1z"/>
		<path d="M38.2,122.9c-0.5-1-1.7-1.3-2.7-0.7c-0.9,0.5-1.3,1.8-0.7,2.7c2,3.5,5.3,5.5,9.7,5.7c0,0,0.1,0,0.1,0c1,0,1.9-0.8,2-1.9    c0.1-1.1-0.8-2-1.8-2.1C41.7,126.4,39.5,125.2,38.2,122.9z"/>
		<path d="M70,81.8H38.2c-10.6,0-19.2,8.8-19.2,19.6c0,1.1,0.9,2,2,2c1.1,0,2-0.9,2-2c0-8.6,6.9-15.6,15.3-15.6h29.7    c-1,7.7-7.4,13.6-15.2,13.6h-18c-1.1,0-2,0.9-2,2v1.6c0,2.5-1.9,4.7-4.3,5c-2.3-1.9-5.4-2.4-8.2-1.3c-1.1,0.4-2.1,1.1-2.9,1.9    c-1.6,1.6-2.4,3.8-2.4,6c0,2.3,0.9,4.4,2.4,6c0.6,0.6,1.3,1.1,2,1.5c1.9,10.4,11,18.1,21.4,18.1c12,0,21.8-10,21.8-22.3v-11.4    c0-1.1-0.9-2-2-2c-1.1,0-2,0.9-2,2v11.4c0,10.1-8,18.3-17.9,18.3c-8.9,0-16.5-6.8-17.7-15.8c-0.1-0.7-0.6-1.4-1.3-1.6    c-0.6-0.2-1.2-0.6-1.7-1.1c-0.8-0.9-1.3-2-1.3-3.2c0-1.2,0.5-2.4,1.3-3.2c0.5-0.5,1-0.8,1.5-1c1.6-0.6,3.5-0.2,4.7,1    c0.4,0.4,1,0.6,1.5,0.6c4.7-0.1,8.6-3.9,8.7-8.7h16.1c10.6,0,19.2-8.8,19.2-19.6C71.9,82.7,71,81.8,70,81.8z"/>
		<path d="M87.2,59.2c-1.1,0-2,0.9-2,2c0,2.1-1.6,3.7-3.7,3.7H69.2c-0.6,0-1.1,0.2-1.5,0.7l-5.7,6.5V67c0-1.1-0.9-2-2-2H32.6    c-2,0-3.7-1.7-3.7-3.7V36c0-2.1,1.6-3.7,3.7-3.7h37.4c1.1,0,2-0.9,2-2s-0.9-2-2-2H32.6c-4.2,0-7.6,3.5-7.6,7.7v25.3    c0,4.3,3.4,7.7,7.6,7.7h25.7v8.4c0,0.8,0.5,1.6,1.3,1.9c0.2,0.1,0.5,0.1,0.7,0.1c0.5,0,1.1-0.2,1.5-0.7l8.5-9.7h11.4    c4.2,0,7.6-3.5,7.6-7.7C89.1,60.1,88.2,59.2,87.2,59.2z"/>
		<path d="M82.2,56.2h11.4l8.5,9.7c0.4,0.4,0.9,0.7,1.5,0.7c0.2,0,0.5,0,0.7-0.1c0.8-0.3,1.3-1,1.3-1.9v-8.4h25.7    c4.2,0,7.6-3.5,7.6-7.7V23.2c0-4.3-3.4-7.7-7.6-7.7h-4.4c-1.1,0-2,0.9-2,2c0,1.1,0.9,2,2,2h4.4c2,0,3.7,1.7,3.7,3.7v25.3    c0,2.1-1.6,3.7-3.7,3.7h-27.6c-1.1,0-2,0.9-2,2v5.1L96,52.8c-0.4-0.4-0.9-0.7-1.5-0.7H82.2c-2,0-3.7-1.7-3.7-3.7V23.2    c0-2.1,1.6-3.7,3.7-3.7h38.3c1.1,0,2-0.9,2-2c0-1.1-0.9-2-2-2H82.2c-4.2,0-7.6,3.5-7.6,7.7v25.3C74.7,52.7,78.1,56.2,82.2,56.2z"/>
		<path d="M126.7,25.6h-22c-1.1,0-2,0.9-2,2c0,1.1,0.9,2,2,2h22c1.1,0,2-0.9,2-2C128.6,26.4,127.7,25.6,126.7,25.6z"/>
		<path d="M86.8,29.5h11.3c1.1,0,2-0.9,2-2s-0.9-2-2-2H86.8c-1.1,0-2,0.9-2,2S85.7,29.5,86.8,29.5z"/>
		<path d="M126.7,33.7h-6.8c-1.1,0-2,0.9-2,2c0,1.1,0.9,2,2,2h6.8c1.1,0,2-0.9,2-2C128.6,34.6,127.7,33.7,126.7,33.7z"/>
		<path d="M86.8,37.7h26.6c1.1,0,2-0.9,2-2c0-1.1-0.9-2-2-2H86.8c-1.1,0-2,0.9-2,2C84.8,36.8,85.7,37.7,86.8,37.7z"/>
		<path d="M86.8,45.9h27.7c1.1,0,2-0.9,2-2s-0.9-2-2-2H86.8c-1.1,0-2,0.9-2,2S85.7,45.9,86.8,45.9z"/>
		<path d="M36.5,41.5h11.3c1.1,0,2-0.9,2-2c0-1.1-0.9-2-2-2H36.5c-1.1,0-2,0.9-2,2C34.5,40.6,35.4,41.5,36.5,41.5z"/>
		<path d="M66.9,41.5c1.1,0,2-0.9,2-2c0-1.1-0.9-2-2-2H55.6c-1.1,0-2,0.9-2,2c0,1.1,0.9,2,2,2H66.9z"/>
		<path d="M36.5,45.7c-1.1,0-2,0.9-2,2c0,1.1,0.9,2,2,2h34.3c1.1,0,2-0.9,2-2c0-1.1-0.9-2-2-2H36.5z"/>
		<path d="M48.6,53.9c-1.1,0-2,0.9-2,2c0,1.1,0.9,2,2,2h15.6c1.1,0,2-0.9,2-2c0-1.1-0.9-2-2-2H48.6z"/>
		<path d="M36.5,53.9c-1.1,0-2,0.9-2,2c0,1.1,0.9,2,2,2h5.6c1.1,0,2-0.9,2-2c0-1.1-0.9-2-2-2H36.5z"/>
		<path d="M111.9,106.8v-3.1c0-1.1-0.9-2-2-2c-1.1,0-2,0.9-2,2v3.1c0,1.1,0.9,2,2,2C111.1,108.8,111.9,107.9,111.9,106.8z"/>
		<path d="M104.1,106.8v-3.1c0-1.1-0.9-2-2-2c-1.1,0-2,0.9-2,2v3.1c0,1.1,0.9,2,2,2C103.2,108.8,104.1,107.9,104.1,106.8z"/>
		<path d="M107.2,120.9c0.1,1.1,0.9,1.9,2,1.9c0,0,0.1,0,0.1,0c4.1-0.2,7.3-2.1,9.1-5.3c0.5-1,0.2-2.2-0.7-2.7    c-0.9-0.5-2.1-0.2-2.7,0.7c-1.2,2.1-3.1,3.2-5.9,3.3C108,118.9,107.1,119.8,107.2,120.9z"/>
		<path d="M144.6,103.8c-1.2-9-4.3-15.4-9.2-19.7c-0.8-0.7-2.1-0.6-2.8,0.2c-0.7,0.8-0.6,2.1,0.2,2.8c4.2,3.6,6.8,9.2,7.9,17.1    c1.8,13.3-2.2,26.8-6.8,35.6c-2-1.3-5.3-4-6.8-8.8c-0.3-1.1-1.4-1.6-2.5-1.3c-1,0.3-1.6,1.5-1.3,2.5c2.7,8.8,10.2,12,10.5,12.2    c0.2,0.1,0.5,0.2,0.7,0.2c0.7,0,1.3-0.4,1.7-1C141.7,134.3,146.7,119,144.6,103.8z"/>
		<path d="M132.6,115.2c0.7-0.4,1.3-0.8,1.9-1.4c1.5-1.5,2.3-3.5,2.3-5.7s-0.8-4.2-2.3-5.7c-0.8-0.8-1.7-1.4-2.7-1.8    c-1.6-0.6-3.4-0.7-5-0.2v-2c0-0.6-0.3-1.3-0.8-1.6c-0.5-0.4-1.2-0.5-1.8-0.2c-0.1,0-10.1,3.6-16.8-5.3c-0.3-0.5-0.9-0.7-1.4-0.8    c-0.6,0-1.1,0.2-1.5,0.6c-1.6,1.6-5.5,2.3-8.4,2.4c-0.7-4.2,0.8-6.8,1.5-7.8c2-2.7,5.9-4.1,11.4-4.1c6.4,0,13.1,0.2,18.6,2.4    c1,0.4,2.1-0.1,2.5-1.1c0.4-1-0.1-2.2-1.1-2.6c-6.2-2.5-13.3-2.7-20-2.7c-6.8,0-11.7,1.9-14.5,5.6c-3.5,4.7-2.5,10.4-1.9,12.7    c0.2,0.8,1,1.4,1.8,1.5c0.8,0,7,0.2,11.1-2.2c4.2,4.6,9,5.8,12.6,6c1.9,0.1,3.5-0.1,4.8-0.3v2.9c0,0.8,0.5,1.5,1.2,1.9    c0.7,0.3,1.6,0.1,2.1-0.4c1.1-1.1,2.8-1.5,4.2-0.9c0.5,0.2,1,0.5,1.4,0.9c0.7,0.8,1.2,1.8,1.2,2.9c0,1.1-0.4,2.1-1.2,2.9    c-0.4,0.4-0.9,0.8-1.5,1c-0.7,0.2-1.2,0.9-1.3,1.6c-1.1,8.2-8.1,14.4-16.2,14.4c-9,0-16.4-7.5-16.4-16.7v-9c0-1.1-0.9-2-2-2    c-1.1,0-2,0.9-2,2v9c0,11.4,9.1,20.7,20.3,20.7C122.4,131.9,130.7,124.8,132.6,115.2z"/>
	</g>
</g>
<g id="Слой_7">
</g>
<g id="Слой_8">
</g>
</svg>