<svg xmlns="http://www.w3.org/2000/svg" xmlns:xlink="http://www.w3.org/1999/xlink" viewBox="0 0 52 52"><defs><style>.cls-1{fill:url(#linear-gradient);}.cls-2{fill:url(#linear-gradient-2);}.cls-3{fill:url(#linear-gradient-3);}.cls-4{fill:url(#linear-gradient-4);}.cls-5{fill:url(#linear-gradient-5);}</style><linearGradient id="linear-gradient" x1="27.09" y1="48" x2="27.09" y2="56.93" gradientUnits="userSpaceOnUse"><stop offset="0" stop-color="#757be5"/><stop offset="1" stop-color="#ebecfa"/></linearGradient><linearGradient id="linear-gradient-2" x1="26" y1="40.52" x2="26" y2="52.62" xlink:href="#linear-gradient"/><linearGradient id="linear-gradient-3" x1="26" y1="-0.25" x2="26" y2="83.57" xlink:href="#linear-gradient"/><linearGradient id="linear-gradient-4" x1="46.32" y1="0.17" x2="30.07" y2="40.14" xlink:href="#linear-gradient"/><linearGradient id="linear-gradient-5" x1="37.24" y1="-0.96" x2="3.2" y2="48.67" xlink:href="#linear-gradient"/></defs><title>freedom</title><g id="Layer_2" data-name="Layer 2"><g id="Layer_1-2" data-name="Layer 1"><path class="cls-1" d="M49.23,47.94A11.6,11.6,0,0,1,40.41,52H7.64L5,47.92Z"/><path class="cls-2" d="M52,40.41a11.5,11.5,0,0,1-1.41,5.53l-46.95,0L0,40.41Z"/><path class="cls-3" d="M25,0h2A1.41,1.41,0,0,1,28.4,1.41v39a0,0,0,0,1,0,0H23.59a0,0,0,0,1,0,0v-39A1.41,1.41,0,0,1,25,0Z"/><path class="cls-4" d="M28.4,1.41V36.49H49S52,10.66,28.4,1.41Z"/><path class="cls-5" d="M23.59,1.41,8.55,34.8a1.18,1.18,0,0,0,1.06,1.69h14Z"/></g></g></svg>