<svg xmlns="http://www.w3.org/2000/svg" width="64" height="64" viewBox="0 0 64 64"><g><g><g><path d="M55.477 24.838a.769.769 0 0 1-.768.768H50.9a.769.769 0 0 1-.768-.768v-1.67c0-.423.344-.767.768-.768h3.808c.424 0 .767.345.768.769zM50.9 20.27a2.903 2.903 0 0 0-2.9 2.9v1.667a2.903 2.903 0 0 0 2.9 2.9h3.8a2.903 2.903 0 0 0 2.9-2.9V23.17a2.903 2.903 0 0 0-2.9-2.9z"/></g><g><path d="M34.044 56.533a6.383 6.383 0 0 0-1.544-3.2h25.1a4.274 4.274 0 0 1 4.132 3.2zm-12.212 5.344a6.386 6.386 0 0 0 1.635-4.272 4.27 4.27 0 0 1 4.266-4.272A4.27 4.27 0 0 1 32 57.605c0 .59.478 1.068 1.067 1.068h11.581a4.342 4.342 0 0 1-4.183 3.204zm-9.033-4.268V6.401a6.377 6.377 0 0 0-1.634-4.268h25.103a4.261 4.261 0 0 1 4.255 4.258v.01H27.736a4.28 4.28 0 0 0-4.274 4.275V27.73a4.28 4.28 0 0 0 4.274 4.276h12.787v19.203H27.728a6.407 6.407 0 0 0-6.398 6.401 4.266 4.266 0 1 1-8.53 0zM2.133 6.403a4.27 4.27 0 0 1 4.272-4.27 4.27 4.27 0 0 1 4.272 4.27v10.674H2.133zm57.6 4.274H25.6a2.149 2.149 0 0 1 2.141-2.144h29.85a2.149 2.149 0 0 1 2.142 2.144zM25.6 12.8h34.133v2.133H25.6zm31.992 17.067h-29.85a2.144 2.144 0 0 1-2.142-2.142V17.067h34.133v10.658a2.144 2.144 0 0 1-2.141 2.142zM57.6 51.2H42.667V32h14.925a4.28 4.28 0 0 0 4.275-4.275v-17.05A4.28 4.28 0 0 0 57.592 6.4H42.667v-.01A6.397 6.397 0 0 0 36.277 0H6.4A6.407 6.407 0 0 0 0 6.4v11.733c0 .59.478 1.067 1.067 1.067h9.6v38.4a6.407 6.407 0 0 0 6.4 6.4h23.398a6.477 6.477 0 0 0 6.367-5.333h16.101c.59 0 1.067-.478 1.067-1.067a6.407 6.407 0 0 0-6.4-6.4z"/></g><g><path d="M17.063 22.403h2.144v2.144h-2.144zm-1.066 4.267h4.266c.59 0 1.067-.478 1.067-1.067v-4.266c0-.59-.478-1.067-1.067-1.067h-4.266c-.59 0-1.067.478-1.067 1.067v4.266c0 .59.478 1.067 1.067 1.067z"/></g><g><path d="M17.063 34.133h2.144v2.144h-2.144zM15.997 38.4h4.266c.59 0 1.067-.478 1.067-1.067v-4.266c0-.59-.478-1.067-1.067-1.067h-4.266c-.59 0-1.067.478-1.067 1.067v4.266c0 .59.478 1.067 1.067 1.067z"/></g><g><path d="M19.207 48.007h-2.144v-2.144h2.144zm2.123 1.056v-4.266c0-.59-.478-1.067-1.067-1.067h-4.266c-.59 0-1.067.478-1.067 1.067v4.266c0 .59.478 1.067 1.067 1.067h4.266c.59 0 1.067-.478 1.067-1.067z"/></g><g><path d="M23.47 45.87h14.933v2.133H23.47z"/></g><g><path d="M23.47 34.13h14.933v2.133H23.47z"/></g></g></g></svg>