<svg xmlns="http://www.w3.org/2000/svg" width="63" height="91.469" viewBox="0 0 63 91.469">
  <defs>
    <style>
      .cls-1 {
        fill: #3fa35d;
        fill-rule: evenodd;
      }
    </style>
  </defs>
  <path id="decor-4-2.svg" class="cls-1" d="M554.634,94.262a7.413,7.413,0,0,1,2.018,6.372c-0.68,5.16-4.723,6.49-8.986,7.1,0.423,5.413-1.817,11.693-7.848,12.4-6.482.757-10.151-5.1-10.452-10.92-3.2.271-6.493,0.445-9.216-1.578-4.67-3.47-3.957-7.348-1.378-10.613a6.761,6.761,0,0,1-4.415-8.048,6.4,6.4,0,0,1,2.2-3.9A27.8,27.8,0,0,1,499.272,62.28C496,36.5,524.18,23.9,545.9,30.411c21.1,6.33,19.18,35.53,7.377,50.39a7.638,7.638,0,0,1,4.468,6.477A7.974,7.974,0,0,1,554.634,94.262Zm-30.4-12.135,3.365-.346q-1.008-5.576-2.015-11.153c-5.247-1.063-10.544-4.231-10.639-10.171-0.093-5.838,3.926-9.537,8.571-8.708,1.578-7.458,13.97-7.859,16.955-1.338a7.975,7.975,0,0,1,9.8,7.7c0.139,5.1-4.959,8.85-9.3,10.975q0.669,5.589,1.339,11.179l5.225-.537c7.55-7.634,10.54-19.938,8.942-30.4-2.286-14.971-18.029-16.6-30.5-14.663-11.739,1.819-21.7,10.323-21.99,22.831C503.692,70.552,512,79.685,524.233,82.127Zm13.144-1.352-1.581-13.2a2.409,2.409,0,0,1,1.237-2.168,24.042,24.042,0,0,0,5.079-2.909c1.238-.945,3.334-2.381,3.143-4.183a4.838,4.838,0,0,0-.344-1.219,6.056,6.056,0,0,0-.6-1.241,2.23,2.23,0,0,0-1.669-1.032,3.548,3.548,0,0,0-2.253.9,14.7,14.7,0,0,0-2.79,2.735c-0.812,1.041-1.825,1.917-2.7,2.921,0-.029,0-0.058,0-0.087a34.626,34.626,0,0,0,1.151-6.258,2.347,2.347,0,0,1,0-.325c0.013-.1.015-0.2,0.021-0.3,0-.277-0.012-0.547-0.036-0.808-0.594-3.708-6.9-4.014-7.544-.471-0.664,1.333-.135,2.769.29,4.29a10.415,10.415,0,0,0,1.1,2.757c0.268,0.438.467,0.9,0.711,1.327-0.009.081-.014,0.165-0.023,0.247a25.756,25.756,0,0,0-2.842-3.044,11.364,11.364,0,0,0-3.568-2.138c-1.994-.7-4.61.647-4.173,2.8a5.448,5.448,0,0,0,.752,3.371c1.4,2.008,4.628,2.958,6.975,3.187a2.544,2.544,0,0,1,2.408,1.843l2.439,13.5Zm5.337,27.492c-2.792.253-5.586,0.417-8.381,0.588,0,0.013,0,.023,0,0.035,0.083,2.748,1.554,7.132,5.358,6.2C542.415,114.426,542.848,110.911,542.714,108.267Zm5.593-11.483c-1.792.047-3.674-.158-5.357-0.148-3.529.023-7.09-1.372-10.555-1.055-0.162.015-.172-0.222-0.036-0.27,4.642-1.629,9.6-2.275,14.443-3.2a2.377,2.377,0,0,1,.713-0.245,2.6,2.6,0,0,1,.48-0.084c2.074-.357,4.709-1.194,4.783-3.734,0.073-2.5-2.194-3.27-4.286-3.221a2.228,2.228,0,0,1-.714-0.1L526.069,86.96a2.46,2.46,0,0,1-1.035.379c-1.334.151-2.83,0.083-4,.756-1.756,1.006-2.406,3.347-.359,4.574,0.745,0.447,2.584.248,3.426,0.231,2.665-.056,3.148,3.317,1.26,4.679a29.1,29.1,0,0,0-2.67,2.071q0.376,5.318,4.138,4.754a21.206,21.206,0,0,0,4.2-.372c3.261-.224,6.523-0.28,9.782-0.577,2.486-.226,8.777.088,10.318-2.061C552.892,98.924,550.883,96.828,548.307,96.784Z" transform="translate(-499 -28.719)"/>
</svg>