<svg width="54" height="55" viewBox="0 0 54 55" fill="none" xmlns="http://www.w3.org/2000/svg">
<mask id="path-1-inside-1" fill="white">
<path d="M47.01 10.367C47.5896 10.367 48.0593 9.89724 48.0593 9.31771V3.75634C48.0593 2.02057 46.6472 0.608398 44.9114 0.608398H3.14799C1.41219 0.608398 0 2.02057 0 3.75634V51.1853C0 52.9211 1.41219 54.3333 3.14799 54.3333H44.9114C46.6472 54.3333 48.0593 52.9211 48.0593 51.1853V48.2473C48.0593 47.6677 47.5896 47.198 47.01 47.198C46.4305 47.198 45.9607 47.6677 45.9607 48.2473V51.1853C45.9607 51.7639 45.49 52.2347 44.9114 52.2347H3.14799C2.56939 52.2347 2.09866 51.7639 2.09866 51.1853V3.75634C2.09866 3.17775 2.56939 2.70703 3.14799 2.70703H44.9114C45.49 2.70703 45.9607 3.17775 45.9607 3.75634V9.31771C45.9607 9.89724 46.4305 10.367 47.01 10.367Z"/>
<path d="M41.9739 5.64511H6.08548C5.50593 5.64511 5.03615 6.11489 5.03615 6.69442V28.6251C5.03615 29.2046 5.50593 29.6744 6.08548 29.6744C6.66502 29.6744 7.13481 29.2046 7.13481 28.6251V7.74374H40.9245V9.42264C40.9245 10.0022 41.3944 10.472 41.9739 10.472C42.5534 10.472 43.0232 10.0022 43.0232 9.42264V6.69442C43.0232 6.11489 42.5534 5.64511 41.9739 5.64511Z"/>
<path d="M6.82694 31.7657C6.63177 31.5705 6.36209 31.4582 6.08506 31.4582C5.80909 31.4582 5.53836 31.5705 5.34319 31.7657C5.14801 31.9609 5.03573 32.2316 5.03573 32.5076C5.03573 32.7835 5.14801 33.0542 5.34319 33.2494C5.53836 33.4446 5.80909 33.5569 6.08506 33.5569C6.36209 33.5569 6.63177 33.4446 6.82694 33.2494C7.02317 33.0542 7.13439 32.7835 7.13439 32.5076C7.13439 32.2316 7.02317 31.9609 6.82694 31.7657Z"/>
<path d="M41.9739 44.8895C41.3943 44.8895 40.9245 45.3592 40.9245 45.9388V47.198H7.13481V36.5474C7.13481 35.9679 6.66502 35.4981 6.08548 35.4981C5.50593 35.4981 5.03615 35.9679 5.03615 36.5474V48.2473C5.03615 48.8268 5.50593 49.2966 6.08548 49.2966H41.9739C42.5534 49.2966 43.0232 48.8268 43.0232 48.2473V45.9388C43.0232 45.3592 42.5534 44.8895 41.9739 44.8895Z"/>
<path d="M32.5192 37.6844C32.1094 37.2745 31.4451 37.2745 31.0352 37.6843L28.9613 39.7583L27.6722 38.4691C26.8583 37.6552 25.5341 37.6552 24.7202 38.4691L23.8813 39.3079C23.4716 39.7177 23.4716 40.3821 23.8813 40.792C24.2911 41.2017 24.9555 41.2017 25.3654 40.792L26.1962 39.9611L27.4853 41.2503C27.8923 41.6572 28.4268 41.8607 28.9613 41.8607C29.4959 41.8607 30.0304 41.6572 30.4373 41.2503L32.5192 39.1685C32.929 38.7587 32.929 38.0943 32.5192 37.6844Z"/>
<path d="M53.2426 22.6212C53.705 21.8998 53.8431 21.0112 53.6213 20.1835C53.3995 19.3558 52.8358 18.6554 52.0745 18.2619C51.7444 18.0913 51.5423 17.7412 51.5596 17.3701C51.5994 16.5141 51.2747 15.6757 50.6688 15.0697C50.0629 14.4638 49.2247 14.1386 48.3684 14.1789C47.9954 14.197 47.6472 13.994 47.4765 13.664C47.083 12.9028 46.3826 12.3391 45.5549 12.1172C44.7269 11.8953 43.8386 12.0335 43.1173 12.4959C42.8045 12.6966 42.4003 12.6964 42.0876 12.4959C41.3662 12.0334 40.4778 11.8954 39.65 12.1172C38.8223 12.3391 38.1219 12.9028 37.7284 13.664C37.5577 13.9941 37.2067 14.1957 36.8365 14.1789C35.9802 14.1389 35.1421 14.4638 34.5362 15.0697C33.9302 15.6757 33.6055 16.5141 33.6453 17.37C33.6626 17.7412 33.4604 18.0913 33.1304 18.2619C32.3692 18.6554 31.8054 19.3557 31.5836 20.1835C31.4777 20.5784 31.4547 20.9871 31.509 21.3849H13.1982C12.6186 21.3849 12.1488 21.8547 12.1488 22.4342C12.1488 23.0137 12.6186 23.4835 13.1982 23.4835H32.0451C32.0225 23.5411 31.9964 23.5977 31.9622 23.651C31.4998 24.3724 31.3617 25.2609 31.5835 26.0886C31.6139 26.2023 31.6514 26.3133 31.6944 26.4216H13.1979C12.6183 26.4216 12.1485 26.8914 12.1485 27.4709C12.1485 28.0504 12.6183 28.5202 13.1979 28.5202H33.5827C33.6283 28.6402 33.6512 28.7695 33.645 28.9021C33.6052 29.7581 33.9299 30.5965 34.5359 31.2025C35.1418 31.8083 35.9799 32.1336 36.8362 32.0932C37.207 32.0751 37.5574 32.278 37.7281 32.6081C37.8541 32.852 38.012 33.0752 38.1951 33.2738V43.0737C38.1951 43.4976 38.4502 43.8799 38.8416 44.0426C39.2329 44.2054 39.6839 44.1166 39.9845 43.8175L42.6023 41.2135L45.2201 43.8175C45.4207 44.0171 45.6882 44.123 45.9604 44.123C46.0959 44.123 46.2328 44.0967 46.363 44.0425C46.7544 43.8798 47.0095 43.4975 47.0095 43.0736V33.2737C47.1926 33.0752 47.3505 32.8519 47.4765 32.608C47.6472 32.2779 47.9976 32.0762 48.3684 32.0931C49.2253 32.1336 50.0628 31.8083 50.6687 31.2024C51.2747 30.5964 51.5994 29.758 51.5596 28.902C51.5423 28.5308 51.7445 28.1808 52.0745 28.0101C52.8357 27.6167 53.3995 26.9163 53.6213 26.0885C53.8431 25.2607 53.705 24.3723 53.2426 23.6508C53.042 23.3382 53.042 22.934 53.2426 22.6212ZM44.9108 40.5498L43.3423 38.9894C42.9329 38.5822 42.2715 38.5822 41.8622 38.9894L40.2938 40.5498V34.2547C40.9216 34.2843 41.5508 34.1202 42.0875 33.7762C42.4003 33.5756 42.8045 33.5757 43.1172 33.7762C43.6128 34.094 44.1872 34.2586 44.7667 34.2586C44.8148 34.2586 44.8628 34.2562 44.9108 34.2539V40.5498ZM51.5941 25.5455C51.5238 25.8079 51.352 26.0213 51.1107 26.146C50.0546 26.692 49.4078 27.812 49.4631 28.9996C49.4758 29.2711 49.3769 29.5264 49.1847 29.7186C48.9926 29.9108 48.7373 30.0094 48.4658 29.997C47.2776 29.942 46.1582 30.5884 45.6122 31.6446C45.4874 31.886 45.2741 32.0577 45.0116 32.128C44.7492 32.1982 44.4785 32.1563 44.2498 32.0096C43.7493 31.6887 43.1759 31.5284 42.6022 31.5284C42.0287 31.5284 41.4551 31.6888 40.9546 32.0096C40.7259 32.1562 40.4553 32.1982 40.1928 32.128C39.9303 32.0577 39.717 31.8859 39.5922 31.6446C39.0462 30.5885 37.927 29.9415 36.7385 29.997C36.4677 30.0095 36.2118 29.9108 36.0196 29.7186C35.8274 29.5264 35.7285 29.2711 35.7412 28.9995C35.7802 28.1614 35.4682 27.3578 34.9107 26.765C34.8943 26.7471 34.8776 26.7295 34.86 26.7127C34.6386 26.4882 34.382 26.2951 34.0937 26.146C33.8523 26.0213 33.6807 25.8081 33.6104 25.5455C33.5401 25.283 33.582 25.0124 33.7287 24.7837C34.3704 23.7829 34.3704 22.4895 33.7287 21.4887C33.5821 21.2599 33.5401 20.9893 33.6104 20.7267C33.6807 20.4643 33.8525 20.251 34.0938 20.1262C35.1498 19.5803 35.7965 18.4602 35.7414 17.2726C35.7287 17.0012 35.8276 16.7459 36.0197 16.5536C36.2119 16.3614 36.4677 16.2628 36.7386 16.2752C37.927 16.3303 39.0464 15.6838 39.5923 14.6277C39.7171 14.3863 39.9304 14.2146 40.1929 14.1443C40.4554 14.0741 40.726 14.116 40.9546 14.2627C41.9556 14.9044 43.2491 14.9044 44.2497 14.2627C44.4785 14.1161 44.749 14.0739 45.0116 14.1443C45.2741 14.2146 45.4873 14.3864 45.6122 14.6277C46.1582 15.6837 47.2781 16.3306 48.4658 16.2752C48.7374 16.2629 48.9926 16.3614 49.1847 16.5536C49.377 16.7459 49.4758 17.0012 49.4631 17.2726C49.4079 18.4601 50.0545 19.5803 51.1108 20.1262C51.3521 20.251 51.5238 20.4642 51.5941 20.7267C51.6644 20.9893 51.6224 21.2599 51.4757 21.4886C50.8341 22.4894 50.8341 23.7828 51.4757 24.7836C51.6224 25.0124 51.6645 25.283 51.5941 25.5455Z"/>
<path d="M47.5926 20.2815C47.1828 19.8718 46.5184 19.8718 46.1086 20.2815L42.6258 23.7644L41.2393 22.3779C40.8295 21.9682 40.1651 21.9682 39.7552 22.3779C39.3455 22.7877 39.3455 23.4521 39.7552 23.862L41.8837 25.9904C42.0886 26.1953 42.3572 26.2978 42.6257 26.2978C42.8942 26.2978 43.1628 26.1953 43.3677 25.9904L47.5926 21.7656C48.0023 21.3558 48.0023 20.6914 47.5926 20.2815Z"/>
<path d="M12.8092 13.2978C12.614 13.1026 12.3433 12.9903 12.0673 12.9903C11.7914 12.9903 11.5206 13.1026 11.3254 13.2978C11.1303 13.4929 11.018 13.7637 11.018 14.0396C11.018 14.3156 11.1303 14.5863 11.3254 14.7815C11.5206 14.9767 11.7914 15.0889 12.0673 15.0889C12.3433 15.0889 12.614 14.9767 12.8092 14.7815C13.0044 14.5863 13.1167 14.3156 13.1167 14.0396C13.1167 13.7637 13.0044 13.4929 12.8092 13.2978Z"/>
<path d="M21.0909 12.9903H15.9841C15.4046 12.9903 14.9348 13.4601 14.9348 14.0396C14.9348 14.6192 15.4046 15.0889 15.9841 15.0889H21.0909C21.6704 15.0889 22.1402 14.6192 22.1402 14.0396C22.1402 13.4601 21.6704 12.9903 21.0909 12.9903Z"/>
<path d="M31.7773 31.4582H19.7812C19.2016 31.4582 18.7319 31.928 18.7319 32.5076C18.7319 33.0871 19.2016 33.5569 19.7812 33.5569H31.7772C32.3568 33.5569 32.8266 33.0871 32.8266 32.5076C32.8266 31.928 32.3569 31.4582 31.7773 31.4582Z"/>
</mask>
<path d="M47.01 10.367C47.5896 10.367 48.0593 9.89724 48.0593 9.31771V3.75634C48.0593 2.02057 46.6472 0.608398 44.9114 0.608398H3.14799C1.41219 0.608398 0 2.02057 0 3.75634V51.1853C0 52.9211 1.41219 54.3333 3.14799 54.3333H44.9114C46.6472 54.3333 48.0593 52.9211 48.0593 51.1853V48.2473C48.0593 47.6677 47.5896 47.198 47.01 47.198C46.4305 47.198 45.9607 47.6677 45.9607 48.2473V51.1853C45.9607 51.7639 45.49 52.2347 44.9114 52.2347H3.14799C2.56939 52.2347 2.09866 51.7639 2.09866 51.1853V3.75634C2.09866 3.17775 2.56939 2.70703 3.14799 2.70703H44.9114C45.49 2.70703 45.9607 3.17775 45.9607 3.75634V9.31771C45.9607 9.89724 46.4305 10.367 47.01 10.367Z" fill="#F4B71A"/>
<path d="M41.9739 5.64511H6.08548C5.50593 5.64511 5.03615 6.11489 5.03615 6.69442V28.6251C5.03615 29.2046 5.50593 29.6744 6.08548 29.6744C6.66502 29.6744 7.13481 29.2046 7.13481 28.6251V7.74374H40.9245V9.42264C40.9245 10.0022 41.3944 10.472 41.9739 10.472C42.5534 10.472 43.0232 10.0022 43.0232 9.42264V6.69442C43.0232 6.11489 42.5534 5.64511 41.9739 5.64511Z" fill="#F4B71A"/>
<path d="M6.82694 31.7657C6.63177 31.5705 6.36209 31.4582 6.08506 31.4582C5.80909 31.4582 5.53836 31.5705 5.34319 31.7657C5.14801 31.9609 5.03573 32.2316 5.03573 32.5076C5.03573 32.7835 5.14801 33.0542 5.34319 33.2494C5.53836 33.4446 5.80909 33.5569 6.08506 33.5569C6.36209 33.5569 6.63177 33.4446 6.82694 33.2494C7.02317 33.0542 7.13439 32.7835 7.13439 32.5076C7.13439 32.2316 7.02317 31.9609 6.82694 31.7657Z" fill="#F4B71A"/>
<path d="M41.9739 44.8895C41.3943 44.8895 40.9245 45.3592 40.9245 45.9388V47.198H7.13481V36.5474C7.13481 35.9679 6.66502 35.4981 6.08548 35.4981C5.50593 35.4981 5.03615 35.9679 5.03615 36.5474V48.2473C5.03615 48.8268 5.50593 49.2966 6.08548 49.2966H41.9739C42.5534 49.2966 43.0232 48.8268 43.0232 48.2473V45.9388C43.0232 45.3592 42.5534 44.8895 41.9739 44.8895Z" fill="#F4B71A"/>
<path d="M32.5192 37.6844C32.1094 37.2745 31.4451 37.2745 31.0352 37.6843L28.9613 39.7583L27.6722 38.4691C26.8583 37.6552 25.5341 37.6552 24.7202 38.4691L23.8813 39.3079C23.4716 39.7177 23.4716 40.3821 23.8813 40.792C24.2911 41.2017 24.9555 41.2017 25.3654 40.792L26.1962 39.9611L27.4853 41.2503C27.8923 41.6572 28.4268 41.8607 28.9613 41.8607C29.4959 41.8607 30.0304 41.6572 30.4373 41.2503L32.5192 39.1685C32.929 38.7587 32.929 38.0943 32.5192 37.6844Z" fill="#F4B71A"/>
<path d="M53.2426 22.6212C53.705 21.8998 53.8431 21.0112 53.6213 20.1835C53.3995 19.3558 52.8358 18.6554 52.0745 18.2619C51.7444 18.0913 51.5423 17.7412 51.5596 17.3701C51.5994 16.5141 51.2747 15.6757 50.6688 15.0697C50.0629 14.4638 49.2247 14.1386 48.3684 14.1789C47.9954 14.197 47.6472 13.994 47.4765 13.664C47.083 12.9028 46.3826 12.3391 45.5549 12.1172C44.7269 11.8953 43.8386 12.0335 43.1173 12.4959C42.8045 12.6966 42.4003 12.6964 42.0876 12.4959C41.3662 12.0334 40.4778 11.8954 39.65 12.1172C38.8223 12.3391 38.1219 12.9028 37.7284 13.664C37.5577 13.9941 37.2067 14.1957 36.8365 14.1789C35.9802 14.1389 35.1421 14.4638 34.5362 15.0697C33.9302 15.6757 33.6055 16.5141 33.6453 17.37C33.6626 17.7412 33.4604 18.0913 33.1304 18.2619C32.3692 18.6554 31.8054 19.3557 31.5836 20.1835C31.4777 20.5784 31.4547 20.9871 31.509 21.3849H13.1982C12.6186 21.3849 12.1488 21.8547 12.1488 22.4342C12.1488 23.0137 12.6186 23.4835 13.1982 23.4835H32.0451C32.0225 23.5411 31.9964 23.5977 31.9622 23.651C31.4998 24.3724 31.3617 25.2609 31.5835 26.0886C31.6139 26.2023 31.6514 26.3133 31.6944 26.4216H13.1979C12.6183 26.4216 12.1485 26.8914 12.1485 27.4709C12.1485 28.0504 12.6183 28.5202 13.1979 28.5202H33.5827C33.6283 28.6402 33.6512 28.7695 33.645 28.9021C33.6052 29.7581 33.9299 30.5965 34.5359 31.2025C35.1418 31.8083 35.9799 32.1336 36.8362 32.0932C37.207 32.0751 37.5574 32.278 37.7281 32.6081C37.8541 32.852 38.012 33.0752 38.1951 33.2738V43.0737C38.1951 43.4976 38.4502 43.8799 38.8416 44.0426C39.2329 44.2054 39.6839 44.1166 39.9845 43.8175L42.6023 41.2135L45.2201 43.8175C45.4207 44.0171 45.6882 44.123 45.9604 44.123C46.0959 44.123 46.2328 44.0967 46.363 44.0425C46.7544 43.8798 47.0095 43.4975 47.0095 43.0736V33.2737C47.1926 33.0752 47.3505 32.8519 47.4765 32.608C47.6472 32.2779 47.9976 32.0762 48.3684 32.0931C49.2253 32.1336 50.0628 31.8083 50.6687 31.2024C51.2747 30.5964 51.5994 29.758 51.5596 28.902C51.5423 28.5308 51.7445 28.1808 52.0745 28.0101C52.8357 27.6167 53.3995 26.9163 53.6213 26.0885C53.8431 25.2607 53.705 24.3723 53.2426 23.6508C53.042 23.3382 53.042 22.934 53.2426 22.6212ZM44.9108 40.5498L43.3423 38.9894C42.9329 38.5822 42.2715 38.5822 41.8622 38.9894L40.2938 40.5498V34.2547C40.9216 34.2843 41.5508 34.1202 42.0875 33.7762C42.4003 33.5756 42.8045 33.5757 43.1172 33.7762C43.6128 34.094 44.1872 34.2586 44.7667 34.2586C44.8148 34.2586 44.8628 34.2562 44.9108 34.2539V40.5498ZM51.5941 25.5455C51.5238 25.8079 51.352 26.0213 51.1107 26.146C50.0546 26.692 49.4078 27.812 49.4631 28.9996C49.4758 29.2711 49.3769 29.5264 49.1847 29.7186C48.9926 29.9108 48.7373 30.0094 48.4658 29.997C47.2776 29.942 46.1582 30.5884 45.6122 31.6446C45.4874 31.886 45.2741 32.0577 45.0116 32.128C44.7492 32.1982 44.4785 32.1563 44.2498 32.0096C43.7493 31.6887 43.1759 31.5284 42.6022 31.5284C42.0287 31.5284 41.4551 31.6888 40.9546 32.0096C40.7259 32.1562 40.4553 32.1982 40.1928 32.128C39.9303 32.0577 39.717 31.8859 39.5922 31.6446C39.0462 30.5885 37.927 29.9415 36.7385 29.997C36.4677 30.0095 36.2118 29.9108 36.0196 29.7186C35.8274 29.5264 35.7285 29.2711 35.7412 28.9995C35.7802 28.1614 35.4682 27.3578 34.9107 26.765C34.8943 26.7471 34.8776 26.7295 34.86 26.7127C34.6386 26.4882 34.382 26.2951 34.0937 26.146C33.8523 26.0213 33.6807 25.8081 33.6104 25.5455C33.5401 25.283 33.582 25.0124 33.7287 24.7837C34.3704 23.7829 34.3704 22.4895 33.7287 21.4887C33.5821 21.2599 33.5401 20.9893 33.6104 20.7267C33.6807 20.4643 33.8525 20.251 34.0938 20.1262C35.1498 19.5803 35.7965 18.4602 35.7414 17.2726C35.7287 17.0012 35.8276 16.7459 36.0197 16.5536C36.2119 16.3614 36.4677 16.2628 36.7386 16.2752C37.927 16.3303 39.0464 15.6838 39.5923 14.6277C39.7171 14.3863 39.9304 14.2146 40.1929 14.1443C40.4554 14.0741 40.726 14.116 40.9546 14.2627C41.9556 14.9044 43.2491 14.9044 44.2497 14.2627C44.4785 14.1161 44.749 14.0739 45.0116 14.1443C45.2741 14.2146 45.4873 14.3864 45.6122 14.6277C46.1582 15.6837 47.2781 16.3306 48.4658 16.2752C48.7374 16.2629 48.9926 16.3614 49.1847 16.5536C49.377 16.7459 49.4758 17.0012 49.4631 17.2726C49.4079 18.4601 50.0545 19.5803 51.1108 20.1262C51.3521 20.251 51.5238 20.4642 51.5941 20.7267C51.6644 20.9893 51.6224 21.2599 51.4757 21.4886C50.8341 22.4894 50.8341 23.7828 51.4757 24.7836C51.6224 25.0124 51.6645 25.283 51.5941 25.5455Z" fill="#F4B71A"/>
<path d="M47.5926 20.2815C47.1828 19.8718 46.5184 19.8718 46.1086 20.2815L42.6258 23.7644L41.2393 22.3779C40.8295 21.9682 40.1651 21.9682 39.7552 22.3779C39.3455 22.7877 39.3455 23.4521 39.7552 23.862L41.8837 25.9904C42.0886 26.1953 42.3572 26.2978 42.6257 26.2978C42.8942 26.2978 43.1628 26.1953 43.3677 25.9904L47.5926 21.7656C48.0023 21.3558 48.0023 20.6914 47.5926 20.2815Z" fill="#F4B71A"/>
<path d="M12.8092 13.2978C12.614 13.1026 12.3433 12.9903 12.0673 12.9903C11.7914 12.9903 11.5206 13.1026 11.3254 13.2978C11.1303 13.4929 11.018 13.7637 11.018 14.0396C11.018 14.3156 11.1303 14.5863 11.3254 14.7815C11.5206 14.9767 11.7914 15.0889 12.0673 15.0889C12.3433 15.0889 12.614 14.9767 12.8092 14.7815C13.0044 14.5863 13.1167 14.3156 13.1167 14.0396C13.1167 13.7637 13.0044 13.4929 12.8092 13.2978Z" fill="#F4B71A"/>
<path d="M21.0909 12.9903H15.9841C15.4046 12.9903 14.9348 13.4601 14.9348 14.0396C14.9348 14.6192 15.4046 15.0889 15.9841 15.0889H21.0909C21.6704 15.0889 22.1402 14.6192 22.1402 14.0396C22.1402 13.4601 21.6704 12.9903 21.0909 12.9903Z" fill="#F4B71A"/>
<path d="M31.7773 31.4582H19.7812C19.2016 31.4582 18.7319 31.928 18.7319 32.5076C18.7319 33.0871 19.2016 33.5569 19.7812 33.5569H31.7772C32.3568 33.5569 32.8266 33.0871 32.8266 32.5076C32.8266 31.928 32.3569 31.4582 31.7773 31.4582Z" fill="#F4B71A"/>
<path d="M47.01 10.367C47.5896 10.367 48.0593 9.89724 48.0593 9.31771V3.75634C48.0593 2.02057 46.6472 0.608398 44.9114 0.608398H3.14799C1.41219 0.608398 0 2.02057 0 3.75634V51.1853C0 52.9211 1.41219 54.3333 3.14799 54.3333H44.9114C46.6472 54.3333 48.0593 52.9211 48.0593 51.1853V48.2473C48.0593 47.6677 47.5896 47.198 47.01 47.198C46.4305 47.198 45.9607 47.6677 45.9607 48.2473V51.1853C45.9607 51.7639 45.49 52.2347 44.9114 52.2347H3.14799C2.56939 52.2347 2.09866 51.7639 2.09866 51.1853V3.75634C2.09866 3.17775 2.56939 2.70703 3.14799 2.70703H44.9114C45.49 2.70703 45.9607 3.17775 45.9607 3.75634V9.31771C45.9607 9.89724 46.4305 10.367 47.01 10.367Z" stroke="#F4B71A" stroke-width="2" mask="url(#path-1-inside-1)"/>
<path d="M41.9739 5.64511H6.08548C5.50593 5.64511 5.03615 6.11489 5.03615 6.69442V28.6251C5.03615 29.2046 5.50593 29.6744 6.08548 29.6744C6.66502 29.6744 7.13481 29.2046 7.13481 28.6251V7.74374H40.9245V9.42264C40.9245 10.0022 41.3944 10.472 41.9739 10.472C42.5534 10.472 43.0232 10.0022 43.0232 9.42264V6.69442C43.0232 6.11489 42.5534 5.64511 41.9739 5.64511Z" stroke="#F4B71A" stroke-width="2" mask="url(#path-1-inside-1)"/>
<path d="M6.82694 31.7657C6.63177 31.5705 6.36209 31.4582 6.08506 31.4582C5.80909 31.4582 5.53836 31.5705 5.34319 31.7657C5.14801 31.9609 5.03573 32.2316 5.03573 32.5076C5.03573 32.7835 5.14801 33.0542 5.34319 33.2494C5.53836 33.4446 5.80909 33.5569 6.08506 33.5569C6.36209 33.5569 6.63177 33.4446 6.82694 33.2494C7.02317 33.0542 7.13439 32.7835 7.13439 32.5076C7.13439 32.2316 7.02317 31.9609 6.82694 31.7657Z" stroke="#F4B71A" stroke-width="2" mask="url(#path-1-inside-1)"/>
<path d="M41.9739 44.8895C41.3943 44.8895 40.9245 45.3592 40.9245 45.9388V47.198H7.13481V36.5474C7.13481 35.9679 6.66502 35.4981 6.08548 35.4981C5.50593 35.4981 5.03615 35.9679 5.03615 36.5474V48.2473C5.03615 48.8268 5.50593 49.2966 6.08548 49.2966H41.9739C42.5534 49.2966 43.0232 48.8268 43.0232 48.2473V45.9388C43.0232 45.3592 42.5534 44.8895 41.9739 44.8895Z" stroke="#F4B71A" stroke-width="2" mask="url(#path-1-inside-1)"/>
<path d="M32.5192 37.6844C32.1094 37.2745 31.4451 37.2745 31.0352 37.6843L28.9613 39.7583L27.6722 38.4691C26.8583 37.6552 25.5341 37.6552 24.7202 38.4691L23.8813 39.3079C23.4716 39.7177 23.4716 40.3821 23.8813 40.792C24.2911 41.2017 24.9555 41.2017 25.3654 40.792L26.1962 39.9611L27.4853 41.2503C27.8923 41.6572 28.4268 41.8607 28.9613 41.8607C29.4959 41.8607 30.0304 41.6572 30.4373 41.2503L32.5192 39.1685C32.929 38.7587 32.929 38.0943 32.5192 37.6844Z" stroke="#F4B71A" stroke-width="2" mask="url(#path-1-inside-1)"/>
<path d="M53.2426 22.6212C53.705 21.8998 53.8431 21.0112 53.6213 20.1835C53.3995 19.3558 52.8358 18.6554 52.0745 18.2619C51.7444 18.0913 51.5423 17.7412 51.5596 17.3701C51.5994 16.5141 51.2747 15.6757 50.6688 15.0697C50.0629 14.4638 49.2247 14.1386 48.3684 14.1789C47.9954 14.197 47.6472 13.994 47.4765 13.664C47.083 12.9028 46.3826 12.3391 45.5549 12.1172C44.7269 11.8953 43.8386 12.0335 43.1173 12.4959C42.8045 12.6966 42.4003 12.6964 42.0876 12.4959C41.3662 12.0334 40.4778 11.8954 39.65 12.1172C38.8223 12.3391 38.1219 12.9028 37.7284 13.664C37.5577 13.9941 37.2067 14.1957 36.8365 14.1789C35.9802 14.1389 35.1421 14.4638 34.5362 15.0697C33.9302 15.6757 33.6055 16.5141 33.6453 17.37C33.6626 17.7412 33.4604 18.0913 33.1304 18.2619C32.3692 18.6554 31.8054 19.3557 31.5836 20.1835C31.4777 20.5784 31.4547 20.9871 31.509 21.3849H13.1982C12.6186 21.3849 12.1488 21.8547 12.1488 22.4342C12.1488 23.0137 12.6186 23.4835 13.1982 23.4835H32.0451C32.0225 23.5411 31.9964 23.5977 31.9622 23.651C31.4998 24.3724 31.3617 25.2609 31.5835 26.0886C31.6139 26.2023 31.6514 26.3133 31.6944 26.4216H13.1979C12.6183 26.4216 12.1485 26.8914 12.1485 27.4709C12.1485 28.0504 12.6183 28.5202 13.1979 28.5202H33.5827C33.6283 28.6402 33.6512 28.7695 33.645 28.9021C33.6052 29.7581 33.9299 30.5965 34.5359 31.2025C35.1418 31.8083 35.9799 32.1336 36.8362 32.0932C37.207 32.0751 37.5574 32.278 37.7281 32.6081C37.8541 32.852 38.012 33.0752 38.1951 33.2738V43.0737C38.1951 43.4976 38.4502 43.8799 38.8416 44.0426C39.2329 44.2054 39.6839 44.1166 39.9845 43.8175L42.6023 41.2135L45.2201 43.8175C45.4207 44.0171 45.6882 44.123 45.9604 44.123C46.0959 44.123 46.2328 44.0967 46.363 44.0425C46.7544 43.8798 47.0095 43.4975 47.0095 43.0736V33.2737C47.1926 33.0752 47.3505 32.8519 47.4765 32.608C47.6472 32.2779 47.9976 32.0762 48.3684 32.0931C49.2253 32.1336 50.0628 31.8083 50.6687 31.2024C51.2747 30.5964 51.5994 29.758 51.5596 28.902C51.5423 28.5308 51.7445 28.1808 52.0745 28.0101C52.8357 27.6167 53.3995 26.9163 53.6213 26.0885C53.8431 25.2607 53.705 24.3723 53.2426 23.6508C53.042 23.3382 53.042 22.934 53.2426 22.6212ZM44.9108 40.5498L43.3423 38.9894C42.9329 38.5822 42.2715 38.5822 41.8622 38.9894L40.2938 40.5498V34.2547C40.9216 34.2843 41.5508 34.1202 42.0875 33.7762C42.4003 33.5756 42.8045 33.5757 43.1172 33.7762C43.6128 34.094 44.1872 34.2586 44.7667 34.2586C44.8148 34.2586 44.8628 34.2562 44.9108 34.2539V40.5498ZM51.5941 25.5455C51.5238 25.8079 51.352 26.0213 51.1107 26.146C50.0546 26.692 49.4078 27.812 49.4631 28.9996C49.4758 29.2711 49.3769 29.5264 49.1847 29.7186C48.9926 29.9108 48.7373 30.0094 48.4658 29.997C47.2776 29.942 46.1582 30.5884 45.6122 31.6446C45.4874 31.886 45.2741 32.0577 45.0116 32.128C44.7492 32.1982 44.4785 32.1563 44.2498 32.0096C43.7493 31.6887 43.1759 31.5284 42.6022 31.5284C42.0287 31.5284 41.4551 31.6888 40.9546 32.0096C40.7259 32.1562 40.4553 32.1982 40.1928 32.128C39.9303 32.0577 39.717 31.8859 39.5922 31.6446C39.0462 30.5885 37.927 29.9415 36.7385 29.997C36.4677 30.0095 36.2118 29.9108 36.0196 29.7186C35.8274 29.5264 35.7285 29.2711 35.7412 28.9995C35.7802 28.1614 35.4682 27.3578 34.9107 26.765C34.8943 26.7471 34.8776 26.7295 34.86 26.7127C34.6386 26.4882 34.382 26.2951 34.0937 26.146C33.8523 26.0213 33.6807 25.8081 33.6104 25.5455C33.5401 25.283 33.582 25.0124 33.7287 24.7837C34.3704 23.7829 34.3704 22.4895 33.7287 21.4887C33.5821 21.2599 33.5401 20.9893 33.6104 20.7267C33.6807 20.4643 33.8525 20.251 34.0938 20.1262C35.1498 19.5803 35.7965 18.4602 35.7414 17.2726C35.7287 17.0012 35.8276 16.7459 36.0197 16.5536C36.2119 16.3614 36.4677 16.2628 36.7386 16.2752C37.927 16.3303 39.0464 15.6838 39.5923 14.6277C39.7171 14.3863 39.9304 14.2146 40.1929 14.1443C40.4554 14.0741 40.726 14.116 40.9546 14.2627C41.9556 14.9044 43.2491 14.9044 44.2497 14.2627C44.4785 14.1161 44.749 14.0739 45.0116 14.1443C45.2741 14.2146 45.4873 14.3864 45.6122 14.6277C46.1582 15.6837 47.2781 16.3306 48.4658 16.2752C48.7374 16.2629 48.9926 16.3614 49.1847 16.5536C49.377 16.7459 49.4758 17.0012 49.4631 17.2726C49.4079 18.4601 50.0545 19.5803 51.1108 20.1262C51.3521 20.251 51.5238 20.4642 51.5941 20.7267C51.6644 20.9893 51.6224 21.2599 51.4757 21.4886C50.8341 22.4894 50.8341 23.7828 51.4757 24.7836C51.6224 25.0124 51.6645 25.283 51.5941 25.5455Z" stroke="#F4B71A" stroke-width="2" mask="url(#path-1-inside-1)"/>
<path d="M47.5926 20.2815C47.1828 19.8718 46.5184 19.8718 46.1086 20.2815L42.6258 23.7644L41.2393 22.3779C40.8295 21.9682 40.1651 21.9682 39.7552 22.3779C39.3455 22.7877 39.3455 23.4521 39.7552 23.862L41.8837 25.9904C42.0886 26.1953 42.3572 26.2978 42.6257 26.2978C42.8942 26.2978 43.1628 26.1953 43.3677 25.9904L47.5926 21.7656C48.0023 21.3558 48.0023 20.6914 47.5926 20.2815Z" stroke="#F4B71A" stroke-width="2" mask="url(#path-1-inside-1)"/>
<path d="M12.8092 13.2978C12.614 13.1026 12.3433 12.9903 12.0673 12.9903C11.7914 12.9903 11.5206 13.1026 11.3254 13.2978C11.1303 13.4929 11.018 13.7637 11.018 14.0396C11.018 14.3156 11.1303 14.5863 11.3254 14.7815C11.5206 14.9767 11.7914 15.0889 12.0673 15.0889C12.3433 15.0889 12.614 14.9767 12.8092 14.7815C13.0044 14.5863 13.1167 14.3156 13.1167 14.0396C13.1167 13.7637 13.0044 13.4929 12.8092 13.2978Z" stroke="#F4B71A" stroke-width="2" mask="url(#path-1-inside-1)"/>
<path d="M21.0909 12.9903H15.9841C15.4046 12.9903 14.9348 13.4601 14.9348 14.0396C14.9348 14.6192 15.4046 15.0889 15.9841 15.0889H21.0909C21.6704 15.0889 22.1402 14.6192 22.1402 14.0396C22.1402 13.4601 21.6704 12.9903 21.0909 12.9903Z" stroke="#F4B71A" stroke-width="2" mask="url(#path-1-inside-1)"/>
<path d="M31.7773 31.4582H19.7812C19.2016 31.4582 18.7319 31.928 18.7319 32.5076C18.7319 33.0871 19.2016 33.5569 19.7812 33.5569H31.7772C32.3568 33.5569 32.8266 33.0871 32.8266 32.5076C32.8266 31.928 32.3569 31.4582 31.7773 31.4582Z" stroke="#F4B71A" stroke-width="2" mask="url(#path-1-inside-1)"/>
</svg>