<?xml version="1.0" encoding="UTF-8"?>
<!-- Generator: Adobe Illustrator 21.0.0, SVG Export Plug-In . SVG Version: 6.00 Build 0)  -->
<svg version="1.1" xmlns="http://www.w3.org/2000/svg" xmlns:xlink="http://www.w3.org/1999/xlink" x="0px" y="0px" viewBox="0 0 160 160" style="enable-background:new 0 0 160 160;" xml:space="preserve">
<style type="text/css">
	.st0{fill:#0784FF;}
	.st1{fill:#90C661;}
	.st2{fill:#689F38;}
	.st3{fill:#B8C2FF;}
	.st4{fill:#7388FF;}
	.st5{fill:#DFE5FF;}
	.st6{fill:#CCD4FF;}
	.st7{fill:#EFF2FF;}
	.st8{fill:#A4B1FF;}
	.st9{fill:#002755;}
	.st10{fill:#B4D813;}
	.st11{fill:#333333;}
	.st12{fill:#1E1E1D;}
	.st13{fill:#DAEFF6;}
	.st14{fill:#DD2E2B;}
	.st15{fill:#EF5122;}
	.st16{fill:#FFDB6F;}
	.st17{fill:#62BEFF;}
	.st18{fill:#E64028;}
	.st19{fill:#D43B25;}
	.st20{fill:#869F15;}
	.st21{fill:#E8E1D5;}
	.st22{fill:#D6CFC4;}
	.st23{fill:#716680;}
	.st24{fill:#9AD5ED;}
	.st25{fill:#CEE8F2;}
	.st26{fill:#98B70E;}
	.st27{fill:#90AB13;}
	.st28{fill:#FFCFB4;}
	.st29{fill:#604631;}
	.st30{fill:#FCDAC4;}
	.st31{fill:#2F2C29;}
	.st32{fill:#F4F4F4;}
	.st33{fill:#FFDC0F;}
	.st34{fill:#63635F;}
	.st35{fill:#71D182;}
	.st36{fill:#14DDF7;}
	.st37{fill:#008EE5;}
	.st38{fill:#FCD2BE;}
	.st39{fill:#FAB998;}
	.st40{fill:#F9CE55;}
	.st41{fill:#E2A11E;}
	.st42{fill:#6B4B3D;}
	.st43{fill:#5B3D2D;}
	.st44{fill:#D45B5B;}
	.st45{fill:#B3D5E4;}
	.st46{fill:#FFFFFF;}
	.st47{fill:#E4D9B3;}
	.st48{fill:#E2780E;}
	.st49{fill:#A85000;}
	.st50{fill:#CECECE;}
</style>
<g id="Слой_1">
</g>
<g id="Слой_2">
</g>
<g id="Слой_3">
</g>
<g id="Слой_4">
</g>
<g id="Слой_5">
</g>
<g id="Слой_6">
</g>
<g id="Слой_7">
	<g>
		<path class="st44" d="M70,71.8c0.2,0.1,0.4,0.1,0.6,0.2c0,0-0.1,0-0.1,0C70.3,71.9,70.1,71.9,70,71.8z"/>
		<path class="st44" d="M63.8,68.4C63.8,68.3,63.8,68.3,63.8,68.4C63.8,68.3,63.8,68.3,63.8,68.4z"/>
		<path class="st44" d="M65.9,69.8c-0.1,0-0.2-0.1-0.2-0.1C65.8,69.7,65.9,69.7,65.9,69.8z"/>
		<path class="st44" d="M94.3,69.6c-0.1,0-0.2,0.1-0.2,0.1C94.1,69.7,94.2,69.7,94.3,69.6z"/>
		<path class="st44" d="M96.2,68.3C96.2,68.3,96.2,68.3,96.2,68.3C96.2,68.3,96.2,68.3,96.2,68.3z"/>
		<path class="st44" d="M68.2,71c-0.1-0.1-0.3-0.1-0.4-0.2C67.9,70.9,68.1,71,68.2,71z"/>
		<path class="st44" d="M92.2,70.8c-0.1,0.1-0.3,0.1-0.4,0.2C91.9,71,92.1,70.9,92.2,70.8z"/>
		<path class="st44" d="M82.5,73.6c0.1,0,0.1,0,0.2,0c0,0-0.1,0-0.1,0C82.5,73.6,82.5,73.6,82.5,73.6z"/>
		<path class="st44" d="M87.2,72.8c0.2,0,0.3-0.1,0.5-0.1c-0.1,0-0.2,0.1-0.3,0.1C87.3,72.7,87.3,72.7,87.2,72.8z"/>
		<path class="st44" d="M89.5,72c0.2-0.1,0.4-0.1,0.6-0.2C89.9,71.9,89.7,71.9,89.5,72C89.5,72,89.5,72,89.5,72z"/>
		<path class="st44" d="M84.9,73.3c0.1,0,0.2,0,0.4-0.1c-0.1,0-0.1,0-0.2,0C85,73.3,84.9,73.3,84.9,73.3z"/>
		<path class="st44" d="M77.3,73.6c0.1,0,0.1,0,0.2,0c0,0-0.1,0-0.1,0C77.4,73.6,77.4,73.6,77.3,73.6z"/>
		<path class="st44" d="M72.3,72.6c0.2,0,0.3,0.1,0.5,0.1c-0.1,0-0.1,0-0.2-0.1C72.5,72.7,72.4,72.7,72.3,72.6z"/>
		<path class="st44" d="M74.8,73.2c0.1,0,0.2,0,0.4,0.1c-0.1,0-0.1,0-0.2,0C74.9,73.2,74.8,73.2,74.8,73.2z"/>
		<path class="st44" d="M83.5,73.5c0.5-0.1,0.9-0.1,1.4-0.2c-0.4,0.1-0.7,0.1-1.1,0.2C83.7,73.5,83.6,73.5,83.5,73.5z"/>
		<path class="st44" d="M72.6,72.7c0.1,0,0.1,0,0.2,0.1c0.2,0,0.4,0.1,0.5,0.1C73.1,72.8,72.9,72.8,72.6,72.7z"/>
		<path class="st44" d="M83.8,73.5c0.4-0.1,0.7-0.1,1.1-0.2c0.1,0,0.1,0,0.2,0C84.6,73.3,84.2,73.4,83.8,73.5z"/>
		<path class="st44" d="M75.1,73.3c0.5,0.1,0.9,0.1,1.4,0.2c-0.1,0-0.2,0-0.3,0C75.9,73.4,75.5,73.4,75.1,73.3z"/>
		<path class="st44" d="M86.7,72.9c0.2,0,0.4-0.1,0.5-0.1c0.1,0,0.1,0,0.2-0.1C87.1,72.8,86.9,72.8,86.7,72.9z"/>
		<path class="st44" d="M80,73.7c0.8,0,1.7,0,2.5-0.1c0,0,0.1,0,0.1,0C81.7,73.7,80.9,73.7,80,73.7z"/>
		<path class="st44" d="M86.2,73c0.3-0.1,0.7-0.2,1-0.3c-0.2,0-0.4,0.1-0.5,0.1C86.5,72.9,86.3,73,86.2,73z"/>
		<path class="st44" d="M72.8,72.8c0.3,0.1,0.7,0.2,1,0.3c-0.2,0-0.3-0.1-0.5-0.1C73.2,72.8,73,72.8,72.8,72.8z"/>
		<path class="st44" d="M89.3,72.1c0,0,0.1,0,0.1,0c0,0,0.1,0,0.1,0C89.5,72,89.4,72,89.3,72.1z"/>
		<path class="st44" d="M69,71.4c-0.1-0.1-0.2-0.1-0.4-0.2C68.8,71.3,68.9,71.4,69,71.4z"/>
		<path class="st44" d="M88.6,72.3c0.3-0.1,0.5-0.2,0.8-0.3c0,0-0.1,0-0.1,0C89.1,72.1,88.9,72.2,88.6,72.3z"/>
		<path class="st44" d="M77.5,73.6c0.8,0.1,1.6,0.1,2.5,0.1c-0.9,0-1.7-0.1-2.6-0.1C77.5,73.6,77.5,73.6,77.5,73.6z"/>
		<path class="st44" d="M91.3,71.2c-0.1,0.1-0.2,0.1-0.4,0.2C91.1,71.4,91.2,71.3,91.3,71.2z"/>
		<path class="st44" d="M75,73.3c0.1,0,0.1,0,0.2,0c0.4,0.1,0.7,0.1,1.1,0.2C75.8,73.4,75.4,73.3,75,73.3z"/>
		<path class="st44" d="M70.5,72c0.3,0.1,0.5,0.2,0.8,0.3c-0.2-0.1-0.5-0.2-0.7-0.3C70.6,72,70.6,72,70.5,72z"/>
		<path class="st44" d="M82.5,73.6c-0.8,0.1-1.6,0.1-2.5,0.1C80.8,73.7,81.7,73.7,82.5,73.6z"/>
		<path class="st44" d="M70.4,72C70.5,72,70.5,72,70.4,72c0.1,0.1,0.2,0.1,0.2,0.1C70.6,72,70.5,72,70.4,72z"/>
		<path class="st44" d="M80,73.7c-0.8,0-1.7,0-2.5-0.1C78.3,73.7,79.2,73.7,80,73.7z"/>
		<path class="st44" d="M69.6,71.7c0.1,0,0.2,0.1,0.3,0.2c0.2,0.1,0.3,0.1,0.5,0.2C70.2,71.9,69.9,71.8,69.6,71.7z"/>
		<path class="st44" d="M89.6,72c0.2-0.1,0.3-0.1,0.5-0.2c0.1,0,0.2-0.1,0.3-0.2C90.1,71.8,89.8,71.9,89.6,72z"/>
		<path class="st44" d="M90,71.8c0.3-0.1,0.6-0.3,1-0.4c-0.2,0.1-0.4,0.2-0.6,0.2C90.2,71.7,90.1,71.8,90,71.8z"/>
		<path class="st44" d="M76.7,73.5c0.2,0,0.4,0.1,0.6,0.1c0,0,0.1,0,0.1,0C77.2,73.6,77,73.6,76.7,73.5z"/>
		<path class="st44" d="M69,71.4c0.3,0.1,0.6,0.3,1,0.4c-0.1,0-0.2-0.1-0.3-0.2C69.4,71.6,69.2,71.5,69,71.4z"/>
		<path class="st44" d="M63.3,68L63.3,68c-0.5-0.4-0.9-0.8-1.4-1.2c0.6,0.5,1.2,1,1.8,1.5c0,0-0.1-0.1-0.1-0.1    C63.5,68.1,63.4,68.1,63.3,68z"/>
		<path class="st44" d="M87.7,72.6c0.3-0.1,0.6-0.2,1-0.3c-0.2,0.1-0.3,0.1-0.5,0.2C88,72.5,87.8,72.6,87.7,72.6z"/>
		<path class="st44" d="M71.4,72.3c0.3,0.1,0.6,0.2,1,0.3c-0.2,0-0.3-0.1-0.4-0.2C71.7,72.4,71.5,72.4,71.4,72.3z"/>
		<path class="st10" d="M80,19.5c-15,0-27.1,12.1-27.1,27.1c0,8,3.5,15.2,9,20.2c0.4,0.4,0.9,0.8,1.4,1.1v-6.1c0-3,1.5-5.8,4-7.5    c1.5-1,3.2-1.5,5-1.5H80c-4.4,0-12.5-5.6-12.5-12.5c0-6.9,2.1-14.6,12.5-14.6c10.4,0,12.5,7.7,12.5,14.6c0,6.9-8.1,12.5-12.5,12.5    h7.7c1.8,0,3.5,0.5,5,1.5c2.5,1.7,4,4.5,4,7.5v6.1c0.5-0.4,0.9-0.7,1.4-1.1c5.5-5,9-12.1,9-20.2c0-7-2.6-13.3-6.9-18.1    C95.2,23,88,19.5,80,19.5z"/>
		<path class="st44" d="M96.7,67.9L96.7,67.9c-0.1,0.1-0.2,0.2-0.3,0.3c0,0-0.1,0.1-0.1,0.1c0.6-0.5,1.2-1,1.8-1.5    C97.6,67.2,97.2,67.6,96.7,67.9z"/>
		<path class="st44" d="M95.8,68.6c0.1-0.1,0.3-0.2,0.4-0.3c0,0,0.1,0,0.1-0.1c0,0,0.1-0.1,0.1-0.1C96.2,68.3,96,68.5,95.8,68.6z"/>
		<path class="st44" d="M94.5,69.5c-0.1,0-0.1,0.1-0.2,0.1c0.6-0.4,1.3-0.8,1.9-1.3c-0.1,0.1-0.3,0.2-0.4,0.3    C95.4,68.9,94.9,69.2,94.5,69.5z"/>
		<path class="st44" d="M87.4,72.7c0.1,0,0.2,0,0.3-0.1c0.2,0,0.3-0.1,0.4-0.2C87.9,72.6,87.6,72.6,87.4,72.7z"/>
		<path class="st44" d="M91.3,71.2c0.2-0.1,0.3-0.1,0.4-0.2c0,0-0.1,0-0.1,0.1C91.5,71.1,91.4,71.2,91.3,71.2z"/>
		<path class="st44" d="M91.6,71.1c0,0,0.1,0,0.1-0.1c0.1-0.1,0.3-0.1,0.4-0.2c0.1,0,0.2-0.1,0.3-0.1C92.2,70.8,91.9,71,91.6,71.1z"/>
		<path class="st44" d="M93.7,70c0.1-0.1,0.2-0.1,0.3-0.2c0.1,0,0.2-0.1,0.2-0.1c0.1,0,0.1-0.1,0.2-0.1C94.2,69.7,94,69.8,93.7,70z"/>
		<path class="st44" d="M92.5,70.7c-0.1,0-0.2,0.1-0.3,0.1c0.6-0.3,1.2-0.7,1.9-1c-0.1,0.1-0.2,0.1-0.3,0.2    C93.3,70.2,92.9,70.4,92.5,70.7z"/>
		<path class="st44" d="M85.2,73.2c0.3-0.1,0.6-0.1,0.9-0.2c-0.1,0-0.2,0.1-0.4,0.1C85.6,73.1,85.4,73.2,85.2,73.2z"/>
		<path class="st44" d="M82.7,73.6c0.3,0,0.5-0.1,0.8-0.1c-0.1,0-0.1,0-0.2,0C83.1,73.5,82.9,73.6,82.7,73.6z"/>
		<path class="st44" d="M71.9,72.5c0.2,0,0.3,0.1,0.4,0.2c0.1,0,0.2,0.1,0.3,0.1C72.4,72.6,72.1,72.6,71.9,72.5z"/>
		<path class="st44" d="M82.6,73.6c0,0,0.1,0,0.1,0c0.2,0,0.4-0.1,0.6-0.1C83,73.6,82.8,73.6,82.6,73.6z"/>
		<path class="st44" d="M68.2,71c0.1,0.1,0.3,0.1,0.4,0.2c-0.1,0-0.2-0.1-0.3-0.1C68.3,71.1,68.3,71,68.2,71z"/>
		<path class="st44" d="M73.8,73c0.3,0.1,0.6,0.2,0.9,0.2c-0.2,0-0.4-0.1-0.6-0.1C74.1,73.1,74,73,73.8,73z"/>
		<path class="st44" d="M67.5,70.7c0.1,0,0.2,0.1,0.3,0.1c0.1,0.1,0.3,0.1,0.4,0.2c0,0,0.1,0,0.1,0.1C68.1,71,67.8,70.8,67.5,70.7z"/>
		<path class="st44" d="M66.3,70c-0.1-0.1-0.2-0.1-0.3-0.2c0.6,0.4,1.2,0.7,1.9,1c-0.1,0-0.2-0.1-0.3-0.1    C67.1,70.4,66.7,70.2,66.3,70z"/>
		<path class="st44" d="M76.5,73.5c0.3,0,0.5,0.1,0.8,0.1c-0.2,0-0.4-0.1-0.6-0.1C76.7,73.5,76.6,73.5,76.5,73.5z"/>
		<path class="st44" d="M74.2,73.1c0.2,0,0.4,0.1,0.6,0.1c0.1,0,0.1,0,0.2,0C74.7,73.2,74.5,73.2,74.2,73.1z"/>
		<path class="st44" d="M64.2,68.6c-0.1-0.1-0.3-0.2-0.4-0.3c0.6,0.5,1.2,0.9,1.9,1.3c-0.1,0-0.1-0.1-0.2-0.1    C65.1,69.2,64.6,68.9,64.2,68.6z"/>
		<path class="st44" d="M63.6,68.2c0,0,0.1,0.1,0.1,0.1c0,0,0.1,0,0.1,0.1c0.1,0.1,0.3,0.2,0.4,0.3C64,68.5,63.8,68.3,63.6,68.2z"/>
		<path class="st44" d="M85,73.3c0.1,0,0.1,0,0.2,0c0.2,0,0.4-0.1,0.6-0.1C85.5,73.2,85.3,73.2,85,73.3z"/>
		<path class="st44" d="M65.5,69.5c0.1,0,0.1,0.1,0.2,0.1c0.1,0,0.2,0.1,0.2,0.1c0.1,0.1,0.2,0.1,0.3,0.2    C66,69.8,65.8,69.7,65.5,69.5z"/>
		<path class="st44" d="M96.7,68L96.7,68c-0.1,0.1-0.2,0.1-0.3,0.2C96.5,68.1,96.6,68.1,96.7,68z"/>
		<path class="st44" d="M76.2,73.5c0.1,0,0.2,0,0.3,0c0.1,0,0.1,0,0.2,0C76.6,73.5,76.4,73.5,76.2,73.5z"/>
		<path class="st44" d="M73.3,72.9c0.2,0,0.3,0.1,0.5,0.1c0.1,0,0.2,0.1,0.4,0.1C73.9,73,73.6,73,73.3,72.9z"/>
		<path class="st44" d="M95.8,68.6c-0.4,0.3-0.9,0.6-1.3,0.9C94.9,69.2,95.4,68.9,95.8,68.6z"/>
		<path class="st44" d="M70.7,72.1c0.2,0.1,0.5,0.2,0.7,0.3c0.2,0.1,0.3,0.1,0.5,0.2C71.5,72.3,71.1,72.2,70.7,72.1z"/>
		<path class="st44" d="M83.3,73.5c0.1,0,0.1,0,0.2,0c0.1,0,0.2,0,0.3,0C83.6,73.5,83.4,73.5,83.3,73.5z"/>
		<path class="st44" d="M66.3,70c0.4,0.2,0.8,0.5,1.3,0.7C67.1,70.4,66.7,70.2,66.3,70z"/>
		<path class="st44" d="M85.8,73.1c0.1,0,0.2-0.1,0.4-0.1c0.2,0,0.3-0.1,0.5-0.1C86.4,73,86.1,73,85.8,73.1z"/>
		<path class="st44" d="M93.7,70c-0.4,0.2-0.8,0.5-1.3,0.7C92.9,70.4,93.3,70.2,93.7,70z"/>
		<path class="st45" d="M83.3,73.5c0.2,0,0.3,0,0.5-0.1c0.4-0.1,0.8-0.1,1.3-0.2c0.3,0,0.5-0.1,0.8-0.2c0.3-0.1,0.6-0.1,0.9-0.2    c0.2-0.1,0.5-0.1,0.7-0.2c0.3-0.1,0.5-0.2,0.8-0.2c0.4-0.1,0.8-0.3,1.2-0.4c0.1,0,0.2-0.1,0.2-0.1c0.3-0.1,0.5-0.2,0.8-0.3    c0.4-0.2,0.9-0.4,1.3-0.6c0.3-0.1,0.6-0.3,0.8-0.4c0.4-0.2,0.9-0.5,1.3-0.7c0.2-0.1,0.5-0.3,0.7-0.4c0.4-0.3,0.9-0.6,1.3-0.9    c0.2-0.1,0.4-0.3,0.6-0.4c0.1-0.1,0.2-0.2,0.3-0.3v-6.1c0-3-1.5-5.8-4-7.5c-1.5-1-3.2-1.5-5-1.5H80l4.2,10.4L80,67.5l-4.2-4.2    L80,52.9h-7.7c-1.8,0-3.5,0.5-5,1.5c-2.5,1.7-4,4.5-4,7.5v6.1c0.1,0.1,0.2,0.2,0.3,0.3c0.2,0.1,0.4,0.3,0.6,0.4    c0.4,0.3,0.9,0.6,1.3,0.9c0.2,0.2,0.5,0.3,0.7,0.4c0.4,0.2,0.8,0.5,1.3,0.7c0.3,0.1,0.6,0.3,0.8,0.4c0.4,0.2,0.8,0.4,1.3,0.6    c0.3,0.1,0.5,0.2,0.8,0.3c0.1,0,0.2,0.1,0.2,0.1c0.4,0.1,0.8,0.3,1.2,0.4c0.3,0.1,0.5,0.2,0.8,0.2c0.2,0.1,0.5,0.1,0.7,0.2    c0.3,0.1,0.6,0.1,0.9,0.2c0.3,0.1,0.5,0.1,0.8,0.2c0.4,0.1,0.8,0.1,1.3,0.2c0.2,0,0.3,0.1,0.5,0.1c0.2,0,0.5,0.1,0.7,0.1    c0.8,0.1,1.7,0.1,2.6,0.1s1.7-0.1,2.6-0.1C82.8,73.6,83,73.6,83.3,73.5z"/>
		<path class="st44" d="M68.4,71.1c0.1,0,0.2,0.1,0.3,0.1c0.1,0.1,0.2,0.1,0.4,0.2c0.2,0.1,0.4,0.2,0.6,0.2    C69.2,71.5,68.8,71.3,68.4,71.1z"/>
		<path class="st44" d="M64.2,68.6c0.4,0.3,0.9,0.6,1.3,0.9C65.1,69.2,64.6,68.9,64.2,68.6z"/>
		<path class="st44" d="M90.4,71.7c0.2-0.1,0.4-0.2,0.6-0.2c0.1-0.1,0.2-0.1,0.4-0.2c0.1,0,0.2-0.1,0.3-0.1    C91.2,71.3,90.8,71.5,90.4,71.7z"/>
		<path class="st44" d="M88.1,72.5c0.2-0.1,0.3-0.1,0.5-0.2c0.2-0.1,0.5-0.2,0.7-0.3C88.9,72.2,88.5,72.3,88.1,72.5z"/>
		<path class="st44" d="M63.6,68.2c-0.1-0.1-0.2-0.2-0.3-0.3v0C63.4,68.1,63.5,68.1,63.6,68.2z"/>
		<path class="st46" d="M92.5,40.4l-10.4-6.3c-2.1,6.3-14.6,6.3-14.6,6.3c0,6.9,8.1,12.5,12.5,12.5C84.4,52.9,92.5,47.3,92.5,40.4z"/>
		<path class="st45" d="M82.1,34.1l10.4,6.3c0-6.9-2.1-14.6-12.5-14.6c-10.4,0-12.5,7.7-12.5,14.6C67.5,40.4,80,40.4,82.1,34.1z"/>
		<path class="st44" d="M80,67.5l4.2-4.2L80,52.9l-4.2,10.4L80,67.5z"/>
		<path class="st44" d="M118.4,140c-0.5,0.1-1,0.2-1.6,0.2C117.4,140.2,117.9,140.1,118.4,140z"/>
		<path class="st44" d="M102.4,138.1c-0.1-0.1-0.2-0.1-0.4-0.2C102.1,138,102.3,138.1,102.4,138.1z"/>
		<path class="st44" d="M109.9,140.2c-0.5-0.1-1-0.1-1.6-0.2C108.8,140.1,109.4,140.2,109.9,140.2z"/>
		<path class="st44" d="M115.9,140.3c-0.8,0.1-1.7,0.1-2.6,0.1C114.2,140.5,115.1,140.4,115.9,140.3z"/>
		<path class="st44" d="M120.7,139.4c-0.4,0.1-0.8,0.2-1.2,0.3C119.9,139.6,120.3,139.5,120.7,139.4z"/>
		<path class="st44" d="M113.4,140.5c-0.9,0-1.7,0-2.6-0.1C111.6,140.4,112.5,140.5,113.4,140.5z"/>
		<path class="st44" d="M122.9,138.7c-0.3,0.1-0.6,0.2-0.9,0.3C122.3,138.9,122.6,138.8,122.9,138.7z"/>
		<path class="st44" d="M104.7,139c-0.3-0.1-0.6-0.2-0.9-0.3C104.1,138.8,104.4,138.9,104.7,139z"/>
		<path class="st44" d="M107.2,139.7c-0.4-0.1-0.8-0.2-1.2-0.3C106.4,139.5,106.8,139.6,107.2,139.7z"/>
		<path class="st44" d="M124.7,138c-0.1,0.1-0.2,0.1-0.4,0.2C124.5,138.1,124.6,138,124.7,138z"/>
		<path class="st44" d="M110.8,140.3c-0.3,0-0.6-0.1-0.9-0.1C110.2,140.3,110.5,140.3,110.8,140.3z"/>
		<path class="st44" d="M116.8,140.2c-0.3,0-0.6,0.1-0.9,0.1C116.2,140.3,116.5,140.3,116.8,140.2z"/>
		<path class="st44" d="M124.3,138.1c-0.5,0.2-0.9,0.4-1.4,0.6C123.4,138.5,123.9,138.3,124.3,138.1z"/>
		<path class="st44" d="M122,139c-0.4,0.1-0.8,0.3-1.3,0.4C121.2,139.3,121.6,139.2,122,139z"/>
		<path class="st44" d="M119.5,139.7c-0.4,0.1-0.7,0.2-1.1,0.2C118.8,139.9,119.1,139.8,119.5,139.7z"/>
		<path class="st44" d="M106,139.4c-0.4-0.1-0.8-0.2-1.3-0.4C105.1,139.2,105.6,139.3,106,139.4z"/>
		<path class="st44" d="M108.3,140c-0.4-0.1-0.8-0.2-1.1-0.2C107.6,139.8,108,139.9,108.3,140z"/>
		<path class="st44" d="M103.8,138.7c-0.5-0.2-1-0.4-1.4-0.6C102.8,138.3,103.3,138.5,103.8,138.7z"/>
		<path class="st10" d="M113.4,86.3c-15,0-27.1,12.1-27.1,27.1c0,10.9,6.5,20.3,15.8,24.6c-1.9-0.9-3.7-2-5.3-3.3v-6.1    c0-3,1.5-5.8,4-7.5c1.5-1,3.2-1.5,5-1.5h7.7c-4.4,0-12.5-5.6-12.5-12.5s2.1-14.6,12.5-14.6c10.4,0,12.5,7.7,12.5,14.6    s-8.1,12.5-12.5,12.5h7.7c1.8,0,3.5,0.5,5,1.5c2.5,1.7,4,4.5,4,7.5v6.1c-1.6,1.3-3.4,2.4-5.3,3.3c9.3-4.3,15.8-13.7,15.8-24.6    C140.5,98.4,128.3,86.3,113.4,86.3z"/>
		<path class="st45" d="M130,128.6c0-3-1.5-5.8-4-7.5c-1.5-1-3.2-1.5-5-1.5h-7.7l4.2,10.4l-4.2,4.2l-4.2-4.2l4.2-10.4h-7.7    c-1.8,0-3.5,0.5-5,1.5c-2.5,1.7-4,4.5-4,7.5v6.1c1.6,1.3,3.4,2.4,5.3,3.3c0.1,0.1,0.2,0.1,0.4,0.2c0.5,0.2,0.9,0.4,1.4,0.6    c0.3,0.1,0.6,0.2,0.9,0.3c0.4,0.1,0.8,0.3,1.3,0.4c0.4,0.1,0.8,0.2,1.2,0.3c0.4,0.1,0.7,0.2,1.1,0.2c0.5,0.1,1,0.2,1.6,0.2    c0.3,0,0.6,0.1,0.9,0.1c0.8,0.1,1.7,0.1,2.6,0.1c0.9,0,1.7-0.1,2.6-0.1c0.3,0,0.6-0.1,0.9-0.1c0.5-0.1,1-0.1,1.6-0.2    c0.4-0.1,0.8-0.2,1.1-0.2c0.4-0.1,0.8-0.2,1.2-0.3c0.4-0.1,0.8-0.2,1.3-0.4c0.3-0.1,0.6-0.2,0.9-0.3c0.5-0.2,1-0.4,1.4-0.6    c0.1-0.1,0.2-0.1,0.4-0.2c1.9-0.9,3.7-2,5.3-3.3V128.6z"/>
		<path class="st45" d="M115.4,100.9l10.4,6.3c0-6.9-2.1-14.6-12.5-14.6c-10.4,0-12.5,7.7-12.5,14.6    C100.8,107.1,113.4,107.1,115.4,100.9z"/>
		<path class="st46" d="M125.9,107.1l-10.4-6.3c-2.1,6.3-14.6,6.3-14.6,6.3c0,6.9,8.1,12.5,12.5,12.5    C117.8,119.6,125.9,114,125.9,107.1z"/>
		<path class="st44" d="M113.4,134.2l4.2-4.2l-4.2-10.4l-4.2,10.4L113.4,134.2z"/>
		<path class="st44" d="M46.1,122.1c-0.7,0.3-1.5,0.7-2.3,0.9C44.6,122.7,45.4,122.4,46.1,122.1z"/>
		<path class="st10" d="M27.9,115.4c0-5.8,4.7-10.4,10.4-10.4c-3.5,0-6.3-2.8-6.3-6.3c0-3.5,2.8-6.3,6.3-6.3c3.5,0,6.3,2.8,6.3,6.3    c0,3.5-2.8,6.3-6.3,6.3c5.8,0,10.4,4.7,10.4,10.4v5.2c-0.7,0.4-1.4,0.8-2.1,1.2c6.2-3.1,10.4-9.4,10.4-16.8    c0-10.4-8.4-18.8-18.8-18.8c-10.4,0-18.8,8.4-18.8,18.8c0,7.4,4.3,13.7,10.4,16.8c-0.7-0.4-1.4-0.8-2.1-1.2V115.4z"/>
		<path class="st44" d="M32.8,123c-0.8-0.2-1.6-0.6-2.3-0.9C31.2,122.4,32,122.7,32.8,123z"/>
		<path class="st44" d="M43.8,123c-0.8,0.2-1.6,0.4-2.4,0.5C42.3,123.4,43.1,123.2,43.8,123z"/>
		<path class="st44" d="M38.3,123.8c0.9,0,1.7-0.1,2.5-0.2C40,123.7,39.2,123.8,38.3,123.8z"/>
		<path class="st44" d="M38.3,123.8c-0.9,0-1.7-0.1-2.5-0.2C36.6,123.7,37.4,123.8,38.3,123.8z"/>
		<path class="st44" d="M35.2,123.5c-0.8-0.1-1.6-0.3-2.4-0.5C33.5,123.2,34.3,123.4,35.2,123.5z"/>
		<path class="st47" d="M38.3,105c3.5,0,6.3-2.8,6.3-6.3s-2.8-6.3-6.3-6.3S32,95.3,32,98.8S34.8,105,38.3,105z"/>
		<path class="st44" d="M43.8,123C43.8,123,43.8,123,43.8,123C43.8,123,43.8,123,43.8,123z"/>
		<path class="st44" d="M41.4,123.5c-0.2,0-0.4,0.1-0.6,0.1C41,123.6,41.2,123.5,41.4,123.5z"/>
		<path class="st44" d="M46.6,121.8c-0.2,0.1-0.3,0.2-0.5,0.2C46.3,122,46.5,121.9,46.6,121.8z"/>
		<path class="st44" d="M35.8,123.6c-0.2,0-0.4-0.1-0.6-0.1C35.4,123.5,35.6,123.6,35.8,123.6z"/>
		<path class="st44" d="M30.5,122.1c-0.2-0.1-0.3-0.2-0.5-0.2C30.1,121.9,30.3,122,30.5,122.1z"/>
		<path class="st44" d="M32.8,123C32.8,123,32.8,123,32.8,123C32.8,123,32.8,123,32.8,123z"/>
		<path class="st47" d="M41.4,123.5c0.8-0.1,1.6-0.3,2.4-0.5c0,0,0,0,0,0c0.8-0.2,1.6-0.6,2.3-0.9c0.2-0.1,0.3-0.2,0.5-0.2    c0.7-0.4,1.4-0.8,2.1-1.2v-5.2c0-5.8-4.7-10.4-10.4-10.4s-10.4,4.7-10.4,10.4v5.2c0.7,0.4,1.4,0.8,2.1,1.2    c0.2,0.1,0.3,0.2,0.5,0.2c0.7,0.3,1.5,0.7,2.3,0.9c0,0,0,0,0,0c0.8,0.2,1.6,0.4,2.4,0.5c0.2,0,0.4,0.1,0.6,0.1    c0.8,0.1,1.7,0.2,2.5,0.2c0.9,0,1.7-0.1,2.5-0.2C41,123.6,41.2,123.5,41.4,123.5z"/>
		<path class="st10" d="M63.3,140.5c2.3,0,4.2-1.9,4.2-4.2s-1.9-4.2-4.2-4.2c-2.3,0-4.2,1.9-4.2,4.2S61,140.5,63.3,140.5z"/>
		<path class="st10" d="M23.7,27.9c2.3,0,4.2-1.9,4.2-4.2s-1.9-4.2-4.2-4.2s-4.2,1.9-4.2,4.2S21.4,27.9,23.7,27.9z"/>
		<path class="st10" d="M132.1,69.6c4.6,0,8.3-3.7,8.3-8.3c0-4.6-3.7-8.3-8.3-8.3s-8.3,3.7-8.3,8.3    C123.8,65.8,127.5,69.6,132.1,69.6z"/>
		<path class="st44" d="M136.3,27.9c2.3,0,4.2-1.9,4.2-4.2s-1.9-4.2-4.2-4.2s-4.2,1.9-4.2,4.2S134,27.9,136.3,27.9z"/>
		<path d="M130.4,25.8c0.9,2.4,3.2,4.2,5.9,4.2c3.4,0,6.3-2.8,6.3-6.3c0-3.4-2.8-6.3-6.3-6.3c-2.7,0-5,1.7-5.9,4.2H105    c-0.6,0-1.1,0.2-1.5,0.6l-3.4,3.4c-5.2-5-12.3-8.1-20.2-8.1c-15.4,0-28,12-29.1,27.1H33.4l-6.8-15.3c2-1,3.4-3.1,3.4-5.5    c0-3.4-2.8-6.3-6.3-6.3c-3.4,0-6.3,2.8-6.3,6.3c0,3,2.1,5.4,4.8,6.1l7.9,17.7c0.3,0.8,1.1,1.2,1.9,1.2h18.9c0.5,7,3.5,13.3,8,18.1    L41.4,84.4c-1-0.1-2-0.3-3.1-0.3c-11.5,0-20.9,9.4-20.9,20.9c0,7.2,3.7,13.5,9.2,17.3c0,0,0,0,0,0c0.1,0.1,0.2,0.1,0.3,0.2    c0.7,0.4,1.4,0.8,2.1,1.2c0.2,0.1,0.4,0.2,0.7,0.3c0.8,0.4,1.6,0.7,2.5,1c0.1,0,0.2,0,0.3,0.1c0.8,0.2,1.6,0.4,2.4,0.5    c0.2,0,0.5,0.1,0.7,0.1c0.2,0,0.4,0.1,0.7,0.1v10.5c0,1.2,0.9,2.1,2.1,2.1h19.1c0.9,2.4,3.2,4.2,5.9,4.2c3.4,0,6.3-2.8,6.3-6.3    c0-3.4-2.8-6.3-6.3-6.3c-2.7,0-5,1.7-5.9,4.2H40.4v-8.4c0.2,0,0.4-0.1,0.7-0.1c0.2,0,0.5-0.1,0.7-0.1c0.8-0.1,1.6-0.3,2.4-0.5    c0.1,0,0.2,0,0.3-0.1c0.9-0.3,1.7-0.6,2.5-1c0.2-0.1,0.4-0.2,0.7-0.3c0.7-0.4,1.4-0.7,2.1-1.2c0.1-0.1,0.2-0.1,0.3-0.2    c0,0,0,0,0,0c5.6-3.7,9.2-10.1,9.2-17.3c0-8.8-5.5-16.3-13.1-19.4l16-16c0.2,0.2,0.4,0.3,0.6,0.5c0.4,0.3,0.8,0.6,1.3,0.9    c0.4,0.3,0.9,0.5,1.3,0.8c0.4,0.2,0.8,0.5,1.2,0.7c0.7,0.3,1.3,0.7,2,1c0.2,0.1,0.5,0.2,0.7,0.3c0.6,0.2,1.2,0.5,1.9,0.7    c0.3,0.1,0.5,0.2,0.8,0.2c0.6,0.2,1.2,0.3,1.9,0.5c0.3,0.1,0.6,0.1,0.8,0.2c0.6,0.1,1.3,0.2,2,0.3c0.3,0,0.5,0.1,0.8,0.1    c0.9,0.1,1.8,0.1,2.8,0.1s1.8-0.1,2.8-0.1c0.3,0,0.5-0.1,0.8-0.1c0.7-0.1,1.3-0.2,2-0.3c0.3-0.1,0.6-0.1,0.8-0.2    c0.6-0.1,1.2-0.3,1.9-0.5c0.3-0.1,0.5-0.2,0.8-0.2c0.6-0.2,1.2-0.4,1.9-0.7c0.2-0.1,0.5-0.2,0.7-0.3c0.7-0.3,1.3-0.6,2-1    c0.4-0.2,0.8-0.5,1.2-0.7c0.4-0.3,0.9-0.5,1.3-0.8c0.4-0.3,0.9-0.6,1.3-0.9c0.2-0.2,0.4-0.3,0.6-0.5l14.6,14.6    c-15.7,0.4-28.4,13.3-28.4,29.1c0,9.3,4.4,17.6,11.2,22.9c0,0,0,0,0,0c0.2,0.2,0.4,0.3,0.6,0.5c0.4,0.3,0.8,0.6,1.3,0.9    c0.4,0.3,0.9,0.5,1.3,0.8c0.4,0.2,0.8,0.5,1.2,0.7c0.7,0.3,1.3,0.7,2,1c0.2,0.1,0.5,0.2,0.7,0.3c0.6,0.2,1.2,0.5,1.9,0.7    c0.3,0.1,0.5,0.2,0.8,0.2c0.6,0.2,1.2,0.3,1.9,0.5c0.3,0.1,0.6,0.1,0.8,0.2c0.6,0.1,1.3,0.2,2,0.3c0.3,0,0.5,0.1,0.8,0.1    c0.9,0.1,1.8,0.1,2.8,0.1c0.9,0,1.8-0.1,2.8-0.1c0.3,0,0.5-0.1,0.8-0.1c0.7-0.1,1.3-0.2,2-0.3c0.3-0.1,0.6-0.1,0.8-0.2    c0.6-0.1,1.2-0.3,1.9-0.5c0.3-0.1,0.5-0.2,0.8-0.2c0.6-0.2,1.2-0.4,1.9-0.7c0.2-0.1,0.5-0.2,0.7-0.3c0.7-0.3,1.3-0.6,2-1    c0.4-0.2,0.8-0.5,1.2-0.7c0.4-0.3,0.9-0.5,1.3-0.8c0.4-0.3,0.9-0.6,1.3-0.9c0.2-0.2,0.4-0.3,0.6-0.5c0,0,0,0,0,0    c6.8-5.4,11.2-13.6,11.2-22.9c0-14.2-10.2-26-23.6-28.6L101,66.8c4.6-4.8,7.5-11.1,8-18.1h21V51c-4.8,1-8.3,5.2-8.3,10.2    c0,5.7,4.7,10.4,10.4,10.4c5.7,0,10.4-4.7,10.4-10.4c0-5-3.6-9.2-8.3-10.2v-4.4c0-1.2-0.9-2.1-2.1-2.1h-23    c-0.4-6-2.6-11.4-6.1-15.9l2.9-2.9H130.4z M136.3,21.6c1.2,0,2.1,0.9,2.1,2.1s-0.9,2.1-2.1,2.1c-1.2,0-2.1-0.9-2.1-2.1    S135.1,21.6,136.3,21.6z M23.7,21.6c1.2,0,2.1,0.9,2.1,2.1s-0.9,2.1-2.1,2.1c-1.2,0-2.1-0.9-2.1-2.1S22.6,21.6,23.7,21.6z     M63.3,134.2c1.2,0,2.1,0.9,2.1,2.1c0,1.1-0.9,2.1-2.1,2.1c-1.2,0-2.1-0.9-2.1-2.1C61.2,135.1,62.2,134.2,63.3,134.2z M34.1,98.8    c0-2.3,1.9-4.2,4.2-4.2c2.3,0,4.2,1.9,4.2,4.2s-1.9,4.2-4.2,4.2C36,102.9,34.1,101.1,34.1,98.8z M38.3,107.1    c4.6,0,8.3,3.7,8.3,8.3v4c-0.1,0-0.1,0.1-0.2,0.1c-5,2.8-11.3,2.8-16.3,0c-0.1,0-0.1-0.1-0.2-0.1v-4    C30,110.8,33.7,107.1,38.3,107.1z M55,105c0,4.2-1.6,8.1-4.2,11v-0.6c0-4.7-2.6-8.8-6.5-11c1.4-1.5,2.3-3.5,2.3-5.7    c0-4.6-3.7-8.3-8.3-8.3c-4.6,0-8.3,3.7-8.3,8.3c0,2.2,0.9,4.2,2.3,5.7c-3.9,2.1-6.5,6.2-6.5,11v0.6c-2.6-2.9-4.2-6.8-4.2-11    c0-9.2,7.5-16.7,16.7-16.7S55,95.8,55,105z M138.4,61.2c0,3.4-2.8,6.3-6.3,6.3c-3.4,0-6.3-2.8-6.3-6.3c0-3.4,2.8-6.3,6.3-6.3    C135.6,55,138.4,57.8,138.4,61.2z M82.9,37l7.5,4.5c-0.8,5.1-7.1,9.3-10.3,9.3c-3,0-8.8-3.7-10.1-8.4C73.4,42.1,79.9,41,82.9,37z     M69.7,38.2c0.6-7,3.9-10.3,10.3-10.3c5.9,0,9.2,2.8,10.1,8.6l-6.9-4.2C82.6,32,82,32,81.4,32.2c-0.6,0.2-1.1,0.7-1.3,1.3    C79.1,36.6,73.4,37.8,69.7,38.2z M80,58.5l1.7,4.3L80,64.5l-1.7-1.7L80,58.5z M76.9,55l-3,7.6c-0.3,0.8-0.1,1.7,0.5,2.2l4.2,4.2    c0.4,0.4,0.9,0.6,1.5,0.6s1.1-0.2,1.5-0.6l4.2-4.2c0.6-0.6,0.8-1.5,0.5-2.2l-3-7.6h4.6c1.4,0,2.7,0.4,3.8,1.2    c1.9,1.3,3.1,3.4,3.1,5.7v5c-0.5,0.3-0.9,0.6-1.4,0.9c-0.2,0.1-0.3,0.2-0.5,0.3c-0.5,0.3-1,0.6-1.5,0.8c-0.2,0.1-0.4,0.2-0.6,0.3    c-0.5,0.2-1,0.5-1.5,0.7c-0.2,0.1-0.5,0.2-0.7,0.3c-0.5,0.2-1,0.3-1.5,0.5c-0.3,0.1-0.6,0.2-0.9,0.2c-0.4,0.1-0.8,0.2-1.3,0.3    c0,0-0.1,0-0.1,0c-0.4,0.1-0.8,0.1-1.2,0.2c-0.3,0-0.6,0.1-0.8,0.1c-0.1,0-0.2,0-0.3,0c-0.8,0.1-1.5,0.1-2.3,0.1s-1.6,0-2.3-0.1    c-0.1,0-0.2,0-0.3,0c-0.3,0-0.6-0.1-0.8-0.1c-0.4-0.1-0.8-0.1-1.2-0.2c0,0-0.1,0-0.1,0c-0.4-0.1-0.9-0.2-1.3-0.3    c-0.3-0.1-0.6-0.1-0.9-0.2c-0.5-0.1-1-0.3-1.5-0.5c-0.2-0.1-0.5-0.2-0.7-0.3c-0.5-0.2-1-0.4-1.5-0.7c-0.2-0.1-0.4-0.2-0.6-0.3    c-0.5-0.3-1-0.5-1.5-0.8c-0.2-0.1-0.3-0.2-0.5-0.3c-0.5-0.3-0.9-0.6-1.4-0.9v-5c0-2.3,1.1-4.4,3.1-5.7c1.1-0.8,2.5-1.2,3.8-1.2    H76.9z M116.2,103.8l7.5,4.5c-0.8,5.1-7.1,9.3-10.3,9.3c-3,0-8.8-3.7-10.1-8.4C106.8,108.8,113.2,107.7,116.2,103.8z M103,104.9    c0.6-7,3.9-10.3,10.3-10.3c5.9,0,9.2,2.8,10.1,8.6l-6.9-4.2c-0.5-0.3-1.2-0.4-1.8-0.2c-0.6,0.2-1.1,0.7-1.3,1.3    C112.4,103.4,106.7,104.6,103,104.9z M113.4,125.2l1.7,4.3l-1.7,1.7l-1.7-1.7L113.4,125.2z M110.3,121.7l-3,7.6    c-0.3,0.8-0.1,1.7,0.5,2.2l4.2,4.2c0.4,0.4,0.9,0.6,1.5,0.6c0.5,0,1.1-0.2,1.5-0.6l4.2-4.2c0.6-0.6,0.8-1.5,0.5-2.2l-3-7.6h4.6    c1.4,0,2.7,0.4,3.8,1.2c1.9,1.3,3.1,3.4,3.1,5.7v5.1c-0.1,0-0.1,0.1-0.2,0.1c-0.4,0.2-0.7,0.5-1.1,0.7c-0.3,0.2-0.6,0.4-0.9,0.5    c-0.3,0.2-0.6,0.4-0.9,0.5c-0.4,0.2-0.9,0.4-1.3,0.6c-0.2,0.1-0.4,0.2-0.6,0.3c-0.7,0.3-1.4,0.5-2.1,0.8c-0.1,0-0.3,0.1-0.4,0.1    c-0.6,0.2-1.2,0.3-1.8,0.5c-0.2,0-0.4,0.1-0.6,0.1c-0.6,0.1-1.1,0.2-1.7,0.3c-0.2,0-0.4,0.1-0.6,0.1c-0.8,0.1-1.5,0.1-2.3,0.1    c-0.8,0-1.6,0-2.3-0.1c-0.2,0-0.4-0.1-0.6-0.1c-0.6-0.1-1.1-0.2-1.7-0.3c-0.2,0-0.4-0.1-0.6-0.1c-0.6-0.1-1.2-0.3-1.8-0.5    c-0.1,0-0.3-0.1-0.4-0.1c-0.7-0.2-1.4-0.5-2.1-0.8c-0.2-0.1-0.4-0.2-0.6-0.3c-0.4-0.2-0.9-0.4-1.3-0.6c-0.3-0.2-0.6-0.3-0.9-0.5    c-0.3-0.2-0.6-0.3-0.9-0.5c-0.4-0.2-0.7-0.5-1.1-0.7c-0.1,0-0.1-0.1-0.2-0.1v-5.1c0-2.3,1.1-4.4,3.1-5.7c1.1-0.8,2.5-1.2,3.8-1.2    H110.3z M138.4,113.4c0,6.3-2.4,12.1-6.3,16.5v-1.3c0-3.7-1.8-7.1-4.9-9.2c-1.4-1-3.1-1.5-4.7-1.8c3.1-2.7,5.5-6.4,5.5-10.5    c0-13.8-7.9-16.7-14.6-16.7c-6.7,0-14.6,2.9-14.6,16.7c0,4.1,2.4,7.8,5.5,10.5c-1.7,0.2-3.3,0.8-4.7,1.8c-3.1,2.1-4.9,5.5-4.9,9.2    v1.3c-3.9-4.4-6.3-10.2-6.3-16.5c0-13.8,11.2-25,25-25C127.2,88.3,138.4,99.6,138.4,113.4z M98.8,63.1v-1.3c0-3.7-1.8-7.1-4.9-9.2    c-1.4-1-3.1-1.5-4.7-1.8c3.1-2.7,5.5-6.4,5.5-10.5c0-13.8-7.9-16.7-14.6-16.7c-6.7,0-14.6,2.9-14.6,16.7c0,4.1,2.4,7.8,5.5,10.5    c-1.7,0.2-3.3,0.8-4.7,1.8c-3.1,2.1-4.9,5.5-4.9,9.2v1.3C57.4,58.7,55,53,55,46.6c0-13.8,11.2-25,25-25s25,11.2,25,25    C105,53,102.6,58.7,98.8,63.1z"/>
	</g>
</g>
<g id="Слой_8">
</g>
</svg>