<svg xmlns="http://www.w3.org/2000/svg" width="64.75" height="94" viewBox="0 0 64.75 94">
  <defs>
    <style>
      .cls-1 {
        fill: #3fa35d;
        fill-rule: evenodd;
      }
    </style>
  </defs>
  <path id="decor-1.svg" class="cls-1" d="M136.134,198.754c-3.938-3.946-8.526-1.488-12.28,1.388-0.916.781-4.521,4.081-4.439,4.133-1.108-.712-1.777-6.2-2.138-7.449q-3.16-10.935-6.333-21.865c-2.062-7.085-5.385-15.2-14.283-11.751-4.408,1.708-8.617,4.429-12.925,6.446-3.12,1.459-6.534,3.3-8.336,6.375-2.043,3.491-.979,7.412.682,10.825,2.931,6.022,6.9,11.71,10.309,17.471,3.37,5.693,6.438,11.521,9.614,17.32,2.306,4.211,4.807,9.326,8.677,12.38,2.839,2.24,6.409,2.846,9.639.906a12.257,12.257,0,0,0,3.912-4.275c1.969-3.138,2.382-1.907,3.036,1.1,1.225,5.642,2.245,11.478,3.811,17.034,0.805,2.855,2.136,6.422,5.27,7.392,6.347,1.964,6.314-8.828,6.566-12.415,0.71-10.133,1.035-20.294,1.749-30.434C139,208.607,139.872,202.5,136.134,198.754ZM130.8,251.442a0.017,0.017,0,0,1,0,.007C131.174,252.779,130.143,251.111,130.8,251.442Zm2.847-38.227c-0.428,6.08-.979,12.17-1.265,18.258-0.224,4.754-.209,9.513-0.649,14.257a31.564,31.564,0,0,1-.584,4.357,4.791,4.791,0,0,1-.156.467c-0.282-.888-0.754-2-0.744-1.976-0.224-.625-0.374-1.307-0.533-1.947-0.578-2.325-1.012-4.694-1.518-7.034-0.869-4.011-1.569-8.156-2.666-12.108-0.653-2.353-1.924-4.884-4.649-5.174-2.944-.314-4.76,2.144-6.143,4.325-1.55,2.446-3.312,5.276-6.542,3.8-1.884-.859-3.4-3.77-4.442-5.432-5.5-8.767-10.027-18.172-15.318-27.077-2.634-4.434-5.8-8.865-7.976-13.542-2.453-5.276.189-7.638,4.749-9.9,2.582-1.28,5.271-2.286,7.8-3.684,2.389-1.324,5.5-4,8.279-3.147,2.221,0.68,2.918,2.652,3.658,4.743,3.825,10.812,5.822,22.261,9.6,33.084,2.777,7.954,8.918,1.566,12.818-1.759C134.736,198.078,133.962,208.688,133.644,213.215Z" transform="translate(-74.25 -162.406)"/>
</svg>