<?xml version="1.0" encoding="UTF-8"?>
<!-- Generator: Adobe Illustrator 22.1.0, SVG Export Plug-In . SVG Version: 6.00 Build 0)  -->
<svg version="1.1" id="icon" xmlns="http://www.w3.org/2000/svg" xmlns:xlink="http://www.w3.org/1999/xlink" x="0px" y="0px" viewBox="0 0 486 329.8" enable-background="new 0 0 486 329.8" xml:space="preserve">
<g id="elements" opacity="0.5">
	
		<linearGradient id="SVGID_1_" gradientUnits="userSpaceOnUse" x1="-19.6058" y1="-16205.1025" x2="871.3483" y2="-16205.1025" gradientTransform="matrix(1 0 0 -1 0 -16021.4229)">
		<stop offset="0" style="stop-color:#E2B822"/>
		<stop offset="0.5319" style="stop-color:#D63C20"/>
		<stop offset="1" style="stop-color:#F91939"/>
	</linearGradient>
	<path fill="url(#SVGID_1_)" d="M452.8,175.5h-34.3c-4.5,0-8.2,3.7-8.2,8.2s3.7,8.2,8.2,8.2h34.3c4.5,0,8.2-3.7,8.2-8.2   S457.3,175.5,452.8,175.5z"/>
	
		<linearGradient id="SVGID_2_" gradientUnits="userSpaceOnUse" x1="-10.4032" y1="-16265.8643" x2="880.551" y2="-16265.8643" gradientTransform="matrix(1 0 0 -1 0 -16021.4229)">
		<stop offset="0" style="stop-color:#E2B822"/>
		<stop offset="0.5319" style="stop-color:#D63C20"/>
		<stop offset="1" style="stop-color:#F91939"/>
	</linearGradient>
	<path fill="url(#SVGID_2_)" d="M56.5,236.2H22.1c-4.5,0-8.2,3.7-8.2,8.2c0,4.5,3.7,8.2,8.2,8.2h34.3c4.5,0,8.2-3.7,8.2-8.2   C64.7,239.9,61,236.2,56.5,236.2z"/>
	
		<linearGradient id="SVGID_3_" gradientUnits="userSpaceOnUse" x1="-9.9511" y1="-16063.6602" x2="881.0031" y2="-16063.6602" gradientTransform="matrix(1 0 0 -1 0 -16021.4229)">
		<stop offset="0" style="stop-color:#E2B822"/>
		<stop offset="0.5319" style="stop-color:#D63C20"/>
		<stop offset="1" style="stop-color:#F91939"/>
	</linearGradient>
	<path fill="url(#SVGID_3_)" d="M375.9,34h-34.3c-4.5,0-8.2,3.7-8.2,8.2c0,4.5,3.7,8.2,8.2,8.2h34.3c4.5,0,8.2-3.7,8.2-8.2   C384.1,37.7,380.4,34,375.9,34z"/>
	
		<linearGradient id="SVGID_4_" gradientUnits="userSpaceOnUse" x1="-34.607" y1="-16296.9922" x2="856.3497" y2="-16296.9922" gradientTransform="matrix(1 0 0 -1 0 -16021.4229)">
		<stop offset="0" style="stop-color:#E2B822"/>
		<stop offset="0.5319" style="stop-color:#D63C20"/>
		<stop offset="1" style="stop-color:#F91939"/>
	</linearGradient>
	<path fill="url(#SVGID_4_)" d="M412.4,267.3h-20.1c0,0.2,0,0.4,0,0.6c0.1,5.1,1.2,11.7-3.1,15.5c-0.1,0.1-0.3,0.2-0.4,0.3l5.7,0   h13.9l-0.1,0h4.1c4.5,0,8.2-3.7,8.2-8.2C420.6,271,416.9,267.3,412.4,267.3z"/>
	
		<linearGradient id="SVGID_5_" gradientUnits="userSpaceOnUse" x1="-19.6059" y1="-16191.5117" x2="871.3447" y2="-16191.5117" gradientTransform="matrix(1 0 0 -1 0 -16021.4229)">
		<stop offset="0" style="stop-color:#E2B822"/>
		<stop offset="0.5319" style="stop-color:#D63C20"/>
		<stop offset="1" style="stop-color:#F91939"/>
	</linearGradient>
	<path fill="url(#SVGID_5_)" d="M86.9,133.7H36.6c-4.5,0-8.2,3.7-8.2,8.2c0,4.5,3.7,8.2,8.2,8.2h4.7l-4,0h22.4   c2.9,0,5.2,2.3,5.2,5.2c0,2.9-2.3,5.2-5.2,5.2h-28l0,0h-8.9c-4.5,0-8.2,3.7-8.2,8.2c0,4.5,3.7,8.2,8.2,8.2h22.3   c3.5,0.1,6.3,3,6.3,6.6c0,3.3-2.5,6.1-5.7,6.5H8.2c-4.5,0-8.2,3.7-8.2,8.2s3.7,8.2,8.2,8.2h12.7l0,0h32.2l33.7,0V133.7z"/>
	
		<linearGradient id="SVGID_6_" gradientUnits="userSpaceOnUse" x1="10.0629" y1="-16257.6602" x2="850.4012" y2="-16257.6602" gradientTransform="matrix(1 0 0 -1 0 -16021.4229)">
		<stop offset="0" style="stop-color:#E2B822"/>
		<stop offset="0.5319" style="stop-color:#D63C20"/>
		<stop offset="1" style="stop-color:#F91939"/>
	</linearGradient>
	<path fill="url(#SVGID_6_)" d="M478.3,240.8h-50.9c-2.4-0.4-4.3-2.6-4.3-5.3c0-2.4,1.5-4.5,3.7-5.1h31.7c4.3,0,7.7-3.7,7.7-8.2   c0-4.5-3.5-8.2-7.7-8.2h-68.7v44.4c1-0.8,2.2-1.2,3.6-1.2h85c4.3,0,7.7-3.7,7.7-8.2C486,244.5,482.6,240.8,478.3,240.8z"/>
	<g>
		<g>
			
				<linearGradient id="SVGID_7_" gradientUnits="userSpaceOnUse" x1="28.6936" y1="-16279.0957" x2="28.6936" y2="-16560.0156" gradientTransform="matrix(1 0 0 -1 0 -16021.4229)">
				<stop offset="0" style="stop-color:#E2B822"/>
				<stop offset="0.5319" style="stop-color:#D63C20"/>
				<stop offset="1" style="stop-color:#F91939"/>
			</linearGradient>
			<path fill="url(#SVGID_7_)" d="M34.7,305.8h-12c-1.3,0-2.4-1.1-2.4-2.4c0-1.3,1.1-2.4,2.4-2.4h12c1.3,0,2.4,1.1,2.4,2.4     C37.1,304.7,36,305.8,34.7,305.8z"/>
		</g>
		<g>
			
				<linearGradient id="SVGID_8_" gradientUnits="userSpaceOnUse" x1="50.9394" y1="-16279.0957" x2="50.9394" y2="-16560.0156" gradientTransform="matrix(1 0 0 -1 0 -16021.4229)">
				<stop offset="0" style="stop-color:#E2B822"/>
				<stop offset="0.5319" style="stop-color:#D63C20"/>
				<stop offset="1" style="stop-color:#F91939"/>
			</linearGradient>
			<path fill="url(#SVGID_8_)" d="M54.3,305.8h-6.8c-1.3,0-2.4-1.1-2.4-2.4c0-1.3,1.1-2.4,2.4-2.4h6.8c1.3,0,2.4,1.1,2.4,2.4     C56.7,304.7,55.6,305.8,54.3,305.8z"/>
		</g>
		<g>
			
				<linearGradient id="SVGID_9_" gradientUnits="userSpaceOnUse" x1="441.8875" y1="-16279.0957" x2="441.8875" y2="-16560.0156" gradientTransform="matrix(1 0 0 -1 0 -16021.4229)">
				<stop offset="0" style="stop-color:#E2B822"/>
				<stop offset="0.5319" style="stop-color:#D63C20"/>
				<stop offset="1" style="stop-color:#F91939"/>
			</linearGradient>
			<path fill="url(#SVGID_9_)" d="M447.9,305.8h-12c-1.3,0-2.4-1.1-2.4-2.4c0-1.3,1.1-2.4,2.4-2.4h12c1.3,0,2.4,1.1,2.4,2.4     C450.3,304.7,449.2,305.8,447.9,305.8z"/>
		</g>
		<g>
			
				<linearGradient id="SVGID_10_" gradientUnits="userSpaceOnUse" x1="225.6815" y1="-16327.1426" x2="225.6815" y2="-16608.0625" gradientTransform="matrix(1 0 0 -1 0 -16021.4229)">
				<stop offset="0" style="stop-color:#E2B822"/>
				<stop offset="0.5319" style="stop-color:#D63C20"/>
				<stop offset="1" style="stop-color:#F91939"/>
			</linearGradient>
			<path fill="url(#SVGID_10_)" d="M246.6,329.8h-41.7c-1.3,0-2.4-1.1-2.4-2.4c0-1.3,1.1-2.4,2.4-2.4h41.7c1.3,0,2.4,1.1,2.4,2.4     C248.9,328.8,247.9,329.8,246.6,329.8z"/>
		</g>
		<g>
			
				<linearGradient id="SVGID_11_" gradientUnits="userSpaceOnUse" x1="260.3641" y1="-16327.1426" x2="260.3641" y2="-16608.0625" gradientTransform="matrix(1 0 0 -1 0 -16021.4229)">
				<stop offset="0" style="stop-color:#E2B822"/>
				<stop offset="0.5319" style="stop-color:#D63C20"/>
				<stop offset="1" style="stop-color:#F91939"/>
			</linearGradient>
			<path fill="url(#SVGID_11_)" d="M265,329.8h-9.2c-1.3,0-2.4-1.1-2.4-2.4c0-1.3,1.1-2.4,2.4-2.4h9.2c1.3,0,2.4,1.1,2.4,2.4     C267.4,328.8,266.3,329.8,265,329.8z"/>
		</g>
		<g>
			
				<linearGradient id="SVGID_12_" gradientUnits="userSpaceOnUse" x1="418.4904" y1="-16279.0957" x2="418.4904" y2="-16560.0156" gradientTransform="matrix(1 0 0 -1 0 -16021.4229)">
				<stop offset="0" style="stop-color:#E2B822"/>
				<stop offset="0.5319" style="stop-color:#D63C20"/>
				<stop offset="1" style="stop-color:#F91939"/>
			</linearGradient>
			<path fill="url(#SVGID_12_)" d="M421.9,305.8h-6.8c-1.3,0-2.4-1.1-2.4-2.4c0-1.3,1.1-2.4,2.4-2.4h6.8c1.3,0,2.4,1.1,2.4,2.4     C424.3,304.7,423.2,305.8,421.9,305.8z"/>
		</g>
		<g>
			
				<linearGradient id="SVGID_13_" gradientUnits="userSpaceOnUse" x1="62.5261" y1="-15805.3828" x2="62.5261" y2="-16086.2979" gradientTransform="matrix(1 0 0 -1 0 -16021.4229)">
				<stop offset="0" style="stop-color:#E2B822"/>
				<stop offset="0.5319" style="stop-color:#D63C20"/>
				<stop offset="1" style="stop-color:#F91939"/>
			</linearGradient>
			<path fill="url(#SVGID_13_)" d="M62.5,70.4c-1.1,0-1.9-0.9-1.9-1.9v-3.8c0-1.1,0.9-1.9,1.9-1.9c1.1,0,1.9,0.9,1.9,1.9v3.8     C64.4,69.5,63.6,70.4,62.5,70.4z"/>
		</g>
		<g>
			
				<linearGradient id="SVGID_14_" gradientUnits="userSpaceOnUse" x1="62.5261" y1="-15831.4121" x2="62.5261" y2="-16112.3262" gradientTransform="matrix(1 0 0 -1 0 -16021.4229)">
				<stop offset="0" style="stop-color:#E2B822"/>
				<stop offset="0.5319" style="stop-color:#D63C20"/>
				<stop offset="1" style="stop-color:#F91939"/>
			</linearGradient>
			<path fill="url(#SVGID_14_)" d="M62.5,83.4c-1.1,0-1.9-0.9-1.9-1.9v-3.8c0-1.1,0.9-1.9,1.9-1.9c1.1,0,1.9,0.9,1.9,1.9v3.8     C64.4,82.5,63.6,83.4,62.5,83.4z"/>
		</g>
		<g>
			
				<linearGradient id="SVGID_15_" gradientUnits="userSpaceOnUse" x1="69.0333" y1="-15818.3936" x2="69.0333" y2="-16099.3115" gradientTransform="matrix(1 0 0 -1 0 -16021.4229)">
				<stop offset="0" style="stop-color:#E2B822"/>
				<stop offset="0.5319" style="stop-color:#D63C20"/>
				<stop offset="1" style="stop-color:#F91939"/>
			</linearGradient>
			<path fill="url(#SVGID_15_)" d="M70.9,75h-3.8c-1.1,0-1.9-0.9-1.9-1.9c0-1.1,0.9-1.9,1.9-1.9h3.8c1.1,0,1.9,0.9,1.9,1.9     C72.9,74.1,72,75,70.9,75z"/>
		</g>
		<g>
			
				<linearGradient id="SVGID_16_" gradientUnits="userSpaceOnUse" x1="56.0179" y1="-15818.3936" x2="56.0179" y2="-16099.3115" gradientTransform="matrix(1 0 0 -1 0 -16021.4229)">
				<stop offset="0" style="stop-color:#E2B822"/>
				<stop offset="0.5319" style="stop-color:#D63C20"/>
				<stop offset="1" style="stop-color:#F91939"/>
			</linearGradient>
			<path fill="url(#SVGID_16_)" d="M57.9,75h-3.8c-1.1,0-1.9-0.9-1.9-1.9c0-1.1,0.9-1.9,1.9-1.9h3.8c1.1,0,1.9,0.9,1.9,1.9     C59.8,74.1,59,75,57.9,75z"/>
		</g>
		<g>
			
				<linearGradient id="SVGID_17_" gradientUnits="userSpaceOnUse" x1="42.5582" y1="-15867.3945" x2="42.5582" y2="-16148.3096" gradientTransform="matrix(1 0 0 -1 0 -16021.4229)">
				<stop offset="0" style="stop-color:#E2B822"/>
				<stop offset="0.5319" style="stop-color:#D63C20"/>
				<stop offset="1" style="stop-color:#F91939"/>
			</linearGradient>
			<path fill="url(#SVGID_17_)" d="M41.2,100.8c-0.5,0-1-0.2-1.4-0.6c-0.7-0.7-0.7-2,0-2.7l2.7-2.7c0.7-0.7,2-0.7,2.7,0     c0.7,0.7,0.7,2,0,2.7l-2.7,2.7C42.2,100.6,41.7,100.8,41.2,100.8z"/>
		</g>
		<g>
			
				<linearGradient id="SVGID_18_" gradientUnits="userSpaceOnUse" x1="33.3554" y1="-15885.8018" x2="33.3554" y2="-16166.7168" gradientTransform="matrix(1 0 0 -1 0 -16021.4229)">
				<stop offset="0" style="stop-color:#E2B822"/>
				<stop offset="0.5319" style="stop-color:#D63C20"/>
				<stop offset="1" style="stop-color:#F91939"/>
			</linearGradient>
			<path fill="url(#SVGID_18_)" d="M32,110c-0.5,0-1-0.2-1.4-0.6c-0.7-0.7-0.7-2,0-2.7l2.7-2.7c0.7-0.7,2-0.7,2.7,0     c0.7,0.7,0.7,2,0,2.7l-2.7,2.7C33,109.8,32.5,110,32,110z"/>
		</g>
		<g>
			
				<linearGradient id="SVGID_19_" gradientUnits="userSpaceOnUse" x1="42.5582" y1="-15885.8018" x2="42.5582" y2="-16166.7168" gradientTransform="matrix(1 0 0 -1 0 -16021.4229)">
				<stop offset="0" style="stop-color:#E2B822"/>
				<stop offset="0.5319" style="stop-color:#D63C20"/>
				<stop offset="1" style="stop-color:#F91939"/>
			</linearGradient>
			<path fill="url(#SVGID_19_)" d="M43.9,110c-0.5,0-1-0.2-1.4-0.6l-2.7-2.7c-0.7-0.7-0.7-2,0-2.7c0.7-0.7,2-0.7,2.7,0l2.7,2.7     c0.7,0.7,0.7,2,0,2.7C44.9,109.8,44.4,110,43.9,110z"/>
		</g>
		<g>
			
				<linearGradient id="SVGID_20_" gradientUnits="userSpaceOnUse" x1="33.3554" y1="-15867.3945" x2="33.3554" y2="-16148.3096" gradientTransform="matrix(1 0 0 -1 0 -16021.4229)">
				<stop offset="0" style="stop-color:#E2B822"/>
				<stop offset="0.5319" style="stop-color:#D63C20"/>
				<stop offset="1" style="stop-color:#F91939"/>
			</linearGradient>
			<path fill="url(#SVGID_20_)" d="M34.7,100.8c-0.5,0-1-0.2-1.4-0.6l-2.7-2.7c-0.7-0.7-0.7-2,0-2.7c0.7-0.7,2-0.7,2.7,0l2.7,2.7     c0.7,0.7,0.7,2,0,2.7C35.7,100.6,35.2,100.8,34.7,100.8z"/>
		</g>
		<g>
			
				<linearGradient id="SVGID_21_" gradientUnits="userSpaceOnUse" x1="412.9747" y1="-15892.292" x2="412.9747" y2="-16173.2031" gradientTransform="matrix(1 0 0 -1 0 -16021.4229)">
				<stop offset="0" style="stop-color:#E2B822"/>
				<stop offset="0.5319" style="stop-color:#D63C20"/>
				<stop offset="1" style="stop-color:#F91939"/>
			</linearGradient>
			<path fill="url(#SVGID_21_)" d="M414.9,111.9h-3.8c-1.1,0-1.9-0.9-1.9-1.9c0-1.1,0.9-1.9,1.9-1.9h3.8c1.1,0,1.9,0.9,1.9,1.9     C416.8,111.1,415.9,111.9,414.9,111.9z"/>
		</g>
		<g>
			
				<linearGradient id="SVGID_22_" gradientUnits="userSpaceOnUse" x1="399.9598" y1="-15892.292" x2="399.9598" y2="-16173.2031" gradientTransform="matrix(1 0 0 -1 0 -16021.4229)">
				<stop offset="0" style="stop-color:#E2B822"/>
				<stop offset="0.5319" style="stop-color:#D63C20"/>
				<stop offset="1" style="stop-color:#F91939"/>
			</linearGradient>
			<path fill="url(#SVGID_22_)" d="M401.9,111.9h-3.8c-1.1,0-1.9-0.9-1.9-1.9c0-1.1,0.9-1.9,1.9-1.9h3.8c1.1,0,1.9,0.9,1.9,1.9     C403.8,111.1,402.9,111.9,401.9,111.9z"/>
		</g>
		<g>
			
				<linearGradient id="SVGID_23_" gradientUnits="userSpaceOnUse" x1="406.4675" y1="-15905.3057" x2="406.4675" y2="-16186.2207" gradientTransform="matrix(1 0 0 -1 0 -16021.4229)">
				<stop offset="0" style="stop-color:#E2B822"/>
				<stop offset="0.5319" style="stop-color:#D63C20"/>
				<stop offset="1" style="stop-color:#F91939"/>
			</linearGradient>
			<path fill="url(#SVGID_23_)" d="M406.5,120.3c-1.1,0-1.9-0.9-1.9-1.9v-3.8c0-1.1,0.9-1.9,1.9-1.9c1.1,0,1.9,0.9,1.9,1.9v3.8     C408.4,119.5,407.5,120.3,406.5,120.3z"/>
		</g>
		<g>
			
				<linearGradient id="SVGID_24_" gradientUnits="userSpaceOnUse" x1="406.4675" y1="-15879.2715" x2="406.4675" y2="-16160.1904" gradientTransform="matrix(1 0 0 -1 0 -16021.4229)">
				<stop offset="0" style="stop-color:#E2B822"/>
				<stop offset="0.5319" style="stop-color:#D63C20"/>
				<stop offset="1" style="stop-color:#F91939"/>
			</linearGradient>
			<path fill="url(#SVGID_24_)" d="M406.5,107.3c-1.1,0-1.9-0.9-1.9-1.9v-3.8c0-1.1,0.9-1.9,1.9-1.9c1.1,0,1.9,0.9,1.9,1.9v3.8     C408.4,106.5,407.5,107.3,406.5,107.3z"/>
		</g>
		<g>
			
				<linearGradient id="SVGID_25_" gradientUnits="userSpaceOnUse" x1="426.4704" y1="-15840.6143" x2="426.4704" y2="-16121.5293" gradientTransform="matrix(1 0 0 -1 0 -16021.4229)">
				<stop offset="0" style="stop-color:#E2B822"/>
				<stop offset="0.5319" style="stop-color:#D63C20"/>
				<stop offset="1" style="stop-color:#F91939"/>
			</linearGradient>
			<path fill="url(#SVGID_25_)" d="M427.8,87.4c-0.5,0-1-0.2-1.4-0.6l-2.7-2.7c-0.7-0.7-0.7-2,0-2.7c0.7-0.7,2-0.7,2.7,0l2.7,2.7     c0.7,0.7,0.7,2,0,2.7C428.8,87.2,428.3,87.4,427.8,87.4z"/>
		</g>
		<g>
			
				<linearGradient id="SVGID_26_" gradientUnits="userSpaceOnUse" x1="417.2672" y1="-15822.209" x2="417.2672" y2="-16103.124" gradientTransform="matrix(1 0 0 -1 0 -16021.4229)">
				<stop offset="0" style="stop-color:#E2B822"/>
				<stop offset="0.5319" style="stop-color:#D63C20"/>
				<stop offset="1" style="stop-color:#F91939"/>
			</linearGradient>
			<path fill="url(#SVGID_26_)" d="M418.6,78.2c-0.5,0-1-0.2-1.4-0.6l-2.7-2.7c-0.7-0.7-0.7-2,0-2.7c0.7-0.7,2-0.7,2.7,0L420,75     c0.7,0.7,0.7,2,0,2.7C419.6,78,419.1,78.2,418.6,78.2z"/>
		</g>
		<g>
			
				<linearGradient id="SVGID_27_" gradientUnits="userSpaceOnUse" x1="417.2672" y1="-15840.6143" x2="417.2672" y2="-16121.5293" gradientTransform="matrix(1 0 0 -1 0 -16021.4229)">
				<stop offset="0" style="stop-color:#E2B822"/>
				<stop offset="0.5319" style="stop-color:#D63C20"/>
				<stop offset="1" style="stop-color:#F91939"/>
			</linearGradient>
			<path fill="url(#SVGID_27_)" d="M415.9,87.4c-0.5,0-1-0.2-1.4-0.6c-0.7-0.7-0.7-2,0-2.7l2.7-2.7c0.7-0.7,2-0.7,2.7,0     c0.7,0.7,0.7,2,0,2.7l-2.7,2.7C416.9,87.2,416.4,87.4,415.9,87.4z"/>
		</g>
		<g>
			
				<linearGradient id="SVGID_28_" gradientUnits="userSpaceOnUse" x1="426.4704" y1="-15822.209" x2="426.4704" y2="-16103.124" gradientTransform="matrix(1 0 0 -1 0 -16021.4229)">
				<stop offset="0" style="stop-color:#E2B822"/>
				<stop offset="0.5319" style="stop-color:#D63C20"/>
				<stop offset="1" style="stop-color:#F91939"/>
			</linearGradient>
			<path fill="url(#SVGID_28_)" d="M425.1,78.2c-0.5,0-1-0.2-1.4-0.6c-0.7-0.7-0.7-2,0-2.7l2.7-2.7c0.7-0.7,2-0.7,2.7,0     c0.7,0.7,0.7,2,0,2.7l-2.7,2.7C426.1,78,425.6,78.2,425.1,78.2z"/>
		</g>
	</g>
</g>
<g id="icon_1_">
	<linearGradient id="SVGID_29_" gradientUnits="userSpaceOnUse" x1="239.5114" y1="-7.7119" x2="239.5114" y2="309.2951">
		<stop offset="0" style="stop-color:#FF6221"/>
		<stop offset="0.4313" style="stop-color:#B6343A"/>
		<stop offset="0.8166" style="stop-color:#7B0F4F"/>
		<stop offset="1" style="stop-color:#640057"/>
	</linearGradient>
	<path fill="url(#SVGID_29_)" d="M239.5,80.6c4.6,0,8.3-3.7,8.3-8.3s-3.7-8.3-8.3-8.3s-8.3,3.7-8.3,8.3S234.9,80.6,239.5,80.6z    M239.5,68.9c1.9,0,3.4,1.5,3.4,3.4c0,1.9-1.5,3.4-3.4,3.4c-1.9,0-3.4-1.5-3.4-3.4C236.1,70.4,237.6,68.9,239.5,68.9z"/>
	<linearGradient id="SVGID_30_" gradientUnits="userSpaceOnUse" x1="239.5114" y1="-7.7113" x2="239.5114" y2="309.2958">
		<stop offset="0" style="stop-color:#FF6221"/>
		<stop offset="0.4313" style="stop-color:#B6343A"/>
		<stop offset="0.8166" style="stop-color:#7B0F4F"/>
		<stop offset="1" style="stop-color:#640057"/>
	</linearGradient>
	<path fill="url(#SVGID_30_)" d="M239.5,116.4c6.4,0,11.6-5.2,11.6-11.6c0-6.4-5.2-11.6-11.6-11.6c-6.4,0-11.6,5.2-11.6,11.6   C227.9,111.2,233.1,116.4,239.5,116.4z M239.5,98c3.7,0,6.8,3,6.8,6.8c0,3.7-3,6.8-6.8,6.8s-6.8-3-6.8-6.8   C232.7,101.1,235.8,98,239.5,98z"/>
	<linearGradient id="SVGID_31_" gradientUnits="userSpaceOnUse" x1="239.5114" y1="-7.7115" x2="239.5114" y2="309.2946">
		<stop offset="0" style="stop-color:#FF6221"/>
		<stop offset="0.4313" style="stop-color:#B6343A"/>
		<stop offset="0.8166" style="stop-color:#7B0F4F"/>
		<stop offset="1" style="stop-color:#640057"/>
	</linearGradient>
	<path fill="url(#SVGID_31_)" d="M168.8,200.3c0.1,0.9,0.7,1.6,1.6,1.9c0.3,0.1,0.6,0.2,0.8,0.2c0.6,0,1.2-0.2,1.6-0.6l39-34.2   c1,3.6,1.8,6.2,2.2,7.6c0.1,0.2,0.2,0.4,0.3,0.6c3.5,5.3,20,4.8,25.2,4.5c1.4,0.1,3.6,0.2,6.2,0.2c6.9,0,16.4-0.8,19-4.6   c0.1-0.2,0.2-0.4,0.3-0.6c0.4-1.4,1.2-4,2.2-7.6l39,34.2c0.5,0.4,1,0.6,1.6,0.6c0.3,0,0.6,0,0.8-0.2c0.8-0.3,1.4-1.1,1.6-1.9   c0.4-3,9.6-72.8-33.2-90c2.5-37.6-3.1-82.4-36-109.7c-0.9-0.7-2.2-0.7-3.1,0c-32.9,27.3-38.5,72.1-36,109.7   C159.2,127.4,168.4,197.3,168.8,200.3z M173.1,195c-1.2-15.5-2.6-65.3,29.3-79.6c1.6,19,5.2,35.8,8,46.9L173.1,195z M305.9,195   l-37.3-32.7c2.8-11.1,6.4-27.9,8-46.9C308.5,129.7,307.1,179.5,305.9,195z M239.5,5.6c12.5,10.9,20.7,24.6,25.8,39.5h-51.6   C218.8,30.3,227,16.5,239.5,5.6z M212.1,50h54.7c12.1,41.1,2.6,89.4-3.2,112c-0.2,0.3-0.3,0.7-0.3,1c-1.3,4.8-2.3,8.4-2.9,10.2   c-1.8,1.7-11.2,2.7-20.8,2.1c-0.1,0-0.2,0-0.3,0c-9.6,0.6-19.1-0.4-20.8-2.1c-0.6-1.9-1.7-5.4-2.9-10.2c0-0.4-0.1-0.7-0.3-1   C209.5,139.4,200,91.1,212.1,50z"/>
	<linearGradient id="SVGID_32_" gradientUnits="userSpaceOnUse" x1="231.8413" y1="-7.7113" x2="231.8413" y2="309.2947">
		<stop offset="0" style="stop-color:#FF6221"/>
		<stop offset="0.4313" style="stop-color:#B6343A"/>
		<stop offset="0.8166" style="stop-color:#7B0F4F"/>
		<stop offset="1" style="stop-color:#640057"/>
	</linearGradient>
	<path fill="url(#SVGID_32_)" d="M234.3,223.1v-30.4c0-1.3-1.1-2.4-2.4-2.4c-1.3,0-2.4,1.1-2.4,2.4v30.4c0,1.3,1.1,2.4,2.4,2.4   C233.2,225.5,234.3,224.4,234.3,223.1z"/>
	<linearGradient id="SVGID_33_" gradientUnits="userSpaceOnUse" x1="247.1814" y1="-7.7113" x2="247.1814" y2="309.2952">
		<stop offset="0" style="stop-color:#FF6221"/>
		<stop offset="0.4313" style="stop-color:#B6343A"/>
		<stop offset="0.8166" style="stop-color:#7B0F4F"/>
		<stop offset="1" style="stop-color:#640057"/>
	</linearGradient>
	<path fill="url(#SVGID_33_)" d="M247.2,206.9c1.3,0,2.4-1.1,2.4-2.4v-15.3c0-1.3-1.1-2.4-2.4-2.4c-1.3,0-2.4,1.1-2.4,2.4v15.3   C244.8,205.8,245.8,206.9,247.2,206.9z"/>
	<linearGradient id="SVGID_34_" gradientUnits="userSpaceOnUse" x1="247.1814" y1="-7.7105" x2="247.1814" y2="309.2955">
		<stop offset="0" style="stop-color:#FF6221"/>
		<stop offset="0.4313" style="stop-color:#B6343A"/>
		<stop offset="0.8166" style="stop-color:#7B0F4F"/>
		<stop offset="1" style="stop-color:#640057"/>
	</linearGradient>
	<path fill="url(#SVGID_34_)" d="M244.8,219.5c0,1.3,1.1,2.4,2.4,2.4c1.3,0,2.4-1.1,2.4-2.4v-7.2c0-1.3-1.1-2.4-2.4-2.4   c-1.3,0-2.4,1.1-2.4,2.4V219.5z"/>
	<linearGradient id="SVGID_35_" gradientUnits="userSpaceOnUse" x1="239.5114" y1="-7.7115" x2="239.5114" y2="309.2941">
		<stop offset="0" style="stop-color:#FF6221"/>
		<stop offset="0.4313" style="stop-color:#B6343A"/>
		<stop offset="0.8166" style="stop-color:#7B0F4F"/>
		<stop offset="1" style="stop-color:#640057"/>
	</linearGradient>
	<path fill="url(#SVGID_35_)" d="M362.3,276.9H116.8c-5.1,0-9.3-3.5-9.3-7.9V135c0-4.3,4.2-7.9,9.3-7.9h47.9c1.3,0,2.4-1.1,2.4-2.4   c0-1.3-1.1-2.4-2.4-2.4h-47.9c-7.8,0-14.1,5.7-14.1,12.7v134c0,7,6.3,12.7,14.1,12.7h245.5c7.8,0,14.1-5.7,14.1-12.7V135   c0-7-6.3-12.7-14.1-12.7h-47.9c-1.3,0-2.4,1.1-2.4,2.4c0,1.3,1.1,2.4,2.4,2.4h47.9c5.1,0,9.3,3.5,9.3,7.9v134   C371.5,273.4,367.4,276.9,362.3,276.9z"/>
	<linearGradient id="SVGID_36_" gradientUnits="userSpaceOnUse" x1="239.5117" y1="-7.7116" x2="239.5117" y2="309.2953">
		<stop offset="0" style="stop-color:#FF6221"/>
		<stop offset="0.4313" style="stop-color:#B6343A"/>
		<stop offset="0.8166" style="stop-color:#7B0F4F"/>
		<stop offset="1" style="stop-color:#640057"/>
	</linearGradient>
	<path fill="url(#SVGID_36_)" d="M414,291.9h-21V116.7c0-6.4-5.9-11.5-13.3-11.5h-86.4c-1.3,0-2.4,1.1-2.4,2.4   c0,1.3,1.1,2.4,2.4,2.4h86.4c4.6,0,8.4,3.1,8.4,6.7v174.7H91V116.7c0-3.6,3.8-6.7,8.4-6.7h86.5c1.3,0,2.4-1.1,2.4-2.4   c0-1.3-1.1-2.4-2.4-2.4H99.3c-7.3,0-13.3,5.2-13.3,11.5v175.3h-21c-1,0-1.8,0.8-1.8,1.8c0,10.4,8.4,18.8,18.8,18.8H397   c10.4,0,18.8-8.4,18.8-18.8C415.8,292.8,415,291.9,414,291.9z M397,308.9H82.1c-7.7,0-14.2-5.8-15.1-13.3h19.9   c0.4,0.4,1,0.6,1.6,0.6h302c0.6,0,1.2-0.2,1.6-0.6H412C411.1,303.1,404.7,308.9,397,308.9z"/>
	<linearGradient id="SVGID_37_" gradientUnits="userSpaceOnUse" x1="199.5285" y1="-7.711" x2="199.5285" y2="309.2945">
		<stop offset="0" style="stop-color:#FF6221"/>
		<stop offset="0.4313" style="stop-color:#B6343A"/>
		<stop offset="0.8166" style="stop-color:#7B0F4F"/>
		<stop offset="1" style="stop-color:#640057"/>
	</linearGradient>
	<path fill="url(#SVGID_37_)" d="M199.8,264.4c-3,0-6.1-1.6-8-3.4l-2.5,3.4c2.8,2.7,6.6,4.2,10.5,4.2c6.5,0,10.2-4.1,10.2-9.1   c0-10.3-15.4-8.4-15.4-15.3c0-2.8,2.5-4.5,5.7-4.5c2.5,0,5.3,1.2,7,2.8l2-3.7c-2.3-2.2-5.7-3.3-8.9-3.3c-5.9,0-10.4,3.5-10.4,8.9   c0,9.9,15.4,8.4,15.4,15.4C205.4,262.6,203.1,264.4,199.8,264.4z"/>
	<linearGradient id="SVGID_38_" gradientUnits="userSpaceOnUse" x1="234.8601" y1="-7.7115" x2="234.8601" y2="309.2949">
		<stop offset="0" style="stop-color:#FF6221"/>
		<stop offset="0.4313" style="stop-color:#B6343A"/>
		<stop offset="0.8166" style="stop-color:#7B0F4F"/>
		<stop offset="1" style="stop-color:#640057"/>
	</linearGradient>
	<polygon fill="url(#SVGID_38_)" points="225.2,268 244.5,268 244.5,264.2 229.7,264.2 229.7,253.9 241.1,253.9 241.1,250    229.7,250 229.7,240 243.8,240 243.8,236.2 225.2,236.2  "/>
	<linearGradient id="SVGID_39_" gradientUnits="userSpaceOnUse" x1="273.4431" y1="-7.711" x2="273.4431" y2="309.2945">
		<stop offset="0" style="stop-color:#FF6221"/>
		<stop offset="0.4313" style="stop-color:#B6343A"/>
		<stop offset="0.8166" style="stop-color:#7B0F4F"/>
		<stop offset="1" style="stop-color:#640057"/>
	</linearGradient>
	<path fill="url(#SVGID_39_)" d="M289.8,251.9c0-9.2-6.9-16.3-16.3-16.3c-9.5,0-16.4,7.1-16.4,16.3c0,9.4,6.9,16.7,16.4,16.7   C282.9,268.6,289.8,261.3,289.8,251.9z M261.7,251.9c0-6.9,5-12.2,11.8-12.2c6.8,0,11.7,5.3,11.7,12.2c0,7.1-5,12.6-11.7,12.6   C266.6,264.5,261.7,259,261.7,251.9z"/>
</g>
</svg>