<?xml version="1.0" encoding="UTF-8"?>
<svg width="72px" height="74px" viewBox="0 0 72 74" version="1.1" xmlns="http://www.w3.org/2000/svg" xmlns:xlink="http://www.w3.org/1999/xlink">
    <!-- Generator: Sketch 63.1 (92452) - https://sketch.com -->
    <title>icon_tablet</title>
    <desc>Created with Sketch.</desc>
    <g id="Page-1" stroke="none" stroke-width="1" fill="none" fill-rule="evenodd">
        <g id="01_homepage_mcparking" transform="translate(-230.000000, -1037.000000)" fill-rule="nonzero">
            <g id="Group-5" transform="translate(138.000000, 1007.000000)">
                <g id="icon_tablet" transform="translate(79.000000, 17.000000)">
                    <rect id="Rectangle" fill-opacity="0" fill="#D8D8D8" x="0" y="0" width="100" height="100"></rect>
                    <g id="Group-10" transform="translate(15.000000, 15.000000)">
                        <path d="M63.590287,19.5 L41.409713,19.5 C39.605712,19.5 38.9304559,19.6348137 38.265284,19.9905516 C37.7157384,20.2844518 37.2844518,20.7157384 36.9905516,21.265284 C36.6348137,21.9304559 36.5,22.605712 36.5,24.409713 L36.5,63.590287 C36.5,65.394288 36.6348137,66.0695441 36.9905516,66.734716 C37.2844518,67.2842616 37.7157384,67.7155482 38.265284,68.0094484 C38.9304559,68.3651863 39.605712,68.5 41.409713,68.5 L63.590287,68.5 C65.394288,68.5 66.0695441,68.3651863 66.734716,68.0094484 C67.2842616,67.7155482 67.7155482,67.2842616 68.0094484,66.734716 C68.3651863,66.0695441 68.5,65.394288 68.5,63.590287 L68.5,24.409713 C68.5,22.605712 68.3651863,21.9304559 68.0094484,21.265284 C67.7155482,20.7157384 67.2842616,20.2844518 66.734716,19.9905516 C66.0695441,19.6348137 65.394288,19.5 63.590287,19.5 Z" id="Rectangle" stroke="#0153B8" stroke-width="3"></path>
                        <rect id="Rectangle" fill="#0153B8" x="37" y="26" width="31" height="3"></rect>
                        <circle id="Oval" fill="#0153B8" cx="52.5" cy="60.5" r="1.5"></circle>
                        <path d="M47,70 L6.409713,70 C4.18091615,70 3.37270056,69.767936 2.55788574,69.3321682 C1.74307093,68.8964005 1.10359949,68.2569291 0.667831759,67.4421143 C0.232064028,66.6272994 0,65.8190838 0,63.590287 L0,6.409713 C0,4.18091615 0.232064028,3.37270056 0.667831759,2.55788574 C1.10359949,1.74307093 1.74307093,1.10359949 2.55788574,0.667831759 C3.37270056,0.232064028 4.18091615,0 6.409713,0 L51.590287,0 C53.8190838,0 54.6272994,0.232064028 55.4421143,0.667831759 C56.2569291,1.10359949 56.8964005,1.74307093 57.3321682,2.55788574 C57.767936,3.37270056 58,4.18091615 58,6.409713 L58,20" id="Rectangle" stroke="#0153B8" stroke-width="3"></path>
                        <path d="M2,11 L2,8 L56,8 L56,11 L9,11 L9,38.5 C9,39.3284271 8.32842712,40 7.5,40 C6.67157288,40 6,39.3284271 6,38.5 L6,11 L2,11 Z" id="Combined-Shape" fill="#0153B8"></path>
                        <circle id="Oval" fill="#0153B8" cx="7.5" cy="43.5" r="1.5"></circle>
                        <rect id="Rectangle" fill="#0153B8" x="2" y="59" width="35" height="3"></rect>
                    </g>
                </g>
            </g>
        </g>
    </g>
</svg>