<svg xmlns="http://www.w3.org/2000/svg" width="82.063" height="91" viewBox="0 0 82.063 91">
  <defs>
    <style>
      .cls-1 {
        fill: #3fa35d;
        fill-rule: evenodd;
      }
    </style>
  </defs>
  <path id="decor-2.svg" class="cls-1" d="M562.664,85.855a27.139,27.139,0,0,1-14.529,6.913,7.236,7.236,0,0,1-2.664,1.957L547.649,112c7.773,0.378,11.177,3.075,12.666,5.408a5.939,5.939,0,0,1,.96,2.271c0.015,0.071.023,0.114,0.023,0.114l-1.181,4.554c-0.055.074-.112,0.148-0.172,0.222-4.312,5.339-13.637,8.4-25.584,8.4-0.831,0-1.679-.015-2.52-0.045-2.629-.1-9.076-0.7-12.15-4.223l-0.073-.086-1.6-4.419a8.029,8.029,0,0,1,2.73-5.281,20.977,20.977,0,0,1,8.488-4.565l-2.189-17.371a23.646,23.646,0,0,1-3.563-1.2c-1.011.092-2.011,0.139-2.985,0.139a26.449,26.449,0,0,1-13.2-3.358c-11.3-6.394-15.428-19.8-16.9-29.915a10.634,10.634,0,0,1,2.057-8.019,10.447,10.447,0,0,1,7.12-4.1l8.666-1.05c1.851-2.17,5.211-3.294,6.8-3.826a76.322,76.322,0,0,1,14.382-3.01,88.294,88.294,0,0,1,10.391-.672c4.295,0,9.071.321,11.781,2.254l8.678-1.052a10.626,10.626,0,0,1,1.273-.077,10.584,10.584,0,0,1,10.493,9.654C572.99,62.936,572.135,76.944,562.664,85.855Zm5.414-32.725a6.616,6.616,0,0,0-2.423-4.555,6.484,6.484,0,0,0-4.108-1.466,6.685,6.685,0,0,0-.8.049l-10.92,1.324h0l-0.027-.225h0c-0.175-1.46-4.173-2.274-9.985-2.274a83.875,83.875,0,0,0-9.916.643c-10.734,1.3-19.221,4.144-18.958,6.34l0.026,0.223-10.916,1.322a6.506,6.506,0,0,0-4.433,2.551,6.635,6.635,0,0,0-1.282,5c1.344,9.23,5.023,21.407,14.913,27a22.465,22.465,0,0,0,11.25,2.845,29.45,29.45,0,0,0,3.538-.22c0.032,0,.065-0.012.1-0.016a20,20,0,0,0,6.5,1.89l3,23.769C522.176,119.867,522,124.361,522,124.361l0.066-.007c-0.233,2.5,4.236,4.36,9.923,4.565,0.8,0.029,1.591.044,2.377,0.044,9.9,0,18.754-2.288,22.5-6.922a2.031,2.031,0,0,0,.515-1.457l0.022,0s-0.009-.045-0.024-0.107a1.948,1.948,0,0,0-.368-0.839c-0.833-1.355-3.436-3.67-11.254-3.67q-0.771,0-1.609.031l-2.559-20.3h0c-2.388.283-5.5,0.764-7.547-.8a0.04,0.04,0,0,1,.009-0.072,41.139,41.139,0,0,0,7.086-2.725l0-.035a20,20,0,0,0,4.983-3.055c0.03,0,.062,0,0.091-0.007a23.63,23.63,0,0,0,13.748-6.082C568.238,75.125,568.945,62.417,568.078,53.13ZM555.493,78.12a15.019,15.019,0,0,1-3.576,2.469,17.577,17.577,0,0,0,.821-7.734l-2.131-17.845,10.974-1.264C562.178,60.147,562.182,71.827,555.493,78.12Zm-0.457-19.586,1.286,10.772a31.912,31.912,0,0,0,1.527-11.1ZM530.861,56.88c-5.091.514-13.487,1.45-17.631-2.438a0.06,0.06,0,0,1,.041-0.1,91.865,91.865,0,0,0,17.59-.174A73.718,73.718,0,0,0,541.777,52.5c2.228-.565,4.164-1.6,6.47-1.706a0.237,0.237,0,0,1,.165.4C543.78,55.3,536.8,56.28,530.861,56.88ZM513.938,77.99a17.562,17.562,0,0,0,2.542,6.885,14.949,14.949,0,0,1-4.034-1.539c-7.98-4.516-10.727-15.862-11.616-22.3l10.919-1.324,2.1,17.537Zm-5.664-13.814-2.776.337a33.521,33.521,0,0,0,4.079,10.535Zm32.077,58.67c1.19-.244,3.584-1.06,4.007-2.373,0.019-.06.123-0.053,0.114,0.015-0.256,2.1-1.291,3.088-3.4,3.592a4.909,4.909,0,0,1-5.2-1.5c-0.013-.016,0-0.045.023-0.031C537.024,123.375,539.04,123.115,540.351,122.846Z" transform="translate(-490.281 -41.969)"/>
</svg>