<svg xmlns="http://www.w3.org/2000/svg" width="64" height="64" viewBox="0 0 64 64"><g><g><g><path d="M39.035 23.305a1.034 1.034 0 0 0-.846-1.625H25.802c-.57 0-1.032.462-1.032 1.032v4.13h2.065v-3.097h9.371l-.169.241a33.617 33.617 0 0 0-6.106 19.371h2.065a31.56 31.56 0 0 1 5.733-18.187z"/></g><g><path d="M54.834 54.498l1.685-5.052 5.246-.748c.103.613.17 1.238.17 1.88 0 3.266-1.396 6.204-3.613 8.275zM44.466 60.14l3.51-4.398h5.197l3.51 4.398a11.238 11.238 0 0 1-12.217 0zm-23.822-2.324v-21.18c0-5.774-2.205-11.201-6.193-15.352V5.6a12.97 12.97 0 0 1 8.936-3.534h1.386v1.032c0 3.985 3.242 7.227 7.226 7.227 3.985 0 7.226-3.242 7.226-7.227V2.065h1.386a12.97 12.97 0 0 1 8.936 3.534v15.685c-3.988 4.152-6.193 9.578-6.193 15.352v2.662c-3.718 2.389-6.194 6.552-6.194 11.291 0 2.662.788 5.139 2.13 7.227zm-6.193-33.364a19.958 19.958 0 0 1 4.129 12.182v21.182h-4.13zm-11.833-2.2l9.768-13.838v17.909zm48.994 4.07V8.415l9.768 13.838zm-2.065 12.956v4.614l-4.425 3.54-5.195-.743c1.479-4.037 5.18-7.008 9.62-7.41zm0-2.064a13.34 13.34 0 0 0-4.129.983V36.63a19.95 19.95 0 0 1 4.13-12.179zM39.394 48.698l5.254.748 1.688 5.052-3.493 4.355c-2.22-2.071-3.618-5.01-3.618-8.274 0-.643.066-1.268.17-1.881zm13.538 4.98h-4.706l-1.602-4.806 3.956-3.163 3.954 3.163zm8.3-6.989l-5.196.742-4.424-3.54v-4.613c4.44.403 8.141 3.374 9.62 7.411zm-9.62-9.475v-8.655l11.752-4.897a1.032 1.032 0 0 0 .446-1.548L51.423 4.566l-.015.011c-.035-.048-.056-.103-.097-.146A15.031 15.031 0 0 0 40.61 0h-2.418c-.57 0-1.033.462-1.033 1.032v2.065A5.167 5.167 0 0 1 32 8.258a5.167 5.167 0 0 1-5.161-5.161V1.032c0-.57-.463-1.032-1.033-1.032h-2.418a15.027 15.027 0 0 0-10.698 4.431c-.043.043-.064.099-.097.146l-.016-.011L.19 22.114a1.033 1.033 0 0 0 .446 1.548l11.751 4.897v30.28c0 .57.463 1.032 1.032 1.032h27.5C43.363 62.411 46.787 64 50.58 64c7.399 0 13.419-6.02 13.419-13.42 0-7.05-5.47-12.837-12.387-13.366z"/></g></g></g></svg>