<svg width="64" height="64" xmlns="http://www.w3.org/2000/svg"><script xmlns="" type="text/javascript" charset="utf-8" id="zm-extension"/><g fill="none"><path d="M31.086 13.511l4.774 14.933h15.746L38.908 37.69l4.876 14.933-12.698-9.244-12.8 9.244 4.876-14.933-12.699-9.245H26.21z" fill="#FEDD00"/><path d="M18.387 51.403l5.181-16.05-13.714-9.956h16.965L32 9.346l5.181 16.05h16.965l-13.714 9.956 5.18 16.051-13.714-9.955-13.51 9.955zM32.102 40.23l11.784 8.533-4.47-13.816L51.2 26.413H36.571l-4.47-13.816-4.57 13.816H13.002l11.784 8.533-4.47 13.816 11.785-8.533zM18.387 7.924l-.508-.914c4.267-2.439 9.245-3.76 14.223-3.76v1.017c-4.877 0-9.55 1.219-13.715 3.657zM7.924 18.59l-.914-.507c1.523-2.845 3.555-5.385 5.993-7.62l.711.712c-2.336 2.235-4.266 4.673-5.79 7.415zm4.063 33.118c-5.384-5.384-8.33-12.495-8.33-20.114 0-2.642.406-5.283 1.118-7.823l1.015.305c-.71 2.438-1.015 4.978-1.015 7.518 0 7.314 2.844 14.222 8.025 19.403l-.813.71z" fill="#3F3F3F"/><path d="M32.102 63.289c-11.073 0-21.435-5.892-27.124-15.441l.914-.508c5.486 9.244 15.543 14.933 26.311 14.933 16.864 0 30.578-13.714 30.578-30.578 0-16.863-13.816-30.68-30.68-30.68-16.863 0-30.577 13.715-30.577 30.579H.508C.508 14.12 14.73 0 32.102 0c17.473 0 31.593 14.222 31.593 31.594 0 17.371-14.222 31.695-31.593 31.695zM2.743 43.581c-.914-2.133-1.524-4.47-1.93-6.806l1.016-.204a37.45 37.45 0 0 0 1.828 6.604l-.914.406z" fill="#3F3F3F"/></g></svg>