<?xml version="1.0" encoding="UTF-8"?>
<!-- Generator: Adobe Illustrator 21.0.0, SVG Export Plug-In . SVG Version: 6.00 Build 0)  -->
<svg version="1.1" xmlns="http://www.w3.org/2000/svg" xmlns:xlink="http://www.w3.org/1999/xlink" x="0px" y="0px" viewBox="0 0 160 160" style="enable-background:new 0 0 160 160;" xml:space="preserve">
<style type="text/css">
	.st0{fill:#0784FF;}
	.st1{fill:#90C661;}
	.st2{fill:#689F38;}
	.st3{fill:#B8C2FF;}
	.st4{fill:#7388FF;}
	.st5{fill:#DFE5FF;}
	.st6{fill:#CCD4FF;}
	.st7{fill:#EFF2FF;}
	.st8{fill:#A4B1FF;}
	.st9{fill:#002755;}
	.st10{fill:#B4D813;}
	.st11{fill:#333333;}
	.st12{fill:#1E1E1D;}
	.st13{fill:#DAEFF6;}
	.st14{fill:#DD2E2B;}
	.st15{fill:#EF5122;}
	.st16{fill:#FFDB6F;}
	.st17{fill:#62BEFF;}
	.st18{fill:#E64028;}
	.st19{fill:#D43B25;}
	.st20{fill:#869F15;}
	.st21{fill:#E8E1D5;}
	.st22{fill:#D6CFC4;}
	.st23{fill:#716680;}
	.st24{fill:#9AD5ED;}
	.st25{fill:#CEE8F2;}
	.st26{fill:#98B70E;}
	.st27{fill:#90AB13;}
	.st28{fill:#FFCFB4;}
	.st29{fill:#604631;}
	.st30{fill:#FCDAC4;}
	.st31{fill:#2F2C29;}
	.st32{fill:#F4F4F4;}
	.st33{fill:#FFDC0F;}
	.st34{fill:#63635F;}
	.st35{fill:#71D182;}
	.st36{fill:#14DDF7;}
	.st37{fill:#008EE5;}
	.st38{fill:#FCD2BE;}
	.st39{fill:#FAB998;}
	.st40{fill:#F9CE55;}
	.st41{fill:#E2A11E;}
	.st42{fill:#6B4B3D;}
	.st43{fill:#5B3D2D;}
	.st44{fill:#D45B5B;}
	.st45{fill:#B3D5E4;}
	.st46{fill:#FFFFFF;}
	.st47{fill:#E4D9B3;}
	.st48{fill:#E2780E;}
	.st49{fill:#A85000;}
	.st50{fill:#CECECE;}
</style>
<g id="Слой_1">
	<g>
		<path class="st0" d="M90.7,123c0,6-4.8,10.9-10.7,10.9c-5.9,0-10.7-4.9-10.7-10.9c0-6,4.8-10.9,10.7-10.9    C85.9,112.1,90.7,117,90.7,123z"/>
		<path class="st1" d="M122.9,133.9L80,128.4l-42.9,5.4c-5.9,0-10.7-4.9-10.7-10.9V52.4c0-6,4.8-10.9,10.7-10.9l32.2-5.4    C75.2,36.1,80,41,80,47c0-6,4.8-10.9,10.7-10.9l32.2,5.4c5.9,0,10.7,4.9,10.7,10.9V123C133.7,129,128.9,133.9,122.9,133.9z"/>
		<path class="st2" d="M29,117.5c-1.5,0-2.7,1.2-2.7,2.7v2.8c0,6,4.8,10.9,10.7,10.9l34.4-4.3c2,2.7,5.2,4.3,8.5,4.3h0.1l0,0h0h0h0    l0,0h0l0,0h0l0,0h0h0h0l0,0h0l0,0h0h0h0l0,0l0,0h0l0,0h0h0l0,0h0l0,0h0h0l0,0l0,0h0l0,0h0l0,0l0,0h0l0,0h0l0,0l0,0h0l0,0l0,0h0    l0,0h0l0,0l0,0l0,0l0,0h0l0,0l0,0h0l0,0l0,0h0l0,0l0,0h0l0,0l0,0h0l0,0l0,0l0,0l0,0l0,0l0,0l0,0h0l0,0l0,0l0,0l0,0l0,0l0,0h0l0,0    l0,0l0,0l0,0l0,0l0,0l0,0l0,0l0,0l0,0l0,0h0l0,0l0,0l0,0h0l0,0l0,0l0,0l0,0l0,0l0,0l0,0l0,0l0,0l0,0l0,0l0,0l0,0l0,0l0,0l0,0l0,0    l0,0l0,0l0,0l0,0l0,0l0,0l0,0l0,0l0,0l0,0l0,0l0,0l0,0l0,0l0,0l0,0l0,0l0,0l0,0l0,0l0,0l0,0l0,0l0,0l0,0l0,0l0,0l0,0l0,0l0,0l0,0    l0,0l0,0l0,0l0,0l0,0l0,0l0,0l0,0l0,0l0,0l0,0l0,0l0,0l0,0l0,0l0,0l0,0l0,0l0,0l0,0l0,0l0,0l0,0l0,0l0,0l0,0l0,0l0,0l0,0l0,0l0,0    l0,0l0,0l0,0l0,0l0,0l0,0l0,0l0,0l0,0l0,0l0,0l0,0l0,0l0,0l0,0l0,0l0,0l0,0l0,0l0,0l0,0l0,0l0,0l0,0l0,0l0,0l0,0l0,0l0,0l0,0l0,0    l0,0l0,0l0,0l0,0l0,0l0,0l0,0l0,0l0,0l0,0l0,0l0,0l0,0l0,0l0,0l0,0l0,0l0,0l0,0l0,0l0,0l0,0l0,0l0,0l0,0l0,0l0,0l0,0l0,0l0,0l0,0    l0.1,0l0,0l0,0l0,0l0,0l0,0l0,0l0,0l0,0l0,0l0,0l0,0l0,0l0,0l0,0l0,0l0,0l0,0l0,0l0,0l0,0l0,0l0,0l0,0l0,0l0,0l0,0l0,0l0,0l0,0    l0,0l0,0l0,0l0,0l0.1,0c0,0,0,0,0,0l0,0l0,0l0,0l0,0l0,0l0,0l0,0l0,0l0,0l0,0l0,0l0,0l0,0l0,0h0l0,0l0,0l0,0l0,0l0,0l0,0l0,0l0,0    l0,0l0,0l0,0l0,0l0,0l0,0c0,0,0,0,0,0l0,0l0,0l0,0l0,0l0,0l0,0l0,0l0,0l0,0l0,0l0,0l0,0l0,0l0,0l0,0c0,0,0,0,0.1,0l0,0l0,0l0,0    l0,0l0,0l0,0l0,0l0,0l0,0l0,0l0,0l0,0c0,0,0,0,0.1,0h0l0,0l0,0l0,0l0,0l0,0l0,0l0,0l0,0l0,0l0,0l0,0l0,0c0,0,0,0,0.1,0l0,0l0,0    l0,0l0,0l0,0l0,0l0,0l0,0l0,0l0,0l0,0c0,0,0.1,0,0.1,0h0l0,0l0,0l0,0l0,0l0,0l0,0l0,0l0,0l0,0l0,0c0,0,0.1,0,0.1,0l0,0l0,0l0,0    l0,0l0,0l0,0c0,0,0.1,0,0.1-0.1l0,0l0,0l0,0l0,0l0,0l0,0l0,0l0,0c0,0,0.1,0,0.1,0l0,0l0,0l0,0l0,0l0,0h0l0,0c0,0,0.1,0,0.1-0.1    c0.1,0,0.1-0.1,0.2-0.1c1.3-0.8,1.7-2.4,0.9-3.7c-0.8-1.3-2.4-1.7-3.7-1c-0.8,0.5-1.7,0.7-2.6,0.7c-1.7,0-3.3-0.8-4.3-2.2    c-1.2-1.6-3-2.4-5-2.1l-34,4.3c-2.9-0.2-5.1-2.5-5.1-5.4v-2.8C31.7,118.7,30.5,117.5,29,117.5z M95.2,124.9    c-1.5,0-2.7,1.2-2.7,2.7c0,1.4,1,2.5,2.3,2.7l16.1,2l0,0l0.1,0l0,0l0.8,0.1l0,0l0,0l0,0l0.1,0l0,0l0.1,0l0,0l0.7,0.1l0,0l0,0l0,0    l0,0l0,0l0.6,0.1l0,0l0.6,0.1h0l0.1,0l0,0l0.1,0l0,0l0.2,0l0,0l0,0l0.2,0h0l0.1,0l0,0l0,0l0,0l0.1,0l0,0l0,0l0,0l0.1,0l0,0l0.1,0    l0,0l0,0l0,0l0.1,0l0,0l0,0l0.1,0l0,0l0,0l0.1,0l0,0l0,0l0.1,0l0,0l0.1,0l0,0l0,0l0.1,0l0,0h0l0,0l0.1,0l0.1,0l0.1,0l0,0l0,0l0,0    l0,0l0,0l0,0l0.1,0l0,0l0.1,0l0.1,0h0l0.1,0l0,0l0.1,0l0,0l0.1,0l0,0l0.3,0l0,0l0,0l0,0l0,0l0,0l0,0l0,0l0.1,0l0,0l0.1,0l0,0    l0.3,0l0.1,0l0,0l0,0l0,0l0,0l0.1,0l0,0l0,0l0,0l0.1,0l0,0l0,0l0,0l0,0l0,0l0.1,0l0,0l0,0l0.2,0h0l0.2,0h0l0.1,0l0,0l0,0l0.1,0    l0,0l0,0l0.1,0l0,0l0.3,0l0,0l0.2,0l0.2,0l0,0l0,0l0,0c0.5,0.1,0.9,0.1,1.2,0.2l0,0l0.1,0l0,0l0,0h0c0.2,0,0.3,0,0.5,0.1l0,0    l0.4,0l0,0l0.3,0h0.1h0h0l0,0h0l0,0h0l0,0h0h0h0l0,0h0l0,0h0h0h0l0,0h0l0,0h0l0,0h0h0h0l0,0h0l0,0h0h0l0,0h0l0,0l0,0h0h0l0,0h0    l0,0h0h0l0,0l0,0l0,0h0h0l0,0l0,0h0l0,0h0l0,0l0,0h0l0,0l0,0h0l0,0l0,0l0,0h0h0l0,0l0,0h0l0,0h0l0,0h0l0,0h0l0,0l0,0l0,0l0,0h0    l0,0l0,0h0l0,0h0l0,0l0,0h0l0,0h0l0,0l0,0l0,0h0l0,0h0l0,0l0,0l0,0l0,0l0,0l0,0l0,0h0l0,0h0l0,0h0l0,0l0,0l0,0l0,0l0,0l0,0l0,0    l0,0l0,0h0l0,0h0l0,0l0,0l0,0l0,0h0l0,0l0,0l0,0l0,0l0,0l0,0l0,0l0,0l0,0l0,0l0,0l0,0c0,0,0,0,0.1,0l0,0l0,0l0,0l0,0l0,0l0,0l0,0    l0,0l0,0l0,0l0,0l0,0l0,0c0,0,0,0,0.1,0h0l0,0l0,0h0l0,0l0,0l0,0l0,0l0,0l0,0l0,0h0l0,0h0l0,0h0l0,0l0,0l0,0l0,0l0,0h0l0,0l0,0    l0,0l0,0l0,0h0l0,0l0,0l0,0l0,0l0,0l0,0l0,0l0,0l0,0l0,0l0,0h0l0,0l0,0l0,0h0l0,0h0l0,0h0l0,0l0,0l0,0l0,0l0,0l0,0l0,0l0,0l0,0    l0,0l0,0h0l0,0l0,0l0,0h0l0,0l0,0l0,0l0,0l0,0l0,0l0,0l0,0l0,0l0,0l0,0l0,0l0,0l0,0c0,0,0,0,0.1,0h0l0,0l0,0l0,0l0,0l0,0l0,0l0,0    l0,0l0,0l0,0l0,0l0,0l0,0h0l0,0l0,0l0,0l0,0l0,0l0,0l0,0l0,0l0,0l0,0l0,0l0,0l0,0h0l0,0h0l0,0h0l0,0l0,0l0,0l0,0l0,0l0,0l0,0l0,0    l0,0l0,0l0,0l0,0l0,0l0,0c0,0,0,0,0.1,0l0,0l0,0l0,0l0,0l0,0l0,0l0,0l0,0h0l0,0l0,0l0,0l0,0c0,0,0,0,0.1,0l0,0l0,0l0,0l0,0l0,0    l0,0l0,0l0,0l0,0l0,0l0,0l0,0l0,0l0,0h0l0,0l0,0l0,0l0,0l0,0l0,0l0,0l0,0l0,0l0,0l0,0l0,0l0,0l0,0l0,0l0,0l0,0l0,0l0,0l0,0l0,0    l0,0l0,0l0,0l0,0l0,0l0,0l0,0l0,0l0,0l0,0l0,0l0,0l0,0l0,0l0,0l0,0l0,0l0,0l0,0l0,0l0,0l0,0l0,0l0,0l0,0l0,0l0,0l0,0l0,0l0,0l0,0    l0,0l0,0l0,0l0,0l0,0l0,0l0,0l0,0l0,0l0,0l0,0l0,0l0,0l0,0l0,0l0,0l0,0l0,0l0,0l0,0l0,0l0,0l0,0l0,0l0,0l0,0l0,0l0,0l0,0l0,0l0,0    l0,0l0,0c0,0,0,0,0,0l0,0l0,0l0,0l0,0l0,0l0,0l0,0l0,0l0,0l0,0l0,0l0,0l0,0l0,0c0,0,0,0,0.1,0l0,0l0,0l0,0l0,0l0,0l0,0l0,0l0,0    l0,0l0,0c0,0,0.1,0,0.1,0h0l0,0l0,0l0,0l0,0h0c0,0,0.1,0,0.1,0l0,0h0l0,0l0,0c1.4-0.7,2.6-1.6,3.5-2.8c1-1.1,0.8-2.9-0.3-3.8    c-1.1-1-2.8-0.8-3.8,0.3c-1,1.1-2.3,1.8-3.8,1.9l-27.6-3.5C95.5,124.9,95.4,124.9,95.2,124.9z"/>
		<path class="st3" d="M31.7,36.1h96.6c5.9,0,10.7,4.9,10.7,10.9v65.2c0,6-4.8,10.9-10.7,10.9H31.7c-5.9,0-10.7-4.9-10.7-10.9V47    C21,41,25.8,36.1,31.7,36.1z"/>
		<path class="st4" d="M131,41.5c4.4,0,8.1,3.6,8.1,8.1v59.7c0,4.5-3.6,8.1-8.1,8.1c-4.4,0-8.1-3.6-8.1-8.1V49.7    C122.9,45.2,126.5,41.5,131,41.5z"/>
		<path class="st5" d="M80,123l-44-4.5c-5.5-0.6-9.7-5.2-9.7-10.8v-65c0-6,4.8-10.9,10.7-10.9c0.4,0,0.7,0,1.1,0.1L80,36.1V123z"/>
		<path class="st6" d="M80,123l44-4.5c5.5-0.6,9.7-5.2,9.7-10.8v-65c0-6-4.8-10.9-10.7-10.9c-0.4,0-0.7,0-1.1,0.1L80,36.1V123z"/>
		<path class="st3" d="M122.9,36.1c-3,0-5.4,2.4-5.4,5.4c0,0,0,0,0,0v65.2H96.1c-3,0-5.4,2.4-5.4,5.4c0,3,2.4,5.4,5.4,5.4h21.5    c5.9,0,10.7-4.9,10.7-10.9V41.5C128.3,38.6,125.9,36.1,122.9,36.1L122.9,36.1z"/>
		<path class="st7" d="M80,30.7l-33.5-5.5c-2.6-0.3-5.2,0.6-7,2.4c-1.6,1.6-2.5,3.8-2.5,6v68.8c0,5.5,4.1,10.2,9.6,10.8l33.4,4.4    V30.7z"/>
		<path class="st5" d="M80,30.7l33.5-5.5c2.6-0.3,5.2,0.6,7,2.4c1.6,1.6,2.5,3.8,2.5,6v67.7c0,5.5-4.1,10.2-9.6,10.8L80,117.6V30.7z    "/>
		<path class="st6" d="M85.4,30.7c3,0,5.4,2.4,5.4,5.4v76c0,3-2.4,5.4-5.4,5.4c-3,0-5.4-2.4-5.4-5.4v-76    C80,33.1,82.4,30.7,85.4,30.7z"/>
		<path class="st8" d="M82.7,36.1c1.5,0,2.7,1.2,2.7,2.7v70.6c0,1.5-1.2,2.7-2.7,2.7s-2.7-1.2-2.7-2.7V38.8    C80,37.3,81.2,36.1,82.7,36.1z"/>
		<path class="st8" d="M96.1,30.7c3,0,5.4,2.4,5.4,5.4v43.4c0,3-2.4,5.4-5.4,5.4c-3,0-5.4-2.4-5.4-5.4V36.1    C90.7,33.1,93.1,30.7,96.1,30.7z"/>
		<path class="st9" d="M72,85c-0.2,0-0.4,0-0.5-0.1l-26.8-5.4c-1.5-0.3-2.4-1.7-2.1-3.2c0.3-1.5,1.7-2.4,3.2-2.1l26.8,5.4    c1.5,0.3,2.4,1.7,2.1,3.2C74.3,84.1,73.2,85,72,85z"/>
		<path class="st9" d="M72,68.7c-0.2,0-0.4,0-0.5-0.1l-26.8-5.4c-1.5-0.3-2.4-1.7-2.1-3.2c0.3-1.5,1.7-2.4,3.2-2.1l26.8,5.4    c1.5,0.3,2.4,1.7,2.1,3.2C74.3,67.8,73.2,68.7,72,68.7z"/>
		<path class="st9" d="M72,52.4c-0.2,0-0.4,0-0.5-0.1L58,49.6c-1.5-0.3-2.4-1.7-2.1-3.2c0.3-1.5,1.7-2.4,3.1-2.1c0,0,0,0,0.1,0    L72.5,47c1.5,0.3,2.4,1.7,2.1,3.2C74.3,51.5,73.2,52.4,72,52.4z"/>
		<path class="st9" d="M72,101.3c-0.2,0-0.4,0-0.5-0.1l-26.8-5.4c-1.5-0.3-2.4-1.7-2.1-3.2c0.3-1.5,1.7-2.4,3.2-2.1l26.8,5.4    c1.5,0.3,2.4,1.7,2.1,3.2C74.3,100.4,73.2,101.3,72,101.3z"/>
		<path class="st9" d="M88,85c-1.5,0-2.7-1.2-2.7-2.7c0-1.3,0.9-2.4,2.2-2.7l26.8-5.4c1.5-0.3,2.9,0.7,3.2,2.1    c0.3,1.5-0.7,2.9-2.1,3.2l-26.8,5.4C88.4,85,88.2,85,88,85z"/>
		<path class="st9" d="M88,68.7c-1.5,0-2.7-1.2-2.7-2.7c0-1.3,0.9-2.4,2.2-2.7l26.8-5.4c1.5-0.3,2.9,0.7,3.2,2.1    c0.3,1.5-0.7,2.9-2.1,3.2l-26.8,5.4C88.4,68.7,88.2,68.7,88,68.7z"/>
		<path class="st9" d="M88,52.4c-1.5,0-2.7-1.2-2.7-2.7c0-1.3,0.9-2.4,2.2-2.7l26.8-5.4c1.5-0.3,2.9,0.7,3.2,2.1    c0.3,1.5-0.7,2.9-2.1,3.2l-26.8,5.4C88.4,52.4,88.2,52.4,88,52.4z"/>
		<path class="st9" d="M88,101.3c-1.5,0-2.7-1.2-2.7-2.7c0-1.3,0.9-2.4,2.2-2.7l26.8-5.4c1.5-0.3,2.9,0.7,3.2,2.1    c0.3,1.5-0.7,2.9-2.1,3.2l-26.8,5.4C88.4,101.3,88.2,101.3,88,101.3z"/>
		<path class="st10" d="M90.7,25.3c3,0,5.4,2.4,5.4,5.4v43.4c0,3-2.4,5.4-5.4,5.4c-3,0-5.4-2.4-5.4-5.4V30.7    C85.4,27.7,87.8,25.3,90.7,25.3z"/>
		<path class="st9" d="M53.2,41.5c0,3-2.4,5.4-5.4,5.4c-3,0-5.4-2.4-5.4-5.4c0-3,2.4-5.4,5.4-5.4C50.8,36.1,53.2,38.6,53.2,41.5z"/>
	</g>
</g>
<g id="Слой_2">
</g>
<g id="Слой_3">
</g>
<g id="Слой_4">
</g>
<g id="Слой_5">
</g>
<g id="Слой_6">
</g>
<g id="Слой_7">
</g>
<g id="Слой_8">
</g>
</svg>