<svg xmlns="http://www.w3.org/2000/svg" width="50.001" height="48" viewBox="0 0 50.001 48">
  <metadata><?xpacket begin="﻿" id="W5M0MpCehiHzreSzNTczkc9d"?>
<x:xmpmeta xmlns:x="adobe:ns:meta/" x:xmptk="Adobe XMP Core 5.6-c142 79.160924, 2017/07/13-01:06:39        ">
   <rdf:RDF xmlns:rdf="http://www.w3.org/1999/02/22-rdf-syntax-ns#">
      <rdf:Description rdf:about=""/>
   </rdf:RDF>
</x:xmpmeta>
                                                                                                    
                                                                                                    
                                                                                                    
                                                                                                    
                                                                                                    
                                                                                                    
                                                                                                    
                                                                                                    
                                                                                                    
                                                                                                    
                                                                                                    
                                                                                                    
                                                                                                    
                                                                                                    
                                                                                                    
                                                                                                    
                                                                                                    
                                                                                                    
                                                                                                    
                                                                                                    
                           
<?xpacket end="w"?></metadata>
<defs>
    <style>
      .cls-1 {
        fill: #d82541;
        fill-rule: evenodd;
      }
    </style>
  </defs>
  <path class="cls-1" d="M968.344,7776.63a1,1,0,0,0,.358-1.35,0.97,0.97,0,0,0-1.335-.37,1.009,1.009,0,0,0-.357,1.36A0.974,0.974,0,0,0,968.344,7776.63Zm-4,6.84,4.918,8.64a3.877,3.877,0,0,0,5.337,1.45,3.986,3.986,0,0,0,1.429-5.41L973.1,7783l2.537-1.49a1,1,0,0,0,.358-1.35l-1.27-2.23c0.151-.03,1.147-0.23,18.706-3.72a2.979,2.979,0,0,0,2.375-4.46l-3.246-5.7,2.074-3.19a1,1,0,0,0,.031-1.04l-1.953-3.43a0.95,0.95,0,0,0-.9-0.49l-3.757.22-3.6-6.33a2.9,2.9,0,0,0-2.5-1.48h-0.037a2.9,2.9,0,0,0-2.467,1.37l-12.758,16.49-8.294,4.85a7,7,0,0,0-2.5,9.48A6.807,6.807,0,0,0,964.342,7783.47Zm9.993,5.67a2,2,0,0,1-.716,2.71,1.941,1.941,0,0,1-2.668-.73l-4.883-8.58,3.383-1.98Zm-2.215-7.86-0.977-1.71,1.692-.99,0.976,1.71Zm19.2-23.37,1.35,2.37-1.2,1.85-2.326-4.09Zm-10.246-7.15a0.974,0.974,0,0,1,1.679.02l11.359,19.96a1,1,0,0,1-.822,1.49,3.632,3.632,0,0,0-.535.09l-12.016-21.11A4.628,4.628,0,0,0,981.072,7750.76Zm-1.635,2.13,11.29,19.83-17.038,3.39-5.181-9.1Zm-21.861,26.62a5.036,5.036,0,0,1-.656-2.48,4.985,4.985,0,0,1,2.443-4.29l7.612-4.46,4.883,8.58-7.612,4.46A4.859,4.859,0,0,1,957.576,7779.51Zm7.742-2.25a0.966,0.966,0,0,0-1.334-.36l-1.691.99a0.969,0.969,0,0,1-1.334-.37,0.975,0.975,0,0,0-1.334-.36,1.007,1.007,0,0,0-.358,1.36,2.9,2.9,0,0,0,4,1.08l1.692-.99A0.994,0.994,0,0,0,965.318,7777.26Zm38.2-26.83-5.443,3.07a1,1,0,0,0-.379,1.35,0.972,0.972,0,0,0,1.329.38l5.443-3.07a1.006,1.006,0,0,0,.38-1.35A0.967,0.967,0,0,0,1003.52,7750.43Zm-0.57,10.26-3.775-1.03a0.976,0.976,0,0,0-1.2.7,1,1,0,0,0,.691,1.22l3.771,1.02a0.975,0.975,0,0,0,1.2-.7A0.987,0.987,0,0,0,1002.95,7760.69Zm-9.484-13.86-1.012,3.83a0.991,0.991,0,0,0,.69,1.21,0.976,0.976,0,0,0,1.2-.7l1.011-3.83a0.987,0.987,0,0,0-.69-1.21A0.975,0.975,0,0,0,993.466,7746.83Z" transform="translate(-954.969 -7746.09)"/>
</svg>