<svg xmlns="http://www.w3.org/2000/svg" width="54" height="54" viewBox="0 0 54 54"><g><g><g><path d="M49.609 19.827l-3.109-1.8 1.797-3.113 3.108 1.8zm-8.09 14.003l-3.105-1.798 7.18-12.457 3.106 1.797zm-6.046 6.869a.903.903 0 0 1-.267-1.177l.445-.78 1.549.897-.445.773a.884.884 0 0 1-1.281.287zm2.695-2.605l-.449-.26-1.326-.771 1.273-3.405 2.823 1.63zm12.247-25.066a.895.895 0 0 1 .546-.422.898.898 0 0 1 1.1.638.947.947 0 0 1-.09.682l-.447.781-1.556-.898zm2.122-1.886a2.695 2.695 0 0 0-3.683.987l-.449.782a.898.898 0 0 0-1.221.324l-2.281 3.888-.782-.449a.9.9 0 0 0-1.23.332.898.898 0 0 0 .332 1.222l.782.449-7.634 13.23-1.887 5.038-.898 1.68a2.695 2.695 0 0 0 .144 2.91l-2.02 2.478-.566-1.419a1.796 1.796 0 0 0-3.207-.251l-.323.547-.305-3.592a1.797 1.797 0 0 0-3.494-.422l-2.21 6.628a.898.898 0 0 0 .566 1.132c.088.04.182.065.279.071a.898.898 0 0 0 .853-.61l2.2-6.628.314 3.646a1.796 1.796 0 0 0 3.333.773l.332-.549.557 1.41a1.796 1.796 0 0 0 3.071.459l2.093-2.65c.232.06.47.091.71.09.962.008 1.856-.5 2.344-1.33l.898-1.5 3.422-4.157 7.715-13.392.781.45a.898.898 0 0 1 .332 1.23l-3.592 6.224a.897.897 0 0 0 .287 1.266.897.897 0 0 0 1.23-.332l3.593-6.224a2.693 2.693 0 0 0-.988-3.682l-.781-.45 2.245-3.888a.898.898 0 0 0-.323-1.222l.449-.781c.368-.63.465-1.381.27-2.084a2.694 2.694 0 0 0-1.258-1.634z"/></g><g><path d="M14.175 40.246l-3.179 3.17-1.904-1.904a.898.898 0 1 0-1.266 1.276l1.904 1.904c.337.334.792.521 1.266.52.478.003.937-.184 1.276-.52l3.17-3.18a.898.898 0 0 0-1.267-1.266z"/></g><g><path d="M3.59 42.664a7.634 7.634 0 1 0 15.268 0 .898.898 0 0 0-1.796 0 5.838 5.838 0 1 1-5.838-5.838 5.787 5.787 0 0 1 3.503 1.168.898.898 0 1 0 1.078-1.437A7.635 7.635 0 0 0 3.59 42.664z"/></g><g><path d="M32.33 7.186a.898.898 0 1 0 0-1.796H8.977a.898.898 0 0 0-.898.898v3.593c0 .496.402.898.898.898H32.33a.898.898 0 1 0 0-1.796H9.876V7.186z"/></g><g><path d="M11.678 12.58a.898.898 0 0 0 0 1.796h17.963a.898.898 0 1 0 0-1.796z"/></g><g><path d="M35.027 18.87H15.268a.898.898 0 0 0 0 1.796h19.759a.898.898 0 1 0 0-1.796z"/></g><g><path d="M26.049 25.148a.898.898 0 0 0-.898-.898H7.188a.898.898 0 0 0 0 1.796h17.963a.898.898 0 0 0 .898-.898z"/></g><g><path d="M35.025 24.25h-6.287a.898.898 0 0 0 0 1.796h6.287a.898.898 0 1 0 0-1.796z"/></g><g><path d="M16.17 30.536a.898.898 0 1 0 0-1.796H7.187a.898.898 0 0 0 0 1.796z"/></g><g><path d="M19.758 30.536h6.287a.898.898 0 1 0 0-1.796h-6.287a.898.898 0 0 0 0 1.796z"/></g><g><path d="M40.416 41.314a.898.898 0 0 0-.898.898v8.981a.898.898 0 0 1-.898.898H2.694a.898.898 0 0 1-.898-.898V2.694c0-.496.402-.898.898-.898H38.62c.496 0 .898.402.898.898v16.867a.898.898 0 0 0 1.796 0V2.694A2.695 2.695 0 0 0 38.62 0H2.694A2.695 2.695 0 0 0 0 2.694v48.5a2.694 2.694 0 0 0 2.694 2.694H38.62a2.694 2.694 0 0 0 2.694-2.695v-8.98a.898.898 0 0 0-.898-.9z"/></g></g></g></svg>