<?xml version="1.0" encoding="UTF-8"?>
<!-- Generator: Adobe Illustrator 22.1.0, SVG Export Plug-In . SVG Version: 6.00 Build 0)  -->
<svg version="1.1" id="Layer_1" xmlns="http://www.w3.org/2000/svg" xmlns:xlink="http://www.w3.org/1999/xlink" x="0px" y="0px" viewBox="0 0 409.6 409.6" enable-background="new 0 0 409.6 409.6" xml:space="preserve">
<g>
	<linearGradient id="SVGID_1_" gradientUnits="userSpaceOnUse" x1="-0.2686" y1="25.2828" x2="408.7434" y2="25.2828">
		<stop offset="0" style="stop-color:#FECE1B"/>
		<stop offset="1" style="stop-color:#F58B8C"/>
	</linearGradient>
	<path fill="url(#SVGID_1_)" d="M209.6,0c5.8,2.2,11.4,4.8,15.4,10.1c6.2,8.3,6.8,19.9,1.2,28.8c-5.4,8.6-16.5,13.3-26.3,11.2   c-10.6-2.3-18.4-10.8-20-21.2c-2-13.2,6.7-24.5,17.6-27.7c0.9-0.3,1.7-0.7,2.5-1.1C203.2,0,206.4,0,209.6,0z M217.8,25.3   c0-7.3-5.9-13.3-13.1-13.2c-7.1,0.1-12.9,5.9-13,13c-0.1,7.3,5.7,13.3,12.9,13.4C211.9,38.5,217.8,32.6,217.8,25.3z"/>
	<linearGradient id="SVGID_2_" gradientUnits="userSpaceOnUse" x1="0.4109" y1="204.7615" x2="409.2822" y2="204.7615">
		<stop offset="0" style="stop-color:#FECE1B"/>
		<stop offset="1" style="stop-color:#F58B8C"/>
	</linearGradient>
	<path fill="url(#SVGID_2_)" d="M0,200c2.1-5.6,4.5-11,9.4-14.9c8.5-6.7,20.2-7.4,29.4-1.6c8.6,5.4,13.3,16.6,11.3,26.3   c-2.3,10.8-10.9,18.6-21.7,19.9c-12.3,1.5-23.3-5.5-27.2-17.3c-0.3-1-0.8-1.9-1.2-2.9C0,206.4,0,203.2,0,200z M25.2,217.8   c7.3,0,13.2-5.9,13.2-13.1c0-7.1-5.8-12.9-12.9-12.9c-7.3-0.1-13.3,5.7-13.4,12.9C11.9,211.9,17.9,217.8,25.2,217.8z"/>
	<linearGradient id="SVGID_3_" gradientUnits="userSpaceOnUse" x1="0.3926" y1="204.8192" x2="409.4" y2="204.8192">
		<stop offset="0" style="stop-color:#FECE1B"/>
		<stop offset="1" style="stop-color:#F58B8C"/>
	</linearGradient>
	<path fill="url(#SVGID_3_)" d="M153.3,294.2c0-6,0.1-10.9-0.1-15.8c0-1.1-1.1-2.4-1.9-3.3c-3.6-3.7-7.4-7.3-11-11   c-5.1-5.3-5.5-10-1.5-16.2c1.9-3,4-6,6.2-9.2c-15.9-7.3-33.4-11.7-42.8-28.6c0.8,20.2,6.9,38,18.3,54.1c1,1.4,2.1,2.8,3,4.2   c2,3.2,1.6,6.6-1,8.6c-2.8,2.2-6.5,1.8-8.7-1.5c-4-5.8-8.2-11.6-11.4-17.8C75.4,205.1,92,141,141.2,108.7   c24.4-16,51.4-22.4,80.4-17.5c47.2,8,78.6,35.3,93,80.6c17.1,53.6-9.4,113.1-60.7,136.5c-41.8,19.2-81.8,14.6-119.1-12.3   c-3.8-2.8-4.7-6.1-2.6-9.2c2.2-3.2,5.7-3.3,9.8-0.5C145.4,288.8,148.9,291.2,153.3,294.2z M229.7,105.1c-0.3,1.7-0.8,3.3-0.9,4.8   c-0.7,7-3.6,12.7-9.2,17c-4.3,3.4-8.3,7.1-12.5,10.6c-7.9,6.6-14.2,4.9-17.7-4.8c-3.3-9.2-6.6-18.4-10.2-28.5   c-8.3,3.3-16.3,6.4-24.5,9.7c5.7,11.1,2.8,19.7-5,27.4c-2.1,2-3.8,4.4-5.8,6.8c2,1.2,3.7,2.1,5.4,3.1c0.5-0.9,0.8-1.5,1.1-2.1   c4.7-8.9,14-10.3,21.1-3.1c2.4,2.5,4.8,5,7.2,7.5c5.8,6.2,5.9,12.5,0.4,18.9c-8.2,9.5-16.6,18.8-24.5,28.5   c-5.2,6.5-10.9,11.3-19.7,10.6c-4.4-0.3-5.8,2.4-6.7,6.2c8.1,3.6,15.9,7.1,23.9,10.5c0.9,0.4,2.1,0.4,3,0.2   c4.4-1.3,8.3-0.3,12.2,2.1c8.2,5.2,16.5,10.2,24.8,15.4c10.5,6.6,13.3,15.9,7.9,27.1c-4.6,9.7-9.3,19.4-14,29.1   c-0.5,1-0.8,2.1-1.2,3c0.4,0.3,0.6,0.4,0.7,0.4c25.8,4.8,50,0.4,72.5-13.2c0.9-0.5,1.5-2.4,1.4-3.6c-0.7-7.8-1.6-15.6-2.5-23.4   c-0.7-5.6-1.5-11.2-2.3-17c-3.5,0.6-6.4,1-9.3,1.6c-7.6,1.4-12.3-0.8-15.9-7.5c-2.1-4-4.1-8-6.2-12.1c-3.2-6.4-3.4-13,0.4-19.1   c4.9-7.7,8.2-16.5,16.3-21.9c-4.7-3.7-5.3-6.1-2.3-11c2.2-3.6,3.7-7.2,3.6-11.6c-0.2-7.2,3.4-11.9,9.8-15   c7.3-3.6,14.4-7.6,21.5-11.4c2.8-1.5,5.5-3,8.6-4.7c-3-3.1-5.7-5.8-8.6-8.8c-2.3,3.4-4.4,6.5-6.6,9.6c-2.6,3.6-6.3,4.6-9.2,2.5   c-2.8-2-3.2-5.6-0.9-9.2c2.2-3.3,4.4-6.6,6.8-10.1C252.4,112.9,241.7,107.9,229.7,105.1z M240.8,238.3c4.3-0.7,8.1-1.3,12-1.8   c6.7-0.8,12.5,3.3,13.7,10c1.1,6,1.6,12.1,2.4,18.2c0.7,5.8,1.5,11.7,2.3,17.7c0.8-0.3,1.1-0.3,1.3-0.5   c15.5-13.4,25.9-30.2,31.4-49.9c0.3-1.2-0.1-2.9-0.8-4c-3.8-6.6-7.7-13.1-11.8-19.5c-0.7-1.1-2.4-2-3.7-2.2   c-5.4-0.7-10.9-1.2-16.3-1.4c-4.7-0.2-8.5-1.9-11.4-5.6c-0.6-0.8-1.7-2-2.3-1.9c-5.3,1.4-11.4,0.8-15,6.2   c-2.9,4.4-5.9,8.9-8.3,13.6c-1,2-1.2,5-0.4,7.1C235.7,229.1,238.3,233.6,240.8,238.3z M118,209.9c2.6-5.4,5.6-9.9,11.3-9.7   c8.9,0.3,14.6-4.2,19.2-10.9c1.1-1.5,2.4-2.8,3.6-4.3c6.2-7.1,12.3-14.3,18.7-21.7c-3.1-3.3-5.9-6.4-9-9.8   c-2.8,6.7-7.1,10.7-14.3,9.6c-3-0.5-6-2.1-8.7-3.7c-8.1-4.8-9.4-13-3.3-20.2c2.7-3.3,5.6-6.4,8.3-9.7c1.9-2.4,2.7-5,0.6-7.7   c-0.4,0-0.6,0-0.7,0.1c-23.1,17.1-36.6,39.9-41.1,68.2c-0.1,0.8,0.1,1.9,0.6,2.5C108.1,198.2,112.9,203.8,118,209.9z M172.5,302.1   c5.8-12.2,11.6-24.3,17.3-36.6c1.8-3.9-0.2-6.7-3.4-8.7c-4.7-3-9.5-5.9-14.2-8.9c-4.4-2.7-8.7-5.4-13.2-8.1   c-3.6,5.3-6.9,10.2-10.6,15.7c4.7,4.6,9.6,8.8,13.8,13.5c1.8,2,3,5,3.2,7.7c0.5,5.7,0.1,11.4,0.1,17.2   C165.5,300.5,165.5,300.5,172.5,302.1z M252.9,166.6c1.2,0.4,1.4,0.6,1.7,0.5c0.9-0.1,1.9-0.2,2.7-0.4c8.3-2.1,16.1-1.2,23,4.2   c1.1,0.9,2.6,1.4,3.7,2.3c2.1,1.7,4,1.7,6.5,0.5c4-2,7.3-1,9,2.2c1.6,3.1,0.4,6.2-3.5,8.6c-0.4,0.3-0.9,0.5-1.3,0.8   c2.3,9.2,6.4,17.2,12.4,25.3c1.1-24.4-5-45.7-18.4-65.1c-11.3,6-22.3,11.8-33.1,17.7C254.6,163.9,254,165.3,252.9,166.6z    M191.5,102.2c3.1,8.7,5.9,16.7,8.9,25.2c7.6-7.3,18.6-11.6,16.6-25.2C208.8,102.2,200.5,102.2,191.5,102.2z M284.7,193.7   c-1.4-3.1-1.9-6.5-3.8-7.8c-6.8-4.7-13.5-10.5-22.9-6.8c-0.4,0.1-0.8,0.1-1.2,0.1c-5.4-0.2-8.4,2.7-9.9,8c1.5-0.3,2.9-0.5,4.3-0.9   c7.1-2.5,13.1-1.2,17.7,5c0.5,0.7,1.4,1.4,2.2,1.5C275.4,193.1,279.6,193.3,284.7,193.7z"/>
	<linearGradient id="SVGID_4_" gradientUnits="userSpaceOnUse" x1="0.4756" y1="314.195" x2="410.8604" y2="314.195">
		<stop offset="0" style="stop-color:#FECE1B"/>
		<stop offset="1" style="stop-color:#F58B8C"/>
	</linearGradient>
	<path fill="url(#SVGID_4_)" d="M165.8,378.7c0,4.2-3.6,6.8-8,5.7c-16.1-4.3-31.6-10.4-46-18.9c-31.5-18.5-56.2-43.9-72.3-76.8   c-5.8-11.7-9.6-24.4-14.1-36.8c-1.3-3.5,0.4-6.8,3.4-7.9c3.5-1.2,6.6,0.4,8,4.5c2.9,8.1,5.1,16.5,8.6,24.4   c22.4,50.5,60.3,83.4,113.2,99C164,373.6,165.8,375.2,165.8,378.7z"/>
	<linearGradient id="SVGID_5_" gradientUnits="userSpaceOnUse" x1="-1.0639" y1="95.3531" x2="409.3162" y2="95.3531">
		<stop offset="0" style="stop-color:#FECE1B"/>
		<stop offset="1" style="stop-color:#F58B8C"/>
	</linearGradient>
	<path fill="url(#SVGID_5_)" d="M384.7,159.8c-0.2,2.9-1.5,5.2-4.7,5.8c-3.5,0.7-6-0.8-7.1-4.2c-2.2-6.4-3.9-13-6.4-19.3   c-15.3-38.9-41.2-68.6-77.6-89.1c-12.1-6.8-24.9-12-38.3-15.6c-0.8-0.2-1.5-0.5-2.3-0.8c-3.8-1.5-5.4-4.4-4.3-7.8   c1-3,4.3-4.8,7.8-3.7c8,2.5,16.1,4.8,23.8,8c51.5,22.1,86.6,59.6,105.2,112.5c1.5,4.1,2.6,8.4,3.8,12.6   C384.7,158.8,384.7,159.2,384.7,159.8z"/>
	<linearGradient id="SVGID_6_" gradientUnits="userSpaceOnUse" x1="0.3103" y1="95.5126" x2="407.9521" y2="95.5126">
		<stop offset="0" style="stop-color:#FECE1B"/>
		<stop offset="1" style="stop-color:#F58B8C"/>
	</linearGradient>
	<path fill="url(#SVGID_6_)" d="M32.2,166c-5.6-0.1-8.1-4-7-8.4c4.5-16.8,11-32.8,20-47.7c23.5-38.9,56.8-65.8,99.6-80.8   c3.9-1.4,7.9-2.4,11.8-3.5c4.5-1.3,7.8,0,8.9,3.5c1.2,3.8-0.7,6.5-5.5,8.2c-9,3.2-18.3,5.7-26.9,9.8C85.5,69.1,54,105.6,38.4,155.8   c-0.6,2-0.8,4.3-2,6C35.2,163.8,33.1,165.1,32.2,166z"/>
	<linearGradient id="SVGID_7_" gradientUnits="userSpaceOnUse" x1="1.8409" y1="314.2332" x2="409.4803" y2="314.2332">
		<stop offset="0" style="stop-color:#FECE1B"/>
		<stop offset="1" style="stop-color:#F58B8C"/>
	</linearGradient>
	<path fill="url(#SVGID_7_)" d="M250,384.8c-3.2-0.2-5.5-1.5-6.1-4.8c-0.7-3.5,0.8-6,4.2-7.2c6.3-2.1,12.7-3.9,18.9-6.3   c39-15,68.7-41,89.3-77.3c6.8-12,11.8-24.7,15.6-37.9c0.3-1,0.5-2.1,0.9-3.1c1.5-3.8,4.4-5.4,7.8-4.2c3.1,1,4.9,4.3,3.7,7.8   c-4.3,12-7.9,24.4-13.5,35.7c-20.4,40.9-51.9,70.4-94,88.3c-8,3.4-16.6,5.7-24.9,8.6C251.3,384.6,250.6,384.7,250,384.8z"/>
	<linearGradient id="SVGID_8_" gradientUnits="userSpaceOnUse" x1="0.3886" y1="204.8017" x2="409.3989" y2="204.8017">
		<stop offset="0" style="stop-color:#FECE1B"/>
		<stop offset="1" style="stop-color:#F58B8C"/>
	</linearGradient>
	<path fill="url(#SVGID_8_)" d="M359.2,204.6c0-13.8,11.4-25.2,25.1-25.2c13.9,0,25.3,11.6,25.3,25.5c-0.1,13.8-11.4,25.1-25.2,25.2   C370.6,230.2,359.2,218.7,359.2,204.6z M384.3,191.8c-7.3,0-13.2,6-13.1,13.2c0.1,7.2,6.1,12.9,13.5,12.8c7.1-0.1,12.9-6,12.9-13   C397.6,197.6,391.6,191.7,384.3,191.8z"/>
	<linearGradient id="SVGID_9_" gradientUnits="userSpaceOnUse" x1="1.0559" y1="384.3825" x2="410.0548" y2="384.3825">
		<stop offset="0" style="stop-color:#FECE1B"/>
		<stop offset="1" style="stop-color:#F58B8C"/>
	</linearGradient>
	<path fill="url(#SVGID_9_)" d="M204.9,359.2c13.9,0.1,25.2,11.3,25.3,25.1c0.1,13.8-11.5,25.3-25.5,25.3   c-13.9,0-25.6-11.9-25.2-25.5C179.8,370.1,191,359.1,204.9,359.2z M217.8,384.4c0-7.3-5.8-13.3-13-13.3c-7.1,0-12.9,5.8-13,12.9   c-0.1,7.3,5.6,13.3,12.8,13.5C211.8,397.7,217.8,391.7,217.8,384.4z"/>
	<linearGradient id="SVGID_10_" gradientUnits="userSpaceOnUse" x1="-0.2649" y1="126.2791" x2="409.6229" y2="126.2791">
		<stop offset="0" style="stop-color:#FECE1B"/>
		<stop offset="1" style="stop-color:#F58B8C"/>
	</linearGradient>
	<path fill="url(#SVGID_10_)" d="M181.3,131.8c-2.1,2.2-3.4,4.2-5.3,5.2c-2.5,1.4-5.2,0.5-6.6-1.9c-2.4-4.2-4.9-8.6-6.4-13.2   c-0.6-1.7,0.9-5.1,2.4-6.3c1.4-1.1,5.6-1,6.4,0.1C175.2,120.6,177.9,126,181.3,131.8z"/>
	<linearGradient id="SVGID_11_" gradientUnits="userSpaceOnUse" x1="-1.561132e-03" y1="139.176" x2="409.2777" y2="139.176">
		<stop offset="0" style="stop-color:#FECE1B"/>
		<stop offset="1" style="stop-color:#F58B8C"/>
	</linearGradient>
	<path fill="url(#SVGID_11_)" d="M237.9,140.6c-0.1,3.4-2.8,6-6.2,5.8c-3.8-0.1-8.6-5-8.5-8.7c0-3.5,2.7-5.9,6.2-5.8   C233.1,132.1,238,137,237.9,140.6z"/>
</g>
</svg>