<svg xmlns="http://www.w3.org/2000/svg" width="50" height="51" viewBox="0 0 50 51">
  <metadata><?xpacket begin="﻿" id="W5M0MpCehiHzreSzNTczkc9d"?>
<x:xmpmeta xmlns:x="adobe:ns:meta/" x:xmptk="Adobe XMP Core 5.6-c142 79.160924, 2017/07/13-01:06:39        ">
   <rdf:RDF xmlns:rdf="http://www.w3.org/1999/02/22-rdf-syntax-ns#">
      <rdf:Description rdf:about=""/>
   </rdf:RDF>
</x:xmpmeta>
                                                                                                    
                                                                                                    
                                                                                                    
                                                                                                    
                                                                                                    
                                                                                                    
                                                                                                    
                                                                                                    
                                                                                                    
                                                                                                    
                                                                                                    
                                                                                                    
                                                                                                    
                                                                                                    
                                                                                                    
                                                                                                    
                                                                                                    
                                                                                                    
                                                                                                    
                                                                                                    
                           
<?xpacket end="w"?></metadata>
<defs>
    <style>
      .cls-1 {
        fill: #d82541;
        fill-rule: evenodd;
      }
    </style>
  </defs>
  <path class="cls-1" d="M1005,7754.93v-0.04c-0.01-.04-0.01-0.08-0.02-0.12h0a0.5,0.5,0,0,0-.04-0.13v-0.03a1.173,1.173,0,0,1-.05-0.11c-0.01,0-.01,0-0.01-0.01a0.673,0.673,0,0,0-.07-0.11,0.038,0.038,0,0,0-.02-0.02,0.392,0.392,0,0,0-.08-0.1h0l-10-9.97h0a0.5,0.5,0,0,0-.1-0.08,0.041,0.041,0,0,0-.025-0.02,0.566,0.566,0,0,0-.11-0.07s-0.007-.01-0.01-0.01c-0.036-.02-0.074-0.03-0.113-0.05a0.027,0.027,0,0,1-.024-0.01l-0.128-.03h0c-0.041-.01-0.082-0.01-0.124-0.02H966a1,1,0,0,0-1,1v5.08h-6.927a3.068,3.068,0,0,0-3.073,3.06v11.81a3.076,3.076,0,0,0,3.073,3.07H965V7794a1,1,0,0,0,1,1h38a1,1,0,0,0,1-1v-39.07Zm-10-7.53,6.59,6.57H995v-6.57Zm-28,45.61v-24.99h1.448a1,1,0,1,0,0-2H958.073a1.072,1.072,0,0,1-1.073-1.07v-11.81a1.072,1.072,0,0,1,1.073-1.07h23.854a1.072,1.072,0,0,1,1.073,1.07v11.81a1.072,1.072,0,0,1-1.073,1.07h-5.479a1,1,0,0,0,0,2h5.479a3.077,3.077,0,0,0,3.073-3.07v-11.81a3.069,3.069,0,0,0-3.073-3.06H967v-4.09h26v8.97a1,1,0,0,0,1,1h9v37.05H967Zm-5-38.95h-2a1,1,0,0,0-1,1v7.97a1,1,0,0,0,2,0v-2.99h1A2.99,2.99,0,1,0,962,7754.06Zm0,3.99h-1v-1.99h1A1,1,0,1,1,962,7758.05Zm9,4.98a1,1,0,0,0,2,0v-7.97a1,1,0,0,0-2,0v2.99h-2v-2.99a1,1,0,0,0-2,0v7.97a1,1,0,0,0,2,0v-2.99h2v2.99Zm5,1a1,1,0,0,0,1-1v-2.99h1a2.99,2.99,0,1,0,0-5.98h-2a1,1,0,0,0-1,1v7.97A1,1,0,0,0,976,7764.03Zm1-7.97h1a1,1,0,1,1,0,1.99h-1v-1.99Zm1.1,19.92h20a1,1,0,1,0,0-2h-20A1,1,0,0,0,978.1,7775.98Zm-3.631,3.99a0.974,0.974,0,0,0,.707-0.29,0.994,0.994,0,0,0,0-1.41l-2.262-2.25,2.323-2.32a1,1,0,0,0-1.414-1.41l-3.03,3.02a0.994,0.994,0,0,0,0,1.41l2.969,2.96A0.977,0.977,0,0,0,974.469,7779.97Zm21.8,2.29a1,1,0,0,0-1.414,1.41l2.262,2.25-2.323,2.32a0.994,0.994,0,0,0,0,1.41,1.007,1.007,0,0,0,1.414,0l3.031-3.02a1,1,0,0,0,0-1.41Zm-4.168-4.29h-14a1,1,0,1,0,0,1.99h14A1,1,0,1,0,992.1,7777.97Zm0,3.99h-14a1,1,0,1,0,0,1.99h14A1,1,0,1,0,992.1,7781.96Zm0,3.97h-20a1,1,0,0,0,0,2h20A1,1,0,1,0,992.1,7785.93Zm-19.3-19.87a0.658,0.658,0,0,0-.187-0.06,0.861,0.861,0,0,0-.391,0,0.638,0.638,0,0,0-.187.06,0.608,0.608,0,0,0-.173.09,0.934,0.934,0,0,0-.152.12,1.639,1.639,0,0,0-.124.15c-0.036.06-.067,0.12-0.092,0.17a1.143,1.143,0,0,0-.057.19,1.043,1.043,0,0,0-.02.2,0.943,0.943,0,0,0,.02.19,1.143,1.143,0,0,0,.057.19,0.865,0.865,0,0,0,.092.17,1.639,1.639,0,0,0,.124.15,0.988,0.988,0,0,0,.707.29,0.654,0.654,0,0,0,.2-0.02,1.229,1.229,0,0,0,.187-0.05,1.134,1.134,0,0,0,.172-0.1,0.591,0.591,0,0,0,.152-0.12,1.838,1.838,0,0,0,.125-0.15,0.865,0.865,0,0,0,.092-0.17,1.143,1.143,0,0,0,.057-0.19,0.942,0.942,0,0,0,.019-0.19,1.042,1.042,0,0,0-.019-0.2,1.143,1.143,0,0,0-.057-0.19c-0.025-.05-0.056-0.11-0.092-0.17a1.838,1.838,0,0,0-.125-0.15,0.934,0.934,0,0,0-.152-0.12A0.616,0.616,0,0,0,972.8,7766.06Z" transform="translate(-955 -7744)"/>
</svg>