<svg width="63" height="65" xmlns="http://www.w3.org/2000/svg"><script xmlns="" type="text/javascript" charset="utf-8" id="zm-extension"/><g fill="none" fill-rule="evenodd"><path d="M3.13 52.202a8.056 8.056 0 1 1 5.069 3M23.833 20.56a8.056 8.056 0 1 1 1.87 5.162m22.413 19.14a8.024 8.024 0 0 1-1.876-5.169 8.057 8.057 0 1 1 6.548 7.916M9.483 1.93v31.22m0 22.153v9.063M32.141 2.434v10.07m0 20.141v7.049m0 5.036v19.133M54.296 1.427v25.175m0 21.148v16.113" stroke="#000" stroke-width="1.2" stroke-linecap="square" stroke-linejoin="round"/><path d="M17.585 45.93a6.357 6.357 0 1 1-12.715 0 6.357 6.357 0 0 1 12.715 0M39.2 21.77a6.357 6.357 0 1 1-12.714 0 6.357 6.357 0 0 1 12.715 0M59.545 38.3a6.357 6.357 0 1 1-12.715 0 6.357 6.357 0 0 1 12.715 0" fill="#FFE735"/></g></svg>