<svg width="56" height="54" viewBox="0 0 56 54" fill="none" xmlns="http://www.w3.org/2000/svg">
<path d="M40.5001 0H4.50001C2.01601 0.00292501 0.00292504 2.01601 2.73373e-08 4.50001V33.3001C-0.000224973 35.3527 1.38848 37.1451 3.37591 37.6579L3.82591 35.9155C2.63307 35.6079 1.79956 34.532 1.80001 33.3001V4.50001C1.80001 3.00882 3.00882 1.80001 4.50001 1.80001H40.5001C41.9913 1.80001 43.2001 3.00882 43.2001 4.50001V5.40002H45.0001V4.50001C44.9972 2.01601 42.9841 0.00292501 40.5001 0Z" fill="#03A87C"/>
<path d="M5.39962 3.59998H3.59961V5.39998H5.39962V3.59998Z" fill="#03A87C"/>
<path d="M9.0002 3.59998H7.2002V5.39998H9.0002V3.59998Z" fill="#03A87C"/>
<path d="M12.5998 3.59998H10.7998V5.39998H12.5998V3.59998Z" fill="#03A87C"/>
<path d="M54.8364 49.7638L46.2999 41.2273C46.7483 40.4269 47.107 39.5793 47.3691 38.7001H48.8001V36.9001H47.7561C48.0951 34.7215 47.8337 32.4918 47.0001 30.4507V21.6H45.2001V27.3313C44.6656 26.6485 44.0625 26.0224 43.4001 25.4629V18H41.6001V24.2047C41.024 23.8708 40.422 23.5833 39.8001 23.3452V14.4H38.0001V22.7989C37.407 22.6708 36.8054 22.5863 36.2001 22.546V16.2H34.4001V22.546C33.7947 22.5863 33.1932 22.6708 32.6001 22.7989V19.8H30.8001V23.3452C30.1782 23.5833 29.5763 23.8708 29.0001 24.2047V18.9H27.2001V25.4629C26.5377 26.0224 25.9345 26.6485 25.4 27.3313V20.7H23.6V30.4507C22.7664 32.4918 22.5051 34.7215 22.844 36.9001H11V38.7001H23.231C25.205 45.3581 32.2025 49.1552 38.8604 47.1813C40.1724 46.7923 41.4121 46.1917 42.5307 45.4033L50.8638 53.7365C51.2153 54.0878 51.785 54.0878 52.1364 53.7365L54.8364 51.0364C55.1878 50.685 55.1878 50.1153 54.8364 49.7638ZM35.3001 45.9001C29.338 45.8937 24.5065 41.0622 24.5 35.1001C24.5 29.1354 29.3354 24.3001 35.3001 24.3001C41.2647 24.3001 46.1001 29.1354 46.1001 35.1001C46.1001 41.0647 41.2647 45.9001 35.3001 45.9001ZM51.5001 51.8275L43.9293 44.2567C44.4198 43.7932 44.8727 43.2916 45.2838 42.7564L52.9275 50.4001L51.5001 51.8275Z" fill="#03A87C"/>
<path d="M35.2998 26.1001C30.3292 26.1001 26.2998 30.1295 26.2998 35.1001C26.2998 40.0707 30.3292 44.1002 35.2998 44.1002C40.2704 44.1002 44.2999 40.0707 44.2999 35.1001C44.2945 30.1318 40.2682 26.1055 35.2998 26.1001ZM35.2998 42.3002C32.7308 42.2969 30.3581 40.9249 29.0736 38.7001H41.5261C40.2415 40.9249 37.8689 42.2969 35.2998 42.3002ZM28.3365 36.9001C27.6123 34.1596 28.5793 31.2504 30.7998 29.4886V35.1001H32.5998V28.4302C33.177 28.1967 33.7821 28.0394 34.3998 27.9622V35.1001H36.1998V27.9622C36.8176 28.0394 37.4227 28.1967 37.9998 28.4302V35.1001H39.7998V29.4886C42.0204 31.2504 42.9873 34.1596 42.2632 36.9001H28.3365Z" fill="#03A87C"/>
<path d="M45.8995 7.20007H9.89943C7.41542 7.203 5.40234 9.21608 5.39941 11.7001V40.5002C5.40234 42.9842 7.41542 44.9973 9.89943 45.0002H21.5995V43.2002H9.89943C8.40824 43.2002 7.19942 41.9914 7.19942 40.5002V11.7001C7.19942 10.2089 8.40824 9.00008 9.89943 9.00008H45.8995C47.3907 9.00008 48.5996 10.2089 48.5996 11.7001V40.5002C48.5994 41.1577 48.3595 41.7926 47.9245 42.2858L49.2746 43.4765C50 42.6548 50.4 41.5963 50.3996 40.5002V11.7001C50.3966 9.21608 48.3836 7.203 45.8995 7.20007Z" fill="#03A87C"/>
</svg>