<svg xmlns="http://www.w3.org/2000/svg" width="70.344" height="74.12" viewBox="0 0 70.344 74.12">
  <path fill-rule="evenodd" fill="#3fa35d" d="M162.651,1602.18c3.781-1.22,13.73.93,13.971,6.01,10.6,1.55,7.876-22.84,13.568-28.35,3.96-3.84,9.161-.18,9.59,4.42,0.576,6.16-.472,12.74-1.32,18.96,6.168,0.07,13.059.5,18.516,3.13,5.051,2.44,5.1,7.78,1.953,10.78,2.282,1.27,4.226,3.08,4.464,5.6,0.294,3.11-1.782,5.54-4.43,6.97,2.294,1.68,4.241,3.85,4.108,6.52a5.592,5.592,0,0,1-3.87,4.98,4.97,4.97,0,0,1,.8,6.36c-3.5,5.85-13.834,4.95-19.488,4.31-9.677-1.08-17.852-5.51-26.988-8.44-0.383-.13-0.706-0.21-1.007-0.29-3.026,5.93-12.7,7.42-17.374,2.09-2.263-2.58-2.142-6.06-1.976-9.26q0.356-6.825.987-13.64C154.789,1615.55,154.707,1604.75,162.651,1602.18Zm35.4,45.2c4.947,0.81,11.167,1.61,15.993-.27,4.844-1.89.976-4.57-2.064-5.62-2.525-.88-1.054-4.64,1.472-3.85,2.34,0.73,6.887-.23,4.57-3.19a14.65,14.65,0,0,0-4.825-3.44c-1.608-.81-1.879-3.79.379-3.95,2.447-.19,7.157-2.04,5.03-5.04-1.113-1.57-3.964-2.38-5.752-2.87-1.929-.53-1.621-3.81.379-3.96,2.063-.15,5.264-1.74,3.433-4.17-1.423-1.9-5.674-2.34-7.765-2.69a80.717,80.717,0,0,0-12.991-1.03,2.073,2.073,0,0,1-1.862-2.24,155.359,155.359,0,0,0,1.655-18.72c0-1.48.392-3.63-1.516-3.76-1.278-.09-1.52.7-2.023,1.78a39.51,39.51,0,0,0-2.355,8.83c-1.017,5.07-1.321,12.02-4.832,16.13a9.022,9.022,0,0,1-6.231,3.01,2.145,2.145,0,0,1-.9.39c-0.663.12-1.5,0.08-2.085,0.18-0.289.05-.568,0.12-0.853,0.18-0.084.11-.165,0.22-0.254,0.34a6.657,6.657,0,0,0-1.431,1.87,2.068,2.068,0,0,1-.646,1.2c-3.166,7.06-3.639,15.67.058,22.39C181.327,1641.14,189.093,1645.93,198.05,1647.38Zm-39.876-23.57c-0.409,4.59-.843,9.22-0.952,13.83-0.064,2.71.193,5.05,3.1,6.1,3.026,1.1,7.644.63,8.721-2.73a20.74,20.74,0,0,1-2.382-6.64,31.793,31.793,0,0,1,5.666-25.58c0.281-1.48-4.109-2.67-4.969-2.81-2.927-.5-5.3.42-6.73,3.1C158.449,1613.16,158.575,1619.31,158.174,1623.81Z" transform="translate(-153.094 -1578.22)"/>
</svg>