<svg width="62" height="62" viewBox="0 0 62 62" fill="none" xmlns="http://www.w3.org/2000/svg">
<path d="M59 0H47.236C46.092 0 45.065 0.636 44.553 1.658L43.382 4H23C21.346 4 20 5.346 20 7V14H0V51.414L10.586 62H40V53.334L50 40H45V32H59C60.654 32 62 30.654 62 29V3C62 1.346 60.654 0 59 0ZM23 6H44.618L46.342 2.553C46.512 2.212 46.855 2 47.236 2H59C59.551 2 60 2.448 60 3V8H22V7C22 6.448 22.449 6 23 6ZM10 58.586L3.414 52H10V58.586ZM12 60V50H2V16H38V24H33V40H28L35.5 50H14V58H36V50.667L38 53.334V60H12ZM34 52V56H16V52H34ZM46 42L39 51.333L32 42H35V26H43V42H46ZM59 30H45V24H40V14H22V10H60V29C60 29.552 59.551 30 59 30Z" fill="#03A87C"/>
<path d="M52 4H54V6H52V4Z" fill="#03A87C"/>
<path d="M56 4H58V6H56V4Z" fill="#03A87C"/>
<path d="M48 4H50V6H48V4Z" fill="#03A87C"/>
<path d="M20 18H4V32H20V18ZM18 30H6V20H18V30Z" fill="#03A87C"/>
<path d="M22 18H36V20H22V18Z" fill="#03A87C"/>
<path d="M22 22H31V24H22V22Z" fill="#03A87C"/>
<path d="M22 26H31V28H22V26Z" fill="#03A87C"/>
<path d="M22 30H31V32H22V30Z" fill="#03A87C"/>
<path d="M15 48H27V34H15V48ZM17 36H25V46H17V36Z" fill="#03A87C"/>
<path d="M4 34H13V36H4V34Z" fill="#03A87C"/>
<path d="M4 38H13V40H4V38Z" fill="#03A87C"/>
<path d="M4 42H13V44H4V42Z" fill="#03A87C"/>
<path d="M4 46H13V48H4V46Z" fill="#03A87C"/>
</svg>