<svg xmlns="http://www.w3.org/2000/svg" width="45" height="44" viewBox="0 0 45 44">
  <metadata><?xpacket begin="﻿" id="W5M0MpCehiHzreSzNTczkc9d"?>
<x:xmpmeta xmlns:x="adobe:ns:meta/" x:xmptk="Adobe XMP Core 5.6-c142 79.160924, 2017/07/13-01:06:39        ">
   <rdf:RDF xmlns:rdf="http://www.w3.org/1999/02/22-rdf-syntax-ns#">
      <rdf:Description rdf:about=""/>
   </rdf:RDF>
</x:xmpmeta>
                                                                                                    
                                                                                                    
                                                                                                    
                                                                                                    
                                                                                                    
                                                                                                    
                                                                                                    
                                                                                                    
                                                                                                    
                                                                                                    
                                                                                                    
                                                                                                    
                                                                                                    
                                                                                                    
                                                                                                    
                                                                                                    
                                                                                                    
                                                                                                    
                                                                                                    
                                                                                                    
                           
<?xpacket end="w"?></metadata>
<defs>
    <style>
      .cls-1 {
        fill: #d82541;
        fill-rule: evenodd;
      }
    </style>
  </defs>
  <path id="Forma_1" data-name="Forma 1" class="cls-1" d="M1699.12,1838.74h-7.21v-1.82a0.869,0.869,0,0,0-.87-0.86h-18.99a0.86,0.86,0,1,0,0,1.72h18.11v6.59a16.31,16.31,0,0,1-8.27,14.1h-16.87a16.322,16.322,0,0,1-8.26-14.1v-6.59h5.89a0.86,0.86,0,1,0,0-1.72h-6.77a0.871,0.871,0,0,0-.88.86v7.45a17.748,17.748,0,0,0,2.58,9.22,18.415,18.415,0,0,0,4.35,4.88h-6.05a0.864,0.864,0,0,0-.88.86,5.739,5.739,0,0,0,5.8,5.67h27.42a5.739,5.739,0,0,0,5.8-5.67,0.864,0.864,0,0,0-.88-0.86h-8.16a18.285,18.285,0,0,0,4.07-4.44h2.48a8.39,8.39,0,0,0,8.47-8.28v-6.15A0.871,0.871,0,0,0,1699.12,1838.74Zm-6.95,21.45a4.025,4.025,0,0,1-3.95,3.09H1660.8a4.033,4.033,0,0,1-3.95-3.09h35.32Zm-0.26-15.82v-0.47h2.82v1.85a3.167,3.167,0,0,1-3.2,3.12h-0.2A17.414,17.414,0,0,0,1691.91,1844.37Zm6.33,1.38a6.642,6.642,0,0,1-6.71,6.56h-1.49a18.643,18.643,0,0,0,.75-1.72h0.74a4.9,4.9,0,0,0,4.95-4.84v-2.71a0.869,0.869,0,0,0-.87-0.86h-3.7v-1.72h6.33v5.29Zm-23.94-20-0.46-.56a2.2,2.2,0,0,1,0-2.8,0.853,0.853,0,0,0-.15-1.21,0.893,0.893,0,0,0-1.23.14,3.889,3.889,0,0,0,0,4.94l0.46,0.56a2.867,2.867,0,0,1,0,3.66l-0.46.58a0.843,0.843,0,0,0,.14,1.21,0.9,0.9,0,0,0,.54.18,0.887,0.887,0,0,0,.69-0.32l0.47-.58A4.555,4.555,0,0,0,1674.3,1825.75Zm4.87,1.93-0.46-.56a2.2,2.2,0,0,1,0-2.8,0.852,0.852,0,0,0-.14-1.21,0.905,0.905,0,0,0-1.24.14,3.877,3.877,0,0,0,.01,4.94l0.45,0.56a2.894,2.894,0,0,1,.01,3.67l-0.47.57a0.866,0.866,0,0,0,.69,1.4,0.861,0.861,0,0,0,.68-0.33l0.47-.58A4.555,4.555,0,0,0,1679.17,1827.68Zm-9.75,0-0.45-.56a2.214,2.214,0,0,1-.01-2.8,0.843,0.843,0,0,0-.14-1.21,0.893,0.893,0,0,0-1.23.14,3.889,3.889,0,0,0,0,4.94l0.46,0.56a2.881,2.881,0,0,1,0,3.67l-0.47.57a0.872,0.872,0,0,0,.69,1.4,0.866,0.866,0,0,0,.69-0.33l0.47-.57A4.569,4.569,0,0,0,1669.42,1827.68Zm-1.21,8.64a0.914,0.914,0,0,0-.62-0.26,0.9,0.9,0,0,0-.62.26,0.834,0.834,0,0,0,0,1.21,0.886,0.886,0,0,0,.62.25,0.9,0.9,0,0,0,.62-0.25A0.834,0.834,0,0,0,1668.21,1836.32Zm18.61,7.19a0.871,0.871,0,0,0-.88.86,12.192,12.192,0,0,1-3.63,8.6,0.857,0.857,0,0,0,0,1.22,0.877,0.877,0,0,0,.62.25,0.911,0.911,0,0,0,.63-0.26,13.879,13.879,0,0,0,4.14-9.81A0.877,0.877,0,0,0,1686.82,1843.51Zm-5.99,11.8a0.889,0.889,0,0,0-1.2-.33l-0.02.01a0.851,0.851,0,0,0-.33,1.17,0.885,0.885,0,0,0,.77.44,0.98,0.98,0,0,0,.43-0.11l0.02-.01A0.851,0.851,0,0,0,1680.83,1855.31Z" transform="translate(-1655 -1821)"/>
</svg>