<svg width="47" height="51" viewBox="0 0 47 51" fill="none" xmlns="http://www.w3.org/2000/svg">
<path d="M0.390625 37.8517C0.390625 38.1409 0.547609 38.4087 0.801813 38.5489L23.1143 50.9005C23.2338 50.9667 23.3669 51.0001 23.5 51.0001C23.6331 51.0001 23.7662 50.9667 23.8857 50.9005L46.1982 38.5489C46.4524 38.4087 46.6094 38.1409 46.6094 37.8517C46.6094 37.5624 46.4524 37.2947 46.1982 37.1544L36.301 31.6759L46.1982 26.1974C46.4524 26.0571 46.6094 25.7894 46.6094 25.5001C46.6094 25.2108 46.4524 24.9439 46.1982 24.8028L36.3018 19.3243L46.1982 13.8458C46.4524 13.7056 46.6094 13.4378 46.6094 13.1485C46.6094 12.8593 46.4524 12.5915 46.1982 12.4513L23.8857 0.0996993C23.6458 -0.0325821 23.3534 -0.0325821 23.1135 0.0996993L0.801016 12.4513C0.547609 12.5915 0.390625 12.8593 0.390625 13.1485C0.390625 13.4378 0.547609 13.7056 0.801813 13.8458L10.6982 19.3243L0.801813 24.8028C0.547609 24.9439 0.390625 25.2108 0.390625 25.5001C0.390625 25.7894 0.547609 26.0571 0.801813 26.1974L10.699 31.6759L0.801813 37.1544C0.547609 37.2947 0.390625 37.5624 0.390625 37.8517ZM21.8545 37.8517L12.3398 43.1142L8.41037 40.9396L17.9219 35.6754L21.8545 37.8517ZM23.5 49.2924L19.5618 47.1122L40.2312 35.673L44.1678 37.8517L23.5 49.2924ZM38.5848 34.7614L17.9155 46.2021L13.9845 44.0267L23.8857 38.5497L34.6562 32.5875L38.5848 34.7614ZM12.3398 7.88597L16.2731 10.0622L12.3422 12.2369L8.40958 10.0606L12.3398 7.88597ZM17.9155 4.79808L21.8497 6.97514L17.9187 9.14982L13.9853 6.97355L17.9155 4.79808ZM33.0099 6.97195L29.0725 9.15141L25.1408 6.97594L29.0789 4.79648L33.0099 6.97195ZM38.5848 10.0583L34.6483 12.2369L30.7173 10.0622L34.6555 7.88358L38.5848 10.0583ZM29.0718 15.3232L25.1408 13.1485L29.0725 10.9731L33.0027 13.1485L29.0718 15.3232ZM34.6475 14.0602L38.584 16.2388L34.6547 18.4135L30.7173 16.2348L34.6475 14.0602ZM27.4262 16.2348L23.4952 18.4103L19.5634 16.2348L23.4952 14.0594L27.4262 16.2348ZM27.4254 10.0622L23.4952 12.2369L19.5634 10.0622L23.4952 7.88677L27.4254 10.0622ZM17.9187 10.9731L21.8489 13.1485L17.9179 15.3232L13.9877 13.1485L17.9187 10.9731ZM16.2723 16.2348L12.339 18.4111L8.40958 16.2364L12.3422 14.0602L16.2723 16.2348ZM17.9179 17.1457L21.8497 19.3211L17.9155 21.4982L13.9845 19.3219L17.9179 17.1457ZM23.4952 20.2328L27.4326 22.4122L23.5 24.5893L19.5618 22.409L23.4952 20.2328ZM29.0789 21.5006L25.1408 19.3211L29.0725 17.1457L33.0099 19.3251L29.0789 21.5006ZM40.2304 15.3272L36.2938 13.1485L40.2304 10.9699L44.167 13.1485L40.2304 15.3272ZM23.5 1.70779L27.4334 3.88486L23.4952 6.06431L19.561 3.88805L23.5 1.70779ZM6.76403 10.9723L10.6966 13.1485L6.76403 15.3248L2.83225 13.1485L6.76403 10.9723ZM12.3438 20.2351L23.1143 26.1974C23.2338 26.2635 23.3669 26.297 23.5 26.297C23.6331 26.297 23.7662 26.2635 23.8857 26.1974L34.6562 20.2351L44.1678 25.5001L23.5 36.9408L2.83225 25.5001L12.3438 20.2351ZM12.3438 32.5875L16.2763 34.7638L6.76403 40.0279L2.83225 37.8517L12.3438 32.5875Z" fill="#03A87C"/>
</svg>