<?xml version="1.0" encoding="UTF-8"?>
<svg width="63px" height="63px" viewBox="0 0 63 63" version="1.1" xmlns="http://www.w3.org/2000/svg" xmlns:xlink="http://www.w3.org/1999/xlink">
    <!-- Generator: Sketch 63.1 (92452) - https://sketch.com -->
    <title>telephone</title>
    <desc>Created with Sketch.</desc>
    <g id="Page-1" stroke="none" stroke-width="1" fill="none" fill-rule="evenodd">
        <g id="01_homepage_mcparking" transform="translate(-539.000000, -2292.000000)" fill="#000000">
            <g id="advantages" transform="translate(0.000000, 2109.000000)">
                <g id="1" transform="translate(438.000000, 131.000000)">
                    <g id="Group-8">
                        <g id="Group-22" transform="translate(82.285714, 22.000000)">
                            <g id="telephone" transform="translate(18.000000, 30.000000)">
                                <g id="Rectangle">
                                    <g id="Mask">
                                        <path d="M59.7628581,13.953392 C59.4133132,13.3603993 58.6508445,13.1643408 58.0597872,13.5155118 C57.4687298,13.8662012 57.2733111,14.6316484 57.622856,15.2241593 C59.7580567,18.8428115 60.9766623,22.9431799 61.1778427,27.154343 L58.7180646,27.154343 C58.0309785,27.154343 57.4744915,27.7131338 57.4744915,28.4019881 C57.4744915,29.0908424 58.0309785,29.6496332 58.7180646,29.6496332 L61.178803,29.6496332 C60.8791931,36.0025065 58.2988988,41.9560372 53.8349994,46.5284876 C49.1655984,51.3119297 42.9496531,54.0596389 36.300618,54.2913444 C36.0783113,52.8471591 35.1818824,51.309521 34.0420203,50.5113172 L24.592785,43.894945 C23.2008474,42.9204332 21.3503721,42.9440372 19.9882034,43.9541961 C19.5234239,44.2991049 19.0884133,44.6811058 18.6870129,45.0973087 C16.5436498,42.6285131 14.8636256,39.724246 13.7933845,36.6224753 C12.7245839,33.5255218 12.2559632,30.2036067 12.4182519,26.9356439 C12.4441797,26.939016 12.4701074,26.9423879 12.4960353,26.9457599 C14.9932646,27.2685099 17.3426095,25.7279814 18.0825115,23.2823082 L19.6199329,18.2045376 C19.6199329,18.2035741 19.620413,18.2026107 19.6208932,18.2016472 L21.4166319,12.2688303 C21.8986967,10.6767582 21.3186826,8.95751307 19.9733189,7.98637318 C19.8907341,7.92519519 19.8047883,7.86642575 19.7188425,7.80717474 C23.919623,4.5844932 28.8795113,2.77179505 34.1418903,2.52515634 L34.1418903,4.80704615 C34.1418903,5.49638196 34.6988574,6.05469109 35.3854635,6.05469109 C36.0720695,6.05469109 36.6290366,5.49638196 36.6290366,4.80704615 L36.6290366,2.52515634 C42.0023289,2.77661227 47.054885,4.65771406 51.3094416,8.00564183 C51.8496037,8.43051547 52.6312782,8.33609909 53.0552455,7.79416838 C53.4787325,7.25175598 53.3846244,6.46800366 52.8439821,6.04264821 C47.821195,2.0892032 41.7838633,0 35.3854635,0 C29.0509228,0 23.0616056,2.05211108 18.0652264,5.9342621 C17.8078692,6.13417436 17.5581943,6.35383695 17.3166818,6.58843266 C12.5334865,4.8913464 7.14771043,6.87505384 4.6543223,11.4306441 C4.65048115,11.4369065 4.64712011,11.4436504 4.64375907,11.4499127 C4.56693602,11.5963544 4.48771228,11.7476134 4.40752818,11.9133238 C4.33358606,12.0660278 4.26636589,12.2163232 4.19530457,12.3757713 C3.68011001,13.4764929 3.44483935,14.1489687 3.08905262,15.1653899 L3.01366991,15.3816805 C2.92772422,15.623502 0.905837497,21.3539981 0.784361078,25.1903861 C0.546689731,32.6984151 2.19934557,39.9968975 5.56419522,46.2963004 C9.13502678,52.9825215 14.5400086,58.2876621 21.1962459,61.6394436 C21.3244442,61.7073656 21.4819315,61.7902208 21.6475813,61.8711491 C23.0976164,62.577345 24.6542434,62.9333333 26.2195131,62.9333333 C27.3742596,62.9333333 28.5338075,62.7396834 29.6573446,62.3490116 C32.3029385,61.4303787 34.4338179,59.5319352 35.657225,57.0043701 C35.6898748,56.9369299 35.7196438,56.8685262 35.750373,56.8006042 C35.863687,56.7996408 35.9616364,56.7986773 36.0230948,56.7972321 C43.4504434,56.6324852 50.4072509,53.6058622 55.6120126,48.2742271 C60.8244567,42.9344029 63.6952381,35.8772604 63.6952381,28.4019881 C63.6952381,23.3092843 62.3354701,18.312442 59.7628581,13.953392 L59.7628581,13.953392 Z M33.4202337,55.914728 C32.4873139,57.8425564 30.861546,59.2905952 28.8435005,59.9914924 C26.825455,60.6923895 24.6556839,60.5628079 22.7341472,59.6263515 C22.5997069,59.5613198 22.4724688,59.4938796 22.3447505,59.4259576 C22.3370682,59.4221039 22.3293859,59.4182501 22.3221837,59.4143964 C16.1220833,56.2952839 11.0853719,51.3514303 7.756053,45.1180225 C4.59718512,39.2039925 3.0458396,32.3404999 3.2695868,25.2693875 C3.37857941,21.8251166 5.33612688,16.2747823 5.35725322,16.2145678 L5.43551674,15.992015 C5.79082323,14.9775206 5.98624189,14.4182481 6.45102136,13.4259127 C6.45438239,13.4186869 6.4620647,13.4013451 6.46542574,13.3941194 C6.52304303,13.2650194 6.5801802,13.1354378 6.64451945,13.0034475 C6.70789846,12.8724207 6.77367817,12.7471746 6.83897777,12.6219282 C8.89015324,8.88670075 13.4961753,7.42372864 17.3306059,9.29182406 C17.7569739,9.49944378 18.150692,9.73692984 18.5002369,9.9970566 C18.5059986,10.0009103 18.5117603,10.0052457 18.5175221,10.0090995 C19.0010272,10.356417 19.2098899,10.9730137 19.037038,11.5438474 L17.567797,16.3971383 L14.691254,15.8104079 C14.0176118,15.6731188 13.361735,16.109072 13.2248939,16.7844381 C13.0880529,17.4593225 13.5225832,18.1178286 14.1952651,18.2555994 L16.8418192,18.7951216 L15.7029176,22.5573253 C15.3168816,23.8329098 14.1006767,24.6378575 12.8134105,24.4711838 C12.4163313,24.4201219 12.018772,24.3372666 11.6327362,24.2255084 C11.2793501,24.1233847 10.899076,24.1831174 10.5941846,24.3892921 C10.2888129,24.5954665 10.0905134,24.9264056 10.0516218,25.2934734 C9.62381338,29.3610851 10.1049178,33.5611688 11.4430794,37.4389843 C12.7826813,41.3211353 14.9942248,44.9229274 17.8376381,47.8541706 C18.0935548,48.1181511 18.4527026,48.2549585 18.8190525,48.2284642 C19.1849223,48.2019698 19.520543,48.0141004 19.7361278,47.7159181 C20.2225137,47.0419971 20.8044483,46.451413 21.4665669,45.9605441 C21.9687977,45.5876958 22.653483,45.5799884 23.1691578,45.9412755 L32.6183932,52.557166 C33.2190534,52.9777043 33.7889844,54.0268822 33.8605259,54.8034088 C33.7438509,55.1786656 33.5959665,55.551514 33.4202337,55.914728 L33.4202337,55.914728 Z" id="Shape" fill-rule="nonzero"></path>
                                        <path d="M35.7060161,35.9184899 C35.8759498,35.6995285 35.9619048,35.4439169 35.9619048,35.1591732 C35.9619048,34.8565742 35.8749619,34.595794 35.7025582,34.3843506 C35.5227445,34.1639797 35.2999535,34.0521495 35.0411009,34.0521495 L26.7746138,34.0521495 L26.7746138,32.8464522 C26.7746138,32.3742287 26.9904889,31.88368 27.4158174,31.3884327 C27.8525077,30.879089 28.4008404,30.4054558 29.0464899,29.9792799 L31.239327,28.4944774 C32.0228006,27.9390861 32.7563809,27.3766466 33.4188263,26.8231348 C34.0921393,26.2606953 34.6622079,25.5662213 35.1142119,24.7589774 C35.568192,23.9465648 35.7988868,23.0871649 35.7988868,22.2038014 C35.7988868,20.7349746 35.2421562,19.4977958 34.1449966,18.5265659 C33.0503071,17.5576852 31.6691013,17.0666667 30.0404048,17.0666667 C28.5218689,17.0666667 27.22069,17.4951919 26.1724357,18.3400257 C25.1177597,19.1900281 24.5832587,20.2947024 24.5832587,21.622567 C24.5832587,22.7732889 25.2160643,23.0152742 25.7471073,23.0152742 C26.1403262,23.0152742 26.461422,22.9170705 26.7019967,22.7234822 C26.9489936,22.5251954 27.0744679,22.2902583 27.0744679,22.0252492 C27.0744679,21.136717 27.3501162,20.4502308 27.8940031,19.9859951 C28.4423358,19.5180004 29.1645544,19.280714 30.0404048,19.280714 C31.0733452,19.280714 31.8746026,19.5819033 32.4219474,20.1762941 C32.9732441,20.7753838 33.2528445,21.4839541 33.2528445,22.2818006 C33.2528445,23.03078 32.9440986,23.7802294 32.3354986,24.5094742 C31.7160307,25.2518754 30.9557747,25.9313135 30.0739963,26.5299333 L27.4182874,28.4033217 C26.5444129,29.0136883 25.7886028,29.7086323 25.1725929,30.467949 C24.5462093,31.2399524 24.2285714,32.0387386 24.2285714,32.8426933 L24.2285714,35.364978 C24.2285714,35.6318666 24.3614556,35.8536472 24.6232721,36.0242116 C24.869281,36.1849086 25.1266515,36.2666667 25.3879742,36.2666667 L35.0475228,36.2666667 C35.3063754,36.2661968 35.5276845,36.1491982 35.7060161,35.9184899 L35.7060161,35.9184899 Z" id="Path"></path>
                                        <path d="M43.5470619,36.0425312 C43.7790138,36.191485 44.0551251,36.2666667 44.368423,36.2666667 C44.6807913,36.2666667 44.9573674,36.191485 45.1893195,36.0425312 C45.4394,35.8827701 45.5662997,35.6586345 45.5662997,35.3762332 L45.5662997,31.9615738 L46.8055464,31.9615738 C47.0514434,31.9615738 47.2657318,31.8323552 47.4423685,31.5776771 C47.6106384,31.3366258 47.6952381,31.0673813 47.6952381,30.7769919 C47.6952381,30.4710962 47.6199351,30.1980927 47.4707235,29.9659692 C47.3103559,29.7178695 47.0867708,29.5919402 46.8055464,29.5919402 L45.5662997,29.5919402 L45.5662997,25.4010295 C45.5662997,25.1172185 45.4384704,24.8959023 45.1865304,24.7445992 C44.9541135,24.605513 44.678932,24.5350301 44.368423,24.5350301 C44.0574493,24.5350301 43.7822677,24.605513 43.5503156,24.7445992 C43.2983758,24.8959023 43.1705465,25.1167487 43.1705465,25.4010295 L43.1705465,29.5919402 L39.047936,29.5919402 L44.5757389,18.4673959 C44.653831,18.3283098 44.6938066,18.1859344 44.6938066,18.0440289 C44.6938066,17.7616275 44.5603993,17.5229257 44.2963738,17.3349714 C44.0458285,17.1568847 43.7850568,17.0666667 43.521496,17.0666667 C43.0482952,17.0666667 42.6843304,17.2978504 42.439363,17.7569287 L36.1083274,30.4043725 C36.0111771,30.5617843 35.9619048,30.7497386 35.9619048,30.9630666 C35.9619048,31.2590947 36.0455748,31.5015557 36.2115205,31.6834015 C36.3793254,31.8680666 36.6033753,31.9620437 36.8771624,31.9620437 L43.1705465,31.9620437 L43.1705465,35.3762332 C43.1705465,35.6591045 43.2974461,35.8832399 43.5470619,36.0425312 L43.5470619,36.0425312 Z" id="Path"></path>
                                        <path d="M30.2201592,39.5426076 C29.6807622,39.7571773 29.4208266,40.3605299 29.6392702,40.8903614 L29.6653044,40.9534936 C29.8312727,41.3558619 30.2254474,41.6 30.6419953,41.6 C30.7737937,41.6 30.9076259,41.5756262 31.0369836,41.5240814 C31.5763806,41.3095117 31.8363162,40.7061591 31.6178727,40.1763276 L31.5918384,40.1131953 C31.3733949,39.5837634 30.7595562,39.3280377 30.2201592,39.5426076 Z" id="Path"></path>
                                        <path d="M34.9986432,40.9534433 C35.164611,41.3558429 35.5587847,41.6 35.9753315,41.6 C36.1071295,41.6 36.2409614,41.5756243 36.3703186,41.5240755 C36.9097142,41.309489 37.1696492,40.7060895 36.9512062,40.1762166 L36.9251721,40.1130794 C36.706729,39.5836062 36.0924852,39.3282604 35.5530896,39.5424473 C35.0141009,39.7574333 34.7541659,40.360833 34.972609,40.8903061 L34.9986432,40.9534433 Z" id="Path"></path>
                                        <path d="M41.9534925,39.5426076 C41.4140956,39.7571773 41.15416,40.3605299 41.3726035,40.8903614 L41.3986377,40.9534936 C41.564606,41.3558619 41.9587808,41.6 42.3753287,41.6 C42.507127,41.6 42.6409593,41.5756262 42.7703169,41.5240814 C43.3097139,41.3095117 43.5696496,40.7061591 43.351206,40.1763276 L43.3251717,40.1131953 C43.1067282,39.5837634 42.4928896,39.3280377 41.9534925,39.5426076 Z" id="Path"></path>
                                        <path d="M54.1924254,11.081824 C54.3589012,11.4873061 54.7542812,11.7333333 55.1721027,11.7333333 C55.3043039,11.7333333 55.4385455,11.7087709 55.5687066,11.6568273 C56.1093449,11.440597 56.3700753,10.8325753 56.1509638,10.2986436 L56.1317865,10.2515319 C55.9122669,9.71800291 55.2965515,9.46029832 54.7555052,9.67652855 C54.214459,9.89275889 53.9537286,10.5011832 54.17284,11.0347123 L54.1924254,11.081824 Z" id="Path"></path>
                                        <path d="M18.7980504,51.8515687 C18.5789384,51.3176503 17.9628133,51.0603548 17.4221737,51.2765796 C16.881126,51.4928045 16.6203949,52.1008112 16.8395069,52.634327 L16.8590924,52.6818401 C17.0255686,53.0873121 17.4209496,53.3333333 17.8387722,53.3333333 C17.9705659,53.3333333 18.1052157,53.3083689 18.2349693,53.2568292 C18.7760169,53.0402016 19.036748,52.432195 18.8176359,51.8986791 L18.7980504,51.8515687 Z" id="Path"></path>
                                        <path d="M28.056055,55.9139428 C26.052785,56.359509 23.9253973,55.051141 21.925508,53.5712429 C21.3580437,53.1514318 20.578565,53.3018426 20.184962,53.9070917 C19.791359,54.5123407 19.9323801,55.3437209 20.4998443,55.763532 C21.8351966,56.7515043 24.4238,58.6666667 27.2659514,58.6666667 C27.6943267,58.6666667 28.1289801,58.6228826 28.5655654,58.5260429 C29.2421762,58.3761472 29.6763469,57.6694224 29.5353258,56.9482747 C29.3947879,56.2271269 28.7321827,55.7645621 28.056055,55.9139428 L28.056055,55.9139428 Z" id="Path"></path>
                                    </g>
                                </g>
                            </g>
                        </g>
                    </g>
                </g>
            </g>
        </g>
    </g>
</svg>