<svg xmlns="http://www.w3.org/2000/svg" width="64" height="64" viewBox="0 0 64 64"><g><g><g><path d="M3 34.997a1 1 0 0 1-1-1V30.13a1 1 0 1 1 2 0v3.867a1 1 0 0 1-1 1z"/></g><g><path d="M17 34.99a1 1 0 0 1-1-1v-4.5a1 1 0 1 1 2 0v4.5a1 1 0 0 1-1 1z"/></g><g><path d="M17 30.49a1 1 0 0 1-1-1c0-3.584-2.916-6.5-6.501-6.5A6.507 6.507 0 0 0 3 29.49a1 1 0 1 1-2 0c0-4.687 3.813-8.5 8.499-8.5 4.688 0 8.501 3.813 8.501 8.5a1 1 0 0 1-1 1z"/></g><g><path d="M17 31.865a.999.999 0 0 1-.794-.392c-1.931-2.522-2.456-2.313-4.414-1.538-1.88.743-4.715 1.87-9.948 1.042a1 1 0 1 1 .313-1.975c4.693.742 7.123-.223 8.899-.927 2.408-.954 4.024-1.362 6.738 2.181a1 1 0 0 1-.793 1.61z"/></g><g><path d="M12.998 29.473a1 1 0 0 1-.896-1.441l2-4.072a1 1 0 0 1 1.795.881l-2 4.072a1 1 0 0 1-.899.56z"/></g><g><path d="M1 47.99a1 1 0 0 1-1-1c0-2.206 1.794-4 4-4a1 1 0 1 1 0 2c-1.103 0-2 .896-2 2a1 1 0 0 1-1 1z"/></g><g><path d="M7 45H4a1 1 0 1 1 0-2h3a1 1 0 1 1 0 2z"/></g><g><path d="M1 51.994a1 1 0 0 1-1-1V46.99a1 1 0 1 1 2 0v4.004a1 1 0 0 1-1 1z"/></g><g><path d="M19 47.99a1 1 0 0 1-1-1c0-1.104-.897-2-2-2a1 1 0 1 1 0-2c2.206 0 4 1.794 4 4a1 1 0 0 1-1 1z"/></g><g><path d="M16 45h-3a1 1 0 1 1 0-2h3a1 1 0 1 1 0 2z"/></g><g><path d="M19 51.994a1 1 0 0 1-1-1V46.99a1 1 0 1 1 2 0v4.004a1 1 0 0 1-1 1z"/></g><g><path d="M19 52H1a1 1 0 1 1 0-2h18a1 1 0 1 1 0 2z"/></g><g><path d="M7 45.004a1 1 0 0 1-1-1V40.32a1 1 0 1 1 2 0v3.684a1 1 0 0 1-1 1z"/></g><g><path d="M13 44.998a1 1 0 0 1-1-1V40.32a1 1 0 1 1 2 0v3.678a1 1 0 0 1-1 1z"/></g><g><path d="M10 41.99c-4.411 0-8-3.59-8-8a1 1 0 1 1 2 0c0 3.309 2.691 6 6 6s6-2.691 6-6a1 1 0 1 1 2 0c0 4.41-3.589 8-8 8z"/></g><g><path d="M45 47.99a1 1 0 0 1-1-1c0-2.206 1.794-4 4-4a1 1 0 1 1 0 2 2 2 0 0 0-2 2 1 1 0 0 1-1 1z"/></g><g><path d="M51 45h-3a1 1 0 1 1 0-2h3a1 1 0 1 1 0 2z"/></g><g><path d="M45 51.994a1 1 0 0 1-1-1V46.99a1 1 0 1 1 2 0v4.004a1 1 0 0 1-1 1z"/></g><g><path d="M63 47.99a1 1 0 0 1-1-1 2 2 0 0 0-2-2 1 1 0 1 1 0-2c2.206 0 4 1.794 4 4a1 1 0 0 1-1 1z"/></g><g><path d="M60 45h-3a1 1 0 1 1 0-2h3a1 1 0 1 1 0 2z"/></g><g><path d="M63 51.994a1 1 0 0 1-1-1V46.99a1 1 0 1 1 2 0v4.004a1 1 0 0 1-1 1z"/></g><g><path d="M63 52H45a1 1 0 1 1 0-2h18a1 1 0 1 1 0 2z"/></g><g><path d="M51 45.004a1 1 0 0 1-1-1V40.32a1 1 0 1 1 2 0v3.684a1 1 0 0 1-1 1z"/></g><g><path d="M57 44.998a1 1 0 0 1-1-1V40.32a1 1 0 1 1 2 0v3.678a1 1 0 0 1-1 1z"/></g><g><path d="M20 59a1 1 0 0 1-1-1c0-3.309 2.691-6 6-6a1 1 0 1 1 0 2c-2.206 0-4 1.794-4 4a1 1 0 0 1-1 1z"/></g><g><path d="M28 54h-3a1 1 0 1 1 0-2h3a1 1 0 1 1 0 2z"/></g><g><path d="M20 63.002a1 1 0 0 1-1-1V58a1 1 0 1 1 2 0v4.002a1 1 0 0 1-1 1z"/></g><g><path d="M21 63.995c-1.103 0-2-.896-2-2 0-.53.418-.914.948-.943.57-.037.992.416 1.052.942a1 1 0 0 1 0 2.001z"/></g><g><path d="M44 59a1 1 0 0 1-1-1c0-2.206-1.794-4-4-4a1 1 0 1 1 0-2c3.309 0 6 2.691 6 6a1 1 0 0 1-1 1z"/></g><g><path d="M39 54h-3a1 1 0 1 1 0-2h3a1 1 0 1 1 0 2z"/></g><g><path d="M44 63.002a1 1 0 0 1-1-1V58a1 1 0 1 1 2 0v4.002a1 1 0 0 1-1 1z"/></g><g><path d="M43 64a1 1 0 1 1 0-2 1 1 0 1 1 2 0 2 2 0 0 1-2 2z"/></g><g><path d="M43 64H21a1 1 0 1 1 0-2h22a1 1 0 1 1 0 2z"/></g><g><path d="M28 53.996a1 1 0 0 1-1-1V49.06c0-.554.447-1 1-1 .553 0 1 .446 1 1v3.936a1 1 0 0 1-1 1z"/></g><g><path d="M36 53.996a1 1 0 0 1-1-1V49.06c0-.554.447-1 1-1 .553 0 1 .446 1 1v3.936a1 1 0 0 1-1 1z"/></g><g><path d="M31.999 50.998C26.485 50.998 22 46.514 22 41a1 1 0 1 1 2 0c0 4.41 3.588 7.998 7.999 7.998C36.411 48.998 40 45.41 40 41a1 1 0 1 1 2 0c0 5.514-4.486 9.998-10.001 9.998z"/></g><g><path d="M23 42.045a1 1 0 0 1-1-1V34.99a1 1 0 1 1 2 0v6.055a1 1 0 0 1-1 1z"/></g><g><path d="M41 41.996a1 1 0 0 1-1-1V34.99a1 1 0 1 1 2 0v6.006a1 1 0 0 1-1 1z"/></g><g><path d="M41 35.99a1 1 0 0 1-1-1c0-1.654-1.346-3-3-3a1 1 0 1 1 0-2c2.757 0 5 2.243 5 5a1 1 0 0 1-1 1z"/></g><g><path d="M37 31.99a1 1 0 0 1-1-1v-4a1 1 0 1 1 2 0v4a1 1 0 0 1-1 1z"/></g><g><path d="M37 27.99h-6a1 1 0 1 1 0-2h6a1 1 0 1 1 0 2z"/></g><g><path d="M23 35.99a1 1 0 0 1-1-1c0-4.963 4.037-9 9-9a1 1 0 1 1 0 2c-3.859 0-7 3.141-7 7a1 1 0 0 1-1 1z"/></g><g><g><path d="M41 39.026a1.01 1.01 0 0 1-.56-.172l-3-2.024a1.004 1.004 0 0 1-.27-1.39 1.005 1.005 0 0 1 1.39-.27l3 2.025a1.002 1.002 0 0 1-.56 1.83z"/></g><g><path d="M32.5 37.991c-3.612 0-6.687-1.008-6.815-1.05a1.002 1.002 0 0 1-.634-1.265c.174-.523.74-.809 1.264-.636.029.012 2.908.95 6.186.95 3.179 0 5.04-.888 5.06-.897a1.004 1.004 0 0 1 1.336.456.999.999 0 0 1-.448 1.336c-.094.048-2.263 1.106-5.95 1.106z"/></g><g><path d="M23.001 39.025a1 1 0 0 1-.56-1.83l3-2.024a1 1 0 0 1 1.12 1.66l-3 2.025a1.01 1.01 0 0 1-.56.169z"/></g></g><g><path d="M2 30.986a1 1 0 0 1-1-1v-.496a1 1 0 1 1 2 0v.496a1 1 0 0 1-1 1z"/></g><g><g><path d="M47 35.002a1 1 0 0 1-1-1V29a1 1 0 1 1 2 0v5.002a1 1 0 0 1-1 1z"/></g><g><path d="M61 35.002a1 1 0 0 1-1-1V29a1 1 0 1 1 2 0v5.002a1 1 0 0 1-1 1z"/></g><g><path d="M54 41.998c-4.411 0-8-3.588-8-7.998a1 1 0 1 1 2 0 6.004 6.004 0 0 0 6 5.998c3.309 0 6-2.689 6-5.998a1 1 0 1 1 2 0c0 4.41-3.589 7.998-8 7.998z"/></g><g><g><path d="M61 29.996a1 1 0 0 1-1-1A6.004 6.004 0 0 0 54 23c-3.309 0-6 2.689-6 5.996a1 1 0 1 1-2 0C46 24.587 49.589 21 54 21s8 3.587 8 7.996a1 1 0 0 1-1 1z"/></g><g><path d="M53.935 31.023c-2.9 0-5.256-1.07-5.354-1.115a1 1 0 0 1 .835-1.817c.021.01 2.072.933 4.52.933 2.481 0 4.646-.923 4.668-.932a.997.997 0 0 1 1.313.52 1.002 1.002 0 0 1-.52 1.315c-.107.045-2.573 1.096-5.462 1.096z"/></g><g><g><path d="M61 32c-.254 0-.509-.097-.704-.289l-2-1.98a1.001 1.001 0 0 1 1.408-1.422l2 1.98A1.001 1.001 0 0 1 61 32z"/></g><g><path d="M47.001 32.02a.993.993 0 0 1-.705-.291.997.997 0 0 1-.004-1.414l2-2.01a1 1 0 1 1 1.418 1.41l-2 2.01a.994.994 0 0 1-.709.295z"/></g></g></g></g><g><path d="M10 47.002c-2.243 0-4-1.318-4-3.002a1 1 0 1 1 2 0c0 .408.779 1.002 2 1.002s2-.594 2-1.002a1 1 0 1 1 2 0c0 1.684-1.757 3.002-4 3.002z"/></g><g><path d="M54 47.002c-2.243 0-4-1.318-4-3.002a1 1 0 1 1 2 0c0 .408.779 1.002 2 1.002s2-.594 2-1.002a1 1 0 1 1 2 0c0 1.684-1.757 3.002-4 3.002z"/></g><g><path d="M32 56.996c-2.757 0-5-1.797-5-4.006a1 1 0 1 1 2 0c0 1.087 1.374 2.006 3 2.006s3-.919 3-2.006a1 1 0 1 1 2 0c0 2.209-2.243 4.006-5 4.006z"/></g><g><path d="M10 52a1 1 0 0 1-1-1v-2a1 1 0 1 1 2 0v2a1 1 0 0 1-1 1z"/></g><g><path d="M52.5 52a1 1 0 0 1-1-1v-2a1 1 0 1 1 2 0v2a1 1 0 0 1-1 1z"/></g><g><path d="M55.5 52a1 1 0 0 1-1-1v-2a1 1 0 1 1 2 0v2a1 1 0 0 1-1 1z"/></g><g><path d="M32 64a1 1 0 0 1-1-1v-3a1 1 0 1 1 2 0v3a1 1 0 0 1-1 1z"/></g><g><path d="M35 64a1 1 0 0 1-1-1v-3a1 1 0 1 1 2 0v3a1 1 0 0 1-1 1z"/></g><g><path d="M29 64a1 1 0 0 1-1-1v-3a1 1 0 1 1 2 0v3a1 1 0 0 1-1 1z"/></g><g><g><path d="M42 12c0 5.514-4.486 10-10 10s-10-4.486-10-10S26.486 2 32 2s10 4.486 10 10zm2 0c0-6.617-5.383-12-12-12S20 5.383 20 12s5.383 12 12 12 12-5.383 12-12z"/></g><g><path d="M41.315 7.163a.914.914 0 0 1-.146-.011l-4.616-.678a1.002 1.002 0 0 1-.751-.547l-2.048-4.154a.999.999 0 1 1 1.793-.885l1.816 3.684 4.097.602a1 1 0 0 1-.145 1.989z"/></g><g><path d="M40.392 20.105a.999.999 0 0 1-.984-.831l-.803-4.684a1 1 0 0 1 .287-.886l3.36-3.271a1 1 0 1 1 1.395 1.434l-2.984 2.904.714 4.165a.998.998 0 0 1-.985 1.169z"/></g><g><path d="M27.782 23.153a.999.999 0 0 1-.465-1.886l4.223-2.213c.29-.152.637-.152.928 0l4.224 2.213c.489.256.68.86.422 1.35a.999.999 0 0 1-1.35.422l-3.76-1.97-3.76 1.97a.985.985 0 0 1-.462.114z"/></g><g><path d="M23.6 20.105a.998.998 0 0 1-.986-1.169l.716-4.165-2.987-2.904a1 1 0 0 1 1.394-1.434l3.364 3.27a1 1 0 0 1 .288.887l-.804 4.684a.998.998 0 0 1-.984.83z"/></g><g><path d="M22.689 7.162a1 1 0 0 1-.144-1.99l4.097-.601L28.456.887a1.005 1.005 0 0 1 1.34-.455c.495.244.699.844.455 1.34l-2.047 4.154a1.002 1.002 0 0 1-.752.547l-4.616.678a.944.944 0 0 1-.147.01z"/></g><g><path d="M28.968 10.421l3.028-2.204 3.027 2.203-1.155 3.56h-3.744zm6.579 4.869l1.606-4.941a.999.999 0 0 0-.363-1.118l-4.206-3.059a.996.996 0 0 0-1.176 0l-4.206 3.059a1 1 0 0 0-.363 1.118l1.606 4.941a1 1 0 0 0 .951.69h5.2a1 1 0 0 0 .951-.69z"/></g></g></g></g></svg>