<svg width="80" height="66" xmlns="http://www.w3.org/2000/svg"><script xmlns="" type="text/javascript" charset="utf-8" id="zm-extension"/><g fill="none" fill-rule="evenodd"><path fill="#3F3F3F" fill-rule="nonzero" d="M70.154 65.898H3.692V47.926h66.462l9.538 9.037z"/><path fill="#FEDD00" d="M4.718 64.883h65.026l8.512-8.021-8.512-8.022H4.718z"/><path d="M52.923 44.778H3.693V26.806h49.333l9.538 9.037-9.64 8.935zM4.718 43.763h47.897l8.513-8.021-8.513-8.022H4.718v16.043zM35.795 23.76H3.692V5.686h32.103l9.538 9.037-9.538 9.037zM4.718 22.745h30.667l8.512-8.022-8.512-8.021H4.718v16.043z" fill="#3F3F3F" fill-rule="nonzero"/><path fill="#3F3F3F" fill-rule="nonzero" d="M3.59.508h1.026v64.477H3.59zM0 9.951h3.59v1.015H0zm0 11.981h3.59v1.015H0z"/><path fill="#3F3F3F" fill-rule="nonzero" d="M0 33.914h4.615v1.015H0zm0 11.981h4.615v1.015H0zm0 11.982h3.897v1.015H0zm13.846-43.662h9.231v1.015h-9.231zm-2.564 24.37h9.231V39.6h-9.231zm10.256 20.307h7.179v1.015h-7.179zm-11.282-5.077h9.231v1.015h-9.231z"/><ellipse cx="2.462" cy="2.132" rx="2.154" ry="2.132" transform="translate(28.718 13.2)" fill-rule="nonzero" fill="#FEDD00"/><path fill="#3F3F3F" fill-rule="nonzero" d="M19.487 33.508h9.231v1.015h-9.231zm13.846-16.246c-1.436 0-2.564-1.117-2.564-2.539 0-1.421 1.128-2.538 2.564-2.538 1.436 0 2.564 1.117 2.564 2.538 0 1.422-1.128 2.539-2.564 2.539zm0-4.062c-.82 0-1.538.71-1.538 1.523 0 .812.718 1.523 1.538 1.523.82 0 1.539-.71 1.539-1.523 0-.812-.718-1.523-1.539-1.523zM50.77 38.585c-1.437 0-2.565-1.117-2.565-2.539 0-1.421 1.128-2.538 2.564-2.538 1.436 0 2.564 1.117 2.564 2.538 0 1.422-1.128 2.539-2.564 2.539zm0-4.062c-.821 0-1.54.71-1.54 1.523 0 .812.719 1.523 1.54 1.523.82 0 1.538-.71 1.538-1.523 0-.812-.718-1.523-1.539-1.523z"/><ellipse cx="2.974" cy="2.538" rx="2.154" ry="2.132" transform="translate(35.897 34.523)" fill-rule="nonzero" fill="#FEDD00"/><ellipse cx="2.667" cy="2.945" rx="2.154" ry="2.132" transform="translate(63.59 55.846)" fill-rule="nonzero" fill="#FEDD00"/><ellipse cx="2.974" cy="2.945" rx="2.154" ry="2.132" transform="translate(52.308 55.846)" fill-rule="nonzero" fill="#FEDD00"/><ellipse cx="2.154" cy="2.945" rx="2.154" ry="2.132" transform="translate(41.026 55.846)" fill-rule="nonzero" fill="#FEDD00"/><path d="M40.513 38.585c-1.436 0-2.564-1.117-2.564-2.539 0-1.421 1.128-2.538 2.564-2.538 1.436 0 2.564 1.117 2.564 2.538 0 1.422-1.128 2.539-2.564 2.539zm0-4.062c-.82 0-1.539.71-1.539 1.523 0 .812.718 1.523 1.539 1.523.82 0 1.538-.71 1.538-1.523 0-.812-.718-1.523-1.538-1.523zM67.18 59.908c-1.436 0-2.565-1.117-2.565-2.539 0-1.421 1.129-2.538 2.564-2.538 1.436 0 2.565 1.117 2.565 2.538 0 1.422-1.129 2.539-2.565 2.539zm0-4.062c-.821 0-1.539.71-1.539 1.523s.718 1.523 1.538 1.523c.821 0 1.539-.71 1.539-1.523 0-.812-.718-1.523-1.539-1.523zm-10.257 4.062c-1.436 0-2.564-1.117-2.564-2.539 0-1.421 1.128-2.538 2.564-2.538 1.436 0 2.564 1.117 2.564 2.538 0 1.422-1.128 2.539-2.564 2.539zm0-4.062c-.82 0-1.538.71-1.538 1.523s.718 1.523 1.538 1.523c.82 0 1.539-.71 1.539-1.523 0-.812-.718-1.523-1.539-1.523zm-12.308 4.062c-1.436 0-2.564-1.117-2.564-2.539 0-1.421 1.128-2.538 2.564-2.538 1.436 0 2.564 1.117 2.564 2.538 0 1.422-1.128 2.539-2.564 2.539zm0-4.062c-.82 0-1.538.71-1.538 1.523s.718 1.523 1.538 1.523c.82 0 1.539-.71 1.539-1.523 0-.812-.718-1.523-1.539-1.523z" fill="#3F3F3F" fill-rule="nonzero"/><ellipse cx="2.564" cy="2.538" rx="2.154" ry="2.132" opacity=".15" transform="translate(46.154 34.523)" fill-rule="nonzero" fill="#3F3F3F"/></g></svg>