<?xml version="1.0" encoding="UTF-8"?>
<!-- Generator: Adobe Illustrator 22.1.0, SVG Export Plug-In . SVG Version: 6.00 Build 0)  -->
<svg version="1.1" id="Capa_1" xmlns="http://www.w3.org/2000/svg" xmlns:xlink="http://www.w3.org/1999/xlink" x="0px" y="0px" viewBox="-49 141 512 512" enable-background="new -49 141 512 512" xml:space="preserve">
<linearGradient id="SVGID_1_" gradientUnits="userSpaceOnUse" x1="-49.1842" y1="528.978" x2="464.0569" y2="528.978">
	<stop offset="0" style="stop-color:#FECD1A"/>
	<stop offset="1" style="stop-color:#FBB5B5"/>
</linearGradient>
<path fill="url(#SVGID_1_)" d="M327.8,497c-4.4,0-8.6,1-12.4,2.7c-4.5-11-15.3-18.7-27.9-18.7c-7.7,0-14.8,2.9-20.1,7.7  c-5.3-4.8-12.4-7.7-20.1-7.7c-3.6,0-7,0.6-10.1,1.8v-47.7c0-16.6-13.5-30.1-30.1-30.1s-30.1,13.5-30.1,30.1v126l-5.7-9.4  c-8.9-14.6-27.4-19.3-42.1-10.8c-14,8.1-19.5,25.9-12.5,40.5l31.9,66c1.7,3.6,5.3,5.7,9,5.7c1.5,0,2.9-0.3,4.3-1  c5-2.4,7.1-8.4,4.7-13.4l-31.9-66c-2.5-5.2-0.6-11.6,4.5-14.5c5.3-3,11.9-1.4,15.1,3.8l24.3,39.9c2.3,3.8,6.9,5.6,11.2,4.4  c4.3-1.2,7.3-5.1,7.3-9.6V435.1c0-5.6,4.5-10.1,10.1-10.1s10.1,4.5,10.1,10.1v124.8c0,5.5,4.5,10,10,10s10-4.5,10-10v-48.8  c0-5.6,4.5-10.1,10.1-10.1s10.1,4.5,10.1,10.1v7.2v41.6c0,5.5,4.5,10,10,10s10-4.5,10-10v-41.6v-7.2c0-5.6,4.5-10.1,10.1-10.1  s10.1,4.5,10.1,10.1v16V540v19.9c0,5.5,4.5,10,10,10s10-4.5,10-10V540v-12.9c0-5.6,4.5-10.1,10.1-10.1s10.1,4.5,10.1,10.1V643  c0,5.5,4.5,10,10,10s10-4.5,10-10V527.1C357.9,510.5,344.4,497,327.8,497z"/>
<linearGradient id="SVGID_2_" gradientUnits="userSpaceOnUse" x1="-49.7157" y1="408.0405" x2="463.3963" y2="408.0405">
	<stop offset="0" style="stop-color:#FECD1A"/>
	<stop offset="1" style="stop-color:#FBB5B5"/>
</linearGradient>
<path fill="url(#SVGID_2_)" d="M207,371c-35.3,0-64.1,28.8-64.1,64.1c0,5.5,4.5,10,10,10s10-4.5,10-10c0-24.3,19.8-44.1,44.1-44.1  s44.1,19.8,44.1,44.1c0,5.5,4.5,10,10,10s10-4.5,10-10C271.1,399.7,242.4,371,207,371z"/>
<linearGradient id="SVGID_3_" gradientUnits="userSpaceOnUse" x1="-49.7137" y1="390.0405" x2="463.3863" y2="390.0405">
	<stop offset="0" style="stop-color:#FECD1A"/>
	<stop offset="1" style="stop-color:#FBB5B5"/>
</linearGradient>
<path fill="url(#SVGID_3_)" d="M127,435.1c0-44.2,35.9-80.1,80.1-80.1c32.4,0,61.4,19.3,73.9,49.1c2.1,5.1,8,7.5,13.1,5.4  c5.1-2.1,7.5-8,5.4-13.1C283.7,359.1,247.5,335,207,335C151.9,335,107,379.9,107,435.1c0,5.5,4.5,10,10,10S127,440.6,127,435.1z"/>
<linearGradient id="SVGID_4_" gradientUnits="userSpaceOnUse" x1="-48.8641" y1="434.9155" x2="464.0125" y2="434.9155">
	<stop offset="0" style="stop-color:#FECD1A"/>
	<stop offset="1" style="stop-color:#FBB5B5"/>
</linearGradient>
<path fill="url(#SVGID_4_)" d="M297.1,424.7C297.1,424.7,297.1,424.7,297.1,424.7c-5.6,0-10,4.5-10,10v0.3c0,5.5,4.5,10,10,10  s10-4.5,10-10v-0.4C307.1,429.2,302.6,424.7,297.1,424.7z"/>
<linearGradient id="SVGID_5_" gradientUnits="userSpaceOnUse" x1="-48.013" y1="210.07" x2="462.6667" y2="210.07">
	<stop offset="0" style="stop-color:#FECD1A"/>
	<stop offset="1" style="stop-color:#FBB5B5"/>
</linearGradient>
<path fill="url(#SVGID_5_)" d="M197,213.6v55.5c0,5.5,4.5,10,10,10c5.5,0,10-4.5,10-10v-55.5c15.6-4.4,27-18.7,27-35.6  c0-20.4-16.6-37-37-37s-37,16.6-37,37C170,194.9,181.4,209.2,197,213.6z M207,161c9.4,0,17,7.6,17,17c0,9.4-7.6,17-17,17  s-17-7.6-17-17C190,168.6,197.6,161,207,161z"/>
<linearGradient id="SVGID_6_" gradientUnits="userSpaceOnUse" x1="-49.144" y1="396.994" x2="463.336" y2="396.994">
	<stop offset="0" style="stop-color:#FECD1A"/>
	<stop offset="1" style="stop-color:#FBB5B5"/>
</linearGradient>
<path fill="url(#SVGID_6_)" d="M426,360c-16.9,0-31.2,11.4-35.6,27h-55.5c-5.5,0-10,4.5-10,10c0,5.5,4.5,10,10,10h55.5  c4.4,15.6,18.7,27,35.6,27c20.4,0,37-16.6,37-37S446.4,360,426,360z M426,414c-9.4,0-17-7.6-17-17s7.6-17,17-17s17,7.6,17,17  S435.4,414,426,414z"/>
<linearGradient id="SVGID_7_" gradientUnits="userSpaceOnUse" x1="-48.8395" y1="267.807" x2="463.338" y2="267.807">
	<stop offset="0" style="stop-color:#FECD1A"/>
	<stop offset="1" style="stop-color:#FBB5B5"/>
</linearGradient>
<path fill="url(#SVGID_7_)" d="M52.1,279.1c6.5,0,12.7-1.7,18.1-4.7l53.1,53.1c2,2,4.5,2.9,7.1,2.9s5.1-1,7.1-2.9  c3.9-3.9,3.9-10.2,0-14.1l-53.1-53.1c3.1-5.5,4.7-11.7,4.7-18.1c0-9.9-3.8-19.2-10.8-26.2c-7-7-16.3-10.8-26.2-10.8S33,209,26,216  c-14.4,14.4-14.4,37.9,0,52.3C33,275.3,42.3,279.1,52.1,279.1z M40.1,230.1L40.1,230.1c3.2-3.2,7.5-5,12-5s8.8,1.8,12,5s5,7.5,5,12  c0,4.5-1.8,8.8-5,12c0,0,0,0,0,0c0,0,0,0,0,0c-3.2,3.2-7.5,5-12,5c-4.5,0-8.8-1.8-12-5C33.5,247.5,33.5,236.7,40.1,230.1z"/>
<linearGradient id="SVGID_8_" gradientUnits="userSpaceOnUse" x1="-49.6767" y1="300.994" x2="464.0787" y2="300.994">
	<stop offset="0" style="stop-color:#FECD1A"/>
	<stop offset="1" style="stop-color:#FBB5B5"/>
</linearGradient>
<path fill="url(#SVGID_8_)" d="M207,291c-2.6,0-5.2,1.1-7.1,2.9c-1.9,1.9-2.9,4.4-2.9,7.1s1.1,5.2,2.9,7.1c1.9,1.9,4.4,2.9,7.1,2.9  c2.6,0,5.2-1.1,7.1-2.9c1.9-1.9,2.9-4.4,2.9-7.1s-1.1-5.2-2.9-7.1C212.2,292.1,209.6,291,207,291z"/>
<linearGradient id="SVGID_9_" gradientUnits="userSpaceOnUse" x1="-48.6674" y1="271.5655" x2="463.4028" y2="271.5655">
	<stop offset="0" style="stop-color:#FECD1A"/>
	<stop offset="1" style="stop-color:#FBB5B5"/>
</linearGradient>
<path fill="url(#SVGID_9_)" d="M276,338c2.6,0,5.1-1,7.1-2.9l60.7-60.7c5.5,3.1,11.7,4.7,18.1,4.7c9.9,0,19.2-3.8,26.2-10.8  c14.4-14.4,14.4-37.9,0-52.3c-7-7-16.3-10.8-26.2-10.8s-19.2,3.8-26.2,10.8c-7,7-10.8,16.3-10.8,26.2c0,6.5,1.7,12.6,4.7,18.1  l-60.7,60.7c-3.9,3.9-3.9,10.2,0,14.1C270.9,337,273.4,338,276,338z M349.8,230.1c3.2-3.2,7.5-5,12-5s8.8,1.8,12,5l0,0  c6.6,6.6,6.6,17.4,0,24c-3.2,3.2-7.5,5-12,5c-4.5,0-8.8-1.8-12-5c0,0,0,0,0,0c0,0,0,0,0,0c-3.2-3.2-5-7.5-5-12  C344.9,237.6,346.6,233.3,349.8,230.1z"/>
<linearGradient id="SVGID_10_" gradientUnits="userSpaceOnUse" x1="-49" y1="396.994" x2="464.0572" y2="396.994">
	<stop offset="0" style="stop-color:#FECD1A"/>
	<stop offset="1" style="stop-color:#FBB5B5"/>
</linearGradient>
<path fill="url(#SVGID_10_)" d="M79,387H23.6c-4.4-15.6-18.7-27-35.6-27c-20.4,0-37,16.6-37,37c0,20.4,16.6,37,37,37  c16.9,0,31.2-11.4,35.6-27H79c5.5,0,10-4.5,10-10S84.5,387,79,387z M-12,414c-9.4,0-17-7.6-17-17s7.6-17,17-17s17,7.6,17,17  S-2.6,414-12,414z"/>
</svg>