<?xml version="1.0" encoding="UTF-8"?>
<svg width="146px" height="150px" viewBox="0 0 146 150" version="1.1" xmlns="http://www.w3.org/2000/svg" xmlns:xlink="http://www.w3.org/1999/xlink">
    <!-- Generator: Sketch 52.2 (67145) - http://www.bohemiancoding.com/sketch -->
    <title>Group 41</title>
    <desc>Created with Sketch.</desc>
    <defs>
        <linearGradient x1="50.002375%" y1="3.7464722%" x2="50.002375%" y2="98.7385279%" id="linearGradient-1">
            <stop stop-color="#71E4DC" stop-opacity="0.441661005" offset="0%"/>
            <stop stop-color="#7AE6DE" stop-opacity="0.581408514" offset="13.11%"/>
            <stop stop-color="#93EBE4" stop-opacity="0.6524" offset="34.76%"/>
            <stop stop-color="#BCF2EF" stop-opacity="0.3772" offset="62.28%"/>
            <stop stop-color="#F4FDFC" stop-opacity="0.484771286" offset="94.29%"/>
            <stop stop-color="#E8FBFA" stop-opacity="0.469429348" offset="100%"/>
        </linearGradient>
        <linearGradient x1="48.3970528%" y1="101.065909%" x2="51.5871951%" y2="-0.866761364%" id="linearGradient-2">
            <stop stop-color="#E62E58" offset="0%"/>
            <stop stop-color="#BD1057" stop-opacity="0.3398" offset="66.02%"/>
            <stop stop-color="#AD0456" stop-opacity="0" offset="100%"/>
        </linearGradient>
        <linearGradient x1="48.3970528%" y1="101.071307%" x2="51.5871951%" y2="-0.861079545%" id="linearGradient-3">
            <stop stop-color="#E62E58" offset="0%"/>
            <stop stop-color="#BD1057" stop-opacity="0.678725091" offset="66.02%"/>
            <stop stop-color="#AD0456" offset="100%"/>
        </linearGradient>
        <linearGradient x1="49.9920732%" y1="-1.18409091%" x2="49.9920732%" y2="101.394318%" id="linearGradient-4">
            <stop stop-color="#AABBF9" stop-opacity="0.605553668" offset="0%"/>
            <stop stop-color="#DD93BB" offset="59.36%"/>
            <stop stop-color="#FD7B95" offset="100%"/>
        </linearGradient>
        <linearGradient x1="50.0087719%" y1="-0.0307017544%" x2="50.0087719%" y2="99.8842105%" id="linearGradient-5">
            <stop stop-color="#71E4DC" offset="0%"/>
            <stop stop-color="#00C1B8" offset="15.36%"/>
            <stop stop-color="#1692AE" offset="29.26%"/>
            <stop stop-color="#2670A6" offset="41.62%"/>
            <stop stop-color="#2F5BA2" offset="51.78%"/>
            <stop stop-color="#3353A0" offset="58.46%"/>
            <stop stop-color="#2C5FA0" offset="67.22%"/>
            <stop stop-color="#197FA0" offset="83.09%"/>
            <stop stop-color="#00A8A0" offset="100%"/>
        </linearGradient>
        <radialGradient cx="100%" cy="-15.3689639%" fx="100%" fy="-15.3689639%" r="197.908335%" gradientTransform="translate(1.000000,-0.153690),scale(0.945007,1.000000),rotate(129.755554),translate(-1.000000,0.153690)" id="radialGradient-6">
            <stop stop-color="#71E4DC" offset="0%"/>
            <stop stop-color="#00C1B8" offset="15.36%"/>
            <stop stop-color="#1692AE" offset="29.26%"/>
            <stop stop-color="#2670A6" offset="41.62%"/>
            <stop stop-color="#2F5BA2" offset="51.78%"/>
            <stop stop-color="#3353A0" offset="58.46%"/>
            <stop stop-color="#2C5FA0" offset="67.22%"/>
            <stop stop-color="#197FA0" offset="83.09%"/>
            <stop stop-color="#00A8A0" offset="100%"/>
        </radialGradient>
        <linearGradient x1="50.0033437%" y1="99.9949072%" x2="50.0033437%" y2="-0.005211212%" id="linearGradient-7">
            <stop stop-color="#00A09A" offset="0%"/>
            <stop stop-color="#13B6AC" offset="31.82%"/>
            <stop stop-color="#27CEBF" offset="73.91%"/>
            <stop stop-color="#2ED7C6" offset="100%"/>
        </linearGradient>
        <path d="M97.7783203,48.9773437 C100.131738,46.6236328 103.700098,46.2943359 106.401563,47.9478516 C106.117676,47.4834961 105.793359,47.0375977 105.390527,46.6350586 C102.650098,43.8720703 98.2019531,43.8720703 95.4363281,46.6350586 C92.6958984,49.3754883 92.6958984,53.8262695 95.4363281,56.5664062 C95.840918,56.9689453 96.2917969,57.2938477 96.7582031,57.5774414 C95.1181641,54.8736328 95.4454102,51.3102539 97.7783203,48.9773437 Z" id="path-8"/>
        <path d="M48.5938477,4.70449219 C50.9472656,2.35078125 54.515625,2.02148438 57.2170898,3.67529297 C56.9332031,3.2109375 56.6083008,2.76503906 56.2060547,2.3625 C53.465625,-0.400488281 49.0168945,-0.400488281 46.2518555,2.3625 C43.5114258,5.10263672 43.5114258,9.55371094 46.2518555,12.2938477 C46.6564453,12.6963867 47.1073242,13.0209961 47.5737305,13.3048828 C45.9336914,10.6010742 46.2609375,7.03769531 48.5938477,4.70449219 Z" id="path-9"/>
        <linearGradient x1="0%" y1="64.526837%" x2="190.103319%" y2="65.3798467%" id="linearGradient-10">
            <stop stop-color="#71E4DC" offset="0%"/>
            <stop stop-color="#00C1B8" offset="15.36%"/>
            <stop stop-color="#119BB0" offset="31.25%"/>
            <stop stop-color="#3353A0" offset="58.46%"/>
            <stop stop-color="#3256A1" offset="69.38%"/>
            <stop stop-color="#2D5FA3" offset="76.93%"/>
            <stop stop-color="#266EA6" offset="83.46%"/>
            <stop stop-color="#1C84AB" offset="89.41%"/>
            <stop stop-color="#0FA0B1" offset="94.91%"/>
            <stop stop-color="#00C1B8" offset="100%"/>
        </linearGradient>
        <linearGradient x1="40.6282994%" y1="100%" x2="6.28943525%" y2="-52.4759729%" id="linearGradient-11">
            <stop stop-color="#71E4DC" offset="0%"/>
            <stop stop-color="#00C1B8" offset="15.36%"/>
            <stop stop-color="#119BB0" offset="31.25%"/>
            <stop stop-color="#3353A0" offset="58.46%"/>
            <stop stop-color="#3256A1" offset="69.38%"/>
            <stop stop-color="#2D5FA3" offset="76.93%"/>
            <stop stop-color="#266EA6" offset="83.46%"/>
            <stop stop-color="#1C84AB" offset="89.41%"/>
            <stop stop-color="#0FA0B1" offset="94.91%"/>
            <stop stop-color="#00C1B8" offset="100%"/>
        </linearGradient>
        <linearGradient x1="-9.14295665%" y1="-17.9035521%" x2="50%" y2="50%" id="linearGradient-12">
            <stop stop-color="#71E4DC" offset="0%"/>
            <stop stop-color="#00C1B8" offset="15.36%"/>
            <stop stop-color="#1692AE" offset="29.26%"/>
            <stop stop-color="#2670A6" offset="41.62%"/>
            <stop stop-color="#2F5BA2" offset="51.78%"/>
            <stop stop-color="#3353A0" offset="58.46%"/>
            <stop stop-color="#2C5FA0" offset="67.22%"/>
            <stop stop-color="#197FA0" offset="83.09%"/>
            <stop stop-color="#00A8A0" offset="100%"/>
        </linearGradient>
    </defs>
    <g id="Page-1" stroke="none" stroke-width="1" fill="none" fill-rule="evenodd">
        <g id="main-page" transform="translate(-151.000000, -4837.000000)">
            <g id="Group-41" transform="translate(151.000000, 4837.000000)">
                <g id="Group-32" transform="translate(5.000000, 0.000000)">
                    <path d="M31.3448242,2.34228516 C30.6973633,2.34228516 30.1621094,1.81845703 30.1621094,1.17128906 C30.1621094,0.524121094 30.6745117,0 31.3196289,0 L31.3448242,0 C31.9896484,0 32.5158203,0.523828125 32.5158203,1.17128906 C32.5158203,1.81875 31.9896484,2.34228516 31.3448242,2.34228516 Z" id="Path" fill="#0DA5B2"/>
                    <path d="M82.872168,7.0265625 C82.225,7.0265625 81.6894531,6.50273437 81.6894531,5.85527344 C81.6894531,5.20810547 82.2021484,4.68427734 82.8469727,4.68427734 L82.872168,4.68427734 C83.5169922,4.68427734 84.043457,5.20810547 84.043457,5.85527344 C84.043457,6.50273437 83.5172852,7.0265625 82.872168,7.0265625 Z" id="Path" fill="#0DA5B2"/>
                    <path d="M14.9473633,98.371582 C14.2999023,98.371582 13.7649414,97.8454102 13.7649414,97.2005859 C13.7649414,96.5507812 14.2773438,96.0295898 14.922168,96.0295898 L14.9473633,96.0295898 C15.5921875,96.0295898 16.1183594,96.5507812 16.1183594,97.2005859 C16.1183594,97.8454102 15.5921875,98.371582 14.9473633,98.371582 Z" id="Path" fill="#0DA5B2"/>
                    <path d="M129.715234,149.899219 C129.068066,149.899219 128.533105,149.377734 128.533105,148.72793 C128.533105,148.083105 129.045215,147.556934 129.690039,147.556934 L129.715234,147.556934 C130.360059,147.556934 130.886523,148.083105 130.886523,148.72793 C130.886523,149.377734 130.360059,149.899219 129.715234,149.899219 Z" id="Path" fill="#0DA5B2"/>
                    <path d="M132.05957,77.2910156 C131.412402,77.2910156 130.877441,76.7674805 130.877441,76.1200195 C130.877441,75.4725586 131.389551,74.9490234 132.034375,74.9490234 L132.05957,74.9490234 C132.70498,74.9490234 133.230859,75.4725586 133.230859,76.1200195 C133.230859,76.7674805 132.70498,77.2910156 132.05957,77.2910156 Z" id="Path" fill="#0DA5B2"/>
                    <g id="Group-18" transform="translate(19.545455, 16.363636)" fill-rule="nonzero" stroke="#0DA5B2" stroke-linecap="round" stroke-width="0.4">
                        <path d="M1.1963046,0.461785334 L1.1963046,5.43892156" id="Line-3"/>
                        <path d="M4.77395901e-15,3.40909091 L2.72727273,3.40909091" id="Line-4"/>
                    </g>
                    <g id="Group-18" transform="translate(0.454545, 62.727273)" fill-rule="nonzero" stroke="#0DA5B2" stroke-linecap="round" stroke-width="0.4">
                        <path d="M1.1963046,0.461785334 L1.1963046,5.43892156" id="Line-3"/>
                        <path d="M4.77395901e-15,3.40909091 L2.72727273,3.40909091" id="Line-4"/>
                    </g>
                    <g id="Group-18" transform="translate(44.090909, 139.090909)" fill-rule="nonzero" stroke="#0DA5B2" stroke-linecap="round" stroke-width="0.4">
                        <path d="M1.1963046,0.461785334 L1.1963046,5.43892156" id="Line-3"/>
                        <path d="M4.77395901e-15,3.40909091 L2.72727273,3.40909091" id="Line-4"/>
                    </g>
                    <g id="Group-18" transform="translate(93.181818, 125.454545)" fill-rule="nonzero" stroke="#0DA5B2" stroke-linecap="round" stroke-width="0.4">
                        <path d="M1.1963046,0.461785334 L1.1963046,5.43892156" id="Line-3"/>
                        <path d="M4.77395901e-15,3.40909091 L2.72727273,3.40909091" id="Line-4"/>
                    </g>
                </g>
                <g id="Group-34">
                    <path d="M141.143918,118.351898 L132.659382,118.351898 C135.002121,118.351898 136.901783,116.461397 136.901783,114.134343 C136.901783,111.803068 135.002121,109.916787 132.659382,109.916787 L124.174846,109.916787 C126.517585,109.916787 128.417247,108.026286 128.417247,105.699232 C128.417247,103.368221 126.517585,101.481677 124.174846,101.481677 L111.448441,101.481677 C113.79118,101.481677 115.690841,99.5914395 115.690841,97.2643851 C115.690841,94.9331102 113.79118,93.0468297 111.448441,93.0468297 L134.780052,93.0468297 C137.122791,93.0468297 139.022452,91.1563288 139.022452,88.8292744 C139.022452,86.4979995 137.122791,84.610664 134.780052,84.610664 L124.174581,84.610664 C126.51732,84.610664 128.416982,82.7222733 128.416982,80.3931086 C128.416982,78.063944 126.51732,76.1755533 124.174581,76.1755533 L119.932711,76.1755533 C122.27545,76.1755533 124.174581,74.2871626 124.174581,71.957998 C124.174581,69.6288333 122.27545,67.7404426 119.932711,67.7404426 L141.143387,67.7404426 C143.486126,67.7404426 145.385788,65.852052 145.385788,63.5228873 C145.385788,61.1937227 143.486126,59.305332 141.143387,59.305332 L132.658851,59.305332 C135.00159,59.305332 136.901252,57.4169413 136.901252,55.0877766 C136.901252,52.758612 135.00159,50.8702213 132.658851,50.8702213 L124.174316,50.8702213 C126.517055,50.8702213 128.416716,48.9818306 128.416716,46.652666 C128.416716,44.3235013 126.517055,42.4351107 124.174316,42.4351107 L117.811511,42.4351107 C120.15425,42.4351107 122.053381,40.54672 122.053381,38.2175553 C122.053381,35.8883907 120.15425,34 117.811511,34 L54.1794824,34 C51.8367434,34 49.9373471,35.8883907 49.9373471,38.2175553 C49.9373471,40.54672 51.8367434,42.4351107 54.1794824,42.4351107 L39.3318764,42.4351107 C36.9891374,42.4351107 35.0897412,44.3235013 35.0897412,46.652666 C35.0897412,48.9818306 36.9891374,50.8702213 39.3318764,50.8702213 L35.0897412,50.8702213 C32.7470022,50.8702213 30.847606,52.758612 30.847606,55.0877766 C30.847606,57.4169413 32.7470022,59.305332 35.0897412,59.305332 L47.8164122,59.305332 C45.4736732,59.305332 43.574277,61.1937227 43.574277,63.5228873 C43.574277,65.852052 45.4736732,67.7404426 47.8164122,67.7404426 L24.4845358,67.7404426 C22.1417968,67.7404426 20.2424005,69.6290971 20.2424005,71.957998 C20.2424005,74.2868988 22.1417968,76.1755533 24.4845358,76.1755533 L35.0900065,76.1755533 C32.7472675,76.1755533 30.8478713,78.063944 30.8478713,80.3931086 C30.8478713,82.7222733 32.7472675,84.610664 35.0900065,84.610664 L24.4845358,84.610664 C22.1417968,84.610664 20.2424005,86.4979995 20.2424005,88.8292744 C20.2424005,91.1563288 22.1417968,93.0468297 24.4845358,93.0468297 L20.2421352,93.0468297 C17.8993962,93.0468297 16,94.9331102 16,97.2643851 C16,99.5914395 17.8993962,101.481677 20.2421352,101.481677 L30.8478713,101.481677 C28.5051323,101.481677 26.605736,103.368221 26.605736,105.699232 C26.605736,108.026286 28.5051323,109.916787 30.8478713,109.916787 L26.6054707,109.916787 C24.2627317,109.916787 22.3633355,111.803068 22.3633355,114.134343 C22.3633355,116.461397 24.2627317,118.351898 26.6054707,118.351898 L47.8164122,118.351898 C45.4736732,118.351898 43.574277,120.238178 43.574277,122.569453 C43.574277,124.896244 45.4736732,126.787009 47.8164122,126.787009 L39.3318764,126.787009 C36.9891374,126.787009 35.0897412,128.673025 35.0897412,131.0043 C35.0897412,133.331355 36.9891374,135.221855 39.3318764,135.221855 L111.448706,135.221855 C113.791445,135.221855 115.691106,133.331355 115.691106,131.0043 C115.691106,128.673025 113.791445,126.787009 111.448706,126.787009 L141.143918,126.787009 C143.486657,126.787009 145.386318,124.896244 145.386318,122.569453 C145.386584,120.238178 143.486657,118.351898 141.143918,118.351898 Z" id="Path" fill="url(#linearGradient-1)"/>
                    <g id="Group-31">
                        <path d="M127.693652,117.108984 C127.045898,117.108984 126.510937,116.5875 126.510937,115.937695 C126.510937,115.292871 127.023047,114.766699 127.668457,114.766699 L127.693652,114.766699 C128.338477,114.766699 128.864355,115.292871 128.864355,115.937695 C128.864355,116.5875 128.338477,117.108984 127.693652,117.108984 Z" id="Path" fill="#3A3847"/>
                        <g id="Group">
                            <g id="Group-32" transform="translate(5.000000, 0.000000)">
                                <path d="M31.3448242,2.34228516 C30.6973633,2.34228516 30.1621094,1.81845703 30.1621094,1.17128906 C30.1621094,0.524121094 30.6745117,0 31.3196289,0 L31.3448242,0 C31.9896484,0 32.5158203,0.523828125 32.5158203,1.17128906 C32.5158203,1.81875 31.9896484,2.34228516 31.3448242,2.34228516 Z" id="Path" fill="#0DA5B2"/>
                                <path d="M82.872168,7.0265625 C82.225,7.0265625 81.6894531,6.50273437 81.6894531,5.85527344 C81.6894531,5.20810547 82.2021484,4.68427734 82.8469727,4.68427734 L82.872168,4.68427734 C83.5169922,4.68427734 84.043457,5.20810547 84.043457,5.85527344 C84.043457,6.50273437 83.5172852,7.0265625 82.872168,7.0265625 Z" id="Path" fill="#0DA5B2"/>
                                <path d="M14.9473633,98.371582 C14.2999023,98.371582 13.7649414,97.8454102 13.7649414,97.2005859 C13.7649414,96.5507812 14.2773438,96.0295898 14.922168,96.0295898 L14.9473633,96.0295898 C15.5921875,96.0295898 16.1183594,96.5507812 16.1183594,97.2005859 C16.1183594,97.8454102 15.5921875,98.371582 14.9473633,98.371582 Z" id="Path" fill="#0DA5B2"/>
                                <path d="M129.715234,149.899219 C129.068066,149.899219 128.533105,149.377734 128.533105,148.72793 C128.533105,148.083105 129.045215,147.556934 129.690039,147.556934 L129.715234,147.556934 C130.360059,147.556934 130.886523,148.083105 130.886523,148.72793 C130.886523,149.377734 130.360059,149.899219 129.715234,149.899219 Z" id="Path" fill="#0DA5B2"/>
                                <path d="M132.05957,77.2910156 C131.412402,77.2910156 130.877441,76.7674805 130.877441,76.1200195 C130.877441,75.4725586 131.389551,74.9490234 132.034375,74.9490234 L132.05957,74.9490234 C132.70498,74.9490234 133.230859,75.4725586 133.230859,76.1200195 C133.230859,76.7674805 132.70498,77.2910156 132.05957,77.2910156 Z" id="Path" fill="#0DA5B2"/>
                                <g id="Group-18" transform="translate(19.545455, 16.363636)" fill-rule="nonzero" stroke="#0DA5B2" stroke-linecap="round" stroke-width="0.4">
                                    <path d="M1.1963046,0.461785334 L1.1963046,5.43892156" id="Line-3"/>
                                    <path d="M4.77395901e-15,3.40909091 L2.72727273,3.40909091" id="Line-4"/>
                                </g>
                                <g id="Group-18" transform="translate(0.454545, 62.727273)" fill-rule="nonzero" stroke="#0DA5B2" stroke-linecap="round" stroke-width="0.4">
                                    <path d="M1.1963046,0.461785334 L1.1963046,5.43892156" id="Line-3"/>
                                    <path d="M4.77395901e-15,3.40909091 L2.72727273,3.40909091" id="Line-4"/>
                                </g>
                                <g id="Group-18" transform="translate(44.090909, 139.090909)" fill-rule="nonzero" stroke="#0DA5B2" stroke-linecap="round" stroke-width="0.4">
                                    <path d="M1.1963046,0.461785334 L1.1963046,5.43892156" id="Line-3"/>
                                    <path d="M4.77395901e-15,3.40909091 L2.72727273,3.40909091" id="Line-4"/>
                                </g>
                                <g id="Group-18" transform="translate(93.181818, 125.454545)" fill-rule="nonzero" stroke="#0DA5B2" stroke-linecap="round" stroke-width="0.4">
                                    <path d="M1.1963046,0.461785334 L1.1963046,5.43892156" id="Line-3"/>
                                    <path d="M4.77395901e-15,3.40909091 L2.72727273,3.40909091" id="Line-4"/>
                                </g>
                            </g>
                            <path d="M1.21259766,35.1322266 C0.565429688,35.1322266 0.0298828125,34.6083984 0.0298828125,33.9609375 C0.0298828125,33.3137695 0.542285156,32.7899414 1.18740234,32.7899414 L1.21259766,32.7899414 C1.85771484,32.7899414 2.38359375,33.3137695 2.38359375,33.9609375 C2.38359375,34.6086914 1.85742187,35.1322266 1.21259766,35.1322266 Z" id="Path" fill="#0DA5B2"/>
                            <path d="M78.384668,147.556934 C77.7375,147.556934 77.2025391,147.030762 77.2025391,146.385937 C77.2025391,145.736133 77.7146484,145.214648 78.3594727,145.214648 L78.384668,145.214648 C79.0294922,145.214648 79.555957,145.736133 79.555957,146.385937 C79.555957,147.030762 79.0294922,147.556934 78.384668,147.556934 Z" id="Path" fill="#0DA5B2"/>
                            <path d="M108.95625,86.6610352 C108.309082,86.6610352 107.773535,86.1348633 107.773535,85.4900391 C107.773535,84.8402344 108.28623,84.319043 108.931055,84.319043 L108.95625,84.319043 C109.601074,84.319043 110.126953,84.8402344 110.126953,85.4900391 C110.126953,86.1348633 109.601074,86.6610352 108.95625,86.6610352 Z" id="Path" fill="#0DA5B2"/>
                        </g>
                        <path d="M123.006738,110.077734 C122.35957,110.077734 121.824023,109.556543 121.824023,108.906738 C121.824023,108.261621 122.336719,107.735742 122.981543,107.735742 L123.006738,107.735742 C123.651563,107.735742 124.178027,108.261621 124.178027,108.906738 C124.178027,109.556543 123.651563,110.077734 123.006738,110.077734 Z" id="Path" fill="#3A3847"/>
                        <path d="M52.950293,36.0243164 C53.3481445,36.422168 53.6753906,36.8455078 53.9569336,37.312207 C53.0443359,38.8356445 51.54375,40.7566406 49.6476562,42.6530273 C47.7515625,44.5491211 45.8302734,46.0494141 44.3071289,46.9620117 C43.8404297,46.6807617 43.4173828,46.3535156 43.0192383,45.9556641 C40.2791016,43.2152344 40.2791016,38.7644531 43.0192383,36.0243164 C45.759375,33.2841797 50.2101562,33.2841797 52.950293,36.0243164 Z" id="Path" fill="#94C1FF"/>
                        <path d="M45.3609375,38.3666016 C47.6894531,36.0380859 51.2414062,35.7087891 53.9405273,37.3350586 C53.9452148,37.3283203 53.9519531,37.3189453 53.9566406,37.312207 C53.6753906,36.8455078 53.3481445,36.4224609 52.95,36.0243164 C50.2098633,33.2841797 45.759082,33.2841797 43.0189453,36.0243164 C40.2788086,38.7644531 40.2788086,43.2152344 43.0189453,45.9556641 C43.4167969,46.3535156 43.8401367,46.6807617 44.3068359,46.9620117 C44.3135742,46.9573242 44.3229492,46.9505859 44.3296875,46.9458984 C42.703418,44.2470703 43.0327148,40.6948242 45.3609375,38.3666016 Z" id="Path" fill="#D7E9FF"/>
                        <path d="M53.9566406,37.312207 C55.6423828,40.0294922 55.2925781,43.6136719 52.95,45.9556641 C50.6080078,48.2976563 47.0238281,48.6477539 44.306543,46.9620117 C45.8296875,46.0494141 47.7512695,44.5488281 49.6470703,42.6530273 C51.543457,40.7566406 53.044043,38.8353516 53.9566406,37.312207 Z" id="Path" fill="#94C1FF"/>
                        <path d="M39.2472656,112.987207 C40.630957,114.345996 40.6060547,116.569336 39.2472656,117.955371 C37.865625,119.313867 24.0483398,130.905762 22.6895508,129.546973 C21.3082031,128.165332 32.9000977,114.345703 34.2837891,112.987207 C35.6425781,111.605566 37.865625,111.605566 39.2472656,112.987207 Z" id="Path" fill="url(#linearGradient-2)"/>
                        <path d="M16.0614258,136.175391 C11.9399414,132.053906 25.1944336,112.122363 29.3182617,108.02373 C33.4171875,103.902246 40.0913086,103.902246 44.212793,108.02373 C48.3366211,112.145215 48.3366211,118.796777 44.212793,122.918555 C40.0913086,127.040332 20.1829102,140.274316 16.0614258,136.175391 Z" id="Shape" stroke="url(#linearGradient-4)" fill="url(#linearGradient-3)"/>
                        <g id="Group" transform="translate(118.066406, 99.316406)" fill="url(#linearGradient-5)" stroke="#36E9D9" stroke-width="0.4">
                            <path d="M16.5779297,7.25273438 C16.5779297,5.96748047 15.5232422,4.91074219 14.2359375,4.91074219 C12.9486328,4.91074219 11.8939453,5.96748047 11.8939453,7.25273438 C11.8939453,8.54296875 12.9486328,9.59501953 14.2359375,9.59501953 C15.5232422,9.59501953 16.5779297,8.54296875 16.5779297,7.25273438 Z M10.7223633,0.226171875 C16.5547852,0.226171875 21.2625,4.93330078 21.2625,10.7660156 C21.2625,16.5755859 16.5550781,21.3058594 10.7223633,21.3058594 C4.91279297,21.3058594 0.1828125,16.5987305 0.1828125,10.7660156 C0.1828125,4.93330078 4.88994141,0.226171875 10.7223633,0.226171875 Z" id="Shape"/>
                        </g>
                        <path d="M105.390234,26.7495117 C113.658691,18.4582031 128.578125,16.8181641 131.881641,20.1210937 C135.207422,23.446875 135.207422,36.6808594 125.252637,46.6350586 L123.612598,44.972168 L107.02998,28.4124023 L104.125488,28.0145508 C104.66543,27.4769531 105.08584,27.0539062 105.390234,26.7495117 Z" id="Path" stroke="#36E9D9" stroke-width="0.4" fill="url(#radialGradient-6)"/>
                        <path d="M105.390234,46.6350586 C108.130664,49.3754883 108.130664,53.8262695 105.390234,56.5664063 C102.649805,59.306543 98.2016602,59.306543 95.4360352,56.5664063 C92.6956055,53.8262695 92.6956055,49.3754883 95.4360352,46.6350586 C98.2016602,43.8720703 102.650098,43.8720703 105.390234,46.6350586 Z" id="Path" fill="url(#linearGradient-7)"/>
                        <g id="Path" opacity="0.284179688">
                            <use fill="url(#linearGradient-7)" xlink:href="#path-8"/>
                            <use fill="#36E9D9" xlink:href="#path-8"/>
                        </g>
                        <path d="M88.8331055,63.1948242 C91.5729492,65.9349609 91.5729492,70.3836914 88.8331055,73.1238281 C86.0677734,75.8642578 81.6416016,75.8642578 78.8789063,73.1238281 C76.1364258,70.3836914 76.1364258,65.9349609 78.8789063,63.1948242 C81.6416016,60.4523438 86.0674805,60.4523438 88.8331055,63.1948242 Z" id="Path" fill="url(#linearGradient-7)"/>
                        <g id="Group" transform="translate(32.519531, 60.937500)">
                            <g id="Path" opacity="0.284179688">
                                <use fill="url(#linearGradient-7)" xlink:href="#path-9"/>
                                <use fill="#36E9D9" xlink:href="#path-9"/>
                            </g>
                            <path d="M27.4092773,9.79833984 L28.1595703,10.5462891 C22.4460937,16.2392578 17.3613281,21.3225586 13.7542969,24.9503906 L13.7314453,24.9275391 C11.3894531,20.9704102 0.0767578125,18.9073242 0.0767578125,18.9073242 C16.6362305,2.34873047 27.4092773,9.79833984 27.4092773,9.79833984 Z" id="Path" stroke="#36E9D9" stroke-width="0.4" fill="url(#linearGradient-10)"/>
                            <path d="M48.9348633,31.3453125 C48.9348633,31.3453125 56.4073242,42.1183594 39.8472656,58.6555664 C39.8472656,58.6555664 37.6927734,46.921875 33.5709961,44.8584961 C37.1756836,41.2538086 42.2830078,36.1488281 48.0222656,30.4306641 L48.9348633,31.3453125 Z" id="Path" stroke="#36E9D9" stroke-width="0.4" fill="url(#linearGradient-11)"/>
                        </g>
                        <path d="M60.6791016,111.208008 L57.3764648,107.905371 L55.6907227,109.570605 C55.6907227,109.570605 54.0506836,111.208301 47.4222656,104.57959 C40.7938477,97.9740234 42.4564453,96.3134766 42.4564453,96.3134766 L44.1193359,94.6713867 L40.7935547,91.3456055 C40.7935547,91.3456055 42.8794922,89.2643555 46.2738281,85.8881836 C49.8808594,82.2603516 54.965332,77.1770508 60.6791016,71.484082 C76.7926758,55.3473633 99.0665039,33.0741211 105.390527,26.7498047 L107.030566,28.4126953 L123.613184,44.9724609 L125.253223,46.6353516 C120.239648,51.646582 97.6163086,74.2722656 80.5423828,91.368457 C74.803125,97.0866211 69.6960938,102.191602 66.0911133,105.796289 C62.7169922,109.171875 60.6791016,111.208008 60.6791016,111.208008 Z M105.390234,56.5661133 C108.130664,53.8259766 108.130664,49.3751953 105.390234,46.6347656 C102.649805,43.8717773 98.2016602,43.8717773 95.4360352,46.6347656 C92.6956055,49.3751953 92.6956055,53.8259766 95.4360352,56.5661133 C98.2016602,59.30625 102.650098,59.30625 105.390234,56.5661133 Z M88.8331055,73.1238281 C91.5729492,70.3836914 91.5729492,65.9349609 88.8331055,63.1948242 C86.0677734,60.4523438 81.6416016,60.4523438 78.8789063,63.1948242 C76.1364258,65.9349609 76.1364258,70.3836914 78.8789063,73.1238281 C81.6416016,75.8639648 86.0674805,75.8639648 88.8331055,73.1238281 Z" id="Shape" stroke="#36E9D9" stroke-width="0.4" fill="url(#linearGradient-12)"/>
                        <g id="Group" transform="translate(39.121804, 26.445668)">
                            <path d="M30.4236506,56.7361506 L11.3327415,74.6531871" id="Line-2" stroke="#36E9D9" stroke-width="0.4" stroke-linecap="round" fill-rule="nonzero"/>
                            <path d="M93.1805398,83.6367543 C91.2431374,83.6367543 89.6672585,82.0632191 89.6672585,80.123473 C89.6672585,78.1887074 91.2431374,76.6104847 93.1805398,76.6104847 C95.1179421,76.6104847 96.693821,78.1887074 96.693821,80.123473 C96.693821,82.0632191 95.1179421,83.6367543 93.1805398,83.6367543 Z" id="Shape" stroke="#36E9D9" stroke-width="0.1" fill="url(#linearGradient-5)"/>
                            <path d="M8.87438743,22.7373402 C7.34889915,22.7373402 5.85973899,22.3142933 4.56745384,21.511266 C4.02077415,21.1819691 3.52682884,20.7955433 3.06950462,20.3379261 C-0.12590554,17.142516 -0.12590554,11.9458363 3.06950462,8.75071911 C6.16178977,5.65843395 11.5644265,5.65843395 14.6567116,8.75071911 C15.1143288,9.20804332 15.5007546,9.70228161 15.8370827,10.2627308 C17.840696,13.4877308 17.3581765,17.6367543 14.6567116,20.3382191 C13.1104226,21.8865589 11.0564187,22.7373402 8.87438743,22.7373402 Z" id="Path" stroke="#36E9D9" stroke-width="0.4" fill="url(#linearGradient-5)"/>
                            <path d="M2.81315696,21.7293146 C2.45965081,21.7293146 2.19608253,21.6321095 1.98598487,21.4231078 C1.84778396,21.2862253 1.84734588,21.062011 1.98429654,20.9243548 C2.10568275,20.8015611 2.29168349,20.7844387 2.42820629,20.8780193 L2.9865498,21.0157196 C3.43506231,20.9628646 4.08587578,20.7245807 5.01296405,20.2093295 C6.62899074,19.2393192 8.54457439,17.6895627 10.2764145,15.958022 C12.0131117,14.2213247 13.5607487,12.3056776 14.5324412,10.6859868 C15.0529251,9.75308503 15.2888267,9.10311838 15.3353993,8.65767381 L15.1982615,8.11256966 C15.1044427,7.97458003 15.1217569,7.78590232 15.2423608,7.66599653 C15.3811877,7.52859455 15.6039014,7.52859455 15.7396935,7.66586544 C16.311646,8.24124537 16.0730077,9.37323509 15.1431108,11.0368732 C14.1377428,12.7190543 12.5892412,14.6427406 10.7749929,16.4567017 C8.96574055,18.2656676 7.04127419,19.8167211 5.36650222,20.8184829 C4.31324761,21.4072673 3.4698394,21.7293146 2.81315696,21.7293146 Z" id="Combined-Shape" fill="#36E9D9"/>
                            <path d="M84.4910866,19.6974964 C84.1919656,19.6974964 83.8919656,19.5832386 83.663157,19.35443 L67.0805398,2.79466442 C66.6232156,2.3373402 66.6232156,1.59612926 67.0805398,1.13880504 C67.538157,0.681480824 68.2793679,0.681480824 68.7363991,1.13880504 L85.3190163,17.6985707 C85.7766335,18.1561879 85.7766335,18.8971058 85.3190163,19.35443 C85.0905007,19.5832386 84.7907937,19.6974964 84.4910866,19.6974964 Z" id="Path"/>
                        </g>
                        <g id="Group-18-Copy" transform="translate(68.181818, 8.181818)" fill-rule="nonzero" stroke="#0DA5B2" stroke-linecap="round" stroke-width="0.4">
                            <path d="M1.1963046,0.461785334 L1.1963046,5.43892156" id="Line-3"/>
                            <path d="M4.77395901e-15,3.40909091 L2.72727273,3.40909091" id="Line-4"/>
                        </g>
                    </g>
                </g>
            </g>
        </g>
    </g>
</svg>