<?xml version="1.0" encoding="UTF-8"?>
<!-- Generator: Adobe Illustrator 18.0.0, SVG Export Plug-In . SVG Version: 6.00 Build 0) -->
<svg xmlns="http://www.w3.org/2000/svg" xmlns:xlink="http://www.w3.org/1999/xlink" id="Layer_1" x="0px" y="0px" viewBox="0 0 1000 1000" style="enable-background:new 0 0 1000 1000;" xml:space="preserve"><script xmlns="" type="text/javascript" charset="utf-8" id="zm-extension"/> <linearGradient id="SVGID_1_" gradientUnits="userSpaceOnUse" x1="-657.8517" y1="261.6024" x2="-105.8793" y2="261.6024"> <stop offset="0" style="stop-color:#E9E400"/> <stop offset="0.055" style="stop-color:#E9DE09"/> <stop offset="0.1466" style="stop-color:#E9CF23"/> <stop offset="0.2634" style="stop-color:#E9B64D"/> <stop offset="0.4009" style="stop-color:#EA9486"/> <stop offset="0.5539" style="stop-color:#EA68CF"/> <stop offset="0.6459" style="stop-color:#EA4CFE"/> <stop offset="0.9944" style="stop-color:#6C009A"/> </linearGradient> <rect x="-657.852" y="231.604" style="display:none;fill:url(#SVGID_1_);" width="551.972" height="59.997"/> <g> <g> <path d="M1319.428,481.607v77.828h-66.194v202.995h-80.235V559.436h-66.193v-77.828H1319.428z"/> <path d="M1376.791,546.598c-11.233,0-20.931-4.074-29.086-12.235c-8.161-8.155-12.235-17.715-12.235-28.685 c0-10.963,4.074-20.522,12.235-28.684c8.155-8.155,17.853-12.236,29.086-12.236c10.963,0,20.522,4.081,28.684,12.236 c8.155,8.161,12.236,17.721,12.236,28.684c0,10.97-4.081,20.529-12.236,28.685 C1397.313,542.523,1387.754,546.598,1376.791,546.598z M1339.481,762.431V561.843h74.218v200.588H1339.481z"/> <path d="M1445.793,762.431V469.572h74.218v292.858H1445.793z"/> <path d="M1688.104,481.607h74.217v280.823h-74.217v-18.053c-12.838,15.783-30.76,23.669-53.758,23.669 c-27.016,0-49.082-10.029-66.193-30.088c-17.119-20.059-25.676-45.333-25.676-75.822s8.557-55.764,25.676-75.822 c17.111-20.059,39.178-30.089,66.193-30.089c22.998,0,40.92,7.893,53.758,23.67V481.607z M1626.523,689.016 c6.551,7.221,15.176,10.832,25.875,10.832c10.693,0,19.32-3.611,25.877-10.832c6.549-7.222,9.828-16.179,9.828-26.879 c0-10.694-3.279-19.658-9.828-26.879c-6.557-7.222-15.184-10.832-25.877-10.832c-10.699,0-19.324,3.61-25.875,10.832 c-6.557,7.221-9.83,16.185-9.83,26.879C1616.693,672.837,1619.967,681.794,1626.523,689.016z"/> <path d="M1930.409,561.843h74.218v200.588h-74.218v-18.053c-12.837,15.783-30.759,23.669-53.757,23.669 c-27.017,0-49.082-10.029-66.194-30.088c-17.119-20.059-25.676-45.333-25.676-75.822s8.557-55.764,25.676-75.822 c17.112-20.059,39.178-30.089,66.194-30.089c22.998,0,40.92,7.893,53.757,23.67V561.843z M1868.829,689.016 c6.551,7.221,15.176,10.832,25.876,10.832c10.693,0,19.319-3.611,25.876-10.832c6.55-7.222,9.828-16.179,9.828-26.879 c0-10.694-3.278-19.658-9.828-26.879c-6.557-7.222-15.183-10.832-25.876-10.832c-10.7,0-19.325,3.61-25.876,10.832 c-6.557,7.221-9.829,16.185-9.829,26.879C1859,672.837,1862.272,681.794,1868.829,689.016z"/> </g> <g> <linearGradient id="SVGID_2_" gradientUnits="userSpaceOnUse" x1="1106.8047" y1="616.4026" x2="2004.627" y2="616.4026"> <stop offset="0" style="stop-color:#E9E400"/> <stop offset="0.055" style="stop-color:#E9DE09"/> <stop offset="0.1466" style="stop-color:#E9CF23"/> <stop offset="0.2634" style="stop-color:#E9B64D"/> <stop offset="0.4009" style="stop-color:#EA9486"/> <stop offset="0.5539" style="stop-color:#EA68CF"/> <stop offset="0.6459" style="stop-color:#EA4CFE"/> <stop offset="0.9944" style="stop-color:#6C009A"/> </linearGradient> <path style="fill:url(#SVGID_2_);" d="M1319.428,481.607v77.828h-66.194v202.995h-80.235V559.436h-66.193v-77.828H1319.428z"/> <linearGradient id="SVGID_3_" gradientUnits="userSpaceOnUse" x1="1106.8047" y1="616.4026" x2="2004.627" y2="616.4026"> <stop offset="0" style="stop-color:#E9E400"/> <stop offset="0.055" style="stop-color:#E9DE09"/> <stop offset="0.1466" style="stop-color:#E9CF23"/> <stop offset="0.2634" style="stop-color:#E9B64D"/> <stop offset="0.4009" style="stop-color:#EA9486"/> <stop offset="0.5539" style="stop-color:#EA68CF"/> <stop offset="0.6459" style="stop-color:#EA4CFE"/> <stop offset="0.9944" style="stop-color:#6C009A"/> </linearGradient> <path style="fill:url(#SVGID_3_);" d="M1376.791,546.598c-11.233,0-20.931-4.074-29.086-12.235 c-8.161-8.155-12.235-17.715-12.235-28.685c0-10.963,4.074-20.522,12.235-28.684c8.155-8.155,17.853-12.236,29.086-12.236 c10.963,0,20.522,4.081,28.684,12.236c8.155,8.161,12.236,17.721,12.236,28.684c0,10.97-4.081,20.529-12.236,28.685 C1397.313,542.523,1387.754,546.598,1376.791,546.598z M1339.481,762.431V561.843h74.218v200.588H1339.481z"/> <linearGradient id="SVGID_4_" gradientUnits="userSpaceOnUse" x1="1106.8047" y1="616.4026" x2="2004.627" y2="616.4026"> <stop offset="0" style="stop-color:#E9E400"/> <stop offset="0.055" style="stop-color:#E9DE09"/> <stop offset="0.1466" style="stop-color:#E9CF23"/> <stop offset="0.2634" style="stop-color:#E9B64D"/> <stop offset="0.4009" style="stop-color:#EA9486"/> <stop offset="0.5539" style="stop-color:#EA68CF"/> <stop offset="0.6459" style="stop-color:#EA4CFE"/> <stop offset="0.9944" style="stop-color:#6C009A"/> </linearGradient> <path style="fill:url(#SVGID_4_);" d="M1445.793,762.431V469.572h74.218v292.858H1445.793z"/> <linearGradient id="SVGID_5_" gradientUnits="userSpaceOnUse" x1="1106.8047" y1="616.4026" x2="2004.627" y2="616.4026"> <stop offset="0" style="stop-color:#E9E400"/> <stop offset="0.055" style="stop-color:#E9DE09"/> <stop offset="0.1466" style="stop-color:#E9CF23"/> <stop offset="0.2634" style="stop-color:#E9B64D"/> <stop offset="0.4009" style="stop-color:#EA9486"/> <stop offset="0.5539" style="stop-color:#EA68CF"/> <stop offset="0.6459" style="stop-color:#EA4CFE"/> <stop offset="0.9944" style="stop-color:#6C009A"/> </linearGradient> <path style="fill:url(#SVGID_5_);" d="M1688.104,481.607h74.217v280.823h-74.217v-18.053 c-12.838,15.783-30.76,23.669-53.758,23.669c-27.016,0-49.082-10.029-66.193-30.088c-17.119-20.059-25.676-45.333-25.676-75.822 s8.557-55.764,25.676-75.822c17.111-20.059,39.178-30.089,66.193-30.089c22.998,0,40.92,7.893,53.758,23.67V481.607z M1626.523,689.016c6.551,7.221,15.176,10.832,25.875,10.832c10.693,0,19.32-3.611,25.877-10.832 c6.549-7.222,9.828-16.179,9.828-26.879c0-10.694-3.279-19.658-9.828-26.879c-6.557-7.222-15.184-10.832-25.877-10.832 c-10.699,0-19.324,3.61-25.875,10.832c-6.557,7.221-9.83,16.185-9.83,26.879C1616.693,672.837,1619.967,681.794,1626.523,689.016z "/> <linearGradient id="SVGID_6_" gradientUnits="userSpaceOnUse" x1="1106.8047" y1="616.4026" x2="2004.627" y2="616.4026"> <stop offset="0" style="stop-color:#E9E400"/> <stop offset="0.055" style="stop-color:#E9DE09"/> <stop offset="0.1466" style="stop-color:#E9CF23"/> <stop offset="0.2634" style="stop-color:#E9B64D"/> <stop offset="0.4009" style="stop-color:#EA9486"/> <stop offset="0.5539" style="stop-color:#EA68CF"/> <stop offset="0.6459" style="stop-color:#EA4CFE"/> <stop offset="0.9944" style="stop-color:#6C009A"/> </linearGradient> <path style="fill:url(#SVGID_6_);" d="M1930.409,561.843h74.218v200.588h-74.218v-18.053 c-12.837,15.783-30.759,23.669-53.757,23.669c-27.017,0-49.082-10.029-66.194-30.088c-17.119-20.059-25.676-45.333-25.676-75.822 s8.557-55.764,25.676-75.822c17.112-20.059,39.178-30.089,66.194-30.089c22.998,0,40.92,7.893,53.757,23.67V561.843z M1868.829,689.016c6.551,7.221,15.176,10.832,25.876,10.832c10.693,0,19.319-3.611,25.876-10.832 c6.55-7.222,9.828-16.179,9.828-26.879c0-10.694-3.278-19.658-9.828-26.879c-6.557-7.222-15.183-10.832-25.876-10.832 c-10.7,0-19.325,3.61-25.876,10.832c-6.557,7.221-9.829,16.185-9.829,26.879C1859,672.837,1862.272,681.794,1868.829,689.016z"/> </g> </g> <g> <linearGradient id="SVGID_7_" gradientUnits="userSpaceOnUse" x1="2022.9932" y1="1119.0599" x2="2059.8674" y2="1119.0599"> <stop offset="0" style="stop-color:#E9E400"/> <stop offset="0.055" style="stop-color:#E9DE09"/> <stop offset="0.1466" style="stop-color:#E9CF23"/> <stop offset="0.2634" style="stop-color:#E9B64D"/> <stop offset="0.4009" style="stop-color:#EA9486"/> <stop offset="0.5539" style="stop-color:#EA68CF"/> <stop offset="0.6459" style="stop-color:#EA4CFE"/> <stop offset="0.9944" style="stop-color:#6C009A"/> </linearGradient> <path style="fill:url(#SVGID_7_);" d="M2054.475,1132.102c7.19-7.209,7.19-18.88,0-26.07c-7.209-7.209-18.88-7.209-26.089,0 c-7.19,7.191-7.19,18.861,0,26.07C2035.595,1139.292,2047.266,1139.292,2054.475,1132.102z"/> <linearGradient id="SVGID_8_" gradientUnits="userSpaceOnUse" x1="2131.8022" y1="936.5145" x2="2316.1453" y2="936.5145"> <stop offset="0" style="stop-color:#E9E400"/> <stop offset="0.055" style="stop-color:#E9DE09"/> <stop offset="0.1466" style="stop-color:#E9CF23"/> <stop offset="0.2634" style="stop-color:#E9B64D"/> <stop offset="0.4009" style="stop-color:#EA9486"/> <stop offset="0.5539" style="stop-color:#EA68CF"/> <stop offset="0.6459" style="stop-color:#EA4CFE"/> <stop offset="0.9944" style="stop-color:#6C009A"/> </linearGradient> <path style="fill:url(#SVGID_8_);" d="M2289.126,1001.735c36.022-36.022,36.03-94.345,0-130.373 c-36.026-36.024-94.346-36.026-130.375,0c-35.932,35.932-35.934,94.415,0.006,130.376 C2194.702,1037.661,2253.184,1037.676,2289.126,1001.735z M2184.827,897.436c21.614-21.614,56.607-21.617,78.225,0 c21.614,21.612,21.617,56.608,0,78.223c-21.559,21.56-56.652,21.56-78.221,0.004 C2163.268,954.088,2163.267,918.995,2184.827,897.436z"/> <linearGradient id="SVGID_9_" gradientUnits="userSpaceOnUse" x1="1736.1687" y1="1040.837" x2="2503.1172" y2="1040.837"> <stop offset="0" style="stop-color:#E9E400"/> <stop offset="0.055" style="stop-color:#E9DE09"/> <stop offset="0.1466" style="stop-color:#E9CF23"/> <stop offset="0.2634" style="stop-color:#E9B64D"/> <stop offset="0.4009" style="stop-color:#EA9486"/> <stop offset="0.5539" style="stop-color:#EA68CF"/> <stop offset="0.6459" style="stop-color:#EA4CFE"/> <stop offset="0.9944" style="stop-color:#6C009A"/> </linearGradient> <path style="fill:url(#SVGID_9_);" d="M1747.555,1110.01c2.281,0.946,4.677,1.405,7.052,1.405c4.799,0,9.514-1.875,13.041-5.4 c37.027-37.027,82.698-34.712,97.617-32.75l6.457,6.457c-12.707,30.237-22.943,60.304-30.451,89.547 c-2.71,10.583-1.796,21.782,2.233,32.025c-17.751,8.181-34.878,20.192-49.789,35.104c-47.459,47.461-57.096,163.124-57.483,168.025 c-0.424,5.378,1.527,10.673,5.341,14.488c3.472,3.47,8.168,5.4,13.035,5.4c0.483,0,0.968-0.018,1.453-0.057 c4.901-0.385,120.568-10.022,168.027-57.481c14.906-14.906,26.916-32.031,35.097-49.778c10.845,4.265,22.007,4.79,32.044,2.218 c29.23-7.506,59.294-17.738,89.534-30.447l6.457,6.457c1.96,14.921,4.276,60.592-32.75,97.615 c-5.271,5.273-6.849,13.203-3.995,20.091c2.852,6.89,9.574,11.381,17.032,11.381c72.974,0,174.996-43.458,212.571-113.669 c16.319-30.49,27.429-78.725-8.003-138.92c15.021-12.696,29.488-25.971,43.135-39.618 c60.879-60.879,108.672-139.685,142.054-234.223c41.705-117.994,45.693-217.252,45.842-221.419 c0.184-5.116-1.768-10.078-5.387-13.699c-3.621-3.619-8.562-5.581-13.699-5.387c-4.169,0.149-103.425,4.139-221.413,45.842 c-94.546,33.382-173.351,81.177-234.229,142.056c-13.642,13.642-26.916,28.107-39.618,43.135 c-60.194-35.432-108.429-24.322-138.922-8.004c-70.21,37.575-113.668,139.599-113.668,212.573 C1736.174,1100.434,1740.667,1107.158,1747.555,1110.01z M1898.013,1340.698c-25.351,25.351-84.82,38.722-122.408,44.181 c5.461-37.59,18.834-97.057,44.183-122.406c14.197-14.197,30.657-24.96,47.203-31.022l62.045,62.045 C1922.974,1310.04,1912.212,1326.501,1898.013,1340.698z M1982.068,1283.493c-5.336,1.366-11.516-0.64-16.11-5.227 c-89.496-89.494,25.388,25.39-83.727-83.727c-4.598-4.607-6.604-10.786-5.242-16.112c5.906-22.998,13.629-46.594,23.021-70.417 l152.466,152.466C2028.65,1269.87,2005.057,1277.591,1982.068,1283.493z M2247.57,1293.242 c-24.156,45.132-84.977,78.4-140.403,89.852c17.672-33.255,21.568-75.589,15.111-101.259c-1.499-5.963-5.389-8.96-5.607-9.313 c44.679-21.64,86.99-47.601,126.269-77.464C2262.128,1230.115,2263.708,1263.087,2247.57,1293.242z M2431.789,857.566 L2302.92,728.698c70.21-21.807,131.291-29.973,161.778-32.908C2461.762,726.282,2453.594,787.363,2431.789,857.566z M2054.458,871.347c54.62-54.622,125.113-98.093,209.577-129.384l154.488,154.488c-31.288,84.462-74.759,154.955-129.384,209.578 c-16.614,16.612-34.503,32.661-53.173,47.701c-44.88,36.137-94.276,66.746-146.977,91.113l-173.346-173.342 c24.367-52.704,54.976-102.101,91.109-146.975C2021.804,905.843,2037.852,887.952,2054.458,871.347z M1867.244,912.916 c30.161-16.14,63.129-14.558,98.181,4.63c-29.863,39.275-55.824,81.588-77.464,126.27c-0.275-0.17-3.593-4.342-9.759-5.732 c-2.535-0.573-51.318-11.066-100.812,15.238C1788.844,997.894,1822.11,937.072,1867.244,912.916z"/> <linearGradient id="SVGID_10_" gradientUnits="userSpaceOnUse" x1="1918.701" y1="1458.0242" x2="2007.715" y2="1458.0242"> <stop offset="0" style="stop-color:#E9E400"/> <stop offset="0.055" style="stop-color:#E9DE09"/> <stop offset="0.1466" style="stop-color:#E9CF23"/> <stop offset="0.2634" style="stop-color:#E9B64D"/> <stop offset="0.4009" style="stop-color:#EA9486"/> <stop offset="0.5539" style="stop-color:#EA68CF"/> <stop offset="0.6459" style="stop-color:#EA4CFE"/> <stop offset="0.9944" style="stop-color:#6C009A"/> </linearGradient> <path style="fill:url(#SVGID_10_);" d="M1950.178,1497.139l52.14-52.159c7.198-7.202,7.196-18.876-0.004-26.074 c-7.203-7.2-18.878-7.196-26.076,0.004l-52.14,52.159c-7.198,7.202-7.196,18.876,0.004,26.074 C1931.305,1504.34,1942.98,1504.34,1950.178,1497.139z"/> <linearGradient id="SVGID_11_" gradientUnits="userSpaceOnUse" x1="1657.9468" y1="1197.2771" x2="1746.9788" y2="1197.2771"> <stop offset="0" style="stop-color:#E9E400"/> <stop offset="0.055" style="stop-color:#E9DE09"/> <stop offset="0.1466" style="stop-color:#E9CF23"/> <stop offset="0.2634" style="stop-color:#E9B64D"/> <stop offset="0.4009" style="stop-color:#EA9486"/> <stop offset="0.5539" style="stop-color:#EA68CF"/> <stop offset="0.6459" style="stop-color:#EA4CFE"/> <stop offset="0.9944" style="stop-color:#6C009A"/> </linearGradient> <path style="fill:url(#SVGID_11_);" d="M1689.418,1236.386l52.159-52.14c7.202-7.198,7.203-18.872,0.005-26.074 s-18.87-7.202-26.074-0.004l-52.159,52.14c-7.202,7.198-7.203,18.872-0.005,26.074 C1670.54,1243.58,1682.212,1243.588,1689.418,1236.386z"/> <linearGradient id="SVGID_12_" gradientUnits="userSpaceOnUse" x1="1715.5806" y1="1520.4705" x2="1877.3484" y2="1520.4705"> <stop offset="0" style="stop-color:#E9E400"/> <stop offset="0.055" style="stop-color:#E9DE09"/> <stop offset="0.1466" style="stop-color:#E9CF23"/> <stop offset="0.2634" style="stop-color:#E9B64D"/> <stop offset="0.4009" style="stop-color:#EA9486"/> <stop offset="0.5539" style="stop-color:#EA68CF"/> <stop offset="0.6459" style="stop-color:#EA4CFE"/> <stop offset="0.9944" style="stop-color:#6C009A"/> </linearGradient> <path style="fill:url(#SVGID_12_);" d="M1845.875,1444.995l-124.893,124.875c-7.202,7.2-7.202,18.874-0.002,26.074 c7.196,7.2,18.872,7.203,26.074,0.002l124.893-124.875c7.202-7.2,7.202-18.874,0.002-26.074 C1864.753,1437.797,1853.077,1437.797,1845.875,1444.995z"/> <linearGradient id="SVGID_13_" gradientUnits="userSpaceOnUse" x1="1568.0836" y1="1520.4705" x2="1729.8513" y2="1520.4705"> <stop offset="0" style="stop-color:#E9E400"/> <stop offset="0.055" style="stop-color:#E9DE09"/> <stop offset="0.1466" style="stop-color:#E9CF23"/> <stop offset="0.2634" style="stop-color:#E9B64D"/> <stop offset="0.4009" style="stop-color:#EA9486"/> <stop offset="0.5539" style="stop-color:#EA68CF"/> <stop offset="0.6459" style="stop-color:#EA4CFE"/> <stop offset="0.9944" style="stop-color:#6C009A"/> </linearGradient> <path style="fill:url(#SVGID_13_);" d="M1698.378,1444.995l-124.893,124.875c-7.202,7.2-7.202,18.874-0.002,26.074 c7.196,7.2,18.872,7.203,26.074,0.002l124.893-124.875c7.202-7.2,7.202-18.874,0.002-26.074 C1717.254,1437.797,1705.578,1437.797,1698.378,1444.995z"/> <linearGradient id="SVGID_14_" gradientUnits="userSpaceOnUse" x1="1559.1416" y1="1364.0214" x2="1720.891" y2="1364.0214"> <stop offset="0" style="stop-color:#E9E400"/> <stop offset="0.055" style="stop-color:#E9DE09"/> <stop offset="0.1466" style="stop-color:#E9CF23"/> <stop offset="0.2634" style="stop-color:#E9B64D"/> <stop offset="0.4009" style="stop-color:#EA9486"/> <stop offset="0.5539" style="stop-color:#EA68CF"/> <stop offset="0.6459" style="stop-color:#EA4CFE"/> <stop offset="0.9944" style="stop-color:#6C009A"/> </linearGradient> <path style="fill:url(#SVGID_14_);" d="M1590.617,1439.504l124.875-124.893c7.2-7.202,7.2-18.874-0.002-26.076 c-7.198-7.198-18.874-7.198-26.074,0.002l-124.875,124.893c-7.2,7.202-7.2,18.874,0.002,26.076 C1571.743,1446.706,1583.417,1446.706,1590.617,1439.504z"/> <linearGradient id="SVGID_15_" gradientUnits="userSpaceOnUse" x1="2075.1411" y1="1053.8722" x2="2138.0864" y2="1053.8722"> <stop offset="0" style="stop-color:#E9E400"/> <stop offset="0.055" style="stop-color:#E9DE09"/> <stop offset="0.1466" style="stop-color:#E9CF23"/> <stop offset="0.2634" style="stop-color:#E9B64D"/> <stop offset="0.4009" style="stop-color:#EA9486"/> <stop offset="0.5539" style="stop-color:#EA68CF"/> <stop offset="0.6459" style="stop-color:#EA4CFE"/> <stop offset="0.9944" style="stop-color:#6C009A"/> </linearGradient> <path style="fill:url(#SVGID_15_);" d="M2106.616,1079.945l26.07-26.07c7.2-7.2,7.2-18.874,0-26.076 c-7.202-7.2-18.872-7.2-26.076,0l-26.07,26.07c-7.2,7.2-7.2,18.874,0,26.076 C2087.742,1087.145,2099.415,1087.145,2106.616,1079.945z"/> </g> <g> <linearGradient id="SVGID_16_" gradientUnits="userSpaceOnUse" x1="-592.2969" y1="-423.6395" x2="-555.8906" y2="-423.6395"> <stop offset="0" style="stop-color:#E9E400"/> <stop offset="0.055" style="stop-color:#E9DE09"/> <stop offset="0.1466" style="stop-color:#E9CF23"/> <stop offset="0.2634" style="stop-color:#E9B64D"/> <stop offset="0.4009" style="stop-color:#EA9486"/> <stop offset="0.5539" style="stop-color:#EA68CF"/> <stop offset="0.6459" style="stop-color:#EA4CFE"/> <stop offset="0.9944" style="stop-color:#6C009A"/> </linearGradient> <path style="fill:url(#SVGID_16_);" d="M-555.891-381.772v-83.734c0-10.052-8.151-18.203-18.203-18.203 s-18.203,8.151-18.203,18.203v83.734c0,10.052,8.151,18.203,18.203,18.203S-555.891-371.721-555.891-381.772z"/> <linearGradient id="SVGID_17_" gradientUnits="userSpaceOnUse" x1="-1010.9688" y1="102.4308" x2="-974.5625" y2="102.4308"> <stop offset="0" style="stop-color:#E9E400"/> <stop offset="0.055" style="stop-color:#E9DE09"/> <stop offset="0.1466" style="stop-color:#E9CF23"/> <stop offset="0.2634" style="stop-color:#E9B64D"/> <stop offset="0.4009" style="stop-color:#EA9486"/> <stop offset="0.5539" style="stop-color:#EA68CF"/> <stop offset="0.6459" style="stop-color:#EA4CFE"/> <stop offset="0.9944" style="stop-color:#6C009A"/> </linearGradient> <path style="fill:url(#SVGID_17_);" d="M-992.766,84.228c-10.048,0-18.203,8.155-18.203,18.203s8.155,18.203,18.203,18.203 s18.203-8.155,18.203-18.203S-982.718,84.228-992.766,84.228z"/> <linearGradient id="SVGID_18_" gradientUnits="userSpaceOnUse" x1="-1156.5938" y1="78.7668" x2="-319.25" y2="78.7668"> <stop offset="0" style="stop-color:#E9E400"/> <stop offset="0.055" style="stop-color:#E9DE09"/> <stop offset="0.1466" style="stop-color:#E9CF23"/> <stop offset="0.2634" style="stop-color:#E9B64D"/> <stop offset="0.4009" style="stop-color:#EA9486"/> <stop offset="0.5539" style="stop-color:#EA68CF"/> <stop offset="0.6459" style="stop-color:#EA4CFE"/> <stop offset="0.9944" style="stop-color:#6C009A"/> </linearGradient> <path style="fill:url(#SVGID_18_);" d="M-392.063-24.991h-135.89c21.037-53.887,29.553-117.314,27.911-173.774 c-0.313-10.774-0.726-17.005-1.285-20.928c-0.941-39.332-33.237-71.063-72.767-71.063c-40.149,0-72.813,32.664-72.813,72.813 v18.203c0,115.127-147.835,179.812-259.402,207.55c-8.435-19.284-27.691-32.8-50.051-32.8h-182.031 c-10.052,0-18.203,8.151-18.203,18.203v436.875c0,10.052,8.151,18.203,18.203,18.203h182.031c22.211,0,41.356-13.337,49.878-32.418 c9.238,2.37,17.814,4.609,25.73,6.677c63.556,16.599,98.566,25.741,183.713,25.741h195.756c40.149,0,72.813-32.664,72.813-72.813 c0-14.97-4.545-28.896-12.323-40.48c28.12-9.835,48.73-36.703,48.73-68.739c0-14.916-4.434-28.887-12.189-40.524 c27.996-9.852,48.595-36.657,48.595-68.695c0-14.97-4.545-28.896-12.323-40.48c28.12-9.835,48.73-36.703,48.73-68.739 C-319.25,7.673-351.914-24.991-392.063-24.991z M-938.156,393.681c0,10.037-8.166,18.203-18.203,18.203h-163.828V11.415h163.828 c10.037,0,18.203,8.166,18.203,18.203V393.681z M-392.063,84.228c-39.044,0-48.351,0-91.016,0 c-10.052,0-18.203,8.151-18.203,18.203s8.151,18.203,18.203,18.203h54.609c20.074,0,36.406,16.332,36.406,36.406 c0,20.107-16.299,36.406-36.406,36.406h-91.016c-10.052,0-18.203,8.151-18.203,18.203s8.151,18.203,18.203,18.203h54.609 c19.836,0,36.406,15.846,36.406,36.406c0,20.107-16.299,36.406-36.406,36.406c-39.044,0-48.351,0-91.016,0 c-10.052,0-18.203,8.151-18.203,18.203c0,10.052,8.151,18.203,18.203,18.203h54.609c20.074,0,36.406,16.332,36.406,36.406 s-16.332,36.406-36.406,36.406h-195.756c-80.471,0-111.9-8.208-174.513-24.56c-9.173-2.396-19.233-5.022-30.199-7.818V44.226 C-770.018,12.848-610.5-63.744-610.5-199.741v-18.203c0-20.074,16.332-36.406,36.406-36.406c20.038,0,36.368,16.306,36.406,36.35 v0.056c0,7.911,9.873,105.001-29.718,192.953h-61.297c-10.052,0-18.203,8.151-18.203,18.203s8.151,18.203,18.203,18.203 c12.711,0,215.893,0,236.641,0c20.074,0,36.406,16.332,36.406,36.406C-355.656,67.929-371.955,84.228-392.063,84.228z"/> <linearGradient id="SVGID_19_" gradientUnits="userSpaceOnUse" x1="-1010.9688" y1="248.0558" x2="-974.5625" y2="248.0558"> <stop offset="0" style="stop-color:#E9E400"/> <stop offset="0.055" style="stop-color:#E9DE09"/> <stop offset="0.1466" style="stop-color:#E9CF23"/> <stop offset="0.2634" style="stop-color:#E9B64D"/> <stop offset="0.4009" style="stop-color:#EA9486"/> <stop offset="0.5539" style="stop-color:#EA68CF"/> <stop offset="0.6459" style="stop-color:#EA4CFE"/> <stop offset="0.9944" style="stop-color:#6C009A"/> </linearGradient> <path style="fill:url(#SVGID_19_);" d="M-992.766,157.04c-10.052,0-18.203,8.151-18.203,18.203v145.625 c0,10.052,8.151,18.203,18.203,18.203s18.203-8.151,18.203-18.203V175.243C-974.563,165.192-982.714,157.04-992.766,157.04z"/> <linearGradient id="SVGID_20_" gradientUnits="userSpaceOnUse" x1="-810.7344" y1="-236.1473" x2="-701.5156" y2="-236.1473"> <stop offset="0" style="stop-color:#E9E400"/> <stop offset="0.055" style="stop-color:#E9DE09"/> <stop offset="0.1466" style="stop-color:#E9CF23"/> <stop offset="0.2634" style="stop-color:#E9B64D"/> <stop offset="0.4009" style="stop-color:#EA9486"/> <stop offset="0.5539" style="stop-color:#EA68CF"/> <stop offset="0.6459" style="stop-color:#EA4CFE"/> <stop offset="0.9944" style="stop-color:#6C009A"/> </linearGradient> <path style="fill:url(#SVGID_20_);" d="M-810.734-236.147c0,10.052,8.151,18.203,18.203,18.203h72.813 c10.052,0,18.203-8.151,18.203-18.203s-8.151-18.203-18.203-18.203h-72.813C-802.583-254.35-810.734-246.199-810.734-236.147z"/> <linearGradient id="SVGID_21_" gradientUnits="userSpaceOnUse" x1="-446.6719" y1="-236.1473" x2="-337.4531" y2="-236.1473"> <stop offset="0" style="stop-color:#E9E400"/> <stop offset="0.055" style="stop-color:#E9DE09"/> <stop offset="0.1466" style="stop-color:#E9CF23"/> <stop offset="0.2634" style="stop-color:#E9B64D"/> <stop offset="0.4009" style="stop-color:#EA9486"/> <stop offset="0.5539" style="stop-color:#EA68CF"/> <stop offset="0.6459" style="stop-color:#EA4CFE"/> <stop offset="0.9944" style="stop-color:#6C009A"/> </linearGradient> <path style="fill:url(#SVGID_21_);" d="M-446.672-236.147c0,10.052,8.151,18.203,18.203,18.203h72.813 c10.052,0,18.203-8.151,18.203-18.203s-8.151-18.203-18.203-18.203h-72.813C-438.521-254.35-446.672-246.199-446.672-236.147z"/> <linearGradient id="SVGID_22_" gradientUnits="userSpaceOnUse" x1="-489.3213" y1="-364.8613" x2="-401.4375" y2="-364.8613"> <stop offset="0" style="stop-color:#E9E400"/> <stop offset="0.055" style="stop-color:#E9DE09"/> <stop offset="0.1466" style="stop-color:#E9CF23"/> <stop offset="0.2634" style="stop-color:#E9B64D"/> <stop offset="0.4009" style="stop-color:#EA9486"/> <stop offset="0.5539" style="stop-color:#EA68CF"/> <stop offset="0.6459" style="stop-color:#EA4CFE"/> <stop offset="0.9944" style="stop-color:#6C009A"/> </linearGradient> <path style="fill:url(#SVGID_22_);" d="M-432.513-403.472l-51.477,51.477c-7.108,7.108-7.108,18.635,0,25.745 c7.112,7.108,18.633,7.107,25.745,0l51.477-51.477c7.108-7.108,7.108-18.635,0-25.745 C-413.879-410.579-425.402-410.579-432.513-403.472z"/> <linearGradient id="SVGID_23_" gradientUnits="userSpaceOnUse" x1="-746.7499" y1="-364.8613" x2="-658.8661" y2="-364.8613"> <stop offset="0" style="stop-color:#E9E400"/> <stop offset="0.055" style="stop-color:#E9DE09"/> <stop offset="0.1466" style="stop-color:#E9CF23"/> <stop offset="0.2634" style="stop-color:#E9B64D"/> <stop offset="0.4009" style="stop-color:#EA9486"/> <stop offset="0.5539" style="stop-color:#EA68CF"/> <stop offset="0.6459" style="stop-color:#EA4CFE"/> <stop offset="0.9944" style="stop-color:#6C009A"/> </linearGradient> <path style="fill:url(#SVGID_23_);" d="M-664.197-326.251c7.108-7.108,7.108-18.635,0-25.745l-51.477-51.477 c-7.11-7.106-18.633-7.106-25.745,0c-7.108,7.108-7.108,18.635,0,25.745l51.477,51.477 C-682.828-319.143-671.308-319.144-664.197-326.251z"/> </g> <g> <linearGradient id="SVGID_24_" gradientUnits="userSpaceOnUse" x1="-818.7544" y1="641.75" x2="-782.5044" y2="641.75"> <stop offset="0" style="stop-color:#E9E400"/> <stop offset="0.055" style="stop-color:#E9DE09"/> <stop offset="0.1466" style="stop-color:#E9CF23"/> <stop offset="0.2634" style="stop-color:#E9B64D"/> <stop offset="0.4009" style="stop-color:#EA9486"/> <stop offset="0.5539" style="stop-color:#EA68CF"/> <stop offset="0.6459" style="stop-color:#EA4CFE"/> <stop offset="0.9944" style="stop-color:#6C009A"/> </linearGradient> <path style="fill:url(#SVGID_24_);" d="M-800.629,659.875c10.005,0,18.125-8.12,18.125-18.125s-8.12-18.125-18.125-18.125 s-18.125,8.12-18.125,18.125S-810.634,659.875-800.629,659.875z"/> <linearGradient id="SVGID_25_" gradientUnits="userSpaceOnUse" x1="-1108.7544" y1="641.75" x2="-1072.5044" y2="641.75"> <stop offset="0" style="stop-color:#E9E400"/> <stop offset="0.055" style="stop-color:#E9DE09"/> <stop offset="0.1466" style="stop-color:#E9CF23"/> <stop offset="0.2634" style="stop-color:#E9B64D"/> <stop offset="0.4009" style="stop-color:#EA9486"/> <stop offset="0.5539" style="stop-color:#EA68CF"/> <stop offset="0.6459" style="stop-color:#EA4CFE"/> <stop offset="0.9944" style="stop-color:#6C009A"/> </linearGradient> <path style="fill:url(#SVGID_25_);" d="M-1090.629,659.875c10.005,0,18.125-8.12,18.125-18.125s-8.12-18.125-18.125-18.125 s-18.125,8.12-18.125,18.125S-1100.634,659.875-1090.629,659.875z"/> <linearGradient id="SVGID_26_" gradientUnits="userSpaceOnUse" x1="-1181.2544" y1="641.75" x2="-1145.0044" y2="641.75"> <stop offset="0" style="stop-color:#E9E400"/> <stop offset="0.055" style="stop-color:#E9DE09"/> <stop offset="0.1466" style="stop-color:#E9CF23"/> <stop offset="0.2634" style="stop-color:#E9B64D"/> <stop offset="0.4009" style="stop-color:#EA9486"/> <stop offset="0.5539" style="stop-color:#EA68CF"/> <stop offset="0.6459" style="stop-color:#EA4CFE"/> <stop offset="0.9944" style="stop-color:#6C009A"/> </linearGradient> <path style="fill:url(#SVGID_26_);" d="M-1163.129,659.875c10.005,0,18.125-8.12,18.125-18.125s-8.12-18.125-18.125-18.125 s-18.125,8.12-18.125,18.125S-1173.134,659.875-1163.129,659.875z"/> <linearGradient id="SVGID_27_" gradientUnits="userSpaceOnUse" x1="-1253.7544" y1="641.75" x2="-1217.5044" y2="641.75"> <stop offset="0" style="stop-color:#E9E400"/> <stop offset="0.055" style="stop-color:#E9DE09"/> <stop offset="0.1466" style="stop-color:#E9CF23"/> <stop offset="0.2634" style="stop-color:#E9B64D"/> <stop offset="0.4009" style="stop-color:#EA9486"/> <stop offset="0.5539" style="stop-color:#EA68CF"/> <stop offset="0.6459" style="stop-color:#EA4CFE"/> <stop offset="0.9944" style="stop-color:#6C009A"/> </linearGradient> <path style="fill:url(#SVGID_27_);" d="M-1235.629,659.875c10.005,0,18.125-8.12,18.125-18.125s-8.12-18.125-18.125-18.125 s-18.125,8.12-18.125,18.125S-1245.634,659.875-1235.629,659.875z"/> <linearGradient id="SVGID_28_" gradientUnits="userSpaceOnUse" x1="-1373.3794" y1="986.125" x2="-445.3794" y2="986.125"> <stop offset="0" style="stop-color:#E9E400"/> <stop offset="0.055" style="stop-color:#E9DE09"/> <stop offset="0.1466" style="stop-color:#E9CF23"/> <stop offset="0.2634" style="stop-color:#E9B64D"/> <stop offset="0.4009" style="stop-color:#EA9486"/> <stop offset="0.5539" style="stop-color:#EA68CF"/> <stop offset="0.6459" style="stop-color:#EA4CFE"/> <stop offset="0.9944" style="stop-color:#6C009A"/> </linearGradient> <path style="fill:url(#SVGID_28_);" d="M-1319.004,1421.125c27.164,0,792.106,0,819.25,0c29.982,0,54.375-24.393,54.375-54.375 V605.5c0-29.982-24.393-54.375-54.375-54.375h-819.25c-29.982,0-54.375,24.393-54.375,54.375v761.25 C-1373.379,1396.732-1348.987,1421.125-1319.004,1421.125z M-1036.254,1258c0-69.959,56.916-126.875,126.875-126.875 s126.875,56.916,126.875,126.875s-56.916,126.875-126.875,126.875S-1036.254,1327.959-1036.254,1258z M-746.254,1258 c0-89.947-73.178-163.125-163.125-163.125s-163.125,73.178-163.125,163.125c0,51.194,23.711,96.945,60.721,126.875h-97.837 c-0.277-2.53-1.055-5.013-2.394-7.27c-11.241-18.955-19.745-39.46-25.279-60.943c-1.535-5.956-5.985-10.726-11.819-12.673 l-68.391-22.801v-46.375l68.391-22.801c5.834-1.947,10.284-6.717,11.819-12.673c5.534-21.485,14.04-41.988,25.279-60.943 c3.145-5.3,3.378-11.836,0.623-17.349l-32.259-64.532l32.785-32.784l64.532,32.259c5.512,2.757,12.046,2.521,17.342-0.618 c18.99-11.252,39.496-19.758,60.949-25.284c5.956-1.535,10.726-5.985,12.673-11.819l22.803-68.391h46.375l22.801,68.391 c1.947,5.834,6.717,10.284,12.673,11.819c21.453,5.526,41.959,14.032,60.949,25.284c5.3,3.139,11.834,3.375,17.342,0.618 l64.532-32.259l32.785,32.784l-32.259,64.532c-2.757,5.514-2.521,12.048,0.624,17.349c11.241,18.955,19.745,39.46,25.279,60.943 c1.535,5.956,5.985,10.726,11.819,12.673l68.393,22.801v46.375l-68.391,22.801c-5.834,1.947-10.284,6.717-11.819,12.673 c-5.534,21.485-14.04,41.988-25.279,60.943c-1.338,2.257-2.115,4.74-2.394,7.27h-97.837 C-769.966,1354.945-746.254,1309.194-746.254,1258z M-499.754,1384.875h-169.539c8.361-15.774,15.162-32.359,20.267-49.548 l71.632-23.881c7.4-2.467,12.392-9.394,12.392-17.195v-72.5c0-7.801-4.992-14.727-12.392-17.195l-71.632-23.881 c-5.378-18.101-12.611-35.545-21.594-52.066l33.778-67.57c3.487-6.978,2.119-15.404-3.397-20.92l-51.258-51.258 c-5.515-5.514-13.942-6.882-20.92-3.397l-67.574,33.78c-16.537-8.986-33.979-16.22-52.062-21.594l-23.881-71.632 c-2.469-7.4-9.394-12.392-17.195-12.392h-72.5c-7.801,0-14.727,4.992-17.195,12.392l-23.881,71.632 c-18.083,5.374-35.525,12.608-52.062,21.594l-67.574-33.78c-6.978-3.487-15.404-2.119-20.92,3.397l-51.257,51.258 c-5.516,5.516-6.884,13.944-3.397,20.92l33.778,67.57c-8.981,16.519-16.215,33.963-21.594,52.066l-71.632,23.881 c-7.399,2.469-12.39,9.394-12.39,17.195v72.5c0,7.801,4.992,14.727,12.392,17.195l71.632,23.881 c5.106,17.19,11.906,33.774,20.267,49.548h-169.541c-9.994,0-18.125-8.131-18.125-18.125V732.375h855.5v634.375 C-481.629,1376.744-489.76,1384.875-499.754,1384.875z M-1319.004,587.375h819.25c9.994,0,18.125,8.131,18.125,18.125v90.625 h-855.5V605.5C-1337.129,595.506-1328.999,587.375-1319.004,587.375z"/> <linearGradient id="SVGID_29_" gradientUnits="userSpaceOnUse" x1="-746.2544" y1="641.75" x2="-554.1294" y2="641.75"> <stop offset="0" style="stop-color:#E9E400"/> <stop offset="0.055" style="stop-color:#E9DE09"/> <stop offset="0.1466" style="stop-color:#E9CF23"/> <stop offset="0.2634" style="stop-color:#E9B64D"/> <stop offset="0.4009" style="stop-color:#EA9486"/> <stop offset="0.5539" style="stop-color:#EA68CF"/> <stop offset="0.6459" style="stop-color:#EA4CFE"/> <stop offset="0.9944" style="stop-color:#6C009A"/> </linearGradient> <path style="fill:url(#SVGID_29_);" d="M-728.129,659.875h155.875c10.01,0,18.125-8.115,18.125-18.125s-8.115-18.125-18.125-18.125 h-155.875c-10.01,0-18.125,8.115-18.125,18.125S-738.14,659.875-728.129,659.875z"/> <linearGradient id="SVGID_30_" gradientUnits="userSpaceOnUse" x1="-673.7544" y1="823" x2="-565.0044" y2="823"> <stop offset="0" style="stop-color:#E9E400"/> <stop offset="0.055" style="stop-color:#E9DE09"/> <stop offset="0.1466" style="stop-color:#E9CF23"/> <stop offset="0.2634" style="stop-color:#E9B64D"/> <stop offset="0.4009" style="stop-color:#EA9486"/> <stop offset="0.5539" style="stop-color:#EA68CF"/> <stop offset="0.6459" style="stop-color:#EA4CFE"/> <stop offset="0.9944" style="stop-color:#6C009A"/> </linearGradient> <path style="fill:url(#SVGID_30_);" d="M-583.129,804.875h-72.5c-10.01,0-18.125,8.115-18.125,18.125s8.115,18.125,18.125,18.125 h72.5c10.01,0,18.125-8.115,18.125-18.125S-573.119,804.875-583.129,804.875z"/> <linearGradient id="SVGID_31_" gradientUnits="userSpaceOnUse" x1="-818.7544" y1="823" x2="-710.0044" y2="823"> <stop offset="0" style="stop-color:#E9E400"/> <stop offset="0.055" style="stop-color:#E9DE09"/> <stop offset="0.1466" style="stop-color:#E9CF23"/> <stop offset="0.2634" style="stop-color:#E9B64D"/> <stop offset="0.4009" style="stop-color:#EA9486"/> <stop offset="0.5539" style="stop-color:#EA68CF"/> <stop offset="0.6459" style="stop-color:#EA4CFE"/> <stop offset="0.9944" style="stop-color:#6C009A"/> </linearGradient> <path style="fill:url(#SVGID_31_);" d="M-728.129,804.875h-72.5c-10.01,0-18.125,8.115-18.125,18.125s8.115,18.125,18.125,18.125 h72.5c10.01,0,18.125-8.115,18.125-18.125S-718.119,804.875-728.129,804.875z"/> <linearGradient id="SVGID_32_" gradientUnits="userSpaceOnUse" x1="-963.7544" y1="823" x2="-855.0044" y2="823"> <stop offset="0" style="stop-color:#E9E400"/> <stop offset="0.055" style="stop-color:#E9DE09"/> <stop offset="0.1466" style="stop-color:#E9CF23"/> <stop offset="0.2634" style="stop-color:#E9B64D"/> <stop offset="0.4009" style="stop-color:#EA9486"/> <stop offset="0.5539" style="stop-color:#EA68CF"/> <stop offset="0.6459" style="stop-color:#EA4CFE"/> <stop offset="0.9944" style="stop-color:#6C009A"/> </linearGradient> <path style="fill:url(#SVGID_32_);" d="M-873.129,804.875h-72.5c-10.01,0-18.125,8.115-18.125,18.125s8.115,18.125,18.125,18.125 h72.5c10.01,0,18.125-8.115,18.125-18.125S-863.119,804.875-873.129,804.875z"/> </g> <g> <g> <path d="M1633.334-140.101c52.344,15.406,94.125,42.172,125.313,80.281c31.188,38.125,46.781,86.047,46.781,143.797 c0,89.313-28.5,157.078-85.469,203.281c-56.984,46.203-128.594,69.297-214.828,69.297c-70.844,0-132.844-16.172-185.969-48.516 s-91.234-80.078-114.328-143.219l203.281-116.656c16.156,56.219,48.5,84.313,97.016,84.313c20.781,0,37.531-5.391,50.234-16.172 s19.063-25.406,19.063-43.891c0-38.5-23.109-57.75-69.297-57.75h-49.672l-90.094-133.969l108.578-127.063H1230.24v-224.063 h531.297v177.875L1633.334-140.101z"/> </g> <g> <linearGradient id="SVGID_33_" gradientUnits="userSpaceOnUse" x1="1204.834" y1="-56.9365" x2="1805.4277" y2="-56.9365"> <stop offset="0" style="stop-color:#6C009A"/> <stop offset="0.0728" style="stop-color:#7506A1"/> <stop offset="0.1939" style="stop-color:#8F15B6"/> <stop offset="0.3483" style="stop-color:#B82ED7"/> <stop offset="0.5069" style="stop-color:#EA4CFE"/> <stop offset="0.9944" style="stop-color:#6C009A"/> </linearGradient> <path style="fill:url(#SVGID_33_);" d="M1633.334-140.101c52.344,15.406,94.125,42.172,125.313,80.281 c31.188,38.125,46.781,86.047,46.781,143.797c0,89.313-28.5,157.078-85.469,203.281c-56.984,46.203-128.594,69.297-214.828,69.297 c-70.844,0-132.844-16.172-185.969-48.516s-91.234-80.078-114.328-143.219l203.281-116.656 c16.156,56.219,48.5,84.313,97.016,84.313c20.781,0,37.531-5.391,50.234-16.172s19.063-25.406,19.063-43.891 c0-38.5-23.109-57.75-69.297-57.75h-49.672l-90.094-133.969l108.578-127.063H1230.24v-224.063h531.297v177.875L1633.334-140.101z"/> </g> </g> <linearGradient id="SVGID_34_" gradientUnits="userSpaceOnUse" x1="-145" y1="1323.1957" x2="809" y2="1323.1957"> <stop offset="0" style="stop-color:#6C009A"/> <stop offset="0.0728" style="stop-color:#7506A1"/> <stop offset="0.1939" style="stop-color:#8F15B6"/> <stop offset="0.3483" style="stop-color:#B82ED7"/> <stop offset="0.5069" style="stop-color:#EA4CFE"/> <stop offset="0.9944" style="stop-color:#6C009A"/> </linearGradient> <path style="fill:url(#SVGID_34_);" d="M718.688,1413.508H-54.688c-49.672,0-90.312-40.641-90.312-90.312v0 c0-49.672,40.641-90.312,90.312-90.312h773.375c49.672,0,90.312,40.641,90.312,90.312v0 C809,1372.868,768.359,1413.508,718.688,1413.508z"/> <g> <path d="M-1689.568,2072.078h342.78c10.52,0,19.048-8.535,19.048-19.055v-114.66c0-10.52-8.527-19.055-19.048-19.055h-342.78 c-10.528,0-19.055,8.535-19.055,19.055v114.66C-1708.623,2063.551-1700.096,2072.078-1689.568,2072.078L-1689.568,2072.078z M-1670.513,1957.418h304.669v76.557h-304.669V1957.418z M-1670.513,1957.418"/> <path d="M-939.5,2053.023v-114.66c0-10.52-8.527-19.055-19.055-19.055h-323.107c-10.52,0-19.048,8.535-19.048,19.055v114.66 c0,10.52,8.527,19.055,19.048,19.055h323.107C-948.027,2072.078-939.5,2063.551-939.5,2053.023L-939.5,2053.023z M-977.61,2033.968 h-284.997v-76.55h284.997V2033.968z M-977.61,2033.968"/> <linearGradient id="SVGID_35_" gradientUnits="userSpaceOnUse" x1="-1708.6232" y1="2117.6877" x2="-1019.9547" y2="2117.6877"> <stop offset="0" style="stop-color:#E9E400"/> <stop offset="0.055" style="stop-color:#E9DE09"/> <stop offset="0.1466" style="stop-color:#E9CF23"/> <stop offset="0.2634" style="stop-color:#E9B64D"/> <stop offset="0.4009" style="stop-color:#EA9486"/> <stop offset="0.5539" style="stop-color:#EA68CF"/> <stop offset="0.6459" style="stop-color:#EA4CFE"/> <stop offset="0.9944" style="stop-color:#6C009A"/> </linearGradient> <path style="fill:url(#SVGID_35_);" d="M-1689.568,2136.743h650.566c10.52,0,19.048-8.535,19.048-19.055 c0-10.52-8.527-19.055-19.048-19.055h-650.566c-10.528,0-19.055,8.535-19.055,19.055 C-1708.623,2128.208-1700.096,2136.743-1689.568,2136.743L-1689.568,2136.743z M-1689.568,2136.743"/> <linearGradient id="SVGID_36_" gradientUnits="userSpaceOnUse" x1="-1708.6232" y1="2182.3474" x2="-939.4998" y2="2182.3474"> <stop offset="0" style="stop-color:#E9E400"/> <stop offset="0.055" style="stop-color:#E9DE09"/> <stop offset="0.1466" style="stop-color:#E9CF23"/> <stop offset="0.2634" style="stop-color:#E9B64D"/> <stop offset="0.4009" style="stop-color:#EA9486"/> <stop offset="0.5539" style="stop-color:#EA68CF"/> <stop offset="0.6459" style="stop-color:#EA4CFE"/> <stop offset="0.9944" style="stop-color:#6C009A"/> </linearGradient> <path style="fill:url(#SVGID_36_);" d="M-958.555,2163.296h-731.013c-10.528,0-19.055,8.527-19.055,19.048 c0,10.528,8.527,19.055,19.055,19.055h731.013c10.528,0,19.055-8.527,19.055-19.055 C-939.5,2171.823-948.027,2163.296-958.555,2163.296L-958.555,2163.296z M-958.555,2163.296"/> <linearGradient id="SVGID_37_" gradientUnits="userSpaceOnUse" x1="-1629.4479" y1="2247.0085" x2="-939.4998" y2="2247.0085"> <stop offset="0" style="stop-color:#E9E400"/> <stop offset="0.055" style="stop-color:#E9DE09"/> <stop offset="0.1466" style="stop-color:#E9CF23"/> <stop offset="0.2634" style="stop-color:#E9B64D"/> <stop offset="0.4009" style="stop-color:#EA9486"/> <stop offset="0.5539" style="stop-color:#EA68CF"/> <stop offset="0.6459" style="stop-color:#EA4CFE"/> <stop offset="0.9944" style="stop-color:#6C009A"/> </linearGradient> <path style="fill:url(#SVGID_37_);" d="M-958.555,2227.954h-651.838c-10.526,0-19.055,8.535-19.055,19.055 c0,10.519,8.529,19.055,19.055,19.055h651.838c10.528,0,19.055-8.537,19.055-19.055 C-939.5,2236.488-948.027,2227.954-958.555,2227.954L-958.555,2227.954z M-958.555,2227.954"/> <path d="M-1549.838,2288.456h-139.73c-10.528,0-19.055,8.535-19.055,19.055v121.859c0,10.52,8.527,19.055,19.055,19.055h139.73 c10.528,0,19.055-8.535,19.055-19.055v-121.859C-1530.783,2296.99-1539.31,2288.456-1549.838,2288.456L-1549.838,2288.456z M-1568.893,2410.314h-101.62v-83.749h101.62V2410.314z M-1568.893,2410.314"/> <path d="M-1346.788,2288.456h-137.929c-10.528,0-19.055,8.535-19.055,19.055v121.859c0,10.52,8.527,19.055,19.055,19.055h137.929 c10.52,0,19.048-8.535,19.048-19.055v-121.859C-1327.741,2296.99-1336.268,2288.456-1346.788,2288.456L-1346.788,2288.456z M-1365.843,2410.314h-99.819v-83.749h99.819V2410.314z M-1365.843,2410.314"/> <path d="M-958.555,2288.456h-323.107c-10.52,0-19.048,8.535-19.048,19.055v121.859c0,10.52,8.527,19.055,19.048,19.055h323.107 c10.528,0,19.055-8.535,19.055-19.055v-121.859C-939.5,2296.99-948.027,2288.456-958.555,2288.456L-958.555,2288.456z M-977.61,2410.314h-284.997v-83.749h284.997V2410.314z M-977.61,2410.314"/> <path d="M-1689.568,1636.729h731.021c10.52,0,19.048-8.535,19.048-19.055v-113.772c0-10.52-8.527-19.055-19.048-19.055h-731.021 c-10.528,0-19.055,8.535-19.055,19.055v113.772C-1708.623,1628.194-1700.096,1636.729-1689.568,1636.729L-1689.568,1636.729z M-1507.632,1522.957h45.044l-30.554,53.879l-12.357,21.782h-45.044L-1507.632,1522.957z M-1329.924,1522.957h45.042 l-30.552,53.879l-12.351,21.782h-45.049L-1329.924,1522.957z M-1152.215,1522.957h45.049l-30.56,53.879l-12.351,21.782h-45.049 L-1152.215,1522.957z M-977.61,1598.619h-39.802l39.802-70.193V1598.619z M-1061.219,1598.619h-45.049l30.552-53.879l12.357-21.782 h45.044L-1061.219,1598.619z M-1238.935,1598.619h-45.042l30.552-53.879l12.351-21.782h45.049L-1238.935,1598.619z M-1416.642,1598.619h-45.051l30.56-53.879l12.352-21.782h45.049L-1416.642,1598.619z M-1594.351,1598.619h-45.051l30.554-53.879 l12.357-21.782h45.043L-1594.351,1598.619z M-1640.298,1522.957l-30.215,53.283v-53.283H-1640.298z M-1640.298,1522.957"/> <g> <defs> <rect id="SVGID_38_" x="-1708.697" y="1484.847" width="769.733" height="963.578"/> </defs> <clipPath id="SVGID_39_"> <use xlink:href="#SVGID_38_" style="overflow:visible;"/> </clipPath> <path style="clip-path:url(#SVGID_39_);" d="M-1708.542,1877.183c0.023,0.301,0.058,0.61,0.096,0.911 c0.036,0.301,0.081,0.597,0.139,0.89c0.066,0.375,0.147,0.749,0.228,1.118c0.038,0.132,0.051,0.271,0.088,0.403 c0.038,0.119,0.073,0.235,0.111,0.354c0.087,0.294,0.167,0.58,0.271,0.868c0.096,0.278,0.199,0.559,0.301,0.838 c0.104,0.25,0.199,0.508,0.309,0.751c0.147,0.337,0.309,0.661,0.478,0.992c0.089,0.177,0.169,0.352,0.265,0.529 c0.567,1.03,1.22,1.993,1.955,2.881c0.051,0.068,0.111,0.134,0.162,0.192c0.316,0.375,0.64,0.736,0.984,1.08 c0.111,0.119,0.235,0.228,0.354,0.346c0.286,0.279,0.58,0.544,0.888,0.807c0.156,0.134,0.311,0.258,0.465,0.384 c0.286,0.228,0.58,0.448,0.873,0.653c0.184,0.134,0.361,0.258,0.538,0.375c0.309,0.207,0.625,0.39,0.947,0.582 c0.177,0.096,0.346,0.213,0.531,0.309c0.478,0.258,0.969,0.493,1.47,0.706c0.192,0.081,0.397,0.154,0.595,0.228 c0.339,0.134,0.677,0.265,1.022,0.375c0.214,0.073,0.435,0.134,0.647,0.192c0.367,0.103,0.736,0.198,1.103,0.286 c0.192,0.038,0.382,0.081,0.574,0.119c0.455,0.089,0.911,0.154,1.374,0.205c0.119,0.015,0.235,0.038,0.354,0.045 c0.61,0.058,1.22,0.102,1.844,0.102c0.023,0,0.053-0.007,0.081-0.007h730.866c0.028,0,0.058,0.007,0.088,0.007 c0.617,0,1.235-0.043,1.844-0.102c0.119-0.007,0.235-0.03,0.354-0.045c0.455-0.051,0.918-0.117,1.374-0.205 c0.192-0.038,0.382-0.081,0.574-0.119c0.367-0.089,0.734-0.183,1.095-0.286c0.22-0.058,0.433-0.119,0.647-0.192 c0.344-0.109,0.691-0.241,1.028-0.375c0.199-0.073,0.397-0.147,0.597-0.228c0.499-0.213,0.984-0.448,1.462-0.706 c0.184-0.096,0.361-0.213,0.536-0.309c0.316-0.192,0.632-0.375,0.941-0.582c0.184-0.117,0.361-0.241,0.538-0.375 c0.301-0.205,0.595-0.425,0.881-0.653c0.154-0.126,0.309-0.25,0.463-0.384c0.309-0.256,0.604-0.529,0.89-0.807 c0.119-0.119,0.235-0.228,0.352-0.346c0.339-0.344,0.662-0.706,0.979-1.08c0.058-0.058,0.119-0.124,0.169-0.192 c0.728-0.888,1.381-1.852,1.955-2.881c0.096-0.177,0.177-0.352,0.265-0.529c0.168-0.324,0.329-0.655,0.476-0.992 c0.111-0.243,0.207-0.501,0.31-0.751c0.102-0.279,0.205-0.559,0.301-0.838c0.094-0.288,0.183-0.574,0.271-0.868 c0.03-0.119,0.073-0.235,0.111-0.354c0.028-0.132,0.051-0.271,0.081-0.403c0.089-0.369,0.169-0.743,0.235-1.118 c0.051-0.294,0.096-0.589,0.139-0.89c0.038-0.301,0.073-0.61,0.096-0.911c0.028-0.374,0.043-0.751,0.058-1.118 c0-0.147,0.023-0.286,0.023-0.427v-193.19c0-0.147-0.023-0.279-0.023-0.425c-0.015-0.369-0.03-0.743-0.058-1.118 c-0.023-0.309-0.058-0.61-0.096-0.913c-0.043-0.301-0.088-0.595-0.139-0.888c-0.066-0.382-0.147-0.751-0.235-1.118 c-0.03-0.132-0.053-0.273-0.081-0.405c-0.03-0.104-0.073-0.198-0.104-0.301c-0.104-0.39-0.228-0.772-0.359-1.146 c-0.089-0.235-0.169-0.463-0.258-0.693c-0.132-0.337-0.279-0.668-0.433-0.999c-0.119-0.258-0.235-0.514-0.369-0.764 c-0.139-0.273-0.294-0.544-0.448-0.809c-0.169-0.286-0.339-0.566-0.516-0.845c-0.147-0.22-0.301-0.427-0.448-0.647 c-0.213-0.294-0.425-0.58-0.647-0.86c-0.154-0.19-0.316-0.375-0.47-0.559c-0.241-0.271-0.491-0.551-0.749-0.815 c-0.169-0.177-0.352-0.346-0.536-0.516c-0.258-0.248-0.516-0.491-0.787-0.719c-0.205-0.177-0.427-0.346-0.647-0.508 c-0.258-0.205-0.514-0.405-0.779-0.587c-0.25-0.177-0.506-0.331-0.764-0.493c-0.25-0.162-0.508-0.324-0.764-0.471 c-0.28-0.154-0.566-0.301-0.86-0.442c-0.258-0.132-0.516-0.256-0.779-0.374c-0.288-0.132-0.582-0.243-0.883-0.352 c-0.288-0.119-0.574-0.228-0.86-0.324c-0.28-0.088-0.551-0.162-0.832-0.243c-0.337-0.096-0.668-0.184-1.014-0.258 c-0.243-0.058-0.478-0.096-0.721-0.139c-0.395-0.073-0.792-0.139-1.189-0.184c-0.215-0.021-0.42-0.043-0.632-0.058 c-0.427-0.036-0.86-0.058-1.295-0.066c-0.096,0-0.19-0.015-0.279-0.015h-731.021c-0.096,0-0.192,0.015-0.279,0.015 c-0.442,0.008-0.875,0.03-1.302,0.066c-0.205,0.015-0.418,0.038-0.625,0.058c-0.405,0.045-0.802,0.111-1.204,0.184 c-0.235,0.036-0.47,0.081-0.7,0.132c-0.352,0.081-0.698,0.169-1.043,0.273c-0.265,0.073-0.536,0.147-0.794,0.235 c-0.309,0.096-0.602,0.213-0.905,0.331c-0.279,0.102-0.565,0.213-0.838,0.337c-0.286,0.126-0.559,0.258-0.83,0.397 c-0.273,0.139-0.544,0.273-0.809,0.42c-0.279,0.154-0.544,0.324-0.809,0.501c-0.243,0.147-0.491,0.301-0.719,0.463 c-0.288,0.198-0.559,0.403-0.832,0.617c-0.198,0.154-0.405,0.316-0.602,0.478c-0.28,0.243-0.551,0.491-0.824,0.749 c-0.169,0.162-0.337,0.316-0.499,0.485c-0.273,0.271-0.523,0.559-0.772,0.845c-0.149,0.177-0.303,0.346-0.45,0.529 c-0.228,0.288-0.448,0.582-0.661,0.883c-0.154,0.205-0.301,0.412-0.442,0.632c-0.182,0.273-0.352,0.566-0.521,0.852 c-0.147,0.266-0.301,0.529-0.44,0.794c-0.134,0.258-0.258,0.514-0.376,0.772c-0.154,0.331-0.301,0.662-0.433,0.999 c-0.089,0.222-0.169,0.457-0.25,0.685c-0.132,0.382-0.258,0.764-0.367,1.146c-0.03,0.103-0.066,0.205-0.096,0.309 c-0.038,0.132-0.051,0.265-0.088,0.405c-0.089,0.367-0.169,0.736-0.235,1.11c-0.051,0.301-0.096,0.595-0.132,0.896 c-0.045,0.303-0.073,0.604-0.103,0.913c-0.03,0.375-0.043,0.741-0.051,1.118c-0.007,0.139-0.023,0.279-0.023,0.425v193.19 c0,0.141,0.015,0.28,0.023,0.427C-1708.593,1876.432-1708.572,1876.808-1708.542,1877.183L-1708.542,1877.183z M-977.61,1850.893 l-271.881-71.847l271.881-71.852V1850.893z M-1105.226,1856.583h-437.671l218.839-57.833L-1105.226,1856.583z M-1324.058,1759.338 l-218.839-57.835h437.671L-1324.058,1759.338z M-1398.631,1779.039l-271.881,71.854v-143.707L-1398.631,1779.039z M-1398.631,1779.039"/> <linearGradient id="SVGID_40_" gradientUnits="userSpaceOnUse" x1="-977.6811" y1="2117.6846" x2="-939.4229" y2="2117.6846"> <stop offset="0" style="stop-color:#E9E400"/> <stop offset="0.055" style="stop-color:#E9DE09"/> <stop offset="0.1466" style="stop-color:#E9CF23"/> <stop offset="0.2634" style="stop-color:#E9B64D"/> <stop offset="0.4009" style="stop-color:#EA9486"/> <stop offset="0.5539" style="stop-color:#EA68CF"/> <stop offset="0.6459" style="stop-color:#EA4CFE"/> <stop offset="0.9944" style="stop-color:#6C009A"/> </linearGradient> <path style="clip-path:url(#SVGID_39_);fill:url(#SVGID_40_);" d="M-976.155,2124.98c2.992,7.432,10.138,11.938,17.681,11.938 c2.367,0,4.778-0.448,7.116-1.389c9.756-3.933,14.482-15.033,10.55-24.797l-0.141-0.344c-3.939-9.764-15.033-14.482-24.795-10.551 c-9.764,3.941-14.484,15.043-10.55,24.797L-976.155,2124.98z M-976.155,2124.98"/> <linearGradient id="SVGID_41_" gradientUnits="userSpaceOnUse" x1="-1708.6975" y1="2248.2585" x2="-1670.4408" y2="2248.2585"> <stop offset="0" style="stop-color:#E9E400"/> <stop offset="0.055" style="stop-color:#E9DE09"/> <stop offset="0.1466" style="stop-color:#E9CF23"/> <stop offset="0.2634" style="stop-color:#E9B64D"/> <stop offset="0.4009" style="stop-color:#EA9486"/> <stop offset="0.5539" style="stop-color:#EA68CF"/> <stop offset="0.6459" style="stop-color:#EA4CFE"/> <stop offset="0.9944" style="stop-color:#6C009A"/> </linearGradient> <path style="clip-path:url(#SVGID_39_);fill:url(#SVGID_41_);" d="M-1707.161,2255.587c3.007,7.411,10.138,11.902,17.666,11.902 c2.383,0,4.808-0.448,7.153-1.396c9.756-3.954,14.454-15.063,10.498-24.818l-0.139-0.346 c-3.948-9.749-15.063-14.454-24.812-10.498c-9.754,3.956-14.452,15.063-10.505,24.812L-1707.161,2255.587z M-1707.161,2255.587"/> </g> </g> <g> <path d="M-2464.524-176.91h885.251c10.008,0,18.123-8.115,18.123-18.123V-358.13c0-10.008-8.115-18.123-18.123-18.123h-885.251 c-10.008,0-18.123,8.115-18.123,18.123v163.097C-2482.646-185.025-2474.532-176.91-2464.524-176.91L-2464.524-176.91z M-2446.403-340.009h849.007v126.853h-849.007V-340.009z M-2446.403-340.009"/> <path d="M-2377.42-331.606c-29.284,0-53.105,23.83-53.105,53.114s23.821,53.105,53.105,53.105 c29.291,0,53.114-23.821,53.114-53.105S-2348.129-331.606-2377.42-331.606L-2377.42-331.606z M-2377.42-261.63 c-9.296,0-16.861-7.565-16.861-16.862c0-9.296,7.565-16.871,16.861-16.871c9.304,0,16.871,7.574,16.871,16.871 C-2360.55-269.195-2368.116-261.63-2377.42-261.63L-2377.42-261.63z M-2377.42-261.63"/> <path d="M-2264.156-331.606c-29.282,0-53.105,23.83-53.105,53.114s23.823,53.105,53.105,53.105 c29.284,0,53.114-23.821,53.114-53.105S-2234.873-331.606-2264.156-331.606L-2264.156-331.606z M-2264.156-261.63 c-9.297,0-16.862-7.565-16.862-16.862c0-9.296,7.565-16.871,16.862-16.871c9.305,0,16.87,7.574,16.87,16.871 C-2247.286-269.195-2254.851-261.63-2264.156-261.63L-2264.156-261.63z M-2264.156-261.63"/> <path d="M-2150.891-331.606c-29.284,0-53.114,23.83-53.114,53.114s23.823,53.105,53.114,53.105 c29.284,0,53.105-23.821,53.105-53.105S-2121.607-331.606-2150.891-331.606L-2150.891-331.606z M-2150.891-261.63 c-9.303,0-16.87-7.565-16.87-16.862c0-9.296,7.567-16.871,16.87-16.871c9.297,0,16.862,7.574,16.862,16.871 C-2134.03-269.195-2141.595-261.63-2150.891-261.63L-2150.891-261.63z M-2150.891-261.63"/> <path d="M-1578.331-140.005h-398.717c-10.008,0-18.123,8.115-18.123,18.123v192.5c0,10.008,8.115,18.123,18.123,18.123h398.717 c10.008,0,18.123-8.115,18.123-18.123v-192.5C-1560.208-131.891-1568.323-140.005-1578.331-140.005L-1578.331-140.005z M-1596.452,52.496h-362.475v-156.258h362.475V52.496z M-1596.452,52.496"/> <path d="M-2464.524,312.339h410.759c10.006,0,18.121-8.115,18.121-18.121v-416.101c0-10.008-8.115-18.123-18.121-18.123h-410.759 c-10.008,0-18.123,8.115-18.123,18.123v416.101C-2482.646,304.224-2474.532,312.339-2464.524,312.339L-2464.524,312.339z M-2440.611,276.095l92.2-105.945l67.237,48.138c3.998,2.865,8.994,3.976,13.829,3.09c4.836-0.886,9.1-3.71,11.823-7.805 l79.78-120.238l103.854,110.406v72.347h-368.723V276.095z M-2071.888-103.762v254.607l-93.114-98.991 c-2.845-3.02-6.608-4.947-10.635-5.517c-1.344-0.198-2.717-0.24-4.095-0.121c-5.511,0.465-10.507,3.429-13.568,8.037 l-82.039,123.637l-65.372-46.807c-7.594-5.434-18.087-4.209-24.223,2.843l-81.468,93.615v-331.305H-2071.888z M-2071.888-103.762"/> <path d="M-2328.824,78.654c44.702,0,81.073-36.37,81.073-81.074c0-44.702-36.371-81.074-81.073-81.074 c-44.704,0-81.074,36.371-81.074,81.074C-2409.898,42.284-2373.529,78.654-2328.824,78.654L-2328.824,78.654z M-2328.824-47.25 c24.717,0,44.83,20.113,44.83,44.83c0,24.724-20.114,44.83-44.83,44.83c-24.724,0-44.83-20.113-44.83-44.83 S-2353.548-47.25-2328.824-47.25L-2328.824-47.25z M-2328.824-47.25"/> <linearGradient id="SVGID_42_" gradientUnits="userSpaceOnUse" x1="-1995.1704" y1="144.548" x2="-1560.2083" y2="144.548"> <stop offset="0" style="stop-color:#E9E400"/> <stop offset="0.055" style="stop-color:#E9DE09"/> <stop offset="0.1466" style="stop-color:#E9CF23"/> <stop offset="0.2634" style="stop-color:#E9B64D"/> <stop offset="0.4009" style="stop-color:#EA9486"/> <stop offset="0.5539" style="stop-color:#EA68CF"/> <stop offset="0.6459" style="stop-color:#EA4CFE"/> <stop offset="0.9944" style="stop-color:#6C009A"/> </linearGradient> <path style="fill:url(#SVGID_42_);" d="M-1578.331,126.426h-398.717c-10.008,0-18.123,8.115-18.123,18.121 c0,10.008,8.115,18.123,18.123,18.123h398.717c10.008,0,18.123-8.115,18.123-18.123 C-1560.208,134.541-1568.323,126.426-1578.331,126.426L-1578.331,126.426z M-1578.331,126.426"/> <linearGradient id="SVGID_43_" gradientUnits="userSpaceOnUse" x1="-1995.1704" y1="218.9772" x2="-1717.3723" y2="218.9772"> <stop offset="0" style="stop-color:#E9E400"/> <stop offset="0.055" style="stop-color:#E9DE09"/> <stop offset="0.1466" style="stop-color:#E9CF23"/> <stop offset="0.2634" style="stop-color:#E9B64D"/> <stop offset="0.4009" style="stop-color:#EA9486"/> <stop offset="0.5539" style="stop-color:#EA68CF"/> <stop offset="0.6459" style="stop-color:#EA4CFE"/> <stop offset="0.9944" style="stop-color:#6C009A"/> </linearGradient> <path style="fill:url(#SVGID_43_);" d="M-1717.372,218.978c0-10.008-8.115-18.123-18.123-18.123h-241.553 c-10.008,0-18.123,8.115-18.123,18.123c0,10.008,8.115,18.121,18.123,18.121h241.553 C-1725.487,237.099-1717.372,228.986-1717.372,218.978L-1717.372,218.978z M-1717.372,218.978"/> <linearGradient id="SVGID_44_" gradientUnits="userSpaceOnUse" x1="-1995.1704" y1="293.4083" x2="-1808.5172" y2="293.4083"> <stop offset="0" style="stop-color:#E9E400"/> <stop offset="0.055" style="stop-color:#E9DE09"/> <stop offset="0.1466" style="stop-color:#E9CF23"/> <stop offset="0.2634" style="stop-color:#E9B64D"/> <stop offset="0.4009" style="stop-color:#EA9486"/> <stop offset="0.5539" style="stop-color:#EA68CF"/> <stop offset="0.6459" style="stop-color:#EA4CFE"/> <stop offset="0.9944" style="stop-color:#6C009A"/> </linearGradient> <path style="fill:url(#SVGID_44_);" d="M-1977.048,275.286c-10.008,0-18.123,8.115-18.123,18.121 c0,10.001,8.115,18.123,18.123,18.123h150.408c10.008,0,18.123-8.122,18.123-18.123c0-10.006-8.115-18.121-18.123-18.121H-1977.048 z M-1977.048,275.286"/> <path d="M-1578.331,347.88h-886.193c-10.008,0-18.123,8.115-18.123,18.121V526.93c0,10.008,8.115,18.123,18.123,18.123h886.193 c10.008,0,18.123-8.115,18.123-18.123V366.001C-1560.208,355.994-1568.323,347.88-1578.331,347.88L-1578.331,347.88z M-1596.452,508.809h-849.951V384.123h849.951V508.809z M-1596.452,508.809"/> <linearGradient id="SVGID_45_" gradientUnits="userSpaceOnUse" x1="-2430.0964" y1="446.47" x2="-2310.491" y2="446.47"> <stop offset="0" style="stop-color:#E9E400"/> <stop offset="0.055" style="stop-color:#E9DE09"/> <stop offset="0.1466" style="stop-color:#E9CF23"/> <stop offset="0.2634" style="stop-color:#E9B64D"/> <stop offset="0.4009" style="stop-color:#EA9486"/> <stop offset="0.5539" style="stop-color:#EA68CF"/> <stop offset="0.6459" style="stop-color:#EA4CFE"/> <stop offset="0.9944" style="stop-color:#6C009A"/> </linearGradient> <path style="fill:url(#SVGID_45_);" d="M-2411.974,464.592h83.36c10.008,0,18.123-8.115,18.123-18.123 c0-10.006-8.115-18.121-18.123-18.121h-83.36c-10.001,0-18.123,8.115-18.123,18.121 C-2430.096,456.477-2421.975,464.592-2411.974,464.592L-2411.974,464.592z M-2411.974,464.592"/> <linearGradient id="SVGID_46_" gradientUnits="userSpaceOnUse" x1="-2256.5554" y1="446.47" x2="-2136.9502" y2="446.47"> <stop offset="0" style="stop-color:#E9E400"/> <stop offset="0.055" style="stop-color:#E9DE09"/> <stop offset="0.1466" style="stop-color:#E9CF23"/> <stop offset="0.2634" style="stop-color:#E9B64D"/> <stop offset="0.4009" style="stop-color:#EA9486"/> <stop offset="0.5539" style="stop-color:#EA68CF"/> <stop offset="0.6459" style="stop-color:#EA4CFE"/> <stop offset="0.9944" style="stop-color:#6C009A"/> </linearGradient> <path style="fill:url(#SVGID_46_);" d="M-2238.433,464.592h83.36c10.008,0,18.123-8.115,18.123-18.123 c0-10.006-8.115-18.121-18.123-18.121h-83.36c-10.008,0-18.123,8.115-18.123,18.121 C-2256.555,456.477-2248.441,464.592-2238.433,464.592L-2238.433,464.592z M-2238.433,464.592"/> <linearGradient id="SVGID_47_" gradientUnits="userSpaceOnUse" x1="-2083.0146" y1="446.47" x2="-1963.4165" y2="446.47"> <stop offset="0" style="stop-color:#E9E400"/> <stop offset="0.055" style="stop-color:#E9DE09"/> <stop offset="0.1466" style="stop-color:#E9CF23"/> <stop offset="0.2634" style="stop-color:#E9B64D"/> <stop offset="0.4009" style="stop-color:#EA9486"/> <stop offset="0.5539" style="stop-color:#EA68CF"/> <stop offset="0.6459" style="stop-color:#EA4CFE"/> <stop offset="0.9944" style="stop-color:#6C009A"/> </linearGradient> <path style="fill:url(#SVGID_47_);" d="M-2064.892,464.592h83.354c10.006,0,18.121-8.115,18.121-18.123 c0-10.006-8.115-18.121-18.121-18.121h-83.354c-10.008,0-18.123,8.115-18.123,18.121 C-2083.015,456.477-2074.9,464.592-2064.892,464.592L-2064.892,464.592z M-2064.892,464.592"/> <linearGradient id="SVGID_48_" gradientUnits="userSpaceOnUse" x1="-1909.479" y1="446.47" x2="-1789.8755" y2="446.47"> <stop offset="0" style="stop-color:#E9E400"/> <stop offset="0.055" style="stop-color:#E9DE09"/> <stop offset="0.1466" style="stop-color:#E9CF23"/> <stop offset="0.2634" style="stop-color:#E9B64D"/> <stop offset="0.4009" style="stop-color:#EA9486"/> <stop offset="0.5539" style="stop-color:#EA68CF"/> <stop offset="0.6459" style="stop-color:#EA4CFE"/> <stop offset="0.9944" style="stop-color:#6C009A"/> </linearGradient> <path style="fill:url(#SVGID_48_);" d="M-1891.358,464.592h83.362c10.008,0,18.121-8.115,18.121-18.123 c0-10.006-8.113-18.121-18.121-18.121h-83.362c-10.006,0-18.121,8.115-18.121,18.121 C-1909.479,456.477-1901.365,464.592-1891.358,464.592L-1891.358,464.592z M-1891.358,464.592"/> <linearGradient id="SVGID_49_" gradientUnits="userSpaceOnUse" x1="-1735.9381" y1="446.47" x2="-1616.3329" y2="446.47"> <stop offset="0" style="stop-color:#E9E400"/> <stop offset="0.055" style="stop-color:#E9DE09"/> <stop offset="0.1466" style="stop-color:#E9CF23"/> <stop offset="0.2634" style="stop-color:#E9B64D"/> <stop offset="0.4009" style="stop-color:#EA9486"/> <stop offset="0.5539" style="stop-color:#EA68CF"/> <stop offset="0.6459" style="stop-color:#EA4CFE"/> <stop offset="0.9944" style="stop-color:#6C009A"/> </linearGradient> <path style="fill:url(#SVGID_49_);" d="M-1717.816,464.592h83.36c10.001,0,18.123-8.115,18.123-18.123 c0-10.006-8.122-18.121-18.123-18.121h-83.36c-10.008,0-18.123,8.115-18.123,18.121 C-1735.938,456.477-1727.831,464.592-1717.816,464.592L-1717.816,464.592z M-1717.816,464.592"/> <linearGradient id="SVGID_50_" gradientUnits="userSpaceOnUse" x1="-1671.7185" y1="218.9795" x2="-1634.6735" y2="218.9795"> <stop offset="0" style="stop-color:#E9E400"/> <stop offset="0.055" style="stop-color:#E9DE09"/> <stop offset="0.1466" style="stop-color:#E9CF23"/> <stop offset="0.2634" style="stop-color:#E9B64D"/> <stop offset="0.4009" style="stop-color:#EA9486"/> <stop offset="0.5539" style="stop-color:#EA68CF"/> <stop offset="0.6459" style="stop-color:#EA4CFE"/> <stop offset="0.9944" style="stop-color:#6C009A"/> </linearGradient> <path style="fill:url(#SVGID_50_);" d="M-1653.612,237.198c1.373,0,2.766-0.162,4.167-0.485l0.795-0.191 c9.74-2.293,15.786-12.04,13.491-21.789c-2.286-9.74-12.04-15.772-21.78-13.491l-0.803,0.191 c-9.74,2.286-15.779,12.04-13.491,21.78C-1669.27,231.568-1661.831,237.198-1653.612,237.198L-1653.612,237.198z M-1653.612,237.198"/> <linearGradient id="SVGID_51_" gradientUnits="userSpaceOnUse" x1="-1837.1028" y1="-278.4916" x2="-1800.0533" y2="-278.4916"> <stop offset="0" style="stop-color:#E9E400"/> <stop offset="0.055" style="stop-color:#E9DE09"/> <stop offset="0.1466" style="stop-color:#E9CF23"/> <stop offset="0.2634" style="stop-color:#E9B64D"/> <stop offset="0.4009" style="stop-color:#EA9486"/> <stop offset="0.5539" style="stop-color:#EA68CF"/> <stop offset="0.6459" style="stop-color:#EA4CFE"/> <stop offset="0.9944" style="stop-color:#6C009A"/> </linearGradient> <path style="fill:url(#SVGID_51_);" d="M-1822.325-296.227l-0.796,0.189c-9.747,2.288-15.784,12.042-13.498,21.789 c1.964,8.347,9.403,13.977,17.629,13.977c1.373,0,2.766-0.162,4.16-0.486l0.802-0.189c9.74-2.288,15.779-12.042,13.491-21.789 C-1802.824-292.476-1812.578-298.515-1822.325-296.227L-1822.325-296.227z M-1822.325-296.227"/> <linearGradient id="SVGID_52_" gradientUnits="userSpaceOnUse" x1="-2071.8877" y1="-276.5847" x2="-1882.813" y2="-276.5847"> <stop offset="0" style="stop-color:#E9E400"/> <stop offset="0.055" style="stop-color:#E9DE09"/> <stop offset="0.1466" style="stop-color:#E9CF23"/> <stop offset="0.2634" style="stop-color:#E9B64D"/> <stop offset="0.4009" style="stop-color:#EA9486"/> <stop offset="0.5539" style="stop-color:#EA68CF"/> <stop offset="0.6459" style="stop-color:#EA4CFE"/> <stop offset="0.9944" style="stop-color:#6C009A"/> </linearGradient> <path style="fill:url(#SVGID_52_);" d="M-1900.936-294.706h-152.829c-10.008,0-18.123,8.115-18.123,18.121 c0,10.015,8.115,18.123,18.123,18.123h152.829c10.008,0,18.123-8.107,18.123-18.123 C-1882.813-286.592-1890.928-294.706-1900.936-294.706L-1900.936-294.706z M-1900.936-294.706"/> </g> <g> <linearGradient id="SVGID_53_" gradientUnits="userSpaceOnUse" x1="2482.4194" y1="1601.8358" x2="2786.4194" y2="1601.8358"> <stop offset="0" style="stop-color:#E9E400"/> <stop offset="0.055" style="stop-color:#E9DE09"/> <stop offset="0.1466" style="stop-color:#E9CF23"/> <stop offset="0.2634" style="stop-color:#E9B64D"/> <stop offset="0.4009" style="stop-color:#EA9486"/> <stop offset="0.5539" style="stop-color:#EA68CF"/> <stop offset="0.6459" style="stop-color:#EA4CFE"/> <stop offset="0.9944" style="stop-color:#6C009A"/> </linearGradient> <rect x="2482.419" y="1586.636" style="fill:url(#SVGID_53_);" width="304" height="30.4"/> <linearGradient id="SVGID_54_" gradientUnits="userSpaceOnUse" x1="2376.0195" y1="2118.6357" x2="2930.8193" y2="2118.6357"> <stop offset="0" style="stop-color:#E9E400"/> <stop offset="0.055" style="stop-color:#E9DE09"/> <stop offset="0.1466" style="stop-color:#E9CF23"/> <stop offset="0.2634" style="stop-color:#E9B64D"/> <stop offset="0.4009" style="stop-color:#EA9486"/> <stop offset="0.5539" style="stop-color:#EA68CF"/> <stop offset="0.6459" style="stop-color:#EA4CFE"/> <stop offset="0.9944" style="stop-color:#6C009A"/> </linearGradient> <path style="fill:url(#SVGID_54_);" d="M2930.819,2080.636c0-29.331-23.869-53.2-53.2-53.2h-30.4v-212.8h-30.4v212.8h-38 c-29.331,0-53.2,23.869-53.2,53.2c0,14.892,6.19,28.333,16.086,38c-9.896,9.667-16.086,23.108-16.086,38 c0,10.247,3.051,19.74,8.092,27.869c-18.182,8.469-30.892,26.79-30.892,48.131c0,8.19,2.015,15.863,5.336,22.8h-119.336 c0-46.476-23.29-87.608-58.811-112.337c34.348-13.092,58.811-46.372,58.811-85.263c0-8.394-6.798-15.2-15.2-15.2h-121.6v-152h-30.4 v152c-25.145,0-45.6,20.455-45.6,45.6v334.4h30.4v-334.4c0-8.379,6.813-15.2,15.2-15.2h134.87 c-6.754,26.192-30.593,45.6-58.87,45.6h-45.6c-8.402,0-15.2,6.806-15.2,15.2c0,8.394,6.799,15.2,15.2,15.2 c58.662,0,106.4,47.73,106.4,106.4v15.2c0,8.394,6.798,15.2,15.2,15.2h88.936c-3.321,6.938-5.336,14.61-5.336,22.8 c0,29.331,23.869,53.2,53.2,53.2v60.8h30.4v-60.8h60.8h7.6c29.331,0,53.2-23.869,53.2-53.2c0-8.278-2.065-16.023-5.454-23.017 c28.318-1.154,51.054-24.386,51.054-52.983c0-10.247-3.051-19.74-8.092-27.869c18.182-8.468,30.892-26.79,30.892-48.131 c0-14.892-6.19-28.333-16.086-38C2924.63,2108.969,2930.819,2095.528,2930.819,2080.636z M2809.219,2331.436h-7.6h-76h-15.2 c-12.573,0-22.8-10.227-22.8-22.8c0-12.573,10.227-22.8,22.8-22.8h45.6h53.2c12.573,0,22.8,10.228,22.8,22.8 C2832.02,2321.208,2821.792,2331.436,2809.219,2331.436z M2854.819,2255.436h-45.6h-53.2c-12.573,0-22.8-10.227-22.8-22.8 c0-12.573,10.227-22.8,22.8-22.8h22.8h76c12.573,0,22.8,10.228,22.8,22.8C2877.619,2245.208,2867.392,2255.436,2854.819,2255.436z M2900.419,2156.636c0,12.573-10.227,22.8-22.8,22.8h-22.8h-76c-12.573,0-22.8-10.227-22.8-22.8c0-12.573,10.227-22.8,22.8-22.8 h98.8C2890.192,2133.836,2900.419,2144.063,2900.419,2156.636z M2778.819,2103.436c-12.573,0-22.8-10.227-22.8-22.8 c0-12.573,10.227-22.8,22.8-22.8h98.8c12.573,0,22.8,10.228,22.8,22.8c0,12.573-10.227,22.8-22.8,22.8H2778.819z"/> <linearGradient id="SVGID_55_" gradientUnits="userSpaceOnUse" x1="2239.2183" y1="1715.8358" x2="2406.4136" y2="1715.8358"> <stop offset="0" style="stop-color:#E9E400"/> <stop offset="0.055" style="stop-color:#E9DE09"/> <stop offset="0.1466" style="stop-color:#E9CF23"/> <stop offset="0.2634" style="stop-color:#E9B64D"/> <stop offset="0.4009" style="stop-color:#EA9486"/> <stop offset="0.5539" style="stop-color:#EA68CF"/> <stop offset="0.6459" style="stop-color:#EA4CFE"/> <stop offset="0.9944" style="stop-color:#6C009A"/> </linearGradient> <path style="fill:url(#SVGID_55_);" d="M2384.584,1681.087c-3.785-19.163-20.603-33.651-40.716-33.651 c-22.696,0-41.206,18.451-41.503,41.243c-12.142-2.123-23.75-6.784-34.141-13.782l-5.299-3.577 c-4.646-3.139-10.673-3.481-15.645-0.824c-4.958,2.635-8.06,7.8-8.06,13.419v12.469c0,18.317,5.522,35.788,15.764,50.461 l-11.37,11.504c-4.32,4.357-5.581,10.88-3.221,16.543c2.36,5.656,7.897,9.344,14.027,9.344h73.655 c29.376,0,53.66-22.392,56.926-51.129l17.026-17.226c3.073-3.11,4.661-7.4,4.349-11.771c-0.312-4.364-2.479-8.387-5.967-11.029 L2384.584,1681.087z M2359.365,1715.791c-2.82,2.843-4.394,6.687-4.394,10.688c0,15.081-12.068,27.357-26.897,27.357h-38.668 c2.405-5.537,1.365-12.216-3.132-16.766c-7.095-7.184-12.172-16.224-14.74-25.969c14.502,6.116,30.088,9.292,46.031,9.292 c8.402,0,15.2-6.806,15.2-15.2v-15.957c0-6.286,4.988-11.4,11.103-11.4c6.115,0,11.103,5.114,11.103,11.4 c0,4.757,2.227,9.24,6.012,12.112l7.244,5.485L2359.365,1715.791z"/> <linearGradient id="SVGID_56_" gradientUnits="userSpaceOnUse" x1="2588.8193" y1="1814.6357" x2="2680.0195" y2="1814.6357"> <stop offset="0" style="stop-color:#E9E400"/> <stop offset="0.055" style="stop-color:#E9DE09"/> <stop offset="0.1466" style="stop-color:#E9CF23"/> <stop offset="0.2634" style="stop-color:#E9B64D"/> <stop offset="0.4009" style="stop-color:#EA9486"/> <stop offset="0.5539" style="stop-color:#EA68CF"/> <stop offset="0.6459" style="stop-color:#EA4CFE"/> <stop offset="0.9944" style="stop-color:#6C009A"/> </linearGradient> <path style="fill:url(#SVGID_56_);" d="M2619.219,1753.836v45.6h-30.4v30.4h30.4v60.8h30.4v-60.8h30.4v-30.4h-30.4v-30.4h30.4 v-30.4h-45.6C2626.018,1738.636,2619.219,1745.442,2619.219,1753.836z"/> <linearGradient id="SVGID_57_" gradientUnits="userSpaceOnUse" x1="2497.6194" y1="1814.6357" x2="2771.2195" y2="1814.6357"> <stop offset="0" style="stop-color:#E9E400"/> <stop offset="0.055" style="stop-color:#E9DE09"/> <stop offset="0.1466" style="stop-color:#E9CF23"/> <stop offset="0.2634" style="stop-color:#E9B64D"/> <stop offset="0.4009" style="stop-color:#EA9486"/> <stop offset="0.5539" style="stop-color:#EA68CF"/> <stop offset="0.6459" style="stop-color:#EA4CFE"/> <stop offset="0.9944" style="stop-color:#6C009A"/> </linearGradient> <path style="fill:url(#SVGID_57_);" d="M2771.219,1905.836v-182.4c0-25.145-20.455-45.6-45.6-45.6h-182.4 c-25.145,0-45.6,20.455-45.6,45.6v182.4c0,25.145,20.455,45.6,45.6,45.6h182.4 C2750.765,1951.436,2771.219,1930.981,2771.219,1905.836z M2528.02,1905.836v-182.4c0-8.379,6.813-15.2,15.2-15.2h182.4 c8.387,0,15.2,6.821,15.2,15.2v182.4c0,8.379-6.813,15.2-15.2,15.2h-182.4C2534.833,1921.036,2528.02,1914.215,2528.02,1905.836z"/> <linearGradient id="SVGID_58_" gradientUnits="userSpaceOnUse" x1="2178.4194" y1="1723.4358" x2="2452.0195" y2="1723.4358"> <stop offset="0" style="stop-color:#E9E400"/> <stop offset="0.055" style="stop-color:#E9DE09"/> <stop offset="0.1466" style="stop-color:#E9CF23"/> <stop offset="0.2634" style="stop-color:#E9B64D"/> <stop offset="0.4009" style="stop-color:#EA9486"/> <stop offset="0.5539" style="stop-color:#EA68CF"/> <stop offset="0.6459" style="stop-color:#EA4CFE"/> <stop offset="0.9944" style="stop-color:#6C009A"/> </linearGradient> <path style="fill:url(#SVGID_58_);" d="M2452.02,1814.636v-182.4c0-25.145-20.455-45.6-45.6-45.6h-182.4 c-25.146,0-45.6,20.455-45.6,45.6v182.4c0,25.145,20.455,45.6,45.6,45.6h182.4 C2431.565,1860.236,2452.02,1839.781,2452.02,1814.636z M2208.819,1814.636v-182.4c0-8.379,6.813-15.2,15.2-15.2h182.4 c8.387,0,15.2,6.821,15.2,15.2v182.4c0,8.379-6.813,15.2-15.2,15.2h-182.4C2215.633,1829.836,2208.819,1823.015,2208.819,1814.636z "/> <linearGradient id="SVGID_59_" gradientUnits="userSpaceOnUse" x1="2816.8193" y1="1647.4358" x2="3090.4194" y2="1647.4358"> <stop offset="0" style="stop-color:#E9E400"/> <stop offset="0.055" style="stop-color:#E9DE09"/> <stop offset="0.1466" style="stop-color:#E9CF23"/> <stop offset="0.2634" style="stop-color:#E9B64D"/> <stop offset="0.4009" style="stop-color:#EA9486"/> <stop offset="0.5539" style="stop-color:#EA68CF"/> <stop offset="0.6459" style="stop-color:#EA4CFE"/> <stop offset="0.9944" style="stop-color:#6C009A"/> </linearGradient> <path style="fill:url(#SVGID_59_);" d="M3044.819,1510.636h-182.4c-25.145,0-45.6,20.455-45.6,45.6v182.4 c0,25.145,20.455,45.6,45.6,45.6h182.4c25.146,0,45.6-20.455,45.6-45.6v-182.4 C3090.419,1531.09,3069.965,1510.636,3044.819,1510.636z M2862.419,1541.036h182.4c8.387,0,15.2,6.821,15.2,15.2v76h-31.937 c-7.063-34.645-37.764-60.8-74.464-60.8c-36.699,0-67.401,26.155-74.464,60.8h-31.936v-76 C2847.219,1547.856,2854.033,1541.036,2862.419,1541.036z M2999.219,1647.436c0,25.145-20.455,45.6-45.6,45.6 s-45.6-20.455-45.6-45.6s20.455-45.6,45.6-45.6S2999.219,1622.291,2999.219,1647.436z M3044.819,1753.836h-182.4 c-8.387,0-15.2-6.821-15.2-15.2v-76h31.936c7.063,34.645,37.764,60.8,74.464,60.8c36.699,0,67.401-26.155,74.464-60.8h31.937v76 C3060.02,1747.015,3053.206,1753.836,3044.819,1753.836z"/> <linearGradient id="SVGID_60_" gradientUnits="userSpaceOnUse" x1="2619.2195" y1="2149.0359" x2="2649.6194" y2="2149.0359"> <stop offset="0" style="stop-color:#E9E400"/> <stop offset="0.055" style="stop-color:#E9DE09"/> <stop offset="0.1466" style="stop-color:#E9CF23"/> <stop offset="0.2634" style="stop-color:#E9B64D"/> <stop offset="0.4009" style="stop-color:#EA9486"/> <stop offset="0.5539" style="stop-color:#EA68CF"/> <stop offset="0.6459" style="stop-color:#EA4CFE"/> <stop offset="0.9944" style="stop-color:#6C009A"/> </linearGradient> <rect x="2619.219" y="2133.836" style="fill:url(#SVGID_60_);" width="30.4" height="30.4"/> </g> <g> <linearGradient id="SVGID_61_" gradientUnits="userSpaceOnUse" x1="430.1425" y1="498.1397" x2="584.4281" y2="498.1397"> <stop offset="0" style="stop-color:#E9E400"/> <stop offset="0.055" style="stop-color:#E9DE09"/> <stop offset="0.1466" style="stop-color:#E9CF23"/> <stop offset="0.2634" style="stop-color:#E9B64D"/> <stop offset="0.4009" style="stop-color:#EA9486"/> <stop offset="0.5539" style="stop-color:#EA68CF"/> <stop offset="0.6459" style="stop-color:#EA4CFE"/> <stop offset="0.9944" style="stop-color:#6C009A"/> </linearGradient> <path style="fill:url(#SVGID_61_);" d="M438.09,588.786c2.335,1.281,4.904,1.929,7.481,1.929c2.84,0,5.68-0.784,8.174-2.35 l123.428-77.143c4.513-2.818,7.255-7.759,7.255-13.078s-2.742-10.261-7.255-13.078l-123.428-77.143 c-4.769-2.998-10.75-3.134-15.655-0.422c-4.904,2.727-7.948,7.895-7.948,13.5v154.286 C430.143,580.891,433.186,586.059,438.09,588.786z M461,448.844l78.891,49.299L461,547.442V448.844z"/> <linearGradient id="SVGID_62_" gradientUnits="userSpaceOnUse" x1="75.2857" y1="143.2864" x2="167.857" y2="143.2864"> <stop offset="0" style="stop-color:#E9E400"/> <stop offset="0.055" style="stop-color:#E9DE09"/> <stop offset="0.1466" style="stop-color:#E9CF23"/> <stop offset="0.2634" style="stop-color:#E9B64D"/> <stop offset="0.4009" style="stop-color:#EA9486"/> <stop offset="0.5539" style="stop-color:#EA68CF"/> <stop offset="0.6459" style="stop-color:#EA4CFE"/> <stop offset="0.9944" style="stop-color:#6C009A"/> </linearGradient> <path style="fill:url(#SVGID_62_);" d="M90.714,189.572h61.714c8.52,0,15.429-6.901,15.429-15.429v-61.714 c0-8.528-6.908-15.429-15.429-15.429H90.714c-8.52,0-15.429,6.901-15.429,15.429v61.714 C75.286,182.671,82.194,189.572,90.714,189.572z M106.143,127.858H137v30.857h-30.857V127.858z"/> <linearGradient id="SVGID_63_" gradientUnits="userSpaceOnUse" x1="198.7141" y1="143.2864" x2="291.2855" y2="143.2864"> <stop offset="0" style="stop-color:#E9E400"/> <stop offset="0.055" style="stop-color:#E9DE09"/> <stop offset="0.1466" style="stop-color:#E9CF23"/> <stop offset="0.2634" style="stop-color:#E9B64D"/> <stop offset="0.4009" style="stop-color:#EA9486"/> <stop offset="0.5539" style="stop-color:#EA68CF"/> <stop offset="0.6459" style="stop-color:#EA4CFE"/> <stop offset="0.9944" style="stop-color:#6C009A"/> </linearGradient> <path style="fill:url(#SVGID_63_);" d="M275.857,97.001h-61.714c-8.52,0-15.429,6.901-15.429,15.429v61.714 c0,8.528,6.908,15.429,15.429,15.429h61.714c8.52,0,15.429-6.901,15.429-15.429v-61.714 C291.285,103.901,284.377,97.001,275.857,97.001z M260.428,158.715h-30.857v-30.857h30.857V158.715z"/> <linearGradient id="SVGID_64_" gradientUnits="userSpaceOnUse" x1="322.1426" y1="143.2864" x2="414.714" y2="143.2864"> <stop offset="0" style="stop-color:#E9E400"/> <stop offset="0.055" style="stop-color:#E9DE09"/> <stop offset="0.1466" style="stop-color:#E9CF23"/> <stop offset="0.2634" style="stop-color:#E9B64D"/> <stop offset="0.4009" style="stop-color:#EA9486"/> <stop offset="0.5539" style="stop-color:#EA68CF"/> <stop offset="0.6459" style="stop-color:#EA4CFE"/> <stop offset="0.9944" style="stop-color:#6C009A"/> </linearGradient> <path style="fill:url(#SVGID_64_);" d="M399.285,189.572c8.52,0,15.429-6.901,15.429-15.429v-61.714 c0-8.528-6.908-15.429-15.429-15.429h-61.714c-8.52,0-15.429,6.901-15.429,15.429v61.714c0,8.528,6.908,15.429,15.429,15.429 H399.285z M353,127.858h30.857v30.857H353V127.858z"/> <linearGradient id="SVGID_65_" gradientUnits="userSpaceOnUse" x1="445.5711" y1="143.2864" x2="538.1425" y2="143.2864"> <stop offset="0" style="stop-color:#E9E400"/> <stop offset="0.055" style="stop-color:#E9DE09"/> <stop offset="0.1466" style="stop-color:#E9CF23"/> <stop offset="0.2634" style="stop-color:#E9B64D"/> <stop offset="0.4009" style="stop-color:#EA9486"/> <stop offset="0.5539" style="stop-color:#EA68CF"/> <stop offset="0.6459" style="stop-color:#EA4CFE"/> <stop offset="0.9944" style="stop-color:#6C009A"/> </linearGradient> <path style="fill:url(#SVGID_65_);" d="M522.714,189.572c8.52,0,15.429-6.901,15.429-15.429v-61.714 c0-8.528-6.908-15.429-15.429-15.429H461c-8.52,0-15.429,6.901-15.429,15.429v61.714c0,8.528,6.908,15.429,15.429,15.429H522.714z M476.428,127.858h30.857v30.857h-30.857V127.858z"/> <linearGradient id="SVGID_66_" gradientUnits="userSpaceOnUse" x1="568.9995" y1="143.2864" x2="661.5709" y2="143.2864"> <stop offset="0" style="stop-color:#E9E400"/> <stop offset="0.055" style="stop-color:#E9DE09"/> <stop offset="0.1466" style="stop-color:#E9CF23"/> <stop offset="0.2634" style="stop-color:#E9B64D"/> <stop offset="0.4009" style="stop-color:#EA9486"/> <stop offset="0.5539" style="stop-color:#EA68CF"/> <stop offset="0.6459" style="stop-color:#EA4CFE"/> <stop offset="0.9944" style="stop-color:#6C009A"/> </linearGradient> <path style="fill:url(#SVGID_66_);" d="M646.142,189.572c8.52,0,15.429-6.901,15.429-15.429v-61.714 c0-8.528-6.908-15.429-15.429-15.429h-61.714c-8.52,0-15.429,6.901-15.429,15.429v61.714c0,8.528,6.908,15.429,15.429,15.429 H646.142z M599.857,127.858h30.857v30.857h-30.857V127.858z"/> <linearGradient id="SVGID_67_" gradientUnits="userSpaceOnUse" x1="692.428" y1="143.2864" x2="784.9994" y2="143.2864"> <stop offset="0" style="stop-color:#E9E400"/> <stop offset="0.055" style="stop-color:#E9DE09"/> <stop offset="0.1466" style="stop-color:#E9CF23"/> <stop offset="0.2634" style="stop-color:#E9B64D"/> <stop offset="0.4009" style="stop-color:#EA9486"/> <stop offset="0.5539" style="stop-color:#EA68CF"/> <stop offset="0.6459" style="stop-color:#EA4CFE"/> <stop offset="0.9944" style="stop-color:#6C009A"/> </linearGradient> <path style="fill:url(#SVGID_67_);" d="M769.571,189.572c8.52,0,15.429-6.901,15.429-15.429v-61.714 c0-8.528-6.908-15.429-15.429-15.429h-61.714c-8.52,0-15.429,6.901-15.429,15.429v61.714c0,8.528,6.908,15.429,15.429,15.429 H769.571z M723.285,127.858h30.857v30.857h-30.857V127.858z"/> <linearGradient id="SVGID_68_" gradientUnits="userSpaceOnUse" x1="815.8564" y1="143.2864" x2="908.4279" y2="143.2864"> <stop offset="0" style="stop-color:#E9E400"/> <stop offset="0.055" style="stop-color:#E9DE09"/> <stop offset="0.1466" style="stop-color:#E9CF23"/> <stop offset="0.2634" style="stop-color:#E9B64D"/> <stop offset="0.4009" style="stop-color:#EA9486"/> <stop offset="0.5539" style="stop-color:#EA68CF"/> <stop offset="0.6459" style="stop-color:#EA4CFE"/> <stop offset="0.9944" style="stop-color:#6C009A"/> </linearGradient> <path style="fill:url(#SVGID_68_);" d="M908.428,112.429c0-8.528-6.908-15.429-15.429-15.429h-61.714 c-8.52,0-15.429,6.901-15.429,15.429v61.714c0,8.528,6.908,15.429,15.429,15.429h61.714c8.52,0,15.429-6.901,15.429-15.429V112.429 z M877.571,158.715h-30.857v-30.857h30.857V158.715z"/> <linearGradient id="SVGID_69_" gradientUnits="userSpaceOnUse" x1="29" y1="50.7151" x2="954.7135" y2="50.7151"> <stop offset="0" style="stop-color:#E9E400"/> <stop offset="0.055" style="stop-color:#E9DE09"/> <stop offset="0.1466" style="stop-color:#E9CF23"/> <stop offset="0.2634" style="stop-color:#E9B64D"/> <stop offset="0.4009" style="stop-color:#EA9486"/> <stop offset="0.5539" style="stop-color:#EA68CF"/> <stop offset="0.6459" style="stop-color:#EA4CFE"/> <stop offset="0.9944" style="stop-color:#6C009A"/> </linearGradient> <rect x="29" y="35.286" style="fill:url(#SVGID_69_);" width="925.714" height="30.857"/> <linearGradient id="SVGID_70_" gradientUnits="userSpaceOnUse" x1="75.2857" y1="853.0001" x2="167.857" y2="853.0001"> <stop offset="0" style="stop-color:#E9E400"/> <stop offset="0.055" style="stop-color:#E9DE09"/> <stop offset="0.1466" style="stop-color:#E9CF23"/> <stop offset="0.2634" style="stop-color:#E9B64D"/> <stop offset="0.4009" style="stop-color:#EA9486"/> <stop offset="0.5539" style="stop-color:#EA68CF"/> <stop offset="0.6459" style="stop-color:#EA4CFE"/> <stop offset="0.9944" style="stop-color:#6C009A"/> </linearGradient> <path style="fill:url(#SVGID_70_);" d="M75.286,883.857c0,8.528,6.908,15.429,15.429,15.429h61.714 c8.52,0,15.429-6.901,15.429-15.429v-61.714c0-8.528-6.908-15.429-15.429-15.429H90.714c-8.52,0-15.429,6.901-15.429,15.429 V883.857z M106.143,837.572H137v30.857h-30.857V837.572z"/> <linearGradient id="SVGID_71_" gradientUnits="userSpaceOnUse" x1="198.7141" y1="853.0001" x2="291.2855" y2="853.0001"> <stop offset="0" style="stop-color:#E9E400"/> <stop offset="0.055" style="stop-color:#E9DE09"/> <stop offset="0.1466" style="stop-color:#E9CF23"/> <stop offset="0.2634" style="stop-color:#E9B64D"/> <stop offset="0.4009" style="stop-color:#EA9486"/> <stop offset="0.5539" style="stop-color:#EA68CF"/> <stop offset="0.6459" style="stop-color:#EA4CFE"/> <stop offset="0.9944" style="stop-color:#6C009A"/> </linearGradient> <path style="fill:url(#SVGID_71_);" d="M198.714,883.857c0,8.528,6.908,15.429,15.429,15.429h61.714 c8.52,0,15.429-6.901,15.429-15.429v-61.714c0-8.528-6.908-15.429-15.429-15.429h-61.714c-8.52,0-15.429,6.901-15.429,15.429 V883.857z M229.571,837.572h30.857v30.857h-30.857V837.572z"/> <linearGradient id="SVGID_72_" gradientUnits="userSpaceOnUse" x1="322.1426" y1="853.0001" x2="414.714" y2="853.0001"> <stop offset="0" style="stop-color:#E9E400"/> <stop offset="0.055" style="stop-color:#E9DE09"/> <stop offset="0.1466" style="stop-color:#E9CF23"/> <stop offset="0.2634" style="stop-color:#E9B64D"/> <stop offset="0.4009" style="stop-color:#EA9486"/> <stop offset="0.5539" style="stop-color:#EA68CF"/> <stop offset="0.6459" style="stop-color:#EA4CFE"/> <stop offset="0.9944" style="stop-color:#6C009A"/> </linearGradient> <path style="fill:url(#SVGID_72_);" d="M337.571,806.714c-8.52,0-15.429,6.901-15.429,15.429v61.714 c0,8.528,6.908,15.429,15.429,15.429h61.714c8.52,0,15.429-6.901,15.429-15.429v-61.714c0-8.528-6.908-15.429-15.429-15.429 H337.571z M383.857,868.429H353v-30.857h30.857V868.429z"/> <linearGradient id="SVGID_73_" gradientUnits="userSpaceOnUse" x1="445.5711" y1="853.0001" x2="538.1425" y2="853.0001"> <stop offset="0" style="stop-color:#E9E400"/> <stop offset="0.055" style="stop-color:#E9DE09"/> <stop offset="0.1466" style="stop-color:#E9CF23"/> <stop offset="0.2634" style="stop-color:#E9B64D"/> <stop offset="0.4009" style="stop-color:#EA9486"/> <stop offset="0.5539" style="stop-color:#EA68CF"/> <stop offset="0.6459" style="stop-color:#EA4CFE"/> <stop offset="0.9944" style="stop-color:#6C009A"/> </linearGradient> <path style="fill:url(#SVGID_73_);" d="M461,806.714c-8.52,0-15.429,6.901-15.429,15.429v61.714 c0,8.528,6.908,15.429,15.429,15.429h61.714c8.52,0,15.429-6.901,15.429-15.429v-61.714c0-8.528-6.908-15.429-15.429-15.429H461z M507.285,868.429h-30.857v-30.857h30.857V868.429z"/> <linearGradient id="SVGID_74_" gradientUnits="userSpaceOnUse" x1="568.9995" y1="853.0001" x2="661.5709" y2="853.0001"> <stop offset="0" style="stop-color:#E9E400"/> <stop offset="0.055" style="stop-color:#E9DE09"/> <stop offset="0.1466" style="stop-color:#E9CF23"/> <stop offset="0.2634" style="stop-color:#E9B64D"/> <stop offset="0.4009" style="stop-color:#EA9486"/> <stop offset="0.5539" style="stop-color:#EA68CF"/> <stop offset="0.6459" style="stop-color:#EA4CFE"/> <stop offset="0.9944" style="stop-color:#6C009A"/> </linearGradient> <path style="fill:url(#SVGID_74_);" d="M584.428,806.714c-8.52,0-15.429,6.901-15.429,15.429v61.714 c0,8.528,6.908,15.429,15.429,15.429h61.714c8.52,0,15.429-6.901,15.429-15.429v-61.714c0-8.528-6.908-15.429-15.429-15.429 H584.428z M630.714,868.429h-30.857v-30.857h30.857V868.429z"/> <linearGradient id="SVGID_75_" gradientUnits="userSpaceOnUse" x1="692.428" y1="853.0001" x2="784.9994" y2="853.0001"> <stop offset="0" style="stop-color:#E9E400"/> <stop offset="0.055" style="stop-color:#E9DE09"/> <stop offset="0.1466" style="stop-color:#E9CF23"/> <stop offset="0.2634" style="stop-color:#E9B64D"/> <stop offset="0.4009" style="stop-color:#EA9486"/> <stop offset="0.5539" style="stop-color:#EA68CF"/> <stop offset="0.6459" style="stop-color:#EA4CFE"/> <stop offset="0.9944" style="stop-color:#6C009A"/> </linearGradient> <path style="fill:url(#SVGID_75_);" d="M707.857,806.714c-8.52,0-15.429,6.901-15.429,15.429v61.714 c0,8.528,6.908,15.429,15.429,15.429h61.714c8.52,0,15.429-6.901,15.429-15.429v-61.714c0-8.528-6.908-15.429-15.429-15.429 H707.857z M754.142,868.429h-30.857v-30.857h30.857V868.429z"/> <linearGradient id="SVGID_76_" gradientUnits="userSpaceOnUse" x1="815.8564" y1="853.0001" x2="908.4279" y2="853.0001"> <stop offset="0" style="stop-color:#E9E400"/> <stop offset="0.055" style="stop-color:#E9DE09"/> <stop offset="0.1466" style="stop-color:#E9CF23"/> <stop offset="0.2634" style="stop-color:#E9B64D"/> <stop offset="0.4009" style="stop-color:#EA9486"/> <stop offset="0.5539" style="stop-color:#EA68CF"/> <stop offset="0.6459" style="stop-color:#EA4CFE"/> <stop offset="0.9944" style="stop-color:#6C009A"/> </linearGradient> <path style="fill:url(#SVGID_76_);" d="M892.999,806.714h-61.714c-8.52,0-15.429,6.901-15.429,15.429v61.714 c0,8.528,6.908,15.429,15.429,15.429h61.714c8.52,0,15.429-6.901,15.429-15.429v-61.714 C908.428,813.615,901.52,806.714,892.999,806.714z M877.571,868.429h-30.857v-30.857h30.857V868.429z"/> <linearGradient id="SVGID_77_" gradientUnits="userSpaceOnUse" x1="29" y1="945.5714" x2="954.7135" y2="945.5714"> <stop offset="0" style="stop-color:#E9E400"/> <stop offset="0.055" style="stop-color:#E9DE09"/> <stop offset="0.1466" style="stop-color:#E9CF23"/> <stop offset="0.2634" style="stop-color:#E9B64D"/> <stop offset="0.4009" style="stop-color:#EA9486"/> <stop offset="0.5539" style="stop-color:#EA68CF"/> <stop offset="0.6459" style="stop-color:#EA4CFE"/> <stop offset="0.9944" style="stop-color:#6C009A"/> </linearGradient> <rect x="29" y="930.143" style="fill:url(#SVGID_77_);" width="925.714" height="30.857"/> <linearGradient id="SVGID_78_" gradientUnits="userSpaceOnUse" x1="229.5713" y1="505.8575" x2="831.285" y2="505.8575"> <stop offset="0" style="stop-color:#E9E400"/> <stop offset="0.055" style="stop-color:#E9DE09"/> <stop offset="0.1466" style="stop-color:#E9CF23"/> <stop offset="0.2634" style="stop-color:#E9B64D"/> <stop offset="0.4009" style="stop-color:#EA9486"/> <stop offset="0.5539" style="stop-color:#EA68CF"/> <stop offset="0.6459" style="stop-color:#EA4CFE"/> <stop offset="0.9944" style="stop-color:#6C009A"/> </linearGradient> <path style="fill:url(#SVGID_78_);" d="M306.714,359.286v35.844l-67.447,26.97c-5.854,2.35-9.696,8.016-9.696,14.329v123.428 c0,6.313,3.842,11.978,9.696,14.329l67.447,26.97V637c0,8.528,6.908,15.429,15.429,15.429h111.789l27.663,96.805 c1.891,6.629,7.948,11.195,14.833,11.195h77.143c4.844,0,9.402-2.275,12.317-6.132c2.915-3.872,3.85-8.874,2.516-13.53 l-25.237-88.338h21.734l96.67,55.237v6.477c0,8.528,6.908,15.429,15.429,15.429h61.714c8.52,0,15.429-6.901,15.429-15.429V570.308 l67.447-26.979c5.853-2.35,9.696-8.016,9.696-14.329v-77.143c0-6.313-3.842-11.978-9.696-14.329l-67.447-26.979V266.715 c0-8.528-6.908-15.429-15.429-15.429h-61.714c-8.52,0-15.429,6.901-15.429,15.429v7.495l-97.513,69.648H322.143 C313.622,343.858,306.714,350.758,306.714,359.286z M800.428,462.299v56.26l-46.286,18.517v-93.295L800.428,462.299z M723.285,282.143V421v138.857v138.857h-30.857V282.143H723.285z M337.571,405.572v-30.857H569c3.217,0,6.351-1.009,8.965-2.878 l83.607-59.71v359.995l-84.917-48.516c-2.328-1.326-4.972-2.034-7.654-2.034h-46.286c-4.844,0-9.402,2.275-12.317,6.132 c-2.915,3.872-3.85,8.874-2.516,13.53l25.237,88.338h-45.05l-27.663-96.805c-1.891-6.629-7.948-11.195-14.833-11.195h-108v-30.857 c0-6.313-3.842-11.978-9.696-14.329l-67.447-26.97V446.87l67.447-26.97C333.729,417.55,337.571,411.885,337.571,405.572z"/> </g> <g> </g> <g> </g> <g> </g> <g> </g> <g> </g> <g> </g> <g> </g> <g> </g> <g> </g> <g> </g> <g> </g> <g> </g> <g> </g> <g> </g> <g> </g> </svg>