<svg width="84" height="84" viewBox="0 0 84 84" fill="none" xmlns="http://www.w3.org/2000/svg">
<path d="M16 24C16 20.6863 18.6863 18 22 18H27.0986C27.6617 18 28.1876 17.7186 28.5 17.25V17.25C28.8124 16.7814 29.3383 16.5 29.9014 16.5H48.0986C48.6617 16.5 49.1876 16.7814 49.5 17.25V17.25C49.8124 17.7186 50.3383 18 50.9014 18H56C59.3137 18 62 20.6863 62 24V54.5L69.2225 54.9013C70.2954 54.9609 71.2232 55.6695 71.563 56.6889V56.6889C71.8365 57.5094 72.4973 58.1421 73.3289 58.3797L74.1564 58.6161C75.0281 58.8652 75.7944 59.3926 76.3384 60.1179L76.4181 60.2242C77.6127 61.8169 77.4543 64.0457 76.0465 65.4535V65.4535C75.3712 66.1288 74.4766 66.5403 73.5244 66.6135L64.4511 67.3115C62.9207 67.4292 61.5515 68.3072 60.8061 69.649V69.649C60 71.1001 58.4705 72 56.8105 72H22C18.6863 72 16 69.3137 16 66V24Z" fill="white"/>
<path d="M36.6771 68.8709H26.3545C25.7837 68.8709 25.3223 68.4095 25.3223 67.8386V57.5161C25.3223 56.9452 25.7837 56.4838 26.3545 56.4838H36.6771C37.2479 56.4838 37.7094 56.9452 37.7094 57.5161V67.8386C37.7094 68.4095 37.2479 68.8709 36.6771 68.8709Z" fill="#93DD00"/>
<path d="M36.6771 54.4193H26.3545C25.7837 54.4193 25.3223 53.9579 25.3223 53.387V43.0644C25.3223 42.4936 25.7837 42.0322 26.3545 42.0322H36.6771C37.2479 42.0322 37.7094 42.4936 37.7094 43.0644V53.387C37.7094 53.9579 37.2479 54.4193 36.6771 54.4193Z" fill="#93DD00"/>
<path d="M36.6771 39.9677H26.3545C25.7837 39.9677 25.3223 39.5062 25.3223 38.9354V28.6128C25.3223 28.042 25.7837 27.5806 26.3545 27.5806H36.6771C37.2479 27.5806 37.7094 28.042 37.7094 28.6128V38.9354C37.7094 39.5062 37.2479 39.9677 36.6771 39.9677Z" fill="#93DD00"/>
<path d="M73.8387 57.5161H72.6165C72.7321 57.192 72.8064 56.8472 72.8064 56.4839C72.8064 54.7765 71.417 53.3871 69.7097 53.3871H62.4839V22.4194C62.4839 19.5734 60.1685 17.2581 57.3226 17.2581H50.3868L49.8707 15.1935H43.9032V14.1613C43.9032 11.3154 41.5879 9 38.7419 9C35.896 9 33.5806 11.3154 33.5806 14.1613V15.1935H27.6132L27.097 17.2581H20.1613C17.3154 17.2581 15 19.5734 15 22.4194V67.8387C15 70.6846 17.3154 73 20.1613 73H57.3226C60.1685 73 62.4839 70.6846 62.4839 67.8387H73.8387C76.6846 67.8387 79 65.5234 79 62.6774C79 59.8315 76.6846 57.5161 73.8387 57.5161ZM70.7419 56.4839C70.7419 57.0537 70.2784 57.5161 69.7097 57.5161H51.129C50.5603 57.5161 50.0968 57.0537 50.0968 56.4839C50.0968 55.9141 50.5603 55.4516 51.129 55.4516H69.7097C70.2784 55.4516 70.7419 55.9141 70.7419 56.4839ZM38.7419 65.7742C37.0346 65.7742 35.6452 64.3848 35.6452 62.6774C35.6452 60.9701 37.0346 59.5806 38.7419 59.5806H66.6129V65.7742H38.7419ZM33.6581 63.4392L31.736 62.9592C31.6059 62.9262 31.5161 62.8106 31.5161 62.6774C31.5161 62.5443 31.6059 62.4286 31.736 62.3966L33.6581 61.9166C33.6199 62.1665 33.5806 62.4163 33.5806 62.6774C33.5806 62.9386 33.6199 63.1884 33.6581 63.4392ZM35.6452 14.1613C35.6452 12.4539 37.0346 11.0645 38.7419 11.0645C40.4493 11.0645 41.8387 12.4539 41.8387 14.1613V15.1935H35.6452V14.1613ZM29.2255 17.2581H48.2583L49.8067 23.4516H27.6772L29.2255 17.2581ZM52.4514 25.5161L51.9352 23.4516H56.2903V49.2581H58.3548V21.3871H51.4191L50.903 19.3226H57.3226C59.0299 19.3226 60.4194 20.712 60.4194 22.4194V53.3871H58.3548V51.3226H56.2903V53.3871H51.129C49.4217 53.3871 48.0323 54.7765 48.0323 56.4839C48.0323 56.8472 48.1066 57.192 48.2222 57.5161H38.7419C37.0625 57.5161 35.5822 58.3347 34.6397 59.5806H34.6129L31.2354 60.3941C30.1845 60.6563 29.4516 61.5956 29.4516 62.6774C29.4516 63.7592 30.1845 64.6986 31.2354 64.9608L34.3631 65.7432L34.6191 65.7494C35.5605 67.0098 37.0511 67.8387 38.7419 67.8387H56.2903V70.9355H21.1935V23.4516H25.5486L25.0325 25.5161H52.4514ZM17.0645 67.8387V22.4194C17.0645 20.712 18.4539 19.3226 20.1613 19.3226H26.5809L26.0648 21.3871H19.129V70.7455C17.9306 70.3182 17.0645 69.1827 17.0645 67.8387ZM58.3548 70.7455V67.8387H60.4194C60.4194 69.1827 59.5533 70.3182 58.3548 70.7455ZM73.8387 65.7742H68.6774V59.5806H73.8387C75.5461 59.5806 76.9355 60.9701 76.9355 62.6774C76.9355 64.3848 75.5461 65.7742 73.8387 65.7742Z" fill="black"/>
<path d="M40.3934 44.9226L39.1547 43.271L31.613 48.9278L30.1813 47.496L28.7217 48.9556L31.419 51.6529L40.3934 44.9226Z" fill="black"/>
<path d="M40.3934 30.471L39.1547 28.8194L31.613 34.4762L30.1813 33.0444L28.7217 34.504L31.419 37.2013L40.3934 30.471Z" fill="black"/>
<path d="M52.1614 28.6129H43.9033V30.6774H52.1614V28.6129Z" fill="black"/>
<path d="M52.1614 32.7419H43.9033V34.8065H52.1614V32.7419Z" fill="black"/>
<path d="M52.1614 36.871H43.9033V38.9355H52.1614V36.871Z" fill="black"/>
<path d="M52.1614 43.0645H43.9033V45.129H52.1614V43.0645Z" fill="black"/>
<path d="M52.1614 47.1935H43.9033V49.2581H52.1614V47.1935Z" fill="black"/>
<path d="M45.9678 51.3226H43.9033V53.3871H45.9678V51.3226Z" fill="black"/>
<path d="M33.5806 19.3226H31.5161V21.3871H33.5806V19.3226Z" fill="black"/>
<path d="M45.9678 19.3226H43.9033V21.3871H45.9678V19.3226Z" fill="black"/>
</svg>