<svg width="82" height="65" xmlns="http://www.w3.org/2000/svg"><script xmlns="" type="text/javascript" charset="utf-8" id="zm-extension"/><g fill="none" fill-rule="evenodd"><path d="M50.378 6.119H24.404c-.634 0-1.149.535-1.149 1.196v40.122a8.671 8.671 0 0 0 2.959 6.525 8.658 8.658 0 0 0 5.74 2.174 8.658 8.658 0 0 0 5.74-2.174l.142-.13c.095-.622.099-1.263.099-1.96v-6.255a4.48 4.48 0 0 1 1.212-3.071c.79-.847 1.9-1.38 3.137-1.38h9.242V7.315c0-.66-.514-1.196-1.148-1.196" fill="#FFE735"/><path stroke="#000" stroke-width="1.2" stroke-linecap="round" d="M12.265 7.4L6.828 1.575 1.392 7.4m73.201 56.89l5.825-5.436-5.825-5.436"/><path d="M29.78 58.955c1.63 0 3.25-.387 4.701-1.13 1.044-.535 2.053-1.293 2.719-2.292.77-1.155.734-2.287.734-3.614v-6.113a4.35 4.35 0 0 1 4.349-4.35h20.66a4.35 4.35 0 0 1 4.35 4.35v7.119c0 3.33-2.7 6.03-6.031 6.03H40.109" stroke="#000" stroke-width="1.2" stroke-linecap="square" stroke-linejoin="round"/><path d="M54.154 41.459V4.386c0-2.211-2.112-2.174-3.672-2.174H22.984a2.175 2.175 0 0 0-2.175 2.174l.001 46.916c0 2.198.974 4.325 2.745 5.629a10.324 10.324 0 0 0 5.808 2.002l.036.022h20.406M37.934 46.894h29.359m11.96 11.96H7.49M6.829 2.313v56.541m.776-39.416h1.836m-1.836 9.514h1.836m-1.836 9.514h1.836M7.605 47.98h1.836" stroke="#000" stroke-width="1.2" stroke-linecap="square" stroke-linejoin="round"/><path d="M41.085 53.961c.008-.042.007-.086.014-.13l-.142.13h.128z" fill="#3F3F3F"/></g></svg>