<?xml version="1.0" encoding="UTF-8"?>
<!-- Generator: Adobe Illustrator 21.0.0, SVG Export Plug-In . SVG Version: 6.00 Build 0) -->
<svg xmlns="http://www.w3.org/2000/svg" xmlns:xlink="http://www.w3.org/1999/xlink" id="Capa_1" x="0px" y="0px" viewBox="0 0 512 512" style="enable-background:new 0 0 512 512;" xml:space="preserve" width="512" height="512"> <g> <path d="M300.339,146.5h-86.729c-9.673,0-9.673,15,0,15h86.729C310.012,161.5,310.012,146.5,300.339,146.5z"/> <path d="M300.339,219.432h-86.729c-9.673,0-9.673,15,0,15h86.729C310.012,234.432,310.012,219.432,300.339,219.432z"/> <path d="M300.339,292.269h-86.729c-9.673,0-9.673,15,0,15h86.729C310.012,307.269,310.012,292.269,300.339,292.269z"/> <path d="M300.339,365.101h-86.729c-9.673,0-9.673,15,0,15h86.729C310.012,380.101,310.012,365.101,300.339,365.101z"/> <path d="M300.339,437.932h-86.729c-9.673,0-9.673,15,0,15h86.729C310.012,452.932,310.012,437.932,300.339,437.932z"/> <path d="M380.355,235c0-9.673-15-9.673-15,0v25.002c0,9.673,15,9.673,15,0V235z"/> <path d="M419.355,235c0-9.673-15-9.673-15,0v25.002c0,9.673,15,9.673,15,0V235z"/> <path d="M380.355,294.939c0-9.673-15-9.673-15,0v24.953c0,9.673,15,9.673,15,0V294.939z"/> <path d="M419.355,294.939c0-9.673-15-9.673-15,0v24.953c0,9.673,15,9.673,15,0V294.939z"/> <path d="M372.855,347.335c-4.143,0-7.5,3.358-7.5,7.5v24.975c0,9.673,15,9.673,15,0v-24.975 C380.355,350.693,376.998,347.335,372.855,347.335z"/> <path d="M411.855,347.335c-4.143,0-7.5,3.358-7.5,7.5v24.975c0,9.673,15,9.673,15,0v-24.975 C419.355,350.693,415.998,347.335,411.855,347.335z"/> <path d="M458.355,235c0-9.673-15-9.673-15,0v25.002c0,9.673,15,9.673,15,0V235z"/> <path d="M458.355,294.939c0-9.673-15-9.673-15,0v24.953c0,9.673,15,9.673,15,0V294.939z"/> <path d="M450.855,347.335c-4.143,0-7.5,3.358-7.5,7.5v24.975c0,9.673,15,9.673,15,0v-24.975 C458.355,350.693,454.998,347.335,450.855,347.335z"/> <path d="M504.5,497h-8v-35.634c0-9.673-15-9.673-15,0V497h-36.504v-71.495c0-6.893-5.607-12.5-12.5-12.5h-41.281 c-6.893,0-12.5,5.607-12.5,12.5V497h-36.982l-0.001-51.715l-0.004-245.586H481.5v228.802c0,9.673,15,9.673,15,0V197.199 c0-6.893-5.607-12.5-12.5-12.5h-20.145v-26.065c0-6.893-5.607-12.5-12.5-12.5h-9.516v-26.857c0-6.893-5.607-12.5-12.5-12.5h-9.718 V51.433c0-9.673-15-9.673-15,0v55.344h-9.718c-6.893,0-12.5,5.607-12.5,12.5v26.857h-10.048c-6.893,0-12.5,5.607-12.5,12.5v26.065 h-18.13L341.725,50.61c0-6.893-5.607-12.5-12.5-12.5h-0.037h-19.948V12.5c0-6.893-5.607-12.5-12.5-12.5h-79.53 c-6.893,0-12.5,5.607-12.5,12.5v25.61h-19.985h-0.015c-6.893,0-12.5,5.607-12.5,12.5v42.372c0,0.104,0.011,0.204,0.016,0.307 l0.001,38.441H30.435c-6.893,0-12.5,5.607-12.5,12.5v69.572c0,9.673,15,9.673,15,0v-67.072h139.287V497H32.935V248.745 c0-9.673-15-9.673-15,0V497H7.5c-9.673,0-9.673,15,0,15h17.935h154.287h0.011h154.5H489h15.5C514.173,512,514.173,497,504.5,497z M397.404,121.777h29.436v24.345h-29.436V121.777z M374.856,161.134h73.999v23.52h-73.999V161.134z M219.709,15h74.53v23.11h-74.53 V15z M212.209,53.11h89.53h24.948v32.372H187.224l-0.001-32.372H212.209z M187.225,100.482h139.501l0.002,96.706 c0,0.004-0.001,0.008-0.001,0.011L326.732,497h-139.5L187.225,100.482z M393.715,428.005h36.281V497h-36.281V428.005z"/> <path d="M62.852,340.964h20.743c6.893,0,12.5-5.607,12.5-12.5V183.671c0-6.893-5.607-12.5-12.5-12.5H62.852 c-6.893,0-12.5,5.607-12.5,12.5v144.793C50.352,335.356,55.959,340.964,62.852,340.964z M65.352,186.171h15.743v139.793H65.352 V186.171z"/> <path d="M110.898,460.001c0,6.893,5.607,12.5,12.5,12.5h20.954c6.893,0,12.5-5.607,12.5-12.5V315.209c0-6.893-5.607-12.5-12.5-12.5 h-20.954c-6.893,0-12.5,5.607-12.5,12.5V460.001z M125.898,317.709h15.954v139.792h-15.954V317.709z"/> <path d="M123.398,278.58h20.954c6.893,0,12.5-5.607,12.5-12.5v-20.07c0-6.893-5.607-12.5-12.5-12.5h-20.954 c-6.893,0-12.5,5.607-12.5,12.5v20.07C110.898,272.972,116.506,278.58,123.398,278.58z M125.898,248.509h15.954v15.07h-15.954 V248.509z"/> <path d="M50.352,397.645c0,6.893,5.607,12.5,12.5,12.5h20.743c6.893,0,12.5-5.607,12.5-12.5v-19.973c0-6.893-5.607-12.5-12.5-12.5 H62.852c-6.893,0-12.5,5.607-12.5,12.5V397.645z M65.352,380.172h15.743v14.973H65.352V380.172z"/> </g> </svg>