<svg xmlns="http://www.w3.org/2000/svg" width="50" height="39" viewBox="0 0 50 39">
  <metadata><?xpacket begin="﻿" id="W5M0MpCehiHzreSzNTczkc9d"?>
<x:xmpmeta xmlns:x="adobe:ns:meta/" x:xmptk="Adobe XMP Core 5.6-c142 79.160924, 2017/07/13-01:06:39        ">
   <rdf:RDF xmlns:rdf="http://www.w3.org/1999/02/22-rdf-syntax-ns#">
      <rdf:Description rdf:about=""/>
   </rdf:RDF>
</x:xmpmeta>
                                                                                                    
                                                                                                    
                                                                                                    
                                                                                                    
                                                                                                    
                                                                                                    
                                                                                                    
                                                                                                    
                                                                                                    
                                                                                                    
                                                                                                    
                                                                                                    
                                                                                                    
                                                                                                    
                                                                                                    
                                                                                                    
                                                                                                    
                                                                                                    
                                                                                                    
                                                                                                    
                           
<?xpacket end="w"?></metadata>
<defs>
    <style>
      .cls-1 {
        fill: #d82541;
        fill-rule: evenodd;
      }
    </style>
  </defs>
  <path class="cls-1" d="M602.022,7757H557.979a2.976,2.976,0,0,0-2.979,2.97v33.06a2.976,2.976,0,0,0,2.979,2.97h44.043a2.976,2.976,0,0,0,2.978-2.97v-33.06A2.976,2.976,0,0,0,602.022,7757Zm1.025,36.03a1.025,1.025,0,0,1-1.025,1.02H557.979a1.026,1.026,0,0,1-1.026-1.02v-33.06a1.026,1.026,0,0,1,1.026-1.02h44.043a1.025,1.025,0,0,1,1.025,1.02v33.06Zm-2.992-26.35h-40.11a0.979,0.979,0,0,0-.977.98v23.4a0.979,0.979,0,0,0,.977.98h11.624a0.98,0.98,0,0,0,0-1.96H560.921v-21.45h38.158v21.45H579.414a0.98,0.98,0,0,0,0,1.96h20.641a0.979,0.979,0,0,0,.977-0.98v-23.4A0.979,0.979,0,0,0,600.055,7766.68Zm-26.4-2.92h25.2a0.975,0.975,0,1,0,0-1.95h-25.2A0.975,0.975,0,1,0,573.652,7763.76Zm-12.761,0a1.238,1.238,0,0,0,.192-0.02,1.181,1.181,0,0,0,.183-0.05c0.058-.03.115-0.06,0.167-0.09a1.044,1.044,0,0,0,.435-0.82,1.1,1.1,0,0,0-.018-0.19,1.13,1.13,0,0,0-.056-0.18,1.27,1.27,0,0,0-.09-0.17,0.817,0.817,0,0,0-.122-0.14,0.971,0.971,0,0,0-.149-0.13c-0.052-.03-0.109-0.06-0.167-0.09a1.181,1.181,0,0,0-.183-0.05,0.822,0.822,0,0,0-.382,0,1.112,1.112,0,0,0-.182.05c-0.059.03-.117,0.06-0.169,0.09a0.971,0.971,0,0,0-.149.13,0.812,0.812,0,0,0-.121.14,1.4,1.4,0,0,0-.09.17,0.991,0.991,0,0,0-.075.37,0.973,0.973,0,0,0,.286.69A0.954,0.954,0,0,0,560.891,7763.76Zm3.006-.6a1.261,1.261,0,0,0,.089.17,0.817,0.817,0,0,0,.122.14,0.951,0.951,0,0,0,.69.29,1.225,1.225,0,0,0,.191-0.02,1.151,1.151,0,0,0,.183-0.05q0.088-.045.168-0.09a0.964,0.964,0,0,0,.148-0.13,0.817,0.817,0,0,0,.122-0.14,1.164,1.164,0,0,0,.09-0.17,1.036,1.036,0,0,0,.056-0.18,1.127,1.127,0,0,0,.018-0.2,1.1,1.1,0,0,0-.018-0.19,1.036,1.036,0,0,0-.056-0.18,1.164,1.164,0,0,0-.09-0.17,0.817,0.817,0,0,0-.122-0.14,0.964,0.964,0,0,0-.148-0.13q-0.079-.045-0.168-0.09a1.151,1.151,0,0,0-.183-0.05,0.988,0.988,0,0,0-.881.27,0.817,0.817,0,0,0-.122.14,1.261,1.261,0,0,0-.089.17,0.956,0.956,0,0,0-.056.18,1.024,1.024,0,0,0-.02.19,1.043,1.043,0,0,0,.02.2A0.956,0.956,0,0,0,563.9,7763.16Zm3.906,0a1.164,1.164,0,0,0,.09.17,0.812,0.812,0,0,0,.121.14,0.919,0.919,0,0,0,.148.13c0.053,0.03.11,0.06,0.169,0.09a1.123,1.123,0,0,0,.183.05,1.213,1.213,0,0,0,.19.02,1.225,1.225,0,0,0,.191-0.02,1.123,1.123,0,0,0,.183-0.05q0.088-.045.168-0.09a0.919,0.919,0,0,0,.148-0.13,0.817,0.817,0,0,0,.122-0.14,1.164,1.164,0,0,0,.09-0.17,0.956,0.956,0,0,0,.056-0.18,1.042,1.042,0,0,0,.019-0.2,1.018,1.018,0,0,0-.019-0.19,0.956,0.956,0,0,0-.056-0.18,1.164,1.164,0,0,0-.09-0.17,0.817,0.817,0,0,0-.122-0.14,0.919,0.919,0,0,0-.148-0.13q-0.079-.045-0.168-0.09a1.123,1.123,0,0,0-.183-0.05,0.818,0.818,0,0,0-.381,0,1.123,1.123,0,0,0-.183.05c-0.059.03-.116,0.06-0.169,0.09a0.919,0.919,0,0,0-.148.13,0.812,0.812,0,0,0-.121.14,1.164,1.164,0,0,0-.09.17,1.036,1.036,0,0,0-.056.18,1.024,1.024,0,0,0-.02.19A0.966,0.966,0,0,0,567.8,7763.16Zm4.443,10.76a0.977,0.977,0,0,0-1.377-.11l-5.794,4.95a0.979,0.979,0,0,0-.342.75,0.961,0.961,0,0,0,.354.74l5.859,4.85a0.975,0.975,0,0,0,1.246-1.5l-4.966-4.11,4.913-4.2A0.969,0.969,0,0,0,572.246,7773.92Zm14.27,11.01a0.985,0.985,0,0,0,1.377.11l5.794-4.93a0.97,0.97,0,0,0-.012-1.49l-5.86-4.82a0.974,0.974,0,1,0-1.242,1.5l4.96,4.08-4.907,4.18A0.968,0.968,0,0,0,586.516,7784.93Zm-3.708-11.25a0.974,0.974,0,0,0-1.337.34l-5.795,9.78a0.977,0.977,0,0,0,.344,1.34,0.969,0.969,0,0,0,1.338-.34l5.794-9.79A0.968,0.968,0,0,0,582.808,7773.68Zm-6.4,17.07a1.164,1.164,0,0,0-.09-0.17,0.812,0.812,0,0,0-.121-0.14,0.964,0.964,0,0,0-.148-0.13c-0.053-.03-0.11-0.06-0.169-0.09a1.123,1.123,0,0,0-.183-0.05,0.963,0.963,0,0,0-.881.27,0.812,0.812,0,0,0-.121.14,1.4,1.4,0,0,0-.09.17,0.857,0.857,0,0,0-.055.19,0.872,0.872,0,0,0-.02.19,0.971,0.971,0,0,0,.286.68,0.955,0.955,0,0,0,.691.29,1.213,1.213,0,0,0,.19-0.02,1.123,1.123,0,0,0,.183-0.05,1.1,1.1,0,0,0,.169-0.1,0.574,0.574,0,0,0,.148-0.12,0.812,0.812,0,0,0,.121-0.14,1.164,1.164,0,0,0,.09-0.17,0.956,0.956,0,0,0,.056-0.18,1.11,1.11,0,0,0,.019-0.19,0.941,0.941,0,0,0-.019-0.19A0.857,0.857,0,0,0,576.409,7790.75Z" transform="translate(-555 -7757)"/>
</svg>