<svg xmlns="http://www.w3.org/2000/svg" width="50" height="50" viewBox="0 0 50 50">
  <metadata><?xpacket begin="﻿" id="W5M0MpCehiHzreSzNTczkc9d"?>
<x:xmpmeta xmlns:x="adobe:ns:meta/" x:xmptk="Adobe XMP Core 5.6-c142 79.160924, 2017/07/13-01:06:39        ">
   <rdf:RDF xmlns:rdf="http://www.w3.org/1999/02/22-rdf-syntax-ns#">
      <rdf:Description rdf:about=""/>
   </rdf:RDF>
</x:xmpmeta>
                                                                                                    
                                                                                                    
                                                                                                    
                                                                                                    
                                                                                                    
                                                                                                    
                                                                                                    
                                                                                                    
                                                                                                    
                                                                                                    
                                                                                                    
                                                                                                    
                                                                                                    
                                                                                                    
                                                                                                    
                                                                                                    
                                                                                                    
                                                                                                    
                                                                                                    
                                                                                                    
                           
<?xpacket end="w"?></metadata>
<defs>
    <style>
      .cls-1 {
        fill: #d82541;
        fill-rule: evenodd;
      }
    </style>
  </defs>
  <path class="cls-1" d="M1473.71,1672.08c0.04,0.07.08,0.14,0.12,0.2,0.39,0.57.78,1.13,1.16,1.7a0.858,0.858,0,0,1,.03.98,0.915,0.915,0,0,1-.5.38c-0.39.14-.79,0.29-1.21,0.45a2.443,2.443,0,0,1,.1.24,8.292,8.292,0,0,1-1.26,8.36,7.408,7.408,0,0,1-1.75,1.55,0.927,0.927,0,0,1-1.13-.05,0.883,0.883,0,0,1-.01-1.32c0.05-.04.1-0.07,0.15-0.11a6.035,6.035,0,0,0,2.61-3.8,6.427,6.427,0,0,0-.28-3.97c-0.04-.09-0.08-0.17-0.12-0.27q-0.42.15-.81,0.3c-0.22.08-.43,0.16-0.65,0.24a0.911,0.911,0,0,1-1.24-.76c-0.11-.86-0.23-1.73-0.34-2.59-0.01-.08-0.03-0.15-0.04-0.24a12.78,12.78,0,0,1-11-5.54,11.845,11.845,0,0,1-2.16-8.23,12.2,12.2,0,0,1,4.59-8.54,12.785,12.785,0,0,1,9.36-2.84,12.051,12.051,0,0,1,21.97-.01,12.781,12.781,0,0,1,10.52,3.91,11.94,11.94,0,0,1,3.49,8.88,12.066,12.066,0,0,1-4.46,9.3,12.856,12.856,0,0,1-10.04,2.94c-0.05.36-.1,0.72-0.14,1.07-0.09.64-.17,1.28-0.25,1.91a0.928,0.928,0,0,1-1.25.74c-0.35-.14-0.71-0.27-1.07-0.4-0.07-.03-0.15-0.05-0.24-0.08,0,0.34-.03.66,0,0.97a6.008,6.008,0,0,0,3.34,4.92,5.733,5.733,0,0,0,1.55.55,0.887,0.887,0,1,1-.29,1.75,7.144,7.144,0,0,1-2.12-.75,7.847,7.847,0,0,1-4.2-5.77,7.156,7.156,0,0,1-.03-2.31,1.194,1.194,0,0,0-.16-0.08c-0.36-.13-0.71-0.28-1.07-0.4a0.919,0.919,0,0,1-.48-1.47c0.5-.69.96-1.4,1.44-2.1,0.05-.07.09-0.13,0.15-0.22a13.31,13.31,0,0,1-3.11-2.56c0.01,0.1.01,0.15,0.02,0.2,0.22,0.9.42,1.82,0.66,2.72a0.912,0.912,0,0,1-.92,1.14c-0.38-.01-0.76,0-1.14,0h-0.25a1.01,1.01,0,0,0-.03.17,1.763,1.763,0,0,0,0,.23v16.49a2.62,2.62,0,0,1-.01.28,0.9,0.9,0,0,1-1.79,0v-17.16a2.44,2.44,0,0,0-.26-0.01c-0.38,0-.76-0.01-1.14,0a0.918,0.918,0,0,1-.94-1.16c0.24-.91.44-1.82,0.66-2.72a0.233,0.233,0,0,0-.01-0.14c-0.23.24-.46,0.48-0.7,0.71s-0.5.46-.76,0.67a9.382,9.382,0,0,1-.8.61c-0.28.19-.56,0.37-0.86,0.54S1474.02,1671.91,1473.71,1672.08Zm6.47-29.2c-0.18.01-.53,0.02-0.87,0.05a10,10,0,0,0-4.7,1.69,9.828,9.828,0,0,0-4.43,7.67,11.837,11.837,0,0,0,.25,3.2,21.838,21.838,0,0,0,2.27,6.14,16.594,16.594,0,0,0,2.86,3.86,8.637,8.637,0,0,0,2.72,1.87,5.19,5.19,0,0,0,2.43.42,5.83,5.83,0,0,0,2.15-.65,9.924,9.924,0,0,0,2.81-2.26,18.406,18.406,0,0,0,2.91-4.51,19.551,19.551,0,0,0,1.87-6.65,9.944,9.944,0,0,0-.66-4.45A10.24,10.24,0,0,0,1480.18,1642.88Zm-11.48,7.07a10.983,10.983,0,0,0-5.66,1.22,10.58,10.58,0,0,0-5.16,5.66,10.706,10.706,0,0,0,5,13.44,11.071,11.071,0,0,0,13.17-2.08c-0.14-.1-0.29-0.2-0.42-0.3a13.857,13.857,0,0,1-2.98-3.04,22.241,22.241,0,0,1-4.23-10.74,9.881,9.881,0,0,1,.01-2.49C1468.51,1651.08,1468.6,1650.54,1468.7,1649.95Zm23.57,3.64c0.11-.03.19-0.04,0.27-0.06a5.92,5.92,0,0,1,1.39-.15,0.888,0.888,0,0,1,.88,1.18,0.907,0.907,0,0,1-.91.59,4.939,4.939,0,0,0-1.7.33,0.278,0.278,0,0,0-.21.25,22.7,22.7,0,0,1-3.82,8.87,13.774,13.774,0,0,1-3.52,3.54c-0.02.02-.04,0.05-0.06,0.07a0.138,0.138,0,0,0,.03.04c0.02,0.02.03,0.04,0.05,0.06a11,11,0,0,0,7.5,3.25,10.812,10.812,0,1,0,.02-21.61c-0.09,0-.18.02-0.28,0.03A12.486,12.486,0,0,1,1492.27,1653.59Zm-3.5,21.32c0.1-.7.18-1.37,0.27-2.03-0.49-.17-0.96-0.33-1.44-0.5q-0.555.825-1.14,1.68C1487.24,1674.34,1487.99,1674.62,1488.77,1674.91Zm-7.64-5.37h-1.63c-0.13.59-.29,1.16-0.4,1.74h2.45C1481.41,1670.69,1481.27,1670.12,1481.13,1669.54Zm-10.79,3.63c0.07,0.58.15,1.15,0.22,1.74,0.79-.29,1.54-0.57,2.32-0.86l-0.89-1.29Zm10.29-28.75a8.547,8.547,0,0,1,7.39,4.69,0.869,0.869,0,0,1-.19,1.1,0.92,0.92,0,0,1-1.06.09,1,1,0,0,1-.37-0.42,6.543,6.543,0,0,0-1.69-2.11,6.689,6.689,0,0,0-3.91-1.56c-0.17-.01-0.34-0.01-0.5-0.02a0.885,0.885,0,1,1,.04-1.77h0.29Zm7.43,9.89a0.89,0.89,0,0,1-.88-0.89,0.9,0.9,0,0,1,1.79.03A0.866,0.866,0,0,1,1488.06,1654.31Z" transform="translate(-1455.31 -1641.09)"/>
</svg>