<svg width="84" height="84" viewBox="0 0 84 84" fill="none" xmlns="http://www.w3.org/2000/svg">
<path d="M33 22.5L42 18.5L50.5 20.5L57 26L59.5 30.5L60 35.5L59.5 40L58 44L54.5 49L53 50.5L55.5 51L56 53L55.5 55.5L56 57L55 58.5L56 61.5L55 62.5L56 64.5L55.5 66L54.5 67H46V70L45 71.5L43 72L41 71.5L40 69.5V67H33.5L31 64H22V67H17V49H22L26 45.5V31.5L33 22.5Z" fill="white"/>
<circle cx="14" cy="13" r="2" fill="white"/>
<circle cx="70" cy="70" r="2" fill="white"/>
<path d="M68 41.721V30.279L63.819 28.885C63.525 28.031 63.166 27.171 62.745 26.321L64.723 22.367L56.633 14.277L52.679 16.255C51.828 15.834 50.969 15.475 50.115 15.181L48.721 11H37.279L35.885 15.181C35.031 15.475 34.171 15.834 33.321 16.255L29.367 14.277L21.277 22.367L23.255 26.321C22.834 27.172 22.475 28.031 22.181 28.885L18 30.279V41.72L22.181 43.114C22.473 43.962 22.828 44.813 23.243 45.657L21.408 49H22V51H33L33.985 50.015L33.354 50C28.911 46.933 26 41.807 26 36C26 26.611 33.611 19 43 19C52.389 19 60 26.611 60 36C60 42.084 56.804 47.421 52 50.425L51.416 50.412C51.054 50.775 50.553 51 50 51H54.001C55.106 51 56.001 51.895 56.001 53C56.001 54.105 55.106 55 54.001 55C55.106 55 56.001 55.895 56.001 57C56.001 57.252 55.949 57.49 55.864 57.712L56.709 57.704L64.721 49.629L62.745 45.679C63.165 44.828 63.524 43.969 63.818 43.115L68 41.721Z" fill="#93DD00"/>
<path d="M70 67C68.346 67 67 68.346 67 70C67 71.654 68.346 73 70 73C71.654 73 73 71.654 73 70C73 68.346 71.654 67 70 67ZM70 71C69.449 71 69 70.552 69 70C69 69.448 69.449 69 70 69C70.551 69 71 69.448 71 70C71 70.552 70.551 71 70 71Z" fill="black"/>
<path d="M17 13C17 11.346 15.654 10 14 10C12.346 10 11 11.346 11 13C11 14.654 12.346 16 14 16C15.654 16 17 14.654 17 13ZM13 13C13 12.449 13.449 12 14 12C14.551 12 15 12.449 15 13C15 13.551 14.551 14 14 14C13.449 14 13 13.551 13 13Z" fill="black"/>
<path d="M61 36C61 26.075 52.925 18 43 18C33.075 18 25 26.075 25 36C25 41.459 27.482 46.594 31.695 50H23V48H16V68H23V65H30.586L33.586 68H39V69C39 71.206 40.794 73 43 73C45.206 73 47 71.206 47 69V68H54.001C55.655 68 57.001 66.654 57.001 65C57.001 64.229 56.7 63.532 56.221 63C56.701 62.468 57.001 61.771 57.001 61C57.001 60.229 56.7 59.532 56.221 59C56.701 58.468 57.001 57.771 57.001 57C57.001 56.229 56.7 55.532 56.221 55C56.701 54.468 57.001 53.771 57.001 53C57.001 51.44 55.8 50.17 54.277 50.028C58.519 46.628 61 41.526 61 36ZM21 66H18V50H21V66ZM34.414 66L31.414 63H23V52H33.414L37.414 48H50C50.551 48 51 48.448 51 49C51 49.552 50.551 50 50 50H39.586L35.293 54.293L36.707 55.707L39 53.414V66H34.414ZM49.586 46H47V41.414L51 37.414V32C51 29.794 49.206 28 47 28H45V33.586L44.586 34H41.414L41 33.586V28H39C36.794 28 35 29.794 35 32V37.414L39 41.414V46H36.586L36.523 46.063C33.109 43.86 31 40.083 31 36C31 29.383 36.383 24 43 24C49.617 24 55 29.383 55 36C55 40.053 52.975 43.765 49.586 46ZM40.586 36H45.414L47 34.414V30C48.103 30 49 30.897 49 32V36.586L45.586 40H40.414L37 36.586V32C37 30.897 37.897 30 39 30V34.414L40.586 36ZM41 42H45V46H41V42ZM55.001 57C55.001 57.552 54.552 58 54.001 58H46C45.449 58 45 57.552 45 57C45 56.448 45.449 56 46 56H54.001C54.552 56 55.001 56.448 55.001 57ZM55.001 61C55.001 61.552 54.552 62 54.001 62H46C45.449 62 45 61.552 45 61C45 60.448 45.449 60 46 60H54.001C54.552 60 55.001 60.448 55.001 61ZM43 71C41.897 71 41 70.103 41 69V52H43.184C43.072 52.314 43 52.648 43 53C43 53.771 43.301 54.468 43.78 55C43.3 55.532 43 56.229 43 57C43 57.771 43.301 58.468 43.78 59C43.3 59.532 43 60.229 43 61C43 61.771 43.301 62.468 43.78 63C43.3 63.532 43 64.229 43 65C43 66.302 43.839 67.402 45 67.816V69C45 70.103 44.103 71 43 71ZM54.001 66H46C45.449 66 45 65.552 45 65C45 64.448 45.449 64 46 64H54.001C54.552 64 55.001 64.448 55.001 65C55.001 65.552 54.552 66 54.001 66ZM55.001 53C55.001 53.552 54.552 54 54.001 54H46C45.449 54 45 53.552 45 53C45 52.448 45.449 52 46 52H54.001C54.552 52 55.001 52.448 55.001 53ZM52.952 48.525C52.838 47.816 52.476 47.196 51.956 46.745C55.143 44.099 57 40.203 57 36C57 28.28 50.72 22 43 22C35.28 22 29 28.28 29 36C29 40.619 31.298 44.92 35.067 47.519L33.627 48.959C29.474 45.951 27 41.137 27 36C27 27.178 34.178 20 43 20C51.822 20 59 27.178 59 36C59 40.942 56.766 45.502 52.952 48.525Z" fill="black"/>
<path d="M15 19H13V21H15V19Z" fill="black"/>
<path d="M15 24H13V26H15V24Z" fill="black"/>
<path d="M15 29H13V31H15V29Z" fill="black"/>
<path d="M71 52H69V54H71V52Z" fill="black"/>
<path d="M71 57H69V59H71V57Z" fill="black"/>
<path d="M71 62H69V64H71V62Z" fill="black"/>
</svg>