<svg xmlns="http://www.w3.org/2000/svg" width="119.97" height="111.03" viewBox="0 0 119.97 111.03">
  <path fill-rule="evenodd" fill="#3fa35d" d="M1175.31,1367.47c-2.39.14-5.06,0.1-7.17,1.34-2.04,1.2-3.39-2.54-.77-2.82a35.737,35.737,0,0,1,7.94.1A0.691,0.691,0,0,1,1175.31,1367.47Zm-7.57,23.35a0.526,0.526,0,0,1-.64.82,20.083,20.083,0,0,0-4.28-1.73c-1.48-.57-3.01-1.02-4.53-1.49-2.22-.67-0.89-3.91,1.23-2.92,1.53,0.71,3.08,1.39,4.53,2.24A26.666,26.666,0,0,1,1167.74,1390.82Zm-5.76-50.06a27.882,27.882,0,0,1-2.54,1.75,8.522,8.522,0,0,0-2.21,1.4c-1.87,2.83-4.81-2.24-1.4-2.43a9.294,9.294,0,0,0,1.99-.83c0.78-.33,1.57-0.65,2.35-0.97,0.84-.35,3.03-0.84,3.46-1.68a0.152,0.152,0,0,1,.28.11A5.319,5.319,0,0,1,1161.98,1340.76Zm-9.22,31.6a9.052,9.052,0,0,1-2.84,3.64c-6.1,4.83-12.87,8.97-19.29,13.35q-5.115,3.48-10.24,6.95c-2.22,1.51-2.49,1.79-4.17,3.03-3.64,2.67-7.47,3.81-10.97.39a29.6,29.6,0,0,1-5-7.14c-6.15-11.26-11.99-22.69-17.99-34.03-1.69-3.45-3.34-8.31-.63-11.62,2.79-3.42,7.48-5.84,11.16-8.13,6.69-4.15,12.55-9.31,21.15-7.98a136.134,136.134,0,0,1,25.07,6.67c7.97,2.9,9.23,11.43,11.36,18.59,1.37,4.58,3.86,10.04,2.88,14.69A2.39,2.39,0,0,1,1152.76,1372.36Zm-42.78-33.87a28.749,28.749,0,0,1-1.43-2.76c-3.14.76-6.06,2.61-8.88,4.41-0.75.47-1.49,0.94-2.23,1.39a106.172,106.172,0,0,0-9.93,6.52l-0.39.3a4.68,4.68,0,0,0-2.14,2.53c-0.33,1.48.65,3.74,1.41,5.3q2.955,5.58,5.9,11.2c3.86,7.33,7.84,14.91,11.82,22.33a42.638,42.638,0,0,0,2.37,3.99c1.31,1.89,2.36,3.22,3.81,3.22a4.183,4.183,0,0,0,2.11-.71,15.544,15.544,0,0,0,1.7-1.26c0.34-.28.68-0.55,1.03-0.82,2.77-2.04,5.7-3.97,8.54-5.84,1.51-1,3.03-2,4.53-3.02q2.49-1.695,5.01-3.38c4.28-2.87,8.71-5.84,12.9-8.96a8.868,8.868,0,0,0,.97-0.84,92.037,92.037,0,0,0-9.02-2.93c-1.05-.3-2.11-0.61-3.15-0.92a24.994,24.994,0,0,1-3.31,3.28c-0.43.37-.86,0.74-1.28,1.12a72.8,72.8,0,0,0-5.64,6.03c-0.38.44-.75,0.88-1.14,1.31-1.09,1.26-2.26,2.47-3.4,3.65-1.25,1.29-2.54,2.63-3.72,4.02-0.91,1.06-1.78,2.19-2.61,3.28-1.07,1.4-2.18,2.84-3.4,4.19l-0.13.14-0.26.03a0.529,0.529,0,0,1-.46-0.26,0.506,0.506,0,0,1-.01-0.53c0.69-1.25,1.27-2.58,1.83-3.88a37.062,37.062,0,0,1,2.45-4.93,59.87,59.87,0,0,1,4.06-5.49c0.61-.76,1.22-1.51,1.8-2.28,0.56-.72,1.11-1.46,1.65-2.2,1.3-1.74,2.63-3.54,4.11-5.19a22.653,22.653,0,0,1,1.99-1.92,26.375,26.375,0,0,0,2.07-2.02c-3.17-.98-6.44-1.98-9.67-2.92-4.51-1.31-9.17-2.91-14.63-5.02a12.5,12.5,0,0,1-.06,2.51c-0.03.36-.06,0.74-0.08,1.16a48.132,48.132,0,0,0,.31,7.38c0.06,0.69.12,1.37,0.17,2.04a80.064,80.064,0,0,1-.32,16.82l-0.05.37-0.69.05-0.16-.25c-1.52-2.85-1.73-6.61-1.91-9.93-0.06-1.11-.12-2.16-0.22-3.15-0.14-1.35-.31-2.7-0.48-4.05-0.19-1.48-.38-3.01-0.53-4.52-0.12-1.33-.14-2.7-0.15-4.03a35.636,35.636,0,0,0-.3-5.08,2.175,2.175,0,0,1,.11-1.04c-3.37-1.36-6.77-2.78-10.07-4.16l-1.11-.47a0.506,0.506,0,0,1-.3-0.57l0.07-.34,0.41-.05a1,1,0,0,1,.16.02c4.4,1.4,8.02,2.52,11.38,3.53a69.653,69.653,0,0,1,5.2-6.65l0.91-1.06q0.495-.585.96-1.17a23.61,23.61,0,0,1,3.38-3.6A19.018,19.018,0,0,0,1109.98,1338.49Zm20.63,13.99c0.02-.78.03-1.58,0.01-2.36-4.8-1.59-9.62-3.34-14.28-5.02l-2.49-.9c-0.85,1.57-1.9,3.13-2.84,4.51l-0.22.33c-1.08,1.6-2.27,3.13-3.43,4.62-0.63.81-1.26,1.61-1.87,2.42,5.86,1.68,11.13,3.05,16.12,4.18,3.2,0.73,6.34,1.44,9.49,2.19a17.15,17.15,0,0,0-.13-1.76c-0.03-.32-0.06-0.61-0.07-0.81-0.04-.68-0.09-1.35-0.13-2.02-0.07-1.04-.14-2.11-0.17-3.18C1130.58,1353.95,1130.59,1353.21,1130.61,1352.48Zm5.81-10.82-0.27-.08c-1.33-.4-2.65-0.81-3.98-1.21a141.434,141.434,0,0,0-18.83-4.86,12.224,12.224,0,0,0-2.5-.13c0.37,0.37.76,0.74,1.14,1.09a10.8,10.8,0,0,1,3.1,3.9c1.89,0.68,3.77,1.38,5.65,2.08,1.73,0.64,3.46,1.29,5.19,1.92,0.44,0.16.93,0.38,1.45,0.62a9.262,9.262,0,0,0,3.17,1.05h0a6.169,6.169,0,0,1,.79.04c0.17-.08.41-0.19,0.7-0.31a23.207,23.207,0,0,0,2.7-1.45,19.241,19.241,0,0,1,3.83-1.9A14.419,14.419,0,0,0,1136.42,1341.66Zm11.99,24.56c-0.62-2.25-1.31-4.52-1.98-6.72-0.32-1.04-.63-2.09-0.95-3.13-0.26-.9-0.51-1.86-0.76-2.89-0.85-3.41-1.82-7.28-4.09-9.5l-0.01-.01a16.7,16.7,0,0,0-7.22,5.5,3.246,3.246,0,0,1-.35.39,16.236,16.236,0,0,1,.62,3.75c0.04,0.41.07,0.8,0.11,1.17a26.438,26.438,0,0,0,.53,2.66,20.592,20.592,0,0,1,.75,5.99c5.16,1.29,9.61,2.57,13.59,3.91A9.353,9.353,0,0,0,1148.41,1366.22Zm-10.24-38.54c3.02-2.99,6.6-5.41,8.87-9.06a0.152,0.152,0,0,1,.28.11c-1.32,4.12-4.24,7.37-6.78,10.77C1139.2,1331.29,1136.66,1329.17,1138.17,1327.68Zm-20.05-6.56a33.458,33.458,0,0,0,2.27-11.04,0.085,0.085,0,0,1,.17,0c0.27,4.06,1.9,7.84.83,11.93C1120.83,1324.16,1117.32,1323.09,1118.12,1321.12Zm-26.98,5.28c-0.32-1.82-1.74-3.53-2.8-5-1.14-1.58-2.18-3.22-3.3-4.81-0.07-.09.08-0.2,0.16-0.12a39.65,39.65,0,0,0,4.5,3.88c1.47,1.21,2.83,2.7,4.37,3.81C1097.48,1326.59,1091.69,1329.64,1091.14,1326.4Zm-13.42,11.19c-0.42-.74-1.91-1.4-2.6-1.85-0.79-.53-1.59-1.05-2.34-1.62a11.909,11.909,0,0,1-2.95-3.14,0.17,0.17,0,0,1,.27-0.2c0.99,1.06,3.16,1.53,4.49,2.05,0.83,0.33,1.67.66,2.51,1a9.181,9.181,0,0,0,2.26.92A1.891,1.891,0,1,1,1077.72,1337.59Zm-8,28.71c-4.38.68-9.04,3.13-13.52,2.18a0.271,0.271,0,0,1,0-.52c4.25-1.47,8.28-3.74,12.59-5C1071,1362.31,1071.89,1365.97,1069.72,1366.3Zm2.32,21.09c0.83-.74,1.68-1.46,2.53-2.19a29.946,29.946,0,0,1,5.33-4.15c2.38-1.21,3.8,2.63,1.37,3.23a33.126,33.126,0,0,0-7.05,2.93c-1.2.61-2.86,1.78-4.24,1.88-0.06,0-.07-0.09-0.02-0.1A5.473,5.473,0,0,0,1072.04,1387.39Zm19.8,18.79c0.74-1.15,1.39-2.37,2.03-3.58,1.03-1.96,4.04.15,2.47,1.9-1.66,1.84-3.67,3.93-5.97,4.97-0.37.17-.83-0.3-0.47-0.61A12.311,12.311,0,0,0,1091.84,1406.18Zm28.9,2.23a24.156,24.156,0,0,0,1.12,5.88,35.8,35.8,0,0,0,1.85,6.12,0.406,0.406,0,0,1-.7.41,38.923,38.923,0,0,1-3.06-5.14c-0.89-2.09-1.41-4.37-2.39-6.41C1116.28,1406.64,1120.72,1405.72,1120.74,1408.41Zm20.8-9.76c0.55,1.33,1.62,2.57,2.29,3.87,0.69,1.32,1.31,2.67,1.91,4.03a0.85,0.85,0,0,1-1.47.85c-0.73-1.18-1.48-2.35-2.28-3.48-0.79-1.11-1.68-2.69-2.86-3.43C1136.7,1398.99,1140.33,1395.72,1141.54,1398.65Z" transform="translate(-1056 -1310)"/>
</svg>