<svg width="50" height="50" viewBox="0 0 50 50" fill="none" xmlns="http://www.w3.org/2000/svg">
<mask id="path-1-inside-1" fill="white">
<path d="M14.6924 30.469C15.4225 30.1007 16.2986 30.3757 16.6872 31.0953L19.4449 36.2017C19.6574 36.5952 20.1101 36.7938 20.5436 36.6844C20.9771 36.5749 21.2808 36.1848 21.2808 35.7377V28.2815C21.2807 27.7423 20.8435 27.305 20.3041 27.305C19.7648 27.305 19.3275 27.7424 19.3275 28.2816V31.8744L18.4057 30.1674C17.5109 28.5108 15.4933 27.8771 13.8126 28.7254C12.3742 29.451 11.6335 31.0516 12.0113 32.6177L13.7991 40.028C14.217 41.7602 14.962 43.368 16.0134 44.8068L19.5157 49.5995C19.7069 49.8612 20.0039 50 20.305 50C20.5049 50 20.7066 49.9387 20.8804 49.8118C21.3158 49.4935 21.4109 48.8825 21.0927 48.447L17.5903 43.6544C16.6917 42.4247 16.055 41.0506 15.6979 39.57L13.9101 32.1596C13.7459 31.4794 14.0677 30.7842 14.6924 30.469Z"/>
<path d="M36.7411 26.3067C36.1648 26.3067 35.6223 26.4543 35.1493 26.7134C34.6701 25.4651 33.4596 24.5764 32.0447 24.5764C31.4344 24.5764 30.8625 24.7424 30.3704 25.0305C29.8445 23.8861 28.6881 23.0891 27.3484 23.0891C26.8594 23.0891 26.3952 23.196 25.9768 23.3863V18.7173C25.9768 16.8841 24.4854 15.3926 22.6521 15.3926C20.8188 15.3926 19.3274 16.884 19.3274 18.7173V20.4101C19.3274 20.9493 19.7646 21.3866 20.3039 21.3866C20.8433 21.3866 21.2805 20.9493 21.2805 20.4101V18.7174C21.2805 17.9611 21.8958 17.3458 22.6521 17.3458C23.4083 17.3458 24.0237 17.9611 24.0237 18.7174V32.4974C24.0237 33.0366 24.4609 33.4739 25.0002 33.4739C25.5396 33.4739 25.9768 33.0366 25.9768 32.4974V26.4137C25.9768 25.6574 26.592 25.0421 27.3484 25.0421C28.1047 25.0421 28.72 25.6574 28.72 26.4137V32.4974C28.72 33.0366 29.1572 33.4739 29.6965 33.4739C30.2359 33.4739 30.6731 33.0366 30.6731 32.4974V27.9011C30.6731 27.1447 31.2883 26.5294 32.0447 26.5294C32.801 26.5294 33.4162 27.1447 33.4162 27.9011V32.4974C33.4162 33.0366 33.8535 33.4739 34.3928 33.4739C34.9322 33.4739 35.3694 33.0366 35.3694 32.4974V29.6312C35.3694 28.875 35.9847 28.2597 36.741 28.2597C37.4972 28.2597 38.1125 28.875 38.1125 29.6312V37.8714C38.1125 40.0671 37.7793 42.2429 37.1223 44.338L35.7448 48.7308C35.5834 49.2454 35.8698 49.7934 36.3844 49.9548C36.4817 49.9853 36.58 49.9998 36.6769 49.9998C37.0923 49.9997 37.4776 49.7325 37.6084 49.3151L38.986 44.9224C39.7024 42.6378 40.0657 40.2654 40.0657 37.8714V29.6312C40.0658 27.7982 38.5744 26.3067 36.7411 26.3067Z"/>
<path d="M49.9184 5.17861C49.7235 4.5791 49.2148 4.15049 48.5909 4.05996L45.5998 3.62627L44.2614 0.916113C43.9824 0.350977 43.4175 0 42.7873 0C42.7874 0 42.7872 0 42.7873 0C42.1569 9.76563e-05 41.5916 0.351465 41.3128 0.916895L39.9759 3.62764L36.985 4.06309C36.3612 4.15391 35.8527 4.58281 35.6581 5.18252C35.4635 5.78213 35.6232 6.42783 36.0746 6.86768L38.2396 8.97686L37.7294 11.956C37.6231 12.5773 37.8739 13.1935 38.3839 13.5638C38.672 13.773 39.009 13.8792 39.3483 13.8792C39.6097 13.8792 39.8725 13.8161 40.1153 13.6885L42.7902 12.2812L45.4659 13.6871C46.0239 13.9805 46.6874 13.9322 47.1972 13.5614C47.7071 13.1907 47.9576 12.5746 47.8507 11.9532L47.339 8.97441L49.5028 6.86416C49.9541 6.42393 50.1133 5.77803 49.9184 5.17861ZM45.8591 7.68955C45.4715 8.06738 45.295 8.61152 45.3867 9.14492L45.8199 11.6667L43.5548 10.4767C43.0756 10.2247 42.5036 10.225 42.0246 10.477L39.7601 11.6683L40.192 9.14609C40.2832 8.61269 40.1064 8.06885 39.7187 7.69111L37.8859 5.90557L40.4181 5.53701C40.9536 5.45898 41.4162 5.12266 41.6556 4.63721L42.7874 2.34248L43.9205 4.63652C44.1601 5.12188 44.6229 5.45791 45.1586 5.53574L47.6909 5.90303L45.8591 7.68955Z"/>
<path d="M32.1302 5.17861C31.9353 4.5791 31.4267 4.15039 30.8028 4.05996L27.8117 3.62627L26.4733 0.916113C26.1942 0.350977 25.6294 0 24.9992 0C24.9993 0 24.9991 0 24.9992 0C24.3688 9.76563e-05 23.8034 0.351465 23.5246 0.916895L22.1877 3.62764L19.1968 4.06309C18.573 4.15391 18.0645 4.58281 17.8699 5.18252C17.6753 5.78213 17.835 6.42783 18.2864 6.86768L20.4513 8.97676L19.9411 11.9559C19.8348 12.5772 20.0856 13.1934 20.5956 13.5637C20.8837 13.7729 21.2207 13.8791 21.56 13.8791C21.8214 13.8791 22.0842 13.816 22.327 13.6884L25.002 12.2812L27.6777 13.687C28.2357 13.9804 28.8992 13.9321 29.409 13.5613C29.9189 13.1906 30.1694 12.5745 30.0625 11.9531L29.5508 8.97432L31.7146 6.86406C32.1659 6.42393 32.3251 5.77812 32.1302 5.17861ZM28.071 7.68955C27.6835 8.06728 27.507 8.61133 27.5986 9.14492L28.0318 11.6667L25.7667 10.4767C25.2874 10.2248 24.7153 10.2249 24.2365 10.477L21.9719 11.6683L22.4038 9.14609C22.495 8.6126 22.3182 8.06875 21.9305 7.69111L20.0978 5.90557L22.6299 5.53701C23.1654 5.45898 23.6281 5.12266 23.8675 4.63721L24.9993 2.34238L26.1324 4.63652C26.3719 5.12178 26.8347 5.45791 27.3705 5.53574L29.9028 5.90303L28.071 7.68955Z"/>
<path d="M14.3419 5.17861C14.1469 4.5791 13.6382 4.15049 13.0143 4.05996L10.0232 3.62627L8.68491 0.916113C8.4058 0.350977 7.84106 0 7.21078 0C7.21098 0 7.21068 0 7.21078 0C6.58041 9.76563e-05 6.01508 0.351465 5.73627 0.916895L4.39935 3.62764L1.40843 4.06309C0.784597 4.15391 0.276197 4.58281 0.0815682 5.18242C-0.113061 5.78203 0.0464119 6.42773 0.497975 6.86768L2.66292 8.97686L2.15276 11.956C2.04642 12.5773 2.2972 13.1935 2.80726 13.5639C3.09544 13.773 3.43236 13.8793 3.77171 13.8792C4.03314 13.8792 4.29593 13.8161 4.53871 13.6885L7.21371 12.2813L9.8894 13.6871C10.4475 13.9803 11.1109 13.9321 11.6208 13.5615C12.1306 13.1907 12.381 12.5744 12.2743 11.9531L11.7625 8.97432L13.9263 6.86406C14.3775 6.42393 14.5368 5.77812 14.3419 5.17861ZM10.2827 7.68945C9.89506 8.06719 9.7184 8.61133 9.8101 9.14492L10.2433 11.6667L7.97836 10.4767C7.49916 10.2248 6.92699 10.2249 6.44808 10.477L4.18343 11.6684L4.61527 9.14639C4.70667 8.61299 4.52982 8.06904 4.14203 7.69121L2.3094 5.90557L4.84154 5.53701C5.37699 5.45898 5.83968 5.12266 6.07904 4.63721L7.21088 2.34238L8.34389 4.63652C8.58344 5.12178 9.04624 5.45791 9.58208 5.53574L12.1144 5.90303L10.2827 7.68945Z"/>
<path d="M20.9946 23.7431C20.8129 23.5614 20.5611 23.457 20.3041 23.457C20.0473 23.457 19.7954 23.5614 19.6137 23.7431C19.4321 23.9248 19.3276 24.1766 19.3276 24.4335C19.3276 24.6904 19.4321 24.9423 19.6137 25.1239C19.7954 25.3055 20.0473 25.4101 20.3041 25.4101C20.561 25.4101 20.8129 25.3056 20.9946 25.1239C21.1762 24.9423 21.2807 24.6904 21.2807 24.4335C21.2807 24.1765 21.1762 23.9247 20.9946 23.7431Z"/>
</mask>
<path d="M14.6924 30.469C15.4225 30.1007 16.2986 30.3757 16.6872 31.0953L19.4449 36.2017C19.6574 36.5952 20.1101 36.7938 20.5436 36.6844C20.9771 36.5749 21.2808 36.1848 21.2808 35.7377V28.2815C21.2807 27.7423 20.8435 27.305 20.3041 27.305C19.7648 27.305 19.3275 27.7424 19.3275 28.2816V31.8744L18.4057 30.1674C17.5109 28.5108 15.4933 27.8771 13.8126 28.7254C12.3742 29.451 11.6335 31.0516 12.0113 32.6177L13.7991 40.028C14.217 41.7602 14.962 43.368 16.0134 44.8068L19.5157 49.5995C19.7069 49.8612 20.0039 50 20.305 50C20.5049 50 20.7066 49.9387 20.8804 49.8118C21.3158 49.4935 21.4109 48.8825 21.0927 48.447L17.5903 43.6544C16.6917 42.4247 16.055 41.0506 15.6979 39.57L13.9101 32.1596C13.7459 31.4794 14.0677 30.7842 14.6924 30.469Z" fill="#F4B71A"/>
<path d="M36.7411 26.3067C36.1648 26.3067 35.6223 26.4543 35.1493 26.7134C34.6701 25.4651 33.4596 24.5764 32.0447 24.5764C31.4344 24.5764 30.8625 24.7424 30.3704 25.0305C29.8445 23.8861 28.6881 23.0891 27.3484 23.0891C26.8594 23.0891 26.3952 23.196 25.9768 23.3863V18.7173C25.9768 16.8841 24.4854 15.3926 22.6521 15.3926C20.8188 15.3926 19.3274 16.884 19.3274 18.7173V20.4101C19.3274 20.9493 19.7646 21.3866 20.3039 21.3866C20.8433 21.3866 21.2805 20.9493 21.2805 20.4101V18.7174C21.2805 17.9611 21.8958 17.3458 22.6521 17.3458C23.4083 17.3458 24.0237 17.9611 24.0237 18.7174V32.4974C24.0237 33.0366 24.4609 33.4739 25.0002 33.4739C25.5396 33.4739 25.9768 33.0366 25.9768 32.4974V26.4137C25.9768 25.6574 26.592 25.0421 27.3484 25.0421C28.1047 25.0421 28.72 25.6574 28.72 26.4137V32.4974C28.72 33.0366 29.1572 33.4739 29.6965 33.4739C30.2359 33.4739 30.6731 33.0366 30.6731 32.4974V27.9011C30.6731 27.1447 31.2883 26.5294 32.0447 26.5294C32.801 26.5294 33.4162 27.1447 33.4162 27.9011V32.4974C33.4162 33.0366 33.8535 33.4739 34.3928 33.4739C34.9322 33.4739 35.3694 33.0366 35.3694 32.4974V29.6312C35.3694 28.875 35.9847 28.2597 36.741 28.2597C37.4972 28.2597 38.1125 28.875 38.1125 29.6312V37.8714C38.1125 40.0671 37.7793 42.2429 37.1223 44.338L35.7448 48.7308C35.5834 49.2454 35.8698 49.7934 36.3844 49.9548C36.4817 49.9853 36.58 49.9998 36.6769 49.9998C37.0923 49.9997 37.4776 49.7325 37.6084 49.3151L38.986 44.9224C39.7024 42.6378 40.0657 40.2654 40.0657 37.8714V29.6312C40.0658 27.7982 38.5744 26.3067 36.7411 26.3067Z" fill="#F4B71A"/>
<path d="M49.9184 5.17861C49.7235 4.5791 49.2148 4.15049 48.5909 4.05996L45.5998 3.62627L44.2614 0.916113C43.9824 0.350977 43.4175 0 42.7873 0C42.7874 0 42.7872 0 42.7873 0C42.1569 9.76563e-05 41.5916 0.351465 41.3128 0.916895L39.9759 3.62764L36.985 4.06309C36.3612 4.15391 35.8527 4.58281 35.6581 5.18252C35.4635 5.78213 35.6232 6.42783 36.0746 6.86768L38.2396 8.97686L37.7294 11.956C37.6231 12.5773 37.8739 13.1935 38.3839 13.5638C38.672 13.773 39.009 13.8792 39.3483 13.8792C39.6097 13.8792 39.8725 13.8161 40.1153 13.6885L42.7902 12.2812L45.4659 13.6871C46.0239 13.9805 46.6874 13.9322 47.1972 13.5614C47.7071 13.1907 47.9576 12.5746 47.8507 11.9532L47.339 8.97441L49.5028 6.86416C49.9541 6.42393 50.1133 5.77803 49.9184 5.17861ZM45.8591 7.68955C45.4715 8.06738 45.295 8.61152 45.3867 9.14492L45.8199 11.6667L43.5548 10.4767C43.0756 10.2247 42.5036 10.225 42.0246 10.477L39.7601 11.6683L40.192 9.14609C40.2832 8.61269 40.1064 8.06885 39.7187 7.69111L37.8859 5.90557L40.4181 5.53701C40.9536 5.45898 41.4162 5.12266 41.6556 4.63721L42.7874 2.34248L43.9205 4.63652C44.1601 5.12188 44.6229 5.45791 45.1586 5.53574L47.6909 5.90303L45.8591 7.68955Z" fill="#F4B71A"/>
<path d="M32.1302 5.17861C31.9353 4.5791 31.4267 4.15039 30.8028 4.05996L27.8117 3.62627L26.4733 0.916113C26.1942 0.350977 25.6294 0 24.9992 0C24.9993 0 24.9991 0 24.9992 0C24.3688 9.76563e-05 23.8034 0.351465 23.5246 0.916895L22.1877 3.62764L19.1968 4.06309C18.573 4.15391 18.0645 4.58281 17.8699 5.18252C17.6753 5.78213 17.835 6.42783 18.2864 6.86768L20.4513 8.97676L19.9411 11.9559C19.8348 12.5772 20.0856 13.1934 20.5956 13.5637C20.8837 13.7729 21.2207 13.8791 21.56 13.8791C21.8214 13.8791 22.0842 13.816 22.327 13.6884L25.002 12.2812L27.6777 13.687C28.2357 13.9804 28.8992 13.9321 29.409 13.5613C29.9189 13.1906 30.1694 12.5745 30.0625 11.9531L29.5508 8.97432L31.7146 6.86406C32.1659 6.42393 32.3251 5.77812 32.1302 5.17861ZM28.071 7.68955C27.6835 8.06728 27.507 8.61133 27.5986 9.14492L28.0318 11.6667L25.7667 10.4767C25.2874 10.2248 24.7153 10.2249 24.2365 10.477L21.9719 11.6683L22.4038 9.14609C22.495 8.6126 22.3182 8.06875 21.9305 7.69111L20.0978 5.90557L22.6299 5.53701C23.1654 5.45898 23.6281 5.12266 23.8675 4.63721L24.9993 2.34238L26.1324 4.63652C26.3719 5.12178 26.8347 5.45791 27.3705 5.53574L29.9028 5.90303L28.071 7.68955Z" fill="#F4B71A"/>
<path d="M14.3419 5.17861C14.1469 4.5791 13.6382 4.15049 13.0143 4.05996L10.0232 3.62627L8.68491 0.916113C8.4058 0.350977 7.84106 0 7.21078 0C7.21098 0 7.21068 0 7.21078 0C6.58041 9.76563e-05 6.01508 0.351465 5.73627 0.916895L4.39935 3.62764L1.40843 4.06309C0.784597 4.15391 0.276197 4.58281 0.0815682 5.18242C-0.113061 5.78203 0.0464119 6.42773 0.497975 6.86768L2.66292 8.97686L2.15276 11.956C2.04642 12.5773 2.2972 13.1935 2.80726 13.5639C3.09544 13.773 3.43236 13.8793 3.77171 13.8792C4.03314 13.8792 4.29593 13.8161 4.53871 13.6885L7.21371 12.2813L9.8894 13.6871C10.4475 13.9803 11.1109 13.9321 11.6208 13.5615C12.1306 13.1907 12.381 12.5744 12.2743 11.9531L11.7625 8.97432L13.9263 6.86406C14.3775 6.42393 14.5368 5.77812 14.3419 5.17861ZM10.2827 7.68945C9.89506 8.06719 9.7184 8.61133 9.8101 9.14492L10.2433 11.6667L7.97836 10.4767C7.49916 10.2248 6.92699 10.2249 6.44808 10.477L4.18343 11.6684L4.61527 9.14639C4.70667 8.61299 4.52982 8.06904 4.14203 7.69121L2.3094 5.90557L4.84154 5.53701C5.37699 5.45898 5.83968 5.12266 6.07904 4.63721L7.21088 2.34238L8.34389 4.63652C8.58344 5.12178 9.04624 5.45791 9.58208 5.53574L12.1144 5.90303L10.2827 7.68945Z" fill="#F4B71A"/>
<path d="M20.9946 23.7431C20.8129 23.5614 20.5611 23.457 20.3041 23.457C20.0473 23.457 19.7954 23.5614 19.6137 23.7431C19.4321 23.9248 19.3276 24.1766 19.3276 24.4335C19.3276 24.6904 19.4321 24.9423 19.6137 25.1239C19.7954 25.3055 20.0473 25.4101 20.3041 25.4101C20.561 25.4101 20.8129 25.3056 20.9946 25.1239C21.1762 24.9423 21.2807 24.6904 21.2807 24.4335C21.2807 24.1765 21.1762 23.9247 20.9946 23.7431Z" fill="#F4B71A"/>
<path d="M14.6924 30.469L14.2419 29.5762L14.2419 29.5762L14.6924 30.469ZM16.6872 31.0953L15.8073 31.5705L15.8073 31.5705L16.6872 31.0953ZM19.4449 36.2017L18.565 36.6769L18.5651 36.6769L19.4449 36.2017ZM20.5436 36.6844L20.7882 37.6541L20.7886 37.6539L20.5436 36.6844ZM21.2808 28.2815H22.2808V28.2813L21.2808 28.2815ZM19.3275 31.8744L18.4477 32.3496L20.3275 31.8744H19.3275ZM18.4057 30.1674L19.2856 29.6922L19.2855 29.6921L18.4057 30.1674ZM13.8126 28.7254L14.263 29.6182L14.2632 29.6181L13.8126 28.7254ZM12.0113 32.6177L11.0392 32.8523L11.0392 32.8523L12.0113 32.6177ZM13.7991 40.028L14.7712 39.7935L14.7712 39.7935L13.7991 40.028ZM16.0134 44.8068L15.206 45.3968L15.206 45.3968L16.0134 44.8068ZM19.5157 49.5995L20.3232 49.0096L20.3231 49.0095L19.5157 49.5995ZM20.8804 49.8118L21.4704 50.6192L21.4705 50.6191L20.8804 49.8118ZM21.0927 48.447L20.2853 49.0371L20.2853 49.0371L21.0927 48.447ZM17.5903 43.6544L18.3977 43.0643L18.3977 43.0643L17.5903 43.6544ZM15.6979 39.57L16.67 39.3355L16.67 39.3355L15.6979 39.57ZM13.9101 32.1596L14.8822 31.9251L14.8822 31.9251L13.9101 32.1596ZM35.1493 26.7134L34.2157 27.0718L34.6259 28.1402L35.6296 27.5904L35.1493 26.7134ZM30.3704 25.0305L29.4618 25.4481L29.9229 26.4512L30.8757 25.8935L30.3704 25.0305ZM25.9768 23.3863H24.9768V24.9397L26.3908 24.2966L25.9768 23.3863ZM37.1223 44.338L36.1681 44.0387V44.0388L37.1223 44.338ZM35.7448 48.7308L34.7906 48.4315L34.7906 48.4316L35.7448 48.7308ZM36.3844 49.9548L36.6842 49.0008L36.6835 49.0006L36.3844 49.9548ZM36.6769 49.9998V50.9998H36.6771L36.6769 49.9998ZM37.6084 49.3151L36.6543 49.0159L36.6542 49.016L37.6084 49.3151ZM38.986 44.9224L39.9402 45.2216L39.9402 45.2216L38.986 44.9224ZM40.0657 29.6312L39.0657 29.6312V29.6312H40.0657ZM49.9184 5.17861L48.9674 5.48782L48.9674 5.48786L49.9184 5.17861ZM48.5909 4.05996L48.7345 3.07032L48.7344 3.07031L48.5909 4.05996ZM45.5998 3.62627L44.7031 4.06906L44.9359 4.54048L45.4563 4.61592L45.5998 3.62627ZM44.2614 0.916113L43.3647 1.3588L43.3647 1.3589L44.2614 0.916113ZM41.3128 0.916895L42.2097 1.35922L42.2097 1.35915L41.3128 0.916895ZM39.9759 3.62764L40.12 4.6172L40.6402 4.54146L40.8728 4.06996L39.9759 3.62764ZM36.985 4.06309L37.1291 5.05265L37.1291 5.05265L36.985 4.06309ZM35.6581 5.18252L36.6093 5.49126L36.6093 5.49107L35.6581 5.18252ZM36.0746 6.86768L35.3768 7.58394L35.3768 7.58395L36.0746 6.86768ZM38.2396 8.97686L39.2252 9.14564L39.314 8.62745L38.9374 8.26058L38.2396 8.97686ZM37.7294 11.956L36.7438 11.7872L36.7438 11.7873L37.7294 11.956ZM38.3839 13.5638L38.9716 12.7547L38.9714 12.7546L38.3839 13.5638ZM40.1153 13.6885L40.5806 14.5736L40.5809 14.5735L40.1153 13.6885ZM42.7902 12.2812L43.2553 11.396L42.7899 11.1515L42.3246 11.3962L42.7902 12.2812ZM45.4659 13.6871L45.9312 12.802L45.931 12.8019L45.4659 13.6871ZM47.1972 13.5614L46.6092 12.7526L46.6091 12.7527L47.1972 13.5614ZM47.8507 11.9532L46.8652 12.1225L46.8652 12.1227L47.8507 11.9532ZM47.339 8.97441L46.6408 8.25851L46.2644 8.62558L46.3535 9.14372L47.339 8.97441ZM49.5028 6.86416L50.201 7.58007L50.2011 7.57997L49.5028 6.86416ZM45.8591 7.68955L46.5572 8.40562L46.5573 8.40544L45.8591 7.68955ZM45.3867 9.14492L46.3722 8.97562L46.3722 8.97549L45.3867 9.14492ZM45.8199 11.6667L45.3548 12.552L47.1485 13.4944L46.8054 11.4974L45.8199 11.6667ZM43.5548 10.4767L43.0895 11.3618L43.0897 11.3619L43.5548 10.4767ZM42.0246 10.477L41.559 9.59192L41.559 9.59195L42.0246 10.477ZM39.7601 11.6683L38.7744 11.4995L38.4324 13.4967L40.2257 12.5533L39.7601 11.6683ZM40.192 9.14609L41.1777 9.31489L41.1777 9.31465L40.192 9.14609ZM39.7187 7.69111L40.4165 6.97486L40.4165 6.97483L39.7187 7.69111ZM37.8859 5.90557L37.7418 4.91599L35.7366 5.20784L37.1881 6.62185L37.8859 5.90557ZM40.4181 5.53701L40.5621 6.52659L40.5623 6.52656L40.4181 5.53701ZM41.6556 4.63721L40.7588 4.19485L40.7587 4.19498L41.6556 4.63721ZM42.7874 2.34248L43.6841 1.89965L42.7868 0.0830552L41.8906 1.90013L42.7874 2.34248ZM43.9205 4.63652L44.8171 4.19379L44.8171 4.1937L43.9205 4.63652ZM45.1586 5.53574L45.0149 6.52535L45.0151 6.52539L45.1586 5.53574ZM47.6909 5.90303L48.3891 6.61892L49.8396 5.20422L47.8344 4.91338L47.6909 5.90303ZM30.8028 4.05996L30.6593 5.04961L30.6593 5.04962L30.8028 4.05996ZM27.8117 3.62627L26.915 4.06906L27.1478 4.54048L27.6682 4.61592L27.8117 3.62627ZM26.4733 0.916113L27.3699 0.473325L27.3699 0.473305L26.4733 0.916113ZM23.5246 0.916895L24.4215 1.35922L24.4215 1.35914L23.5246 0.916895ZM22.1877 3.62764L22.3318 4.6172L22.852 4.54146L23.0846 4.06996L22.1877 3.62764ZM19.1968 4.06309L19.3409 5.05265L19.3409 5.05265L19.1968 4.06309ZM17.8699 5.18252L18.8211 5.49126L18.8211 5.49107L17.8699 5.18252ZM18.2864 6.86768L17.5886 7.58394L17.5886 7.58395L18.2864 6.86768ZM20.4513 8.97676L21.4369 9.14555L21.5257 8.62735L21.1491 8.26048L20.4513 8.97676ZM19.9411 11.9559L18.9555 11.7871L18.9555 11.7872L19.9411 11.9559ZM20.5956 13.5637L21.1834 12.7546L21.1831 12.7545L20.5956 13.5637ZM22.327 13.6884L22.7923 14.5735L22.7925 14.5734L22.327 13.6884ZM25.002 12.2812L25.4671 11.396L25.0017 11.1515L24.5364 11.3962L25.002 12.2812ZM27.6777 13.687L28.143 12.8019L28.1428 12.8018L27.6777 13.687ZM29.409 13.5613L28.821 12.7525L28.8209 12.7526L29.409 13.5613ZM30.0625 11.9531L29.077 12.1224L29.077 12.1226L30.0625 11.9531ZM29.5508 8.97432L28.8526 8.25841L28.4762 8.62548L28.5653 9.14362L29.5508 8.97432ZM31.7146 6.86406L32.4128 7.57997L32.4128 7.57995L31.7146 6.86406ZM28.071 7.68955L28.7691 8.40562L28.7692 8.40544L28.071 7.68955ZM27.5986 9.14492L26.613 9.31412L26.613 9.31423L27.5986 9.14492ZM28.0318 11.6667L27.5667 12.552L29.3604 13.4944L29.0173 11.4974L28.0318 11.6667ZM25.7667 10.4767L25.3016 11.3619L25.3016 11.3619L25.7667 10.4767ZM24.2365 10.477L24.702 11.362L24.7023 11.3618L24.2365 10.477ZM21.9719 11.6683L20.9862 11.4995L20.6442 13.4966L22.4375 12.5533L21.9719 11.6683ZM22.4038 9.14609L23.3895 9.31489L23.3895 9.31462L22.4038 9.14609ZM21.9305 7.69111L21.2327 8.40738L21.2327 8.40745L21.9305 7.69111ZM20.0978 5.90557L19.9537 4.91599L17.9486 5.20784L19.4 6.62183L20.0978 5.90557ZM22.6299 5.53701L22.7739 6.52658L22.7741 6.52656L22.6299 5.53701ZM23.8675 4.63721L24.7643 5.07958L24.7644 5.07954L23.8675 4.63721ZM24.9993 2.34238L25.896 1.89957L24.9987 0.082879L24.1025 1.90005L24.9993 2.34238ZM26.1324 4.63652L27.029 4.19386L27.029 4.19371L26.1324 4.63652ZM27.3705 5.53574L27.2268 6.52536L27.227 6.52539L27.3705 5.53574ZM29.9028 5.90303L30.601 6.61891L32.0515 5.20422L30.0463 4.91338L29.9028 5.90303ZM13.0143 4.05996L13.1579 3.07032L13.1578 3.07031L13.0143 4.05996ZM10.0232 3.62627L9.12655 4.06903L9.35935 4.54047L9.8797 4.61592L10.0232 3.62627ZM8.68491 0.916113L9.58154 0.47335L9.58152 0.473305L8.68491 0.916113ZM5.73627 0.916895L6.63312 1.35922L6.63316 1.35915L5.73627 0.916895ZM4.39935 3.62764L4.54342 4.6172L5.06366 4.54146L5.29621 4.06996L4.39935 3.62764ZM1.40843 4.06309L1.55249 5.05265L1.5525 5.05265L1.40843 4.06309ZM0.497975 6.86768L-0.199854 7.58394L-0.199846 7.58395L0.497975 6.86768ZM2.66292 8.97686L3.64857 9.14564L3.73731 8.62745L3.36074 8.26058L2.66292 8.97686ZM2.15276 11.956L1.16711 11.7872L1.1671 11.7873L2.15276 11.956ZM2.80726 13.5639L2.21965 14.373L2.21984 14.3731L2.80726 13.5639ZM3.77171 13.8792V12.8792H3.77142L3.77171 13.8792ZM4.53871 13.6885L5.00406 14.5736L5.00425 14.5735L4.53871 13.6885ZM7.21371 12.2813L7.67881 11.3961L7.21343 11.1516L6.74816 11.3963L7.21371 12.2813ZM9.8894 13.6871L9.4243 14.5724L9.42437 14.5724L9.8894 13.6871ZM11.6208 13.5615L12.2087 14.3704L12.2089 14.3703L11.6208 13.5615ZM12.2743 11.9531L11.2887 12.1224L11.2887 12.1224L12.2743 11.9531ZM11.7625 8.97432L11.0644 8.25841L10.688 8.62548L10.777 9.14362L11.7625 8.97432ZM13.9263 6.86406L14.6245 7.57997L14.6246 7.57987L13.9263 6.86406ZM10.2827 7.68945L10.9806 8.40561L10.9809 8.40536L10.2827 7.68945ZM9.8101 9.14492L10.7957 8.97562L10.7957 8.97555L9.8101 9.14492ZM10.2433 11.6667L9.77818 12.5519L11.5719 13.4944L11.2289 11.4974L10.2433 11.6667ZM7.97836 10.4767L7.51313 11.3618L7.51324 11.3619L7.97836 10.4767ZM6.44808 10.477L6.91367 11.362L6.91382 11.3619L6.44808 10.477ZM4.18343 11.6684L3.19778 11.4996L2.8558 13.4968L4.64902 12.5534L4.18343 11.6684ZM4.61527 9.14639L3.62964 8.97748L3.62961 8.97761L4.61527 9.14639ZM4.14203 7.69121L3.44416 8.40744L3.44418 8.40746L4.14203 7.69121ZM2.3094 5.90557L2.16537 4.91599L0.16037 5.20782L1.61154 6.62179L2.3094 5.90557ZM4.84154 5.53701L4.98557 6.52658L4.98574 6.52656L4.84154 5.53701ZM6.07904 4.63721L5.18219 4.19487L5.18214 4.19498L6.07904 4.63721ZM7.21088 2.34238L8.10749 1.89957L7.21028 0.0828794L6.31403 1.90005L7.21088 2.34238ZM8.34389 4.63652L9.24058 4.19386L9.2405 4.19371L8.34389 4.63652ZM9.58208 5.53574L9.43833 6.52536L9.43854 6.52539L9.58208 5.53574ZM12.1144 5.90303L12.8126 6.61893L14.2632 5.20422L12.2579 4.91338L12.1144 5.90303ZM20.9946 23.7431L20.2873 24.45L20.2877 24.4504L20.9946 23.7431ZM19.6137 25.1239L20.3208 24.4168L20.3206 24.4166L19.6137 25.1239ZM20.9946 25.1239L20.2877 24.4166L20.2873 24.417L20.9946 25.1239ZM15.1428 31.3618C15.3895 31.2374 15.676 31.3273 15.8073 31.5705L17.5671 30.6201C16.9213 29.4242 15.4554 28.9639 14.2419 29.5762L15.1428 31.3618ZM15.8073 31.5705L18.565 36.6769L20.3248 35.7265L17.5671 30.6201L15.8073 31.5705ZM18.5651 36.6769C18.9954 37.4737 19.9115 37.8753 20.7882 37.6541L20.2989 35.7148C20.3086 35.7124 20.3195 35.7167 20.3248 35.7265L18.5651 36.6769ZM20.7886 37.6539C21.6661 37.4322 22.2808 36.6427 22.2808 35.7377H20.2808C20.2808 35.727 20.288 35.7176 20.2985 35.7149L20.7886 37.6539ZM22.2808 35.7377V28.2815H20.2808V35.7377H22.2808ZM22.2808 28.2813C22.2806 27.1899 21.3957 26.305 20.3041 26.305V28.305C20.3027 28.305 20.2989 28.3046 20.2947 28.3028C20.2912 28.3013 20.289 28.2996 20.2876 28.2982C20.2862 28.2968 20.2845 28.2946 20.283 28.2911C20.2813 28.2869 20.2808 28.2831 20.2808 28.2817L22.2808 28.2813ZM20.3041 26.305C19.2124 26.305 18.3275 27.1901 18.3275 28.2816H20.3275C20.3275 28.283 20.3271 28.2869 20.3253 28.2911C20.3238 28.2946 20.3221 28.2968 20.3207 28.2982C20.3193 28.2996 20.3171 28.3013 20.3136 28.3028C20.3094 28.3046 20.3055 28.305 20.3041 28.305V26.305ZM18.3275 28.2816V31.8744H20.3275V28.2816H18.3275ZM20.2074 31.3992L19.2856 29.6922L17.5258 30.6425L18.4477 32.3496L20.2074 31.3992ZM19.2855 29.6921C18.1336 27.5594 15.5263 26.7403 13.362 27.8326L14.2632 29.6181C15.4602 29.014 16.8883 29.4622 17.5258 30.6426L19.2855 29.6921ZM13.3622 27.8326C11.5093 28.7673 10.5525 30.8348 11.0392 32.8523L12.9834 32.3832C12.7145 31.2685 13.2391 30.1347 14.263 29.6182L13.3622 27.8326ZM11.0392 32.8523L12.827 40.2625L14.7712 39.7935L12.9834 32.3832L11.0392 32.8523ZM12.827 40.2625C13.2758 42.123 14.0768 43.8516 15.206 45.3968L16.8208 44.2168C15.8472 42.8845 15.1582 41.3975 14.7712 39.7935L12.827 40.2625ZM15.206 45.3968L18.7083 50.1895L20.3231 49.0095L16.8208 44.2168L15.206 45.3968ZM18.7083 50.1894C19.0957 50.7197 19.6985 51 20.305 51V49C20.3076 49 20.3104 49.0005 20.3138 49.0022C20.3157 49.0031 20.3178 49.0044 20.3197 49.0061C20.3218 49.0078 20.3229 49.0092 20.3232 49.0096L18.7083 50.1894ZM20.305 51C20.71 51 21.1198 50.8754 21.4704 50.6192L20.2904 49.0044C20.291 49.0039 20.2934 49.0024 20.2969 49.0013C20.3001 49.0003 20.3029 49 20.305 49V51ZM21.4705 50.6191C22.3516 49.9751 22.5443 48.7385 21.9 47.857L20.2853 49.0371C20.2845 49.036 20.2826 49.0326 20.2816 49.0281C20.2807 49.0244 20.2808 49.0215 20.2811 49.0196C20.2814 49.0177 20.2821 49.015 20.2841 49.0118C20.2864 49.0079 20.2892 49.0053 20.2903 49.0044L21.4705 50.6191ZM21.9001 47.857L18.3977 43.0643L16.7829 44.2444L20.2853 49.0371L21.9001 47.857ZM18.3977 43.0643C17.5769 41.9411 16.9962 40.6878 16.67 39.3355L14.7257 39.8045C15.1138 41.4133 15.8065 42.9082 16.7829 44.2444L18.3977 43.0643ZM16.67 39.3355L14.8822 31.9251L12.9379 32.3942L14.7257 39.8045L16.67 39.3355ZM14.8822 31.9251C14.8269 31.6963 14.9325 31.4679 15.1429 31.3618L14.2419 29.5762C13.2028 30.1005 12.6649 31.2625 12.938 32.3942L14.8822 31.9251ZM36.7411 25.3067C35.9921 25.3067 35.2849 25.4989 34.6689 25.8363L35.6296 27.5904C35.9597 27.4097 36.3375 27.3067 36.7411 27.3067V25.3067ZM36.0828 26.355C35.4608 24.7346 33.8887 23.5764 32.0447 23.5764V25.5764C33.0305 25.5764 33.8794 26.1957 34.2157 27.0718L36.0828 26.355ZM32.0447 23.5764C31.2506 23.5764 30.5051 23.7929 29.8652 24.1675L30.8757 25.8935C31.22 25.6919 31.6182 25.5764 32.0447 25.5764V23.5764ZM31.2791 24.6128C30.5967 23.1283 29.0947 22.0891 27.3484 22.0891V24.0891C28.2815 24.0891 29.0922 24.6439 29.4618 25.4481L31.2791 24.6128ZM27.3484 22.0891C26.7121 22.0891 26.1071 22.2285 25.5628 22.4761L26.3908 24.2966C26.6834 24.1635 27.0067 24.0891 27.3484 24.0891V22.0891ZM26.9768 23.3863V18.7173H24.9768V23.3863H26.9768ZM26.9768 18.7173C26.9768 16.3318 25.0377 14.3926 22.6521 14.3926V16.3926C23.9331 16.3926 24.9768 17.4363 24.9768 18.7173H26.9768ZM22.6521 14.3926C20.2665 14.3926 18.3274 16.3317 18.3274 18.7173H20.3274C20.3274 17.4363 21.371 16.3926 22.6521 16.3926V14.3926ZM18.3274 18.7173V20.4101H20.3274V18.7173H18.3274ZM18.3274 20.4101C18.3274 21.5015 19.2122 22.3866 20.3039 22.3866V20.3866C20.3053 20.3866 20.3092 20.3871 20.3134 20.3889C20.3169 20.3904 20.3191 20.3921 20.3205 20.3935C20.3219 20.3949 20.3236 20.3971 20.3251 20.4006C20.3269 20.4048 20.3274 20.4086 20.3274 20.4101H18.3274ZM20.3039 22.3866C21.3956 22.3866 22.2805 21.5015 22.2805 20.4101H20.2805C20.2805 20.4086 20.281 20.4048 20.2827 20.4006C20.2842 20.3971 20.2859 20.3949 20.2873 20.3935C20.2887 20.3921 20.2909 20.3904 20.2945 20.3889C20.2987 20.3871 20.3025 20.3866 20.3039 20.3866V22.3866ZM22.2805 20.4101V18.7174H20.2805V20.4101H22.2805ZM22.2805 18.7174C22.2805 18.5134 22.4481 18.3458 22.6521 18.3458V16.3458C21.3435 16.3458 20.2805 17.4088 20.2805 18.7174H22.2805ZM22.6521 18.3458C22.856 18.3458 23.0237 18.5134 23.0237 18.7174H25.0237C25.0237 17.4088 23.9606 16.3458 22.6521 16.3458V18.3458ZM23.0237 18.7174V32.4974H25.0237V18.7174H23.0237ZM23.0237 32.4974C23.0237 33.5888 23.9085 34.4739 25.0002 34.4739V32.4739C25.0016 32.4739 25.0055 32.4744 25.0097 32.4762C25.0132 32.4777 25.0154 32.4794 25.0168 32.4808C25.0182 32.4822 25.0199 32.4844 25.0214 32.4879C25.0232 32.4921 25.0237 32.4959 25.0237 32.4974H23.0237ZM25.0002 34.4739C26.0919 34.4739 26.9768 33.5888 26.9768 32.4974H24.9768C24.9768 32.4959 24.9773 32.4921 24.979 32.4879C24.9805 32.4844 24.9822 32.4822 24.9836 32.4808C24.985 32.4794 24.9872 32.4777 24.9908 32.4762C24.995 32.4744 24.9988 32.4739 25.0002 32.4739V34.4739ZM26.9768 32.4974V26.4137H24.9768V32.4974H26.9768ZM26.9768 26.4137C26.9768 26.2097 27.1444 26.0421 27.3484 26.0421V24.0421C26.0397 24.0421 24.9768 25.1052 24.9768 26.4137H26.9768ZM27.3484 26.0421C27.5524 26.0421 27.72 26.2097 27.72 26.4137H29.72C29.72 25.1052 28.6571 24.0421 27.3484 24.0421V26.0421ZM27.72 26.4137V32.4974H29.72V26.4137H27.72ZM27.72 32.4974C27.72 33.5888 28.6048 34.4739 29.6965 34.4739V32.4739C29.6979 32.4739 29.7018 32.4744 29.706 32.4762C29.7095 32.4777 29.7117 32.4794 29.7131 32.4808C29.7145 32.4822 29.7162 32.4844 29.7177 32.4879C29.7195 32.4921 29.72 32.4959 29.72 32.4974H27.72ZM29.6965 34.4739C30.7882 34.4739 31.6731 33.5888 31.6731 32.4974H29.6731C29.6731 32.4959 29.6736 32.4921 29.6753 32.4879C29.6768 32.4844 29.6785 32.4822 29.6799 32.4808C29.6813 32.4794 29.6835 32.4777 29.6871 32.4762C29.6912 32.4744 29.6951 32.4739 29.6965 32.4739V34.4739ZM31.6731 32.4974V27.9011H29.6731V32.4974H31.6731ZM31.6731 27.9011C31.6731 27.6969 31.8407 27.5294 32.0447 27.5294V25.5294C30.7359 25.5294 29.6731 26.5925 29.6731 27.9011H31.6731ZM32.0447 27.5294C32.2486 27.5294 32.4162 27.6969 32.4162 27.9011H34.4162C34.4162 26.5925 33.3534 25.5294 32.0447 25.5294V27.5294ZM32.4162 27.9011V32.4974H34.4162V27.9011H32.4162ZM32.4162 32.4974C32.4162 33.5888 33.3011 34.4739 34.3928 34.4739V32.4739C34.3942 32.4739 34.3981 32.4744 34.4023 32.4762C34.4058 32.4777 34.408 32.4794 34.4094 32.4808C34.4108 32.4822 34.4125 32.4844 34.414 32.4879C34.4158 32.4921 34.4162 32.4959 34.4162 32.4974H32.4162ZM34.3928 34.4739C35.4845 34.4739 36.3694 33.5888 36.3694 32.4974H34.3694C34.3694 32.4959 34.3699 32.4921 34.3716 32.4879C34.3731 32.4844 34.3748 32.4822 34.3762 32.4808C34.3776 32.4794 34.3798 32.4777 34.3834 32.4762C34.3875 32.4744 34.3914 32.4739 34.3928 32.4739V34.4739ZM36.3694 32.4974V29.6312H34.3694V32.4974H36.3694ZM36.3694 29.6312C36.3694 29.4273 36.537 29.2597 36.741 29.2597V27.2597C35.4324 27.2597 34.3694 28.3227 34.3694 29.6312H36.3694ZM36.741 29.2597C36.9449 29.2597 37.1125 29.4273 37.1125 29.6312H39.1125C39.1125 28.3227 38.0495 27.2597 36.741 27.2597V29.2597ZM37.1125 29.6312V37.8714H39.1125V29.6312H37.1125ZM37.1125 37.8714C37.1125 39.9656 36.7948 42.0405 36.1681 44.0387L38.0765 44.6372C38.7639 42.4453 39.1125 40.1686 39.1125 37.8714H37.1125ZM36.1681 44.0388L34.7906 48.4315L36.699 49.03L38.0765 44.6372L36.1681 44.0388ZM34.7906 48.4316C34.4641 49.4731 35.0434 50.5824 36.0853 50.909L36.6835 49.0006C36.6849 49.001 36.6884 49.0026 36.6919 49.0056C36.6949 49.0081 36.6965 49.0104 36.6974 49.0121C36.6983 49.0139 36.6993 49.0165 36.6996 49.0203C36.7001 49.0248 36.6994 49.0286 36.699 49.0299L34.7906 48.4316ZM36.0846 50.9088C36.2805 50.9703 36.48 50.9998 36.6769 50.9998V48.9998C36.68 48.9998 36.6829 49.0004 36.6842 49.0008L36.0846 50.9088ZM36.6771 50.9998C37.5167 50.9996 38.2973 50.4607 38.5626 49.6143L36.6542 49.016C36.6545 49.0151 36.6556 49.0124 36.6579 49.0093C36.6599 49.0066 36.6619 49.0047 36.6636 49.0035C36.666 49.0018 36.6699 48.9998 36.6767 48.9998L36.6771 50.9998ZM38.5626 49.6144L39.9402 45.2216L38.0318 44.6231L36.6543 49.0159L38.5626 49.6144ZM39.9402 45.2216C40.6869 42.8402 41.0657 40.3669 41.0657 37.8714H39.0657C39.0657 40.1639 38.7178 42.4354 38.0318 44.6231L39.9402 45.2216ZM41.0657 37.8714V29.6312H39.0657V37.8714H41.0657ZM41.0657 29.6313C41.0658 27.2459 39.1266 25.3067 36.7411 25.3067V27.3067C38.0221 27.3067 39.0657 28.3505 39.0657 29.6312L41.0657 29.6313ZM50.8694 4.86941C50.5568 3.9078 49.735 3.21549 48.7345 3.07032L48.4473 5.0496C48.6946 5.08548 48.8902 5.2504 48.9674 5.48782L50.8694 4.86941ZM48.7344 3.07031L45.7432 2.63662L45.4563 4.61592L48.4474 5.04961L48.7344 3.07031ZM46.4964 3.18348L45.158 0.473324L43.3647 1.3589L44.7031 4.06906L46.4964 3.18348ZM45.1581 0.473429C44.7105 -0.433047 43.798 -1 42.7873 -1V1C43.037 1 43.2542 1.135 43.3647 1.3588L45.1581 0.473429ZM42.7873 -1H42.7873H42.7873H42.7873H42.7873C42.7873 -1 42.7873 -1 42.7873 -1C42.7873 -1 42.7873 -1 42.7873 -1C42.7873 -1 42.7873 -1 42.7873 -1C42.7873 0 42.7873 1 42.7873 1H42.7873H42.7873C42.7873 1 42.7873 1 42.7873 1H42.7873C42.7873 1 42.7873 1 42.7873 1C42.7873 1 42.7873 1 42.7873 1C42.7873 1 42.7873 1 42.7873 1C42.7873 1 42.7873 1 42.7873 1C42.7874 1 42.7874 1 42.7874 1C42.7874 1 42.7874 1 42.7874 1H42.7874C42.7874 1 42.7874 1 42.7874 1H42.7874H42.7874C42.7874 1 42.7874 0 42.7874 -1C42.7874 -1 42.7874 -1 42.7874 -1C42.7874 -1 42.7874 -1 42.7874 -1C42.7874 -1 42.7874 -1 42.7874 -1H42.7874H42.7874H42.7873H42.7873V1H42.7873H42.7874H42.7874H42.7874C42.7874 1 42.7874 1 42.7874 1C42.7874 1 42.7874 1 42.7874 1C42.7874 1 42.7874 1 42.7874 1C42.7874 0 42.7874 -1 42.7874 -1H42.7874H42.7874C42.7874 -1 42.7874 -1 42.7874 -1H42.7874C42.7874 -1 42.7874 -1 42.7874 -1C42.7874 -1 42.7874 -1 42.7873 -1C42.7873 -1 42.7873 -1 42.7873 -1C42.7873 -1 42.7873 -1 42.7873 -1C42.7873 -1 42.7873 -1 42.7873 -1C42.7873 -1 42.7873 -1 42.7873 -1H42.7873C42.7873 -1 42.7873 -1 42.7873 -1H42.7873H42.7873C42.7873 -1 42.7873 0 42.7873 1C42.7873 1 42.7873 1 42.7873 1C42.7873 1 42.7873 1 42.7873 1C42.7873 1 42.7873 1 42.7873 1H42.7873H42.7873H42.7873H42.7873V-1ZM42.7872 -1C41.7762 -0.999843 40.8632 -0.43245 40.4159 0.474644L42.2097 1.35915C42.3201 1.13538 42.5375 1.00004 42.7875 1L42.7872 -1ZM40.416 0.474572L39.0791 3.18531L40.8728 4.06996L42.2097 1.35922L40.416 0.474572ZM39.8318 2.63807L36.8409 3.07352L37.1291 5.05265L40.12 4.6172L39.8318 2.63807ZM36.8409 3.07352C35.8405 3.21917 35.019 3.91201 34.7069 4.87397L36.6093 5.49107C36.6864 5.25361 36.8819 5.08864 37.1291 5.05265L36.8409 3.07352ZM34.707 4.87378C34.3948 5.8355 34.6528 6.87854 35.3768 7.58394L36.7725 6.15141C36.5936 5.97713 36.5322 5.72876 36.6093 5.49126L34.707 4.87378ZM35.3768 7.58395L37.5418 9.69313L38.9374 8.26058L36.7725 6.1514L35.3768 7.58395ZM37.2539 8.80807L36.7438 11.7872L38.7151 12.1247L39.2252 9.14564L37.2539 8.80807ZM36.7438 11.7873C36.5732 12.7837 36.9782 13.779 37.7964 14.373L38.9714 12.7546C38.7695 12.6079 38.6729 12.371 38.7151 12.1247L36.7438 11.7873ZM37.7962 14.3728C38.2561 14.7069 38.799 14.8792 39.3483 14.8792V12.8792C39.219 12.8792 39.0879 12.8392 38.9716 12.7547L37.7962 14.3728ZM39.3483 14.8792C39.7713 14.8792 40.1939 14.7769 40.5806 14.5736L39.6499 12.8033C39.5511 12.8553 39.4481 12.8792 39.3483 12.8792V14.8792ZM40.5809 14.5735L43.2558 13.1663L42.3246 11.3962L39.6497 12.8035L40.5809 14.5735ZM42.3251 13.1665L45.0007 14.5724L45.931 12.8019L43.2553 11.396L42.3251 13.1665ZM45.0005 14.5722C45.8958 15.0429 46.9677 14.9648 47.7854 14.3702L46.6091 12.7527C46.407 12.8996 46.152 12.918 45.9312 12.802L45.0005 14.5722ZM47.7853 14.3702C48.6029 13.7758 49.0076 12.7805 48.8363 11.7838L46.8652 12.1227C46.9075 12.3687 46.8113 12.6057 46.6092 12.7526L47.7853 14.3702ZM48.8363 11.7839L48.3246 8.80511L46.3535 9.14372L46.8652 12.1225L48.8363 11.7839ZM48.0372 9.69032L50.201 7.58007L48.8046 6.14826L46.6408 8.25851L48.0372 9.69032ZM50.2011 7.57997C50.9247 6.87406 51.1821 5.83083 50.8694 4.86937L48.9674 5.48786C49.0446 5.72523 48.9834 5.9738 48.8045 6.14836L50.2011 7.57997ZM45.1611 6.97348C44.5376 7.58124 44.2537 8.45659 44.4011 9.31435L46.3722 8.97549C46.3363 8.76646 46.4054 8.55352 46.5572 8.40562L45.1611 6.97348ZM44.4011 9.31423L44.8343 11.836L46.8054 11.4974L46.3722 8.97562L44.4011 9.31423ZM46.285 10.7814L44.0199 9.59141L43.0897 11.3619L45.3548 12.552L46.285 10.7814ZM44.0202 9.59155C43.2493 9.18625 42.3291 9.18684 41.559 9.59192L42.4901 11.362C42.678 11.2632 42.9019 11.2632 43.0895 11.3618L44.0202 9.59155ZM41.559 9.59195L39.2945 10.7833L40.2257 12.5533L42.4901 11.362L41.559 9.59195ZM40.7457 11.8371L41.1777 9.31489L39.2064 8.9773L38.7744 11.4995L40.7457 11.8371ZM41.1777 9.31465C41.3244 8.45697 41.0399 7.58225 40.4165 6.97486L39.0208 8.40736C39.1728 8.55544 39.2421 8.76842 39.2063 8.97754L41.1777 9.31465ZM40.4165 6.97483L38.5837 5.18928L37.1881 6.62185L39.0209 8.4074L40.4165 6.97483ZM38.0299 6.89514L40.5621 6.52659L40.2741 4.54744L37.7418 4.91599L38.0299 6.89514ZM40.5623 6.52656C41.4233 6.40109 42.1676 5.86015 42.5525 5.07943L40.7587 4.19498C40.6649 4.38516 40.4838 4.51688 40.2739 4.54746L40.5623 6.52656ZM42.5524 5.07956L43.6843 2.78483L41.8906 1.90013L40.7588 4.19485L42.5524 5.07956ZM41.8908 2.78531L43.0238 5.07935L44.8171 4.1937L43.6841 1.89965L41.8908 2.78531ZM43.0238 5.07926C43.4092 5.85983 44.1536 6.40024 45.0149 6.52535L45.3024 4.54613C45.0922 4.51559 44.911 4.38392 44.8171 4.19379L43.0238 5.07926ZM45.0151 6.52539L47.5473 6.89267L47.8344 4.91338L45.3022 4.5461L45.0151 6.52539ZM46.9927 5.18714L45.1609 6.97366L46.5573 8.40544L48.3891 6.61892L46.9927 5.18714ZM33.0812 4.86941C32.7686 3.90799 31.9471 3.21536 30.9462 3.0703L30.6593 5.04962C30.9063 5.08542 31.102 5.25021 31.1792 5.48782L33.0812 4.86941ZM30.9463 3.07031L27.9551 2.63662L27.6682 4.61592L30.6593 5.04961L30.9463 3.07031ZM28.7083 3.18348L27.3699 0.473325L25.5767 1.3589L26.915 4.06906L28.7083 3.18348ZM27.3699 0.473305C26.9223 -0.433005 26.01 -1 24.9992 -1V1C25.2488 1 25.4661 1.13496 25.5767 1.35892L27.3699 0.473305ZM24.9992 -1C24.9992 -1 24.9992 -1 24.9992 -1C24.9991 -1 24.9991 -1 24.9991 -1C24.9991 -1 24.9991 -1 24.9991 -1C24.9991 -1 24.9991 -1 24.9991 -1C24.9991 -1 24.9991 -1 24.9991 -1C24.9991 -1 24.9991 -1 24.9991 -1C24.9991 -1 24.9991 -1 24.9991 -1C24.9991 -1 24.9991 -1 24.9991 -1C24.9991 -1 24.9991 -1 24.9991 -1C24.9991 -1 24.9991 -1 24.9991 -1C24.9991 -1 24.9991 -1 24.9991 -1C24.9991 0 24.9991 1 24.9991 1H24.9991C24.9991 1 24.9991 1 24.9991 1C24.9991 1 24.9991 1 24.9991 1C24.9991 1 24.9991 1 24.9991 1C24.9991 1 24.9991 1 24.9991 1C24.9991 1 24.9991 1 24.9991 1C24.9991 1 24.9991 1 24.9991 1C24.9991 1 24.9991 1 24.9991 1H24.9991C24.9991 1 24.9991 1 24.9992 1C24.9992 1 24.9992 1 24.9992 1C24.9992 1 24.9992 1 24.9992 1C24.9992 1 24.9992 1 24.9992 1C24.9992 1 24.9992 1 24.9992 1H24.9992C24.9992 1 24.9992 1 24.9992 1H24.9992C24.9992 1 24.9992 1 24.9992 1H24.9992C24.9992 1 24.9992 1 24.9992 1C24.9992 1 24.9992 1 24.9992 1H24.9992H24.9992C24.9992 1 24.9992 1 24.9992 1C24.9992 1 24.9992 1 24.9992 1H24.9992C24.9992 1 24.9992 1 24.9992 1C24.9992 1 24.9992 1 24.9992 1H24.9992C24.9992 1 24.9992 1 24.9992 1H24.9992C24.9992 1 24.9992 1 24.9992 1H24.9992C24.9992 1 24.9992 1 24.9992 1C24.9992 1 24.9992 1 24.9992 1H24.9992H24.9992H24.9992C24.9992 1 24.9992 1 24.9992 1H24.9992C24.9992 1 24.9992 1 24.9992 1H24.9992C24.9992 1 24.9992 1 24.9992 1C24.9992 1 24.9992 1 24.9992 1H24.9992C24.9992 1 24.9992 1 24.9992 1C24.9992 1 24.9992 1 24.9992 1C24.9992 0 24.9992 -1 24.9992 -1H24.9992C24.9992 -1 24.9992 -1 24.9992 -1C24.9992 -1 24.9992 -1 24.9992 -1C24.9992 -1 24.9992 -1 24.9992 -1H24.9992H24.9992C24.9992 -1 24.9992 -1 24.9992 -1C24.9992 -1 24.9992 -1 24.9992 -1C24.9992 -1 24.9992 -1 24.9992 -1C24.9992 -1 24.9992 -1 24.9992 -1H24.9992C24.9992 -1 24.9992 -1 24.9992 -1C24.9992 -1 24.9992 -1 24.9992 -1C24.9992 -1 24.9992 -1 24.9992 -1H24.9992H24.9992C24.9992 -1 24.9992 -1 24.9992 -1H24.9992C24.9992 -1 24.9992 -1 24.9992 -1H24.9992C24.9992 -1 24.9992 -1 24.9992 -1C24.9992 -1 24.9992 -1 24.9992 -1H24.9992H24.9992C24.9992 -1 24.9992 -1 24.9992 -1C24.9992 -1 24.9992 -1 24.9992 -1C24.9992 -1 24.9992 -1 24.9992 -1C24.9992 -1 24.9992 -1 24.9992 -1H24.9992H24.9992H24.9992C24.9992 -1 24.9992 -1 24.9992 -1C24.9992 -1 24.9992 -1 24.9992 -1C24.9992 -1 24.9992 -1 24.9992 -1H24.9992C24.9992 -1 24.9992 -1 24.9992 -1V1C24.9992 1 24.9992 1 24.9992 1H24.9992C24.9992 1 24.9992 1 24.9992 1C24.9992 1 24.9992 1 24.9992 1C24.9992 1 24.9992 1 24.9992 1H24.9992H24.9992H24.9992C24.9992 1 24.9992 1 24.9992 1C24.9992 1 24.9992 1 24.9992 1C24.9992 1 24.9992 1 24.9992 1C24.9992 1 24.9992 1 24.9992 1H24.9992H24.9992C24.9992 1 24.9992 1 24.9992 1C24.9992 1 24.9992 1 24.9992 1H24.9992C24.9992 1 24.9992 1 24.9992 1H24.9992C24.9992 1 24.9992 1 24.9992 1H24.9992H24.9992C24.9992 1 24.9992 1 24.9992 1C24.9992 1 24.9992 1 24.9992 1C24.9992 1 24.9992 1 24.9992 1H24.9992C24.9992 1 24.9992 1 24.9992 1C24.9992 1 24.9992 1 24.9992 1C24.9992 1 24.9992 1 24.9992 1C24.9992 1 24.9992 1 24.9992 1H24.9992H24.9992C24.9992 1 24.9992 1 24.9992 1C24.9992 1 24.9992 1 24.9992 1C24.9992 1 24.9992 1 24.9992 1H24.9992C24.9992 1 24.9992 0 24.9992 -1C24.9992 -1 24.9992 -1 24.9992 -1C24.9992 -1 24.9992 -1 24.9992 -1H24.9992C24.9992 -1 24.9992 -1 24.9992 -1C24.9992 -1 24.9992 -1 24.9992 -1H24.9992C24.9992 -1 24.9992 -1 24.9992 -1H24.9992C24.9992 -1 24.9992 -1 24.9992 -1H24.9992H24.9992H24.9992C24.9992 -1 24.9992 -1 24.9992 -1C24.9992 -1 24.9992 -1 24.9992 -1H24.9992C24.9992 -1 24.9992 -1 24.9992 -1H24.9992C24.9992 -1 24.9992 -1 24.9992 -1H24.9992C24.9992 -1 24.9992 -1 24.9992 -1C24.9992 -1 24.9992 -1 24.9992 -1H24.9992C24.9992 -1 24.9992 -1 24.9992 -1C24.9992 -1 24.9992 -1 24.9992 -1H24.9992H24.9992C24.9992 -1 24.9992 -1 24.9992 -1C24.9992 -1 24.9992 -1 24.9992 -1H24.9992C24.9992 -1 24.9992 -1 24.9992 -1H24.9992C24.9992 -1 24.9992 -1 24.9992 -1H24.9992C24.9992 -1 24.9992 -1 24.9992 -1C24.9992 -1 24.9992 -1 24.9992 -1C24.9992 -1 24.9992 -1 24.9992 -1C24.9992 -1 24.9992 -1 24.9992 -1C24.9991 -1 24.9991 -1 24.9991 -1H24.9991C24.9991 -1 24.9991 -1 24.9991 -1C24.9991 -1 24.9991 -1 24.9991 -1C24.9991 -1 24.9991 -1 24.9991 -1C24.9991 -1 24.9991 -1 24.9991 -1C24.9991 -1 24.9991 -1 24.9991 -1C24.9991 -1 24.9991 -1 24.9991 -1C24.9991 -1 24.9991 -1 24.9991 -1H24.9991C24.9991 -1 24.9991 0 24.9991 1C24.9991 1 24.9991 1 24.9991 1C24.9991 1 24.9991 1 24.9991 1C24.9991 1 24.9991 1 24.9991 1C24.9991 1 24.9991 1 24.9991 1C24.9991 1 24.9991 1 24.9991 1C24.9991 1 24.9991 1 24.9991 1C24.9991 1 24.9991 1 24.9991 1C24.9991 1 24.9991 1 24.9991 1C24.9991 1 24.9991 1 24.9991 1C24.9991 1 24.9991 1 24.9992 1C24.9992 1 24.9992 1 24.9992 1V-1ZM24.999 -1C23.9882 -0.999843 23.075 -0.432481 22.6277 0.474644L24.4215 1.35914C24.5319 1.13541 24.7494 1.00004 24.9993 1L24.999 -1ZM22.6278 0.474572L21.2909 3.18531L23.0846 4.06996L24.4215 1.35922L22.6278 0.474572ZM22.0437 2.63807L19.0527 3.07352L19.3409 5.05265L22.3318 4.6172L22.0437 2.63807ZM19.0527 3.07352C18.0523 3.21917 17.2308 3.91201 16.9187 4.87397L18.8211 5.49107C18.8982 5.25361 19.0937 5.08864 19.3409 5.05265L19.0527 3.07352ZM16.9188 4.87378C16.6066 5.8355 16.8646 6.87854 17.5886 7.58394L18.9843 6.15141C18.8054 5.97712 18.744 5.72876 18.8211 5.49126L16.9188 4.87378ZM17.5886 7.58395L19.7535 9.69303L21.1491 8.26048L18.9843 6.1514L17.5886 7.58395ZM19.4656 8.80797L18.9555 11.7871L20.9268 12.1246L21.4369 9.14555L19.4656 8.80797ZM18.9555 11.7872C18.7849 12.7836 19.1899 13.7789 20.0081 14.3729L21.1831 12.7545C20.9812 12.6078 20.8846 12.3709 20.9268 12.1246L18.9555 11.7872ZM20.0079 14.3727C20.4678 14.7068 21.0108 14.8791 21.56 14.8791V12.8791C21.4307 12.8791 21.2997 12.8391 21.1834 12.7546L20.0079 14.3727ZM21.56 14.8791C21.983 14.8791 22.4056 14.7768 22.7923 14.5735L21.8616 12.8033C21.7628 12.8552 21.6598 12.8791 21.56 12.8791V14.8791ZM22.7925 14.5734L25.4675 13.1663L24.5364 11.3962L21.8614 12.8034L22.7925 14.5734ZM24.5369 13.1665L27.2126 14.5723L28.1428 12.8018L25.4671 11.396L24.5369 13.1665ZM27.2123 14.5721C28.1076 15.0428 29.1795 14.9647 29.9972 14.3701L28.8209 12.7526C28.6188 12.8995 28.3638 12.9179 28.143 12.8019L27.2123 14.5721ZM29.9971 14.3701C30.8147 13.7757 31.2194 12.7804 31.0481 11.7837L29.077 12.1226C29.1193 12.3686 29.0231 12.6056 28.821 12.7525L29.9971 14.3701ZM31.0481 11.7838L30.5364 8.80501L28.5653 9.14362L29.077 12.1224L31.0481 11.7838ZM30.249 9.69022L32.4128 7.57997L31.0164 6.14816L28.8526 8.25841L30.249 9.69022ZM32.4128 7.57995C33.1365 6.87408 33.3938 5.8309 33.0812 4.86941L31.1792 5.48782C31.2565 5.72535 31.1952 5.97377 31.0164 6.14818L32.4128 7.57995ZM27.373 6.97348C26.7496 7.58119 26.4657 8.45638 26.613 9.31412L28.5842 8.97573C28.5482 8.76627 28.6175 8.55338 28.7691 8.40562L27.373 6.97348ZM26.613 9.31423L27.0462 11.836L29.0173 11.4974L28.5841 8.97562L26.613 9.31423ZM28.4969 10.7814L26.2318 9.59141L25.3016 11.3619L27.5667 12.552L28.4969 10.7814ZM26.2319 9.59143C25.4614 9.18655 24.541 9.18652 23.7706 9.59207L24.7023 11.3618C24.8895 11.2633 25.1135 11.2631 25.3016 11.3619L26.2319 9.59143ZM23.7709 9.59194L21.5063 10.7833L22.4375 12.5533L24.702 11.362L23.7709 9.59194ZM22.9576 11.8371L23.3895 9.31489L21.4182 8.9773L20.9862 11.4995L22.9576 11.8371ZM23.3895 9.31462C23.5362 8.45692 23.2518 7.58214 22.6282 6.97477L21.2327 8.40745C21.3846 8.55536 21.4539 8.76827 21.4181 8.97757L23.3895 9.31462ZM22.6283 6.97485L20.7956 5.1893L19.4 6.62183L21.2327 8.40738L22.6283 6.97485ZM20.2418 6.89514L22.7739 6.52658L22.4859 4.54744L19.9537 4.91599L20.2418 6.89514ZM22.7741 6.52656C23.6352 6.40108 24.3793 5.86015 24.7643 5.07958L22.9707 4.19483C22.8768 4.38516 22.6955 4.51689 22.4857 4.54746L22.7741 6.52656ZM24.7644 5.07954L25.8962 2.78472L24.1025 1.90005L22.9707 4.19487L24.7644 5.07954ZM24.1027 2.7852L25.2357 5.07934L27.029 4.19371L25.896 1.89957L24.1027 2.7852ZM25.2357 5.07918C25.621 5.85969 26.3654 6.40024 27.2268 6.52536L27.5143 4.54613C27.304 4.51558 27.1228 4.38386 27.029 4.19386L25.2357 5.07918ZM27.227 6.52539L29.7592 6.89267L30.0463 4.91338L27.5141 4.5461L27.227 6.52539ZM29.2046 5.18714L27.3728 6.97366L28.7692 8.40544L30.601 6.61891L29.2046 5.18714ZM15.2928 4.86941C14.9802 3.90781 14.1584 3.21549 13.1579 3.07032L12.8707 5.0496C13.118 5.08548 13.3137 5.25039 13.3909 5.48782L15.2928 4.86941ZM13.1578 3.07031L10.1667 2.63662L9.8797 4.61592L12.8708 5.04961L13.1578 3.07031ZM10.9198 3.18351L9.58154 0.47335L7.78827 1.35888L9.12655 4.06903L10.9198 3.18351ZM9.58152 0.473305C9.13393 -0.433006 8.22163 -1 7.21078 -1V1C7.46048 1 7.67768 1.13496 7.78829 1.35892L9.58152 0.473305ZM7.21078 -1H7.21078C7.21078 -1 7.21078 -1 7.21078 -1C7.21078 -1 7.21078 -1 7.21078 -1C7.21078 -1 7.21078 -1 7.21078 -1C7.21078 -1 7.21078 -1 7.21078 -1H7.21078H7.21078H7.21078H7.21078H7.21078H7.21078H7.21078H7.21077H7.21077H7.21077H7.21077C7.21077 -1 7.21077 -1 7.21077 -1C7.21077 -1 7.21077 -1 7.21077 -1C7.21077 -1 7.21077 -1 7.21077 -1C7.21077 -1 7.21077 -1 7.21077 -1H7.21077H7.21077C7.21077 -1 7.21077 -1 7.21077 -1C7.21077 -1 7.21077 -1 7.21077 -1H7.21077C7.21077 -1 7.21077 -1 7.21077 -1H7.21077C7.21077 -1 7.21077 -1 7.21077 -1H7.21077C7.21077 -1 7.21077 -1 7.21077 -1C7.21077 -1 7.21077 -1 7.21077 -1H7.21077C7.21077 -1 7.21077 -1 7.21077 -1C7.21076 -1 7.21076 -1 7.21076 -1C7.21076 -1 7.21076 -1 7.21076 -1H7.21076C7.21076 -1 7.21076 -1 7.21076 -1H7.21076H7.21076C7.21076 -1 7.21076 -1 7.21076 -1C7.21076 -1 7.21076 -1 7.21076 -1H7.21076C7.21076 0 7.21076 1 7.21076 1C7.21076 1 7.21076 1 7.21076 1C7.21076 1 7.21076 1 7.21076 1C7.21076 1 7.21076 1 7.21076 1C7.21076 1 7.21076 1 7.21076 1C7.21076 1 7.21076 1 7.21076 1C7.21076 1 7.21076 1 7.21076 1C7.21076 1 7.21076 1 7.21076 1H7.21076C7.21076 1 7.21076 1 7.21077 1C7.21077 1 7.21077 1 7.21077 1H7.21077H7.21077C7.21077 1 7.21077 1 7.21077 1H7.21077H7.21077H7.21077C7.21077 1 7.21077 1 7.21077 1C7.21077 1 7.21077 1 7.21077 1C7.21077 1 7.21077 1 7.21077 1H7.21077C7.21077 1 7.21077 1 7.21077 1C7.21077 1 7.21077 1 7.21077 1C7.21077 1 7.21077 1 7.21077 1C7.21077 1 7.21077 1 7.21077 1H7.21077C7.21077 1 7.21077 1 7.21077 1H7.21077C7.21077 1 7.21077 1 7.21077 1C7.21077 1 7.21077 1 7.21077 1C7.21077 1 7.21077 1 7.21078 1C7.21078 1 7.21078 1 7.21078 1H7.21078C7.21078 1 7.21078 1 7.21078 1C7.21078 1 7.21078 1 7.21078 1H7.21078C7.21078 1 7.21078 1 7.21078 1C7.21078 1 7.21078 1 7.21078 1H7.21078C7.21078 1 7.21078 1 7.21078 1C7.21078 1 7.21078 1 7.21078 1H7.21078C7.21078 1 7.21078 1 7.21078 1C7.21078 1 7.21078 1 7.21078 1C7.21078 1 7.21078 1 7.21078 1H7.21078C7.21078 1 7.21078 1 7.21078 1C7.21078 1 7.21078 1 7.21078 1C7.21078 1 7.21078 1 7.21078 1H7.21078H7.21078C7.21078 1 7.21078 1 7.21079 1C7.21079 1 7.21079 1 7.21079 1C7.21079 1 7.21079 1 7.21079 1H7.21079H7.21079C7.21079 1 7.21079 1 7.21079 1C7.21079 1 7.21079 1 7.21079 1C7.21079 1 7.21079 1 7.21079 1C7.21079 1 7.21079 1 7.21079 1C7.21079 1 7.21079 1 7.21079 1H7.21079H7.21079C7.21079 1 7.21079 1 7.21079 1C7.21079 1 7.21079 1 7.21079 1C7.21079 1 7.21079 1 7.21079 1C7.21079 1 7.21079 1 7.21079 1C7.21079 1 7.21079 1 7.21079 1C7.21079 1 7.21079 1 7.21079 1H7.21079H7.21079H7.21079C7.21079 1 7.21079 1 7.2108 1C7.2108 1 7.2108 1 7.2108 1C7.2108 1 7.2108 1 7.2108 1C7.2108 1 7.2108 1 7.2108 1C7.2108 1 7.2108 1 7.2108 1C7.2108 1 7.2108 1 7.2108 1C7.2108 1 7.2108 1 7.2108 1H7.2108H7.2108H7.2108H7.2108C7.2108 1 7.2108 1 7.2108 1C7.2108 1 7.2108 1 7.2108 1C7.2108 1 7.2108 1 7.2108 1C7.2108 1 7.2108 1 7.2108 1C7.2108 1 7.2108 1 7.2108 1C7.2108 1 7.2108 1 7.2108 1C7.2108 1 7.2108 1 7.2108 1C7.2108 1 7.2108 1 7.2108 1C7.2108 1 7.2108 1 7.2108 1H7.2108H7.21081H7.21081H7.21081H7.21081C7.21081 1 7.21081 1 7.21081 1C7.21081 1 7.21081 1 7.21081 1C7.21081 1 7.21081 1 7.21081 1C7.21081 1 7.21081 1 7.21081 1C7.21081 1 7.21081 1 7.21081 1C7.21081 1 7.21081 1 7.21081 1C7.21081 1 7.21081 1 7.21081 1C7.21081 1 7.21081 1 7.21081 1C7.21081 1 7.21081 1 7.21081 1H7.21081H7.21081H7.21081H7.21081C7.21081 1 7.21081 1 7.21081 1C7.21081 1 7.21081 1 7.21081 1C7.21081 1 7.21081 1 7.21081 1C7.21081 1 7.21081 1 7.21081 1C7.21082 1 7.21082 1 7.21082 1C7.21082 1 7.21082 1 7.21082 1C7.21082 1 7.21082 1 7.21082 1H7.21082H7.21082H7.21082H7.21082C7.21082 1 7.21082 1 7.21082 1C7.21082 1 7.21082 1 7.21082 1C7.21082 1 7.21082 1 7.21082 1C7.21082 1 7.21082 1 7.21082 1C7.21082 1 7.21082 1 7.21082 1H7.21082H7.21082H7.21082C7.21082 1 7.21082 1 7.21082 1C7.21082 1 7.21082 1 7.21082 1C7.21082 1 7.21082 1 7.21082 1C7.21082 1 7.21082 1 7.21082 1H7.21082H7.21082C7.21082 1 7.21082 1 7.21083 1C7.21083 1 7.21083 1 7.21083 1C7.21083 1 7.21083 1 7.21083 1C7.21083 1 7.21083 1 7.21083 1H7.21083C7.21083 1 7.21083 1 7.21083 1C7.21083 1 7.21083 1 7.21083 1C7.21083 1 7.21083 1 7.21083 1H7.21083H7.21083C7.21083 1 7.21083 1 7.21083 1C7.21083 1 7.21083 1 7.21083 1H7.21083C7.21083 1 7.21083 1 7.21083 1C7.21083 1 7.21083 1 7.21083 1C7.21083 1 7.21083 1 7.21083 1H7.21083C7.21083 1 7.21083 1 7.21083 1C7.21083 1 7.21083 1 7.21083 1H7.21083C7.21083 1 7.21083 1 7.21083 1H7.21084C7.21084 1 7.21084 1 7.21084 1C7.21084 1 7.21084 1 7.21084 1H7.21084C7.21084 1 7.21084 1 7.21084 1H7.21084C7.21084 1 7.21084 1 7.21084 1H7.21084C7.21084 1 7.21084 1 7.21084 1H7.21084C7.21084 1 7.21084 1 7.21084 1C7.21084 1 7.21084 1 7.21084 1H7.21084C7.21084 1 7.21084 1 7.21084 1C7.21084 1 7.21084 1 7.21084 1H7.21084H7.21084C7.21084 1 7.21084 1 7.21084 1C7.21084 1 7.21084 1 7.21084 1C7.21084 1 7.21084 1 7.21084 1C7.21084 1 7.21084 1 7.21084 1C7.21085 1 7.21085 1 7.21085 1H7.21085C7.21085 1 7.21085 1 7.21085 1C7.21085 1 7.21085 1 7.21085 1C7.21085 1 7.21085 1 7.21085 1H7.21085H7.21085C7.21085 1 7.21085 1 7.21085 1H7.21085C7.21085 1 7.21085 1 7.21085 1C7.21085 1 7.21085 1 7.21085 1C7.21085 0 7.21085 -1 7.21085 -1C7.21085 -1 7.21085 -1 7.21085 -1H7.21085H7.21085C7.21085 -1 7.21085 -1 7.21085 -1C7.21085 -1 7.21085 -1 7.21085 -1H7.21085C7.21085 -1 7.21085 -1 7.21085 -1C7.21085 -1 7.21085 -1 7.21085 -1C7.21085 -1 7.21085 -1 7.21085 -1C7.21085 -1 7.21085 -1 7.21085 -1C7.21085 -1 7.21085 -1 7.21084 -1C7.21084 -1 7.21084 -1 7.21084 -1H7.21084C7.21084 -1 7.21084 -1 7.21084 -1H7.21084C7.21084 -1 7.21084 -1 7.21084 -1H7.21084C7.21084 -1 7.21084 -1 7.21084 -1C7.21084 -1 7.21084 -1 7.21084 -1H7.21084C7.21084 -1 7.21084 -1 7.21084 -1C7.21084 -1 7.21084 -1 7.21084 -1C7.21084 -1 7.21084 -1 7.21084 -1C7.21084 -1 7.21084 -1 7.21084 -1H7.21084H7.21084H7.21084C7.21084 -1 7.21084 -1 7.21084 -1C7.21084 -1 7.21084 -1 7.21084 -1C7.21084 -1 7.21084 -1 7.21084 -1C7.21084 -1 7.21084 -1 7.21084 -1C7.21084 -1 7.21084 -1 7.21083 -1C7.21083 -1 7.21083 -1 7.21083 -1C7.21083 -1 7.21083 -1 7.21083 -1C7.21083 -1 7.21083 -1 7.21083 -1H7.21083H7.21083H7.21083H7.21083C7.21083 -1 7.21083 -1 7.21083 -1C7.21083 -1 7.21083 -1 7.21083 -1C7.21083 -1 7.21083 -1 7.21083 -1H7.21083H7.21083C7.21083 -1 7.21083 -1 7.21083 -1C7.21083 -1 7.21083 -1 7.21083 -1H7.21083H7.21083C7.21083 -1 7.21083 -1 7.21083 -1C7.21083 -1 7.21083 -1 7.21082 -1H7.21082C7.21082 -1 7.21082 -1 7.21082 -1H7.21082C7.21082 -1 7.21082 -1 7.21082 -1C7.21082 -1 7.21082 -1 7.21082 -1H7.21082C7.21082 -1 7.21082 -1 7.21082 -1H7.21082C7.21082 -1 7.21082 -1 7.21082 -1H7.21082C7.21082 -1 7.21082 -1 7.21082 -1C7.21082 -1 7.21082 -1 7.21082 -1H7.21082C7.21082 -1 7.21082 -1 7.21081 -1H7.21081C7.21081 -1 7.21081 -1 7.21081 -1C7.21081 -1 7.21081 -1 7.21081 -1H7.21081C7.21081 -1 7.21081 -1 7.21081 -1C7.21081 -1 7.21081 -1 7.21081 -1C7.21081 -1 7.21081 -1 7.21081 -1H7.21081C7.21081 -1 7.21081 -1 7.21081 -1C7.21081 -1 7.21081 -1 7.21081 -1C7.21081 -1 7.21081 -1 7.21081 -1C7.21081 -1 7.21081 -1 7.2108 -1C7.2108 -1 7.2108 -1 7.2108 -1C7.2108 -1 7.2108 -1 7.2108 -1C7.2108 -1 7.2108 -1 7.2108 -1C7.2108 -1 7.2108 -1 7.2108 -1C7.2108 -1 7.2108 -1 7.2108 -1C7.2108 -1 7.2108 -1 7.2108 -1C7.2108 -1 7.2108 -1 7.2108 -1C7.2108 -1 7.2108 -1 7.2108 -1C7.2108 -1 7.2108 -1 7.2108 -1C7.2108 -1 7.2108 -1 7.2108 -1C7.2108 -1 7.21079 -1 7.21079 -1C7.21079 -1 7.21079 -1 7.21079 -1C7.21079 -1 7.21079 -1 7.21079 -1C7.21079 -1 7.21079 -1 7.21079 -1C7.21079 -1 7.21079 -1 7.21079 -1C7.21079 -1 7.21079 -1 7.21079 -1C7.21079 -1 7.21079 -1 7.21079 -1C7.21079 -1 7.21079 -1 7.21079 -1C7.21079 -1 7.21079 -1 7.21079 -1C7.21079 -1 7.21079 -1 7.21078 -1C7.21078 -1 7.21078 -1 7.21078 -1C7.21078 -1 7.21078 -1 7.21078 -1C7.21078 -1 7.21078 -1 7.21078 -1V1C7.21078 1 7.21078 1 7.21078 1C7.21078 1 7.21078 1 7.21078 1C7.21078 1 7.21078 1 7.21078 1C7.21079 1 7.21079 1 7.21079 1C7.21079 1 7.21079 1 7.21079 1C7.21079 1 7.21079 1 7.21079 1C7.21079 1 7.21079 1 7.21079 1C7.21079 1 7.21079 1 7.21079 1C7.21079 1 7.21079 1 7.21079 1C7.21079 1 7.21079 1 7.21079 1C7.21079 1 7.21079 1 7.21079 1C7.21079 1 7.21079 1 7.21079 1C7.21079 1 7.2108 1 7.2108 1C7.2108 1 7.2108 1 7.2108 1C7.2108 1 7.2108 1 7.2108 1C7.2108 1 7.2108 1 7.2108 1C7.2108 1 7.2108 1 7.2108 1C7.2108 1 7.2108 1 7.2108 1C7.2108 1 7.2108 1 7.2108 1C7.2108 1 7.2108 1 7.2108 1C7.2108 1 7.2108 1 7.2108 1C7.2108 1 7.2108 1 7.2108 1C7.2108 1 7.2108 1 7.2108 1C7.21081 1 7.21081 1 7.21081 1C7.21081 1 7.21081 1 7.21081 1C7.21081 1 7.21081 1 7.21081 1C7.21081 1 7.21081 1 7.21081 1H7.21081C7.21081 1 7.21081 1 7.21081 1C7.21081 1 7.21081 1 7.21081 1C7.21081 1 7.21081 1 7.21081 1H7.21081C7.21081 1 7.21081 1 7.21081 1C7.21081 1 7.21081 1 7.21081 1H7.21081C7.21082 1 7.21082 1 7.21082 1H7.21082C7.21082 1 7.21082 1 7.21082 1C7.21082 1 7.21082 1 7.21082 1H7.21082C7.21082 1 7.21082 1 7.21082 1H7.21082C7.21082 1 7.21082 1 7.21082 1H7.21082C7.21082 1 7.21082 1 7.21082 1C7.21082 1 7.21082 1 7.21082 1H7.21082C7.21082 1 7.21082 1 7.21082 1H7.21082C7.21083 1 7.21083 1 7.21083 1C7.21083 1 7.21083 1 7.21083 1H7.21083H7.21083C7.21083 1 7.21083 1 7.21083 1C7.21083 1 7.21083 1 7.21083 1H7.21083H7.21083C7.21083 1 7.21083 1 7.21083 1C7.21083 1 7.21083 1 7.21083 1C7.21083 1 7.21083 1 7.21083 1H7.21083H7.21083H7.21083H7.21083C7.21083 1 7.21083 1 7.21083 1C7.21083 1 7.21083 1 7.21083 1C7.21083 1 7.21083 1 7.21083 1C7.21084 1 7.21084 1 7.21084 1C7.21084 1 7.21084 1 7.21084 1C7.21084 1 7.21084 1 7.21084 1C7.21084 1 7.21084 1 7.21084 1C7.21084 1 7.21084 1 7.21084 1H7.21084H7.21084H7.21084C7.21084 1 7.21084 1 7.21084 1C7.21084 1 7.21084 1 7.21084 1C7.21084 1 7.21084 1 7.21084 1C7.21084 1 7.21084 1 7.21084 1H7.21084C7.21084 1 7.21084 1 7.21084 1C7.21084 1 7.21084 1 7.21084 1H7.21084C7.21084 1 7.21084 1 7.21084 1H7.21084C7.21084 1 7.21084 1 7.21084 1H7.21084C7.21084 1 7.21084 1 7.21084 1C7.21085 1 7.21085 1 7.21085 1C7.21085 1 7.21085 1 7.21085 1C7.21085 1 7.21085 1 7.21085 1C7.21085 1 7.21085 1 7.21085 1C7.21085 1 7.21085 1 7.21085 1H7.21085C7.21085 1 7.21085 1 7.21085 1C7.21085 1 7.21085 1 7.21085 1H7.21085H7.21085C7.21085 1 7.21085 1 7.21085 1C7.21085 1 7.21085 0 7.21085 -1C7.21085 -1 7.21085 -1 7.21085 -1C7.21085 -1 7.21085 -1 7.21085 -1H7.21085C7.21085 -1 7.21085 -1 7.21085 -1H7.21085H7.21085C7.21085 -1 7.21085 -1 7.21085 -1C7.21085 -1 7.21085 -1 7.21085 -1C7.21085 -1 7.21085 -1 7.21085 -1H7.21085C7.21085 -1 7.21085 -1 7.21084 -1C7.21084 -1 7.21084 -1 7.21084 -1C7.21084 -1 7.21084 -1 7.21084 -1C7.21084 -1 7.21084 -1 7.21084 -1C7.21084 -1 7.21084 -1 7.21084 -1H7.21084H7.21084C7.21084 -1 7.21084 -1 7.21084 -1C7.21084 -1 7.21084 -1 7.21084 -1H7.21084C7.21084 -1 7.21084 -1 7.21084 -1C7.21084 -1 7.21084 -1 7.21084 -1H7.21084C7.21084 -1 7.21084 -1 7.21084 -1H7.21084C7.21084 -1 7.21084 -1 7.21084 -1H7.21084C7.21084 -1 7.21084 -1 7.21084 -1H7.21084C7.21084 -1 7.21084 -1 7.21084 -1C7.21084 -1 7.21084 -1 7.21084 -1H7.21083C7.21083 -1 7.21083 -1 7.21083 -1H7.21083C7.21083 -1 7.21083 -1 7.21083 -1C7.21083 -1 7.21083 -1 7.21083 -1H7.21083C7.21083 -1 7.21083 -1 7.21083 -1C7.21083 -1 7.21083 -1 7.21083 -1C7.21083 -1 7.21083 -1 7.21083 -1H7.21083C7.21083 -1 7.21083 -1 7.21083 -1C7.21083 -1 7.21083 -1 7.21083 -1H7.21083H7.21083C7.21083 -1 7.21083 -1 7.21083 -1C7.21083 -1 7.21083 -1 7.21083 -1C7.21083 -1 7.21083 -1 7.21083 -1H7.21083C7.21083 -1 7.21083 -1 7.21083 -1C7.21083 -1 7.21083 -1 7.21083 -1C7.21083 -1 7.21083 -1 7.21083 -1C7.21082 -1 7.21082 -1 7.21082 -1H7.21082H7.21082C7.21082 -1 7.21082 -1 7.21082 -1C7.21082 -1 7.21082 -1 7.21082 -1C7.21082 -1 7.21082 -1 7.21082 -1C7.21082 -1 7.21082 -1 7.21082 -1H7.21082H7.21082H7.21082C7.21082 -1 7.21082 -1 7.21082 -1C7.21082 -1 7.21082 -1 7.21082 -1C7.21082 -1 7.21082 -1 7.21082 -1C7.21082 -1 7.21082 -1 7.21082 -1C7.21082 -1 7.21082 -1 7.21082 -1H7.21082H7.21082H7.21082H7.21082C7.21082 -1 7.21082 -1 7.21082 -1C7.21082 -1 7.21082 -1 7.21082 -1C7.21082 -1 7.21082 -1 7.21081 -1C7.21081 -1 7.21081 -1 7.21081 -1C7.21081 -1 7.21081 -1 7.21081 -1C7.21081 -1 7.21081 -1 7.21081 -1C7.21081 -1 7.21081 -1 7.21081 -1H7.21081H7.21081H7.21081H7.21081C7.21081 -1 7.21081 -1 7.21081 -1C7.21081 -1 7.21081 -1 7.21081 -1C7.21081 -1 7.21081 -1 7.21081 -1C7.21081 -1 7.21081 -1 7.21081 -1C7.21081 -1 7.21081 -1 7.21081 -1C7.21081 -1 7.21081 -1 7.21081 -1C7.21081 -1 7.21081 -1 7.21081 -1C7.21081 -1 7.21081 -1 7.21081 -1C7.21081 -1 7.21081 -1 7.21081 -1H7.21081H7.21081H7.21081H7.2108H7.2108C7.2108 -1 7.2108 -1 7.2108 -1C7.2108 -1 7.2108 -1 7.2108 -1C7.2108 -1 7.2108 -1 7.2108 -1C7.2108 -1 7.2108 -1 7.2108 -1C7.2108 -1 7.2108 -1 7.2108 -1C7.2108 -1 7.2108 -1 7.2108 -1C7.2108 -1 7.2108 -1 7.2108 -1C7.2108 -1 7.2108 -1 7.2108 -1C7.2108 -1 7.2108 -1 7.2108 -1H7.2108H7.2108H7.2108H7.2108C7.2108 -1 7.2108 -1 7.2108 -1C7.2108 -1 7.2108 -1 7.2108 -1C7.2108 -1 7.2108 -1 7.2108 -1C7.2108 -1 7.2108 -1 7.2108 -1C7.2108 -1 7.2108 -1 7.2108 -1C7.2108 -1 7.2108 -1 7.2108 -1C7.21079 -1 7.21079 -1 7.21079 -1H7.21079H7.21079H7.21079C7.21079 -1 7.21079 -1 7.21079 -1C7.21079 -1 7.21079 -1 7.21079 -1C7.21079 -1 7.21079 -1 7.21079 -1C7.21079 -1 7.21079 -1 7.21079 -1C7.21079 -1 7.21079 -1 7.21079 -1C7.21079 -1 7.21079 -1 7.21079 -1H7.21079H7.21079C7.21079 -1 7.21079 -1 7.21079 -1C7.21079 -1 7.21079 -1 7.21079 -1C7.21079 -1 7.21079 -1 7.21079 -1C7.21079 -1 7.21079 -1 7.21079 -1C7.21079 -1 7.21079 -1 7.21079 -1H7.21079H7.21079C7.21079 -1 7.21079 -1 7.21079 -1C7.21079 -1 7.21079 -1 7.21079 -1C7.21078 -1 7.21078 -1 7.21078 -1H7.21078H7.21078C7.21078 -1 7.21078 -1 7.21078 -1C7.21078 -1 7.21078 -1 7.21078 -1C7.21078 -1 7.21078 -1 7.21078 -1H7.21078C7.21078 -1 7.21078 -1 7.21078 -1C7.21078 -1 7.21078 -1 7.21078 -1C7.21078 -1 7.21078 -1 7.21078 -1H7.21078C7.21078 -1 7.21078 -1 7.21078 -1C7.21078 -1 7.21078 -1 7.21078 -1H7.21078C7.21078 -1 7.21078 -1 7.21078 -1C7.21078 -1 7.21078 -1 7.21078 -1H7.21078C7.21078 -1 7.21078 -1 7.21078 -1C7.21078 -1 7.21078 -1 7.21078 -1H7.21078C7.21078 -1 7.21078 -1 7.21078 -1C7.21077 -1 7.21077 -1 7.21077 -1C7.21077 -1 7.21077 -1 7.21077 -1C7.21077 -1 7.21077 -1 7.21077 -1H7.21077C7.21077 -1 7.21077 -1 7.21077 -1H7.21077C7.21077 -1 7.21077 -1 7.21077 -1C7.21077 -1 7.21077 -1 7.21077 -1C7.21077 -1 7.21077 -1 7.21077 -1C7.21077 -1 7.21077 -1 7.21077 -1H7.21077C7.21077 -1 7.21077 -1 7.21077 -1C7.21077 -1 7.21077 -1 7.21077 -1C7.21077 -1 7.21077 -1 7.21077 -1H7.21077H7.21077H7.21077C7.21077 -1 7.21077 -1 7.21077 -1H7.21077H7.21077C7.21077 -1 7.21077 -1 7.21077 -1C7.21076 -1 7.21076 -1 7.21076 -1H7.21076C7.21076 -1 7.21076 -1 7.21076 -1C7.21076 -1 7.21076 -1 7.21076 -1C7.21076 -1 7.21076 -1 7.21076 -1C7.21076 -1 7.21076 -1 7.21076 -1C7.21076 -1 7.21076 -1 7.21076 -1C7.21076 -1 7.21076 -1 7.21076 -1C7.21076 -1 7.21076 -1 7.21076 -1C7.21076 -1 7.21076 0 7.21076 1H7.21076C7.21076 1 7.21076 1 7.21076 1C7.21076 1 7.21076 1 7.21076 1H7.21076H7.21076C7.21076 1 7.21076 1 7.21076 1H7.21076C7.21076 1 7.21076 1 7.21076 1C7.21076 1 7.21076 1 7.21077 1C7.21077 1 7.21077 1 7.21077 1H7.21077C7.21077 1 7.21077 1 7.21077 1C7.21077 1 7.21077 1 7.21077 1H7.21077C7.21077 1 7.21077 1 7.21077 1H7.21077C7.21077 1 7.21077 1 7.21077 1H7.21077C7.21077 1 7.21077 1 7.21077 1C7.21077 1 7.21077 1 7.21077 1H7.21077H7.21077C7.21077 1 7.21077 1 7.21077 1C7.21077 1 7.21077 1 7.21077 1C7.21077 1 7.21077 1 7.21077 1C7.21077 1 7.21077 1 7.21077 1H7.21077H7.21077H7.21077H7.21078H7.21078H7.21078H7.21078H7.21078H7.21078H7.21078H7.21078C7.21078 1 7.21078 1 7.21078 1C7.21078 1 7.21078 1 7.21078 1C7.21078 1 7.21078 1 7.21078 1C7.21078 1 7.21078 1 7.21078 1H7.21078V-1ZM7.21063 -1C6.19981 -0.999843 5.28667 -0.432481 4.83938 0.474644L6.63316 1.35915C6.74348 1.13541 6.96101 1.00004 7.21094 1L7.21063 -1ZM4.83941 0.474572L3.50249 3.18531L5.29621 4.06996L6.63312 1.35922L4.83941 0.474572ZM4.25528 2.63807L1.26435 3.07352L1.5525 5.05265L4.54342 4.6172L4.25528 2.63807ZM1.26436 3.07352C0.263816 3.21918 -0.55744 3.91205 -0.869579 4.87369L1.03272 5.49116C1.10984 5.25357 1.30538 5.08863 1.55249 5.05265L1.26436 3.07352ZM-0.869579 4.87369C-1.18168 5.83521 -0.924134 6.8783 -0.199854 7.58394L1.1958 6.15141C1.01696 5.97717 0.955563 5.72885 1.03272 5.49116L-0.869579 4.87369ZM-0.199846 7.58395L1.9651 9.69313L3.36074 8.26058L1.1958 6.1514L-0.199846 7.58395ZM1.67727 8.80807L1.16711 11.7872L3.13842 12.1247L3.64857 9.14564L1.67727 8.80807ZM1.1671 11.7873C0.996552 12.7837 1.40159 13.7789 2.21965 14.373L3.39487 12.7547C3.1928 12.608 3.09628 12.3709 3.13843 12.1247L1.1671 11.7873ZM2.21984 14.3731C2.67945 14.7068 3.22223 14.8794 3.772 14.8792L3.77142 12.8792C3.64248 12.8792 3.51143 12.8393 3.39468 12.7546L2.21984 14.3731ZM3.77171 14.8792C4.19477 14.8792 4.61733 14.7769 5.00406 14.5736L4.07336 12.8033C3.97454 12.8553 3.8715 12.8792 3.77171 12.8792V14.8792ZM5.00425 14.5735L7.67926 13.1664L6.74816 11.3963L4.07316 12.8035L5.00425 14.5735ZM6.74861 13.1666L9.4243 14.5724L10.3545 12.8019L7.67881 11.3961L6.74861 13.1666ZM9.42437 14.5724C10.3194 15.0425 11.391 14.9648 12.2087 14.3704L11.0328 12.7526C10.8308 12.8995 10.5756 12.918 10.3544 12.8018L9.42437 14.5724ZM12.2089 14.3703C13.0266 13.7756 13.431 12.7802 13.2598 11.7838L11.2887 12.1224C11.331 12.3687 11.2347 12.6058 11.0326 12.7528L12.2089 14.3703ZM13.2598 11.7838L12.7481 8.80501L10.777 9.14362L11.2887 12.1224L13.2598 11.7838ZM12.4607 9.69022L14.6245 7.57997L13.2281 6.14816L11.0644 8.25841L12.4607 9.69022ZM14.6246 7.57987C15.3482 6.87402 15.6055 5.83089 15.2928 4.86941L13.3909 5.48782C13.4681 5.72536 13.4068 5.97383 13.228 6.14826L14.6246 7.57987ZM9.58473 6.97329C8.96119 7.58096 8.67711 8.45634 8.82455 9.31429L10.7957 8.97555C10.7597 8.76632 10.8289 8.55341 10.9806 8.40561L9.58473 6.97329ZM8.82454 9.31423L9.25774 11.836L11.2289 11.4974L10.7957 8.97562L8.82454 9.31423ZM10.7084 10.7815L8.44348 9.59141L7.51324 11.3619L9.77818 12.5519L10.7084 10.7815ZM8.44359 9.59147C7.67308 9.18651 6.75274 9.18657 5.98235 9.59203L6.91382 11.3619C7.10124 11.2632 7.32524 11.2631 7.51313 11.3618L8.44359 9.59147ZM5.9825 9.59195L3.71784 10.7834L4.64902 12.5534L6.91367 11.362L5.9825 9.59195ZM5.16909 11.8371L5.60092 9.31516L3.62961 8.97761L3.19778 11.4996L5.16909 11.8371ZM5.6009 9.31529C5.74792 8.45737 5.46336 7.58244 4.83987 6.97496L3.44418 8.40746C3.59628 8.55565 3.66543 8.76861 3.62964 8.97748L5.6009 9.31529ZM4.83989 6.97498L3.00727 5.18934L1.61154 6.62179L3.44416 8.40744L4.83989 6.97498ZM2.45344 6.89514L4.98557 6.52658L4.6975 4.54744L2.16537 4.91599L2.45344 6.89514ZM4.98574 6.52656C5.84678 6.40109 6.591 5.86015 6.97594 5.07943L5.18214 4.19498C5.08837 4.38516 4.90719 4.51688 4.69734 4.54746L4.98574 6.52656ZM6.97589 5.07955L8.10773 2.78472L6.31403 1.90005L5.18219 4.19487L6.97589 5.07955ZM6.31426 2.7852L7.44728 5.07934L9.2405 4.19371L8.10749 1.89957L6.31426 2.7852ZM7.4472 5.07918C7.83251 5.85969 8.57695 6.40024 9.43833 6.52536L9.72582 4.54613C9.51552 4.51558 9.33438 4.38386 9.24058 4.19386L7.4472 5.07918ZM9.43854 6.52539L11.9709 6.89267L12.2579 4.91338L9.72561 4.5461L9.43854 6.52539ZM11.4162 5.18712L9.58447 6.97355L10.9809 8.40536L12.8126 6.61893L11.4162 5.18712ZM21.7019 23.0362C21.3328 22.6669 20.8265 22.457 20.3041 22.457V24.457C20.2977 24.457 20.295 24.4558 20.2947 24.4557C20.2945 24.4556 20.2918 24.4546 20.2873 24.45L21.7019 23.0362ZM20.3041 22.457C19.782 22.457 19.2756 22.6668 18.9064 23.0362L20.321 24.45C20.3164 24.4546 20.3138 24.4556 20.3136 24.4557C20.3134 24.4558 20.3107 24.457 20.3041 24.457V22.457ZM18.9064 23.0362C18.5378 23.405 18.3276 23.9108 18.3276 24.4335H20.3276C20.3276 24.4402 20.3264 24.4429 20.3263 24.4431C20.3262 24.4433 20.3253 24.4458 20.321 24.45L18.9064 23.0362ZM18.3276 24.4335C18.3276 24.9559 18.5377 25.4622 18.9068 25.8312L20.3206 24.4166C20.3252 24.4212 20.3262 24.4238 20.3263 24.424C20.3264 24.4242 20.3276 24.4268 20.3276 24.4335H18.3276ZM18.9066 25.831C19.2754 26.1997 19.7815 26.4101 20.3041 26.4101V24.4101C20.311 24.4101 20.3137 24.4113 20.3138 24.4114C20.3139 24.4114 20.3164 24.4123 20.3208 24.4168L18.9066 25.831ZM20.3041 26.4101C20.8266 26.4101 21.3329 26.2 21.7019 25.8308L20.2873 24.417C20.2918 24.4124 20.2944 24.4115 20.2946 24.4114C20.2947 24.4113 20.2974 24.4101 20.3041 24.4101V26.4101ZM21.7015 25.8312C22.0706 25.4622 22.2807 24.9559 22.2807 24.4335H20.2807C20.2807 24.4268 20.2819 24.4242 20.282 24.424C20.2821 24.4238 20.2831 24.4212 20.2877 24.4166L21.7015 25.8312ZM22.2807 24.4335C22.2807 23.911 22.0706 23.4048 21.7015 23.0358L20.2877 24.4504C20.2831 24.4459 20.2821 24.4432 20.282 24.443C20.2819 24.4427 20.2807 24.4401 20.2807 24.4335H22.2807Z" fill="#F4B71A" mask="url(#path-1-inside-1)"/>
</svg>