<svg width="148" height="148" viewBox="0 0 148 148" xmlns="http://www.w3.org/2000/svg"><script xmlns="" type="text/javascript" charset="utf-8" id="zm-extension"/><title>B09AED6D-581E-4165-9E11-6C432F09B95E</title><g fill="none" fill-rule="evenodd"><path d="M74.481 146.373c39.855 0 72.165-32.31 72.165-72.165 0-39.856-32.31-72.165-72.165-72.165v144.33z" fill="#FF1628"/><path d="M74 2C34.299 2 2 34.299 2 74s32.299 72 72 72 72-32.299 72-72S113.701 2 74 2m0 146c-40.804 0-74-33.196-74-74S33.196 0 74 0s74 33.196 74 74-33.196 74-74 74" fill="#2A2421"/><path d="M38.54 77.765l-.002.002.002-.002m-.396-1.822a1.464 1.464 0 0 1 1.33.843c.47.997 1.704 3.509 2.999 5.28 1.721 2.358 3.898 2.807 5.421 2.76 2.688-.074 4.465-4.077 4.923-5.613l.262-.878.898.183c.231.047 5.681 1.076 7.477-3.461 1.773-4.47-4.943-7.69-5.012-7.723l-1.524-.717 1.359-.995c.175-.128 4.285-3.23 1.885-6.88-2.52-3.833-8.022-2.132-8.079-2.115l-1.192.38-.108-1.246c-.015-.163-.442-4.121-4.683-5.802-4.03-1.597-7.16 3.956-7.191 4.012l-.629 1.133-.937-.895c-1.871-1.791-5.165-4.027-6.632-3.394-1.812.784-2.763 4.567-2.952 5.83l-.125.827-.836.025c-1.446.042-5.42.632-6.429 2.816-1.072 2.319-.023 5.718.472 6.832l.32.72-.629.482c-.197.15-4.806 3.734-2.775 7.653 2.049 3.952 8.797 2.16 8.865 2.14l.788-.214.37.73c.493.979 2.173 3.64 3.991 4.198 1.561.476 3.516-1.9 4.078-2.77l.089-.12 3.098-3.518a1.473 1.473 0 0 1 1.108-.503m9.551 10.886c-1.984 0-4.695-.65-6.838-3.583-1.126-1.541-2.171-3.516-2.843-4.883l-2.527 2.87c-.465.7-3.157 4.5-6.301 3.533-2.297-.704-4.061-3.266-4.807-4.518-2.142.426-8.079 1.148-10.398-3.328-2.049-3.953.641-7.804 2.752-9.681-.524-1.48-1.481-4.948-.18-7.765 1.382-2.99 5.581-3.734 7.373-3.917.36-1.705 1.427-5.47 3.992-6.578 2.562-1.106 6.191 1.536 7.9 2.975 1.714-2.435 5.088-5.413 9.018-3.854 3.927 1.556 5.271 4.677 5.722 6.359 2.093-.4 6.692-.742 9.275 3.184 2.271 3.454.569 6.716-1.235 8.59 2.888 1.77 6.412 5.282 4.715 9.56-1.733 4.376-6.156 5.083-8.865 4.814-.708 1.845-2.747 6.115-6.5 6.219-.083.002-.167.003-.253.003" fill="#2A2421"/><path d="M40.352 66.266a2.545 2.545 0 0 0-3.307 1.407 2.544 2.544 0 0 0 1.408 3.306 2.543 2.543 0 0 0 3.306-1.407 2.543 2.543 0 0 0-1.407-3.306m-2.008 4.983a2.836 2.836 0 0 1-1.568-3.685 2.836 2.836 0 0 1 3.684-1.568 2.836 2.836 0 0 1 1.569 3.685 2.836 2.836 0 0 1-3.685 1.568" fill="#3A3A3A"/><path d="M35.27 71.187l.056.087c.39.6.896 1.097 1.507 1.476l.089.055-.348 1.496.928.374.787-1.319.102.021a4.795 4.795 0 0 0 2.11-.018l.1-.023.812 1.302.92-.393-.375-1.485.087-.056a4.805 4.805 0 0 0 1.481-1.508l.055-.089 1.49.348.376-.93-1.314-.782.023-.102a4.81 4.81 0 0 0-.017-2.119l-.024-.101 1.293-.805-.392-.922-1.475.373-.056-.087a4.822 4.822 0 0 0-1.517-1.486l-.089-.055.346-1.482-.93-.375-.779 1.307-.1-.021a4.803 4.803 0 0 0-2.124.02l-.1.024-.806-1.292-.922.392.375 1.477-.088.056c-.602.392-1.1.901-1.48 1.516l-.056.088-1.488-.346-.374.929 1.313.784-.02.101a4.798 4.798 0 0 0 .021 2.113l.024.102-1.3.81.392.921 1.486-.376zm2.124 3.758l-.93-.375a.289.289 0 0 1-.173-.335l.3-1.294a5.105 5.105 0 0 1-1.452-1.421l-1.285.325a.29.29 0 0 1-.338-.168l-.392-.922a.287.287 0 0 1 .113-.36l1.124-.7a5.076 5.076 0 0 1-.02-2.036l-1.136-.677a.29.29 0 0 1-.122-.358l.375-.93a.29.29 0 0 1 .334-.174l1.288.299a5.1 5.1 0 0 1 1.425-1.46l-.322-1.276a.287.287 0 0 1 .169-.338l.92-.392a.288.288 0 0 1 .36.113l.697 1.117a5.084 5.084 0 0 1 2.044-.021l.672-1.128a.292.292 0 0 1 .36-.122l.928.375a.288.288 0 0 1 .175.335l-.299 1.281a5.085 5.085 0 0 1 1.461 1.432l1.274-.322a.29.29 0 0 1 .34.167l.392.922a.288.288 0 0 1-.114.361l-1.117.695c.142.675.148 1.361.014 2.042l1.135.676a.288.288 0 0 1 .121.358l-.375.929a.287.287 0 0 1-.335.174l-1.288-.3a5.074 5.074 0 0 1-1.426 1.453l.325 1.284a.289.289 0 0 1-.169.339l-.922.392a.289.289 0 0 1-.36-.114l-.7-1.126a5.092 5.092 0 0 1-2.033.018l-.68 1.141a.289.289 0 0 1-.358.121zm18.528-3.674a1.73 1.73 0 0 0-1.292 3.207 1.731 1.731 0 0 0 2.25-.957 1.731 1.731 0 0 0-.958-2.25m-1.366 3.39a1.93 1.93 0 0 1-1.067-2.507 1.93 1.93 0 0 1 2.507-1.067 1.928 1.928 0 0 1 1.067 2.507 1.928 1.928 0 0 1-2.507 1.067" fill="#3A3A3A"/><path d="M52.464 74.62l.039.059c.265.408.61.746 1.025 1.004l.06.038-.236 1.017.633.255.535-.897.069.014c.478.102.96.098 1.435-.012l.069-.016.55.886.628-.267-.256-1.011.059-.038a3.27 3.27 0 0 0 1.008-1.026l.038-.06 1.014.236.255-.633-.894-.532.015-.07c.103-.48.1-.965-.011-1.441l-.016-.07.88-.546-.267-.627-1.004.254-.038-.06a3.274 3.274 0 0 0-1.031-1.011l-.061-.038.235-1.008-.632-.255-.531.89-.068-.015a3.258 3.258 0 0 0-1.444.014l-.07.016-.547-.88-.628.268.255 1.004-.06.039a3.28 3.28 0 0 0-1.007 1.03l-.037.06-1.013-.234-.255.632.895.533-.015.069c-.101.479-.097.963.015 1.438l.016.069-.885.55.267.628 1.01-.256zm1.446 2.557l-.632-.255a.197.197 0 0 1-.12-.228l.206-.881a3.487 3.487 0 0 1-.988-.967l-.875.22a.194.194 0 0 1-.23-.113l-.267-.627a.196.196 0 0 1 .078-.245l.765-.477a3.468 3.468 0 0 1-.015-1.384l-.772-.461a.198.198 0 0 1-.083-.244l.255-.632a.197.197 0 0 1 .228-.12l.875.205c.256-.397.582-.73.97-.994l-.22-.868a.196.196 0 0 1 .115-.23l.627-.267a.196.196 0 0 1 .245.077l.473.76a3.453 3.453 0 0 1 1.392-.013l.458-.77a.197.197 0 0 1 .244-.081l.632.255c.09.036.14.132.119.228l-.203.87c.396.258.73.585.994.976l.866-.22a.196.196 0 0 1 .23.114l.268.627a.198.198 0 0 1-.078.246l-.76.473c.098.459.1.926.01 1.389l.772.46c.085.05.12.152.082.243l-.253.632a.198.198 0 0 1-.23.119l-.876-.204a3.449 3.449 0 0 1-.971.988l.222.874a.196.196 0 0 1-.114.23l-.628.267a.195.195 0 0 1-.244-.077l-.478-.766a3.457 3.457 0 0 1-1.382.012l-.463.776a.197.197 0 0 1-.244.083zm-8.259 3.562a2.877 2.877 0 1 1 2.12-5.35l-2.12 5.35zm4.515-1.67a3.573 3.573 0 0 0-.03-2.12l.548-.383-.16-.371-.654.136a3.577 3.577 0 0 0-1.524-1.477l.116-.66-.376-.148-.368.559a3.58 3.58 0 0 0-2.12.032l-.384-.546-.373.16.137.655a3.571 3.571 0 0 0-1.472 1.524l-.664-.117-.149.377.564.37a3.576 3.576 0 0 0 .035 2.113l-.555.389.161.37.663-.136a3.58 3.58 0 0 0 1.517 1.466l-.117.67.376.15.373-.57a3.583 3.583 0 0 0 2.11-.03l.39.556.37-.161-.137-.662a3.582 3.582 0 0 0 1.472-1.517l.665.117.15-.376-.564-.37zm-8.89-19.83a2.877 2.877 0 1 1 2.12-5.35l-2.12 5.35zm4.515-1.67a3.573 3.573 0 0 0-.03-2.12l.548-.383-.16-.371-.654.136a3.577 3.577 0 0 0-1.524-1.477l.116-.66-.376-.148-.368.559a3.58 3.58 0 0 0-2.12.032l-.384-.546-.373.16.137.655a3.571 3.571 0 0 0-1.472 1.524l-.664-.117-.149.377.564.37a3.576 3.576 0 0 0 .035 2.113l-.555.389.161.37.663-.136a3.58 3.58 0 0 0 1.517 1.466l-.117.67.376.15.373-.57a3.583 3.583 0 0 0 2.11-.03l.39.556.37-.161-.137-.662a3.582 3.582 0 0 0 1.472-1.517l.665.117.15-.376-.564-.37zm-23.39 18.639a3.545 3.545 0 0 1 1.373-6.955l-1.373 6.955zm5.097-3.032a4.41 4.41 0 0 0-.509-2.56l.578-.588-.277-.414-.763.31a4.404 4.404 0 0 0-2.176-1.448l-.007-.824-.489-.096-.319.759a4.409 4.409 0 0 0-2.564.513l-.587-.577-.414.278.311.763a4.408 4.408 0 0 0-1.443 2.175l-.83.007-.096.489.766.323a4.398 4.398 0 0 0 .514 2.553l-.585.594.278.414.773-.315a4.407 4.407 0 0 0 2.165 1.439l.008.838.49.096.324-.772a4.401 4.401 0 0 0 2.55-.508l.595.585.414-.278-.315-.772a4.404 4.404 0 0 0 1.445-2.166l.832-.007.095-.489-.764-.322zm2.903-10.843a3.545 3.545 0 0 1 1.373-6.955l-1.373 6.955zm5.097-3.032a4.41 4.41 0 0 0-.509-2.56l.578-.588-.277-.414-.763.31a4.404 4.404 0 0 0-2.176-1.448l-.007-.824-.489-.096-.319.759a4.409 4.409 0 0 0-2.564.513l-.587-.577-.414.278.311.763a4.408 4.408 0 0 0-1.443 2.175l-.83.007-.096.489.766.323a4.398 4.398 0 0 0 .514 2.553l-.585.594.278.414.773-.315a4.407 4.407 0 0 0 2.165 1.439l.008.838.49.096.324-.772a4.401 4.401 0 0 0 2.55-.508l.595.585.414-.278-.315-.772a4.404 4.404 0 0 0 1.445-2.166l.832-.007.095-.489-.764-.322zm15.087 5.777a3.071 3.071 0 1 1 2.264-5.71 3.071 3.071 0 0 1-2.264 5.71zm4.817-1.782a3.798 3.798 0 0 0-.03-2.26l.585-.41-.172-.397-.698.145a3.81 3.81 0 0 0-1.626-1.576l.124-.703-.401-.159-.392.597a3.806 3.806 0 0 0-2.265.034l-.409-.584-.396.171.145.7a3.81 3.81 0 0 0-1.571 1.626l-.708-.125-.159.402.602.395a3.833 3.833 0 0 0 .035 2.256l-.59.414.171.396.709-.146a3.816 3.816 0 0 0 1.618 1.565l-.126.715.401.16.398-.608a3.82 3.82 0 0 0 2.252-.032l.415.592.397-.17-.147-.708a3.826 3.826 0 0 0 1.572-1.618l.709.124.159-.402-.602-.394zM30.98 78.64a1.658 1.658 0 1 1 1.223-3.08 1.658 1.658 0 0 1-1.223 3.08zm2.601-.962a2.052 2.052 0 0 0-.017-1.22l.316-.222-.092-.214-.377.078a2.06 2.06 0 0 0-.878-.85l.066-.38-.216-.085-.212.322a2.05 2.05 0 0 0-1.221.018l-.221-.315-.214.093.078.377a2.059 2.059 0 0 0-.848.878l-.383-.067-.085.216.325.214c-.12.41-.107.83.02 1.217l-.32.224.093.214.381-.08c.195.356.494.65.875.846l-.067.386.215.086.216-.328c.41.119.83.108 1.215-.017l.225.32.212-.093-.078-.382c.355-.194.654-.492.848-.874l.384.068.086-.217-.325-.213zM21.73 64.515a1.658 1.658 0 1 1 1.223-3.08 1.658 1.658 0 0 1-1.223 3.08zm2.601-.962a2.052 2.052 0 0 0-.017-1.22l.317-.222-.093-.214-.377.078a2.06 2.06 0 0 0-.878-.85l.066-.38-.216-.085-.211.322a2.05 2.05 0 0 0-1.223.018l-.22-.315-.214.093.078.377a2.059 2.059 0 0 0-.848.878l-.383-.067-.085.216.325.214c-.12.41-.107.83.02 1.217l-.32.224.093.214.381-.08c.195.356.494.65.875.846l-.067.386.215.086.216-.328c.41.119.83.108 1.215-.017l.224.32.213-.093-.079-.382a2.04 2.04 0 0 0 .848-.874l.384.068.087-.217-.326-.213z" fill="#3A3A3A"/><path d="M38.356 43.992a.959.959 0 0 1-.957-.96l.01-6.824a.958.958 0 0 1 1.915.002l-.009 6.825a.959.959 0 0 1-.959.957M19.23 51.234a.957.957 0 0 1-1.35.112l-5.21-4.408a.958.958 0 0 1 1.238-1.463l5.21 4.41a.958.958 0 0 1 .112 1.35m40.356-.001a.957.957 0 0 0 1.35.112l5.21-4.408a.958.958 0 0 0-1.24-1.463l-5.208 4.41a.957.957 0 0 0-.112 1.35m36.553 58.673l-.002-3 13.576-.012V70.878h3v39.015zm-59.592.05l-.022-32.924 3-.003.022 29.924 37.37-.032.003 3z" fill="#2A2421"/><path d="M112.702 71.13h-2.984s-1.04-.953-1.286-1.351c-.388-.634-.993-2.807-.993-2.807h7.571s-.6 2.175-.994 2.807c-.249.4-1.314 1.35-1.314 1.35" fill="#2A2421"/><path d="M115.098 64.021c.253 0 .46.207.46.46s-.207.46-.46.46h-8.125a.461.461 0 0 1-.46-.46c0-.253.207-.46.46-.46m8.125-.878h-8.125a.461.461 0 0 1-.46-.46c0-.253.207-.46.46-.46h8.125c.253 0 .46.207.46.46s-.207.46-.46.46m0-1.799h-8.125a.461.461 0 0 1-.46-.46.46.46 0 0 1 .46-.46h8.125a.46.46 0 0 1 .46.46.461.461 0 0 1-.46.46m0-1.799h-8.125a.461.461 0 0 1-.46-.46c0-.253.207-.46.46-.46h8.125c.253 0 .46.207.46.46s-.207.46-.46.46m0-1.798h-8.125a.461.461 0 0 1-.46-.46c0-.253.207-.46.46-.46h8.125c.253 0 .46.207.46.46s-.207.46-.46.46" fill="#FCFCFC"/><path d="M117.99 55.246a1 1 0 0 1-.691-1.722 8.863 8.863 0 0 0 2.755-6.455c0-4.93-4.009-8.94-8.939-8.94s-8.939 4.01-8.939 8.94a8.86 8.86 0 0 0 2.728 6.428 1.001 1.001 0 0 1-1.39 1.439 10.853 10.853 0 0 1-3.338-7.867c0-6.032 4.907-10.94 10.94-10.94 6.031 0 10.938 4.908 10.938 10.94 0 3.01-1.198 5.816-3.373 7.899a.992.992 0 0 1-.69.278M110.455 33v-3.963a.66.66 0 1 1 1.32 0v3.962a.66.66 0 1 1-1.32 0m-8.909 4.171l-2.803-2.802a.66.66 0 1 1 .935-.934l2.802 2.802a.66.66 0 1 1-.934.934m-3.351 9.25h-3.964a.66.66 0 0 1 0-1.322h3.964a.66.66 0 0 1 0 1.321m25.68-1.16h3.963a.661.661 0 0 1 0 1.32h-3.963a.66.66 0 1 1 0-1.32m-4.171-8.909l2.802-2.803a.66.66 0 1 1 .934.934l-2.802 2.803a.66.66 0 1 1-.934-.934" fill="#FFF"/><path d="M112.442 46.214h1.995a.475.475 0 0 0 .475-.475V45.4a.984.984 0 0 0-.983-.982c-.82 0-1.487.667-1.487 1.487v.31zm-.5 6.143a.5.5 0 0 1-.5-.5v-4.643h-1.979a.5.5 0 0 1 0-1h1.98v-.309a2.49 2.49 0 0 1 2.486-2.487c1.093 0 1.983.89 1.983 1.982v.34c0 .812-.66 1.474-1.475 1.474h-1.995v4.643a.5.5 0 0 1-.5.5z" fill="#FFF"/><path d="M108.645 44.418c-.733 0-1.326.593-1.326 1.322 0 .261.212.474.474.474h1.995v-.654c0-.63-.513-1.142-1.142-1.142m1.642 7.939a.499.499 0 0 1-.5-.5v-4.643h-1.995a1.475 1.475 0 0 1-1.475-1.474 2.325 2.325 0 0 1 2.323-2.322c1.186 0 2.147.961 2.147 2.142v.654h1.978a.5.5 0 0 1 0 1h-1.978v4.643a.5.5 0 0 1-.5.5" fill="#FFF"/><path d="M63.17 121.202h-4.946a1 1 0 1 1 0-2h2.946v-9.353a1 1 0 1 1 2 0v11.353z" fill="#2A2421"/><path d="M54.163 117.685a2.49 2.49 0 0 0-2.488 2.488 2.492 2.492 0 0 0 2.488 2.49 2.492 2.492 0 0 0 2.49-2.49 2.49 2.49 0 0 0-2.49-2.488m0 6.977a4.494 4.494 0 0 1-4.488-4.489 4.493 4.493 0 0 1 4.488-4.488 4.494 4.494 0 0 1 4.49 4.488 4.494 4.494 0 0 1-4.49 4.49" fill="#2A2421"/><path d="M93.6 77.943h-6.006a1 1 0 1 1 0-2H93.6a1 1 0 1 1 0 2m-.272 9.1a1 1 0 0 1-1-1v-4.634a1 1 0 1 1 2 0v4.633a1 1 0 0 1-1 1" fill="#FFF"/><path d="M93.356 87.614a2.492 2.492 0 0 0-2.488 2.49 2.49 2.49 0 0 0 2.488 2.487 2.49 2.49 0 0 0 2.49-2.488 2.492 2.492 0 0 0-2.49-2.489m0 6.977a4.493 4.493 0 0 1-4.488-4.488 4.494 4.494 0 0 1 4.488-4.489 4.494 4.494 0 0 1 4.49 4.49 4.494 4.494 0 0 1-4.49 4.487" fill="#FFF"/><path d="M112.929 109.893H95.024a1.5 1.5 0 1 1 0-3h14.905V85.58h12.5a1.5 1.5 0 1 1 0 3h-9.5v21.312z" fill="#2A2421"/><path d="M85.807 118.643c-5.652 0-10.25-4.598-10.25-10.25a1.5 1.5 0 1 1 3 0c0 3.998 3.252 7.25 7.25 7.25s7.25-3.252 7.25-7.25a1.5 1.5 0 1 1 3 0c0 5.652-4.598 10.25-10.25 10.25m-60.164-14.856a1 1 0 0 1-1-1v-6.124h12.373v-7.875a1 1 0 1 1 2 0v9.875H26.643v4.124a1 1 0 0 1-1 1" fill="#2A2421"/><path d="M22.465 110.897h6.079v-6.547h-6.079v6.547zm-2 2h10.079V102.35H20.465v10.547z" fill="#2A2421"/><path d="M124.481 90.355h7.958v-7.417h-7.958v7.417zm-3 3h13.958V79.938h-13.958v13.417z" fill="#FFF"/></g></svg>