<svg width="73" height="66" xmlns="http://www.w3.org/2000/svg"><script xmlns="" type="text/javascript" charset="utf-8" id="zm-extension"/><g fill="none"><path d="M35.61 41.561c-3.708 0-7.415-1.073-10.83-3.22-9.268-5.95-12-18.341-6.048-27.61 2.927-4.487 7.317-7.609 12.585-8.682 5.17-1.171 10.537-.195 15.024 2.731 4.488 2.927 7.61 7.318 8.683 12.586 1.171 5.268.196 10.536-2.731 15.024-3.708 5.951-10.147 9.171-16.683 9.171zm0-39.024c-1.366 0-2.732.097-4.098.487-4.975 1.074-9.17 4-12 8.293-2.83 4.293-3.707 9.366-2.634 14.342 1.073 4.975 4 9.17 8.293 12 8.78 5.658 20.585 3.121 26.341-5.757 2.732-4.292 3.708-9.365 2.634-14.341-1.073-4.976-4-9.17-8.292-12A19.05 19.05 0 0 0 35.61 2.537z" fill="#3F3F3F"/><circle transform="rotate(-57.248 56.86 13.389)" cx="27.195" cy="27.36" r="19.512" fill="#FEDD00"/><path d="M18.732 8.098l-.78-.586A22.917 22.917 0 0 1 26.536.878l.39.878c-3.22 1.464-6.049 3.61-8.195 6.342zM16.195 12l-.878-.39c.39-.78.78-1.464 1.268-2.244l.78.488c-.39.78-.78 1.463-1.17 2.146zm-1.951 6.244l-.976-.195c.195-1.464.586-2.83 1.073-4.195l.879.292c-.39 1.366-.781 2.732-.976 4.098zm33.951 45.463c-3.707 0-7.415-1.073-10.83-3.22-9.267-5.95-12-18.34-6.048-27.609 5.951-9.268 18.342-12 27.61-6.049 4.488 2.927 7.61 7.317 8.683 12.586 1.17 5.268.195 10.536-2.732 15.024-3.61 5.951-10.146 9.268-16.683 9.268zm.098-39.024c-6.244 0-12.39 3.122-16 8.683-2.732 4.293-3.708 9.366-2.634 14.341 1.073 4.976 4 9.171 8.292 12 8.78 5.659 20.586 3.122 26.342-5.756C67.024 49.66 68 44.585 66.927 39.61c-1.073-4.976-4-9.171-8.293-12-3.317-1.951-6.83-2.927-10.341-2.927z" fill="#3F3F3F"/><path d="M20.585 62.537c-3.707 0-7.414-1.074-10.829-3.22-9.268-5.951-12-18.341-6.049-27.61 5.952-9.268 18.342-12 27.61-6.048 9.268 5.95 12 18.341 6.049 27.61-3.707 6.048-10.146 9.268-16.78 9.268zm.098-39.025c-6.244 0-12.39 3.122-16 8.683-5.659 8.78-3.122 20.585 5.756 26.342 8.78 5.658 20.585 3.122 26.341-5.757 5.66-8.78 3.122-20.585-5.756-26.34-3.22-1.951-6.829-2.927-10.341-2.927z" fill="#3F3F3F"/></g></svg>