<svg width="81" height="66" xmlns="http://www.w3.org/2000/svg"><script xmlns="" type="text/javascript" charset="utf-8" id="zm-extension"/><g transform="translate(1 1)" fill="none" fill-rule="evenodd"><path d="M57.79 46.95H2.652a2.18 2.18 0 0 1-2.184-2.184V2.652A2.18 2.18 0 0 1 2.652.468h63.795a2.18 2.18 0 0 1 2.184 2.184v18.015M.468 6.941H68.63M.468 40.476H57.79" stroke="#000" stroke-width="1.2"/><path stroke="#000" stroke-width="1.2" d="M42.66 46.95H27.53l-2.183 10.84h19.497zm15.13 10.84H13.492"/><path stroke="#000" stroke-width="1.2" stroke-linecap="round" d="M63.405 14.896l5.382 5.771 5.459-5.771"/><path d="M76.975 63.483H59.584c-.858 0-1.56-.702-1.56-1.56V27.609c0-.858.702-1.56 1.56-1.56h17.391c.858 0 1.56.702 1.56 1.56v34.316c0 .857-.702 1.56-1.56 1.56z" stroke="#000" stroke-width="1.2"/><circle fill="#3F3F3F" fill-rule="nonzero" cx="68.241" cy="59.974" r="1.638"/><path d="M76.118 57.244H60.364c-.468 0-.78-.312-.78-.78V29.948c0-.468.312-.78.78-.78h15.754c.468 0 .78.312.78.78v26.516c0 .468-.312.78-.78.78z" fill="#FFE735" fill-rule="nonzero"/></g></svg>