<?xml version="1.0" encoding="UTF-8"?>
<svg xmlns="http://www.w3.org/2000/svg" height="512pt" viewBox="-21 0 512 512.00007" width="512pt"> <path d="m366.933594 196.265625c4.710937 0 8.53125-3.820313 8.53125-8.53125v-102.402344h34.136718c9.425782 0 17.066407-7.640625 17.066407-17.066406v-25.597656c-.03125-23.554688-19.117188-42.6406252-42.667969-42.667969h-358.398438c-14.140624 0-25.601562 11.460938-25.601562 25.601562v460.796876c0 14.140624 11.460938 25.601562 25.601562 25.601562h230.398438c4.710938 0 8.535156-3.820312 8.535156-8.535156 0-4.710938-3.824218-8.53125-8.535156-8.53125h-230.398438c-4.714843 0-8.535156-3.820313-8.535156-8.535156v-460.796876c0-4.714843 3.820313-8.535156 8.535156-8.535156 14.136719 0 25.597657 11.460938 25.597657 25.601563v25.597656c0 9.425781 7.640625 17.066406 17.066406 17.066406h290.132813v102.402344c0 4.710937 3.820312 8.53125 8.535156 8.53125zm-307.421875-179.199219h324.488281c14.136719 0 25.601562 11.460938 25.601562 25.601563v25.597656h-341.335937v-25.597656c-.03125-9.265625-3.105469-18.257813-8.753906-25.601563zm0 0"/> <path d="m332.800781 119.464844c0-4.710938-3.820312-8.53125-8.535156-8.53125h-273.066406c-4.710938 0-8.53125 3.820312-8.53125 8.53125 0 4.714844 3.820312 8.535156 8.53125 8.535156h273.066406c4.714844 0 8.535156-3.820312 8.535156-8.535156zm0 0"/> <path d="m51.199219 264.535156h102.402343c4.710938 0 8.53125-3.824218 8.53125-8.535156v-102.398438c0-4.714843-3.820312-8.535156-8.53125-8.535156h-102.402343c-4.710938 0-8.53125 3.820313-8.53125 8.535156v102.398438c0 4.710938 3.820312 8.535156 8.53125 8.535156zm8.535156-102.402344h85.332031v85.332032h-85.332031zm0 0"/> <path d="m307.199219 145.066406h-119.464844c-4.714844 0-8.535156 3.820313-8.535156 8.535156 0 4.710938 3.820312 8.53125 8.535156 8.53125h119.464844c4.714843 0 8.535156-3.820312 8.535156-8.53125 0-4.714843-3.820313-8.535156-8.535156-8.535156zm0 0"/> <path d="m187.734375 196.265625h34.132813c4.710937 0 8.53125-3.820313 8.53125-8.53125 0-4.714844-3.820313-8.535156-8.53125-8.535156h-34.132813c-4.714844 0-8.535156 3.820312-8.535156 8.535156 0 4.710937 3.820312 8.53125 8.535156 8.53125zm0 0"/> <path d="m307.199219 196.265625c4.714843 0 8.535156-3.820313 8.535156-8.53125 0-4.714844-3.820313-8.535156-8.535156-8.535156h-51.199219c-4.710938 0-8.535156 3.820312-8.535156 8.535156 0 4.710937 3.824218 8.53125 8.535156 8.53125zm0 0"/> <path d="m256 221.867188c0-4.714844-3.820312-8.535157-8.535156-8.535157h-59.730469c-4.714844 0-8.535156 3.820313-8.535156 8.535157 0 4.710937 3.820312 8.53125 8.535156 8.53125h59.730469c4.714844 0 8.535156-3.820313 8.535156-8.53125zm0 0"/> <path d="m221.867188 256c0-4.710938-3.820313-8.535156-8.535157-8.535156h-25.597656c-4.714844 0-8.535156 3.824218-8.535156 8.535156s3.820312 8.535156 8.535156 8.535156h25.597656c4.714844 0 8.535157-3.824218 8.535157-8.535156zm0 0"/> <path d="m452.171875 303.148438c6.125-10.613282 6.128906-23.6875.003906-34.300782-6.121093-10.609375-17.4375-17.15625-29.691406-17.164062.082031-12.269532-6.476563-23.625-17.152344-29.679688-10.628906-6.121094-23.714843-6.121094-34.34375 0-6.101562-10.625-17.417969-17.175781-29.667969-17.175781s-23.566406 6.550781-29.664062 17.175781c-10.652344-5.996094-23.660156-5.996094-34.3125 0-10.625 6.101563-17.167969 17.425782-17.152344 29.679688-12.257812-.078125-23.597656 6.464844-29.664062 17.117187-6.128906 10.628907-6.128906 23.71875 0 34.347657-10.628906 6.09375-17.179688 17.410156-17.179688 29.664062s6.550782 23.570312 17.179688 29.667969c-6.125 10.609375-6.125 23.683593-.003906 34.296875 6.121093 10.613281 17.441406 17.15625 29.691406 17.167968 0 1.523438.101562 3.050782.300781 4.5625l-26.863281 38.171876c-4.066406 5.695312-4.238282 13.296874-.441406 19.175781 3.800781 5.878906 10.804687 8.839843 17.667968 7.472656l25.753906-5.265625 10.820313 23.84375c2.710937 6.148438 8.804687 10.109375 15.523437 10.09375h.734376c7.054687-.277344 13.210937-4.871094 15.488281-11.554688l13.917969-40.6875c2.683593.683594 5.445312 1.03125 8.214843 1.042969 2.773438-.011719 5.535157-.367187 8.21875-1.058593l13.96875 40.730468c2.277344 6.65625 8.40625 11.234375 15.4375 11.527344h.734375c6.699219.019531 12.777344-3.921875 15.496094-10.042969l10.820312-23.894531 25.777344 5.292969c6.859375 1.378906 13.867188-1.5625 17.683594-7.429688 3.8125-5.863281 3.660156-13.460937-.386719-19.171875l-26.953125-38.203125c.207032-1.515625.316406-3.042969.324219-4.574219 12.273437.074219 23.632813-6.496093 29.6875-17.175781 6.125-10.628906 6.125-23.71875 0-34.347656 10.625-6.097656 17.179687-17.414063 17.179687-29.664063 0-12.253906-6.554687-23.570312-17.179687-29.667968zm-149.144531 191.785156-10.804688-23.808594c-3.234375-7.328125-11.148437-11.402344-18.992187-9.777344l-25.695313 5.238282 21.164063-30.0625c10.769531 12.34375 28.78125 15.324218 42.957031 7.109374 1.695312 2.894532 3.808594 5.527344 6.261719 7.816407zm132.171875-28.324219-25.683594-5.273437c-7.835937-1.628907-15.753906 2.40625-19.039063 9.703124l-10.863281 23.894532-14.871093-43.519532c2.449218-2.277343 4.554687-4.898437 6.246093-7.78125 10.652344 5.992188 23.660157 5.992188 34.3125 0 3.257813-1.882812 6.171875-4.300781 8.625-7.152343zm1.253906-116.742187c-3.609375.265624-6.664063 2.78125-7.609375 6.277343-.949219 3.492188.410156 7.207031 3.394531 9.261719 7.332031 5.097656 9.550781 14.957031 5.105469 22.703125-4.441406 7.746094-14.066406 10.8125-22.171875 7.0625-3.265625-1.589844-7.175781-.9375-9.75 1.621094-2.574219 2.5625-3.246094 6.46875-1.675781 9.742187 3.886718 8.105469.859375 17.832032-6.9375 22.300782-7.792969 4.371093-17.628906 2.164062-22.800782-5.121094-2.035156-3.039063-5.78125-4.445313-9.3125-3.492188-3.53125.949219-6.0625 4.046875-6.296874 7.699219-.789063 8.835937-8.195313 15.605469-17.066407 15.605469-8.871093 0-16.273437-6.769532-17.066406-15.605469-.265625-3.613281-2.78125-6.664063-6.28125-7.613281-.730469-.199219-1.488281-.300782-2.25-.296875-2.808594 0-5.441406 1.378906-7.03125 3.695312-5.121094 7.394531-15.058594 9.621094-22.84375 5.117188-7.792969-4.441407-10.816406-14.15625-6.921875-22.238281 1.589844-3.261719.9375-7.175782-1.625-9.75-2.558594-2.574219-6.46875-3.246094-9.742188-1.675782-8.09375 3.90625-17.832031.878906-22.289062-6.925781-1.535156-2.605469-2.34375-5.574219-2.335938-8.59375-.003906-5.683594 2.792969-11.003906 7.484376-14.21875 2.996093-2.046875 4.367187-5.769531 3.417968-9.273437-.949218-3.507813-4.011718-6.027344-7.636718-6.28125-8.925782-.691407-15.816407-8.136719-15.816407-17.09375 0-8.953126 6.890625-16.398438 15.816407-17.089844 3.613281-.265625 6.664062-2.78125 7.613281-6.277344s-.414063-7.210938-3.394531-9.261719c-7.332032-5.101562-9.550782-14.957031-5.109376-22.703125 4.441407-7.75 14.070313-10.8125 22.175782-7.0625 3.261718 1.589844 7.175781.9375 9.75-1.625 2.574218-2.558594 3.246094-6.46875 1.675781-9.742187-3.886719-8.101563-.859375-17.828125 6.9375-22.296875 7.792969-4.363282 17.621094-2.15625 22.800781 5.121094 2.027344 3.035156 5.761719 4.441406 9.289063 3.503906 3.527343-.941406 6.066406-4.019532 6.316406-7.660156.792969-8.835938 8.195313-15.609376 17.066406-15.609376 8.871094 0 16.277344 6.773438 17.066407 15.609376.261718 3.617187 2.78125 6.675781 6.28125 7.621093 3.5.949219 7.214843-.417969 9.269531-3.40625 5.125-7.386719 15.054687-9.613281 22.84375-5.121093 7.789062 4.445312 10.8125 14.160156 6.917969 22.238281-1.585938 3.265625-.9375 7.179687 1.625 9.753906 2.558593 2.570313 6.46875 3.242187 9.742187 1.671875 8.097656-3.894531 17.828125-.867188 22.289063 6.929688 1.535156 2.601562 2.34375 5.570312 2.339843 8.59375.003907 5.683593-2.796875 11.003906-7.484375 14.214843-3 2.054688-4.371094 5.777344-3.417968 9.285157.957031 3.503906 4.023437 6.023437 7.648437 6.273437 8.929687.691406 15.820313 8.136719 15.820313 17.089844 0 8.957031-6.890626 16.402343-15.820313 17.09375zm0 0"/> <path d="m341.332031 256c-42.414062 0-76.796875 34.382812-76.796875 76.800781 0 42.414063 34.382813 76.800781 76.796875 76.800781 42.417969 0 76.800781-34.386718 76.800781-76.800781-.046874-42.398437-34.402343-76.753906-76.800781-76.800781zm0 136.535156c-32.988281 0-59.730469-26.746094-59.730469-59.734375 0-32.992187 26.742188-59.734375 59.730469-59.734375 32.992188 0 59.734375 26.742188 59.734375 59.734375-.039062 32.972657-26.757812 59.695313-59.734375 59.734375zm0 0"/> <path d="m341.332031 358.398438c-14.136719 0-25.597656-11.460938-25.597656-25.597657 0-4.714843-3.820313-8.535156-8.535156-8.535156-4.710938 0-8.53125 3.820313-8.53125 8.535156.027343 23.550781 19.113281 42.636719 42.664062 42.664063 4.714844 0 8.535157-3.820313 8.535157-8.53125 0-4.714844-3.820313-8.535156-8.535157-8.535156zm0 0"/> <path d="m51.199219 298.667969h93.867187c4.714844 0 8.535156-3.820313 8.535156-8.535157 0-4.710937-3.820312-8.53125-8.535156-8.53125h-93.867187c-4.710938 0-8.53125 3.820313-8.53125 8.53125 0 4.714844 3.820312 8.535157 8.53125 8.535157zm0 0"/> <path d="m196.265625 298.667969c4.714844 0 8.535156-3.820313 8.535156-8.535157 0-4.710937-3.820312-8.53125-8.535156-8.53125h-17.066406c-4.710938 0-8.53125 3.820313-8.53125 8.53125 0 4.714844 3.820312 8.535157 8.53125 8.535157zm0 0"/> <path d="m51.199219 332.800781h136.535156c4.710937 0 8.53125-3.820312 8.53125-8.535156 0-4.710937-3.820313-8.53125-8.53125-8.53125h-136.535156c-4.710938 0-8.53125 3.820313-8.53125 8.53125 0 4.714844 3.820312 8.535156 8.53125 8.535156zm0 0"/> <path d="m51.199219 366.933594h42.667969c4.710937 0 8.53125-3.820313 8.53125-8.535156 0-4.710938-3.820313-8.53125-8.53125-8.53125h-42.667969c-4.710938 0-8.53125 3.820312-8.53125 8.53125 0 4.714843 3.820312 8.535156 8.53125 8.535156zm0 0"/> <path d="m187.734375 349.867188h-59.734375c-4.710938 0-8.535156 3.820312-8.535156 8.53125 0 4.714843 3.824218 8.535156 8.535156 8.535156h59.734375c4.710937 0 8.53125-3.820313 8.53125-8.535156 0-4.710938-3.820313-8.53125-8.53125-8.53125zm0 0"/> <path d="m51.199219 401.066406h119.46875c4.710937 0 8.53125-3.820312 8.53125-8.53125 0-4.714844-3.820313-8.535156-8.53125-8.535156h-119.46875c-4.710938 0-8.53125 3.820312-8.53125 8.535156 0 4.710938 3.820312 8.53125 8.53125 8.53125zm0 0"/> <path d="m51.199219 435.199219h153.601562c4.710938 0 8.53125-3.820313 8.53125-8.53125 0-4.714844-3.820312-8.535157-8.53125-8.535157h-153.601562c-4.710938 0-8.53125 3.820313-8.53125 8.535157 0 4.710937 3.820312 8.53125 8.53125 8.53125zm0 0"/> </svg>