<svg xmlns="http://www.w3.org/2000/svg" width="50" height="50" viewBox="0 0 50 50">
  <metadata><?xpacket begin="﻿" id="W5M0MpCehiHzreSzNTczkc9d"?>
<x:xmpmeta xmlns:x="adobe:ns:meta/" x:xmptk="Adobe XMP Core 5.6-c142 79.160924, 2017/07/13-01:06:39        ">
   <rdf:RDF xmlns:rdf="http://www.w3.org/1999/02/22-rdf-syntax-ns#">
      <rdf:Description rdf:about=""/>
   </rdf:RDF>
</x:xmpmeta>
                                                                                                    
                                                                                                    
                                                                                                    
                                                                                                    
                                                                                                    
                                                                                                    
                                                                                                    
                                                                                                    
                                                                                                    
                                                                                                    
                                                                                                    
                                                                                                    
                                                                                                    
                                                                                                    
                                                                                                    
                                                                                                    
                                                                                                    
                                                                                                    
                                                                                                    
                                                                                                    
                           
<?xpacket end="w"?></metadata>
<defs>
    <style>
      .cls-1 {
        fill: #d82541;
        fill-rule: evenodd;
      }
    </style>
  </defs>
  <path class="cls-1" d="M1301.11,1658.32v0.3c0,1.21-.01,2.43,0,3.64a1.14,1.14,0,0,1-.36.88c-0.49.48-.97,0.97-1.45,1.44a0.444,0.444,0,0,0-.15.37v6.36a1.553,1.553,0,0,1-.04.37,0.853,0.853,0,0,1-.79.66,2.048,2.048,0,0,0-.42.07,1.076,1.076,0,0,0,.08,2.05,1.093,1.093,0,0,0,1.19-.45c0.04-.06.06-0.13,0.1-0.19a0.872,0.872,0,0,1,1.16-.35,0.857,0.857,0,0,1,.4,1.16,2.749,2.749,0,0,1-2.15,1.6,2.826,2.826,0,0,1-3.22-2.33,2.854,2.854,0,0,1,1.63-3.07c0.09-.04.17-0.07,0.28-0.12v-0.25c0-1.83,0-3.67.01-5.5a0.513,0.513,0,0,0-.16-0.39c-0.5-.48-0.98-0.98-1.47-1.46a1.043,1.043,0,0,1-.33-0.8c0.01-1.23,0-2.46,0-3.69v-0.29h-14.46c-0.06.17-.08,22.18-0.03,22.63,0.09,0,.18.01,0.27,0.01h2.75a2.838,2.838,0,0,1,2.76,2.15,3.453,3.453,0,0,1,.08.72c0.01,2.02,0,4.05.01,6.07a0.907,0.907,0,0,1-.72.94,2,2,0,0,1-.35.02h-21.12c-0.1,0-.21.01-0.31,0a0.87,0.87,0,0,1-.82-0.79,1.275,1.275,0,0,1-.01-0.19v-6.05a2.838,2.838,0,0,1,2.35-2.83,3.435,3.435,0,0,1,.56-0.04h2.93c0.05-.19.06-22.33,0.01-22.63h-2.12v4.77a1.872,1.872,0,0,1-.04.42,0.849,0.849,0,0,1-.78.67h-8.36a1.542,1.542,0,0,1-.37-0.03,0.876,0.876,0,0,1-.65-0.8v-5.03a1.366,1.366,0,0,0-.19-0.02h-0.87a0.881,0.881,0,0,1-.9-0.82,1.477,1.477,0,0,1-.01-0.21c0-1.21,0-2.41.01-3.62a1.6,1.6,0,0,1,.09-0.53,0.986,0.986,0,0,1,.44-0.44c1.69-1.03,3.37-2.06,5.06-3.09q5.91-3.6,11.82-7.21a1.209,1.209,0,0,0,.39-0.36,2.852,2.852,0,0,1,4.01-.59,1.876,1.876,0,0,0,.36.21q13.575,5.49,27.13,10.99a0.924,0.924,0,0,1,.69,1.02v3.7a0.937,0.937,0,0,1-.3.73,0.9,0.9,0,0,1-.63.22h-2.99Zm-35.87,30.76h19.79v-5.25a1.069,1.069,0,0,0-.9-1.08,2,2,0,0,0-.35-0.02h-17.52a1.057,1.057,0,0,0-.95.7,1.251,1.251,0,0,0-.07.43c-0.01,1.68-.01,3.36-0.01,5.04C1265.23,1688.95,1265.24,1689,1265.24,1689.08Zm15.69-32.53h22.31v-2.22q-11.16-.9-22.31-1.81v4.03Zm-2.94-5.87h0.33c0.69,0.01,1.39-.01,2.09.03,1.06,0.06,2.12.17,3.19,0.26,1.05,0.08,2.1.16,3.16,0.25,1.25,0.1,2.5.21,3.75,0.31,1.06,0.08,2.12.16,3.18,0.25l4.34,0.36a2.253,2.253,0,0,0,.26,0,0.307,0.307,0,0,0-.14-0.09q-10.05-4.08-20.11-8.14a0.037,0.037,0,0,0-.03.01,0.031,0.031,0,0,0-.02.01v6.75Zm-8.66,1.89q-6.27.87-12.51,1.72v2.26h12.51v-3.98Zm2.95-8q-6.12,3.735-12.19,7.44a0.121,0.121,0,0,0,.12.03l2.86-.39c0.96-.13,1.93-0.26,2.89-0.4,0.98-.13,1.97-0.27,2.95-0.4a11.262,11.262,0,0,1,1.73-.17c0.47,0.01.94,0,1.41,0,0.08,0,.15-0.01.23-0.01v-6.1Zm-6.87,13.76h-6.61c-0.06.24-.05,3.93,0.01,4.1h6.6v-4.1Zm5.72,22.62h6.8c-2.28-2.34-4.52-4.66-6.8-7.01v7.01Zm8.01-21.49v-7.01c-0.06,0-.09-0.01-0.13-0.01q-3.3,0-6.61.01a0.01,0.01,0,0,0-.01.01,0.07,0.07,0,0,0-.02.04C1274.61,1654.8,1276.85,1657.12,1279.14,1659.46Zm-8.01,11.4c0.06,0,.1.01,0.15,0.01,2.19,0,4.39,0,6.58-.01,0.01,0,.02,0,0.02-0.01a0.1,0.1,0,0,1,.01-0.04c-2.24-2.3-4.48-4.62-6.76-6.97v7.02Zm8.01-8.3h-6.8c2.24,2.31,4.46,4.59,6.67,6.87,0.03,0.03.06,0.05,0.09,0.08h0.02c0.01,0,.01-0.01.02-0.01v-6.94Zm-8.01-8.81v7.01h6.8Zm1.23,18.91c0.04,0.05.06,0.08,0.08,0.1q3.33,3.42,6.65,6.84a0.031,0.031,0,0,0,.02.01c0.01-.01.02-0.01,0.03-0.02v-6.93h-6.78Zm3.84-21.99v-4.65c0-.79.01-1.57,0-2.35a1.068,1.068,0,0,0-2.11-.2,1.722,1.722,0,0,0-.04.39v6.81h2.15Zm20.98,7.66v0.28c0,0.96,0,1.91.01,2.87a1.494,1.494,0,0,0,.02.56,1.613,1.613,0,0,0,.38.41l0.66,0.66a0.21,0.21,0,0,0,.07-0.05l0.93-.93a0.291,0.291,0,0,0,.09-0.25v-3.38a0.985,0.985,0,0,0-.02-0.17h-2.14Zm-20.07,26.56h4.66c0.1,0,.2,0,0.31.01a0.869,0.869,0,0,1,.79.86,0.857,0.857,0,0,1-.78.88,2.528,2.528,0,0,1-.28.01h-9.43a2.62,2.62,0,0,1-.28-0.01,0.863,0.863,0,0,1-.79-0.87,0.875,0.875,0,0,1,.82-0.87c0.1-.01.2-0.01,0.3-0.01h4.68Zm-9.72.88a0.88,0.88,0,1,1,1.76.01A0.88,0.88,0,0,1,1267.39,1685.77Z" transform="translate(-1255.03 -1640.88)"/>
</svg>