<svg xmlns="http://www.w3.org/2000/svg" width="54" height="54" viewBox="0 0 54 54"><g><g><g><path d="M52.2 43.2H5.4v-3.6h46.8zm0 9h-1.8V45h1.8zM5.4 33.3h14.4v4.5H5.4zm0-5.4h6.3a1.8 1.8 0 0 1 0 3.6H5.4zm16.2 2.7h9v7.2h-9zm10.8.9h18a.9.9 0 0 1 .9.9v5.4H32.4zM3.6 51.3H1.8V16.2h1.8zm49.5-18.9a2.708 2.708 0 0 0-2.7-2.7H32.148a1.79 1.79 0 0 0-1.548-.9h-9a1.805 1.805 0 0 0-1.8 1.8v.9h-5.004a3.515 3.515 0 0 0 .504-1.8 3.6 3.6 0 0 0-3.6-3.6H5.4V15.3a.9.9 0 0 0-.9-.9H.9a.9.9 0 0 0-.9.9v36.9a.9.9 0 0 0 .9.9h3.6a.9.9 0 0 0 .9-.9V45h43.2v8.1a.9.9 0 0 0 .9.9h3.6a.9.9 0 0 0 .9-.9V38.7a.9.9 0 0 0-.9-.9z"/></g><g><path d="M43.2 10.8a.9.9 0 0 1-.9.9h-.9V9.9a1.805 1.805 0 0 0-1.8-1.8H14.4a1.805 1.805 0 0 0-1.8 1.8v1.8h-.9a.9.9 0 0 1-.9-.9V2.7a.9.9 0 0 1 .9-.9h30.6a.9.9 0 0 1 .9.9zm-3.6.9H14.4V9.9h25.2zM11.7 0A2.708 2.708 0 0 0 9 2.7v8.1a2.708 2.708 0 0 0 2.7 2.7h30.6a2.708 2.708 0 0 0 2.7-2.7V2.7A2.708 2.708 0 0 0 42.3 0z"/></g></g></g></svg>