<svg xmlns="http://www.w3.org/2000/svg" width="64" height="62" viewBox="0 0 64 62"><g><g><g><g><path d="M3 44.99a1 1 0 0 1-1-1v-38a1 1 0 1 1 2 0v38a1 1 0 0 1-1 1z"/></g><g><path d="M3 6.99a1 1 0 0 1-1-1c0-1.654 1.346-3 3-3a1 1 0 1 1 0 2 1 1 0 0 0-1 1 1 1 0 0 1-1 1z"/></g></g><g><g><path d="M57 41.187a1 1 0 0 1-1-1V5.99a1 1 0 1 1 2 0v34.197a1 1 0 0 1-1 1z"/></g><g><path d="M57 6.99a1 1 0 0 1-1-1 1 1 0 0 0-1-1 1 1 0 1 1 0-2c1.654 0 3 1.346 3 3a1 1 0 0 1-1 1z"/></g></g><g><path d="M54.996 4.99H5a1 1 0 1 1 0-2h49.996a1 1 0 1 1 0 2z"/></g><g><path d="M41.414 47.99H1a1 1 0 0 1-1-1v-3a1 1 0 0 1 1-1h41.779c.554 0 1 .447 1 1 0 .553-.446 1-1 1H2v1h39.414a1 1 0 1 1 0 2z"/></g><g><g><g><path d="M19 61.991a.998.998 0 0 1-.941-1.336l5-14a.995.995 0 0 1 1.277-.605.997.997 0 0 1 .605 1.277l-5 14a1 1 0 0 1-.94.664z"/></g><g><path d="M14 61.991a.998.998 0 0 1-.941-1.336l5-14a.995.995 0 0 1 1.277-.605.997.997 0 0 1 .605 1.277l-5 14a1 1 0 0 1-.94.664z"/></g><g><path d="M19 61.99h-5a1 1 0 1 1 0-2h5a1 1 0 1 1 0 2z"/></g></g><g><g><path d="M41 61.99a1 1 0 0 1-.941-.664l-5-14a.998.998 0 1 1 1.882-.672l5 14A.998.998 0 0 1 41 61.99z"/></g><g><path d="M45.997 61.992a1 1 0 0 1-.94-.664l-.858-2.402a.998.998 0 0 1 .604-1.277.996.996 0 0 1 1.277.605l.857 2.402a.998.998 0 0 1-.94 1.336z"/></g><g><path d="M46 61.99h-5a1 1 0 1 1 0-2h5a1 1 0 1 1 0 2z"/></g></g></g><g><path d="M38.146 53.99H21.86a1 1 0 1 1 0-2h16.286a1 1 0 1 1 0 2z"/></g><g><path d="M39.208 56.99H20.78a1 1 0 1 1 0-2h18.428c.554 0 1 .447 1 1 0 .553-.446 1-1 1z"/></g><g><path d="M27 1.99h6v1h-6zm8 2v-3a1 1 0 0 0-1-1h-8a1 1 0 0 0-1 1v3a1 1 0 0 0 1 1h8a1 1 0 0 0 1-1z"/></g><g><path d="M13 33.99c0 1.104-.897 2-2 2s-2-.896-2-2 .897-2 2-2 2 .896 2 2zm2 0c0-2.206-1.794-4-4-4s-4 1.794-4 4c0 2.205 1.794 4 4 4s4-1.795 4-4z"/></g><g><path d="M48 19.99c0 1.103-.896 2-2 2s-2-.897-2-2 .896-2 2-2 2 .897 2 2zm2 0c0-2.206-1.794-4-4-4s-4 1.794-4 4 1.794 4 4 4 4-1.794 4-4z"/></g><g><path d="M46 20.99a1 1 0 0 1-1-1v-9a1 1 0 1 1 2 0v9a1 1 0 0 1-1 1z"/></g><g><path d="M52 11.99h-6a1 1 0 1 1 0-2h6a1 1 0 1 1 0 2z"/></g><g><path d="M52 15.99h-6a1 1 0 1 1 0-2h6a1 1 0 1 1 0 2z"/></g><g><path d="M52.002 15.99a1 1 0 0 1-.896-.553l-1-2a.993.993 0 0 1 0-.895l1-2a1.001 1.001 0 0 1 1.789.895l-.776 1.553.776 1.553a1.001 1.001 0 0 1-.893 1.447z"/></g><g><path d="M16 29.99a.999.999 0 0 1-.747-1.664c.339-.382 8.474-9.336 23.747-9.336a1 1 0 1 1 0 2c-14.385 0-22.176 8.578-22.253 8.664a.994.994 0 0 1-.747.336z"/></g><g><path d="M37 22.99a.999.999 0 0 1-.707-1.707l2-2a.999.999 0 1 1 1.414 1.414l-2 2a.993.993 0 0 1-.707.293z"/></g><g><path d="M39 20.99a.997.997 0 0 1-.707-.292l-2-2a.999.999 0 1 1 1.414-1.414l2 2A.999.999 0 0 1 39 20.99z"/></g><g><path d="M11.03 34.99c-.556 0-1.01-.447-1.01-1 0-.553.444-1 .999-1h.011c.555 0 1.005.447 1.005 1 0 .553-.45 1-1.005 1z"/></g><g><path d="M13 20.99a.997.997 0 0 1-.707-.292l-4-4a.999.999 0 1 1 1.414-1.414l4 4A.999.999 0 0 1 13 20.99z"/></g><g><path d="M9 20.99a.999.999 0 0 1-.707-1.707l4-4a.999.999 0 1 1 1.414 1.414l-4 4A.993.993 0 0 1 9 20.99z"/></g><g><path d="M28 13.99a.997.997 0 0 1-.707-.292l-4-4a.999.999 0 1 1 1.414-1.414l4 4A.999.999 0 0 1 28 13.99z"/></g><g><path d="M24 13.99a.999.999 0 0 1-.707-1.707l4-4a.999.999 0 1 1 1.414 1.414l-4 4a.993.993 0 0 1-.707.293z"/></g><g><path d="M30 39.99a.997.997 0 0 1-.707-.293l-4-4a.999.999 0 1 1 1.414-1.414l4 4A.999.999 0 0 1 30 39.99z"/></g><g><path d="M26 39.99a.999.999 0 0 1-.707-1.707l4-4a.999.999 0 1 1 1.414 1.414l-4 4a.993.993 0 0 1-.707.293z"/></g><g><path d="M45 34.99a.997.997 0 0 1-.707-.292l-4-4a.999.999 0 1 1 1.414-1.414l4 4A.999.999 0 0 1 45 34.99z"/></g><g><path d="M41 34.99a.999.999 0 0 1-.707-1.707l4-4a.999.999 0 1 1 1.414 1.414l-4 4a.993.993 0 0 1-.707.293z"/></g><g><g><path d="M62 50.01c0 5.514-4.486 10-10 10s-10-4.486-10-10 4.486-10 10-10 10 4.486 10 10zm2 0c0-6.617-5.383-12-12-12s-12 5.383-12 12 5.383 12 12 12 12-5.383 12-12z"/></g><g><path d="M61.315 45.173a.914.914 0 0 1-.146-.01l-4.616-.68a1 1 0 0 1-.751-.547l-2.048-4.154a.998.998 0 0 1 .454-1.338.999.999 0 0 1 1.339.453l1.816 3.685 4.097.603a1 1 0 0 1-.145 1.988z"/></g><g><path d="M60.392 58.106a.999.999 0 0 1-.984-.832l-.803-4.684a1 1 0 0 1 .287-.886l3.36-3.27a.999.999 0 1 1 1.395 1.433l-2.984 2.904.714 4.164a.996.996 0 0 1-.815 1.154.716.716 0 0 1-.17.017z"/></g><g><path d="M47.781 61.163a1.001 1.001 0 0 1-.465-1.887l4.224-2.213c.291-.15.637-.15.928 0l4.224 2.213a1 1 0 1 1-.928 1.773l-3.76-1.97-3.759 1.97a.983.983 0 0 1-.464.114z"/></g><g><path d="M43.6 58.105a.996.996 0 0 1-.985-1.17l.715-4.164-2.987-2.904a1 1 0 0 1 1.394-1.434l3.363 3.27a1 1 0 0 1 .289.887l-.805 4.684a.997.997 0 0 1-.984.83z"/></g><g><path d="M42.688 45.173a1 1 0 0 1-.143-1.99l4.097-.602 1.814-3.685a1.007 1.007 0 0 1 1.34-.455c.495.244.699.845.455 1.34l-2.047 4.154c-.146.295-.428.5-.752.547l-4.616.679a.867.867 0 0 1-.148.012z"/></g><g><path d="M48.97 48.432l3.026-2.205 3.027 2.202-1.155 3.561h-3.744zm6.577 4.869l1.606-4.941a.999.999 0 0 0-.363-1.118l-4.206-3.06a.996.996 0 0 0-1.176 0l-4.206 3.06a1 1 0 0 0-.363 1.118l1.606 4.941a1 1 0 0 0 .951.689h5.2c.433 0 .817-.279.951-.689z"/></g></g></g></g></svg>