<svg xmlns="http://www.w3.org/2000/svg" width="36" height="50" viewBox="0 0 36 50">
  <metadata><?xpacket begin="﻿" id="W5M0MpCehiHzreSzNTczkc9d"?>
<x:xmpmeta xmlns:x="adobe:ns:meta/" x:xmptk="Adobe XMP Core 5.6-c142 79.160924, 2017/07/13-01:06:39        ">
   <rdf:RDF xmlns:rdf="http://www.w3.org/1999/02/22-rdf-syntax-ns#">
      <rdf:Description rdf:about=""/>
   </rdf:RDF>
</x:xmpmeta>
                                                                                                    
                                                                                                    
                                                                                                    
                                                                                                    
                                                                                                    
                                                                                                    
                                                                                                    
                                                                                                    
                                                                                                    
                                                                                                    
                                                                                                    
                                                                                                    
                                                                                                    
                                                                                                    
                                                                                                    
                                                                                                    
                                                                                                    
                                                                                                    
                                                                                                    
                                                                                                    
                           
<?xpacket end="w"?></metadata>
<defs>
    <style>
      .cls-1 {
        fill: #d82541;
        fill-rule: evenodd;
      }
    </style>
  </defs>
  <path class="cls-1" d="M590.638,7770.72l-3.02-5.54v-3.8a16.309,16.309,0,1,0-32.618,0v2.82a16.855,16.855,0,0,0,3.028,9.68v8.07a0.972,0.972,0,1,0,1.944,0v-8.38a0.97,0.97,0,0,0-.185-0.57,14.93,14.93,0,0,1-2.842-8.8v-2.82a14.365,14.365,0,1,1,28.729,0v4.05a0.988,0.988,0,0,0,.119.47l3.14,5.76a0.962,0.962,0,0,1-.018.96,0.941,0.941,0,0,1-.822.46h-1.447a0.975,0.975,0,0,0-.686.28,1,1,0,0,0-.286.69v4.36a4.224,4.224,0,0,1-4.2,4.23H578.55a2.408,2.408,0,0,0-2.4,2.41v7.46l-13.216-5.96a0.975,0.975,0,0,0-.8,1.78l14.587,6.58a0.932,0.932,0,0,0,.4.09,0.92,0.92,0,0,0,.528-0.16,0.979,0.979,0,0,0,.444-0.82v-8.97a0.462,0.462,0,0,1,.458-0.46h2.919a6.17,6.17,0,0,0,6.149-6.18v-3.37h0.475a2.864,2.864,0,0,0,2.493-1.43A2.9,2.9,0,0,0,590.638,7770.72Zm-9.827-12.71h0l-0.652-.08c-0.042-.1-0.086-0.21-0.131-0.31l0.407-.52a2.347,2.347,0,0,0-.046-3.1l-1.7-1.72a2.327,2.327,0,0,0-3.089-.04l-0.516.41c-0.1-.05-0.21-0.09-0.316-0.13l-0.077-.66a2.337,2.337,0,0,0-2.217-2.16h-2.409a2.337,2.337,0,0,0-2.217,2.16l-0.077.66c-0.106.04-.211,0.08-0.315,0.13l-0.516-.41a2.327,2.327,0,0,0-3.089.04l-1.7,1.72a2.345,2.345,0,0,0-.045,3.1l0.406,0.52c-0.045.1-.089,0.21-0.13,0.31l-0.653.08a2.339,2.339,0,0,0-2.152,2.23v2.42a2.346,2.346,0,0,0,2.152,2.23l0.652,0.07c0.042,0.11.086,0.22,0.131,0.32l-0.407.52a2.346,2.346,0,0,0,.046,3.1l1.7,1.71a2.316,2.316,0,0,0,3.089.05l0.516-.41c0.1,0.05.209,0.09,0.315,0.13l0.077,0.66a2.337,2.337,0,0,0,2.217,2.16h2.409a2.337,2.337,0,0,0,2.217-2.16l0.077-.66c0.107-.04.212-0.08,0.316-0.13l0.516,0.41a2.316,2.316,0,0,0,3.089-.05l1.7-1.71a2.346,2.346,0,0,0,.046-3.1l-0.407-.52c0.045-.1.089-0.21,0.131-0.32l0.652-.07a2.346,2.346,0,0,0,2.152-2.23v-2.42A2.339,2.339,0,0,0,580.811,7758.01Zm0.208,4.65a0.467,0.467,0,0,1-.436.29l-1.252.14a0.98,0.98,0,0,0-.812.68,7.638,7.638,0,0,1-.491,1.19,0.973,0.973,0,0,0,.1,1.05l0.781,1a0.456,0.456,0,0,1,.106.51l-1.7,1.71a0.466,0.466,0,0,1-.511-0.1l-0.99-.79a0.957,0.957,0,0,0-1.049-.1,7.3,7.3,0,0,1-1.186.49,0.986,0.986,0,0,0-.671.82l-0.148,1.26a0.464,0.464,0,0,1-.285.44h-2.41a0.463,0.463,0,0,1-.286-0.44l-0.148-1.26a0.985,0.985,0,0,0-.67-0.82,7.332,7.332,0,0,1-1.186-.49,1.014,1.014,0,0,0-.447-0.11,0.961,0.961,0,0,0-.6.21l-0.99.79a0.465,0.465,0,0,1-.51.1l-1.7-1.71a0.456,0.456,0,0,1,.106-0.51l0.781-1a0.975,0.975,0,0,0,.1-1.05,7.546,7.546,0,0,1-.492-1.19,0.955,0.955,0,0,0-.812-0.67l-1.252-.15a0.467,0.467,0,0,1-.436-0.29v-2.42a0.453,0.453,0,0,1,.436-0.29l1.252-.15a0.968,0.968,0,0,0,.812-0.67,7.546,7.546,0,0,1,.492-1.19,0.994,0.994,0,0,0-.1-1.06l-0.78-.99a0.455,0.455,0,0,1-.107-0.51l1.7-1.71a0.446,0.446,0,0,1,.51.1l0.99,0.79a1,1,0,0,0,1.05.1,7.329,7.329,0,0,1,1.185-.5,0.96,0.96,0,0,0,.67-0.81l0.148-1.26a0.463,0.463,0,0,1,.286-0.44h2.41a0.464,0.464,0,0,1,.285.44l0.148,1.26a0.961,0.961,0,0,0,.671.81,7.378,7.378,0,0,1,1.186.5,1,1,0,0,0,1.049-.1l0.99-.79a0.446,0.446,0,0,1,.51-0.1l1.7,1.71a0.456,0.456,0,0,1-.106.51l-0.781.99a0.994,0.994,0,0,0-.1,1.06,7.546,7.546,0,0,1,.492,1.19,0.97,0.97,0,0,0,.812.67l1.252,0.15a0.453,0.453,0,0,1,.436.29v2.42h0Zm-9.753-6.15a4.94,4.94,0,1,0,4.919,4.94A4.937,4.937,0,0,0,571.266,7756.51Zm0,7.93a2.99,2.99,0,1,1,2.974-2.99A2.984,2.984,0,0,1,571.266,7764.44Zm-12.178,20.35a0.98,0.98,0,1,1-.972.98A0.977,0.977,0,0,1,559.088,7784.79Z" transform="translate(-555 -7745)"/>
</svg>