<?xml version="1.0" encoding="UTF-8"?>
<svg xmlns="http://www.w3.org/2000/svg" height="480pt" viewBox="-16 0 480 480" width="480pt"> <path d="m424 376c-5.558594.015625-10.933594 1.976562-15.199219 5.542969l-41.289062-24.742188c.328125-1.578125.492187-3.1875.488281-4.800781-.039062-10.132812-6.445312-19.148438-16-22.527344v-50.945312c9.554688-3.378906 15.960938-12.394532 16-22.527344.003906-1.613281-.160156-3.222656-.488281-4.800781l41.410156-24.800781c5.289063 4.480468 12.277344 6.40625 19.117187 5.273437 6.835938-1.128906 12.832032-5.207031 16.394532-11.152344 2.355468-3.75 3.59375-8.09375 3.566406-12.519531-.039062-10.132812-6.445312-19.148438-16-22.527344v-25.472656c0-4.417969-3.582031-8-8-8s-8 3.582031-8 8v25.472656c-11.351562 3.855469-18.007812 15.609375-15.472656 27.328125l-41.367188 24.800781c-8.753906-7.394531-21.5625-7.394531-30.320312 0l-41.328125-24.800781c.328125-1.578125.492187-3.1875.488281-4.800781-.039062-10.132812-6.445312-19.148438-16-22.527344v-50.945312c9.554688-3.378906 15.960938-12.394532 16-22.527344.003906-1.613281-.160156-3.222656-.488281-4.800781l41.410156-24.800781c5.289063 4.480468 12.277344 6.40625 19.117187 5.273437 6.835938-1.128906 12.832032-5.207031 16.394532-11.152344 2.355468-3.75 3.59375-8.09375 3.566406-12.519531-.039062-10.132812-6.445312-19.148438-16-22.527344v-33.472656c0-4.417969-3.582031-8-8-8s-8 3.582031-8 8v33.472656c-11.351562 3.855469-18.007812 15.609375-15.472656 27.328125l-41.367188 24.800781c-8.730468-7.410156-21.542968-7.394531-30.253906.039063l-41.433594-24.800781c.339844-1.589844.515625-3.210938.527344-4.839844-.039062-10.132812-6.445312-19.148438-16-22.527344v-33.472656c0-4.417969-3.582031-8-8-8s-8 3.582031-8 8v33.472656c-11.351562 3.855469-18.007812 15.609375-15.472656 27.328125l-41.445313 24.800781c-8.703125-7.441406-21.515625-7.460937-30.242187-.050781l-41.367188-24.796875c1.917969-9.007812-1.484375-18.316406-8.757812-23.960937-7.273438-5.644531-17.132813-6.632813-25.382813-2.539063-8.246093 4.089844-13.425781 12.539063-13.332031 21.746094-.0351562 4.371094 1.171875 8.660156 3.472656 12.375 3.542969 5.996094 9.542969 10.128906 16.410156 11.292969 6.867188 1.164062 13.894532-.757813 19.214844-5.253907l41.390625 24.800782c-.324219 1.574218-.488281 3.179687-.488281 4.785156.042969 10.132812 6.445312 19.148438 16 22.527344v50.945312c-9.554688 3.378906-15.957031 12.394532-16 22.527344 0 1.613281.164062 3.222656.488281 4.800781l-41.285156 24.742188c-7.128906-5.980469-17.085937-7.269531-25.503906-3.304688-8.417969 3.960938-13.7656252 12.457031-13.699219 21.761719-.0351562 4.371094 1.171875 8.660156 3.472656 12.375 4.308594 7.183594 12.0625 11.59375 20.4375 11.625 8.378906.03125 16.160156-4.320312 20.523438-11.472656 2.355468-3.75 3.59375-8.097656 3.566406-12.527344.003906-1.613281-.160156-3.222656-.488281-4.800781l41.328125-24.742188c8.722656 7.417969 21.535156 7.417969 30.257812 0l41.429688 24.800781c-.328125 1.558594-.507813 3.148438-.527344 4.742188.042969 10.132812 6.445312 19.148438 16 22.527344v50.945312c-11.351562 3.855469-18.007812 15.609375-15.472656 27.328125l-41.367188 24.800781c-8.753906-7.394531-21.5625-7.394531-30.320312 0l-47.046875-28.167968c-3.734375-1.835938-8.253907-.503906-10.390625 3.066406-2.140625 3.574219-1.183594 8.1875 2.199218 10.613281l46.886719 28.085938c-.324219 1.578125-.488281 3.1875-.488281 4.800781-.035156 4.371094 1.171875 8.660156 3.472656 12.375 2.898438 4.683594 7.324219 8.222656 12.527344 10.023438v49.601562c0 4.417969 3.582031 8 8 8s8-3.582031 8-8v-49.472656c9.554688-3.378906 15.960938-12.394532 16-22.527344.003906-1.613281-.160156-3.222656-.488281-4.800781l41.410156-24.800781c8.699219 7.441406 21.515625 7.460937 30.238281.050781l41.328125 24.75c-.324219 1.578125-.488281 3.1875-.488281 4.800781-.035156 4.371094 1.171875 8.660156 3.472656 12.375 2.945313 4.785156 7.476563 8.382812 12.800782 10.167969-.140626.476562-.230469.964843-.273438 1.457031v48c0 4.417969 3.582031 8 8 8s8-3.582031 8-8v-48c-.046875-.46875-.140625-.933594-.277344-1.382812 9.695313-3.292969 16.230469-12.378907 16.277344-22.617188.003906-1.613281-.160156-3.222656-.488281-4.800781l41.410156-24.800781c8.699219 7.441406 21.515625 7.460937 30.238281.050781l41.328125 24.75c-.324219 1.578125-.488281 3.1875-.488281 4.800781-.035156 4.371094 1.171875 8.660156 3.472656 12.375 4.308594 7.183594 12.0625 11.59375 20.4375 11.625 8.378906.03125 16.160156-4.320312 20.523438-11.472656 2.355468-3.75 3.59375-8.097656 3.566406-12.527344 0-13.253906-10.742188-24-24-24zm0-176c4.417969 0 8 3.582031 8 8 .023438 1.457031-.382812 2.886719-1.167969 4.113281-1.546875 2.296875-4.148437 3.664063-6.921875 3.632813-2.773437-.035156-5.34375-1.460938-6.835937-3.792969-.734375-1.1875-1.105469-2.558594-1.074219-3.953125 0-4.417969 3.582031-8 8-8zm-80 48c3.238281-.085938 6.203125 1.789062 7.519531 4.746094 1.316407 2.957031.71875 6.414062-1.511719 8.761718-2.226562 2.34375-5.648437 3.117188-8.671874 1.957032-.273438-.101563-.539063-.21875-.796876-.351563-.59375-.296875-1.148437-.667969-1.648437-1.105469-.328125-.289062-.632813-.601562-.914063-.9375-.4375-.5-.8125-1.050781-1.109374-1.644531-.105469-.203125-.195313-.414062-.273438-.625-.757812-1.789062-.757812-3.8125 0-5.601562.078125-.210938.167969-.421875.273438-.625 1.308593-2.761719 4.078124-4.539063 7.132812-4.574219zm-168 8c-.019531-1.457031.386719-2.886719 1.167969-4.113281 1.476562-2.132813 3.863281-3.449219 6.457031-3.5625 2.589844-.113281 5.082031.996093 6.734375 2.996093.203125.230469.394531.476563.570313.726563.730468 1.1875 1.105468 2.558594 1.070312 3.953125 0 4.417969-3.582031 8-8 8s-8-3.582031-8-8zm88-56c4.417969 0 8 3.582031 8 8-.03125 1.828125-.699219 3.585938-1.886719 4.976562-1.617187 1.753907-3.914062 2.730469-6.300781 2.671876-2.382812-.054688-4.632812-1.136719-6.164062-2.96875-1.164063-1.269532-1.761719-2.960938-1.648438-4.679688 0-4.417969 3.582031-8 8-8zm80-144c4.417969 0 8 3.582031 8 8 .023438 1.457031-.382812 2.886719-1.167969 4.113281-1.546875 2.296875-4.148437 3.664063-6.921875 3.632813-2.773437-.035156-5.34375-1.460938-6.835937-3.792969-.734375-1.1875-1.105469-2.558594-1.074219-3.953125 0-4.417969 3.582031-8 8-8zm-80 48c4.417969 0 8 3.582031 8 8s-3.582031 8-8 8-8-3.582031-8-8c-.019531-1.457031.386719-2.886719 1.167969-4.113281 1.449219-2.394531 4.035156-3.863281 6.832031-3.886719zm-80-48c4.417969 0 8 3.582031 8 8 .023438 1.457031-.382812 2.886719-1.167969 4.113281-2.378906 3.46875-6.972656 4.625-10.710937 2.695313-1.261719-.652344-2.316406-1.640625-3.046875-2.855469-.734375-1.1875-1.105469-2.558594-1.074219-3.953125 0-4.417969 3.582031-8 8-8zm-80 48c2.863281.039062 5.492188 1.574219 6.929688 4.046875.730468 1.1875 1.105468 2.558594 1.070312 3.953125 0 4.417969-3.582031 8-8 8s-8-3.582031-8-8 3.582031-8 8-8zm-86.925781-36.046875c-.734375-1.1875-1.105469-2.558594-1.074219-3.953125 0-4.417969 3.582031-8 8-8s8 3.582031 8 8c.023438 1.457031-.382812 2.886719-1.167969 4.113281-1.546875 2.296875-4.148437 3.664063-6.921875 3.632813-2.773437-.035156-5.34375-1.460938-6.835937-3.792969zm13.757812 192.160156c-1.546875 2.296875-4.148437 3.664063-6.921875 3.632813-2.773437-.035156-5.34375-1.460938-6.835937-3.792969-.734375-1.1875-1.105469-2.558594-1.074219-3.953125 0-4.417969 3.582031-8 8-8s8 3.582031 8 8c.023438 1.457031-.382812 2.886719-1.167969 4.113281zm73.167969-44.113281c-4.417969 0-8-3.582031-8-8s3.582031-8 8-8 8 3.582031 8 8c.023438 1.457031-.382812 2.886719-1.167969 4.113281-1.445312 2.394531-4.03125 3.863281-6.832031 3.886719zm23.578125-3.726562c.265625-1.410157.40625-2.839844.421875-4.273438-.007812-1.480469-.160156-2.957031-.445312-4.40625-.082032-.449219-.210938-.875-.320313-1.3125-.234375-.980469-.535156-1.941406-.898437-2.882812-.175782-.453126-.351563-.902344-.550782-1.34375-.433594-.929688-.925781-1.832032-1.472656-2.703126-.207031-.328124-.382812-.679687-.605469-1-.800781-1.136718-1.691406-2.207031-2.664062-3.199218-.167969-.167969-.363281-.296875-.53125-.464844-.84375-.808594-1.75-1.554688-2.703125-2.230469-.367188-.265625-.75-.488281-1.136719-.730469-.84375-.527343-1.71875-1.003906-2.621094-1.421874-.417969-.191407-.800781-.382813-1.25-.5625-.273437-.101563-.519531-.253907-.800781-.351563v-50.757813c.28125-.097656.527344-.25.800781-.359374.433594-.167969.800781-.363282 1.25-.554688.902344-.417969 1.78125-.894531 2.628907-1.421875.378906-.242187.761718-.464844 1.128906-.730469.953125-.675781 1.859375-1.421875 2.703125-2.230468.167969-.167969.363281-.296876.53125-.464844.972656-.988282 1.863281-2.058594 2.664062-3.199219.214844-.320313.398438-.664063.605469-1 .550781-.871094 1.039062-1.777344 1.472656-2.710937.199219-.441407.375-.882813.550782-1.335938.363281-.941406.664062-1.902344.898437-2.882812.109375-.4375.238281-.863282.320313-1.308594.289062-1.460938.4375-2.945313.445312-4.433594-.015625-1.445312-.15625-2.882812-.421875-4.304688 0-.167968 0-.34375-.058594-.511718l41.28125-24.6875c.898438.722656 1.859375 1.371094 2.863281 1.9375.882813.496094 1.792969.933594 2.730469 1.320312.597657.246094 1.191407.535156 1.808594.742188 5.035156 2.015625 10.65625 2.015625 15.695313 0 .496093-.160156.957031-.390625 1.445312-.585938 1.121094-.449218 2.207031-.984375 3.25-1.597656.933594-.535156 1.828125-1.140625 2.671875-1.808594l41.214844 24.695313c-.039063.175781 0 .367187-.054688.542969-.265625 1.40625-.40625 2.828124-.425781 4.257812.011719 1.480469.160156 2.957031.449219 4.40625.078125.449219.207031.875.3125 1.3125.242187.980469.542969 1.945312.902343 2.890625.175782.445313.351563.886719.554688 1.328125.429688.933594.921875 1.839844 1.46875 2.710938.210938.335937.394531.679687.609375 1 .796875 1.136718 1.6875 2.207031 2.664063 3.199218.167968.167969.359374.296875.527343.464844.847657.808594 1.75 1.554688 2.703125 2.230469.371094.265625.753906.488281 1.128906.730469.847657.527343 1.726563 1.007812 2.632813 1.429687.417969.191406.800781.375 1.238281.542969.28125.113281.53125.265625.800782.363281v50.734375c-.277344.097656-.527344.25-.800782.351562-.421875.175782-.796875.367188-1.246094.5625-.90625.417969-1.785156.894532-2.632812 1.421876-.375.242187-.757812.464843-1.128906.726562-.953125.679688-1.855469 1.425781-2.703125 2.234375-.167969.167969-.359375.296875-.527344.464844-.976563.988281-1.867187 2.058593-2.664063 3.199219-.214843.320312-.398437.664062-.609374 1-.546876.871093-1.039063 1.777343-1.46875 2.710937-.203126.441406-.378907.878906-.554688 1.328125-.359375.941406-.65625 1.90625-.894531 2.886719-.113281.441406-.242188.867187-.320313 1.3125-.289062 1.46875-.433594 2.960937-.441406 4.457031.015625 1.441406.160156 2.878906.425781 4.296875 0 .167969 0 .34375.054688.511719l-41.277344 24.695312c-1.074219-.882812-2.21875-1.671875-3.425781-2.359375l-.191406-.089843c-1.539063-.828126-3.160157-1.492188-4.839844-1.976563-.441406-.132813-.871094-.253906-1.328125-.359375-3.566407-.953125-7.316407-.953125-10.878907 0-.464843.113281-.914062.234375-1.371093.371094-1.582031.464844-3.109375 1.089844-4.566407 1.863281-.152343.078125-.320312.136719-.472656.214844-1.195312.683593-2.332031 1.464843-3.390625 2.34375l-41.21875-24.710938c.042969-.160156.027344-.351562.058594-.527343zm-23.578125 195.726562c-2.859375-.039062-5.488281-1.574219-6.925781-4.046875-.734375-1.1875-1.105469-2.558594-1.074219-3.953125 0-4.417969 3.582031-8 8-8s8 3.582031 8 8-3.582031 8-8 8zm80-48c-2.859375-.039062-5.488281-1.574219-6.925781-4.046875-.734375-1.1875-1.105469-2.558594-1.074219-3.953125 0-4.417969 3.582031-8 8-8s8 3.582031 8 8c-.015625.960938-.207031 1.910156-.566406 2.800781-.078125.210938-.171875.421875-.273438.625-1.3125 2.769531-4.09375 4.546875-7.160156 4.574219zm80 48c-2.859375-.039062-5.488281-1.574219-6.925781-4.046875-.734375-1.1875-1.105469-2.558594-1.074219-3.953125.03125-1.828125.699219-3.585938 1.890625-4.976562 1.574219-1.703126 3.789063-2.675782 6.109375-2.675782 2.324219 0 4.539062.972656 6.113281 2.675782 1.1875 1.390624 1.855469 3.148437 1.886719 4.976562 0 4.417969-3.582031 8-8 8zm15.203125-26.496094c-.257813-.214844-.546875-.367187-.800781-.558594-.632813-.484374-1.285156-.9375-1.960938-1.351562-.558594-.347656-1.144531-.648438-1.734375-.945312-.691406-.363282-1.398437-.691407-2.121093-.984376-.730469-.273437-1.476563-.503906-2.234376-.695312-.636718-.175781-1.261718-.394531-1.925781-.519531-2.9375-.597657-5.960937-.597657-8.898437 0-.660156.125-1.277344.34375-1.925782.519531-.757812.191406-1.5.421875-2.230468.695312-.722656.292969-1.425782.621094-2.113282.984376-.601562.296874-1.183593.597656-1.753906.945312-.566406.34375-1.320312.871094-1.949218 1.351562-.265626.191407-.554688.34375-.800782.558594l-41.234375-24.703125c.316407-1.582031.480469-3.1875.480469-4.800781-.007812-1.480469-.160156-2.957031-.445312-4.40625-.082032-.449219-.210938-.875-.320313-1.3125-.234375-.980469-.535156-1.941406-.898437-2.882812-.175782-.453126-.351563-.902344-.550782-1.34375-.433594-.929688-.925781-1.832032-1.472656-2.703126-.207031-.328124-.382812-.679687-.605469-1-.800781-1.136718-1.691406-2.207031-2.664062-3.199218-.167969-.167969-.363281-.296875-.53125-.464844-.84375-.808594-1.75-1.554688-2.703125-2.230469-.367188-.265625-.75-.488281-1.136719-.730469-.84375-.527343-1.71875-1.003906-2.621094-1.421874-.417969-.191407-.800781-.382813-1.25-.5625-.273437-.101563-.519531-.253907-.800781-.351563v-50.757813c.28125-.097656.527344-.25.800781-.359374.433594-.167969.800781-.363282 1.25-.554688.902344-.417969 1.78125-.894531 2.628907-1.421875.378906-.242187.761718-.464844 1.128906-.730469.953125-.675781 1.859375-1.421875 2.703125-2.230468.167969-.167969.363281-.296876.53125-.464844.972656-.988282 1.863281-2.058594 2.664062-3.199219.214844-.320313.398438-.664063.605469-1 .550781-.871094 1.039062-1.777344 1.472656-2.710937.199219-.441407.375-.882813.550782-1.335938.363281-.941406.664062-1.902344.898437-2.882812.109375-.4375.238281-.863282.320313-1.308594.289062-1.460938.4375-2.945313.445312-4.433594-.015625-1.445312-.15625-2.882812-.421875-4.304688 0-.160156 0-.34375-.058594-.503906l41.28125-24.695312c.898438.722656 1.859375 1.371094 2.863281 1.9375.882813.496094 1.792969.933594 2.730469 1.320312.597657.246094 1.191407.535156 1.808594.742188 6.324219 2.453125 13.421875 1.886718 19.277344-1.535156.242187-.121094.472656-.25.703125-.386719.816406-.484375 1.601562-1.015625 2.355468-1.597657.230469-.175781.503907-.304687.726563-.496093l41.214844 24.71875c-.316407 1.582031-.476563 3.1875-.480469 4.800781.007812 1.222656.105469 2.445312.289062 3.65625.046876.28125.121094.542969.175782.800781.167968.917969.390625 1.828125.664062 2.71875.089844.28125.191406.542969.289063.800781.28125.796876.609375 1.574219.976562 2.335938.214844.449219.453125.871094.695313 1.296875.136718.238281.238281.496094.382812.71875.144532.222656.160156.183594.234375.289063 1 1.628906 2.195313 3.128906 3.558594 4.472656.078125.078125.160156.132812.238281.214844 1.417969 1.351562 2.992188 2.527343 4.6875 3.503906h.050782c1.199218.691406 2.457031 1.277344 3.757812 1.75v50.738281c-.277344.09375-.527344.246094-.796875.351563-.425781.175781-.800781.367187-1.25.558593-.90625.421875-1.785156.898438-2.632813 1.425781-.375.238282-.757812.464844-1.128906.726563-.953125.679687-1.855468 1.425781-2.703125 2.234375-.167969.167969-.359375.292969-.527343.460938-.976563.992187-1.867188 2.0625-2.664063 3.203124-.214844.316407-.398437.664063-.609375 1-.546875.871094-1.039062 1.777344-1.46875 2.710938-.203125.4375-.378906.878906-.554688 1.328125-.359374.941406-.65625 1.90625-.894531 2.886719-.113281.441406-.242187.863281-.320312 1.3125-.292969 1.484375-.445313 2.992187-.449219 4.503906.015625 1.441406.160156 2.878906.425781 4.296875 0 .167969 0 .351563.054688.519531zm64.796875-21.503906c-2.859375-.039062-5.488281-1.574219-6.925781-4.046875-.734375-1.1875-1.105469-2.558594-1.074219-3.953125 0-4.417969 3.582031-8 8-8s8 3.582031 8 8-3.582031 8-8 8zm86.832031 44.113281c-1.546875 2.296875-4.148437 3.664063-6.921875 3.632813-2.773437-.035156-5.34375-1.460938-6.835937-3.792969-.734375-1.1875-1.105469-2.558594-1.074219-3.953125 0-4.417969 3.582031-8 8-8s8 3.582031 8 8c.023438 1.457031-.382812 2.886719-1.167969 4.113281zm0 0"/> </svg>