<svg width="51" height="51" viewBox="0 0 51 51" fill="none" xmlns="http://www.w3.org/2000/svg">
<path d="M4.93555 46.0646H6.58071V47.7097H4.93555V46.0646Z" fill="#03A87C"/>
<path d="M8.22559 46.0646H9.87075V47.7097H8.22559V46.0646Z" fill="#03A87C"/>
<path d="M11.5166 46.0646H13.1618V47.7097H11.5166V46.0646Z" fill="#03A87C"/>
<path d="M39.4834 46.0646H46.064V47.7097H39.4834V46.0646Z" fill="#03A87C"/>
<path d="M49.3548 42.7742V15.629C49.3548 13.3613 47.5097 11.5161 45.2419 11.5161H42.7742C42.7742 5.16563 37.6086 0 31.2581 0C24.9076 0 19.7419 5.16563 19.7419 11.5161H5.75806C3.49034 11.5161 1.64516 13.3613 1.64516 15.629V42.7742H0V46.8871C0 49.1548 1.84518 51 4.1129 51H46.8871C49.1548 51 51 49.1548 51 46.8871V42.7742H49.3548ZM45.2419 13.1613C46.6023 13.1613 47.7097 14.2686 47.7097 15.629V42.7742H46.0645V16.4516C46.0645 15.5443 45.3267 14.8065 44.4194 14.8065H42.289C42.4477 14.2735 42.5621 13.7232 42.6425 13.1613H45.2419ZM21.8651 8.49331L30.5957 12.1315L33.5852 21.0983C32.8374 21.2803 32.061 21.3871 31.2581 21.3871C25.8149 21.3871 21.3871 16.9593 21.3871 11.5161C21.3871 10.4614 21.5574 9.44642 21.8651 8.49331ZM35.1481 20.585L32.1991 11.7382L38.7878 5.14916C40.2454 6.86943 41.129 9.09016 41.129 11.5161C41.129 15.578 38.6613 19.0724 35.1481 20.585ZM31.2581 1.64516C33.684 1.64516 35.9048 2.52879 37.6258 3.98558L31.0665 10.5445L22.5025 6.97707C24.1484 3.81367 27.452 1.64516 31.2581 1.64516ZM3.29032 15.629C3.29032 14.2686 4.39767 13.1613 5.75806 13.1613H19.8737C19.954 13.7232 20.0677 14.2735 20.2271 14.8065H6.58065C5.67332 14.8065 4.93548 15.5443 4.93548 16.4516V42.7742H3.29032V15.629ZM49.3548 46.8871C49.3548 48.2475 48.2475 49.3548 46.8871 49.3548H4.1129C2.75251 49.3548 1.64516 48.2475 1.64516 46.8871V44.4194H18.592C19.7749 45.4829 21.2883 46.0645 22.8917 46.0645H28.1091C29.7125 46.0645 31.2259 45.4829 32.4088 44.4194H42.7742V42.7742H31.74L31.4991 43.0152C30.5933 43.9209 29.39 44.4194 28.1083 44.4194H22.8909C21.61 44.4194 20.4059 43.9209 19.5001 43.0152L19.26 42.7742H6.58065V16.4516H20.869C22.7222 20.336 26.6756 23.0323 31.2581 23.0323C35.8405 23.0323 39.7939 20.336 41.6472 16.4516H44.4194V44.4194H49.3548V46.8871Z" fill="#03A87C"/>
<path d="M40.3062 34.5482C39.8014 34.5482 39.3314 34.702 38.9398 34.9635L36.07 32.8118C36.1431 32.5789 36.1933 32.3363 36.1933 32.0804C36.1933 30.72 35.086 29.6127 33.7256 29.6127C32.3652 29.6127 31.2578 30.72 31.2578 32.0804C31.2578 32.3636 31.3153 32.6315 31.4032 32.8849L26.7963 36.5709C26.4188 36.3355 25.9769 36.1933 25.4998 36.1933C24.9463 36.1933 24.4402 36.3833 24.0281 36.6918L20.4812 34.3268C20.5306 34.1337 20.5643 33.9344 20.5643 33.7256C20.5643 32.3652 19.4569 31.2578 18.0966 31.2578C16.7362 31.2578 15.6288 32.3652 15.6288 33.7256C15.6288 33.9344 15.6626 34.1337 15.712 34.3268L12.165 36.6918C11.7529 36.3825 11.2468 36.1933 10.6933 36.1933C9.33294 36.1933 8.22559 37.3007 8.22559 38.6611C8.22559 40.0215 9.33294 41.1288 10.6933 41.1288C12.0537 41.1288 13.1611 40.0215 13.1611 38.6611C13.1611 38.4522 13.1273 38.253 13.0779 38.0598L16.6249 35.6949C17.037 36.0041 17.5431 36.1933 18.0966 36.1933C18.65 36.1933 19.1561 36.0041 19.5682 35.6949L23.1152 38.0598C23.0658 38.253 23.032 38.453 23.032 38.6611C23.032 40.0215 24.1394 41.1288 25.4998 41.1288C26.8602 41.1288 27.9675 40.0215 27.9675 38.6611C27.9675 38.3779 27.9101 38.11 27.8221 37.8566L32.4291 34.1706C32.8066 34.406 33.2484 34.5482 33.7256 34.5482C34.2305 34.5482 34.7004 34.3943 35.092 34.1328L37.9618 36.2845C37.8887 36.5175 37.8385 36.76 37.8385 37.0159C37.8385 38.3763 38.9458 39.4836 40.3062 39.4836C41.6666 39.4836 42.774 38.3763 42.774 37.0159C42.774 35.6555 41.6666 34.5482 40.3062 34.5482ZM10.6933 39.4836C10.2403 39.4836 9.87075 39.1141 9.87075 38.6611C9.87075 38.208 10.2403 37.8385 10.6933 37.8385C11.1464 37.8385 11.5159 38.208 11.5159 38.6611C11.5159 39.1141 11.1464 39.4836 10.6933 39.4836ZM18.0966 34.5482C17.6435 34.5482 17.274 34.1786 17.274 33.7256C17.274 33.2725 17.6435 32.903 18.0966 32.903C18.5496 32.903 18.9191 33.2725 18.9191 33.7256C18.9191 34.1786 18.5496 34.5482 18.0966 34.5482ZM25.4998 39.4836C25.0467 39.4836 24.6772 39.1141 24.6772 38.6611C24.6772 38.208 25.0467 37.8385 25.4998 37.8385C25.9528 37.8385 26.3224 38.208 26.3224 38.6611C26.3224 39.1141 25.9528 39.4836 25.4998 39.4836ZM33.7256 32.903C33.2725 32.903 32.903 32.5335 32.903 32.0804C32.903 31.6274 33.2725 31.2578 33.7256 31.2578C34.1786 31.2578 34.5482 31.6274 34.5482 32.0804C34.5482 32.5335 34.1786 32.903 33.7256 32.903ZM40.3062 37.8385C39.8532 37.8385 39.4837 37.469 39.4837 37.0159C39.4837 36.5628 39.8532 36.1933 40.3062 36.1933C40.7593 36.1933 41.1288 36.5628 41.1288 37.0159C41.1288 37.469 40.7593 37.8385 40.3062 37.8385Z" fill="#03A87C"/>
<path d="M21.3869 18.0967H8.22559V29.6128H21.3869V18.0967ZM19.7417 27.9676H9.87075V19.7418H19.7417V27.9676Z" fill="#03A87C"/>
<path d="M11.5166 21.3873H18.0972V23.0325H11.5166V21.3873Z" fill="#03A87C"/>
<path d="M11.5166 24.6774H18.0972V26.3225H11.5166V24.6774Z" fill="#03A87C"/>
<path d="M23.0322 26.3226H24.6774V27.9678H23.0322V26.3226Z" fill="#03A87C"/>
<path d="M26.3223 26.3226H42.7739V27.9678H26.3223V26.3226Z" fill="#03A87C"/>
</svg>