<svg width="82" height="46" xmlns="http://www.w3.org/2000/svg"><script xmlns="" type="text/javascript" charset="utf-8" id="zm-extension"/><g transform="translate(1 1)" fill="none" fill-rule="evenodd"><path d="M54.857 1.404C42.555 4.414 32 13.307 27.361 26.013c-.336.87-.605 1.672-.806 2.541.806.334 1.613.669 2.487 1.003 20.303 7.289 42.756-3.21 50.084-23.405.336-.87.605-1.672.807-2.541a95.342 95.342 0 0 0-2.488-1.003C72.27.736 66.958.067 61.782.334m-2.353.201c-.874.134-1.748.267-2.555.401" stroke="#000" stroke-width="1.2" stroke-linecap="square" stroke-linejoin="round"/><path d="M69.244.936l6.319 12.238" stroke="#000" stroke-width="1.2" stroke-linecap="round" stroke-linejoin="round"/><path d="M22.185 30.293l15.059-7.356" stroke="#000" stroke-width="1.2" stroke-linecap="square" stroke-linejoin="round"/><ellipse fill="#FFE735" fill-rule="nonzero" transform="rotate(-26.053 60.175 14.784)" cx="60.175" cy="14.784" rx="4.639" ry="4.614"/><ellipse stroke="#000" stroke-width="1.2" stroke-linecap="square" stroke-linejoin="round" transform="rotate(-26.053 58.62 13.57)" cx="58.62" cy="13.569" rx="4.639" ry="4.614"/><path d="M38.521 31.697l3.765 7.69 12.168-5.951 1.882-4.146a39.145 39.145 0 0 1-17.815 2.407zM44.235 5.75l-4.773-1.136-12.1 5.952 3.831 7.757c3.294-5.216 7.799-9.496 13.042-12.572z" fill="#FFE735" fill-rule="nonzero"/><path d="M44.034 5.818l-6.656-1.605-12.168 5.885 4.84 9.896c3.496-5.884 8.337-10.766 13.984-14.176zm12.571 23.405l-2.823 6.219-12.169 5.884-4.84-9.897c6.857 1.004 13.647.201 19.832-2.206z" stroke="#000" stroke-width="1.2"/><path d="M18.286 23.405L6.588 29.089m18.42 9.094l-11.697 5.685M17.143 32.7l-6.656 3.277m-6.79 3.543L.403 41.194" stroke="#000" stroke-width="1.2" stroke-linecap="square" stroke-linejoin="round"/></g></svg>