<svg xmlns="http://www.w3.org/2000/svg" width="135.88" height="122.04" viewBox="0 0 135.88 122.04">
  <path fill-rule="evenodd" fill="#3fa35d" d="M1105.73,1954.15c-0.57-4.85-5.06-5.65-9.21-5.71-1.05.04-5.32,0.35-5.29,0.43-0.38-1.09,2.14-5.23,2.57-6.28q3.765-9.24,7.51-18.48c2.42-6,4.54-13.38-3.45-15.84-3.96-1.22-8.34-1.63-12.39-2.58-2.94-.69-6.29-1.28-9.2-0.14-3.3,1.3-4.69,4.57-5.4,7.82-1.26,5.74-1.61,11.8-2.39,17.62-0.77,5.74-1.82,11.42-2.79,17.13-0.7,4.15-1.75,9.03-.74,13.23a7.2,7.2,0,0,0,6.14,5.85,10.667,10.667,0,0,0,5.01-.82c3.05-1.09,2.67-.02,1.49,2.41-2.22,4.55-4.69,9.12-6.62,13.79-1,2.4-2.02,5.58-.39,7.94,3.3,4.8,9.13-2.64,11.25-4.97,5.99-6.59,11.73-13.4,17.72-19.99C1102.35,1962.48,1106.27,1958.75,1105.73,1954.15Zm-32.27,33.35v0.01C1073,1988.63,1073.19,1986.92,1073.46,1987.5Zm22.71-24.75c-3.6,3.95-7.28,7.84-10.78,11.87-2.74,3.15-5.31,6.43-8.19,9.46a27.927,27.927,0,0,1-2.76,2.68c-0.09.07-.22,0.15-0.36,0.24,0.28-.77.57-1.79,0.56-1.77a16.575,16.575,0,0,1,.69-1.63c0.86-1.91,1.85-3.77,2.77-5.66,1.58-3.23,3.35-6.46,4.74-9.78,0.82-1.97,1.32-4.4-.39-6.08-1.86-1.81-4.44-1.11-6.58-.36-2.39.84-5.14,1.84-6.56-.93-0.83-1.61-.3-4.44-0.11-6.15,0.97-9.01,2.96-17.94,4.15-26.94,0.6-4.48.82-9.25,1.86-13.65,1.18-4.96,4.28-5.15,8.64-4.23,2.48,0.52,4.87,1.29,7.37,1.69,2.36,0.39,5.95.24,7.4,2.33,1.16,1.68.57,3.41-.06,5.25-3.23,9.52-8.07,18.48-11.34,27.97-2.41,6.98,5.28,5.92,9.77,5.75C1105.13,1952.92,1098.84,1959.8,1096.17,1962.75Zm20.38,39a3.4,3.4,0,1,1,4.74-.82A3.4,3.4,0,0,1,1116.55,2001.75Zm-80.57-14.05a4.3,4.3,0,1,1,5.99-1.03A4.3,4.3,0,0,1,1035.98,1987.7Zm108.65-43.31a3.4,3.4,0,1,1-3.4-3.4A3.4,3.4,0,0,1,1144.63,1944.39Zm-29.01,14.02a2.5,2.5,0,1,1,3.49-.6A2.5,2.5,0,0,1,1115.62,1958.41Zm11.37-49.92a3.4,3.4,0,1,1,4.74-.82A3.39,3.39,0,0,1,1126.99,1908.49Zm-116.42,19.01a4.3,4.3,0,1,1,5.99-1.03A4.305,4.305,0,0,1,1010.57,1927.5Zm43.83-30.06a4.3,4.3,0,1,1,6-1.03A4.294,4.294,0,0,1,1054.4,1897.44Zm39.76-12.55a2.508,2.508,0,1,1,3.49-.61A2.513,2.513,0,0,1,1094.16,1884.89Z" transform="translate(-1008.75 -1880.34)"/>
</svg>