<svg xmlns="http://www.w3.org/2000/svg" width="44" height="44.03" viewBox="0 0 44 44.03">
  <metadata><?xpacket begin="﻿" id="W5M0MpCehiHzreSzNTczkc9d"?>
<x:xmpmeta xmlns:x="adobe:ns:meta/" x:xmptk="Adobe XMP Core 5.6-c142 79.160924, 2017/07/13-01:06:39        ">
   <rdf:RDF xmlns:rdf="http://www.w3.org/1999/02/22-rdf-syntax-ns#">
      <rdf:Description rdf:about=""/>
   </rdf:RDF>
</x:xmpmeta>
                                                                                                    
                                                                                                    
                                                                                                    
                                                                                                    
                                                                                                    
                                                                                                    
                                                                                                    
                                                                                                    
                                                                                                    
                                                                                                    
                                                                                                    
                                                                                                    
                                                                                                    
                                                                                                    
                                                                                                    
                                                                                                    
                                                                                                    
                                                                                                    
                                                                                                    
                                                                                                    
                           
<?xpacket end="w"?></metadata>
<defs>
    <style>
      .cls-1 {
        fill: #d82541;
        fill-rule: evenodd;
      }
    </style>
  </defs>
  <path class="cls-1" d="M1366.34,7782.49a0.859,0.859,0,1,0,1.22,0A0.863,0.863,0,0,0,1366.34,7782.49Zm17.2,12.42a0.86,0.86,0,0,0,0-1.72h-3.43a0.86,0.86,0,0,0,0,1.72h3.43Zm6.81-42.52c-0.34.33-28.53,28.53-29.48,29.49h0a0.958,0.958,0,0,0-.17.24l-5.46,11.56a0.863,0.863,0,0,0,.78,1.23h20.65a0.86,0.86,0,0,0,0-1.72h-16.84l8.09-3.85a0.721,0.721,0,0,0,.24-0.16h0v-0.01c1.16-1.15,28-28,29.48-29.49A5.155,5.155,0,1,0,1390.35,7752.39Zm0.61,11.55c-1.51-1.51-3.34-3.34-4.86-4.87l1.82-1.82,4.86,4.87Zm-28.17,25.94-2.62-2.62,1.56-3.3,4.36,4.35Zm4.77-2.53-4.87-4.86,22.19-22.2,1.83,1.83-17.94,17.93a0.875,0.875,0,0,0,0,1.22,0.857,0.857,0,0,0,1.22,0l17.93-17.94,1.82,1.83Zm-8.17,1.56,1.75,1.75-3.32,1.58Zm37.04-30.44-2.43,2.43-4.86-4.87,2.43-2.43A3.44,3.44,0,1,1,1396.43,7758.47Z" transform="translate(-1355.16 -7750.88)"/>
</svg>