<svg xmlns="http://www.w3.org/2000/svg" id="_006-chrome" width="22.021" height="22.019" data-name="006-chrome" viewBox="0 0 22.021 22.019">
    <defs>
        <style>
            .cls-1{fill:#2d3136}
        </style>
    </defs>
    <path id="Path_28075" d="M5.554 9.622L2.4 4.164a11.011 11.011 0 0 1 18.08 1.253H11.5a5.659 5.659 0 0 0-.489-.022 5.644 5.644 0 0 0-5.457 4.227zm9.4-2.614h6.311a11.016 11.016 0 0 1-10.128 15.03l4.5-7.8a5.623 5.623 0 0 0-.686-7.231zM7.01 11.029a4 4 0 1 1 4 4 4 4 0 0 1-4-4zm5.509 5.429l-3.152 5.459A11.013 11.013 0 0 1 1.413 5.631l4.5 7.786a5.635 5.635 0 0 0 6.612 3.041z" class="cls-1" data-name="Path 28075" transform="translate(0 -.019)"/>
</svg>