<svg xmlns="http://www.w3.org/2000/svg" id="_007-firefox" width="23.292" height="21.878" data-name="007-firefox" viewBox="0 0 23.292 21.878">
    <defs>
        <style>
            .cls-1{fill:#2d3136}
        </style>
    </defs>
    <path id="XMLID_22_" d="M23.061 16.484a.191.191 0 0 0-.2.11l-.261.577a20.039 20.039 0 0 0-.525-2.779 5.352 5.352 0 0 0-1.185-2.062.191.191 0 0 0-.322.176l.2.912a7.587 7.587 0 0 0-2.045-1.6 13.67 13.67 0 0 0-.541-.246A9.155 9.155 0 0 0 4.371 13.5a1.7 1.7 0 0 1-.513-.682 7.144 7.144 0 0 1-.358-1.229.191.191 0 0 0-.32-.1A4.917 4.917 0 0 0 1.973 15.4a10.328 10.328 0 0 0-1.161 1.53A7.965 7.965 0 0 0 0 19.717a.191.191 0 0 0 .328.151l.41-.434C.7 19.6.651 19.789.609 20a12.6 12.6 0 0 0-.128 2.393.191.191 0 0 0 .363.074l.242-.511a10.861 10.861 0 0 0 3.483 6.334 10.954 10.954 0 0 0 7.409 2.846 11.127 11.127 0 0 0 7.333-2.778 12.16 12.16 0 0 0 3.767-7.42 17.2 17.2 0 0 0 .143-4.289.191.191 0 0 0-.16-.165zm-4.263.069a2.363 2.363 0 0 1 .318 1.212 13.275 13.275 0 0 1-.179 2.26l-.509-.59a.191.191 0 0 0-.334.148 9.4 9.4 0 0 1-.117 2.762 4.076 4.076 0 0 1-.539 1.317l.071-.962a.191.191 0 0 0-.364-.093 5.545 5.545 0 0 1-3.3 2.661 3.583 3.583 0 0 1-1.056.157 5.744 5.744 0 0 1-3.119-1.118h.17a4.513 4.513 0 0 0 2.267-.738c.154-.086.3-.168.44-.237a3.167 3.167 0 0 1 1.537-.46.316.316 0 0 0 .32-.242c.094-.367-.347-1.021-.892-1.321a1.832 1.832 0 0 0-.912-.209 9.5 9.5 0 0 0-2.236.443 2.073 2.073 0 0 1-.533.073 1.655 1.655 0 0 1-1.236-.539 1.6 1.6 0 0 1-.459-1.141c.012-.17.078-.344.483-.344a2.574 2.574 0 0 1 .762.149.19.19 0 0 0 .067.012.191.191 0 0 0 .191-.191.2.2 0 0 0 0-.03l-.053-1.672c.193-.123.654-.422 1.1-.744 1.073-.78 1.217-1.078 1.1-1.3-.152-.309-.552-.359-1.016-.417a4.46 4.46 0 0 1-.837-.161 2.232 2.232 0 0 1-1.023-.8 1.145 1.145 0 0 1 .107-.728 4.661 4.661 0 0 1 1.026-.967.191.191 0 0 0-.091-.345 3.964 3.964 0 0 0-1.521.249 5.736 5.736 0 0 0-1.55.819 5.463 5.463 0 0 0-.484-.066 7.6 7.6 0 0 1 5.703-2.579 7.521 7.521 0 0 1 4.43 1.422l-1.284.215a.191.191 0 0 0-.025.371 11.141 11.141 0 0 1 3 1.529 3.59 3.59 0 0 1 .772.855 7.681 7.681 0 0 1 .5 1.4l-.429-.333a.191.191 0 0 0-.266.27z" class="cls-1" transform="translate(0 -9.258)"/>
</svg>