<svg xmlns="http://www.w3.org/2000/svg" id="_003-happy-mac-logo" width="27.525" height="23.031" data-name="003-happy-mac-logo" viewBox="0 0 27.525 23.031">
    <defs>
        <style>
            .cls-1{fill:#2d3136}
        </style>
    </defs>
    <g id="Group_2734" data-name="Group 2734">
        <g id="Group_2733" data-name="Group 2733">
            <path id="Path_28076" d="M7.429 21.291a1.147 1.147 0 0 1 1.09-2.019 11.076 11.076 0 0 0 4.271 1.272 19.956 19.956 0 0 1 .518-3.606h-2.961v-1.146c0-3.465 2.361-9.457 3.376-11.874H2.294A2.3 2.3 0 0 0 0 6.212v18.443a2.3 2.3 0 0 0 2.294 2.294H13.7a15.394 15.394 0 0 1-.885-4.1 13.347 13.347 0 0 1-5.386-1.558zm-.44-11.155a.986.986 0 0 1 1.972 0v1.434a.986.986 0 0 1-1.972 0z" class="cls-1" data-name="Path 28076" transform="translate(0 -3.918)"/>
            <path id="Path_28077" d="M34.7 3.918h-9.014c-.385.88-2.989 6.918-3.494 10.727h3.764l-.58 1.549a16.927 16.927 0 0 0-.81 4.314 11.046 11.046 0 0 0 4.122-1.353 1.147 1.147 0 1 1 1.134 1.994 13.325 13.325 0 0 1-5.234 1.662 12.822 12.822 0 0 0 .829 3.628 1.144 1.144 0 0 1 .073.51h9.21a2.3 2.3 0 0 0 2.294-2.294V6.212A2.3 2.3 0 0 0 34.7 3.918zm-4.457 7.67a.986.986 0 0 1-1.972 0v-1.434a.986.986 0 0 1 1.972 0z" class="cls-1" data-name="Path 28077" transform="translate(-9.466 -3.918)"/>
        </g>
    </g>
</svg>