<svg xmlns="http://www.w3.org/2000/svg" id="_004-android-logo" width="20.617" height="24.714" data-name="004-android-logo" viewBox="0 0 20.617 24.714">
    <defs>
        <style>
            .cls-1{fill:#2d3136}
        </style>
    </defs>
    <g id="android">
        <path id="Path_28078" d="M54.805 18.529a.974.974 0 0 0 1.031 1.031h1.031v3.608a1.546 1.546 0 0 0 3.093 0V19.56h2.062v3.608a1.546 1.546 0 1 0 3.093 0V19.56h1.031a.974.974 0 0 0 1.031-1.031V8.22H54.805zM52.228 8.22a1.585 1.585 0 0 0-1.546 1.546v7.216a1.546 1.546 0 1 0 3.093 0V9.767a1.585 1.585 0 0 0-1.547-1.547zm17.524 0a1.585 1.585 0 0 0-1.546 1.546v7.216a1.546 1.546 0 0 0 3.093 0V9.767a1.585 1.585 0 0 0-1.547-1.547zM64.6 2.242L65.938.9a.5.5 0 0 0 0-.722.5.5 0 0 0-.722 0L63.67 1.726A4.542 4.542 0 0 0 60.99 1a6.138 6.138 0 0 0-2.783.619L56.764.077a1.138 1.138 0 0 0-.825 0 1.138 1.138 0 0 0 0 .825l1.34 1.34a6.3 6.3 0 0 0-2.474 4.948h12.37A5.958 5.958 0 0 0 64.6 2.242zm-5.67 2.886H57.9V4.1h1.031zm5.154 0h-1.032V4.1h1.031z" class="cls-1" data-name="Path 28078" transform="translate(-50.682 .001)"/>
    </g>
</svg>