<svg xmlns="http://www.w3.org/2000/svg" id="_002-apple-big-logo" width="22.329" height="27.525" data-name="002-apple-big-logo" viewBox="0 0 22.329 27.525">
    <defs>
        <style>
            .cls-1{fill:#2d3136}
        </style>
    </defs>
    <path id="Apple_3_" d="M57.72 2.083A6.13 6.13 0 0 1 61.755 0a6.037 6.037 0 0 1-1.425 4.4 5.087 5.087 0 0 1-4.07 1.95 5.8 5.8 0 0 1 1.46-4.267zm7.847 22.025c-1.149 1.678-2.332 3.354-4.207 3.382-1.833.033-2.423-1.093-4.521-1.093s-2.757 1.064-4.492 1.126c-1.8.065-3.172-1.808-4.327-3.486-2.355-3.414-4.153-9.656-1.734-13.865a6.693 6.693 0 0 1 5.672-3.452c1.767-.037 3.442 1.2 4.528 1.2s3.116-1.48 5.246-1.258a6.4 6.4 0 0 1 5.02 2.723 6.24 6.24 0 0 0-2.968 5.245 6.074 6.074 0 0 0 3.683 5.565 15.518 15.518 0 0 1-1.9 3.913z" class="cls-1" transform="translate(-45.136)"/>
</svg>