<?xml version="1.0" encoding="UTF-8" standalone="no"?>
<!DOCTYPE svg PUBLIC "-//W3C//DTD SVG 20010904//EN" "http://www.w3.org/TR/2001/REC-SVG-20010904/DTD/svg10.dtd">
<svg version="1.0" xmlns="http://www.w3.org/2000/svg" width="310.000000pt" height="310.000000pt" viewBox="0 0 310.000000 310.000000" preserveAspectRatio="xMidYMid meet">
<metadata>
Created by potrace 1.11, written by Peter Selinger 2001-2013
</metadata>
<g transform="translate(0.000000,310.000000) scale(0.100000,-0.100000)" fill="#000000" stroke="none">
<path d="M1430 3088 c0 -4 -11 -5 -24 -2 -14 2 -28 0 -31 -6 -4 -7 -13 -6 -27 1 -12 6 -18 7 -14 1 3 -5 -1 -12 -9 -16 -8 -3 -15 0 -15 7 0 8 -4 6 -10 -3 -5 -8 -10 -11 -10 -7 0 4 -10 3 -21 -4 -15 -7 -19 -8 -15 0 5 7 1 9 -8 5 -9 -3 -16 -11 -16 -18 0 -7 -4 -6 -9 3 -5 8 -11 9 -15 3 -3 -6 -18 -9 -32 -6 -16 3 -23 1 -19 -6 4 -6 -4 -10 -19 -10 -14 0 -26 -5 -26 -11 0 -8 -4 -8 -14 0 -11 9 -15 8 -20 -4 -3 -9 -10 -14 -16 -10 -5 3 -19 1 -31 -6 -15 -7 -19 -8 -15 0 5 7 1 9 -8 5 -9 -3 -16 -11 -16 -17 0 -6 -3 -8 -6 -5 -3 4 -20 0 -39 -7 -18 -8 -35 -11 -39 -8 -3 4 -6 2 -6 -3 0 -5 -10 -10 -22 -11 -11 -1 -24 -7 -28 -14 -4 -6 -13 -8 -19 -5 -6 4 -11 2 -11 -4 0 -6 -4 -9 -9 -5 -5 3 -12 1 -16 -5 -4 -6 -11 -8 -16 -5 -5 4 -9 1 -9 -5 0 -6 -4 -8 -10 -5 -5 3 -10 1 -10 -5 0 -6 -4 -9 -9 -5 -5 3 -12 1 -16 -5 -4 -6 -11 -8 -16 -5 -5 4 -9 1 -9 -6 0 -7 -3 -9 -6 -6 -4 3 -16 1 -28 -5 -11 -7 -24 -11 -28 -10 -5 1 -8 -3 -8 -9 0 -5 -4 -7 -10 -4 -5 3 -10 1 -10 -4 0 -6 -7 -11 -15 -11 -8 0 -15 -5 -15 -12 0 -6 -3 -9 -6 -5 -7 6 -81 -30 -90 -44 -3 -5 -14 -9 -25 -9 -10 0 -19 -5 -19 -11 0 -5 -5 -7 -10 -4 -6 3 -13 -1 -16 -9 -3 -9 -10 -14 -14 -11 -5 3 -13 -3 -19 -12 -5 -10 -12 -17 -15 -16 -10 3 -46 -9 -46 -16 0 -3 -14 -12 -30 -19 -17 -8 -28 -18 -24 -23 3 -5 -2 -9 -11 -9 -19 0 -37 -42 -23 -51 7 -4 7 -8 0 -10 -5 -3 -7 -25 -2 -57 3 -29 3 -55 -2 -58 -5 -3 -5 -11 0 -17 5 -7 7 -24 6 -40 -2 -19 1 -25 9 -20 9 5 9 3 0 -8 -7 -9 -8 -20 -4 -28 5 -8 5 -27 1 -42 -5 -16 -5 -31 0 -34 5 -3 7 -19 5 -35 -2 -17 -1 -29 3 -26 6 4 11 -51 12 -123 0 -14 6 -28 12 -33 9 -5 9 -8 2 -8 -15 0 -6 -72 10 -82 8 -5 7 -8 -3 -8 -11 0 -11 -3 0 -17 12 -15 12 -16 -1 -8 -12 7 -13 6 -3 -6 7 -9 14 -37 14 -62 1 -26 6 -47 10 -47 4 0 6 -8 4 -17 -1 -10 2 -24 8 -30 6 -9 6 -13 -3 -13 -9 0 -7 -8 5 -26 11 -18 13 -24 4 -19 -11 6 -11 5 -2 -5 6 -7 9 -19 6 -28 -4 -9 -2 -13 4 -9 6 4 9 -6 8 -23 -1 -17 2 -30 7 -30 5 0 6 -5 3 -10 -4 -6 -1 -18 7 -27 9 -12 9 -15 1 -9 -9 5 -11 2 -7 -8 3 -9 11 -13 18 -9 6 4 6 0 -2 -9 -9 -11 -10 -18 -2 -23 5 -3 10 -19 10 -36 0 -16 4 -29 8 -29 4 0 9 -12 10 -26 1 -15 8 -34 15 -42 10 -13 9 -14 -3 -7 -10 5 -9 1 3 -13 11 -11 16 -25 13 -31 -4 -5 -2 -12 3 -16 5 -3 8 -14 6 -25 -3 -14 2 -20 13 -20 15 0 15 -2 2 -10 -10 -6 -11 -10 -2 -10 6 0 12 -11 12 -24 0 -14 5 -28 10 -31 6 -3 10 -15 10 -26 0 -10 5 -19 11 -19 5 0 8 -4 4 -9 -3 -5 -1 -12 4 -16 6 -3 8 -12 4 -20 -3 -10 1 -15 13 -15 16 0 17 -2 4 -10 -12 -7 -12 -10 -1 -10 7 0 11 -6 7 -15 -3 -8 -1 -15 4 -15 6 0 10 -9 10 -20 0 -11 5 -20 10 -20 6 0 10 -7 10 -15 0 -9 11 -33 25 -55 14 -22 22 -40 18 -40 -5 0 0 -7 11 -15 10 -7 15 -18 11 -24 -3 -6 -2 -11 3 -11 6 0 13 -11 16 -25 4 -14 11 -25 17 -25 6 0 7 -4 4 -10 -3 -6 -1 -10 4 -10 6 0 11 -7 11 -15 0 -8 5 -15 12 -15 6 0 8 -3 5 -7 -4 -3 1 -12 11 -20 11 -10 12 -12 2 -8 -8 4 -4 -4 10 -17 14 -13 26 -31 28 -39 2 -8 8 -16 13 -17 5 -2 7 -8 3 -13 -3 -5 2 -9 10 -9 9 0 16 -7 16 -15 0 -8 10 -25 23 -39 59 -66 67 -76 60 -76 -4 0 3 -7 15 -16 12 -8 19 -20 16 -26 -4 -7 -2 -8 4 -4 7 4 12 2 12 -4 0 -6 5 -8 12 -4 6 4 8 3 4 -4 -3 -6 5 -19 19 -30 14 -11 25 -25 25 -31 0 -6 7 -11 16 -11 9 0 18 -9 21 -20 3 -11 9 -17 14 -15 4 3 13 -4 19 -15 6 -11 15 -18 21 -15 5 4 9 -1 9 -9 0 -8 9 -18 20 -21 11 -4 17 -11 14 -17 -4 -7 -2 -8 4 -4 12 7 54 -29 44 -38 -3 -3 4 -6 16 -6 12 0 22 -4 22 -10 0 -5 7 -10 15 -10 8 0 15 -4 15 -10 0 -5 7 -10 16 -10 8 0 12 -5 9 -10 -3 -6 3 -10 14 -10 11 0 23 -5 26 -10 4 -6 11 -8 16 -4 5 3 8 0 7 -8 -2 -7 7 -14 20 -16 12 -2 22 -8 22 -13 0 -6 5 -7 10 -4 5 3 10 1 10 -5 0 -6 4 -9 9 -6 5 4 11 1 13 -4 2 -6 10 -12 18 -14 33 -5 66 -19 84 -35 16 -13 18 -13 11 -1 -6 12 -5 13 6 3 14 -14 59 -18 59 -5 0 4 10 8 21 9 12 1 31 10 42 20 11 10 17 12 13 5 -4 -7 9 -3 29 8 20 11 41 18 46 14 5 -3 8 0 7 6 -2 7 6 14 17 16 11 1 21 8 23 13 2 6 11 11 19 11 9 0 24 9 34 21 9 11 21 21 26 21 19 1 33 11 27 19 -3 5 2 6 10 3 10 -4 18 1 22 11 4 9 13 14 21 11 8 -3 11 -1 8 4 -3 6 1 13 9 16 9 3 13 10 10 15 -3 5 2 6 10 3 11 -4 16 0 16 11 0 9 3 14 8 11 12 -7 45 22 37 34 -3 6 -3 10 2 9 21 -4 34 2 27 13 -5 8 -2 9 12 4 10 -4 15 -4 11 0 -9 10 13 35 24 28 5 -3 8 0 7 8 -2 7 2 12 8 11 6 -1 17 9 24 22 7 14 17 25 22 25 5 0 6 5 3 10 -3 6 -1 10 5 10 14 0 56 51 52 63 -1 5 2 6 7 2 6 -3 15 5 22 17 7 13 22 33 33 45 12 12 21 25 21 30 0 4 9 17 20 29 31 34 45 53 45 59 0 3 -6 3 -12 -1 -8 -4 -10 -3 -5 2 5 5 14 9 20 9 7 1 11 6 9 13 -1 7 2 12 8 12 5 0 10 7 10 15 0 8 5 15 11 15 5 0 8 4 4 9 -3 6 3 14 12 20 10 6 14 11 10 11 -5 0 1 12 12 26 11 15 19 30 16 34 -3 4 3 11 12 14 14 6 15 9 4 15 -10 7 -9 10 8 16 18 5 19 9 9 28 -10 20 -10 21 6 8 14 -12 16 -12 11 1 -4 9 0 18 9 21 9 4 13 13 10 21 -3 8 -1 17 5 21 6 3 11 15 11 26 0 10 5 19 10 19 6 0 10 9 10 21 0 11 4 18 9 14 6 -3 8 6 5 21 -3 16 -1 23 6 19 9 -6 14 10 13 42 -1 7 4 10 10 6 6 -4 8 0 4 10 -4 10 -2 17 4 17 6 0 9 6 6 14 -3 8 2 17 11 21 14 5 14 7 2 15 -12 8 -12 10 -1 10 7 0 11 6 8 14 -3 8 0 17 8 20 8 3 11 13 8 25 -3 13 -1 21 6 21 7 0 9 5 6 10 -3 6 0 10 7 10 9 0 9 3 -2 10 -12 8 -12 10 -1 10 8 0 11 7 8 20 -3 11 -1 18 4 14 9 -5 13 9 10 35 -2 7 2 10 8 6 7 -3 8 0 5 10 -4 8 0 23 7 32 12 14 12 16 -1 8 -13 -8 -13 -7 -1 8 7 9 10 17 6 17 -4 0 -3 6 2 13 6 6 9 20 8 30 -2 9 1 17 7 17 6 0 8 6 5 14 -3 7 1 23 8 34 8 10 11 22 8 26 -12 12 -11 46 1 37 8 -7 11 6 11 41 -1 27 3 52 7 54 4 3 8 18 8 34 0 16 5 32 10 35 8 5 8 11 0 20 -8 10 -8 15 0 20 7 4 10 16 7 26 -3 11 0 19 5 19 6 0 3 10 -8 22 -13 15 -13 18 -3 10 14 -10 17 -9 22 8 4 14 0 20 -11 20 -16 1 -16 1 0 10 11 7 15 20 13 40 -2 17 -1 30 4 30 4 0 8 7 8 15 0 8 -4 12 -9 9 -4 -3 -8 0 -8 5 0 6 5 11 12 11 6 0 9 3 5 6 -3 3 -2 16 2 28 5 11 5 30 1 41 -8 23 -2 47 11 39 5 -3 6 2 3 10 -3 9 -11 13 -18 9 -7 -4 -7 -1 1 9 7 8 10 18 6 21 -3 4 0 7 7 7 10 0 11 3 3 11 -7 7 -8 20 -4 33 4 11 7 36 5 53 -1 22 2 31 10 26 6 -4 5 0 -2 9 -9 11 -10 18 -2 23 6 4 7 12 0 24 -6 12 -5 22 2 29 9 9 9 12 -1 12 -11 0 -11 3 -1 15 10 12 10 15 0 15 -10 0 -10 4 1 16 10 13 10 17 -2 25 -10 6 -10 9 -2 9 7 0 12 6 10 12 -3 17 -23 38 -37 38 -6 0 -8 5 -5 10 3 6 -1 10 -10 10 -10 0 -13 5 -9 13 5 7 0 6 -11 -3 -11 -9 -16 -10 -11 -2 4 7 1 12 -8 12 -9 0 -16 5 -16 10 0 6 -7 10 -15 10 -8 0 -15 5 -15 11 0 5 -4 7 -10 4 -5 -3 -10 -1 -10 6 0 7 -3 10 -6 6 -4 -3 -15 4 -26 16 -11 12 -17 16 -13 10 3 -7 1 -13 -4 -13 -6 0 -11 7 -11 16 0 10 -6 14 -15 10 -8 -3 -15 -1 -15 4 0 6 -7 10 -15 10 -8 0 -15 5 -15 10 0 6 -7 10 -15 10 -8 0 -15 4 -15 10 0 5 -7 7 -15 4 -8 -4 -15 -1 -15 6 0 6 -4 8 -10 5 -5 -3 -10 -1 -10 5 0 6 -4 8 -10 5 -5 -3 -10 -1 -10 5 0 6 -4 8 -10 5 -5 -3 -10 -1 -10 4 0 6 -5 11 -12 11 -26 0 -107 44 -101 54 4 6 -2 4 -12 -4 -11 -9 -16 -10 -11 -2 5 8 1 12 -11 12 -11 0 -24 5 -31 12 -7 7 -12 9 -12 5 0 -4 -13 -1 -30 8 -16 9 -30 13 -30 9 0 -4 -7 -1 -15 6 -8 6 -20 8 -26 4 -8 -4 -9 -3 -5 4 5 8 -2 12 -18 12 -14 0 -26 5 -26 11 0 6 -9 9 -20 6 -11 -3 -26 0 -33 6 -6 7 -23 13 -37 15 -14 1 -31 3 -37 4 -7 1 -13 5 -13 9 0 4 -9 6 -20 4 -11 -2 -20 0 -20 4 0 8 -1 8 -62 15 -21 2 -45 10 -55 17 -14 12 -16 12 -8 0 6 -11 5 -12 -6 -5 -16 9 -29 12 -76 16 -18 1 -33 5 -33 9 0 4 -12 6 -26 3 -14 -3 -23 -1 -21 3 3 4 -15 8 -39 9 -28 0 -41 -3 -37 -10 4 -6 0 -5 -9 2 -16 13 -148 13 -148 0z"/>
</g>
</svg>