<?xml version="1.0" encoding="UTF-8"?>
<!-- Generator: Adobe Illustrator 18.0.0, SVG Export Plug-In . SVG Version: 6.00 Build 0) -->
<svg xmlns="http://www.w3.org/2000/svg" xmlns:xlink="http://www.w3.org/1999/xlink" id="Layer_1" x="0px" y="0px" viewBox="0 0 1000 1000" style="enable-background:new 0 0 1000 1000;" xml:space="preserve"><script xmlns="" type="text/javascript" charset="utf-8" id="zm-extension"/> <linearGradient id="SVGID_1_" gradientUnits="userSpaceOnUse" x1="-657.8517" y1="261.6024" x2="-105.8793" y2="261.6024"> <stop offset="0" style="stop-color:#E9E400"/> <stop offset="0.055" style="stop-color:#E9DE09"/> <stop offset="0.1466" style="stop-color:#E9CF23"/> <stop offset="0.2634" style="stop-color:#E9B64D"/> <stop offset="0.4009" style="stop-color:#EA9486"/> <stop offset="0.5539" style="stop-color:#EA68CF"/> <stop offset="0.6459" style="stop-color:#EA4CFE"/> <stop offset="0.9944" style="stop-color:#6C009A"/> </linearGradient> <rect x="-657.852" y="231.604" style="display:none;fill:url(#SVGID_1_);" width="551.972" height="59.997"/> <g> <g> <path d="M1319.428,481.607v77.828h-66.194v202.995h-80.235V559.436h-66.193v-77.828H1319.428z"/> <path d="M1376.791,546.598c-11.233,0-20.931-4.074-29.086-12.235c-8.161-8.155-12.235-17.715-12.235-28.685 c0-10.963,4.074-20.522,12.235-28.684c8.155-8.155,17.853-12.236,29.086-12.236c10.963,0,20.522,4.081,28.684,12.236 c8.155,8.161,12.236,17.721,12.236,28.684c0,10.97-4.081,20.529-12.236,28.685 C1397.313,542.523,1387.754,546.598,1376.791,546.598z M1339.481,762.431V561.843h74.218v200.588H1339.481z"/> <path d="M1445.793,762.431V469.572h74.218v292.858H1445.793z"/> <path d="M1688.103,481.607h74.218v280.823h-74.218v-18.053c-12.837,15.783-30.759,23.669-53.757,23.669 c-27.017,0-49.082-10.029-66.194-30.088c-17.119-20.059-25.675-45.333-25.675-75.822s8.556-55.764,25.675-75.822 c17.112-20.059,39.178-30.089,66.194-30.089c22.998,0,40.92,7.893,53.757,23.67V481.607z M1626.522,689.016 c6.551,7.221,15.176,10.832,25.876,10.832c10.693,0,19.319-3.611,25.876-10.832c6.55-7.222,9.828-16.179,9.828-26.879 c0-10.694-3.278-19.658-9.828-26.879c-6.557-7.222-15.183-10.832-25.876-10.832c-10.7,0-19.325,3.61-25.876,10.832 c-6.557,7.221-9.829,16.185-9.829,26.879C1616.693,672.837,1619.966,681.794,1626.522,689.016z"/> <path d="M1930.408,561.843h74.218v200.588h-74.218v-18.053c-12.837,15.783-30.759,23.669-53.757,23.669 c-27.017,0-49.082-10.029-66.194-30.088c-17.119-20.059-25.676-45.333-25.676-75.822s8.557-55.764,25.676-75.822 c17.112-20.059,39.178-30.089,66.194-30.089c22.998,0,40.92,7.893,53.757,23.67V561.843z M1868.828,689.016 c6.551,7.221,15.176,10.832,25.876,10.832c10.693,0,19.319-3.611,25.876-10.832c6.55-7.222,9.828-16.179,9.828-26.879 c0-10.694-3.278-19.658-9.828-26.879c-6.557-7.222-15.183-10.832-25.876-10.832c-10.7,0-19.325,3.61-25.876,10.832 c-6.557,7.221-9.829,16.185-9.829,26.879C1858.999,672.837,1862.271,681.794,1868.828,689.016z"/> </g> <g> <linearGradient id="SVGID_2_" gradientUnits="userSpaceOnUse" x1="1106.8047" y1="616.4026" x2="2004.626" y2="616.4026"> <stop offset="0" style="stop-color:#E9E400"/> <stop offset="0.055" style="stop-color:#E9DE09"/> <stop offset="0.1466" style="stop-color:#E9CF23"/> <stop offset="0.2634" style="stop-color:#E9B64D"/> <stop offset="0.4009" style="stop-color:#EA9486"/> <stop offset="0.5539" style="stop-color:#EA68CF"/> <stop offset="0.6459" style="stop-color:#EA4CFE"/> <stop offset="0.9944" style="stop-color:#6C009A"/> </linearGradient> <path style="fill:url(#SVGID_2_);" d="M1319.428,481.607v77.828h-66.194v202.995h-80.235V559.436h-66.193v-77.828H1319.428z"/> <linearGradient id="SVGID_3_" gradientUnits="userSpaceOnUse" x1="1106.8047" y1="616.4026" x2="2004.626" y2="616.4026"> <stop offset="0" style="stop-color:#E9E400"/> <stop offset="0.055" style="stop-color:#E9DE09"/> <stop offset="0.1466" style="stop-color:#E9CF23"/> <stop offset="0.2634" style="stop-color:#E9B64D"/> <stop offset="0.4009" style="stop-color:#EA9486"/> <stop offset="0.5539" style="stop-color:#EA68CF"/> <stop offset="0.6459" style="stop-color:#EA4CFE"/> <stop offset="0.9944" style="stop-color:#6C009A"/> </linearGradient> <path style="fill:url(#SVGID_3_);" d="M1376.791,546.598c-11.233,0-20.931-4.074-29.086-12.235 c-8.161-8.155-12.235-17.715-12.235-28.685c0-10.963,4.074-20.522,12.235-28.684c8.155-8.155,17.853-12.236,29.086-12.236 c10.963,0,20.522,4.081,28.684,12.236c8.155,8.161,12.236,17.721,12.236,28.684c0,10.97-4.081,20.529-12.236,28.685 C1397.313,542.523,1387.754,546.598,1376.791,546.598z M1339.481,762.431V561.843h74.218v200.588H1339.481z"/> <linearGradient id="SVGID_4_" gradientUnits="userSpaceOnUse" x1="1106.8047" y1="616.4026" x2="2004.626" y2="616.4026"> <stop offset="0" style="stop-color:#E9E400"/> <stop offset="0.055" style="stop-color:#E9DE09"/> <stop offset="0.1466" style="stop-color:#E9CF23"/> <stop offset="0.2634" style="stop-color:#E9B64D"/> <stop offset="0.4009" style="stop-color:#EA9486"/> <stop offset="0.5539" style="stop-color:#EA68CF"/> <stop offset="0.6459" style="stop-color:#EA4CFE"/> <stop offset="0.9944" style="stop-color:#6C009A"/> </linearGradient> <path style="fill:url(#SVGID_4_);" d="M1445.793,762.431V469.572h74.218v292.858H1445.793z"/> <linearGradient id="SVGID_5_" gradientUnits="userSpaceOnUse" x1="1106.8047" y1="616.4026" x2="2004.626" y2="616.4026"> <stop offset="0" style="stop-color:#E9E400"/> <stop offset="0.055" style="stop-color:#E9DE09"/> <stop offset="0.1466" style="stop-color:#E9CF23"/> <stop offset="0.2634" style="stop-color:#E9B64D"/> <stop offset="0.4009" style="stop-color:#EA9486"/> <stop offset="0.5539" style="stop-color:#EA68CF"/> <stop offset="0.6459" style="stop-color:#EA4CFE"/> <stop offset="0.9944" style="stop-color:#6C009A"/> </linearGradient> <path style="fill:url(#SVGID_5_);" d="M1688.103,481.607h74.218v280.823h-74.218v-18.053 c-12.837,15.783-30.759,23.669-53.757,23.669c-27.017,0-49.082-10.029-66.194-30.088c-17.119-20.059-25.675-45.333-25.675-75.822 s8.556-55.764,25.675-75.822c17.112-20.059,39.178-30.089,66.194-30.089c22.998,0,40.92,7.893,53.757,23.67V481.607z M1626.522,689.016c6.551,7.221,15.176,10.832,25.876,10.832c10.693,0,19.319-3.611,25.876-10.832 c6.55-7.222,9.828-16.179,9.828-26.879c0-10.694-3.278-19.658-9.828-26.879c-6.557-7.222-15.183-10.832-25.876-10.832 c-10.7,0-19.325,3.61-25.876,10.832c-6.557,7.221-9.829,16.185-9.829,26.879C1616.693,672.837,1619.966,681.794,1626.522,689.016z "/> <linearGradient id="SVGID_6_" gradientUnits="userSpaceOnUse" x1="1106.8047" y1="616.4026" x2="2004.626" y2="616.4026"> <stop offset="0" style="stop-color:#E9E400"/> <stop offset="0.055" style="stop-color:#E9DE09"/> <stop offset="0.1466" style="stop-color:#E9CF23"/> <stop offset="0.2634" style="stop-color:#E9B64D"/> <stop offset="0.4009" style="stop-color:#EA9486"/> <stop offset="0.5539" style="stop-color:#EA68CF"/> <stop offset="0.6459" style="stop-color:#EA4CFE"/> <stop offset="0.9944" style="stop-color:#6C009A"/> </linearGradient> <path style="fill:url(#SVGID_6_);" d="M1930.408,561.843h74.218v200.588h-74.218v-18.053 c-12.837,15.783-30.759,23.669-53.757,23.669c-27.017,0-49.082-10.029-66.194-30.088c-17.119-20.059-25.676-45.333-25.676-75.822 s8.557-55.764,25.676-75.822c17.112-20.059,39.178-30.089,66.194-30.089c22.998,0,40.92,7.893,53.757,23.67V561.843z M1868.828,689.016c6.551,7.221,15.176,10.832,25.876,10.832c10.693,0,19.319-3.611,25.876-10.832 c6.55-7.222,9.828-16.179,9.828-26.879c0-10.694-3.278-19.658-9.828-26.879c-6.557-7.222-15.183-10.832-25.876-10.832 c-10.7,0-19.325,3.61-25.876,10.832c-6.557,7.221-9.829,16.185-9.829,26.879C1858.999,672.837,1862.271,681.794,1868.828,689.016z "/> </g> </g> <g> <linearGradient id="SVGID_7_" gradientUnits="userSpaceOnUse" x1="2022.9932" y1="1119.0599" x2="2059.8674" y2="1119.0599"> <stop offset="0" style="stop-color:#E9E400"/> <stop offset="0.055" style="stop-color:#E9DE09"/> <stop offset="0.1466" style="stop-color:#E9CF23"/> <stop offset="0.2634" style="stop-color:#E9B64D"/> <stop offset="0.4009" style="stop-color:#EA9486"/> <stop offset="0.5539" style="stop-color:#EA68CF"/> <stop offset="0.6459" style="stop-color:#EA4CFE"/> <stop offset="0.9944" style="stop-color:#6C009A"/> </linearGradient> <path style="fill:url(#SVGID_7_);" d="M2054.475,1132.102c7.19-7.209,7.19-18.88,0-26.07c-7.209-7.209-18.88-7.209-26.089,0 c-7.19,7.191-7.19,18.861,0,26.07C2035.595,1139.292,2047.266,1139.292,2054.475,1132.102z"/> <linearGradient id="SVGID_8_" gradientUnits="userSpaceOnUse" x1="2131.8022" y1="936.5145" x2="2316.1453" y2="936.5145"> <stop offset="0" style="stop-color:#E9E400"/> <stop offset="0.055" style="stop-color:#E9DE09"/> <stop offset="0.1466" style="stop-color:#E9CF23"/> <stop offset="0.2634" style="stop-color:#E9B64D"/> <stop offset="0.4009" style="stop-color:#EA9486"/> <stop offset="0.5539" style="stop-color:#EA68CF"/> <stop offset="0.6459" style="stop-color:#EA4CFE"/> <stop offset="0.9944" style="stop-color:#6C009A"/> </linearGradient> <path style="fill:url(#SVGID_8_);" d="M2289.126,1001.735c36.022-36.022,36.03-94.345,0-130.373 c-36.026-36.024-94.346-36.026-130.375,0c-35.932,35.932-35.934,94.415,0.006,130.376 C2194.702,1037.661,2253.184,1037.676,2289.126,1001.735z M2184.827,897.436c21.614-21.614,56.607-21.617,78.225,0 c21.614,21.612,21.617,56.608,0,78.223c-21.559,21.56-56.652,21.56-78.221,0.004 C2163.268,954.088,2163.267,918.995,2184.827,897.436z"/> <linearGradient id="SVGID_9_" gradientUnits="userSpaceOnUse" x1="1736.1687" y1="1040.837" x2="2503.1172" y2="1040.837"> <stop offset="0" style="stop-color:#E9E400"/> <stop offset="0.055" style="stop-color:#E9DE09"/> <stop offset="0.1466" style="stop-color:#E9CF23"/> <stop offset="0.2634" style="stop-color:#E9B64D"/> <stop offset="0.4009" style="stop-color:#EA9486"/> <stop offset="0.5539" style="stop-color:#EA68CF"/> <stop offset="0.6459" style="stop-color:#EA4CFE"/> <stop offset="0.9944" style="stop-color:#6C009A"/> </linearGradient> <path style="fill:url(#SVGID_9_);" d="M1747.555,1110.01c2.281,0.946,4.677,1.405,7.052,1.405c4.799,0,9.514-1.875,13.041-5.4 c37.027-37.027,82.698-34.712,97.617-32.75l6.457,6.457c-12.707,30.237-22.943,60.304-30.451,89.547 c-2.71,10.583-1.796,21.782,2.233,32.025c-17.751,8.181-34.878,20.192-49.789,35.104c-47.459,47.461-57.096,163.124-57.483,168.025 c-0.424,5.378,1.527,10.673,5.341,14.488c3.472,3.47,8.168,5.4,13.035,5.4c0.483,0,0.968-0.018,1.453-0.057 c4.901-0.385,120.568-10.022,168.027-57.481c14.906-14.906,26.916-32.031,35.097-49.778c10.845,4.265,22.007,4.79,32.044,2.218 c29.23-7.506,59.294-17.738,89.534-30.447l6.457,6.457c1.96,14.921,4.276,60.592-32.75,97.615 c-5.271,5.273-6.849,13.203-3.995,20.091c2.852,6.89,9.574,11.381,17.032,11.381c72.974,0,174.996-43.458,212.571-113.669 c16.319-30.49,27.429-78.725-8.003-138.92c15.021-12.696,29.488-25.971,43.135-39.618 c60.879-60.879,108.672-139.685,142.054-234.223c41.705-117.994,45.693-217.252,45.842-221.419 c0.184-5.116-1.768-10.078-5.387-13.699c-3.621-3.619-8.562-5.581-13.699-5.387c-4.169,0.149-103.425,4.139-221.413,45.842 c-94.546,33.382-173.351,81.177-234.229,142.056c-13.642,13.642-26.916,28.107-39.618,43.135 c-60.194-35.432-108.429-24.322-138.922-8.004c-70.21,37.575-113.668,139.599-113.668,212.573 C1736.174,1100.434,1740.667,1107.158,1747.555,1110.01z M1898.013,1340.698c-25.351,25.351-84.82,38.722-122.408,44.181 c5.461-37.59,18.834-97.057,44.183-122.406c14.197-14.197,30.657-24.96,47.203-31.022l62.045,62.045 C1922.974,1310.04,1912.212,1326.501,1898.013,1340.698z M1982.068,1283.493c-5.336,1.366-11.516-0.64-16.11-5.227 c-89.496-89.494,25.388,25.39-83.727-83.727c-4.598-4.607-6.604-10.786-5.242-16.112c5.906-22.998,13.629-46.594,23.021-70.417 l152.466,152.466C2028.65,1269.87,2005.057,1277.591,1982.068,1283.493z M2247.57,1293.242 c-24.156,45.132-84.977,78.4-140.403,89.852c17.672-33.255,21.568-75.589,15.111-101.259c-1.499-5.963-5.389-8.96-5.607-9.313 c44.679-21.64,86.99-47.601,126.269-77.464C2262.128,1230.115,2263.708,1263.087,2247.57,1293.242z M2431.789,857.566 L2302.92,728.698c70.21-21.807,131.291-29.973,161.778-32.908C2461.762,726.282,2453.594,787.363,2431.789,857.566z M2054.458,871.347c54.62-54.622,125.113-98.093,209.577-129.384l154.488,154.488c-31.288,84.462-74.759,154.955-129.384,209.578 c-16.614,16.612-34.503,32.661-53.173,47.701c-44.88,36.137-94.276,66.746-146.977,91.113l-173.346-173.342 c24.367-52.704,54.976-102.101,91.109-146.975C2021.804,905.843,2037.852,887.952,2054.458,871.347z M1867.244,912.916 c30.161-16.14,63.129-14.558,98.181,4.63c-29.863,39.275-55.824,81.588-77.464,126.27c-0.275-0.17-3.593-4.342-9.759-5.732 c-2.535-0.573-51.318-11.066-100.812,15.238C1788.844,997.894,1822.11,937.072,1867.244,912.916z"/> <linearGradient id="SVGID_10_" gradientUnits="userSpaceOnUse" x1="1918.701" y1="1458.0242" x2="2007.715" y2="1458.0242"> <stop offset="0" style="stop-color:#E9E400"/> <stop offset="0.055" style="stop-color:#E9DE09"/> <stop offset="0.1466" style="stop-color:#E9CF23"/> <stop offset="0.2634" style="stop-color:#E9B64D"/> <stop offset="0.4009" style="stop-color:#EA9486"/> <stop offset="0.5539" style="stop-color:#EA68CF"/> <stop offset="0.6459" style="stop-color:#EA4CFE"/> <stop offset="0.9944" style="stop-color:#6C009A"/> </linearGradient> <path style="fill:url(#SVGID_10_);" d="M1950.178,1497.139l52.14-52.159c7.198-7.202,7.196-18.876-0.004-26.074 c-7.203-7.2-18.878-7.196-26.076,0.004l-52.14,52.159c-7.198,7.202-7.196,18.876,0.004,26.074 C1931.305,1504.34,1942.98,1504.34,1950.178,1497.139z"/> <linearGradient id="SVGID_11_" gradientUnits="userSpaceOnUse" x1="1657.9468" y1="1197.2771" x2="1746.9788" y2="1197.2771"> <stop offset="0" style="stop-color:#E9E400"/> <stop offset="0.055" style="stop-color:#E9DE09"/> <stop offset="0.1466" style="stop-color:#E9CF23"/> <stop offset="0.2634" style="stop-color:#E9B64D"/> <stop offset="0.4009" style="stop-color:#EA9486"/> <stop offset="0.5539" style="stop-color:#EA68CF"/> <stop offset="0.6459" style="stop-color:#EA4CFE"/> <stop offset="0.9944" style="stop-color:#6C009A"/> </linearGradient> <path style="fill:url(#SVGID_11_);" d="M1689.418,1236.386l52.159-52.14c7.202-7.198,7.203-18.872,0.005-26.074 s-18.87-7.202-26.074-0.004l-52.159,52.14c-7.202,7.198-7.203,18.872-0.005,26.074 C1670.54,1243.58,1682.212,1243.588,1689.418,1236.386z"/> <linearGradient id="SVGID_12_" gradientUnits="userSpaceOnUse" x1="1715.5806" y1="1520.4705" x2="1877.3484" y2="1520.4705"> <stop offset="0" style="stop-color:#E9E400"/> <stop offset="0.055" style="stop-color:#E9DE09"/> <stop offset="0.1466" style="stop-color:#E9CF23"/> <stop offset="0.2634" style="stop-color:#E9B64D"/> <stop offset="0.4009" style="stop-color:#EA9486"/> <stop offset="0.5539" style="stop-color:#EA68CF"/> <stop offset="0.6459" style="stop-color:#EA4CFE"/> <stop offset="0.9944" style="stop-color:#6C009A"/> </linearGradient> <path style="fill:url(#SVGID_12_);" d="M1845.875,1444.995l-124.893,124.875c-7.202,7.2-7.202,18.874-0.002,26.074 c7.196,7.2,18.872,7.203,26.074,0.002l124.893-124.875c7.202-7.2,7.202-18.874,0.002-26.074 C1864.753,1437.797,1853.077,1437.797,1845.875,1444.995z"/> <linearGradient id="SVGID_13_" gradientUnits="userSpaceOnUse" x1="1568.0836" y1="1520.4705" x2="1729.8513" y2="1520.4705"> <stop offset="0" style="stop-color:#E9E400"/> <stop offset="0.055" style="stop-color:#E9DE09"/> <stop offset="0.1466" style="stop-color:#E9CF23"/> <stop offset="0.2634" style="stop-color:#E9B64D"/> <stop offset="0.4009" style="stop-color:#EA9486"/> <stop offset="0.5539" style="stop-color:#EA68CF"/> <stop offset="0.6459" style="stop-color:#EA4CFE"/> <stop offset="0.9944" style="stop-color:#6C009A"/> </linearGradient> <path style="fill:url(#SVGID_13_);" d="M1698.378,1444.995l-124.893,124.875c-7.202,7.2-7.202,18.874-0.002,26.074 c7.196,7.2,18.872,7.203,26.074,0.002l124.893-124.875c7.202-7.2,7.202-18.874,0.002-26.074 C1717.254,1437.797,1705.578,1437.797,1698.378,1444.995z"/> <linearGradient id="SVGID_14_" gradientUnits="userSpaceOnUse" x1="1559.1416" y1="1364.0214" x2="1720.891" y2="1364.0214"> <stop offset="0" style="stop-color:#E9E400"/> <stop offset="0.055" style="stop-color:#E9DE09"/> <stop offset="0.1466" style="stop-color:#E9CF23"/> <stop offset="0.2634" style="stop-color:#E9B64D"/> <stop offset="0.4009" style="stop-color:#EA9486"/> <stop offset="0.5539" style="stop-color:#EA68CF"/> <stop offset="0.6459" style="stop-color:#EA4CFE"/> <stop offset="0.9944" style="stop-color:#6C009A"/> </linearGradient> <path style="fill:url(#SVGID_14_);" d="M1590.617,1439.504l124.875-124.893c7.2-7.202,7.2-18.874-0.002-26.076 c-7.198-7.198-18.874-7.198-26.074,0.002l-124.875,124.893c-7.2,7.202-7.2,18.874,0.002,26.076 C1571.743,1446.706,1583.417,1446.706,1590.617,1439.504z"/> <linearGradient id="SVGID_15_" gradientUnits="userSpaceOnUse" x1="2075.1411" y1="1053.8722" x2="2138.0864" y2="1053.8722"> <stop offset="0" style="stop-color:#E9E400"/> <stop offset="0.055" style="stop-color:#E9DE09"/> <stop offset="0.1466" style="stop-color:#E9CF23"/> <stop offset="0.2634" style="stop-color:#E9B64D"/> <stop offset="0.4009" style="stop-color:#EA9486"/> <stop offset="0.5539" style="stop-color:#EA68CF"/> <stop offset="0.6459" style="stop-color:#EA4CFE"/> <stop offset="0.9944" style="stop-color:#6C009A"/> </linearGradient> <path style="fill:url(#SVGID_15_);" d="M2106.616,1079.945l26.07-26.07c7.2-7.2,7.2-18.874,0-26.076 c-7.202-7.2-18.872-7.2-26.076,0l-26.07,26.07c-7.2,7.2-7.2,18.874,0,26.076 C2087.742,1087.145,2099.415,1087.145,2106.616,1079.945z"/> </g> <g> <linearGradient id="SVGID_16_" gradientUnits="userSpaceOnUse" x1="-592.2969" y1="-423.6395" x2="-555.8906" y2="-423.6395"> <stop offset="0" style="stop-color:#E9E400"/> <stop offset="0.055" style="stop-color:#E9DE09"/> <stop offset="0.1466" style="stop-color:#E9CF23"/> <stop offset="0.2634" style="stop-color:#E9B64D"/> <stop offset="0.4009" style="stop-color:#EA9486"/> <stop offset="0.5539" style="stop-color:#EA68CF"/> <stop offset="0.6459" style="stop-color:#EA4CFE"/> <stop offset="0.9944" style="stop-color:#6C009A"/> </linearGradient> <path style="fill:url(#SVGID_16_);" d="M-555.891-381.772v-83.734c0-10.052-8.151-18.203-18.203-18.203 s-18.203,8.151-18.203,18.203v83.734c0,10.052,8.151,18.203,18.203,18.203S-555.891-371.721-555.891-381.772z"/> <linearGradient id="SVGID_17_" gradientUnits="userSpaceOnUse" x1="-1010.9688" y1="102.4308" x2="-974.5625" y2="102.4308"> <stop offset="0" style="stop-color:#E9E400"/> <stop offset="0.055" style="stop-color:#E9DE09"/> <stop offset="0.1466" style="stop-color:#E9CF23"/> <stop offset="0.2634" style="stop-color:#E9B64D"/> <stop offset="0.4009" style="stop-color:#EA9486"/> <stop offset="0.5539" style="stop-color:#EA68CF"/> <stop offset="0.6459" style="stop-color:#EA4CFE"/> <stop offset="0.9944" style="stop-color:#6C009A"/> </linearGradient> <path style="fill:url(#SVGID_17_);" d="M-992.766,84.228c-10.048,0-18.203,8.155-18.203,18.203s8.155,18.203,18.203,18.203 s18.203-8.155,18.203-18.203S-982.718,84.228-992.766,84.228z"/> <linearGradient id="SVGID_18_" gradientUnits="userSpaceOnUse" x1="-1156.5938" y1="78.7668" x2="-319.25" y2="78.7668"> <stop offset="0" style="stop-color:#E9E400"/> <stop offset="0.055" style="stop-color:#E9DE09"/> <stop offset="0.1466" style="stop-color:#E9CF23"/> <stop offset="0.2634" style="stop-color:#E9B64D"/> <stop offset="0.4009" style="stop-color:#EA9486"/> <stop offset="0.5539" style="stop-color:#EA68CF"/> <stop offset="0.6459" style="stop-color:#EA4CFE"/> <stop offset="0.9944" style="stop-color:#6C009A"/> </linearGradient> <path style="fill:url(#SVGID_18_);" d="M-392.063-24.991h-135.89c21.037-53.887,29.553-117.314,27.911-173.774 c-0.313-10.774-0.726-17.005-1.285-20.928c-0.941-39.332-33.237-71.063-72.767-71.063c-40.149,0-72.813,32.664-72.813,72.813 v18.203c0,115.127-147.835,179.812-259.402,207.55c-8.435-19.284-27.691-32.8-50.051-32.8h-182.031 c-10.052,0-18.203,8.151-18.203,18.203v436.875c0,10.052,8.151,18.203,18.203,18.203h182.031c22.211,0,41.356-13.337,49.878-32.418 c9.238,2.37,17.814,4.609,25.73,6.677c63.556,16.599,98.566,25.741,183.713,25.741h195.756c40.149,0,72.813-32.664,72.813-72.813 c0-14.97-4.545-28.896-12.323-40.48c28.12-9.835,48.73-36.703,48.73-68.739c0-14.916-4.434-28.887-12.189-40.524 c27.996-9.852,48.595-36.657,48.595-68.695c0-14.97-4.545-28.896-12.323-40.48c28.12-9.835,48.73-36.703,48.73-68.739 C-319.25,7.673-351.914-24.991-392.063-24.991z M-938.156,393.681c0,10.037-8.166,18.203-18.203,18.203h-163.828V11.415h163.828 c10.037,0,18.203,8.166,18.203,18.203V393.681z M-392.063,84.228c-39.044,0-48.351,0-91.016,0 c-10.052,0-18.203,8.151-18.203,18.203s8.151,18.203,18.203,18.203h54.609c20.074,0,36.406,16.332,36.406,36.406 c0,20.107-16.299,36.406-36.406,36.406h-91.016c-10.052,0-18.203,8.151-18.203,18.203s8.151,18.203,18.203,18.203h54.609 c19.836,0,36.406,15.846,36.406,36.406c0,20.107-16.299,36.406-36.406,36.406c-39.044,0-48.351,0-91.016,0 c-10.052,0-18.203,8.151-18.203,18.203c0,10.052,8.151,18.203,18.203,18.203h54.609c20.074,0,36.406,16.332,36.406,36.406 s-16.332,36.406-36.406,36.406h-195.756c-80.471,0-111.9-8.208-174.513-24.56c-9.173-2.396-19.233-5.022-30.199-7.818V44.226 C-770.018,12.848-610.5-63.744-610.5-199.741v-18.203c0-20.074,16.332-36.406,36.406-36.406c20.038,0,36.368,16.306,36.406,36.35 v0.056c0,7.911,9.873,105.001-29.718,192.953h-61.297c-10.052,0-18.203,8.151-18.203,18.203s8.151,18.203,18.203,18.203 c12.711,0,215.893,0,236.641,0c20.074,0,36.406,16.332,36.406,36.406C-355.656,67.929-371.955,84.228-392.063,84.228z"/> <linearGradient id="SVGID_19_" gradientUnits="userSpaceOnUse" x1="-1010.9688" y1="248.0558" x2="-974.5625" y2="248.0558"> <stop offset="0" style="stop-color:#E9E400"/> <stop offset="0.055" style="stop-color:#E9DE09"/> <stop offset="0.1466" style="stop-color:#E9CF23"/> <stop offset="0.2634" style="stop-color:#E9B64D"/> <stop offset="0.4009" style="stop-color:#EA9486"/> <stop offset="0.5539" style="stop-color:#EA68CF"/> <stop offset="0.6459" style="stop-color:#EA4CFE"/> <stop offset="0.9944" style="stop-color:#6C009A"/> </linearGradient> <path style="fill:url(#SVGID_19_);" d="M-992.766,157.04c-10.052,0-18.203,8.151-18.203,18.203v145.625 c0,10.052,8.151,18.203,18.203,18.203s18.203-8.151,18.203-18.203V175.243C-974.563,165.192-982.714,157.04-992.766,157.04z"/> <linearGradient id="SVGID_20_" gradientUnits="userSpaceOnUse" x1="-810.7344" y1="-236.1473" x2="-701.5156" y2="-236.1473"> <stop offset="0" style="stop-color:#E9E400"/> <stop offset="0.055" style="stop-color:#E9DE09"/> <stop offset="0.1466" style="stop-color:#E9CF23"/> <stop offset="0.2634" style="stop-color:#E9B64D"/> <stop offset="0.4009" style="stop-color:#EA9486"/> <stop offset="0.5539" style="stop-color:#EA68CF"/> <stop offset="0.6459" style="stop-color:#EA4CFE"/> <stop offset="0.9944" style="stop-color:#6C009A"/> </linearGradient> <path style="fill:url(#SVGID_20_);" d="M-810.734-236.147c0,10.052,8.151,18.203,18.203,18.203h72.813 c10.052,0,18.203-8.151,18.203-18.203s-8.151-18.203-18.203-18.203h-72.813C-802.583-254.35-810.734-246.199-810.734-236.147z"/> <linearGradient id="SVGID_21_" gradientUnits="userSpaceOnUse" x1="-446.6719" y1="-236.1473" x2="-337.4531" y2="-236.1473"> <stop offset="0" style="stop-color:#E9E400"/> <stop offset="0.055" style="stop-color:#E9DE09"/> <stop offset="0.1466" style="stop-color:#E9CF23"/> <stop offset="0.2634" style="stop-color:#E9B64D"/> <stop offset="0.4009" style="stop-color:#EA9486"/> <stop offset="0.5539" style="stop-color:#EA68CF"/> <stop offset="0.6459" style="stop-color:#EA4CFE"/> <stop offset="0.9944" style="stop-color:#6C009A"/> </linearGradient> <path style="fill:url(#SVGID_21_);" d="M-446.672-236.147c0,10.052,8.151,18.203,18.203,18.203h72.813 c10.052,0,18.203-8.151,18.203-18.203s-8.151-18.203-18.203-18.203h-72.813C-438.521-254.35-446.672-246.199-446.672-236.147z"/> <linearGradient id="SVGID_22_" gradientUnits="userSpaceOnUse" x1="-489.3213" y1="-364.8613" x2="-401.4375" y2="-364.8613"> <stop offset="0" style="stop-color:#E9E400"/> <stop offset="0.055" style="stop-color:#E9DE09"/> <stop offset="0.1466" style="stop-color:#E9CF23"/> <stop offset="0.2634" style="stop-color:#E9B64D"/> <stop offset="0.4009" style="stop-color:#EA9486"/> <stop offset="0.5539" style="stop-color:#EA68CF"/> <stop offset="0.6459" style="stop-color:#EA4CFE"/> <stop offset="0.9944" style="stop-color:#6C009A"/> </linearGradient> <path style="fill:url(#SVGID_22_);" d="M-432.513-403.472l-51.477,51.477c-7.108,7.108-7.108,18.635,0,25.745 c7.112,7.108,18.633,7.107,25.745,0l51.477-51.477c7.108-7.108,7.108-18.635,0-25.745 C-413.879-410.579-425.402-410.579-432.513-403.472z"/> <linearGradient id="SVGID_23_" gradientUnits="userSpaceOnUse" x1="-746.7499" y1="-364.8613" x2="-658.8661" y2="-364.8613"> <stop offset="0" style="stop-color:#E9E400"/> <stop offset="0.055" style="stop-color:#E9DE09"/> <stop offset="0.1466" style="stop-color:#E9CF23"/> <stop offset="0.2634" style="stop-color:#E9B64D"/> <stop offset="0.4009" style="stop-color:#EA9486"/> <stop offset="0.5539" style="stop-color:#EA68CF"/> <stop offset="0.6459" style="stop-color:#EA4CFE"/> <stop offset="0.9944" style="stop-color:#6C009A"/> </linearGradient> <path style="fill:url(#SVGID_23_);" d="M-664.197-326.251c7.108-7.108,7.108-18.635,0-25.745l-51.477-51.477 c-7.11-7.106-18.633-7.106-25.745,0c-7.108,7.108-7.108,18.635,0,25.745l51.477,51.477 C-682.828-319.143-671.308-319.144-664.197-326.251z"/> </g> <g> <linearGradient id="SVGID_24_" gradientUnits="userSpaceOnUse" x1="-818.7544" y1="641.75" x2="-782.5044" y2="641.75"> <stop offset="0" style="stop-color:#E9E400"/> <stop offset="0.055" style="stop-color:#E9DE09"/> <stop offset="0.1466" style="stop-color:#E9CF23"/> <stop offset="0.2634" style="stop-color:#E9B64D"/> <stop offset="0.4009" style="stop-color:#EA9486"/> <stop offset="0.5539" style="stop-color:#EA68CF"/> <stop offset="0.6459" style="stop-color:#EA4CFE"/> <stop offset="0.9944" style="stop-color:#6C009A"/> </linearGradient> <path style="fill:url(#SVGID_24_);" d="M-800.629,659.875c10.005,0,18.125-8.12,18.125-18.125s-8.12-18.125-18.125-18.125 s-18.125,8.12-18.125,18.125S-810.634,659.875-800.629,659.875z"/> <linearGradient id="SVGID_25_" gradientUnits="userSpaceOnUse" x1="-1108.7544" y1="641.75" x2="-1072.5044" y2="641.75"> <stop offset="0" style="stop-color:#E9E400"/> <stop offset="0.055" style="stop-color:#E9DE09"/> <stop offset="0.1466" style="stop-color:#E9CF23"/> <stop offset="0.2634" style="stop-color:#E9B64D"/> <stop offset="0.4009" style="stop-color:#EA9486"/> <stop offset="0.5539" style="stop-color:#EA68CF"/> <stop offset="0.6459" style="stop-color:#EA4CFE"/> <stop offset="0.9944" style="stop-color:#6C009A"/> </linearGradient> <path style="fill:url(#SVGID_25_);" d="M-1090.629,659.875c10.005,0,18.125-8.12,18.125-18.125s-8.12-18.125-18.125-18.125 s-18.125,8.12-18.125,18.125S-1100.634,659.875-1090.629,659.875z"/> <linearGradient id="SVGID_26_" gradientUnits="userSpaceOnUse" x1="-1181.2544" y1="641.75" x2="-1145.0044" y2="641.75"> <stop offset="0" style="stop-color:#E9E400"/> <stop offset="0.055" style="stop-color:#E9DE09"/> <stop offset="0.1466" style="stop-color:#E9CF23"/> <stop offset="0.2634" style="stop-color:#E9B64D"/> <stop offset="0.4009" style="stop-color:#EA9486"/> <stop offset="0.5539" style="stop-color:#EA68CF"/> <stop offset="0.6459" style="stop-color:#EA4CFE"/> <stop offset="0.9944" style="stop-color:#6C009A"/> </linearGradient> <path style="fill:url(#SVGID_26_);" d="M-1163.129,659.875c10.005,0,18.125-8.12,18.125-18.125s-8.12-18.125-18.125-18.125 s-18.125,8.12-18.125,18.125S-1173.134,659.875-1163.129,659.875z"/> <linearGradient id="SVGID_27_" gradientUnits="userSpaceOnUse" x1="-1253.7544" y1="641.75" x2="-1217.5044" y2="641.75"> <stop offset="0" style="stop-color:#E9E400"/> <stop offset="0.055" style="stop-color:#E9DE09"/> <stop offset="0.1466" style="stop-color:#E9CF23"/> <stop offset="0.2634" style="stop-color:#E9B64D"/> <stop offset="0.4009" style="stop-color:#EA9486"/> <stop offset="0.5539" style="stop-color:#EA68CF"/> <stop offset="0.6459" style="stop-color:#EA4CFE"/> <stop offset="0.9944" style="stop-color:#6C009A"/> </linearGradient> <path style="fill:url(#SVGID_27_);" d="M-1235.629,659.875c10.005,0,18.125-8.12,18.125-18.125s-8.12-18.125-18.125-18.125 s-18.125,8.12-18.125,18.125S-1245.634,659.875-1235.629,659.875z"/> <linearGradient id="SVGID_28_" gradientUnits="userSpaceOnUse" x1="-1373.3794" y1="986.125" x2="-445.3794" y2="986.125"> <stop offset="0" style="stop-color:#E9E400"/> <stop offset="0.055" style="stop-color:#E9DE09"/> <stop offset="0.1466" style="stop-color:#E9CF23"/> <stop offset="0.2634" style="stop-color:#E9B64D"/> <stop offset="0.4009" style="stop-color:#EA9486"/> <stop offset="0.5539" style="stop-color:#EA68CF"/> <stop offset="0.6459" style="stop-color:#EA4CFE"/> <stop offset="0.9944" style="stop-color:#6C009A"/> </linearGradient> <path style="fill:url(#SVGID_28_);" d="M-1319.004,1421.125c27.164,0,792.106,0,819.25,0c29.982,0,54.375-24.393,54.375-54.375 V605.5c0-29.982-24.393-54.375-54.375-54.375h-819.25c-29.982,0-54.375,24.393-54.375,54.375v761.25 C-1373.379,1396.732-1348.987,1421.125-1319.004,1421.125z M-1036.254,1258c0-69.959,56.916-126.875,126.875-126.875 s126.875,56.916,126.875,126.875s-56.916,126.875-126.875,126.875S-1036.254,1327.959-1036.254,1258z M-746.254,1258 c0-89.947-73.178-163.125-163.125-163.125s-163.125,73.178-163.125,163.125c0,51.194,23.711,96.945,60.721,126.875h-97.837 c-0.277-2.53-1.055-5.013-2.394-7.27c-11.241-18.955-19.745-39.46-25.279-60.943c-1.535-5.956-5.985-10.726-11.819-12.673 l-68.391-22.801v-46.375l68.391-22.801c5.834-1.947,10.284-6.717,11.819-12.673c5.534-21.485,14.04-41.988,25.279-60.943 c3.145-5.3,3.378-11.836,0.623-17.349l-32.259-64.532l32.785-32.784l64.532,32.259c5.512,2.757,12.046,2.521,17.342-0.618 c18.99-11.252,39.496-19.758,60.949-25.284c5.956-1.535,10.726-5.985,12.673-11.819l22.803-68.391h46.375l22.801,68.391 c1.947,5.834,6.717,10.284,12.673,11.819c21.453,5.526,41.959,14.032,60.949,25.284c5.3,3.139,11.834,3.375,17.342,0.618 l64.532-32.259l32.785,32.784l-32.259,64.532c-2.757,5.514-2.521,12.048,0.624,17.349c11.241,18.955,19.745,39.46,25.279,60.943 c1.535,5.956,5.985,10.726,11.819,12.673l68.393,22.801v46.375l-68.391,22.801c-5.834,1.947-10.284,6.717-11.819,12.673 c-5.534,21.485-14.04,41.988-25.279,60.943c-1.338,2.257-2.115,4.74-2.394,7.27h-97.837 C-769.966,1354.945-746.254,1309.194-746.254,1258z M-499.754,1384.875h-169.539c8.361-15.774,15.162-32.359,20.267-49.548 l71.632-23.881c7.4-2.467,12.392-9.394,12.392-17.195v-72.5c0-7.801-4.992-14.727-12.392-17.195l-71.632-23.881 c-5.378-18.101-12.611-35.545-21.594-52.066l33.778-67.57c3.487-6.978,2.119-15.404-3.397-20.92l-51.258-51.258 c-5.515-5.514-13.942-6.882-20.92-3.397l-67.574,33.78c-16.537-8.986-33.979-16.22-52.062-21.594l-23.881-71.632 c-2.469-7.4-9.394-12.392-17.195-12.392h-72.5c-7.801,0-14.727,4.992-17.195,12.392l-23.881,71.632 c-18.083,5.374-35.525,12.608-52.062,21.594l-67.574-33.78c-6.978-3.487-15.404-2.119-20.92,3.397l-51.257,51.258 c-5.516,5.516-6.884,13.944-3.397,20.92l33.778,67.57c-8.981,16.519-16.215,33.963-21.594,52.066l-71.632,23.881 c-7.399,2.469-12.39,9.394-12.39,17.195v72.5c0,7.801,4.992,14.727,12.392,17.195l71.632,23.881 c5.106,17.19,11.906,33.774,20.267,49.548h-169.541c-9.994,0-18.125-8.131-18.125-18.125V732.375h855.5v634.375 C-481.629,1376.744-489.76,1384.875-499.754,1384.875z M-1319.004,587.375h819.25c9.994,0,18.125,8.131,18.125,18.125v90.625 h-855.5V605.5C-1337.129,595.506-1328.999,587.375-1319.004,587.375z"/> <linearGradient id="SVGID_29_" gradientUnits="userSpaceOnUse" x1="-746.2544" y1="641.75" x2="-554.1294" y2="641.75"> <stop offset="0" style="stop-color:#E9E400"/> <stop offset="0.055" style="stop-color:#E9DE09"/> <stop offset="0.1466" style="stop-color:#E9CF23"/> <stop offset="0.2634" style="stop-color:#E9B64D"/> <stop offset="0.4009" style="stop-color:#EA9486"/> <stop offset="0.5539" style="stop-color:#EA68CF"/> <stop offset="0.6459" style="stop-color:#EA4CFE"/> <stop offset="0.9944" style="stop-color:#6C009A"/> </linearGradient> <path style="fill:url(#SVGID_29_);" d="M-728.129,659.875h155.875c10.01,0,18.125-8.115,18.125-18.125s-8.115-18.125-18.125-18.125 h-155.875c-10.01,0-18.125,8.115-18.125,18.125S-738.14,659.875-728.129,659.875z"/> <linearGradient id="SVGID_30_" gradientUnits="userSpaceOnUse" x1="-673.7544" y1="823" x2="-565.0044" y2="823"> <stop offset="0" style="stop-color:#E9E400"/> <stop offset="0.055" style="stop-color:#E9DE09"/> <stop offset="0.1466" style="stop-color:#E9CF23"/> <stop offset="0.2634" style="stop-color:#E9B64D"/> <stop offset="0.4009" style="stop-color:#EA9486"/> <stop offset="0.5539" style="stop-color:#EA68CF"/> <stop offset="0.6459" style="stop-color:#EA4CFE"/> <stop offset="0.9944" style="stop-color:#6C009A"/> </linearGradient> <path style="fill:url(#SVGID_30_);" d="M-583.129,804.875h-72.5c-10.01,0-18.125,8.115-18.125,18.125s8.115,18.125,18.125,18.125 h72.5c10.01,0,18.125-8.115,18.125-18.125S-573.119,804.875-583.129,804.875z"/> <linearGradient id="SVGID_31_" gradientUnits="userSpaceOnUse" x1="-818.7544" y1="823" x2="-710.0044" y2="823"> <stop offset="0" style="stop-color:#E9E400"/> <stop offset="0.055" style="stop-color:#E9DE09"/> <stop offset="0.1466" style="stop-color:#E9CF23"/> <stop offset="0.2634" style="stop-color:#E9B64D"/> <stop offset="0.4009" style="stop-color:#EA9486"/> <stop offset="0.5539" style="stop-color:#EA68CF"/> <stop offset="0.6459" style="stop-color:#EA4CFE"/> <stop offset="0.9944" style="stop-color:#6C009A"/> </linearGradient> <path style="fill:url(#SVGID_31_);" d="M-728.129,804.875h-72.5c-10.01,0-18.125,8.115-18.125,18.125s8.115,18.125,18.125,18.125 h72.5c10.01,0,18.125-8.115,18.125-18.125S-718.119,804.875-728.129,804.875z"/> <linearGradient id="SVGID_32_" gradientUnits="userSpaceOnUse" x1="-963.7544" y1="823" x2="-855.0044" y2="823"> <stop offset="0" style="stop-color:#E9E400"/> <stop offset="0.055" style="stop-color:#E9DE09"/> <stop offset="0.1466" style="stop-color:#E9CF23"/> <stop offset="0.2634" style="stop-color:#E9B64D"/> <stop offset="0.4009" style="stop-color:#EA9486"/> <stop offset="0.5539" style="stop-color:#EA68CF"/> <stop offset="0.6459" style="stop-color:#EA4CFE"/> <stop offset="0.9944" style="stop-color:#6C009A"/> </linearGradient> <path style="fill:url(#SVGID_32_);" d="M-873.129,804.875h-72.5c-10.01,0-18.125,8.115-18.125,18.125s8.115,18.125,18.125,18.125 h72.5c10.01,0,18.125-8.115,18.125-18.125S-863.119,804.875-873.129,804.875z"/> </g> <g> <g> <path d="M268.146,903.045V734.42L531.49,449.123c4.625-5.375,11.359-12.688,20.219-21.938c8.844-9.234,15-15.781,18.469-19.625 s8.078-9.047,13.859-15.594s9.625-11.938,11.563-16.172c1.922-4.234,3.844-8.859,5.766-13.859s2.891-10.203,2.891-15.594 c0-13.094-4.625-24.063-13.859-32.922c-9.25-8.844-22.719-13.281-40.422-13.281c-43.125,0-75.078,27.344-95.859,82 L250.834,271.264c26.938-63.906,66.781-112.422,119.531-145.531s111.453-49.672,176.141-49.672 c79.313,0,147.266,22.531,203.859,67.578s84.891,107.219,84.891,186.531c0,48.516-10.594,90.859-31.766,127.047 s-54.469,79.703-99.906,130.516l-82,91.25h231v224.063H268.146z"/> </g> <g> <linearGradient id="SVGID_33_" gradientUnits="userSpaceOnUse" x1="250.834" y1="489.5527" x2="852.584" y2="489.5527"> <stop offset="0" style="stop-color:#6C009A"/> <stop offset="0.0728" style="stop-color:#7506A1"/> <stop offset="0.1939" style="stop-color:#8F15B6"/> <stop offset="0.3483" style="stop-color:#B82ED7"/> <stop offset="0.5069" style="stop-color:#EA4CFE"/> <stop offset="0.9944" style="stop-color:#6C009A"/> </linearGradient> <path style="fill:url(#SVGID_33_);" d="M268.146,903.045V734.42L531.49,449.123c4.625-5.375,11.359-12.688,20.219-21.938 c8.844-9.234,15-15.781,18.469-19.625s8.078-9.047,13.859-15.594s9.625-11.938,11.563-16.172 c1.922-4.234,3.844-8.859,5.766-13.859s2.891-10.203,2.891-15.594c0-13.094-4.625-24.063-13.859-32.922 c-9.25-8.844-22.719-13.281-40.422-13.281c-43.125,0-75.078,27.344-95.859,82L250.834,271.264 c26.938-63.906,66.781-112.422,119.531-145.531s111.453-49.672,176.141-49.672c79.313,0,147.266,22.531,203.859,67.578 s84.891,107.219,84.891,186.531c0,48.516-10.594,90.859-31.766,127.047s-54.469,79.703-99.906,130.516l-82,91.25h231v224.063 H268.146z"/> </g> </g> <g> </g> <g> </g> <g> </g> <g> </g> <g> </g> <g> </g> <g> </g> <g> </g> <g> </g> <g> </g> <g> </g> <g> </g> <g> </g> <g> </g> <g> </g> </svg>