<svg xmlns="http://www.w3.org/2000/svg" viewBox="0 0 600 600"><script xmlns="" type="text/javascript" charset="utf-8" id="zm-extension"/><circle fill="#00D8FF" cx="299.5" cy="299.6" r="50.2"/><path fill="none" stroke="#00D8FF" stroke-width="24" stroke-miterlimit="10" d="M299.5 197.6c67.4 0 129.9 9.7 177.1 25.9 56.8 19.6 91.8 49.2 91.8 76.1 0 28-37 59.5-98.1 79.7-46.2 15.3-106.9 23.3-170.8 23.3-65.6 0-127.6-7.5-174.3-23.4-59-20.2-94.6-52.1-94.6-79.6 0-26.6 33.4-56 89.4-75.6 47.4-16.5 111.5-26.4 179.5-26.4z"/><path fill="none" stroke="#00D8FF" stroke-width="24" stroke-miterlimit="10" d="M210.7 248.9c33.6-58.3 73.3-107.7 110.9-140.5C367 69 410.2 53.5 433.4 66.9c24.2 14 33 61.8 20.1 124.8-9.8 47.6-33.2 104.2-65.2 159.6-32.7 56.8-70.3 106.8-107.4 139.3-47 41.1-92.4 55.9-116.2 42.2-23.1-13.3-31.9-56.9-20.8-115.2 9.4-49.3 32.9-109.8 66.8-168.7z"/><path fill="none" stroke="#00D8FF" stroke-width="24" stroke-miterlimit="10" d="M210.8 351.5c-33.7-58.3-56.7-117.3-66.3-166.3-11.5-59-3.4-104.1 19.9-117.6 24.2-14 70.1 2.2 118.1 44.9 36.4 32.3 73.7 80.8 105.7 136.2 32.8 56.7 57.5 114.2 67 162.6 12.1 61.2 2.3 108-21.5 121.7-23.1 13.3-65.2-.8-110.2-39.5-37.9-32.6-78.6-83.2-112.7-142z"/></svg>