<?xml version="1.0" encoding="UTF-8"?>
<!-- Generator: Adobe Illustrator 19.2.1, SVG Export Plug-In . SVG Version: 6.00 Build 0)  -->
<svg version="1.1" id="Layer_1" xmlns="http://www.w3.org/2000/svg" xmlns:xlink="http://www.w3.org/1999/xlink" x="0px" y="0px" viewBox="0 0 512 512" style="enable-background:new 0 0 512 512;" xml:space="preserve">
<style type="text/css">
	.st0{fill:#D43916;}
	.st1{fill:#FFFFFF;}
</style>
<circle class="st0" cx="256" cy="256" r="256"/>
<path class="st1" d="M341.6,152.3H170.4c-33.6,0-60.9,27.2-60.9,60.9v85.6c0,33.6,27.2,60.9,60.9,60.9h171.3  c33.6,0,60.9-27.2,60.9-60.9v-85.6C402.5,179.6,375.3,152.3,341.6,152.3L341.6,152.3z M300.5,260.2l-80.1,38.2  c-2.1,1-4.6-0.5-4.6-2.9v-78.8c0-2.4,2.5-4,4.7-2.9l80.1,40.6C302.9,255.6,302.9,259,300.5,260.2L300.5,260.2z"/>
</svg>