<?xml version="1.0" encoding="UTF-8"?>
<!DOCTYPE svg PUBLIC "-//W3C//DTD SVG 1.1//EN" "http://www.w3.org/Graphics/SVG/1.1/DTD/svg11.dtd">
<svg xmlns="http://www.w3.org/2000/svg"><defs><filter id="Adobe_OpacityMaskFilter" filterUnits="userSpaceOnUse" x="16" y="16" width="16" height="16"><feColorMatrix values="1 0 0 0 0 0 1 0 0 0 0 0 1 0 0 0 0 0 1 0"/></filter></defs><symbol id="arrow-back" viewBox="0 0 24 24"><path d="M0 0h24v24H0z" fill="none"/><path d="M20 11H7.83l5.59-5.59L12 4l-8 8 8 8 1.41-1.41L7.83 13H20v-2z"/></symbol><symbol id="award-wreaths" viewBox="0 0 27.5 81"><style>.st0{fill:#c90}</style><path class="st0" d="M22.2 5.9c-.9 1.8-2.4 2.7-4.1 3.4-.2.1-.4.3-.5.5-.6 1.4-1.3 2.9-1.9 4.3-.2.6-.4 1.1-.6 1.7.7-.8 1.3-1.7 2.1-2.5 1.2-1.4 2.6-2.4 4.5-2.7 1.9-.3 3.8-.2 5.8.3 0 .1.1.1.2.1-.5.7-.9 1.4-1.4 2.1-1 1.3-2.2 2.3-3.8 2.9-2.2.7-4.6.9-6.9.5-.2-.1-.4-.1-.6-.1-1.2 3.4-2.1 6.7-2.7 10.1.4-.6.8-1.4 1.2-2 1-1.7 2.2-3 4.1-3.6 1.5-.5 2.9-.7 4.5-.7.5 0 1 .1 1.6.1-.3.6-.5 1.2-.7 1.8-.7 1.6-1.6 2.9-3.1 3.8-1.8 1.2-3.7 1.7-5.8 1.9-.6.1-1.4.1-2 .2-.6 3.4-.9 6.9-1 10.4.1-.1.1-.3.2-.5.2-.7.5-1.3.8-2 .8-2 2.1-3.6 4.1-4.5 1.4-.6 2.9-1 4.3-1.2.3 0 .5-.1.8-.1v.3c-.3.2-.3.6-.4 1-.5 2-1.3 4-3 5.3-1.9 1.5-4 2.4-6.3 2.9-.3.1-.5.1-.8.1-.1 3.6.2 7.1.8 10.6.3-1.2.5-2.3.7-3.4.4-1.6 1.1-2.9 2.3-4 1.5-1.3 3.3-2.1 5.2-2.8.2 0 .4-.1.7-.2-.1 1-.1 1.9-.2 2.8-.2 1.6-.6 3.1-1.7 4.3-1.8 2-3.9 3.6-6.5 4.5-.1 0-.2.1-.3.1.6 3.3 1.5 6.5 2.7 9.5.1-.6 0-1.1 0-1.7 0-1.9.3-3.6 1.5-5.1.9-1.2 2.1-2.2 3.4-3 .7-.5 1.4-.8 2.1-1.2.1.3.1.6.2.8.4 2.3.4 4.6-.8 6.7-1 1.7-2.3 3.2-3.9 4.4-.6.5-1.2.8-1.8 1.2 1.2 3 2.5 5.8 4 8.6v-.4l-.3-2.4c-.1-1.4.1-2.8.8-4.1.8-1.5 1.9-2.8 3.2-3.9l1.5-1.2c.7 1.7 1.1 3.2 1.1 4.9 0 .9-.1 1.9-.4 2.8-1 2.4-2.5 4.6-4.5 6.4-.2.1-.2.3-.1.5 1.3 2.2 2.8 4.3 4.3 6.4 0 0-.3.6-2.2-.6-.4-.7-.9-1.3-1.3-2-.9-1.4-1.8-2.8-2.6-4.2-.2-.3-.4-.5-.8-.3-2.5.5-5 .5-7.4-.1-1.8-.5-3.2-1.6-4.3-2.9-.5-.6-1-1.3-1.4-1.9.2-.1.2-.2.2-.3.1-.1.1-.1.2-.1 2-.7 4-1 6.1-.8 2.1.1 3.8 1.1 5.2 2.5.3.3.6.6 1 .9 0-.1-.1-.2-.1-.3-1.3-2.6-2.5-5.3-3.4-8-.1-.3-.2-.3-.5-.3-2.5.2-4.8-.3-7.1-1.2-1.8-.8-3-2.1-3.9-3.7-.5-.7-.8-1.6-1.2-2.4.8 0 1.6-.1 2.3-.1 1.4-.1 2.8.1 4.2.5 1.9.6 3.2 1.7 4.3 3.2.3.3.5.6.7 1-.7-3-1.4-6.1-2.1-9.1-1.1-.3-2.3-.5-3.5-.9-1.8-.6-3.4-1.4-4.7-2.8C1.4 45.7.2 43 .1 41.4h.1c2.3-.1 4.7.3 6.8 1.6 1.3.8 2.1 2 2.8 3.4.2.3.3.6.5.9-.3-3-.4-6-.2-9-1.5-.5-2.9-1-4.2-1.9-1.8-1.2-3.4-2.7-4.1-4.9-.4-1.2-.6-2.4-.6-3.6v-.5c1.1.4 2.1.6 3.1 1 1.4.6 2.6 1.3 3.6 2.4.9 1 1.4 2.1 1.8 3.3.2.6.3 1.1.6 1.7 0-.2 0-.2.1-.4.2-2.9.6-5.8 1.2-8.6.1-.3 0-.5-.3-.6C8.9 25 7 23.4 5.6 21.3c-1-1.5-1.2-3.1-1.2-4.9 0-.7.1-1.3.2-2.1.9.5 1.7.8 2.4 1.2 1.6.9 2.9 2 3.8 3.6.7 1.2.9 2.6 1 4 0 .5 0 .9.1 1.3 0-.1.1-.2.1-.3.7-3 1.6-5.8 2.7-8.7.1-.3.1-.5-.2-.6-1.9-1.4-3.4-3.1-4.5-5.3-.7-1.8-.7-3.5-.3-5.3.1-.7.3-1.3.5-1.9 1.3.7 2.4 1.6 3.4 2.7 1.5 1.6 2.3 3.5 2.1 5.8 0 .8-.1 1.7-.2 2.7.1-.1.1-.2.1-.3.6-1.3 1.2-2.5 1.8-3.9.1-.2.1-.3.1-.5-.1-1.2 0-2.3.3-3.5.3-.8.6-1.8 1.2-2.4.8-.8 1.7-1.4 2.6-2 .5-.3 1-.6 1.6-.8.1 0 .1.1.2.1 0 .4-.1.8-.1 1.2 0 1.6-.4 3.2-1.1 4.5"/></symbol><symbol id="blue-arrow" viewBox="0 0 24 24"><path fill="#149ECC" fill-rule="evenodd" d="M12 4l-1.4 1.4 5.6 5.6H4v2h12.2l-5.6 5.6L12 20l8-8z"/></symbol><symbol id="blue-read-more-ico" viewBox="0 0 24 24"><path fill="#149ECC" fill-rule="evenodd" d="M10 6L8.6 7.4l4.6 4.6-4.6 4.6L10 18l6-6z"/></symbol><symbol id="calendar-icon" viewBox="0 0 7 7"><title>calendar-icon</title><path d="M2.625 3.208h-.583v.583h.583v-.583zm1.167 0h-.583v.583h.583v-.583zm1.166 0h-.583v.583h.583v-.583zM2.625 4.375h-.583v.583h.583v-.583zm1.167 0h-.583v.583h.583v-.583zm1.166 0h-.583v.583h.583v-.583zm.584-3.208H5.25V.584h-.583v.583H2.334V.584h-.583v.583h-.292a.58.58 0 0 0-.58.583L.876 5.833c0 .321.26.583.583.583h4.083a.584.584 0 0 0 .583-.583V1.75a.585.585 0 0 0-.583-.583zm0 4.666H1.459V2.625h4.083v3.208z"/></symbol><symbol id="carousel-control-arrow" viewBox="0 0 48 48"><style>.st0{filter:url(#Adobe_OpacityMaskFilter)}.st1{fill:#fff}.st2{mask:url(#b)}.st3{fill:#78bc1e}</style><mask maskUnits="userSpaceOnUse" x="16" y="16" width="16" height="16" id="b"><g class="st0"><circle id="a" class="st1" cx="24" cy="24" r="24"/></g></mask><g class="st2"><path class="st3" d="M24 16l-1.4 1.4 5.6 5.6H16v2h12.2l-5.6 5.6L24 32l8-8-8-8z"/></g></symbol><symbol id="chat-white" viewBox="0 0 24 24"><g fill="#FFF"><path d="M20 6v8a1 1 0 0 1-1 1h-7.359L7 19h7l6 4v-4h3a1 1 0 0 0 1-1V7a1 1 0 0 0-1-1h-3z"/><path d="M17 0H1a1 1 0 0 0-1 1v11a1 1 0 0 0 1 1h3v5.469L11 13h6a1 1 0 0 0 1-1V1a1 1 0 0 0-1-1z"/></g></symbol><symbol id="clock" viewBox="0 0 7 7"><title>clock</title><path d="M3.497.583C1.887.583.583 1.89.583 3.5s1.304 2.917 2.914 2.917c1.613 0 2.92-1.307 2.92-2.917S5.11.583 3.497.583zm.003 5.25a2.332 2.332 0 1 1-.001-4.665A2.332 2.332 0 0 1 3.5 5.833zm.146-3.791h-.438v1.75l1.531.919.219-.359-1.313-.779z"/></symbol><symbol id="closer" viewBox="0 0 15 15"><title>40B9510D-65E3-43D0-918D-EC5332751F0F</title><g fill="#4B545C" fill-rule="evenodd"><path d="M.076 1.414L1.49 0l13.435 13.435-1.414 1.415z"/><path d="M13.51 0l1.414 1.414L1.49 14.85.075 13.435z"/></g></symbol><symbol id="dark-more" viewBox="0 0 24 24"><path fill="#BBC4CD" fill-rule="evenodd" d="M6.5 9.9l1.4-1.4 4.6 4.6 4.6-4.6 1.4 1.4-6 6z"/></symbol><symbol id="done-ico-green" viewBox="0 0 24 24"><path d="M0 0h24v24H0z" fill="none"/><path d="M9 16.2L4.8 12l-1.4 1.4L9 19 21 7l-1.4-1.4L9 16.2z"/></symbol><symbol id="download" viewBox="0 0 14 17"><title>Shape</title><path d="M14 6h-4V0H4v6H0l7 7 7-7zM0 15v2h14v-2H0z" fill-rule="nonzero" fill="#78BC1E"/></symbol><symbol id="eglobal-ondark" viewBox="0 0 131 29"><g fill="none" fill-rule="evenodd"><path fill="#EE2E24" d="M41.287 10.106c-1.081-2.946-3.34-4.401-6.876-4.401-4.749 0-7.694 3.2-7.694 8.475 0 5.277 2.945 8.477 7.694 8.477 3.34 0 5.894-1.71 6.975-4.292h-5.404v-5.42h11.721v14.443H42.86v-2.985c-2.258 2.474-5.107 3.674-8.774 3.674-8.12 0-13.917-5.493-13.917-13.897C20.168 5.813 25.67.284 34.411.284c7.533 0 12.67 4.148 13.36 9.822h-6.484z"/><path fill="#9099A3" d="M21.117.974v5.42H5.96v4.745h12.574v5.42H5.959v5.406h15.158v5.42H0V.973zm28.389 26.414h5.5V.976h-5.5zm17.974-4.003c3.146 0 5.24-2.401 5.24-5.857 0-3.456-2.094-5.821-5.24-5.821-3.208 0-5.271 2.401-5.271 5.857 0 3.456 2.063 5.821 5.272 5.821m0-16.371c7.04 0 11.2 4.074 11.2 10.514 0 6.475-4.225 10.55-11.2 10.55-6.972 0-11.229-4.075-11.229-10.55 0-6.44 4.192-10.514 11.229-10.514m17.841 10.731c0 3.42 2.029 5.64 5.205 5.64 3.144 0 5.207-2.146 5.207-5.602 0-3.456-2.033-5.677-5.207-5.677-3.176 0-5.205 2.257-5.205 5.64zm0-7.784c1.342-1.636 3.406-2.547 6.186-2.547 6.025 0 10.184 4.183 10.184 10.331 0 6.078-4.125 10.333-10.085 10.333-2.716 0-4.747-.8-6.285-2.51v1.82h-5.5V.974h5.5V9.96zm27.677 8.949c-3.112.365-4.749.619-4.749 2.51 0 1.492 1.145 2.51 2.98 2.51 3.765 0 6.253-2.22 6.253-5.346v-.692c-1.146.692-2.651.8-4.484 1.019zm-9.332-4.692c0-4.658 3.439-7.204 10.05-7.204 4.782 0 9.135 1.2 9.135 7.422v9.786c0 1.345.166 2.22.82 2.728v.438h-6.059l-.26-2.149c-1.998 2.002-4.354 2.838-7.4 2.838-5.008 0-7.89-2.618-7.89-6.51 0-4.076 2.784-5.495 8.415-6.003 4.55-.4 7.005-.255 7.005-2.438 0-1.491-1.375-2.22-4.092-2.22-2.685 0-4.027.983-4.027 3.312h-5.697zm20.985 13.17h5.498V.976h-5.498z"/></g></symbol><symbol id="facebook" viewBox="0 0 24 24"><path d="M20 3H4c-.6 0-1 .4-1 1v16c0 .5.4 1 1 1h8.6v-7h-2.3v-2.7h2.3v-2c0-2.3 1.4-3.6 3.5-3.6 1 0 1.8.1 2.1.1v2.4h-1.4c-1.1 0-1.3.5-1.3 1.3v1.7h2.7l-.4 2.8h-2.3v7H20c.5 0 1-.4 1-1V4c0-.6-.4-1-1-1"/></symbol><symbol id="flag" viewBox="0 0 6 7"><title>flag</title><path d="M4.083.671L3.996.234C3.967.088 3.85.001 3.734.001H.263A.262.262 0 0 0 0 .264v6.475c0 .146.117.263.263.263h.35a.261.261 0 0 0 .262-.263V4.347c0-.146.117-.262.262-.262H3.12c.117 0 .233.087.262.204l.087.438a.28.28 0 0 0 .263.204h2.45a.262.262 0 0 0 .263-.262V1.14C6.416.994 6.299.877 6.153.877H4.315c-.117 0-.233-.087-.233-.204z"/></symbol><symbol id="forex4you-colored" viewBox="0 0 175 35"><title>logo/forex4you</title><g fill="none" fill-rule="evenodd"><path d="M110.837 3.22l-3.9-2.988-12.769 14.812h-.038v4.307h12.182v8.488h5.082V14.522h-10.113l9.556-11.301zm58.478 5.528v8.162c0 2.877-1.807 4.772-4.707 4.772-2.906 0-3.599-1.382-3.599-4.62V8.747h-5.084v8.944c0 4.858 1.607 7.859 7.05 7.859 2.508 0 4.565-1.113 6.34-3v2.43h5.085V8.748h-5.085zm-25.712 12.936c-2.953 0-4.864-1.952-4.864-4.803 0-2.85 1.91-4.834 4.864-4.834 2.906 0 4.841 1.956 4.841 4.799 0 2.851-1.935 4.838-4.84 4.838zm0-13.506c-6.494 0-10.37 3.358-10.37 8.668 0 5.343 3.937 8.705 10.37 8.705 6.443 0 10.343-3.362 10.343-8.705 0-5.31-3.84-8.668-10.343-8.668zm-15.228.57l-4.743 10.442-4.392-10.442h-5.654l6.985 14.762c.303.634.078.879.078 1.271-.496 1.077-3.982 7.921-3.982 7.921l4.725 2.074 12.576-26.028h-5.593z" fill="#78BC1E"/><path d="M85.828 16.838l6.982-8.099h-6.556l-3.362 4.322-3.2-4.322h-6.348l6.438 7.953-7.228 8.28h6.653l3.598-4.528 3.748 4.529h6.742l-7.467-8.135zm-22.274-5.309c2.353 0 3.928 1.262 4.111 3.272h-8.22c.175-2.01 1.747-3.272 4.109-3.272zm3.868 8.161c-.604 1.5-2.055 2.377-3.992 2.377-2.42 0-4.136-1.539-4.136-3.908h13.989v-.686c0-5.973-3.53-9.303-9.853-9.303-6.136 0-9.849 3.36-9.849 8.669 0 5.342 3.778 8.704 9.85 8.704 4.841 0 8.225-2.16 9.584-5.853h-5.593zm-20.696-8.82V8.743H41.65v16.231h5.076v-7.258c0-3.272 1.816-5.224 4.776-5.224.574 0 1.33.031 1.602.06V8.29c-.394-.061-1.055-.12-1.419-.12-1.842 0-3.445.904-4.96 2.7zM29.68 21.676c-2.964 0-4.868-1.95-4.868-4.804 0-2.849 1.904-4.832 4.868-4.832 2.902 0 4.835 1.956 4.835 4.798 0 2.852-1.933 4.838-4.835 4.838zm0-13.506c-6.504 0-10.37 3.36-10.37 8.668 0 5.343 3.931 8.705 10.37 8.705 6.438 0 10.336-3.362 10.336-8.705 0-5.309-3.833-8.668-10.336-8.668zM0 24.973h5.502v-8.73h12.092v-4.472H5.502V7.66H18.74V3.196H0v21.777z" fill="#FFF"/></g></symbol><symbol id="google-white" viewBox="0 0 162 48"><g fill="none" fill-rule="evenodd"><path stroke="#FFF" stroke-opacity=".4" d="M156.013 47.5H5.987C2.957 47.5.5 45.016.5 41.95V6.05C.5 2.984 2.958.5 5.987.5h150.026c1.454 0 2.85.584 3.878 1.624A5.582 5.582 0 0 1 161.5 6.05v35.973c-.036 3.034-2.483 5.477-5.487 5.477z"/><path d="M57.28 12.388a3.216 3.216 0 0 1-.884 2.391 3.587 3.587 0 0 1-2.643 1.052 3.659 3.659 0 0 1-2.642-1.064 3.587 3.587 0 0 1-1.088-2.654 3.587 3.587 0 0 1 1.076-2.667A3.587 3.587 0 0 1 53.74 8.37c.495.014.982.123 1.435.323.454.15.865.408 1.196.753l-.622.622a2.451 2.451 0 0 0-1.973-.837 2.762 2.762 0 0 0-1.96.79 2.714 2.714 0 0 0-.826 2.044 2.726 2.726 0 0 0 .825 2.056c.525.51 1.23.794 1.961.79a2.75 2.75 0 0 0 2.009-.79c.366-.39.578-.9.598-1.434H53.74v-.85h3.48c.04.181.06.366.06.55zm5.307-3.122h-3.276v2.224h2.954v.861H59.31v2.248h3.276v.873H58.39V8.369h4.196zm3.711 6.206h-.92V9.266h-2.009V8.37h4.938v.897h-2.009zm5.44 0V8.369h.921v7.103zm5.322 0h-.922V9.266H74.13V8.37h4.95v.897h-2.02zm11.582-.73a3.766 3.766 0 0 1-5.273 0 3.587 3.587 0 0 1-1.064-2.643 3.587 3.587 0 0 1 1.076-2.654 3.754 3.754 0 0 1 5.26 0 3.587 3.587 0 0 1 1.065 2.63 3.587 3.587 0 0 1-1.064 2.667zm-4.592-.598a2.786 2.786 0 0 0 3.91 0 2.774 2.774 0 0 0 .801-2.045 2.774 2.774 0 0 0-.8-2.044 2.786 2.786 0 0 0-3.91 0 2.774 2.774 0 0 0-.802 2.044c-.019.767.28 1.507.825 2.045h-.024zm6.819 1.328V8.369h1.124l3.49 5.524V8.37h.922v7.102h-.969l-3.67-5.8v5.801zM12.51 9.453a2.391 2.391 0 0 0-.55 1.662v26.209a2.391 2.391 0 0 0 .55 1.662l.084.083 14.85-14.682v-.323L12.594 9.369l-.084.084zm21.44 19.662L29 24.225v-.335L33.95 19l.108.06 5.858 3.3c1.674.932 1.674 2.475 0 3.42l-5.858 3.287-.108.048zm-.947.883L27.946 25 13 39.766c.708.61 1.745.64 2.487.072L32.99 30.01m-.03-11.406L15.442 8.776a1.973 1.973 0 0 0-2.487.072L27.89 23.614l5.07-5.01zm48.526 7.969a5.034 5.034 0 1 0 5.117 5.033 4.998 4.998 0 0 0-5.117-5.033zm0 8.094a3.06 3.06 0 1 1 2.881-3.049 2.93 2.93 0 0 1-2.881 3.05zM70.33 26.573a5.034 5.034 0 1 0 5.118 5.033 4.998 4.998 0 0 0-5.13-5.033h.012zm0 8.094a3.06 3.06 0 1 1 2.87-3.049 2.93 2.93 0 0 1-2.882 3.05h.012zm-13.283-6.54v2.14h5.177a4.424 4.424 0 0 1-1.196 2.69 5.345 5.345 0 0 1-3.993 1.567 5.691 5.691 0 0 1 0-11.37 5.524 5.524 0 0 1 3.897 1.53l1.53-1.53A7.592 7.592 0 0 0 57.036 21 7.987 7.987 0 0 0 49 28.833a7.987 7.987 0 0 0 8.035 7.831 7.281 7.281 0 0 0 5.524-2.2 7.628 7.628 0 0 0 1.757-6.337h-7.27zm54.294 1.65a4.783 4.783 0 0 0-4.364-3.204 4.783 4.783 0 0 0-4.783 5.033 4.962 4.962 0 0 0 5.058 5.034 5.07 5.07 0 0 0 4.244-2.236l-1.734-1.195a2.917 2.917 0 0 1-2.51 1.399 2.595 2.595 0 0 1-2.487-1.46l6.815-2.82-.24-.55zm-6.947 1.674a2.774 2.774 0 0 1 2.666-2.941 1.985 1.985 0 0 1 1.901 1.064l-4.567 1.877zm-5.548 4.854h2.236V21.54h-2.236v14.766zM95.2 27.697h-.072a3.587 3.587 0 0 0-2.678-1.124 5.046 5.046 0 0 0 0 10.08 3.503 3.503 0 0 0 2.678-1.197h.072v.718a2.595 2.595 0 0 1-2.726 2.965 2.822 2.822 0 0 1-2.571-1.793l-1.949.8a4.866 4.866 0 0 0 4.52 2.978c2.63 0 4.842-1.53 4.842-5.25v-8.99H95.2v.813zm-2.56 6.97a3.06 3.06 0 0 1 0-6.11 2.858 2.858 0 0 1 2.727 3.073 2.834 2.834 0 0 1-2.75 3.037h.024zm29.222-13.152h-5.392v14.79h2.236v-5.571h3.12a4.603 4.603 0 1 0 0-9.195l.036-.024zm0 7.174h-3.156v-5.093h3.18a2.54 2.54 0 0 1 0 5.081l-.024.012zm13.822-2.128a4.197 4.197 0 0 0-3.982 2.272l1.985.825a2.128 2.128 0 0 1 2.045-1.088 2.152 2.152 0 0 1 2.391 1.9v.156a4.962 4.962 0 0 0-2.391-.574c-2.14 0-4.316 1.196-4.316 3.336a3.443 3.443 0 0 0 3.718 3.264 3.168 3.168 0 0 0 2.858-1.447h.071v1.196h2.164V30.65c.036-2.63-1.984-4.101-4.52-4.101l-.023.012zm-.275 8.118c-.73 0-1.746-.358-1.746-1.195 0-1.196 1.268-1.59 2.392-1.59a4.053 4.053 0 0 1 2.044.502 2.702 2.702 0 0 1-2.654 2.271l-.036.012zm12.686-7.795l-2.57 6.42h-.073l-2.654-6.42h-2.391l3.993 8.967-2.272 4.986h2.392l6.145-13.965-2.57.012zm-20.111 9.421h2.236V21.54h-2.236v14.766z" fill="#FFF"/></g></symbol><symbol id="google" viewBox="0 0 24 24"><path d="M9.4 11.7h5.1c0 .3.1.6.1.9 0 3.1-2.1 5.4-5.2 5.4-3 0-5.4-2.5-5.4-5.5S6.4 7 9.4 7c1.5 0 2.7.5 3.6 1.4l-1.5 1.4c-.3-.3-1-.8-2.1-.8C7.6 9 6 10.6 6 12.5S7.6 16 9.4 16c2.1 0 2.9-1.6 3.1-2.4H9.4v-1.9zm11.6 0v1.6h-1.5v1.6H18v-1.6h-1.5v-1.6H18v-1.6h1.5v1.6H21z"/></symbol><symbol id="gray-phone" viewBox="0 0 24 24"><title>10203081-A9BE-4A1A-ADFA-9A905024655E</title><path d="M6.6 10.8c1.4 2.8 3.8 5.1 6.6 6.6l2.2-2.2c.3-.3.7-.4 1-.2 1.1.4 2.3.6 3.6.6.6 0 1 .4 1 1V20c0 .6-.4 1-1 1-9.4 0-17-7.6-17-17 0-.6.4-1 1-1h3.5c.6 0 1 .4 1 1 0 1.2.2 2.4.6 3.6.1.3 0 .7-.2 1l-2.3 2.2z" fill="#BBC4CD" fill-rule="evenodd"/></symbol><symbol id="green-arrow" viewBox="0 0 24 24"><path fill="#78bc1e" fill-rule="evenodd" d="M12 4l-1.4 1.4 5.6 5.6H4v2h12.2l-5.6 5.6L12 20l8-8z"/></symbol><symbol id="green-play" viewBox="0 0 64 64"><title>8F4182E0-492C-414B-BB75-026B940A6DA5</title><g stroke="#78BC1E" stroke-width="2" fill="none" fill-rule="evenodd" stroke-linecap="round" stroke-linejoin="round"><path d="M61 32c0 16.018-12.985 29-29 29C15.981 61 3 48.018 3 32 3 15.983 15.981 3 32 3c16.015 0 29 12.983 29 29z"/><path d="M23.174 43.348V20.653L45.87 32z"/></g></symbol><symbol id="ios-white" viewBox="0 0 160 48"><g fill="none" fill-rule="evenodd"><path stroke="#FFF" stroke-opacity=".4" d="M159.27 43.188c0 2.388-1.838 4.312-4.1 4.312H4.607C2.344 47.5.5 45.574.5 43.188V4.818C.5 2.43 2.346.5 4.607.5h150.561c2.261 0 4.101 1.929 4.101 4.318l.001 38.37z"/><path fill="#FFF" d="M35.203 24.096c.04 4.635 4.055 6.168 4.104 6.185-.024.108-.628 2.211-2.134 4.347-1.258 1.88-2.576 3.719-4.668 3.753-2.033.046-2.717-1.197-5.049-1.197-2.353 0-3.081 1.163-5.031 1.243-1.994.074-3.516-2.007-4.82-3.87C15 30.75 12.972 23.832 15.691 19.124c1.318-2.308 3.72-3.795 6.288-3.835 1.996-.04 3.848 1.348 5.074 1.348 1.202 0 3.492-1.661 5.852-1.413.988.03 3.798.39 5.612 3.034-.147.088-3.348 1.97-3.314 5.837zm-4.217-11.99c-1.094 1.292-2.845 2.28-4.55 2.152-.224-1.742.64-3.595 1.608-4.725 1.093-1.283 2.991-2.266 4.51-2.333.198 1.81-.52 3.595-1.568 4.907zM62.882 37.57h-2.725l-1.493-4.691h-5.189l-1.422 4.69H49.4L54.54 21.6h3.176l5.166 15.97zm-4.668-6.66l-1.35-4.17c-.143-.425-.41-1.428-.805-3.008h-.048c-.157.68-.41 1.683-.759 3.009l-1.326 4.17h4.288zm18.276.542c0 1.959-.53 3.507-1.588 4.643-.948 1.012-2.126 1.517-3.53 1.517-1.518 0-2.607-.545-3.27-1.634h-.049v6.066h-2.558V29.627a79.35 79.35 0 0 0-.095-3.79h2.25l.143 1.825h.048c.853-1.376 2.148-2.062 3.885-2.062 1.359 0 2.493.536 3.4 1.61.91 1.076 1.363 2.49 1.363 4.242zm-2.607.094c0-1.12-.252-2.045-.759-2.772-.553-.758-1.296-1.138-2.227-1.138-.631 0-1.205.212-1.717.628-.514.42-.85.968-1.007 1.648a3.35 3.35 0 0 0-.119.78v1.92c0 .837.257 1.544.77 2.121.514.577 1.182.865 2.002.865.964 0 1.714-.372 2.25-1.113.538-.743.807-1.722.807-2.939zm15.605-.094c0 1.959-.53 3.507-1.589 4.643-.947 1.012-2.124 1.517-3.529 1.517-1.517 0-2.606-.545-3.269-1.634h-.048v6.066h-2.558V29.627a79.35 79.35 0 0 0-.095-3.79h2.25l.143 1.825h.048c.852-1.376 2.147-2.062 3.885-2.062 1.358 0 2.492.536 3.401 1.61.906 1.076 1.361 2.49 1.361 4.242zm-2.606.094c0-1.12-.254-2.045-.76-2.772-.553-.758-1.294-1.138-2.226-1.138-.632 0-1.205.212-1.718.628-.514.42-.849.968-1.006 1.648a3.415 3.415 0 0 0-.119.78v1.92c0 .837.257 1.544.768 2.121.514.576 1.181.865 2.004.865.964 0 1.714-.372 2.25-1.113.538-.743.807-1.722.807-2.939zm17.425 1.779c0 1.359-.471 2.464-1.418 3.317-1.04.932-2.489 1.398-4.35 1.398-1.719 0-3.096-.331-4.139-.995l.593-2.132a7.013 7.013 0 0 0 3.698 1.02c.964 0 1.714-.219 2.253-.653.536-.434.804-1.018.804-1.745 0-.648-.221-1.194-.664-1.637-.44-.442-1.176-.854-2.203-1.234-2.796-1.043-4.193-2.57-4.193-4.58 0-1.312.49-2.389 1.47-3.226.977-.84 2.28-1.258 3.91-1.258 1.453 0 2.66.253 3.624.758l-.64 2.086c-.9-.49-1.918-.734-3.056-.734-.9 0-1.604.222-2.108.663-.426.395-.64.876-.64 1.446 0 .631.244 1.153.734 1.564.426.379 1.2.79 2.323 1.232 1.374.553 2.383 1.2 3.033 1.942.646.739.97 1.664.97 2.768zm9.106-4.935h-2.82v5.59c0 1.422.497 2.132 1.493 2.132.457 0 .836-.04 1.136-.118l.07 1.942c-.503.189-1.167.284-1.989.284-1.01 0-1.8-.309-2.37-.924-.567-.617-.853-1.652-.853-3.105v-5.804h-1.68v-1.92h1.68v-2.109l2.513-.758v2.867h2.82v1.922zm12.266 3.108c0 1.77-.507 3.223-1.517 4.36-1.06 1.17-2.466 1.753-4.22 1.753-1.689 0-3.034-.56-4.037-1.681-1.003-1.121-1.505-2.536-1.505-4.241 0-1.785.516-3.246 1.552-4.383 1.033-1.137 2.427-1.706 4.18-1.706 1.69 0 3.05.56 4.076 1.682.981 1.089 1.47 2.494 1.47 4.216zm-2.655.083c0-1.062-.226-1.973-.686-2.733-.536-.919-1.303-1.377-2.297-1.377-1.028 0-1.81.46-2.346 1.377-.46.761-.686 1.686-.686 2.78 0 1.063.227 1.974.686 2.732.553.92 1.326 1.378 2.323 1.378.977 0 1.744-.468 2.297-1.402.472-.774.71-1.694.71-2.755zm11.536-3.495a4.442 4.442 0 0 0-.806-.07c-.9 0-1.596.34-2.085 1.02-.426.6-.64 1.358-.64 2.274v6.042h-2.557l.024-7.89c0-1.326-.032-2.535-.096-3.624h2.228l.094 2.203h.07c.27-.757.697-1.367 1.28-1.824.57-.412 1.186-.617 1.85-.617.236 0 .45.017.639.047v2.44zm11.074 2.984a6 6 0 0 1-.094 1.161h-7.675c.03 1.138.4 2.008 1.113 2.608.647.536 1.484.805 2.51.805 1.137 0 2.174-.181 3.106-.545l.401 1.776c-1.09.475-2.376.712-3.86.712-1.786 0-3.187-.526-4.207-1.576-1.018-1.05-1.528-2.46-1.528-4.229 0-1.736.474-3.182 1.423-4.335.994-1.231 2.337-1.847 4.026-1.847 1.66 0 2.916.616 3.77 1.847.675.978 1.015 2.187 1.015 3.624zm-2.44-.663c.017-.758-.15-1.413-.497-1.967-.443-.711-1.123-1.066-2.039-1.066-.836 0-1.516.346-2.036 1.042-.426.554-.68 1.217-.757 1.99h5.329v.001zM58.049 11.996c0 1.412-.424 2.475-1.27 3.19-.783.658-1.897.988-3.34.988-.715 0-1.327-.031-1.839-.094V8.363a13.575 13.575 0 0 1 2.166-.163c1.374 0 2.41.299 3.108.896.782.676 1.175 1.642 1.175 2.9zm-1.326.034c0-.915-.243-1.617-.727-2.107-.485-.488-1.193-.733-2.126-.733-.396 0-.733.026-1.012.082v5.866c.154.024.438.035.85.035.962 0 1.704-.267 2.228-.803.523-.535.787-1.315.787-2.34zm8.417 1.067c0 .87-.248 1.583-.745 2.142-.52.575-1.21.861-2.072.861-.83 0-1.492-.274-1.985-.826-.492-.551-.738-1.246-.738-2.084 0-.876.253-1.594.762-2.152s1.193-.838 2.054-.838c.83 0 1.498.275 2.003.826.48.535.721 1.226.721 2.07zm-1.304.04c0-.521-.113-.969-.337-1.342-.264-.451-.64-.677-1.128-.677-.505 0-.89.226-1.153.677-.226.373-.338.828-.338 1.365 0 .522.113.97.338 1.343.272.451.651.677 1.14.677.48 0 .858-.23 1.129-.689.233-.38.349-.831.349-1.353zm10.96-2.937l-1.77 5.657h-1.152l-.733-2.457a18.384 18.384 0 0 1-.455-1.827h-.023c-.109.621-.26 1.23-.455 1.827l-.778 2.457h-1.166L66.6 10.2h1.292l.64 2.69c.155.635.282 1.241.384 1.815h.023c.093-.473.248-1.075.467-1.804l.802-2.7h1.025l.77 2.643c.185.644.337 1.264.453 1.862h.035c.085-.582.213-1.202.384-1.862l.686-2.643h1.235V10.2zm5.762 5.776h-1.257v-3.24c0-.999-.38-1.498-1.14-1.498-.373 0-.675.137-.909.412a1.46 1.46 0 0 0-.349.97v3.354h-1.257v-4.039c0-.497-.016-1.035-.046-1.619h1.105l.059.885h.035c.146-.275.365-.502.651-.683a2.13 2.13 0 0 1 1.14-.318c.528 0 .968.17 1.317.512.434.42.651 1.044.651 1.875v3.389zm3.298.476H82.6V8.2h1.256zm8.284-3.355c0 .87-.248 1.583-.745 2.142-.52.575-1.212.861-2.072.861-.832 0-1.493-.274-1.985-.826-.492-.551-.738-1.246-.738-2.084 0-.876.253-1.594.762-2.152s1.193-.838 2.053-.838c.832 0 1.498.275 2.004.826.48.535.721 1.226.721 2.07zm-1.305.04c0-.521-.113-.969-.337-1.342-.263-.451-.64-.677-1.127-.677-.507 0-.89.226-1.153.677-.226.373-.338.828-.338 1.365 0 .522.113.97.338 1.343.272.451.651.677 1.14.677.48 0 .856-.23 1.128-.689.234-.38.349-.831.349-1.353zm7.409 2.835h-1.13l-.093-.652h-.035c-.386.52-.937.78-1.652.78-.534 0-.966-.171-1.291-.512-.295-.31-.443-.695-.443-1.152 0-.691.288-1.218.868-1.583.578-.365 1.392-.543 2.44-.535v-.106c0-.745-.392-1.117-1.176-1.117-.558 0-1.05.14-1.474.419l-.256-.826c.526-.325 1.175-.488 1.94-.488 1.479 0 2.22.78 2.22 2.34v2.083c0 .565.028 1.015.082 1.349zm-1.306-1.944v-.872c-1.387-.024-2.08.356-2.08 1.14 0 .295.079.516.24.663a.88.88 0 0 0 .615.221c.276 0 .534-.088.77-.262a1.071 1.071 0 0 0 .455-.89zM105 16.452h-1.116l-.059-.908h-.035c-.356.691-.963 1.037-1.816 1.037-.682 0-1.25-.268-1.7-.803-.45-.535-.674-1.23-.674-2.083 0-.916.244-1.657.733-2.224.474-.528 1.055-.792 1.746-.792.76 0 1.291.256 1.594.768h.024V8.2h1.259v6.728c0 .551.014 1.059.044 1.524zm-1.303-2.385v-.943a1.432 1.432 0 0 0-.49-1.158 1.236 1.236 0 0 0-.841-.309c-.47 0-.836.186-1.106.56-.268.373-.404.849-.404 1.431 0 .56.129 1.013.387 1.362.272.372.64.558 1.099.558.413 0 .743-.155.994-.466a1.55 1.55 0 0 0 .36-1.035zm12.443-.97c0 .87-.248 1.583-.745 2.142-.52.575-1.21.861-2.072.861-.83 0-1.49-.274-1.985-.826-.492-.551-.738-1.246-.738-2.084 0-.876.253-1.594.762-2.152s1.193-.838 2.056-.838c.829 0 1.497.275 2.001.826.48.535.721 1.226.721 2.07zm-1.303.04c0-.521-.113-.969-.337-1.342-.265-.451-.64-.677-1.13-.677-.503 0-.887.226-1.152.677-.226.373-.338.828-.338 1.365 0 .522.113.97.338 1.343.272.451.651.677 1.14.677.48 0 .859-.23 1.13-.689.232-.38.35-.831.35-1.353zm7.72 2.839h-1.256v-3.24c0-.999-.38-1.498-1.141-1.498a1.13 1.13 0 0 0-.908.412 1.456 1.456 0 0 0-.349.97v3.354h-1.259v-4.039c0-.497-.014-1.035-.044-1.619h1.104l.059.885h.035c.147-.275.366-.502.651-.683a2.13 2.13 0 0 1 1.141-.318c.527 0 .966.17 1.316.512.435.42.651 1.044.651 1.875v3.389zm8.488-4.426h-1.385v2.75c0 .698.246 1.047.734 1.047.225 0 .412-.019.56-.058l.032.954c-.248.093-.574.14-.976.14-.497 0-.884-.151-1.163-.454-.281-.302-.42-.81-.42-1.525v-2.852h-.827v-.942h.827V9.572l1.232-.372v1.408h1.385v.943h.001zm6.468 4.902h-1.259v-3.216c0-1.014-.38-1.521-1.139-1.521-.583 0-.981.294-1.2.882a1.58 1.58 0 0 0-.059.452v3.402H132.6V8.2h1.256v3.41h.024c.396-.621.964-.93 1.7-.93.52 0 .951.17 1.293.512.426.426.64 1.06.64 1.897v3.363zm7.117-3.565c0 .225-.018.415-.048.57h-3.771c.017.559.197.985.546 1.28.319.264.73.396 1.235.396.558 0 1.066-.089 1.525-.267l.197.873c-.537.233-1.168.35-1.899.35-.876 0-1.566-.259-2.065-.775-.502-.516-.75-1.208-.75-2.077 0-.853.232-1.563.698-2.13.488-.605 1.146-.907 1.978-.907.814 0 1.432.302 1.85.907.336.48.503 1.074.503 1.78zm-1.2-.325a1.693 1.693 0 0 0-.244-.966c-.219-.35-.551-.525-1.001-.525-.41 0-.745.17-1.001.513a1.904 1.904 0 0 0-.373.978h2.618z"/></g></symbol><symbol id="location" viewBox="0 0 24 24"><title>CE7E74A7-E633-4637-80B7-792925B90F7D</title><g fill="none" fill-rule="evenodd"><path d="M12 2C8.13 2 5 5.13 5 9c0 5.25 7 13 7 13s7-7.75 7-13c0-3.87-3.13-7-7-7zm0 9.5a2.5 2.5 0 0 1 0-5 2.5 2.5 0 0 1 0 5z" fill="#BBC4CD" fill-rule="nonzero"/><path d="M0 0h24v24H0z"/></g></symbol><symbol id="long-arrow-pointing-down" viewBox="0 0 493.356 493.355"><path d="M355.457 370.873c-1.523-3.614-4.288-5.428-8.285-5.428h-63.954V9.135c0-2.666-.858-4.856-2.569-6.567C278.944.855 276.753 0 274.084 0h-54.818c-2.667 0-4.854.855-6.567 2.568-1.711 1.711-2.57 3.901-2.57 6.567v356.314h-63.953c-3.806 0-6.567 1.81-8.28 5.428-1.521 3.613-1.043 6.943 1.431 9.996L240.68 490.505c1.903 1.902 4.187 2.851 6.854 2.851 2.478 0 4.665-.948 6.567-2.851l99.927-109.632c2.475-3.053 2.955-6.383 1.429-10z" fill="#c7245a"/></symbol><symbol id="long-arrow-pointing-up" viewBox="0 0 493.348 493.349"><path d="M354.034 112.488L252.676 2.853C250.771.95 248.487 0 245.82 0c-2.478 0-4.665.95-6.567 2.853l-99.927 109.636c-2.475 3.049-2.952 6.377-1.431 9.994 1.524 3.616 4.283 5.424 8.28 5.424h63.954v356.315c0 2.663.855 4.853 2.57 6.564 1.713 1.707 3.899 2.562 6.567 2.562h54.816c2.669 0 4.859-.855 6.563-2.562 1.711-1.712 2.573-3.901 2.573-6.564V127.907h63.954c3.806 0 6.563-1.809 8.274-5.424 1.53-3.621 1.052-6.949-1.412-9.995z" fill="#68a31a"/></symbol><symbol id="marker" viewBox="0 0 7 7"><title>marker</title><path d="M3.5.583a2.04 2.04 0 0 0-2.042 2.042c0 1.531 2.042 3.792 2.042 3.792s2.042-2.26 2.042-3.792A2.04 2.04 0 0 0 3.5.583zm0 2.771a.73.73 0 1 1 .002-1.46.73.73 0 0 1-.002 1.46z"/></symbol><symbol id="money-group" viewBox="0 0 64 64"><title>9455ADBC-5892-4565-89F3-03AD7513DBFF</title><g stroke="#78BC1E" stroke-width="2" fill="none" fill-rule="evenodd" stroke-linejoin="round"><path stroke-linecap="round" d="M61 24L46 34H33m28-4L46 40H33m28-5L46 45H33"/><path stroke-linecap="round" d="M33 47H15V27l15-10h18L33 27zM15 33H3m12 4H3m12 4H3m12 4H3"/><path d="M45 19h16L46 29H33m-18 0H3l15-10h9"/><path d="M24 41v2m0-16v2m-3.001 9a3 3 0 1 0 3-3H24a3 3 0 1 1 0-6 3 3 0 0 1 3 3" stroke-linecap="round"/></g></symbol><symbol id="phone" viewBox="0 0 1792 1792"><path d="M1600 1240q0 27-10 70.5t-21 68.5q-21 50-122 106-94 51-186 51-27 0-53-3.5t-57.5-12.5-47-14.5-55.5-20.5-49-18q-98-35-175-83-127-79-264-216T344 904q-48-77-83-175-3-9-18-49t-20.5-55.5-14.5-47-12.5-57.5-3.5-53q0-92 51-186 56-101 106-122 25-11 68.5-21t70.5-10q14 0 21 3 18 6 53 76 11 19 30 54t35 63.5 31 53.5q3 4 17.5 25t21.5 35.5 7 28.5q0 20-28.5 50t-62 55-62 53-28.5 46q0 9 5 22.5t8.5 20.5 14 24 11.5 19q76 137 174 235t235 174q2 1 19 11.5t24 14 20.5 8.5 22.5 5q18 0 46-28.5t53-62 55-62 50-28.5q14 0 28.5 7t35.5 21.5 25 17.5q25 15 53.5 31t63.5 35 54 30q70 35 76 53 3 7 3 21z"/></symbol><symbol id="planet" viewBox="0 0 7 7"><title>planet</title><path d="M3.497.583C1.887.583.583 1.89.583 3.5s1.304 2.917 2.914 2.917c1.613 0 2.92-1.307 2.92-2.917S5.11.583 3.497.583zm2.021 1.75h-.86a4.524 4.524 0 0 0-.402-1.038c.537.184.983.557 1.263 1.038zM3.5 1.178a4.1 4.1 0 0 1 .557 1.155H2.943A4.1 4.1 0 0 1 3.5 1.178zM1.242 4.083c-.047-.187-.076-.382-.076-.583s.029-.397.076-.583h.986c-.023.192-.041.385-.041.583s.018.391.041.583h-.986zm.24.584h.86c.093.365.227.715.402 1.038a2.33 2.33 0 0 1-1.263-1.038zm.86-2.334h-.86c.28-.484.726-.855 1.263-1.038a4.56 4.56 0 0 0-.402 1.038zM3.5 5.822a4.1 4.1 0 0 1-.557-1.155h1.114A4.1 4.1 0 0 1 3.5 5.822zm.683-1.739H2.818c-.026-.192-.047-.385-.047-.583s.02-.394.047-.583h1.365c.026.19.047.385.047.583s-.02.391-.047.583zm.072 1.622a4.56 4.56 0 0 0 .402-1.038h.86c-.28.481-.726.855-1.263 1.038zm.517-1.622c.023-.192.041-.385.041-.583s-.018-.391-.041-.583h.986c.047.187.076.382.076.583s-.029.397-.076.583h-.986z"/></symbol><symbol id="play-button" viewBox="0 0 64 64"><g fill="none" fill-rule="evenodd"><path stroke="#FFF" stroke-linecap="round" stroke-linejoin="round" stroke-width="2" d="M61 32c0 16.018-12.985 29-29 29C15.981 61 3 48.018 3 32 3 15.983 15.981 3 32 3c16.015 0 29 12.983 29 29z"/><path fill="#FFF" d="M24.955 42.457c-.984.492-1.781.001-1.781-1.103V22.647c0-1.101.808-1.59 1.78-1.104L44.09 31.11c.983.492.973 1.295 0 1.781l-19.134 9.567z"/></g></symbol><symbol id="quotemark" viewBox="0 0 32 32"><path fill="#BBC4CD" fill-rule="evenodd" d="M7.639 13.152c.711-2.773 2.596-3.876 4.765-4.516.213-.071.178-.284.178-.284l-.32-2.205s-.036-.178-.32-.142C4.332 6.823-.788 12.619.1 19.66c.925 4.907 4.765 6.792 8.25 6.294 3.52-.57 5.939-3.84 5.37-7.361a6.346 6.346 0 0 0-6.081-5.44m24.287 5.44c-.462-3.094-3.093-5.299-6.08-5.44.746-2.774 2.56-3.877 4.765-4.517.213-.071.177-.284.177-.284l-.355-2.205s-.036-.178-.32-.142c-7.61.853-12.766 6.65-11.806 13.69.889 4.872 4.694 6.757 8.214 6.259 3.52-.57 5.939-3.84 5.405-7.361"/></symbol><symbol id="record" viewBox="0 0 24 24"><title>DABA572C-C7DA-4DF7-8175-64B676E8E834</title><path d="M18 3v2h-2V3H8v2H6V3H4v18h2v-2h2v2h8v-2h2v2h2V3h-2zM8 17H6v-2h2v2zm0-4H6v-2h2v2zm0-4H6V7h2v2zm10 8h-2v-2h2v2zm0-4h-2v-2h2v2zm0-4h-2V7h2v2z" fill="#BBC4CD"/></symbol><symbol id="search" viewBox="0 0 24 24"><path d="M15.5 14h-.79l-.28-.27A6.471 6.471 0 0 0 16 9.5 6.5 6.5 0 1 0 9.5 16c1.61 0 3.09-.59 4.23-1.57l.27.28v.79l5 4.99L20.49 19l-4.99-5zm-6 0C7.01 14 5 11.99 5 9.5S7.01 5 9.5 5 14 7.01 14 9.5 11.99 14 9.5 14z"/><path d="M0 0h24v24H0z" fill="none"/></symbol><symbol id="telephone" viewBox="0 0 24 24"><title>C02CF142-769F-4A74-B6A3-2244C4ED04F3</title><path d="M17.872 22.496c.627.09 1.655.292 3.146-1.2 1.746-1.745 1.922-2.662.96-3.623-.96-.961-3.347-2.415-3.996-2.79-.65-.375-1.201-.254-1.67.072-.467.326-1.007.74-1.507 1.103-.5.362-1.125.515-1.796.09-.671-.426-1.806-1.223-3.091-2.507-1.285-1.285-2.082-2.42-2.507-3.091-.425-.671-.272-1.296.09-1.796s.777-1.04 1.103-1.508c.326-.468.446-1.02.072-1.67-.375-.648-1.83-3.035-2.79-3.996-.961-.961-1.878-.785-3.624.96C.77 4.033.972 5.06 1.062 5.688c.09.627 1.604 5.136 6.639 10.17 5.035 5.036 9.544 6.55 10.17 6.639z" stroke-width="1.2" stroke="#A8D41B" fill="none" fill-rule="evenodd"/></symbol><symbol id="twitter" viewBox="0 0 24 24"><path d="M21 6.7c-.7.3-1.4.5-2.1.6.8-.5 1.3-1.2 1.6-2-.7.4-1.5.7-2.3.9-1.4-1.5-3.7-1.6-5.2-.2-1 .9-1.4 2.3-1.1 3.5-3-.1-5.8-1.5-7.6-3.8-1 1.7-.5 3.8 1.1 4.9-.6 0-1.2-.2-1.7-.5 0 1.8 1.2 3.3 3 3.6-.6.3-1.1.3-1.7.2.5 1.5 1.9 2.5 3.4 2.6C6.9 17.7 5 18.2 3 18c1.7 1.1 3.7 1.7 5.7 1.7 6.8 0 10.5-5.6 10.5-10.5v-.5c.7-.6 1.3-1.2 1.8-2"/></symbol><symbol id="venue" viewBox="0 0 7 7"><title>venue</title><path d="M3.5 2.042V.875H.583v5.25h5.833V2.042H3.499zm-1.75 3.5h-.583v-.583h.583v.583zm0-1.167h-.583v-.583h.583v.583zm0-1.167h-.583v-.583h.583v.583zm0-1.166h-.583v-.583h.583v.583zm1.167 3.5h-.583v-.583h.583v.583zm0-1.167h-.583v-.583h.583v.583zm0-1.167h-.583v-.583h.583v.583zm0-1.166h-.583v-.583h.583v.583zm2.916 3.5H3.5v-.583h.583v-.583H3.5v-.583h.583V3.21H3.5v-.583h2.333v2.917zM5.25 3.208h-.583v.583h.583v-.583zm0 1.167h-.583v.583h.583v-.583z"/></symbol><symbol id="white-arrow" viewBox="0 0 24 24"><path fill-rule="evenodd" d="M12 4l-1.4 1.4 5.6 5.6H4v2h12.2l-5.6 5.6L12 20l8-8z"/></symbol><symbol id="white-call" viewBox="0 0 24 24"><g fill="#FFF" fill-rule="evenodd"><path d="M4.6 12.8c1.4 2.8 3.8 5.1 6.6 6.6l2.2-2.2c.3-.3.7-.4 1-.2 1.1.4 2.3.6 3.6.6.6 0 1 .4 1 1V22c0 .6-.4 1-1 1C8.6 23 1 15.4 1 6c0-.6.4-1 1-1h3.5c.6 0 1 .4 1 1 0 1.2.2 2.4.6 3.6.1.3 0 .7-.2 1l-2.3 2.2z"/><path fill-rule="nonzero" d="M23 11h-2c0-4.411-3.589-8-8-8V1c5.514 0 10 4.486 10 10z"/><path fill-rule="nonzero" d="M19 11h-2c0-2.206-1.794-4-4-4V5c3.309 0 6 2.691 6 6z"/></g></symbol></svg>