<svg width="27" height="27" viewBox="0 0 27 27" fill="none" xmlns="http://www.w3.org/2000/svg">
<path d="M13.5 26.5C20.6797 26.5 26.5 20.6797 26.5 13.5C26.5 6.3203 20.6797 0.5 13.5 0.5C6.3203 0.5 0.5 6.3203 0.5 13.5C0.5 20.6797 6.3203 26.5 13.5 26.5Z" stroke="#111111"/>
<path d="M13.5 26.5C16.2614 26.5 18.5 20.6797 18.5 13.5C18.5 6.3203 16.2614 0.5 13.5 0.5C10.7386 0.5 8.5 6.3203 8.5 13.5C8.5 20.6797 10.7386 26.5 13.5 26.5Z" stroke="#111111"/>
<path d="M1.5 8H25.5" stroke="#111111"/>
<path d="M1.5 19H25.5" stroke="#111111"/>
</svg>
