<svg width="258" height="61" viewBox="0 0 258 61" fill="none" xmlns="http://www.w3.org/2000/svg">
<path d="M27.9707 60.3897L63.1541 0.576431L73.4145 16.8521L83.4378 0L88.9574 9.32463L73.3806 35.9761L63.425 19.1918L39.1454 60.3897H27.9707Z" fill="white"/>
<path d="M60.9867 0.576416L25.8034 60.3897L15.543 44.1479L5.51962 61L0 51.6754L15.5768 25.0239L25.5325 41.7743L49.812 0.576416H60.9867Z" fill="#F6C01E"/>
<path d="M105.532 49.0951H97.8115V20.0701H114.946V26.3769H105.532V31.9039H114.235V38.2107H105.532V49.0951Z" fill="white"/>
<path d="M146.676 49.0951H137.6L131.945 40.0078L126.358 49.0951H117.486L127.103 34.2435L118.062 20.0701H126.764L132.013 29.0556L137.058 20.0701H145.964L136.788 34.8877L146.676 49.0951Z" fill="white"/>
<path d="M150.197 20.0701H160.322C164.25 20.0701 167.196 20.6465 169.093 21.8333C170.989 23.02 171.971 24.8172 171.971 27.2924C171.971 28.92 171.565 30.3102 170.718 31.4631C169.871 32.6159 168.788 33.3619 167.433 33.701V33.9044C169.228 34.3791 170.549 35.1929 171.328 36.278C172.14 37.3969 172.547 38.821 172.547 40.6182C172.547 43.263 171.565 45.3313 169.567 46.8572C167.603 48.383 164.894 49.129 161.474 49.129H150.197V20.0701ZM158.02 31.1918H160.39C161.507 31.1918 162.388 30.9544 162.997 30.4797C163.607 30.005 163.912 29.3269 163.912 28.4114C163.912 26.7838 162.693 25.97 160.221 25.97H158.02V31.1918ZM158.02 36.9561V43.0595H160.762C163.201 43.0595 164.42 42.0423 164.42 39.9739C164.42 38.9906 164.081 38.2785 163.438 37.736C162.794 37.1935 161.846 36.9561 160.593 36.9561H158.02Z" fill="white"/>
<path d="M177.693 49.0951V20.0701H185.516V42.7882H196.69V49.129H177.693V49.0951Z" fill="white"/>
<path d="M226.81 34.5485C226.81 39.4313 225.625 43.1611 223.221 45.7042C220.817 48.2473 217.329 49.5358 212.69 49.5358C208.152 49.5358 204.664 48.2473 202.226 45.7042C199.788 43.1611 198.569 39.4313 198.569 34.5485C198.569 29.6997 199.788 26.0377 202.192 23.4607C204.596 20.9176 208.118 19.6292 212.723 19.6292C217.329 19.6292 220.851 20.8837 223.221 23.4268C225.625 25.936 226.81 29.6319 226.81 34.5485ZM206.865 34.5485C206.865 40.1772 208.829 42.9577 212.723 42.9577C214.721 42.9577 216.177 42.2795 217.126 40.9232C218.074 39.5669 218.548 37.4307 218.548 34.5485C218.548 31.6325 218.074 29.4963 217.092 28.1061C216.11 26.7159 214.654 26.0377 212.723 26.0377C208.829 26.0377 206.865 28.886 206.865 34.5485Z" fill="white"/>
<path d="M242.505 32.107H255.034V47.7724C251.648 48.9252 247.889 49.5356 243.825 49.5356C239.355 49.5356 235.901 48.2471 233.463 45.6362C231.025 43.0253 229.806 39.3293 229.806 34.5144C229.806 29.8352 231.127 26.1731 233.802 23.5622C236.477 20.9513 240.202 19.6628 245.044 19.6628C246.873 19.6628 248.6 19.8324 250.225 20.1715C251.851 20.5105 253.273 20.9513 254.458 21.4939L251.986 27.6651C249.887 26.6478 247.618 26.1053 245.112 26.1053C242.809 26.1053 241.049 26.8513 239.796 28.3432C238.543 29.8352 237.933 31.9713 237.933 34.7179C237.933 37.4305 238.509 39.4989 239.626 40.923C240.744 42.3471 242.403 43.0592 244.503 43.0592C245.654 43.0592 246.738 42.9575 247.72 42.7201V38.1426H242.505V32.107Z" fill="white"/>
</svg>
