<svg width="258" height="61" viewBox="0 0 258 61" fill="none" xmlns="http://www.w3.org/2000/svg">
<path d="M27.9707 60.3897L63.1541 0.576431L73.4145 16.8521L83.4378 0L88.9574 9.32463L73.3806 35.9761L63.425 19.1918L39.1454 60.3897H27.9707Z" fill="#111111"/>
<path d="M60.9867 0.576416L25.8034 60.3897L15.543 44.1479L5.51962 61L0 51.6754L15.5768 25.0239L25.5325 41.7743L49.812 0.576416H60.9867Z" fill="#F6C01E"/>
<path d="M105.532 49.095H97.8115V20.07H114.946V26.3768H105.532V31.9038H114.235V38.2106H105.532V49.095Z" fill="#111111"/>
<path d="M146.676 49.095H137.6L131.945 40.0077L126.358 49.095H117.486L127.103 34.2434L118.062 20.07H126.764L132.013 29.0556L137.058 20.07H145.964L136.788 34.8877L146.676 49.095Z" fill="#111111"/>
<path d="M150.197 20.07H160.322C164.25 20.07 167.196 20.6464 169.093 21.8332C170.989 23.02 171.971 24.8171 171.971 27.2924C171.971 28.9199 171.565 30.3101 170.718 31.463C169.871 32.6159 168.788 33.3618 167.433 33.7009V33.9044C169.228 34.3791 170.549 35.1929 171.328 36.2779C172.14 37.3969 172.547 38.821 172.547 40.6181C172.547 43.2629 171.565 45.3313 169.567 46.8571C167.603 48.383 164.894 49.1289 161.474 49.1289H150.197V20.07ZM158.02 31.1917H160.39C161.507 31.1917 162.388 30.9544 162.997 30.4797C163.607 30.005 163.912 29.3268 163.912 28.4113C163.912 26.7837 162.693 25.97 160.221 25.97H158.02V31.1917ZM158.02 36.9561V43.0594H160.762C163.201 43.0594 164.42 42.0422 164.42 39.9738C164.42 38.9905 164.081 38.2785 163.438 37.7359C162.794 37.1934 161.846 36.9561 160.593 36.9561H158.02Z" fill="#111111"/>
<path d="M177.693 49.095V20.07H185.516V42.7882H196.69V49.1289H177.693V49.095Z" fill="#111111"/>
<path d="M227.81 34.5486C227.81 39.4313 226.625 43.1612 224.221 45.7043C221.817 48.2473 218.329 49.5358 213.69 49.5358C209.152 49.5358 205.664 48.2473 203.226 45.7043C200.788 43.1612 199.569 39.4313 199.569 34.5486C199.569 29.6998 200.788 26.0378 203.192 23.4608C205.596 20.9177 209.118 19.6292 213.723 19.6292C218.329 19.6292 221.851 20.8838 224.221 23.4269C226.625 25.936 227.81 29.632 227.81 34.5486ZM207.865 34.5486C207.865 40.1773 209.829 42.9577 213.723 42.9577C215.721 42.9577 217.177 42.2796 218.126 40.9233C219.074 39.567 219.548 37.4308 219.548 34.5486C219.548 31.6325 219.074 29.4964 218.092 28.1061C217.11 26.7159 215.654 26.0378 213.723 26.0378C209.829 26.0378 207.865 28.886 207.865 34.5486Z" fill="#111111"/>
<path d="M244.505 32.1073H257.034V47.7727C253.648 48.9255 249.889 49.5359 245.825 49.5359C241.355 49.5359 237.901 48.2474 235.463 45.6365C233.025 43.0256 231.806 39.3296 231.806 34.5147C231.806 29.8355 233.127 26.1734 235.802 23.5625C238.477 20.9516 242.202 19.6631 247.044 19.6631C248.873 19.6631 250.6 19.8327 252.225 20.1718C253.851 20.5108 255.273 20.9516 256.458 21.4942L253.986 27.6654C251.887 26.6481 249.618 26.1056 247.112 26.1056C244.809 26.1056 243.049 26.8516 241.796 28.3435C240.543 29.8355 239.933 31.9717 239.933 34.7182C239.933 37.4308 240.509 39.4992 241.626 40.9233C242.744 42.3474 244.403 43.0595 246.503 43.0595C247.654 43.0595 248.738 42.9578 249.72 42.7204V38.1429H244.505V32.1073Z" fill="#111111"/>
</svg>
