<?xml version="1.0" standalone="no"?>
<!DOCTYPE svg PUBLIC "-//W3C//DTD SVG 1.1//EN" "http://www.w3.org/Graphics/SVG/1.1/DTD/svg11.dtd" >
<svg xmlns="http://www.w3.org/2000/svg" xmlns:xlink="http://www.w3.org/1999/xlink" version="1.1">
<metadata>
Created by FontForge 20170731 at Thu Mar 18 13:55:05 2021
 By Aleksey,,,
</metadata>
<defs>
<font id="Icons" horiz-adv-x="1024" >
  <font-face 
    font-family="Icons"
    font-weight="400"
    font-stretch="normal"
    units-per-em="1024"
    panose-1="2 0 5 3 0 0 0 0 0 0"
    ascent="1024"
    descent="0"
    bbox="0 -0.5 1676.17 1024"
    underline-thickness="0"
    underline-position="10"
    unicode-range="U+E001-E01B"
  />
<missing-glyph horiz-adv-x="0" 
 />
    <glyph glyph-name=".notdef" horiz-adv-x="0" 
 />
    <glyph glyph-name=".null" horiz-adv-x="0" 
 />
    <glyph glyph-name="nonmarkingreturn" horiz-adv-x="341" 
 />
    <glyph glyph-name="arr-b" unicode="&#xe001;" 
d="M1000 761l-50 49q-24 25 -59 25v0v0h-2q-34 0 -58 -25l-319 -319l-319 319q-24 25 -58 25h-2v0v0q-35 0 -59 -25v0l-49 -49q-25 -24 -25 -59v-1v0v-2q0 -34 25 -57l428 -428q23 -25 57 -25h2v0h1q35 0 59 25l428 428q24 24 24 58v1v0v1q0 35 -24 59v0z" />
    <glyph glyph-name="arr-b1" unicode="&#xe002;" 
d="M599 230q-17 -17 -39.5 -26.5t-47.5 -9.5t-47.5 9.5t-39.5 26.5l-389 389q-17 17 -26.5 39.5t-9.5 47.5q0 34 16.5 62.5t45 45t62.5 16.5h776q34 0 62.5 -16.5t45 -45t16.5 -62.5q0 -25 -9.5 -47.5t-26.5 -39.5v0z" />
    <glyph glyph-name="arr-l" unicode="&#xe003;" 
d="M761 1000l49 -50q25 -24 25 -59v0v0v-2q0 -34 -25 -58l-319 -319l319 -319q25 -24 25 -58v-2v0v0q0 -35 -25 -59v0l-49 -49q-24 -25 -59 -25h-1v0h-2q-34 0 -57 25l-428 428q-25 23 -25 57v2v0v1q0 35 25 59l428 428q24 24 58 24h1v0h1q35 0 59 -24v0z" />
    <glyph glyph-name="arr-r" unicode="&#xe004;" 
d="M263 1000l-49 -50q-25 -24 -25 -59v0v0v-2q0 -34 25 -58l319 -319l-319 -319q-25 -24 -25 -58v-2v0v0q0 -35 25 -59v0l49 -49q24 -25 59 -25h1v0h2q34 0 57 25l428 428q25 23 25 57v2v0v1q0 35 -25 59l-428 428q-24 24 -58 24h-1v0h-1q-35 0 -59 -24v0z" />
    <glyph glyph-name="arr-r1" unicode="&#xe005;" 
d="M832 649q31 -25 48.5 -60.5t17.5 -76.5t-17.5 -76.5t-48.5 -60.5l-421 -337q-48 -38 -109 -38q-48 0 -88.5 23.5t-64 64t-23.5 87.5v674q0 47 23.5 87.5t64 64t88.5 23.5q61 0 110 -39l-1 1z" />
    <glyph glyph-name="arr-r2" unicode="&#xe006;" 
d="M1000 455l-412 -409q-23 -24 -56 -24h-1v0h-1q-33 0 -57 24l-47 47q-24 23 -24 56v1v0v1q0 33 24 56l185 183h-540q-29 0 -50 21t-21 51v0v102q0 29 21 50t50 21h539l-184 183q-24 22 -24 55v1v0v1q0 33 24 56v0l47 47q24 24 57 24h1v0h1q33 0 56 -24l412 -409
q24 -23 24 -56v-1v0v-2q0 -32 -24 -54v-1z" />
    <glyph glyph-name="close" unicode="&#xe007;" 
d="M1024 906l-118 118l-394 -394l-394 394l-118 -118l394 -394l-394 -394l118 -118l394 394l394 -394l118 118l-394 394z" />
    <glyph glyph-name="confidentiality" unicode="&#xe008;" 
d="M881 463q-66 -193 -190 -323q-78 -83 -164 -127l-2 -13l-13 5l-13 -5l-2 13q-86 44 -164 127q-124 130 -190 323q-44 127 -52 284q-4 78 1 131l44 3q53 6 100 15q66 12 111 30q75 32 151 80l1 18l13 -9l13 9l1 -18q76 -48 151 -80q45 -18 111 -30q47 -9 100 -15l44 -3
l2 -36q1 -46 -1 -95q-4 -69 -14 -133q-14 -81 -38 -151zM376 864q-50 -21 -134 -33q-42 -6 -74 -8v0l-1 -31q-2 -39 0 -81q3 -58 12 -113q11 -68 31 -127q54 -164 154 -275q64 -70 135 -108v843q-61 -41 -123 -67z" />
    <glyph glyph-name="contacts" unicode="&#xe009;" 
d="M958 808q-59 104 -164.5 160t-241.5 56q-157 0 -280.5 -67.5t-193.5 -194.5t-70 -290q0 -223 129 -347.5t360 -124.5q155 0 286 54v102q-150 -56 -288 -56q-181 0 -278 97.5t-97 278.5q0 135 52 237t150.5 157t231.5 55q104 0 184.5 -44t124 -124.5t43.5 -187.5
q0 -99 -29 -162.5t-78 -63.5q-65 0 -65 100v15l14 290q-45 15 -103 23.5t-105 8.5q-131 0 -208.5 -80.5t-77.5 -208.5q0 -112 58.5 -177.5t160.5 -65.5q56 0 101 24.5t76 72.5h7q13 -45 49 -71t85 -26q67 0 118 41t79 115t28 164q0 136 -58 240zM419 633q45 53 125 53
q44 0 84 -11l-8 -149q-11 -183 -131 -183q-115 0 -115 145q0 91 45 145z" />
    <glyph glyph-name="copy" unicode="&#xe00a;" 
d="M621 10h-375q-42 0 -78 21t-57.5 57t-21.5 79v531q0 43 21 79t57.5 57t78.5 21h375q42 0 78.5 -21t57.5 -57t21 -79v-531q0 -43 -21.5 -79t-57.5 -57t-78 -21zM246 777q-32 0 -55 -23t-23 -56v-531q0 -33 23 -56t55 -23h375q32 0 55 23t23 56v531q1 33 -22.5 56t-55.5 23
h-375zM935 265v593q-1 42 -22 78t-57 57t-78 21h-436q-22 -2 -30.5 -20.5t0 -37t30.5 -20.5h436q32 0 55 -23t23 -56v-592q3 -23 21 -31.5t36.5 0t21.5 31.5zM342 1024h-1q-20 -2 -31.5 -16.5t-11.5 -32.5t11.5 -32.5t31.5 -16.5h437q28 0 48 -20t20 -49v-594
q3 -20 17.5 -31.5t32 -11.5t32 11.5t16.5 31.5v595q0 45 -22.5 83t-60.5 60.5t-83 22.5h-436zM343 1004h435q40 0 73.5 -19.5t53.5 -53t20 -73.5v-592q-2 -14 -10 -20.5t-19.5 -6.5t-19.5 6.5t-10 20.5v591q0 37 -26 62.5t-62 25.5h-435q-13 2 -19.5 10t-6.5 19.5t6.5 20
t19.5 9.5zM246 865q-45 0 -83.5 -22.5t-61 -61t-22.5 -83.5v-531q0 -45 22.5 -83.5t61 -61t83.5 -22.5h375q45 0 83 22.5t60.5 60.5t23.5 84v531q0 45 -22.5 83.5t-61 61t-83.5 22.5h-375zM246 845h375q40 0 73.5 -19.5t53.5 -53.5t20 -74v-531q0 -40 -20 -74t-53.5 -53.5
t-73.5 -19.5h-375q-40 0 -73.5 19.5t-53.5 53.5t-20 74v531q0 40 20 74t53.5 53.5t73.5 19.5zM246 787q-36 0 -62 -26t-26 -63v-531q0 -37 26 -62.5t62 -26.5h375q36 0 62 26t26 63v531q0 37 -26 63t-62 26h-375zM246 767h375q28 0 48.5 -20t19.5 -49v-531q0 -29 -20 -49
t-48 -20h-375q-28 0 -48 20t-20 49v531q-1 29 19.5 49t48.5 20z" />
    <glyph glyph-name="facebook" unicode="&#xe00b;" horiz-adv-x="541" 
d="M439 849l95 -1l3 161q-64 8 -136 10h-3v0l-16 1q-59 1 -109.5 -27.5t-80.5 -78t-31 -108.5q0 -12 1 -23v1l-3 -142l-152 3l-3 -181l152 -2l-7 -454l186 -4l8 454l145 -2l27 180l-169 3l2 124q0 44 17 63q21 24 74 23z" />
    <glyph glyph-name="legal" unicode="&#xe00c;" 
d="M888 0h-690l11 3q15 3 27 9q17 8 27 19q18 19 25 45q4 13 3 22v63l1 4q1 4 5 7.5t12 3.5h667q7 0 12.5 -5t5.5 -12v-60q0 -27 -14.5 -49.5t-38.5 -36t-53 -13.5zM234 216v-74l-1 -12q-2 -16 -7 -30q-7 -20 -21 -36q-10 -13 -28 -23q-27 14 -43 40t-16 57v681h-88v55
q0 55 22 93q23 41 66 52v5h682q30 0 54.5 -14.5t39 -39t14.5 -53.5v-683h-655q-9 0 -13 -4t-5 -9zM586 322h205v58h-205v-58zM264 439h527v58h-527v-58zM264 556h527v58h-527v-58zM264 673h527v58h-527v-58zM264 790h527v58h-527v-58z" />
    <glyph glyph-name="mailru" unicode="&#xe00d;" 
d="M1021 589q-11 99 -62 184.5t-136 147.5q-92 66 -204.5 90t-219.5 0q-102 -23 -187.5 -85.5t-139.5 -154.5t-67.5 -197t15.5 -206q32 -110 109 -196t182 -131q96 -40 199 -40q70 0 137.5 18.5t127.5 55.5l-57 94q-82 -49 -178.5 -56t-185.5 30q-82 35 -142 103t-86 154
q-23 78 -12 160.5t53.5 154.5t109.5 121t146 67q85 19 173.5 0t161.5 -72q66 -47 105.5 -112.5t47.5 -141.5q10 -98 -18 -152q-26 -50 -66 -66q-26 -11 -53 -7h-2q-6 10 -5 63v322h-84q-17 13 -35 24q-70 42 -155 42q-59 0 -112.5 -21t-95.5 -60q-43 -41 -66.5 -97
t-23.5 -117t24 -116q36 -81 113 -127q73 -43 161 -43q101 0 176 52l15 12q27 -37 74 -44q67 -10 127 21q67 34 106 112q43 83 30 214zM655 417q-2 -4 -7 -10l-5 -6q-16 -21 -38 -36q-46 -33 -112 -33q-59 0 -105 28t-67 77q-23 52 -12 109t52 95q26 24 60.5 37.5t71.5 13.5
q54 0 99 -26q28 -17 48 -43l5 -6q6 -7 10 -13v-187z" />
    <glyph glyph-name="muffin" unicode="&#xe00e;" 
d="M947 687q-21 53 -69 81v1q-12 -14 -27 -25v0q-15 -10 -33 -14l-1 -1q39 -28 60 -70l1 -1q7 -22 7 -46q0 -27 -9.5 -51.5t-26.5 -43.5v0q31 -14 48.5 -32t17.5 -38q0 -28 -32 -51.5t-87 -37t-120 -13.5q-87 0 -153 23.5t-82 59.5q-20 -9 -43 -9v0q-36 0 -64 21v0
q-19 -18 -43 -28.5t-51 -10.5h-1v0h-3q-34 0 -62.5 16.5t-45.5 44.5t-18 62v0q1 47 32.5 81t77.5 40v0q-5 16 -5 34v0q4 37 24 67t52 47.5t70 17.5h12v0l11 -1q-15 22 -15 48v0q1 31 19.5 55t46.5 34h1q14 3 30 3q39 0 74 -17h-1q1 23 9 44v-1q6 16 20 24l1 1
q-49 23 -106 23h-14v0q-61 -7 -105 -50t-51 -103v-1q-62 -17 -104.5 -65t-50.5 -111v-1q-47 -25 -75.5 -70t-29.5 -99v-1q1 -66 42.5 -118t104.5 -68h2l38 -228q9 -45 43 -75t79 -33v0q7 -1 14 -1h334q8 0 15 1h-1q46 3 79.5 33t42.5 74l33 195q62 23 97 60t35 83
q0 28 -12 52.5t-33 41.5v0q12 35 12 74t-12 75zM327 99l-38 236q29 7 54 21l-1 -1l9 -2l49 -305h-10q-23 0 -41 14.5t-22 36.5v0zM492 48v0v255q28 -10 61 -17l16 -3v-235h-77zM648 48l36 230l65 8l-29 -186q-4 -23 -21.5 -37.5t-40.5 -14.5h-3v0h-7zM866 816
q-15 -31 -46.5 -48t-71.5 -17t-78 18.5t-62.5 49.5t-30.5 66.5t9 66.5t47 48.5t71.5 17t77.5 -19t62.5 -49.5t30.5 -66.5t-9 -66.5z" />
    <glyph glyph-name="odnoklassniki" unicode="&#xe00f;" horiz-adv-x="627" 
d="M540 356q37 23 52 36q20 18 25 36t-7.5 43.5t-38.5 32.5q-32 8 -69 -20q-39 -26 -86 -40t-98 -14h-5v0l-5 1q-50 0 -96.5 16t-85.5 45l1 -1q-25 20 -48 23q-21 2 -38 -8q-14 -9 -23 -25q-12 -24 -8.5 -42.5t23.5 -36.5q15 -14 51 -38q81 -48 177 -57h2l-42 -40
q-41 -39 -113 -110l-40 -38q-20 -20 -18 -45q1 -23 19 -41.5t41 -21.5q26 -3 46 16l153 149q112 -115 149 -155q19 -19 45 -17q23 2 41.5 19.5t21.5 40.5q3 26 -16 46l-149 154l-40 41q97 6 181 52zM62 768q-1 -70 32.5 -129t92 -94.5t128.5 -36.5v0q69 -2 128.5 31.5t95 92
t37.5 127.5v0q1 70 -32.5 129.5t-92 95t-128.5 36.5v0q-69 2 -129 -32t-95.5 -92t-36.5 -128v0v0zM193 766v0v0q0 34 17.5 63t46.5 45.5t64 15.5v0q34 0 63 -17.5t45.5 -47t15.5 -63.5v-1v0q-1 -34 -18.5 -62.5t-46.5 -45t-63 -15.5v0q-34 0 -63 17.5t-45.5 46.5t-15.5 64v0
z" />
    <glyph glyph-name="owner" unicode="&#xe010;" 
d="M512 0q-104 0 -199 40q-92 39 -163 110t-110 163q-40 95 -40 199t40 199q39 92 110 163t163 110q95 40 199 40t199 -40q92 -39 163 -110t110 -163q40 -95 40 -199t-40 -199q-39 -92 -110 -163t-163 -110q-95 -40 -199 -40zM512 980q-127 0 -236 -64q-106 -62 -168 -168
q-64 -109 -64 -236t64 -236q62 -106 168 -168q109 -64 236 -64v112q-97 0 -180 48q-80 48 -128 128q-48 83 -48 180t48 180q48 80 128 128q83 48 180 48v112zM512 824q-85 0 -157 -43q-71 -41 -112 -112q-43 -72 -43 -157t43 -157q41 -71 112 -112q72 -43 157 -43t157 43
q71 41 112 112q43 72 43 157t-43 157q-41 71 -112 112q-72 43 -157 43zM245 512q0 73 36 134t97 97t134 36v-534q-73 0 -134 36t-97 97t-36 134z" />
    <glyph glyph-name="parents" unicode="&#xe011;" 
d="M878 102h-119q-6 50 -42 83.5t-84 33.5h-121q44 0 81 22t58.5 59t21.5 80q0 59 -38 103.5t-95 55.5q30 41 76.5 65.5t100.5 24.5h88q59 0 109.5 -29.5t80 -80t29.5 -109.5v-161q0 -40 -19.5 -73.5t-53.5 -53.5t-73 -20zM497 221q2 0 5 -1l10 -1h-15v2zM746 687
q-44 0 -81 22t-58.5 58.5t-21.5 80.5t21.5 81t58.5 58.5t81 21.5t81 -21.5t58.5 -58.5t21.5 -81t-21.5 -80.5t-58.5 -58.5t-81 -22zM624 380q0 -29 -14.5 -54t-39 -39t-53.5 -14t-54 14t-39 39t-14 54t14 53.5t39 39t54 14.5t53.5 -14.5t39 -39t14.5 -53.5zM293 571
q-40 0 -73.5 19.5t-53.5 53t-20 73.5t20 73.5t53.5 53t73 19.5t73 -19.5t53.5 -53t20 -73.5t-20 -73.5t-53.5 -53t-72.5 -19.5zM420 512q-32 -22 -50.5 -56.5t-18.5 -75.5t19.5 -76t53 -57t73.5 -26v-2h-106q-48 0 -84 -33.5t-42 -83.5h-154q-30 0 -55.5 18.5t-40.5 48.5
t-15 65v72q0 60 26 108q26 46 69.5 72t95.5 26h229zM426 190h172q28 0 52 -16.5t38 -44t14 -56.5l-8 -15q-9 -17 -20 -28q-15 -15 -30 -15h-264q-14 0 -29 15q-11 11 -21 28l-8 15q0 29 14 56.5t38 44t52 16.5z" />
    <glyph glyph-name="play" unicode="&#xe012;" 
d="M835 586q17 -13 26.5 -32.5t9.5 -41.5t-9.5 -41.5t-25.5 -32.5l-531 -418q-25 -20 -58 -20q-39 0 -66.5 27.5t-27.5 66.5v836q0 39 27.5 66.5t66.5 27.5q33 0 58 -20v0z" />
    <glyph glyph-name="search" unicode="&#xe013;" 
d="M776 892q-63 63 -145 97q-84 35 -176.5 35t-176.5 -35q-82 -34 -145 -97v0q-63 -61 -97 -142q-36 -84 -36 -175.5t36 -174.5q34 -81 97 -143v0q63 -62 145 -96q84 -35 176 -35q132 0 243 69l-2 -1l169 -167q28 -27 66.5 -27t66.5 27v0q27 27 27 65.5t-27 65.5l-167 164
q38 54 58 118q21 65 21 135q0 92 -36 175q-34 81 -97 142v0zM663 370q-41 -41 -95 -63.5t-113.5 -22.5t-113.5 22.5t-94 63.5v0q-41 40 -64 93t-23 112t23 112t64 93v0q40 41 94 63.5t113.5 22.5t113.5 -22.5t95 -63.5v0q40 -40 63 -93t23 -112t-23 -112t-63 -93v0z" />
    <glyph glyph-name="time" unicode="&#xe014;" 
d="M512 0q-104 0 -199 40q-92 39 -163 110t-110 163q-40 95 -40 199t40 199q39 92 110 163t163 110q95 40 199 40t199 -40q92 -39 163 -110t110 -163q40 -95 40 -199v0q0 -139 -70 -258q-68 -116 -184 -184q-119 -70 -258 -70v0zM512 885v0q-102 0 -189 -51
q-84 -49 -134 -134q-51 -87 -51 -188.5t51 -188.5q50 -84 134 -134q87 -51 188.5 -51t188.5 51q85 50 134 134q51 87 51 189v0q0 101 -51 188q-49 85 -134 134q-87 51 -188 51v0zM452 422v301h120v-181h121v-120h-241z" />
    <glyph glyph-name="uparrow" unicode="&#xe015;" 
d="M701 628l323 323v-285l-595 -593l-429 427l2 281l323 -322l106 -101z" />
    <glyph glyph-name="user" unicode="&#xe016;" 
d="M1023 511q1 134 -63 249q-60 109 -165 178.5t-229 82.5q-130 14 -253.5 -38t-203.5 -156q-77 -98 -100 -222t14 -243q38 -125 134 -218q4 -4 8 -7q96 -90 223 -122q124 -31 248 0q127 32 223 122q4 3 8 7q75 72 115.5 167.5t40.5 199.5zM512 959q109 0 202 -47
q88 -45 150 -124q60 -77 83 -172q24 -97 4 -194q-21 -102 -88 -188q-27 72 -83.5 123t-131.5 69q67 48 88 122q21 68 -2 138.5t-79 114.5q-61 47 -142.5 47t-143.5 -47q-56 -44 -79 -114.5t-2 -138.5q21 -74 88 -122q-75 -18 -131.5 -69t-83.5 -123q-67 86 -88 188
q-20 97 4 194q23 95 83 172q62 79 150 124q93 47 202 47zM343 614q0 55 30 98q28 40 74 59t94 11q52 -9 90.5 -47.5t47.5 -89.5q9 -49 -10.5 -95t-59.5 -74q-42 -30 -97 -30q-46 0 -85 22.5t-61.5 61.5t-22.5 84zM215 178q5 58 45 104.5t106 72.5t146 26t146.5 -26
t106 -72.5t44.5 -104.5q-83 -75 -191 -101q-106 -26 -211 0q-109 26 -192 101z" />
    <glyph glyph-name="vk" unicode="&#xe017;" horiz-adv-x="1692" 
d="M1652 928q10 31 -2 49q-13 19 -52 20l-188 3q-26 1 -46 -13t-29 -37v-1q-93 -207 -234 -373l2 2q-33 -32 -51 -43.5t-35 -10.5q-11 0 -19 12q-10 14 -10 41l7 363q0 35 -11.5 51t-39.5 17l-290 5q-18 0 -31 -12t-14 -29v0q0 -12 6 -23q4 -7 15 -22q21 -27 30 -48
q17 -37 19 -87l-5 -270q-1 -43 -9 -57q-8 -13 -26 -13q-31 1 -85 70.5t-109 179.5q-60 118 -100 245q-14 40 -30 55q-18 17 -52 18l-183 3q-36 0 -51 -15q-12 -12 -13 -36q70 -345 281 -616l-2 3q89 -146 232 -237q146 -93 319 -108h2q56 -1 86 7q27 8 38 24q8 13 8 38l1 82
q1 75 3 96q3 31 12.5 40t35.5 8.5t60 -20.5q49 -29 121 -101q36 -37 85 -94q32 -37 45 -50q21 -21 39 -30t42 -10l183 -3q40 0 58 19.5t7 57.5q-17 57 -110 168q-50 61 -138 154q-25 27 -27 30q-13 17 -15.5 29t1.5 25q4 9 16 27q143 185 247 403z" />
    <glyph glyph-name="vk1" unicode="&#xe018;" 
d="M1010 769q13 41 -34 42l-116 2q-16 1 -28.5 -8t-17.5 -23v0q-57 -128 -145 -230l2 1q-21 -20 -32 -27t-22 -7q-6 0 -11.5 8.5t-5.5 24.5l4 224q0 22 -7 32t-24 10l-180 3q-10 0 -18.5 -7.5t-8.5 -17.5v0q0 -7 3 -14q3 -5 10 -14q13 -17 19 -30q10 -22 11 -53l-3 -167
q-1 -26 -5.5 -34.5t-16.5 -8.5q-19 0 -52 43t-67 111q-37 73 -62 151q-8 25 -18.5 35t-32.5 10l-113 2q-22 0 -31 -9q-8 -8 -8 -22q0 -20 14 -67q18 -61 53 -132q43 -89 105 -179q55 -91 143 -147q90 -57 197 -66h1q35 -1 52.5 4t24.5 15q5 8 5 23l1 51q0 46 1 59
q2 19 8 24.5t22 5.5t37 -13q30 -18 74 -62q23 -23 53 -58q28 -32 40 -41q17 -14 38 -14l113 -2q24 0 35 12t5 35q-11 35 -68 104q-31 38 -85 95q-16 16 -17 18q-11 15 -10 26q1 8 11 24v1q40 54 76 109q71 108 81 148z" />
    <glyph glyph-name="warn" unicode="&#xe019;" 
d="M512 1024q-104 0 -199 -40q-92 -39 -163 -110t-110 -163q-40 -95 -40 -199t40 -199q39 -92 110 -163t163 -110q95 -40 199 -40t199 40q92 39 163 110t110 163q40 95 40 199t-40 199q-39 92 -110 163t-163 110q-95 40 -199 40zM563 256h-102v102h102v-102zM563 461h-102
v307h102v-307z" />
    <glyph glyph-name="x" unicode="&#xe01a;" 
d="M1024 906l-118 118l-394 -394l-394 394l-118 -118l394 -394l-394 -394l118 -118l394 394l394 -394l118 118l-394 394z" />
    <glyph glyph-name="yandex" unicode="&#xe01b;" 
d="M562 392l-175 -392h-127l192 420q-72 36 -109 100q-41 72 -41 182q0 103 41 179q38 70 107 107q66 36 149 36h165v-1024h-110v392h-92zM654 931h-59q-75 0 -121 -51q-54 -59 -54 -178q0 -116 52 -171q44 -47 123 -47h59v447z" />
  </font>
</defs>
</svg>
