<?xml version="1.0" encoding="UTF-8"?>
<!-- Generator: Adobe Illustrator 22.0.1, SVG Export Plug-In . SVG Version: 6.00 Build 0)  -->
<svg version="1.1" id="Layer_1" inkscape:version="0.91 r13725" sodipodi:docname="Visa_2006.svg" xmlns:cc="http://creativecommons.org/ns#" xmlns:dc="http://purl.org/dc/elements/1.1/" xmlns:inkscape="http://www.inkscape.org/namespaces/inkscape" xmlns:rdf="http://www.w3.org/1999/02/22-rdf-syntax-ns#" xmlns:sodipodi="http://sodipodi.sourceforge.net/DTD/sodipodi-0.dtd" xmlns:svg="http://www.w3.org/2000/svg" xmlns="http://www.w3.org/2000/svg" xmlns:xlink="http://www.w3.org/1999/xlink" x="0px" y="0px" width="1375.99561px" height="340px" viewBox="0 0 1375.99561 340" enable-background="new 0 0 1375.99561 340" xml:space="preserve">
<sodipodi:namedview bordercolor="#666666" borderopacity="1" gridtolerance="10" guidetolerance="10" id="namedview19" inkscape:current-layer="Layer_1" inkscape:cx="34.690897" inkscape:cy="131.15483" inkscape:pageopacity="0" inkscape:pageshadow="2" inkscape:window-height="705" inkscape:window-maximized="1" inkscape:window-width="1366" inkscape:window-x="-8" inkscape:window-y="-8" inkscape:zoom="0.35355339" objecttolerance="10" pagecolor="#ffffff" showgrid="false">
	</sodipodi:namedview>
<path fill="#83BA3B" d="M1335.24304,71.55745c-17.12109-11.73005-43.03442-17.64591-77.00146-17.64591h-88.95508l-33.0708,179.5359  h-116.53467l7.49011-40.73294h70.19836l8.31824-45.74947l-70.15808,0.10094l7.51062-40.55109h72.30798l9.62061-52.59286H978.12714  l-31.3949,170.30092h-53.88721l31.60718-170.30988h-76.7597l-31.39496,170.3009h-52.49426l31.63721-170.3009h-76.71942  l-33.11115,179.53592H568.23779l7.4198-40.73294h70.48059l8.32855-45.4897l-70.41345-0.07063l7.4704-40.63171h73.11859  l9.55969-52.61526H216.61766l-26.04472,142.26901l-51.86732-142.269H59.06615l-42.86298,232.1825h76.05655l25.94396-146.19229  l50.33113,146.19229h272.58002l33.1416-179.58963h42.63055l-33.14117,179.58963h717.21198l20.79517-113.36374l33.63623,113.36374  h76.0968l-34.8573-92.63205l7.9751-1.71613c17.56482-3.7654,31.26367-11.85143,40.80322-23.97514  c9.52966-12.23479,14.3855-27.94278,14.3855-46.81091c0-21.96646-8.03564-38.12814-24.5708-49.41302L1335.24304,71.55745z   M374.9296,233.44743H258.5069l7.52057-40.73294h73.02448l8.27789-45.87936h-72.32135l6.96567-40.3088h116.2525l-23.31903,126.92066  L374.9296,233.44743z M1272.54187,155.24113c-7.65173,5.3502-18.74634,7.95454-33.91858,7.95454h-15.0415l11.53833-62.30707  h11.06396c12.59851,0,21.78467,2.01897,28.12427,6.13755c4.94666,3.23037,10.83154,9.62061,10.83154,21.70402  c-0.01794,14.61743-6.8645,22.47121-12.61865,26.50917L1272.54187,155.24113z"/>
</svg>