<svg xmlns="http://www.w3.org/2000/svg" xmlns:xlink="http://www.w3.org/1999/xlink" width="171" height="171" viewBox="0 0 171 171">
    <defs>
        <circle id="b" cx="78.5" cy="78.5" r="78.5"/>
        <filter id="a" width="116.6%" height="116.6%" x="-8.3%" y="-5.1%" filterUnits="objectBoundingBox">
            <feOffset dy="5" in="SourceAlpha" result="shadowOffsetOuter1"/>
            <feGaussianBlur in="shadowOffsetOuter1" result="shadowBlurOuter1" stdDeviation="3.5"/>
            <feColorMatrix in="shadowBlurOuter1" values="0 0 0 0 0 0 0 0 0 0 0 0 0 0 0 0 0 0 0.154382 0"/>
        </filter>
    </defs>
    <g fill="none" fill-rule="evenodd">
        <g transform="translate(7 2)">
            <use fill="#000" filter="url(#a)" xlink:href="#b"/>
            <use fill="#FFF" xlink:href="#b"/>
        </g>
        <path fill="#ECB360" fill-rule="nonzero" d="M146.715 82.857c0 33.06-26.798 59.858-59.858 59.858C53.8 142.715 27 115.917 27 82.857 27 49.8 53.8 23 86.857 23c33.06 0 59.858 26.8 59.858 59.857"/>
        <path fill="#D76835" fill-rule="nonzero" d="M130.753 76.872c0 29.752-23.227 53.871-51.877 53.871-28.65 0-51.876-24.12-51.876-53.871C27 47.119 50.226 23 78.876 23s51.877 24.12 51.877 53.872"/>
        <path fill="#D33A41" fill-rule="nonzero" d="M134.743 70.885c0 26.447-20.546 47.887-45.892 47.887-25.343 0-45.889-21.44-45.889-47.887C42.962 44.44 63.508 23 88.851 23c25.346 0 45.892 21.44 45.892 47.885"/>
        <path fill="#B6CB46" fill-rule="nonzero" d="M130.753 74.877c0 24.242-18.76 43.895-41.9 43.895-23.142 0-41.9-19.653-41.9-43.895 0-24.244 18.758-43.896 41.9-43.896 23.14 0 41.9 19.652 41.9 43.896"/>
        <path fill="#66AD4A" fill-rule="nonzero" d="M126.762 78.866c0 22.04-17.866 39.906-39.905 39.906-22.038 0-39.905-17.867-39.905-39.906 0-22.039 17.867-39.904 39.905-39.904 22.039 0 39.905 17.865 39.905 39.904"/>
        <path fill="#AED7DC" fill-rule="nonzero" d="M110.8 70.886c0 17.631-14.293 31.924-31.924 31.924-17.632 0-31.924-14.293-31.924-31.924s14.292-31.924 31.924-31.924c17.631 0 31.924 14.293 31.924 31.924"/>
        <path fill="#5BB1CF" fill-rule="nonzero" d="M114.79 66.895c0 15.427-12.505 27.934-27.933 27.934-15.428 0-27.933-12.507-27.933-27.934 0-15.427 12.505-27.933 27.933-27.933 15.428 0 27.934 12.506 27.934 27.933"/>
        <path fill="#25A8C3" fill-rule="nonzero" d="M114.79 68.89c0 14.325-10.718 25.939-23.942 25.939S66.905 83.215 66.905 68.89c0-14.324 10.72-25.938 23.943-25.938 13.224 0 23.943 11.614 23.943 25.938"/>
        <path d="M106.81 72.88c0 12.122-8.934 21.949-19.953 21.949S66.905 85.002 66.905 72.88c0-12.122 8.933-21.948 19.952-21.948 11.02 0 19.953 9.826 19.953 21.948"/>
        <path fill="#1B1A18" fill-rule="nonzero" d="M86.857 94.829c-11.019 0-19.952-9.827-19.952-21.948 0-12.122 8.933-21.948 19.952-21.948 11.02 0 19.953 9.826 19.953 21.948 0 12.121-8.934 21.948-19.953 21.948z"/>
        <path fill="#FFFFFE" fill-rule="nonzero" d="M97.744 66.553c-1.898 3.175-5.63 5.012-8.337 4.099-2.707-.912-3.362-4.227-1.465-7.403 1.898-3.177 5.63-5.012 8.337-4.1 2.707.91 3.362 4.226 1.465 7.404"/>
    </g>
</svg>