<svg xmlns="http://www.w3.org/2000/svg" xmlns:xlink="http://www.w3.org/1999/xlink" width="132" height="132" viewBox="0 0 132 132">
    <defs>
        <circle id="b" cx="55" cy="55" r="55"/>
        <filter id="a" width="136.4%" height="136.4%" x="-18.2%" y="-11.8%" filterUnits="objectBoundingBox">
            <feOffset dy="7" in="SourceAlpha" result="shadowOffsetOuter1"/>
            <feGaussianBlur in="shadowOffsetOuter1" result="shadowBlurOuter1" stdDeviation="5.5"/>
            <feColorMatrix in="shadowBlurOuter1" values="0 0 0 0 0 0 0 0 0 0 0 0 0 0 0 0 0 0 0.154382 0"/>
        </filter>
    </defs>
    <g fill="none" fill-rule="evenodd">
        <g transform="translate(11 4)">
            <use fill="#000" filter="url(#a)" xlink:href="#b"/>
            <use fill="#FFF" xlink:href="#b"/>
        </g>
        <g fill-rule="nonzero">
            <path fill="#0E0F0D" d="M104.258 45.407a11.287 11.287 0 0 0-.145-.884 9.278 9.278 0 0 0-.21-.905l-.228-.36c-.934-.734-1.943-1.289-2.966-1.779a31.706 31.706 0 0 0-2.572-1.067c-2.42-6.717-6.582-12.674-12.052-16.824-5.655-4.29-12.305-6.56-19.232-6.56s-13.578 2.27-19.232 6.56c-5.471 4.15-9.632 10.107-12.052 16.826-.867.32-1.727.668-2.57 1.065-1.026.49-2.034 1.045-2.968 1.779l-.228.36c-.081.299-.152.6-.21.905a19.836 19.836 0 0 0-.315 2.656 22.268 22.268 0 0 0 .104 3.557c.127 1.184.347 2.356.659 3.505.163.579.354 1.149.572 1.709.11.283.23.563.363.844.066.14.137.276.21.418.163.285.193.34.261.442l.307.282c.2.103.366.181.547.267l.529.237c.098.04.19.08.29.12-2.402 2.22-5.01 5.104-7.268 8.669L23 71.728l4.004-3.515c.068-.06 3.425-2.965 9.024-6.258l.078.644c-.366.19-2.126 1.114-2.65 1.552-.867.72-.91 1.838-.677 3.923.12 1.07.52 3.144 1.06 5.046.932 3.274 1.614 3.853 2.214 3.989.27.064.619.094 1.011.094 1.073 0 2.446-.209 3.343-.48a32.835 32.835 0 0 0 4.356 8.812c-.088.024-.174.052-.262.077a966.653 966.653 0 0 0-6.194-2.852l-2.682-1.207 1.587 2.477c.115.178 2.853 4.448 5.089 7.325 2.09 2.684 4.954 5.431 10.356 5.431.65 0 1.33-.042 2.032-.12 1.61-.184 2.821-.33 3.741-.447 5.672 2.083 11.925 2.212 17.86-.037a26.13 26.13 0 0 0 4.462-2.204c2.288-.55 4.79-1.146 6.027-1.493.198-.054.446-.113.704-.174 1.723-.396 4.602-1.064 6.137-4.135 1.547-3.098 4.07-7.845 4.096-7.894l1.18-2.214-2.3.999c-.122.056-3.034 1.324-4.547 2.117 1.051-2.42 1.67-4.424 1.886-5.193.848.204 2.104.178 3.027.178.454 0 .922-.079 1.225-.156.6-.153 1.064-.552 1.936-3.93.507-1.963.871-4.101.971-5.2.193-2.139.13-3.285-.742-4.008-.435-.36-1.711-1.047-2.36-1.385.363-.156.54-.11.555-.106l.589-2.235c.207-.088.427-.178.677-.273.355-.142.711-.283 1.067-.436l.526-.237c.183-.086.348-.164.548-.267l.307-.283c.066-.1.102-.156.143-.234.194-.35.263-.486.328-.625.133-.28.25-.562.362-.844.218-.56.41-1.13.572-1.709.313-1.15.533-2.321.66-3.506.132-1.18.162-2.37.103-3.557a18.729 18.729 0 0 0-.171-1.771z"/>
            <path fill="#E1C5A2" d="M70.567 91.426a19.06 19.06 0 0 1-1.297.152c-.279.014-.572.042-.839.042l-.1.002c.336-.746.59-1.327.782-1.767.393.44.892.983 1.454 1.57"/>
            <path fill="#A89983" d="M70.04 58.04a19.005 19.005 0 0 1-2.137 1.513L65.42 61.05c-1.557.19-2.909.575-2.986.598a.575.575 0 0 0-.385.38l-2.53 8.332-13.515 3.006-4.259-2.982-1.238-10.032c2.419-.445 5.651-.957 9.535-1.393-.423.506-.825 1.03-1.203 1.57l-2.312 3.318 3.367-2.245c.05-.035 2.193-1.445 5.7-3.161a154.108 154.108 0 0 1 14.447-.402zM49.003 69.341c.96-.52 2.046-.443 3.744-.44.181.004.37.002.565-.003.168 0 .335-.003.513-.008 1.75-.018 3.205.148 3.178-2.598-.026-2.747-1.247-4.968-2.996-4.95-1.749.015-3.442 2.266-3.337 5.01.028.716.134 1.232.302 1.603-1.525.384-1.947 1.327-1.969 1.386zm44.465-9.022l-1.217 8.53-4.293 3.007-13.498-1.534-2.519-8.294a.567.567 0 0 0-.386-.38 20.552 20.552 0 0 0-3.525-.656l.324-.021c.28-.021 4.934-.591 10.495-2.507 6.155.472 11.183 1.227 14.62 1.855zm-8.624 7.896c-.018-.067-.388-1.17-2.013-.976.186-.409.27-.96.212-1.716-.215-2.741-1.811-4.92-3.558-4.858-1.75.06-2.869 2.333-2.772 5.083.097 2.744 1.562 2.725 3.312 2.662 2.349-.044 3.639-.765 4.819-.195z"/>
            <path fill="#FFF" d="M80.224 63.28a.894.894 0 0 1-1.513.66.893.893 0 0 1 .604-1.536.89.89 0 0 1 .91.877m-25.055.657a.894.894 0 1 1-1.787.045.894.894 0 0 1 1.787-.045"/>
            <path fill="#E1C5A2" d="M99.36 64.072c-.212-.174-.916-.577-1.603-.948l-1.132 7.93a.58.58 0 0 1-.237.383l-1.619 1.132-.097.5c1.59.392 3.135-.755 4.003-1.582.4-1.562.75-3.417.87-4.744.186-2.058.022-2.5-.186-2.67M74.36 94.198a7.73 7.73 0 0 1-2.85-1.811l-.207-.21c-.656.134-1.32.23-1.986.285-.285.013-.556.037-.853.037l-.44.004-.168-.004c-1.004 1.491-2.692 2.31-4.014 2.747 3.928.674 8.25-.357 10.518-1.048m-34.58-19.42c-.035-.12-.072-.238-.106-.358l-2.103-1.472a.571.571 0 0 1-.237-.396l-1.026-8.326c-.758.405-1.636.904-1.869 1.1-.203.168-.358.595-.138 2.578.166 1.492.69 3.784 1.225 5.5 1.065.815 2.634 1.674 4.254 1.374m31.437-.38a.566.566 0 0 1-.478-.4l-2.595-8.552a9.116 9.116 0 0 0-1.148-.088c-.327 0-.711.032-1.146.088l-2.522 8.306a.567.567 0 0 1-.42.387l-1.205.268c-.103.426-.45 1.051-1.568 1.394-1.805.55-13.23 3.956-14.533 3.771-.761-.107-2.209-.905-3.28-1.55a26.925 26.925 0 0 1-.719-1.858v-.003l-.003.003c.151.443 1.642 4.734 4.671 8.932 3.248-.957 6.053-1.85 6.95-2.133 1.826-2.817 4.429-5.612 6.277-5.707.326-.017.652-.025.978-.026.906 0 1.77.064 2.573.16-.682-.62-.822-1.343-.92-1.664 0 0 2.36 1.846 5.362 1.458 3.007-.385 4.873-2.117 4.873-2.117l.059-.532-1.206-.137"/>
            <path fill="#E1C5A2" d="M73.657 75.48c-.623-.161-1.015-.418-1.263-.686l-.03.273s-.011 1.262-1.319 2.24c2.518-.763 3.56-1.021 4.273-1.021.785 0 1.173.328 1.513.615.065.054.13.11.206.17 1.653 1.302 3.301 2.608 4.945 3.92.789.09 3.29.377 4.865.52.907.085 1.728.153 2.533.153.257 0 .501-.009.732-.025.83-1.59 1.595-3.349 2.275-5.288-.931.653-3.053 2.082-4.047 2.267-1.293.242-12.859-2.665-14.683-3.138"/>
            <path fill="#E0D896" d="M102.76 45.574c-.022-.273-.05-.546-.084-.818a9.612 9.612 0 0 0-.087-.58c-.73-.614-1.561-1.162-2.425-1.657a31.443 31.443 0 0 0-2.917-1.493 56.703 56.703 0 0 0-3.037-1.306c-.513-.209-1.029-.41-1.548-.601-.517-.202-1.038-.39-1.561-.581 1.096.182 2.184.433 3.264.71.702.18 1.4.383 2.093.602-4.934-12.894-16.727-21.29-29.605-21.29-12.88 0-24.672 8.396-29.603 21.29a40.198 40.198 0 0 1 2.09-.602 38.086 38.086 0 0 1 3.267-.71c-.527.19-1.047.379-1.566.58-.518.193-1.033.394-1.545.602a57.784 57.784 0 0 0-3.04 1.306 32.01 32.01 0 0 0-2.914 1.493c-.864.495-1.693 1.043-2.425 1.657a17.368 17.368 0 0 0-.173 1.398 24.129 24.129 0 0 0 .132 4.956c.152 1.097.353 2.187.65 3.24.144.525.313 1.042.506 1.55a13.498 13.498 0 0 0 .48 1.092l.07.134.246.123.49.233c.274.126.653.306.966.446.018-.016.035-.032.05-.048l-.91-3.467c.193-.052 1.92-.498 4.9-1.067a14.487 14.487 0 0 1-.72-.153 15.228 15.228 0 0 1-1.998-.637 9.173 9.173 0 0 1-.94-.455c-.301-.174-.598-.37-.828-.631 3.271 1.069 10.034.586 16.046-.036 5.497-.568 11.01-.934 16.549-.946 5.538.012 11.053.378 16.547.946 6.014.622 12.777 1.105 16.048.036-.228.262-.527.457-.826.631a9.49 9.49 0 0 1-.943.455c-.648.262-1.315.467-1.994.637-.101.024-.203.045-.303.068 3.267.605 5.168 1.098 5.37 1.152l-.87 3.303c.177-.077.354-.153.525-.234l.491-.234c.081-.038.165-.081.248-.122l.066-.134a12.059 12.059 0 0 0 .481-1.092c.193-.509.362-1.026.507-1.55.297-1.054.498-2.143.648-3.24.142-1.092.217-2.197.206-3.302a20.055 20.055 0 0 0-.073-1.654"/>
            <path fill="#D7C184" d="M80.402 39.16c.05 1.476.015 4.152-.673 6.657a.545.545 0 0 0 0 .288c-.874-.092-1.75-.173-2.626-.243.982-2.058 1.196-4.25 1.244-5.022a22.956 22.956 0 0 0 2.055-1.68m-25.04 1.68c.045.772.26 2.959 1.24 5.017-.875.07-1.75.15-2.623.243a.551.551 0 0 0 0-.283c-.686-2.5-.723-5.177-.676-6.656.553.5 1.302 1.144 2.058 1.679m35.79 7.308a.542.542 0 0 1-.017.073c.096.028.19.056.286.087.81.266 1.62.543 2.393.9-1.292-.839-2.11-3.26-2.567-5.11.125 2.422-.082 3.958-.094 4.05m-38.925-9.453l-8.356 2.376c-.5 3.25-.348 5.732-.267 6.594l.042-.026s.272-3.54.827-4.899c.286-.697 2.035-1.142 3.368-1.46 1.337-.318 3.467-.954 3.881.922.255 1.159.607 2.123.944 2.834-.537-2.577-.503-5.098-.44-6.34m29.253 0c.068 1.29.1 3.96-.506 6.641.38-.728.801-1.802 1.095-3.135.413-1.876 2.543-1.24 3.88-.922 1.336.318 3.082.763 3.368 1.46.471 1.15.737 3.862.808 4.668.08-1.037.167-3.367-.288-6.337l-8.357-2.376m-26.184.724c.294.236.598.46.91.673a.555.555 0 0 1 .238.445c.002.027.064 2.78 1.281 5.124.018.036.03.074.042.11 3.026-.206 6.06-.289 9.087-.29 3.03.001 6.062.09 9.086.297.012-.04.024-.078.045-.117 1.215-2.344 1.28-5.097 1.28-5.124a.555.555 0 0 1 .24-.445c.3-.206.593-.422.876-.65l.038-.107c.633-6.158-.528-11.833-1.265-14.636-.04 1.917-.494 18.344-4.57 18.344h-11.25c-4.33 0-4.677-18.521-4.677-18.521l-.223.658c-.739 2.953-1.753 8.381-1.138 14.239m-12.722 8.8c-.004-.023-.01-.047-.016-.071-.014-.092-.222-1.63-.097-4.055-.457 1.852-1.278 4.277-2.572 5.116.774-.359 1.588-.637 2.398-.902.095-.03.192-.058.287-.087"/>
            <path fill="#9F8F78" d="M94.672 73.07c-.068.364-.148.727-.239 1.087.928.216 2.445.384 3.17.242.31-.337.712-1.507 1.072-2.912-.867.827-2.412 1.974-4.003 1.582m-33.25 22.712c2.215.607 4.479.87 6.71.723a26.823 26.823 0 0 0 8.225-1.887 7.627 7.627 0 0 1-1.997-.419c-2.268.691-6.59 1.723-10.518 1.049-1.04.342-1.855.448-1.934.458-.164.019-.3.042-.487.077M39.926 75.275c-.05-.165-.098-.332-.146-.497-1.62.3-3.19-.559-4.253-1.373.345 1.103.692 1.969.952 2.232.803.14 2.578-.106 3.447-.362m2.397 2.746c1.07.646 2.517 1.445 3.278 1.551 1.303.185 12.729-3.22 14.533-3.77 1.119-.344 1.466-.969 1.569-1.395l-16.484 3.67a.758.758 0 0 1-.123.013h-.002a.57.57 0 0 1-.325-.102l-.642-.448-1.925-1.349v-.003l-.777-.542c.013.044.029.088.043.131.044.128.088.257.134.383v.003c.055.163.292.85.72 1.858m50.563-3.166c.106-.39.21-.784.303-1.182l-.572.403-1.54 1.078-1.666 1.168a.584.584 0 0 1-.389.1l-16.598-1.887-.028.258c.248.269.64.526 1.263.687 1.823.473 13.389 3.38 14.682 3.137.994-.184 3.117-1.614 4.047-2.267l.023-.067c.165-.474.323-.95.475-1.429"/>
            <path fill="#6E6A67" d="M75.323 52.492c-.13.17-.274.354-.428.547a35.892 35.892 0 0 1-3.173 3.514 148.277 148.277 0 0 0-4.646-.073c-2.631 0-5.155.07-7.55.184 3.386-1.403 7.453-2.775 11.857-3.598a45.59 45.59 0 0 1 3.94-.574m-19.812 1.516a30.03 30.03 0 0 0-3.897 3.246 147.57 147.57 0 0 0-8.783 1.144c3.749-1.722 8.028-3.31 12.68-4.39m41.406 6.996l-1.38 9.642-6.604 4.627-17.222-1.958-2.59-8.538a.567.567 0 0 0-.452-.396 10.702 10.702 0 0 0-1.673-.153c-.472 0-1.035.05-1.677.153a.574.574 0 0 0-.45.396l-2.528 8.33-17.125 3.81-6.786-4.754-1.34-10.821c.296-.165.591-.329.887-.492.421-.09.894-.186 1.417-.286l1.26 10.212c.018.159.107.3.238.391l4.67 3.272a.575.575 0 0 0 .448.087l14.08-3.132a.565.565 0 0 0 .416-.388l2.537-8.348c.68-.174 2.422-.582 3.953-.582 1.528 0 3.27.408 3.952.582l2.535 8.348a.568.568 0 0 0 .478.399l14.082 1.6a.564.564 0 0 0 .386-.1l4.672-3.266a.581.581 0 0 0 .233-.386l1.248-8.726c.936.18 1.719.344 2.335.477m1.738-6.048l-1.212 4.598c-2.48-.546-7.924-1.62-15.335-2.342 2.42-1.032 4.886-2.325 7.14-3.946 4.41.623 7.647 1.292 9.407 1.69m-63.154 0l.337 1.273a42.54 42.54 0 0 1 2.535-1.87 89.61 89.61 0 0 0-2.872.597"/>
            <path fill="#93232C" d="M83.05 52.391c-1.856-.105-3.711-.194-5.568-.27-.208.306-.421.608-.64.907-.995 1.346-2.956 3.8-5.47 5.905 1.891-.6 9.395-3.117 13.196-6.448-.506-.033-1.012-.064-1.518-.094m-13.6-.49l.008-.002c-.941-.012-1.883-.022-2.823-.026h-.002c-1.385.004-2.766.022-4.15.046l-2.553 1.21a.152.152 0 0 0-.038.021c-.384.186-3.735 1.878-6.89 4.895.276-.146.568-.296.87-.45 1.726-1.159 6.328-3.905 13.485-5.714.698.004 1.396.008 2.093.02m-15.687.308a345.01 345.01 0 0 0-3.545.182c-1.37.077-2.735.17-4.1.272-.68.052-1.36.11-2.035.181-.196.02-.388.04-.58.065-1.782 1.066-8.604 5.348-13.29 10.953.08-.097.163-.193.246-.29 8.677-7.403 18.19-10.284 23.304-11.363M93.02 82.654l-.157.08c-.87.458-2.01.681-3.483.681-.878 0-1.738-.073-2.691-.16a241.287 241.287 0 0 1-5.16-.559l-.246-.025-.195-.158c-.03-.02-2.852-2.27-5.133-4.064-.094-.075-.177-.147-.254-.207-.24-.206-.24-.206-.384-.206-.732 0-2.86.66-7.519 2.104l-.286.091-.283-.107c-.032-.008-3.088-1.142-6.752-1.142-.3 0-.6.008-.89.022-.367.019-2.426.997-5.061 5.163l-.17.269-.302.097c-.044.014-4.578 1.477-9.386 2.852l-.31.088-.297-.137c-.03-.01-1.908-.884-3.698-1.704l.397.182c1.766 1.525 5.15 4.458 5.525 4.864.052.058.124.13.21.21a9.12 9.12 0 0 1-.254-.302l-.003-.003c.78.739 1.649 1.377 2.6 1.826.474.223.97.396 1.476.48.255.041.502.062.76.062.262 0 .529-.007.796-.02a70.768 70.768 0 0 0 3.188-.239c1.062-.096 2.126-.202 3.187-.33 1.06-.115 2.121-.248 3.172-.411.527-.077 1.05-.164 1.561-.277.251-.06.513-.125.712-.214.181-.087.401-.262.595-.428.395-.34.777-.718 1.156-1.095.379-.379.751-.764 1.118-1.156.622-.652 1.156-1.344 1.759-2.015.077-.084.156-.173.236-.259v.002l.008.008c.126.09.251.182.374.278.725.54 1.474 1.126 2.197 1.632.931.654 1.874 1.31 2.85 1.856.243.135.495.262.735.341a.393.393 0 0 0 .081.02c.018.012.082.022.09.022.047.007.11.01.172.014.132.002.268-.004.404-.01.55-.039 1.108-.119 1.667-.206a79.09 79.09 0 0 0 3.345-.597c1.115-.214 2.228-.442 3.334-.688a89.378 89.378 0 0 0 3.316-.772c.546-.147 1.092-.282 1.58-.516.497-.232.96-.55 1.384-.914.859-.731 1.58-1.638 2.18-2.625l-.002.004c.295-.547.546-1.116.75-1.702m-20.8-52.436h1.962v-3.986H59.834v3.986h1.963v-2.024h4.056v12.31h-1.67v2.284h5.648v-2.285h-1.67v-12.31h4.058v2.025"/>
            <path fill="#731B2A" d="M87.063 52.661a.023.023 0 0 0-.011-.003c-.812-.061-1.625-.118-2.438-.17l-.047-.003c-3.8 3.331-11.304 5.849-13.196 6.448l-.11.093c2.436-.438 6.074-1.308 9.85-2.98 1.856-.821 3.746-1.836 5.544-3.092.139-.096.273-.197.408-.293m-19.706-.78c-7.157 1.809-11.76 4.555-13.486 5.714a72.41 72.41 0 0 1 5.464-2.499l.187-.076.501-.2.281-.11.458-.178.347-.13c.141-.055.283-.108.426-.16.134-.05.27-.098.404-.147l.398-.143c.152-.054.306-.107.46-.16l.366-.127.545-.181.301-.1a56.288 56.288 0 0 1 2.81-.833c.872-.238 1.749-.454 2.631-.65-.697-.012-1.395-.016-2.093-.02m-13.594.328c-5.113 1.079-14.627 3.96-23.304 11.364-.083.096-.166.191-.247.289 4.411-3.067 11.993-7.625 21.366-10.398a60.411 60.411 0 0 1 5.715-1.4c-1.176.043-2.353.092-3.53.145m40.946 29.627l-.269.125-.144.067-.117.056-.177.084c-.024.013-.05.024-.075.037l-.2.095-.043.022-.21.103-.022.011a35.69 35.69 0 0 0-.432.217 11.815 11.815 0 0 1-.753 1.704l.003-.004-.004.006c-.599.983-1.32 1.886-2.176 2.617a6.137 6.137 0 0 1-1.384.913c-.488.234-1.035.37-1.58.517a89.161 89.161 0 0 1-3.317.771c-1.107.246-2.218.475-3.332.688a77.06 77.06 0 0 1-3.347.598c-.558.087-1.116.167-1.667.205a6.526 6.526 0 0 1-.403.01 2.137 2.137 0 0 1-.172-.014.332.332 0 0 1-.09-.02.335.335 0 0 1-.08-.021 4.389 4.389 0 0 1-.736-.342c-.976-.546-1.92-1.201-2.85-1.855-.722-.506-1.472-1.092-2.197-1.633l-.064.09.005.005.136.118-.004-.002c-.033-.025-.064-.05-.095-.072l.608.725a59.424 59.424 0 0 0 3.22 3.482c1.172 1.163 2.588 1.75 4.211 1.75.555 0 1.137-.072 1.726-.212.545-.134 1.137-.275 1.744-.422 1.8-.428 3.794-.906 5.118-1.25l.256-.067c.187-.049.357-.094.509-.136.259-.072.52-.136.782-.194 1.605-.372 3.8-.881 4.963-3.212.348-.694.7-1.388 1.056-2.079.582-1.131 1.17-2.26 1.76-3.386l.001-.001.116-.22-.274.126m-26.287 5.027l-.104-.099c-.604.672-1.137 1.364-1.76 2.016-.366.392-.738.777-1.117 1.156-.379.377-.76.756-1.156 1.095-.194.167-.414.341-.595.428-.199.089-.46.155-.712.214-.51.113-1.034.2-1.56.277-1.052.163-2.112.297-3.173.41a102.44 102.44 0 0 1-3.187.331 71.686 71.686 0 0 1-3.188.24c-.267.011-.534.02-.795.02-.259 0-.507-.02-.76-.063a5.69 5.69 0 0 1-1.478-.48c-.95-.448-1.82-1.087-2.6-1.826l.004.003c.105.13.22.251.332.374l-.078-.072a3.624 3.624 0 0 1-.21-.21c-.376-.407-3.76-3.339-5.525-4.864-.133-.061-.265-.12-.397-.183.334.495.671.988 1.012 1.478.52.752 1.052 1.496 1.595 2.231.234.316.47.63.712.94 1.92 2.471 4.337 4.754 8.975 4.754.58 0 1.199-.035 1.833-.107.148-.016.292-.033.433-.05l.4-.045c4.032-.464 5.139-.662 5.753-.768.158-.027.294-.051.44-.073l.178-.025a9.733 9.733 0 0 0 2.72-.826c.919-.446 1.822-1.117 2.264-2.108 1.117-2.497 1.343-3.094 1.352-3.116l.392-1.052"/>
            <path fill="#0E0F0D" d="M79.348 64.191a.895.895 0 0 0 .604-1.538.89.89 0 0 0-.638-.249.892.892 0 0 0-.876.91c.01.493.416.886.91.877zm5.495 4.025c-1.18-.57-2.47.151-4.82.195-1.749.063-3.214.082-3.31-2.662-.098-2.75 1.021-5.023 2.77-5.083 1.748-.062 3.344 2.117 3.558 4.858.06.756-.024 1.307-.211 1.716 1.625-.194 1.995.91 2.013.976zM54.3 64.854a.894.894 0 1 0-.05-1.786.894.894 0 0 0 .05 1.786zm2.701 1.438c.026 2.746-1.428 2.581-3.178 2.598-.178.006-.346.008-.513.008-.195.006-.384.008-.565.005-1.699-.005-2.784-.08-3.744.439.022-.06.444-1.002 1.969-1.387-.169-.371-.274-.887-.302-1.602-.105-2.745 1.588-4.996 3.337-5.012 1.75-.017 2.97 2.205 2.996 4.951zm33.122-18.884a13.29 13.29 0 0 1-.048.506 60.123 60.123 0 0 0-2.088-.523 69.261 69.261 0 0 0-7-1.152c-.08-.01-.163-.016-.246-.026a.853.853 0 0 0 .04-.105c.071-.256.132-.513.19-.77.606-2.68.575-5.35.507-6.643l8.357 2.377c.455 2.97.367 5.3.288 6.336zM79.73 45.817a.539.539 0 0 0 0 .288c-.874-.092-1.75-.173-2.626-.243.982-2.058 1.196-4.25 1.244-5.022a23.002 23.002 0 0 0 2.055-1.68c.05 1.476.015 4.152-.673 6.657zm-25.75.282a.551.551 0 0 0 0-.282c-.686-2.501-.723-5.178-.676-6.656.553.5 1.301 1.144 2.058 1.679.046.772.26 2.959 1.242 5.017-.876.069-1.75.15-2.624.243zm-1.262.138c-1.173.143-2.346.29-3.514.484-1.165.2-2.33.412-3.485.668-.7.163-1.394.335-2.089.523l-.025-.248c-.08-.861-.233-3.343.267-6.593l8.356-2.377c-.064 1.244-.098 3.764.44 6.34.074.359.159.717.256 1.073.011.035.025.07.04.101-.083.01-.164.018-.247.029zm41.887 3.374l-.21-.102-.348-.17a2.165 2.165 0 0 1-.233-.131c-.773-.357-1.584-.634-2.393-.9a9.765 9.765 0 0 0-.286-.087.6.6 0 0 0 .018-.073c.012-.092.22-1.629.094-4.051a31.864 31.864 0 0 0-.384-3.545.55.55 0 0 0-.39-.438l-1.191-.337c-.256-9.217-4.051-13.549-4.17-13.683 3.39 5.456 3.36 11.927 3.301 13.436l-7.385-2.1c-.005 0-.01 0-.017-.003a.698.698 0 0 0-.095-.014l-.027-.001a.458.458 0 0 0-.12.01c-.006 0-.013.005-.02.005a.409.409 0 0 0-.096.033c-.012.006-.022.013-.033.016-.025.017-.049.031-.073.049-.006.003-.013.007-.018.012-.007.005-.01.01-.014.014-.007.007-.015.012-.021.017-.007.008-.206.202-.515.494.022-.69.027-1.748-.051-3.039l-.024-.372c-.232-3.243-.999-7.798-3.29-11.786.02.057.247.719.54 1.833.737 2.804 1.898 8.479 1.265 14.636l-.008.085-.03.023c-.284.227-.576.444-.876.65a.557.557 0 0 0-.24.444c0 .028-.065 2.781-1.28 5.125-.022.038-.033.077-.045.117a134.247 134.247 0 0 0-9.086-.298 135.21 135.21 0 0 0-9.087.29c-.012-.036-.024-.074-.042-.11-1.217-2.343-1.28-5.096-1.282-5.124a.553.553 0 0 0-.238-.444 14.312 14.312 0 0 1-.91-.674c-.614-5.858.4-11.285 1.138-14.24.35-1.401.64-2.249.663-2.314-3.324 5.785-3.44 12.764-3.366 15.198a14.84 14.84 0 0 1-.514-.494c-.006-.005-.016-.01-.023-.017l-.012-.015c-.006-.005-.012-.008-.02-.012a.69.69 0 0 0-.073-.045c-.012-.006-.02-.014-.035-.02a.267.267 0 0 0-.09-.029c-.01-.003-.016-.008-.022-.008a.493.493 0 0 0-.122-.01h-.031a.714.714 0 0 0-.09.015c-.008.003-.012.003-.019.003l-7.382 2.1c-.06-1.51-.092-7.98 3.298-13.437-.117.135-3.911 4.467-4.17 13.685l-1.185.336a.545.545 0 0 0-.394.439 32.116 32.116 0 0 0-.385 3.54c-.125 2.426.083 3.964.097 4.055.005.024.012.048.016.072-.095.03-.192.057-.287.087-.81.266-1.623.544-2.397.903-.07.045-.143.086-.218.123l-.013.006c-.131.064-.246.121-.35.17l-.18.09c-.04.022-.079.041-.116.064a13.211 13.211 0 0 1 1.68-.512 31.108 31.108 0 0 1 1.713-.375 55.75 55.75 0 0 1 3.461-.54 74.33 74.33 0 0 1 3.48-.375c1.164-.1 2.326-.197 3.492-.265 4.663-.276 9.338-.363 14.015-.364 4.678.003 9.353.076 14.015.363 1.167.067 2.328.165 3.493.263 1.165.099 2.322.226 3.479.378 1.16.14 2.314.324 3.462.54.573.107 1.144.233 1.71.375.57.14 1.134.297 1.683.512-.03-.019-.062-.035-.091-.052z"/>
            <path fill="#0E0F0D" d="M68.16 28.194v12.31h1.671v2.284h-5.648v-2.285h1.67v-12.31h-4.057v2.025h-1.961v-3.985H74.18v3.985h-1.962v-2.025h-4.058zm7.498 3.498v-6.935H58.361v6.935h4.912v-2.025h1.104v9.36H62.71v5.232h8.597v-5.233h-1.672v-9.36h1.107v2.025h4.916z"/>
        </g>
    </g>
</svg>