<svg xmlns="http://www.w3.org/2000/svg" xmlns:xlink="http://www.w3.org/1999/xlink" width="132" height="132" viewBox="0 0 132 132">
    <defs>
        <circle id="b" cx="55" cy="55" r="55"/>
        <filter id="a" width="136.4%" height="136.4%" x="-18.2%" y="-11.8%" filterUnits="objectBoundingBox">
            <feOffset dy="7" in="SourceAlpha" result="shadowOffsetOuter1"/>
            <feGaussianBlur in="shadowOffsetOuter1" result="shadowBlurOuter1" stdDeviation="5.5"/>
            <feColorMatrix in="shadowBlurOuter1" values="0 0 0 0 0 0 0 0 0 0 0 0 0 0 0 0 0 0 0.154382 0"/>
        </filter>
    </defs>
    <g fill="none" fill-rule="evenodd">
        <g transform="translate(11 4)">
            <use fill="#000" filter="url(#a)" xlink:href="#b"/>
            <use fill="#FFF" xlink:href="#b"/>
        </g>
        <path fill="#D33833" d="M97.754 59.334c0 18.591-14.715 33.663-32.867 33.663-18.151 0-32.866-15.072-32.866-33.663 0-18.592 14.715-33.664 32.866-33.664 18.152 0 32.867 15.072 32.867 33.664"/>
        <path fill="#EF3D3A" fill-rule="nonzero" d="M33.36 67.671s-2.379-35.105 29.924-36.108L61.031 27.8l-17.529 5.893-5.008 5.767-4.382 8.4-2.505 9.78.752 6.52"/>
        <path fill="#231F20" fill-rule="nonzero" d="M42.377 36.37c-5.767 5.907-9.335 14.065-9.335 23.09 0 9.022 3.568 17.18 9.335 23.088 5.769 5.907 13.72 9.552 22.51 9.552 8.79 0 16.741-3.645 22.51-9.552 5.766-5.908 9.335-14.066 9.335-23.089 0-9.024-3.569-17.182-9.335-23.09-5.769-5.906-13.72-9.55-22.51-9.552-8.79.001-16.741 3.646-22.51 9.552zm-1.46 47.607C34.79 77.7 31 69.027 31 59.459c0-9.569 3.789-18.241 9.917-24.518 6.127-6.278 14.608-10.169 23.97-10.167 9.361-.002 17.843 3.89 23.97 10.167 6.128 6.277 9.917 14.95 9.917 24.518 0 9.568-3.789 18.242-9.918 24.518-6.126 6.277-14.608 10.167-23.97 10.167-9.36 0-17.842-3.89-23.969-10.167"/>
        <path fill="#F0D6B7" d="M78.722 59.52l-5.008.753-6.761.752-4.383.125-4.256-.125-3.256-1.003-2.88-3.135-2.253-6.394-.501-1.38-3.005-1.002-1.753-2.884-1.252-4.137 1.377-3.636 3.255-1.128 2.63 1.254 1.252 2.758 1.503-.251.5-.627-.5-2.884-.126-3.636.751-5.014-.029-2.865 2.283-3.655 4.007-2.884 7.011-3.009 7.763 1.129 6.76 4.89 3.131 5.014 2.003 3.636.501 9.027-1.502 7.774-2.755 6.895-2.629 3.636"/>
        <path fill="#335061" d="M74.465 81.21l-17.905.752v3.01l1.503 10.53-.751.879-12.52-4.263-.877-1.505-1.252-14.167-2.88-8.526-.626-2.006 10.016-6.895 3.13-1.254 2.755 3.385 2.379 2.132 2.755.877 1.251.376 1.503 6.52 1.127 1.379 2.88-1.003-2.004 3.887 10.893 5.14-1.377.752"/>
        <path fill="#6D6B6D" d="M44.791 37.454l3.255-1.128 2.63 1.254 1.252 2.758 1.503-.251.375-1.505-.751-2.883.751-6.896-.626-3.761 2.254-2.633 4.883-3.887-1.378-1.88-6.886 3.385-2.88 2.257-1.627 3.51-2.504 3.385-.752 4.012.501 4.263"/>
        <path fill="#DCD9D8" d="M49.925 25.669s1.878-4.639 9.39-6.896c7.512-2.257.376-1.63.376-1.63l-8.139 3.135-3.13 3.134-1.377 2.508 2.88-.251M46.168 36.576s-2.629-8.776 7.388-10.03l-.376-1.504-6.886 1.63-2.004 6.52.501 4.262 1.377-.878"/>
        <path fill="#F7E4CD" d="M50.175 48.236l1.64-1.59s.74.086.864.963c.125.878.5 8.777 5.885 13.04.49.389-4.007-.627-4.007-.627l-4.006-6.269M73.213 45.854s.292-3.8 1.314-3.508c1.022.293 1.022 1.316 1.022 1.316s-2.482 1.608-2.336 2.192"/>
        <path fill="#F7E4CD" fill-rule="nonzero" d="M83.605 31.938s-2.064.436-2.254 2.256c-.19 1.821 2.254.377 2.63.251M68.455 32.063s-2.755.376-2.755 2.131c0 1.756 3.13 1.63 4.007.878"/>
        <path fill="#F7E4CD" d="M51.427 40.213s-4.758-2.884-5.259-.126c-.5 2.758-1.628 4.765.752 7.648l-1.628-.501-1.502-3.887-.501-3.761 2.88-3.01 3.255.251 1.878 1.505.125 1.88M53.68 32.314s2.13-11.033 12.897-13.165c8.865-1.754 13.522.376 15.275 2.382 0 0-7.888-9.402-15.4-6.52-7.513 2.885-13.021 8.15-12.896 11.535.213 5.766.125 5.768.125 5.768M82.729 22.785s-3.631-.125-3.757 3.135c0 0 0 .501.25 1.002 0 0 2.88-3.26 4.633-1.504"/>
        <path fill="#F7E4CD" d="M66.83 27.262s-.626-5.004-4.886-2.095c-2.754 1.881-2.504 4.514-2.003 5.015.5.502.365 1.512.746.819.38-.693.255-2.95 1.633-3.577 1.377-.627 3.635-1.327 4.51-.162"/>
        <path fill="#49728B" d="M55.058 61.15l-11.77 5.266s4.884 19.433 2.38 25.451l-1.753-.626-.125-7.398-3.255-14.042-1.378-3.887 12.27-8.274 3.631 3.51M56.268 71.899l1.67 2.04v7.522h-2.004s-.25-5.265-.25-5.893c0-.626.25-2.883.25-2.883M56.31 82.59l-5.634.25 1.628 1.129 4.006.627"/>
        <path fill="#335061" d="M75.592 81.336l4.632-.126 1.127 11.535-4.758.627-1.001-12.036"/>
        <path fill="#335061" d="M76.844 81.336l7.011-.376s2.88-7.272 2.88-7.648c0-.376 2.504-10.532 2.504-10.532l-5.634-5.892-1.127-1.003-3.005 3.009v11.66l-2.63 10.782"/>
        <path fill="#49728B" d="M79.974 80.458l-4.382.878.626 3.51c1.627.753 4.382-1.254 4.382-1.254M80.1 58.518l8.763 6.519.251-3.01-6.636-6.142-2.379 2.633"/>
        <path fill="#FFF" d="M60.655 106.036l-2.592-10.533-1.29-7.772-.213-5.769 11.733-.625 7.299-.001-.664 13.165 1.127 10.156-.125 1.88-9.515.753-5.76-1.254"/>
        <path fill="#DCD9D8" d="M73.964 81.21s-.626 13.04 1.252 22.317c0 0-3.756 2.383-9.265 3.01l10.517-.377 1.252-.752-1.502-20.562-.376-4.388"/>
        <path fill="#FFF" d="M81.565 91.743l4.883-1.379 9.264-.501L97.09 85.6l-2.504-7.397-2.88-.377L87.7 79.08l-3.844 1.88-2.04-.375-1.59.625"/>
        <path fill="#DCD9D8" d="M81.476 89.234s3.255-1.504 3.756-1.378l-1.377-6.896 1.628-.627s1.127 6.52 1.127 7.272c0 0 7.011.376 7.637.376 0 0 1.503-2.884 1.127-5.893l1.377 4.012.125 2.257-2.003 3.009-2.253.501-3.757-.125-1.251-1.63-4.383.627-1.377.502"/>
        <path fill="#FFF" fill-rule="nonzero" d="M76.556 80.334l-2.754-7.021-2.88-4.138s.626-1.755 1.502-1.755h2.88l2.755 1.003-.25 4.64-1.253 7.271"/>
        <path fill="#DCD9D8" d="M77.094 77.95s-3.506-6.77-3.506-7.773c0 0 .626-1.504 1.503-1.128.876.376 2.755 1.379 2.755 1.379v-2.382l-4.258-.878-2.88.376 4.884 11.535 1.001.126"/>
        <path fill="#FFF" fill-rule="nonzero" d="M61.782 61.402l-3.468-.377-3.256-1.003v1.128l1.59 1.757 5.009 2.256"/>
        <path fill="#DCD9D8" d="M56.185 61.778s3.882 1.63 5.134 1.254l.124 1.503-3.505-.75-2.128-1.505.375-.502"/>
        <path fill="#D33833" d="M81.551 67.847c-2.124-.062-4.044-.315-5.724-.79.114-.69-.1-1.367.072-1.864.468-.337 1.253-.332 1.961-.411-.612-.302-1.472-.421-2.179-.247-.016-.479-.23-.775-.36-1.15 1.194-.427 4.014-3.226 5.6-2.299.755.44 1.077 2.959 1.135 4.183.049 1.016-.092 2.04-.505 2.578"/>
        <path stroke="#D33833" stroke-width=".747" d="M81.551 67.847c-2.124-.062-4.044-.315-5.724-.79.114-.69-.1-1.367.072-1.864.468-.337 1.253-.332 1.961-.411-.612-.302-1.472-.421-2.179-.247-.016-.479-.23-.775-.36-1.15 1.194-.427 4.014-3.226 5.6-2.299.755.44 1.077 2.959 1.135 4.183.049 1.016-.092 2.04-.505 2.578z"/>
        <path fill="#D33833" d="M71.392 64.37l-.019.485c-.663.436-1.734.43-2.462.798a6.39 6.39 0 0 1 2.649.67l-.048 1.216c-1.216.834-2.326 2.075-3.758 2.857-.677.37-3.052 1.32-3.772 1.152-.408-.094-.444-.6-.607-1.078-.347-1.022-1.146-2.649-1.216-4.187-.089-1.943-.284-5.2 1.807-4.8 1.687.323 3.649 1.101 4.955 1.816.798.437 1.26.977 2.47 1.07"/>
        <path stroke="#D33833" stroke-width=".747" d="M71.392 64.37l-.019.485c-.663.436-1.734.43-2.462.798a6.39 6.39 0 0 1 2.649.67l-.048 1.216c-1.216.834-2.326 2.075-3.758 2.857-.677.37-3.052 1.32-3.772 1.152-.408-.094-.444-.6-.607-1.078-.347-1.022-1.146-2.649-1.216-4.187-.089-1.943-.284-5.2 1.807-4.8 1.687.323 3.649 1.101 4.955 1.816.798.437 1.26.977 2.47 1.07z"/>
        <path fill="#D33833" d="M72.6 66.688c-.186-1.059-.4-1.36-.318-2.284 2.82-1.882 3.349 3.233.317 2.284"/>
        <path stroke="#D33833" stroke-width=".747" d="M72.6 66.688c-.186-1.059-.4-1.36-.318-2.284 2.82-1.882 3.349 3.233.317 2.284z"/>
        <path fill="#EF3D3A" d="M76.681 67.546s-.877-1.254-.25-1.63c.626-.377 1.252 0 1.628-.627.375-.627 0-1.003.125-1.755.125-.753.751-.878 1.377-1.004.626-.125 2.38-.376 2.63.251l-.752-2.256-1.502-.502-4.758 2.758-.25 1.38v2.758M63.535 71.683c-.15-1.956-.31-3.91-.487-5.865-.265-2.919.7-2.41 3.227-2.41.386 0 2.376.461 2.518.753.683 1.396-1.142 1.086.787 2.139 1.628.889 4.503-.54 3.846-2.516-.368-.439-1.918-.136-2.474-.425l-2.934-1.523c-1.245-.647-4.12-1.59-5.448-.686-3.362 2.29.212 8.01 1.412 10.398"/>
        <path fill="#231F20" d="M66.83 27.262c-3.413-.796-5.109 1.43-6.143 3.739-.924-.224-.556-1.482-.323-2.123.61-1.682 3.072-3.921 5.084-3.618.865.13 2.037.923 1.381 2.002M83.457 31.153l.161.007c.772 1.604 1.439 3.303 2.412 4.72-.652 1.52-4.935 2.864-4.869.135.926-.405 2.525-.082 3.346-.6-.474-1.305-1.16-2.416-1.05-4.262M68.577 31.195c.731 1.343.97 2.755 2.01 3.77.468.457 1.379 1.014.927 2.285-.105.3-.876.968-1.322 1.1-1.626.48-5.415.098-4.131-1.931 1.344.062 3.152.874 4.157-.104-.772-1.235-2.148-3.68-1.641-5.12M82.846 44.846c-2.448 1.575-5.178 3.288-9.19 2.89-.857-.746-1.184-2.406-.35-3.503.433.746.16 2.119 1.368 2.325 2.276.39 4.926-1.394 6.563-2.018 1.015-1.714-.088-2.344-1.002-3.447-1.873-2.26-4.384-5.062-4.293-8.446.757-.55.822.84.93 1.092.978 2.291 3.44 5.222 5.235 7.183.44.483 1.167.946 1.248 1.266.233.928-.606 2.04-.509 2.658M50.57 43.188c-.767-.438-.95-2.37-1.85-2.425-1.288-.078-1.054 2.506-1.048 4.018-.887-.806-1.042-3.287-.391-4.56-.742-.365-1.074.402-1.485.672.529-3.847 5.62-1.784 4.774 2.295M84.405 46.449c-1.14 2.172-2.752 4.564-6.096 4.634-.068-.702-.12-1.77.004-2.192 2.556-.246 4.135-1.549 6.092-2.442M68.384 47.857c2.133 1.123 6.052 1.244 8.951 1.159.156.636.152 1.422.158 2.197-3.726.186-8.132-.737-9.11-3.356M67.978 49.951c1.475 3.708 6.545 3.282 10.82 3.18-.189.48-.597 1.05-1.104 1.255-1.37.558-5.148.982-7.05-.03-1.206-.642-1.98-2.092-2.642-2.943-.319-.41-1.908-1.46-.024-1.462"/>
        <path fill="#81B0C4" d="M82.668 70.406c-1.73 2.969-3.387 6.017-5.44 8.636.86-2.535 1.23-6.777 1.359-10.012 1.801-.844 3.343.19 4.081 1.376"/>
        <path fill="#231F20" d="M91.982 81.075c-1.938.389-3.3 2.274-5.19 2.153 1.039-1.466 2.86-2.084 5.19-2.153M92.837 84.112c-1.58.167-3.435.423-5.037.291.758-1.16 3.68-.76 5.037-.291M93.384 86.73c-1.775.039-3.982.003-5.669-.139.998-1.073 4.518-.398 5.669.14"/>
        <path fill="#DCD9D8" d="M79.328 93.895c.255 2.232 1.139 4.494 1.028 6.94-.982.33-1.545.62-2.86.619-.093-2.078-.37-5.254-.288-7.235.647.043 1.6-.463 2.12-.324"/>
        <path fill="#F0D6B7" d="M76.466 60.994c-.891.583-1.65 1.31-2.506 1.932-1.899.095-2.934-.131-4.33-1.223.024-.087.164-.048.17-.156 2.031.907 4.614-.37 6.666-.553"/>
        <path fill="#81B0C4" d="M65.799 74.865c.558-2.423 2.746-3.677 4.732-5.011 2.05 2.606 3.298 5.957 4.671 9.19-3.245-.979-6.56-2.568-9.403-4.179"/>
        <path fill="#231F20" d="M77.208 94.219c-.083 1.98.195 5.157.287 7.235 1.316.001 1.88-.288 2.86-.62.112-2.445-.772-4.707-1.027-6.939-.52-.139-1.473.367-2.12.324zM56.732 82.954c.867 7.983 2.123 14.693 4.427 21.762 5.112 1.554 11.275 1.69 15.794.287-.83-3.99-.467-8.847-.952-13.104-.365-3.2-.179-6.42-.68-9.685-5.476-1.14-13.215-.266-18.59.74zm19.884-.69c-.046 3.429.153 6.81.414 10.243 1.315-.197 2.207-.33 3.429-.598-.397-3.304-.348-7.023-1.156-9.946-.934.009-1.756-.01-2.687.301zm6.669-.552c-.624-.143-1.35-.006-1.947.006.28 2.795.96 5.878 1.2 8.812.938.03 1.439-.414 2.21-.563.042-2.575-.224-6.123-1.463-8.255zm10.098 9.239c1.955-.476 3.184-2.874 2.637-5.336-.367-1.655-1.02-4.771-1.72-5.83-.516-.783-1.918-1.808-3.037-1.09-1.82 1.166-5.027 1.505-6.354 2.918.666 2.22.872 5.267 1.147 8.08 2.274.141 5.072-.628 6.963.188-1.32.428-3.034.432-4.174 1.056.932.45 3.115.36 4.538.014zM75.202 79.045c-1.373-3.234-2.62-6.585-4.67-9.191-1.987 1.334-4.175 2.588-4.733 5.011 2.843 1.611 6.158 3.2 9.403 4.18zm3.385-10.015c-.13 3.235-.498 7.477-1.36 10.012 2.054-2.619 3.71-5.667 5.441-8.636-.738-1.186-2.28-2.22-4.081-1.376zm-3.837-1.365c-.778-.084-1.438.896-2.45.472-.232.257-.442.534-.679.785 2.234 2.696 3.25 6.521 4.975 9.69.926-3.044.82-6.378 1.023-9.7-1.272.08-1.978-1.152-2.87-1.247zm-2.468-3.261c-.083.923.132 1.225.317 2.284 3.032.949 2.502-4.166-.317-2.284zm-3.361-1.105c-1.306-.715-3.268-1.493-4.955-1.815-2.091-.4-1.896 2.856-1.807 4.8.07 1.537.869 3.164 1.216 4.186.163.477.2.984.607 1.078.72.169 3.095-.783 3.772-1.152 1.432-.782 2.542-2.023 3.758-2.857l.048-1.216a6.39 6.39 0 0 0-2.65-.67c.729-.367 1.8-.362 2.463-.798l.019-.486c-1.211-.093-1.673-.633-2.471-1.07zm-12.476-2.27c-1.084 1.103 3.04 2.605 4.354 2.686-.007-.697.397-1.355.315-1.855-1.56-.274-3.609-.093-4.669-.83zm13.354.518c-.005.108-.145.069-.168.156 1.395 1.092 2.43 1.318 4.329 1.223.856-.622 1.615-1.349 2.506-1.932-2.052.184-4.635 1.46-6.667.553zm12.257 3.722c-.058-1.224-.38-3.742-1.135-4.183-1.586-.927-4.406 1.872-5.6 2.299.13.375.344.671.36 1.15.707-.174 1.567-.055 2.18.247-.709.079-1.494.074-1.962.411-.172.497.042 1.174-.072 1.864 1.68.475 3.6.728 5.724.79.413-.538.554-1.562.505-2.578zM54.62 62.096c-.34-.243-2.643-3.244-2.958-3.12-4.167 1.646-8.063 4.492-11.545 7.183 3.32 7.133 4.66 15.872 4.896 24.295 3.803 1.78 7.143 4.348 12.304 4.616-.598-4.23-1.143-8.005-1.482-11.988-1.296-.547-3.156.025-4.37-.17-.01-1.464 1.853-.64 2.008-1.625.117-.745-1.025-.802-.653-1.974.949.345 1.447 1.108 2.459 1.394.924-2.025-.013-5.608.12-7.3.025-.319.158-1.761.87-1.508.628.224-.037 3.837.032 5.439.063 1.476-.178 2.904.42 3.83a142.3 142.3 0 0 1 15.448-1.267c-1.187-.51-2.597-.992-4.143-1.865-.838-.473-3.48-1.458-3.722-2.255-.386-1.27 1.013-1.946 1.252-3.035-2.517 1.374-3.008-1.318-3.604-3.225-.54-1.728-.846-3.018-.979-4.015-2.168-1.035-4.486-2.083-6.353-3.41zm25.234-2.756c3.472-1.686 4.098 6.3 2.737 8.873.21.767.933 1.061 1.229 1.75-1.938 3.476-4.09 6.72-6.066 10.155 1.47-.917 3.57-.164 5.301-.85.633-.25 1.09-1.7 1.57-2.86 1.317-3.192 2.7-7.216 3.315-10.261.139-.694.517-2.206.433-2.824-.152-1.106-1.65-1.925-2.412-2.61-1.404-1.262-2.289-2.374-3.753-3.555-.594.878-1.868 1.468-2.354 2.182zM46.68 28.51c-1.654 1.822-1.308 5.237-1.107 7.667 2.99-1.884 6.959.149 6.921 3.353 1.428-.038.534-1.786.276-2.911-.844-3.677 1.421-7.672.102-11.035-2.56.195-4.665 1.242-6.192 2.925zm11.837-10.58c-3.745 1.063-8.544 3.788-10.083 7.157 1.191-.173 2.018-.775 3.194-.85.444-.028 1.026.187 1.537.06 1.018-.253 1.876-2.537 2.644-3.387.748-.83 1.648-1.185 2.263-1.942.396-.191.98-.178 1.003-.773-.172-.183-.352-.323-.558-.265zm19.496 1c-3.887-2.196-10.467-3.848-14.602-1.784-3.336 1.666-7.846 4.422-9.384 7.915 1.436 3.37-.426 6.459-.544 9.88-.063 1.822.856 3.411.926 5.393-.491.812-1.993.912-3.033.857-.35-1.754-.962-3.725-2.765-3.922-2.552-.28-4.418 1.835-4.533 4.044-.138 2.6 1.993 6.906 5.012 6.607 1.167-.115 1.453-1.286 2.724-1.274.69 1.376-1.062 1.808-1.242 2.793-.047.254.145 1.248.257 1.714.548 2.269 1.77 5.206 2.974 6.933 1.528 2.191 4.528 2.522 7.757 2.736.576-1.243 2.7-1.141 4.085-.816-1.66-.658-3.201-2.252-4.48-3.664-1.467-1.62-2.954-3.357-3.03-5.474 2.775 3.854 5.067 7.22 10.111 8.915 3.817 1.282 8.275-.588 11.208-2.65 1.217-.857 1.943-2.217 2.808-3.462 3.237-4.662 4.747-11.317 4.415-17.767-.137-2.66-.13-5.31-1.022-7.1-.932-1.871-4.082-3.546-5.926-1.853-.342-1.82 1.533-2.945 3.736-2.29-1.57-2.03-3.22-4.47-5.452-5.73zm7.242 60.018c3.038-1.512 8.713-4.07 10.618.005.703 1.503 1.527 4.042 1.891 5.593.514 2.188-.557 6.787-2.803 7.52-1.984.649-4.298.61-6.688.129-.28-.234-.594-.643-.813-1.069-1.706-.066-3.304.092-4.651.794.127 1.264-.726 1.467-1.526 1.727-.593 2.355 1.186 5.43.76 7.577-.303 1.53-2.183 1.767-3.565 2.053-.045.85.061 1.56.155 2.279-.316 1.165-1.732 1.829-3.075 1.991-4.417.532-11.123.771-15.372-.759-1.185-2.912-2.119-6.453-3.106-9.778-4.144.443-7.495-1.79-10.654-3.254-1.094-.508-2.607-.787-3.016-1.66-.396-.843-.234-2.461-.332-3.99-.25-3.902-.465-7.667-1.494-11.663-.462-1.794-1.268-3.376-1.83-5.104-.52-1.602-1.427-3.58-1.663-5.178-.351-2.367 1.875-2.498 3.298-3.524 2.2-1.586 3.927-2.463 6.31-3.895.705-.424 2.834-1.497 3.076-1.991.481-.98-.826-2.361-1.176-3.13-.553-1.214-.84-2.246-.92-3.444-1.999-.316-3.514-1.508-4.43-2.85-1.514-2.224-2.564-6.336-1.254-9.465.103-.246.616-.73.691-1.109.15-.745-.28-1.736-.307-2.528-.138-4.066.687-7.57 3.42-8.795 1.11-4.427 5.082-5.899 8.824-8.099 1.398-.822 2.94-1.348 4.533-1.934 5.712-2.105 14.477-1.709 19.218 1.881 2.01 1.523 5.223 4.738 6.373 7.065 3.035 6.145 2.82 16.415.696 23.89-.285 1.003-.699 2.478-1.277 3.683-.403.842-1.656 2.527-1.504 3.27.157.768 2.857 2.82 3.435 3.38 1.043 1.007 3.023 2.343 3.183 3.614.173 1.352-.595 3.201-.983 4.506-1.3 4.355-2.568 8.38-4.042 12.262"/>
        <path fill="#F7E4CD" d="M64.99 48.806c.165-.22 1.07-.554 2.338.057 0 0-1.502.251-1.377 2.76l-.626-.126s-.647-2.274-.335-2.691"/>
        <path fill="#1D1919" d="M75.967 70.366a.69.69 0 1 1-1.378 0 .69.69 0 0 1 1.378 0M76.656 73.563a.69.69 0 1 1-1.378 0 .69.69 0 0 1 1.378 0"/>
    </g>
</svg>