<svg xmlns="http://www.w3.org/2000/svg" xmlns:xlink="http://www.w3.org/1999/xlink" width="132" height="132" viewBox="0 0 132 132">
    <defs>
        <circle id="b" cx="55" cy="55" r="55"/>
        <filter id="a" width="136.4%" height="136.4%" x="-18.2%" y="-11.8%" filterUnits="objectBoundingBox">
            <feOffset dy="7" in="SourceAlpha" result="shadowOffsetOuter1"/>
            <feGaussianBlur in="shadowOffsetOuter1" result="shadowBlurOuter1" stdDeviation="5.5"/>
            <feColorMatrix in="shadowBlurOuter1" values="0 0 0 0 0 0 0 0 0 0 0 0 0 0 0 0 0 0 0.154382 0"/>
        </filter>
        <radialGradient id="c" cx="3.685%" cy="93.523%" r="105.029%" fx="3.685%" fy="93.523%" gradientTransform="matrix(1 0 0 .9631 0 .035)">
            <stop offset="0%" stop-color="#212121"/>
            <stop offset="100%" stop-color="#B8B8B8"/>
        </radialGradient>
        <linearGradient id="d" x1="50.878%" x2="50.878%" y1="134.662%" y2="0%">
            <stop offset="0%" stop-color="#4B4B4B"/>
            <stop offset="100%" stop-color="#FFF"/>
        </linearGradient>
        <linearGradient id="e" x1="31.395%" x2="56.462%" y1="84.086%" y2="29.203%">
            <stop offset="0%" stop-color="#26761E"/>
            <stop offset="100%" stop-color="#2CB134" stop-opacity=".996"/>
        </linearGradient>
        <radialGradient id="f" cx="30.724%" cy="48.591%" r="53.008%" fx="30.724%" fy="48.591%" gradientTransform="matrix(.78922 0 0 1 .065 0)">
            <stop offset="0%" stop-color="#FFF"/>
            <stop offset="100%" stop-color="#FFF" stop-opacity="0"/>
        </radialGradient>
    </defs>
    <g fill="none" fill-rule="evenodd">
        <g transform="translate(11 4)">
            <use fill="#000" filter="url(#a)" xlink:href="#b"/>
            <use fill="#FFF" xlink:href="#b"/>
        </g>
        <g fill-rule="nonzero">
            <path fill="url(#c)" d="M11.346 4.31h38.2c6.267 0 11.347 5.275 11.347 11.782v39.663c0 6.506-5.08 11.781-11.346 11.781h-38.2C5.08 67.536 0 62.261 0 55.756V16.09c0-6.506 5.08-11.78 11.346-11.78z" transform="translate(34 25)"/>
            <path fill="#2B2B2B" d="M46.14 31.023c-5.773 0-10.453 4.749-10.453 10.606v38.59c0 5.857 4.68 10.605 10.452 10.605h38.03c5.773 0 10.453-4.748 10.453-10.606V41.63c0-5.857-4.68-10.606-10.452-10.606H46.14zm0-1.712h38.03c6.704 0 12.139 5.515 12.139 12.318v38.59c0 6.802-5.435 12.317-12.14 12.317H46.14C39.435 92.536 34 87.021 34 80.218v-38.59c0-6.802 5.435-12.317 12.14-12.317z"/>
            <path fill="url(#d)" d="M11.357 7.185h38.179c5.49 0 9.94 4.46 9.94 9.962V40.33c0 5.502-4.45 9.962-9.94 9.962H11.357c-5.49 0-9.94-4.46-9.94-9.962V17.147c0-5.502 4.45-9.962 9.94-9.962z" opacity=".81" transform="translate(34 25)"/>
            <path fill="#EEE" d="M60.283 63.17l-5.55 1.858c-.748-2.206-2.332-3.309-4.753-3.309-2.585 0-3.877.837-3.877 2.512 0 .668.241 1.233.724 1.696.483.463 1.575.864 3.275 1.205 2.843.572 4.924 1.15 6.243 1.736 1.32.585 2.432 1.529 3.336 2.829.904 1.3 1.357 2.754 1.357 4.36 0 2.52-.97 4.699-2.907 6.537-1.939 1.838-4.812 2.757-8.62 2.757-2.857 0-5.288-.65-7.295-1.95-2.006-1.3-3.329-3.23-3.968-5.79l6.04-1.37c.68 2.602 2.57 3.902 5.671 3.902 1.496 0 2.612-.29 3.346-.868.735-.579 1.102-1.27 1.102-2.074 0-.816-.333-1.45-1-1.899-.666-.45-1.952-.871-3.856-1.266-3.55-.736-6.08-1.74-7.59-3.013-1.51-1.273-2.264-3.136-2.264-5.587 0-2.478.9-4.568 2.703-6.27 1.802-1.702 4.247-2.553 7.335-2.553 5.468 0 8.984 2.185 10.548 6.556zm21.864 12.459H68.886c-.013.32-.02.64-.02.96 0 1.47.39 2.58 1.173 3.33.782.748 1.717 1.123 2.805 1.123 2.027 0 3.244-1.083 3.652-3.248l5.509.408c-1.537 4.767-4.659 7.15-9.365 7.15-2.054 0-3.798-.412-5.233-1.236-1.435-.824-2.619-2.026-3.55-3.605-.932-1.58-1.398-3.473-1.398-5.679 0-3.281.935-5.93 2.806-7.945 1.87-2.016 4.274-3.023 7.212-3.023 2.652 0 4.927.936 6.824 2.808 1.898 1.873 2.847 4.858 2.847 8.957zm-13.281-3.534h7.324c-.19-2.832-1.353-4.248-3.489-4.248-2.285 0-3.564 1.416-3.835 4.248z"/>
            <path fill="#232323" d="M50.41 56.159c-2.992 0-5.334.822-7.053 2.46-1.717 1.636-2.57 3.63-2.57 6.011 0 2.353.705 4.106 2.108 5.299 1.447 1.23 3.926 2.223 7.43 2.955 1.975.413 3.318.858 4.056 1.36.806.548 1.222 1.345 1.222 2.337 0 .974-.444 1.815-1.296 2.493-.838.666-2.064.987-3.67.987-3.154 0-5.207-1.306-6.05-3.874l-5.142 1.175c.654 2.24 1.87 3.935 3.658 5.104 1.938 1.266 4.294 1.902 7.081 1.902 3.72 0 6.495-.895 8.347-2.666 1.857-1.776 2.776-3.86 2.776-6.283 0-1.532-.425-2.91-1.28-4.148-.86-1.25-1.911-2.148-3.156-2.705-1.29-.577-3.356-1.157-6.186-1.732-1.8-.363-2.966-.796-3.54-1.35a2.798 2.798 0 0 1-.88-2.078c0-2.029 1.553-3.043 4.392-3.043 2.473 0 4.193 1.095 5.077 3.236l4.664-1.575c-1.58-3.92-4.876-5.865-9.988-5.865zm4.73 8.678l-.157-.463c-.685-2.039-2.094-3.028-4.326-3.028-2.367 0-3.417.687-3.417 2.06 0 .544.188.99.579 1.367.399.386 1.43.769 3.057 1.098 2.895.587 5.02 1.183 6.39 1.796 1.411.632 2.6 1.649 3.561 3.042.968 1.404 1.454 2.978 1.454 4.71 0 2.697-1.033 5.038-3.08 6.997-2.053 1.963-5.066 2.935-9.017 2.935-2.966 0-5.507-.685-7.61-2.06-2.127-1.39-3.532-3.457-4.205-6.175l-.12-.488 7.027-1.606.119.46c.626 2.414 2.33 3.595 5.241 3.595 1.407 0 2.428-.267 3.07-.776.626-.498.923-1.062.923-1.72 0-.667-.256-1.157-.792-1.522-.604-.41-1.85-.823-3.71-1.212-3.648-.762-6.265-1.81-7.86-3.166-1.637-1.393-2.453-3.424-2.453-6.05 0-2.654.963-4.906 2.875-6.728 1.912-1.82 4.494-2.727 7.721-2.727 5.703 0 9.433 2.339 11.082 6.986l.168.472-6.52 2.203zm24.706 1.399c-1.82-1.811-3.988-2.712-6.532-2.712-2.826 0-5.117.97-6.907 2.914-1.795 1.952-2.695 4.522-2.695 7.736 0 2.157.448 3.994 1.34 5.518.896 1.534 2.028 2.693 3.398 3.486 1.367.791 3.041 1.19 5.029 1.19 4.326 0 7.222-2.084 8.765-6.327l-4.497-.337c-.536 2.146-1.92 3.27-4.063 3.27a4.407 4.407 0 0 1-3.162-1.278c-.893-.862-1.332-2.119-1.332-3.737 0-.283.007-.614.021-.994l.018-.473h13.334c-.072-3.788-.986-6.533-2.717-8.256zm-9.682 9.723c0 1.369.349 2.368 1.031 3.026a3.44 3.44 0 0 0 2.49 1.005c1.799 0 2.83-.925 3.199-2.898l.08-.432 6.6.494-.19.595c-1.612 5.04-4.94 7.602-9.895 7.602-2.15 0-3.99-.438-5.513-1.32-1.52-.88-2.772-2.163-3.753-3.839-.984-1.684-1.475-3.693-1.475-6.018 0-3.452.984-6.262 2.956-8.405 1.977-2.15 4.528-3.228 7.62-3.228 2.8 0 5.213 1.002 7.216 2.995 2.016 2.007 3.011 5.164 3.011 9.448v.491H70.17c-.004.176-.006.337-.006.484zm-1.023-4.073l.052-.539c.296-3.11 1.772-4.76 4.347-4.76 2.44 0 3.792 1.662 4 4.774l.035.525H69.14zm7.38-.983c-.269-2.28-1.246-3.333-2.98-3.333-1.885 0-2.968 1.061-3.313 3.333h6.292z"/>
            <path fill="url(#e)" d="M28.322 24.986l11.58 12.374L67.973 8.243l-3.86-6.806-23.44 24.632-8.028-7.58z" transform="translate(34 25)"/>
            <path fill="url(#f)" d="M29.738 23.503l11.423 8.11 26.812-25.37-2.685-4.806-23.59 24.494-7.872-7.096z" transform="translate(34 25)"/>
            <path fill="#000" d="M97.736 25l4.237 7.683-27.82 29.677-11.83-13.003 4.715-7.288 7.852 7.623L97.736 25zM74.164 60.934l26.626-28.405-3.25-5.892-22.614 24.442-7.72-7.496-3.67 5.67 10.628 11.68z"/>
        </g>
    </g>
</svg>