<svg xmlns="http://www.w3.org/2000/svg" xmlns:xlink="http://www.w3.org/1999/xlink" width="124" height="124" viewBox="0 0 124 124">
    <defs>
        <circle id="b" cx="55" cy="55" r="55"/>
        <filter id="a" width="123.6%" height="123.6%" x="-11.8%" y="-7.3%" filterUnits="objectBoundingBox">
            <feOffset dy="5" in="SourceAlpha" result="shadowOffsetOuter1"/>
            <feGaussianBlur in="shadowOffsetOuter1" result="shadowBlurOuter1" stdDeviation="3.5"/>
            <feColorMatrix in="shadowBlurOuter1" values="0 0 0 0 0 0 0 0 0 0 0 0 0 0 0 0 0 0 0.154382 0"/>
        </filter>
    </defs>
    <g fill="none" fill-rule="evenodd">
        <g transform="translate(7 2)">
            <use fill="#000" filter="url(#a)" xlink:href="#b"/>
            <use fill="#FFF" xlink:href="#b"/>
        </g>
        <g fill-rule="nonzero">
            <g fill="#E01E5A">
                <path d="M43.608 65.104c0 3.928-3.209 7.138-7.138 7.138s-7.138-3.21-7.138-7.138c0-3.93 3.21-7.139 7.138-7.139h7.138v7.139zM47.205 65.104c0-3.93 3.21-7.139 7.138-7.139 3.93 0 7.139 3.21 7.139 7.139v17.873c0 3.929-3.21 7.138-7.139 7.138-3.928 0-7.138-3.21-7.138-7.138V65.104z"/>
            </g>
            <g fill="#36C5F0">
                <path d="M54.343 36.608c-3.928 0-7.138-3.209-7.138-7.138s3.21-7.138 7.138-7.138c3.93 0 7.139 3.21 7.139 7.138v7.138h-7.139zM54.343 40.205c3.93 0 7.139 3.21 7.139 7.138 0 3.93-3.21 7.139-7.139 7.139H36.47c-3.929 0-7.138-3.21-7.138-7.139 0-3.928 3.21-7.138 7.138-7.138h17.873z"/>
            </g>
            <g fill="#2EB67D">
                <path d="M82.839 47.343c0-3.928 3.209-7.138 7.138-7.138s7.138 3.21 7.138 7.138c0 3.93-3.21 7.139-7.138 7.139h-7.138v-7.139zM79.242 47.343c0 3.93-3.21 7.139-7.138 7.139-3.93 0-7.139-3.21-7.139-7.139V29.47c0-3.929 3.21-7.138 7.139-7.138 3.928 0 7.138 3.21 7.138 7.138v17.873z"/>
            </g>
            <g fill="#ECB22E">
                <path d="M72.104 75.839c3.928 0 7.138 3.209 7.138 7.138s-3.21 7.138-7.138 7.138c-3.93 0-7.139-3.21-7.139-7.138v-7.138h7.139zM72.104 72.242c-3.93 0-7.139-3.21-7.139-7.138 0-3.93 3.21-7.139 7.139-7.139h17.873c3.929 0 7.138 3.21 7.138 7.139 0 3.928-3.21 7.138-7.138 7.138H72.104z"/>
            </g>
        </g>
    </g>
</svg>