<svg width="690" height="245" fill="none" xmlns="http://www.w3.org/2000/svg"><path fill-rule="evenodd" clip-rule="evenodd" d="M0 130c24.6-15.8 49.3-50 65-61 8.6-6.1 37.2-.2 55-6 27.9-9.1 43-50.9 100.4-54.1 24-1.4 17.6 36 71.5 37.1 26.2.6 60.8-46 79-45 12 .6 28.8 12.8 47.3 26.6 11.8 8.9 31.6 10.7 43.7 18.4 11 7 17.2 18 27 20 19.3 3.9 25-5.8 44-1 49.2 12.4 58.5 63.2 157.1 62v118H0V130z" fill="url(#paint0_linear)"/><defs><linearGradient id="paint0_linear" x1="0" y1="245" x2="0" y2="0" gradientUnits="userSpaceOnUse"><stop stop-color="#323B79"/><stop offset="1" stop-color="#4652AA"/></linearGradient></defs></svg>