<svg width="690" height="125" fill="none" xmlns="http://www.w3.org/2000/svg"><path fill-rule="evenodd" clip-rule="evenodd" d="M0 74.5C38 88.1 70.2 89.4 110 89c20.8-.2 47.7-24.9 86-23 19.2 1 21.7 18.8 41 7 80.9-49.6 79.6-6.5 124-15 32.7-6.3 78.3-48.1 118-57 10.2-2.3 23.2 17 31 19 15.9 4.3 20 1.7 24 0 9.6-4.1 39.6-17.8 67-6 18.8 8.1 30 28.4 42 38 12.7 10.3 29 18.2 47 22.7V125H0V74.5z" fill="url(#paint0_linear)"/><defs><linearGradient id="paint0_linear" x1="0" y1="125" x2="0" y2="0" gradientUnits="userSpaceOnUse"><stop stop-color="#1E234A"/><stop offset="1" stop-color="#404A9A"/></linearGradient></defs></svg>