<svg width="690" height="356" fill="none" xmlns="http://www.w3.org/2000/svg"><path fill-rule="evenodd" clip-rule="evenodd" d="M690 69c-11.6 3.7-22.3 9.7-33 12-18.5 4-30.7-10.5-46-10-19.2.7-10.3 22.1-47 13-7.5-1.9-22.4-16.7-33-19-6.5-1.4-8 5.8-14 5-8.3-1.1-16 1.2-21.4 1.6-18 1.4-11 11.8-30.8 13.3-12.1 1-9.8.7-16.9-5.9-22.1-20.7-24.2-17.8-55-2-3.3 1.7-9.6-15.2-27-23-15.9-7.2-43.7 7.4-56 1-4.2-2.2-13.7-15-19-18-4.7-2.7-5.1 4.4-10 2-16-8.1-30-35.4-42-38-10-2.2-18.6 19.5-27 21-6.5 1.1-11.5-5.7-27 1-9.2 4-3.4 16.6-10 16-22.2-1.9-21.6 2.5-24 9-4 11.1-18.2 12-28 13-7.5.8-8-25.4-20-25-15.8.5-17.5 24.6-26 23-43.5-8.2-15 19-45 16-16.3-1.6-10.6-11.4-17-10C3 67.5 1.6 69 0 69v280l690 7V69z" fill="url(#paint0_linear)"/><defs><linearGradient id="paint0_linear" x1="0" y1="356" x2="0" y2="0" gradientUnits="userSpaceOnUse"><stop stop-color="#2C336A"/><stop offset="1" stop-color="#2D346C"/></linearGradient></defs></svg>