<svg width="690" height="153" fill="none" xmlns="http://www.w3.org/2000/svg"><path fill-rule="evenodd" clip-rule="evenodd" d="M0 40c17.4-4.2 28.8-20 45-25C55.8 11.6 50.5.1 82.7.9c13.1.3 30 16.9 43.1 16.1 12-.7 23.8-11.1 35-11 7.4.1 13.6-5.8 20.8-5.8C216.2.5 198.9 23 287.9 25c14.7.3 39.5-11.6 68-11 23.7.5 50.4 13.5 72 14 6 .1 12.4-7.1 19-7 10.4.2 20.5 7.7 25 8 16.7 1.2 28.6-14.7 42-15 35.3-.8 35 19.9 52 16 5.3-1.2 7.6-7.5 14-9 9.2-2.1 13.7.2 23-1 13.8-1.8 14.5-20.6 44-17 20.8 2.5 28 28.5 43.1 37v113H0V40z" fill="url(#paint0_linear)"/><defs><linearGradient id="paint0_linear" x1="0" y1="153" x2="0" y2="0" gradientUnits="userSpaceOnUse"><stop stop-color="#4D5ABB"/><stop offset="1" stop-color="#6F82FF"/></linearGradient></defs></svg>