<svg width="690" height="292" fill="none" xmlns="http://www.w3.org/2000/svg"><path fill-rule="evenodd" clip-rule="evenodd" d="M0 75a107 107 0 0018 9c6.2 2.3 22-21.1 30-22 11.3-1.2 23.5 22.5 32 20 3.2-1 20.5-12.3 35-14 8.3-1 12.2 5.3 21 7 43.1 8.6 92.3 8.5 125 0 18.7-4.9 47.7-14.4 74-14 22.4.4 41.4 11.5 67.7 1 9.1-3.5 17-16.8 25.2-21 9.4-4.7 19.1-.5 27-6 12.7-8.8 21.6-20 35-26a77.3 77.3 0 0127-4c5.1-.1 9.7-4.9 14-4 10.1 2 18.6 11.6 28 16 10 4.6 26.7-3.2 36 0 7 2.4 6.5 15.8 14 19 10 4.3 30 .2 40 5 16.6 7.8 23.4 24.9 41.1 34v217H0V75z" fill="url(#paint0_linear)"/><defs><linearGradient id="paint0_linear" x1="0" y1="292" x2="0" y2="0" gradientUnits="userSpaceOnUse"><stop stop-color="#2E366F"/><stop offset="1" stop-color="#404A9A"/></linearGradient></defs></svg>