<svg width="148" height="148" viewBox="0 0 148 148" xmlns="http://www.w3.org/2000/svg"><script xmlns="" type="text/javascript" charset="utf-8" id="zm-extension"/><title>139B852A-C463-4B71-82BD-C24892E2A62B</title><g fill="none" fill-rule="evenodd"><path d="M74 2C34.299 2 2 34.299 2 74s32.299 72 72 72 72-32.299 72-72S113.701 2 74 2m0 146c-40.804 0-74-33.196-74-74S33.196 0 74 0s74 33.196 74 74-33.196 74-74 74" fill="#2A2421"/><path d="M74.482 146.373c39.855 0 72.165-32.31 72.165-72.165 0-39.856-32.31-72.166-72.165-72.166v144.331z" fill="#FF1628"/><path d="M74 2C34.299 2 2 34.299 2 74s32.299 72 72 72 72-32.299 72-72S113.701 2 74 2m0 146c-40.804 0-74-33.196-74-74S33.196 0 74 0s74 33.196 74 74-33.196 74-74 74" fill="#2A2421"/><path d="M38.038 114.175H26.622a1 1 0 1 1 0-2h9.416V92.508h-9.5a1 1 0 1 1 0-2h11.5v23.667z" fill="#000"/><path d="M62.872 110.675H37.205a1 1 0 1 1 0-2h25.667c3.86 0 7-3.141 7-7v-16c0-1.103-.897-2-2-2s-2 .897-2 2v9.5a1 1 0 1 1-2 0v-9.5c0-2.206 1.794-4 4-4s4 1.794 4 4v16c0 4.963-4.037 9-9 9M41.913 95.717h-4.875a1 1 0 1 1 0-2h4.875c2.206 0 4-1.794 4-4V65.655a3.316 3.316 0 0 1 3.312-3.313 3.316 3.316 0 0 1 3.313 3.313v15.937a1 1 0 1 1-2 0V65.655c0-.724-.589-1.313-1.313-1.313-.723 0-1.312.589-1.312 1.313v24.062c0 3.309-2.69 6-6 6" fill="#000"/><path d="M56.632 82.738a1 1 0 0 1-1-1V60.446a1.543 1.543 0 0 0-3.083 0v4.792a1 1 0 1 1-2 0v-4.792a3.546 3.546 0 0 1 3.542-3.542 3.546 3.546 0 0 1 3.54 3.542v21.292a1 1 0 0 1-1 1m11.157.104h-.006a1 1 0 0 1-.994-1.006l.108-17.18c.003-.45-.17-.874-.488-1.194a1.682 1.682 0 0 0-2.87 1.184v16.32a1 1 0 1 1-2 0v-16.32a3.683 3.683 0 0 1 3.68-3.68c.986 0 1.913.387 2.608 1.086.696.7 1.076 1.63 1.07 2.616l-.108 17.18a1 1 0 0 1-1 .994" fill="#000"/><path d="M56.636 66.28a1 1 0 0 1-1-1v-7.782c0-2.223 1.773-4.032 3.953-4.032 2.18 0 3.954 1.81 3.954 4.032v6.656a1 1 0 1 1-2 0v-6.656c0-1.12-.877-2.032-1.954-2.032s-1.953.912-1.953 2.032v7.781a1 1 0 0 1-1 1m17.902-18.562a1 1 0 0 1-1-1V26.883a1 1 0 0 1 2 0v19.834a1 1 0 0 1-1 1m-15.552-.302a.999.999 0 0 1-1.414 0L43.548 33.391a1 1 0 0 1 1.415-1.414l14.023 14.024a.999.999 0 0 1 0 1.414" fill="#000"/><path d="M122.006 114.175H110.59V90.508h11.5a1 1 0 1 1 0 2h-9.5v19.667h9.416a1 1 0 1 1 0 2" fill="#FFF"/><path d="M111.455 95.925h-8.917V80.383a2.377 2.377 0 0 0-2.375-2.375 2.377 2.377 0 0 0-2.375 2.375v9.875a1 1 0 1 1-2 0v-9.875a4.38 4.38 0 0 1 4.375-4.375 4.38 4.38 0 0 1 4.375 4.375v13.542h6.917a1 1 0 1 1 0 2" fill="#FFF"/><path d="M93.35 78.78a1 1 0 0 1-1-1v-13a4.63 4.63 0 0 1 4.626-4.626 4.63 4.63 0 0 1 4.625 4.625v12.25a1 1 0 1 1-2 0V64.78a2.629 2.629 0 0 0-2.625-2.625 2.629 2.629 0 0 0-2.625 2.625v13a1 1 0 0 1-1 1" fill="#FFF"/><path d="M88.705 79.737a1 1 0 0 1-1-1v-20.25a4.923 4.923 0 0 1 4.917-4.917 4.922 4.922 0 0 1 4.916 4.917v2.542a1 1 0 1 1-2 0v-2.542a2.92 2.92 0 0 0-2.916-2.917 2.92 2.92 0 0 0-2.917 2.917v20.25a1 1 0 0 1-1 1" fill="#FFF"/><path d="M83.257 79.05a1 1 0 0 1-1-1V59.82a3.733 3.733 0 0 1 3.729-3.728 3.733 3.733 0 0 1 3.729 3.729v3.187a1 1 0 1 1-2 0V59.82a1.73 1.73 0 0 0-3.458 0v18.23a1 1 0 0 1-1 1" fill="#FFF"/><path d="M111.288 110.758H86.632c-4.963 0-9-4.037-9-9V66.217a3.317 3.317 0 0 1 3.312-3.313 3.318 3.318 0 0 1 3.313 3.313v2.625a1 1 0 1 1-2 0v-2.625c0-.724-.589-1.313-1.313-1.313-.723 0-1.312.589-1.312 1.313v35.54c0 3.86 3.14 7 7 7h24.656a1 1 0 1 1 0 2M89.235 47.395a1.002 1.002 0 0 1 0-1.416l14.024-14.023a.999.999 0 1 1 1.414 1.415L90.65 47.394c-.39.39-1.024.39-1.415 0" fill="#FFF"/><path d="M87.6 98.945a1 1 0 0 1-.995-.917c-.068-.808-.374-4.915.233-6.45.599-1.514 3.584-4.257 4.177-4.79a1 1 0 1 1 1.34 1.483c-1.33 1.2-3.343 3.247-3.657 4.042-.321.811-.252 3.733-.101 5.55a.999.999 0 0 1-.997 1.082" fill="#FFF"/></g></svg>