<svg width="160" height="160" viewBox="0 0 160 160" xmlns="http://www.w3.org/2000/svg"><script xmlns="" type="text/javascript" charset="utf-8" id="zm-extension"/><title>772901C4-873F-471D-96E8-CFFFB6070271</title><g fill="none" fill-rule="evenodd"><path d="M80 2C36.99 2 2 36.991 2 80s34.99 78 78 78 78-34.991 78-78S123.01 2 80 2m0 158c-44.112 0-80-35.888-80-80S35.888 0 80 0s80 35.888 80 80-35.888 80-80 80" fill="#2A2421"/><path d="M36.202 110.97c0-1.456-1.093-2.34-2.549-2.34h-3.926v4.68h3.926c1.456 0 2.55-.91 2.55-2.34zm-10.167 11.752V105.38h8.112c3.771 0 5.825 2.548 5.825 5.59 0 3.016-2.08 5.59-5.825 5.59h-4.42v6.162h-3.692zm16.145.001v-12.56h3.304v1.718c.884-1.118 2.443-2.03 4.004-2.03v3.226a4.387 4.387 0 0 0-.911-.08c-1.091 0-2.547.625-3.093 1.432v8.294H42.18zm18.409-6.293c0-1.95-1.17-3.64-3.225-3.64-2.053 0-3.197 1.69-3.197 3.64 0 1.977 1.144 3.667 3.197 3.667 2.055 0 3.225-1.69 3.225-3.666m-9.854 0c0-3.563 2.496-6.58 6.629-6.58 4.16 0 6.657 3.017 6.657 6.58 0 3.588-2.496 6.604-6.657 6.604-4.133 0-6.63-3.016-6.63-6.604m24.233 6.292h3.302v-12.559h-3.302v12.559zm-.338-15.887c0-1.092.909-1.95 1.975-1.95 1.092 0 1.977.858 1.977 1.95a1.976 1.976 0 0 1-1.977 1.976 1.991 1.991 0 0 1-1.975-1.976zm-7.437 15.887v-9.673h-2.08v-2.886h2.08v-.676c0-2.73 1.768-4.368 4.239-4.368.935 0 1.794.208 2.391.52l-.676 2.392a1.85 1.85 0 0 0-1.066-.312c-.935 0-1.559.624-1.559 1.768v.676h2.547v2.886h-2.547v9.673h-3.329zm15.002-3.121v-6.552h-2.08v-2.885h2.08v-3.434h3.328v3.434h2.548v2.885h-2.548v5.669c0 .78.416 1.378 1.145 1.378.493 0 .962-.182 1.143-.364l.702 2.495c-.494.443-1.378.807-2.755.807-2.315 0-3.563-1.197-3.563-3.433M36.197 77.339c0-1.456-1.093-2.34-2.549-2.34h-3.926v4.68h3.926c1.456 0 2.55-.91 2.55-2.34zM26.03 89.09V71.749h8.112c3.771 0 5.825 2.548 5.825 5.59 0 3.016-2.08 5.59-5.825 5.59h-4.42v6.162H26.03zm21.399-10.243c-2.054 0-2.938 1.534-3.094 2.782h6.189c-.078-1.196-.91-2.782-3.095-2.782m-6.5 3.952c0-3.64 2.678-6.578 6.5-6.578 3.744 0 6.292 2.808 6.292 6.916v.728h-9.334c.208 1.586 1.482 2.912 3.614 2.912 1.067 0 2.548-.468 3.355-1.248l1.456 2.132c-1.248 1.144-3.225 1.742-5.175 1.742-3.822 0-6.708-2.574-6.708-6.604m15.183 6.292V76.532h3.303v1.717c.884-1.118 2.444-2.029 4.004-2.029v3.225a4.387 4.387 0 0 0-.91-.079c-1.092 0-2.548.624-3.094 1.431v8.294h-3.303zm10.088 0V79.42h-2.08v-2.887h2.08v-.675c0-2.679 1.716-4.369 4.238-4.369 1.197 0 2.47.312 3.277 1.17l-1.248 1.951c-.339-.338-.78-.52-1.379-.52-.91 0-1.56.598-1.56 1.768v.675h2.548v2.887h-2.548v9.672H66.2zm13.468-10.244c-2.054 0-2.938 1.534-3.094 2.782h6.189c-.078-1.196-.91-2.782-3.095-2.782m-6.5 3.952c0-3.64 2.678-6.578 6.5-6.578 3.744 0 6.293 2.808 6.293 6.916v.728h-9.335c.208 1.586 1.482 2.912 3.614 2.912 1.067 0 2.548-.468 3.355-1.248l1.456 2.132c-1.248 1.144-3.225 1.742-5.175 1.742-3.822 0-6.708-2.574-6.708-6.604m14.378.001c0-3.85 2.782-6.58 6.656-6.58 2.574 0 4.134 1.12 4.966 2.263l-2.158 2.028c-.598-.884-1.508-1.353-2.652-1.353-2.001 0-3.406 1.456-3.406 3.641 0 2.184 1.405 3.666 3.406 3.666 1.144 0 2.054-.52 2.652-1.352l2.158 2.002c-.832 1.17-2.392 2.288-4.966 2.288-3.874 0-6.656-2.73-6.656-6.604m14.43 3.172V79.42h-2.08v-2.886h2.08V73.1h3.328v3.433h2.548v2.886h-2.548v5.668c0 .78.416 1.378 1.144 1.378.494 0 .963-.182 1.144-.364l.702 2.496c-.494.442-1.378.806-2.755.806-2.315 0-3.563-1.196-3.563-3.432m8.137 3.121h3.303V76.533h-3.303v12.559zm-.338-15.887c0-1.092.911-1.951 1.977-1.951 1.092 0 1.976.859 1.976 1.951a1.975 1.975 0 0 1-1.976 1.976 1.993 1.993 0 0 1-1.977-1.976zM125.74 82.8c0-1.95-1.17-3.642-3.226-3.642-2.053 0-3.198 1.691-3.198 3.641 0 1.976 1.145 3.666 3.198 3.666 2.055 0 3.225-1.69 3.225-3.666m-9.854 0c0-3.563 2.496-6.579 6.63-6.579 4.16 0 6.656 3.016 6.656 6.58 0 3.587-2.496 6.603-6.657 6.603-4.133 0-6.629-3.016-6.629-6.604m24.205 6.292V81.5c0-1.742-.91-2.34-2.312-2.34-1.301 0-2.315.728-2.861 1.482v8.45h-3.303v-12.56h3.303v1.64c.806-.963 2.34-1.952 4.394-1.952 2.757 0 4.082 1.56 4.082 4.005v8.866h-3.302zM36.2 41.708c0-1.456-1.094-2.34-2.55-2.34h-3.926v4.68h3.926c1.456 0 2.55-.91 2.55-2.34zM26.031 53.46V36.118h8.112c3.771 0 5.825 2.548 5.825 5.59 0 3.016-2.08 5.59-5.825 5.59h-4.42v6.162h-3.692zM47.43 43.216c-2.053 0-2.937 1.534-3.093 2.782h6.189c-.078-1.196-.91-2.782-3.095-2.782m-6.5 3.952c0-3.64 2.678-6.578 6.5-6.578 3.744 0 6.292 2.808 6.292 6.916v.728h-9.334c.208 1.586 1.482 2.912 3.614 2.912 1.067 0 2.548-.468 3.355-1.248l1.456 2.132c-1.248 1.144-3.225 1.742-5.175 1.742-3.822 0-6.708-2.574-6.708-6.604m24.232.001c0-1.95-1.17-3.641-3.225-3.641-2.053 0-3.198 1.69-3.198 3.64 0 1.977 1.145 3.667 3.198 3.667 2.055 0 3.225-1.69 3.225-3.666m-9.854 0c0-3.563 2.496-6.58 6.63-6.58 4.16 0 6.656 3.017 6.656 6.58 0 3.588-2.496 6.604-6.657 6.604-4.133 0-6.629-3.016-6.629-6.604m25.037 0c0-2.158-1.273-3.641-3.172-3.641-1.066 0-2.288.624-2.834 1.43v4.447c.546.78 1.768 1.43 2.834 1.43 1.899 0 3.172-1.483 3.172-3.667m-6.006 4.68v6.396h-3.303V40.901h3.303v1.586c.962-1.22 2.34-1.898 3.874-1.898 3.224 0 5.565 2.393 5.565 6.58 0 4.186-2.341 6.604-5.565 6.604-1.482 0-2.86-.625-3.874-1.925m11.855 1.613h3.303V36.118h-3.303zm12.273-10.245c-2.054 0-2.938 1.534-3.094 2.782h6.189c-.078-1.196-.91-2.782-3.095-2.782m-6.5 3.952c0-3.64 2.678-6.578 6.5-6.578 3.744 0 6.292 2.808 6.292 6.916v.728h-9.334c.208 1.586 1.482 2.912 3.614 2.912 1.067 0 2.548-.468 3.355-1.248l1.456 2.132c-1.248 1.144-3.225 1.742-5.175 1.742-3.822 0-6.708-2.574-6.708-6.604" fill="#000"/></g></svg>