<svg width="148" height="148" viewBox="0 0 148 148" xmlns="http://www.w3.org/2000/svg"><script xmlns="" type="text/javascript" charset="utf-8" id="zm-extension"/><title>6F2BA143-4911-4DD2-880B-DBD2E01BBA48</title><g fill="none" fill-rule="evenodd"><path d="M1 74c0 40.317 32.683 73 73 73 40.316 0 73-32.683 73-73 0-40.316-32.684-73-73-73C33.683 1 1 33.684 1 74z" stroke="#2A2421" stroke-width="2"/><path d="M74.482 146.373c39.855 0 72.165-32.31 72.165-72.165 0-39.856-32.31-72.165-72.165-72.165v144.33z" fill="#FF1628"/><path d="M1 74c0 40.317 32.683 73 73 73 40.316 0 73-32.683 73-73 0-40.316-32.684-73-73-73C33.683 1 1 33.684 1 74z" stroke="#2A2421" stroke-width="2"/><path d="M103.246 114.378h6.09m7.974 0v6.09" stroke="#FFF" stroke-width="2" stroke-linecap="round"/><path d="M62.84 76.683a4.35 4.35 0 0 1 4.06-2.785h7.25a4.35 4.35 0 0 0 4.348-4.35v-.115a4.35 4.35 0 0 0-4.349-4.35h-.812V57.18m18.646 33.812h4.146a4.35 4.35 0 0 0 4.35-4.35v-.695a4.35 4.35 0 0 0-4.35-4.35h-29.23" stroke="#2A2421" stroke-width="2" stroke-linecap="round"/><path d="M80.208 90.992h7.654" stroke="#FFF" stroke-width="2" stroke-linecap="round"/><path d="M63.248 101.147a6.863 6.863 0 0 1-.813-3.254 6.9 6.9 0 0 1 6.9-6.9h7.192m16.877 26.793a6.495 6.495 0 0 0 0-12.99H69.493m-2.652 40.395l.046-3" stroke="#2A2421" stroke-width="2" stroke-linecap="round"/><path d="M66.942 138.6l.19-12.569" stroke="#2A2421" stroke-width="2" stroke-linecap="round" stroke-dasharray="3.592,3.592,3.592,3.592"/><path d="M67.16 124.235l.033-2.215a4.35 4.35 0 0 1 4.348-4.234h10.833" stroke="#2A2421" stroke-width="2" stroke-linecap="round" stroke-dasharray="3.592,3.592,3.592,3.592,3.592,3.592"/><path d="M84.17 117.786h3m-.507 9.476v-4.698" stroke="#2A2421" stroke-width="2" stroke-linecap="round"/><path d="M83.097 118.445a3.538 3.538 0 1 0 7.076 0 3.538 3.538 0 0 0-7.076 0" fill="#FFF"/><path d="M83.097 118.445a3.538 3.538 0 1 0 7.076 0 3.538 3.538 0 0 0-7.076 0zM53.358 104.66l8.79.083m1.08-3.013a3.538 3.538 0 1 0 5.502 4.446 3.538 3.538 0 0 0-5.502-4.447zm-2.936-23.717a3.539 3.539 0 1 0 5.05 4.96 3.539 3.539 0 0 0-5.05-4.96zm-6.806 40.648H21.533v-16.977h8.903l.063-6.993h12.98l.022 9.991h9.985z" stroke="#2A2421" stroke-width="2" stroke-linecap="round"/><text font-family="ProximaNova-Bold, Proxima Nova" font-size="9.985" font-weight="bold" fill="#2A2421" transform="translate(1 1)"><tspan x="33.918" y="104.49">1</tspan></text><text font-family="ProximaNova-Bold, Proxima Nova" font-size="9.985" font-weight="bold" fill="#2A2421" transform="translate(1 1)"><tspan x="24.202" y="112.518">2</tspan></text><text font-family="ProximaNova-Bold, Proxima Nova" font-size="9.985" font-weight="bold" fill="#2A2421" transform="translate(1 1)"><tspan x="43.194" y="113.746">3</tspan></text><path d="M116.577 40.058c-13.805-10.497-27.992 10.285-42.938 1.739V24.096c14.946 8.548 29.132-12.235 42.938-1.738v17.7z" stroke="#2A2421" stroke-width="2"/><path d="M112.14 105.693h-6.837v-2.505l.622-1.326 1.022-1.694a.723.723 0 0 0 0-.738l-1.022-1.694-.622-1.369v-2.462h6.837v2.525l-.622 1.348-1.016 1.667a.725.725 0 0 0 .004.748l1.012 1.626.622 1.37v2.504z" stroke="#FFF" stroke-width="2" stroke-linecap="round"/><path d="M112.082 82.28a10.444 10.444 0 0 0 6.434-9.644c0-5.765-4.674-10.439-10.44-10.439-4.655 0-8.6 3.05-9.944 7.26m12.248 11.21a8.352 8.352 0 1 0-10.504-9.612m8.754 7.821a6.264 6.264 0 1 0-6.817-6.24" stroke="#FFF" stroke-linecap="round"/><path d="M103.9 72.637a4.163 4.163 0 0 0 1.319 3.045 4.15 4.15 0 0 0 2.858 1.131 4.176 4.176 0 1 0-4.176-4.176zm4.177.173l13.919-9.163" stroke="#FFF" stroke-linecap="round"/><path stroke="#2A2421" stroke-width="2" stroke-linecap="round" d="M18.008 88.55l12.92-8.83 2.87 2.872 37.523-25.394 2.162-1.621 14.643 12.922 4.263-4.262 22.814 21.306"/><path stroke="#2A2421" stroke-width="2" stroke-linecap="round" d="M11.566 73.743l6.064-4.564 1.254 1.253 17.06-12.728 6.232 5.699 1.863-1.862 8.65 7.992"/><path fill="#2A2421" d="M72.641 56.769h1.831V26.14h-1.831z"/><g font-size="11.835" font-family="ProximaNova-Semibold, Proxima Nova" letter-spacing=".06" fill="#FFF" font-weight="500"><text transform="rotate(-15 142.851 -288.128)"><tspan x=".451" y="11.541">100%</tspan></text></g></g></svg>