<?xml version="1.0" encoding="UTF-8"?>
<!-- Generator: Adobe Illustrator 16.0.0, SVG Export Plug-In . SVG Version: 6.00 Build 0)  -->
<!DOCTYPE svg PUBLIC "-//W3C//DTD SVG 1.1//EN" "http://www.w3.org/Graphics/SVG/1.1/DTD/svg11.dtd">
<svg version="1.1" id="Layer_1" xmlns="http://www.w3.org/2000/svg" xmlns:xlink="http://www.w3.org/1999/xlink" x="0px" y="0px" width="161px" height="43px" viewBox="0 0 184 50" enable-background="new 0 0 184 50" xml:space="preserve"><script xmlns="" type="text/javascript" charset="utf-8" id="zm-extension"/>
<g>
	<g>
		<path fill="#1476C4" d="M13.322,23.908c0,2.3-0.425,3.926-1.275,4.867c-0.851,0.948-2.213,1.421-4.089,1.421    c-1.114,0-2.206-0.23-3.276-0.685c-1.071-0.46-1.97-0.94-2.704-1.44L0,32.452c0.762,0.621,1.854,1.202,3.276,1.749    c1.42,0.544,3.099,0.819,5.034,0.819c2.082,0,3.804-0.283,5.166-0.843c1.363-0.56,2.448-1.328,3.254-2.302    c0.807-0.974,1.37-2.11,1.693-3.409c0.322-1.298,0.483-2.703,0.483-4.204V3.674h-5.584L13.322,23.908L13.322,23.908z"/>
		<path fill="#1476C4" d="M37.505,29.93c-0.353,0.085-0.888,0.16-1.605,0.221c-0.72,0.058-1.4,0.088-2.044,0.088    c-1.789,0-3.042-0.531-3.759-1.594c-0.719-1.063-1.077-2.834-1.077-5.312V11.201h-5.32v12.972c0,1.565,0.161,3.002,0.484,4.316    c0.322,1.313,0.857,2.442,1.604,3.387c0.749,0.947,1.744,1.681,2.991,2.214c1.245,0.533,2.792,0.796,4.638,0.796    c1.965,0,3.766-0.141,5.408-0.421c1.641-0.279,2.975-0.551,4.001-0.817V11.201h-5.32V29.93z"/>
		<path fill="#1476C4" d="M61.312,23.575c-0.57-0.575-1.295-1.09-2.176-1.548c-0.88-0.458-1.95-0.922-3.209-1.396    c-0.762-0.265-1.408-0.524-1.935-0.775c-0.527-0.25-0.953-0.501-1.275-0.753c-0.323-0.25-0.55-0.522-0.682-0.818    c-0.132-0.294-0.199-0.635-0.199-1.018c0-0.768,0.339-1.337,1.014-1.706c0.673-0.369,1.553-0.554,2.638-0.554    c1.201,0,2.256,0.111,3.166,0.331c0.909,0.222,1.656,0.466,2.242,0.731l0.967-4.34c-0.614-0.235-1.537-0.479-2.77-0.729    c-1.229-0.25-2.521-0.376-3.869-0.376c-2.667,0-4.778,0.614-6.332,1.837c-1.554,1.225-2.331,2.899-2.331,5.025    c0,1.092,0.168,2.013,0.506,2.768c0.336,0.753,0.798,1.394,1.385,1.925c0.587,0.532,1.281,0.997,2.089,1.394    c0.806,0.399,1.691,0.777,2.659,1.13c1.584,0.591,2.718,1.137,3.409,1.64c0.688,0.499,1.033,1.135,1.033,1.901    c0,0.827-0.323,1.41-0.968,1.749c-0.645,0.34-1.67,0.508-3.077,0.508c-1.408,0-2.66-0.146-3.759-0.441    c-1.1-0.295-2.046-0.604-2.836-0.93l-0.924,4.472c0.498,0.207,1.363,0.479,2.595,0.819c1.231,0.339,2.856,0.509,4.879,0.509    c3.02,0,5.343-0.568,6.97-1.706c1.625-1.134,2.44-2.81,2.44-5.024c0-1.032-0.134-1.919-0.397-2.655    C62.3,24.808,61.885,24.15,61.312,23.575z"/>
		<path fill="#1476C4" d="M78.547,29.972c-0.748,0.209-1.604,0.312-2.573,0.312c-1.407,0-2.403-0.397-2.989-1.195    c-0.587-0.797-0.88-2.126-0.88-3.984v-9.432h8.177v-4.471h-8.177V4.205l-5.32,0.886v20.056c0,1.535,0.131,2.9,0.395,4.096    s0.718,2.215,1.364,3.056c0.644,0.842,1.518,1.482,2.615,1.926c1.099,0.443,2.469,0.664,4.112,0.664    c1.347,0,2.52-0.141,3.517-0.421c0.996-0.279,1.802-0.553,2.417-0.817l-0.879-4.252C79.888,29.574,79.295,29.768,78.547,29.972z"/>
		<path fill="#1476C4" d="M90.088,7.592c0.146-0.634,0.395-1.173,0.747-1.616c0.353-0.442,0.821-0.789,1.407-1.04    c0.587-0.25,1.303-0.376,2.154-0.376c0.762,0,1.474,0.074,2.134,0.221c0.657,0.149,1.237,0.341,1.735,0.576l1.012-4.429    c-0.468-0.176-1.172-0.375-2.11-0.597C96.229,0.11,95.145,0,93.913,0c-3.135,0-5.481,0.848-7.035,2.545    c-1.554,1.697-2.331,4.036-2.331,7.017v24.792h5.321V15.672h8.353v-4.471h-8.353v-1.55C89.869,8.912,89.94,8.228,90.088,7.592z"/>
		<path fill="#1476C4" d="M117.654,13.946c-0.966-1.063-2.13-1.882-3.494-2.458s-2.851-0.863-4.464-0.863    c-1.612,0-3.091,0.288-4.439,0.863s-2.514,1.395-3.495,2.458c-0.983,1.062-1.744,2.339-2.288,3.83    c-0.541,1.491-0.812,3.152-0.812,4.98c0,1.832,0.271,3.5,0.812,5.002c0.543,1.507,1.298,2.789,2.266,3.853    c0.967,1.063,2.123,1.889,3.472,2.479c1.349,0.59,2.844,0.886,4.484,0.886c1.642,0,3.144-0.296,4.508-0.886    c1.361-0.591,2.527-1.416,3.495-2.479c0.967-1.063,1.713-2.344,2.241-3.853c0.528-1.505,0.793-3.17,0.793-5.002    c0-1.828-0.272-3.489-0.813-4.98C119.377,16.285,118.622,15.007,117.654,13.946z M113.808,28.291    c-0.982,1.356-2.351,2.037-4.111,2.037c-1.758,0-3.126-0.681-4.109-2.037c-0.982-1.358-1.473-3.201-1.473-5.536    c0-2.301,0.491-4.124,1.473-5.467c0.982-1.343,2.352-2.016,4.109-2.016c1.761,0,3.129,0.674,4.111,2.016    c0.984,1.343,1.475,3.166,1.475,5.467C115.282,25.09,114.791,26.933,113.808,28.291z"/>
		<path fill="#1476C4" d="M150.739,10.625c-1.349,0-2.669,0.258-3.956,0.774c-1.292,0.518-2.434,1.284-3.43,2.303    c-0.998,1.018-1.797,2.294-2.396,3.83c-0.604,1.534-0.903,3.319-0.903,5.356c0,1.742,0.234,3.345,0.703,4.806    c0.471,1.459,1.188,2.73,2.156,3.807s2.196,1.92,3.692,2.524c1.495,0.606,3.253,0.908,5.276,0.908    c0.791,0,1.569-0.047,2.331-0.135c0.761-0.089,1.473-0.197,2.131-0.331c0.66-0.131,1.245-0.279,1.758-0.442    c0.515-0.161,0.916-0.317,1.211-0.466l-0.703-4.382c-0.617,0.264-1.46,0.518-2.528,0.753c-1.071,0.234-2.252,0.354-3.541,0.354    c-2.197,0-3.875-0.51-5.033-1.527c-1.157-1.018-1.811-2.457-1.957-4.318h15.17c0.028-0.293,0.049-0.626,0.065-0.995    c0.014-0.369,0.021-0.702,0.021-0.996c0-3.926-0.885-6.877-2.658-8.855C156.374,11.614,153.905,10.625,150.739,10.625z     M145.595,20.499c0.088-0.68,0.248-1.343,0.483-1.992c0.234-0.651,0.563-1.226,0.991-1.728c0.424-0.501,0.944-0.908,1.56-1.217    s1.334-0.465,2.153-0.465c0.793,0,1.474,0.141,2.046,0.42c0.572,0.28,1.056,0.664,1.45,1.151c0.397,0.488,0.696,1.063,0.904,1.727    c0.203,0.666,0.306,1.366,0.306,2.104L145.595,20.499L145.595,20.499z"/>
		<path fill="#1476C4" d="M180.348,28.479c-1.479-2.086-3.027-4.146-4.642-6.186l7.723-11.091h-5.585l-4.886,7.089l-4.873-7.089    h-5.85l7.807,11.318c-0.753,0.927-1.514,1.903-2.283,2.928c-0.769,1.03-1.516,2.057-2.238,3.083    c-0.725,1.028-1.401,2.032-2.036,3.016c-0.633,0.984-1.167,1.92-1.601,2.81h5.425c0.647-1.124,1.464-2.412,2.448-3.872    c0.987-1.456,1.995-2.785,3.025-3.991c0.495,0.609,1.004,1.263,1.529,1.951c0.522,0.69,1.025,1.388,1.505,2.093    c0.481,0.705,0.933,1.38,1.354,2.03s0.767,1.249,1.035,1.789H184C183.045,32.521,181.827,30.562,180.348,28.479z"/>
		<path fill="#1476C4" d="M133.429,10.378c-3.138,0-5.482,0.85-7.035,2.545c-1.555,1.699-2.332,4.037-2.332,7.019v14.044h5.322    v-7.933v-4.473v-1.55c0-0.739,0.07-1.424,0.219-2.058c0.147-0.635,0.396-1.175,0.747-1.618c0.352-0.442,0.82-0.789,1.407-1.04    c0.585-0.249,1.304-0.377,2.154-0.377c0.761,0,1.472,0.075,2.132,0.222c0.66,0.148,1.238,0.341,1.737,0.576l1.012-4.428    c-0.468-0.177-1.174-0.377-2.109-0.597C135.744,10.49,134.661,10.378,133.429,10.378z"/>
	</g>
	<g>
		<path fill="#929496" d="M67.512,42.688h1.125v4.026c0,1.713-0.824,2.285-2.05,2.285c-0.311,0-0.704-0.055-0.943-0.146l0.138-0.914    c0.183,0.057,0.43,0.111,0.695,0.111c0.641,0,1.035-0.295,1.035-1.374V42.688z"/>
		<path fill="#929496" d="M70.945,42.688v3.62c0,1.217,0.503,1.779,1.263,1.779c0.814,0,1.299-0.563,1.299-1.779v-3.62h1.125v3.546    c0,1.916-0.979,2.764-2.461,2.764c-1.428,0-2.353-0.801-2.353-2.753v-3.557H70.945z"/>
		<path fill="#929496" d="M75.854,47.664c0.367,0.213,0.916,0.396,1.492,0.396c0.723,0,1.125-0.341,1.125-0.847    c0-0.47-0.311-0.746-1.098-1.034c-1.016-0.367-1.665-0.912-1.665-1.808c0-1.011,0.842-1.784,2.177-1.784    c0.669,0,1.163,0.146,1.483,0.314l-0.274,0.913c-0.22-0.122-0.65-0.299-1.227-0.299c-0.714,0-1.025,0.39-1.025,0.749    c0,0.479,0.357,0.702,1.181,1.021c1.071,0.406,1.592,0.95,1.592,1.845c0,0.995-0.75,1.861-2.343,1.861    c-0.65,0-1.327-0.186-1.665-0.387L75.854,47.664z"/>
		<path fill="#929496" d="M81.767,43.638h-1.756v-0.949h4.657v0.949h-1.775v5.261h-1.126V43.638z"/>
		<path fill="#929496" d="M91.617,48.713c-0.265,0.141-0.851,0.277-1.591,0.277c-1.958,0-3.149-1.234-3.149-3.126    c0-2.044,1.409-3.279,3.295-3.279c0.741,0,1.271,0.158,1.5,0.277l-0.247,0.905c-0.293-0.13-0.696-0.241-1.208-0.241    c-1.254,0-2.159,0.793-2.159,2.285c0,1.363,0.795,2.239,2.149,2.239c0.458,0,0.933-0.092,1.227-0.231L91.617,48.713z"/>
		<path fill="#929496" d="M97.77,45.73c0,2.082-1.254,3.27-2.956,3.27c-1.737,0-2.836-1.336-2.836-3.163    c0-1.906,1.189-3.252,2.928-3.252C96.707,42.585,97.77,43.961,97.77,45.73z M93.166,45.82c0,1.264,0.632,2.268,1.711,2.268    c1.089,0,1.703-1.014,1.703-2.313c0-1.171-0.576-2.278-1.703-2.278C93.762,43.497,93.166,44.54,93.166,45.82z"/>
		<path fill="#929496" d="M103.903,46.364c-0.037-0.803-0.083-1.77-0.073-2.61h-0.026c-0.203,0.759-0.457,1.596-0.733,2.378    l-0.896,2.691h-0.868l-0.825-2.652c-0.239-0.795-0.458-1.64-0.623-2.417H99.84c-0.027,0.813-0.063,1.798-0.109,2.648l-0.138,2.496    H98.54l0.411-6.21h1.482l0.807,2.495c0.22,0.73,0.411,1.466,0.567,2.157h0.028c0.163-0.674,0.374-1.438,0.612-2.164l0.851-2.488    h1.465l0.356,6.212h-1.098L103.903,46.364z"/>
		<path fill="#929496" d="M106.224,42.688h3.559v0.93h-2.435v1.713h2.269v0.932h-2.269v2.636h-1.124V42.688z"/>
		<path fill="#929496" d="M116.31,45.73c0,2.082-1.255,3.27-2.956,3.27c-1.739,0-2.836-1.336-2.836-3.163    c0-1.906,1.189-3.252,2.928-3.252C115.248,42.585,116.31,43.961,116.31,45.73z M111.705,45.82c0,1.264,0.632,2.268,1.711,2.268    c1.09,0,1.702-1.014,1.702-2.313c0-1.171-0.575-2.278-1.702-2.278C112.301,43.497,111.705,44.54,111.705,45.82z"/>
		<path fill="#929496" d="M117.236,42.771c0.421-0.075,1.053-0.129,1.702-0.129c0.887,0,1.491,0.146,1.903,0.498    c0.339,0.287,0.531,0.716,0.531,1.243c0,0.801-0.54,1.348-1.116,1.558v0.03c0.439,0.164,0.705,0.598,0.859,1.195    c0.191,0.775,0.357,1.494,0.485,1.732h-1.161c-0.092-0.186-0.239-0.692-0.412-1.466c-0.174-0.811-0.467-1.068-1.107-1.087h-0.568    v2.553h-1.116V42.771z M118.353,45.519h0.671c0.758,0,1.233-0.407,1.233-1.023c0-0.681-0.476-0.996-1.208-0.996    c-0.357,0-0.586,0.027-0.696,0.055V45.519L118.353,45.519z"/>
		<path fill="#929496" d="M123.626,43.638h-1.757v-0.949h4.659v0.949h-1.775v5.261h-1.127V43.638L123.626,43.638z"/>
		<path fill="#929496" d="M127.774,47.139l-0.532,1.76h-1.161l1.977-6.21h1.437l2.005,6.21h-1.208l-0.559-1.76H127.774z     M129.54,46.283l-0.485-1.532c-0.119-0.38-0.219-0.802-0.31-1.16h-0.019c-0.091,0.358-0.185,0.792-0.294,1.16l-0.476,1.532H129.54    z"/>
		<path fill="#929496" d="M132.316,42.771c0.357-0.075,1.007-0.129,1.639-0.129c0.831,0,1.345,0.102,1.767,0.394    c0.384,0.233,0.641,0.641,0.641,1.166c0,0.57-0.358,1.096-1.026,1.343v0.018c0.65,0.167,1.244,0.684,1.244,1.539    c0,0.554-0.236,0.987-0.594,1.282c-0.44,0.389-1.164,0.58-2.287,0.58c-0.623,0-1.099-0.047-1.383-0.085V42.771L132.316,42.771z     M133.432,45.222h0.576c0.777,0,1.218-0.37,1.218-0.896c0-0.579-0.44-0.846-1.152-0.846c-0.331,0-0.523,0.017-0.642,0.046V45.222z     M133.432,48.08c0.146,0.018,0.338,0.024,0.595,0.024c0.725,0,1.363-0.274,1.363-1.04c0-0.719-0.622-1.015-1.398-1.015h-0.558    v2.03H133.432z"/>
		<path fill="#929496" d="M137.542,42.688h1.126v5.261h2.537v0.949h-3.663V42.688z"/>
		<path fill="#929496" d="M145.462,46.142h-2.324v1.826h2.598v0.931h-3.725v-6.21h3.588v0.93h-2.461v1.604h2.324V46.142    L145.462,46.142z"/>
		<path fill="#929496" d="M149.344,43.638h-1.755v-0.949h4.656v0.949h-1.775v5.261h-1.126V43.638z"/>
		<path fill="#929496" d="M152.926,42.771c0.421-0.075,1.052-0.129,1.703-0.129c0.886,0,1.49,0.146,1.901,0.498    c0.338,0.287,0.531,0.716,0.531,1.243c0,0.801-0.539,1.348-1.115,1.558v0.03c0.438,0.164,0.705,0.598,0.859,1.195    c0.19,0.775,0.357,1.494,0.484,1.732h-1.161c-0.092-0.186-0.239-0.692-0.412-1.466c-0.174-0.811-0.467-1.068-1.106-1.087h-0.567    v2.553h-1.117V42.771L152.926,42.771z M154.041,45.519h0.668c0.76,0,1.235-0.407,1.235-1.023c0-0.681-0.476-0.996-1.21-0.996    c-0.354,0-0.584,0.027-0.693,0.055V45.519z"/>
		<path fill="#929496" d="M159.388,47.139l-0.53,1.76h-1.161l1.976-6.21h1.438l2.003,6.21h-1.208l-0.558-1.76H159.388z     M161.155,46.283l-0.486-1.532c-0.118-0.38-0.219-0.802-0.31-1.16h-0.019c-0.092,0.358-0.185,0.792-0.294,1.16l-0.477,1.532    H161.155z"/>
		<path fill="#929496" d="M163.93,42.771c0.494-0.082,1.125-0.129,1.792-0.129c1.154,0,1.949,0.24,2.518,0.719    c0.596,0.487,0.961,1.227,0.961,2.285c0,1.106-0.375,1.934-0.961,2.47c-0.613,0.561-1.593,0.848-2.791,0.848    c-0.658,0-1.153-0.036-1.519-0.085V42.771z M165.055,48.033c0.156,0.026,0.395,0.026,0.622,0.026    c1.466,0.011,2.334-0.802,2.334-2.376c0.011-1.374-0.778-2.157-2.187-2.157c-0.358,0-0.614,0.027-0.77,0.063V48.033    L165.055,48.033z"/>
		<path fill="#929496" d="M171.263,42.688v6.21h-1.124v-6.21H171.263z"/>
		<path fill="#929496" d="M172.508,48.898v-6.21h1.282l1.593,2.661c0.411,0.693,0.768,1.412,1.053,2.083h0.018    c-0.073-0.828-0.101-1.633-0.101-2.581v-2.163h1.043v6.21h-1.162l-1.61-2.728c-0.394-0.681-0.806-1.444-1.106-2.146l-0.027,0.01    c0.045,0.801,0.054,1.619,0.054,2.643V48.9h-1.035V48.898z"/>
		<path fill="#929496" d="M183.596,48.613c-0.395,0.148-1.164,0.35-1.987,0.35c-1.044,0-1.83-0.267-2.416-0.828    c-0.55-0.525-0.869-1.348-0.86-2.285c0-1.964,1.392-3.226,3.433-3.226c0.759,0,1.354,0.156,1.637,0.293l-0.246,0.912    c-0.339-0.145-0.751-0.267-1.4-0.267c-1.316,0-2.242,0.783-2.242,2.231c0,1.408,0.861,2.249,2.142,2.249    c0.403,0,0.706-0.055,0.852-0.13v-1.547h-1.089v-0.895h2.179V48.613L183.596,48.613z"/>
	</g>
</g>
</svg>