<?xml version="1.0" encoding="UTF-8"?>
<!-- Generator: Adobe Illustrator 19.0.0, SVG Export Plug-In . SVG Version: 6.00 Build 0)  -->
<svg version="1.1" id="Слой_1" xmlns="http://www.w3.org/2000/svg" xmlns:xlink="http://www.w3.org/1999/xlink" x="0px" y="0px" width="139px" height="26px" viewBox="-11 9 139 26" style="enable-background:new -11 9 139 26;" xml:space="preserve"><script xmlns="" type="text/javascript" charset="utf-8" id="zm-extension"/>
<style type="text/css">
	.st0{fill:#1476C4;}
</style>
<g id="Shape_1">
	<g>
		<path class="st0" d="M0.1,26.8L0.1,26.8c0,1.7-0.3,2.9-0.9,3.6c-0.6,0.7-1.6,1.1-3,1.1c-0.8,0-1.6-0.2-2.4-0.5    c-0.8-0.3-1.5-0.7-2-1.1l-1.5,3.2c0.6,0.5,1.4,0.9,2.4,1.3C-6.3,34.8-5,35-3.6,35c1.5,0,2.8-0.2,3.8-0.6c1-0.4,1.8-1,2.4-1.7    c0.6-0.7,1-1.6,1.3-2.5c0.2-1,0.4-2,0.4-3.1V11.8H0.1V26.8z M18.1,31.2c-0.3,0.1-0.7,0.1-1.2,0.2c-0.5,0-1,0.1-1.5,0.1    c-1.3,0-2.3-0.4-2.8-1.2c-0.5-0.8-0.8-2.1-0.8-3.9v-9h-4V27c0,1.2,0.1,2.2,0.4,3.2c0.2,1,0.6,1.8,1.2,2.5c0.6,0.7,1.3,1.2,2.2,1.6    c0.9,0.4,2.1,0.6,3.4,0.6c1.5,0,2.8-0.1,4-0.3c1.2-0.2,2.2-0.4,3-0.6V17.4h-4V31.2z M35.8,26.5c-0.4-0.4-1-0.8-1.6-1.1    c-0.7-0.3-1.4-0.7-2.4-1c-0.6-0.2-1-0.4-1.4-0.6c-0.4-0.2-0.7-0.4-0.9-0.6c-0.2-0.2-0.4-0.4-0.5-0.6c-0.1-0.2-0.1-0.5-0.1-0.8    c0-0.6,0.3-1,0.8-1.3c0.5-0.3,1.2-0.4,2-0.4c0.9,0,1.7,0.1,2.4,0.2c0.7,0.2,1.2,0.3,1.7,0.5l0.7-3.2c-0.5-0.2-1.1-0.4-2.1-0.5    c-0.9-0.2-1.9-0.3-2.9-0.3c-2,0-3.6,0.5-4.7,1.4c-1.2,0.9-1.7,2.1-1.7,3.7c0,0.8,0.1,1.5,0.4,2c0.3,0.6,0.6,1,1,1.4    c0.4,0.4,1,0.7,1.6,1c0.6,0.3,1.3,0.6,2,0.8c1.2,0.4,2,0.8,2.5,1.2c0.5,0.4,0.8,0.8,0.8,1.4c0,0.6-0.2,1-0.7,1.3    c-0.5,0.3-1.2,0.4-2.3,0.4c-1,0-2-0.1-2.8-0.3c-0.8-0.2-1.5-0.4-2.1-0.7L24.5,34c0.4,0.2,1,0.4,1.9,0.6c0.9,0.3,2.1,0.4,3.6,0.4    c2.2,0,4-0.4,5.2-1.3c1.2-0.8,1.8-2.1,1.8-3.7c0-0.8-0.1-1.4-0.3-2C36.5,27.4,36.2,26.9,35.8,26.5z M48.6,31.3    c-0.6,0.2-1.2,0.2-1.9,0.2c-1,0-1.8-0.3-2.2-0.9c-0.4-0.6-0.7-1.6-0.7-3v-7h6.1v-3.3h-6.1v-5.2l-4,0.7v14.9c0,1.1,0.1,2.1,0.3,3    c0.2,0.9,0.5,1.6,1,2.3c0.5,0.6,1.1,1.1,1.9,1.4c0.8,0.3,1.8,0.5,3.1,0.5c1,0,1.9-0.1,2.6-0.3c0.7-0.2,1.3-0.4,1.8-0.6l-0.7-3.1    C49.6,31,49.2,31.1,48.6,31.3z M57.2,14.7c0.1-0.5,0.3-0.9,0.6-1.2c0.3-0.3,0.6-0.6,1-0.8c0.4-0.2,1-0.3,1.6-0.3    c0.6,0,1.1,0.1,1.6,0.2c0.5,0.1,0.9,0.3,1.3,0.4L64,9.7c-0.3-0.1-0.9-0.3-1.6-0.4C61.8,9.1,61,9.1,60,9.1c-2.3,0-4.1,0.6-5.2,1.9    c-1.2,1.3-1.7,3-1.7,5.2v18.4h4V20.7h6.2v-3.3H57v-1.1C57,15.7,57.1,15.2,57.2,14.7z M77.7,19.4c-0.7-0.8-1.6-1.4-2.6-1.8    c-1-0.4-2.1-0.6-3.3-0.6c-1.2,0-2.3,0.2-3.3,0.6c-1,0.4-1.9,1-2.6,1.8c-0.7,0.8-1.3,1.7-1.7,2.8c-0.4,1.1-0.6,2.3-0.6,3.7    c0,1.4,0.2,2.6,0.6,3.7c0.4,1.1,1,2.1,1.7,2.9c0.7,0.8,1.6,1.4,2.6,1.8c1,0.4,2.1,0.7,3.3,0.7c1.2,0,2.3-0.2,3.4-0.7    c1-0.4,1.9-1,2.6-1.8c0.7-0.8,1.3-1.7,1.7-2.9c0.4-1.1,0.6-2.3,0.6-3.7c0-1.4-0.2-2.6-0.6-3.7C79,21.1,78.4,20.2,77.7,19.4z     M74.8,30c-0.7,1-1.7,1.5-3.1,1.5c-1.3,0-2.3-0.5-3.1-1.5c-0.7-1-1.1-2.4-1.1-4.1c0-1.7,0.4-3.1,1.1-4c0.7-1,1.7-1.5,3.1-1.5    c1.3,0,2.3,0.5,3.1,1.5c0.7,1,1.1,2.3,1.1,4C75.9,27.6,75.6,29,74.8,30z M102.3,16.9c-1,0-2,0.2-2.9,0.6c-1,0.4-1.8,1-2.5,1.7    C96,20,95.5,20.9,95,22c-0.4,1.1-0.7,2.5-0.7,4c0,1.3,0.2,2.5,0.5,3.6c0.3,1.1,0.9,2,1.6,2.8c0.7,0.8,1.6,1.4,2.7,1.9    c1.1,0.4,2.4,0.7,3.9,0.7c0.6,0,1.2,0,1.7-0.1c0.6-0.1,1.1-0.1,1.6-0.2c0.5-0.1,0.9-0.2,1.3-0.3c0.4-0.1,0.7-0.2,0.9-0.3l-0.5-3.2    c-0.5,0.2-1.1,0.4-1.9,0.6c-0.8,0.2-1.7,0.3-2.6,0.3c-1.6,0-2.9-0.4-3.7-1.1c-0.9-0.8-1.3-1.8-1.5-3.2h11.3c0-0.2,0-0.5,0-0.7    c0-0.3,0-0.5,0-0.7c0-2.9-0.7-5.1-2-6.6C106.5,17.7,104.6,16.9,102.3,16.9z M98.5,24.2L98.5,24.2c0.1-0.5,0.2-1,0.4-1.5    c0.2-0.5,0.4-0.9,0.7-1.3c0.3-0.4,0.7-0.7,1.2-0.9c0.5-0.2,1-0.3,1.6-0.3c0.6,0,1.1,0.1,1.5,0.3c0.4,0.2,0.8,0.5,1.1,0.9    c0.3,0.4,0.5,0.8,0.7,1.3c0.2,0.5,0.2,1,0.2,1.6H98.5z M124.3,30.2c-1.1-1.5-2.2-3.1-3.4-4.6l5.7-8.2h-4.2l-3.6,5.3l-3.6-5.3h-4.3    l5.8,8.4c-0.6,0.7-1.1,1.4-1.7,2.2c-0.6,0.8-1.1,1.5-1.7,2.3c-0.5,0.8-1,1.5-1.5,2.2c-0.5,0.7-0.9,1.4-1.2,2.1h4    c0.5-0.8,1.1-1.8,1.8-2.9c0.7-1.1,1.5-2.1,2.2-3c0.4,0.5,0.7,0.9,1.1,1.4c0.4,0.5,0.8,1,1.1,1.5c0.4,0.5,0.7,1,1,1.5    c0.3,0.5,0.6,0.9,0.8,1.3h4.3C126.3,33.1,125.4,31.7,124.3,30.2z M89.4,16.7c-2.3,0-4.1,0.6-5.2,1.9c-1.2,1.3-1.7,3-1.7,5.2v10.4    h4V23.9c0-0.5,0.1-1.1,0.2-1.5c0.1-0.5,0.3-0.9,0.6-1.2c0.3-0.3,0.6-0.6,1-0.8c0.4-0.2,1-0.3,1.6-0.3c0.6,0,1.1,0.1,1.6,0.2    c0.5,0.1,0.9,0.3,1.3,0.4l0.8-3.3c-0.3-0.1-0.9-0.3-1.6-0.4C91.1,16.8,90.3,16.7,89.4,16.7z"/>
	</g>
</g>
</svg>