<svg width="70" height="35" viewBox="0 0 70 35" xmlns="http://www.w3.org/2000/svg" xmlns:xlink="http://www.w3.org/1999/xlink"><script xmlns="" type="text/javascript" charset="utf-8" id="zm-extension"/><defs><linearGradient x1="100%" y1="50%" x2="0%" y2="50%" id="b"><stop stop-color="#C9E7FF" offset="0%"/><stop stop-color="#A3D4FA" offset="100%"/></linearGradient><path id="a" d="M0 0h70v35H0z"/><filter x="-2.9%" y="-5.7%" width="105.7%" height="111.4%" filterUnits="objectBoundingBox" id="c"><feGaussianBlur stdDeviation="2" in="SourceAlpha" result="shadowBlurInner1"/><feOffset in="shadowBlurInner1" result="shadowOffsetInner1"/><feComposite in="shadowOffsetInner1" in2="SourceAlpha" operator="arithmetic" k2="-1" k3="1" result="shadowInnerInner1"/><feColorMatrix values="0 0 0 0 0 0 0 0 0 0 0 0 0 0 0 0 0 0 0.3 0" in="shadowInnerInner1"/></filter><linearGradient x1="50%" y1="100%" x2="50%" y2="-6.57%" id="d"><stop stop-color="#FFF" stop-opacity="0" offset="0%"/><stop stop-color="#FFF" stop-opacity=".804" offset="100%"/></linearGradient><linearGradient x1="50%" y1="26.771%" x2="50%" y2="100%" id="f"><stop stop-color="#FFF" stop-opacity="0" offset="0%"/><stop stop-color="#FFF" stop-opacity=".804" offset="100%"/></linearGradient></defs><g fill="none" fill-rule="evenodd"><mask id="e" fill="#fff"><use xlink:href="#a"/></mask><use fill="url(#b)" xlink:href="#a"/><use fill="#000" filter="url(#c)" xlink:href="#a"/><path d="M62.855 41.663A13.369 13.369 0 0 1 57 43c-5.057 0-9.44-2.777-11.59-6.831a7.5 7.5 0 1 1 0-11.338C47.56 20.777 51.944 18 57 18c5.35 0 9.944 3.107 11.939 7.546a7.5 7.5 0 1 1 .603 12.326c.292.486.458 1.04.458 1.628 0 1.933-1.79 3.5-4 3.5-1.276 0-2.412-.523-3.145-1.337z" fill="url(#d)" mask="url(#e)"/><path d="M40.708 6.355A2.42 2.42 0 0 1 42 6c1.105 0 2 .672 2 1.5 0 .313-.128.603-.346.844.034.04.067.08.1.122a3.5 3.5 0 1 1 .51 6.31C43.18 16.692 41.005 18 38.5 18c-2.965 0-5.467-1.833-6.247-4.338a3.5 3.5 0 1 1 .245-3.97C33.478 7.525 35.796 6 38.5 6c.775 0 1.519.125 2.208.355z" fill="url(#f)" mask="url(#e)" transform="matrix(1 0 0 -1 0 24)"/></g></svg>