<svg width="70" height="35" viewBox="0 0 70 35" xmlns="http://www.w3.org/2000/svg" xmlns:xlink="http://www.w3.org/1999/xlink"><script xmlns="" type="text/javascript" charset="utf-8" id="zm-extension"/><defs><linearGradient x1="0%" y1="100%" y2="0%" id="b"><stop stop-color="#493AD6" offset="0%"/><stop stop-color="#A12EB4" offset="100%"/></linearGradient><path id="a" d="M0 0h70v35H0z"/><filter x="-2.9%" y="-5.7%" width="105.7%" height="111.4%" filterUnits="objectBoundingBox" id="c"><feGaussianBlur stdDeviation="2" in="SourceAlpha" result="shadowBlurInner1"/><feOffset in="shadowBlurInner1" result="shadowOffsetInner1"/><feComposite in="shadowOffsetInner1" in2="SourceAlpha" operator="arithmetic" k2="-1" k3="1" result="shadowInnerInner1"/><feColorMatrix values="0 0 0 0 0 0 0 0 0 0 0 0 0 0 0 0 0 0 0.3 0" in="shadowInnerInner1"/></filter><linearGradient x1="50%" y1="69.402%" x2="50%" y2="-28.777%" id="d"><stop stop-color="#FFF" stop-opacity="0" offset="0%"/><stop stop-color="#FFF" stop-opacity=".5" offset="100%"/></linearGradient><linearGradient x1="50%" y1="26.771%" x2="50%" y2="100%" id="f"><stop stop-color="#FFF" stop-opacity="0" offset="0%"/><stop stop-color="#FFF" stop-opacity=".25" offset="100%"/></linearGradient><linearGradient x1="50%" y1="100%" x2="50%" y2="19.889%" id="g"><stop stop-color="#FFF" stop-opacity="0" offset="0%"/><stop stop-color="#FFF" stop-opacity=".5" offset="100%"/></linearGradient></defs><g fill="none" fill-rule="evenodd"><mask id="e" fill="#fff"><use xlink:href="#a"/></mask><use fill="url(#b)" xlink:href="#a"/><use fill="#000" filter="url(#c)" xlink:href="#a"/><path d="M12.855 40.663A13.369 13.369 0 0 1 7 42c-5.057 0-9.44-2.777-11.59-6.831a7.5 7.5 0 1 1 0-11.338C-2.44 19.777 1.944 17 7 17c5.35 0 9.944 3.107 11.939 7.546a7.5 7.5 0 1 1 .603 12.326c.292.486.458 1.04.458 1.628 0 1.933-1.79 3.5-4 3.5-1.276 0-2.412-.523-3.145-1.337z" fill="url(#d)" mask="url(#e)"/><path d="M37.505 7.377a1.5 1.5 0 0 1 2.35 1.765c.118.15.227.308.327.471a3 3 0 1 1 .387 5.024 5.502 5.502 0 0 1-10.355-.613 3 3 0 1 1 .25-3.737 5.501 5.501 0 0 1 7.041-2.91z" fill="url(#f)" mask="url(#e)" transform="matrix(1 0 0 -1 0 25)"/><g mask="url(#e)"><g transform="translate(7 3)"><path fill="url(#g)" d="M10.33 8.33l-1.062 4.206L8.206 8.33 4 7.268l4.206-1.062L9.268 2l1.062 4.206 4.206 1.062z"/><path fill="#D8D8D8" d="M28.444 20.444l-.578 2.288-.578-2.288L25 19.866l2.288-.578.578-2.288.578 2.288 2.288.578z"/><circle fill-opacity=".6" fill="#FFF" cx="34" cy="1" r="1"/><circle fill-opacity=".6" fill="#FFF" cx="16" cy="14" r="1"/><circle fill-opacity=".35" fill="#FFF" cx="21" cy="1" r="1"/><circle fill-opacity=".35" fill="#FFF" cx="37.5" cy="16.5" r="1"/><circle fill-opacity=".35" fill="#FFF" cx=".5" cy="9.5" r="1"/><circle fill-opacity=".6" fill="#FFF" cx="5.5" cy="2.5" r="1"/></g></g></g></svg>