<?xml version="1.0" standalone="no"?>
<!DOCTYPE svg PUBLIC "-//W3C//DTD SVG 1.1//EN" "http://www.w3.org/Graphics/SVG/1.1/DTD/svg11.dtd" >
<svg xmlns="http://www.w3.org/2000/svg" xmlns:xlink="http://www.w3.org/1999/xlink" version="1.1">
<metadata>
Created by FontForge 20170731 at Tue Dec 21 21:27:30 2010
 By Aleksey,,,
Copyright (c) 2009 by Designtown. All rights reserved.
</metadata>
<defs>
<font id="ExpletusSans" horiz-adv-x="527" >
  <font-face 
    font-family="Expletus Sans"
    font-weight="400"
    font-stretch="normal"
    units-per-em="1000"
    panose-1="2 0 0 0 0 0 0 0 0 0"
    ascent="800"
    descent="-200"
    x-height="517"
    cap-height="727"
    bbox="-25 -293 952 893"
    underline-thickness="50"
    underline-position="-150"
    unicode-range="U+0020-2122"
  />
<missing-glyph horiz-adv-x="257" 
 />
    <glyph glyph-name=".notdef" horiz-adv-x="257" 
 />
    <glyph glyph-name=".null" horiz-adv-x="0" 
 />
    <glyph glyph-name="nonmarkingreturn" horiz-adv-x="333" 
 />
    <glyph glyph-name="space" unicode=" " horiz-adv-x="257" 
 />
    <glyph glyph-name="exclam" unicode="!" horiz-adv-x="351" 
d="M164 727l-14 -542h-68l-12 542h94zM56 44q0 26 16.5 43.5t42.5 17.5t43.5 -17.5t17.5 -43.5t-17.5 -42.5t-43.5 -16.5t-42.5 16.5t-16.5 42.5z" />
    <glyph glyph-name="quotedbl" unicode="&#x22;" horiz-adv-x="371" 
d="M54 727h87v-78q0 -20 -3.5 -43.5t-13.5 -42t-26.5 -28.5t-43.5 -4v196zM228 727h87v-78q0 -20 -3.5 -43.5t-13.5 -42t-26.5 -28.5t-43.5 -4v196z" />
    <glyph glyph-name="numbersign" unicode="#" horiz-adv-x="894" 
d="M501 165h-195q10 29 29.5 47t54.5 18h123l46 244h-230l-90 -474h-76l31 165h-112v65h124l46 244h-111v65h124l31 163h76l-31 -163h231l31 163h76l-31 -163h109v-65h-121l-47 -244h109v-65h-121l-31 -165h-76z" />
    <glyph glyph-name="dollar" unicode="$" horiz-adv-x="514" 
d="M260 638q-51 0 -79.5 -28t-28.5 -66t24 -65t59.5 -49.5t77.5 -44.5t77.5 -50t59.5 -66t24 -93q0 -30 -11.5 -59.5t-33.5 -54t-55 -43t-75 -25.5v-101h-72v96q-42 2 -88.5 13t-93.5 34l26 65q47 -21 87.5 -30t76.5 -9q32 0 58 9.5t44.5 25.5t28.5 37t10 44
q0 41 -23.5 69.5t-59 51t-77 43t-77 47.5t-59 64t-23.5 91q0 32 12.5 61t35 51t53.5 36.5t69 18.5v99h72v-101q29 -3 58 -10t67 -18l-28 -65q-44 13 -75.5 17.5t-60.5 4.5z" />
    <glyph glyph-name="percent" unicode="%" horiz-adv-x="814" 
d="M596 702h70l-438 -702h-70zM350 513q0 -48 -12 -86t-33 -64.5t-50.5 -40t-64.5 -13.5q-72 0 -116.5 53t-44.5 151q0 48 12 86t33 64.5t50.5 40t65.5 13.5q35 0 64.5 -13.5t50.5 -40t33 -64.5t12 -86zM265 513q0 73 -20 108.5t-55 35.5t-55.5 -35.5t-20.5 -108.5
q0 -74 20.5 -109t55.5 -35t55 35t20 109zM795 191q0 -48 -12 -86t-33.5 -64.5t-51 -40t-64.5 -13.5q-71 0 -115.5 53t-44.5 151q0 97 44.5 150t115.5 53t116 -53t45 -150zM710 191q0 72 -20 108t-56 36q-35 0 -55 -36t-20 -108q0 -74 20 -109.5t55 -35.5q36 0 56 35.5
t20 109.5z" />
    <glyph glyph-name="ampersand" unicode="&#x26;" horiz-adv-x="761" 
d="M397 70q64 21 110 -19q-35 -29 -76 -45.5t-96 -16.5q-51 0 -90.5 19t-66.5 49.5t-41 70t-14 81.5q0 34 10 64t26.5 55.5t38.5 47.5t46 40q-26 38 -40 74.5t-14 71.5q0 37 13 69t38 55.5t61 37t82 13.5q33 0 71.5 -8.5t71.5 -25.5l-24 -63q-26 13 -60 19t-61 6
q-47 0 -77 -26.5t-30 -67.5q0 -23 6.5 -42.5t18 -39t28 -40t37.5 -45.5l171 -199q25 44 39 84.5t22 89.5h72q-14 -66 -33 -124t-50 -109l126 -146h-118l-305 358q-30 -26 -49.5 -58.5t-19.5 -77.5q0 -72 33.5 -116.5t96.5 -44.5q11 0 22 2t25 7z" />
    <glyph glyph-name="quotesingle" unicode="'" horiz-adv-x="191" 
d="M54 727h82v-78q0 -20 -3 -43.5t-11.5 -42t-24.5 -28.5t-43 -4v196z" />
    <glyph glyph-name="parenleft" unicode="(" horiz-adv-x="403" 
d="M262 296q0 -83 3 -144.5t17 -110t42.5 -88.5t78.5 -79l-39 -50q-58 39 -93.5 82.5t-55.5 99t-27 126t-7 164.5q0 93 7 164t27 126t55.5 98.5t93.5 82.5l39 -50q-50 -39 -78.5 -79t-42.5 -88t-17 -109.5t-3 -144.5z" />
    <glyph glyph-name="parenright" unicode=")" horiz-adv-x="401" 
d="M143 296q0 83 -3 144.5t-17 109.5t-42.5 88t-78.5 79l39 50q58 -39 93.5 -82.5t55.5 -98.5t27 -126t7 -164q0 -94 -7 -164.5t-27 -126t-55.5 -99t-93.5 -82.5l-39 50q50 39 78.5 79t42.5 88.5t17 110t3 144.5z" />
    <glyph glyph-name="asterisk" unicode="*" horiz-adv-x="530" 
d="M319 737l66 -38q-32 -41 -50.5 -66.5t-28.5 -40t-13.5 -19.5l-3.5 -5l161 16v-76q-61 7 -94 10t-48.5 4t-18 1t-1.5 0l95 -131l-66 -38l-66 148l-67 -148l-66 38l94 132l-161 -16v76l162 -15l-97 130l66 38l69 -147z" />
    <glyph glyph-name="plus" unicode="+" horiz-adv-x="568" 
d="M47 337h197v209h73v-209h198v-64h-198v-211h-73v211h-197v64z" />
    <glyph glyph-name="comma" unicode="," horiz-adv-x="197" 
d="M56 98h87v-78q0 -20 -3.5 -43.5t-13.5 -42t-26.5 -28.5t-43.5 -4v196z" />
    <glyph glyph-name="hyphen" unicode="-" horiz-adv-x="375" 
d="M45 273v64h302v-64h-302z" />
    <glyph glyph-name="period" unicode="." horiz-adv-x="306" 
d="M93 44q0 26 16.5 43.5t42.5 17.5t43.5 -17.5t17.5 -43.5t-17.5 -42.5t-43.5 -16.5t-42.5 16.5t-16.5 42.5z" />
    <glyph glyph-name="slash" unicode="/" horiz-adv-x="332" 
d="M10 -62l243 789h79l-243 -789h-79z" />
    <glyph glyph-name="zero" unicode="0" horiz-adv-x="661" 
d="M329 -16q-122 0 -196.5 98t-74.5 267q0 83 19 151t54 116t85 74t112 26t112 -26t85.5 -74t54.5 -115.5t19 -151.5q0 -91 -21.5 -159.5t-58.5 -114t-86 -68.5t-104 -23zM501 349q0 69 -12 123.5t-34 93t-54 58.5t-72 20q-81 0 -127 -78.5t-46 -216.5t46 -215.5t127 -77.5
t126.5 77t45.5 216z" />
    <glyph glyph-name="one" unicode="1" horiz-adv-x="319" 
d="M144 0v587l-114 -61l-35 63l208 112h37v-701h-96z" />
    <glyph glyph-name="two" unicode="2" horiz-adv-x="514" 
d="M470 530q0 -40 -15.5 -79t-41 -76.5t-57 -74t-63 -72t-61 -69.5t-49.5 -66l-15 -17l22 4h292v-80h-425v38q49 81 105 147.5t102.5 124.5t77.5 108.5t31 100.5q0 28 -10.5 50t-28.5 37.5t-41.5 23.5t-49.5 8q-28 0 -60 -7t-73 -29l-25 67q46 25 87 33t82 8q45 0 84.5 -12
t68.5 -35t46 -56.5t17 -76.5z" />
    <glyph glyph-name="three" unicode="3" horiz-adv-x="528" 
d="M425 554q0 -48 -26.5 -89.5t-74.5 -67.5l-25 -8l22 -5q24 -9 47 -25t40.5 -38.5t28.5 -51t11 -62.5q0 -43 -18.5 -82.5t-51 -69.5t-78 -48t-99.5 -18q-57 0 -101.5 15.5t-69.5 31.5l23 65q20 -13 59.5 -26t87.5 -13q38 0 66 14t47 36t28 47.5t9 49.5q0 37 -14.5 62
t-40 40t-61.5 21t-78 6l-9 54l52 21q22 10 45 20.5t41.5 24.5t30 33.5t11.5 46.5q0 46 -30 73.5t-76 27.5q-29 0 -63.5 -7t-75.5 -29l-25 67q46 25 89.5 33.5t84.5 8.5q43 0 79 -12t61.5 -33t39.5 -50t14 -63z" />
    <glyph glyph-name="four" unicode="4" horiz-adv-x="595" 
d="M372 701h87v-474h80v-71h-80v-156h-87v546l2 27l-15 -25l-215 -311l-11 -11l16 2h92q20 0 36 -8t28 -19.5t20 -24t12 -20.5h-291v61z" />
    <glyph glyph-name="five" unicode="5" horiz-adv-x="535" 
d="M154 413q18 2 35 4t36 2q62 0 107 -18t74.5 -48t44 -68t14.5 -78q0 -43 -16.5 -82.5t-48 -69.5t-77.5 -48t-106 -18q-19 0 -42.5 3.5t-46.5 10t-45 15.5t-38 20l23 65q40 -23 79.5 -32t68.5 -9q43 0 72.5 14t46.5 36t24.5 47.5t7.5 49.5q0 36 -12 62t-34 43.5t-51.5 25.5
t-65.5 8q-13 0 -29 -1.5t-33 -4t-34 -6.5t-32 -8l26 373h333v-79h-265z" />
    <glyph glyph-name="six" unicode="6" horiz-adv-x="654" 
d="M413 634q-53 0 -96.5 -22.5t-75 -63t-49 -97t-17.5 -123.5q0 -41 6.5 -88t24.5 -87.5t49.5 -67.5t81.5 -27q29 0 53 11.5t41.5 32.5t27 50t9.5 64q0 69 -32 104t-77 35q-8 0 -15.5 -1t-19.5 -4q-19 -5 -36 -3t-31.5 7t-25.5 12.5t-18 13.5q25 13 45 22.5t36.5 14.5
t32 7.5t32.5 2.5q45 0 83 -13.5t65.5 -40.5t43 -66.5t15.5 -90.5q0 -43 -16 -84.5t-46 -73.5t-72 -52t-93 -20q-75 0 -125.5 30t-81 78.5t-43 109t-12.5 122.5q0 69 22 137t64.5 122t105.5 87.5t144 33.5q25 0 51.5 -5.5t53.5 -17.5l-22 -66q-22 10 -43 13.5t-40 3.5z" />
    <glyph glyph-name="seven" unicode="7" horiz-adv-x="501" 
d="M130 0q23 175 80 326.5t155 291.5h-327v83h427v-76q-41 -53 -79 -112t-70 -133t-55 -167t-34 -213h-97z" />
    <glyph glyph-name="eight" unicode="8" horiz-adv-x="614" 
d="M195 531q0 -29 14.5 -49.5t38.5 -36.5t54.5 -28.5t63.5 -26.5q32 31 51 61t19 68q0 30 -10.5 52.5t-28 37.5t-39 22.5t-43.5 7.5q-23 0 -44.5 -7.5t-38 -21t-27 -34t-10.5 -45.5zM312 58q65 0 105 33.5t40 86.5q0 43 -26 70t-65 46.5t-85 37t-85 42t-65 61.5t-26 96
q0 43 18 76.5t47 56.5t67 35.5t78 12.5q42 0 80 -12.5t66.5 -35.5t45.5 -56.5t17 -76.5q0 -49 -26 -90.5t-63 -83.5q23 -13 43.5 -29.5t35.5 -38t24 -49t9 -62.5q0 -46 -19 -82t-51.5 -60.5t-75 -37t-89.5 -12.5q-48 0 -90 12.5t-73.5 37t-49.5 60.5t-18 82q0 17 3.5 35
t12.5 38.5t25.5 44t42.5 51.5q17 -24 23.5 -53t-7.5 -55q-14 -28 -14 -49q0 -31 11 -55.5t30.5 -41.5t46 -26t57.5 -9z" />
    <glyph glyph-name="nine" unicode="9" horiz-adv-x="654" 
d="M229 63q54 0 98 22.5t75.5 63.5t48.5 97t17 124q0 40 -6.5 87t-24.5 87.5t-49.5 67t-80.5 26.5q-30 0 -54.5 -11.5t-41.5 -32.5t-26.5 -50t-9.5 -63q0 -68 31.5 -103.5t77.5 -35.5q7 0 15 1t20 3q19 5 36 3.5t31.5 -6.5t25 -12.5t17.5 -14.5q-26 -14 -45.5 -22.5
t-36 -13.5t-31.5 -7t-32 -2q-45 0 -83 13.5t-66 40t-43.5 66t-15.5 90.5q0 43 16.5 84.5t46.5 73.5t72 51.5t93 19.5q75 0 125.5 -30t80.5 -78t43 -108.5t13 -121.5q0 -69 -22 -137.5t-65 -122.5t-106 -88t-144 -34q-52 0 -105 25l23 66q22 -10 43 -14t39 -4z" />
    <glyph glyph-name="colon" unicode=":" horiz-adv-x="299" 
d="M93 44q0 26 16.5 43.5t42.5 17.5t43.5 -17.5t17.5 -43.5t-17.5 -42.5t-43.5 -16.5t-42.5 16.5t-16.5 42.5zM93 425q0 26 16.5 43.5t42.5 17.5t43.5 -17.5t17.5 -43.5t-17.5 -42.5t-43.5 -16.5t-42.5 16.5t-16.5 42.5z" />
    <glyph glyph-name="semicolon" unicode=";" horiz-adv-x="299" 
d="M93 425q0 26 16.5 43.5t42.5 17.5t43.5 -17.5t17.5 -43.5t-17.5 -42.5t-43.5 -16.5t-42.5 16.5t-16.5 42.5zM110 98h88v-78q0 -20 -4 -43.5t-13.5 -42t-26.5 -28.5t-44 -4v196z" />
    <glyph glyph-name="less" unicode="&#x3c;" horiz-adv-x="613" 
d="M554 81v-81l-517 251v50l517 251v-80l-407 -189l-26 -7l26 -6z" />
    <glyph glyph-name="equal" unicode="=" horiz-adv-x="606" 
d="M67 244h472v-68h-472v68zM67 465h472v-68h-472v68z" />
    <glyph glyph-name="greater" unicode="&#x3e;" horiz-adv-x="613" 
d="M444 270l26 6l-26 7l-407 189v80l517 -251v-50l-517 -251v81z" />
    <glyph glyph-name="question" unicode="?" horiz-adv-x="583" 
d="M277 737q43 0 79 -11.5t61.5 -32t39.5 -48t14 -58.5q0 -42 -14.5 -75t-36 -62.5t-46.5 -57.5t-46.5 -58.5t-36 -66.5t-14.5 -82h-72q0 54 12.5 94.5t31 72.5t40.5 57.5t40.5 50.5t31 51.5t12.5 60.5q0 40 -29.5 66.5t-76.5 26.5q-29 0 -61.5 -7t-72.5 -29l-25 67
q46 25 86.5 33t82.5 8zM180 44q0 26 17 43.5t43 17.5t43.5 -17.5t17.5 -43.5t-17.5 -42.5t-43.5 -16.5t-43 16.5t-17 42.5z" />
    <glyph glyph-name="at" unicode="@" horiz-adv-x="919" 
d="M619 116q3 2 7.5 6t7.5 6q60 38 84.5 82.5t24.5 102.5q0 63 -20 112.5t-56.5 83.5t-89 52t-116.5 18t-119 -20t-95.5 -60t-63.5 -100.5t-23 -141.5t23 -141t62 -99.5t91 -59.5t111 -20q22 0 42.5 1t42 4.5t46.5 9.5t56 16l21 -55q-36 -11 -63.5 -18t-51.5 -10.5t-46 -5
t-47 -1.5q-77 0 -143 21.5t-114.5 67.5t-76.5 117.5t-28 172.5q0 93 30.5 164.5t82 119.5t120 72.5t144.5 24.5q77 0 142 -22t112.5 -63.5t74 -102t26.5 -137.5q0 -54 -17 -97t-48.5 -75.5t-75.5 -53.5t-98 -31q-11 6 -16.5 15t-10.5 22l-2 19l-10 -20q-29 -29 -55.5 -37
t-53.5 -8q-64 0 -100 30.5t-36 80.5q0 61 49.5 90t161.5 41q-1 -7 -4 -17t-9.5 -20t-17 -17.5t-25.5 -9.5q-45 -6 -63 -23t-18 -40q0 -25 20 -40.5t52 -15.5q26 0 54.5 11.5t51.5 42.5v146q0 46 -22 74t-76 28q-21 0 -46 -4.5t-51 -15.5l-20 51q38 16 68.5 21.5t62.5 5.5
q75 0 116 -43.5t41 -121.5v-114v-24t1 -23z" />
    <glyph glyph-name="A" unicode="A" horiz-adv-x="687" 
d="M390 727l262 -727h-102l-203 586l-7 29l-7 -29l-112 -321l-11 -21l12 2h135q36 0 55 -21.5t30 -50.5h-252l-60 -174h-95l262 727h93z" />
    <glyph glyph-name="B" unicode="B" horiz-adv-x="643" 
d="M297 415q37 0 66 10t48.5 28t29.5 42t10 52q0 51 -39 85t-115 34q-27 0 -57.5 -1.5t-57.5 -4.5v-245h115zM317 64q12 -2 21.5 -2.5t23.5 -0.5q26 0 49.5 11t41.5 30t28.5 44.5t10.5 54.5q0 37 -15.5 64.5t-41.5 45.5t-62 26.5t-76 8.5h-115v-346h-95v718
q57 11 106.5 16.5t103.5 5.5q64 0 111.5 -15t79 -41t47 -61.5t15.5 -75.5q0 -18 -5 -38.5t-14.5 -40.5t-23.5 -37t-32 -29l-29 -14l28 -7q57 -27 88 -71.5t31 -104.5q0 -39 -15.5 -77.5t-45.5 -69.5t-73 -50.5t-97 -19.5q-29 0 -62 3.5t-78 14.5q15 26 38 45t57 13z" />
    <glyph glyph-name="C" unicode="C" horiz-adv-x="652" 
d="M434 -12q-77 0 -143 26t-115 74.5t-76.5 117.5t-27.5 156q0 84 27.5 153.5t76.5 119.5t115 77.5t143 27.5q42 0 86.5 -8.5t90.5 -25.5l-26 -65q-44 14 -80 20t-71 6q-52 0 -99 -19t-83 -57t-57 -95.5t-21 -133.5q0 -68 21 -123.5t57 -95.5t83 -61.5t99 -21.5q35 0 72 9
t79 30l26 -65q-47 -25 -91 -35.5t-86 -10.5z" />
    <glyph glyph-name="D" unicode="D" horiz-adv-x="713" 
d="M364 -12q-34 0 -65 3t-75 14q14 26 37 43t57 14q16 -2 24.5 -2h20.5q48 0 89.5 24t72.5 65.5t48.5 97t17.5 118.5q0 145 -73.5 223.5t-221.5 78.5q-30 0 -59 -2t-53 -5v-660h-95v716q48 11 105.5 17.5t101.5 6.5q95 0 169 -25.5t124.5 -74t77 -118t26.5 -157.5
q0 -82 -26.5 -151t-71.5 -119.5t-104.5 -78.5t-126.5 -28z" />
    <glyph glyph-name="E" unicode="E" horiz-adv-x="577" 
d="M89 727h414v-72h-319v-583h334v-72h-429v727zM469 416v-70h-247q11 29 30.5 49.5t55.5 20.5h161z" />
    <glyph glyph-name="F" unicode="F" horiz-adv-x="573" 
d="M89 727h414v-72h-319v-655h-95v727zM469 416v-70h-247q11 29 30.5 49.5t55.5 20.5h161z" />
    <glyph glyph-name="G" unicode="G" horiz-adv-x="645" 
d="M410 667q-52 0 -101 -18.5t-87.5 -56.5t-61.5 -95t-23 -134t23 -133.5t61.5 -94.5t87.5 -56.5t101 -18.5q22 0 50.5 3t61.5 14v260h92v-300q-54 -29 -107.5 -39t-96.5 -10q-77 0 -145 25.5t-119 74t-81 118t-30 157.5q0 84 30 153.5t81 119t119 77t145 27.5q43 0 94 -9.5
t104 -34.5l-26 -65q-54 23 -95.5 29.5t-76.5 6.5z" />
    <glyph glyph-name="H" unicode="H" horiz-adv-x="730" 
d="M548 416v311h95v-727h-95v346h-326q11 29 30.5 49.5t54.5 20.5h241zM89 727h95v-727h-95v727z" />
    <glyph glyph-name="I" unicode="I" horiz-adv-x="270" 
d="M181 0h-92v727h92v-727z" />
    <glyph glyph-name="J" unicode="J" horiz-adv-x="344" 
d="M261 128q0 -66 -16 -113.5t-45 -85t-71 -70t-94 -67.5l-40 51q37 31 68.5 57.5t54 57.5t35 71t12.5 99v599h96v-599z" />
    <glyph glyph-name="K" unicode="K" horiz-adv-x="661" 
d="M382 433l259 -433h-115l-194 347l-7 18l-9 -18l-79 -104q-7 15 -8.5 35.5t2 43.5t12.5 46t24 44l233 315h108zM89 0v727h95v-727h-95z" />
    <glyph glyph-name="L" unicode="L" horiz-adv-x="520" 
d="M89 727h96v-654h304l-1 -73h-399v727z" />
    <glyph glyph-name="M" unicode="M" horiz-adv-x="949" 
d="M150 727h123l195 -584l7 -31l7 31l195 584h123l80 -727h-91l-57 582l-3 43l-12 -43l-198 -572h-89l-199 573l-13 42l-3 -42l-56 -583h-90z" />
    <glyph glyph-name="N" unicode="N" horiz-adv-x="749" 
d="M197 581l-14 34l2 -34v-581h-81v727h95l353 -564l12 -33l-2 35v562h84v-727h-85z" />
    <glyph glyph-name="O" unicode="O" horiz-adv-x="791" 
d="M45 364q0 96 30.5 167t79.5 118t108.5 70t118.5 23q81 0 144 -30t106 -81.5t65 -120.5t22 -146q0 -87 -27 -156.5t-73.5 -119t-107.5 -76t-129 -26.5q-70 0 -131.5 26t-107 74.5t-72 118.5t-26.5 159zM147 364q0 -68 17.5 -124t49 -96.5t74.5 -63t94 -22.5q53 0 96.5 24
t74 65t47.5 97t17 120q0 70 -18.5 126.5t-50.5 96.5t-75 61t-91 21t-91 -21t-75 -61t-50.5 -96.5t-18.5 -126.5z" />
    <glyph glyph-name="P" unicode="P" horiz-adv-x="609" 
d="M558 520q0 -48 -19.5 -86t-52.5 -65.5t-75 -43.5t-87 -20q-22 -2 -47 -1t-53 9q11 26 33.5 43.5t54.5 17.5q26 0 52 11t46.5 30.5t33.5 46t13 58.5q0 31 -13 58t-35 47t-51.5 31t-63.5 11q-56 0 -110 -6v-661l-95 2v718q56 11 103 15.5t102 4.5q60 0 109 -17.5
t83.5 -47.5t53 -70t18.5 -85z" />
    <glyph glyph-name="Q" unicode="Q" horiz-adv-x="788" 
d="M713 39l-54 -52l-247 251l54 53l100 -104l13 -19l7 24q22 41 30 84.5t8 87.5q0 70 -18.5 126.5t-50 96.5t-74.5 61t-91 21t-91 -21t-75 -61t-51 -96.5t-19 -126.5t18 -126.5t49.5 -96t74 -61t91.5 -21.5q18 0 31 2t28 6q26 7 55.5 0.5t46.5 -24.5q-42 -30 -81 -43.5
t-80 -13.5q-71 0 -132 26.5t-106 76t-70.5 119.5t-25.5 156q0 87 27.5 156.5t73.5 119t107 76t129 26.5q71 0 132.5 -26t106.5 -75t71 -119t26 -158q0 -68 -21.5 -125t-67.5 -123z" />
    <glyph glyph-name="R" unicode="R" horiz-adv-x="648" 
d="M558 525q0 -60 -33.5 -105.5t-85.5 -71.5l-24 -8l20 -8q37 -25 56.5 -61t33 -79.5t26 -92t35.5 -99.5h-100q-20 43 -31.5 92t-25.5 94t-35.5 80t-60.5 50q-3 -1 -9 -1q-22 -2 -47 -0.5t-53 8.5q11 26 33.5 43t54.5 18q26 1 52 12t46.5 29.5t33.5 44.5t13 57
q0 30 -13 55.5t-35 44.5t-51.5 30t-63.5 11q-28 0 -51 -1t-59 -8v-659h-95v718q56 11 103 17t102 6q60 0 109 -17t83.5 -46.5t53 -68.5t18.5 -82v-2z" />
    <glyph glyph-name="S" unicode="S" horiz-adv-x="554" 
d="M281 667q-28 0 -49.5 -8.5t-36.5 -23.5t-22.5 -34.5t-7.5 -41.5q0 -39 25 -66.5t63 -50.5t81.5 -45.5t81.5 -51.5t63 -68t25 -96q0 -37 -15.5 -72t-46 -62t-74.5 -43t-101 -16q-21 0 -47 2.5t-53 7.5t-55 14t-53 21l26 65q45 -20 90.5 -29t80.5 -9q71 0 110 35.5t39 87.5
q0 43 -25 71.5t-62 51.5t-81 44.5t-81 49t-62 65.5t-25 94q0 37 14.5 70t41.5 58t64 39t82 14q43 0 86.5 -7t94.5 -23l-27 -65q-43 13 -79.5 17.5t-64.5 4.5z" />
    <glyph glyph-name="T" unicode="T" horiz-adv-x="544" 
d="M10 655v72h521v-72h-213v-655h-96v655h-212z" />
    <glyph glyph-name="U" unicode="U" horiz-adv-x="694" 
d="M347 -14q-64 0 -114 20.5t-84.5 57.5t-52.5 89t-18 115v459h94v-475q0 -89 47.5 -141.5t127.5 -52.5t127.5 52.5t47.5 141.5v475h94v-459q0 -63 -19.5 -115t-55 -89t-85 -57.5t-109.5 -20.5z" />
    <glyph glyph-name="V" unicode="V" horiz-adv-x="630" 
d="M268 0l-255 727h103l196 -597l7 -33l8 32l195 598h99l-253 -727h-100z" />
    <glyph glyph-name="W" unicode="W" horiz-adv-x="972" 
d="M541 717l151 -581l10 -49l9 47l147 593h94l-195 -727h-112l-149 566l-8 42l-8 -40l-148 -568h-116l-195 727h96l148 -590l8 -49l11 49l155 580h102z" />
    <glyph glyph-name="X" unicode="X" horiz-adv-x="626" 
d="M47 727h111l147 -265l9 -25l8 25l149 265h106l-212 -350l225 -377h-108zM137 0h-103l200 330q9 -12 16 -26.5t11 -30t2.5 -32t-10.5 -31.5z" />
    <glyph glyph-name="Y" unicode="Y" horiz-adv-x="660" 
d="M370 337v-337h-93v309l-249 418h108zM507 727h105l-214 -351q-9 12 -16.5 26.5t-11 30.5t-1.5 33.5t12 35.5z" />
    <glyph glyph-name="Z" unicode="Z" horiz-adv-x="598" 
d="M129 727h469v-38l-387 -605l-15 -15l22 3h390v-72h-523v38l386 603l16 17l-24 -3h-334v72z" />
    <glyph glyph-name="bracketleft" unicode="[" horiz-adv-x="447" 
d="M145 771h257v-72h-171v-826h172l-1 -72h-257v970z" />
    <glyph glyph-name="backslash" unicode="\" horiz-adv-x="378" 
d="M268 -62l-243 789h89l243 -789h-89z" />
    <glyph glyph-name="bracketright" unicode="]" horiz-adv-x="457" 
d="M310 -199h-256l-1 72h172v826h-171v72h256v-970z" />
    <glyph glyph-name="asciicircum" unicode="^" horiz-adv-x="628" 
d="M163 210h-79l206 517h51l206 -517h-77l-148 370l-6 26l-6 -26z" />
    <glyph glyph-name="underscore" unicode="_" horiz-adv-x="497" 
d="M27 -63v63h443v-63h-443z" />
    <glyph glyph-name="grave" unicode="`" horiz-adv-x="196" 
d="M20 727h107l66 -125q-30 -8 -56 -1.5t-45 30.5z" />
    <glyph glyph-name="a" unicode="a" 
d="M453 171q0 -60 4.5 -102.5t11.5 -68.5h-68q-14 8 -22 21.5t-14 29.5l-1 18l-11 -18q-38 -38 -70.5 -49.5t-68.5 -11.5q-39 0 -70 11t-53 30t-33.5 45t-11.5 56q0 38 14.5 66t47 48t85.5 33.5t130 22.5q-2 -9 -5.5 -21t-12 -23.5t-21.5 -20.5t-33 -12q-33 -5 -53.5 -14
t-32.5 -20.5t-16 -25t-4 -27.5q0 -31 22 -53.5t60 -22.5q34 0 68.5 17t63.5 55v187q0 59 -29 96.5t-97 37.5q-27 0 -53.5 -5.5t-62.5 -18.5l-23 62q49 21 86.5 27.5t70.5 6.5q97 0 149.5 -55.5t52.5 -157.5v-143z" />
    <glyph glyph-name="b" unicode="b" horiz-adv-x="582" 
d="M210 496q26 13 55.5 20t52.5 7q41 0 79 -16.5t67.5 -49.5t47 -82t17.5 -114q0 -60 -18.5 -109.5t-51.5 -85.5t-79.5 -56t-102.5 -20q-108 0 -194 50v718h93v-680q24 -9 51 -12.5t50 -3.5q36 0 64.5 14.5t48.5 40.5t30.5 63t10.5 81q0 100 -39.5 147t-104.5 43
q-45 -3 -77 45z" />
    <glyph glyph-name="c" unicode="c" horiz-adv-x="427" 
d="M283 -10q-50 0 -94 17.5t-76.5 51.5t-51.5 84.5t-19 115.5t19.5 115t52.5 84t77 51.5t92 17.5q27 0 59.5 -5t62.5 -16l-23 -65q-29 8 -52.5 11t-46.5 3q-29 0 -54.5 -12t-45 -36t-31 -61t-11.5 -87q0 -51 11.5 -88t31 -61t45 -36t54.5 -12q22 0 48.5 6.5t61.5 22.5
l25 -66q-41 -20 -76.5 -27.5t-58.5 -7.5z" />
    <glyph glyph-name="d" unicode="d" horiz-adv-x="598" 
d="M51 261q0 60 19.5 108.5t52 82.5t74 52.5t86.5 18.5q23 0 48 -3.5t52 -13.5q-14 -25 -36.5 -40.5t-57.5 -14.5q-26 1 -51 -9.5t-44.5 -33.5t-31.5 -59.5t-12 -87.5q0 -44 9 -80.5t26 -62.5t42.5 -41t58.5 -15q71 0 131 73v623h93v-587q0 -60 4.5 -102.5t10.5 -68.5h-67
q-12 11 -19.5 22.5t-15.5 31.5l-2 16l-8 -17q-31 -35 -71 -49t-71 -14q-53 0 -93.5 21t-69 57.5t-43 86t-14.5 106.5z" />
    <glyph glyph-name="e" unicode="e" horiz-adv-x="544" 
d="M397 317q3 29 -4 54t-21.5 44t-35.5 29.5t-45 10.5q-63 0 -102.5 -50t-39.5 -143q0 -45 12 -81.5t33.5 -63t50.5 -41t63 -14.5q35 0 65.5 7t73.5 29l25 -66q-48 -25 -93 -33.5t-81 -8.5q-55 0 -100 20.5t-76.5 57t-48.5 86.5t-17 109q0 61 17 109.5t49 83t77 53t102 18.5
q51 0 91 -23t64 -61.5t29.5 -88.5t-10.5 -104h-290q11 29 30 48t55 19h127z" />
    <glyph glyph-name="f" unicode="f" horiz-adv-x="390" 
d="M5 448v48l86 21v28q0 49 13 89.5t37.5 69t60 44t81.5 15.5q25 0 55.5 -5.5t65.5 -20.5l-21 -61q-32 12 -52.5 15.5t-36.5 3.5q-21 0 -42 -8t-37.5 -24.5t-26.5 -43.5t-10 -64v-555h-87v448h-86zM359 517v-69h-145q11 29 30 49t55 20h60z" />
    <glyph glyph-name="g" unicode="g" horiz-adv-x="571" 
d="M54 256q0 61 19.5 111t55 85.5t84 55t106.5 19.5q42 0 83.5 -7.5t93.5 -24.5v-495q0 -56 -16.5 -102t-47.5 -79t-74.5 -51t-98.5 -18q-39 0 -85 8t-96 34l26 68q43 -21 79 -29.5t68 -8.5q31 0 59 10t49 30.5t33.5 52t12.5 74.5v455q-23 6 -43 8.5t-43 2.5q-75 0 -121 -51
t-46 -148q0 -42 8.5 -78.5t26 -62t43 -38.5t60.5 -9q22 2 42.5 -6t38.5 -31q-25 -17 -51 -26t-49 -11q-45 -4 -84.5 13.5t-69 52.5t-46.5 85t-17 111z" />
    <glyph glyph-name="h" unicode="h" horiz-adv-x="582" 
d="M83 0v758h93v-758h-93zM406 376q0 35 -13.5 57t-42.5 22q-12 0 -19.5 -2.5t-21.5 -5.5q-29 -7 -53 -1t-45 28q53 31 88 42t63 11q29 0 54.5 -7.5t44.5 -26.5t30 -50t11 -77v-366h-96v376z" />
    <glyph glyph-name="i" unicode="i" horiz-adv-x="256" 
d="M80 0v517h96v-517h-96zM68 667q0 26 17 43.5t43 17.5t43 -17.5t17 -43.5t-17 -43t-43 -17t-43 17t-17 43z" />
    <glyph glyph-name="j" unicode="j" horiz-adv-x="279" 
d="M89 667q0 27 16.5 44.5t42.5 17.5q27 0 44.5 -17.5t17.5 -44.5q0 -26 -17.5 -43t-44.5 -17q-26 0 -42.5 17t-16.5 43zM196 39q0 -40 -7 -75t-26.5 -69t-54 -69t-90.5 -74l-43 53q41 35 65.5 63t38 54t18 54t4.5 63v478h95v-478z" />
    <glyph glyph-name="k" unicode="k" horiz-adv-x="581" 
d="M176 0h-93v758h93v-758zM362 335l195 -335h-106l-148 270l-77 -87q-6 15 -7.5 33t2 37.5t11.5 39t22 35.5l163 189h110z" />
    <glyph glyph-name="l" unicode="l" horiz-adv-x="254" 
d="M176 0h-91v758h91v-758z" />
    <glyph glyph-name="m" unicode="m" horiz-adv-x="902" 
d="M142 517q24 -27 31.5 -53.5t7.5 -56.5v-407h-96v391q0 28 -3.5 59.5t-11.5 66.5h72zM407 376q0 35 -14.5 57t-43.5 22q-12 0 -21 -2t-22 -5q-29 -7 -53 -1t-45 28q53 31 89 41.5t63 10.5q29 0 55 -7.5t45.5 -26.5t31 -50t11.5 -77v-366h-96v376zM728 376q0 35 -15 57
t-47 22q-12 0 -22 -2.5t-24 -5.5q-29 -7 -54 -1t-46 28q54 32 91.5 42.5t64.5 10.5q30 0 56.5 -7.5t47 -26.5t32.5 -50t12 -77v-366h-96v376z" />
    <glyph glyph-name="n" unicode="n" horiz-adv-x="596" 
d="M142 517q24 -27 31.5 -53.5t7.5 -56.5v-407h-96v391q0 28 -3.5 59.5t-11.5 66.5h72zM413 376q0 35 -15.5 57t-46.5 22q-12 0 -21 -2.5t-22 -5.5q-29 -7 -54 -1t-46 28q53 31 89 42t63 11q30 0 57 -7.5t47.5 -26.5t32.5 -50t12 -77v-366h-96v376z" />
    <glyph glyph-name="o" unicode="o" horiz-adv-x="566" 
d="M40 259q0 69 21 119.5t55 83.5t77.5 49t87.5 16q57 0 102 -21t76 -57t47 -85t16 -105q0 -65 -19.5 -115.5t-52.5 -84.5t-77 -51.5t-92 -17.5q-50 0 -94 17.5t-76.5 51.5t-51.5 84.5t-19 115.5zM139 259q0 -44 9.5 -80t27.5 -62t44.5 -40.5t60.5 -14.5q36 0 63 15.5
t44.5 42.5t26 63t8.5 76q0 50 -11.5 87t-31 61t-45.5 36t-54 12q-29 0 -54.5 -12t-45 -36t-31 -61t-11.5 -87z" />
    <glyph glyph-name="p" unicode="p" horiz-adv-x="598" 
d="M547 256q0 -60 -19.5 -108.5t-51.5 -82.5t-74 -52.5t-87 -18.5q-23 0 -48 3.5t-52 13.5q14 25 36.5 40.5t57.5 14.5q26 -1 51 9.5t44.5 34t31.5 59.5t12 87q0 43 -8.5 80t-26 63t-43 41t-58.5 15q-34 0 -67 -17.5t-64 -55.5v-623h-92v587q0 60 -5 102.5t-11 68.5h67
q13 -11 20.5 -22.5t14.5 -31.5l2 -16l8 18q32 35 71.5 48.5t71.5 13.5q52 0 93 -21t69 -57.5t42.5 -86t14.5 -106.5z" />
    <glyph glyph-name="q" unicode="q" horiz-adv-x="582" 
d="M372 31q-25 -17 -51 -26t-49 -11q-45 -4 -84.5 13.5t-69 52.5t-46.5 85t-17 111t19.5 111t55 85.5t84 55t106.5 19.5q42 0 83.5 -7.5t93.5 -24.5v-736h-91v685q-23 6 -43 8.5t-43 2.5q-75 0 -121 -51t-46 -148q0 -42 8.5 -78.5t26 -62t43 -38.5t60.5 -9q22 2 42.5 -6
t38.5 -31z" />
    <glyph glyph-name="r" unicode="r" horiz-adv-x="391" 
d="M140 517q16 -17 22.5 -36.5t11.5 -43.5v-18l8 18q20 38 56 62.5t77 24.5q20 0 49 -8l-12 -78q-16 4 -27.5 5t-20.5 1q-23 0 -46 -9.5t-41 -29.5t-29.5 -52t-11.5 -77v-276h-89v342q0 46 -4 93t-12 82h69z" />
    <glyph glyph-name="s" unicode="s" horiz-adv-x="416" 
d="M60 98q38 -19 76.5 -27.5t70.5 -8.5q45 0 67 21t22 54q0 27 -18 45t-45 32.5t-58 28.5t-58 33t-45 46.5t-18 69.5q0 24 10.5 48t30.5 43t50 31t69 12q29 0 63 -5.5t76 -20.5l-23 -65q-32 11 -58.5 15.5t-47.5 4.5q-35 0 -57.5 -16t-22.5 -47q0 -27 18 -44.5t45 -32
t58 -29t58 -34t45 -48.5t18 -72q0 -29 -13.5 -54.5t-37 -45t-53.5 -31t-63 -11.5q-38 0 -81.5 6.5t-101.5 35.5z" />
    <glyph glyph-name="t" unicode="t" horiz-adv-x="426" 
d="M102 448h-92v45l92 24v132l88 28v-497q0 -52 22 -86.5t59 -34.5q20 0 38 3.5t44 11.5l22 -63q-38 -13 -59 -17.5t-45 -4.5q-82 0 -125.5 53t-43.5 149v257zM310 448q-35 0 -54.5 20t-29.5 49h141v-69h-57z" />
    <glyph glyph-name="u" unicode="u" horiz-adv-x="587" 
d="M435 0q-24 27 -31.5 53.5t-7.5 56.5v407h93v-391q0 -28 3.5 -59.5t12.5 -66.5h-70zM165 141q0 -35 14.5 -57t46.5 -22q12 0 20.5 2.5t22.5 5.5q29 7 54 1t46 -28q-53 -32 -89.5 -42.5t-63.5 -10.5q-30 0 -56 7.5t-46 26.5t-31.5 49.5t-11.5 77.5v366h94v-376z" />
    <glyph glyph-name="v" unicode="v" horiz-adv-x="516" 
d="M210 0l-194 517h100l138 -403l8 -25l7 25l137 403h96l-194 -517h-98z" />
    <glyph glyph-name="w" unicode="w" horiz-adv-x="860" 
d="M321 0h-95l-183 517h100l128 -403l7 -25l7 25l91 244q11 -12 19.5 -31t12 -41.5t2 -47t-9.5 -48.5zM557 0l-182 517h100l128 -403l7 -25l7 25l127 403h95l-182 -517h-100z" />
    <glyph glyph-name="x" unicode="x" horiz-adv-x="499" 
d="M369 0q-42 66 -83 129.5t-84 129.5l-171 258h105l107 -179l6 -21l7 21l109 179h98l-170 -254l180 -263h-104zM119 0h-97l154 225q20 -24 26 -56.5t-15 -64.5z" />
    <glyph glyph-name="y" unicode="y" horiz-adv-x="529" 
d="M224 179q8 -24 10 -49t-1 -47.5t-11 -41.5t-19 -31l-187 507h98zM121 -174q29 0 48.5 16t35 44.5t28.5 67t29 83.5l155 480h97l-183 -506q-20 -53 -37.5 -99.5t-40.5 -81.5t-54 -55.5t-78 -20.5q-20 1 -42.5 4.5t-43.5 10.5l24 66q33 -9 62 -9z" />
    <glyph glyph-name="z" unicode="z" horiz-adv-x="448" 
d="M68 517h350v-38l-258 -397l-16 -17l23 3h257v-68h-389v38l261 399l15 17l-21 -3h-222v66z" />
    <glyph glyph-name="braceleft" unicode="{" horiz-adv-x="403" 
d="M179 192q-2 35 -30.5 55.5t-66.5 27.5v57q38 7 67.5 27.5t31.5 55.5q5 61 16 112t32 94t53 79t78 67l40 -50q-37 -29 -62 -59.5t-41 -64t-24.5 -71.5t-11.5 -83q-3 -42 -23 -73t-52 -52l-25 -11l26 -12q32 -21 52 -51.5t22 -71.5q3 -48 10.5 -89t23.5 -76t41.5 -67
t63.5 -62l-40 -50q-48 33 -80.5 69.5t-53.5 80.5t-32 98t-15 120z" />
    <glyph glyph-name="bar" unicode="|" horiz-adv-x="317" 
d="M115 -293v1104h80v-1104h-80z" />
    <glyph glyph-name="braceright" unicode="}" horiz-adv-x="403" 
d="M303 192q-4 -66 -14.5 -120t-31.5 -98t-54 -80.5t-81 -69.5l-40 50q38 30 63.5 62t41 67t23.5 76t11 89q3 42 23.5 73t52.5 52l24 10l-25 11q-32 21 -52 52t-23 73q-3 45 -11.5 83t-24.5 71.5t-41 64t-62 59.5l40 50q46 -31 78 -67t53 -79t32 -94t16 -112
q2 -35 31.5 -55.5t67.5 -27.5v-57q-38 -7 -66.5 -27.5t-30.5 -55.5z" />
    <glyph glyph-name="asciitilde" unicode="~" horiz-adv-x="614" 
d="M63 236q3 75 44 110t106 36q32 0 61.5 -12.5t52.5 -29.5t48 -29.5t59 -12.5q24 0 37.5 24t16.5 62l81 -8q-3 -42 -14.5 -70t-31 -45t-45 -24t-55.5 -7q-34 -1 -64 12t-53 30q-25 17 -48 29.5t-54 12.5q-24 -1 -41 -22.5t-20 -63.5z" />
    <glyph glyph-name="exclamdown" unicode="&#xa1;" horiz-adv-x="351" 
d="M70 -210l12 542h68l14 -542h-94zM56 473q0 26 16.5 42.5t42.5 16.5t43.5 -16.5t17.5 -42.5t-17.5 -43.5t-43.5 -17.5t-42.5 17.5t-16.5 43.5z" />
    <glyph glyph-name="cent" unicode="&#xa2;" horiz-adv-x="427" 
d="M418 120q-29 -15 -55.5 -22.5t-48.5 -10.5v-101h-72v102q-43 6 -79.5 26.5t-63.5 54.5t-42 80t-15 105q0 58 15.5 104t42.5 79t63.5 53.5t78.5 27.5v98h72v-95q22 -2 45.5 -7t45.5 -13l-25 -66q-27 8 -50.5 11.5t-46.5 3.5q-29 0 -54.5 -12t-45 -36t-31 -61t-11.5 -87
q0 -51 11.5 -88t31 -61t45 -36t54.5 -12q22 0 48.5 6.5t61.5 22.5z" />
    <glyph glyph-name="sterling" unicode="&#xa3;" horiz-adv-x="513" 
d="M256 197q-14 -56 -58 -101l-21 -18l27 2h279v-80h-427v61q54 27 88.5 74t34.5 107q0 20 -1 39t-5 40h-96v65h86q-5 24 -8.5 59t-3.5 67q0 48 16 85t43 62.5t63.5 39t77.5 13.5q35 0 71.5 -8.5t79.5 -28.5l-25 -67q-37 18 -71 25t-55 7q-56 0 -84 -36t-28 -93
q0 -45 5.5 -86t10.5 -79.5t6.5 -75t-5.5 -73.5zM371 321q-36 0 -55 18t-30 47h159v-65h-74z" />
    <glyph glyph-name="currency" unicode="&#xa4;" horiz-adv-x="513" 
d="M256 544q35 0 65 -11t51 -29l76 70l39 -41l-78 -71q14 -20 24.5 -50.5t10.5 -66.5q0 -42 -10.5 -73t-24.5 -50l75 -74l-40 -40l-73 73q-23 -22 -55 -32.5t-62 -10.5q-31 0 -62.5 10.5t-51.5 29.5l-70 -70l-40 40l72 71q-15 20 -26 51.5t-11 68.5q0 39 11.5 70.5
t27.5 52.5l-75 71l39 41l74 -71q21 19 51 30t63 11zM255 485q-28 0 -50 -11.5t-37.5 -31.5t-23.5 -46.5t-8 -55.5q0 -36 11.5 -63t28.5 -45t38 -26.5t40 -8.5q21 0 42 8.5t38.5 26.5t28 45.5t10.5 66.5q0 26 -7.5 51t-22.5 45t-37 32.5t-51 12.5z" />
    <glyph glyph-name="yen" unicode="&#xa5;" horiz-adv-x="660" 
d="M111 309h166l-249 418h108l234 -390v-28h166v-47h-166v-77h166v-47h-166v-138h-93v138h-166v47h166v77h-166v47zM507 727h105l-214 -351q-9 12 -16.5 26.5t-11 30.5t-1.5 33.5t12 35.5z" />
    <glyph glyph-name="brokenbar" unicode="&#xa6;" horiz-adv-x="254" 
d="M91 387v424h80v-424h-80zM91 -293v434h80v-434h-80z" />
    <glyph glyph-name="section" unicode="&#xa7;" horiz-adv-x="500" 
d="M65 57q46 -19 92 -27.5t84 -8.5q61 0 88.5 21t27.5 55q0 27 -22 45t-55.5 32.5t-72.5 28.5t-72.5 33t-55.5 46.5t-22 69.5q0 28 18 56t55 49l26 10l-21 9q-30 19 -49 45t-19 64q0 24 12.5 48.5t36 43.5t57.5 31t77 12q34 0 74.5 -5.5t91.5 -20.5l-27 -65q-38 11 -70 15.5
t-57 4.5q-49 0 -77 -16t-28 -47q0 -27 22 -45t55.5 -32.5t72.5 -28.5t72.5 -34t55.5 -49t22 -72q0 -34 -19.5 -61t-50.5 -45l-23 -9l21 -9q28 -19 45 -45t17 -64q0 -32 -15 -58.5t-41 -45t-61 -29t-74 -10.5q-23 0 -47 1t-51 5.5t-57 13t-65 22.5zM372 330q0 20 -13 35
t-35 27t-49.5 22.5t-55.5 21.5q-36 -14 -56.5 -35.5t-20.5 -47.5q0 -21 14.5 -36.5t37.5 -28t52.5 -23.5t59.5 -23q35 20 50.5 42.5t15.5 45.5z" />
    <glyph glyph-name="dieresis" unicode="&#xa8;" horiz-adv-x="407" 
d="M38 670q0 22 15.5 37t36.5 15q22 0 37.5 -15t15.5 -37t-15.5 -37t-37.5 -15q-21 0 -36.5 15t-15.5 37zM232 670q0 22 15.5 37t37.5 15q21 0 36.5 -15t15.5 -37t-15.5 -37t-36.5 -15q-22 0 -37.5 15t-15.5 37z" />
    <glyph glyph-name="copyright" unicode="&#xa9;" horiz-adv-x="720" 
d="M357 680q72 0 131.5 -25.5t101.5 -69.5t65.5 -102.5t23.5 -125.5q0 -68 -23.5 -127.5t-65.5 -103.5t-101.5 -69.5t-131.5 -25.5q-73 0 -133 25.5t-102.5 69.5t-66 103.5t-23.5 127.5q0 67 23.5 125.5t66 102.5t102.5 69.5t133 25.5zM357 623q-57 0 -103.5 -20
t-79.5 -55.5t-51.5 -84.5t-18.5 -109q0 -59 18.5 -107.5t51.5 -83.5t79.5 -54.5t103.5 -19.5q55 -1 101 18.5t79 55t51.5 85t18.5 109.5q0 58 -18.5 107t-51.5 84.5t-79 55t-101 19.5zM377 176q-33 0 -62.5 12t-51.5 35t-35 56.5t-13 77.5q0 43 13 77t35.5 56.5t51.5 34.5
t62 12q39 0 83 -14l-17 -48q-18 6 -34.5 8t-31.5 2q-38 0 -66.5 -32t-28.5 -96q0 -66 28.5 -98t66.5 -32q14 0 33 4t42 15l17 -47q-28 -14 -52 -18.5t-40 -4.5z" />
    <glyph glyph-name="ordfeminine" unicode="&#xaa;" 
d="M334 422q0 -42 3 -71.5t8 -48.5h-50q-11 6 -16 15.5t-10 20.5v12l-8 -12q-27 -27 -49.5 -35t-47.5 -8q-55 0 -87 28.5t-32 70.5q0 27 10 47t33.5 34.5t60.5 24t91 15.5q-1 -6 -4 -15t-8.5 -17.5t-14.5 -15t-23 -8.5q-23 -4 -37.5 -10t-22.5 -14t-10.5 -17t-2.5 -19
q0 -22 14.5 -36.5t41.5 -14.5q23 0 47.5 12t44.5 39v128q0 42 -20 66.5t-68 24.5q-19 0 -37.5 -4t-43.5 -13l-16 46q34 15 60.5 19.5t49.5 4.5q67 0 105.5 -39t38.5 -110v-100z" />
    <glyph glyph-name="guillemotleft" unicode="&#xab;" horiz-adv-x="613" 
d="M72 258l216 208l44 -43l-144 -165l144 -165l-44 -43zM322 258l216 208l44 -43l-144 -165l144 -165l-44 -43z" />
    <glyph glyph-name="logicalnot" unicode="&#xac;" horiz-adv-x="569" 
d="M529 438v-282h-73v218h-413v64h486z" />
    <glyph glyph-name="uni00AD" unicode="&#xad;" horiz-adv-x="375" 
d="M45 273v64h302v-64h-302z" />
    <glyph glyph-name="registered" unicode="&#xae;" horiz-adv-x="720" 
d="M357 680q72 0 131.5 -25.5t101.5 -69.5t65.5 -102.5t23.5 -125.5q0 -68 -23.5 -127.5t-65.5 -103.5t-101.5 -69.5t-131.5 -25.5q-73 0 -133 25.5t-102.5 69.5t-66 103.5t-23.5 127.5q0 67 23.5 125.5t66 102.5t102.5 69.5t133 25.5zM357 623q-57 0 -103.5 -20
t-79.5 -55.5t-51.5 -84.5t-18.5 -109q0 -59 18.5 -107.5t51.5 -83.5t79.5 -54.5t103.5 -19.5q55 -1 101 18.5t79 55t51.5 85t18.5 109.5q0 58 -18.5 107t-51.5 84.5t-79 55t-101 19.5zM488 431q0 -31 -17.5 -52.5t-45.5 -33.5q18 -11 28 -27.5t16.5 -37t12.5 -44t17 -47.5
h-66q-9 20 -14.5 42.5t-12 43t-16.5 36.5t-28 23q-6 0 -8.5 -0.5t-4 -0.5h-4.5h-9q6 12 15 26.5t31 17.5q17 3 29 18.5t12 35.5q0 23 -19.5 39.5t-49.5 16.5q-9 0 -18 -0.5t-23 -2.5v-295h-62v334q29 7 53 10t50 3q57 0 95.5 -28t38.5 -77z" />
    <glyph glyph-name="macron" unicode="&#xaf;" horiz-adv-x="500" 
d="M115 613v64h292v-64h-292z" />
    <glyph glyph-name="degree" unicode="&#xb0;" horiz-adv-x="337" 
d="M175 713q-21 0 -36.5 -8t-26 -21t-15.5 -29t-5 -32q0 -17 5 -33t15.5 -29t26 -20.5t36.5 -7.5q22 0 38 9t26 22.5t15 29t5 29.5q0 21 -7 37.5t-19 28t-27 18t-31 6.5zM29 623q0 28 11 53.5t30.5 44.5t46.5 30.5t58 11.5q25 0 51 -9t47 -27t34.5 -44t13.5 -60t-13.5 -60
t-34.5 -44t-47 -27t-51 -9q-29 0 -55.5 10.5t-46.5 29t-32 44.5t-12 56z" />
    <glyph glyph-name="plusminus" unicode="&#xb1;" horiz-adv-x="568" 
d="M47 367h197v179h73v-179h198v-64h-198v-181h-73v181h-197v64zM47 0v63h468v-63h-468z" />
    <glyph glyph-name="twosuperior" unicode="&#xb2;" horiz-adv-x="402" 
d="M327 628q0 -36 -18.5 -69t-45 -63.5t-54 -60t-45.5 -58.5l-9 -10l13 2h166v-59h-261v36q30 48 62.5 86t59.5 70t45 60.5t18 58.5q0 34 -20.5 47.5t-52.5 13.5q-17 0 -35 -4.5t-38 -12.5l-22 46q27 15 52 20t49 5q27 0 51.5 -7t43.5 -21t30 -34t11 -46z" />
    <glyph glyph-name="threesuperior" unicode="&#xb3;" horiz-adv-x="381" 
d="M297 640q0 -32 -21 -59t-56 -43q17 -4 33.5 -12.5t29 -22t20.5 -31.5t8 -40q0 -26 -11 -49.5t-31 -41.5t-48.5 -29t-62.5 -11q-35 0 -61.5 9.5t-41.5 18.5l18 47q18 -8 36.5 -14t47.5 -6q41 0 62.5 24t21.5 53q0 38 -29.5 54.5t-80.5 16.5l-6 44l32 13q27 11 48.5 27.5
t21.5 42.5q0 22 -15 35.5t-42 13.5q-34 0 -76 -17l-23 47q28 15 54 20t51 5q55 0 88 -26.5t33 -68.5z" />
    <glyph glyph-name="acute" unicode="&#xb4;" horiz-adv-x="322" 
d="M168 631q-20 -24 -46 -30t-52 1l89 138h97z" />
    <glyph glyph-name="mu" unicode="&#xb5;" horiz-adv-x="553" 
d="M396 61q-19 -26 -50 -48.5t-81 -22.5q-59 0 -92 35l-15 22l2 -32v-226h-86v728h92v-307q0 -30 6.5 -56t20 -46t33.5 -31.5t48 -11.5q23 0 45 11t39.5 29t28 42.5t10.5 51.5v318h93v-376q0 -42 12 -59t43 -15l9 -64q-17 -6 -30 -8.5t-24 -2.5q-31 0 -54.5 15.5t-33.5 53.5
l-4 24z" />
    <glyph glyph-name="paragraph" unicode="&#xb6;" horiz-adv-x="609" 
d="M325 304l-2 1q-45 4 -85 20.5t-69.5 44.5t-47 66t-17.5 84q0 43 16.5 83t48 70.5t78 48.5t106.5 18q27 0 51 -1t47 -3.5t47.5 -6t52.5 -9.5v-750h-73v688q-23 4 -42.5 5.5t-37.5 2.5v-696h-73v334z" />
    <glyph glyph-name="periodcentered" unicode="&#xb7;" horiz-adv-x="306" 
d="M93 304q0 26 16.5 43.5t42.5 17.5t43.5 -17.5t17.5 -43.5t-17.5 -42.5t-43.5 -16.5t-42.5 16.5t-16.5 42.5z" />
    <glyph glyph-name="cedilla" unicode="&#xb8;" horiz-adv-x="500" 
d="M281 2l-13 -52q14 -2 28.5 -7.5t26 -15t18.5 -22.5t7 -28q0 -23 -10 -38.5t-26.5 -25.5t-37 -14.5t-40.5 -4.5q-17 0 -36 4t-43 15l14 43q19 -8 34.5 -10.5t30.5 -2.5q17 0 35 6.5t18 24.5q0 19 -20 28.5t-55 13.5l22 82z" />
    <glyph glyph-name="onesuperior" unicode="&#xb9;" horiz-adv-x="319" 
d="M182 309v336l-62 -32l-27 47l125 67h33v-418h-69z" />
    <glyph glyph-name="ordmasculine" unicode="&#xba;" horiz-adv-x="430" 
d="M214 294q-38 0 -69 13.5t-53.5 38t-34.5 59.5t-12 78q0 39 11.5 73t33.5 59.5t53.5 40.5t70.5 15q34 0 64.5 -11.5t53.5 -35t37 -59t14 -82.5q0 -44 -12.5 -78.5t-35 -59.5t-53.5 -38t-68 -13zM118 483q0 -67 27 -100.5t69 -33.5q24 0 42 11t30.5 29.5t18.5 42.5t6 51
q0 24 -5 48t-16 43t-30 31t-46 12q-24 0 -42 -11t-30 -30t-18 -43t-6 -50z" />
    <glyph glyph-name="guillemotright" unicode="&#xbb;" horiz-adv-x="613" 
d="M114 50l-44 43l144 165l-144 165l44 43l216 -208zM364 50l-44 43l144 165l-144 165l44 43l216 -208z" />
    <glyph glyph-name="onequarter" unicode="&#xbc;" horiz-adv-x="698" 
d="M89 0l436 727h62l-436 -727h-62zM122 309v336l-62 -32l-27 47l125 67h33v-418h-69zM535 423h73v-280h48v-54h-48v-89h-64v312l2 24l-13 -22l-111 -160l-11 -12l17 2h15q15 0 26.5 -5.5t20.5 -14t15 -18t10 -17.5h-167v56z" />
    <glyph glyph-name="onehalf" unicode="&#xbd;" horiz-adv-x="763" 
d="M89 0l436 727h62l-436 -727h-62zM122 309v336l-62 -32l-27 47l125 67h33v-418h-69zM680 318q0 -36 -18.5 -69t-45 -63.5t-54 -60t-45.5 -58.5l-9 -10l13 2h166v-59h-261v36q30 48 62.5 86t59.5 70t45 60.5t18 58.5q0 34 -20.5 47.5t-52.5 13.5q-17 0 -35 -4.5t-38 -12.5
l-22 46q27 15 52 20t49 5q27 0 51.5 -7t43.5 -21t30 -34t11 -46z" />
    <glyph glyph-name="threequarters" unicode="&#xbe;" horiz-adv-x="716" 
d="M127 0l436 727h62l-436 -727h-62zM573 423h73v-280h48v-54h-48v-89h-64v330l-129 -186h28q15 0 26.5 -5.5t20.5 -14t15 -18t10 -17.5h-167v56zM266 640q0 -32 -21 -59t-56 -43q17 -4 33.5 -12.5t29 -22t20.5 -31.5t8 -40q0 -26 -11 -49.5t-31 -41.5t-48.5 -29t-62.5 -11
q-35 0 -61.5 9.5t-41.5 18.5l18 47q18 -8 36.5 -14t47.5 -6q41 0 62.5 24t21.5 53q0 38 -29.5 54.5t-80.5 16.5l-6 44l32 13q27 11 48.5 27.5t21.5 42.5q0 22 -15 35.5t-42 13.5q-34 0 -76 -17l-23 47q28 15 54 20t51 5q55 0 88 -26.5t33 -68.5z" />
    <glyph glyph-name="questiondown" unicode="&#xbf;" horiz-adv-x="583" 
d="M302 -220q-43 0 -79 11.5t-61.5 32t-39.5 47.5t-14 59q0 42 14.5 75t36 62.5t46.5 57.5t46.5 58.5t36 66.5t14.5 82h72q0 -54 -12.5 -94.5t-31 -72.5t-40.5 -57.5t-40.5 -50.5t-31 -52t-12.5 -60q0 -40 29.5 -66.5t76.5 -26.5q29 0 61.5 7t72.5 29l25 -67
q-46 -25 -86.5 -33t-82.5 -8zM399 473q0 -26 -17 -43.5t-43 -17.5t-43.5 17.5t-17.5 43.5t17.5 42.5t43.5 16.5t43 -16.5t17 -42.5z" />
    <glyph glyph-name="Agrave" unicode="&#xc0;" horiz-adv-x="687" 
d="M390 727l262 -727h-102l-210 605l-119 -340l-11 -21l12 2h135q36 0 55 -21.5t30 -50.5h-252l-60 -174h-95l262 727h93zM229 890h94l74 -124q-26 -6 -52 -1t-43 27z" />
    <glyph glyph-name="Aacute" unicode="&#xc1;" horiz-adv-x="687" 
d="M390 727l262 -727h-102l-210 605l-119 -340l-11 -21l12 2h135q36 0 55 -21.5t30 -50.5h-252l-60 -174h-95l262 727h93zM392 792q-20 -22 -46 -27t-52 1l89 124h97z" />
    <glyph glyph-name="Acircumflex" unicode="&#xc2;" horiz-adv-x="687" 
d="M390 727l262 -727h-102l-210 605l-119 -340l-11 -21l12 2h135q36 0 55 -21.5t30 -50.5h-252l-60 -174h-95l262 727h93zM369 890l111 -120l-52 -8l-88 59l-88 -60l-49 9l109 120h57z" />
    <glyph glyph-name="Atilde" unicode="&#xc3;" horiz-adv-x="687" 
d="M390 727l262 -727h-102l-210 605l-119 -340l-11 -21l12 2h135q36 0 55 -21.5t30 -50.5h-252l-60 -174h-95l262 727h93zM202 783q2 57 27.5 82t61.5 26q37 0 64 -24q14 -12 24 -22t30 -10q26 0 31 58l53 -6q-2 -32 -9.5 -52.5t-19.5 -33t-26.5 -17.5t-28.5 -5
q-41 0 -65 23q-14 12 -24.5 22.5t-27.5 10.5q-13 0 -23 -13t-12 -45z" />
    <glyph glyph-name="Adieresis" unicode="&#xc4;" horiz-adv-x="687" 
d="M390 727l262 -727h-102l-210 605l-119 -340l-11 -21l12 2h135q36 0 55 -21.5t30 -50.5h-252l-60 -174h-95l262 727h93zM194 840q0 22 15.5 37t36.5 15q22 0 37.5 -15t15.5 -37t-15.5 -37t-37.5 -15q-21 0 -36.5 15t-15.5 37zM388 840q0 22 15.5 37t37.5 15q21 0 36.5 -15
t15.5 -37t-15.5 -37t-36.5 -15q-22 0 -37.5 15t-15.5 37z" />
    <glyph glyph-name="Aring" unicode="&#xc5;" horiz-adv-x="687" 
d="M35 0l260 723q-25 11 -39 31.5t-14 46.5q0 39 27.5 64.5t71.5 25.5q45 0 71 -25t26 -64q0 -26 -13 -45.5t-35 -30.5l262 -726h-102l-210 605l-119 -340l-11 -21l12 2h135q36 0 55 -21.5t30 -50.5h-252l-60 -174h-95zM340 752q23 0 36.5 14.5t13.5 36.5t-13.5 36.5
t-36.5 14.5q-21 0 -34.5 -15t-13.5 -38q0 -19 13 -34t35 -15z" />
    <glyph glyph-name="AE" unicode="&#xc6;" horiz-adv-x="975" 
d="M438 605l-2 40l-15 -40l-170 -340l-14 -21l18 2h128q36 0 55 -21.5t30 -50.5h-261l-87 -174h-99l369 727h454v-72h-324l90 -583h304v-72h-381zM854 416v-70h-252q9 29 27.5 49.5t54.5 20.5h170z" />
    <glyph glyph-name="Ccedilla" unicode="&#xc7;" horiz-adv-x="652" 
d="M434 -12q-10 0 -19.5 0.5t-18.5 1.5l-10 -40q14 -2 28.5 -7.5t26 -15t18.5 -22.5t7 -28q0 -23 -10 -38.5t-26.5 -25.5t-37 -14.5t-40.5 -4.5q-17 0 -36 4t-43 15l14 43q19 -8 34.5 -10.5t30.5 -2.5q17 0 35 6.5t18 24.5q0 19 -20 28.5t-55 13.5l21 80q-61 12 -112.5 43
t-88.5 78.5t-57.5 109t-20.5 135.5q0 84 27.5 153.5t76.5 119.5t115 77.5t143 27.5q42 0 86.5 -8.5t90.5 -25.5l-26 -65q-44 14 -80 20t-71 6q-52 0 -99 -19t-83 -57t-57 -95.5t-21 -133.5q0 -74 21 -130t57 -94.5t83 -58t99 -19.5q35 0 72 9t79 30l26 -65
q-47 -25 -91 -35.5t-86 -10.5z" />
    <glyph glyph-name="Egrave" unicode="&#xc8;" horiz-adv-x="577" 
d="M89 727h414v-72h-319v-583h334v-72h-429v727zM469 416v-70h-247q11 29 30.5 49.5t55.5 20.5h161zM188 890h94l74 -124q-26 -6 -52 -1t-43 27z" />
    <glyph glyph-name="Eacute" unicode="&#xc9;" horiz-adv-x="577" 
d="M89 727h414v-72h-319v-583h334v-72h-429v727zM469 416v-70h-247q11 29 30.5 49.5t55.5 20.5h161zM347 792q-20 -22 -46 -27t-52 1l89 124h97z" />
    <glyph glyph-name="Ecircumflex" unicode="&#xca;" horiz-adv-x="577" 
d="M89 727h414v-72h-319v-583h334v-72h-429v727zM469 416v-70h-247q11 29 30.5 49.5t55.5 20.5h161zM331 890l111 -120l-52 -8l-88 59l-88 -60l-49 9l109 120h57z" />
    <glyph glyph-name="Edieresis" unicode="&#xcb;" horiz-adv-x="577" 
d="M89 727h414v-72h-319v-583h334v-72h-429v727zM469 416v-70h-247q11 29 30.5 49.5t55.5 20.5h161zM151 840q0 22 15.5 37t36.5 15q22 0 37.5 -15t15.5 -37t-15.5 -37t-37.5 -15q-21 0 -36.5 15t-15.5 37zM345 840q0 22 15.5 37t37.5 15q21 0 36.5 -15t15.5 -37t-15.5 -37
t-36.5 -15q-22 0 -37.5 15t-15.5 37z" />
    <glyph glyph-name="Igrave" unicode="&#xcc;" horiz-adv-x="279" 
d="M190 0h-92v727h92v-727zM27 890h94l74 -124q-26 -6 -52 -1t-43 27z" />
    <glyph glyph-name="Iacute" unicode="&#xcd;" horiz-adv-x="321" 
d="M181 0h-92v727h92v-727zM182 792q-20 -22 -46 -27t-52 1l89 124h97z" />
    <glyph glyph-name="Icircumflex" unicode="&#xce;" horiz-adv-x="321" 
d="M205 0h-92v727h92v-727zM188 890l111 -120l-52 -8l-88 59l-88 -60l-49 9l109 120h57z" />
    <glyph glyph-name="Idieresis" unicode="&#xcf;" horiz-adv-x="350" 
d="M218 0h-92v727h92v-727zM23 840q0 22 15.5 37t36.5 15q22 0 37.5 -15t15.5 -37t-15.5 -37t-37.5 -15q-21 0 -36.5 15t-15.5 37zM217 840q0 22 15.5 37t37.5 15q21 0 36.5 -15t15.5 -37t-15.5 -37t-36.5 -15q-22 0 -37.5 15t-15.5 37z" />
    <glyph glyph-name="Eth" unicode="&#xd0;" horiz-adv-x="713" 
d="M7 388h82v328q48 11 105.5 17.5t101.5 6.5q95 0 169 -27t124.5 -76.5t77 -118.5t26.5 -153q0 -82 -26.5 -151t-71.5 -119.5t-104.5 -78.5t-126.5 -28q-34 0 -65 3t-75 14q14 26 37 43t57 14q16 -2 24.5 -2h20.5q48 0 89.5 24t72.5 65.5t48.5 97t17.5 118.5
q0 145 -73.5 223.5t-221.5 78.5q-30 0 -59 -2t-53 -5v-272h227v-65h-227v-323h-95v323h-82v65z" />
    <glyph glyph-name="Ntilde" unicode="&#xd1;" horiz-adv-x="749" 
d="M197 581l-14 34l2 -34v-581h-81v727h95l353 -564l12 -33l-2 35v562h84v-727h-85zM233 783q2 57 27.5 82t61.5 26q37 0 64 -24q14 -12 24 -22t30 -10q26 0 31 58l53 -6q-2 -32 -9.5 -52.5t-19.5 -33t-26.5 -17.5t-28.5 -5q-41 0 -65 23q-14 12 -24.5 22.5t-27.5 10.5
q-13 0 -23 -13t-12 -45z" />
    <glyph glyph-name="Ograve" unicode="&#xd2;" horiz-adv-x="791" 
d="M719 364q0 -87 -27 -156.5t-73.5 -119t-107.5 -76t-129 -26.5q-70 0 -131.5 26t-107 74.5t-72 118.5t-26.5 159q0 87 27.5 156.5t73.5 119t107 76t129 26.5q71 0 132.5 -26t107 -75t71.5 -119t26 -158zM617 364q0 70 -18.5 126.5t-50.5 96.5t-75 61t-91 21t-91 -21
t-75 -61t-50.5 -96.5t-18.5 -126.5q0 -71 18.5 -128t51 -96.5t75 -60.5t90.5 -21t91 21t75 60.5t50.5 96.5t18.5 128zM237 890h94l74 -124q-26 -6 -52 -1t-43 27z" />
    <glyph glyph-name="Oacute" unicode="&#xd3;" horiz-adv-x="791" 
d="M719 364q0 -87 -27 -156.5t-73.5 -119t-107.5 -76t-129 -26.5q-70 0 -131.5 26t-107 74.5t-72 118.5t-26.5 159q0 87 27.5 156.5t73.5 119t107 76t129 26.5q71 0 132.5 -26t107 -75t71.5 -119t26 -158zM617 364q0 70 -18.5 126.5t-50.5 96.5t-75 61t-91 21t-91 -21
t-75 -61t-50.5 -96.5t-18.5 -126.5q0 -71 18.5 -128t51 -96.5t75 -60.5t90.5 -21t91 21t75 60.5t50.5 96.5t18.5 128zM443 792q-20 -22 -46 -27t-52 1l89 124h97z" />
    <glyph glyph-name="Ocircumflex" unicode="&#xd4;" horiz-adv-x="791" 
d="M719 364q0 -87 -27 -156.5t-73.5 -119t-107.5 -76t-129 -26.5q-70 0 -131.5 26t-107 74.5t-72 118.5t-26.5 159q0 87 27.5 156.5t73.5 119t107 76t129 26.5q71 0 132.5 -26t107 -75t71.5 -119t26 -158zM617 364q0 70 -18.5 126.5t-50.5 96.5t-75 61t-91 21t-91 -21
t-75 -61t-50.5 -96.5t-18.5 -126.5q0 -71 18.5 -128t51 -96.5t75 -60.5t90.5 -21t91 21t75 60.5t50.5 96.5t18.5 128zM412 890l111 -120l-52 -8l-88 59l-88 -60l-49 9l109 120h57z" />
    <glyph glyph-name="Otilde" unicode="&#xd5;" horiz-adv-x="791" 
d="M719 364q0 -87 -27 -156.5t-73.5 -119t-107.5 -76t-129 -26.5q-70 0 -131.5 26t-107 74.5t-72 118.5t-26.5 159q0 87 27.5 156.5t73.5 119t107 76t129 26.5q71 0 132.5 -26t107 -75t71.5 -119t26 -158zM617 364q0 70 -18.5 126.5t-50.5 96.5t-75 61t-91 21t-91 -21
t-75 -61t-50.5 -96.5t-18.5 -126.5q0 -71 18.5 -128t51 -96.5t75 -60.5t90.5 -21t91 21t75 60.5t50.5 96.5t18.5 128zM242 783q2 57 27.5 82t61.5 26q37 0 64 -24q14 -12 24 -22t30 -10q26 0 31 58l53 -6q-2 -32 -9.5 -52.5t-19.5 -33t-26.5 -17.5t-28.5 -5q-41 0 -65 23
q-14 12 -24.5 22.5t-27.5 10.5q-13 0 -23 -13t-12 -45z" />
    <glyph glyph-name="Odieresis" unicode="&#xd6;" horiz-adv-x="791" 
d="M719 364q0 -87 -27 -156.5t-73.5 -119t-107.5 -76t-129 -26.5q-70 0 -131.5 26t-107 74.5t-72 118.5t-26.5 159q0 87 27.5 156.5t73.5 119t107 76t129 26.5q71 0 132.5 -26t107 -75t71.5 -119t26 -158zM617 364q0 70 -18.5 126.5t-50.5 96.5t-75 61t-91 21t-91 -21
t-75 -61t-50.5 -96.5t-18.5 -126.5q0 -71 18.5 -128t51 -96.5t75 -60.5t90.5 -21t91 21t75 60.5t50.5 96.5t18.5 128zM234 840q0 22 15.5 37t36.5 15q22 0 37.5 -15t15.5 -37t-15.5 -37t-37.5 -15q-21 0 -36.5 15t-15.5 37zM428 840q0 22 15.5 37t37.5 15q21 0 36.5 -15
t15.5 -37t-15.5 -37t-36.5 -15q-22 0 -37.5 15t-15.5 37z" />
    <glyph glyph-name="multiply" unicode="&#xd7;" horiz-adv-x="568" 
d="M54 124l181 182l-181 180l46 45l181 -180l179 180l45 -45l-179 -180l181 -182l-45 -45l-181 181l-182 -181z" />
    <glyph glyph-name="Oslash" unicode="&#xd8;" horiz-adv-x="791" 
d="M596 665q57 -49 90 -125t33 -176q0 -87 -27 -156.5t-73.5 -119t-107.5 -76t-129 -26.5q-86 0 -157 38l-49 -84h-79l72 122q-57 48 -90.5 124.5t-33.5 177.5q0 87 27.5 156.5t73.5 119t107 76t129 26.5q86 0 157 -38l51 85h79zM620 364q0 70 -19.5 126t-51.5 96l-268 -453
q-17 20 -25.5 49t7.5 58l236 395q-53 36 -117 36q-48 0 -91.5 -21.5t-76 -61.5t-51.5 -97t-19 -127q0 -71 19 -128t52 -97t76 -61.5t91 -21.5t91.5 21.5t76 61.5t51.5 97t19 128z" />
    <glyph glyph-name="Ugrave" unicode="&#xd9;" horiz-adv-x="694" 
d="M347 -14q-64 0 -114 20.5t-84.5 57.5t-52.5 89t-18 115v459h94v-475q0 -89 47.5 -141.5t127.5 -52.5t127.5 52.5t47.5 141.5v475h94v-459q0 -63 -19.5 -115t-55 -89t-85 -57.5t-109.5 -20.5zM222 890h94l74 -124q-26 -6 -52 -1t-43 27z" />
    <glyph glyph-name="Uacute" unicode="&#xda;" horiz-adv-x="694" 
d="M347 -14q-64 0 -114 20.5t-84.5 57.5t-52.5 89t-18 115v459h94v-475q0 -89 47.5 -141.5t127.5 -52.5t127.5 52.5t47.5 141.5v475h94v-459q0 -63 -19.5 -115t-55 -89t-85 -57.5t-109.5 -20.5zM403 792q-20 -22 -46 -27t-52 1l89 124h97z" />
    <glyph glyph-name="Ucircumflex" unicode="&#xdb;" horiz-adv-x="694" 
d="M347 -14q-64 0 -114 20.5t-84.5 57.5t-52.5 89t-18 115v459h94v-475q0 -89 47.5 -141.5t127.5 -52.5t127.5 52.5t47.5 141.5v475h94v-459q0 -63 -19.5 -115t-55 -89t-85 -57.5t-109.5 -20.5zM375 890l111 -120l-52 -8l-88 59l-88 -60l-49 9l109 120h57z" />
    <glyph glyph-name="Udieresis" unicode="&#xdc;" horiz-adv-x="694" 
d="M347 -14q-64 0 -114 20.5t-84.5 57.5t-52.5 89t-18 115v459h94v-475q0 -89 47.5 -141.5t127.5 -52.5t127.5 52.5t47.5 141.5v475h94v-459q0 -63 -19.5 -115t-55 -89t-85 -57.5t-109.5 -20.5zM198 840q0 22 15.5 37t36.5 15q22 0 37.5 -15t15.5 -37t-15.5 -37t-37.5 -15
q-21 0 -36.5 15t-15.5 37zM392 840q0 22 15.5 37t37.5 15q21 0 36.5 -15t15.5 -37t-15.5 -37t-36.5 -15q-22 0 -37.5 15t-15.5 37z" />
    <glyph glyph-name="Yacute" unicode="&#xdd;" horiz-adv-x="660" 
d="M370 337v-337h-93v309l-249 418h108zM507 727h105l-214 -351q-9 12 -16.5 26.5t-11 30.5t-1.5 33.5t12 35.5zM399 792q-20 -22 -46 -27t-52 1l89 124h97z" />
    <glyph glyph-name="Thorn" unicode="&#xde;" horiz-adv-x="609" 
d="M558 363q0 -48 -19.5 -86t-52.5 -65.5t-75 -43.5t-87 -20q-22 -2 -47 -1t-53 9q11 26 33.5 43.5t54.5 17.5q26 0 52 11t46.5 30.5t33.5 46t13 58.5q0 31 -13 58t-35 47t-51.5 31t-63.5 11q-56 0 -110 -6v-504h-92v727h92v-150q52 6 110 6q60 0 109 -17.5t83.5 -47.5
t53 -70t18.5 -85z" />
    <glyph glyph-name="germandbls" unicode="&#xdf;" horiz-adv-x="567" 
d="M273 87q33 -15 61.5 -21t50.5 -6q30 0 51 21t21 55q0 27 -13 47t-32 36.5t-42 33t-42 36.5t-32 47t-13 65q0 44 28.5 80.5t83.5 59.5q6 22 6 47q0 24 -8.5 43.5t-23 33.5t-33 22t-37.5 8q-21 0 -42.5 -8t-39 -24.5t-28.5 -43.5t-11 -64v-555h-87v545q0 49 13.5 89.5
t39 69t62 44t82.5 15.5t82 -14.5t60.5 -38.5t37 -55.5t12.5 -66.5q0 -26 -8 -50t-27 -54q-35 -17 -53.5 -35.5t-18.5 -47.5q0 -27 13 -46.5t32 -36t42 -33t42 -38t32 -49.5t13 -67q0 -29 -12 -55t-32.5 -45.5t-48.5 -31t-60 -11.5q-30 0 -63.5 6.5t-81.5 30.5z" />
    <glyph glyph-name="agrave" unicode="&#xe0;" 
d="M126 740h95l73 -138q-26 -6 -51.5 -0.5t-44.5 29.5zM453 171q0 -60 4.5 -102.5t11.5 -68.5h-68q-14 8 -22 21.5t-14 29.5l-1 18l-11 -18q-38 -38 -70.5 -49.5t-68.5 -11.5q-39 0 -70 11t-53 30t-33.5 45t-11.5 56q0 38 14.5 66t47 48t85.5 33.5t130 22.5q-2 -9 -5.5 -21
t-12 -23.5t-21.5 -20.5t-33 -12q-33 -5 -53.5 -14t-32.5 -20.5t-16 -25t-4 -27.5q0 -31 22 -53.5t60 -22.5q34 0 68.5 17t63.5 55v187q0 59 -29 96.5t-97 37.5q-27 0 -53.5 -5.5t-62.5 -18.5l-23 62q49 21 86.5 27.5t70.5 6.5q97 0 149.5 -55.5t52.5 -157.5v-143z" />
    <glyph glyph-name="aacute" unicode="&#xe1;" 
d="M316 631q-20 -24 -46 -30t-52 1l89 138h97zM452 171q0 -60 4.5 -102.5t11.5 -68.5h-68q-14 8 -22 21.5t-14 29.5l-1 18l-11 -18q-38 -38 -70.5 -49.5t-68.5 -11.5q-39 0 -70 11t-53 30t-33.5 45t-11.5 56q0 38 14.5 66t47 48t85.5 33.5t130 22.5q-2 -9 -5.5 -21
t-12 -23.5t-21.5 -20.5t-33 -12q-33 -5 -53.5 -14t-32.5 -20.5t-16 -25t-4 -27.5q0 -31 22 -53.5t60 -22.5q34 0 68.5 17t63.5 55v187q0 59 -29 96.5t-97 37.5q-27 0 -53.5 -5.5t-62.5 -18.5l-23 62q49 21 86.5 27.5t70.5 6.5q97 0 149.5 -55.5t52.5 -157.5v-143z" />
    <glyph glyph-name="acircumflex" unicode="&#xe2;" 
d="M295 743l111 -145l-52 -8l-88 84l-88 -85l-49 9l109 145h57zM453 171q0 -60 4.5 -102.5t11.5 -68.5h-68q-14 8 -22 21.5t-14 29.5l-1 18l-11 -18q-38 -38 -70.5 -49.5t-68.5 -11.5q-39 0 -70 11t-53 30t-33.5 45t-11.5 56q0 38 14.5 66t47 48t85.5 33.5t130 22.5
q-2 -9 -5.5 -21t-12 -23.5t-21.5 -20.5t-33 -12q-33 -5 -53.5 -14t-32.5 -20.5t-16 -25t-4 -27.5q0 -31 22 -53.5t60 -22.5q34 0 68.5 17t63.5 55v187q0 59 -29 96.5t-97 37.5q-27 0 -53.5 -5.5t-62.5 -18.5l-23 62q49 21 86.5 27.5t70.5 6.5q97 0 149.5 -55.5t52.5 -157.5
v-143z" />
    <glyph glyph-name="atilde" unicode="&#xe3;" 
d="M453 171q0 -60 4.5 -102.5t11.5 -68.5h-68q-14 8 -22 21.5t-14 29.5l-1 18l-11 -18q-38 -38 -70.5 -49.5t-68.5 -11.5q-39 0 -70 11t-53 30t-33.5 45t-11.5 56q0 38 14.5 66t47 48t85.5 33.5t130 22.5q-2 -9 -5.5 -21t-12 -23.5t-21.5 -20.5t-33 -12q-33 -5 -53.5 -14
t-32.5 -20.5t-16 -25t-4 -27.5q0 -31 22 -53.5t60 -22.5q34 0 68.5 17t63.5 55v187q0 59 -29 96.5t-97 37.5q-27 0 -53.5 -5.5t-62.5 -18.5l-23 62q49 21 86.5 27.5t70.5 6.5q97 0 149.5 -55.5t52.5 -157.5v-143zM120 624q2 57 27.5 82t61.5 26q37 0 64 -24q14 -12 24 -22
t30 -10q26 0 31 58l53 -6q-2 -32 -9.5 -52.5t-19.5 -33t-26.5 -17.5t-28.5 -5q-41 0 -65 23q-14 12 -24.5 22.5t-27.5 10.5q-13 0 -23 -13t-12 -45z" />
    <glyph glyph-name="adieresis" unicode="&#xe4;" 
d="M118 670q0 22 15.5 37t36.5 15q22 0 37.5 -15t15.5 -37t-15.5 -37t-37.5 -15q-21 0 -36.5 15t-15.5 37zM312 670q0 22 15.5 37t37.5 15q21 0 36.5 -15t15.5 -37t-15.5 -37t-36.5 -15q-22 0 -37.5 15t-15.5 37zM453 171q0 -60 4.5 -102.5t11.5 -68.5h-68q-14 8 -22 21.5
t-14 29.5l-1 18l-11 -18q-38 -38 -70.5 -49.5t-68.5 -11.5q-39 0 -70 11t-53 30t-33.5 45t-11.5 56q0 38 14.5 66t47 48t85.5 33.5t130 22.5q-2 -9 -5.5 -21t-12 -23.5t-21.5 -20.5t-33 -12q-33 -5 -53.5 -14t-32.5 -20.5t-16 -25t-4 -27.5q0 -31 22 -53.5t60 -22.5
q34 0 68.5 17t63.5 55v187q0 59 -29 96.5t-97 37.5q-27 0 -53.5 -5.5t-62.5 -18.5l-23 62q49 21 86.5 27.5t70.5 6.5q97 0 149.5 -55.5t52.5 -157.5v-143z" />
    <glyph glyph-name="aring" unicode="&#xe5;" 
d="M453 171q0 -60 4.5 -102.5t11.5 -68.5h-68q-14 8 -22 21.5t-14 29.5l-1 18l-11 -18q-38 -38 -70.5 -49.5t-68.5 -11.5q-39 0 -70 11t-53 30t-33.5 45t-11.5 56q0 38 14.5 66t47 48t85.5 33.5t130 22.5q-2 -9 -5.5 -21t-12 -23.5t-21.5 -20.5t-33 -12q-33 -5 -53.5 -14
t-32.5 -20.5t-16 -25t-4 -27.5q0 -31 22 -53.5t60 -22.5q34 0 68.5 17t63.5 55v187q0 59 -29 96.5t-97 37.5q-27 0 -53.5 -5.5t-62.5 -18.5l-23 62q49 21 86.5 27.5t70.5 6.5q97 0 149.5 -55.5t52.5 -157.5v-143zM267 571q-44 0 -71 24.5t-27 61.5q0 39 27.5 64.5t71.5 25.5
q45 0 71 -25t26 -64q0 -38 -28 -62.5t-70 -24.5zM267 608q23 0 36.5 14.5t13.5 36.5t-13.5 36.5t-36.5 14.5q-21 0 -34.5 -15t-13.5 -38q0 -19 13 -34t35 -15z" />
    <glyph glyph-name="ae" unicode="&#xe6;" horiz-adv-x="850" 
d="M700 317q3 29 -4 54t-21.5 44t-35.5 29.5t-45 10.5q-63 0 -102.5 -50t-39.5 -143q0 -45 12 -81.5t33.5 -63t50.5 -41t63 -14.5q35 0 65.5 7t73.5 29l25 -66q-48 -25 -93 -33.5t-81 -8.5q-31 0 -61 11t-56 30t-45.5 44.5t-29.5 55.5q-20 -65 -72.5 -103t-122.5 -38
q-39 0 -70 11t-53 30t-33.5 45t-11.5 56q0 38 14.5 66t47 48t85.5 33.5t130 22.5q-2 -9 -5.5 -21t-12 -23.5t-21.5 -20.5t-33 -12q-33 -5 -53.5 -14t-32.5 -20.5t-16 -25t-4 -27.5q0 -31 22 -53.5t60 -22.5q63 0 97.5 51.5t34.5 148.5v59q0 59 -29 96.5t-97 37.5
q-27 0 -53.5 -5.5t-62.5 -18.5l-23 62q49 21 86.5 27.5t70.5 6.5q58 0 101.5 -30t63.5 -78q12 23 32 43t44.5 34.5t53 22.5t58.5 8q51 0 91 -23t64 -61.5t29.5 -88.5t-10.5 -104h-290q11 29 30 48t55 19h127z" />
    <glyph glyph-name="ccedilla" unicode="&#xe7;" horiz-adv-x="427" 
d="M278 -10l-10 -40q14 -2 28.5 -7.5t26 -15t18.5 -22.5t7 -28q0 -23 -10 -38.5t-26.5 -25.5t-37 -14.5t-40.5 -4.5q-17 0 -36 4t-43 15l14 43q19 -8 34.5 -10.5t30.5 -2.5q17 0 35 6.5t18 24.5q0 19 -20 28.5t-55 13.5l21 79q-41 7 -76 28t-60.5 54.5t-40 79t-14.5 102.5
q0 65 19.5 115t52.5 84t77 51.5t92 17.5q27 0 59.5 -5t62.5 -16l-25 -66q-27 8 -50.5 11.5t-46.5 3.5q-29 0 -54.5 -12t-45 -36t-31 -61t-11.5 -87q0 -51 11.5 -88t31 -61t45 -36t54.5 -12q22 0 48.5 6.5t61.5 22.5l25 -66q-41 -20 -76.5 -27.5t-58.5 -7.5h-5z" />
    <glyph glyph-name="egrave" unicode="&#xe8;" horiz-adv-x="544" 
d="M397 317q3 29 -4 54t-21.5 44t-35.5 29.5t-45 10.5q-63 0 -102.5 -50t-39.5 -143q0 -45 12 -81.5t33.5 -63t50.5 -41t63 -14.5q35 0 65.5 7t73.5 29l25 -66q-48 -25 -93 -33.5t-81 -8.5q-55 0 -100 20.5t-76.5 57t-48.5 86.5t-17 109q0 61 17 109.5t49 83t77 53t102 18.5
q51 0 91 -23t64 -61.5t29.5 -88.5t-10.5 -104h-290q11 29 30 48t55 19h127zM156 740h95l73 -138q-26 -6 -51.5 -0.5t-44.5 29.5z" />
    <glyph glyph-name="eacute" unicode="&#xe9;" horiz-adv-x="544" 
d="M397 317q3 29 -4 54t-21.5 44t-35.5 29.5t-45 10.5q-63 0 -102.5 -50t-39.5 -143q0 -45 12 -81.5t33.5 -63t50.5 -41t63 -14.5q35 0 65.5 7t73.5 29l25 -66q-48 -25 -93 -33.5t-81 -8.5q-55 0 -100 20.5t-76.5 57t-48.5 86.5t-17 109q0 61 17 109.5t49 83t77 53t102 18.5
q51 0 91 -23t64 -61.5t29.5 -88.5t-10.5 -104h-290q11 29 30 48t55 19h127zM342 631q-20 -24 -46 -30t-52 1l89 138h97z" />
    <glyph glyph-name="ecircumflex" unicode="&#xea;" horiz-adv-x="544" 
d="M397 317q3 29 -4 54t-21.5 44t-35.5 29.5t-45 10.5q-63 0 -102.5 -50t-39.5 -143q0 -45 12 -81.5t33.5 -63t50.5 -41t63 -14.5q35 0 65.5 7t73.5 29l25 -66q-48 -25 -93 -33.5t-81 -8.5q-55 0 -100 20.5t-76.5 57t-48.5 86.5t-17 109q0 61 17 109.5t49 83t77 53t102 18.5
q51 0 91 -23t64 -61.5t29.5 -88.5t-10.5 -104h-290q11 29 30 48t55 19h127zM320 743l111 -145l-52 -8l-88 84l-88 -85l-49 9l109 145h57z" />
    <glyph glyph-name="edieresis" unicode="&#xeb;" horiz-adv-x="544" 
d="M397 317q3 29 -4 54t-21.5 44t-35.5 29.5t-45 10.5q-63 0 -102.5 -50t-39.5 -143q0 -45 12 -81.5t33.5 -63t50.5 -41t63 -14.5q35 0 65.5 7t73.5 29l25 -66q-48 -25 -93 -33.5t-81 -8.5q-55 0 -100 20.5t-76.5 57t-48.5 86.5t-17 109q0 61 17 109.5t49 83t77 53t102 18.5
q51 0 91 -23t64 -61.5t29.5 -88.5t-10.5 -104h-290q11 29 30 48t55 19h127zM136 670q0 22 15.5 37t36.5 15q22 0 37.5 -15t15.5 -37t-15.5 -37t-37.5 -15q-21 0 -36.5 15t-15.5 37zM330 670q0 22 15.5 37t37.5 15q21 0 36.5 -15t15.5 -37t-15.5 -37t-36.5 -15
q-22 0 -37.5 15t-15.5 37z" />
    <glyph glyph-name="igrave" unicode="&#xec;" horiz-adv-x="276" 
d="M110 0v517h96v-517h-96zM20 740h95l73 -138q-26 -6 -51.5 -0.5t-44.5 29.5z" />
    <glyph glyph-name="iacute" unicode="&#xed;" horiz-adv-x="273" 
d="M70 0v517h96v-517h-96zM170 631q-20 -24 -46 -30t-52 1l89 138h97z" />
    <glyph glyph-name="icircumflex" unicode="&#xee;" horiz-adv-x="337" 
d="M119 0v517h96v-517h-96zM196 743l111 -145l-52 -8l-88 84l-88 -85l-49 9l109 145h57z" />
    <glyph glyph-name="idieresis" unicode="&#xef;" horiz-adv-x="352" 
d="M129 0v517h96v-517h-96zM27 670q0 22 15.5 37t36.5 15q22 0 37.5 -15t15.5 -37t-15.5 -37t-37.5 -15q-21 0 -36.5 15t-15.5 37zM220 670q0 22 15.5 37t36.5 15q22 0 37.5 -15t15.5 -37t-15.5 -37t-37.5 -15q-21 0 -36.5 15t-15.5 37z" />
    <glyph glyph-name="eth" unicode="&#xf0;" horiz-adv-x="557" 
d="M522 259q0 -65 -19.5 -115.5t-52.5 -84.5t-77 -51.5t-92 -17.5q-50 0 -94 17.5t-76.5 51.5t-51.5 84.5t-19 115.5t19.5 115t52.5 84t77 51.5t92 17.5q16 0 33 -3t35 -11l42 -24l-25 30q-23 32 -50.5 57.5t-42.5 36.5l-125 -60l-19 43l99 49q-23 17 -46.5 30t-51.5 27
l32 58q36 -17 72.5 -37.5t68.5 -43.5l112 54l21 -44l-90 -43q18 -15 47.5 -50.5t58 -86t49.5 -114.5t21 -136zM423 259q0 50 -11.5 87t-31 61t-45.5 36t-54 12q-29 0 -54.5 -12t-45 -36t-31 -61t-11.5 -87q0 -51 11.5 -88t31 -61t45 -36t54.5 -12q28 0 54 12t45.5 36t31 61
t11.5 88z" />
    <glyph glyph-name="ntilde" unicode="&#xf1;" horiz-adv-x="596" 
d="M142 517q24 -27 31.5 -53.5t7.5 -56.5v-407h-96v391q0 28 -3.5 59.5t-11.5 66.5h72zM413 376q0 35 -15.5 57t-46.5 22q-12 0 -21 -2.5t-22 -5.5q-29 -7 -54 -1t-46 28q53 31 89 42t63 11q30 0 57 -7.5t47.5 -26.5t32.5 -50t12 -77v-366h-96v376zM152 624q2 57 27.5 82
t61.5 26q37 0 64 -24q14 -12 24 -22t30 -10q26 0 31 58l53 -6q-2 -32 -9.5 -52.5t-19.5 -33t-26.5 -17.5t-28.5 -5q-41 0 -65 23q-14 12 -24.5 22.5t-27.5 10.5q-13 0 -23 -13t-12 -45z" />
    <glyph glyph-name="ograve" unicode="&#xf2;" horiz-adv-x="566" 
d="M522 259q0 -65 -19.5 -115.5t-52.5 -84.5t-77 -51.5t-92 -17.5q-50 0 -94 17.5t-76.5 51.5t-51.5 84.5t-19 115.5t19.5 115t52.5 84t77 51.5t92 17.5q50 0 94 -17.5t76.5 -51.5t51.5 -84t19 -115zM423 259q0 50 -11.5 87t-31 61t-45.5 36t-54 12q-29 0 -54.5 -12t-45 -36
t-31 -61t-11.5 -87q0 -51 11.5 -88t31 -61t45 -36t54.5 -12q28 0 54 12t45.5 36t31 61t11.5 88zM156 740h95l73 -138q-26 -6 -51.5 -0.5t-44.5 29.5z" />
    <glyph glyph-name="oacute" unicode="&#xf3;" horiz-adv-x="566" 
d="M522 259q0 -65 -19.5 -115.5t-52.5 -84.5t-77 -51.5t-92 -17.5q-50 0 -94 17.5t-76.5 51.5t-51.5 84.5t-19 115.5t19.5 115t52.5 84t77 51.5t92 17.5q50 0 94 -17.5t76.5 -51.5t51.5 -84t19 -115zM423 259q0 50 -11.5 87t-31 61t-45.5 36t-54 12q-29 0 -54.5 -12t-45 -36
t-31 -61t-11.5 -87q0 -51 11.5 -88t31 -61t45 -36t54.5 -12q28 0 54 12t45.5 36t31 61t11.5 88zM333 631q-20 -24 -46 -30t-52 1l89 138h97z" />
    <glyph glyph-name="ocircumflex" unicode="&#xf4;" horiz-adv-x="566" 
d="M522 259q0 -65 -19.5 -115.5t-52.5 -84.5t-77 -51.5t-92 -17.5q-50 0 -94 17.5t-76.5 51.5t-51.5 84.5t-19 115.5t19.5 115t52.5 84t77 51.5t92 17.5q50 0 94 -17.5t76.5 -51.5t51.5 -84t19 -115zM423 259q0 50 -11.5 87t-31 61t-45.5 36t-54 12q-29 0 -54.5 -12t-45 -36
t-31 -61t-11.5 -87q0 -51 11.5 -88t31 -61t45 -36t54.5 -12q28 0 54 12t45.5 36t31 61t11.5 88zM310 743l111 -145l-52 -8l-88 84l-88 -85l-49 9l109 145h57z" />
    <glyph glyph-name="otilde" unicode="&#xf5;" horiz-adv-x="566" 
d="M522 259q0 -65 -19.5 -115.5t-52.5 -84.5t-77 -51.5t-92 -17.5q-50 0 -94 17.5t-76.5 51.5t-51.5 84.5t-19 115.5t19.5 115t52.5 84t77 51.5t92 17.5q50 0 94 -17.5t76.5 -51.5t51.5 -84t19 -115zM423 259q0 50 -11.5 87t-31 61t-45.5 36t-54 12q-29 0 -54.5 -12t-45 -36
t-31 -61t-11.5 -87q0 -51 11.5 -88t31 -61t45 -36t54.5 -12q28 0 54 12t45.5 36t31 61t11.5 88zM137 624q2 57 27.5 82t61.5 26q37 0 64 -24q14 -12 24 -22t30 -10q26 0 31 58l53 -6q-2 -32 -9.5 -52.5t-19.5 -33t-26.5 -17.5t-28.5 -5q-41 0 -65 23q-14 12 -24.5 22.5
t-27.5 10.5q-13 0 -23 -13t-12 -45z" />
    <glyph glyph-name="odieresis" unicode="&#xf6;" horiz-adv-x="566" 
d="M522 259q0 -65 -19.5 -115.5t-52.5 -84.5t-77 -51.5t-92 -17.5q-50 0 -94 17.5t-76.5 51.5t-51.5 84.5t-19 115.5t19.5 115t52.5 84t77 51.5t92 17.5q50 0 94 -17.5t76.5 -51.5t51.5 -84t19 -115zM423 259q0 50 -11.5 87t-31 61t-45.5 36t-54 12q-29 0 -54.5 -12t-45 -36
t-31 -61t-11.5 -87q0 -51 11.5 -88t31 -61t45 -36t54.5 -12q28 0 54 12t45.5 36t31 61t11.5 88zM131 670q0 22 15.5 37t36.5 15q22 0 37.5 -15t15.5 -37t-15.5 -37t-37.5 -15q-21 0 -36.5 15t-15.5 37zM325 670q0 22 15.5 37t37.5 15q21 0 36.5 -15t15.5 -37t-15.5 -37
t-36.5 -15q-22 0 -37.5 15t-15.5 37z" />
    <glyph glyph-name="divide" unicode="&#xf7;" horiz-adv-x="568" 
d="M47 337h468v-64h-468v64zM230 494q0 23 14 37.5t36 14.5q23 0 37.5 -14.5t14.5 -37.5q0 -22 -14.5 -36t-37.5 -14q-22 0 -36 14t-14 36zM230 112q0 23 14 37.5t36 14.5q23 0 37.5 -14.5t14.5 -37.5q0 -22 -14.5 -36t-37.5 -14q-22 0 -36 14t-14 36z" />
    <glyph glyph-name="oslash" unicode="&#xf8;" horiz-adv-x="500" 
d="M522 259q0 -65 -19.5 -115.5t-52.5 -84.5t-77 -51.5t-92 -17.5q-57 0 -103 21l-45 -77h-77l66 113q-38 35 -60 87.5t-22 124.5q0 65 19.5 115t52.5 84t77 51.5t92 17.5q60 0 112 -26l43 72h74l-65 -109q35 -35 56 -86t21 -119zM426 258q0 39 -7.5 70.5t-20.5 55.5
l-163 -275q-17 20 -22.5 49.5t7.5 53.5l133 223q-32 22 -72 22q-29 0 -55 -12t-46 -36.5t-32 -62t-12 -87.5q0 -51 12 -88t32 -62t46 -37t55 -12q28 0 54.5 12t46.5 36.5t32 61.5t12 88z" />
    <glyph glyph-name="ugrave" unicode="&#xf9;" horiz-adv-x="587" 
d="M435 0q-24 27 -31.5 53.5t-7.5 56.5v407h93v-391q0 -28 3.5 -59.5t12.5 -66.5h-70zM165 141q0 -35 14.5 -57t46.5 -22q12 0 20.5 2.5t22.5 5.5q29 7 54 1t46 -28q-53 -32 -89.5 -42.5t-63.5 -10.5q-30 0 -56 7.5t-46 26.5t-31.5 49.5t-11.5 77.5v366h94v-376zM150 740h95
l73 -138q-26 -6 -51.5 -0.5t-44.5 29.5z" />
    <glyph glyph-name="uacute" unicode="&#xfa;" horiz-adv-x="587" 
d="M435 0q-24 27 -31.5 53.5t-7.5 56.5v407h93v-391q0 -28 3.5 -59.5t12.5 -66.5h-70zM165 141q0 -35 14.5 -57t46.5 -22q12 0 20.5 2.5t22.5 5.5q29 7 54 1t46 -28q-53 -32 -89.5 -42.5t-63.5 -10.5q-30 0 -56 7.5t-46 26.5t-31.5 49.5t-11.5 77.5v366h94v-376zM346 631
q-20 -24 -46 -30t-52 1l89 138h97z" />
    <glyph glyph-name="ucircumflex" unicode="&#xfb;" horiz-adv-x="587" 
d="M435 0q-24 27 -31.5 53.5t-7.5 56.5v407h93v-391q0 -28 3.5 -59.5t12.5 -66.5h-70zM165 141q0 -35 14.5 -57t46.5 -22q12 0 20.5 2.5t22.5 5.5q29 7 54 1t46 -28q-53 -32 -89.5 -42.5t-63.5 -10.5q-30 0 -56 7.5t-46 26.5t-31.5 49.5t-11.5 77.5v366h94v-376zM310 743
l111 -145l-52 -8l-88 84l-88 -85l-49 9l109 145h57z" />
    <glyph glyph-name="udieresis" unicode="&#xfc;" horiz-adv-x="587" 
d="M435 0q-24 27 -31.5 53.5t-7.5 56.5v407h93v-391q0 -28 3.5 -59.5t12.5 -66.5h-70zM165 141q0 -35 14.5 -57t46.5 -22q12 0 20.5 2.5t22.5 5.5q29 7 54 1t46 -28q-53 -32 -89.5 -42.5t-63.5 -10.5q-30 0 -56 7.5t-46 26.5t-31.5 49.5t-11.5 77.5v366h94v-376zM135 670
q0 22 15.5 37t36.5 15q22 0 37.5 -15t15.5 -37t-15.5 -37t-37.5 -15q-21 0 -36.5 15t-15.5 37zM329 670q0 22 15.5 37t37.5 15q21 0 36.5 -15t15.5 -37t-15.5 -37t-36.5 -15q-22 0 -37.5 15t-15.5 37z" />
    <glyph glyph-name="yacute" unicode="&#xfd;" horiz-adv-x="529" 
d="M224 179q8 -24 10 -49t-1 -47.5t-11 -41.5t-19 -31l-187 507h98zM121 -174q29 0 48.5 16t35 44.5t28.5 67t29 83.5l155 480h97l-183 -506q-20 -53 -37.5 -99.5t-40.5 -81.5t-54 -55.5t-78 -20.5q-20 1 -42.5 4.5t-43.5 10.5l24 66q33 -9 62 -9zM329 631q-20 -24 -46 -30
t-52 1l89 138h97z" />
    <glyph glyph-name="thorn" unicode="&#xfe;" horiz-adv-x="598" 
d="M91 758h90v-680q24 -9 51 -12.5t50 -3.5q36 0 64.5 14.5t48.5 40.5t30.5 63t10.5 81q0 100 -39.5 147t-104.5 43q-45 -3 -77 45q26 13 55.5 20t52.5 7q41 0 79 -16.5t67.5 -49.5t47 -82t17.5 -114q0 -60 -18.5 -109.5t-51.5 -85.5t-79.5 -56t-102.5 -20q-27 0 -49.5 3.5
t-51.5 14.5v-249h-90v999z" />
    <glyph glyph-name="ydieresis" unicode="&#xff;" horiz-adv-x="529" 
d="M224 179q8 -24 10 -49t-1 -47.5t-11 -41.5t-19 -31l-187 507h98zM121 -174q29 0 48.5 16t35 44.5t28.5 67t29 83.5l155 480h97l-183 -506q-20 -53 -37.5 -99.5t-40.5 -81.5t-54 -55.5t-78 -20.5q-20 1 -42.5 4.5t-43.5 10.5l24 66q33 -9 62 -9zM118 670q0 22 15.5 37
t36.5 15q22 0 37.5 -15t15.5 -37t-15.5 -37t-37.5 -15q-21 0 -36.5 15t-15.5 37zM312 670q0 22 15.5 37t37.5 15q21 0 36.5 -15t15.5 -37t-15.5 -37t-36.5 -15q-22 0 -37.5 15t-15.5 37z" />
    <glyph glyph-name="OE" unicode="&#x152;" horiz-adv-x="959" 
d="M382 -14q-70 0 -131.5 26t-107 74.5t-72 118.5t-26.5 159q0 87 27.5 156.5t73.5 119t107 76t129 26.5q29 0 69.5 -7.5t78.5 -7.5h384v-72h-319v-583h334v-72h-399q-41 0 -82 -7t-66 -7zM382 669q-48 0 -91 -21t-75 -61t-50.5 -96.5t-18.5 -126.5q0 -71 18.5 -128
t51 -96.5t75 -60.5t90.5 -21q26 0 56 4t62 15v573q-28 9 -60 14t-58 5zM880 416v-70h-247q11 29 30.5 49.5t55.5 20.5h161z" />
    <glyph glyph-name="oe" unicode="&#x153;" horiz-adv-x="912" 
d="M516 259q0 -44 12.5 -80.5t33.5 -62.5t50 -40t63 -14q35 0 65.5 7t73.5 29l25 -66q-48 -25 -93 -33.5t-81 -8.5q-64 0 -113 36t-81 94q-29 -62 -80 -96t-110 -34q-50 0 -94 17.5t-76.5 51.5t-51.5 84.5t-19 115.5t19.5 115t52.5 84t77 51.5t92 17.5q60 0 108 -29.5
t80 -95.5q27 60 80 92.5t119 32.5q51 0 91 -23t64 -61.5t29.5 -88.5t-10.5 -104h-290q11 29 30 48t55 19h127q3 29 -4 54t-21.5 44t-35.5 29.5t-45 10.5q-62 0 -101 -49.5t-41 -146.5zM423 259q-1 51 -13 88t-31.5 61t-44.5 35.5t-53 11.5q-29 0 -54.5 -12t-45 -36t-31 -61
t-11.5 -87q0 -51 11.5 -88t31 -61t45 -36t54.5 -12q28 0 53 11.5t44.5 35.5t31.5 61t13 89z" />
    <glyph glyph-name="circumflex" unicode="&#x2c6;" horiz-adv-x="500" 
d="M310 743l111 -145l-52 -8l-88 84l-88 -85l-49 9l109 145h57z" />
    <glyph glyph-name="tilde" unicode="&#x2dc;" horiz-adv-x="500" 
d="M152 624q2 57 27.5 82t61.5 26q37 0 64 -24q14 -12 24 -22t30 -10q26 0 31 58l53 -6q-2 -32 -9.5 -52.5t-19.5 -33t-26.5 -17.5t-28.5 -5q-41 0 -65 23q-14 12 -24.5 22.5t-27.5 10.5q-13 0 -23 -13t-12 -45z" />
    <glyph glyph-name="endash" unicode="&#x2013;" horiz-adv-x="540" 
d="M45 243v64h424v-64h-424z" />
    <glyph glyph-name="emdash" unicode="&#x2014;" horiz-adv-x="849" 
d="M45 243v64h739v-64h-739z" />
    <glyph glyph-name="quoteleft" unicode="&#x2018;" horiz-adv-x="205" 
d="M149 531h-87v78q0 20 3.5 43t13.5 42t26.5 29t43.5 4v-196z" />
    <glyph glyph-name="quoteright" unicode="&#x2019;" horiz-adv-x="224" 
d="M81 727h87v-78q0 -20 -3.5 -43.5t-13.5 -42t-26.5 -28.5t-43.5 -4v196z" />
    <glyph glyph-name="quotesinglbase" unicode="&#x201a;" horiz-adv-x="197" 
d="M56 98h87v-78q0 -20 -3.5 -43.5t-13.5 -42t-26.5 -28.5t-43.5 -4v196z" />
    <glyph glyph-name="quotedblleft" unicode="&#x201c;" horiz-adv-x="371" 
d="M315 531h-87v78q0 20 3.5 43t13.5 42t26.5 29t43.5 4v-196zM141 531h-87v78q0 20 3.5 43t13.5 42t26.5 29t43.5 4v-196z" />
    <glyph glyph-name="quotedblright" unicode="&#x201d;" horiz-adv-x="371" 
d="M54 727h87v-78q0 -20 -3.5 -43.5t-13.5 -42t-26.5 -28.5t-43.5 -4v196zM228 727h87v-78q0 -20 -3.5 -43.5t-13.5 -42t-26.5 -28.5t-43.5 -4v196z" />
    <glyph glyph-name="quotedblbase" unicode="&#x201e;" horiz-adv-x="362" 
d="M56 98h87v-78q0 -20 -3.5 -43.5t-13.5 -42t-26.5 -28.5t-43.5 -4v196zM229 98h87v-78q0 -20 -3.5 -43.5t-13.5 -42t-26.5 -28.5t-43.5 -4v196z" />
    <glyph glyph-name="bullet" unicode="&#x2022;" horiz-adv-x="500" 
d="M183 315q0 32 21 54t53 22t54 -22t22 -54t-22 -53t-54 -21t-53 21t-21 53z" />
    <glyph glyph-name="ellipsis" unicode="&#x2026;" horiz-adv-x="853" 
d="M93 44q0 26 16.5 43.5t42.5 17.5t43.5 -17.5t17.5 -43.5t-17.5 -42.5t-43.5 -16.5t-42.5 16.5t-16.5 42.5zM363 44q0 26 16.5 43.5t42.5 17.5t43.5 -17.5t17.5 -43.5t-17.5 -42.5t-43.5 -16.5t-42.5 16.5t-16.5 42.5zM633 44q0 26 16.5 43.5t42.5 17.5t43.5 -17.5
t17.5 -43.5t-17.5 -42.5t-43.5 -16.5t-42.5 16.5t-16.5 42.5z" />
    <glyph glyph-name="guilsinglleft" unicode="&#x2039;" horiz-adv-x="613" 
d="M197 258l216 208l44 -43l-144 -165l144 -165l-44 -43z" />
    <glyph glyph-name="guilsinglright" unicode="&#x203a;" horiz-adv-x="613" 
d="M241 50l-44 43l144 165l-144 165l44 43l216 -208z" />
    <glyph glyph-name="Euro" unicode="&#x20ac;" horiz-adv-x="590" 
d="M-8 314h71q-1 8 -1 17.5v18.5v26t2 25h-72v65h82q13 57 39 103t62 78t81 49.5t98 17.5q42 0 77.5 -6.5t83.5 -24.5l-26 -66q-42 16 -73.5 20.5t-61.5 4.5q-42 0 -79 -20.5t-64 -58.5t-43 -92t-16 -121v-18.5t1 -17.5h279v-65h-269q20 -89 72 -138t119 -49q18 0 33.5 1
t31.5 4t33 8t37 13l26 -67q-44 -17 -81.5 -24t-79.5 -7q-54 0 -100.5 18t-82.5 52t-61.5 81.5t-37.5 107.5h-80v65zM432 466v-65h-240q10 29 29.5 47t54.5 18h156z" />
    <glyph glyph-name="trademark" unicode="&#x2122;" horiz-adv-x="728" 
d="M26 688v40h239v-40h-92v-259h-55v259h-92zM339 728h74l73 -218l3 -14l3 14l74 218h69l33 -299h-49l-23 222v20l-6 -20l-75 -217h-52l-75 218l-6 19l-1 -19l-21 -223h-54z" />
    </font>
</defs>
</svg>
