<svg version="1.1" xmlns="http://www.w3.org/2000/svg" xmlns:xlink="http://www.w3.org/1999/xlink" xml:space="preserve">
	<symbol id="cross" viewBox="0 0 18 18">
		<path d="M12.4 8.86l4.6-4.6c.98-.98.98-2.56 0-3.54s-2.56-.98-3.54 0l-4.6 4.6-4.6-4.6C3.28-.26 1.7-.26.72.72s-.98 2.56 0 3.54l4.6 4.6-4.6 4.6c-.98.98-.98 2.56 0 3.54s2.56.98 3.54 0l4.6-4.6 4.6 4.6c.98.98 2.56.98 3.54 0s.98-2.56 0-3.54l-4.6-4.6z"/>
  	</symbol>
	<symbol id="arrow-left" viewBox="0 0 69.27 88.92">
 		<path d="M52.89 12.36H33.9V5.34c0-.79-.65-1.34-1.34-1.34-.24 0-.49.07-.72.21L4.61 21.74c-.84.54-.81 1.78.05 2.28l27.23 15.77c.22.12.44.18.67.18.7 0 1.34-.56 1.34-1.34v-6.7h8.56c2.03 0 3.67 1.64 3.67 3.67v47.98c0 .74.6 1.33 1.33 1.33h16.48c.74 0 1.33-.6 1.33-1.33V24.75c0-6.84-5.54-12.39-12.38-12.39z"/>
    	<path d="M52.89 8.36H37.9V5.34C37.9 2.39 35.5 0 32.56 0c-1.02 0-2.02.29-2.88.85L2.45 18.37C.87 19.39-.04 21.11 0 22.98c.04 1.87 1.04 3.55 2.66 4.49l27.23 15.77c.81.47 1.74.72 2.67.72 2.94 0 5.34-2.39 5.34-5.34v-2.7h4.23v47.65c0 2.94 2.39 5.33 5.33 5.33h16.48c2.94 0 5.33-2.39 5.33-5.33V24.75c0-9.04-7.35-16.39-16.38-16.39zm14.38 75.22c0 1.84-1.5 3.33-3.33 3.33H47.46c-1.84 0-3.33-1.5-3.33-3.33V35.6c0-.92-.75-1.67-1.67-1.67H35.9v4.7c0 1.84-1.5 3.34-3.34 3.34-.58 0-1.16-.16-1.67-.45L3.66 25.74c-1.01-.58-1.63-1.63-1.66-2.8-.03-1.17.54-2.25 1.53-2.88L30.76 2.53c.54-.35 1.16-.53 1.8-.53 1.84 0 3.34 1.5 3.34 3.34v5.03h16.99c7.93 0 14.38 6.45 14.38 14.38v58.83z"/>
  	</symbol>
	<symbol id="arrow-middle" viewBox="0 0 44.89 88.88">
	    <path d="M24.53 4.68c-.27-.45-.73-.68-1.19-.68-.44 0-.88.21-1.15.63L4.22 32.56c-.59.91.07 2.11 1.15 2.11h7.21v47.46c0 1.52 1.23 2.75 2.75 2.75H29.9c1.52 0 2.75-1.23 2.75-2.75V34.67h6.87c1.05 0 1.71-1.14 1.18-2.05L24.53 4.68z"/>
		<path d="M44.17 30.61L27.99 2.68C27.03 1.03 25.25 0 23.34 0c-1.83 0-3.52.92-4.51 2.46L.85 30.4c-1.06 1.65-1.14 3.75-.2 5.48.94 1.73 2.75 2.8 4.71 2.8h3.21v43.46c0 3.72 3.03 6.75 6.75 6.75H29.9c3.72 0 6.75-3.03 6.75-6.75V38.67h2.87c1.91 0 3.7-1.03 4.65-2.69.96-1.66.96-3.71 0-5.37zm-1.73 4.37c-.61 1.06-1.7 1.69-2.92 1.69h-4.87v45.46c0 2.62-2.13 4.75-4.75 4.75H15.33c-2.62 0-4.75-2.13-4.75-4.75V36.67H5.37c-1.23 0-2.37-.67-2.96-1.76-.59-1.08-.54-2.4.12-3.44L20.51 3.55C21.13 2.58 22.19 2 23.34 2c1.2 0 2.31.64 2.91 1.68l16.18 27.93c.62 1.06.62 2.32.01 3.37z"/>
  	</symbol>
	<symbol id="arrow-right" viewBox="0 0 69.27 88.92">
	    <path d="M64.66 21.74L37.43 4.21c-.23-.14-.48-.21-.72-.21-.69 0-1.34.55-1.34 1.34v7.03H16.38C9.54 12.36 4 17.91 4 24.75v58.83c0 .74.6 1.33 1.33 1.33h16.48c.74 0 1.33-.6 1.33-1.33V35.6c0-2.03 1.64-3.67 3.67-3.67h8.56v6.7c0 .78.64 1.34 1.34 1.34.22 0 .45-.06.67-.18l27.23-15.77c.86-.51.89-1.74.05-2.28z"/>
    	<path d="M66.82 18.37L39.6.85C38.73.29 37.73 0 36.71 0c-2.94 0-5.34 2.39-5.34 5.34v3.03H16.38C7.35 8.36 0 15.71 0 24.75v58.83c0 2.94 2.39 5.33 5.33 5.33h16.48c2.94 0 5.33-2.39 5.33-5.33V35.93h4.23v2.7c0 2.94 2.39 5.34 5.34 5.34.93 0 1.86-.25 2.67-.72l27.23-15.77c1.62-.94 2.61-2.62 2.66-4.49.04-1.88-.87-3.6-2.45-4.62zm-1.21 7.37L38.38 41.52c-.51.3-1.09.45-1.67.45-1.84 0-3.34-1.5-3.34-3.34v-4.7h-6.56c-.92 0-1.67.75-1.67 1.67v47.98c0 1.84-1.5 3.33-3.33 3.33H5.33C3.5 86.92 2 85.42 2 83.58V24.75c0-7.93 6.45-14.38 14.38-14.38h16.99V5.34c0-1.84 1.5-3.34 3.34-3.34.64 0 1.26.18 1.8.53l27.23 17.52c.98.63 1.56 1.71 1.53 2.88-.03 1.18-.65 2.22-1.66 2.81z"/>
  	</symbol>
	<symbol id="logotip-triangle" viewBox="0 0 389 342.5">
    	<path class="st0" d="M191.9 295.4l-7.2 10.4-7-10.4h-9.3l15.9 25.1 17.3-25.1zM349.1 19.7l-33.3 48.8h9.7l38.8-56.8-128.8.3v8zM67.5 68.5L38.8 20.4h96.6v-8H24.7l33.5 56.1zM11.5858 19.182l2.5578-1.5678 6.2712 10.2312-2.5578 1.5678zM4.3 7.2L0 0h111.3v3H5.3l1.6 2.7z"/>
    	<path class="st0" d="M366.2 32.7l-2.5-1.7 19.5-27.7h-74.7v-3H389zM283.1.3h11.6v3h-11.6zM155 295.8l3.6.5 14.4 22.2-2.6 1.6zM184.2 342.5l-6.5-10.5 2.6-1.6 4.1 6.6 27.9-40.8 3.5-.3z"/>
  	</symbol>
	<symbol id="sound-off" viewBox="0 0 144 144">
		<path d="M81.6 72.2v43.4c0 6.1-2.6 9.9-7.9 11.5-3.7 1.1-7 .3-9.9-2.2-11-9.3-21.9-18.6-32.9-27.8-.8-.7-2.1-1.1-3.1-1.1-5.2-.2-10.4.1-15.6-.3C5.5 95.2.2 89.5.1 82.8 0 75.5 0 68.3.1 61.1c.1-6.7 5.5-12.5 12.1-12.9 5.1-.3 10.3-.1 15.4-.3 1.2 0 2.6-.5 3.6-1.3C42.2 37.4 53 28.2 63.9 19c3.2-2.7 6.9-3.4 10.8-1.9 3.9 1.5 6.2 4.4 6.7 8.7.1 1.1.2 2.2.2 3.3v43.1zm-13.3 39.2V32.7c-.4.3-.7.3-.9.5-9.3 7.9-18.7 15.8-28 23.9-3.3 2.9-6.8 4.4-11.2 4.2-4.2-.2-8.4 0-12.6 0-.8 0-1.6.1-2.3.2v21.3c.9 0 1.8.1 2.6.1 4.6 0 9.3-.2 13.9.1 2.5.2 5.2.9 7.2 2.2 3.5 2.4 6.6 5.4 9.9 8.2 7 5.8 14 11.8 21.4 18zM137.2 100c-1.7 0-3.4-.6-4.6-1.9L91.3 56.8c-2.6-2.6-2.6-6.7 0-9.3 2.6-2.6 6.7-2.6 9.3 0l41.2 41.2c2.6 2.6 2.6 6.7 0 9.3-1.3 1.3-2.9 2-4.6 2z"/>
    	<path d="M96.3 99.6c-1.7 0-3.4-.6-4.6-1.9-2.6-2.6-2.6-6.7 0-9.3l41.2-41.2c2.6-2.6 6.7-2.6 9.3 0 2.6 2.6 2.6 6.7 0 9.3L101 97.7c-1.4 1.3-3 1.9-4.7 1.9z"/>
  	</symbol>
	<symbol id="sound-on" viewBox="0 0 100 100">
  		<path class="st0" d="M56.5 50.6v29.2c0 4.1-1.8 6.7-5.4 7.7-2.5.7-4.8.2-6.8-1.5-7.6-6.2-15.2-12.5-22.8-18.7-.6-.5-1.4-.7-2.2-.8-3.6-.1-7.2.1-10.8-.2C3.8 66 .2 62.1.1 57.6 0 52.9 0 48 .1 43.1c.1-4.5 3.8-8.4 8.4-8.7 3.5-.2 7.1-.1 10.7-.2.8 0 1.8-.4 2.5-.9 7.6-6.2 15.1-12.4 22.7-18.6 2.2-1.8 4.8-2.3 7.5-1.3 2.7 1 4.3 3 4.6 5.8.1.7.1 1.5.1 2.2 0 9.8-.1 19.5-.1 29.2M47.3 77V24c-.3.2-.5.2-.6.3-6.5 5.3-13 10.7-19.4 16.1-2.3 1.9-4.7 2.9-7.8 2.8-2.9-.1-5.8 0-8.7 0-.6 0-1.1.1-1.6.1v14.4c.7 0 1.2.1 1.8.1 3.2 0 6.4-.2 9.6.1 1.7.1 3.6.6 5 1.5 2.5 1.6 4.6 3.6 6.9 5.5 4.9 3.9 9.8 8 14.8 12.1M99.4 50.2c-.4 13.1-5.5 23.8-15.8 32-1.8 1.4-4.3 1.2-5.6-.4-1.3-1.7-1-4 .8-5.4 9.4-7.6 13.7-17.4 12.7-29.1-.8-9.2-5.2-16.8-12.5-22.6-2-1.6-2.4-3.9-1-5.6 1.4-1.6 3.8-1.6 5.8-.1 8.4 6.7 13.3 15.3 15.1 25.7.4 1.8.4 3.8.5 5.5"/>
    	<path class="st0" d="M86.1 50.1c-.3 8.3-3.2 15.1-9.2 20.6-1.6 1.5-3.9 1.6-5.3.2-1.4-1.4-1.4-3.6.3-5.1 3.4-3.2 5.7-6.9 6.5-11.5 1.2-7.1-.7-13.2-5.8-18.5-.8-.9-1.6-1.9-1.9-3.1-.4-1.4.4-2.7 1.8-3.3 1.4-.7 2.9-.6 4.1.4 5 4.4 8 9.9 9.1 16.3.2 1.5.3 3 .4 4"/>
    	<path class="st0" d="M72.5 50.4c.1 3-.8 5.7-2.5 8.2-1.1 1.6-3 2.1-4.5 1.2-1.7-.9-2.3-2.9-1.2-4.5 2.1-3.3 2.1-6.4 0-9.6-1-1.6-.4-3.4 1.2-4.4 1.5-.9 3.5-.5 4.6 1 1.5 2.4 2.5 5.1 2.4 8.1"/>
  	</symbol>
	<symbol id="icon-warning" viewBox="0 0 512 461.48">
    	<path d="M0 385.9c3.77-19.26 15.27-34.85 24.75-51.32 57.62-100.07 115.41-200.04 173.2-300.02 26.64-46.09 89.52-46.09 116.15 0 62.85 108.77 125.7 217.53 188.28 326.45 4.38 7.62 6.47 16.56 9.62 24.88v18c-.27.6-.66 1.18-.8 1.81-8.39 36.35-32.4 55.63-69.7 55.69-61.11.09-122.22.06-183.33.06-63.77 0-127.55.1-191.32-.1-32.24-.1-57.94-20.76-65.41-51.87-.37-1.56-.95-3.06-1.44-4.59V385.9zm255.97 32.68v-.03h25.99c54.15.01 108.3.05 162.45 0 12.46-.01 21.38-6.84 24.19-18.29 1.83-7.48-.81-13.93-4.52-20.34C401.8 272.19 339.59 164.4 277.39 56.62c-10.57-18.32-32.07-18.39-42.68-.02-62.6 108.33-125.17 216.67-187.73 325.03-10.46 18.12.16 36.88 21.06 36.92 62.64.1 125.29.03 187.93.03z"/>
    	<path d="M281.01 218.18c0 18.99-.01 37.97 0 56.96.01 13.48-8.96 23.08-21.53 23-12.33-.08-21.34-9.64-21.35-22.78-.03-38.3-.05-76.61-.02-114.91.01-11.78 7.8-21.01 18.67-22.41 10.91-1.4 20.85 5.39 23.66 16.26.41 1.58.52 3.28.52 4.93.03 19.65.02 39.3.02 58.96.01-.01.02-.01.03-.01zM285.21 348.36c-.15 13.87-11.8 25.4-25.58 25.31-14.5-.09-25.79-11.9-25.62-26.8.15-13.35 12.08-24.91 25.6-24.8 14.41.11 25.75 11.76 25.6 26.29z"/>
  	</symbol>
</svg>