<svg width="21" height="19" viewBox="0 0 21 19" fill="none" xmlns="http://www.w3.org/2000/svg">
<path d="M14.9333 1C12.7045 1 11.231 2.19211 10.5 2.98083C9.76906 2.19218 8.29548 1 6.06665 1C3.02547 1 1 3.77022 1 6.87348C1 9.19546 2.19533 13.7191 10.2006 17.9263C10.3875 18.0245 10.6124 18.0246 10.7994 17.9263C18.8047 13.719 20 9.19546 20 6.87348C20 3.69821 17.9146 1 14.9333 1ZM10.5 16.6737C6.65476 14.6027 2.26665 11.1521 2.26665 6.87348C2.26665 4.49337 3.72576 2.24078 6.06665 2.24078C7.8426 2.24078 9.31194 3.30744 9.96214 4.31176C10.21 4.70227 10.7921 4.70187 11.0389 4.31009C11.052 4.28941 12.3726 2.24074 14.9333 2.24074C17.2917 2.24074 18.7333 4.51594 18.7333 6.87344C18.7333 11.1522 14.3453 14.6027 10.5 16.6737Z" fill="url(#paint0_linear)" stroke="url(#paint1_linear)"/>
<defs>
<linearGradient id="paint0_linear" x1="10.5" y1="1" x2="10.5" y2="18" gradientUnits="userSpaceOnUse">
<stop stop-color="#D5AD61"/>
<stop offset="1" stop-color="#CA8D1A"/>
</linearGradient>
<linearGradient id="paint1_linear" x1="10.5" y1="1" x2="10.5" y2="18" gradientUnits="userSpaceOnUse">
<stop stop-color="#D5AD61"/>
<stop offset="1" stop-color="#CA8D1A"/>
</linearGradient>
</defs>
</svg>