<svg xmlns="http://www.w3.org/2000/svg" width="180" height="160" viewBox="0 0 180 160"><g enable-background="new" fill="#888688"><path d="M14.436 149.5v-8h5.241v.888h-4.246v2.579h4.162v.887h-4.162v2.759h4.246v.888h-5.241zM20.939 145.506c0-2.458 1.811-4.138 4.114-4.138 1.415 0 2.398.672 3.034 1.583l-.828.468c-.456-.684-1.295-1.163-2.207-1.163-1.751 0-3.083 1.331-3.083 3.25 0 1.896 1.331 3.251 3.083 3.251.911 0 1.751-.492 2.207-1.164l.84.456c-.672.924-1.631 1.595-3.046 1.595-2.303 0-4.114-1.679-4.114-4.138zM29.052 145.506c0-2.362 1.607-4.138 3.97-4.138s3.982 1.775 3.982 4.138-1.619 4.138-3.982 4.138-3.97-1.775-3.97-4.138zm6.92 0c0-1.871-1.163-3.25-2.95-3.25-1.799 0-2.938 1.379-2.938 3.25 0 1.859 1.14 3.251 2.938 3.251 1.787 0 2.95-1.392 2.95-3.251zM38.423 149.5v-8h.995v7.112h3.718v.888h-4.713zM43.74 145.506c0-2.362 1.607-4.138 3.97-4.138s3.982 1.775 3.982 4.138-1.619 4.138-3.982 4.138-3.97-1.775-3.97-4.138zm6.92 0c0-1.871-1.163-3.25-2.95-3.25-1.799 0-2.938 1.379-2.938 3.25 0 1.859 1.139 3.251 2.938 3.251 1.787 0 2.95-1.392 2.95-3.251zM52.919 145.506c0-2.494 1.835-4.138 4.114-4.138 1.427 0 2.411.624 3.106 1.487l-.792.504c-.503-.647-1.355-1.104-2.314-1.104-1.751 0-3.083 1.331-3.083 3.25 0 1.896 1.332 3.251 3.083 3.251.959 0 1.751-.456 2.159-.864v-1.619h-2.758v-.887h3.742v2.878c-.744.84-1.835 1.392-3.142 1.392-2.28 0-4.115-1.667-4.115-4.15zM64.018 149.5v-3.382l-3.154-4.618h1.164l2.482 3.719 2.482-3.719h1.164l-3.142 4.618v3.382h-.996z"/></g><g enable-background="new" fill="#888688"><path d="M122.729 149.25v-2.027h-3.754v-.827l3.387-5.146h1.35v5.098h1.113v.875h-1.113v2.027h-.983zm0-7.076l-2.771 4.174h2.771v-4.174zM126.199 148.422l.498-.743c.402.479.876.815 1.693.815 1.598 0 2.226-1.619 2.226-3.143l-.012-.311c-.343.551-1.22 1.246-2.226 1.246-1.422 0-2.594-.852-2.594-2.555 0-1.379 1.042-2.613 2.771-2.613 2.201 0 3.055 1.954 3.055 4.137 0 2.159-1.007 4.126-3.221 4.126-1.005.001-1.692-.395-2.19-.959zm4.382-4.197c-.095-.983-.616-2.219-1.989-2.219-1.208 0-1.812.924-1.812 1.691 0 1.176.806 1.727 1.824 1.727.781 0 1.55-.491 1.977-1.199zM136.197 149.25v-8h.982v8h-.982zM138.709 145.256c0-2.459 1.787-4.137 4.061-4.137 1.397 0 2.368.671 2.996 1.582l-.817.469c-.45-.684-1.278-1.164-2.179-1.164-1.729 0-3.043 1.332-3.043 3.25 0 1.896 1.314 3.25 3.043 3.25.9 0 1.729-.491 2.179-1.162l.829.455c-.663.924-1.61 1.596-3.008 1.596-2.274 0-4.061-1.68-4.061-4.139zM146.716 145.256c0-2.362 1.587-4.137 3.919-4.137 2.333 0 3.932 1.774 3.932 4.137 0 2.363-1.599 4.139-3.932 4.139-2.332 0-3.919-1.776-3.919-4.139zm6.832 0c0-1.871-1.148-3.25-2.913-3.25-1.775 0-2.9 1.379-2.9 3.25 0 1.859 1.125 3.25 2.9 3.25 1.764 0 2.913-1.391 2.913-3.25zM161.686 149.25l-4.605-6.381v6.381h-.983v-8h1.007l4.547 6.249v-6.249h.982v8h-.948zM164.01 148.123l.592-.768c.51.6 1.361 1.15 2.475 1.15 1.409 0 1.859-.768 1.859-1.391 0-2.062-4.678-.912-4.678-3.766 0-1.32 1.16-2.23 2.724-2.23 1.196 0 2.132.419 2.794 1.127l-.592.731c-.592-.672-1.42-.96-2.285-.96-.936 0-1.622.516-1.622 1.271 0 1.799 4.677.768 4.677 3.754 0 1.151-.781 2.352-2.912 2.352-1.362.002-2.382-.527-3.032-1.27z"/></g><g stroke="#010101" stroke-linejoin="round" stroke-miterlimit="10" fill="none"><path stroke-linecap="round" d="M157.166 21.555c-1.807 1.204-2.736 3.403 0 5.25 1.5 3.75 4.289 2.741 5.941 1.001 1.649-1.74 2.516-6.595 1.295-9.251-2.636 1.988-4.986 1.5-7.236 3zM151.947 16.261c1.941 2.287 2.969 5.294-1.662 7.312-2.119 4.731-5.342 2.979-7.486.454-2.145-2.528-2.965-9.288-1.076-12.859 3.481 2.947 7.798 2.233 10.224 5.093zM160.916 23.805c-4.5 2.25-6.75 8.25-6.75 8.25s-1.896-8.79-9.396-15.54"/><path d="M134.666 32.168h6v12h-6z"/><path stroke-linecap="round" d="M140.666 41.918c16.093 5.365 10.157 5.42 28.5-3.75-1.594-1.593-2.854-1.971-4.5-1.5l-6.65 2.206M140.666 33.668h4.5c3.529 0 6 2.25 6.75 3h4.5c2.391 0 2.391 3 0 3h-8.25"/></g><g stroke="#010101" stroke-linejoin="round" stroke-miterlimit="10" fill="none"><path stroke-linecap="round" d="M25.166 73.583v1.5M14.666 76.542l1.5 1.5M35.666 76.542l-1.5 1.5M11.666 87.083h1.5M31.896 81.074c-1.65-1.859-4.051-3.035-6.73-3.035-4.97 0-9 4.031-9 9 0 1.033.176 2.018.502 2.938"/><path stroke-linecap="round" d="M22.166 87.083h16.5l7.5 13.5h-31.5zM28.166 100.583h4.5v7.5h-4.5zM27.416 87.083l-3 13.5M33.416 87.083l3 13.5"/><path d="M19.666 91.583h21.5M17.166 96.083h26.498"/></g><g stroke="#010101" stroke-linejoin="round" stroke-miterlimit="10" fill="none"><path d="M95.4 25.302c0 3.309-2.684 5.531-5.991 5.531-3.31 0-5.993-2.223-5.993-5.531 0-3.311 5.993-12.907 5.993-12.907s5.991 9.596 5.991 12.907z"/><path stroke-linecap="round" d="M89.409 27.833c-1.616 0-2.926-1.084-2.926-2.7"/><path d="M93.166 42.083h9v4.5h-9z"/><path stroke-linecap="round" d="M100.666 42.083v-2.297s4.779-4.733 6-5.953v-12.094s-3.75-1.359-3.75 9.094l-4.453 4.453 1.031-4.5c.516-2.156-1.456-3.079-2.531-1.406-.99 1.539-2.297 5.941-2.297 5.941v6.762"/><path d="M76.666 42.083h9v4.5h-9z"/><path stroke-linecap="round" d="M78.166 42.083v-2.297s-4.5-4.733-6-5.953v-12.094s3.75-1.359 3.75 9.094l4.453 4.453-1.031-4.5c-.516-2.156 1.456-3.079 2.531-1.406.99 1.539 2.297 5.941 2.297 5.941v6.762"/></g><path stroke="#010101" stroke-linejoin="round" stroke-miterlimit="10" d="M169.159 108.583c0-12.813.457 2.876-5.933-5.651-.049-.064-.07-.349-.15-.349h-.006c-.084 0-.166.286-.217.354-1.188 1.584-3.08 2.729-5.215 2.729-2.137 0-4.029-1.212-5.219-2.798-.049-.063-.123-.286-.204-.286h-.006c-.085 0-.165.286-.217.354-1.188 1.584-3.079 2.729-5.213 2.729-2.138 0-4.03-1.212-5.22-2.798-.049-.062-.123-.286-.203-.286h-.006c-.086 0-.166.286-.218.354-5.85 7.785-6.477-6.736-6.477 5.646h34.502v.002z" fill="none"/><path fill="#010101" d="M143.659 82.333c-.414 0-.75.336-.75.75 0 .415.336.75.75.75.415 0 .75-.335.75-.75 0-.414-.335-.75-.75-.75z"/><path stroke="#010101" stroke-linejoin="round" stroke-miterlimit="10" d="M164.979 93.762c0-9.221-5.328-14.178-10.238-16.025.182-1.141.695-2.664 1.552-3.521-7.719 0-9.862 1.288-11.009 3.099-5.874 1.45-8.754 5.921-7.453 9.391l-2.544 3.342c-.146.203-.201.457-.154.703.048.244.193.46.404.595.522.332 1.204.344 1.713-.014 1.62-1.131 3.303-2.092 5.011-2.842.428.762 2.569 4.187 6.432 4.187-1.352-1.799-1.582-4.714-1.621-5.657 5.365-.888 10.63.92 14.652 7.289-1.504 1.201-2.507 2.902-3.013 5.102-.05.225.044.456.237.579.195.124.445.112.627-.028l3.775-2.938s2.147 1.287 4.532 2.72c.181.108.407.103.582-.017.175-.115.265-.326.234-.531-.552-3.624-3.719-5.434-3.719-5.434z" fill="none"/><g stroke="#010101" stroke-linejoin="round" stroke-miterlimit="10" fill="none"><path d="M41.156 23.442c0-7.547-7.129-11.859-13.598-11.859-8.037 0-14.393 6.305-14.393 14.344 0 4.564 1.355 8.848 5.855 11.517v8.64h15v-5.214c3 .015 4.67-.202 5.724-1.255 1.348-1.348 1.29-7.031 1.29-7.031s1.316.048 2.283.009c.336-.015.688-.184.88-.46.193-.275.142-.609.165-.945.175-2.411-3.206-6.543-3.206-7.746z"/><path stroke-linecap="round" d="M23.99 21.685c-1.623 1.911-2.48 4.424 1.389 6.112 1.773 3.955 4.469 2.492 6.26.38 1.793-2.112 2.479-7.766.9-10.751-2.912 2.464-6.519 1.868-8.549 4.259zM22.137 34.887s1.584-7.349 7.854-12.991"/></g><g stroke="#010101" stroke-linecap="round" stroke-linejoin="round" stroke-miterlimit="10" fill="none"><path d="M99.578 85.079h2.088M96.971 77.745l1.564-1.564M89.666 75.167v-2.088M82.362 77.745l-1.564-1.564M79.752 85.079h-2.086"/><path d="M73.166 95.552v12h33v-12c-8.25-5.297-24.75-5.202-33 0zM97.361 107.583l-4.89-15.884M106.195 106.062l-11.528-14.166M81.97 107.552l4.892-15.841M73.263 106.062l11.554-14.166M89.666 107.583v-15.967M86.252 91.761c-2.426-1.243-4.086-3.768-4.086-6.682 0-4.144 3.357-7.5 7.5-7.5s7.5 3.356 7.5 7.5c0 2.901-1.646 5.419-4.059 6.667"/></g></svg>