<svg xmlns="http://www.w3.org/2000/svg" width="180" height="160" viewBox="0 0 180 160"><g enable-background="new" fill="#888688"><path d="M14.436 149.5v-8h5.241v.888h-4.246v2.579h4.162v.887h-4.162v3.646h-.995zM20.724 145.506c0-2.362 1.607-4.138 3.97-4.138s3.982 1.775 3.982 4.138-1.619 4.138-3.982 4.138-3.97-1.775-3.97-4.138zm6.92 0c0-1.871-1.163-3.25-2.95-3.25-1.799 0-2.938 1.379-2.938 3.25 0 1.859 1.14 3.251 2.938 3.251 1.786 0 2.95-1.392 2.95-3.251zM29.904 145.506c0-2.362 1.607-4.138 3.97-4.138s3.982 1.775 3.982 4.138-1.619 4.138-3.982 4.138-3.97-1.775-3.97-4.138zm6.92 0c0-1.871-1.163-3.25-2.95-3.25-1.799 0-2.938 1.379-2.938 3.25 0 1.859 1.139 3.251 2.938 3.251 1.787 0 2.95-1.392 2.95-3.251zM39.407 149.5v-8h2.734c2.495 0 4.102 1.739 4.102 4.006 0 2.279-1.607 3.994-4.102 3.994h-2.734zm5.805-3.994c0-1.727-1.091-3.118-3.07-3.118h-1.739v6.225h1.739c1.942-.001 3.07-1.391 3.07-3.107z"/></g><g enable-background="new" fill="#888688"><path d="M116.06 149.25v-6.692l-1.267 1.367-.592-.611 1.977-2.063h.865v8h-.983zM118.572 145.256c0-1.955.852-4.125 3.019-4.125 2.155 0 3.02 2.17 3.02 4.125 0 1.943-.864 4.139-3.02 4.139-2.167 0-3.019-2.196-3.019-4.139zm5.032 0c0-1.595-.509-3.238-2.013-3.238-1.503 0-2.013 1.644-2.013 3.238 0 1.596.51 3.25 2.013 3.25 1.504 0 2.013-1.654 2.013-3.25zM125.998 148.111l.604-.672c.521.684 1.221 1.066 2.18 1.066 1.077 0 1.823-.743 1.823-1.715 0-1.055-.746-1.727-1.812-1.727-.688 0-1.291.228-1.824.744l-.722-.252v-4.307h4.831v.888h-3.849v2.782c.392-.383 1.054-.719 1.848-.719 1.326 0 2.522.898 2.522 2.555 0 1.619-1.232 2.639-2.818 2.639-1.326.002-2.191-.491-2.783-1.282zM136.196 149.25v-8h.983v8h-.983zM138.708 145.256c0-2.459 1.788-4.137 4.062-4.137 1.396 0 2.368.671 2.996 1.582l-.817.469c-.45-.684-1.279-1.164-2.179-1.164-1.729 0-3.043 1.332-3.043 3.25 0 1.896 1.314 3.25 3.043 3.25.899 0 1.729-.491 2.179-1.162l.829.455c-.664.924-1.611 1.596-3.008 1.596-2.274 0-4.062-1.68-4.062-4.139zM146.715 145.256c0-2.362 1.587-4.137 3.92-4.137 2.332 0 3.931 1.774 3.931 4.137 0 2.363-1.599 4.139-3.931 4.139-2.333 0-3.92-1.776-3.92-4.139zm6.832 0c0-1.871-1.148-3.25-2.912-3.25-1.776 0-2.901 1.379-2.901 3.25 0 1.859 1.125 3.25 2.901 3.25 1.763 0 2.912-1.391 2.912-3.25zM161.686 149.25l-4.606-6.381v6.381h-.982v-8h1.007l4.547 6.249v-6.249h.982v8h-.948zM164.009 148.123l.593-.768c.509.6 1.361 1.15 2.475 1.15 1.408 0 1.858-.768 1.858-1.391 0-2.062-4.677-.912-4.677-3.766 0-1.32 1.16-2.23 2.723-2.23 1.196 0 2.132.419 2.795 1.127l-.592.731c-.592-.672-1.421-.96-2.285-.96-.936 0-1.623.516-1.623 1.271 0 1.799 4.678.768 4.678 3.754 0 1.151-.781 2.352-2.913 2.352-1.362.002-2.381-.527-3.032-1.27z"/></g><g stroke="#010101" stroke-linejoin="round" stroke-miterlimit="10" fill="none"><path d="M28.167 11.833h-12v15h10.5v15h-15v4.5h34.5v-32.25c0-1.242-1.01-2.25-2.25-2.25h-15.75zM38.667 46.333v-16.5h7.5"/><path stroke-linecap="round" d="M37.167 19.333h9M37.167 22.333h9M37.167 25.333h9"/><path d="M17.667 32.083h6v3.75h-6z"/><path stroke-linecap="round" d="M17.667 34.333h-6"/><path d="M22.167 32.083v-5.25M19.167 32.083v-5.25"/><circle stroke-linecap="round" cx="21.417" cy="17.083" r="2.25"/><path stroke-linecap="round" d="M20.667 35.833v1.5"/></g><path fill="#010101" d="M84.667 15.583c-.414 0-.75.334-.75.75 0 .413.336.75.75.75s.75-.337.75-.75c0-.416-.336-.75-.75-.75zM87.667 14.083c-.414 0-.75.334-.75.75 0 .413.336.75.75.75s.75-.337.75-.75c0-.416-.336-.75-.75-.75zM95.167 14.083c-.414 0-.75.334-.75.75 0 .413.336.75.75.75s.75-.337.75-.75c0-.416-.336-.75-.75-.75zM91.417 15.583c-.414 0-.75.334-.75.75 0 .413.336.75.75.75s.75-.337.75-.75c0-.416-.336-.75-.75-.75zM98.229 15.583c-.414 0-.75.334-.75.75 0 .413.336.75.75.75.416 0 .75-.337.75-.75 0-.416-.334-.75-.75-.75z"/><path stroke="#010101" stroke-linecap="round" stroke-linejoin="round" stroke-miterlimit="10" fill="none" d="M91.417 34.333l9 4.5 4.5-4.5"/><path stroke="#010101" stroke-linecap="round" stroke-linejoin="round" stroke-miterlimit="10" d="M108.667 37.333c0 1.657-1.342 3-3 3h-28.5c-1.655 0-3-1.343-3-3 0-1.658 1.345-3 3-3h28.5c1.658 0 3 1.342 3 3zM105.667 28.333c1.658 0 3 1.342 3 3 0 1.657-1.342 3-3 3h-28.5c-1.655 0-3-1.343-3-3 0-1.658 1.345-3 3-3" fill="none"/><path stroke="#010101" stroke-linecap="round" stroke-linejoin="round" stroke-miterlimit="10" d="M77.167 40.333v1.5c0 1.657 1.345 3 3 3h22.5c1.658 0 3-1.343 3-3v-1.5h-28.5zM105.667 23.833c0-7.87-6.381-13.5-14.25-13.5-7.871 0-14.25 5.63-14.25 13.5h28.5zM77.167 23.833s-3 .592-3 2.25c0 1.657 1.345 2.25 3 2.25.8 0 1.713-.24 2.25-.75.766 1.386 2.053 2.25 3.75 2.25 1.846 0 3.056-.659 3.75-2.25.693 1.591 2.652 2.25 4.5 2.25 1.847 0 3.806-.659 4.5-2.25.692 1.591 1.901 2.25 3.75 2.25 1.696 0 2.981-.864 3.75-2.25.537.51 1.45.75 2.25.75 1.658 0 3-.593 3-2.25 0-1.658-3-2.25-3-2.25" fill="none"/><g stroke="#010101" stroke-linecap="round" stroke-linejoin="round" stroke-miterlimit="10" fill="none"><path d="M161.417 25.191l-3 19.5h-12l-3-19.5"/><path d="M143.417 25.191c0-4.97 4.028-9 9-9s9 4.03 9 9h-18zM139.667 25.191h25.5M148.667 42.441l6.75-30.108c0-.489.237-.947.642-1.229.398-.28.912-.348 1.371-.181l6.237 2.268M144.57 32.691h15.694"/></g><g stroke="#010101" stroke-linejoin="round" stroke-miterlimit="10" fill="none"><path d="M13.667 92.834h28.5c-.857 6.855-6.686 12-13.594 12h-1.312c-6.91 0-12.737-5.145-13.594-12zM22.667 104.834h10.5v3h-10.5z"/><path stroke-linecap="round" d="M23.237 82.398c2.133 3.758-2.957 6.692-.395 10.436M25.948 81.947c2.839 3.975-2.686 7.021-.105 10.887M28.667 81.584c3.486 4.184-2.546 7.248.176 11.25M31.843 92.834c-2.722-4.002 3.311-7.066-.176-11.25l-.383-.449M44.291 79.396l-28.248 3.78M43.881 73.342l-27.428 7.74"/></g><path stroke="#010101" stroke-linecap="round" stroke-linejoin="round" stroke-miterlimit="10" d="M153.167 107.334h-16.5c0-5.385 2.25-15 8.25-15s8.25 9.615 8.25 15z" fill="none"/><path fill="#010101" d="M142.729 94.584c-.414 0-.75.336-.75.75s.336.75.75.75c.416 0 .75-.336.75-.75s-.334-.75-.75-.75zM147.167 94.584c-.414 0-.75.336-.75.75s.336.75.75.75.75-.336.75-.75-.336-.75-.75-.75z"/><path stroke="#010101" stroke-linecap="round" stroke-linejoin="round" stroke-miterlimit="10" d="M169.667 94.584c0-1.242-1.008-2.25-2.25-2.25h-9c-1.242 0-2.25 1.008-2.25 2.25v12.75h13.5v-12.75zM159.167 84.834h7.547v7.5h-7.547zM169.667 80.334h-13.5v2.25c0 1.242 1.008 2.25 2.25 2.25h9c1.242 0 2.25-1.008 2.25-2.25v-2.25zM171.167 78.084c0-1.238-1.013-2.25-2.25-2.25h-12c-1.237 0-2.25 1.012-2.25 2.25s1.013 2.25 2.25 2.25h12c1.237 0 2.25-1.012 2.25-2.25zM162.917 75.834v-3" fill="none"/><path stroke="#010101" stroke-linecap="round" stroke-linejoin="round" stroke-miterlimit="10" fill="none" d="M161.417 72.834h3z"/><g stroke="#010101" stroke-linejoin="round" stroke-miterlimit="10" fill="none"><path stroke-linecap="round" d="M104.667 94.334h4.5c0-12-2.101-20.25-4.172-20.25h-.328v30.75M74.667 75.584v6c0 2.486 2.014 4.5 4.5 4.5 2.484 0 4.5-2.014 4.5-4.5v-6M79.167 75.584v29.25"/><circle cx="91.917" cy="95.084" r="9.75"/><path d="M91.917 100.311s5.056-3.641 5.056-6.338c0-3.111-4.136-4.094-5.056-.311-.92-3.783-5.055-2.801-5.055.311 0 2.697 5.055 6.338 5.055 6.338z"/></g></svg>