<?xml version="1.0" encoding="UTF-8"?>
<!-- Generator: Adobe Illustrator 16.2.1, SVG Export Plug-In . SVG Version: 6.00 Build 0)  -->
<!DOCTYPE svg PUBLIC "-//W3C//DTD SVG 1.1//EN" "http://www.w3.org/Graphics/SVG/1.1/DTD/svg11.dtd">
<svg version="1.1" id="Layer_1" xmlns="http://www.w3.org/2000/svg" xmlns:xlink="http://www.w3.org/1999/xlink" x="0px" y="0px" width="180px" height="160px" viewBox="0 0 180 160" enable-background="new 0 0 180 160" xml:space="preserve">
<g enable-background="new    ">
	<path fill="#888688" d="M14.436,149.5v-8h5.241v0.889h-4.246v2.578h4.162v0.887h-4.162v2.76h4.246v0.888L14.436,149.5L14.436,149.5   z M21.263,149.5v-8h2.734c2.495,0,4.102,1.739,4.102,4.006c0,2.279-1.607,3.994-4.102,3.994H21.263z M27.068,145.506   c0-1.727-1.091-3.117-3.07-3.117h-1.739v6.225h1.739C25.94,148.611,27.068,147.223,27.068,145.506L27.068,145.506z M29.663,149.5   v-8h0.996v8H29.663z M34.51,149.5v-7.111h-2.531V141.5h6.069v0.889h-2.543v7.111H34.51z M39.371,149.5v-8h0.996v8H39.371z    M41.916,145.506c0-2.361,1.607-4.138,3.97-4.138c2.363,0,3.982,1.774,3.982,4.138s-1.619,4.139-3.982,4.139   C43.523,149.645,41.916,147.869,41.916,145.506z M48.835,145.506c0-1.871-1.163-3.25-2.95-3.25c-1.799,0-2.938,1.379-2.938,3.25   c0,1.859,1.139,3.251,2.938,3.251C47.672,148.757,48.835,147.365,48.835,145.506z M57.08,149.5l-4.665-6.381v6.381h-0.996v-8h1.02   l4.605,6.249V141.5h0.995v8H57.08z"/>
</g>
<g enable-background="new    ">
	<path fill="#888688" d="M123.014,149.25v-2.027h-3.802v-0.826l3.431-5.146h1.367v5.098h1.127v0.875h-1.127v2.027H123.014z    M123.014,142.174l-2.807,4.174h2.807V142.174z M126.975,149.25l3.228-7.111h-4.306v-0.889h5.457v0.684l-3.274,7.316H126.975z    M135.748,149.25v-8h0.995v8H135.748z M138.291,145.256c0-2.458,1.812-4.138,4.113-4.138c1.416,0,2.398,0.672,3.035,1.583   l-0.828,0.468c-0.455-0.685-1.295-1.163-2.207-1.163c-1.75,0-3.082,1.331-3.082,3.25c0,1.896,1.332,3.251,3.082,3.251   c0.912,0,1.752-0.491,2.207-1.164l0.84,0.456c-0.672,0.924-1.631,1.596-3.047,1.596   C140.104,149.395,138.291,147.715,138.291,145.256L138.291,145.256z M146.404,145.256c0-2.361,1.605-4.138,3.969-4.138   s3.982,1.774,3.982,4.138s-1.619,4.139-3.982,4.139C148.012,149.395,146.404,147.619,146.404,145.256z M153.324,145.256   c0-1.871-1.164-3.25-2.951-3.25c-1.799,0-2.938,1.379-2.938,3.25c0,1.859,1.139,3.251,2.938,3.251   C152.16,148.507,153.324,147.115,153.324,145.256z M161.568,149.25l-4.666-6.381v6.381h-0.995v-8h1.02l4.605,6.249v-6.249h0.995v8   H161.568z M163.924,148.123l0.6-0.768c0.517,0.6,1.379,1.15,2.506,1.15c1.429,0,1.884-0.768,1.884-1.392   c0-2.062-4.736-0.911-4.736-3.767c0-1.318,1.175-2.23,2.759-2.23c1.211,0,2.158,0.42,2.83,1.128l-0.601,0.731   c-0.601-0.672-1.438-0.961-2.313-0.961c-0.947,0-1.644,0.517-1.644,1.271c0,1.799,4.737,0.768,4.737,3.754   c0,1.15-0.793,2.352-2.95,2.352C165.615,149.395,164.583,148.866,163.924,148.123z"/>
</g>
<g>
	<path fill="none" stroke="#010101" stroke-linecap="round" stroke-linejoin="round" stroke-miterlimit="10" d="M82.165,103.408   l-4.242-4.242l14.849-14.848l4.242,4.242L82.165,103.408z M100.197,76.892c-1.172-1.174-3.072-1.174-4.244,0l-8.484,8.484    M77.923,103.407l-3.182,3.182"/>
	<path fill="none" stroke="#010101" stroke-linecap="round" stroke-linejoin="round" stroke-miterlimit="10" d="M101.264,75.84   l4.242,4.239l-8.484,8.491l-4.242-4.239L101.264,75.84z M76.862,102.348l2.121,2.12"/>
</g>
<g>
	<path fill="none" stroke="#010101" stroke-linecap="round" stroke-linejoin="round" stroke-miterlimit="10" d="M140.25,78.333h24   v30h-24V78.333z M146.25,73.833h12v4.5h-12V73.833z M136.5,78.333h33 M146.25,83.583v18 M152.25,83.583v18 M158.25,83.583v18"/>
</g>
<g>
	<path fill="none" stroke="#010101" stroke-linecap="round" stroke-linejoin="round" stroke-miterlimit="10" d="M21.995,42.087   l-9.75,3l3-9.75l18-18l6.75,6.75L21.995,42.087z M33.245,17.337l4.629-4.629c1.168-1.166,3.075-1.166,4.242,0l2.508,2.508   c1.168,1.169,1.168,3.076,0,4.242l-4.629,4.629 M36.62,20.712L20.495,36.837 M15.245,35.337l1.5,1.5h3.75v3.75l1.5,1.5    M13.745,40.587l3,3 M35.495,15.087l6.75,6.75"/>
</g>
<g>
	<path fill="none" stroke="#010101" stroke-linejoin="round" stroke-miterlimit="10" d="M84.5,39.333v-3H86v-3h-7.5v3H80v3   c-4.582,0.601-7.148,2.843-7.5,7.5h19.611C91.76,42.176,89.081,39.934,84.5,39.333z"/>
	<path fill="none" stroke="#010101" stroke-linecap="round" stroke-linejoin="round" stroke-miterlimit="10" d="M106.082,12.785   l-18.17,18.169 M90.301,28.528c-1.77-1.77,0.073-7.165,4.469-11.557c2.258-2.262,4.73-3.896,6.23-4.639v5.549 M96.046,22.833h7.204    M93.046,25.833H101c-4.201,3.82-9.176,4.242-10.699,2.719 M106.098,12.755c1.368,1.369,1.055,4.078-0.666,7.078h-6.398"/>
</g>
<g>
	<path fill="none" stroke="#010101" stroke-linecap="round" stroke-linejoin="round" stroke-miterlimit="10" d="M143,38.333h-4.5   c-1.648,0-3-1.351-3-3v-9c0-1.649,1.352-3,3-3H167c1.65,0,3,1.351,3,3v9c0,1.649-1.35,3-3,3h-4.5 M143,20.333v-6h15l4.5,4.5v1.5"/>
	<path fill="none" stroke="#010101" stroke-linecap="round" stroke-linejoin="round" stroke-miterlimit="10" d="M143,33.833h19.5v12   H143V33.833z"/>
	
		<circle fill="none" stroke="#010101" stroke-linecap="round" stroke-linejoin="round" stroke-miterlimit="10" cx="140" cy="27.833" r="1.5"/>
	<path fill="none" stroke="#010101" stroke-linecap="round" stroke-linejoin="round" stroke-miterlimit="10" d="M146,36.833h13.5    M146,39.833h13.5 M146,42.833h13.5 M158,14.333v4.5h4.5"/>
</g>
<g>
	<path fill="none" stroke="#000000" stroke-linecap="round" stroke-linejoin="round" stroke-miterlimit="10" d="M45.75,92.5   c0,0-7.723,9.75-17.25,9.75S11.25,92.5,11.25,92.5s7.723-9.75,17.25-9.75S45.75,92.5,45.75,92.5z"/>
	
		<circle fill="none" stroke="#000000" stroke-linecap="round" stroke-linejoin="round" stroke-miterlimit="10" cx="28.5" cy="92.5" r="6"/>
	<path fill="none" stroke="#000000" stroke-linecap="round" stroke-linejoin="round" stroke-miterlimit="10" d="M28.5,89.5   c1.657,0,3,1.344,3,3s-1.343,3-3,3s-3-1.344-3-3"/>
</g>
</svg>