<svg xmlns="http://www.w3.org/2000/svg" width="180" height="160" viewBox="0 0 180 160"><g enable-background="new" fill="#888688"><path d="M14.112 145.506c0-2.458 1.811-4.138 4.114-4.138 1.415 0 2.398.672 3.034 1.583l-.828.468c-.456-.684-1.295-1.163-2.207-1.163-1.751 0-3.083 1.331-3.083 3.25 0 1.896 1.332 3.251 3.083 3.251.911 0 1.751-.492 2.207-1.164l.839.456c-.671.924-1.631 1.595-3.046 1.595-2.302 0-4.113-1.679-4.113-4.138zM22.224 145.506c0-2.362 1.607-4.138 3.97-4.138s3.982 1.775 3.982 4.138-1.619 4.138-3.982 4.138-3.97-1.775-3.97-4.138zm6.92 0c0-1.871-1.163-3.25-2.95-3.25-1.799 0-2.938 1.379-2.938 3.25 0 1.859 1.14 3.251 2.938 3.251 1.786 0 2.95-1.392 2.95-3.251zM31.728 149.5v-8h2.734c2.495 0 4.102 1.739 4.102 4.006 0 2.279-1.607 3.994-4.102 3.994h-2.734zm5.804-3.994c0-1.727-1.091-3.118-3.07-3.118h-1.739v6.225h1.739c1.943-.001 3.07-1.391 3.07-3.107zM40.127 149.5v-8h.996v8h-.996zM48.656 149.5l-4.665-6.381v6.381h-.996v-8h1.02l4.605 6.249v-6.249h.995v8h-.959zM51.167 145.506c0-2.494 1.835-4.138 4.114-4.138 1.427 0 2.411.624 3.106 1.487l-.792.504c-.503-.647-1.355-1.104-2.314-1.104-1.751 0-3.083 1.331-3.083 3.25 0 1.896 1.332 3.251 3.083 3.251.959 0 1.751-.456 2.159-.864v-1.619h-2.758v-.887h3.742v2.878c-.744.84-1.835 1.392-3.142 1.392-2.28 0-4.115-1.667-4.115-4.15z"/></g><g enable-background="new" fill="#888688"><path d="M116.344 149.25v-6.692l-1.267 1.367-.593-.611 1.979-2.063h.863v8h-.982zM118.892 149.25v-.804c2.842-2.255 4.393-3.586 4.393-4.966 0-1.031-.841-1.463-1.657-1.463-.947 0-1.682.408-2.144 1.008l-.604-.636c.604-.815 1.635-1.259 2.748-1.259 1.314 0 2.652.756 2.652 2.35 0 1.632-1.635 3.119-3.837 4.882h3.872v.888h-5.423zM125.998 148.111l.604-.672c.521.684 1.221 1.066 2.18 1.066 1.077 0 1.823-.743 1.823-1.715 0-1.055-.746-1.727-1.812-1.727-.688 0-1.291.228-1.824.744l-.722-.252v-4.307h4.831v.888h-3.849v2.782c.392-.383 1.054-.719 1.848-.719 1.326 0 2.522.898 2.522 2.555 0 1.619-1.232 2.639-2.818 2.639-1.326.002-2.191-.491-2.783-1.282zM136.196 149.25v-8h.983v8h-.983zM138.708 145.256c0-2.459 1.788-4.137 4.062-4.137 1.396 0 2.368.671 2.996 1.582l-.817.469c-.45-.684-1.279-1.164-2.179-1.164-1.729 0-3.043 1.332-3.043 3.25 0 1.896 1.314 3.25 3.043 3.25.899 0 1.729-.491 2.179-1.162l.829.455c-.664.924-1.611 1.596-3.008 1.596-2.274 0-4.062-1.68-4.062-4.139zM146.715 145.256c0-2.362 1.587-4.137 3.92-4.137 2.332 0 3.931 1.774 3.931 4.137 0 2.363-1.599 4.139-3.931 4.139-2.333 0-3.92-1.776-3.92-4.139zm6.832 0c0-1.871-1.148-3.25-2.912-3.25-1.776 0-2.901 1.379-2.901 3.25 0 1.859 1.125 3.25 2.901 3.25 1.763 0 2.912-1.391 2.912-3.25zM161.686 149.25l-4.606-6.381v6.381h-.982v-8h1.007l4.547 6.249v-6.249h.982v8h-.948zM164.009 148.123l.593-.768c.509.6 1.361 1.15 2.475 1.15 1.408 0 1.858-.768 1.858-1.391 0-2.062-4.677-.912-4.677-3.766 0-1.32 1.16-2.23 2.723-2.23 1.196 0 2.132.419 2.795 1.127l-.592.731c-.592-.672-1.421-.96-2.285-.96-.936 0-1.623.516-1.623 1.271 0 1.799 4.678.768 4.678 3.754 0 1.151-.781 2.352-2.913 2.352-1.362.002-2.381-.527-3.032-1.27z"/></g><g stroke="#010101" stroke-linecap="round" stroke-linejoin="round" stroke-miterlimit="10" fill="none"><path d="M46.167 101.75c0 1.656-1.342 3-3 3h-28.5c-1.656 0-3-1.344-3-3v-21c0-1.657 1.344-3 3-3h28.5c1.658 0 3 1.343 3 3v21zM11.667 85.25h34.5"/><circle cx="16.917" cy="81.5" r=".75"/><circle cx="21.417" cy="81.5" r=".75"/><circle cx="25.917" cy="81.5" r=".75"/><path d="M19.167 91.25l3.75 3.75-3.75 3.75M28.167 95.75h6"/></g><g stroke="#010101" stroke-linecap="round" stroke-linejoin="round" stroke-miterlimit="10" fill="none"><path d="M169.666 106.25c0 1.656-1.342 3-3 3h-28.5c-1.654 0-3-1.344-3-3v-28.5c0-1.656 1.346-3 3-3h28.5c1.658 0 3 1.344 3 3v28.5zM135.166 82.25h34.5"/><circle cx="140.416" cy="78.5" r=".75"/><circle cx="144.916" cy="78.5" r=".75"/><circle cx="149.416" cy="78.5" r=".75"/><path d="M147.166 82.25v27"/><path d="M151.666 85.25h13.5v7.5h-13.5zM151.666 97.25h13.5v7.5h-13.5zM138.197 85.25h2.969M141.197 88.25h2.969M141.197 91.25h2.969M141.197 94.25h2.969M138.197 97.25h2.969M141.197 100.25h2.969M141.197 103.25h2.969"/></g><g stroke="#010101" stroke-linejoin="round" stroke-miterlimit="10" fill="none"><path stroke-linecap="round" d="M88.167 92.25h-15v-13.5h34.499v9.031M79.167 82.5v6M81.676 83.855l-5.017 3.29M81.663 87.166l-4.993-3.332M88.167 82.5v6M90.676 83.855l-5.017 3.29M90.663 87.166l-4.993-3.332"/><path stroke-linecap="round" d="M92.666 93.75h15v12h-15zM100.123 101.682v-3M95.623 93.753v-1.499c0-2.484 2.014-4.5 4.5-4.5 2.484 0 4.5 2.016 4.5 4.5v1.499"/><path d="M100.873 97.932c0 .416-.336.75-.75.75-.416 0-.75-.334-.75-.75 0-.414.334-.75.75-.75.414 0 .75.336.75.75z"/></g><g stroke="#010101" stroke-linejoin="round" stroke-miterlimit="10" fill="none"><g stroke-linecap="round"><path d="M32.86 36.886v2.912h-2.913M22.669 39.798c.721-2.039 2.663-3.495 4.946-3.495 2.284 0 4.477 1.438 5.196 3.471M22.977 46.167v-2.911h2.912M33.167 43.256c-.721 2.038-2.663 3.494-4.945 3.494-2.283 0-4.477-1.434-5.195-3.472"/></g><path stroke-linecap="round" d="M26.276 16l-2.813-3M29.557 16l2.813-3"/><path d="M37.658 23.5c-1.069-4.498-5.024-7.5-9.741-7.5-4.742 0-8.716 3.002-9.759 7.5h19.5zM25.667 19v1.5M30.167 19v1.5"/><path stroke-linecap="round" d="M13.667 41.5v-12s.75-3 2.25-3h2.25M42.167 41.5v-12s-.75-3-2.25-3h-2.25"/><path d="M35.417 41.5h2.25v-15h-19.5v15h2.25"/></g><g stroke="#010101" stroke-linejoin="round" stroke-miterlimit="10" fill="none"><path stroke-linecap="round" d="M160.916 46.752l-5.25 1.5 1.5-5.25 11.252-11.254 3.75 3.75z"/><path d="M165.418 34.748l3.75 3.75"/><path stroke-linecap="round" d="M157.166 43.002l3.75 3.75"/><path stroke-linecap="round" d="M142.166 24.25h7.5v4.5h-7.5zM142.166 31.75h7.5v4.5h-7.5zM142.166 39.25h7.5v4.5h-7.5zM151.916 48.25h-14.25v-34.5h16.5l9 9v9.75M154.166 13.75v9h9M149.666 25.75h4.5v15h-4.5M154.166 33.25h3.75"/></g><g stroke="#010101" stroke-linejoin="round" stroke-miterlimit="10" fill="none"><path stroke-linecap="round" d="M107.666 39.367c0 1.316-1.006 2.383-2.25 2.383h-30c-1.242 0-2.25-1.066-2.25-2.383v-22.234c0-1.316 1.008-2.383 2.25-2.383h30c1.244 0 2.25 1.066 2.25 2.383v22.234zM79.917 44.75h20.999M90.417 41.75v3"/><circle cx="90.416" cy="38.75" r=".75"/><path d="M73.167 35.75h34.499"/></g><g stroke="#010101" stroke-linecap="round" stroke-linejoin="round" stroke-miterlimit="10" fill="none"><path d="M77.647 28.991v-7.5M81.233 28.991v-7.5M77.647 25.241h3.586M96.199 28.991v-7.5l-2.388 3.75-2.389-3.75v7.5M103.186 28.991h-3.586v-7.5M86.362 28.991v-7.5M84.566 21.491h3.587"/></g></svg>