<svg xmlns="http://www.w3.org/2000/svg" width="180" height="160" viewBox="0 0 180 160"><g enable-background="new" fill="#888688"><path d="M21.271 149.5v-6.729l-2.71 6.729h-.408l-2.722-6.729v6.729h-.996v-8h1.427l2.495 6.165 2.482-6.165h1.427v8h-.995zM23.82 145.506c0-2.362 1.607-4.138 3.97-4.138s3.982 1.775 3.982 4.138-1.619 4.138-3.982 4.138-3.97-1.775-3.97-4.138zm6.92 0c0-1.871-1.163-3.25-2.95-3.25-1.799 0-2.938 1.379-2.938 3.25 0 1.859 1.139 3.251 2.938 3.251 1.787 0 2.95-1.392 2.95-3.251zM33.323 149.5v-8h3.562c1.391 0 2.243.84 2.243 2.039 0 1.008-.671 1.68-1.403 1.835.852.132 1.559 1.008 1.559 1.967 0 1.283-.851 2.159-2.314 2.159h-3.647zm4.774-5.816c0-.72-.48-1.296-1.379-1.296h-2.398v2.579h2.398c.899 0 1.379-.552 1.379-1.283zm.155 3.549c0-.731-.504-1.38-1.475-1.38h-2.458v2.759h2.458c.924 0 1.475-.527 1.475-1.379zM40.872 149.5v-8h.996v8h-.996zM43.607 149.5v-8h.995v7.112h3.718v.888h-4.713zM49.655 149.5v-8h.996v8h-.996zM54.502 149.5v-7.112h-2.531v-.888h6.069v.888h-2.543v7.112h-.995zM61.69 149.5v-3.382l-3.154-4.618h1.164l2.482 3.719 2.482-3.719h1.164l-3.142 4.618v3.382h-.996z"/></g><g enable-background="new" fill="#888688"><path d="M119.389 148.111l.604-.672c.521.684 1.221 1.066 2.18 1.066 1.077 0 1.823-.743 1.823-1.715 0-1.055-.746-1.727-1.812-1.727-.688 0-1.291.228-1.824.744l-.722-.252v-4.307h4.831v.888h-3.849v2.782c.392-.383 1.054-.719 1.848-.719 1.326 0 2.522.898 2.522 2.555 0 1.619-1.232 2.639-2.818 2.639-1.326.002-2.192-.491-2.783-1.282zM129.729 149.25v-2.027h-3.754v-.827l3.387-5.146h1.35v5.098h1.113v.875h-1.113v2.027h-.983zm0-7.076l-2.771 4.174h2.771v-4.174zM136.197 149.25v-8h.982v8h-.982zM138.709 145.256c0-2.459 1.787-4.137 4.061-4.137 1.397 0 2.368.671 2.996 1.582l-.817.469c-.45-.684-1.278-1.164-2.179-1.164-1.729 0-3.043 1.332-3.043 3.25 0 1.896 1.314 3.25 3.043 3.25.9 0 1.729-.491 2.179-1.162l.829.455c-.663.924-1.61 1.596-3.008 1.596-2.274 0-4.061-1.68-4.061-4.139zM146.716 145.256c0-2.362 1.587-4.137 3.919-4.137 2.333 0 3.932 1.774 3.932 4.137 0 2.363-1.599 4.139-3.932 4.139-2.332 0-3.919-1.776-3.919-4.139zm6.832 0c0-1.871-1.148-3.25-2.913-3.25-1.775 0-2.9 1.379-2.9 3.25 0 1.859 1.125 3.25 2.9 3.25 1.764 0 2.913-1.391 2.913-3.25zM161.686 149.25l-4.605-6.381v6.381h-.983v-8h1.007l4.547 6.249v-6.249h.982v8h-.948zM164.01 148.123l.592-.768c.51.6 1.361 1.15 2.475 1.15 1.409 0 1.859-.768 1.859-1.391 0-2.062-4.678-.912-4.678-3.766 0-1.32 1.16-2.23 2.724-2.23 1.196 0 2.132.419 2.794 1.127l-.592.731c-.592-.672-1.42-.96-2.285-.96-.936 0-1.622.516-1.622 1.271 0 1.799 4.677.768 4.677 3.754 0 1.151-.781 2.352-2.912 2.352-1.362.002-2.382-.527-3.032-1.27z"/></g><path stroke="#010101" stroke-linecap="round" stroke-linejoin="round" stroke-miterlimit="10" d="M31.5 36.583v10.5c0 1.656-1.344 3-3 3h-10.5c-1.657 0-3-1.344-3-3v-22.5c0-1.656 1.343-3 3-3h4.5M22.5 27.583h-7.5M31.5 44.083h-16.5M21 24.583h1.5" fill="none"/><path stroke="#010101" stroke-linecap="round" stroke-linejoin="round" stroke-miterlimit="10" d="M49.5 26.833c0 1.242-1.008 2.25-2.25 2.25h-8.25l-4.5 4.5v-4.5h-5.25c-1.242 0-2.25-1.008-2.25-2.25v-9c0-1.242 1.008-2.25 2.25-2.25h18c1.242 0 2.25 1.008 2.25 2.25v9z" fill="none"/><path fill="#010101" d="M39 20.833c-.415 0-.75.337-.75.75 0 .414.335.75.75.75.414 0 .75-.336.75-.75 0-.413-.336-.75-.75-.75zM43.5 20.833c-.415 0-.75.337-.75.75 0 .414.335.75.75.75.414 0 .75-.336.75-.75 0-.413-.336-.75-.75-.75zM34.547 20.833c-.415 0-.75.337-.75.75 0 .414.335.75.75.75.414 0 .75-.336.75-.75 0-.413-.336-.75-.75-.75z"/><path stroke="#010101" stroke-linejoin="round" stroke-miterlimit="10" d="M24 47.083c0 .414-.336.75-.75.75-.415 0-.75-.336-.75-.75s.335-.75.75-.75c.414 0 .75.336.75.75zM36.938 109.591h-21.938c-1.236-.005-2.25-1.021-2.25-2.258v-27c0-1.238 1.014-2.25 2.25-2.25h19.5c1.237 0 2.25 1.012 2.25 2.25v20.281" fill="none"/><path stroke="#010101" stroke-linecap="round" stroke-linejoin="round" stroke-miterlimit="10" fill="none" d="M34.406 103.583h-18.656v-22.5h18v17.156M46.5 112.583l-4.5-6v-6.838c0-2.541-2.372-4.957-5.25-7.412M38.25 102.083l-3.375-3.375c-.621-.621-1.629-.621-2.25 0s-.375 1.875 0 2.25l3.375 4.875v1.5l3 5.25"/><path stroke="#010101" stroke-linejoin="round" stroke-miterlimit="10" fill="none" d="M21.047 106.583h5.906"/><path fill="#010101" d="M18.75 105.833c-.415 0-.75.337-.75.75s.335.75.75.75c.414 0 .75-.337.75-.75s-.336-.75-.75-.75zM29.25 105.833c-.415 0-.75.337-.75.75s.335.75.75.75c.414 0 .75-.337.75-.75s-.336-.75-.75-.75z"/><path stroke="#010101" stroke-linejoin="round" stroke-miterlimit="10" fill="none" d="M19.5 97.583h10.5M19.5 94.583h10.5M19.5 91.583h10.5M19.5 88.583h10.5M19.5 85.583h6"/><g stroke="#010101" stroke-linecap="round" stroke-linejoin="round" stroke-miterlimit="10" fill="none"><path d="M165.979 95.704c.879.879.879 2.305 0 3.182l-7.426 7.427c-.879.879-2.303.879-3.182 0l-14.85-14.851c-.879-.879-.879-2.305 0-3.183l7.426-7.426c.878-.878 2.303-.878 3.182 0l14.85 14.851zM143.174 94.113l10.605-10.606M153.779 104.721l10.61-10.608M144.234 88.811l4.245-4.245M161.878 78.583l-3.898 2.996 3.898 3.004M158.036 81.634c5.192-.979 10.302 1.681 12.983 5.946M146.641 110.083l3.899-2.996-3.899-3.004M150.484 107.032c-5.192.979-10.303-1.681-12.984-5.946"/></g><g stroke="#010101" stroke-linejoin="round" stroke-miterlimit="10" fill="none"><path stroke-linecap="round" d="M163.5 47.583c0 1.656-1.344 3-3 3h-13.5c-1.657 0-3-1.344-3-3v-28.5c0-1.656 1.343-3 3-3h13.5c1.656 0 3 1.344 3 3v28.5zM163.5 22.083h-19.5M163.5 44.583h-19.5M150 19.083h7.5"/><path d="M154.5 47.583c0 .414-.336.75-.75.75-.415 0-.75-.336-.75-.75s.335-.75.75-.75c.414 0 .75.336.75.75z"/><g stroke-linecap="round"><path d="M147.75 27.735h2.25v9h9v-6h-9"/><circle cx="151.5" cy="39.712" r=".75"/><circle cx="157.5" cy="39.712" r=".75"/></g></g><path stroke="#010101" stroke-linecap="round" stroke-linejoin="round" stroke-miterlimit="10" d="M85 103.083h-7.5c-1.655 0-3-1.344-3-3v-19.5c0-1.656 1.345-3 3-3h28.5c1.658 0 3 1.344 3 3v13.5M85 100.083h-4.5v-19.5h24v13.5" fill="none"/><path fill="#010101" d="M106.75 89.583c-.413 0-.75.336-.75.75s.337.75.75.75c.414 0 .75-.336.75-.75s-.336-.75-.75-.75z"/><path stroke="#010101" stroke-linejoin="round" stroke-miterlimit="10" d="M100 96.796v-8.008c0-.804-.327-1.455-1.125-1.455h-2.173c-.798 0-1.202.651-1.202 1.455v13.83l-2.58-3.086c-.273-.351-.751-.554-1.195-.554l-1.498.028c-.512 0-.999.271-1.26.714-.261.443-.277.991-.032 1.441l5.604 10.162c.255.468.734.758 1.266.758h9.578c.586 0 1.113-.355 1.338-.898l2.279-10.02c0-.64-.277-1.269-.885-1.455l-8.115-2.912zM78.25 90.333c0 .414-.336.75-.75.75-.415 0-.75-.336-.75-.75s.335-.75.75-.75c.414 0 .75.336.75.75z" fill="none"/><g stroke="#010101" stroke-linecap="round" stroke-linejoin="round" stroke-miterlimit="10" fill="none"><path d="M97.829 41.899h10.125c2.53 0 2.53-3 0-3h-5.625M100.829 29.899h-4.875c-4.144 0-6.375 1.5-6.375 1.5h-13.5v10.5h13.5s3.375 3 6.375 3h4.5c1.241 0 2.625-1.006 2.625-2.25v-.75M103.829 38.899h5.625c1.405 0 1.383-3 0-3h-5.625M102.329 35.899h5.625c1.5 0 1.453-3 0-3h-5.625M100.829 32.899h4.125c2.508 0 2.483-3 0-3h-7.125"/><path d="M82.079 34.399h6v4.5h-6zM86.579 31.399v3M86.579 38.899v3M83.579 31.399v3M83.579 38.899v3M92.9 20.224c-2.023-1.35-4.456-2.141-7.071-2.141-2.616 0-5.048.791-7.072 2.141M91.236 22.72c-1.546-1.032-3.405-1.637-5.407-1.637-2.001 0-3.86.604-5.407 1.637M89.574 25.216c-1.073-.715-2.359-1.133-3.745-1.133-1.386 0-2.672.418-3.744 1.133"/></g></svg>