<svg xmlns="http://www.w3.org/2000/svg" width="180" height="160" viewBox="0 0 180 160"><g enable-background="new" fill="#888688"><path d="M19.065 149.5l-2.027-3.179h-1.607v3.179h-.996v-8h3.214c1.463 0 2.519.936 2.519 2.411 0 1.439-.996 2.23-2.087 2.327l2.159 3.262h-1.175zm.072-5.589c0-.911-.66-1.523-1.607-1.523h-2.099v3.059h2.099c.947-.001 1.607-.636 1.607-1.536zM21.744 149.5v-8h5.241v.888h-4.246v2.579h4.162v.887h-4.162v2.759h4.246v.888h-5.241zM34.688 149.5l-1.763-6.452-1.763 6.452h-1.079l-2.279-8h1.104l1.775 6.669 1.835-6.669h.828l1.835 6.669 1.763-6.669h1.116l-2.291 8h-1.081zM44.312 149.5l-.708-1.787h-3.981l-.708 1.787h-1.139l3.226-8h1.235l3.214 8h-1.139zm-2.698-6.98l-1.691 4.318h3.394l-1.703-4.318zM51.128 149.5l-2.027-3.179h-1.607v3.179h-.996v-8h3.214c1.463 0 2.519.936 2.519 2.411 0 1.439-.996 2.23-2.087 2.327l2.159 3.262h-1.175zm.072-5.589c0-.911-.66-1.523-1.607-1.523h-2.099v3.059h2.099c.948-.001 1.607-.636 1.607-1.536zM53.807 149.5v-8h2.734c2.495 0 4.102 1.739 4.102 4.006 0 2.279-1.607 3.994-4.102 3.994h-2.734zm5.805-3.994c0-1.727-1.091-3.118-3.07-3.118h-1.739v6.225h1.739c1.942-.001 3.07-1.391 3.07-3.107zM61.727 148.373l.6-.768c.516.6 1.379 1.151 2.506 1.151 1.427 0 1.883-.768 1.883-1.392 0-2.062-4.737-.911-4.737-3.766 0-1.319 1.175-2.231 2.759-2.231 1.211 0 2.159.42 2.83 1.128l-.6.731c-.6-.672-1.439-.96-2.314-.96-.948 0-1.643.516-1.643 1.271 0 1.799 4.737.768 4.737 3.754 0 1.151-.792 2.351-2.951 2.351-1.379.002-2.41-.526-3.07-1.269z"/></g><g enable-background="new" fill="#888688"><path d="M119.234 148.422l.498-.743c.402.479.876.815 1.693.815 1.598 0 2.226-1.619 2.226-3.143l-.012-.311c-.343.551-1.22 1.246-2.226 1.246-1.422 0-2.594-.852-2.594-2.555 0-1.379 1.042-2.613 2.771-2.613 2.201 0 3.055 1.954 3.055 4.137 0 2.159-1.007 4.126-3.221 4.126-1.005.001-1.692-.395-2.19-.959zm4.382-4.197c-.095-.983-.616-2.219-1.989-2.219-1.208 0-1.812.924-1.812 1.691 0 1.176.806 1.727 1.824 1.727.781 0 1.55-.491 1.977-1.199zM125.88 149.25v-.804c2.842-2.255 4.394-3.586 4.394-4.966 0-1.031-.841-1.463-1.658-1.463-.947 0-1.682.408-2.143 1.008l-.604-.636c.604-.815 1.634-1.259 2.747-1.259 1.314 0 2.652.756 2.652 2.35 0 1.632-1.634 3.119-3.836 4.882h3.871v.888h-5.423zM136.197 149.25v-8h.982v8h-.982zM138.709 145.256c0-2.459 1.787-4.137 4.061-4.137 1.397 0 2.368.671 2.996 1.582l-.817.469c-.45-.684-1.278-1.164-2.179-1.164-1.729 0-3.043 1.332-3.043 3.25 0 1.896 1.314 3.25 3.043 3.25.9 0 1.729-.491 2.179-1.162l.829.455c-.663.924-1.61 1.596-3.008 1.596-2.274 0-4.061-1.68-4.061-4.139zM146.715 145.256c0-2.362 1.587-4.137 3.92-4.137 2.332 0 3.931 1.774 3.931 4.137 0 2.363-1.599 4.139-3.931 4.139-2.333 0-3.92-1.776-3.92-4.139zm6.832 0c0-1.871-1.148-3.25-2.912-3.25-1.776 0-2.901 1.379-2.901 3.25 0 1.859 1.125 3.25 2.901 3.25 1.763 0 2.912-1.391 2.912-3.25zM161.686 149.25l-4.605-6.381v6.381h-.983v-8h1.007l4.547 6.249v-6.249h.982v8h-.948zM164.01 148.123l.592-.768c.51.6 1.361 1.15 2.475 1.15 1.409 0 1.859-.768 1.859-1.391 0-2.062-4.678-.912-4.678-3.766 0-1.32 1.16-2.23 2.724-2.23 1.196 0 2.132.419 2.794 1.127l-.592.731c-.592-.672-1.42-.96-2.285-.96-.936 0-1.622.516-1.622 1.271 0 1.799 4.677.768 4.677 3.754 0 1.151-.781 2.352-2.912 2.352-1.362.002-2.382-.527-3.032-1.27z"/></g><g stroke="#010101" stroke-linecap="round" stroke-linejoin="round" stroke-miterlimit="10" fill="none"><circle cx="14.667" cy="19.167" r="2.25"/><circle cx="44.667" cy="19.292" r="2.25"/><path d="M17.667 41.167h24"/><path d="M17.667 38.167l-3.07-16.758s1.57 7.758 7.57 7.758l7.5-10.5s1.5 10.5 7.5 10.5l7.57-7.641-3.07 16.641h-24z"/><circle cx="29.667" cy="15.667" r="3"/></g><g stroke="#010101" stroke-linejoin="round" stroke-miterlimit="10" fill="none"><path d="M148.807 9.167c4.029 5.316 4.238 14.109 0 18.794-1.125-1.321-1.893-2.778-2.25-4.544-8.848 6.337-4.184 20.25 6.75 20.25 16.441 0 13.373-27.472-4.5-34.5zM154.057 30.167c1.484 2.646-2.268 6.441-4.5 5.916.312 1.752 1.836 3.084 3.68 3.084 2.074 0 3.688-1.679 3.75-3.75.07-2.25-.68-5.25-2.93-5.25z"/></g><path stroke="#010101" stroke-linecap="round" stroke-linejoin="round" stroke-miterlimit="10" d="M103.666 32.417c1.242 0 2.25 1.008 2.25 2.25 0 1.243-1.008 2.25-2.25 2.25h-1.5c1.242 0 2.25 1.008 2.25 2.25 0 1.243-1.008 1.5-2.25 1.5h-9.75c-4.275 0-5.25-.75-10.5-1.5v-12.75c3.676 0 9.75-6.75 9.75-12.75 0-2.372 3.283-3.256 4.5 1.078.75 2.672-1.5 7.922-1.5 7.922h12c1.242 0 2.25 1.008 2.25 2.25 0 1.243-1.008 3-2.25 3h-1.5c1.242 0 2.25 1.008 2.25 2.25 0 1.243-1.008 2.25-2.25 2.25h-1.5" fill="none"/><path stroke="#010101" stroke-linecap="round" stroke-linejoin="round" stroke-miterlimit="10" fill="none" d="M74.417 24.167h7.5v18h-7.5z"/><path fill="#010101" d="M78.917 38.417c-.414 0-.75.335-.75.75 0 .414.336.75.75.75s.75-.336.75-.75c0-.416-.336-.75-.75-.75z"/><g stroke="#010101" stroke-linejoin="round" stroke-miterlimit="10" fill="none"><circle cx="93.416" cy="96.916" r="11.25"/><path d="M93.416 90.166l2.25 4.5h4.5l-3.75 3 1.5 5.25-4.5-2.814-4.499 2.814 1.5-5.25-3.75-3h4.499z"/><g stroke-linecap="round"><path d="M101.213 84.121l4.953-10.455h-3.75l-4.293 9.016M103.898 86.199l6.018-12.533h-3.75l-4.953 10.455"/></g><g stroke-linecap="round"><path d="M85.555 84.121l-4.951-10.455h3.75l4.293 9.016M82.868 86.199l-6.014-12.533h3.75l4.951 10.455"/></g></g><g stroke="#010101" stroke-linecap="round" stroke-linejoin="round" stroke-miterlimit="10" fill="none"><path d="M136.916 71.666v34.5"/><path d="M169.916 75.707c-12.5 6.379-15.531-8.83-30-1.041v22.5c13.801-7.432 18.168 7.051 30 1.104v-22.563zM159.416 91.166h-9v-3h-1.5v-4.5c0-1.656 1.344-3 3-3h6c1.656 0 3 1.344 3 3v4.5h-1.5v3zM153.416 91.166v-3.75M156.416 91.166v-3.75"/><circle cx="152.666" cy="84.416" r=".75"/><circle cx="157.166" cy="84.416" r=".75"/></g><g stroke="#010101" stroke-linejoin="round" stroke-miterlimit="10" fill="none"><path d="M22.917 103.666h18v3h-18zM25.917 96.166h12v7.5h-12zM37.917 81.166c-4.916-1.945-6.917-1.93-12 0l1.5 4.5h1.385l1.615 10.5h3l1.615-10.5h1.385l1.5-4.5zM28.917 72.166h6v3c0 1.656-1.344 3-3 3s-3-1.344-3-3v-3z"/></g></svg>