<svg xmlns="http://www.w3.org/2000/svg" width="180" height="160" viewBox="0 0 180 160"><g enable-background="new" fill="#888688"><path d="M14.436 149.5v-8h.996v8h-.996zM22.964 149.5l-4.665-6.381v6.381h-.996v-8h1.02l4.605 6.249v-6.249h.995v8h-.959zM27.778 149.5v-7.112h-2.531v-.888h6.069v.888h-2.543v7.112h-.995zM32.639 149.5v-8h5.241v.888h-4.246v2.579h4.162v.887h-4.162v2.759h4.246v.888h-5.241zM44.097 149.5l-2.027-3.179h-1.607v3.179h-.996v-8h3.214c1.463 0 2.519.936 2.519 2.411 0 1.439-.996 2.23-2.087 2.327l2.159 3.262h-1.175zm.071-5.589c0-.911-.66-1.523-1.607-1.523h-2.099v3.059h2.099c.948-.001 1.607-.636 1.607-1.536zM46.775 149.5v-8h5.241v.888h-4.246v2.579h4.162v.887h-4.162v3.646h-.995zM58.664 149.5l-.708-1.787h-3.981l-.708 1.787h-1.139l3.226-8h1.235l3.214 8h-1.139zm-2.699-6.98l-1.691 4.318h3.394l-1.703-4.318zM60.083 145.506c0-2.458 1.811-4.138 4.114-4.138 1.415 0 2.398.672 3.034 1.583l-.828.468c-.456-.684-1.295-1.163-2.207-1.163-1.751 0-3.083 1.331-3.083 3.25 0 1.896 1.332 3.251 3.083 3.251.911 0 1.751-.492 2.207-1.164l.839.456c-.671.924-1.631 1.595-3.046 1.595-2.301 0-4.113-1.679-4.113-4.138zM68.519 149.5v-8h5.241v.888h-4.245v2.579h4.161v.887h-4.161v2.759h4.245v.888h-5.241z"/></g><g enable-background="new" fill="#888688"><path d="M116.699 149.25v-6.692l-1.267 1.367-.593-.611 1.979-2.063h.863v8h-.982zM118.951 148.074l.58-.623c.461.623 1.267 1.055 2.202 1.055 1.148 0 1.847-.587 1.847-1.498 0-.996-.805-1.416-1.965-1.416-.332 0-.699 0-.817.012v-.911c.13.013.497.013.817.013.994 0 1.835-.396 1.835-1.32 0-.887-.806-1.367-1.765-1.367-.863 0-1.504.336-2.084.972l-.544-.624c.568-.707 1.479-1.234 2.712-1.234 1.516 0 2.664.779 2.664 2.123 0 1.162-.959 1.738-1.693 1.858.71.071 1.823.684 1.823 1.979 0 1.33-1.065 2.303-2.807 2.303-1.337-.001-2.319-.601-2.805-1.322zM125.809 145.256c0-2.158.995-4.125 3.221-4.125 1.007 0 1.693.383 2.18.959l-.498.744c-.402-.48-.864-.816-1.682-.816-1.539 0-2.226 1.571-2.226 3.143v.312c.343-.553 1.22-1.248 2.237-1.248 1.422 0 2.582.852 2.582 2.555 0 1.379-1.042 2.615-2.76 2.615-2.214 0-3.054-1.956-3.054-4.139zm4.819 1.559c0-1.175-.805-1.728-1.812-1.728-.793 0-1.551.492-1.978 1.188.083.996.604 2.23 1.978 2.23 1.22.001 1.812-.935 1.812-1.69zM136.196 149.25v-8h.983v8h-.983zM138.708 145.256c0-2.459 1.788-4.137 4.062-4.137 1.396 0 2.368.671 2.996 1.582l-.817.469c-.45-.684-1.279-1.164-2.179-1.164-1.729 0-3.043 1.332-3.043 3.25 0 1.896 1.314 3.25 3.043 3.25.899 0 1.729-.491 2.179-1.162l.829.455c-.664.924-1.611 1.596-3.008 1.596-2.274 0-4.062-1.68-4.062-4.139zM146.715 145.256c0-2.362 1.587-4.137 3.92-4.137 2.332 0 3.931 1.774 3.931 4.137 0 2.363-1.599 4.139-3.931 4.139-2.333 0-3.92-1.776-3.92-4.139zm6.832 0c0-1.871-1.148-3.25-2.912-3.25-1.776 0-2.901 1.379-2.901 3.25 0 1.859 1.125 3.25 2.901 3.25 1.763 0 2.912-1.391 2.912-3.25zM161.686 149.25l-4.606-6.381v6.381h-.982v-8h1.007l4.547 6.249v-6.249h.982v8h-.948zM164.009 148.123l.593-.768c.509.6 1.361 1.15 2.475 1.15 1.408 0 1.858-.768 1.858-1.391 0-2.062-4.677-.912-4.677-3.766 0-1.32 1.16-2.23 2.723-2.23 1.196 0 2.132.419 2.795 1.127l-.592.731c-.592-.672-1.421-.96-2.285-.96-.936 0-1.623.516-1.623 1.271 0 1.799 4.678.768 4.678 3.754 0 1.151-.781 2.352-2.913 2.352-1.362.002-2.381-.527-3.032-1.27z"/></g><g stroke="#010101" stroke-linecap="round" stroke-linejoin="round" stroke-miterlimit="10" fill="none"><circle cx="153.083" cy="29.25" r="17.25"/><path d="M158.333 24.75c0-2.9-2.351-5.25-5.25-5.25s-5.25 2.35-5.25 5.25c0 2.08 1.212 3.873 2.965 4.723l-1.465 9.527h7.5l-1.466-9.527c1.753-.85 2.966-2.643 2.966-4.723z"/></g><path stroke="#010101" stroke-linejoin="round" stroke-miterlimit="10" d="M88.833 22.678c0-1.229 1.008-2.225 2.237-2.225 1.242 0 2.263 1.008 2.263 2.25v9l6.671 2.25c1.482.476 1.811 2.254 1.46 3.773l-1.539 8.274h-11.977l-6.023-9.023c-.682-1.043-.683-3.012.817-3.012s3.091.615 6.091 5.238v-16.525z" fill="none"/><path stroke="#010101" stroke-linecap="round" stroke-linejoin="round" stroke-miterlimit="10" fill="none" d="M85.833 12.675l-7.532 10.5-2.968-2.967"/><g stroke="#010101" stroke-linecap="round" stroke-linejoin="round" stroke-miterlimit="10" fill="none"><path d="M97.833 12.675l10.5 10.5M108.333 12.675l-10.5 10.5"/></g><g stroke="#010101" stroke-linecap="round" stroke-linejoin="round" stroke-miterlimit="10" fill="none"><path d="M13.333 12.5h33v34.5h-33zM29.833 33.5v-10.5M38.88 33.5v-3M20.833 24.5v-7.5M20.833 33.5v-6M38.88 27.5v-10.5M29.833 20v-3"/><path d="M35.88 27.5h6v3h-6zM26.833 20h6v3h-6zM17.833 24.5h6v3h-6z"/><circle cx="38.896" cy="40.25" r="2.25"/><circle cx="29.833" cy="40.25" r="2.25"/><circle cx="20.833" cy="40.25" r="2.25"/></g><g stroke="#010101" stroke-linejoin="round" stroke-miterlimit="10" fill="none"><path d="M86.574 99.939l14.42-14.42c2.186.926 4.802.5 6.583-1.28 1.78-1.778 2.202-4.288 1.278-6.472l-2.869 2.982h-3.182v-3.404l2.872-2.871c-2.188-.925-4.807-.5-6.586 1.281-1.78 1.78-2.205 4.397-1.282 6.582l-14.417 14.42c-2.184-.925-4.803-.501-6.583 1.28-1.779 1.781-2.204 4.398-1.28 6.583l2.871-2.871h3.404v3.183l-2.982 2.871c2.186.924 4.748.498 6.527-1.281 1.783-1.778 2.151-4.399 1.226-6.583zM92.191 87.955l-5.617-5.617c.925-2.185.501-4.802-1.28-6.582-1.779-1.781-4.286-2.206-6.472-1.281l2.982 2.871v3.404h-3.404l-2.871-2.982c-.924 2.184-.499 4.748 1.28 6.527 1.78 1.781 4.399 2.178 6.583 1.254l5.619 5.604M92.191 94.318l5.621 5.621c-.924 2.186-.502 4.805 1.279 6.584 1.78 1.781 4.399 2.203 6.585 1.279l-2.872-2.871v-3.183h3.182l2.871 2.871c.925-2.185.5-4.802-1.28-6.583-1.779-1.78-4.397-2.205-6.583-1.28l-5.617-5.618"/></g><g stroke="#010101" stroke-linecap="round" stroke-linejoin="round" stroke-miterlimit="10" fill="none"><path d="M136.333 91.5h22.5M152.833 85.5l6 6-6 6M137.807 84.677c2.596-5.709 8.348-9.677 15.026-9.677 9.112 0 16.5 7.387 16.5 16.5 0 9.111-7.388 16.5-16.5 16.5-6.709 0-12.483-4.005-15.063-9.753"/></g><g stroke="#010101" stroke-linecap="round" stroke-linejoin="round" stroke-miterlimit="10" fill="none"><path d="M12.333 74.5h34.5v34.5h-34.5zM16.833 83.5c0 2.484 2.016 4.5 4.5 4.5h16.5c2.484 0 4.5-2.016 4.5-4.5s-2.016-4.5-4.5-4.5h-16.5c-2.484 0-4.5 2.016-4.5 4.5zM16.833 100c0 2.484 2.016 4.5 4.5 4.5h16.5c2.484 0 4.5-2.016 4.5-4.5s-2.016-4.5-4.5-4.5h-16.5c-2.484 0-4.5 2.016-4.5 4.5z"/><circle cx="21.333" cy="83.5" r="4.5"/><circle cx="37.833" cy="100" r="4.5"/></g></svg>