<svg xmlns="http://www.w3.org/2000/svg" width="180" height="160" viewBox="0 0 180 160"><g enable-background="new" fill="#888688"><path d="M13.956 148.373l.6-.768c.516.6 1.379 1.151 2.506 1.151 1.427 0 1.883-.768 1.883-1.392 0-2.062-4.737-.911-4.737-3.766 0-1.319 1.175-2.231 2.759-2.231 1.211 0 2.159.42 2.83 1.128l-.6.731c-.6-.672-1.439-.96-2.314-.96-.948 0-1.643.516-1.643 1.271 0 1.799 4.737.768 4.737 3.754 0 1.151-.792 2.351-2.951 2.351-1.379.002-2.411-.526-3.07-1.269zM27.141 149.5v-3.67h-4.677v3.67h-.996v-8h.996v3.442h4.677v-3.442h.996v8h-.996zM29.688 145.506c0-2.362 1.607-4.138 3.97-4.138s3.982 1.775 3.982 4.138-1.619 4.138-3.982 4.138-3.97-1.775-3.97-4.138zm6.919 0c0-1.871-1.163-3.25-2.95-3.25-1.799 0-2.938 1.379-2.938 3.25 0 1.859 1.14 3.251 2.938 3.251 1.787 0 2.95-1.392 2.95-3.251zM39.191 149.5v-8h3.214c1.607 0 2.506 1.104 2.506 2.411s-.912 2.41-2.506 2.41h-2.219v3.179h-.995zm4.69-5.589c0-.899-.648-1.523-1.595-1.523h-2.099v3.047h2.099c.947 0 1.595-.624 1.595-1.524zM46.235 149.5v-8h3.214c1.607 0 2.506 1.104 2.506 2.411s-.912 2.41-2.506 2.41h-2.219v3.179h-.995zm4.69-5.589c0-.899-.648-1.523-1.595-1.523h-2.099v3.047h2.099c.947 0 1.595-.624 1.595-1.524zM53.279 149.5v-8h.996v8h-.996zM61.808 149.5l-4.665-6.381v6.381h-.996v-8h1.02l4.605 6.249v-6.249h.995v8h-.959zM64.319 145.506c0-2.494 1.835-4.138 4.114-4.138 1.427 0 2.411.624 3.106 1.487l-.791.504c-.504-.647-1.355-1.104-2.315-1.104-1.751 0-3.083 1.331-3.083 3.25 0 1.896 1.331 3.251 3.083 3.251.959 0 1.75-.456 2.159-.864v-1.619h-2.759v-.887h3.742v2.878c-.743.84-1.835 1.392-3.142 1.392-2.279 0-4.114-1.667-4.114-4.15z"/></g><g enable-background="new" fill="#888688"><path d="M118.809 145.256c0-2.158.994-4.125 3.221-4.125 1.006 0 1.692.383 2.178.959l-.497.744c-.402-.48-.864-.816-1.681-.816-1.54 0-2.227 1.571-2.227 3.143v.312c.344-.553 1.22-1.248 2.238-1.248 1.42 0 2.581.852 2.581 2.555 0 1.379-1.042 2.615-2.759 2.615-2.215 0-3.054-1.956-3.054-4.139zm4.818 1.559c0-1.175-.805-1.728-1.812-1.728-.793 0-1.551.492-1.978 1.188.083.996.604 2.23 1.978 2.23 1.22.001 1.812-.935 1.812-1.69zM125.809 145.256c0-2.158.994-4.125 3.221-4.125 1.006 0 1.693.383 2.179.959l-.497.744c-.402-.48-.865-.816-1.682-.816-1.539 0-2.227 1.571-2.227 3.143v.312c.344-.553 1.22-1.248 2.238-1.248 1.421 0 2.581.852 2.581 2.555 0 1.379-1.042 2.615-2.759 2.615-2.214 0-3.054-1.956-3.054-4.139zm4.819 1.559c0-1.175-.806-1.728-1.812-1.728-.794 0-1.552.492-1.978 1.188.083.996.604 2.23 1.978 2.23 1.219.001 1.812-.935 1.812-1.69zM136.196 149.25v-8h.982v8h-.982zM138.707 145.256c0-2.459 1.788-4.137 4.062-4.137 1.397 0 2.368.671 2.996 1.582l-.817.469c-.449-.684-1.278-1.164-2.179-1.164-1.729 0-3.043 1.332-3.043 3.25 0 1.896 1.314 3.25 3.043 3.25.9 0 1.729-.491 2.179-1.162l.829.455c-.663.924-1.61 1.596-3.008 1.596-2.274 0-4.062-1.68-4.062-4.139zM146.715 145.256c0-2.362 1.586-4.137 3.919-4.137s3.932 1.774 3.932 4.137c0 2.363-1.599 4.139-3.932 4.139s-3.919-1.776-3.919-4.139zm6.832 0c0-1.871-1.148-3.25-2.913-3.25-1.776 0-2.901 1.379-2.901 3.25 0 1.859 1.125 3.25 2.901 3.25 1.764 0 2.913-1.391 2.913-3.25zM161.685 149.25l-4.606-6.381v6.381h-.982v-8h1.007l4.547 6.249v-6.249h.982v8h-.948zM164.009 148.123l.592-.768c.509.6 1.362 1.15 2.475 1.15 1.409 0 1.859-.768 1.859-1.391 0-2.062-4.677-.912-4.677-3.766 0-1.32 1.16-2.23 2.723-2.23 1.196 0 2.131.419 2.795 1.127l-.592.731c-.593-.672-1.422-.96-2.286-.96-.935 0-1.622.516-1.622 1.271 0 1.799 4.678.768 4.678 3.754 0 1.151-.782 2.352-2.913 2.352-1.363.002-2.381-.527-3.032-1.27z"/></g><g stroke="#010101" stroke-linecap="round" stroke-linejoin="round" stroke-miterlimit="10" fill="none"><path d="M154.75 73.697v10.5M150.25 79.697l4.5 4.5 4.5-4.5"/><circle cx="163" cy="105.947" r="2.25"/><circle cx="146.5" cy="105.947" r="2.25"/><path d="M135.25 78.197h5.25l6 25.5h16.5M145.794 100.697h19.456l4.5-13.5h-27"/></g><g stroke="#010101" stroke-linecap="round" stroke-linejoin="round" stroke-miterlimit="10" fill="none"><path d="M42.25 108.197h-25.5l-3-16.5h31.5zM24.25 75.197c-4.381 0-8.177 3.047-9.127 7.323l-1.373 6.178h31.5l-1.372-6.178c-.951-4.275-4.745-7.323-9.128-7.323"/><path d="M12.25 88.697h34.5v3h-34.5zM33.25 94.697v9M39.25 94.697v9M25.75 94.697v9M19.75 94.697v9"/><path d="M34.75 75.197c0 .83-.671 1.5-1.5 1.5h-7.5c-.827 0-1.5-.67-1.5-1.5 0-.828.673-1.5 1.5-1.5h7.5c.829 0 1.5.672 1.5 1.5z"/></g><path stroke="#010101" stroke-linecap="round" stroke-linejoin="round" stroke-miterlimit="10" fill="none" d="M43.25 25.949v18.249h-28.5v-18.281"/><path stroke="#010101" stroke-linecap="round" stroke-linejoin="round" stroke-miterlimit="10" fill="none" d="M17.75 30.698h12v9h-12zM32.75 30.698h7.5v13.5h-7.5zM43.25 14.198h-28.5l-3 6h34.5zM46.25 21.698c0 2.484-2.014 4.5-4.5 4.5-1.239 0-2.186-.689-3-1.5-1.062 1.688-3.109 3-5.25 3-1.794 0-3.399-.791-4.5-2.04-1.099 1.249-2.705 2.04-4.5 2.04-2.14 0-4.188-1.312-5.25-3-.812.811-1.761 1.5-3 1.5-2.485 0-4.5-2.016-4.5-4.5v-1.5h34.5v1.5zM19.25 24.698v-4.5l1.5-6M29 25.667v-11.469000000000001M38.75 24.698v-4.5l-1.5-6"/><path fill="#010101" d="M37.25 37.448c-.414 0-.75.337-.75.75 0 .416.336.75.75.75.415 0 .75-.334.75-.75 0-.413-.335-.75-.75-.75z"/><path stroke="#010101" stroke-linecap="round" stroke-linejoin="round" stroke-miterlimit="10" fill="none" d="M73.75 100.697h34.5v7.5h-34.5zM103.75 91.697h-25.5l-4.5 9h34.5zM85.75 105.197v-1.5h9v1.5"/><path fill="#010101" d="M82.75 96.947h-1.5v1.5h1.5zM87.25 96.947h-1.5v1.5h1.5zM91.75 96.947h-1.5v1.5h1.5zM96.25 96.947h-1.5v1.5h1.5zM100.75 96.947h-1.5v1.5h1.5zM98.5 94.697h-1.5v1.5h1.5zM94 94.697h-1.5v1.5h1.5zM89.5 94.697h-1.5v1.5h1.5zM85 94.697h-1.5v1.5h1.5z"/><path stroke="#010101" stroke-linecap="round" stroke-linejoin="round" stroke-miterlimit="10" fill="none" d="M78.25 82.697h25.5v9h-25.5zM81.25 85.697h8.25v3h-8.25zM94 87.197h6.75"/><path stroke="#010101" stroke-linecap="round" stroke-linejoin="round" stroke-miterlimit="10" fill="none" d="M87.25 76.697l-6 1.5v4.5h6zM103.75 76.697c0 .826-.674 1.5-1.5 1.5h-6c-.824 0-1.5-.674-1.5-1.5v-1.5c0-.822.676-1.5 1.5-1.5h6c.826 0 1.5.678 1.5 1.5v1.5zM99.25 78.197v4.5"/><g stroke="#010101" stroke-linejoin="round" stroke-miterlimit="10" fill="none"><path d="M166.463 12.198s.75 31.5-4.5 31.5c-5.249 0-.75-6-4.499-6-3.75 0 .749 9-4.5 9h-18.714c5.25 0 .75-9 4.5-9h7.5c1.667-8.326 1.5-25.5 1.5-25.5h18.713zM146.25 37.698h11.214M161.963 43.698h-6.242"/><path stroke-linecap="round" d="M152.25 16.698h3M153.75 19.698h8.25M151.5 22.698h9.75M151.5 25.698h10.5M151.5 28.698h9M150.75 31.698h10.5M150 34.698h12"/></g><g stroke="#010101" stroke-linejoin="round" stroke-miterlimit="10" fill="none"><path stroke-linecap="round" d="M90 41.524s7.5-5.399 7.5-9.401c0-4.614-6.139-6.073-7.5-.458-1.365-5.615-7.5-4.156-7.5.458 0 4.002 7.5 9.401 7.5 9.401zM72.75 22.698h34.5v22.5h-34.5zM96.75 18.948c0-3.727-3.023-6.75-6.75-6.75-3.729 0-6.75 3.023-6.75 6.75v3.75h13.5v-3.75z"/><path d="M99 19.698h5.062l3.188 3M85.5 19.698h8.997M72.75 22.698l3.375-3h4.875"/></g></svg>