<svg xmlns="http://www.w3.org/2000/svg" width="180" height="160" viewBox="0 0 180 160"><g enable-background="new" fill="#888688"><path d="M14.436 149.5v-8h3.214c1.607 0 2.506 1.104 2.506 2.411s-.912 2.41-2.506 2.41h-2.219v3.179h-.995zm4.689-5.589c0-.899-.648-1.523-1.595-1.523h-2.099v3.047h2.099c.947 0 1.595-.624 1.595-1.524zM21.348 149.5v-8h.995v7.112h3.718v.888h-4.713zM33.104 149.5l-.708-1.787h-3.981l-.708 1.787h-1.139l3.226-8h1.235l3.214 8h-1.139zm-2.698-6.98l-1.691 4.318h3.394l-1.703-4.318zM34.524 145.506c0-2.458 1.811-4.138 4.114-4.138 1.415 0 2.398.672 3.034 1.583l-.828.468c-.456-.684-1.295-1.163-2.207-1.163-1.751 0-3.083 1.331-3.083 3.25 0 1.896 1.332 3.251 3.083 3.251.911 0 1.751-.492 2.207-1.164l.839.456c-.671.924-1.631 1.595-3.046 1.595-2.302 0-4.113-1.679-4.113-4.138zM42.959 149.5v-8h5.241v.888h-4.246v2.579h4.162v.887h-4.162v2.759h4.246v.888h-5.241zM49.307 148.373l.6-.768c.516.6 1.379 1.151 2.506 1.151 1.427 0 1.883-.768 1.883-1.392 0-2.062-4.737-.911-4.737-3.766 0-1.319 1.175-2.231 2.759-2.231 1.211 0 2.159.42 2.83 1.128l-.6.731c-.6-.672-1.439-.96-2.314-.96-.948 0-1.643.516-1.643 1.271 0 1.799 4.737.768 4.737 3.754 0 1.151-.792 2.351-2.951 2.351-1.378.002-2.41-.526-3.07-1.269z"/></g><g enable-background="new" fill="#888688"><path d="M117.304 149.25v-6.692l-1.267 1.367-.592-.611 1.977-2.063h.865v8h-.983zM120.645 149.25l3.186-7.112h-4.251v-.888h5.388v.684l-3.232 7.316h-1.091zM125.928 147.223c0-1.066.9-1.799 1.883-2.099-.912-.264-1.752-.876-1.752-1.919 0-1.439 1.385-2.074 2.699-2.074 1.303 0 2.711.635 2.711 2.074 0 1.043-.852 1.655-1.764 1.919.982.3 1.883 1.032 1.883 2.099 0 1.355-1.279 2.172-2.83 2.172-1.563 0-2.83-.805-2.83-2.172zm4.665-.108c0-1.043-1.35-1.487-1.835-1.547-.485.06-1.836.504-1.836 1.547 0 .863.854 1.391 1.836 1.391.971 0 1.835-.527 1.835-1.391zm-.118-3.777c0-.828-.77-1.32-1.717-1.32-.959 0-1.705.492-1.705 1.32 0 .971 1.231 1.295 1.705 1.379.485-.084 1.717-.408 1.717-1.379zM136.197 149.25v-8h.982v8h-.982zM138.709 145.256c0-2.459 1.787-4.137 4.061-4.137 1.397 0 2.368.671 2.996 1.582l-.817.469c-.45-.684-1.278-1.164-2.179-1.164-1.729 0-3.043 1.332-3.043 3.25 0 1.896 1.314 3.25 3.043 3.25.9 0 1.729-.491 2.179-1.162l.829.455c-.663.924-1.61 1.596-3.008 1.596-2.274 0-4.061-1.68-4.061-4.139zM146.716 145.256c0-2.362 1.587-4.137 3.919-4.137 2.333 0 3.932 1.774 3.932 4.137 0 2.363-1.599 4.139-3.932 4.139-2.332 0-3.919-1.776-3.919-4.139zm6.832 0c0-1.871-1.148-3.25-2.913-3.25-1.775 0-2.9 1.379-2.9 3.25 0 1.859 1.125 3.25 2.9 3.25 1.764 0 2.913-1.391 2.913-3.25zM161.686 149.25l-4.605-6.381v6.381h-.983v-8h1.007l4.547 6.249v-6.249h.982v8h-.948zM164.01 148.123l.592-.768c.51.6 1.361 1.15 2.475 1.15 1.409 0 1.859-.768 1.859-1.391 0-2.062-4.678-.912-4.678-3.766 0-1.32 1.16-2.23 2.724-2.23 1.196 0 2.132.419 2.794 1.127l-.592.731c-.592-.672-1.42-.96-2.285-.96-.936 0-1.622.516-1.622 1.271 0 1.799 4.677.768 4.677 3.754 0 1.151-.781 2.352-2.912 2.352-1.362.002-2.382-.527-3.032-1.27z"/></g><g stroke="#010101" stroke-linecap="round" stroke-linejoin="round" stroke-miterlimit="10" fill="none"><circle cx="91.166" cy="84.75" r="5.25"/><path d="M101.449 85.283c0 5.681-10.283 21.252-10.283 21.252s-10.283-15.571-10.283-21.252c0-5.678 4.602-10.283 10.283-10.283 5.678 0 10.283 4.605 10.283 10.283zM98.666 103.799c5.771.486 9.75 1.512 9.75 2.701 0 1.658-7.723 3-17.25 3-9.525 0-17.25-1.342-17.25-3 0-1.186 3.952-2.209 9.688-2.697"/></g><g stroke="#010101" stroke-linejoin="round" stroke-miterlimit="10" fill="none"><path stroke-linecap="round" d="M12.916 37.672l16.279-17.672M24.307 25.672l13.359 12.234M44.416 28.25v13.367c0 1.316-1.008 2.383-2.25 2.383h-27c-1.242 0-2.25-1.066-2.25-2.383v-19.232c0-1.318 1.008-2.385 2.25-2.385h15.75M18.166 47h21M28.666 44v3"/><circle cx="28.666" cy="41" r=".75"/><path d="M12.916 38h31.5"/><g stroke-linecap="round"><path d="M45.916 18.5c0 3.313-6 10.5-6 10.5s-6-7.187-6-10.5 2.686-6 6-6c3.313 0 6 2.687 6 6z"/><circle cx="39.916" cy="18.5" r="2.25"/></g></g><g stroke="#010101" stroke-linecap="round" stroke-linejoin="round" stroke-miterlimit="10" fill="none"><circle cx="153.166" cy="30.75" r="17.25"/><path d="M165.916 19.134s-.75 4.116-3.75 5.616c-3-.75-6 1.5-5.25 1.5l1.5 3c.75.75 2.25 0 2.25 0 1.875 1.875-3 5.25-3 6s1.875 1.125.75 2.25l-2.25 1.5c0 3.75-3.75 3.75-4.5 3.75s-2.25-3-2.25-3.75.75-1.5.75-2.25l-1.5-2.25c0-3-2.25-2.25-4.5-2.25l-2.25-3s0-5.25 3.75-6l3.75.75c1.5 1.5 4.5 0 6 0 0 0 .75-5.25-.75-4.5s-2.846.17-3-1.5c-.219-2.344 6.545-3.75 6.545-3.75"/></g><g stroke="#010101" stroke-linejoin="round" stroke-miterlimit="10" fill="none"><path stroke-linecap="round" d="M135.416 107h34.5M135.416 95l15-6"/><path d="M138.416 93.828v13.172"/><path stroke-linecap="round" d="M148.166 78.5l21.75 13.5"/><path d="M166.916 90.172v16.828M162.416 87.361v-5.111h3v6.963"/><path stroke-linecap="round" d="M153.416 101h10.5v6h-10.5zM158.666 101v6"/><circle stroke-linecap="round" cx="155.666" cy="90.5" r="2.25"/><path stroke-linecap="round" d="M141.416 99.5h6v7.5h-6zM141.416 96.5h6"/><path d="M150.416 79.93v27.07"/></g><g stroke="#010101" stroke-linecap="round" stroke-linejoin="round" stroke-miterlimit="10" fill="none"><path d="M36.438 85.059l-13.295-2.345-5.383 27.457h14.25zM33.489 84.535l-7.386-1.303.782-4.431 7.386 1.303zM20.623 88.361l16.249 2.868M21.666 82.453l16.25 2.865M18.541 100.182l16.249 2.862M19.582 94.271l16.25 2.866M25.401 78.542l10.34 1.824M30.572 79.453l.52-2.953"/><path d="M27.51 105.671l-3-.75-1.5 5.25h3.75zM10.916 110.171h34.5"/></g><g stroke="#010101" stroke-linecap="round" stroke-linejoin="round" stroke-miterlimit="10" fill="none"><path d="M102.916 31h6v12h-6M80.416 43h-6v-12h6"/><path d="M102.916 47.5h-22.5v-16.5l11.25-4.5 11.25 4.5zM81.916 30.25v-5.25h19.5v5.25M81.916 25c0-5.385 4.365-9.75 9.75-9.75s9.75 4.365 9.75 9.75M91.666 15.25v-2.25M84.916 44.5v-10.5M89.416 44.5v-10.5M93.916 44.5v-10.5M98.416 44.5v-10.5M80.416 34h22.5M80.416 44.5h22.5"/></g></svg>