<?xml version="1.0" standalone="no"?>
<!DOCTYPE svg PUBLIC "-//W3C//DTD SVG 1.1//EN" "http://www.w3.org/Graphics/SVG/1.1/DTD/svg11.dtd" >
<svg xmlns="http://www.w3.org/2000/svg" xmlns:xlink="http://www.w3.org/1999/xlink" version="1.1">
<metadata>
Created by FontForge 20170731 at Tue Aug 14 08:02:57 2018
 By Aleksey,,,
(C) 2018 Rozetka
</metadata>
<defs>
<font id="RozetkaWeb-Regular" horiz-adv-x="600" >
  <font-face 
    font-family="Rozetka Web"
    font-weight="400"
    font-stretch="normal"
    units-per-em="1000"
    panose-1="0 0 5 0 0 0 0 0 0 0"
    ascent="800"
    descent="-200"
    x-height="490"
    cap-height="700"
    bbox="-466 -242 1054 905"
    underline-thickness="50"
    underline-position="-200"
    unicode-range="U+0020-FB02"
  />
<missing-glyph horiz-adv-x="467" 
d="M383 -222h-296v934h296v-934zM157 649v-30h61v-35h-62v-31h155v31h-62v35h62v30h-154zM156 529v-97h155v32h-62v65h-93zM218 464h-31v33h31v-33zM156 407v-31h62v-35h-62v-31h93v66h62v31h-155zM280 351v-62h-124v-32h155v94h-31zM218 237v-53h31v22h31v-44h-93v75h-31
v-106h155v106h-93zM156 75v-106h155v106h-155zM280 0h-93v44h93v-44zM156 -52v-31h65l-65 -44v-31h155v31h-95l65 44h30v31h-155z" />
    <glyph glyph-name="fi" unicode="fi" horiz-adv-x="587" 
d="M517 0h-90v412h-227v-412h-90v412h-90v78h90v60q0 78 46 126t124 48q48 0 92 -25v-80q-43 29 -93 29q-36 0 -57.5 -28t-21.5 -72v-58h317v-490zM429 617q-17 17 -17 43t17 43t43 17t43 -17t17 -43t-17 -43t-43 -17t-43 17z" />
    <glyph glyph-name="fl" unicode="fl" horiz-adv-x="587" 
d="M451.5 714.5q59.5 -9.5 65.5 -10.5v-704h-90v638q-58 10 -99 10q-67 0 -97.5 -26.5t-30.5 -73.5v-58h130v-78h-130v-412h-90v412h-90v78h90v60q0 82 56 128t177 46q49 0 108.5 -9.5z" />
    <glyph glyph-name="f_f" unicode="ff" horiz-adv-x="716" 
d="M539.5 620q-23.5 -28 -23.5 -72v-58h180v-78h-180v-412h-90v412h-226v-412h-90v412h-90v78h90v60q0 78 48.5 126t130.5 48q49 0 93 -22v-81q-43 27 -94 27q-41 0 -64.5 -28t-23.5 -72v-58h226v60q0 78 48.5 126t130.5 48q56 0 111 -29v-84q-51 37 -112 37
q-41 0 -64.5 -28z" />
    <glyph glyph-name="f_f_i" unicode="ffi" horiz-adv-x="904" 
d="M834 0h-90v412h-227v-412h-90v412h-227v-412h-90v412h-90v78h90v60q0 78 48.5 126t130.5 48q49 0 93 -22v-81q-43 27 -94 27q-41 0 -64.5 -28t-23.5 -72v-58h227v60q0 78 46 126t124 48q48 0 92 -25v-80q-44 29 -93 29q-36 0 -57.5 -28t-21.5 -72v-58h317v-490zM746 617
q-17 17 -17 43t17 43t43 17t43 -17t17 -43t-17 -43t-43 -17t-43 17z" />
    <glyph glyph-name="f_f_l" unicode="ffl" horiz-adv-x="904" 
d="M768.5 714.5q59.5 -9.5 65.5 -10.5v-704h-90v638q-58 10 -99 10q-67 0 -97.5 -26.5t-30.5 -73.5v-58h130v-78h-130v-412h-90v412h-227v-412h-90v412h-90v78h90v60q0 78 48.5 126t130.5 48q49 0 93 -22v-81q-43 27 -94 27q-41 0 -64.5 -28t-23.5 -72v-58h227v60
q0 82 56 128t177 46q49 0 108.5 -9.5z" />
    <glyph glyph-name="uni04070407" unicode="&#x407;&#x407;" horiz-adv-x="522" 
d="M-22 787q-17 17 -17 43t17 43t43 17t43 -17t17 -43t-17 -43t-43 -17t-43 17zM138 787q-17 17 -17 43t17 43t43 17t43 -17t17 -43t-17 -43t-43 -17t-43 17zM298 787q-17 17 -17 43t17 43t43 17t43 -17t17 -43t-17 -43t-43 -17t-43 17zM458 787q-17 17 -17 43t17 43t43 17
t43 -17t17 -43t-17 -43t-43 -17t-43 17zM85 700h96v-700h-96v700zM341 700h96v-700h-96v700z" />
    <glyph glyph-name="uni04560457" unicode="&#x456;&#x457;" horiz-adv-x="460" 
d="M62 617q-17 17 -17 43t17 43t43 17t43 -17t17 -43t-17 -43t-43 -17t-43 17zM222 617q-17 17 -17 43t17 43t43 17t43 -17t17 -43t-17 -43t-43 -17t-43 17zM382 617q-17 17 -17 43t17 43t43 17t43 -17t17 -43t-17 -43t-43 -17t-43 17zM70 490h90v-490h-90v490zM300 490h90
v-490h-90v490z" />
    <glyph glyph-name="uni04570457" unicode="&#x457;&#x457;" horiz-adv-x="460" 
d="M-53 617q-17 17 -17 43t17 43t43 17t43 -17t17 -43t-17 -43t-43 -17t-43 17zM107 617q-17 17 -17 43t17 43t43 17t43 -17t17 -43t-17 -43t-43 -17t-43 17zM267 617q-17 17 -17 43t17 43t43 17t43 -17t17 -43t-17 -43t-43 -17t-43 17zM427 617q-17 17 -17 43t17 43t43 17
t43 -17t17 -43t-17 -43t-43 -17t-43 17zM70 490h90v-490h-90v490zM300 490h90v-490h-90v490z" />
    <glyph glyph-name=".notdef" horiz-adv-x="467" 
d="M383 -222h-296v934h296v-934zM157 649v-30h61v-35h-62v-31h155v31h-62v35h62v30h-154zM156 529v-97h155v32h-62v65h-93zM218 464h-31v33h31v-33zM156 407v-31h62v-35h-62v-31h93v66h62v31h-155zM280 351v-62h-124v-32h155v94h-31zM218 237v-53h31v22h31v-44h-93v75h-31
v-106h155v106h-93zM156 75v-106h155v106h-155zM280 0h-93v44h93v-44zM156 -52v-31h65l-65 -44v-31h155v31h-95l65 44h30v31h-155z" />
    <glyph glyph-name=".null" horiz-adv-x="0" 
 />
    <glyph glyph-name="nonmarkingreturn" horiz-adv-x="333" 
 />
    <glyph glyph-name="space" unicode=" " horiz-adv-x="250" 
 />
    <glyph glyph-name="exclam" unicode="!" horiz-adv-x="340" 
d="M114 700h98l-18 -490h-62zM119.5 14.5q-19.5 19.5 -19.5 50.5t19.5 50.5t50.5 19.5t50.5 -19.5t19.5 -50.5t-19.5 -50.5t-50.5 -19.5t-50.5 19.5z" />
    <glyph glyph-name="quotedbl" unicode="&#x22;" horiz-adv-x="410" 
d="M75 722h110l-35 -231h-41zM225 722h110l-35 -231h-41z" />
    <glyph glyph-name="numbersign" unicode="#" horiz-adv-x="671" 
d="M491 420l-19 -140h100l-10 -70h-100l-30 -210h-75l30 210h-142l-30 -210h-75l30 210h-100l10 70h100l19 140h-100l10 70h100l30 210h75l-30 -210h142l30 210h75l-30 -210h100l-10 -70h-100zM416 420h-142l-19 -140h142z" />
    <glyph glyph-name="dollar" unicode="$" 
d="M505.5 47q-61.5 -55 -190.5 -59v-105h-60v107q-123 9 -206 75v118q41 -42 94.5 -69.5t111.5 -35.5v244l-27 9q-92 31 -135 76.5t-43 112.5q0 77 57 128.5t151 61.5v95h60v-94q101 -5 161.5 -63t69.5 -158h-93q-8 58 -44.5 94.5t-93.5 44.5v-233l50 -16q110 -36 154.5 -82
t44.5 -115q0 -81 -61.5 -136zM149.5 477q10.5 -18 35.5 -32.5t73 -29.5v214q-54 -6 -86.5 -34.5t-32.5 -70.5q0 -29 10.5 -47zM435.5 103q39.5 26 39.5 77q0 35 -28.5 62.5t-106.5 52.5l-25 8v-228q81 2 120.5 28z" />
    <glyph glyph-name="percent" unicode="%" horiz-adv-x="765" 
d="M80 370.5q-40 52.5 -40 144.5t40 144.5t110 52.5t110 -52.5t40 -144.5t-40 -144.5t-110 -52.5t-110 52.5zM575 699h80l-465 -700h-80zM247.5 418q20.5 35 20.5 97t-20.5 97t-57.5 35t-57.5 -35t-20.5 -97t20.5 -97t57.5 -35t57.5 35zM465 40.5q-40 52.5 -40 144.5
t40 144.5t110 52.5t110 -52.5t40 -144.5t-40 -144.5t-110 -52.5t-110 52.5zM632.5 88q20.5 35 20.5 97t-20.5 97t-57.5 35t-57.5 -35t-20.5 -97t20.5 -97t57.5 -35t57.5 35z" />
    <glyph glyph-name="ampersand" unicode="&#x26;" horiz-adv-x="676" 
d="M549 0l-52 71q-90 -83 -214 -83q-67 0 -123 26.5t-89.5 77t-33.5 119.5q0 91 56.5 146.5t146.5 69.5l-146 199v74h407v-84h-296l296 -398q36 79 36 185h86q0 -73 -18 -140.5t-52 -121.5l105 -141h-109zM450 140l-184 252q-64 -7 -101.5 -53t-37.5 -114q0 -69 42.5 -111
t110.5 -42q105 0 170 68z" />
    <glyph glyph-name="quotesingle" unicode="'" horiz-adv-x="260" 
d="M75 722h110l-35 -231h-41z" />
    <glyph glyph-name="parenleft" unicode="(" horiz-adv-x="370" 
d="M320 712q-72 -120 -106.5 -234.5t-34.5 -233.5q0 -118 34.5 -232t106.5 -234h-68q-83 106 -122.5 220t-39.5 246q0 133 39.5 247.5t122.5 220.5h68z" />
    <glyph glyph-name="parenright" unicode=")" horiz-adv-x="370" 
d="M240.5 491.5q39.5 -114.5 39.5 -247.5q0 -132 -39.5 -246t-122.5 -220h-68q72 120 106.5 234t34.5 232q0 119 -34.5 233.5t-106.5 234.5h68q83 -106 122.5 -220.5z" />
    <glyph glyph-name="asterisk" unicode="*" horiz-adv-x="360" 
d="M142 700h-122l99 -72l-38 -116l99 72l99 -72l-38 116l99 72h-122l-38 116z" />
    <glyph glyph-name="plus" unicode="+" 
d="M510 250h-170v-172h-80v172h-170v80h170v172h80v-172h170v-80z" />
    <glyph glyph-name="comma" unicode="," horiz-adv-x="280" 
d="M100 131h113l-99 -231h-41z" />
    <glyph glyph-name="hyphen" unicode="-" horiz-adv-x="350" 
d="M60 330h230v-80h-230v80z" />
    <glyph glyph-name="period" unicode="." horiz-adv-x="280" 
d="M89.5 14.5q-19.5 19.5 -19.5 50.5t19.5 50.5t50.5 19.5t50.5 -19.5t19.5 -50.5t-19.5 -50.5t-50.5 -19.5t-50.5 19.5z" />
    <glyph glyph-name="slash" unicode="/" horiz-adv-x="390" 
d="M305 712h85l-305 -724h-85z" />
    <glyph glyph-name="zero" unicode="0" horiz-adv-x="660" 
d="M186 32q-61 44 -93.5 125.5t-32.5 192.5t32.5 192.5t93.5 125.5t144 44t144 -44t93.5 -125.5t32.5 -192.5t-32.5 -192.5t-93.5 -125.5t-144 -44t-144 44zM458 144.5q46 73.5 46 205.5t-46 205.5t-128 73.5t-128 -73.5t-46 -205.5t46 -205.5t128 -73.5t128 73.5z" />
    <glyph glyph-name="one" unicode="1" horiz-adv-x="368" 
d="M268 700v-700h-94v584l-144 -120v96l168 140h70z" />
    <glyph glyph-name="two" unicode="2" horiz-adv-x="547" 
d="M507 82v-82h-497l285 326q46 52 66 78t32 54.5t12 63.5q-1 51 -37 80.5t-98 29.5q-69 0 -106 -37t-36 -105h-96q0 66 30.5 116.5t84.5 78t125 27.5q102 0 162.5 -50t60.5 -140q0 -49 -30.5 -105t-97.5 -131l-183 -204h323z" />
    <glyph glyph-name="three" unicode="3" horiz-adv-x="537" 
d="M400 390.5q45 -25.5 71 -71t26 -100.5q0 -65 -32.5 -118t-92 -83t-138.5 -30q-60 0 -115.5 19t-98.5 55v116q43 -49 102 -78t119 -29q71 0 115.5 40.5t44.5 106.5q0 64 -41.5 103.5t-109.5 39.5q-52 0 -106 -26v97l204 186h-306v82h427v-74l-248 -225q39 15 80 15
q54 0 99 -25.5z" />
    <glyph glyph-name="four" unicode="4" horiz-adv-x="580" 
d="M562 180h-92v-180h-91v180h-389l400 520h80v-446h92v-74zM379 254v312l-239 -312h239z" />
    <glyph glyph-name="five" unicode="5" horiz-adv-x="547" 
d="M403.5 422q48.5 -28 76 -78t27.5 -113q0 -70 -33 -125t-92 -86.5t-133 -31.5q-67 0 -122.5 20t-96.5 54v116q42 -49 101 -78t118 -29q73 0 117.5 43t44.5 114q0 68 -42.5 109.5t-112.5 41.5q-39 0 -75.5 -16.5t-57.5 -43.5l-67 41l37 340h369v-82h-293l-27 -234
q30 30 71 48t81 18q61 0 109.5 -28z" />
    <glyph glyph-name="six" unicode="6" horiz-adv-x="575" 
d="M431.5 427.5q50.5 -27.5 82 -79t31.5 -121.5q0 -69 -34 -123.5t-92 -85t-128 -30.5q-72 0 -129 29.5t-89.5 83t-32.5 123.5q0 73 31.5 147t107.5 167l132 162h111l-177 -205q-4 -5 -24 -28t-38.5 -50t-28.5 -51q32 44 77.5 66.5t94.5 22.5q55 0 105.5 -27.5zM405.5 111.5
q43.5 43.5 43.5 114.5q0 70 -43 113t-114 43q-74 0 -118.5 -43.5t-44.5 -114.5q0 -70 44.5 -113t117.5 -43q71 0 114.5 43.5z" />
    <glyph glyph-name="seven" unicode="7" horiz-adv-x="487" 
d="M477 626l-312 -626h-99l312 618h-378v82h477v-74z" />
    <glyph glyph-name="eight" unicode="8" 
d="M527 298q32 -45 32 -102q0 -61 -33 -108t-91.5 -73.5t-134.5 -26.5t-134.5 26.5t-91.5 73.5t-33 108q0 57 32 102t90 70q-43 25 -67.5 65.5t-24.5 90.5q0 54 29.5 97t81.5 67.5t118 24.5t118 -24.5t81.5 -67.5t29.5 -97q0 -50 -24.5 -90.5t-67.5 -65.5q58 -25 90 -70z
M201 606q-38 -33 -38 -86t38 -86.5t99 -33.5t99 33.5t38 86.5t-38 86t-99 33t-99 -33zM420.5 101.5q46.5 36.5 46.5 95.5t-46.5 95.5t-120.5 36.5t-120.5 -36.5t-46.5 -95.5t46.5 -95.5t120.5 -36.5t120.5 36.5z" />
    <glyph glyph-name="nine" unicode="9" horiz-adv-x="575" 
d="M413 682.5q57 -29.5 89.5 -83t32.5 -123.5q0 -73 -31.5 -147t-107.5 -167l-132 -162h-111l177 205q4 5 24 28t38.5 50t28.5 51q-32 -44 -77 -66.5t-95 -22.5q-55 0 -105.5 27.5t-82 79t-31.5 121.5q0 69 34 123.5t92 85t128 30.5q72 0 129 -29.5zM401.5 361.5
q44.5 43.5 44.5 114.5q0 70 -44.5 113t-117.5 43q-71 0 -114.5 -43.5t-43.5 -114.5q0 -70 43 -113t114 -43q74 0 118.5 43.5z" />
    <glyph glyph-name="colon" unicode=":" horiz-adv-x="280" 
d="M89.5 14.5q-19.5 19.5 -19.5 50.5t19.5 50.5t50.5 19.5t50.5 -19.5t19.5 -50.5t-19.5 -50.5t-50.5 -19.5t-50.5 19.5zM89.5 375.5q-19.5 19.5 -19.5 50.5t19.5 50.5t50.5 19.5t50.5 -19.5t19.5 -50.5t-19.5 -50.5t-50.5 -19.5t-50.5 19.5z" />
    <glyph glyph-name="semicolon" unicode=";" horiz-adv-x="280" 
d="M89.5 375.5q-19.5 19.5 -19.5 50.5t19.5 50.5t50.5 19.5t50.5 -19.5t19.5 -50.5t-19.5 -50.5t-50.5 -19.5t-50.5 19.5zM93 131h113l-99 -231h-41z" />
    <glyph glyph-name="less" unicode="&#x3c;" 
d="M510 421l-322 -132l322 -132v-79l-420 172v80l420 172v-81z" />
    <glyph glyph-name="equal" unicode="=" 
d="M90 240h420v-80h-420v80zM90 410h420v-80h-420v80z" />
    <glyph glyph-name="greater" unicode="&#x3e;" 
d="M510 330v-80l-420 -172v79l322 132l-322 132v81z" />
    <glyph glyph-name="question" unicode="?" horiz-adv-x="513" 
d="M189 244q-2 33 6.5 57t30 49t71.5 75q29 29 40.5 42.5t18 30t6.5 41.5q0 49 -33 72t-87 23q-49 0 -99 -25.5t-83 -65.5v104q37 31 88 48t99 17q52 0 98.5 -16.5t77 -52.5t30.5 -92t-24 -94t-68 -76l-16 -14q-42 -35 -61.5 -61.5t-19.5 -66.5v-29h-73zM182.5 14.5
q-19.5 19.5 -19.5 50.5t19.5 50.5t50.5 19.5t50.5 -19.5t19.5 -50.5t-19.5 -50.5t-50.5 -19.5t-50.5 19.5z" />
    <glyph glyph-name="at" unicode="@" horiz-adv-x="804" 
d="M586.5 667.5q80.5 -44.5 126.5 -122.5t46 -174q0 -59 -13 -108t-39 -95h-211v64q-19 -34 -50 -53.5t-70 -19.5q-74 0 -118.5 52t-44.5 139t44.5 139t118.5 52q39 0 70 -19.5t50 -53.5v64h73v-310h99q29 64 29 149q0 79 -38 143.5t-104.5 101t-147.5 36.5
q-84 0 -153 -39.5t-108 -108.5t-39 -154t39 -154t108 -108.5t153 -39.5q89 0 162 43v-68q-76 -35 -162 -35q-102 0 -185 47t-130 130t-47 185t47 185t130 130t185 47q99 0 179.5 -44.5zM496 350q0 125 -99 125q-47 0 -75.5 -34t-28.5 -91t28.5 -91t75.5 -34q99 0 99 125z
" />
    <glyph glyph-name="A" unicode="A" horiz-adv-x="744" 
d="M527 185h-317l-86 -185h-104l352 722l352 -722h-110zM490 265l-121 259l-121 -259h242z" />
    <glyph glyph-name="B" unicode="B" horiz-adv-x="630" 
d="M557 305.5q33 -42.5 33 -104.5q0 -91 -63.5 -146t-180.5 -55h-266v700h245q109 0 169 -51t60 -135q0 -43 -23 -81t-69 -62q62 -23 95 -65.5zM176 620v-221h152q58 0 93 30t35 80t-35 80.5t-93 30.5h-152zM456.5 114q35.5 33 35.5 87q0 55 -38 87.5t-107 32.5h-171v-240
h186q59 0 94.5 33z" />
    <glyph glyph-name="C" unicode="C" horiz-adv-x="695" 
d="M210 35q-80 47 -122.5 131t-42.5 195q0 100 43.5 180t120 125.5t171.5 45.5q131 0 199 -71.5t71 -189.5h-101q-7 87 -52 131t-123 44q-66 0 -119 -33.5t-82.5 -94t-29.5 -137.5q0 -134 68 -209.5t189 -75.5q151 0 245 106v-113q-96 -81 -245 -81q-110 0 -190 47z" />
    <glyph glyph-name="D" unicode="D" horiz-adv-x="745" 
d="M531 655.5q82 -44.5 125.5 -124t43.5 -181.5t-43.5 -181.5t-125.5 -124t-196 -44.5h-255v700h255q114 0 196 -44.5zM476.5 117q60.5 33 93 93t32.5 140t-32.5 140t-93 93t-141.5 33h-159v-532h159q81 0 141.5 33z" />
    <glyph glyph-name="E" unicode="E" horiz-adv-x="560" 
d="M176 616v-214h294v-84h-294v-234h344v-84h-440v700h440v-84h-344z" />
    <glyph glyph-name="F" unicode="F" horiz-adv-x="560" 
d="M176 615v-213h284v-85h-284v-317h-96v700h440v-85h-344z" />
    <glyph glyph-name="G" unicode="G" horiz-adv-x="731" 
d="M671 -12l-87 96q-91 -89 -208 -89q-98 0 -173 44t-116.5 125t-41.5 189q0 102 44.5 184t123 128.5t175.5 46.5q122 0 191 -60t83 -162h-106q-15 67 -59 101.5t-115 34.5q-68 0 -122.5 -34.5t-85.5 -95.5t-31 -139q0 -132 69 -206.5t192 -74.5q97 0 171 57v147h-149v80
h245v-372z" />
    <glyph glyph-name="H" unicode="H" horiz-adv-x="740" 
d="M660 700v-700h-96v317h-388v-317h-96v700h96v-297h388v297h96z" />
    <glyph glyph-name="I" unicode="I" horiz-adv-x="266" 
d="M85 700h96v-700h-96v700z" />
    <glyph glyph-name="J" unicode="J" horiz-adv-x="454" 
d="M20 129q29 -26 67 -40.5t77 -14.5q59 0 89 32.5t30 89.5v504h96v-499q0 -108 -57 -160.5t-158 -52.5q-82 0 -144 37v104z" />
    <glyph glyph-name="K" unicode="K" horiz-adv-x="684" 
d="M542 0l-366 341v-341h-96v700h96v-321l345 321h125l-358 -333l398 -367h-144z" />
    <glyph glyph-name="L" unicode="L" horiz-adv-x="540" 
d="M520 84v-84h-440v700h96v-616h344z" />
    <glyph glyph-name="M" unicode="M" horiz-adv-x="880" 
d="M800 700v-700h-96v540l-264 -450l-264 450v-540h-96v700h100l263 -446l263 446h94z" />
    <glyph glyph-name="N" unicode="N" horiz-adv-x="750" 
d="M670 700v-740l-494 594v-554h-96v700h86l408 -491v491h96z" />
    <glyph glyph-name="O" unicode="O" horiz-adv-x="800" 
d="M217 34.5q-81 46.5 -126.5 129t-45.5 186.5t45.5 186.5t126.5 129t183 46.5t183 -46.5t126.5 -129t45.5 -186.5t-45.5 -186.5t-126.5 -129t-183 -46.5t-183 46.5zM534 108.5q58 34.5 90.5 97t32.5 144.5t-32.5 144.5t-90.5 97t-134 34.5t-134 -34.5t-90.5 -97
t-32.5 -144.5t32.5 -144.5t90.5 -97t134 -34.5t134 34.5z" />
    <glyph glyph-name="P" unicode="P" horiz-adv-x="584" 
d="M492 642q62 -58 62 -152t-63.5 -152t-180.5 -58h-134v-280h-96v700h235q115 0 177 -58zM420.5 395q35.5 36 35.5 95t-35.5 95t-94.5 36h-150v-262h150q59 0 94.5 36z" />
    <glyph glyph-name="Q" unicode="Q" horiz-adv-x="800" 
d="M717 179q-38 -77 -105 -126l98 -115h-111l-64 74q-61 -24 -135 -24q-102 0 -183 46.5t-126.5 129t-45.5 186.5t45.5 186.5t126.5 129t183 46.5t183 -46.5t126.5 -129t45.5 -186.5q0 -94 -38 -171zM175.5 205.5q32.5 -62.5 90.5 -97t134 -34.5q44 0 81 12l-106 124h111
l73 -85q46 37 72 95t26 130q0 82 -32.5 144.5t-90.5 97t-134 34.5t-134 -34.5t-90.5 -97t-32.5 -144.5t32.5 -144.5z" />
    <glyph glyph-name="R" unicode="R" horiz-adv-x="634" 
d="M251 303h-75v-303h-96v700h214q115 0 177 -54.5t62 -144.5q0 -73 -43 -123.5t-125 -67.5l269 -310h-132zM176 378h131q58 0 93 33t35 89t-34.5 89t-93.5 33h-131v-244z" />
    <glyph glyph-name="S" unicode="S" horiz-adv-x="598" 
d="M41 65v118q50 -51 116 -79.5t136 -28.5q88 0 131 25.5t43 79.5q0 34 -28.5 61t-106.5 54l-112 36q-95 31 -140 76.5t-45 112.5q0 56 32 100t89.5 68t132.5 24q112 0 179.5 -58.5t78.5 -163.5h-99q-10 67 -55 104t-116 37q-64 0 -105 -30t-41 -77q0 -29 11 -47.5t37 -33
t76 -30.5l105 -33q112 -35 157.5 -81.5t45.5 -115.5q0 -53 -27.5 -97t-88.5 -71t-156 -27q-153 0 -250 77z" />
    <glyph glyph-name="T" unicode="T" horiz-adv-x="596" 
d="M576 616h-230v-616h-96v616h-230v84h556v-84z" />
    <glyph glyph-name="U" unicode="U" horiz-adv-x="730" 
d="M212 22.5q-66 34.5 -101.5 98t-35.5 149.5v430h96v-435q0 -55 24 -98.5t68 -68t102 -24.5t102 24.5t68 68t24 98.5v435h96v-430q0 -86 -35.5 -149.5t-101.5 -98t-153 -34.5t-153 34.5z" />
    <glyph glyph-name="V" unicode="V" horiz-adv-x="744" 
d="M724 700l-352 -722l-352 722h111l244 -511l245 511h104z" />
    <glyph glyph-name="W" unicode="W" horiz-adv-x="1040" 
d="M735 -22l-218 592l-212 -592l-275 722h104l173 -470l169 470h87l175 -470l175 470h97z" />
    <glyph glyph-name="X" unicode="X" horiz-adv-x="704" 
d="M685 0h-117l-216 289l-215 -289h-117l273 353l-268 347h118l209 -280l209 280h116l-266 -342z" />
    <glyph glyph-name="Y" unicode="Y" horiz-adv-x="704" 
d="M400 293v-293h-96v293l-284 407h117l218 -322l217 322h112z" />
    <glyph glyph-name="Z" unicode="Z" horiz-adv-x="618" 
d="M583 626l-397 -542h396v-84h-567l457 616h-396v84h507v-74z" />
    <glyph glyph-name="bracketleft" unicode="[" horiz-adv-x="370" 
d="M321 -156v-66h-220l-1 934h220v-66h-140l1 -802h140z" />
    <glyph glyph-name="backslash" unicode="\" horiz-adv-x="390" 
d="M305 -12l-305 724h85l305 -724h-85z" />
    <glyph glyph-name="bracketright" unicode="]" horiz-adv-x="370" 
d="M269 -222h-220v66h140l1 802h-140v66h220z" />
    <glyph glyph-name="underscore" unicode="_" horiz-adv-x="460" 
d="M20 -10h420v-80h-420v80z" />
    <glyph glyph-name="grave" unicode="`" 
d="M279 600l-134 112h120l89 -112h-75z" />
    <glyph glyph-name="a" unicode="a" horiz-adv-x="515" 
d="M399.5 453q50.5 -49 50.5 -137v-316h-90v95q-30 -50 -78.5 -78.5t-104.5 -28.5q-67 0 -107 35t-40 94q0 54 43 89.5t134 56.5l66 15q48 10 69 24.5t21 41.5q0 38 -31.5 59.5t-86.5 21.5q-47 0 -96.5 -23t-84.5 -58v94q40 31 91.5 47.5t103.5 16.5q90 0 140.5 -49z
M314.5 99q45.5 40 45.5 102v49q-33 -21 -79 -32l-43 -10q-61 -14 -88 -34.5t-27 -51.5q0 -29 20 -46t55 -17q71 0 116.5 40z" />
    <glyph glyph-name="b" unicode="b" horiz-adv-x="594" 
d="M450.5 470.5q49.5 -31.5 76.5 -90t27 -135.5t-27 -135.5t-76.5 -90t-115.5 -31.5q-56 0 -102 29t-73 81v-98h-90v712h90v-320q27 52 73 81t102 29q66 0 115.5 -31.5zM418 113.5q42 49.5 42 131.5t-42 131.5t-111 49.5q-71 0 -109 -46t-38 -135t38 -135t109 -46
q69 0 111 49.5z" />
    <glyph glyph-name="c" unicode="c" horiz-adv-x="534" 
d="M297 -12q-79 0 -137 33.5t-89 93.5t-31 138q0 71 31 128t85 89t122 32q100 0 152.5 -50.5t55.5 -134.5h-88q-13 109 -120 109q-41 0 -74 -22.5t-51.5 -62t-18.5 -88.5q0 -86 46 -135.5t123 -49.5q47 -2 92.5 17.5t78.5 54.5v-95q-71 -57 -177 -57z" />
    <glyph glyph-name="d" unicode="d" horiz-adv-x="594" 
d="M524 712v-712h-90v98q-27 -52 -73 -81t-102 -29q-66 0 -115.5 31.5t-76.5 90t-27 135.5t27 135.5t76.5 90t115.5 31.5q56 0 102 -29t73 -81v320h90zM396 110q38 46 38 135t-38 135t-109 46q-69 0 -111 -49.5t-42 -131.5t42 -131.5t111 -49.5q71 0 109 46z" />
    <glyph glyph-name="e" unicode="e" horiz-adv-x="536" 
d="M493 219h-361q8 -72 53 -113.5t114 -41.5q47 0 92.5 19t78.5 52v-89q-72 -58 -177 -58q-78 0 -135 32.5t-87.5 92.5t-30.5 140q0 71 31.5 127.5t85 89t117.5 32.5q107 0 164.5 -64.5t57.5 -169.5q0 -23 -3 -49zM178.5 391q-39.5 -39 -46.5 -101h272q-3 74 -40 107t-90 33
q-56 0 -95.5 -39z" />
    <glyph glyph-name="f" unicode="f" horiz-adv-x="400" 
d="M223.5 620q-23.5 -28 -23.5 -72v-58h180v-78h-180v-412h-90v412h-90v78h90v60q0 78 48.5 126t130.5 48q56 0 111 -29v-84q-51 37 -112 37q-41 0 -64.5 -28z" />
    <glyph glyph-name="g" unicode="g" horiz-adv-x="510" 
d="M495 412h-118q36 -22 54 -51t18 -60q0 -40 -26.5 -76t-73.5 -58.5t-104 -22.5q-85 0 -85 -37q0 -15 17 -26.5t67 -21.5l66 -14q90 -19 132 -50t42 -85q0 -44 -31.5 -76.5t-87 -50t-125.5 -17.5q-107 0 -166 37t-59 99q0 39 34.5 68.5t85.5 41.5q-56 25 -56 77
q0 22 22.5 42.5t62.5 28.5q-62 17 -95.5 62.5t-33.5 100.5q0 51 26.5 91.5t72.5 64t101 23.5q24 0 61 -12h199v-78zM333 244q33 30 33 79t-33 79t-88 30t-88 -30t-33 -79t33 -79t88 -30t88 30zM379.5 -64q-8.5 11 -28.5 19t-61 18l-51 12q-15 4 -47 10q-95 -25 -95 -85
q0 -31 39.5 -50.5t104.5 -19.5q67 0 107 18t40 48q0 19 -8.5 30z" />
    <glyph glyph-name="h" unicode="h" horiz-adv-x="565" 
d="M452.5 451.5q47.5 -50.5 47.5 -135.5v-316h-90v304q0 57 -31.5 89.5t-87.5 32.5q-58 0 -94.5 -34t-36.5 -89v-303h-90v712h90v-303q27 45 70 69t95 24q80 0 127.5 -50.5z" />
    <glyph glyph-name="i" unicode="i" horiz-adv-x="230" 
d="M72 617q-17 17 -17 43t17 43t43 17t43 -17t17 -43t-17 -43t-43 -17t-43 17zM70 490h90v-490h-90v490z" />
    <glyph glyph-name="j" unicode="j" horiz-adv-x="230" 
d="M72 617q-17 17 -17 43t17 43t43 17t43 -17t17 -43t-17 -43t-43 -17t-43 17zM70 490h90v-712h-90v712z" />
    <glyph glyph-name="k" unicode="k" horiz-adv-x="537" 
d="M407 0l-247 232v-232h-90v712h90v-443l224 221h113l-237 -231l277 -259h-130z" />
    <glyph glyph-name="l" unicode="l" horiz-adv-x="230" 
d="M70 712h90v-712h-90v712z" />
    <glyph glyph-name="m" unicode="m" horiz-adv-x="885" 
d="M70 490h90v-80q27 45 68.5 68.5t91.5 23.5q57 0 98.5 -28t58.5 -79q27 52 71.5 79.5t99.5 27.5q79 0 125.5 -50.5t46.5 -135.5v-316h-90v304q0 57 -30.5 89.5t-83.5 32.5q-56 0 -91 -34t-35 -89v-303h-90v304q0 57 -30.5 89.5t-83.5 32.5q-55 0 -90.5 -34.5t-35.5 -88.5
v-303h-90v490z" />
    <glyph glyph-name="n" unicode="n" horiz-adv-x="565" 
d="M452.5 451.5q47.5 -50.5 47.5 -135.5v-316h-90v304q0 57 -31.5 89.5t-87.5 32.5q-58 0 -94.5 -34t-36.5 -89v-303h-90v490h90v-81q27 45 70 69t95 24q80 0 127.5 -50.5z" />
    <glyph glyph-name="o" unicode="o" horiz-adv-x="594" 
d="M164.5 21q-58.5 33 -91.5 91.5t-33 132.5t33 132.5t91.5 91.5t132.5 33t132.5 -33t91.5 -91.5t33 -132.5t-33 -132.5t-91.5 -91.5t-132.5 -33t-132.5 33zM415.5 113.5q44.5 49.5 44.5 131.5t-44.5 131.5t-118.5 49.5t-118.5 -49.5t-44.5 -131.5t44.5 -131.5t118.5 -49.5
t118.5 49.5z" />
    <glyph glyph-name="p" unicode="p" horiz-adv-x="594" 
d="M450.5 470.5q49.5 -31.5 76.5 -90t27 -135.5t-27 -135.5t-76.5 -90t-115.5 -31.5q-56 0 -102 29t-73 81v-320h-90v712h90v-98q27 52 73 81t102 29q66 0 115.5 -31.5zM418 113.5q42 49.5 42 131.5t-42 131.5t-111 49.5q-71 0 -109 -46t-38 -135t38 -135t109 -46
q69 0 111 49.5z" />
    <glyph glyph-name="q" unicode="q" horiz-adv-x="594" 
d="M524 490v-712h-90v320q-27 -52 -73 -81t-102 -29q-66 0 -115.5 31.5t-76.5 90t-27 135.5t27 135.5t76.5 90t115.5 31.5q56 0 102 -29t73 -81v98h90zM396 110q38 46 38 135t-38 135t-109 46q-69 0 -111 -49.5t-42 -131.5t42 -131.5t111 -49.5q71 0 109 46z" />
    <glyph glyph-name="r" unicode="r" horiz-adv-x="406" 
d="M386 482v-97q-17 14 -43.5 22.5t-51.5 8.5q-58 0 -94.5 -34.5t-36.5 -89.5v-292h-90v490h90v-89q24 49 62.5 75t85.5 26q46 0 78 -20z" />
    <glyph glyph-name="s" unicode="s" horiz-adv-x="490" 
d="M136 2q-45 14 -80 41v101q35 -39 83.5 -59.5t105.5 -20.5q45 0 71 16t26 44q0 30 -22 46.5t-74 32.5l-61 19q-74 23 -104.5 56t-30.5 87q0 40 24 71t65 48.5t90 17.5q86 0 137 -44t58 -118h-86q-10 41 -39.5 63.5t-71.5 22.5q-41 0 -66 -18t-25 -46q0 -25 20.5 -41.5
t78.5 -33.5l56 -17q44 -14 73 -28t49 -41.5t20 -70.5q0 -67 -51.5 -104.5t-150.5 -37.5q-50 0 -95 14z" />
    <glyph glyph-name="t" unicode="t" horiz-adv-x="390" 
d="M257 -12q-67 0 -107 40t-40 104v280h-120l210 194v-116h170v-78h-170v-270q0 -33 18.5 -54t49.5 -21q54 0 102 31v-84q-55 -26 -113 -26z" />
    <glyph glyph-name="u" unicode="u" horiz-adv-x="565" 
d="M495 490v-490h-90v81q-27 -45 -70 -69t-95 -24q-80 0 -127.5 50.5t-47.5 135.5v316h90v-304q0 -57 31.5 -89.5t87.5 -32.5q58 0 94.5 34t36.5 89v303h90z" />
    <glyph glyph-name="v" unicode="v" horiz-adv-x="539" 
d="M524 490l-254 -512l-255 512h103l154 -325l154 325h98z" />
    <glyph glyph-name="w" unicode="w" horiz-adv-x="757" 
d="M535 -22l-158 404l-153 -404l-199 512h92l113 -309l114 309h71l117 -307l112 307h88z" />
    <glyph glyph-name="x" unicode="x" horiz-adv-x="511" 
d="M395 0l-140 189l-140 -189h-107l190 250l-183 240h110l131 -179l135 179h104l-183 -240l193 -250h-110z" />
    <glyph glyph-name="y" unicode="y" horiz-adv-x="539" 
d="M524 490l-321 -712h-92l125 268l-221 444h105l163 -345l144 345h97z" />
    <glyph glyph-name="z" unicode="z" horiz-adv-x="461" 
d="M427 80v-80h-412l302 410h-272v80h377v-70l-251 -340h256z" />
    <glyph glyph-name="braceleft" unicode="{" horiz-adv-x="370" 
d="M109 300q17 8 26 30t9 66v172q0 70 34 107t99 37h42v-66h-29q-32 0 -49 -18t-17 -53v-187q0 -60 -30.5 -97.5t-84.5 -40.5q54 -3 84.5 -40.5t30.5 -97.5l1 -197q0 -35 17 -53t49 -18h29v-66h-42q-64 0 -98 36.5t-35 107.5l-1 182q0 44 -9 66t-26 30t-49 10v80q32 2 49 10
z" />
    <glyph glyph-name="bar" unicode="|" horiz-adv-x="281" 
d="M100 712h80l1 -934h-80z" />
    <glyph glyph-name="braceright" unicode="}" horiz-adv-x="370" 
d="M310 210q-32 -2 -49 -10t-26 -30t-9 -66l-1 -182q-1 -71 -35 -107.5t-98 -36.5h-42v66h29q32 0 49 18t17 53l1 197q0 60 30.5 97.5t84.5 40.5q-54 3 -84.5 40.5t-30.5 97.5v187q0 35 -17 53t-49 18h-29v66h42q65 0 99 -37t34 -107v-172q0 -44 9 -66t26 -30t49 -10v-80z
" />
    <glyph glyph-name="asciitilde" unicode="~" 
d="M90 308q47 47 113 47q31 0 55.5 -7.5t54.5 -22.5q26 -12 44 -18t39 -6q27 0 62 17t52 44v-92q-47 -47 -113 -47q-31 0 -55.5 7.5t-54.5 22.5q-26 12 -44 18t-39 6q-27 0 -62 -17t-52 -44v92z" />
    <glyph glyph-name="brokenbar" unicode="&#xa6;" horiz-adv-x="281" 
d="M100 712h80v-402h-80v402zM181 -222h-80l-1 402h80z" />
    <glyph glyph-name="section" unicode="&#xa7;" horiz-adv-x="543" 
d="M428.5 209.5q24.5 -28.5 24.5 -79.5q0 -67 -50.5 -104.5t-147.5 -37.5q-49 0 -92.5 13.5t-76.5 40.5v104q69 -80 183 -80q44 0 68.5 15t24.5 43q0 30 -20 46.5t-66 32.5l-61 19q-72 23 -103 53.5t-31 73.5q0 31 27 58.5t78 35.5q-52 21 -74 52.5t-22 79.5q0 40 23.5 71
t63.5 48.5t87 17.5q84 0 133.5 -44t56.5 -118h-86q-9 41 -37.5 63.5t-68.5 22.5q-38 0 -62 -18t-24 -46q0 -24 18 -40.5t71 -34.5l56 -17q61 -18 98.5 -45t37.5 -84q0 -31 -25.5 -57.5t-71.5 -37.5q44 -18 68.5 -46.5zM186.5 321.5q20.5 -16.5 78.5 -34.5l37 -11
q33 5 51.5 19.5t18.5 38.5q0 30 -22 46.5t-74 32.5l-38 12q-33 -5 -52.5 -21.5t-19.5 -41.5q0 -24 20.5 -40.5z" />
    <glyph glyph-name="dieresis" unicode="&#xa8;" 
d="M172 617q-17 17 -17 43t17 43t43 17t43 -17t17 -43t-17 -43t-43 -17t-43 17zM342 617q-17 17 -17 43t17 43t43 17t43 -17t17 -43t-17 -43t-43 -17t-43 17z" />
    <glyph glyph-name="copyright" unicode="&#xa9;" horiz-adv-x="814" 
d="M222 35q-83 47 -130 130t-47 185t47 185t130 130t185 47t185 -47t130 -130t47 -185t-47 -185t-130 -130t-185 -47t-185 47zM560 87.5q69 39.5 108 108.5t39 154t-39 154t-108 108.5t-153 39.5t-153 -39.5t-108 -108.5t-39 -154t39 -154t108 -108.5t153 -39.5t153 39.5z
M550 204q-51 -45 -133 -45q-89 0 -140 54.5t-51 142.5q0 53 23 95t63.5 66t90.5 24q74 0 112.5 -37t41.5 -100l-75 -1q-4 37 -23.5 54t-55.5 17q-43 0 -70 -33t-27 -85q0 -59 32 -93t89 -34q33 0 65.5 15t54.5 40z" />
    <glyph glyph-name="guillemotleft" unicode="&#xab;" horiz-adv-x="492" 
d="M282 115h-97l-145 175l145 175h95l-145 -174zM452 115h-97l-145 175l145 175h95l-145 -174z" />
    <glyph glyph-name="uni00AD" unicode="&#xad;" horiz-adv-x="350" 
d="M60 330h230v-80h-230v80z" />
    <glyph glyph-name="registered" unicode="&#xae;" horiz-adv-x="494" 
d="M348 686.5q45 -25.5 70.5 -70.5t25.5 -101t-25.5 -101t-70.5 -70.5t-101 -25.5t-101 25.5t-70.5 70.5t-25.5 101t25.5 101t70.5 70.5t101 25.5t101 -25.5zM323.5 383q34.5 20 54 54.5t19.5 77.5t-19.5 77.5t-54 54.5t-76.5 20t-76.5 -20t-54 -54.5t-19.5 -77.5
t19.5 -77.5t54 -54.5t76.5 -20t76.5 20zM311.5 522.5q-10.5 -14.5 -29.5 -21.5l63 -88h-58l-55 82h-11v-82h-48v204h75q34 0 54 -16.5t20 -44.5q0 -19 -10.5 -33.5zM221 534h25q27 0 27 19q0 20 -27 20h-25v-39z" />
    <glyph glyph-name="macron" unicode="&#xaf;" 
d="M443 637h-286v63h286v-63z" />
    <glyph glyph-name="degree" unicode="&#xb0;" horiz-adv-x="376" 
d="M114 425.5q-34 19.5 -54 53.5t-20 74t20 74t54 53.5t74 19.5t74 -19.5t54 -53.5t20 -74t-20 -74t-54 -53.5t-74 -19.5t-74 19.5zM249.5 489.5q24.5 25.5 24.5 63.5t-24.5 63.5t-61.5 25.5t-61.5 -25.5t-24.5 -63.5t24.5 -63.5t61.5 -25.5t61.5 25.5z" />
    <glyph glyph-name="plusminus" unicode="&#xb1;" 
d="M510 360v-80h-170v-142h-80v142h-170v80h170v142h80v-142h170zM90 80h420v-80h-420v80z" />
    <glyph glyph-name="acute" unicode="&#xb4;" 
d="M351 712h120l-134 -112h-75z" />
    <glyph glyph-name="paragraph" unicode="&#xb6;" 
d="M550 636h-59v-753h-70v753h-112v-753h-70v427q-89 0 -141.5 54.5t-52.5 144.5q0 87 55.5 139t148.5 52h301v-64z" />
    <glyph glyph-name="periodcentered" unicode="&#xb7;" horiz-adv-x="280" 
d="M89.5 239.5q-19.5 19.5 -19.5 50.5t19.5 50.5t50.5 19.5t50.5 -19.5t19.5 -50.5t-19.5 -50.5t-50.5 -19.5t-50.5 19.5z" />
    <glyph glyph-name="cedilla" unicode="&#xb8;" 
d="M236 -155.5q24 -7.5 46 -7.5q19 0 33.5 6t14.5 20t-12.5 22t-31.5 8q-25 0 -38 -9l-30 17l66 109h53l-47 -77q15 3 30 3q36 0 56 -18.5t20 -49.5q0 -37 -33 -59.5t-75 -22.5q-54 0 -94 19v58q18 -11 42 -18.5z" />
    <glyph glyph-name="guillemotright" unicode="&#xbb;" horiz-adv-x="492" 
d="M282 290l-145 -175h-95l145 174l-147 176h97zM452 290l-145 -175h-95l145 174l-147 176h97z" />
    <glyph glyph-name="multiply" unicode="&#xd7;" 
d="M424 110l-124 124l-124 -125l-56 57l124 124l-124 124l56 56l124 -124l124 124l56 -56l-124 -124l125 -124z" />
    <glyph glyph-name="divide" unicode="&#xf7;" 
d="M90 330h420v-80h-420v80zM257 94q-17 17 -17 43t17 43t43 17t43 -17t17 -43t-17 -43t-43 -17t-43 17zM257 400q-17 17 -17 43t17 43t43 17t43 -17t17 -43t-17 -43t-43 -17t-43 17z" />
    <glyph glyph-name="circumflex" unicode="&#x2c6;" 
d="M375 599l-75 49l-75 -49h-119l194 130l194 -130h-119z" />
    <glyph glyph-name="caron" unicode="&#x2c7;" 
d="M494 712l-194 -130l-194 130h119l75 -49l75 49h119z" />
    <glyph glyph-name="breve" unicode="&#x2d8;" 
d="M134 735q31 -33 75 -51.5t91 -18.5t91 18.5t75 51.5v-92q-66 -54 -166 -54t-166 54v92z" />
    <glyph glyph-name="dotaccent" unicode="&#x2d9;" 
d="M257 617q-17 17 -17 43t17 43t43 17t43 -17t17 -43t-17 -43t-43 -17t-43 17z" />
    <glyph glyph-name="ring" unicode="&#x2da;" 
d="M217 612.5q-33 32.5 -33 81.5q0 50 33 83t83 33t83 -33t33 -83q0 -49 -33 -81.5t-83 -32.5t-83 32.5zM340.5 655q15.5 15 15.5 39q0 26 -15 41t-41 15q-25 0 -40.5 -15t-15.5 -41q0 -24 15.5 -39t40.5 -15t40.5 15z" />
    <glyph glyph-name="ogonek" unicode="&#x2db;" 
d="M327 0q-25 -3 -50 -20.5t-41 -41.5t-16 -46t13 -35t34 -13q30 0 60 19v-68q-34 -17 -74 -17q-46 0 -74.5 26t-28.5 67q0 44 44 85.5t106 57.5z" />
    <glyph glyph-name="tilde" unicode="&#x2dc;" 
d="M174.5 630q-27.5 -13 -40.5 -35v81q36 36 88 36q24 0 42.5 -6t43.5 -17q20 -9 34.5 -14t30.5 -5q21 0 48.5 13t40.5 35v-81q-36 -36 -88 -36q-24 0 -42.5 6t-43.5 17q-20 9 -34.5 14t-30.5 5q-21 0 -48.5 -13z" />
    <glyph glyph-name="hungarumlaut" unicode="&#x2dd;" 
d="M275 712h97l-124 -112h-72zM426 712h97l-124 -112h-72z" />
    <glyph glyph-name="uni0312" unicode="&#x312;" horiz-adv-x="0" 
d="M-250 618h-95l84 161h34z" />
    <glyph glyph-name="uni0326" unicode="&#x326;" horiz-adv-x="0" 
d="M-356 -81h95l-84 -161h-34z" />
    <glyph glyph-name="uni0401" unicode="&#x401;" horiz-adv-x="560" 
d="M176 616v-214h294v-84h-294v-234h344v-84h-440v700h440v-84h-344zM170 787q-17 17 -17 43t17 43t43 17t43 -17t17 -43t-17 -43t-43 -17t-43 17zM340 787q-17 17 -17 43t17 43t43 17t43 -17t17 -43t-17 -43t-43 -17t-43 17z" />
    <glyph glyph-name="uni0404" unicode="&#x404;" horiz-adv-x="694" 
d="M645 182v-113q-96 -81 -245 -81q-110 0 -190 47t-122.5 131t-42.5 195q0 100 43.5 180t120 125.5t171.5 45.5q125 0 192.5 -65t76.5 -175h-103q-11 76 -54.5 115t-117.5 39q-60 0 -109.5 -28t-80.5 -79t-39 -117h305v-84h-305q11 -115 77.5 -178.5t177.5 -63.5
q151 0 245 106z" />
    <glyph glyph-name="uni0406" unicode="&#x406;" horiz-adv-x="266" 
d="M85 700h96v-700h-96v700z" />
    <glyph glyph-name="uni0407" unicode="&#x407;" horiz-adv-x="266" 
d="M85 700h96v-700h-96v700zM5 787q-17 17 -17 43t17 43t43 17t43 -17t17 -43t-17 -43t-43 -17t-43 17zM175 787q-17 17 -17 43t17 43t43 17t43 -17t17 -43t-17 -43t-43 -17t-43 17z" />
    <glyph glyph-name="uni040E" unicode="&#x40e;" horiz-adv-x="704" 
d="M684 700l-363 -700h-108l94 179l-287 521h111l233 -425l216 425h104zM199 905q31 -33 75 -51.5t91 -18.5t91 18.5t75 51.5v-92q-66 -54 -166 -54t-166 54v92z" />
    <glyph glyph-name="uni0410" unicode="&#x410;" horiz-adv-x="744" 
d="M527 185h-317l-86 -185h-104l352 722l352 -722h-110zM490 265l-121 259l-121 -259h242z" />
    <glyph glyph-name="uni0411" unicode="&#x411;" horiz-adv-x="612" 
d="M510.5 353.5q61.5 -56.5 61.5 -148.5t-63 -148.5t-179 -56.5h-250v700h440v-84h-344v-206h159q114 0 175.5 -56.5zM439 113.5q35 34.5 35 91.5t-35 91.5t-93 34.5h-170v-252h170q58 0 93 34.5z" />
    <glyph glyph-name="uni0412" unicode="&#x412;" horiz-adv-x="630" 
d="M557 305.5q33 -42.5 33 -104.5q0 -91 -63.5 -146t-180.5 -55h-266v700h245q109 0 169 -51t60 -135q0 -43 -23 -81t-69 -62q62 -23 95 -65.5zM176 620v-221h152q58 0 93 30t35 80t-35 80.5t-93 30.5h-152zM456.5 114q35.5 33 35.5 87q0 55 -38 87.5t-107 32.5h-171v-240
h186q59 0 94.5 33z" />
    <glyph glyph-name="uni0413" unicode="&#x413;" horiz-adv-x="530" 
d="M510 616h-334v-616h-96v700h430v-84z" />
    <glyph glyph-name="uni0414" unicode="&#x414;" horiz-adv-x="720" 
d="M695 86v-226h-92v140h-501v-140h-92v226h66q29 44 40.5 140.5t11.5 270.5v203h487v-614h80zM519 86v528h-296v-133q0 -146 -24 -242.5t-75 -152.5h395z" />
    <glyph glyph-name="uni0415" unicode="&#x415;" horiz-adv-x="560" 
d="M176 616v-214h294v-84h-294v-234h344v-84h-440v700h440v-84h-344z" />
    <glyph glyph-name="uni0416" unicode="&#x416;" horiz-adv-x="1054" 
d="M918 0l-344 340v-340h-96v338l-342 -338h-136l371 363l-341 337h126l322 -318v318h96v-320l327 320h123l-341 -334l371 -366h-136z" />
    <glyph glyph-name="uni0417" unicode="&#x417;" 
d="M528.5 303.5q31.5 -45.5 31.5 -95.5q0 -105 -69.5 -162.5t-196.5 -57.5q-72 0 -136.5 20t-112.5 57v117q49 -52 113.5 -79.5t135.5 -27.5q81 0 125.5 34t44.5 96q0 53 -41.5 82.5t-116.5 29.5h-89v86h95q66 0 93.5 32t27.5 79q0 52 -38 84.5t-101 32.5q-64 0 -105 -37
t-50 -104h-99q11 102 79.5 162t174.5 60q71 0 124 -24t82 -68t29 -103q0 -50 -25 -88t-70 -58q63 -22 94.5 -67.5z" />
    <glyph glyph-name="uni0418" unicode="&#x418;" horiz-adv-x="750" 
d="M670 700v-700h-96v558l-494 -598v740h96v-494l408 494h86z" />
    <glyph glyph-name="uni0419" unicode="&#x419;" horiz-adv-x="750" 
d="M670 700v-700h-96v558l-494 -598v740h96v-494l408 494h86zM209 905q31 -33 75 -51.5t91 -18.5t91 18.5t75 51.5v-92q-66 -54 -166 -54t-166 54v92z" />
    <glyph glyph-name="uni041A" unicode="&#x41a;" horiz-adv-x="684" 
d="M542 0l-366 341v-341h-96v700h96v-321l345 321h125l-358 -333l398 -367h-144z" />
    <glyph glyph-name="uni041B" unicode="&#x41b;" horiz-adv-x="735" 
d="M655 0h-96v614h-300v-153q0 -170 -15.5 -269t-53 -146.5t-105.5 -49.5q-43 -2 -70 10v91q31 -14 51 -14q40 0 61 41.5t29 125.5t8 227v223h491v-700z" />
    <glyph glyph-name="uni041C" unicode="&#x41c;" horiz-adv-x="880" 
d="M800 700v-700h-96v540l-264 -450l-264 450v-540h-96v700h100l263 -446l263 446h94z" />
    <glyph glyph-name="uni041D" unicode="&#x41d;" horiz-adv-x="740" 
d="M660 700v-700h-96v317h-388v-317h-96v700h96v-297h388v297h96z" />
    <glyph glyph-name="uni041E" unicode="&#x41e;" horiz-adv-x="800" 
d="M217 34.5q-81 46.5 -126.5 129t-45.5 186.5t45.5 186.5t126.5 129t183 46.5t183 -46.5t126.5 -129t45.5 -186.5t-45.5 -186.5t-126.5 -129t-183 -46.5t-183 46.5zM534 108.5q58 34.5 90.5 97t32.5 144.5t-32.5 144.5t-90.5 97t-134 34.5t-134 -34.5t-90.5 -97
t-32.5 -144.5t32.5 -144.5t90.5 -97t134 -34.5t134 34.5z" />
    <glyph glyph-name="uni041F" unicode="&#x41f;" horiz-adv-x="730" 
d="M650 0h-96v614h-378v-614h-96v700h570v-700z" />
    <glyph glyph-name="uni0420" unicode="&#x420;" horiz-adv-x="584" 
d="M492 642q62 -58 62 -152t-63.5 -152t-180.5 -58h-134v-280h-96v700h235q115 0 177 -58zM420.5 395q35.5 36 35.5 95t-35.5 95t-94.5 36h-150v-262h150q59 0 94.5 36z" />
    <glyph glyph-name="uni0421" unicode="&#x421;" horiz-adv-x="695" 
d="M210 35q-80 47 -122.5 131t-42.5 195q0 100 43.5 180t120 125.5t171.5 45.5q131 0 199 -71.5t71 -189.5h-101q-7 87 -52 131t-123 44q-66 0 -119 -33.5t-82.5 -94t-29.5 -137.5q0 -134 68 -209.5t189 -75.5q151 0 245 106v-113q-96 -81 -245 -81q-110 0 -190 47z" />
    <glyph glyph-name="uni0422" unicode="&#x422;" horiz-adv-x="596" 
d="M576 616h-230v-616h-96v616h-230v84h556v-84z" />
    <glyph glyph-name="uni0423" unicode="&#x423;" horiz-adv-x="704" 
d="M684 700l-363 -700h-108l94 179l-287 521h111l233 -425l216 425h104z" />
    <glyph glyph-name="uni0424" unicode="&#x424;" horiz-adv-x="826" 
d="M656 594q66 -36 100.5 -99.5t34.5 -144.5t-34.5 -144.5t-100.5 -99.5t-157 -36h-38v-82h-96v82h-28q-94 0 -162 36t-104 99.5t-36 144.5q0 82 35 145.5t103 99t164 35.5h28v82h96v-82h38q91 0 157 -36zM365 154v392h-28q-99 0 -151.5 -51t-52.5 -145q0 -93 53.5 -144.5
t150.5 -51.5h28zM642 205.5q51 51.5 51 144.5t-51 144.5t-143 51.5h-38v-392h38q92 0 143 51.5z" />
    <glyph glyph-name="uni0425" unicode="&#x425;" horiz-adv-x="704" 
d="M685 0h-117l-216 289l-215 -289h-117l273 353l-268 347h118l209 -280l209 280h116l-266 -342z" />
    <glyph glyph-name="uni0426" unicode="&#x426;" horiz-adv-x="755" 
d="M730 86v-183l-92 -60v157h-558v700h96v-614h378v614h96v-614h80z" />
    <glyph glyph-name="uni0427" unicode="&#x427;" horiz-adv-x="670" 
d="M590 700v-700h-96v373q-44 -57 -102 -86.5t-118 -29.5q-58 0 -107 25.5t-78 74.5t-29 118v226l96 -1v-223q0 -60 40.5 -94.5t104.5 -34.5q46 0 96 17t97 51v284h96z" />
    <glyph glyph-name="uni0428" unicode="&#x428;" horiz-adv-x="1040" 
d="M960 700v-700h-880v700h96v-614h296v614h96v-614h296v614h96z" />
    <glyph glyph-name="uni0429" unicode="&#x429;" horiz-adv-x="1065" 
d="M1040 86v-183l-92 -60v157h-868v700h96v-614h296v614h96v-614h296v614h96v-614h80z" />
    <glyph glyph-name="uni042A" unicode="&#x42a;" horiz-adv-x="702" 
d="M610.5 353.5q61.5 -56.5 61.5 -148.5t-63 -148.5t-179 -56.5h-230v616h-180v84h276v-290h139q114 0 175.5 -56.5zM539 113.5q35 34.5 35 91.5t-35 91.5t-93 34.5h-150v-252h150q58 0 93 34.5z" />
    <glyph glyph-name="uni042B" unicode="&#x42b;" horiz-adv-x="833" 
d="M490.5 353.5q61.5 -56.5 61.5 -148.5t-63 -148.5t-179 -56.5h-230v700h96v-290h139q114 0 175.5 -56.5zM753 700v-700h-96v700h96zM419 113.5q35 34.5 35 91.5t-35 91.5t-93 34.5h-150v-252h150q58 0 93 34.5z" />
    <glyph glyph-name="uni042C" unicode="&#x42c;" horiz-adv-x="582" 
d="M490.5 353.5q61.5 -56.5 61.5 -148.5t-63 -148.5t-179 -56.5h-230v700h96v-290h139q114 0 175.5 -56.5zM419 113.5q35 34.5 35 91.5t-35 91.5t-93 34.5h-150v-252h150q58 0 93 34.5z" />
    <glyph glyph-name="uni042D" unicode="&#x42d;" horiz-adv-x="673" 
d="M473 666.5q75 -45.5 117.5 -125.5t42.5 -180q0 -111 -42.5 -195t-122.5 -131t-190 -47q-131 0 -220 62v107q89 -81 220 -81q111 0 177.5 63.5t77.5 178.5h-305v84h305q-8 66 -39 117t-80.5 79t-109.5 28q-77 0 -122.5 -39t-56.5 -115h-95q12 108 83 174t192 66
q93 0 168 -45.5z" />
    <glyph glyph-name="uni042E" unicode="&#x42e;" horiz-adv-x="1045" 
d="M832.5 665.5q78.5 -46.5 123 -129t44.5 -186.5t-44.5 -186.5t-123 -129t-177.5 -46.5q-93 0 -169 42t-122 116.5t-53 170.5h-135v-317h-96v700h96v-297h137q11 90 57.5 160.5t120.5 109.5t164 39q99 0 177.5 -46.5zM784 108.5q56 34.5 87 97t31 144.5t-31 144.5t-87 97
t-129 34.5t-129 -34.5t-87 -97t-31 -144.5t31 -144.5t87 -97t129 -34.5t129 34.5z" />
    <glyph glyph-name="uni042F" unicode="&#x42f;" horiz-adv-x="634" 
d="M554 0h-96v298h-101l-234 -298h-123l247 305q-82 17 -125 68.5t-43 125.5q0 91 63.5 146t180.5 55h231v-700zM458 379v240h-151q-59 0 -94.5 -33t-35.5 -87t35.5 -87t94.5 -33h151z" />
    <glyph glyph-name="uni0430" unicode="&#x430;" horiz-adv-x="515" 
d="M399.5 453q50.5 -49 50.5 -137v-316h-90v95q-30 -50 -78.5 -78.5t-104.5 -28.5q-67 0 -107 35t-40 94q0 54 43 89.5t134 56.5l66 15q48 10 69 24.5t21 41.5q0 38 -31.5 59.5t-86.5 21.5q-47 0 -96.5 -23t-84.5 -58v94q40 31 91.5 47.5t103.5 16.5q90 0 140.5 -49z
M314.5 99q45.5 40 45.5 102v49q-33 -21 -79 -32l-43 -10q-61 -14 -88 -34.5t-27 -51.5q0 -29 20 -46t55 -17q71 0 116.5 40z" />
    <glyph glyph-name="uni0431" unicode="&#x431;" horiz-adv-x="592" 
d="M441 445q52 -31 81.5 -86.5t29.5 -124.5q0 -71 -33 -127t-90.5 -87.5t-130.5 -31.5q-74 0 -131.5 36t-90 105t-32.5 165q0 142 47 218.5t123 104.5q41 16 107 34q8 2 47 13q56 17 57 48h80q0 -50 -22.5 -78.5t-68.5 -42.5q-24 -7 -62 -17q-79 -21 -108 -31
q-50 -17 -83.5 -64.5t-34.5 -136.5q22 60 75.5 97t121.5 37q66 0 118 -31zM414 111q44 47 44 123q0 77 -44 124t-116 47q-73 0 -117 -47t-44 -124t44 -123.5t117 -46.5q72 0 116 47z" />
    <glyph glyph-name="uni0432" unicode="&#x432;" horiz-adv-x="495" 
d="M431.5 208.5q23.5 -30.5 23.5 -67.5q0 -68 -48 -104.5t-135 -36.5h-202v490h200q82 0 126.5 -34.5t44.5 -98.5q0 -31 -19 -57t-56 -44q42 -17 65.5 -47.5zM160 419v-133h101q90 0 90 66q0 67 -86 67h-105zM337 93q24 18 24 52q0 35 -23 53t-67 18h-111v-141h107
q46 0 70 18z" />
    <glyph glyph-name="uni0433" unicode="&#x433;" horiz-adv-x="400" 
d="M380 410h-220v-410h-90v490h310v-80z" />
    <glyph glyph-name="uni0434" unicode="&#x434;" horiz-adv-x="538" 
d="M518 80v-180h-86v100h-336v-100h-86v180h54q13 35 20 97t7 171v142h367v-410h60zM368 80v333h-189v-57q0 -191 -79 -276h268z" />
    <glyph glyph-name="uni0435" unicode="&#x435;" horiz-adv-x="536" 
d="M493 219h-361q8 -72 53 -113.5t114 -41.5q47 0 92.5 19t78.5 52v-89q-72 -58 -177 -58q-78 0 -135 32.5t-87.5 92.5t-30.5 140q0 71 31.5 127.5t85 89t117.5 32.5q107 0 164.5 -64.5t57.5 -169.5q0 -23 -3 -49zM178.5 391q-39.5 -39 -46.5 -101h272q-3 74 -40 107t-90 33
q-56 0 -95.5 -39z" />
    <glyph glyph-name="uni0436" unicode="&#x436;" horiz-adv-x="784" 
d="M660 0l-223 228v-228h-90v229l-226 -229h-121l255 254l-227 236h110l209 -218v218h90v-218l212 218h107l-226 -234l254 -256h-124z" />
    <glyph glyph-name="uni0437" unicode="&#x437;" horiz-adv-x="474" 
d="M409 217.5q25 -28.5 25 -68.5q0 -76 -52.5 -118.5t-153.5 -42.5q-50 0 -94.5 14t-78.5 41v100q33 -38 77.5 -57.5t98.5 -19.5q52 0 82 21.5t30 59.5q0 26 -23.5 45.5t-66.5 19.5h-80v75h73q84 0 84 69q0 32 -25.5 51t-69.5 19q-86 0 -108 -86h-82q7 74 58 118t137 44
q77 0 126.5 -38t49.5 -99q0 -35 -17 -60.5t-52 -43.5q37 -15 62 -43.5z" />
    <glyph glyph-name="uni0438" unicode="&#x438;" horiz-adv-x="560" 
d="M500 490v-490h-90v368l-340 -388v510h90v-296l260 296h80z" />
    <glyph glyph-name="uni0439" unicode="&#x439;" horiz-adv-x="560" 
d="M500 490v-490h-90v368l-340 -388v510h90v-296l260 296h80zM114 735q31 -33 75 -51.5t91 -18.5t91 18.5t75 51.5v-92q-66 -54 -166 -54t-166 54v92z" />
    <glyph glyph-name="uni043A" unicode="&#x43a;" horiz-adv-x="537" 
d="M407 0l-247 232v-232h-90v490h90v-221l224 221h113l-237 -231l277 -259h-130z" />
    <glyph glyph-name="uni043B" unicode="&#x43b;" horiz-adv-x="549" 
d="M479 0h-90v410h-180v-90q0 -122 -12.5 -191t-43.5 -100.5t-87 -31.5q-32 0 -51 8v84q25 -11 43 -11q25 0 38 25.5t18 81t5 155.5v150h360v-490z" />
    <glyph glyph-name="uni043C" unicode="&#x43c;" horiz-adv-x="660" 
d="M590 490v-490h-88v355l-172 -292l-172 292v-355h-88v490h94l168 -277l167 277h91z" />
    <glyph glyph-name="uni043D" unicode="&#x43d;" horiz-adv-x="560" 
d="M490 490v-490h-90v210h-240v-210h-90v490h90v-200h240v200h90z" />
    <glyph glyph-name="uni043E" unicode="&#x43e;" horiz-adv-x="594" 
d="M164.5 21q-58.5 33 -91.5 91.5t-33 132.5t33 132.5t91.5 91.5t132.5 33t132.5 -33t91.5 -91.5t33 -132.5t-33 -132.5t-91.5 -91.5t-132.5 -33t-132.5 33zM415.5 113.5q44.5 49.5 44.5 131.5t-44.5 131.5t-118.5 49.5t-118.5 -49.5t-44.5 -131.5t44.5 -131.5t118.5 -49.5
t118.5 49.5z" />
    <glyph glyph-name="uni043F" unicode="&#x43f;" horiz-adv-x="555" 
d="M485 0h-90v410h-235v-410h-90v490h415v-490z" />
    <glyph glyph-name="uni0440" unicode="&#x440;" horiz-adv-x="594" 
d="M450.5 470.5q49.5 -31.5 76.5 -90t27 -135.5t-27 -135.5t-76.5 -90t-115.5 -31.5q-56 0 -102 29t-73 81v-320h-90v712h90v-98q27 52 73 81t102 29q66 0 115.5 -31.5zM418 113.5q42 49.5 42 131.5t-42 131.5t-111 49.5q-71 0 -109 -46t-38 -135t38 -135t109 -46
q69 0 111 49.5z" />
    <glyph glyph-name="uni0441" unicode="&#x441;" horiz-adv-x="534" 
d="M297 -12q-79 0 -137 33.5t-89 93.5t-31 138q0 71 31 128t85 89t122 32q100 0 152.5 -50.5t55.5 -134.5h-88q-13 109 -120 109q-41 0 -74 -22.5t-51.5 -62t-18.5 -88.5q0 -86 46 -135.5t123 -49.5q47 -2 92.5 17.5t78.5 54.5v-95q-71 -57 -177 -57z" />
    <glyph glyph-name="uni0442" unicode="&#x442;" horiz-adv-x="440" 
d="M420 410h-155v-410h-90v410h-155v80h400v-80z" />
    <glyph glyph-name="uni0443" unicode="&#x443;" horiz-adv-x="539" 
d="M524 490l-321 -712h-92l125 268l-221 444h105l163 -345l144 345h97z" />
    <glyph glyph-name="uni0444" unicode="&#x444;" horiz-adv-x="898" 
d="M760.5 470q46.5 -32 72 -90.5t25.5 -134.5t-25.5 -134.5t-72 -90.5t-106.5 -32q-52 0 -93.5 27t-66.5 75v-312h-90v312q-25 -48 -66.5 -75t-93.5 -27q-60 0 -106.5 32t-72 90.5t-25.5 134.5t25.5 134.5t72 90.5t106.5 32q52 0 93.5 -27t66.5 -75v312h90v-312
q25 48 66.5 75t93.5 27q60 0 106.5 -32zM374 110q35 46 35 135t-35 135t-100 46q-63 0 -101.5 -49.5t-38.5 -131.5t38.5 -131.5t101.5 -49.5q65 0 100 46zM725.5 113.5q38.5 49.5 38.5 131.5t-38.5 131.5t-101.5 49.5q-65 0 -100 -46t-35 -135t35 -135t100 -46
q63 0 101.5 49.5z" />
    <glyph glyph-name="uni0445" unicode="&#x445;" horiz-adv-x="511" 
d="M395 0l-140 189l-140 -189h-107l190 250l-183 240h110l131 -179l135 179h104l-183 -240l193 -250h-110z" />
    <glyph glyph-name="uni0446" unicode="&#x446;" horiz-adv-x="565" 
d="M545 -61l-86 -56v117h-389v490h90v-410h235v410h90v-410h60v-141z" />
    <glyph glyph-name="uni0447" unicode="&#x447;" horiz-adv-x="502" 
d="M432 490v-490h-90v241q-30 -31 -67.5 -47t-75.5 -16q-67 0 -113 41t-46 113v159l90 -1v-157q0 -40 27.5 -60.5t69.5 -20.5q63 0 115 29v209h90z" />
    <glyph glyph-name="uni0448" unicode="&#x448;" horiz-adv-x="780" 
d="M710 490v-490h-640v490h90v-410h185v410h90v-410h185v410h90z" />
    <glyph glyph-name="uni0449" unicode="&#x449;" horiz-adv-x="790" 
d="M770 80v-141l-86 -56v117h-614v490h90v-410h185v410h90v-410h185v410h90v-410h60z" />
    <glyph glyph-name="uni044A" unicode="&#x44a;" horiz-adv-x="530" 
d="M458.5 258q46.5 -38 46.5 -109q0 -72 -48 -110.5t-135 -38.5h-182v410h-120v80h210v-194h96q86 0 132.5 -38zM411 149q0 37 -23 56t-67 19h-91v-148h87q94 0 94 73z" />
    <glyph glyph-name="uni044B" unicode="&#x44b;" horiz-adv-x="660" 
d="M378.5 258q46.5 -38 46.5 -109q0 -72 -48 -110.5t-135 -38.5h-172v490h90v-194h86q86 0 132.5 -38zM590 490v-490h-90v490h90zM331 149q0 37 -23 56t-67 19h-81v-148h77q94 0 94 73z" />
    <glyph glyph-name="uni044C" unicode="&#x44c;" horiz-adv-x="460" 
d="M388.5 258q46.5 -38 46.5 -109q0 -72 -48 -110.5t-135 -38.5h-182v490h90v-194h96q86 0 132.5 -38zM341 149q0 37 -23 56t-67 19h-91v-148h87q94 0 94 73z" />
    <glyph glyph-name="uni044D" unicode="&#x44d;" horiz-adv-x="530" 
d="M372.5 470.5q54.5 -31.5 86 -86.5t31.5 -124q0 -80 -31 -142t-89 -96t-137 -34q-101 0 -168 50v94q32 -30 75 -47t87 -17q69 0 113 38t55 106h-201v78h201q-9 62 -47.5 100t-95.5 38q-106 0 -124 -101h-83q7 79 59.5 127t147.5 48q66 0 120.5 -31.5z" />
    <glyph glyph-name="uni044E" unicode="&#x44e;" horiz-adv-x="784" 
d="M621.5 469q57.5 -33 90 -91.5t32.5 -132.5t-32.5 -132.5t-90 -91.5t-129.5 -33q-66 0 -119 28t-86 78.5t-40 115.5h-87v-210h-90v490h90v-200h88q9 62 42 110t85.5 75t116.5 27q72 0 129.5 -33zM606 114q44 50 44 131t-44 131t-114 50q-71 0 -114.5 -49.5t-43.5 -131.5
t43.5 -131.5t114.5 -49.5q70 0 114 50z" />
    <glyph glyph-name="uni044F" unicode="&#x44f;" horiz-adv-x="493" 
d="M423 0h-90v196h-76l-141 -196h-106l152 205q-50 15 -80.5 51t-30.5 87q0 70 47.5 108.5t133.5 38.5h191v-490zM333 269v146h-96q-46 0 -69.5 -18.5t-23.5 -53.5q0 -36 23 -55t66 -19h100z" />
    <glyph glyph-name="uni0451" unicode="&#x451;" horiz-adv-x="536" 
d="M493 219h-361q8 -72 53 -113.5t114 -41.5q47 0 92.5 19t78.5 52v-89q-72 -58 -177 -58q-78 0 -135 32.5t-87.5 92.5t-30.5 140q0 71 31.5 127.5t85 89t117.5 32.5q107 0 164.5 -64.5t57.5 -169.5q0 -23 -3 -49zM178.5 391q-39.5 -39 -46.5 -101h272q-3 74 -40 107t-90 33
q-56 0 -95.5 -39zM146 617q-17 17 -17 43t17 43t43 17t43 -17t17 -43t-17 -43t-43 -17t-43 17zM316 617q-17 17 -17 43t17 43t43 17t43 -17t17 -43t-17 -43t-43 -17t-43 17z" />
    <glyph glyph-name="uni0454" unicode="&#x454;" horiz-adv-x="533" 
d="M395.5 85.5q45.5 19.5 78.5 54.5v-95q-71 -57 -177 -57q-79 0 -137 33.5t-89 93.5t-31 138q0 71 31.5 127.5t86 89t120.5 32.5q96 0 149 -48t58 -127h-88q-17 101 -119 101q-56 0 -95 -38.5t-48 -100.5h201v-78h-201q11 -67 55.5 -105t112.5 -38q47 -2 92.5 17.5z" />
    <glyph glyph-name="uni0456" unicode="&#x456;" horiz-adv-x="230" 
d="M72 617q-17 17 -17 43t17 43t43 17t43 -17t17 -43t-17 -43t-43 -17t-43 17zM70 490h90v-490h-90v490z" />
    <glyph glyph-name="uni0457" unicode="&#x457;" horiz-adv-x="230" 
d="M-13 617q-17 17 -17 43t17 43t43 17t43 -17t17 -43t-17 -43t-43 -17t-43 17zM157 617q-17 17 -17 43t17 43t43 17t43 -17t17 -43t-17 -43t-43 -17t-43 17zM70 490h90v-490h-90v490z" />
    <glyph glyph-name="uni045E" unicode="&#x45e;" horiz-adv-x="539" 
d="M524 490l-321 -712h-92l125 268l-221 444h105l163 -345l144 345h97zM97 735q31 -33 75 -51.5t91 -18.5t91 18.5t75 51.5v-92q-66 -54 -166 -54t-166 54v92z" />
    <glyph glyph-name="uni0490" unicode="&#x490;" horiz-adv-x="530" 
d="M510 826v-210h-334v-616h-96v700h338v126h92z" />
    <glyph glyph-name="uni0491" unicode="&#x491;" horiz-adv-x="400" 
d="M380 580v-170h-220v-410h-90v490h224v90h86z" />
    <glyph glyph-name="endash" unicode="&#x2013;" horiz-adv-x="540" 
d="M60 330h420v-80h-420v80z" />
    <glyph glyph-name="emdash" unicode="&#x2014;" horiz-adv-x="670" 
d="M60 330h550v-80h-550v80z" />
    <glyph glyph-name="quoteleft" unicode="&#x2018;" horiz-adv-x="260" 
d="M170 490h-113l99 231h41z" />
    <glyph glyph-name="quoteright" unicode="&#x2019;" horiz-adv-x="260" 
d="M90 722h113l-99 -231h-41z" />
    <glyph glyph-name="quotesinglbase" unicode="&#x201a;" horiz-adv-x="260" 
d="M90 131h113l-99 -231h-41z" />
    <glyph glyph-name="quotedblleft" unicode="&#x201c;" horiz-adv-x="420" 
d="M170 491h-113l99 231h41zM330 491h-113l99 231h41z" />
    <glyph glyph-name="quotedblright" unicode="&#x201d;" horiz-adv-x="420" 
d="M90 722h113l-99 -231h-41zM250 722h113l-99 -231h-41z" />
    <glyph glyph-name="quotedblbase" unicode="&#x201e;" horiz-adv-x="420" 
d="M90 131h113l-99 -231h-41zM250 131h113l-99 -231h-41z" />
    <glyph glyph-name="dagger" unicode="&#x2020;" horiz-adv-x="440" 
d="M420 410h-155v-468l-90 -59v527h-155v80h155v210h90v-210h155v-80z" />
    <glyph glyph-name="daggerdbl" unicode="&#x2021;" horiz-adv-x="440" 
d="M265 410v-120h155v-80h-155v-268l-90 -59v327h-155v80h155v120h-155v80h155v210h90v-210h155v-80h-155z" />
    <glyph glyph-name="bullet" unicode="&#x2022;" horiz-adv-x="420" 
d="M117 197q-37 37 -37 93t37 93t93 37t93 -37t37 -93t-37 -93t-93 -37t-93 37z" />
    <glyph glyph-name="ellipsis" unicode="&#x2026;" horiz-adv-x="780" 
d="M89.5 14.5q-19.5 19.5 -19.5 50.5t19.5 50.5t50.5 19.5t50.5 -19.5t19.5 -50.5t-19.5 -50.5t-50.5 -19.5t-50.5 19.5zM339.5 14.5q-19.5 19.5 -19.5 50.5t19.5 50.5t50.5 19.5t50.5 -19.5t19.5 -50.5t-19.5 -50.5t-50.5 -19.5t-50.5 19.5zM589.5 14.5
q-19.5 19.5 -19.5 50.5t19.5 50.5t50.5 19.5t50.5 -19.5t19.5 -50.5t-19.5 -50.5t-50.5 -19.5t-50.5 19.5z" />
    <glyph glyph-name="guilsinglleft" unicode="&#x2039;" horiz-adv-x="322" 
d="M282 115h-97l-145 175l145 175h95l-145 -174z" />
    <glyph glyph-name="guilsinglright" unicode="&#x203a;" horiz-adv-x="322" 
d="M282 290l-145 -175h-95l145 174l-147 176h97z" />
    <glyph glyph-name="fraction" unicode="&#x2044;" horiz-adv-x="178" 
d="M285 699h73l-465 -700h-73z" />
    <glyph glyph-name="Euro" unicode="&#x20ac;" 
d="M577 180v-111q-83 -81 -209 -81q-115 0 -191.5 71t-100.5 194h-76v60h68q-2 32 -2 48q0 17 1 26h-67v60h73q21 120 93 192.5t178 72.5q105 0 163.5 -60t70.5 -162h-88q-13 69 -51.5 104t-99.5 35q-63 0 -108.5 -49t-62.5 -133h192v-60h-199q-1 -9 -1 -26q0 -18 2 -48h198
v-60h-189q19 -86 70 -133t127 -47q130 0 209 107z" />
    <glyph glyph-name="uni20B4" unicode="&#x20b4;" 
d="M386 387l-102 -74h286v-60h-357q-17 -18 -25.5 -40t-8.5 -44q0 -40 32.5 -67t94.5 -27q60 0 117 26.5t100 72.5v-109q-86 -77 -225 -77q-65 0 -111 21.5t-69 56t-23 74.5q0 30 14 59.5t41 53.5h-120v60h177l102 74h-279v60h350q23 20 35.5 44t12.5 48q0 39 -30.5 65.5
t-87.5 26.5q-118 0 -136 -103h-89q11 89 73 136.5t154 47.5q61 0 103 -20.5t62.5 -53.5t20.5 -72q0 -29 -16 -62.5t-44 -56.5h132v-60h-184z" />
    <glyph glyph-name="uni2116" unicode="&#x2116;" horiz-adv-x="1106" 
d="M981.5 656q44.5 -45 44.5 -114t-44.5 -114t-113.5 -45t-113.5 45t-44.5 114t44.5 114t113.5 45t113.5 -45zM530 700h90v-740l-450 584v-544h-90v700h79l371 -481v481zM929 472.5q23 26.5 23 69.5t-23 69.5t-61 26.5t-61 -26.5t-23 -69.5t23 -69.5t61 -26.5t61 26.5z" />
    <glyph glyph-name="trademark" unicode="&#x2122;" horiz-adv-x="626" 
d="M30 705h214v-51h-79v-209h-56v209h-79v51zM280 705h55l84 -130l83 130h54v-260h-55v169l-83 -135l-83 135v-169h-55v260z" />
    <glyph glyph-name="minus" unicode="&#x2212;" 
d="M90 330h420v-80h-420v80z" />
    <glyph glyph-name="approxequal" unicode="&#x2248;" 
d="M90 388q47 47 113 47q31 0 55.5 -7.5t54.5 -22.5q26 -12 44 -18t39 -6q27 0 62 17t52 44v-92q-47 -47 -113 -47q-31 0 -55.5 7.5t-54.5 22.5q-26 12 -44 18t-39 6q-27 0 -62 -17t-52 -44v92zM90 228q47 47 113 47q31 0 55.5 -7.5t54.5 -22.5q26 -12 44 -18t39 -6
q27 0 62 17t52 44v-92q-47 -47 -113 -47q-31 0 -55.5 7.5t-54.5 22.5q-26 12 -44 18t-39 6q-27 0 -62 -17t-52 -44v92z" />
    <glyph glyph-name="notequal" unicode="&#x2260;" 
d="M363 330l-40 -90h187v-80h-223l-37 -82h-80l37 82h-117v80h153l40 90h-193v80h229l41 92h80l-41 -92h111v-80h-147z" />
    <glyph glyph-name="lessequal" unicode="&#x2264;" 
d="M510 422l-312 -103l312 -103v-78l-420 143v78l420 143v-80zM90 80h420v-80h-420v80z" />
    <glyph glyph-name="greaterequal" unicode="&#x2265;" 
d="M510 359v-78l-420 -143v78l312 103l-312 103v80zM90 80h420v-80h-420v80z" />
    <glyph glyph-name="bullet.ss01" horiz-adv-x="925" 
d="M281.5 37.5q-83.5 48.5 -132.5 131.5t-49 181t48.5 181.5t132 132.5t181.5 49t181.5 -48.5t132.5 -131.5t49 -182q0 -98 -48.5 -181t-131.5 -132t-182 -49q-98 0 -181.5 48.5zM638.5 46q81.5 47 129 128t47.5 177q0 95 -47 176t-128 128.5t-176 47.5q-62 0 -115 -19
q11 -20 15.5 -39.5t8.5 -47.5q-9 20 -28 34.5t-42 14.5q-44 0 -90 -46q-48 -49 -75.5 -113.5t-27.5 -136.5q0 -95 47 -175.5t128 -128t176 -47.5q96 0 177.5 47zM539 583q-50 0 -95 -31q18 27 51 51t62 24q57 0 73 -94q-31 50 -91 50zM237 386q-16 20 -16 63q0 20 2 30
q7 40 27.5 66.5t43.5 26.5q20 0 32 -18q16 -22 16 -61q0 -16 -3 -33q-7 -39 -26.5 -65.5t-42.5 -27.5h-7q-16 3 -26 19zM305 401q18 25 25 61q3 17 3 31q0 38 -15 57q-8 11 -19 13q-1 0 -2.5 0.5t-2.5 -0.5q-19 0 -37 -25t-25 -61q-3 -16 -3 -31q0 -36 15 -56q11 -14 24 -14
q19 0 37 25zM421 448q34 30 68.5 47t60.5 17q25 0 35 -15q7 -10 7 -25q0 -29 -23 -67q4 12 4 26q0 23 -13.5 34t-36.5 11q-25 0 -54.5 -12t-58.5 -34q-21 -17 -38 -35q23 30 49 53zM279 447q-5 11 -4 26h4q4 0 7.5 3.5t3.5 8.5q0 9 -9 11q10 17 20 17q9 0 15 -10t6 -24
q0 -19 -9 -32.5t-20 -11.5q-9 1 -14 12zM326.5 93.5q-62.5 56.5 -101.5 130t-37 113.5q25 -11 63 -19t84 -8q184 0 376 130q-48 -169 -115 -286t-139 -117q-68 0 -130.5 56.5zM594 174l-24 1q-94 0 -144 -32.5t-66 -61.5q48 -33 94 -33q70 -3 140 126z" />
    <glyph glyph-name="asterisk.ss01" horiz-adv-x="405" 
d="M244 528l85 -106l-52 -38l-74 113l-75 -114l-52 38l85 106l-131 37l20 59l126 -47l-6 136h65l-7 -135l127 47l20 -59z" />
    <glyph glyph-name="caron.alt" 
d="M244 712h95l-84 -161h-34z" />
    <glyph glyph-name="brevecombcy" horiz-adv-x="0" 
d="M-466 735q31 -33 75 -51.5t91 -18.5t91 18.5t75 51.5v-92q-66 -54 -166 -54t-166 54v92z" />
    </font>
</defs>
</svg>
